<svg width="390" height="608" viewBox="0 0 390 608" fill="none" xmlns="http://www.w3.org/2000/svg">
<g clip-path="url(#clip0_66_23)">
<rect width="390" height="608" fill="#F26F21"/>
<path d="M-27.9863 -11.8684C-27.8634 27.1768 3.93382 58.8996 43.0069 58.8996C82.1543 58.8996 114 27.0524 114 -12.0931C114 -13.1459 113.149 -14 112.093 -14H-26.0793C-26.0823 -14 -26.0901 -14 -26.093 -14C-27.1449 -14 -28 -13.1459 -28 -12.0931C-28.0005 -12.0182 -27.9931 -11.9438 -27.9863 -11.8684Z" fill="#FBE83C"/>
<path d="M205.733 59.2174C205.733 58.8689 205.547 58.5469 205.245 58.3726L187.503 48.1297C187.201 47.9559 186.829 47.9559 186.527 48.1297C186.226 48.304 186.04 48.6259 186.04 48.9745V69.4604C186.04 69.809 186.225 70.1309 186.527 70.3052C186.829 70.479 187.201 70.479 187.503 70.3052L205.245 60.0622C205.547 59.8885 205.733 59.5665 205.733 59.2174ZM187.991 50.6641L202.806 59.2174L187.991 67.7713V50.6641Z" fill="#FFFAEC"/>
<path d="M223.474 59.2174C223.474 58.8689 223.288 58.5469 222.986 58.3726L205.245 48.1297C204.943 47.9559 204.571 47.9559 204.269 48.1297C203.967 48.304 203.781 48.6259 203.781 48.9745V69.4604C203.781 69.809 203.967 70.1309 204.269 70.3052C204.571 70.479 204.942 70.479 205.245 70.3052L222.986 60.0622C223.288 59.8885 223.474 59.5665 223.474 59.2174ZM205.733 50.6641L220.548 59.2174L205.733 67.7708V50.6641Z" fill="#FFFAEC"/>
<path d="M186.694 59.2174C186.694 58.8689 186.508 58.5469 186.206 58.3726L168.464 48.1297C168.162 47.9559 167.79 47.9559 167.488 48.1297C167.186 48.304 167 48.6259 167 48.9745V69.4604C167 69.809 167.186 70.1309 167.488 70.3052C167.79 70.479 168.161 70.479 168.464 70.3052L186.206 60.0622C186.508 59.8885 186.694 59.5665 186.694 59.2174ZM168.952 50.6641L183.768 59.2174L168.952 67.7708V50.6641Z" fill="#FFFAEC"/>
<path d="M317.786 28.9996H283.439C282.644 28.9996 282 29.6437 282 30.4383C282 31.2328 282.644 31.877 283.439 31.877H317.786C318.58 31.877 319.224 31.2328 319.224 30.4383C319.224 29.6437 318.58 28.9996 317.786 28.9996Z" fill="#FCFFFF"/>
<path d="M79.8185 141.001C77.4668 141.001 75.1136 140.106 73.3234 138.315L66.0009 130.992L58.6776 138.315C55.0979 141.895 49.2715 141.897 45.6869 138.315C42.1058 134.733 42.1058 128.905 45.6869 125.323L53.0095 118L45.6869 110.678C42.1044 107.096 42.1044 101.269 45.6869 97.6869C49.268 94.1044 55.0965 94.1044 58.6776 97.6869L66.0009 105.009L73.3234 97.6869C76.9045 94.1044 82.7331 94.1044 86.3142 97.6869C89.8953 101.269 89.8953 107.096 86.3142 110.678L78.9903 118L86.3142 125.323C89.8953 128.905 89.8953 134.732 86.3142 138.315C84.5233 140.106 82.1702 141.001 79.8185 141.001ZM66.0009 127.895C66.3292 127.895 66.6576 128.02 66.9082 128.271L75.1375 136.5C77.7188 139.081 81.9181 139.081 84.4994 136.5C87.0794 133.918 87.0794 129.718 84.4994 127.137L76.2688 118.908C76.028 118.667 75.8929 118.34 75.8929 118C75.8929 117.66 76.028 117.334 76.2688 117.093L84.4994 108.864C87.0808 106.283 87.0794 102.083 84.4994 99.5016C81.9181 96.9203 77.7181 96.9203 75.1375 99.5016L66.9082 107.731C66.4069 108.232 65.5956 108.232 65.0943 107.731L56.8637 99.5016C54.2823 96.9203 50.083 96.9203 47.5016 99.5016C44.9203 102.083 44.9203 106.282 47.5016 108.864L55.7308 117.093C56.2321 117.594 56.2321 118.406 55.7308 118.907L47.5016 127.136C44.9217 129.718 44.9217 133.918 47.5016 136.499C50.083 139.079 54.283 139.081 56.8637 136.499L65.0943 128.27C65.3442 128.02 65.6725 127.895 66.0009 127.895Z" fill="#FFFAEC"/>
<path d="M118.639 589.079H87.5129V557.953H118.639V589.079ZM90.1625 586.43H115.991V560.602H90.1625V586.43Z" fill="#363636"/>
<path d="M90.382 589.079H59.2559V557.953H90.382V589.079ZM61.9054 586.43H87.733V560.602H61.9054V586.43Z" fill="#363636"/>
<path d="M62.1261 589.079H31V557.953H62.1261V589.079ZM33.6495 586.43H59.4778V560.602H33.6495V586.43Z" fill="#363636"/>
<path d="M146.895 560.603H115.769V529.477H146.895V560.603ZM118.418 557.954H144.247V532.125H118.418V557.954Z" fill="#363636"/>
<path d="M118.639 560.603H87.513V529.477H118.639V560.603ZM90.1625 557.954H115.991V532.125H90.1625V557.954Z" fill="#363636"/>
<path d="M90.382 560.603H59.2559V529.477H90.382V560.603ZM61.9054 557.954H87.733V532.125H61.9054V557.954Z" fill="#363636"/>
<path d="M118.639 532.126H87.513V501H118.639V532.126ZM90.1625 529.477H115.991V503.649H90.1625V529.477Z" fill="#363636"/>
<path d="M285.16 114.459C290.983 114.459 293.779 119.17 296.483 123.727C298.965 127.908 301.309 131.859 305.81 131.859C310.313 131.859 312.657 127.909 315.139 123.726C317.843 119.17 320.638 114.459 326.46 114.459C332.283 114.459 335.079 119.17 337.782 123.727C340.263 127.908 342.607 131.859 347.108 131.859C351.61 131.859 353.954 127.909 356.434 123.727C359.138 119.17 361.933 114.459 367.756 114.459C373.576 114.459 376.37 119.171 379.072 123.727C381.552 127.908 383.895 131.859 388.394 131.859C389.035 131.859 389.554 132.378 389.554 133.019C389.554 133.659 389.035 134.179 388.394 134.179C382.574 134.179 379.78 129.467 377.077 124.911C374.597 120.73 372.255 116.779 367.756 116.779C363.254 116.779 360.91 120.729 358.429 124.911C355.726 129.468 352.93 134.179 347.108 134.179C341.286 134.179 338.49 129.468 335.787 124.911C333.305 120.73 330.962 116.779 326.46 116.779C321.959 116.779 319.615 120.729 317.134 124.91C314.43 129.467 311.635 134.179 305.81 134.179C299.987 134.179 297.191 129.468 294.488 124.911C292.006 120.73 289.662 116.779 285.16 116.779C284.519 116.779 284 116.26 284 115.619C284.001 114.979 284.52 114.459 285.16 114.459Z" fill="#FBE83C"/>
<path d="M285.16 93C290.983 93 293.779 97.7112 296.483 102.268C298.965 106.449 301.309 110.4 305.81 110.4C310.313 110.4 312.657 106.45 315.139 102.267C317.843 97.7112 320.638 93 326.46 93C332.283 93 335.079 97.7112 337.782 102.268C340.263 106.449 342.607 110.4 347.108 110.4C351.61 110.4 353.954 106.45 356.434 102.268C359.138 97.7112 361.933 93 367.756 93C373.576 93 376.37 97.7119 379.072 102.268C381.552 106.449 383.895 110.4 388.394 110.4C389.035 110.4 389.554 110.919 389.554 111.56C389.554 112.2 389.035 112.72 388.394 112.72C382.574 112.72 379.78 108.008 377.077 103.452C374.597 99.2706 372.255 95.3203 367.756 95.3203C363.254 95.3203 360.91 99.27 358.429 103.452C355.726 108.009 352.93 112.72 347.108 112.72C341.286 112.72 338.49 108.009 335.787 103.452C333.305 99.2706 330.962 95.3203 326.46 95.3203C321.959 95.3203 319.615 99.27 317.134 103.451C314.43 108.008 311.635 112.72 305.81 112.72C299.987 112.72 297.191 108.009 294.488 103.452C292.006 99.2706 289.662 95.3203 285.16 95.3203C284.519 95.3203 284 94.8007 284 94.1601C284 93.5196 284.52 93 285.16 93Z" fill="#FBE83C"/>
<path d="M456.3 617.4C455.105 617.4 454.134 616.43 454.134 615.234C454.134 554.633 404.832 505.331 344.233 505.331C283.634 505.331 234.332 554.633 234.332 615.234C234.332 616.429 233.362 617.4 232.166 617.4C230.97 617.4 230 616.43 230 615.234C230 552.246 281.245 501 344.233 501C407.221 501 458.466 552.246 458.466 615.234C458.466 616.429 457.497 617.4 456.3 617.4Z" fill="#FBE83C"/>
<path d="M419.203 617.4C418.007 617.4 417.037 616.431 417.037 615.234C417.037 575.09 384.378 542.43 344.233 542.43C304.089 542.43 271.429 575.09 271.429 615.234C271.429 616.43 270.46 617.4 269.263 617.4C268.067 617.4 267.097 616.431 267.097 615.234C267.097 572.703 301.7 538.1 344.232 538.1C386.764 538.1 421.368 572.703 421.368 615.234C421.369 616.43 420.399 617.4 419.203 617.4Z" fill="#363636"/>
<path d="M386.555 617.4C385.359 617.4 384.389 616.431 384.389 615.234C384.389 593.093 366.375 575.078 344.233 575.078C322.091 575.078 304.077 593.093 304.077 615.234C304.077 616.43 303.108 617.4 301.911 617.4C300.715 617.4 299.746 616.431 299.746 615.234C299.746 590.704 319.703 570.746 344.233 570.746C368.763 570.746 388.721 590.704 388.721 615.234C388.721 616.43 387.751 617.4 386.555 617.4Z" fill="#FCFFFF"/>
<path d="M367.142 452.739C367.142 450.455 368.994 448.604 371.278 448.604C373.562 448.604 375.413 450.455 375.413 452.739C375.413 455.023 373.561 456.874 371.278 456.874C368.994 456.874 367.142 455.023 367.142 452.739Z" fill="white"/>
<path d="M344.014 452.739C344.014 450.455 345.865 448.604 348.149 448.604C350.433 448.604 352.285 450.455 352.285 452.739C352.285 455.023 350.433 456.874 348.149 456.874C345.865 456.874 344.014 455.023 344.014 452.739Z" fill="white"/>
<path d="M367.142 433.839C367.142 431.555 368.994 429.703 371.277 429.703C373.562 429.703 375.413 431.555 375.413 433.839C375.413 436.122 373.561 437.974 371.277 437.974C368.994 437.974 367.142 436.122 367.142 433.839Z" fill="white"/>
<path d="M348.006 429.707C350.289 429.636 352.197 431.429 352.269 433.711C352.34 435.994 350.547 437.903 348.265 437.974C345.982 438.045 344.073 436.252 344.002 433.97C343.931 431.686 345.724 429.778 348.006 429.707Z" fill="white"/>
<path d="M367.142 414.938C367.142 412.654 368.994 410.803 371.278 410.803C373.562 410.803 375.413 412.654 375.413 414.938C375.413 417.222 373.561 419.074 371.278 419.074C368.994 419.074 367.142 417.223 367.142 414.938Z" fill="white"/>
<path d="M344.014 414.938C344.014 412.654 345.865 410.803 348.149 410.803C350.433 410.803 352.285 412.654 352.285 414.938C352.285 417.222 350.433 419.074 348.149 419.074C345.865 419.074 344.014 417.223 344.014 414.938Z" fill="white"/>
<path d="M367.142 396.036C367.142 393.752 368.994 391.901 371.277 391.901C373.562 391.901 375.413 393.752 375.413 396.036C375.413 398.32 373.561 400.172 371.277 400.172C368.994 400.172 367.142 398.321 367.142 396.036Z" fill="white"/>
<path d="M344.014 396.036C344.014 393.752 345.865 391.901 348.149 391.901C350.433 391.901 352.285 393.752 352.285 396.036C352.285 398.32 350.433 400.172 348.149 400.172C345.865 400.172 344.014 398.321 344.014 396.036Z" fill="white"/>
<path d="M367.142 377.135C367.142 374.852 368.994 373 371.277 373C373.562 373 375.413 374.852 375.413 377.135C375.413 379.419 373.561 381.271 371.277 381.271C368.994 381.271 367.142 379.419 367.142 377.135Z" fill="white"/>
<path d="M344.013 377.135C344.013 374.852 345.865 373 348.149 373C350.433 373 352.284 374.852 352.284 377.135C352.284 379.419 350.433 381.271 348.149 381.271C345.865 381.271 344.013 379.419 344.013 377.135Z" fill="white"/>
<path d="M211.5 508C210.613 508 209.894 507.281 209.894 506.394V478.606C209.894 477.719 210.613 477 211.5 477C212.387 477 213.106 477.719 213.106 478.606V506.394C213.106 507.281 212.387 508 211.5 508Z" fill="#363636"/>
<path d="M225.394 494.106H197.606C196.719 494.106 196 493.387 196 492.5C196 491.614 196.719 490.895 197.606 490.895H225.394C226.281 490.895 227 491.614 227 492.5C227 493.387 226.281 494.106 225.394 494.106Z" fill="#363636"/>
<path d="M33.1606 477.316C32.9928 477.316 32.8327 477.249 32.7141 477.131L23.1849 467.601C22.9384 467.354 22.9384 466.954 23.1849 466.708L32.7141 457.178C32.9513 456.941 33.3707 456.941 33.6071 457.178L43.1362 466.708C43.3828 466.954 43.3828 467.354 43.1362 467.601L33.6071 477.131C33.4885 477.249 33.3283 477.316 33.1606 477.316ZM24.5244 467.154L33.1606 475.791L41.7967 467.154L33.1606 458.518L24.5244 467.154Z" fill="#FFFAEC"/>
</g>
<defs>
<clipPath id="clip0_66_23">
<rect width="390" height="608" fill="white"/>
</clipPath>
</defs>
</svg>
