<svg width="1440" height="400" viewBox="0 0 1440 400" fill="none" xmlns="http://www.w3.org/2000/svg">
<g clip-path="url(#clip0_24_4)">
<rect width="1440" height="400" fill="#F26F21"/>
<path d="M-27.9789 -10.7251C-27.7902 49.2623 21.0618 98 81.0921 98C141.237 98 190.163 49.0713 190.163 -11.0703C190.163 -12.6878 188.855 -14 187.233 -14H-25.0492C-25.0537 -14 -25.0657 -14 -25.0702 -14C-26.6862 -14 -28 -12.6878 -28 -11.0703C-28.0007 -10.9552 -27.9894 -10.8409 -27.9789 -10.7251Z" fill="#FBE83C"/>
<path d="M1021.44 371.871C1020.21 371.871 1019.22 370.876 1019.22 369.65V331.22C1019.22 329.994 1020.21 329 1021.44 329C1022.66 329 1023.66 329.994 1023.66 331.22V369.65C1023.66 370.876 1022.66 371.871 1021.44 371.871Z" fill="#363636"/>
<path d="M1040.65 352.656H1002.22C1000.99 352.656 1000 351.662 1000 350.436C1000 349.21 1000.99 348.215 1002.22 348.215H1040.65C1041.88 348.215 1042.87 349.21 1042.87 350.436C1042.87 351.662 1041.88 352.656 1040.65 352.656Z" fill="#363636"/>
<path d="M283.332 43.7087C283.332 44.1346 283.105 44.5281 282.736 44.7411L261.055 57.2581C260.686 57.4705 260.232 57.4705 259.863 57.2581C259.494 57.0451 259.267 56.6517 259.267 56.2257V31.1916C259.267 30.7657 259.493 30.3722 259.863 30.1593C260.232 29.9469 260.686 29.9469 261.055 30.1593L282.736 42.6763C283.105 42.8887 283.332 43.2821 283.332 43.7087ZM261.651 54.161L279.756 43.7087L261.651 33.2558V54.161Z" fill="#FFFAEC"/>
<path d="M305.012 43.7087C305.012 44.1346 304.785 44.5281 304.416 44.7411L282.735 57.2581C282.367 57.4705 281.912 57.4705 281.543 57.2581C281.174 57.0451 280.947 56.6517 280.947 56.2257V31.1916C280.947 30.7657 281.174 30.3722 281.543 30.1593C281.912 29.9469 282.366 29.9469 282.735 30.1593L304.416 42.6763C304.785 42.8887 305.012 43.2821 305.012 43.7087ZM283.332 54.161L301.436 43.7087L283.332 33.2564V54.161Z" fill="#FFFAEC"/>
<path d="M260.066 43.7087C260.066 44.1346 259.839 44.5281 259.47 44.7411L237.789 57.2581C237.42 57.4705 236.966 57.4705 236.596 57.2581C236.227 57.0451 236 56.6517 236 56.2257V31.1916C236 30.7657 236.227 30.3722 236.596 30.1593C236.965 29.9469 237.419 29.9469 237.789 30.1593L259.47 42.6763C259.839 42.8887 260.066 43.2821 260.066 43.7087ZM238.385 54.161L256.49 43.7087L238.385 33.2564V54.161Z" fill="#FFFAEC"/>
<path d="M1133.07 290.687C1127.25 290.687 1122.51 285.95 1122.51 280.127C1122.51 274.305 1127.25 269.567 1133.07 269.567C1138.89 269.567 1143.63 274.304 1143.63 280.127C1143.63 285.951 1138.89 290.687 1133.07 290.687ZM1133.07 271.262C1128.18 271.262 1124.2 275.239 1124.2 280.127C1124.2 285.016 1128.18 288.992 1133.07 288.992C1137.96 288.992 1141.94 285.015 1141.94 280.127C1141.94 275.239 1137.96 271.262 1133.07 271.262Z" fill="#FCFFFF"/>
<path d="M386.237 271.262H335.432C334.964 271.262 334.585 270.882 334.585 270.414C334.585 269.947 334.964 269.567 335.432 269.567H386.237C386.705 269.567 387.085 269.947 387.085 270.414C387.085 270.882 386.705 271.262 386.237 271.262Z" fill="#FCFFFF"/>
<path d="M753.287 35.6954H717.585C717.117 35.6954 716.737 35.3158 716.737 34.8481C716.737 34.3805 717.117 34.0009 717.585 34.0009H753.287C753.755 34.0009 754.135 34.3805 754.135 34.8481C754.135 35.3158 753.756 35.6954 753.287 35.6954Z" fill="#FFFAEC"/>
<path d="M706.066 35.6945H687.847C687.38 35.6945 687 35.315 687 34.8473C687 34.3796 687.38 34 687.847 34H706.066C706.534 34 706.913 34.3796 706.913 34.8473C706.913 35.3158 706.534 35.6945 706.066 35.6945Z" fill="#FFFAEC"/>
<path d="M1464.3 433.4C1463.1 433.4 1462.13 432.43 1462.13 431.234C1462.13 370.633 1412.83 321.331 1352.23 321.331C1291.63 321.331 1242.33 370.633 1242.33 431.234C1242.33 432.429 1241.36 433.4 1240.17 433.4C1238.97 433.4 1238 432.43 1238 431.234C1238 368.246 1289.24 317 1352.23 317C1415.22 317 1466.47 368.246 1466.47 431.234C1466.47 432.429 1465.5 433.4 1464.3 433.4Z" fill="#FBE83C"/>
<path d="M1427.2 433.4C1426.01 433.4 1425.04 432.43 1425.04 431.234C1425.04 391.089 1392.38 358.43 1352.23 358.43C1312.09 358.43 1279.43 391.089 1279.43 431.234C1279.43 432.429 1278.46 433.4 1277.26 433.4C1276.07 433.4 1275.1 432.43 1275.1 431.234C1275.1 388.702 1309.7 354.099 1352.23 354.099C1394.76 354.099 1429.37 388.702 1429.37 431.234C1429.37 432.429 1428.4 433.4 1427.2 433.4Z" fill="#363636"/>
<path d="M1394.55 433.4C1393.36 433.4 1392.39 432.43 1392.39 431.234C1392.39 409.092 1374.38 391.077 1352.23 391.077C1330.09 391.077 1312.08 409.092 1312.08 431.234C1312.08 432.429 1311.11 433.4 1309.91 433.4C1308.72 433.4 1307.75 432.43 1307.75 431.234C1307.75 406.703 1327.7 386.745 1352.23 386.745C1376.76 386.745 1396.72 406.703 1396.72 431.234C1396.72 432.429 1395.75 433.4 1394.55 433.4Z" fill="#FCFFFF"/>
<path d="M1192.86 351.367C1195.37 351.367 1197.41 349.328 1197.41 346.813C1197.41 344.298 1195.37 342.259 1192.86 342.259C1190.34 342.259 1188.3 344.298 1188.3 346.813C1188.3 349.328 1190.34 351.367 1192.86 351.367Z" fill="#363636"/>
<path d="M1443.35 52.3684C1445.86 52.3684 1447.9 50.3295 1447.9 47.8144C1447.9 45.2993 1445.86 43.2603 1443.35 43.2603C1440.83 43.2603 1438.79 45.2993 1438.79 47.8144C1438.79 50.3295 1440.83 52.3684 1443.35 52.3684Z" fill="#FCFFFF"/>
<path d="M845.441 56.8488C845.441 59.3643 843.403 61.4028 840.887 61.4028C838.372 61.4028 836.333 59.3643 836.333 56.8488C836.333 54.3333 838.372 52.2948 840.887 52.2948C843.403 52.2948 845.441 54.3333 845.441 56.8488Z" fill="#FCFFFF"/>
<path d="M1420.14 188.74C1420.14 186.456 1421.99 184.604 1424.28 184.604C1426.56 184.604 1428.41 186.456 1428.41 188.74C1428.41 191.023 1426.56 192.875 1424.28 192.875C1421.99 192.875 1420.14 191.023 1420.14 188.74Z" fill="white"/>
<path d="M1397.01 188.74C1397.01 186.456 1398.87 184.604 1401.15 184.604C1403.43 184.604 1405.28 186.456 1405.28 188.74C1405.28 191.023 1403.43 192.875 1401.15 192.875C1398.87 192.875 1397.01 191.023 1397.01 188.74Z" fill="white"/>
<path d="M1420.14 169.838C1420.14 167.554 1421.99 165.703 1424.28 165.703C1426.56 165.703 1428.41 167.554 1428.41 169.838C1428.41 172.122 1426.56 173.974 1424.28 173.974C1421.99 173.974 1420.14 172.122 1420.14 169.838Z" fill="white"/>
<path d="M1401.01 165.706C1403.29 165.634 1405.2 167.427 1405.27 169.71C1405.34 171.993 1403.55 173.901 1401.26 173.972C1398.98 174.044 1397.07 172.251 1397 169.968C1396.93 167.685 1398.72 165.777 1401.01 165.706Z" fill="white"/>
<path d="M1420.14 150.937C1420.14 148.654 1421.99 146.802 1424.28 146.802C1426.56 146.802 1428.41 148.654 1428.41 150.937C1428.41 153.221 1426.56 155.073 1424.28 155.073C1421.99 155.073 1420.14 153.222 1420.14 150.937Z" fill="white"/>
<path d="M1397.01 150.937C1397.01 148.653 1398.87 146.802 1401.15 146.802C1403.43 146.802 1405.28 148.653 1405.28 150.937C1405.28 153.221 1403.43 155.073 1401.15 155.073C1398.87 155.073 1397.01 153.222 1397.01 150.937Z" fill="white"/>
<path d="M1420.14 132.036C1420.14 129.752 1421.99 127.901 1424.28 127.901C1426.56 127.901 1428.41 129.752 1428.41 132.036C1428.41 134.32 1426.56 136.171 1424.28 136.171C1421.99 136.172 1420.14 134.32 1420.14 132.036Z" fill="white"/>
<path d="M1397.01 132.036C1397.01 129.752 1398.87 127.901 1401.15 127.901C1403.43 127.901 1405.28 129.752 1405.28 132.036C1405.28 134.32 1403.43 136.171 1401.15 136.171C1398.87 136.172 1397.01 134.32 1397.01 132.036Z" fill="white"/>
<path d="M1420.14 113.135C1420.14 110.852 1421.99 109 1424.28 109C1426.56 109 1428.41 110.852 1428.41 113.135C1428.41 115.419 1426.56 117.271 1424.28 117.271C1421.99 117.271 1420.14 115.419 1420.14 113.135Z" fill="white"/>
<path d="M1397.01 113.135C1397.01 110.852 1398.87 109 1401.15 109C1403.43 109 1405.28 110.852 1405.28 113.135C1405.28 115.419 1403.43 117.271 1401.15 117.271C1398.87 117.271 1397.01 115.419 1397.01 113.135Z" fill="white"/>
<path d="M125.639 376.08H94.5129V344.954H125.639V376.08ZM97.1625 373.431H122.991V347.603H97.1625V373.431Z" fill="#363636"/>
<path d="M97.382 376.08H66.2559V344.954H97.382V376.08ZM68.9054 373.431H94.733V347.603H68.9054V373.431Z" fill="#363636"/>
<path d="M69.1261 376.08H38V344.954H69.1261V376.08ZM40.6495 373.431H66.4778V347.603H40.6495V373.431Z" fill="#363636"/>
<path d="M153.895 347.603H122.769V316.477H153.895V347.603ZM125.418 344.954H151.247V319.126H125.418V344.954Z" fill="#363636"/>
<path d="M125.639 347.603H94.5129V316.477H125.639V347.603ZM97.1625 344.954H122.991V319.126H97.1625V344.954Z" fill="#363636"/>
<path d="M97.382 347.603H66.2559V316.477H97.382V347.603ZM68.9054 344.954H94.733V319.126H68.9054V344.954Z" fill="#363636"/>
<path d="M125.639 319.126H94.5129V288H125.639V319.126ZM97.1625 316.477H122.991V290.649H97.1625V316.477Z" fill="#363636"/>
<path d="M1290.56 91.6692C1287.71 91.6692 1284.86 90.5856 1282.7 88.4183L1273.83 79.5567L1264.97 88.4183C1260.64 92.7512 1253.59 92.7529 1249.25 88.4183C1244.92 84.0837 1244.92 77.031 1249.25 72.6956L1258.11 63.8341L1249.25 54.9726C1244.92 50.638 1244.92 43.5862 1249.25 39.2516C1253.59 34.9161 1260.64 34.9161 1264.97 39.2516L1273.83 48.1131L1282.7 39.2516C1287.03 34.9161 1294.08 34.9161 1298.42 39.2516C1302.75 43.587 1302.75 50.6388 1298.42 54.9726L1289.55 63.8341L1298.42 72.6956C1302.75 77.031 1302.75 84.0828 1298.42 88.4183C1296.25 90.5856 1293.4 91.6692 1290.56 91.6692ZM1273.83 75.8084C1274.23 75.8084 1274.63 75.9601 1274.93 76.2634L1284.89 86.2222C1288.02 89.346 1293.1 89.346 1296.22 86.2222C1299.34 83.0974 1299.34 78.0147 1296.22 74.8909L1286.26 64.9321C1285.97 64.6407 1285.81 64.2458 1285.81 63.8341C1285.81 63.4223 1285.97 63.0275 1286.26 62.736L1296.22 52.7773C1299.35 49.6543 1299.34 44.5716 1296.22 41.4477C1293.1 38.3238 1288.01 38.3238 1284.89 41.4477L1274.93 51.4064C1274.33 52.0131 1273.34 52.0131 1272.74 51.4064L1262.78 41.4477C1259.65 38.3238 1254.57 38.3238 1251.45 41.4477C1248.32 44.5716 1248.32 49.6534 1251.45 52.7773L1261.41 62.736C1262.01 63.3427 1262.01 64.3255 1261.41 64.9313L1251.45 74.89C1248.33 78.0147 1248.33 83.0975 1251.45 86.2213C1254.57 89.3435 1259.65 89.3452 1262.78 86.2213L1272.74 76.2626C1273.04 75.9601 1273.44 75.8084 1273.83 75.8084Z" fill="#FFFAEC"/>
<path d="M534.908 47.0357H492.936C491.965 47.0357 491.178 46.2486 491.178 45.2777C491.178 44.3067 491.965 43.5196 492.936 43.5196H534.908C535.879 43.5196 536.666 44.3067 536.666 45.2777C536.666 46.2486 535.879 47.0357 534.908 47.0357Z" fill="#FCFFFF"/>
<path d="M274.16 362.459C279.983 362.459 282.779 367.171 285.483 371.727C287.965 375.909 290.309 379.859 294.81 379.859C299.313 379.859 301.657 375.909 304.139 371.726C306.843 367.171 309.638 362.459 315.46 362.459C321.283 362.459 324.079 367.171 326.782 371.727C329.263 375.909 331.607 379.859 336.108 379.859C340.61 379.859 342.954 375.909 345.434 371.727C348.138 367.171 350.933 362.459 356.756 362.459C362.576 362.459 365.37 367.171 368.072 371.727C370.552 375.909 372.895 379.859 377.394 379.859C378.035 379.859 378.554 380.378 378.554 381.019C378.554 381.66 378.035 382.179 377.394 382.179C371.574 382.179 368.78 377.467 366.077 372.911C363.597 368.73 361.255 364.78 356.756 364.78C352.254 364.78 349.91 368.729 347.429 372.911C344.726 377.468 341.93 382.179 336.108 382.179C330.286 382.179 327.49 377.468 324.787 372.911C322.305 368.73 319.962 364.78 315.46 364.78C310.959 364.78 308.615 368.729 306.134 372.911C303.43 377.467 300.635 382.179 294.81 382.179C288.987 382.179 286.191 377.468 283.488 372.911C281.006 368.73 278.662 364.78 274.16 364.78C273.519 364.78 273 364.26 273 363.619C273.001 362.979 273.52 362.459 274.16 362.459Z" fill="#FBE83C"/>
<path d="M274.16 341C279.983 341 282.779 345.711 285.483 350.268C287.965 354.449 290.309 358.4 294.81 358.4C299.313 358.4 301.657 354.45 304.139 350.267C306.843 345.711 309.638 341 315.46 341C321.283 341 324.079 345.711 326.782 350.268C329.263 354.449 331.607 358.4 336.108 358.4C340.61 358.4 342.954 354.45 345.434 350.268C348.138 345.711 350.933 341 356.756 341C362.576 341 365.37 345.712 368.072 350.268C370.552 354.449 372.895 358.4 377.394 358.4C378.035 358.4 378.554 358.919 378.554 359.56C378.554 360.2 378.035 360.72 377.394 360.72C371.574 360.72 368.78 356.008 366.077 351.452C363.597 347.271 361.255 343.32 356.756 343.32C352.254 343.32 349.91 347.27 347.429 351.452C344.726 356.009 341.93 360.72 336.108 360.72C330.286 360.72 327.49 356.009 324.787 351.452C322.305 347.271 319.962 343.32 315.46 343.32C310.959 343.32 308.615 347.27 306.134 351.451C303.43 356.008 300.635 360.72 294.81 360.72C288.987 360.72 286.191 356.009 283.488 351.452C281.006 347.271 278.662 343.32 274.16 343.32C273.519 343.32 273 342.801 273 342.16C273 341.52 273.52 341 274.16 341Z" fill="#FBE83C"/>
<path d="M558.161 367.316C557.993 367.316 557.833 367.249 557.714 367.131L548.185 357.601C547.938 357.354 547.938 356.954 548.185 356.708L557.714 347.178C557.951 346.941 558.371 346.941 558.607 347.178L568.136 356.708C568.383 356.954 568.383 357.354 568.136 357.601L558.607 367.131C558.488 367.249 558.328 367.316 558.161 367.316ZM549.524 357.154L558.161 365.791L566.797 357.154L558.161 348.518L549.524 357.154Z" fill="#FFFAEC"/>
</g>
<defs>
<clipPath id="clip0_24_4">
<rect width="1440" height="400" fill="white"/>
</clipPath>
</defs>
</svg>
