<svg width="292" height="408" viewBox="0 0 292 408" fill="none" xmlns="http://www.w3.org/2000/svg">
<rect width="292" height="408" rx="24" fill="#DDE8FF"/>
<path d="M98.974 28.08V38.192H98.846C98.846 37.424 98.142 29.744 90.91 29.744H79.902V51.568H90.27C95.902 51.568 96.478 45.936 96.478 45.36H96.542V59.44H96.478C96.478 58.864 95.902 53.232 90.27 53.232H79.902V76.336H92.19C99.422 76.336 100.126 68.656 100.126 67.888H100.254V78H65.566V77.872C65.95 77.872 69.534 77.296 69.534 70.832V35.248C69.534 28.784 65.95 28.208 65.566 28.208V28.08H98.974ZM107.355 40.688C107.355 31.92 114.907 27.184 124.635 27.184C130.459 27.184 133.979 28.08 138.523 28.08V38.576H138.395C138.011 36.528 137.307 33.904 135.067 31.856C133.083 30.128 129.947 28.848 124.763 28.848C119.515 28.848 114.651 30.96 114.651 35.888C114.651 40.304 118.747 42.672 122.331 44.72L131.355 49.84C138.587 53.936 141.531 58.736 141.531 64.24C141.531 72.816 134.427 78.384 122.651 78.384C118.555 78.384 112.603 78 108.507 78V64.688H108.635C108.955 67.504 109.595 70.576 111.835 73.008C113.819 75.184 117.147 76.72 122.075 76.72C130.523 76.72 133.211 72.752 133.211 68.656C133.211 65.328 131.547 62.448 125.339 58.928L115.867 53.552C110.427 50.48 107.355 46.64 107.355 40.688ZM183.067 28.08V38.192H182.939C182.939 37.424 182.235 29.744 175.003 29.744H162.715V53.488H174.363C179.995 53.488 180.571 47.856 180.571 47.28H180.635V61.36H180.571C180.571 60.784 179.995 55.152 174.363 55.152H162.715V70.832C162.715 77.296 166.299 77.872 166.683 77.872V78H148.379V77.872C148.763 77.872 152.347 77.296 152.347 70.832V35.248C152.347 28.784 148.763 28.208 148.379 28.208V28.08H183.067ZM190.441 78V77.872C190.825 77.872 194.409 77.296 194.409 70.832V35.248C194.409 28.784 190.825 28.208 190.441 28.208V28.08H208.809C215.849 28.08 220.969 29.36 224.169 32.24C226.665 34.48 227.945 37.872 227.945 42.416C227.945 48.368 225.321 52.72 221.097 55.536C217.385 58.032 212.393 59.248 206.889 59.248H204.777V70.832C204.777 77.296 208.361 77.872 208.745 77.872V78H190.441ZM204.777 57.584H206.249C209.257 57.584 211.753 56.624 213.545 54.832C216.105 52.336 217.449 48.176 217.449 42.736C217.449 37.872 216.489 34.544 214.633 32.432C212.969 30.576 210.537 29.744 207.529 29.744H204.777V57.584Z" fill="#344E81"/>
<path d="M60.06 116V115.96C60.18 115.96 61.3 115.78 61.3 113.76V102.64C61.3 100.62 60.18 100.44 60.06 100.44V100.4H63.78L72.42 110.9V102.64C72.42 100.62 71.3 100.44 71.18 100.44V100.4H74.22V100.44C74.1 100.44 72.98 100.62 72.98 102.64V116.12L61.86 102.64V113.76C61.86 115.78 62.98 115.96 63.1 115.96V116H60.06ZM80.1228 119.86C81.1828 119.86 81.8628 119.44 82.3028 118.84C82.9828 117.9 83.1028 116.52 83.1028 115.52V114.4C82.4828 115.54 81.2228 116.24 79.8628 116.24C76.7828 116.24 74.8628 113.88 74.8628 110.56C74.8628 106.84 76.7828 104.08 80.1828 104.08C81.7828 104.08 82.5828 104.74 83.1028 105.46V104.28H87.5428V104.32C87.4228 104.32 86.3028 104.5 86.3028 106.52V115.2C86.3028 116.9 85.6628 118.08 84.7628 118.88C83.5428 119.98 81.8228 120.34 80.6028 120.34C78.6028 120.34 77.3028 119.64 76.5628 119.64V116.56H76.6228C76.8028 117.6 77.2828 118.34 77.8428 118.86C78.6428 119.6 79.6028 119.86 80.1228 119.86ZM78.0428 110.36C78.0428 113.12 79.0228 115.36 80.7628 115.36C81.7828 115.36 82.5228 114.76 83.1028 113.38V106.52C82.5828 105.42 81.8428 105.16 81.2628 105.16C79.4228 105.16 78.0428 107.2 78.0428 110.36ZM93.1914 116.2C92.1914 116.2 91.2914 115.9 90.6314 115.32C89.9914 114.74 89.5914 113.88 89.5914 112.74V106.52C89.5914 104.5 88.4714 104.32 88.3514 104.32V104.28H92.7914V112.48C92.7914 112.98 92.8314 113.64 93.0914 114.18C93.3514 114.7 93.8114 115.08 94.5114 115.08C95.9314 115.08 96.9514 113.66 96.9514 111.7V106.52C96.9514 104.5 95.8314 104.32 95.7114 104.32V104.28H100.151V105.08C100.471 104.82 100.571 104.54 100.591 104.28C100.591 104.06 100.511 103.54 99.7114 103.34V103.32L101.371 102.16C101.611 102.34 101.951 102.96 101.911 103.5C101.851 104.46 100.831 105.1 100.151 105.4V113.76C100.151 115.78 101.271 115.96 101.391 115.96V116H96.9514V113.92C96.4714 115.04 95.3914 116.2 93.1914 116.2ZM108.827 116.24C104.947 116.24 103.027 113.48 103.027 110.16C103.027 106.84 104.947 104.08 108.827 104.08C110.307 104.08 111.507 104.48 112.427 105.16C112.567 104.96 112.607 104.74 112.587 104.56C112.567 104.34 112.447 103.84 111.627 103.7V103.68L113.187 102.38C113.447 102.54 113.827 103.14 113.847 103.68C113.867 104.42 113.287 105.02 112.727 105.42C113.987 106.54 114.627 108.26 114.627 110.16C114.627 113.48 112.707 116.24 108.827 116.24ZM106.307 110.16C106.307 113.12 106.987 115.76 108.827 115.76C110.667 115.76 111.367 113.12 111.367 110.16C111.367 107.2 110.667 104.56 108.827 104.56C106.987 104.56 106.307 107.2 106.307 110.16ZM106.707 101.8V101.74L107.767 100.26H107.827C108.647 101.4 110.107 102.96 111.067 103.34L111.007 103.4C109.827 103.24 107.727 102.58 106.707 101.8ZM117.064 106.52C117.064 104.5 115.944 104.32 115.824 104.32V104.28H120.264V113.76C120.264 115.78 121.384 115.96 121.504 115.96V116H115.824V115.96C115.944 115.96 117.064 115.78 117.064 113.76V106.52ZM116.864 101.44C116.864 100.5 117.644 99.72 118.584 99.72C119.524 99.72 120.304 100.5 120.304 101.44C120.304 102.38 119.524 103.16 118.584 103.16C117.644 103.16 116.864 102.38 116.864 101.44ZM131.381 112.92C131.381 114.1 131.541 115.16 132.721 115.16C133.601 115.16 134.421 114.62 134.821 114.22H134.881C134.741 114.68 133.281 116.14 131.241 116.14C129.501 116.14 128.181 115.64 128.181 113.28V104.76H127.181V104.28H128.181V101.2H131.381V104.28H134.701V104.76H131.381V112.92ZM136.849 106.52C136.849 104.5 135.729 104.32 135.609 104.32V104.28H140.049V106.36C140.529 105.24 141.289 104.08 143.009 104.08C144.089 104.08 144.389 104.28 144.549 104.28V108.2H144.509C144.509 107.32 144.149 106.56 143.569 106.1C143.169 105.78 142.669 105.6 142.109 105.6C140.749 105.6 140.049 106.62 140.049 108.58V113.76C140.049 115.78 141.169 115.96 141.289 115.96V116H135.609V115.96C135.729 115.96 136.849 115.78 136.849 113.76V106.52ZM146.985 106.52C146.985 104.5 145.865 104.32 145.745 104.32V104.28H150.185V113.76C150.185 115.78 151.305 115.96 151.425 115.96V116H145.745V115.96C145.865 115.96 146.985 115.78 146.985 113.76V106.52ZM146.385 101.28V101.22L147.445 99.74H147.505C148.325 100.88 149.785 102.44 150.745 102.82L150.685 102.88C149.505 102.72 147.405 102.06 146.385 101.28ZM153.939 106.52C153.939 104.5 152.819 104.32 152.699 104.32V104.28H157.139V106.36C157.619 105.24 158.699 104.08 160.899 104.08C161.899 104.08 162.799 104.38 163.459 104.96C164.099 105.54 164.499 106.4 164.499 107.54V113.76C164.499 115.78 165.619 115.96 165.739 115.96V116H160.059V115.96C160.179 115.96 161.299 115.78 161.299 113.76V107.8C161.299 107.3 161.259 106.64 160.999 106.1C160.739 105.58 160.279 105.2 159.579 105.2C158.159 105.2 157.139 106.62 157.139 108.58V113.76C157.139 115.78 158.259 115.96 158.379 115.96V116H152.699V115.96C152.819 115.96 153.939 115.78 153.939 113.76V106.52ZM167.859 102.24C167.859 100.22 166.739 100.04 166.619 100.04V100H171.059V106.36C171.539 105.24 172.619 104.08 174.819 104.08C175.819 104.08 176.719 104.38 177.379 104.96C178.019 105.54 178.419 106.4 178.419 107.54V113.76C178.419 115.78 179.539 115.96 179.659 115.96V116H173.979V115.96C174.099 115.96 175.219 115.78 175.219 113.76V107.8C175.219 107.3 175.179 106.64 174.919 106.1C174.659 105.58 174.199 105.2 173.499 105.2C172.079 105.2 171.059 106.62 171.059 108.58V113.76C171.059 115.78 172.179 115.96 172.299 115.96V116H166.619V115.96C166.739 115.96 167.859 115.78 167.859 113.76V102.24ZM193.669 102.24C193.669 100.22 192.549 100.04 192.429 100.04V100H196.869V113.76C196.869 115.78 197.989 115.96 198.109 115.96V116H193.669V114.4C193.049 115.54 191.789 116.24 190.429 116.24C187.349 116.24 185.429 113.88 185.429 110.56C185.429 106.84 187.349 104.08 190.749 104.08C192.349 104.08 193.149 104.74 193.669 105.46V102.24ZM188.609 110.36C188.609 113.12 189.589 115.36 191.329 115.36C192.349 115.36 193.089 114.76 193.669 113.38V106.52C193.149 105.42 192.409 105.16 191.829 105.16C189.989 105.16 188.609 107.2 188.609 110.36ZM200.638 106.52C200.638 104.5 199.518 104.32 199.398 104.32V104.28H203.838V113.76C203.838 115.78 204.958 115.96 205.078 115.96V116H199.398V115.96C199.518 115.96 200.638 115.78 200.638 113.76V106.52ZM200.438 101.44C200.438 100.5 201.218 99.72 202.158 99.72C203.098 99.72 203.878 100.5 203.878 101.44C203.878 102.38 203.098 103.16 202.158 103.16C201.218 103.16 200.438 102.38 200.438 101.44ZM212.071 116.24C208.191 116.24 206.191 113.68 206.191 110.36C206.191 106.84 208.591 104.08 212.411 104.08C215.551 104.08 216.791 105.72 216.791 107.52C216.791 110.26 213.211 111.08 209.491 111.1C209.671 113.5 210.691 115.36 213.211 115.36C214.831 115.36 215.771 114.42 216.331 113.6L216.391 113.64C216.271 114.02 215.391 116.24 212.071 116.24ZM209.031 103.46L209.071 103.48C210.231 103.46 211.671 102.82 212.371 102.36H212.411C213.111 102.82 214.551 103.46 215.711 103.48L215.751 103.46C214.691 102.98 212.971 101.48 212.411 100.56H212.371C211.811 101.48 210.091 102.98 209.031 103.46ZM209.471 110.62C213.011 110.6 214.391 109.06 214.391 107C214.391 105.74 213.711 104.56 212.471 104.56C210.431 104.56 209.491 107.2 209.471 110.62ZM211.031 100.82C211.531 99.16 212.171 98.34 212.831 98.34C213.591 98.34 214.971 99.46 215.651 99.46C216.031 99.46 216.311 99.36 216.631 98.4H216.711C216.331 100.12 215.771 100.8 215.111 100.8C214.151 100.8 213.071 99.74 212.231 99.74C211.851 99.74 211.471 100.04 211.091 100.82H211.031ZM219.232 106.52C219.232 104.5 218.112 104.32 217.992 104.32V104.28H222.432V106.36C222.912 105.24 223.992 104.08 226.192 104.08C227.192 104.08 228.092 104.38 228.752 104.96C229.392 105.54 229.792 106.4 229.792 107.54V113.76C229.792 115.78 230.912 115.96 231.032 115.96V116H225.352V115.96C225.472 115.96 226.592 115.78 226.592 113.76V107.8C226.592 107.3 226.552 106.64 226.292 106.1C226.032 105.58 225.572 105.2 224.872 105.2C223.452 105.2 222.432 106.62 222.432 108.58V113.76C222.432 115.78 223.552 115.96 223.672 115.96V116H217.992V115.96C218.112 115.96 219.232 115.78 219.232 113.76V106.52Z" fill="#344E81"/>
<g clip-path="url(#clip0_1_3806)">
<path d="M146.369 388.778C215.609 388.778 271.739 332.64 271.739 263.389C271.739 194.139 215.609 138 146.369 138C77.1297 138 21 194.139 21 263.389C21 332.64 77.1297 388.778 146.369 388.778Z" fill="#344E81"/>
<path d="M223.419 166.405H213.218V179.698H223.419V166.405Z" fill="white"/>
<path d="M212 166.078C213.272 165.477 213.727 163.769 213.016 162.264C212.305 160.759 210.697 160.026 209.425 160.627C208.153 161.227 207.698 162.935 208.409 164.44C209.12 165.945 210.728 166.678 212 166.078Z" fill="white"/>
<path d="M209.699 164.308C209.656 164.308 209.613 164.288 209.586 164.25C209.523 164.159 209.466 164.062 209.419 163.962C209.026 163.13 209.286 162.178 210 161.841C210.177 161.757 210.369 161.718 210.568 161.721C210.644 161.723 210.704 161.786 210.702 161.861C210.701 161.936 210.64 161.995 210.565 161.995C210.564 161.995 210.563 161.995 210.562 161.995C210.402 161.989 210.256 162.023 210.117 162.089C209.54 162.362 209.338 163.149 209.667 163.844C209.708 163.931 209.756 164.014 209.811 164.092C209.854 164.154 209.839 164.24 209.777 164.283C209.753 164.3 209.726 164.308 209.699 164.308Z" fill="#363E44"/>
<path d="M228.181 164.438C228.892 162.933 228.438 161.226 227.165 160.625C225.893 160.024 224.286 160.757 223.575 162.262C222.863 163.767 223.318 165.475 224.591 166.076C225.863 166.677 227.47 165.943 228.181 164.438Z" fill="white"/>
<path d="M226.892 164.307C226.865 164.307 226.838 164.299 226.814 164.282C226.752 164.239 226.737 164.153 226.78 164.091C226.835 164.013 226.883 163.93 226.924 163.843C227.253 163.148 227.051 162.36 226.474 162.088C226.335 162.022 226.185 161.988 226.029 161.994C226.028 161.994 226.026 161.994 226.026 161.994C225.951 161.994 225.89 161.935 225.889 161.86C225.887 161.784 225.947 161.722 226.023 161.72C226.22 161.717 226.414 161.756 226.591 161.84C227.305 162.177 227.566 163.129 227.172 163.961C227.125 164.061 227.068 164.158 227.005 164.249C226.978 164.287 226.936 164.307 226.892 164.307Z" fill="#363E44"/>
<path d="M224.521 162.845C224.521 166.978 221.659 171.338 218.128 171.338C214.597 171.338 211.735 166.978 211.735 162.845C211.735 158.711 214.597 155.361 218.128 155.361C221.659 155.361 224.521 158.711 224.521 162.845Z" fill="white"/>
<path d="M218.128 171.475C216.837 171.475 215.568 170.909 214.458 169.839C214.404 169.786 214.402 169.7 214.455 169.645C214.508 169.591 214.594 169.589 214.649 169.642C215.706 170.662 216.909 171.201 218.128 171.201C219.454 171.201 220.746 170.572 221.863 169.383C221.914 169.328 222.001 169.325 222.056 169.377C222.111 169.429 222.114 169.516 222.062 169.571C220.892 170.817 219.532 171.475 218.128 171.475Z" fill="#363E44"/>
<path d="M218.256 166.535C218.21 166.535 218.166 166.513 218.14 166.472C218.099 166.408 218.118 166.323 218.182 166.283C218.383 166.155 218.504 166.009 218.542 165.85C218.581 165.685 218.519 165.544 218.433 165.349C218.362 165.188 218.281 165.005 218.234 164.761C218.173 164.45 218.185 164.121 218.268 163.782C218.286 163.709 218.361 163.664 218.433 163.682C218.507 163.7 218.552 163.774 218.534 163.847C218.46 164.147 218.45 164.437 218.503 164.709C218.545 164.923 218.618 165.09 218.683 165.238C218.779 165.455 218.869 165.659 218.808 165.913C218.754 166.144 218.592 166.346 218.329 166.514C218.306 166.528 218.281 166.535 218.256 166.535Z" fill="#363E44"/>
<path d="M217.647 167.979C217.329 167.979 217.031 167.838 216.854 167.594C216.694 167.372 216.642 167.081 216.713 166.795C216.731 166.722 216.806 166.676 216.879 166.695C216.952 166.713 216.997 166.787 216.979 166.861C216.928 167.069 216.963 167.277 217.076 167.433C217.226 167.64 217.504 167.743 217.786 167.693C217.86 167.68 217.931 167.73 217.944 167.804C217.957 167.879 217.907 167.95 217.833 167.963C217.771 167.974 217.708 167.979 217.647 167.979Z" fill="#363E44"/>
<path d="M214.682 164.34C213.355 164.34 212.305 163.153 212.261 163.103C212.212 163.046 212.218 162.959 212.275 162.91C212.332 162.86 212.418 162.866 212.468 162.923C212.478 162.934 213.481 164.066 214.682 164.066C215.883 164.066 216.886 162.934 216.896 162.923C216.946 162.866 217.032 162.86 217.089 162.91C217.146 162.959 217.152 163.046 217.102 163.103C217.058 163.153 216.009 164.34 214.682 164.34Z" fill="#363E44"/>
<path d="M221.676 164.34C220.35 164.34 219.3 163.153 219.256 163.103C219.206 163.046 219.212 162.959 219.269 162.91C219.326 162.86 219.413 162.866 219.462 162.923C219.472 162.934 220.476 164.066 221.676 164.066C222.877 164.066 223.88 162.934 223.89 162.923C223.94 162.866 224.027 162.86 224.083 162.91C224.141 162.959 224.146 163.046 224.097 163.103C224.053 163.153 223.003 164.34 221.676 164.34Z" fill="#363E44"/>
<path d="M217.987 153.122C221.171 153.116 223.747 150.529 223.741 147.345C223.735 144.16 221.149 141.584 217.965 141.59C214.781 141.596 212.205 144.182 212.211 147.367C212.217 150.551 214.803 153.128 217.987 153.122Z" fill="black"/>
<path d="M219.538 153.264C216.284 153.264 213.636 150.616 213.636 147.361C213.636 144.106 216.284 141.458 219.538 141.458C222.792 141.458 225.44 144.106 225.44 147.361C225.44 150.616 222.792 153.264 219.538 153.264ZM219.538 141.732C216.435 141.732 213.91 144.257 213.91 147.361C213.91 150.464 216.435 152.989 219.538 152.989C222.641 152.989 225.166 150.464 225.166 147.361C225.166 144.257 222.641 141.732 219.538 141.732Z" fill="#BD0054"/>
<path d="M218.913 151.7C215.658 151.7 213.011 149.052 213.011 145.797C213.011 142.542 215.658 139.894 218.913 139.894C222.167 139.894 224.814 142.542 224.814 145.797C224.814 149.052 222.167 151.7 218.913 151.7ZM218.913 140.168C215.809 140.168 213.285 142.693 213.285 145.797C213.285 148.901 215.809 151.426 218.913 151.426C222.016 151.426 224.54 148.901 224.54 145.797C224.54 142.693 222.016 140.168 218.913 140.168Z" fill="#BD0054"/>
<path d="M218.081 156.165C219.319 156.854 220.947 158.036 222.105 159.985C224.412 163.868 222.924 169.477 220.934 173.689C222.236 172.217 224.679 169.013 225.314 164.366C225.552 162.626 225.667 161.772 225.499 160.524C225.574 160.318 227.062 156.878 224.521 153.953C222.66 151.812 220.294 152.007 217.809 152.919C216.805 152.444 214.33 151.86 212.37 153.261C210.422 154.653 209.524 157.183 210.565 160.422C210.392 161.936 209.938 164.019 210.9 167.134C211.856 170.23 214.429 172.536 215.421 173.689C213.218 168.371 211.472 164.203 213.854 160.087C215.209 157.746 216.814 156.613 218.081 156.165Z" fill="black"/>
<path d="M225.499 160.661C225.435 160.661 225.377 160.616 225.364 160.551C225.354 160.497 225.346 160.415 225.335 160.301C225.262 159.522 225.039 157.152 222.875 155.632C220.986 154.304 219.23 155.053 218.48 155.373C218.328 155.438 218.228 155.48 218.155 155.495C218.124 155.501 218.092 155.497 218.064 155.481C218.048 155.473 218.023 155.459 217.991 155.44C216.295 154.461 214.639 154.268 213.328 154.896C211.584 155.731 210.48 158.05 210.702 160.409C210.709 160.484 210.654 160.551 210.578 160.558C210.501 160.567 210.436 160.51 210.429 160.435C210.196 157.965 211.366 155.531 213.21 154.648C214.605 153.981 216.352 154.177 218.128 155.203C218.134 155.206 218.14 155.21 218.146 155.213C218.2 155.194 218.282 155.159 218.372 155.121C219.096 154.812 221.019 153.991 223.033 155.407C225.301 157 225.532 159.466 225.609 160.276C225.618 160.377 225.626 160.457 225.634 160.498C225.648 160.572 225.6 160.644 225.526 160.659C225.516 160.661 225.507 160.661 225.499 160.661Z" fill="#BD0054"/>
<path d="M199.784 210.521C200.484 212.011 201.737 214.223 203.903 216.344C205.592 217.998 209.553 221.876 215.038 221.67C220.134 221.479 223.607 217.875 225.578 215.83C227.451 213.886 228.62 211.932 229.33 210.521C230.009 211.015 230.043 212.06 230.825 212.86C231.659 213.713 231.931 214.639 232.425 215.366C229.952 218.179 227.888 221.669 224.802 226.835C218.784 236.91 218.094 243.087 215.178 243.176C212.278 243.264 210.999 237.214 204.064 225.867C201.242 221.25 198.581 217.55 196.565 214.909C196.9 214.263 197.322 213.547 197.853 212.8C198.508 211.879 199.178 211.125 199.784 210.521Z" fill="#0E0600"/>
<path d="M234.178 198.757L229.33 210.521C229.33 210.521 248.769 228.444 241.257 264.161H217.565L215.421 241.143L206.723 264.161H180.857C180.857 264.161 186.247 226.48 199.783 210.521L198.204 199.269C198.204 199.269 196.243 198.308 195.908 197.868C193.514 193.78 196.413 187.349 196.413 187.349C196.413 187.349 166.77 169.216 175.092 161.858C180.443 157.127 208.935 175.121 208.935 175.121L220.817 176.275C220.817 176.275 229.994 178.761 240.001 182.694L234.178 198.757Z" fill="white"/>
<path d="M222.507 205.018C221.516 205.018 220.509 204.862 219.513 204.541C216.492 203.567 214.607 200.469 214.061 195.581C214.048 195.469 214.036 195.362 214.03 195.338C214.012 195.265 214.056 195.191 214.13 195.172C214.202 195.154 214.278 195.198 214.296 195.272C214.306 195.312 214.315 195.386 214.333 195.551C214.866 200.323 216.686 203.342 219.597 204.28C223.89 205.664 228.4 203.872 230.819 199.82C230.857 199.755 230.942 199.734 231.007 199.773C231.072 199.812 231.093 199.896 231.054 199.961C229.129 203.186 225.912 205.018 222.507 205.018Z" fill="#363E44"/>
<path d="M208.456 200.523C208.414 200.523 208.372 200.504 208.345 200.467C208.301 200.406 208.314 200.32 208.376 200.275C209.603 199.385 212.398 196.127 212.859 194.895C212.886 194.824 212.965 194.788 213.035 194.815C213.106 194.841 213.142 194.92 213.116 194.991C212.599 196.37 209.708 199.647 208.537 200.497C208.512 200.515 208.484 200.523 208.456 200.523Z" fill="#363E44"/>
<path d="M212.903 212.34C212.834 212.34 212.774 212.287 212.767 212.217C212.758 212.142 212.813 212.074 212.888 212.066C213.074 212.046 213.214 211.885 213.207 211.698C213.201 211.513 213.05 211.362 212.864 211.354C212.788 211.352 212.729 211.288 212.732 211.212C212.735 211.137 212.798 211.074 212.874 211.081C213.202 211.093 213.469 211.36 213.481 211.688C213.494 212.018 213.246 212.304 212.918 212.339C212.913 212.339 212.908 212.34 212.903 212.34Z" fill="#363E44"/>
<path d="M188.824 169.646C188.824 169.647 188.825 169.647 188.825 169.647C199.919 164.941 207.88 161.814 210.3 160.753C210.553 160.642 211.001 160.447 211.493 160.046C213.318 158.561 212.825 156.619 214.03 154.182C215.398 151.417 217.096 150.911 216.781 150.189C216.562 149.687 216.236 149.457 214.464 150.261L214.464 150.261C215.74 149.495 216.937 148.418 216.511 147.714C215.977 146.927 214.332 147.967 213.073 148.681C214.596 147.817 215.689 146.854 215.306 146.189C214.935 145.545 212.846 146.172 210.979 147.659L210.979 147.659C212.103 146.436 212.194 145.972 211.826 145.75C211.154 145.344 209.554 146.378 208.28 147.509C206.846 148.783 206.175 150.268 205.774 151.215C205.774 151.215 205.774 151.215 205.774 151.215C197.662 153.706 180.72 157.945 175.092 161.859C173.479 162.98 182.419 168.016 188.824 169.646Z" fill="white"/>
<path d="M204.12 151.955C204.501 148.926 204.847 146.806 205.572 146.683C207.006 146.438 207.635 149.458 207.636 153.954C206.667 153.093 205.09 152.816 204.12 151.955Z" fill="white"/>
<path d="M205.774 151.352C205.698 151.352 205.637 151.291 205.637 151.215C205.637 151.191 205.643 151.169 205.653 151.15C205.995 150.341 206.412 149.461 207.109 148.563C207.155 148.503 207.241 148.492 207.301 148.539C207.361 148.585 207.372 148.671 207.325 148.731C206.647 149.605 206.24 150.467 205.9 151.268C205.879 151.318 205.829 151.352 205.774 151.352Z" fill="#363E44"/>
<path d="M212.661 152.511C212.639 152.511 212.617 152.506 212.596 152.494C212.529 152.458 212.505 152.375 212.541 152.309C212.723 151.975 212.937 151.657 213.177 151.363C213.524 150.938 213.929 150.559 214.379 150.238C214.44 150.194 214.526 150.208 214.57 150.27C214.614 150.331 214.6 150.417 214.538 150.461C214.108 150.768 213.721 151.13 213.389 151.537C213.16 151.817 212.956 152.121 212.782 152.44C212.757 152.485 212.71 152.511 212.661 152.511Z" fill="#363E44"/>
<path d="M211.471 150.827C211.449 150.827 211.427 150.821 211.406 150.81C211.339 150.774 211.315 150.691 211.351 150.624C211.533 150.291 211.747 149.973 211.987 149.679C212.334 149.253 212.739 148.874 213.189 148.553C213.25 148.51 213.336 148.524 213.38 148.585C213.424 148.647 213.41 148.733 213.348 148.777C212.918 149.083 212.531 149.445 212.199 149.852C211.97 150.133 211.766 150.437 211.592 150.755C211.567 150.801 211.52 150.827 211.471 150.827Z" fill="#363E44"/>
<path d="M209.157 149.859C209.135 149.859 209.112 149.854 209.091 149.843C209.025 149.806 209 149.723 209.037 149.657C209.219 149.323 209.433 149.005 209.672 148.712C210.02 148.286 210.424 147.907 210.874 147.586C210.936 147.542 211.021 147.556 211.065 147.618C211.109 147.68 211.095 147.765 211.033 147.809C210.603 148.116 210.217 148.478 209.884 148.885C209.656 149.165 209.452 149.469 209.277 149.788C209.253 149.834 209.206 149.859 209.157 149.859Z" fill="#363E44"/>
<path d="M188.825 169.784C188.771 169.784 188.721 169.752 188.699 169.7C188.669 169.63 188.701 169.55 188.771 169.52C191.463 168.379 194.16 167.249 197.016 166.067C197.087 166.038 197.167 166.071 197.195 166.141C197.224 166.211 197.191 166.291 197.121 166.32C194.266 167.502 191.569 168.631 188.878 169.773C188.861 169.78 188.843 169.784 188.825 169.784Z" fill="#363E44"/>
<path d="M229.33 210.467C229.33 210.467 236.838 216.772 242.434 234.383C249.267 255.89 253.998 292.857 248.075 338.306H170.044C170.044 338.306 175.22 300.347 177.159 286.24C180.205 264.092 185.83 232.719 194.635 217.735C199.042 210.234 200.425 209.554 200.425 209.554L229.33 210.467Z" fill="#EFBC73"/>
<path d="M206.495 173.462L196.413 187.349C196.413 187.349 190.756 187.156 189.951 183.583C189.145 180.01 198.353 168.245 198.353 168.245C198.353 168.245 205.725 168.422 206.495 173.462Z" fill="#BD0054"/>
<path d="M196.413 187.349C196.413 187.349 200.511 193.488 207.217 196.264C213.217 198.748 222.085 199.317 229.33 198.521C232.253 198.199 233.403 197.31 233.403 197.31C233.403 197.31 234.011 198.895 233.873 199.496L229.33 210.521L212.31 225.124L199.783 210.521L198.204 199.269C198.204 199.269 194.971 198.223 194.525 195.188C194.205 193.012 194.713 189.691 196.413 187.349Z" fill="#BD0054"/>
<path d="M240.894 324.167C235.202 324.167 232.541 319.036 231.951 317.718C231.697 318.276 231.05 319.516 229.837 320.77C228.358 322.298 225.727 324.121 221.59 324.121C216.701 324.12 213.197 318.805 212.439 317.551C212.229 318.114 211.66 319.409 210.473 320.719C209.048 322.292 206.43 324.167 202.048 324.167C196.307 324.167 193.337 318.543 192.703 317.183C192.431 317.788 191.706 319.228 190.433 320.628C188.896 322.317 186.224 324.296 182.22 324.128C175.506 323.848 172.912 316.956 172.887 316.886C172.861 316.815 172.897 316.737 172.969 316.711C173.04 316.685 173.118 316.721 173.144 316.792C173.169 316.86 175.703 323.581 182.232 323.855C189.694 324.167 192.544 316.865 192.572 316.791C192.592 316.738 192.642 316.703 192.699 316.702C192.699 316.702 192.7 316.702 192.7 316.702C192.756 316.702 192.807 316.737 192.828 316.789C192.856 316.86 195.738 323.893 202.048 323.893C206.323 323.893 208.875 322.072 210.262 320.544C211.768 318.885 212.27 317.202 212.275 317.185C212.29 317.132 212.336 317.093 212.392 317.087C212.448 317.081 212.5 317.109 212.527 317.158C212.563 317.225 216.239 323.847 221.591 323.847C225.625 323.847 228.191 322.074 229.632 320.588C231.199 318.972 231.817 317.334 231.823 317.318C231.843 317.264 231.894 317.228 231.952 317.228C232.009 317.228 232.06 317.264 232.08 317.318C232.105 317.384 234.591 323.893 240.895 323.893C240.9 323.893 240.905 323.893 240.91 323.893C247.244 323.883 249.782 317.512 249.807 317.448C249.834 317.377 249.914 317.342 249.984 317.369C250.055 317.397 250.09 317.476 250.062 317.546C250.037 317.613 247.434 324.156 240.91 324.167C240.905 324.167 240.899 324.167 240.894 324.167Z" fill="#BD0054"/>
<path d="M239.935 336.206C234.221 336.207 231.549 331.072 230.959 329.756C230.705 330.314 230.055 331.554 228.837 332.809C227.352 334.338 224.711 336.16 220.56 336.16C215.652 336.16 212.134 330.841 211.374 329.589C211.164 330.152 210.593 331.448 209.401 332.758C207.971 334.331 205.343 336.206 200.945 336.206C195.182 336.206 192.2 330.579 191.565 329.221C191.292 329.825 190.565 331.266 189.286 332.667C187.744 334.357 185.068 336.334 181.044 336.168C174.305 335.887 171.702 328.995 171.676 328.926C171.65 328.855 171.687 328.776 171.758 328.75C171.829 328.724 171.908 328.761 171.934 328.832C171.959 328.899 174.502 335.621 181.055 335.894C188.544 336.207 191.406 328.904 191.434 328.83C191.454 328.777 191.505 328.742 191.561 328.742C191.621 328.745 191.669 328.775 191.69 328.828C191.718 328.899 194.611 335.932 200.945 335.932C205.243 335.932 207.806 334.106 209.198 332.574C210.707 330.915 211.205 329.241 211.21 329.224C211.226 329.171 211.272 329.132 211.327 329.126C211.382 329.121 211.435 329.148 211.462 329.197C211.499 329.264 215.189 335.886 220.56 335.886C228.319 335.886 230.807 329.422 230.831 329.357C230.851 329.303 230.902 329.267 230.96 329.267C231.017 329.267 231.068 329.303 231.088 329.357C231.113 329.422 233.608 335.932 239.936 335.932C239.941 335.932 239.946 335.932 239.951 335.932C246.309 335.922 248.856 329.551 248.881 329.487C248.909 329.416 248.988 329.381 249.059 329.408C249.129 329.436 249.164 329.515 249.137 329.586C249.111 329.652 246.499 336.196 239.952 336.206C239.946 336.206 239.94 336.206 239.935 336.206Z" fill="#BD0054"/>
<path d="M241.718 311.633C236.107 311.634 233.48 306.513 232.895 305.188C232.643 305.748 232.005 306.985 230.811 308.235C229.352 309.764 226.755 311.587 222.673 311.587C217.853 311.587 214.397 306.282 213.644 305.021C213.436 305.585 212.874 306.878 211.706 308.184C210.3 309.758 207.717 311.633 203.392 311.633C197.732 311.633 194.801 306.021 194.172 304.653C193.902 305.26 193.187 306.697 191.934 308.093C190.418 309.783 187.777 311.763 183.829 311.595C177.204 311.314 174.644 304.422 174.619 304.352C174.593 304.281 174.63 304.202 174.702 304.177C174.773 304.151 174.851 304.188 174.877 304.259C174.901 304.327 177.401 311.048 183.841 311.321C191.208 311.633 194.013 304.332 194.041 304.258C194.061 304.205 194.111 304.169 194.168 304.169C194.168 304.169 194.169 304.169 194.169 304.169C194.225 304.169 194.276 304.203 194.297 304.256C194.325 304.327 197.168 311.359 203.392 311.359C207.615 311.359 210.133 309.533 211.502 308.002C212.985 306.343 213.475 304.669 213.48 304.652C213.495 304.599 213.541 304.56 213.597 304.554C213.654 304.547 213.706 304.576 213.732 304.625C213.768 304.692 217.395 311.313 222.673 311.313C226.653 311.313 229.183 309.541 230.605 308.055C232.15 306.439 232.76 304.801 232.766 304.785C232.786 304.731 232.837 304.695 232.895 304.695C232.952 304.695 233.004 304.731 233.023 304.785C233.048 304.85 235.5 311.36 241.718 311.36C241.723 311.36 241.728 311.36 241.733 311.36C247.98 311.349 250.484 304.979 250.509 304.915C250.536 304.844 250.615 304.809 250.686 304.835C250.757 304.862 250.792 304.942 250.765 305.012C250.74 305.078 248.172 311.623 241.734 311.634C241.729 311.633 241.723 311.633 241.718 311.633Z" fill="#BD0054"/>
<path d="M240 182.694C252.211 187.493 265.466 194.446 262.394 201.662C258.647 210.465 234.177 198.757 234.177 198.757L240 182.694Z" fill="white"/>
<path d="M261.654 202.866C252.914 212.02 244.61 219.876 242.669 221.86C242.466 222.068 242.109 222.436 241.532 222.771C239.396 224.012 237.671 222.807 234.829 223.087C231.605 223.405 230.479 224.886 229.886 224.308C229.474 223.906 229.369 223.501 230.817 222.059L230.816 222.058C229.591 223.028 228.088 223.804 227.555 223.125C226.98 222.307 228.612 221.077 229.781 220.105C228.366 221.281 227.015 221.997 226.504 221.374C226.009 220.77 227.4 218.951 229.554 217.668V217.668C227.936 218.319 227.446 218.235 227.364 217.791C227.215 216.981 228.824 215.792 230.409 214.96C232.192 214.023 233.9 213.916 234.979 213.873C234.979 213.873 234.98 213.873 234.98 213.873C240.437 206.826 247.496 197.294 252.459 192.078C255.794 188.575 261.655 202.866 261.654 202.866Z" fill="white"/>
<path d="M232.231 223.816C232.175 223.816 232.123 223.782 232.102 223.727C232.076 223.656 232.113 223.577 232.184 223.551C233.029 223.239 233.89 223.042 234.816 222.951C235.952 222.839 236.924 222.963 237.782 223.072C238.131 223.116 238.461 223.158 238.785 223.184C238.861 223.189 238.917 223.255 238.911 223.331C238.906 223.406 238.84 223.463 238.764 223.457C238.433 223.431 238.1 223.389 237.747 223.344C236.904 223.236 235.948 223.114 234.843 223.224C233.94 223.313 233.102 223.504 232.279 223.808C232.263 223.814 232.247 223.816 232.231 223.816Z" fill="#363E44"/>
<path d="M243.707 202.679C243.677 202.679 243.647 202.669 243.622 202.65C243.563 202.603 243.552 202.517 243.599 202.457C247.393 197.606 250.177 194.278 252.36 191.984C252.412 191.929 252.499 191.927 252.554 191.979C252.609 192.031 252.611 192.118 252.559 192.173C250.381 194.461 247.603 197.782 243.815 202.626C243.788 202.661 243.747 202.679 243.707 202.679Z" fill="#363E44"/>
<path d="M236.32 212.523C233.203 211.772 230.993 211.326 230.602 211.992C229.829 213.31 232.562 215.049 236.979 216.72C236.493 215.448 236.807 213.795 236.32 212.523Z" fill="white"/>
<path d="M231.921 214.475C231.863 214.475 231.809 214.437 231.79 214.378C231.768 214.306 231.809 214.229 231.881 214.207C233.018 213.856 234.035 213.773 234.964 213.737C235.004 213.732 235.046 213.745 235.077 213.776C235.13 213.83 235.13 213.916 235.077 213.97C235.051 213.995 235.015 214.01 234.979 214.01C234.071 214.046 233.073 214.126 231.962 214.469C231.948 214.473 231.935 214.475 231.921 214.475Z" fill="#363E44"/>
<path d="M230.906 222.222C230.862 222.222 230.819 222.201 230.792 222.162C230.75 222.099 230.767 222.014 230.83 221.972C231.312 221.649 231.833 221.392 232.38 221.209C232.756 221.083 233.148 220.991 233.543 220.936C233.616 220.924 233.687 220.978 233.698 221.053C233.708 221.128 233.656 221.197 233.581 221.207C233.202 221.26 232.827 221.348 232.467 221.469C231.943 221.644 231.444 221.89 230.982 222.199C230.959 222.215 230.933 222.222 230.906 222.222Z" fill="#363E44"/>
<path d="M229.693 220.428C229.649 220.428 229.606 220.407 229.579 220.367C229.537 220.305 229.554 220.219 229.617 220.177C230.098 219.854 230.62 219.598 231.167 219.415C231.543 219.288 231.935 219.196 232.33 219.141C232.403 219.13 232.474 219.183 232.484 219.258C232.495 219.333 232.443 219.402 232.368 219.413C231.989 219.466 231.614 219.554 231.254 219.675C230.73 219.85 230.231 220.096 229.769 220.405C229.746 220.421 229.719 220.428 229.693 220.428Z" fill="#363E44"/>
<path d="M229.602 217.795C229.558 217.795 229.514 217.774 229.488 217.734C229.446 217.671 229.463 217.586 229.525 217.544C230.008 217.221 230.529 216.964 231.076 216.781C231.453 216.655 231.845 216.563 232.239 216.508C232.313 216.497 232.383 216.55 232.393 216.625C232.404 216.7 232.351 216.769 232.276 216.779C231.899 216.832 231.524 216.92 231.163 217.041C230.639 217.216 230.14 217.462 229.678 217.772C229.655 217.787 229.628 217.795 229.602 217.795Z" fill="#363E44"/>
<path d="M248.083 186.017L240.448 201.387C240.448 201.387 234.838 202.137 233.45 198.748C232.062 195.359 239.186 182.227 239.186 182.227C239.186 182.227 246.485 181.176 248.083 186.017Z" fill="#BD0054"/>
<path d="M213.217 178.925C213.142 178.925 213.08 178.864 213.08 178.788V175.537C213.08 175.461 213.142 175.4 213.217 175.4C213.293 175.4 213.355 175.461 213.355 175.537V178.788C213.355 178.864 213.293 178.925 213.217 178.925Z" fill="#363E44"/>
<path d="M223.419 179.836C223.343 179.836 223.282 179.775 223.282 179.699V176.993C223.282 176.918 223.343 176.856 223.419 176.856C223.495 176.856 223.556 176.918 223.556 176.993V179.699C223.556 179.775 223.495 179.836 223.419 179.836Z" fill="#363E44"/>
<path d="M267.509 352.251H159.867C159.791 352.251 159.73 352.189 159.73 352.114V338.306C159.73 338.23 159.791 338.169 159.867 338.169H267.509C267.585 338.169 267.646 338.23 267.646 338.306V352.114C267.646 352.189 267.585 352.251 267.509 352.251ZM160.004 351.977H267.372V338.443H160.004V351.977Z" fill="#363E44"/>
<path d="M271.863 366.063H141.269C141.193 366.063 141.132 366.002 141.132 365.926V352.118C141.132 352.042 141.193 351.981 141.269 351.981H271.863C271.939 351.981 272 352.042 272 352.118V365.926C272 366.002 271.938 366.063 271.863 366.063ZM141.406 365.789H271.726V352.255H141.406V365.789Z" fill="#363E44"/>
<path d="M84.8472 347.256C84.8472 347.256 78.7155 366.072 72.005 367.257C59.4279 369.48 38.6467 344.181 38.6467 344.181L45.9941 326.351L63.3868 338.744L68.9214 319.773L84.8472 347.256Z" fill="white"/>
<path d="M21.4338 365.722L27.1062 324.875L46.1513 326.314L40.571 347.254L37.009 356.942C34.2357 363.185 27.8613 366.779 21.4338 365.722Z" fill="#0E0600"/>
<path d="M134.385 315.579C134.385 315.579 150.752 317.5 152.83 323.991C156.724 336.157 128.578 362.999 128.578 362.999L115.125 352.424L124.35 338.602L109.299 335.06L134.385 315.579Z" fill="white"/>
<path d="M124.381 338.632C124.357 338.632 124.333 338.626 124.31 338.612C124.245 338.573 124.225 338.489 124.264 338.424L126.466 334.793C126.506 334.728 126.59 334.708 126.654 334.747C126.719 334.786 126.74 334.87 126.701 334.935L124.498 338.566C124.473 338.609 124.427 338.632 124.381 338.632Z" fill="black"/>
<path d="M158.759 369.189H104.48L116.04 350.787L137.584 353.099L147.702 355.137C154.295 356.923 158.82 362.674 158.759 369.189Z" fill="#0E0600"/>
<path d="M75.7565 299.591L71.53 309.255C71.53 309.255 63.3138 314.991 60.3283 320.536C54.9901 330.451 56.9857 339.008 56.9857 339.008L54.3662 343.169L84.3282 349.19L85.3843 347.107C85.3843 347.107 91.5529 346.147 93.9141 342.664C96.7523 338.476 97.1987 333.288 97.1987 333.288C97.1987 333.288 102.337 337.652 106.709 338.843C111.11 340.042 118.97 337.385 118.97 337.385L122.092 338.07L142.933 317.151L138.873 316.352C138.873 316.352 140.117 312.378 131.48 308.433C129.274 307.425 124.692 305.696 121.742 305.061C116.106 303.849 111.64 305.26 111.64 305.26L75.7565 299.591Z" fill="black"/>
<path d="M163.172 253.374C164.984 252.367 167.891 250.559 167.328 249.318C166.785 248.272 164.166 249.503 162.278 250.492C162.278 250.493 162.278 250.492 162.278 250.492C164.583 248.924 165.359 247.779 164.908 247.136C164.26 246.211 161.562 248.486 157.161 248.096C153.283 247.753 151.276 245.7 148.1 246.824C147.243 247.128 146.671 247.531 146.346 247.759C143.357 249.849 128.091 260.895 127.048 261.682C122.673 264.989 119.718 270.37 122.889 275.968C125.138 279.938 128.387 282.189 131.845 280.081C138.895 275.783 151.8 262.994 154.631 260.419C154.631 260.419 154.632 260.418 154.632 260.418C156.088 260.635 158.404 260.922 161.031 260.117C163.364 259.402 165.822 258.215 165.826 257.09C165.828 256.473 165.193 256.237 162.86 256.701V256.7C165.821 255.201 167.302 253.859 167.053 252.822C166.896 252.163 165.365 252.155 163.172 253.374Z" fill="white"/>
<path d="M153.53 248.612C156.913 245.84 157.546 244.122 157.09 243.599C156.323 242.72 152.468 243.904 147.014 247.332C148.798 247.852 151.747 248.093 153.53 248.612Z" fill="white"/>
<path d="M154.828 247.635C154.819 247.635 154.809 247.634 154.799 247.632C153.212 247.289 151.35 247.048 150.291 246.97C150.216 246.964 150.159 246.898 150.165 246.823C150.171 246.748 150.233 246.69 150.312 246.697C151.379 246.775 153.256 247.018 154.857 247.364C154.931 247.38 154.978 247.453 154.962 247.527C154.948 247.591 154.891 247.635 154.828 247.635Z" fill="black"/>
<path d="M158.954 251.277C158.735 251.277 158.53 251.268 158.344 251.259C158.268 251.255 158.21 251.191 158.213 251.115C158.217 251.04 158.288 250.981 158.357 250.985C158.817 251.007 159.339 251.032 159.916 250.917C160.62 250.776 161.695 250.392 162.722 249.915C162.791 249.883 162.872 249.913 162.904 249.981C162.936 250.05 162.906 250.131 162.838 250.163C161.776 250.657 160.704 251.038 159.97 251.185C159.611 251.257 159.268 251.277 158.954 251.277Z" fill="black"/>
<path d="M159.654 253.975C159.604 253.975 159.557 253.974 159.515 253.973C159.44 253.969 159.381 253.905 159.385 253.829C159.389 253.753 159.456 253.697 159.529 253.699C159.988 253.721 161.074 253.61 161.642 253.484C162.106 253.381 162.692 253.186 163.434 252.888C163.504 252.859 163.584 252.894 163.612 252.964C163.64 253.034 163.606 253.114 163.536 253.142C162.78 253.446 162.18 253.645 161.701 253.752C161.167 253.87 160.185 253.975 159.654 253.975Z" fill="black"/>
<path d="M159.393 257.538C159.253 257.538 159.112 257.535 158.972 257.528C158.897 257.525 158.838 257.46 158.842 257.385C158.846 257.309 158.914 257.25 158.986 257.254C159.509 257.28 160.036 257.256 160.553 257.185C161.048 257.116 161.991 256.953 162.742 256.626C162.812 256.595 162.893 256.627 162.923 256.697C162.953 256.766 162.921 256.847 162.852 256.877C162.071 257.217 161.1 257.386 160.591 257.456C160.195 257.511 159.794 257.538 159.393 257.538Z" fill="black"/>
<path d="M125.113 260.826C129.711 257.567 135.172 253.773 137 252.438L147.844 266.986C147.844 266.986 133.861 282.157 126.089 280.887C123.66 280.49 122.054 278.818 120.994 276.706C118.213 271.167 120.056 264.41 125.113 260.826Z" fill="#BD0054"/>
<path d="M117.551 277.993C117.551 277.993 124.236 284.636 132.925 279.828C137.542 277.272 135.997 267.973 135.179 263.759C133.589 255.561 113.713 236.793 101.291 246.627C101.291 246.627 111.082 268.924 117.551 277.993Z" fill="#BD0054"/>
<path d="M128.887 258.771C128.847 258.771 128.807 258.753 128.78 258.72C124.613 253.544 119.65 251.487 116.221 250.673C112.506 249.792 109.748 250.138 109.72 250.141C109.644 250.151 109.576 250.098 109.567 250.023C109.557 249.948 109.61 249.879 109.685 249.869C109.712 249.866 112.521 249.514 116.284 250.407C119.755 251.231 124.778 253.312 128.994 258.548C129.041 258.607 129.032 258.693 128.973 258.741C128.948 258.761 128.917 258.771 128.887 258.771Z" fill="#F7F1EB"/>
<path d="M131.701 271.246C131.65 271.246 131.601 271.218 131.577 271.169C128.827 265.466 124.796 262.985 121.898 261.907C118.761 260.741 116.248 260.922 116.223 260.924C116.148 260.929 116.082 260.874 116.076 260.798C116.07 260.723 116.126 260.657 116.202 260.651C116.227 260.649 118.8 260.463 121.994 261.65C124.939 262.745 129.035 265.265 131.824 271.05C131.857 271.118 131.828 271.2 131.76 271.233C131.741 271.242 131.72 271.246 131.701 271.246Z" fill="#F7F1EB"/>
<path d="M130.538 276.667C125.339 276.667 122.368 272.845 122.338 272.806C122.292 272.746 122.304 272.66 122.364 272.614C122.424 272.568 122.51 272.58 122.556 272.64C122.586 272.679 125.586 276.532 130.816 276.389C130.817 276.389 130.818 276.389 130.82 276.389C130.893 276.389 130.954 276.448 130.956 276.523C130.958 276.598 130.899 276.661 130.823 276.663C130.727 276.666 130.632 276.667 130.538 276.667Z" fill="#F7F1EB"/>
<path d="M101.291 246.627C94.335 247.376 80.2564 250.958 75.7211 253.662C65.5818 259.707 61.5581 264.939 61.5581 264.939L77.3544 290.3C74.8517 297.572 71.8101 309.012 71.8101 309.012L122.447 304.774C122.447 304.774 120.342 280.488 118.232 271.15C116.325 262.71 107.259 245.984 101.291 246.627Z" fill="#EFBC73"/>
<path d="M73.7765 292.467C64.3338 293.925 44.5211 302.681 43.725 288.794C43.3066 281.495 43.8927 272.172 52.2628 262.711C57.9953 256.23 68.2915 253.391 74.4532 254.434L75.8474 277.923L73.7765 292.467Z" fill="#BD0054"/>
<path d="M48.8333 280.066C48.8251 280.066 48.8168 280.065 48.8085 280.063C48.7341 280.05 48.6847 279.979 48.6983 279.904C49.4678 275.691 51.0197 271.873 53.3108 268.555C55.1437 265.901 57.4509 263.56 60.1679 261.597C64.7937 258.256 69.0683 257.156 69.111 257.145C69.1843 257.127 69.2588 257.171 69.2773 257.245C69.2958 257.318 69.2513 257.393 69.1778 257.411C69.1356 257.422 64.9038 258.513 60.3195 261.826C56.0935 264.881 50.6937 270.505 48.9677 279.953C48.9558 280.019 48.8981 280.066 48.8333 280.066Z" fill="#F7F1EB"/>
<path d="M65.9995 277.57C65.9574 277.57 65.9162 277.551 65.8892 277.515C65.8442 277.454 65.857 277.368 65.9177 277.323C71.5625 273.141 72.7303 267.072 72.7416 267.011C72.7553 266.937 72.8266 266.887 72.901 266.901C72.9754 266.915 73.0247 266.986 73.0111 267.06C72.9999 267.122 71.8156 273.294 66.081 277.543C66.0564 277.561 66.0279 277.57 65.9995 277.57Z" fill="#F7F1EB"/>
<path d="M57.6296 276.984C57.6191 276.984 57.6086 276.982 57.598 276.98C57.5245 276.963 57.4788 276.889 57.4961 276.815C58.7697 271.411 61.8537 267.875 64.2165 265.861C66.7771 263.678 69.0715 262.759 69.0944 262.75C69.1645 262.722 69.2443 262.756 69.2721 262.827C69.2999 262.897 69.2654 262.977 69.195 263.004C69.1725 263.013 66.913 263.92 64.3862 266.076C62.0576 268.063 59.0183 271.55 57.7629 276.878C57.7481 276.941 57.6918 276.984 57.6296 276.984Z" fill="#F7F1EB"/>
<path d="M93.1268 259.85C93.2991 260.543 92.8766 261.245 92.1832 261.417C91.4898 261.59 90.788 261.167 90.6157 260.474C90.4435 259.78 90.866 259.078 91.5594 258.906C92.2528 258.734 92.9546 259.156 93.1268 259.85Z" fill="black"/>
<path d="M94.6399 264.484C94.8121 265.177 94.3896 265.879 93.6962 266.051C93.0028 266.224 92.3011 265.801 92.1288 265.108C91.9565 264.414 92.379 263.712 93.0724 263.54C93.7658 263.368 94.4676 263.79 94.6399 264.484Z" fill="black"/>
<path d="M109.415 278.229C107.476 278.521 99.2225 278.447 97.4323 281.846C95.6293 285.269 96.5084 289.441 98.4727 292.76C98.4878 292.765 98.5045 292.769 98.5196 292.774C99.401 293.379 100.813 294.149 102.587 294.197C104.609 294.252 105.164 293.316 107.309 293.043C110.928 292.582 112.928 294.892 113.679 293.841C114.195 293.12 113.088 291.724 111.745 290.714C110.366 289.677 109.034 289.586 109.076 289.306C109.121 288.999 110.462 289.266 112.16 289.445C112.949 289.528 114.968 291.087 115.818 290.205C116.496 289.502 114.805 287.356 112.559 286.543C110.97 285.968 109.43 286.545 109.382 286.241C109.346 286.013 110.272 285.692 111.152 285.652C112.604 285.585 114.688 287.158 115.454 286.331C116.205 285.521 114.695 283.673 112.677 282.795C110.976 282.054 109.289 282.779 109.227 282.402C109.184 282.136 109.872 281.655 111.546 281.119C112.944 280.672 115.948 280.699 115.702 279.173C115.496 277.89 112.342 277.788 109.415 278.229Z" fill="white"/>
<path d="M68.4733 280.625C64.2006 281.321 63.0245 296.625 66.9611 299.285C67.6016 299.718 101.031 291.804 101.031 291.804L105.979 278.528C91.8415 278.807 80.234 278.711 68.4733 280.625Z" fill="white"/>
<path d="M73.9184 298.653C73.9184 298.653 46.8923 304.253 44.248 292.92C40.8899 278.528 62.162 280.138 73.4552 279.928L73.9184 298.653Z" fill="#BD0054"/>
<path d="M98.3407 249.583C99.7713 253.906 96.004 260.006 89.029 254.906C89.029 254.906 89.0571 257.823 86.5946 259.127C83.4135 260.811 79.1211 259.465 77.7913 256.042C77.3709 254.96 77.2589 253.694 77.7986 252.631L82.7474 250.827L91.1438 248.463L96.9177 247.301C96.9177 247.301 98.0138 248.594 98.3407 249.583Z" fill="#BD0054"/>
<path d="M87.4304 254.564L86.6579 254.551C84.3721 254.515 82.5487 252.632 82.5853 250.347L82.8177 235.816C82.8543 233.531 84.7367 231.707 87.0224 231.744L87.7949 231.756C90.0806 231.793 91.9041 233.675 91.8675 235.961L91.6351 250.491C91.5985 252.777 89.716 254.6 87.4304 254.564Z" fill="white"/>
<path d="M98.059 240.716C97.4837 243.528 89.3304 243.924 89.3304 243.924L81.3931 241.548C78.6333 238.598 78.7898 233.972 81.7424 231.215C84.6951 228.458 89.3259 228.614 92.0856 231.564C92.0856 231.564 98.645 237.852 98.059 240.716Z" fill="white"/>
<path d="M92.7852 233.542C92.7852 233.542 95.7531 233.711 96.061 234.2C96.4286 234.784 95.0404 236.645 95.0404 236.645C95.0404 236.645 92.8286 233.509 92.7852 233.542Z" fill="white"/>
<path d="M87.113 236.478C87.113 236.478 87.7166 235.423 88.8116 234.741C89.0446 234.595 89.7684 236.732 89.4815 236.764C88.2193 236.907 87.113 236.478 87.113 236.478Z" fill="#BD0054"/>
<mask id="mask0_1_3806" style="mask-type:luminance" maskUnits="userSpaceOnUse" x="87" y="234" width="6" height="3">
<path d="M87.1129 236.478C87.1129 236.478 88.0005 234.928 89.5762 234.37C91.1518 233.812 92.8187 234.459 92.8187 234.459C92.8187 234.459 91.9311 236.01 90.3555 236.567C88.7798 237.125 87.1129 236.478 87.1129 236.478Z" fill="white"/>
</mask>
<g mask="url(#mask0_1_3806)">
<path d="M88.8281 234.664C89.1003 233.489 90.2746 232.757 91.4508 233.029C92.627 233.301 93.3597 234.474 93.0874 235.649C92.8151 236.825 91.6409 237.557 90.4647 237.285C89.2885 237.013 88.5558 235.839 88.8281 234.664Z" fill="black"/>
</g>
<path d="M75.1835 236.383C75.1835 236.383 77.9145 244.409 83.7415 243.14L84.0577 241.349L87.4319 240.349L83.9544 238.179C82.7398 237.235 82.6931 235.417 83.8574 234.412L89.3264 229.716C89.3264 229.716 88.9409 225.249 87.7919 224.543C83.3203 221.795 77.3187 231.079 75.1835 236.383Z" fill="black"/>
<path d="M80.3759 242.538C80.8533 243.846 82.3021 244.52 83.6119 244.043C84.9215 243.566 85.5963 242.119 85.1187 240.811C84.6413 239.502 83.1925 238.828 81.8829 239.305C80.5731 239.782 79.8984 241.229 80.3759 242.538Z" fill="white"/>
<path d="M93.8881 239.218C93.5218 239.218 93.1662 239.043 92.9447 238.742C92.8999 238.681 92.9129 238.595 92.9739 238.55C93.035 238.505 93.1207 238.518 93.1655 238.579C93.3657 238.851 93.7089 238.99 94.0391 238.931C94.3821 238.87 94.6593 238.611 94.7454 238.271C94.764 238.197 94.8386 238.153 94.9119 238.171C94.9854 238.19 95.0296 238.265 95.0113 238.338C94.8988 238.782 94.5359 239.121 94.0871 239.2C94.0209 239.212 93.9543 239.218 93.8881 239.218Z" fill="black"/>
<path d="M82.2552 224.327C80.7126 224.501 78.5725 227.593 77.434 230.228C76.2583 232.948 75.8471 233.334 74.2266 234.143C71.0993 235.702 70.4238 238.305 71.5966 240.963C73.0917 244.351 78.735 243.792 81.8829 237.131C85.0309 230.471 84.7466 224.046 82.2552 224.327Z" fill="#1C0300"/>
<path d="M74.6524 235.095C74.6524 235.095 73.3866 234.922 71.6225 235.095C70.6316 235.191 69.3749 235.521 68.085 235.801L67.366 234.883V235.952C66.4597 236.131 65.5625 236.258 64.7469 236.243C64.019 236.231 63.2698 236.143 62.5325 236.004V234.723L61.6263 235.814C58.4091 235.049 55.6025 233.542 55.6025 233.542C57.6569 233.424 60.1763 232.94 64.4569 231.327L65.3119 232.919L65.4087 230.973C70.0091 229.487 74.6524 235.095 74.6524 235.095Z" fill="#BD0054"/>
<path d="M225.972 246.669L225.895 246.654C217.705 244.992 211.297 238.602 209.615 230.416L209.609 230.39L209.598 230.446C207.934 238.651 201.533 245.07 193.333 246.756L193.41 246.772C201.6 248.433 208.008 254.824 209.691 263.01L209.696 263.035L209.707 262.979C211.371 254.775 217.772 248.356 225.972 246.669Z" fill="#BE0054"/>
<path d="M199.541 263.475L199.503 263.467C195.491 262.653 192.353 259.523 191.529 255.513L191.526 255.501L191.52 255.528C190.705 259.547 187.57 262.691 183.553 263.517L183.591 263.525C187.603 264.339 190.742 267.469 191.566 271.479L191.569 271.491L191.574 271.464C192.389 267.445 195.525 264.301 199.541 263.475Z" fill="#BE0054"/>
<path d="M166.611 298.345L166.558 298.334C161.005 297.208 156.66 292.875 155.519 287.324L155.516 287.307L155.508 287.345C154.38 292.908 150.039 297.26 144.479 298.404L144.532 298.414C150.085 299.541 154.43 303.874 155.571 309.425L155.574 309.442L155.582 309.404C156.71 303.841 161.051 299.488 166.611 298.345Z" fill="#BE0054"/>
<path d="M156.842 173.249L159.762 162.606L149.087 165.397L156.842 173.249Z" fill="#F7F1EB"/>
<path d="M173.934 167.281L175.242 156.323L165.099 160.669L173.934 167.281Z" fill="#BE0054"/>
<path d="M189.591 158.985L189.259 147.953L179.873 153.755L189.591 158.985Z" fill="#BE0054"/>
<path d="M120.154 176.451L126.36 167.325L115.356 166.512L120.154 176.451Z" fill="#F7F1EB"/>
<path d="M137.872 176.296L142.657 166.351L131.653 167.179L137.872 176.296Z" fill="#BE0054"/>
<path d="M128.444 167.181C121.26 167.181 114.072 166.447 107.053 164.997C106.979 164.982 106.931 164.909 106.946 164.835C106.962 164.761 107.034 164.714 107.108 164.729C138.064 171.125 169.861 163.458 194.346 143.694C194.405 143.647 194.491 143.656 194.539 143.715C194.586 143.774 194.577 143.86 194.518 143.907C188.367 148.872 181.651 153.139 174.555 156.59C167.613 159.965 160.272 162.578 152.736 164.356C145.281 166.114 137.612 167.061 129.942 167.17C129.443 167.177 128.943 167.181 128.444 167.181Z" fill="#BE0054"/>
<path d="M80.1564 214.617L88.099 206.955L77.4937 203.906L80.1564 214.617Z" fill="#F7F1EB"/>
<path d="M98.7696 217.474L105.068 208.448L94.1128 207.777L98.7696 217.474Z" fill="#BE0054"/>
<path d="M118.147 216.179L122.021 206.145L111.215 207.993L118.147 216.179Z" fill="#F7F1EB"/>
<path d="M47.9832 198.753L58.2409 194.685L49.5895 187.834L47.9832 198.753Z" fill="#F7F1EB"/>
<path d="M63.2568 208.275L72.4652 202.194L62.5952 197.259L63.2568 208.275Z" fill="#BE0054"/>
<path d="M103.724 208.517C97.5464 208.517 91.2468 207.751 84.9444 206.216C71.0004 202.817 57.7393 195.683 47.6041 186.128C47.549 186.076 47.5464 185.989 47.5983 185.934C47.6502 185.879 47.7373 185.876 47.792 185.929C69.4485 206.346 101.541 213.646 127.65 204.093C127.721 204.068 127.8 204.104 127.825 204.175C127.851 204.246 127.815 204.325 127.744 204.351C120.166 207.123 112.057 208.517 103.724 208.517Z" fill="#BE0054"/>
<path d="M149.468 160.126C153.622 183.616 147.4 204.355 135.573 206.447C123.745 208.539 110.79 191.192 106.636 167.702L149.468 160.126Z" fill="#EFBC73"/>
<path d="M134.965 205.683C129.775 205.683 124.347 202.199 119.477 195.677C113.999 188.343 109.873 178.035 107.861 166.654C107.848 166.579 107.898 166.508 107.972 166.495L150.804 158.919C150.84 158.912 150.877 158.921 150.907 158.942C150.937 158.963 150.957 158.994 150.963 159.03C152.976 170.412 152.635 181.509 150.005 190.278C147.364 199.079 142.73 204.488 136.956 205.509C136.298 205.626 135.633 205.683 134.965 205.683ZM108.155 166.741C110.169 178.028 114.265 188.241 119.696 195.513C125.129 202.788 131.242 206.241 136.909 205.239C148.62 203.168 154.802 182.535 150.717 159.213L108.155 166.741Z" fill="black"/>
<path d="M144.685 173.341C144.831 176.061 142.927 178.524 140.178 179.011C137.418 179.499 134.776 177.824 133.991 175.203L144.685 173.341Z" fill="#363E44"/>
<path d="M127.689 176.348C127.835 179.067 125.931 181.531 123.182 182.017C120.422 182.505 117.78 180.83 116.995 178.209L127.689 176.348Z" fill="#363E44"/>
<path d="M125.09 195.27C125.043 195.27 124.994 195.26 124.948 195.239C124.776 195.16 124.7 194.957 124.779 194.785C126.278 191.513 129.284 189.186 132.823 188.561C136.4 187.927 140.049 189.109 142.583 191.72C142.715 191.856 142.712 192.073 142.576 192.205C142.44 192.337 142.223 192.333 142.092 192.197C139.716 189.749 136.297 188.642 132.942 189.235C129.625 189.822 126.807 192.003 125.402 195.07C125.345 195.196 125.22 195.27 125.09 195.27Z" fill="#363E44"/>
<path d="M119.113 160.078C113.885 183.353 100.147 200.085 88.4275 197.452C76.7084 194.819 71.446 173.817 76.6738 150.543L119.113 160.078Z" fill="#BE0054"/>
<path d="M92.5841 197.399C91.7337 197.399 90.8932 197.307 90.0661 197.121C84.3449 195.836 79.9644 190.219 77.7311 181.306C75.5061 172.426 75.6756 161.325 78.2086 150.048C78.2166 150.012 78.2384 149.982 78.2689 149.962C78.2996 149.942 78.3369 149.936 78.3722 149.944L120.811 159.48C120.885 159.496 120.932 159.57 120.915 159.643C118.382 170.92 113.788 181.027 107.979 188.103C102.992 194.177 97.6154 197.399 92.5841 197.399ZM78.4461 150.242C73.2939 173.351 78.522 194.246 90.1259 196.854C95.7409 198.115 102.006 194.946 107.767 187.929C113.526 180.914 118.087 170.899 120.618 159.717L78.4461 150.242Z" fill="black"/>
<path d="M108.619 174.291C108.885 171.58 107.092 169.035 104.366 168.428C101.63 167.819 98.9171 169.376 98.0172 171.96L108.619 174.291Z" fill="#363E44"/>
<path d="M91.7723 170.538C92.0378 167.828 90.2446 165.283 87.519 164.676C84.7834 164.067 82.0701 165.623 81.1702 168.207L91.7723 170.538Z" fill="#363E44"/>
<path d="M93.9202 186.573C93.128 186.573 92.3304 186.487 91.5399 186.311C88.0327 185.53 85.1313 183.073 83.7787 179.738C83.7076 179.563 83.7922 179.363 83.9674 179.292C84.1427 179.221 84.3425 179.306 84.4136 179.481C85.6816 182.607 88.4014 184.91 91.689 185.642C95.0133 186.383 98.4794 185.427 100.96 183.086C101.098 182.956 101.314 182.963 101.445 183.1C101.574 183.238 101.568 183.455 101.431 183.585C99.374 185.525 96.6822 186.573 93.9202 186.573Z" fill="#363E44"/>
</g>
<defs>
<clipPath id="clip0_1_3806">
<rect x="20" y="134" width="252" height="258" rx="20" fill="white"/>
</clipPath>
</defs>
</svg>
