<svg width="292" height="408" viewBox="0 0 292 408" fill="none" xmlns="http://www.w3.org/2000/svg">
<rect width="292" height="408" rx="24" fill="#FFE0D4"/>
<path d="M75.1285 78V77.872C75.5125 77.872 79.0965 77.296 79.0965 70.832V35.248C79.0965 28.784 75.5125 28.208 75.1285 28.208V28.08H93.4325V28.208C93.0485 28.208 89.4645 28.784 89.4645 35.248V70.832C89.4645 77.296 93.0485 77.872 93.4325 77.872V78H75.1285ZM100.042 40.688C100.042 31.92 107.594 27.184 117.322 27.184C123.146 27.184 126.666 28.08 131.21 28.08V38.576H131.082C130.698 36.528 129.994 33.904 127.754 31.856C125.77 30.128 122.634 28.848 117.45 28.848C112.202 28.848 107.338 30.96 107.338 35.888C107.338 40.304 111.434 42.672 115.018 44.72L124.042 49.84C131.274 53.936 134.218 58.736 134.218 64.24C134.218 72.816 127.114 78.384 115.338 78.384C111.242 78.384 105.29 78 101.194 78V64.688H101.322C101.642 67.504 102.282 70.576 104.522 73.008C106.506 75.184 109.834 76.72 114.762 76.72C123.21 76.72 125.898 72.752 125.898 68.656C125.898 65.328 124.234 62.448 118.026 58.928L108.554 53.552C103.114 50.48 100.042 46.64 100.042 40.688ZM144.04 29.744C136.808 29.744 136.104 37.424 136.104 38.192H135.976V28.08H177.064V38.192H176.936C176.936 37.424 176.232 29.744 169 29.744H161.704V70.832C161.704 77.296 165.288 77.872 165.672 77.872V78H147.368V77.872C147.752 77.872 151.336 77.296 151.336 70.832V29.744H144.04ZM180.879 78V77.872C181.263 77.872 184.847 77.296 184.847 70.832V35.248C184.847 28.784 181.263 28.208 180.879 28.208V28.08H199.247C206.287 28.08 211.407 29.36 214.607 32.24C217.103 34.48 218.383 37.872 218.383 42.416C218.383 48.368 215.759 52.72 211.535 55.536C207.823 58.032 202.831 59.248 197.327 59.248H195.215V70.832C195.215 77.296 198.799 77.872 199.183 77.872V78H180.879ZM195.215 57.584H196.687C199.695 57.584 202.191 56.624 203.983 54.832C206.543 52.336 207.887 48.176 207.887 42.736C207.887 37.872 206.927 34.544 205.071 32.432C203.407 30.576 200.975 29.744 197.967 29.744H195.215V57.584Z" fill="#A64928"/>
<path d="M70.06 116V115.96C70.18 115.96 71.3 115.78 71.3 113.76V102.64C71.3 100.62 70.18 100.44 70.06 100.44V100.4H73.78L82.42 110.9V102.64C82.42 100.62 81.3 100.44 81.18 100.44V100.4H84.22V100.44C84.1 100.44 82.98 100.62 82.98 102.64V116.12L71.86 102.64V113.76C71.86 115.78 72.98 115.96 73.1 115.96V116H70.06ZM90.1228 119.86C91.1828 119.86 91.8628 119.44 92.3028 118.84C92.9828 117.9 93.1028 116.52 93.1028 115.52V114.4C92.4828 115.54 91.2228 116.24 89.8628 116.24C86.7828 116.24 84.8628 113.88 84.8628 110.56C84.8628 106.84 86.7828 104.08 90.1828 104.08C91.7828 104.08 92.5828 104.74 93.1028 105.46V104.28H97.5428V104.32C97.4228 104.32 96.3028 104.5 96.3028 106.52V115.2C96.3028 116.9 95.6628 118.08 94.7628 118.88C93.5428 119.98 91.8228 120.34 90.6028 120.34C88.6028 120.34 87.3028 119.64 86.5628 119.64V116.56H86.6228C86.8028 117.6 87.2828 118.34 87.8428 118.86C88.6428 119.6 89.6028 119.86 90.1228 119.86ZM88.0428 110.36C88.0428 113.12 89.0228 115.36 90.7628 115.36C91.7828 115.36 92.5228 114.76 93.1028 113.38V106.52C92.5828 105.42 91.8428 105.16 91.2628 105.16C89.4228 105.16 88.0428 107.2 88.0428 110.36ZM103.191 116.2C102.191 116.2 101.291 115.9 100.631 115.32C99.9914 114.74 99.5914 113.88 99.5914 112.74V106.52C99.5914 104.5 98.4714 104.32 98.3514 104.32V104.28H102.791V112.48C102.791 112.98 102.831 113.64 103.091 114.18C103.351 114.7 103.811 115.08 104.511 115.08C105.931 115.08 106.951 113.66 106.951 111.7V106.52C106.951 104.5 105.831 104.32 105.711 104.32V104.28H110.151V105.08C110.471 104.82 110.571 104.54 110.591 104.28C110.591 104.06 110.511 103.54 109.711 103.34V103.32L111.371 102.16C111.611 102.34 111.951 102.96 111.911 103.5C111.851 104.46 110.831 105.1 110.151 105.4V113.76C110.151 115.78 111.271 115.96 111.391 115.96V116H106.951V113.92C106.471 115.04 105.391 116.2 103.191 116.2ZM118.827 116.24C114.947 116.24 113.027 113.48 113.027 110.16C113.027 106.84 114.947 104.08 118.827 104.08C120.307 104.08 121.507 104.48 122.427 105.16C122.567 104.96 122.607 104.74 122.587 104.56C122.567 104.34 122.447 103.84 121.627 103.7V103.68L123.187 102.38C123.447 102.54 123.827 103.14 123.847 103.68C123.867 104.42 123.287 105.02 122.727 105.42C123.987 106.54 124.627 108.26 124.627 110.16C124.627 113.48 122.707 116.24 118.827 116.24ZM116.307 110.16C116.307 113.12 116.987 115.76 118.827 115.76C120.667 115.76 121.367 113.12 121.367 110.16C121.367 107.2 120.667 104.56 118.827 104.56C116.987 104.56 116.307 107.2 116.307 110.16ZM116.707 101.8V101.74L117.767 100.26H117.827C118.647 101.4 120.107 102.96 121.067 103.34L121.007 103.4C119.827 103.24 117.727 102.58 116.707 101.8ZM127.064 106.52C127.064 104.5 125.944 104.32 125.824 104.32V104.28H130.264V113.76C130.264 115.78 131.384 115.96 131.504 115.96V116H125.824V115.96C125.944 115.96 127.064 115.78 127.064 113.76V106.52ZM126.864 101.44C126.864 100.5 127.644 99.72 128.584 99.72C129.524 99.72 130.304 100.5 130.304 101.44C130.304 102.38 129.524 103.16 128.584 103.16C127.644 103.16 126.864 102.38 126.864 101.44ZM137.341 116V115.96C137.461 115.96 138.581 115.78 138.581 113.76V102.24C138.581 100.22 137.461 100.04 137.341 100.04V100H141.781V113.76C141.781 115.78 142.901 115.96 143.021 115.96V116H137.341ZM141.781 109.68L144.721 105.76C145.561 104.66 144.841 104.3 144.821 104.3V104.28H149.201V104.3C148.941 104.3 147.141 104.8 146.061 105.86L142.741 109.2H144.341C145.981 109.2 146.681 109.66 147.241 111.32L148.001 113.52C148.541 115.12 149.181 115.66 150.141 115.2L150.181 115.24C149.161 115.92 148.321 116.2 147.081 116.2C145.981 116.2 145.241 115.86 144.861 114.7L143.821 111.58C143.361 110.22 142.941 109.68 142.181 109.68H141.781ZM158.967 106.48C159.827 104.64 158.847 104.32 158.807 104.32V104.28H161.807V104.32C161.607 104.32 160.347 104.64 159.507 106.48L154.647 117.18C154.027 118.52 153.267 120.12 151.847 120.12C151.367 120.12 151.127 120.06 151.007 120.04V117.84H151.067C151.307 118.08 151.607 118.18 152.007 118.18C152.887 118.18 153.907 117.74 154.487 116.34L154.787 115.62L150.807 106.62C149.927 104.66 148.687 104.32 148.507 104.32V104.28H154.227V104.32C154.207 104.32 153.247 104.64 154.067 106.48L156.467 111.94L158.967 106.48ZM153.747 102.84C154.247 101.18 154.887 100.36 155.547 100.36C156.307 100.36 157.687 101.48 158.367 101.48C158.747 101.48 159.027 101.38 159.347 100.42H159.427C159.047 102.14 158.487 102.82 157.827 102.82C156.867 102.82 155.787 101.76 154.947 101.76C154.567 101.76 154.187 102.06 153.807 102.84H153.747ZM170.327 112.92C170.327 114.1 170.487 115.16 171.667 115.16C172.547 115.16 173.367 114.62 173.767 114.22H173.827C173.687 114.68 172.227 116.14 170.187 116.14C168.447 116.14 167.127 115.64 167.127 113.28V104.76H166.127V104.28H167.127V101.2H170.327V104.28H173.647V104.76H170.327V112.92ZM174.988 102.24C174.988 100.22 173.868 100.04 173.748 100.04V100H178.188V106.36C178.668 105.24 179.748 104.08 181.948 104.08C182.948 104.08 183.848 104.38 184.508 104.96C185.148 105.54 185.548 106.4 185.548 107.54V113.76C185.548 115.78 186.668 115.96 186.788 115.96V116H181.108V115.96C181.228 115.96 182.348 115.78 182.348 113.76V107.8C182.348 107.3 182.308 106.64 182.048 106.1C181.788 105.58 181.328 105.2 180.628 105.2C179.208 105.2 178.188 106.62 178.188 108.58V113.76C178.188 115.78 179.308 115.96 179.428 115.96V116H173.748V115.96C173.868 115.96 174.988 115.78 174.988 113.76V102.24ZM192.273 116.2C191.273 116.2 190.373 115.9 189.713 115.32C189.073 114.74 188.673 113.88 188.673 112.74V106.52C188.673 104.5 187.553 104.32 187.433 104.32V104.28H191.873V112.48C191.873 112.98 191.913 113.64 192.173 114.18C192.433 114.7 192.893 115.08 193.593 115.08C195.013 115.08 196.033 113.66 196.033 111.7V106.52C196.033 104.5 194.913 104.32 194.793 104.32V104.28H199.233V113.76C199.233 115.78 200.353 115.96 200.473 115.96V116H196.033V113.92C195.553 115.04 194.473 116.2 192.273 116.2ZM206.083 104.92C203.843 104.92 202.443 106.78 202.263 107.94H202.203C202.383 105.84 204.083 104.08 207.223 104.08C208.303 104.08 209.843 104.24 210.883 105.12C211.523 105.68 211.963 106.52 211.963 107.8V113.76C211.963 115.78 213.083 115.96 213.203 115.96V116H208.763V114.18C208.203 115.12 207.023 116.12 204.903 116.12C202.983 116.12 201.523 115.2 201.523 113.24C201.523 110.64 204.083 108.9 208.763 108.78V107.88C208.763 106.74 208.483 105.98 207.983 105.52C207.523 105.1 206.863 104.92 206.083 104.92ZM203.883 103.46L203.923 103.48C205.083 103.46 206.523 102.82 207.223 102.36H207.263C207.963 102.82 209.403 103.46 210.563 103.48L210.603 103.46C209.543 102.98 207.823 101.48 207.263 100.56H207.223C206.663 101.48 204.943 102.98 203.883 103.46ZM204.723 113.24C204.723 114.2 205.263 115.18 206.363 115.18C207.703 115.18 208.643 113.82 208.763 113.42V109.26C205.683 109.3 204.723 111.78 204.723 113.24ZM205.503 118.4C205.503 117.72 206.023 117.2 206.703 117.2C207.383 117.2 207.903 117.72 207.903 118.4C207.903 119.08 207.383 119.6 206.703 119.6C206.023 119.6 205.503 119.08 205.503 118.4ZM218.12 112.92C218.12 114.1 218.28 115.16 219.46 115.16C220.34 115.16 221.16 114.62 221.56 114.22H221.62C221.48 114.68 220.02 116.14 217.98 116.14C216.24 116.14 214.92 115.64 214.92 113.28V104.76H213.92V104.28H214.92V101.2H218.12V104.28H221.44V104.76H218.12V112.92Z" fill="#A64928"/>
<g clip-path="url(#clip0_1_1302)">
<g clip-path="url(#clip1_1_1302)">
<path d="M144.5 392C213.812 392 270 335.812 270 266.5C270 197.188 213.812 141 144.5 141C75.1883 141 19 197.188 19 266.5C19 335.812 75.1883 392 144.5 392Z" fill="#A64928"/>
<path d="M139.181 306.519C139.047 306.519 138.925 306.43 138.889 306.295L136.981 299.15C136.938 298.989 137.034 298.823 137.195 298.78C137.355 298.737 137.522 298.832 137.565 298.994L139.395 305.846L153.752 302.012C153.911 301.97 154.079 302.065 154.122 302.227C154.165 302.388 154.069 302.554 153.908 302.597L139.259 306.509C139.233 306.516 139.207 306.519 139.181 306.519Z" fill="#F8E69E"/>
<path d="M129.171 269.04C129.038 269.04 128.915 268.951 128.879 268.816L100.058 160.9C100.015 160.739 100.111 160.573 100.273 160.53L153.548 146.302C153.707 146.259 153.875 146.355 153.918 146.516L159.95 169.102C159.993 169.263 159.897 169.429 159.736 169.472C159.577 169.515 159.409 169.419 159.366 169.258L153.412 146.964L100.721 161.036L129.463 268.66C129.506 268.821 129.411 268.987 129.249 269.03C129.223 269.037 129.197 269.04 129.171 269.04Z" fill="#F8E69E"/>
<path d="M148.773 156.182L109.322 166.717L116.476 193.505L155.926 182.97L148.773 156.182Z" fill="#C35D2D"/>
<path d="M156.879 186.537L117.428 197.072L124.582 223.86L164.032 213.325L156.879 186.537Z" fill="#2F52B6"/>
<path d="M164.985 216.892L125.534 227.427L132.688 254.215L172.138 243.679L164.985 216.892Z" fill="white"/>
<path d="M156.708 296.093C156.698 296.093 156.688 296.093 156.677 296.092L140.539 294.43C140.459 294.422 140.386 294.383 140.335 294.32C140.285 294.258 140.261 294.179 140.269 294.099L141.427 282.847C141.445 282.681 141.591 282.56 141.759 282.577C141.925 282.594 142.046 282.743 142.029 282.909L140.901 293.86L156.739 295.49C156.905 295.507 157.026 295.656 157.009 295.822C156.993 295.978 156.862 296.093 156.708 296.093Z" fill="#F8E69E"/>
<path d="M195.423 300.078C195.412 300.078 195.402 300.078 195.391 300.077L192.735 299.803C192.569 299.786 192.448 299.638 192.465 299.472C192.482 299.305 192.628 299.185 192.797 299.202L195.153 299.444L195.753 293.612C195.77 293.446 195.919 293.325 196.085 293.342C196.251 293.359 196.372 293.508 196.355 293.674L195.723 299.807C195.707 299.963 195.576 300.078 195.423 300.078Z" fill="#F8E69E"/>
<path d="M143.564 265.348C143.554 265.348 143.543 265.348 143.533 265.346C143.367 265.329 143.245 265.181 143.263 265.015L155.678 144.399C155.695 144.233 155.844 144.112 156.01 144.13L210.863 149.776C211.029 149.793 211.15 149.941 211.133 150.108L208.724 173.508C208.707 173.674 208.563 173.798 208.392 173.778C208.226 173.761 208.105 173.612 208.122 173.446L210.5 150.346L156.249 144.762L143.864 265.077C143.848 265.232 143.717 265.348 143.564 265.348Z" fill="#F8E69E"/>
<path d="M202.885 157.312L162.266 153.13L159.427 180.711L200.045 184.893L202.885 157.312Z" fill="#DA6623"/>
<path d="M199.668 188.565L159.049 184.384L156.21 211.965L196.828 216.146L199.668 188.565Z" fill="#DA6623"/>
<path d="M196.45 219.818L155.832 215.636L152.993 243.217L193.611 247.399L196.45 219.818Z" fill="#DA6623"/>
<path d="M223.344 154.562L137.237 277.984L182.462 309.535L268.568 186.113L223.344 154.562Z" fill="white"/>
<path d="M250.809 211.87C250.749 211.87 250.689 211.852 250.636 211.815C250.499 211.72 250.466 211.531 250.561 211.394L268.146 186.188L223.419 154.983L215.708 166.036C215.612 166.173 215.424 166.207 215.287 166.111C215.15 166.015 215.116 165.827 215.212 165.69L223.096 154.389C223.191 154.253 223.379 154.219 223.517 154.314L268.741 185.865C268.878 185.961 268.911 186.149 268.816 186.286L251.057 211.741C250.999 211.825 250.905 211.87 250.809 211.87Z" fill="#F8E69E"/>
<path d="M258.106 188.595L224.617 165.229L208.751 187.969L242.24 211.335L258.106 188.595Z" fill="#EEC107"/>
<path d="M240.128 214.362L206.639 190.997L190.774 213.736L224.262 237.102L240.128 214.362Z" fill="#F2CD36"/>
<path d="M222.15 240.129L188.662 216.763L172.796 239.503L206.285 262.869L222.15 240.129Z" fill="#FFD092"/>
<path d="M88.7035 160.108L95.7335 175.019L88.2459 178.551L81.2158 163.64L77.5036 165.391L76.1367 181.823L89.6817 191.22L91.9534 190.149L109.329 227.003L109.331 227.002L122.769 256.422C124.087 259.3 127.487 260.564 130.364 259.246C133.242 257.928 134.506 254.527 133.189 251.65L119.697 222.112L119.697 222.112L119.664 222.041L119.661 222.034L102.322 185.258L104.594 184.186L105.96 167.755L92.4156 158.357L88.7035 160.108Z" fill="#F8E69E"/>
<path d="M120.554 159.526L117.701 160.156L133.478 231.679L136.331 231.05L120.554 159.526Z" fill="#363E44"/>
<path d="M129.39 191.006L122.928 192.432L124.354 198.893L130.815 197.468L129.39 191.006Z" fill="#363E44"/>
<path d="M118.404 149.707L115.527 150.342L115.231 155.839L117.812 160.701L120.689 160.066L120.984 154.57L118.404 149.707Z" fill="#363E44"/>
<path d="M131.312 195.442L123.056 197.263L125.318 227.145L135.836 255.206L144.093 253.385L141.831 223.503L131.312 195.442Z" fill="#F2CD36"/>
<path d="M139.325 251.664C139.186 251.664 139.061 251.568 139.03 251.427L131.199 215.977C131.163 215.814 131.266 215.653 131.429 215.617C131.594 215.58 131.754 215.684 131.79 215.847L139.62 251.296C139.656 251.459 139.553 251.621 139.39 251.657C139.368 251.662 139.346 251.664 139.325 251.664Z" fill="#363E44"/>
<path d="M131.067 214.282C130.929 214.282 130.804 214.186 130.772 214.045L127.532 199.375C127.496 199.211 127.599 199.05 127.762 199.014C127.927 198.977 128.086 199.081 128.123 199.244L131.363 213.914C131.399 214.077 131.296 214.238 131.133 214.275C131.111 214.28 131.089 214.282 131.067 214.282Z" fill="#363E44"/>
<path d="M210.832 261.625H71.1006V360.907H210.832V261.625Z" fill="#E6D0BE"/>
<path d="M210.285 243.231H69.7195V275.855H210.285V243.231Z" fill="#F7F1EB"/>
<path d="M209.732 276.363H209.731L70.5241 276.229C70.3569 276.229 70.2216 276.093 70.2219 275.926C70.2222 275.759 70.3574 275.624 70.5244 275.624H70.5246L209.732 275.758C209.899 275.758 210.034 275.894 210.034 276.061C210.034 276.228 209.898 276.363 209.732 276.363Z" fill="#D3BBA3"/>
<path d="M209.078 271.261H209.078L69.8703 271.127C69.7031 271.127 69.5678 270.991 69.5681 270.824C69.5684 270.657 69.7036 270.522 69.8706 270.522H69.8708L209.078 270.656C209.246 270.656 209.381 270.792 209.381 270.959C209.38 271.126 209.245 271.261 209.078 271.261Z" fill="#D3BBA3"/>
<path d="M208.751 265.085H208.751L69.5436 264.951C69.3764 264.951 69.2412 264.815 69.2415 264.648C69.2417 264.481 69.377 264.346 69.5439 264.346H69.5442L208.752 264.48C208.919 264.48 209.054 264.616 209.054 264.783C209.053 264.95 208.918 265.085 208.751 265.085Z" fill="#D3BBA3"/>
<path d="M209.732 258.909H209.731L70.5241 258.775C70.3569 258.775 70.2216 258.639 70.2219 258.472C70.2222 258.305 70.3574 258.17 70.5244 258.17H70.5246L209.732 258.304C209.899 258.304 210.034 258.44 210.034 258.607C210.034 258.774 209.898 258.909 209.732 258.909Z" fill="#D3BBA3"/>
<path d="M210.385 253.807H210.385L71.1776 253.673C71.0105 253.673 70.8752 253.537 70.8755 253.37C70.8758 253.203 71.011 253.068 71.1779 253.068H71.1782L210.386 253.202C210.553 253.202 210.688 253.338 210.688 253.505C210.687 253.672 210.552 253.807 210.385 253.807Z" fill="#D3BBA3"/>
<path d="M75.9495 235.79H64.979V371.399H75.9495V235.79Z" fill="#D3BBA3"/>
<path d="M77.1404 371.702H65.5649V235.488H77.1404V371.702ZM66.1698 371.097H76.5356V236.093H66.1698V371.097Z" fill="#363E44"/>
<path d="M218.268 235.788H207.297V371.397H218.268V235.788Z" fill="#D3BBA3"/>
<path d="M219.457 372.032H207.882V235.818H219.457V372.032ZM208.487 371.427H218.852V236.423H208.487V371.427Z" fill="#363E44"/>
<path d="M222.892 232.953H59.2317V248.422H222.892V232.953Z" fill="#D3BBA3"/>
<path d="M224.525 249.072H60.2598V233.538H224.525V249.072ZM60.8645 248.467H223.92V234.143H60.8645V248.467Z" fill="#363E44"/>
<path d="M178.609 316.222H174.445C174.072 314.192 173.54 312.217 172.865 310.311L176.468 308.229L169.423 296.021L165.811 298.107C164.486 296.555 163.04 295.109 161.489 293.784L163.574 290.171L151.371 283.122L149.291 286.727C147.385 286.051 145.411 285.519 143.382 285.146V280.98H129.291V285.146C127.262 285.519 125.288 286.051 123.382 286.727L121.302 283.122L109.099 290.171L111.184 293.784C109.632 295.109 108.187 296.555 106.862 298.107L103.25 296.021L96.2048 308.229L99.8081 310.311C99.1323 312.217 98.6006 314.192 98.2278 316.222H94.0642V330.319H98.2278C98.6006 332.349 99.1323 334.324 99.8081 336.23L96.2048 338.311L103.25 350.519L106.862 348.433C108.187 349.986 109.632 351.432 111.184 352.757L109.099 356.37L121.302 363.419L123.382 359.814C125.288 360.49 127.261 361.022 129.291 361.395V365.56H143.382V361.395C145.411 361.022 147.385 360.49 149.291 359.814L151.371 363.419L163.574 356.37L161.489 352.757C163.04 351.431 164.486 349.985 165.811 348.433L169.422 350.519L176.468 338.311L172.864 336.23C173.54 334.324 174.072 332.349 174.445 330.319H178.608L178.609 316.222ZM159.378 324.025C158.992 336.101 149.161 345.936 137.091 346.322C123.762 346.747 112.869 335.85 113.295 322.516C113.68 310.44 123.511 300.605 135.581 300.219C148.91 299.794 159.803 310.691 159.378 324.025Z" fill="white"/>
<path d="M136.336 354.409C119.173 354.409 105.21 340.44 105.21 323.27C105.21 315.768 107.915 308.521 112.825 302.863C117.687 297.262 124.382 293.574 131.675 292.478C131.84 292.453 131.995 292.567 132.019 292.733C132.044 292.898 131.93 293.052 131.765 293.076C116.971 295.299 105.815 308.28 105.815 323.27C105.815 340.107 119.507 353.804 136.336 353.804C150.242 353.804 162.391 344.412 165.88 330.965C165.922 330.803 166.087 330.706 166.249 330.748C166.411 330.79 166.507 330.955 166.465 331.117C162.907 344.831 150.518 354.409 136.336 354.409Z" fill="#F2E6DC"/>
<path d="M78.3989 354.207L82.5008 371.498L95.6971 371.493L92.5039 354.202L78.3989 354.207Z" fill="white"/>
<path d="M82.4993 370.915L83.9582 390.461L120.445 390.448C115.505 382.882 107.472 374.147 95.6539 370.911L82.4993 370.915Z" fill="#4446A0"/>
<path d="M37.8469 356.266L41.4883 372.698H52.998V355.216L37.8469 356.266Z" fill="white"/>
<path d="M41.339 372.023C41.339 372.739 36.7139 390.8 36.7139 390.8H63.1951L52.7779 372.023H41.339Z" fill="#4446A0"/>
<path d="M50.2924 266.938C50.2924 266.938 46.6886 290.237 75.3259 360.06H94.0032C94.0032 360.06 79.229 274.807 77.6506 264.053L50.2924 266.938Z" fill="#4446A0"/>
<path d="M34.4266 270.348C34.4266 270.348 27.1859 307.078 36.9192 360.06H54.2811C54.2811 360.06 57.395 283.2 61.8671 271.659L34.4266 270.348Z" fill="#4446A0"/>
<path d="M55.3912 336.006C55.3838 336.006 55.3764 336.006 55.3691 336.005C55.2026 335.993 55.0774 335.848 55.0894 335.682L58.5553 287.899L64.4587 285.871C64.6182 285.817 64.7889 285.901 64.8429 286.059C64.8972 286.217 64.8134 286.389 64.6554 286.443L59.1293 288.341L55.6924 335.726C55.6809 335.885 55.5484 336.006 55.3912 336.006Z" fill="#363E44"/>
<path d="M41.2649 216.237C41.2649 216.237 53.1597 211.22 71.4867 216.35L73.4694 274.786L47.1096 275.061L41.2649 216.237Z" fill="#1F44DC"/>
<path d="M48.3327 214.513C48.5187 214.498 48.2822 271.083 48.2822 271.083L34.3853 270.656L30.6575 218.121C30.6575 218.121 37.3095 215.368 48.3327 214.513Z" fill="#1F44DC"/>
<path d="M39.4644 250.721L30.1113 254.027C26.5935 255.271 22.7263 253.479 21.4011 249.991C18.9721 243.598 18.9816 236.516 21.5256 230.168C23.4375 225.398 28.1349 219.115 30.78 218.06L39.4644 250.721Z" fill="#1F44DC"/>
<path d="M33.7464 237.469C33.7331 237.469 33.7195 237.468 33.7059 237.466C33.5405 237.444 33.4242 237.292 33.4463 237.126L34.3539 230.344C34.376 230.178 34.527 230.061 34.6938 230.084C34.8592 230.106 34.9755 230.258 34.9534 230.424L34.0458 237.206C34.0255 237.358 33.8955 237.469 33.7464 237.469Z" fill="#363E44"/>
<path d="M63.9744 214.708L73.1896 270.709L78.6949 270.656L81.6795 218.657C81.6795 218.657 73.0334 215.537 63.9744 214.708Z" fill="#1F44DC"/>
<path d="M81.6795 218.657L78.5007 239.18L90.8486 246.067C95.6406 248.74 101.694 246.854 104.12 241.932L105.72 235.329L81.6795 218.657Z" fill="#1F44DC"/>
<path d="M93.1177 230.313C96.1583 225.336 99.0922 219.228 100.825 216.378C104.399 210.501 110.531 202.345 111.66 203.218C112.304 203.715 111.698 205 109.849 208.327C110.111 208.253 110.959 208.222 111.481 208.781C112.252 209.608 111.755 210.415 111.745 210.506C111.832 210.474 112.839 210.156 113.449 210.622C114.136 211.147 114.213 211.877 114.047 212.536C114.265 212.462 115.239 212.3 115.803 212.777C116.535 213.398 116.355 214.445 115.933 215.116C115.16 216.346 112.962 219.657 112.024 221.556C110.856 223.918 107.014 232.876 103.669 239.598C101.176 244.608 88.6004 237.706 93.1177 230.313Z" fill="white"/>
<path d="M107.314 220.401C107.293 220.401 107.272 220.399 107.251 220.395C107.088 220.36 106.983 220.199 107.018 220.036C107.318 218.627 107.014 217.484 106.769 216.566C106.507 215.582 106.281 214.732 107.069 214.163C107.494 213.855 107.859 213.258 108.122 212.435C108.185 212.24 108.055 212.119 108.014 212.086C107.972 212.054 107.82 211.954 107.641 212.064L103.827 214.396C103.684 214.483 103.498 214.438 103.411 214.296C103.324 214.153 103.369 213.967 103.511 213.88L107.325 211.548C107.661 211.342 108.078 211.367 108.388 211.611C108.695 211.852 108.817 212.248 108.698 212.62C108.39 213.58 107.961 214.264 107.423 214.653C106.991 214.965 107.096 215.443 107.354 216.41C107.601 217.339 107.94 218.611 107.61 220.162C107.579 220.304 107.454 220.401 107.314 220.401Z" fill="#363E44"/>
<path d="M113.876 217.071C113.822 217.071 113.766 217.056 113.716 217.025C112.889 216.508 112.457 215.577 112.534 214.654C111.988 215.226 111.117 215.358 110.423 214.961C110.014 214.727 109.723 214.347 109.605 213.891C109.487 213.436 109.557 212.963 109.8 212.56L109.932 212.344C109.556 212.411 109.153 212.332 108.823 212.091C108.23 211.656 108.057 210.847 108.422 210.208L109.234 208.786C109.317 208.641 109.502 208.591 109.647 208.674C109.792 208.757 109.842 208.941 109.759 209.086L108.947 210.508C108.735 210.88 108.835 211.35 109.18 211.603C109.547 211.871 110.069 211.795 110.345 211.434L111.029 210.536C111.126 210.408 111.307 210.378 111.439 210.469C111.572 210.56 111.611 210.738 111.528 210.876L110.318 212.873C110.159 213.135 110.114 213.443 110.191 213.74C110.268 214.037 110.457 214.284 110.723 214.436C111.195 214.706 111.793 214.6 112.144 214.184L113.274 212.842C113.374 212.724 113.547 212.7 113.675 212.786C113.803 212.873 113.845 213.042 113.773 213.179L113.354 213.967C112.88 214.859 113.18 215.977 114.037 216.512C114.178 216.6 114.221 216.787 114.133 216.929C114.076 217.021 113.977 217.071 113.876 217.071Z" fill="#363E44"/>
<path d="M43.3789 275.795H73.7141V238.977H43.3789V275.795Z" fill="#4446A0"/>
<path d="M73.7139 238.977C73.7139 238.365 74.3255 216.103 74.3255 216.103L66.9863 214.91L66.4971 239.955L73.7139 238.977Z" fill="#4446A0"/>
<path d="M43.3788 238.977L40.9937 214.972L48.2399 214.289L50.2287 239.833L43.3788 238.977Z" fill="#4446A0"/>
<path d="M53.7278 243.849C53.6942 243.849 53.6599 243.844 53.6262 243.832C53.469 243.776 53.387 243.603 53.4428 243.445L61.3335 221.292H78.6881C78.8553 221.292 78.9905 221.427 78.9905 221.594C78.9905 221.761 78.8553 221.896 78.6881 221.896H61.76L54.0128 243.648C53.9684 243.772 53.8521 243.849 53.7278 243.849Z" fill="#363E44"/>
<path d="M71.694 244.608H54.5525L62.3715 222.655H79.5129L71.694 244.608Z" fill="#363E44"/>
<path d="M28.0143 240.49C33.4562 238.269 46.0126 232.405 47.2612 231.881C49.5951 230.903 62.2566 225.975 63.1658 227.725C63.6002 228.561 61.2039 229.62 60.3834 229.955C61.1793 230.012 64.2595 229.897 64.4868 230.929C64.7537 232.141 61.1043 232.839 61.0542 232.886C61.8684 232.861 65.1073 232.631 65.3078 233.398C65.5685 234.396 62.6195 235.513 61.7211 235.807C61.8554 235.898 64.8978 235.233 65.2593 236.409C65.5247 237.273 62.8174 238.293 61.6443 238.74C59.5713 239.611 36.0109 251.049 31.3607 252.616C29.5403 253.229 26.5051 243.271 28.0143 240.49Z" fill="white"/>
<path d="M27.9422 240.688C27.8244 240.688 27.7122 240.618 27.6634 240.503C27.5987 240.349 27.6708 240.171 27.825 240.107C29.5703 239.372 36.7076 236.272 39.4267 235.052C39.5793 234.984 39.758 235.052 39.8262 235.205C39.8948 235.357 39.8265 235.536 39.6741 235.604C36.9522 236.825 29.807 239.928 28.0594 240.664C28.0214 240.68 27.9815 240.688 27.9422 240.688Z" fill="#363E44"/>
<path d="M56.0787 231.213C55.9642 231.213 55.8549 231.148 55.8037 231.037C55.7338 230.885 55.8002 230.706 55.9517 230.636C56.8445 230.225 57.7824 229.925 58.7396 229.745C59.2726 229.644 59.8184 229.581 60.3615 229.554C60.528 229.55 60.6701 229.675 60.6781 229.842C60.686 230.009 60.5572 230.151 60.3905 230.159C59.8749 230.183 59.3571 230.244 58.8513 230.339C57.9429 230.51 57.0524 230.794 56.2052 231.185C56.164 231.204 56.121 231.213 56.0787 231.213Z" fill="#363E44"/>
<path d="M58.0245 234.035C57.91 234.035 57.8007 233.97 57.7495 233.859C57.6796 233.707 57.746 233.528 57.8975 233.458C58.7897 233.047 59.7276 232.747 60.6854 232.567C60.8014 232.545 60.9157 232.526 61.0286 232.508C61.1934 232.481 61.3482 232.594 61.3744 232.76C61.4 232.925 61.2875 233.079 61.1224 233.105C61.0155 233.122 60.9071 233.141 60.7969 233.161C59.888 233.332 58.9978 233.617 58.1509 234.007C58.1098 234.026 58.0668 234.035 58.0245 234.035Z" fill="#363E44"/>
<path d="M59.8981 236.752C59.7835 236.752 59.6742 236.687 59.6231 236.577C59.5531 236.425 59.6195 236.245 59.7711 236.175C60.3534 235.907 60.9597 235.684 61.5731 235.514C61.7319 235.469 61.9003 235.563 61.9454 235.724C61.99 235.885 61.8958 236.052 61.7349 236.096C61.1528 236.258 60.5773 236.47 60.0244 236.725C59.9834 236.744 59.9403 236.752 59.8981 236.752Z" fill="#363E44"/>
<path d="M68.3517 261.788L49.1228 261.493V246.409C49.1228 246.242 49.258 246.107 49.4252 246.107C49.5924 246.107 49.7277 246.242 49.7277 246.409V260.897L67.7423 261.174L67.6596 249.903C67.6584 249.736 67.7928 249.599 67.9597 249.598C67.9607 249.598 67.9615 249.598 67.9621 249.598C68.128 249.598 68.2633 249.732 68.2645 249.898L68.3517 261.788Z" fill="#363E44"/>
<path d="M34.8664 271.226C34.7002 271.226 34.5649 271.091 34.564 270.925C34.5631 270.758 34.6977 270.622 34.8646 270.621L73.1879 270.407C73.1885 270.407 73.1892 270.407 73.1897 270.407C73.3559 270.407 73.4912 270.541 73.4921 270.708C73.493 270.875 73.3584 271.011 73.1915 271.012L34.8682 271.226C34.8675 271.226 34.867 271.226 34.8664 271.226Z" fill="#363E44"/>
<path d="M61.1191 215.376H52.2673L56.067 200.301C56.0573 198.576 56.3803 199.763 58.1049 199.754C59.8296 199.744 64.2572 200.628 64.2668 202.352L61.1191 215.376Z" fill="white"/>
<path d="M65.7925 211.618C63.7105 212.902 58.711 208.074 58.711 208.074L55.5593 201.762C55.7826 198.329 58.7473 195.726 62.1812 195.949C65.6151 196.172 68.2177 199.137 67.9944 202.571C67.9944 202.571 67.9131 210.31 65.7925 211.618Z" fill="white"/>
<path d="M67.1737 204.16C67.1737 204.16 68.7988 206.1 68.6747 206.576C68.5265 207.145 66.561 207.37 66.561 207.37C66.561 207.37 67.2198 204.167 67.1737 204.16Z" fill="white"/>
<path d="M62.0439 202.352C62.0439 202.352 63.0507 202.111 64.1131 202.393C64.3392 202.452 63.434 204.148 63.2466 203.989C62.4224 203.289 62.0439 202.352 62.0439 202.352Z" fill="#1F44DC"/>
<mask id="mask0_1_1302" style="mask-type:luminance" maskUnits="userSpaceOnUse" x="62" y="202" width="5" height="3">
<path d="M62.0439 202.352C62.0439 202.352 63.5247 201.998 64.7897 202.65C66.0547 203.302 66.6249 204.714 66.6249 204.714C66.6249 204.714 65.1441 205.068 63.8791 204.416C62.6141 203.764 62.0439 202.352 62.0439 202.352Z" fill="white"/>
</mask>
<g mask="url(#mask0_1_1302)">
<path d="M64.1702 202.358C65.0588 201.842 66.1981 202.143 66.7149 203.032C67.2316 203.92 66.9301 205.059 66.0416 205.576C65.1529 206.093 64.0137 205.792 63.497 204.903C62.9802 204.014 63.2817 202.875 64.1702 202.358Z" fill="#363E44"/>
</g>
<path d="M55.1474 194.895C55.1474 194.895 51.7548 201.273 55.9401 204.148L57.2368 203.3L59.8247 204.81L59.1453 201.386C59.0234 200.082 60.1252 198.992 61.4282 199.128L67.1159 199.722L67.2544 196.662C63.6596 194.008 59.6867 193.125 55.1474 194.895Z" fill="#363E44"/>
<path d="M61.5485 194.587C60.8992 194.68 60.2972 194.229 60.2038 193.58C60.1106 192.93 60.5124 191.989 61.1617 191.895C61.811 191.802 62.4619 192.592 62.5553 193.242C62.6485 193.891 62.1978 194.493 61.5485 194.587Z" fill="#363E44"/>
<path d="M62.4064 194.998C61.7935 194.764 61.4863 194.078 61.7203 193.465C61.9543 192.852 62.7631 192.224 63.3759 192.458C63.9887 192.692 64.1735 193.699 63.9396 194.312C63.7056 194.925 63.0192 195.232 62.4064 194.998Z" fill="#363E44"/>
<path d="M64.2395 195.902C63.4769 195.445 63.2292 194.456 63.6862 193.694C64.1433 192.931 65.3712 192.284 66.1338 192.741C66.8964 193.198 66.9049 194.586 66.4479 195.349C65.9908 196.112 65.002 196.359 64.2395 195.902Z" fill="#363E44"/>
<path d="M59.664 194.553C59.018 194.667 58.4017 194.236 58.2876 193.59C58.1734 192.944 58.5446 191.989 59.1907 191.875C59.8365 191.761 60.5126 192.53 60.6268 193.176C60.741 193.822 60.3099 194.438 59.664 194.553Z" fill="#363E44"/>
<path d="M65.687 196.33C65.4279 195.583 65.8241 194.767 66.5718 194.507C67.3196 194.248 68.5272 194.509 68.7863 195.256C69.0454 196.004 68.2579 196.956 67.5101 197.215C66.7622 197.474 65.9461 197.078 65.687 196.33Z" fill="#363E44"/>
<path d="M54.3517 201.709C53.8173 202.768 54.2433 204.061 55.3031 204.595C56.363 205.129 57.6553 204.703 58.1896 203.644C58.724 202.584 58.298 201.292 57.2382 200.757C56.1783 200.223 54.886 200.649 54.3517 201.709Z" fill="white"/>
<path d="M67.6038 207.175L66.6027 212.31C66.4633 213.025 65.7567 213.479 65.0483 213.309C64.8701 213.266 64.6778 213.218 64.474 213.164C60.947 212.228 58.1523 209.536 57.0888 206.045C56.7325 204.876 57.1352 203.608 58.1008 202.858L58.419 202.611L59.3914 203.248C59.3914 203.248 59.9343 206.131 60.9782 206.425C62.0223 206.719 64.0547 206.02 67.6038 207.175Z" fill="#363E44"/>
<path d="M65.0093 208.65C64.7607 208.65 64.5135 208.572 64.3074 208.418C63.9512 208.153 63.7737 207.698 63.8549 207.259C63.8853 207.095 64.0433 206.986 64.2072 207.017C64.3717 207.047 64.4802 207.205 64.4497 207.369C64.4101 207.583 64.4961 207.805 64.6689 207.933C64.8482 208.067 65.0921 208.083 65.29 207.973C65.4356 207.892 65.6201 207.945 65.701 208.091C65.782 208.237 65.729 208.421 65.5829 208.502C65.4038 208.601 65.206 208.65 65.0093 208.65Z" fill="white"/>
<path d="M59.8788 199.475C59.8043 199.475 59.73 199.448 59.6715 199.392L57.3756 197.231C57.254 197.117 57.2484 196.926 57.3626 196.804C57.4775 196.682 57.6686 196.676 57.7903 196.791L60.0862 198.952C60.2078 199.066 60.2134 199.258 60.0992 199.38C60.0395 199.443 59.9592 199.475 59.8788 199.475Z" fill="#84524D"/>
<path d="M69.8221 199.274C69.7766 194.833 66.5711 190.969 62.474 190.771C58.06 190.558 54.1054 194.365 53.641 199.274C53.6037 199.669 53.5924 200.058 53.6012 200.441L69.8221 199.274Z" fill="#4446A0"/>
<path d="M62.3149 199.63L74.7777 201.385L75.2066 200.519L68.6661 198.811C66.0782 198.953 63.854 199.196 62.3149 199.63Z" fill="#4446A0"/>
<path d="M144.182 365.996H125.701V389.749H144.182V365.996Z" fill="#363E44"/>
<path d="M258.733 365.996H240.253V389.749H258.733V365.996Z" fill="#363E44"/>
<path d="M259.632 369.375H124.669V331.411L136.366 321.094H247.936L259.632 331.411V369.375Z" fill="#A74929"/>
<path d="M247.935 321.094H136.366L157.006 284.236H227.296L247.935 321.094Z" fill="#F2CD36"/>
<path d="M222.869 288.125H161.433L144.429 318.49H239.872L222.869 288.125Z" fill="#363E44"/>
<path d="M248.389 321.897C248.284 321.897 248.181 321.842 248.126 321.744L226.944 284.481H157.183L136.542 321.222C136.46 321.367 136.276 321.419 136.13 321.337C135.984 321.256 135.932 321.071 136.014 320.926L156.829 283.876H227.296L227.383 284.029L248.651 321.445C248.734 321.59 248.683 321.775 248.538 321.858C248.491 321.885 248.44 321.897 248.389 321.897Z" fill="#363E44"/>
<path d="M143.067 318.489H118.995V309.932L133.779 306.837V316.249H144.099L143.067 318.489Z" fill="#A74929"/>
<path d="M241.802 318.49H265.874V309.932L251.09 306.837V316.249H240.77L241.802 318.49Z" fill="#A74929"/>
<path d="M132.207 342.7L154.716 352.87C154.901 352.954 155.111 352.819 155.111 352.615V342.965C155.111 342.056 154.516 341.254 153.646 340.992L134.601 335.256C133.409 334.896 132.207 335.789 132.207 337.035V342.7Z" fill="#F2CD36"/>
<path d="M252.331 342.36L229.427 352.709V343.059C229.427 341.892 230.191 340.863 231.308 340.527L249.936 334.915C251.129 334.556 252.331 335.449 252.331 336.695L252.331 342.36Z" fill="#F2CD36"/>
<path d="M166.274 305.412C166.216 305.412 166.157 305.396 166.106 305.361C165.967 305.268 165.93 305.08 166.023 304.942L173.523 293.752C173.616 293.613 173.804 293.576 173.943 293.669C174.082 293.762 174.119 293.95 174.026 294.088L166.525 305.278C166.467 305.366 166.371 305.412 166.274 305.412Z" fill="white"/>
<path d="M176.988 303.388C176.93 303.388 176.872 303.372 176.82 303.337C176.681 303.244 176.644 303.056 176.737 302.918L185.167 290.306C185.26 290.167 185.448 290.13 185.587 290.223C185.725 290.316 185.763 290.504 185.67 290.642L177.239 303.254C177.181 303.341 177.086 303.388 176.988 303.388Z" fill="white"/>
<path d="M200.78 310.526C200.722 310.526 200.664 310.509 200.612 310.475C200.474 310.382 200.436 310.194 200.529 310.056L208.959 297.444C209.052 297.305 209.24 297.268 209.379 297.361C209.518 297.454 209.555 297.642 209.462 297.78L201.032 310.392C200.974 310.479 200.878 310.526 200.78 310.526Z" fill="white"/>
<path d="M180.513 316.921C180.459 316.921 180.405 316.906 180.356 316.877C180.213 316.79 180.168 316.603 180.255 316.461L184.874 308.892C184.961 308.749 185.148 308.704 185.29 308.791C185.432 308.878 185.478 309.064 185.39 309.207L180.771 316.776C180.714 316.869 180.615 316.921 180.513 316.921Z" fill="white"/>
<path d="M186.158 307.67C186.105 307.67 186.05 307.656 186.001 307.626C185.859 307.539 185.813 307.353 185.901 307.21L190.541 299.606C190.628 299.463 190.815 299.418 190.957 299.505C191.099 299.592 191.145 299.778 191.057 299.921L186.417 307.525C186.36 307.619 186.26 307.67 186.158 307.67Z" fill="white"/>
<path d="M155.922 315.092C155.864 315.092 155.806 315.075 155.754 315.041C155.615 314.948 155.577 314.76 155.671 314.622L158.482 310.416C158.575 310.277 158.763 310.24 158.901 310.333C159.04 310.425 159.078 310.613 158.985 310.752L156.173 314.958C156.115 315.045 156.019 315.092 155.922 315.092Z" fill="white"/>
<path d="M219.876 301.451C219.823 301.451 219.768 301.437 219.719 301.407C219.577 301.32 219.531 301.134 219.619 300.991L222.477 296.307C222.564 296.165 222.751 296.12 222.893 296.207C223.035 296.293 223.081 296.48 222.994 296.622L220.135 301.307C220.078 301.4 219.978 301.451 219.876 301.451Z" fill="white"/>
<path d="M260.884 363.371H122.891V373.228H260.884V363.371Z" fill="#F2CD36"/>
<path d="M218.852 347.906H168.039V360.142H218.852V347.906Z" fill="white"/>
<path d="M227.746 344.81C227.74 344.81 227.733 344.81 227.727 344.81C227.561 344.8 227.434 344.656 227.444 344.489L227.796 338.67L253.831 330.962C253.991 330.915 254.16 331.006 254.207 331.166C254.254 331.326 254.163 331.495 254.003 331.542L228.375 339.129L228.047 344.526C228.038 344.686 227.905 344.81 227.746 344.81Z" fill="#363E44"/>
<path d="M157.729 345.83C157.57 345.83 157.437 345.706 157.427 345.546L157.1 340.149L131.472 332.562C131.312 332.514 131.221 332.346 131.268 332.186C131.316 332.026 131.483 331.935 131.644 331.982L157.678 339.689L158.031 345.509C158.041 345.676 157.914 345.819 157.748 345.829C157.741 345.829 157.735 345.83 157.729 345.83Z" fill="#363E44"/>
<path d="M264.903 260.911H262.924C262.747 259.946 262.494 259.008 262.173 258.102L263.885 257.113L260.536 251.312L258.819 252.304C258.189 251.566 257.502 250.879 256.765 250.249L257.756 248.532L251.955 245.183L250.966 246.896C250.06 246.575 249.122 246.322 248.157 246.145V244.165H241.459V246.145C240.494 246.322 239.556 246.575 238.65 246.896L237.661 245.183L231.86 248.532L232.851 250.249C232.114 250.879 231.426 251.566 230.796 252.304L229.08 251.312L225.73 257.113L227.443 258.102C227.122 259.008 226.869 259.946 226.692 260.911H224.713V267.61H226.692C226.869 268.574 227.122 269.513 227.443 270.419L225.73 271.407L229.08 277.208L230.796 276.217C231.426 276.955 232.114 277.642 232.851 278.272L231.86 279.989L237.661 283.338L238.65 281.625C239.556 281.946 240.494 282.199 241.459 282.376V284.356H248.157V282.376C249.122 282.199 250.06 281.946 250.966 281.625L251.955 283.338L257.756 279.989L256.765 278.272C257.502 277.642 258.189 276.955 258.819 276.217L260.536 277.208L263.885 271.407L262.173 270.419C262.494 269.513 262.747 268.574 262.924 267.61H264.903V260.911ZM254.411 268.266C253.437 270.842 251.389 272.89 248.813 273.864C240.059 277.173 231.895 269.009 235.204 260.255C236.178 257.679 238.227 255.63 240.803 254.656C249.556 251.348 257.721 259.512 254.411 268.266Z" fill="#E6D0BE"/>
<path d="M244.808 279.216C236.561 279.216 229.853 272.507 229.853 264.26C229.853 256.918 235.319 250.56 242.569 249.472C242.734 249.446 242.887 249.561 242.912 249.726C242.937 249.891 242.823 250.045 242.658 250.07C235.702 251.114 230.457 257.215 230.457 264.26C230.457 272.173 236.895 278.611 244.807 278.611C251.346 278.611 257.058 274.197 258.698 267.877C258.74 267.715 258.905 267.618 259.067 267.66C259.229 267.702 259.326 267.867 259.284 268.029C257.574 274.615 251.621 279.216 244.808 279.216Z" fill="#F2E6DC"/>
</g>
</g>
<defs>
<clipPath id="clip0_1_1302">
<rect x="20" y="134" width="252" height="258" rx="20" fill="white"/>
</clipPath>
<clipPath id="clip1_1_1302">
<rect x="20" y="134" width="252" height="258" rx="20" fill="white"/>
</clipPath>
</defs>
</svg>
