<svg width="94" height="120" viewBox="0 0 94 120" fill="none" xmlns="http://www.w3.org/2000/svg">
<g clip-path="url(#clip0_177_10663)">
<rect width="94" height="120" fill="#BD3644"/>
<g clip-path="url(#clip1_177_10663)">
<g clip-path="url(#clip2_177_10663)">
<path d="M44.5481 105.1C69.3568 105.1 89.4683 84.9886 89.4683 60.1799C89.4683 35.3712 69.3568 15.2597 44.5481 15.2597C19.7394 15.2597 -0.37207 35.3712 -0.37207 60.1799C-0.37207 84.9886 19.7394 105.1 44.5481 105.1Z" fill="#3C77BE"/>
<path d="M11.4718 41.9769L12.1854 41.6691C12.3993 41.9895 12.6364 42.2885 12.8931 42.5652L12.4292 43.1881L14.5388 44.759L15.0037 44.1347C15.3456 44.3027 15.7002 44.4436 16.064 44.556L15.9736 45.3292L18.586 45.6349L18.6763 44.8635C19.0529 44.8385 19.4305 44.7837 19.8059 44.6976L20.1137 45.4113L22.529 44.3697L22.2212 43.6561C22.5415 43.4422 22.8405 43.2052 23.1172 42.9484L23.7401 43.4123L25.311 41.3027L24.6866 40.8377C24.8546 40.4959 24.9955 40.1413 25.108 39.7774L25.8812 39.8679L26.1868 37.2554L25.4154 37.1652C25.3904 36.7886 25.3357 36.411 25.2495 36.0355L25.9632 35.7277L24.9217 33.3125L24.208 33.6202C23.9941 33.2999 23.7571 33.0009 23.5004 32.7242L23.9642 32.1013L21.8546 30.5303L21.3898 31.1547C21.0479 30.9867 20.6933 30.8458 20.3294 30.7333L20.4198 29.9601L17.8074 29.6545L17.7171 30.4259C17.3405 30.4509 16.9629 30.5057 16.5875 30.5918L16.2797 29.8781L13.8645 30.9196L14.1722 31.6333C13.8519 31.8472 13.5529 32.0842 13.2762 32.341L12.6533 31.8771L11.0824 33.9867L11.7067 34.4516C11.5387 34.7935 11.3978 35.148 11.2853 35.512L10.5121 35.4215L10.2065 38.034L10.9779 38.1243C11.003 38.5009 11.0577 38.8784 11.1438 39.2539L10.4302 39.5617L11.4718 41.9769ZM16.6729 33.7665C18.7039 32.9666 21.0391 33.8946 21.9669 35.8704C22.9915 38.0521 21.9632 40.6396 19.7206 41.5229C17.6897 42.3228 15.3544 41.3947 14.4266 39.419C13.402 37.2373 14.4303 34.6498 16.6729 33.7665Z" fill="#F7F1EB"/>
<path d="M18.1963 43.5079C16.4293 43.5079 14.7071 42.7084 13.5712 41.2482C13.5344 41.201 13.5429 41.133 13.5902 41.0963C13.6371 41.0596 13.7053 41.068 13.742 41.1152C15.3192 43.1427 18.0704 43.8474 20.4322 42.829C21.8169 42.2318 22.8862 41.1312 23.4431 39.7299C24.0001 38.3285 23.9779 36.7942 23.3807 35.4095C22.2832 32.8643 19.4378 31.4776 16.7626 32.1839C16.7048 32.1991 16.6455 32.1646 16.6303 32.1068C16.615 32.0491 16.6495 31.9898 16.7073 31.9745C19.4857 31.2412 22.44 32.681 23.5795 35.3237C24.1995 36.7615 24.2225 38.3547 23.6443 39.8098C23.066 41.2649 21.9557 42.4077 20.5179 43.0277C19.7665 43.3518 18.977 43.5079 18.1963 43.5079Z" fill="white"/>
<path d="M74.5951 57.0269C74.5909 57.0269 74.5867 57.0266 74.5825 57.0262L71.97 56.7205C71.9107 56.7136 71.8681 56.6599 71.8751 56.6005L71.9552 55.9162C71.6452 55.8162 71.3401 55.6949 71.0462 55.5549L70.6347 56.1075C70.6175 56.1305 70.5919 56.1458 70.5636 56.1499C70.5351 56.1541 70.5062 56.1468 70.4832 56.1297L68.3737 54.5587C68.3257 54.523 68.3158 54.4552 68.3515 54.4073L68.7619 53.8561C68.5429 53.6141 68.3393 53.3563 68.1551 53.0878L67.5237 53.36C67.4688 53.3837 67.405 53.3584 67.3814 53.3035L66.3398 50.8883C66.3285 50.8619 66.3281 50.8321 66.3387 50.8054C66.3492 50.7788 66.37 50.7574 66.3964 50.746L67.0278 50.4737C66.959 50.1554 66.9113 49.8303 66.8856 49.5051L66.2031 49.4252C66.1438 49.4182 66.1012 49.3645 66.1082 49.3051L66.4138 46.6927C66.4171 46.6642 66.4316 46.6383 66.4542 46.6204C66.4767 46.6026 66.5054 46.5944 66.5339 46.5978L67.2182 46.6779C67.3181 46.3681 67.4393 46.0631 67.5794 45.7689L67.0268 45.3574C67.0038 45.3402 66.9885 45.3147 66.9844 45.2862C66.9802 45.2578 66.9875 45.2289 67.0046 45.2059L68.5755 43.0963C68.5927 43.0733 68.6183 43.058 68.6467 43.0538C68.675 43.0497 68.704 43.057 68.727 43.0741L69.2782 43.4845C69.5202 43.2655 69.778 43.0619 70.0465 42.8777L69.7742 42.2463C69.7505 42.1914 69.7758 42.1277 69.8307 42.104L72.2459 41.0625C72.3006 41.0388 72.3645 41.0641 72.3882 41.119L72.6604 41.7504C72.9789 41.6816 73.3039 41.6338 73.6291 41.6082L73.7089 40.9257C73.7122 40.8972 73.7268 40.8712 73.7493 40.8534C73.7717 40.8355 73.8007 40.8273 73.8289 40.8308L76.4414 41.1364C76.5007 41.1434 76.5433 41.1971 76.5363 41.2565L76.4563 41.9408C76.7661 42.0408 77.0712 42.162 77.3653 42.3021L77.7767 41.7495C77.7939 41.7264 77.8195 41.7112 77.8479 41.707C77.8763 41.7028 77.9052 41.7101 77.9282 41.7273L80.0378 43.2982C80.0858 43.3339 80.0957 43.4017 80.06 43.4497L79.6496 44.0008C79.8685 44.2427 80.0721 44.5004 80.2564 44.7691L80.8878 44.4968C80.9142 44.4854 80.944 44.485 80.9706 44.4956C80.9973 44.5062 81.0187 44.527 81.0301 44.5534L82.0716 46.9686C82.0952 47.0235 82.07 47.0872 82.015 47.1109L81.3836 47.3832C81.4524 47.7013 81.5001 48.0263 81.5259 48.3518L82.2083 48.4317C82.2368 48.4351 82.2629 48.4496 82.2807 48.4721C82.2985 48.4946 82.3066 48.5233 82.3033 48.5518L81.9976 51.1642C81.9907 51.2236 81.9368 51.266 81.8776 51.2591L81.1932 51.1791C81.0932 51.489 80.9721 51.7941 80.8321 52.0881L81.3847 52.4996C81.4077 52.5168 81.423 52.5423 81.4271 52.5708C81.4313 52.5992 81.424 52.628 81.4069 52.6511L79.836 54.7607C79.8188 54.7837 79.7932 54.799 79.7648 54.8032C79.7364 54.8072 79.7075 54.8001 79.6845 54.7829L79.1334 54.3725C78.8913 54.5915 78.6335 54.7951 78.3651 54.9793L78.6374 55.6107C78.661 55.6655 78.6358 55.7292 78.5809 55.7529L76.1656 56.7945C76.1392 56.8059 76.1095 56.8063 76.0828 56.7957C76.0561 56.7851 76.0347 56.7643 76.0234 56.7379L75.7511 56.1065C75.4328 56.1754 75.1077 56.2231 74.7824 56.2488L74.7027 56.9312C74.6993 56.9597 74.6848 56.9857 74.6623 57.0035C74.6431 57.0187 74.6193 57.0269 74.5951 57.0269ZM72.1027 56.5181L74.5001 56.7986L74.5778 56.1348C74.5839 56.0829 74.6261 56.0428 74.6781 56.0393C75.052 56.0145 75.4263 55.9595 75.7907 55.876C75.8414 55.8642 75.8936 55.8906 75.9144 55.9386L76.1793 56.5529L78.3957 55.5971L78.1308 54.9828C78.1101 54.9348 78.1267 54.8789 78.1701 54.8499C78.4808 54.6424 78.7777 54.408 79.0526 54.1529C79.091 54.1174 79.1492 54.1143 79.1909 54.1455L79.727 54.5446L81.1687 52.6087L80.6311 52.2084C80.5893 52.1772 80.5757 52.1207 80.5986 52.0739C80.7636 51.7381 80.9032 51.3867 81.0137 51.0293C81.0291 50.9795 81.0776 50.9476 81.1297 50.9538L81.7954 51.0316L82.0758 48.6342L81.412 48.5565C81.3601 48.5505 81.32 48.5083 81.3166 48.4562C81.2916 48.0819 81.2366 47.7076 81.1531 47.3436C81.1415 47.2927 81.1678 47.2407 81.2158 47.22L81.83 46.955L80.8742 44.7385L80.26 45.0035C80.212 45.0242 80.1562 45.0077 80.1271 44.9642C79.9194 44.6531 79.6849 44.3563 79.4302 44.0817C79.3946 44.0434 79.3915 43.9853 79.4227 43.9434L79.8218 43.4073L77.8858 41.9657L77.4856 42.5032C77.4545 42.545 77.398 42.5588 77.3511 42.5357C77.0152 42.3706 76.6638 42.231 76.3065 42.1206C76.2566 42.1051 76.2249 42.0564 76.231 42.0046L76.3088 41.3389L73.9114 41.0584L73.8338 41.7223C73.8277 41.7742 73.7855 41.8143 73.7335 41.8178C73.3598 41.8425 72.9854 41.8975 72.6208 41.9811C72.5702 41.993 72.5179 41.9665 72.4972 41.9185L72.2323 41.3042L70.0159 42.26L70.2808 42.8743C70.3015 42.9223 70.2849 42.9782 70.2415 43.0072C69.9307 43.2147 69.6338 43.4492 69.3589 43.7043C69.3206 43.7398 69.2624 43.7428 69.2207 43.7117L68.6845 43.3125L67.2429 45.2485L67.7804 45.6488C67.8223 45.68 67.8359 45.7365 67.8129 45.7833C67.6478 46.1193 67.5082 46.4707 67.3978 46.8278C67.3824 46.8777 67.3335 46.9095 67.2818 46.9034L66.6162 46.8255L66.3358 49.223L66.9997 49.3007C67.0515 49.3067 67.0916 49.3489 67.095 49.401C67.1199 49.7749 67.1749 50.1492 67.2584 50.5137C67.2701 50.5646 67.2437 50.6166 67.1958 50.6372L66.5815 50.9021L67.5374 53.1185L68.1516 52.8537C68.1997 52.833 68.2555 52.8495 68.2845 52.893C68.4921 53.2038 68.7266 53.5007 68.9815 53.7755C69.017 53.8137 69.0201 53.8719 68.989 53.9137L68.5898 54.4498L70.5258 55.8915L70.926 55.3539C70.9573 55.3121 71.0138 55.2985 71.0606 55.3214C71.3962 55.4864 71.7477 55.6261 72.1051 55.7366C72.155 55.752 72.1867 55.8007 72.1807 55.8526L72.1027 56.5181ZM74.2118 53.2037C72.5998 53.2037 71.0599 52.2867 70.3376 50.7488C69.8292 49.6663 69.7921 48.4592 70.233 47.3498C70.6739 46.2403 71.5295 45.3879 72.6423 44.9496C74.733 44.1261 77.1189 45.0744 78.0739 47.1082C78.5823 48.1908 78.6194 49.398 78.1785 50.5074C77.7376 51.6168 76.882 52.4691 75.7693 52.9074C75.2594 53.1082 74.7318 53.2037 74.2118 53.2037ZM72.7216 45.151C71.6651 45.5671 70.8527 46.3764 70.4342 47.4297C70.0156 48.4829 70.0509 49.629 70.5336 50.6568C71.4403 52.5876 73.7052 53.4878 75.6899 52.706C76.7464 52.2899 77.5588 51.4807 77.9774 50.4275C78.3959 49.3742 78.3606 48.228 77.8779 47.2002C76.9712 45.2694 74.7063 44.3692 72.7216 45.151Z" fill="#DE7E88"/>
<path d="M40.0261 71.3879L42.3114 56.309L47.1209 71.2908H57.0947L48.9056 42.6312L34.6424 45.1169L31.1265 69.4882L40.0261 71.3879Z" fill="#363E44"/>
<path d="M27.4138 35.6369C27.4138 35.6367 25.9116 26.8215 25.618 25.4226C25.5872 25.2761 25.5341 25.0173 25.3765 24.7122C24.7926 23.5816 23.7099 23.6271 22.5534 22.7185C21.2413 21.6875 21.0861 20.3641 20.6688 20.4507C20.3786 20.511 20.2966 21.0267 20.526 22.0538C20.526 22.0539 20.5258 22.054 20.5258 22.0539C20.2619 21.2935 19.8589 20.2779 19.4391 20.4251C18.9634 20.6208 19.2968 21.8696 19.5354 22.6152C19.2466 21.7127 18.823 21.3192 18.6094 21.4596C18.2732 21.6805 18.3342 22.4325 18.7622 23.6104L18.7621 23.6105C18.2394 22.8797 18.0037 22.7803 17.8451 22.9504C17.5556 23.261 17.9257 24.2227 18.3832 25.0229C18.8982 25.9236 19.6101 26.4435 20.0668 26.7606C20.0669 26.7607 20.067 26.7609 20.067 26.761C20.4855 31.332 20.7356 34.2729 21.0116 37.9705C21.1535 39.873 26.9283 39.4088 27.4138 35.6369Z" fill="#ECD0C8"/>
<path d="M23.42 23.7989C23.2049 22.1619 23.4743 21.5258 23.7348 21.5C24.1729 21.4566 24.9287 22.779 25.5444 25.132C24.9193 24.8137 24.0452 24.1173 23.42 23.7989Z" fill="#ECD0C8"/>
<path d="M22.7122 26.5657C22.6586 26.5657 22.6121 26.526 22.605 26.4714C22.5691 26.1953 22.4586 25.7878 22.1361 25.4141C21.6794 24.8852 21.0774 24.7608 20.8398 24.7319C20.7805 24.7247 20.7382 24.6707 20.7454 24.6114C20.7526 24.552 20.8066 24.5098 20.866 24.517C21.1286 24.549 21.794 24.6866 22.3 25.2727C22.6576 25.687 22.7801 26.1381 22.8198 26.4435C22.8275 26.5029 22.7857 26.5572 22.7264 26.5649C22.7215 26.5654 22.7168 26.5657 22.7122 26.5657Z" fill="#363E44"/>
<path d="M24.8117 24.1963C24.7877 24.1963 24.7637 24.1884 24.7437 24.1722C24.4733 23.9534 24.1484 23.8 23.8043 23.6376C23.6381 23.5591 23.4663 23.478 23.2888 23.3846C23.2359 23.3568 23.2156 23.2913 23.2434 23.2384C23.2711 23.1855 23.3367 23.1651 23.3896 23.193C23.563 23.2842 23.7327 23.3644 23.8967 23.4418C24.2529 23.61 24.5893 23.7688 24.8798 24.004C24.9263 24.0416 24.9335 24.1098 24.8959 24.1562C24.8745 24.1826 24.8432 24.1963 24.8117 24.1963Z" fill="#363E44"/>
<path d="M21.4446 23.351C21.4198 23.351 21.3948 23.3426 21.3744 23.3252C21.2164 23.1904 21.0703 23.0405 20.9402 22.8795C20.7515 22.6459 20.5943 22.3872 20.473 22.1104C20.449 22.0556 20.4739 21.9918 20.5287 21.9678C20.5837 21.9438 20.6473 21.9688 20.6713 22.0235C20.7849 22.2827 20.932 22.5249 21.1086 22.7434C21.2303 22.894 21.367 23.0343 21.5149 23.1605C21.5604 23.1993 21.5658 23.2676 21.527 23.313C21.5056 23.3381 21.4752 23.351 21.4446 23.351Z" fill="#363E44"/>
<path d="M20.4212 23.7938C20.3963 23.7938 20.3714 23.7853 20.351 23.768C20.1929 23.6332 20.0468 23.4833 19.9167 23.3222C19.728 23.0887 19.5708 22.8299 19.4496 22.5531C19.4256 22.4984 19.4505 22.4345 19.5053 22.4105C19.5602 22.3866 19.6239 22.4115 19.6479 22.4663C19.7614 22.7254 19.9085 22.9676 20.0851 23.1862C20.2068 23.3368 20.3436 23.4771 20.4915 23.6032C20.537 23.642 20.5424 23.7103 20.5036 23.7558C20.4822 23.7809 20.4518 23.7938 20.4212 23.7938Z" fill="#363E44"/>
<path d="M19.6521 24.9122C19.6273 24.9122 19.6023 24.9037 19.5819 24.8863C19.4239 24.7515 19.2778 24.6016 19.1477 24.4406C18.959 24.207 18.8018 23.9482 18.6805 23.6714C18.6565 23.6167 18.6815 23.5528 18.7362 23.5289C18.7911 23.5049 18.8549 23.5299 18.8789 23.5846C18.9923 23.8437 19.1395 24.0859 19.3161 24.3045C19.4378 24.4551 19.5745 24.5954 19.7224 24.7216C19.7679 24.7603 19.7733 24.8287 19.7346 24.8741C19.7131 24.8993 19.6827 24.9122 19.6521 24.9122Z" fill="#363E44"/>
<path d="M58.4754 43.1133C60.6258 38.207 53.3989 29.7018 46.303 28.9251C44.2515 28.7005 42.1865 28.4782 42.1865 28.4782C41.1462 28.2857 35.3863 28.388 33.1815 29.2224C26.4463 31.7714 20.457 35.0843 20.4367 37.967C20.3809 45.8929 33.5535 38.0042 33.5535 38.0042L33.4205 51.6525L52.2805 54.0548L50.1888 40.1448C50.1888 40.1448 56.8105 46.9118 58.4754 43.1133Z" fill="#363E44"/>
<path d="M45.6175 29.2861H40.1729V46.5765H45.6175V29.2861Z" fill="#F7F1EB"/>
<path d="M42.7742 46.5765L41.2637 45.066L42.0673 32.3886L43.2997 32.3621L44.2848 45.066L42.7742 46.5765Z" fill="#363E44"/>
<path d="M42.7084 33.3889L44.7415 30.4536H40.6753L42.7084 33.3889Z" fill="#363E44"/>
<path d="M46.3031 54.6944C46.2774 54.6944 46.2524 54.6852 46.2327 54.6684C46.2106 54.6495 46.197 54.6224 46.1951 54.5933L45.8474 49.3824C45.8466 49.3705 45.8478 49.3586 45.8508 49.3471L48.9935 37.6501L46.5927 37.3758C46.5534 37.3712 46.5196 37.3456 46.5047 37.3089C46.4898 37.2722 46.4962 37.2303 46.5213 37.1997L48.7613 34.4618L47.6277 29.1762C47.6151 29.1177 47.6524 29.0602 47.7107 29.0477C47.7693 29.0351 47.8267 29.0723 47.8393 29.1308L48.9839 34.4673C48.9908 34.4995 48.9826 34.5331 48.9618 34.5585L46.8144 37.1832L49.143 37.4493C49.1742 37.4529 49.2024 37.4699 49.2202 37.496C49.2379 37.5221 49.2434 37.5545 49.2352 37.5849L46.0645 49.3859L46.4037 54.4685L52.271 53.947C52.3306 53.9419 52.3831 53.9857 52.3884 54.0452C52.3937 54.1048 52.3497 54.1573 52.2901 54.1626L46.3127 54.694C46.3095 54.6943 46.3063 54.6944 46.3031 54.6944Z" fill="white"/>
<path d="M39.498 28.3665L42.6452 27.1749L46.303 28.925L44.284 31.9122L42.6761 30.7477L41.2434 32.0868L39.498 28.3665Z" fill="white"/>
<path d="M26.1075 26.831L19.5303 28.1638L20.1126 31.0374L26.6898 29.7046L26.1075 26.831Z" fill="white"/>
<path d="M20.4366 38.1342L19.5435 30.6548L26.9671 28.9245L28.2708 38.3218L20.4366 38.1342Z" fill="#363E44"/>
<path d="M28.2138 38.5577C28.1601 38.5577 28.1135 38.5178 28.1066 38.463L27.3622 32.5659C27.3547 32.5066 27.3967 32.4524 27.4561 32.4449C27.5154 32.4375 27.5695 32.4794 27.577 32.5387L28.3214 38.4359C28.3289 38.4952 28.2869 38.5493 28.2276 38.5569C28.2229 38.5575 28.2183 38.5577 28.2138 38.5577Z" fill="white"/>
<path d="M45.6793 46.577H40.1729V48.6962H45.6793V46.577Z" fill="#84524D"/>
<path d="M40.0232 54.3611C40.0211 54.3611 40.019 54.361 40.0169 54.3609L33.0306 53.952C32.9709 53.9486 32.9254 53.8974 32.9289 53.8377C32.9323 53.778 32.9831 53.7325 33.0433 53.7359L39.915 54.1381V51.2034L36.2533 37.187C36.2445 37.1534 36.2525 37.1175 36.2746 37.0907C36.2967 37.0639 36.3303 37.0494 36.3651 37.0517L38.8243 37.2126L36.7824 34.9226C36.7591 34.8965 36.7499 34.8609 36.7576 34.8268L38.1923 28.4541C38.2054 28.3958 38.2633 28.3592 38.3217 28.3723C38.38 28.3854 38.4166 28.4433 38.4035 28.5016L36.981 34.82L39.1619 37.2658C39.1911 37.2986 39.1976 37.3458 39.1784 37.3853C39.1591 37.4248 39.1179 37.4488 39.074 37.4458L36.5008 37.2775L40.1281 51.1622C40.1304 51.1711 40.1316 51.1803 40.1316 51.1895V54.2529C40.1316 54.2827 40.1193 54.3112 40.0976 54.3316C40.0774 54.3506 40.0508 54.3611 40.0232 54.3611Z" fill="white"/>
<path d="M47.5996 49.7872L53.6899 52.9785C53.6899 52.9785 61.4065 41.2052 57.8984 39.1429C54.0803 36.8983 47.5996 49.7872 47.5996 49.7872Z" fill="#363E44"/>
<path d="M44.2828 25.1081C45.5609 24.4579 46.1149 22.9707 46.2066 21.4232C46.2751 20.2689 45.6792 19.4846 44.8082 19.4919C44.2088 18.5078 41.9594 18.3154 41.0123 19.0258C39.2721 20.3309 39.3765 24.0845 41.3231 25.1969C42.6086 25.9316 44.1667 25.1672 44.2828 25.1081Z" fill="white"/>
<path d="M40.5016 25.2919C40.874 25.1472 41.0001 24.5771 40.7831 24.0183C40.5662 23.4596 40.0883 23.124 39.7159 23.2686C39.3434 23.4132 39.2174 23.9834 39.4343 24.5421C39.6513 25.1008 40.1291 25.4365 40.5016 25.2919Z" fill="#ECD0C8"/>
<path d="M46.0806 24.8542C46.3492 24.3184 46.2774 23.7389 45.9201 23.5599C45.5629 23.3808 45.0556 23.67 44.7871 24.2059C44.5185 24.7417 44.5904 25.3212 44.9476 25.5002C45.3048 25.6793 45.8121 25.3901 46.0806 24.8542Z" fill="#ECD0C8"/>
<path d="M45.4921 25.1292C45.4545 25.1292 45.418 25.1096 45.398 25.0746C45.3684 25.0226 45.3865 24.9566 45.4385 24.927C45.5338 24.8726 45.6226 24.7733 45.6822 24.6545C45.7976 24.4241 45.7802 24.1718 45.6441 24.1035C45.6328 24.0978 45.6211 24.0936 45.6087 24.0908C45.5505 24.0776 45.5139 24.0196 45.5272 23.9613C45.5404 23.903 45.5988 23.8666 45.6568 23.8797C45.6859 23.8864 45.7143 23.8965 45.7411 23.9099C45.9904 24.0349 46.0496 24.4046 45.8757 24.7515C45.7964 24.9098 45.6792 25.0389 45.5457 25.115C45.5288 25.1247 45.5103 25.1292 45.4921 25.1292Z" fill="#363E44"/>
<path d="M40.0232 24.8714C40.0018 24.8714 39.98 24.865 39.9611 24.8517C39.8354 24.7634 39.7308 24.6238 39.6667 24.4587C39.5263 24.097 39.6199 23.7346 39.8799 23.6336C39.9077 23.6228 39.9369 23.6153 39.9666 23.6114C40.0251 23.6036 40.0803 23.6454 40.088 23.7047C40.0958 23.764 40.054 23.8183 39.9948 23.8261C39.9823 23.8277 39.97 23.8309 39.9583 23.8354C39.8164 23.8905 39.7753 24.1401 39.8686 24.3804C39.9167 24.5042 39.9957 24.6115 40.0855 24.6746C40.1345 24.7089 40.1463 24.7764 40.1119 24.8254C40.0908 24.8553 40.0574 24.8714 40.0232 24.8714Z" fill="#363E44"/>
<path d="M42.6763 30.7489L40.9624 28.8553L40.8193 25.7471L44.4724 25.5902L44.6135 28.7017L42.6763 30.7489Z" fill="#ECD0C8"/>
<path d="M45.3391 23.4482C45.2726 24.861 44.4381 27.0626 42.627 26.9773C40.8159 26.892 40.1921 24.6217 40.2587 23.2088C40.2946 22.4459 40.471 21.1699 41.022 20.8255C41.4915 20.532 42.3342 21.3271 42.9796 21.3575C43.681 21.3906 44.3327 20.6395 44.7677 21.0314C45.2028 21.4233 45.3724 22.7417 45.3391 23.4482Z" fill="#ECD0C8"/>
<path d="M42.6161 27.7891C45.5526 27.8105 45.4083 22.9166 45.4083 22.9166L40.2115 23.0097C40.2115 23.0097 39.7687 27.7683 42.6161 27.7891Z" fill="white"/>
<path d="M40.2456 23.2795C40.2471 24.9105 41.2972 24.1028 42.6853 24.1015C44.0734 24.1003 45.3705 24.9466 45.3691 23.3155C45.3676 21.6845 44.2947 21.7002 42.9066 21.7014C41.5184 21.7026 40.2442 21.6484 40.2456 23.2795Z" fill="#ECD0C8"/>
<path d="M45.1851 22.7564C45.1851 22.7564 45.0597 22.9459 44.8367 23.132C44.6885 23.2556 44.2218 23.2493 44.2218 23.2493C44.2218 23.2493 43.7034 23.4953 43.4899 23.4489C43.2762 23.4025 43.1333 23.336 43.1333 23.336C43.1333 23.336 43.2022 23.232 43.3285 23.1024C43.4861 22.9408 44.1441 22.9163 44.1441 22.9163C44.1441 22.9163 44.5747 22.5939 44.7821 22.634C45.0213 22.6802 45.1851 22.7564 45.1851 22.7564Z" fill="white"/>
<path d="M44.0474 22.6508C43.734 22.7393 43.4882 22.9392 43.3306 23.1005C43.3537 23.2284 43.4084 23.3485 43.4897 23.4489C43.7032 23.4953 43.9876 23.5217 44.2708 23.4417C44.4987 23.3773 44.6904 23.2538 44.8391 23.1292C44.877 22.9572 44.8539 22.7844 44.7827 22.6346C44.575 22.5943 44.3111 22.5762 44.0474 22.6508Z" fill="#363E44"/>
<path d="M40.5034 22.5362C40.5034 22.5362 40.6263 22.7664 40.8604 22.9872C40.9899 23.1094 41.4277 23.072 41.4277 23.072C41.4277 23.072 41.8744 23.4107 42.0857 23.3894C42.3245 23.3655 42.4916 23.3061 42.4916 23.3061C42.4916 23.3061 42.4341 23.1983 42.3228 23.0596C42.1813 22.8832 41.5664 22.7612 41.5664 22.7612C41.5664 22.7612 41.1201 22.4316 40.9087 22.4529C40.6702 22.477 40.5034 22.5362 40.5034 22.5362Z" fill="white"/>
<path d="M42.3237 23.0606C42.1823 22.8841 41.9538 22.657 41.646 22.5377C41.3889 22.4382 41.1229 22.4319 40.9119 22.4528C40.8415 22.5986 40.8157 22.7673 40.8501 22.9383C40.8535 22.9554 40.8583 22.9719 40.8628 22.9885C40.9921 23.1101 41.1544 23.2287 41.3491 23.3042C41.6062 23.4037 41.8722 23.41 42.0833 23.389C42.1916 23.3029 42.2745 23.1892 42.3237 23.0606Z" fill="#363E44"/>
<path d="M42.8456 24.4474C42.8052 24.4474 42.7664 24.4247 42.7479 24.3858C42.7222 24.3318 42.745 24.2672 42.7989 24.2415C42.8861 24.1998 42.9389 24.154 42.9472 24.1126C42.9524 24.0872 42.9406 24.0617 42.9081 24.0007C42.8808 23.9492 42.8467 23.885 42.8233 23.7988C42.789 23.6723 42.7881 23.5376 42.8207 23.3982C42.8343 23.3399 42.8927 23.3038 42.9507 23.3174C43.0089 23.331 43.0451 23.3893 43.0315 23.4475C43.0072 23.5516 43.0074 23.6507 43.0322 23.7421C43.0493 23.8049 43.0746 23.8528 43.0993 23.8991C43.1392 23.9741 43.1803 24.0517 43.1593 24.1554C43.1365 24.2684 43.0466 24.3631 42.8921 24.4368C42.8771 24.444 42.8612 24.4474 42.8456 24.4474Z" fill="#363E44"/>
<path d="M42.6742 25.0075C42.5126 25.0075 42.3452 24.9233 42.2417 24.7879C42.1746 24.7002 42.1366 24.5947 42.1348 24.4909C42.1338 24.4311 42.1813 24.3818 42.2411 24.3808C42.2995 24.3801 42.3502 24.4273 42.3513 24.4871C42.3523 24.545 42.3745 24.6051 42.4137 24.6565C42.4795 24.7425 42.5906 24.7967 42.6883 24.7906C42.7465 24.7872 42.7991 24.8326 42.8027 24.8924C42.8062 24.9521 42.7607 25.0033 42.701 25.0068C42.6921 25.0072 42.6832 25.0075 42.6742 25.0075Z" fill="#BC8271"/>
<path d="M44.694 20.6829C44.6592 20.6829 44.6252 20.6662 44.6043 20.6353C44.4685 20.435 44.3066 20.2617 44.1231 20.1203C43.1036 19.3346 41.7103 19.7162 41.3074 19.8518C41.2505 19.8709 41.1893 19.8404 41.1703 19.7838C41.1512 19.7272 41.1816 19.6657 41.2382 19.6467C41.6668 19.5024 43.1508 19.0976 44.2552 19.9489C44.457 20.1044 44.6347 20.2945 44.7834 20.5139C44.817 20.5634 44.804 20.6307 44.7545 20.6643C44.736 20.6768 44.7148 20.6829 44.694 20.6829Z" fill="#D3BBA3"/>
<path d="M40.7485 20.8289C40.7112 20.8289 40.6749 20.8096 40.6548 20.775C40.6248 20.7233 40.6423 20.6571 40.694 20.627C41.1253 20.3764 42.6425 19.5996 44.0634 20.1298C44.3237 20.227 44.5666 20.3638 44.7854 20.5366C44.8323 20.5737 44.8403 20.6417 44.8033 20.6886C44.7662 20.7356 44.6982 20.7435 44.6513 20.7065C44.4502 20.5477 44.227 20.422 43.9878 20.3327C42.6563 19.8357 41.2133 20.5756 40.8029 20.8142C40.7857 20.8241 40.767 20.8289 40.7485 20.8289Z" fill="#D3BBA3"/>
<path d="M42.2357 37.0713L40.7427 38.5445C40.2446 39.0361 39.4422 39.0307 38.9507 38.5326C38.4591 38.0344 38.4644 37.2321 38.9626 36.7405L40.4555 35.2673C40.9537 34.7758 41.756 34.7811 42.2475 35.2793L42.2476 35.2793C42.7391 35.7774 42.7338 36.5797 42.2357 37.0713Z" fill="#E96C79"/>
<path d="M35.3518 58.9245C35.2948 58.9245 35.2471 58.8799 35.2438 58.8223L34.3469 42.9527C34.345 42.9208 34.3575 42.8897 34.3807 42.8678L40.596 37.0127C40.6395 36.9718 40.708 36.9738 40.749 37.0173C40.79 37.0609 40.788 37.1293 40.7444 37.1703L34.5659 42.9908L35.46 58.8101C35.4634 58.8698 35.4177 58.9209 35.358 58.9243C35.3559 58.9244 35.3539 58.9245 35.3518 58.9245Z" fill="#E96C79"/>
<path d="M46.4684 37.0637L47.9614 38.5369C48.4595 39.0285 49.2619 39.0231 49.7534 38.525C50.245 38.0269 50.2396 37.2245 49.7415 36.733L48.2486 35.2598C47.7504 34.7682 46.9481 34.7736 46.4565 35.2717L46.4565 35.2718C45.965 35.7699 45.9703 36.5722 46.4684 37.0637Z" fill="#E96C79"/>
<path d="M53.3525 58.9167C53.3504 58.9167 53.3484 58.9167 53.3463 58.9166C53.2866 58.9132 53.2409 58.8621 53.2443 58.8024L54.1384 42.9831L47.9598 37.1626C47.9163 37.1216 47.9143 37.0531 47.9552 37.0096C47.9963 36.9661 48.0648 36.9641 48.1082 37.005L54.3236 42.8601C54.3468 42.882 54.3593 42.913 54.3574 42.945L53.4605 58.8146C53.4572 58.8722 53.4095 58.9167 53.3525 58.9167Z" fill="#E96C79"/>
<path d="M58.9172 47.7497H30.5625V96.9798H58.9172V47.7497Z" fill="#DE7E88"/>
<path d="M60.0336 46.6226H29.1113V50.3175H60.0336V46.6226Z" fill="#D3BBA3"/>
<path d="M59.222 50.7505H28.2997C28.2399 50.7505 28.1914 50.7021 28.1914 50.6423V46.9474C28.1914 46.8876 28.2399 46.8391 28.2997 46.8391H59.222C59.2818 46.8391 59.3302 46.8876 59.3302 46.9474V50.6423C59.3302 50.702 59.2818 50.7505 59.222 50.7505ZM28.4079 50.534H59.1137V47.0556H28.4079V50.534Z" fill="#363E44"/>
<path d="M30.4769 64.8324C30.4171 64.8324 30.3687 64.7839 30.3687 64.7241V50.6527C30.3687 50.593 30.4171 50.5445 30.4769 50.5445C30.5367 50.5445 30.5852 50.593 30.5852 50.6527V64.7241C30.5852 64.7838 30.5367 64.8324 30.4769 64.8324Z" fill="#363E44"/>
<path d="M58.9446 66.5101C58.885 66.5101 58.8366 66.4619 58.8363 66.4022L58.7822 50.6531C58.782 50.5933 58.8303 50.5447 58.8901 50.5445C58.9513 50.5442 58.9984 50.5926 58.9987 50.6524L59.0528 66.4015C59.053 66.4613 59.0047 66.5099 58.9449 66.5101C58.9448 66.5101 58.9447 66.5101 58.9446 66.5101Z" fill="#363E44"/>
<path d="M50.9675 91.9831L62.6918 91.321L62.2156 82.9296L50.1343 84.8637L50.9675 91.9831Z" fill="#ECD0C8"/>
<path d="M82.6426 87.73C80.9113 86.192 76.4914 82.2773 69.9186 81.6192C64.7747 81.1043 59.2399 82.3541 56.7998 83.1278C56.8593 86.2225 56.9784 89.4958 57.0379 92.5905C58.2281 92.7691 58.853 92.8583 60.0987 93.046V104.83L78.9023 104.844L78.9186 95.89L81.0116 96.6674L82.6426 87.73Z" fill="#003C84"/>
<path d="M60.0854 93.1336C60.0259 93.1336 59.9774 93.0855 59.9772 93.0259C59.9728 92.1098 59.9651 91.6481 59.9554 91.0636C59.9507 90.7843 59.9457 90.4803 59.9404 90.0887C59.9397 90.0289 59.9874 89.9798 60.0472 89.979C60.1052 89.98 60.1561 90.026 60.1569 90.0858C60.1622 90.477 60.1672 90.7808 60.1719 91.06C60.1816 91.6452 60.1892 92.1075 60.1937 93.0248C60.194 93.0846 60.1457 93.1333 60.086 93.1336C60.0858 93.1336 60.0856 93.1336 60.0854 93.1336Z" fill="#363E44"/>
<path d="M52.3121 91.8164C52.9283 84.2695 53.0787 78.883 53.5212 75.5573C53.7199 74.0644 54.2036 72.6078 53.5594 71.3107C53.2738 70.7355 52.8469 70.1704 52.4463 70.4226C51.8208 70.8164 52.6719 72.4899 52.1533 72.7968C51.6321 73.1051 50.9182 71.886 50.5996 71.0405C50.3849 70.4709 50.042 69.8271 49.4796 69.9282C48.6803 70.0718 48.9391 71.2486 48.9473 71.3281C48.5564 71.0832 48.0938 71.0923 47.847 71.3143C47.5175 71.6107 47.5163 72.3371 48.0694 72.7759C47.9916 72.7344 47.4112 72.4321 47.1496 72.6438C46.893 72.8515 46.9573 73.542 47.4903 74.2861C47.0181 74.0656 46.634 74.0784 46.5077 74.2248C46.1536 74.6351 46.4304 75.6074 47.9199 77.398C47.7366 78.4639 46.8453 82.6955 46.1471 85.9782C45.3931 89.5226 48.5671 92.6897 52.0966 91.8686C52.1677 91.852 52.2395 91.8346 52.3121 91.8164Z" fill="#ECD0C8"/>
<path d="M52.5317 89.0731C52.529 89.0731 52.5264 89.073 52.5238 89.0728C52.4642 89.0685 52.4193 89.0166 52.4236 88.957C52.4808 88.1709 52.5323 87.1618 52.5822 86.1859C52.6177 85.4903 52.6513 84.8333 52.6835 84.33C52.6874 84.2704 52.7392 84.2254 52.7985 84.2289C52.8581 84.2327 52.9034 84.2842 52.8995 84.3438C52.8675 84.8457 52.8339 85.5021 52.7984 86.1969C52.7485 87.1739 52.6968 88.1842 52.6396 88.9727C52.6354 89.0296 52.5879 89.0731 52.5317 89.0731Z" fill="#363E44"/>
<path d="M50.2812 78.0245C50.2764 78.0245 50.2715 78.0242 50.2666 78.0236C50.2074 78.0156 50.1658 77.9611 50.1737 77.9019C50.2063 77.6591 50.2216 77.1775 49.9581 76.679C49.649 76.0944 49.1357 75.8337 48.9293 75.7486C48.8741 75.7259 48.8477 75.6626 48.8705 75.6073C48.8933 75.5521 48.9566 75.5257 49.0118 75.5485C49.2951 75.6652 49.8198 75.9541 50.1495 76.5779C50.4412 77.1297 50.4243 77.6623 50.3883 77.9306C50.381 77.985 50.3346 78.0245 50.2812 78.0245Z" fill="#363E44"/>
<path d="M47.5001 77.3411C48.2121 77.9157 49.3066 77.7405 49.9448 76.9498L55.0336 70.4905L52.5305 68.4703L47.3664 74.8689C46.7282 75.6596 46.7881 76.7664 47.5001 77.3411Z" fill="#84524D"/>
<path d="M40.7558 60.0996C40.7258 60.0996 40.6959 60.0872 40.6745 60.0629C39.818 59.0908 39.7749 57.682 40.5719 56.7132C41.3406 55.7791 42.6966 55.5305 43.7961 56.1222C43.8488 56.1505 43.8685 56.2161 43.8402 56.2688C43.8118 56.3213 43.7462 56.3411 43.6936 56.3128C42.6847 55.77 41.4421 55.9962 40.7391 56.8507C40.0099 57.7371 40.051 59.0278 40.837 59.9198C40.8764 59.9646 40.8722 60.033 40.8273 60.0725C40.8068 60.0907 40.7812 60.0996 40.7558 60.0996Z" fill="#363E44"/>
<path d="M55.132 65.3214L51.8246 69.3417L38.5088 63.3872L46.7231 53.4027L55.132 65.3214Z" fill="#E96C79"/>
<path d="M51.8299 69.3411L54.5103 71.5462L57.8089 67.5368L55.1286 65.3316L51.8299 69.3411Z" fill="#BD3644"/>
<path d="M52.7263 69.1392L54.6328 70.7076L55.2139 70.0013L53.3074 68.4329L52.7263 69.1392Z" fill="#E96C79"/>
<path d="M53.6243 68.048L55.5308 69.6165L56.1118 68.9102L54.2054 67.3417L53.6243 68.048Z" fill="#E96C79"/>
<path d="M54.5222 66.9568L56.4287 68.5253L57.0098 67.819L55.1033 66.2505L54.5222 66.9568Z" fill="#E96C79"/>
<path d="M49.4396 71.6997C50.2044 72.2903 50.4563 73.0229 50.2598 73.2861C50.0797 73.5275 49.4219 73.5096 48.7248 73.1181C48.7152 73.1127 48.7069 73.125 48.7155 73.1321C49.45 73.7455 49.7502 74.4093 49.5781 74.6549C49.4213 74.8789 48.8111 74.842 48.1136 74.5273C48.1034 74.5227 48.0962 74.5363 48.1057 74.5422C48.7341 74.9403 49.0339 75.4287 48.9274 75.6464C48.8147 75.8772 48.0335 76.1016 46.8735 75.29L49.4396 71.6997Z" fill="#ECD0C8"/>
<path d="M53.5213 75.5564C53.8246 73.8687 54.158 72.5423 53.5595 71.3098C53.3766 70.9333 53.0687 70.4599 52.6945 70.4714C51.9504 70.4944 52.2766 71.6334 52.1755 72.4416C52.0813 73.1948 51.5515 73.5505 51.1852 74.2301C50.897 74.7646 50.6175 75.6285 50.8168 76.9913C51.7183 76.5129 52.6198 76.0347 53.5213 75.5564Z" fill="#ECD0C8"/>
<path d="M77.0341 98.0072H79.1318V63.7884H77.0341V98.0072Z" fill="#84524D"/>
<path d="M86.0305 65.7588C90.4298 61.3595 90.4298 54.2269 86.0305 49.8276C81.6313 45.4283 74.4986 45.4283 70.0994 49.8276C65.7001 54.2269 65.7001 61.3595 70.0994 65.7588C74.4986 70.158 81.6313 70.158 86.0305 65.7588Z" fill="#E96C79"/>
<path d="M84.6922 64.3664C88.3371 60.7215 88.3371 54.8119 84.6922 51.167C81.0473 47.5221 75.1377 47.5221 71.4928 51.167C67.8479 54.8119 67.8479 60.7215 71.4928 64.3664C75.1377 68.0113 81.0473 68.0113 84.6922 64.3664Z" fill="#F7F1EB"/>
<path d="M80.2334 58.2107C81.5087 56.9354 81.5087 54.8678 80.2334 53.5925C78.9581 52.3172 76.8905 52.3172 75.6152 53.5925C74.34 54.8678 74.34 56.9354 75.6152 58.2107C76.8905 59.4859 78.9581 59.4859 80.2334 58.2107Z" fill="#363E44"/>
<path d="M70.8584 63.6614C72.5699 65.7592 75.1747 67.0995 78.0933 67.0995C81.0461 67.0995 83.6769 65.7268 85.3871 63.5864C85.4096 63.5371 85.4328 63.4883 85.4539 63.4381C82.7871 60.6534 76.6191 57.9322 70.8584 63.6614Z" fill="#363E44"/>
<path d="M85.4858 50.8249L84.021 49.6357L71.1799 65.4533L72.6447 66.6425L85.4858 50.8249Z" fill="#E96C79"/>
<path d="M75.1655 84.193C76.6464 85.0913 78.4208 85.4575 80.1262 85.3988C80.8092 85.3753 81.5008 85.2605 82.1713 85.1115C82.4857 84.9523 82.4588 84.4822 82.442 84.2093C82.4305 84.0245 81.7536 82.3247 81.5406 81.9313C80.7912 80.5477 80.0817 80.9698 78.8294 79.6509C77.4084 78.1544 77.4555 76.5073 76.9295 76.5386C76.5636 76.5603 76.3709 77.1766 76.4675 78.4746L76.4674 78.4747C76.2805 77.497 76.3229 76.2655 75.7829 76.3703C75.1658 76.5246 74.9966 78.0291 75.155 78.9841C74.9632 77.8281 74.8679 77.3728 74.5593 77.441C74.0895 77.5448 73.8764 78.5172 74.0306 80.0634L74.0305 80.0634C73.8655 79.0416 73.2974 80.0686 73.2974 80.7023C73.2974 81.1827 73.7043 82.1772 73.8436 82.4067C74.4997 83.4874 74.6631 83.7216 75.1655 84.193Z" fill="#ECD0C8"/>
<path d="M79.0821 81.0136C78.968 79.1749 78.9183 78.2276 79.0821 78.2113C79.6239 78.1571 80.8595 79.8475 81.8408 82.6907C81.04 82.3572 79.883 81.3472 79.0821 81.0136Z" fill="#ECD0C8"/>
<path d="M77.3789 80.2029C77.3487 80.2029 77.3188 80.1904 77.2975 80.166C77.1292 79.9739 76.9782 79.7655 76.8487 79.5466C76.6607 79.2291 76.5156 78.8864 76.4175 78.5282C76.4016 78.4705 76.4356 78.411 76.4933 78.3952C76.5508 78.3792 76.6104 78.4133 76.6262 78.471C76.7193 78.8105 76.8568 79.1354 77.035 79.4364C77.1578 79.6438 77.3008 79.8413 77.4602 80.0233C77.4997 80.0683 77.4951 80.1366 77.4501 80.176C77.4297 80.1941 77.4042 80.2029 77.3789 80.2029Z" fill="#363E44"/>
<path d="M76.0469 80.562C76.0167 80.562 75.9868 80.5494 75.9654 80.525C75.7971 80.3329 75.6462 80.1246 75.5167 79.9057C75.3286 79.588 75.1835 79.2453 75.0854 78.8872C75.0696 78.8296 75.1035 78.77 75.1612 78.7542C75.2187 78.7383 75.2784 78.7723 75.2942 78.83C75.3872 79.1694 75.5248 79.4942 75.703 79.7955C75.8257 80.0028 75.9688 80.2003 76.1283 80.3824C76.1676 80.4273 76.1631 80.4957 76.1181 80.5351C76.0976 80.5532 76.0721 80.562 76.0469 80.562Z" fill="#363E44"/>
<path d="M74.9057 81.792C74.8756 81.792 74.8457 81.7795 74.8243 81.7551C74.6561 81.5631 74.5052 81.3547 74.3756 81.1358C74.1876 80.8181 74.0424 80.4755 73.9443 80.1172C73.9285 80.0596 73.9624 80 74.0201 79.9842C74.0778 79.9682 74.1373 80.0024 74.1531 80.06C74.2462 80.3996 74.3837 80.7244 74.5619 81.0255C74.6847 81.233 74.8278 81.4305 74.9871 81.6124C75.0265 81.6574 75.022 81.7258 74.977 81.7651C74.9565 81.7832 74.9311 81.792 74.9057 81.792Z" fill="#363E44"/>
<path d="M86.2877 92.0491L81.0208 81.1804L74.7944 83.2874L79.1638 95.3543C81.2726 99.5163 85.031 98.1178 85.031 98.1178C86.9973 97.18 87.2377 94.0095 86.2877 92.0491Z" fill="#ECD0C8"/>
<path d="M69.0928 84.5583L69.0912 84.5584C67.8048 84.6441 66.691 83.6739 66.5994 82.3879L66.2311 77.2183C66.1392 75.9282 67.1105 74.8079 68.4005 74.7158C69.6906 74.6237 70.8111 75.5947 70.9034 76.8848L71.2732 82.0543C71.3658 83.3489 70.3878 84.472 69.0928 84.5583Z" fill="#ECD0C8"/>
<path d="M70.8644 71.1556C70.7015 71.0578 69.1269 70.1452 67.6077 70.7964C66.4772 71.281 65.8806 72.3091 65.1406 74.1847C64.2691 76.3934 64.0568 77.8356 64.472 78.5506C65.128 79.6804 68.7535 79.5738 70.7379 78.2267C72.1703 77.2543 72.9055 75.4746 72.7029 73.743C72.5008 72.0162 70.9684 71.218 70.8644 71.1556Z" fill="#ECD0C8"/>
<path d="M66.7939 79.4328C66.6757 79.4328 66.5588 79.4299 66.4435 79.4239C66.3838 79.4209 66.3379 79.37 66.341 79.3103C66.3441 79.2505 66.3957 79.2051 66.4546 79.2077C67.4353 79.2581 68.542 79.0854 69.4909 78.7339C69.5468 78.7131 69.6093 78.7418 69.6301 78.7978C69.6508 78.8539 69.6222 78.9162 69.5661 78.9369C68.7021 79.2569 67.7103 79.4328 66.7939 79.4328Z" fill="#363E44"/>
<path d="M69.3162 74.9261C69.3162 74.9261 68.8472 75.3627 68.1896 75.5337C68.0513 75.5697 67.9046 75.5939 67.7522 75.5998C66.8753 75.6337 66.8279 74.4095 67.7048 74.3756C67.9229 74.3671 68.1322 74.3969 68.3236 74.4465C68.3618 74.4564 68.3993 74.4671 68.436 74.4784C68.4757 74.4906 68.5144 74.5036 68.5521 74.5172C69.0078 74.6807 69.3162 74.9261 69.3162 74.9261Z" fill="white"/>
<path d="M66.1406 75.0493C66.1406 75.0493 66.8278 74.4097 67.7047 74.3757C67.9234 74.3672 68.1333 74.3973 68.3251 74.4471C68.4476 74.7623 68.431 75.1281 68.2471 75.4426C68.2287 75.4742 68.2086 75.5043 68.1877 75.5334C68.0497 75.5691 67.9041 75.594 67.7522 75.5999C66.8753 75.6339 66.1406 75.0493 66.1406 75.0493Z" fill="#363E44"/>
<path d="M64.9242 75.7653C64.8756 75.7653 64.8315 75.7324 64.8192 75.6831C64.7653 75.4655 64.7847 75.3098 64.8787 75.2071C64.9479 75.1315 65.0299 75.1156 65.1091 75.1002C65.1575 75.0908 65.2077 75.081 65.2646 75.0566C65.3665 75.0129 65.456 74.9363 65.5307 74.8289C65.5648 74.7798 65.6324 74.7676 65.6814 74.8018C65.7305 74.8359 65.7426 74.9034 65.7085 74.9525C65.6103 75.0937 65.4896 75.1957 65.3499 75.2556C65.2718 75.289 65.2045 75.3021 65.1504 75.3127C65.083 75.3258 65.0577 75.3322 65.0384 75.3532C64.9989 75.3965 64.9957 75.4951 65.0294 75.631C65.0438 75.689 65.0084 75.7477 64.9504 75.762C64.9416 75.7643 64.9329 75.7653 64.9242 75.7653Z" fill="#363E44"/>
<path d="M65.6724 77.7814C65.6255 77.7814 65.5823 77.7507 65.5685 77.7034C65.5519 77.646 65.5849 77.5859 65.6422 77.5692C65.7537 77.5368 65.91 77.466 66.0212 77.3121C66.1508 77.1334 66.1789 76.9132 66.1552 76.8475C66.1335 76.8562 66.099 76.8756 66.0722 76.8907C65.9657 76.9507 65.8035 77.0418 65.5848 77.0333C65.4112 77.0272 65.2371 76.9802 65.0815 76.8976C65.0286 76.8695 65.0086 76.804 65.0366 76.7512C65.0647 76.6984 65.1302 76.6783 65.1829 76.7063C65.3099 76.7737 65.4515 76.812 65.5926 76.817C65.7521 76.8222 65.8706 76.7558 65.9661 76.702C66.0616 76.6483 66.1701 76.5873 66.274 76.6587C66.3094 76.683 66.3552 76.7323 66.3719 76.8287C66.4016 77.001 66.3279 77.2578 66.1967 77.4391C66.0493 77.6426 65.8467 77.7353 65.7027 77.7771C65.6926 77.78 65.6825 77.7814 65.6724 77.7814Z" fill="#363E44"/>
<path d="M71.8766 77.7318C72.5641 77.3231 72.8334 76.5071 72.478 75.9092C72.1226 75.3114 71.2771 75.1581 70.5896 75.5668C69.9021 75.9755 69.6328 76.7915 69.9882 77.3893C70.3436 77.9871 71.1891 78.1405 71.8766 77.7318Z" fill="#ECD0C8"/>
<path d="M70.9777 78.0698C70.9757 78.0698 70.9736 78.0697 70.9715 78.0696C70.505 78.0431 70.1118 77.8165 69.8927 77.4477C69.8621 77.3963 69.879 77.3299 69.9304 77.2994C69.9818 77.2689 70.0482 77.2857 70.0787 77.3371C70.2605 77.6429 70.5904 77.8312 70.9838 77.8535C71.0434 77.8568 71.0891 77.9079 71.0857 77.9676C71.0824 78.0252 71.0347 78.0698 70.9777 78.0698Z" fill="#363E44"/>
<path d="M72.4126 75.9259C72.3795 75.9259 72.3469 75.9107 72.3256 75.8822C71.9732 75.4077 71.234 75.3113 70.6425 75.6628C70.591 75.6934 70.5247 75.6764 70.4942 75.6251C70.4637 75.5737 70.4805 75.5072 70.532 75.4767C71.2289 75.0624 72.0748 75.1812 72.4994 75.7531C72.5351 75.8011 72.5251 75.8689 72.4771 75.9045C72.4576 75.9189 72.435 75.9259 72.4126 75.9259Z" fill="#363E44"/>
<path d="M71.6246 77.2084C71.5876 77.2084 71.5517 77.1895 71.5315 77.1555C71.5009 77.1041 71.5178 77.0377 71.5692 77.0071C71.6973 76.931 71.7915 76.817 71.8348 76.686C71.8762 76.5605 71.8652 76.4343 71.8036 76.3308C71.727 76.2019 71.5801 76.1252 71.4103 76.1252C71.4096 76.1252 71.4087 76.1252 71.4081 76.1252C71.3485 76.1252 71.3 76.077 71.2998 76.0173C71.2996 75.9576 71.3479 75.9089 71.4077 75.9088C71.6545 75.9101 71.8733 76.0243 71.9897 76.2202C72.0837 76.3784 72.1017 76.5679 72.0403 76.7539C71.9807 76.9345 71.8527 77.0905 71.6798 77.1933C71.6625 77.2035 71.6434 77.2084 71.6246 77.2084Z" fill="#363E44"/>
<path d="M70.8932 73.7848C69.1276 71.9399 66.9845 71.8723 66.3644 71.7807C66.0208 70.9521 66.1799 70.4065 66.2523 70.2118C66.6661 69.0992 68.4018 68.285 70.4153 68.7383C70.2578 68.7573 69.5076 69.0633 69.4012 69.2818C70.1311 68.9201 70.7402 68.9988 71.0485 69.0352C72.4619 69.2021 73.6774 70.4968 74.0742 72.3858C74.0206 72.2742 73.6987 71.7975 73.3402 71.6406C73.5347 71.8737 73.7285 72.1575 73.8893 72.4979C74.5885 73.9784 74.1621 75.4713 73.9845 75.9942C73.7552 75.612 72.8138 74.0847 70.8932 73.7848Z" fill="#84524D"/>
<path d="M68.3553 72.0619C68.3242 72.0619 68.2941 72.0485 68.2732 72.0242C68.2455 71.9919 68.2392 71.9465 68.2572 71.908C68.3796 71.6447 68.6186 71.2728 69.062 70.996C69.4678 70.7427 69.8695 70.6811 70.135 70.674C70.1974 70.6714 70.2446 70.7196 70.2461 70.7794C70.2477 70.8391 70.2006 70.8889 70.1409 70.8905C69.9022 70.8968 69.5412 70.9522 69.1766 71.1797C68.8852 71.3616 68.6931 71.5929 68.5727 71.7822C68.9502 71.6868 69.3356 71.6226 69.7218 71.5911C70.0985 71.5602 70.4815 71.5603 70.8599 71.591C70.9194 71.5959 70.9639 71.6481 70.959 71.7077C70.9541 71.7673 70.9022 71.8115 70.8424 71.8068C70.4756 71.777 70.1044 71.777 69.7394 71.8068C69.2829 71.8441 68.8275 71.9284 68.3858 72.0575C68.3756 72.0605 68.3655 72.0619 68.3553 72.0619Z" fill="#363E44"/>
<path d="M82.0135 31.703H59.9334C59.8736 31.703 59.8252 31.6545 59.8252 31.5947V20.717C59.8252 20.6573 59.8736 20.6088 59.9334 20.6088H82.0135C82.0733 20.6088 82.1218 20.6573 82.1218 20.717V31.5947C82.1217 31.6545 82.0733 31.703 82.0135 31.703ZM60.0416 31.4865H81.9053V20.8252H60.0416V31.4865Z" fill="#DE7E88"/>
<path d="M79.6539 22.9328H75.2127C75.153 22.9328 75.1045 22.8844 75.1045 22.8246C75.1045 22.7648 75.153 22.7163 75.2127 22.7163H79.6539C79.7137 22.7163 79.7622 22.7648 79.7622 22.8246C79.7622 22.8843 79.7137 22.9328 79.6539 22.9328Z" fill="#DE7E88"/>
<path d="M72.6138 22.9328H62.7196C62.6598 22.9328 62.6113 22.8844 62.6113 22.8246C62.6113 22.7648 62.6598 22.7163 62.7196 22.7163H72.6138C72.6736 22.7163 72.7221 22.7648 72.7221 22.8246C72.7221 22.8843 72.6736 22.9328 72.6138 22.9328Z" fill="#DE7E88"/>
<path d="M79.6541 24.242H68.0296C67.9698 24.242 67.9214 24.1936 67.9214 24.1338C67.9214 24.074 67.9698 24.0255 68.0296 24.0255H79.6541C79.7139 24.0255 79.7623 24.074 79.7623 24.1338C79.7623 24.1935 79.7139 24.242 79.6541 24.242Z" fill="#DE7E88"/>
<path d="M66.6472 24.242H62.7196C62.6598 24.242 62.6113 24.1936 62.6113 24.1338C62.6113 24.074 62.6598 24.0255 62.7196 24.0255H66.6472C66.707 24.0255 66.7554 24.074 66.7554 24.1338C66.7554 24.1935 66.707 24.242 66.6472 24.242Z" fill="#DE7E88"/>
<path d="M79.6544 25.4691H75.2132C75.1534 25.4691 75.105 25.4206 75.105 25.3608C75.105 25.301 75.1534 25.2526 75.2132 25.2526H79.6544C79.7142 25.2526 79.7626 25.301 79.7626 25.3608C79.7626 25.4206 79.7142 25.4691 79.6544 25.4691Z" fill="#DE7E88"/>
<path d="M72.6138 25.4691H62.7196C62.6598 25.4691 62.6113 25.4206 62.6113 25.3608C62.6113 25.301 62.6598 25.2526 62.7196 25.2526H72.6138C72.6736 25.2526 72.7221 25.301 72.7221 25.3608C72.7221 25.4206 72.6736 25.4691 72.6138 25.4691Z" fill="#DE7E88"/>
<path d="M79.6541 26.7776H71.2787C71.2189 26.7776 71.1704 26.7291 71.1704 26.6693C71.1704 26.6096 71.2189 26.5611 71.2787 26.5611H79.6541C79.7139 26.5611 79.7624 26.6096 79.7624 26.6693C79.7624 26.7291 79.7139 26.7776 79.6541 26.7776Z" fill="#DE7E88"/>
<path d="M69.2464 26.7776H62.7196C62.6598 26.7776 62.6113 26.7291 62.6113 26.6693C62.6113 26.6096 62.6598 26.5611 62.7196 26.5611H69.2464C69.3062 26.5611 69.3546 26.6096 69.3546 26.6693C69.3546 26.7291 69.3061 26.7776 69.2464 26.7776Z" fill="#DE7E88"/>
<path d="M72.6138 28.6596H62.7196C62.6598 28.6596 62.6113 28.6112 62.6113 28.5514C62.6113 28.4916 62.6598 28.4431 62.7196 28.4431H72.6138C72.6736 28.4431 72.7221 28.4916 72.7221 28.5514C72.7221 28.6112 72.6736 28.6596 72.6138 28.6596Z" fill="#DE7E88"/>
<path d="M68.5966 29.9682H62.7196C62.6598 29.9682 62.6113 29.9198 62.6113 29.86C62.6113 29.8002 62.6598 29.7517 62.7196 29.7517H68.5966C68.6564 29.7517 68.7048 29.8002 68.7048 29.86C68.7048 29.9198 68.6564 29.9682 68.5966 29.9682Z" fill="#DE7E88"/>
<path d="M74.5979 17.6118H53.6592V26.9025H74.5979V17.6118Z" fill="#DE7E88"/>
<path d="M72.2258 20.155H68.0106C67.9508 20.155 67.9023 20.1065 67.9023 20.0467C67.9023 19.9869 67.9508 19.9385 68.0106 19.9385H72.2258C72.2856 19.9385 72.334 19.9869 72.334 20.0467C72.334 20.1065 72.2856 20.155 72.2258 20.155Z" fill="white"/>
<path d="M65.5439 20.155H56.1532C56.0934 20.155 56.0449 20.1065 56.0449 20.0467C56.0449 19.9869 56.0934 19.9385 56.1532 19.9385H65.5438C65.6036 19.9385 65.6521 19.9869 65.6521 20.0467C65.6521 20.1065 65.6036 20.155 65.5439 20.155Z" fill="white"/>
<path d="M72.2261 21.142H61.1932C61.1334 21.142 61.085 21.0935 61.085 21.0337C61.085 20.9739 61.1334 20.9255 61.1932 20.9255H72.2261C72.2859 20.9255 72.3343 20.9739 72.3343 21.0337C72.3343 21.0935 72.2859 21.142 72.2261 21.142Z" fill="white"/>
<path d="M59.8809 21.142H56.1532C56.0934 21.142 56.0449 21.0935 56.0449 21.0337C56.0449 20.9739 56.0934 20.9255 56.1532 20.9255H59.8809C59.9407 20.9255 59.9892 20.9739 59.9892 21.0337C59.9892 21.0935 59.9407 21.142 59.8809 21.142Z" fill="white"/>
<path d="M72.2258 22.0672H68.0106C67.9508 22.0672 67.9023 22.0188 67.9023 21.959C67.9023 21.8992 67.9508 21.8507 68.0106 21.8507H72.2258C72.2856 21.8507 72.334 21.8992 72.334 21.959C72.334 22.0188 72.2856 22.0672 72.2258 22.0672Z" fill="white"/>
<path d="M65.5439 22.0672H56.1532C56.0934 22.0672 56.0449 22.0188 56.0449 21.959C56.0449 21.8992 56.0934 21.8507 56.1532 21.8507H65.5438C65.6036 21.8507 65.6521 21.8992 65.6521 21.959C65.6521 22.0188 65.6036 22.0672 65.5439 22.0672Z" fill="white"/>
<path d="M72.226 23.0534H64.2767C64.2169 23.0534 64.1685 23.005 64.1685 22.9452C64.1685 22.8854 64.2169 22.8369 64.2767 22.8369H72.226C72.2858 22.8369 72.3343 22.8854 72.3343 22.9452C72.3343 23.005 72.2858 23.0534 72.226 23.0534Z" fill="white"/>
<path d="M62.3478 23.0534H56.1532C56.0934 23.0534 56.0449 23.005 56.0449 22.9452C56.0449 22.8854 56.0934 22.8369 56.1532 22.8369H62.3478C62.4076 22.8369 62.456 22.8854 62.456 22.9452C62.456 23.005 62.4076 23.0534 62.3478 23.0534Z" fill="white"/>
<path d="M65.5439 24.472H56.1532C56.0934 24.472 56.0449 24.4235 56.0449 24.3637C56.0449 24.3039 56.0934 24.2555 56.1532 24.2555H65.5438C65.6036 24.2555 65.6521 24.3039 65.6521 24.3637C65.6521 24.4235 65.6036 24.472 65.5439 24.472Z" fill="white"/>
<path d="M61.7311 25.459H56.1532C56.0934 25.459 56.0449 25.4106 56.0449 25.3508C56.0449 25.291 56.0934 25.2425 56.1532 25.2425H61.731C61.7908 25.2425 61.8393 25.291 61.8393 25.3508C61.8393 25.4106 61.7908 25.459 61.7311 25.459Z" fill="white"/>
<path d="M53.6592 26.9028L51.1147 27.1321L53.8027 24.0833L53.6592 26.9028Z" fill="#DE7E88"/>
<path d="M75.1067 27.5465H54.168L51.4747 27.5285C51.4327 27.5282 51.3946 27.5036 51.377 27.4654C51.3595 27.4272 51.3657 27.3823 51.3929 27.3502L54.0597 24.2054V18.2282C54.0597 18.1684 54.1082 18.12 54.168 18.12H75.1067C75.1665 18.12 75.2149 18.1684 75.2149 18.2282V27.4382C75.2149 27.498 75.1665 27.5465 75.1067 27.5465ZM51.7078 27.3135L54.1687 27.33H74.9984V18.3365H54.2762V24.2451C54.2762 24.2707 54.2672 24.2956 54.2506 24.3151L51.7078 27.3135Z" fill="white"/>
<path d="M10.6889 83.3136L12.0327 83.1215L9.81677 67.6193L8.47296 67.8114L10.6889 83.3136Z" fill="#DE7E88"/>
<path d="M2.06685 69.1549L16.2607 67.126L15.1456 59.3248L0.951719 61.3538L2.06685 69.1549Z" fill="#DE7E88"/>
<path d="M27.8254 79.8362L29.0591 79.27L19.8226 59.1451L18.5889 59.7113L27.8254 79.8362Z" fill="#DE7E88"/>
<path d="M12.3658 64.1646C12.3248 64.1646 12.2856 64.1412 12.2673 64.1015L8.26817 55.388C8.25619 55.3619 8.25506 55.3321 8.26508 55.3052C8.27504 55.2783 8.29532 55.2564 8.32144 55.2445L23.0496 48.4849C23.1036 48.4599 23.1682 48.4837 23.1931 48.5381L27.1922 57.2516C27.2042 57.2777 27.2053 57.3075 27.1953 57.3344C27.1854 57.3613 27.1651 57.3832 27.139 57.3952L12.4108 64.1548C12.3963 64.1614 12.3809 64.1646 12.3658 64.1646ZM8.5101 55.3961L12.4189 63.9128L26.9503 57.2435L23.0415 48.7267L8.5101 55.3961Z" fill="#D3BBA3"/>
<path d="M12.8283 62.8203L25.8594 56.8396L22.5723 49.6776L9.54128 55.6582L12.8283 62.8203Z" fill="#D3BBA3"/>
<path d="M21.5248 57.1615C21.4838 57.1615 21.4446 57.1381 21.4264 57.0984C21.4015 57.0441 21.4253 56.9798 21.4796 56.9549L24.0082 55.7943C24.0622 55.7694 24.1268 55.7932 24.1517 55.8475C24.1766 55.9019 24.1528 55.9661 24.0985 55.9911L21.5699 57.1516C21.5553 57.1583 21.54 57.1615 21.5248 57.1615Z" fill="white"/>
<path d="M13.4628 60.8609C13.4218 60.8609 13.3826 60.8374 13.3644 60.7977C13.3395 60.7434 13.3633 60.6791 13.4176 60.6542L20.5923 57.3613C20.6464 57.3364 20.7109 57.3602 20.7358 57.4145C20.7607 57.4689 20.7369 57.5331 20.6825 57.5581L13.5079 60.851C13.4933 60.8577 13.4779 60.8609 13.4628 60.8609Z" fill="white"/>
<path d="M11.4955 56.6762C11.4546 56.6762 11.4153 56.6528 11.3971 56.6131C11.3722 56.5588 11.396 56.4945 11.4503 56.4696L14.0688 55.2678C14.1228 55.2429 14.1874 55.2667 14.2123 55.321C14.2372 55.3754 14.2134 55.4396 14.159 55.4646L11.5406 56.6663C11.526 56.673 11.5107 56.6762 11.4955 56.6762Z" fill="white"/>
<path d="M14.9697 55.082C14.9287 55.082 14.8894 55.0585 14.8712 55.0188C14.8463 54.9645 14.8701 54.9002 14.9244 54.8753L20.0578 52.5193C20.1117 52.4944 20.1763 52.5182 20.2013 52.5725C20.2262 52.6269 20.2024 52.6911 20.148 52.7161L15.0147 55.072C15.0001 55.0788 14.9848 55.082 14.9697 55.082Z" fill="white"/>
<path d="M12.0732 58.138C12.0325 58.138 11.9934 58.1149 11.9751 58.0756C11.9497 58.0214 11.9731 57.957 12.0273 57.9317L19.072 54.6366C19.1262 54.6113 19.1907 54.6346 19.216 54.6888C19.2413 54.7429 19.2179 54.8073 19.1638 54.8327L12.119 58.1277C12.1041 58.1347 12.0885 58.138 12.0732 58.138Z" fill="white"/>
<path d="M19.8446 54.5036C19.8039 54.5036 19.765 54.4806 19.7466 54.4412C19.7212 54.3871 19.7446 54.3227 19.7987 54.2974L22.6718 52.9535C22.7261 52.9282 22.7905 52.9516 22.8158 53.0057C22.8411 53.0599 22.8177 53.1243 22.7636 53.1496L19.8905 54.4935C19.8756 54.5004 19.86 54.5036 19.8446 54.5036Z" fill="white"/>
<path d="M12.7841 59.5854C12.7434 59.5854 12.7044 59.5624 12.686 59.523C12.6607 59.4689 12.684 59.4045 12.7382 59.3792L17.1549 57.3132C17.2092 57.2878 17.2736 57.3112 17.2989 57.3654C17.3242 57.4195 17.3009 57.4839 17.2467 57.5092L12.8299 59.5752C12.8151 59.5822 12.7995 59.5854 12.7841 59.5854Z" fill="white"/>
<path d="M18.0849 57.1062C18.0442 57.1062 18.0051 57.0832 17.9868 57.0438C17.9615 56.9897 17.9848 56.9253 18.039 56.8999L23.344 54.4184C23.3983 54.3931 23.4626 54.4165 23.4879 54.4706C23.5132 54.5248 23.4898 54.5892 23.4357 54.6145L18.1307 57.096C18.1158 57.1029 18.1002 57.1062 18.0849 57.1062Z" fill="white"/>
<path d="M36.7149 104.99L32.2931 79.4959L30.2344 79.8428L34.5943 104.99H36.7149Z" fill="#D3BBA3"/>
<path d="M19.2691 84.002C19.2174 84.002 19.1717 83.9648 19.1626 83.9122L16.6427 69.3725C16.6378 69.3442 16.6443 69.3152 16.6609 69.2917C16.6774 69.2682 16.7026 69.2523 16.7308 69.2474L41.3067 64.9882C41.3353 64.9833 41.3641 64.9899 41.3875 65.0064C41.411 65.0229 41.4269 65.048 41.4318 65.0764L43.9516 79.616C43.9618 79.6749 43.9223 79.731 43.8635 79.7412L19.2876 84.0003C19.2814 84.0014 19.2752 84.002 19.2691 84.002ZM16.8745 69.4422L19.3574 83.7685L43.7199 79.5463L41.2371 65.2199L16.8745 69.4422Z" fill="#D3BBA3"/>
<path d="M20.4373 82.2366L42.1821 78.4672L40.1104 66.5159L18.3656 70.2853L20.4373 82.2366Z" fill="#BD3644"/>
<path d="M23.1882 79.3472C23.1365 79.3472 23.0908 79.3101 23.0817 79.2574C23.0715 79.1985 23.1109 79.1425 23.1699 79.1323L39.8548 76.2407C39.914 76.2305 39.9698 76.27 39.9799 76.3289C39.9901 76.3878 39.9507 76.4438 39.8918 76.454L23.2068 79.3456C23.2005 79.3467 23.1944 79.3472 23.1882 79.3472Z" fill="white"/>
<path d="M20.9221 72.5167C20.8704 72.5167 20.8247 72.4796 20.8156 72.4269C20.8054 72.368 20.8448 72.312 20.9037 72.3018L26.1148 71.3987C26.1742 71.3885 26.2298 71.4279 26.24 71.4868C26.2502 71.5457 26.2107 71.6018 26.1518 71.612L20.9407 72.5151C20.9344 72.5162 20.9282 72.5167 20.9221 72.5167Z" fill="white"/>
<path d="M27.1199 71.4427C27.0682 71.4427 27.0225 71.4056 27.0133 71.3529C27.0031 71.294 27.0426 71.2379 27.1015 71.2277L37.009 69.5107C37.0685 69.5006 37.1239 69.54 37.1342 69.5989C37.1444 69.6577 37.1049 69.7138 37.046 69.724L27.1385 71.441C27.1322 71.4422 27.126 71.4427 27.1199 71.4427Z" fill="white"/>
<path d="M21.2058 74.9195C21.1544 74.9195 21.1089 74.8827 21.0994 74.8305C21.0888 74.7716 21.1278 74.7153 21.1866 74.7047L30.0755 73.098C30.134 73.0875 30.1906 73.1264 30.2012 73.1853C30.2119 73.2441 30.1728 73.3004 30.114 73.311L21.2251 74.9177C21.2187 74.9189 21.2122 74.9195 21.2058 74.9195Z" fill="white"/>
<path d="M31.4651 73.0652C31.4137 73.0652 31.3682 73.0284 31.3587 72.9762C31.348 72.9173 31.3871 72.861 31.4459 72.8504L38.9854 71.4876C39.0447 71.4769 39.1005 71.5161 39.1111 71.5748C39.1218 71.6337 39.0827 71.69 39.0239 71.7006L31.4844 73.0634C31.4779 73.0646 31.4714 73.0652 31.4651 73.0652Z" fill="white"/>
<path d="M21.6941 77.3532C21.6427 77.3532 21.5972 77.3165 21.5877 77.2642C21.577 77.2054 21.6161 77.1491 21.6749 77.1384L27.2007 76.1395C27.2593 76.129 27.3158 76.168 27.3264 76.2267C27.3371 76.2855 27.298 76.3418 27.2392 76.3525L21.7134 77.3514C21.7069 77.3526 21.7005 77.3532 21.6941 77.3532Z" fill="white"/>
<path d="M28.2048 76.1758C28.1534 76.1758 28.1079 76.1391 28.0984 76.0868C28.0878 76.028 28.1269 75.9717 28.1857 75.9611L39.4089 73.9321C39.4677 73.9216 39.524 73.9606 39.5346 74.0194C39.5453 74.0782 39.5062 74.1345 39.4474 74.1452L28.2242 76.1741C28.2177 76.1753 28.2112 76.1758 28.2048 76.1758Z" fill="white"/>
<path d="M31.8714 100.216C33.4776 100.846 35.2812 100.903 36.9449 100.556C37.6113 100.416 38.2705 100.186 38.9032 99.9258C39.1846 99.7161 39.0783 99.2593 39.0154 98.9944C38.9727 98.815 38.0194 97.2618 37.7434 96.912C36.7725 95.6816 36.148 96.2165 34.6946 95.1351C33.0455 93.9081 32.8117 92.2836 32.3007 92.4038C31.9453 92.4873 31.861 93.1249 32.1767 94.3824L32.1765 94.3824C31.8269 93.4547 31.659 92.2389 31.1468 92.4336C30.5675 92.69 30.6572 94.1953 30.9752 95.1056C30.5903 94.0037 30.4194 93.5731 30.128 93.6925C29.6846 93.8743 29.6409 94.8648 30.0553 96.356L30.0552 96.3561C29.7194 95.3813 29.3366 96.4858 29.4443 97.1078C29.526 97.5792 30.0946 98.486 30.2704 98.6875C31.098 99.6367 31.2981 99.8387 31.8714 100.216Z" fill="#BC8271"/>
<path d="M35.1747 96.4295C34.7499 94.6444 34.54 93.7232 34.698 93.6793C35.2205 93.5339 36.7207 94.9827 38.1673 97.6063C37.3246 97.4151 36.0174 96.6207 35.1747 96.4295Z" fill="#BC8271"/>
<path d="M33.3461 95.9257C33.3222 95.9257 33.2981 95.9178 33.2781 95.9016C33.0805 95.7418 32.8969 95.563 32.7324 95.3701C32.4937 95.0903 32.293 94.7786 32.1358 94.4438C32.1104 94.3897 32.1337 94.3252 32.1877 94.2999C32.2418 94.2744 32.3063 94.2977 32.3318 94.3518C32.4808 94.6691 32.6709 94.9645 32.8971 95.2296C33.0529 95.4125 33.2269 95.5819 33.4142 95.7332C33.4607 95.7708 33.4679 95.839 33.4303 95.8855C33.4089 95.9119 33.3776 95.9257 33.3461 95.9257Z" fill="#363E44"/>
<path d="M32.1 96.5043C32.076 96.5043 32.052 96.4965 32.0319 96.4803C31.8341 96.3203 31.6505 96.1415 31.4862 95.9487C31.2476 95.669 31.047 95.3574 30.8897 95.0224C30.8643 94.9683 30.8876 94.9039 30.9416 94.8785C30.9957 94.8531 31.0602 94.8763 31.0857 94.9304C31.2347 95.2478 31.425 95.5432 31.6509 95.8083C31.8067 95.9909 31.9806 96.1603 32.1681 96.3119C32.2145 96.3495 32.2218 96.4177 32.1841 96.4642C32.1628 96.4906 32.1315 96.5043 32.1 96.5043Z" fill="#363E44"/>
<path d="M31.1893 97.9062C31.1654 97.9062 31.1414 97.8983 31.1213 97.8821C30.9237 97.7223 30.7401 97.5435 30.5756 97.3506C30.3369 97.0707 30.1362 96.7591 29.979 96.4243C29.9536 96.3702 29.9769 96.3057 30.031 96.2803C30.0852 96.2549 30.1495 96.2781 30.175 96.3323C30.324 96.6496 30.5142 96.9449 30.7403 97.2101C30.8962 97.3929 31.0701 97.5623 31.2575 97.7138C31.3039 97.7514 31.3112 97.8195 31.2736 97.866C31.2522 97.8924 31.2209 97.9062 31.1893 97.9062Z" fill="#363E44"/>
<path d="M43.4018 104.99L37.1053 96.2431L31.353 99.36L34.5749 104.99H43.4018Z" fill="#BC8271"/>
<path d="M12.9854 104.993L15.1864 85.2754L13.0085 85.0225L10.7803 104.993H12.9854Z" fill="#D3BBA3"/>
<path d="M23.8295 88.5726C23.8255 88.5726 23.8214 88.5724 23.8173 88.5719L3.83743 86.3439C3.80891 86.3407 3.78279 86.3263 3.76487 86.3039C3.74695 86.2815 3.73866 86.2529 3.7419 86.2243L5.45721 70.8423C5.46374 70.7829 5.51671 70.7399 5.57675 70.7467L25.5567 72.9747C25.5852 72.9779 25.6113 72.9923 25.6292 73.0147C25.6471 73.0372 25.6554 73.0657 25.6522 73.0943L23.9369 88.4764C23.9308 88.5316 23.8839 88.5726 23.8295 88.5726ZM3.96905 86.1407L23.7338 88.3447L25.4251 73.1778L5.66036 70.9738L3.96905 86.1407Z" fill="#E0AA63"/>
<path d="M5.16643 84.8712L22.8442 86.8421L24.2539 74.1987L6.57606 72.2278L5.16643 84.8712Z" fill="#E96C79"/>
<path d="M13.1353 82.5583C13.1669 82.2752 13.2952 82.054 13.5202 81.895C13.7452 81.7361 14.0108 81.6737 14.3171 81.7078C14.6232 81.742 14.8686 81.8614 15.0531 82.0659C15.2374 82.2706 15.3139 82.5146 15.2824 82.7977C15.2508 83.081 15.1224 83.3021 14.8975 83.461C14.6724 83.6199 14.4068 83.6824 14.1007 83.6483C13.7944 83.6141 13.5491 83.4946 13.3647 83.2901C13.1802 83.0855 13.1038 82.8415 13.1353 82.5583ZM15.2053 80.9874L13.638 80.8126L14.0282 75.0728L16.0892 75.3027L15.2053 80.9874Z" fill="white"/>
<path d="M14.2237 103.498C12.738 103.581 11.1246 103.138 9.85554 102.404C9.34723 102.11 8.86946 101.743 8.42139 101.359C8.75478 100.794 9.00417 100.375 9.1272 100.175C9.21056 100.04 9.35651 99.7999 9.62363 99.5514C10.6132 98.6305 11.864 99.4408 13.162 98.5711C13.4865 98.3537 13.6808 98.1054 13.7955 97.8587C14.1431 97.1108 13.6713 96.7183 13.9701 96.5551C14.1799 96.4406 15.4762 96.5654 15.136 98.3796L15.0635 98.5882C15.3878 97.5113 14.9977 97.2727 15.7711 97.4554C16.3707 97.7325 16.6063 98.816 16.2169 99.5509C16.6539 98.7262 16.1252 98.3035 16.3881 98.3714C17.1031 98.5563 17.4837 99.7993 16.633 100.824L16.6331 100.824C17.0155 100.254 17.1926 100.215 17.2901 100.442C17.4681 100.857 17.2497 101.736 16.5051 102.372C15.6791 103.077 14.7952 103.344 14.2237 103.498Z" fill="#ECD0C8"/>
<path d="M11.4256 99.2759C11.7059 97.5442 11.8768 96.9866 11.601 96.951C11.1372 96.891 9.85588 98.145 9.12744 100.624C9.80139 100.306 10.7516 99.5941 11.4256 99.2759Z" fill="#ECD0C8"/>
<path d="M14.4487 99.3343C14.4115 99.3343 14.3753 99.3151 14.3551 99.2806C14.325 99.229 14.3424 99.1627 14.394 99.1326C14.4111 99.1226 14.4283 99.1123 14.4456 99.1018C14.7393 98.9232 15.2013 98.2771 15.0764 97.6258C15.0652 97.5671 15.1036 97.5104 15.1623 97.4991C15.2215 97.4878 15.2777 97.5263 15.289 97.585C15.4397 98.3709 14.8779 99.0922 14.5581 99.2867C14.5397 99.2979 14.5214 99.3088 14.5032 99.3194C14.486 99.3296 14.4673 99.3343 14.4487 99.3343Z" fill="#363E44"/>
<path d="M15.2392 100.301C15.2044 100.301 15.1702 100.284 15.1493 100.253C15.1159 100.204 15.1291 100.136 15.1787 100.103C15.1924 100.094 15.2032 100.09 15.2229 100.084C15.5477 99.9764 16.2935 99.6098 16.2045 98.5285C16.1996 98.469 16.2439 98.4167 16.3034 98.4118C16.3631 98.4065 16.4153 98.4512 16.4202 98.5108C16.5247 99.78 15.5822 100.193 15.2908 100.289L15.2818 100.292C15.2681 100.298 15.2536 100.301 15.2392 100.301Z" fill="#363E44"/>
<path d="M15.6738 101.645C15.6346 101.645 15.5967 101.624 15.5775 101.586C15.5501 101.533 15.571 101.468 15.6242 101.441C15.6951 101.404 15.7656 101.365 15.8335 101.323C16.0465 101.194 16.3453 100.928 16.6977 100.556C16.7389 100.512 16.8073 100.51 16.8507 100.551C16.8942 100.592 16.8961 100.661 16.855 100.704C16.4895 101.091 16.1752 101.369 15.946 101.508C15.8736 101.552 15.7987 101.594 15.7232 101.633C15.7074 101.641 15.6905 101.645 15.6738 101.645Z" fill="#363E44"/>
<path d="M12.4492 104.993L14.751 102.939L10.8829 98.8346L2.49694 104.93C2.46194 104.955 2.42821 104.993 2.39453 104.993H12.4492Z" fill="#ECD0C8"/>
</g>
</g>
</g>
<defs>
<clipPath id="clip0_177_10663">
<rect width="94" height="120" fill="white"/>
</clipPath>
<clipPath id="clip1_177_10663">
<rect x="-0.37207" y="11.5" width="94.7442" height="97" rx="7.51938" fill="white"/>
</clipPath>
<clipPath id="clip2_177_10663">
<rect x="-0.37207" y="11.5" width="94.7442" height="97" rx="7.51938" fill="white"/>
</clipPath>
</defs>
</svg>
