<svg width="292" height="408" viewBox="0 0 292 408" fill="none" xmlns="http://www.w3.org/2000/svg">
<rect width="292" height="408" rx="24" fill="#E2E3FF"/>
<path d="M100.099 28.08V38.192H99.971C99.971 37.424 99.267 29.744 92.035 29.744H81.027V51.568H91.395C97.027 51.568 97.603 45.936 97.603 45.36H97.667V59.44H97.603C97.603 58.864 97.027 53.232 91.395 53.232H81.027V76.336H93.315C100.547 76.336 101.251 68.656 101.251 67.888H101.379V78H66.691V77.872C67.075 77.872 70.659 77.296 70.659 70.832V35.248C70.659 28.784 67.075 28.208 66.691 28.208V28.08H100.099ZM108.48 40.688C108.48 31.92 116.032 27.184 125.76 27.184C131.584 27.184 135.104 28.08 139.648 28.08V38.576H139.52C139.136 36.528 138.432 33.904 136.192 31.856C134.208 30.128 131.072 28.848 125.888 28.848C120.64 28.848 115.776 30.96 115.776 35.888C115.776 40.304 119.872 42.672 123.456 44.72L132.48 49.84C139.712 53.936 142.656 58.736 142.656 64.24C142.656 72.816 135.552 78.384 123.776 78.384C119.68 78.384 113.728 78 109.632 78V64.688H109.76C110.08 67.504 110.72 70.576 112.96 73.008C114.944 75.184 118.272 76.72 123.2 76.72C131.648 76.72 134.336 72.752 134.336 68.656C134.336 65.328 132.672 62.448 126.464 58.928L116.992 53.552C111.552 50.48 108.48 46.64 108.48 40.688ZM152.478 29.744C145.245 29.744 144.541 37.424 144.541 38.192H144.413V28.08H185.502V38.192H185.374C185.374 37.424 184.67 29.744 177.438 29.744H170.142V70.832C170.142 77.296 173.726 77.872 174.11 77.872V78H155.806V77.872C156.19 77.872 159.774 77.296 159.774 70.832V29.744H152.478ZM189.316 78V77.872C189.7 77.872 193.284 77.296 193.284 70.832V35.248C193.284 28.784 189.7 28.208 189.316 28.208V28.08H207.684C214.724 28.08 219.844 29.36 223.044 32.24C225.54 34.48 226.82 37.872 226.82 42.416C226.82 48.368 224.196 52.72 219.972 55.536C216.26 58.032 211.268 59.248 205.764 59.248H203.652V70.832C203.652 77.296 207.236 77.872 207.62 77.872V78H189.316ZM203.652 57.584H205.124C208.132 57.584 210.628 56.624 212.42 54.832C214.98 52.336 216.324 48.176 216.324 42.736C216.324 37.872 215.364 34.544 213.508 32.432C211.844 30.576 209.412 29.744 206.404 29.744H203.652V57.584Z" fill="#3E41B5"/>
<path d="M72.56 116V115.96C72.68 115.96 73.8 115.78 73.8 113.76V102.64C73.8 100.62 72.68 100.44 72.56 100.44V100.4H76.28L84.92 110.9V102.64C84.92 100.62 83.8 100.44 83.68 100.44V100.4H86.72V100.44C86.6 100.44 85.48 100.62 85.48 102.64V116.12L74.36 102.64V113.76C74.36 115.78 75.48 115.96 75.6 115.96V116H72.56ZM92.6228 119.86C93.6828 119.86 94.3628 119.44 94.8028 118.84C95.4828 117.9 95.6028 116.52 95.6028 115.52V114.4C94.9828 115.54 93.7228 116.24 92.3628 116.24C89.2828 116.24 87.3628 113.88 87.3628 110.56C87.3628 106.84 89.2828 104.08 92.6828 104.08C94.2828 104.08 95.0828 104.74 95.6028 105.46V104.28H100.043V104.32C99.9228 104.32 98.8028 104.5 98.8028 106.52V115.2C98.8028 116.9 98.1628 118.08 97.2628 118.88C96.0428 119.98 94.3228 120.34 93.1028 120.34C91.1028 120.34 89.8028 119.64 89.0628 119.64V116.56H89.1228C89.3028 117.6 89.7828 118.34 90.3428 118.86C91.1428 119.6 92.1028 119.86 92.6228 119.86ZM90.5428 110.36C90.5428 113.12 91.5228 115.36 93.2628 115.36C94.2828 115.36 95.0228 114.76 95.6028 113.38V106.52C95.0828 105.42 94.3428 105.16 93.7628 105.16C91.9228 105.16 90.5428 107.2 90.5428 110.36ZM105.691 116.2C104.691 116.2 103.791 115.9 103.131 115.32C102.491 114.74 102.091 113.88 102.091 112.74V106.52C102.091 104.5 100.971 104.32 100.851 104.32V104.28H105.291V112.48C105.291 112.98 105.331 113.64 105.591 114.18C105.851 114.7 106.311 115.08 107.011 115.08C108.431 115.08 109.451 113.66 109.451 111.7V106.52C109.451 104.5 108.331 104.32 108.211 104.32V104.28H112.651V105.08C112.971 104.82 113.071 104.54 113.091 104.28C113.091 104.06 113.011 103.54 112.211 103.34V103.32L113.871 102.16C114.111 102.34 114.451 102.96 114.411 103.5C114.351 104.46 113.331 105.1 112.651 105.4V113.76C112.651 115.78 113.771 115.96 113.891 115.96V116H109.451V113.92C108.971 115.04 107.891 116.2 105.691 116.2ZM121.327 116.24C117.447 116.24 115.527 113.48 115.527 110.16C115.527 106.84 117.447 104.08 121.327 104.08C122.807 104.08 124.007 104.48 124.927 105.16C125.067 104.96 125.107 104.74 125.087 104.56C125.067 104.34 124.947 103.84 124.127 103.7V103.68L125.687 102.38C125.947 102.54 126.327 103.14 126.347 103.68C126.367 104.42 125.787 105.02 125.227 105.42C126.487 106.54 127.127 108.26 127.127 110.16C127.127 113.48 125.207 116.24 121.327 116.24ZM118.807 110.16C118.807 113.12 119.487 115.76 121.327 115.76C123.167 115.76 123.867 113.12 123.867 110.16C123.867 107.2 123.167 104.56 121.327 104.56C119.487 104.56 118.807 107.2 118.807 110.16ZM119.207 101.8V101.74L120.267 100.26H120.327C121.147 101.4 122.607 102.96 123.567 103.34L123.507 103.4C122.327 103.24 120.227 102.58 119.207 101.8ZM129.564 106.52C129.564 104.5 128.444 104.32 128.324 104.32V104.28H132.764V113.76C132.764 115.78 133.884 115.96 134.004 115.96V116H128.324V115.96C128.444 115.96 129.564 115.78 129.564 113.76V106.52ZM129.364 101.44C129.364 100.5 130.144 99.72 131.084 99.72C132.024 99.72 132.804 100.5 132.804 101.44C132.804 102.38 132.024 103.16 131.084 103.16C130.144 103.16 129.364 102.38 129.364 101.44ZM143.881 112.92C143.881 114.1 144.041 115.16 145.221 115.16C146.101 115.16 146.921 114.62 147.321 114.22H147.381C147.241 114.68 145.781 116.14 143.741 116.14C142.001 116.14 140.681 115.64 140.681 113.28V104.76H139.681V104.28H140.681V101.2H143.881V104.28H147.201V104.76H143.881V112.92ZM148.542 102.24C148.542 100.22 147.422 100.04 147.302 100.04V100H151.742V106.36C152.222 105.24 153.302 104.08 155.502 104.08C156.502 104.08 157.402 104.38 158.062 104.96C158.702 105.54 159.102 106.4 159.102 107.54V113.76C159.102 115.78 160.222 115.96 160.342 115.96V116H154.662V115.96C154.782 115.96 155.902 115.78 155.902 113.76V107.8C155.902 107.3 155.862 106.64 155.602 106.1C155.342 105.58 154.882 105.2 154.182 105.2C152.762 105.2 151.742 106.62 151.742 108.58V113.76C151.742 115.78 152.862 115.96 152.982 115.96V116H147.302V115.96C147.422 115.96 148.542 115.78 148.542 113.76V102.24ZM165.828 116.2C164.828 116.2 163.928 115.9 163.268 115.32C162.628 114.74 162.228 113.88 162.228 112.74V106.52C162.228 104.5 161.108 104.32 160.988 104.32V104.28H165.428V112.48C165.428 112.98 165.468 113.64 165.728 114.18C165.988 114.7 166.448 115.08 167.148 115.08C168.568 115.08 169.588 113.66 169.588 111.7V106.52C169.588 104.5 168.468 104.32 168.348 104.32V104.28H172.788V105.08C173.108 104.82 173.208 104.54 173.228 104.28C173.228 104.06 173.148 103.54 172.348 103.34V103.32L174.008 102.16C174.248 102.34 174.588 102.96 174.548 103.5C174.488 104.46 173.468 105.1 172.788 105.4V113.76C172.788 115.78 173.908 115.96 174.028 115.96V116H169.588V113.92C169.108 115.04 168.028 116.2 165.828 116.2ZM165.608 118.4C165.608 117.72 166.128 117.2 166.808 117.2C167.488 117.2 168.008 117.72 168.008 118.4C168.008 119.08 167.488 119.6 166.808 119.6C166.128 119.6 165.608 119.08 165.608 118.4ZM181.544 116.24C177.664 116.24 175.664 113.68 175.664 110.16C175.664 106.84 177.864 104.08 181.944 104.08C183.664 104.08 184.984 104.68 185.564 104.68V107.88H185.504C185.424 107.32 185.264 106.26 184.624 105.48C184.204 104.96 183.544 104.56 182.544 104.56C179.704 104.56 178.944 107.2 178.944 110.16C178.944 113.12 180.104 115.36 182.764 115.36C184.304 115.36 185.244 114.54 185.804 113.6L185.864 113.64C185.744 114.02 184.864 116.24 181.544 116.24ZM195.503 112.92C195.503 114.1 195.663 115.16 196.843 115.16C197.723 115.16 198.543 114.62 198.943 114.22H199.003C198.863 114.68 197.403 116.14 195.363 116.14C193.623 116.14 192.303 115.64 192.303 113.28V104.76H191.303V104.28H192.303V101.2H195.503V104.28H198.823V104.76H195.503V112.92ZM200.163 102.24C200.163 100.22 199.043 100.04 198.923 100.04V100H203.363V106.36C203.843 105.24 204.923 104.08 207.123 104.08C208.123 104.08 209.023 104.38 209.683 104.96C210.323 105.54 210.723 106.4 210.723 107.54V113.76C210.723 115.78 211.843 115.96 211.963 115.96V116H206.283V115.96C206.403 115.96 207.523 115.78 207.523 113.76V107.8C207.523 107.3 207.483 106.64 207.223 106.1C206.963 105.58 206.503 105.2 205.803 105.2C204.383 105.2 203.363 106.62 203.363 108.58V113.76C203.363 115.78 204.483 115.96 204.603 115.96V116H198.923V115.96C199.043 115.96 200.163 115.78 200.163 113.76V102.24ZM214.329 106.52C214.329 104.5 213.209 104.32 213.089 104.32V104.28H217.529V113.76C217.529 115.78 218.649 115.96 218.769 115.96V116H213.089V115.96C213.209 115.96 214.329 115.78 214.329 113.76V106.52ZM214.129 101.44C214.129 100.5 214.909 99.72 215.849 99.72C216.789 99.72 217.569 100.5 217.569 101.44C217.569 102.38 216.789 103.16 215.849 103.16C214.909 103.16 214.129 102.38 214.129 101.44Z" fill="#3E41B5"/>
<path d="M146.5 389C215.812 389 272 332.812 272 263.5C272 194.188 215.812 138 146.5 138C77.1883 138 21 194.188 21 263.5C21 332.812 77.1883 389 146.5 389Z" fill="#3E41B5"/>
<path d="M81.0896 321.983L76.6232 311.778L71.7723 313.901C70.6557 312.519 69.3814 311.301 67.987 310.264L69.9161 305.332L59.5419 301.274L57.6128 306.206C55.8846 306.022 54.1222 306.052 52.3645 306.309L50.2414 301.459L40.0364 305.925L42.1595 310.776C40.7778 311.893 39.5601 313.167 38.5226 314.561L33.5905 312.632L29.5327 323.006L34.4648 324.935C34.2809 326.664 34.3108 328.426 34.5682 330.184L29.7173 332.307L34.1838 342.512L39.0346 340.389C40.1512 341.77 41.4256 342.988 42.8199 344.026L40.8908 348.958L51.2651 353.015L53.1942 348.083C54.9224 348.267 56.6847 348.237 58.4424 347.98L60.5655 352.831L70.7705 348.364L68.6474 343.514C70.0292 342.397 71.2469 341.123 72.2843 339.728L77.2164 341.657L81.2742 331.283L76.3422 329.354C76.5261 327.626 76.4962 325.863 76.2387 324.106L81.0896 321.983ZM60.0523 337.766C54.1861 340.334 47.3495 337.66 44.782 331.794C42.2145 325.928 44.8887 319.091 50.7547 316.523C56.6208 313.956 63.4575 316.63 66.0248 322.496C68.5924 328.362 65.9184 335.199 60.0523 337.766Z" fill="#D3BBA3"/>
<path d="M266.576 244.658L263.229 236.196L259.12 237.821C258.241 236.663 257.225 235.636 256.103 234.754L257.885 230.76L249.405 227.194L247.624 231.188C246.193 230.997 244.727 230.98 243.256 231.15L241.665 227.128L233.02 230.547L234.61 234.569C233.421 235.451 232.363 236.466 231.45 237.584L227.418 235.889L223.671 244.289L227.702 245.985C227.487 247.396 227.448 248.84 227.599 250.285L223.489 251.91L226.835 260.372L230.945 258.747C231.824 259.905 232.84 260.932 233.962 261.814L232.18 265.808L240.66 269.374L242.441 265.38C243.872 265.571 245.338 265.588 246.809 265.418L248.399 269.441L257.045 266.022L255.455 261.999C256.644 261.117 257.702 260.102 258.615 258.985L262.646 260.68L266.394 252.279L262.363 250.584C262.578 249.173 262.617 247.729 262.466 246.283L266.576 244.658ZM248.515 257.091C243.545 259.057 237.957 256.707 236.034 251.843C234.11 246.978 236.58 241.442 241.55 239.477C246.52 237.512 252.108 239.862 254.031 244.726C255.955 249.59 253.485 255.126 248.515 257.091Z" fill="#E2E3FF"/>
<path d="M195.368 347.382L193.492 348.32C192.866 347.489 192.181 346.719 191.447 346.012L192.602 344.263L186.675 340.349L185.518 342.102C184.571 341.702 183.593 341.376 182.595 341.128L182.72 339.03L175.632 338.603L175.508 340.696C174.496 340.821 173.487 341.026 172.488 341.315L171.549 339.438L165.2 342.612L166.139 344.489C165.308 345.114 164.539 345.799 163.832 346.533L162.082 345.377L158.172 351.302L159.926 352.46C159.526 353.407 159.2 354.384 158.953 355.383L156.855 355.256L156.433 362.344L158.526 362.47C158.651 363.482 158.856 364.491 159.146 365.49L157.27 366.428L160.448 372.78L162.324 371.842C162.95 372.673 163.634 373.443 164.369 374.15L163.214 375.9L169.141 379.813L170.298 378.06C171.245 378.461 172.223 378.787 173.221 379.035L173.095 381.132L180.183 381.559L180.308 379.466C181.319 379.342 182.329 379.137 183.327 378.848L184.266 380.724L190.616 377.55L189.677 375.673C190.507 375.048 191.277 374.364 191.983 373.63L193.733 374.785L197.643 368.86L195.889 367.702C196.29 366.755 196.615 365.778 196.862 364.78L198.96 364.906L199.383 357.818L197.29 357.692C197.165 356.681 196.959 355.671 196.669 354.672L198.546 353.734L195.368 347.382ZM191.546 359.148C191.917 362.748 190.715 366.359 188.26 369.017C179.922 378.047 165.528 373.247 164.269 361.015C163.899 357.414 165.101 353.803 167.555 351.146C175.894 342.115 190.287 346.916 191.546 359.148Z" fill="#E2E3FF"/>
<path d="M177.943 375.75C172.189 375.75 166.64 372.573 163.895 367.086C162.206 363.709 161.791 359.837 162.728 356.185C163.655 352.569 165.838 349.403 168.875 347.268C168.937 347.224 169.022 347.239 169.066 347.301C169.109 347.363 169.095 347.449 169.033 347.492C162.861 351.831 160.758 360.201 164.141 366.963C166.837 372.354 172.29 375.475 177.942 375.476C180.252 375.476 182.596 374.954 184.798 373.853C191.071 370.717 194.431 363.741 192.971 356.889C192.955 356.815 193.002 356.742 193.076 356.726C193.148 356.71 193.223 356.757 193.239 356.832C194.726 363.806 191.305 370.907 184.921 374.098C182.679 375.219 180.294 375.75 177.943 375.75Z" fill="#3E41B5"/>
<path d="M33.8885 309.172H256.846V151.07L33.8885 151.07L33.8885 309.172Z" fill="#DABD00"/>
<path d="M249.851 288.625L249.851 158.065L40.8836 158.065L40.8836 288.625H249.851Z" fill="#E2E3FF"/>
<path d="M121.898 312.521H128.499C128.499 317.473 132.513 321.487 137.464 321.487H153.27C158.222 321.487 162.236 317.473 162.236 312.521H168.836L175.437 347.6V350.534H115.297V347.6L121.898 312.521Z" fill="#DABD00"/>
<path d="M175.437 354.338H115.297C115.221 354.338 115.16 354.276 115.16 354.201C115.16 354.125 115.221 354.063 115.297 354.063H175.437C175.513 354.063 175.574 354.125 175.574 354.201C175.574 354.276 175.513 354.338 175.437 354.338Z" fill="#DABD00"/>
<path d="M222.641 253.2C223.37 250.112 221.458 247.017 218.369 246.287C215.28 245.558 212.185 247.471 211.456 250.559C210.727 253.648 212.639 256.743 215.728 257.472C218.817 258.201 221.912 256.289 222.641 253.2Z" fill="#E2E3FF"/>
<path d="M114.427 275.695H50.6726C50.5967 275.695 50.5354 275.634 50.5354 275.558V227.484C50.5354 227.408 50.5967 227.347 50.6726 227.347C50.7484 227.347 50.8097 227.408 50.8097 227.484V275.421H114.427C114.503 275.421 114.564 275.482 114.564 275.558C114.564 275.634 114.503 275.695 114.427 275.695Z" fill="#DABD00"/>
<path d="M97.677 243.267C97.6303 243.267 97.5849 243.243 97.5592 243.2C97.5204 243.135 97.5415 243.051 97.6067 243.012L106.308 237.812C106.373 237.773 106.457 237.794 106.496 237.859C106.535 237.924 106.514 238.009 106.449 238.047L97.7473 243.248C97.7252 243.261 97.701 243.267 97.677 243.267Z" fill="#DABD00"/>
<path d="M92.1675 241.877C92.1229 241.877 92.079 241.855 92.0527 241.815L80.2635 223.867C80.2219 223.803 80.2395 223.718 80.3029 223.677C80.3661 223.635 80.4513 223.653 80.4928 223.716L92.282 241.664C92.3236 241.727 92.306 241.812 92.2426 241.854C92.2195 241.869 92.1934 241.877 92.1675 241.877Z" fill="#DABD00"/>
<path d="M66.0845 230.227C66.0433 230.227 66.0027 230.208 65.9758 230.173C65.9295 230.113 65.9404 230.027 66.0005 229.981L75.1593 222.905C75.2194 222.859 75.3055 222.87 75.3516 222.93C75.3979 222.99 75.387 223.076 75.3269 223.122L66.1681 230.198C66.1433 230.217 66.1137 230.227 66.0845 230.227Z" fill="#DABD00"/>
<path d="M63.114 236.367C60.956 236.367 59.2002 234.612 59.2002 232.454C59.2002 230.296 60.956 228.54 63.114 228.54C65.2721 228.54 67.0278 230.296 67.0278 232.454C67.0278 234.612 65.2721 236.367 63.114 236.367ZM63.114 228.814C61.1071 228.814 59.4745 230.447 59.4745 232.454C59.4745 234.461 61.1071 236.093 63.114 236.093C65.1209 236.093 66.7535 234.461 66.7535 232.454C66.7535 230.447 65.1209 228.814 63.114 228.814Z" fill="#DABD00"/>
<path d="M78.3407 224.618C76.1826 224.618 74.4269 222.862 74.4269 220.704C74.4269 218.546 76.1826 216.79 78.3407 216.79C80.4987 216.79 82.2545 218.546 82.2545 220.704C82.2545 222.862 80.4987 224.618 78.3407 224.618ZM78.3407 217.065C76.3338 217.065 74.7012 218.697 74.7012 220.704C74.7012 222.711 76.3338 224.343 78.3407 224.343C80.3476 224.343 81.9802 222.711 81.9802 220.704C81.9802 218.697 80.3475 217.065 78.3407 217.065Z" fill="#DABD00"/>
<path d="M94.3502 248.85C92.1922 248.85 90.4364 247.095 90.4364 244.936C90.4364 242.778 92.1922 241.023 94.3502 241.023C96.5083 241.023 98.264 242.778 98.264 244.936C98.264 247.095 96.5084 248.85 94.3502 248.85ZM94.3502 241.297C92.3433 241.297 90.7107 242.93 90.7107 244.936C90.7107 246.943 92.3433 248.576 94.3502 248.576C96.3571 248.576 97.9897 246.943 97.9897 244.936C97.9897 242.93 96.3571 241.297 94.3502 241.297Z" fill="#DABD00"/>
<path d="M109.698 240.042C107.54 240.042 105.784 238.286 105.784 236.128C105.784 233.97 107.54 232.214 109.698 232.214C111.856 232.214 113.612 233.97 113.612 236.128C113.612 238.286 111.856 240.042 109.698 240.042ZM109.698 232.488C107.691 232.488 106.058 234.121 106.058 236.128C106.058 238.135 107.691 239.767 109.698 239.767C111.705 239.767 113.337 238.135 113.337 236.128C113.337 234.121 111.705 232.488 109.698 232.488Z" fill="#DABD00"/>
<path d="M68.0437 242.229H58.6512V267.983H68.0437V242.229Z" fill="#DABD00"/>
<path d="M83.5437 237.099H74.1512V267.983H83.5437V237.099Z" fill="#DABD00"/>
<path d="M99.0437 251.341H89.6512V267.983H99.0437V251.341Z" fill="#DABD00"/>
<path d="M114.544 246.561H105.151V267.984H114.544V246.561Z" fill="#DABD00"/>
<path d="M215.468 212.819C209.399 213.819 203.304 212.397 198.306 208.813C193.307 205.23 190.003 199.914 189.002 193.846C188.002 187.777 189.424 181.682 193.008 176.683C196.591 171.684 201.907 168.38 207.975 167.38C214.044 166.379 220.139 167.801 225.138 171.385C230.137 174.968 233.441 180.284 234.441 186.353C235.442 192.421 234.02 198.516 230.436 203.515C226.852 208.514 221.537 211.818 215.468 212.819ZM209.158 174.554C200.587 175.967 194.763 184.091 196.176 192.662C197.59 201.234 205.713 207.058 214.285 205.644C222.857 204.231 228.681 196.107 227.267 187.536C225.854 178.964 217.73 173.14 209.158 174.554Z" fill="#3E41B5"/>
<path d="M215.32 211.922C209.491 212.883 203.637 211.517 198.835 208.075C194.034 204.633 190.86 199.527 189.899 193.698C188.938 187.869 190.304 182.014 193.746 177.213C197.188 172.411 202.294 169.238 208.123 168.276C213.952 167.315 219.807 168.681 224.608 172.123C229.41 175.566 232.583 180.671 233.544 186.501C234.506 192.33 233.139 198.184 229.697 202.986C226.255 207.787 221.149 210.961 215.32 211.922ZM209.011 173.657C199.944 175.152 193.785 183.744 195.28 192.81C196.775 201.877 205.367 208.036 214.433 206.541C223.499 205.046 229.659 196.454 228.164 187.388C226.669 178.322 218.077 172.162 209.011 173.657Z" fill="#E2E3FF"/>
<path d="M213.302 173.509C220.224 174.17 226.185 179.15 227.898 186.096L233.291 185.207C232.098 179.918 229.051 175.309 224.608 172.124C221.259 169.723 217.397 168.333 213.389 168.037L213.302 173.509Z" fill="#D87355"/>
<path d="M228.327 188.697C229.057 197.267 223.062 205.119 214.433 206.541C209.903 207.288 205.491 206.124 202.024 203.641L198.495 207.825C198.608 207.909 198.721 207.993 198.835 208.075C203.637 211.517 209.491 212.883 215.32 211.922C221.149 210.961 226.255 207.787 229.697 202.986C232.882 198.543 234.288 193.199 233.719 187.807L228.327 188.697Z" fill="#3E41B5"/>
<path d="M200.911 177.424C203.143 175.513 205.906 174.169 209.011 173.657C209.565 173.566 210.118 173.503 210.667 173.468L210.754 168.001C209.879 168.041 209.001 168.132 208.123 168.277C203.939 168.966 200.128 170.796 197.037 173.55L200.911 177.424Z" fill="#EFBC73"/>
<path d="M193.746 177.213C190.304 182.014 188.938 187.869 189.899 193.698C190.693 198.511 192.996 202.831 196.478 206.128L200.009 201.943C197.589 199.556 195.874 196.413 195.28 192.81C194.45 187.781 195.978 182.897 199.05 179.29L195.178 175.418C194.674 175.988 194.195 176.586 193.746 177.213Z" fill="#F7F1EB"/>
<path d="M211.653 195.635C208.6 195.635 206.116 193.151 206.116 190.098C206.116 187.045 208.6 184.561 211.653 184.561C214.706 184.561 217.19 187.045 217.19 190.098C217.19 193.151 214.706 195.635 211.653 195.635ZM211.653 184.836C208.752 184.836 206.391 187.196 206.391 190.098C206.391 193 208.752 195.361 211.653 195.361C214.555 195.361 216.915 193 216.915 190.098C216.916 187.196 214.555 184.836 211.653 184.836Z" fill="#3E41B5"/>
<path d="M234.13 222.838H188.107V278.334H234.13V222.838Z" fill="#F7F1EB"/>
<path d="M214.479 246.855C214.44 246.855 214.401 246.839 214.374 246.807L211.59 243.534H207.153L203.284 246.823C203.231 246.868 203.153 246.866 203.102 246.819L195.936 240.236L191.524 242.056C191.454 242.085 191.374 242.052 191.345 241.982C191.316 241.912 191.349 241.831 191.419 241.802L195.913 239.949C195.961 239.929 196.018 239.939 196.058 239.975L203.199 246.535L207.014 243.293C207.039 243.272 207.07 243.26 207.103 243.26H211.653C211.693 243.26 211.732 243.278 211.758 243.308L214.51 246.543L216.919 245.172L218.111 237.18C218.117 237.144 218.136 237.112 218.165 237.09L222.073 234.149C222.105 234.124 222.147 234.116 222.187 234.125L227.418 235.356L232.028 228.537C232.07 228.474 232.156 228.458 232.218 228.5C232.281 228.543 232.298 228.628 232.255 228.691L227.592 235.588C227.561 235.635 227.504 235.658 227.447 235.645L222.186 234.407L218.375 237.276L217.181 245.278C217.174 245.32 217.149 245.356 217.113 245.377L214.547 246.838C214.525 246.85 214.502 246.855 214.479 246.855Z" fill="#D87355"/>
<path d="M195.741 274.993C195.666 274.993 195.604 274.931 195.604 274.856V242.146C195.604 242.07 195.666 242.009 195.741 242.009C195.817 242.009 195.879 242.07 195.879 242.146V274.856C195.879 274.931 195.817 274.993 195.741 274.993Z" fill="#E2E3FF"/>
<path d="M203.195 274.993C203.119 274.993 203.058 274.931 203.058 274.856V249.962C203.058 249.886 203.119 249.825 203.195 249.825C203.271 249.825 203.332 249.886 203.332 249.962V274.856C203.332 274.931 203.271 274.993 203.195 274.993Z" fill="#E2E3FF"/>
<path d="M214.267 274.993C214.191 274.993 214.13 274.931 214.13 274.856V249.962C214.13 249.886 214.191 249.825 214.267 249.825C214.343 249.825 214.404 249.886 214.404 249.962V274.856C214.404 274.931 214.343 274.993 214.267 274.993Z" fill="#E2E3FF"/>
<path d="M222.3 274.993C222.224 274.993 222.162 274.931 222.162 274.856V235.995C222.162 235.919 222.224 235.858 222.3 235.858C222.375 235.858 222.437 235.919 222.437 235.995V274.856C222.437 274.931 222.375 274.993 222.3 274.993Z" fill="#E2E3FF"/>
<path d="M227.438 274.993C227.362 274.993 227.301 274.931 227.301 274.856V238.238C227.301 238.162 227.362 238.101 227.438 238.101C227.514 238.101 227.575 238.162 227.575 238.238V274.856C227.575 274.931 227.514 274.993 227.438 274.993Z" fill="#E2E3FF"/>
<path d="M180.226 187.924C180.807 194.047 178.968 200.03 175.049 204.77C171.13 209.511 165.6 212.441 159.476 213.022C153.353 213.602 147.371 211.764 142.63 207.845C137.89 203.926 134.96 198.395 134.379 192.272C133.799 186.149 135.637 180.166 139.556 175.426C143.475 170.685 149.006 167.755 155.129 167.175C161.252 166.594 167.235 168.433 171.975 172.352C176.715 176.271 179.646 181.801 180.226 187.924ZM141.618 191.585C142.438 200.234 150.141 206.603 158.79 205.783C167.438 204.963 173.808 197.259 172.987 188.611C172.167 179.962 164.464 173.593 155.815 174.413C147.166 175.233 140.797 182.937 141.618 191.585Z" fill="#3E41B5"/>
<path d="M179.321 188.01C179.879 193.891 178.113 199.638 174.349 204.191C170.584 208.744 165.272 211.559 159.391 212.117C153.509 212.674 147.762 210.908 143.209 207.144C138.656 203.379 135.842 198.067 135.284 192.186C134.726 186.304 136.492 180.558 140.256 176.005C144.021 171.452 149.333 168.637 155.215 168.079C161.096 167.521 166.843 169.287 171.396 173.052C175.949 176.816 178.763 182.128 179.321 188.01ZM140.713 191.671C141.58 200.819 149.728 207.555 158.876 206.688C168.023 205.82 174.76 197.672 173.892 188.525C173.025 179.377 164.877 172.641 155.729 173.508C146.582 174.375 139.845 182.523 140.713 191.671Z" fill="#E2E3FF"/>
<path d="M140.861 187.379C141.997 180.519 147.375 174.916 154.422 173.684L153.906 168.243C148.548 169.069 143.74 171.792 140.257 176.005C137.631 179.181 135.979 182.938 135.408 186.916L140.861 187.379Z" fill="#D87355"/>
<path d="M157.046 173.435C165.647 173.297 173.067 179.819 173.892 188.525C174.326 193.095 172.861 197.417 170.145 200.705L174.076 204.513C174.167 204.406 174.259 204.3 174.349 204.191C178.113 199.638 179.879 193.891 179.321 188.01C178.764 182.128 175.949 176.816 171.396 173.052C167.183 169.569 161.948 167.798 156.53 167.995L157.046 173.435Z" fill="#EFBC73"/>
<path d="M143.913 200.011C142.161 197.653 141.01 194.803 140.713 191.671C140.66 191.112 140.636 190.556 140.638 190.005L135.19 189.543C135.17 190.418 135.2 191.301 135.284 192.186C135.684 196.408 137.248 200.336 139.782 203.609L143.913 200.011Z" fill="#3E41B5"/>
<path d="M143.209 207.144C147.763 210.908 153.509 212.674 159.391 212.117C164.247 211.656 168.715 209.655 172.244 206.409L168.312 202.598C165.764 204.848 162.511 206.343 158.876 206.688C153.801 207.169 149.034 205.309 145.647 201.996L141.517 205.593C142.051 206.134 142.615 206.653 143.209 207.144Z" fill="#DABD00"/>
<path d="M157.302 195.702C157.174 195.702 157.046 195.698 156.917 195.689C155.441 195.587 154.094 194.917 153.123 193.802C152.151 192.686 151.673 191.26 151.774 189.784C151.876 188.309 152.546 186.961 153.661 185.99C154.777 185.019 156.203 184.54 157.679 184.642C159.155 184.743 160.502 185.414 161.473 186.529C162.444 187.644 162.923 189.071 162.822 190.546C162.62 193.463 160.183 195.702 157.302 195.702ZM157.29 184.903C156.021 184.903 154.808 185.355 153.842 186.197C152.782 187.12 152.145 188.401 152.048 189.803C151.951 191.205 152.406 192.561 153.33 193.622C154.253 194.681 155.533 195.318 156.936 195.415C159.829 195.616 162.348 193.422 162.548 190.527C162.645 189.125 162.19 187.769 161.266 186.709C160.343 185.649 159.062 185.012 157.66 184.915C157.66 184.915 157.66 184.915 157.66 184.915C157.536 184.907 157.413 184.903 157.29 184.903Z" fill="#3E41B5"/>
<path d="M179.711 222.838H133.688V278.334H179.711V222.838Z" fill="#F7F1EB"/>
<path d="M148.776 246.855H141.322C141.283 246.855 141.246 246.839 141.22 246.81L136.95 242.02C136.9 241.964 136.905 241.877 136.961 241.827C137.018 241.777 137.104 241.781 137.155 241.838L141.383 246.581H148.725L152.595 243.293C152.62 243.272 152.651 243.26 152.683 243.26H157.152L160.234 237.6L162.11 233.263C162.136 233.204 162.199 233.17 162.263 233.183L164.724 233.69L167.755 234.122L173.091 235.377C173.106 235.381 173.122 235.388 173.135 235.397L177.799 238.524C177.861 238.566 177.878 238.651 177.836 238.714C177.794 238.777 177.709 238.794 177.646 238.752L173.003 235.639L167.704 234.392L164.677 233.96L162.317 233.474L160.48 237.721L157.354 243.463C157.33 243.507 157.284 243.534 157.234 243.534H152.733L148.864 246.823C148.84 246.844 148.808 246.855 148.776 246.855Z" fill="#EFBC73"/>
<path d="M141.322 274.993C141.246 274.993 141.185 274.931 141.185 274.856V249.962C141.185 249.886 141.246 249.825 141.322 249.825C141.398 249.825 141.459 249.886 141.459 249.962V274.856C141.459 274.931 141.398 274.993 141.322 274.993Z" fill="#E2E3FF"/>
<path d="M148.776 274.993C148.7 274.993 148.639 274.931 148.639 274.856V249.962C148.639 249.886 148.7 249.825 148.776 249.825C148.852 249.825 148.913 249.886 148.913 249.962V274.856C148.913 274.931 148.852 274.993 148.776 274.993Z" fill="#E2E3FF"/>
<path d="M157.387 274.993C157.311 274.993 157.25 274.931 157.25 274.856V245.475C157.25 245.399 157.311 245.338 157.387 245.338C157.463 245.338 157.524 245.399 157.524 245.475V274.856C157.524 274.931 157.463 274.993 157.387 274.993Z" fill="#E2E3FF"/>
<path d="M167.88 274.993C167.805 274.993 167.743 274.931 167.743 274.856V235.995C167.743 235.919 167.805 235.858 167.88 235.858C167.956 235.858 168.018 235.919 168.018 235.995V274.856C168.018 274.931 167.956 274.993 167.88 274.993Z" fill="#E2E3FF"/>
<path d="M173.019 274.993C172.943 274.993 172.881 274.931 172.881 274.856V238.238C172.881 238.162 172.943 238.101 173.019 238.101C173.094 238.101 173.156 238.162 173.156 238.238V274.856C173.156 274.931 173.094 274.993 173.019 274.993Z" fill="#E2E3FF"/>
<path d="M121.065 200.373H49.8688C49.793 200.373 49.7317 200.312 49.7317 200.236V181.916C49.7317 181.84 49.793 181.779 49.8688 181.779H121.065C121.141 181.779 121.202 181.84 121.202 181.916V200.236C121.202 200.312 121.141 200.373 121.065 200.373ZM50.006 200.099H120.928V182.053H50.006V200.099Z" fill="#DABD00"/>
<path d="M112.264 175.886C109.228 174.966 108.868 170.479 106.336 170.543C100.065 170.701 97.2175 190.275 92.4615 190.016C88.5355 189.803 87.8926 176.324 83.3461 175.887C78.4931 175.42 75.0713 190.376 69.8301 190.016C65.2279 189.7 65.4114 178 57.257 174.083C55.887 173.425 54.4515 173.069 53.0118 172.927V196.448H117.922V174.303C115.472 175.986 113.649 176.306 112.264 175.886Z" fill="#DABD00"/>
<path d="M80.2579 217.831C79.4863 217.831 78.663 217.131 78.2886 216.084C77.8468 214.849 78.1948 213.591 79.0642 213.28C79.4949 213.126 79.9821 213.222 80.4358 213.55C80.874 213.867 81.2316 214.367 81.4424 214.956C81.6534 215.546 81.6937 216.159 81.5559 216.682C81.4131 217.224 81.0973 217.607 80.6669 217.761C80.5342 217.808 80.3969 217.831 80.2579 217.831ZM79.4793 213.483C79.368 213.483 79.2598 213.501 79.1565 213.538C78.4295 213.798 78.1558 214.899 78.5467 215.992C78.9378 217.085 79.8481 217.762 80.5744 217.503C80.9173 217.38 81.1715 217.064 81.2905 216.612C81.4143 216.142 81.3766 215.587 81.1842 215.049C80.9917 214.511 80.6689 214.057 80.2749 213.772C80.0106 213.581 79.737 213.483 79.4793 213.483Z" fill="#363E44"/>
<path d="M79.2489 215.316C78.0744 212.022 77.0995 210.206 75.168 209.301C72.5723 208.085 69.7903 209.576 69.5022 209.736C69.3183 209.838 66.6162 211.133 66.1664 214.115C65.7222 217.059 66.8529 220.136 69.2052 221.917V231.672C69.2052 233.784 70.9172 235.496 73.0291 235.496H73.5075C75.6195 235.496 77.3315 233.784 77.3315 231.672V224.101C78.6713 223.989 79.7312 223.601 80.156 222.922C80.917 221.707 80.632 219.195 79.2489 215.316Z" fill="white"/>
<path d="M79.4955 203.668C78.7136 203.796 77.9316 203.924 77.1497 204.052C77.1962 204.333 77.2378 205.383 76.7275 206.312C76.5574 205.213 76.139 204.637 75.8139 204.271C72.955 204.739 70.096 205.207 67.2371 205.675C67.428 205.946 67.8977 206.691 67.8779 207.725C67.8479 209.286 66.7278 210.231 66.5538 210.374C64.6478 212.43 63.9976 215.313 64.888 217.848C65.9606 220.902 68.7738 222.04 69.2019 222.205C69.8151 222.117 70.442 222.018 71.0811 221.906C72.3062 221.69 73.4745 221.445 74.5835 221.179C73.5262 220.831 72.9514 219.877 72.8322 218.873C72.7018 217.773 73.5134 216.545 74.6559 216.502C75.3815 216.475 75.98 216.855 76.5138 218.051C76.9409 217.823 77.4451 217.52 77.8722 217.293L76.1638 213.918C76.3418 213.831 80.4035 211.759 80.6057 207.682C80.6999 205.787 79.9158 204.33 79.4955 203.668Z" fill="#363E44"/>
<path d="M76.5982 217.147C76.5516 217.147 76.506 217.123 76.4804 217.08C76.4416 217.015 76.4627 216.931 76.5277 216.892L80.8926 214.281C80.9576 214.242 81.042 214.263 81.0808 214.328C81.1196 214.393 81.0985 214.477 81.0335 214.516L76.6685 217.128C76.6465 217.141 76.6222 217.147 76.5982 217.147Z" fill="#363E44"/>
<path d="M77.3918 224.135C77.3177 224.135 77.2568 224.075 77.2547 224.001L77.2121 222.392C77.21 222.316 77.2698 222.253 77.3457 222.251C77.3469 222.251 77.3482 222.251 77.3494 222.251C77.4233 222.251 77.4843 222.311 77.4864 222.385L77.5291 223.994C77.5311 224.07 77.4712 224.133 77.3955 224.135C77.3942 224.135 77.393 224.135 77.3918 224.135Z" fill="#363E44"/>
<path d="M75.1986 219.324C75.1614 219.324 75.1244 219.309 75.0974 219.28C74.9148 219.08 74.752 218.896 74.5829 218.704C74.4435 218.546 74.3002 218.384 74.1377 218.204C74.0869 218.147 74.0913 218.061 74.1475 218.01C74.2036 217.959 74.2904 217.963 74.3412 218.02C74.5044 218.201 74.6486 218.364 74.7886 218.522C74.9566 218.713 75.1183 218.896 75.2999 219.095C75.351 219.15 75.3471 219.237 75.2913 219.288C75.265 219.312 75.2318 219.324 75.1986 219.324Z" fill="#363E44"/>
<path d="M65.2428 375.2L49.9216 375.786L51.8413 355.648L67.2884 357.426L65.2428 375.2Z" fill="white"/>
<path d="M85.8819 385.194L46.9374 385.385L50.4491 370.191L65.8279 370.116L76.7556 373.493C82.17 374.959 85.9051 379.748 85.8819 385.194Z" fill="#363E44"/>
<path d="M107.8 372.707L93.3866 377.934L89.0775 358.169L104.331 355.155L107.8 372.707Z" fill="white"/>
<path d="M127.166 385.194L88.2219 385.385L91.7336 370.191L107.288 370.115L118.04 373.493C123.455 374.959 127.19 379.748 127.166 385.194Z" fill="#363E44"/>
<path d="M91.6698 261.871C93.2379 265.861 106.391 358.865 107.93 364.297C100.498 364.297 93.0672 364.297 85.6359 364.297C84.6923 362.76 76.0415 305.741 75.4808 302.6C75.009 304.422 69.43 362.412 68.9581 364.234C62.0802 364.234 54.9308 364.234 48.053 364.234C48.4313 358.237 56.5029 263.623 57.7519 260.077C67.9993 260.675 81.4224 261.273 91.6698 261.871Z" fill="#363E44"/>
<path d="M97.7818 232.531C112.712 235.693 120.386 239.313 118.728 244.866C117.766 248.088 108.807 249.675 96.8949 247.804C97.1582 242.988 97.3341 238.35 97.7818 232.531Z" fill="white"/>
<path d="M49.4568 234.466C31.3937 239.812 23.0742 244.207 25.5421 249.956C26.9737 253.291 37.4845 254.64 51.9477 251.075C51.2486 245.936 50.4604 240.659 49.4568 234.466Z" fill="white"/>
<path d="M39.2037 236.426C39.2037 236.426 56.3742 229.582 70.5971 229.07C82.7193 228.633 101.456 231.829 101.456 231.829L101.648 252.347L94.3021 251.614L96.4748 282.454L52.7383 284.675L51.2489 257.135L48.0529 258.704L39.2037 236.426Z" fill="#3E41B5"/>
<path d="M105.065 239.319C104.835 235.571 104.681 227.018 104.937 220.483C105.206 213.62 106.603 203.526 108.013 203.74C108.815 203.862 108.909 205.278 108.91 209.079C109.102 208.887 109.764 208.438 110.49 208.673C111.565 209.021 111.586 209.976 111.622 210.061C111.682 209.991 112.348 209.25 113.106 209.361C113.961 209.486 114.441 210.061 114.616 210.716C114.77 210.546 115.402 209.976 116.128 210.104C116.875 210.236 117.559 210.916 117.516 211.706C117.438 213.155 117.122 217.459 117.224 219.572C117.424 223.73 120.118 238.401 118.819 244.487C114.22 241.682 109.664 242.123 105.065 239.319Z" fill="white"/>
<path d="M113.458 237.537C113.438 237.537 113.417 237.533 113.398 237.523C111.214 236.449 108.388 235.448 104.76 234.463C104.687 234.443 104.644 234.368 104.664 234.295C104.683 234.222 104.759 234.178 104.832 234.198C108.477 235.188 111.319 236.195 113.519 237.277C113.587 237.31 113.615 237.392 113.582 237.46C113.558 237.509 113.509 237.537 113.458 237.537Z" fill="#363E44"/>
<path d="M107.603 211.37C107.594 211.37 107.584 211.369 107.575 211.368L106.448 211.138C106.374 211.123 106.326 211.05 106.342 210.976C106.357 210.902 106.43 210.854 106.503 210.869L107.63 211.099C107.705 211.114 107.752 211.187 107.737 211.261C107.724 211.326 107.667 211.37 107.603 211.37Z" fill="#363E44"/>
<path d="M110.463 211.949C110.454 211.949 110.445 211.948 110.436 211.946L109.309 211.717C109.234 211.702 109.187 211.629 109.202 211.555C109.217 211.481 109.29 211.433 109.364 211.448L110.49 211.678C110.565 211.692 110.613 211.765 110.597 211.839C110.584 211.904 110.527 211.949 110.463 211.949Z" fill="#363E44"/>
<path d="M113.382 212.506C113.373 212.506 113.364 212.505 113.354 212.504L112.228 212.274C112.153 212.259 112.106 212.186 112.121 212.112C112.136 212.038 112.209 211.99 112.283 212.005L113.409 212.235C113.484 212.25 113.532 212.323 113.516 212.397C113.503 212.462 113.446 212.506 113.382 212.506Z" fill="#363E44"/>
<path d="M116.019 213.066C116.01 213.066 116.001 213.065 115.991 213.063L114.865 212.834C114.79 212.819 114.742 212.746 114.758 212.672C114.772 212.598 114.845 212.55 114.919 212.565L116.046 212.795C116.12 212.81 116.168 212.882 116.153 212.957C116.14 213.022 116.083 213.066 116.019 213.066Z" fill="#363E44"/>
<path d="M39.9048 245.531C39.9052 245.531 39.9055 245.531 39.9057 245.53C41.8528 231.857 43.4965 222.192 43.8867 219.189C43.9275 218.874 44.0022 218.32 43.9001 217.599C43.5221 214.93 41.3246 214.264 39.6463 211.639C37.742 208.66 38.3563 205.904 37.4612 205.786C36.8385 205.703 36.3142 206.678 36.0552 208.893H36.0548C36.0581 207.187 35.9615 204.874 35.0191 204.875C33.931 204.934 33.7253 207.665 33.6815 209.323C33.7345 207.316 33.1621 206.233 32.6368 206.365C31.8099 206.572 31.4065 208.118 31.4394 210.773H31.4393C30.9044 208.947 30.5023 208.583 30.0663 208.812C29.2701 209.231 29.3384 211.414 29.6945 213.334C30.0953 215.495 31.156 217.033 31.8479 217.986C31.848 217.986 31.8481 217.987 31.848 217.987C29.4913 227.422 24.2941 243.814 25.1479 248.576C25.2065 248.903 34.7607 245.62 39.9048 245.531Z" fill="white"/>
<path d="M43.8867 219.189C44.9443 213.894 44.8037 210.714 44.1703 210.402C42.9496 209.8 42.0261 212.876 41.0853 215.79C42.1196 216.791 42.8523 218.188 43.8867 219.189Z" fill="white"/>
<path d="M40.0389 243.987C40.0325 243.987 40.0259 243.986 40.0192 243.985C39.9442 243.974 39.8922 243.905 39.9029 243.83C40.231 241.551 40.5781 239.193 40.9346 236.82C40.946 236.745 41.0167 236.695 41.0907 236.705C41.1656 236.716 41.2173 236.786 41.206 236.861C40.8494 239.233 40.5024 241.591 40.1745 243.869C40.1647 243.937 40.106 243.987 40.0389 243.987Z" fill="#363E44"/>
<path d="M36.8465 211.735C36.8004 211.735 36.7555 211.712 36.7295 211.67C36.4837 211.271 36.2902 210.842 36.1542 210.394C36.0136 209.93 35.9351 209.45 35.9212 208.966C35.919 208.89 35.9787 208.827 36.0545 208.825C36.1315 208.827 36.1933 208.882 36.1955 208.958C36.2087 209.418 36.2832 209.874 36.4168 210.314C36.5458 210.74 36.7296 211.147 36.9631 211.526C37.0027 211.591 36.9827 211.675 36.9182 211.715C36.896 211.729 36.871 211.735 36.8465 211.735Z" fill="#363E44"/>
<path d="M34.3637 212.537C34.3126 212.537 34.2637 212.508 34.2401 212.46C34.0058 211.975 33.8355 211.46 33.7337 210.931C33.6285 210.384 33.5971 209.823 33.6402 209.265C33.6459 209.189 33.7083 209.131 33.7875 209.138C33.863 209.144 33.9194 209.21 33.9136 209.286C33.8724 209.82 33.9025 210.356 34.0031 210.879C34.1003 211.385 34.2631 211.876 34.487 212.34C34.5199 212.408 34.4914 212.49 34.4231 212.523C34.404 212.532 34.3836 212.537 34.3637 212.537Z" fill="#363E44"/>
<path d="M32.5628 214.172C32.5183 214.172 32.4747 214.15 32.4484 214.11C32.1305 213.631 31.8756 213.112 31.6909 212.568C31.4998 212.005 31.3847 211.418 31.3485 210.824C31.344 210.749 31.4015 210.684 31.4772 210.679C31.5543 210.676 31.6178 210.732 31.6224 210.808C31.6571 211.377 31.7677 211.94 31.9509 212.48C32.128 213.002 32.3724 213.499 32.6772 213.959C32.7191 214.022 32.7019 214.107 32.6388 214.149C32.6152 214.164 32.5887 214.172 32.5628 214.172Z" fill="#363E44"/>
<path d="M232.394 329.119H189.937V365.478H232.394V329.119Z" fill="#DABD00"/>
<path d="M227.322 324.046H184.864V360.406H227.322V324.046Z" fill="#E2E3FF"/>
<path d="M270.32 329.171H237.179C237.103 329.171 237.042 329.11 237.042 329.034C237.042 328.958 237.103 328.897 237.179 328.897H270.32C270.396 328.897 270.458 328.958 270.458 329.034C270.458 329.11 270.396 329.171 270.32 329.171Z" fill="#3E41B5"/>
<path d="M263.282 336.958H237.179C237.103 336.958 237.042 336.897 237.042 336.821C237.042 336.745 237.103 336.684 237.179 336.684H263.282C263.357 336.684 263.419 336.745 263.419 336.821C263.419 336.897 263.357 336.958 263.282 336.958Z" fill="#3E41B5"/>
<path d="M267.681 344.012H237.179C237.103 344.012 237.042 343.951 237.042 343.875C237.042 343.799 237.103 343.738 237.179 343.738H267.681C267.757 343.738 267.818 343.799 267.818 343.875C267.818 343.951 267.757 344.012 267.681 344.012Z" fill="#3E41B5"/>
<path d="M258.162 351.433H237.179C237.103 351.433 237.042 351.372 237.042 351.296C237.042 351.22 237.103 351.159 237.179 351.159H258.162C258.238 351.159 258.299 351.22 258.299 351.296C258.299 351.372 258.238 351.433 258.162 351.433Z" fill="#3E41B5"/>
<path d="M201.093 335.023C201.76 334.69 202.451 334.458 203.149 334.322L202.885 330.541C201.704 330.723 200.531 331.088 199.407 331.651C196.676 333.017 194.703 335.304 193.678 337.949L197.313 339.019C198.039 337.343 199.335 335.902 201.093 335.023Z" fill="#EFBC73"/>
<path d="M197.104 344.915C196.639 343.603 196.535 342.23 196.752 340.92L193.118 339.85C192.663 342.054 192.831 344.401 193.715 346.61L197.104 344.915Z" fill="#EFBC73"/>
<path d="M215.676 337.842L212.287 339.537C213.627 343.311 211.969 347.592 208.298 349.429C204.626 351.265 200.206 350.023 197.99 346.687L194.601 348.382C197.762 353.574 204.452 355.568 209.984 352.801C215.517 350.034 217.934 343.486 215.676 337.842Z" fill="#D87355"/>
<path d="M205.126 334.186C207.607 334.323 209.966 335.605 211.401 337.765L214.79 336.07C212.629 332.522 208.822 330.467 204.861 330.405L205.126 334.186Z" fill="#EFBC73"/>
<path d="M152.042 308.02L149.34 301.186L146.091 302.471C145.388 301.533 144.577 300.7 143.682 299.983L145.071 296.777L138.327 293.855L136.938 297.061C135.803 296.899 134.641 296.877 133.476 297.005L132.191 293.756L125.357 296.459L126.641 299.707C125.704 300.411 124.871 301.222 124.154 302.117L120.948 300.728L118.026 307.471L121.232 308.86C121.07 309.995 121.048 311.158 121.176 312.323L117.927 313.608L120.63 320.442L123.878 319.157C124.581 320.095 125.393 320.928 126.287 321.645L124.898 324.851L131.642 327.773L133.031 324.567C134.166 324.729 135.329 324.751 136.494 324.623L137.778 327.872L144.613 325.169L143.328 321.921C144.266 321.217 145.099 320.406 145.816 319.511L149.022 320.9L151.943 314.157L148.737 312.768C148.9 311.633 148.922 310.47 148.794 309.305L152.042 308.02ZM137.797 317.927C133.869 319.481 129.425 317.555 127.871 313.627C126.318 309.698 128.243 305.254 132.172 303.701C136.1 302.147 140.544 304.073 142.098 308.001C143.651 311.93 141.726 316.374 137.797 317.927Z" fill="#E2E3FF"/>
</svg>
