<svg width="94" height="120" viewBox="0 0 94 120" fill="none" xmlns="http://www.w3.org/2000/svg">
<rect width="94" height="120" fill="#003A6B"/>
<g clip-path="url(#clip0_176_144)">
<path d="M47.0003 105.087C71.3479 105.087 91.0856 85.349 91.0856 61.0013C91.0856 36.6537 71.3479 16.9161 47.0003 16.9161C22.6527 16.9161 2.91504 36.6537 2.91504 61.0013C2.91504 85.349 22.6527 105.087 47.0003 105.087Z" fill="#2CA677"/>
<path d="M21.3867 56.6617L27.8472 56.6497L20.2844 54.1718C16.0237 43.9055 15.6473 34.6374 19.68 32.6751C24.1309 30.5093 32.2675 38.064 37.8536 49.549C43.4397 61.034 44.3599 72.1002 39.9089 74.266C35.458 76.4318 27.3213 68.8771 21.7352 57.3922C21.6167 57.1484 21.501 56.9049 21.3867 56.6617Z" fill="#81D8B6"/>
<path d="M33.3502 43.3411C33.0779 37.7593 33.4713 32.5735 34.3587 28.3444L39.2647 34.7377L35.2823 24.824C36.6858 20.4902 38.7298 17.7821 41.119 17.6789C46.0905 17.4641 50.6727 28.6052 51.3537 42.5632C52.0346 56.5212 48.5564 68.0106 43.5849 68.2254C38.6133 68.4402 34.0311 57.2991 33.3502 43.3411Z" fill="#1BA972"/>
<path d="M50.2605 98.2796C50.2141 98.2796 50.1715 98.2491 50.1583 98.2023C43.5218 74.7568 41.5033 55.5134 40.9786 43.4988C40.41 30.4777 41.4248 22.9015 41.4351 22.8263C41.4431 22.7683 41.4956 22.7272 41.5548 22.7357C41.613 22.7437 41.6536 22.7972 41.6456 22.8553C41.6353 22.9302 40.6228 30.4925 41.1912 43.4967C41.7158 55.4987 43.7328 74.7221 50.3626 98.1445C50.3786 98.2009 50.3458 98.2596 50.2894 98.2756C50.2797 98.2784 50.27 98.2796 50.2605 98.2796Z" fill="#F7F1EB"/>
<path d="M49.4009 98.6974C49.356 98.6974 49.3144 98.6688 49.2999 98.6238C43.6402 81.1125 37.2556 66.4018 32.8962 57.1447C28.1727 47.1142 24.7436 41.1483 24.7095 41.0893C24.6802 41.0385 24.6976 40.9735 24.7485 40.9442C24.7991 40.9147 24.8642 40.9322 24.8935 40.9831C24.9276 41.0422 28.3602 47.0138 33.0872 57.0515C37.4496 66.3148 43.8385 81.0354 49.5019 98.5585C49.52 98.6143 49.4894 98.6742 49.4336 98.6922C49.4227 98.6957 49.4117 98.6974 49.4009 98.6974Z" fill="#E6D0BE"/>
<path d="M59.2704 55.3009L54.6559 56.7834L59.4876 53.36C60.1801 45.4234 58.3282 39.0591 55.0006 38.6604C51.3278 38.2203 47.2481 45.2147 45.8884 54.2825C44.5286 63.3505 46.4037 71.0582 50.0765 71.4982C53.7493 71.9382 57.829 64.9439 59.1888 55.876C59.2176 55.6836 59.2445 55.4921 59.2704 55.3009Z" fill="#E6D0BE"/>
<path d="M51.3035 99.4358C51.2537 99.4358 51.2092 99.4006 51.1993 99.3499C48.2526 84.2427 48.9262 70.2578 50.01 61.1859C51.1923 51.2904 53.1255 44.7191 53.3787 44.4684C53.4206 44.427 53.4877 44.4274 53.5289 44.469C53.5688 44.5093 53.5699 44.5732 53.5325 44.6147C53.3306 44.9147 51.3835 51.3773 50.2018 61.3725C49.1355 70.392 48.4792 84.2952 51.4078 99.3091C51.419 99.3667 51.3815 99.4225 51.3239 99.4337C51.3171 99.4352 51.3102 99.4358 51.3035 99.4358Z" fill="#F7F1EB"/>
<path d="M74.753 76.2638H40.264C40.2053 76.2638 40.1577 76.2163 40.1577 76.1575V75.0271C40.1577 75.0026 40.1661 74.9788 40.1816 74.96L78.051 28.5568C78.0693 28.5343 78.0959 28.5203 78.1248 28.518C78.1543 28.5158 78.1822 28.5253 78.2039 28.5446L79.3456 29.5599C79.3709 29.5824 79.384 29.6157 79.3806 29.6495L74.8587 76.1678C74.8534 76.2223 74.8077 76.2638 74.753 76.2638ZM40.3701 76.0513H74.6566L79.1639 29.6827L78.1455 28.777L40.3702 75.065L40.3701 76.0513Z" fill="#D3BBA3"/>
<path d="M40.4805 75.0263H73.839L78.361 28.5079H45.0024L40.4805 75.0263Z" fill="#F7F1EB"/>
<path d="M86.3198 94.4576H84.331C84.2797 94.4576 84.2357 94.4209 84.2266 94.3704L76.8914 54.085C76.8896 54.0757 76.8892 54.0665 76.8901 54.0571L77.5371 46.4196C77.5416 46.3665 77.5847 46.3248 77.6379 46.3223C77.6872 46.3194 77.7379 46.357 77.7475 46.4096L86.4244 94.3325C86.43 94.3634 86.4215 94.3953 86.4014 94.4194C86.3811 94.4436 86.3512 94.4576 86.3198 94.4576ZM84.4196 94.2451H86.1926L77.681 47.2357L77.1029 54.0609L84.4196 94.2451Z" fill="#D3BBA3"/>
<path d="M72.1055 104.3H70.1166C70.066 104.3 70.0225 104.264 70.0124 104.214L64.36 76.178C64.3538 76.1468 64.3617 76.1145 64.3819 76.0898C64.4021 76.0652 64.4322 76.0509 64.4641 76.0509H66.453C66.5036 76.0509 66.5471 76.0866 66.5572 76.1362L72.2096 104.172C72.2158 104.204 72.2078 104.236 72.1876 104.261C72.1675 104.285 72.1373 104.3 72.1055 104.3ZM70.2035 104.087H71.9757L66.3661 76.2634H64.5939L70.2035 104.087Z" fill="#D3BBA3"/>
<path d="M47.4603 104.3H45.4715C45.4396 104.3 45.4095 104.285 45.3893 104.261C45.3691 104.236 45.361 104.204 45.3673 104.172L51.0198 76.1362C51.0299 76.0866 51.0733 76.0509 51.124 76.0509H53.1128C53.1446 76.0509 53.1748 76.0652 53.1949 76.0898C53.2151 76.1145 53.2231 76.1468 53.2169 76.178L47.5644 104.214C47.5544 104.264 47.5109 104.3 47.4603 104.3ZM45.6012 104.087H47.3733L52.9829 76.2634H51.2108L45.6012 104.087Z" fill="#D3BBA3"/>
<path d="M41.9543 57.8282L75.1215 57.9999L73.6225 75.0238H40.3086L41.9543 57.8282Z" fill="#D3BBA3"/>
<path d="M73.8037 72.3325H40.5249L40.7241 70.5294H74.0029L73.8037 72.3325Z" fill="#B77250"/>
<path d="M71.2435 28.2841L72.1274 57.7218L63.9422 69.7001C63.497 70.3517 63.2959 71.1395 63.3744 71.9247L63.6858 75.038H58.9238L58.2744 70.6007L67.6901 28.1759L71.2435 28.2841Z" fill="#E6D0BE"/>
<path d="M53.945 28.4998L50.4105 58.2604L44.6556 69.3642C44.0206 70.5894 43.9026 71.9258 43.8799 73.3056L44.3128 75.0372H58.9595L59.0603 71.9062C59.076 71.4185 59.1697 70.9364 59.3379 70.4784L59.7606 69.3268L69.7099 59.3805L68.8802 28.2833L53.945 28.4998Z" fill="#003A6B"/>
<path d="M49.7786 69.4908L54.2672 60.1549C55.0559 58.5463 55.5399 56.8057 55.6948 55.0209L57.9497 29.0411L56.5427 57.613L51.5508 69.6126L51.0852 70.7492C50.9785 71.0094 50.9436 71.2935 50.984 71.5719L51.4831 75.0104L48.4663 75.0375L48.7035 72.2318C48.7686 71.4609 49.0158 70.7164 49.4246 70.0595L49.7786 69.4908Z" fill="#EFBC73"/>
<path d="M61.7375 34.4532L58.4907 58.2631L53.7837 68.9338L52.9272 70.8756C52.9099 70.9148 52.8967 70.9556 52.8878 70.9975L52.0332 75.0201L56.0646 75.0472L55.9404 70.9777L56.4567 69.1309L59.4647 58.3713L61.7375 34.4532Z" fill="#EFBC73"/>
<path d="M68.6857 59.6383H61.9595V44.5088C61.9595 43.6599 62.3936 42.87 63.1102 42.4149L64.0797 41.7992L64.0716 37.1506H66.4209L66.4277 41.7992L67.4757 42.4241C68.2261 42.8715 68.6857 43.6808 68.6857 44.5545L68.6857 59.6383Z" fill="#FC8F47"/>
<path d="M67.4616 47.5022H61.9297V52.1813H67.4616V47.5022Z" fill="#E0AA63"/>
<path d="M65.6313 38.5192H64.0716C64.0128 38.5192 63.9653 38.4717 63.9653 38.413C63.9653 38.3543 64.0128 38.3068 64.0716 38.3068H65.6313C65.69 38.3068 65.7376 38.3543 65.7376 38.413C65.7375 38.4717 65.69 38.5192 65.6313 38.5192Z" fill="white"/>
<path d="M65.6313 39.0446H64.0716C64.0128 39.0446 63.9653 38.9971 63.9653 38.9384C63.9653 38.8797 64.0128 38.8322 64.0716 38.8322H65.6313C65.69 38.8322 65.7376 38.8797 65.7376 38.9384C65.7376 38.9971 65.69 39.0446 65.6313 39.0446Z" fill="white"/>
<path d="M56.0855 47.4825C55.8444 48.1779 55.7083 48.9531 55.707 49.7716C55.7024 52.772 57.4999 55.2093 59.722 55.2156C61.9441 55.2219 63.7492 52.7949 63.7539 49.7945C63.7552 48.976 63.6215 48.2001 63.3825 47.5033L56.0855 47.4825Z" fill="#E6D0BE"/>
<path d="M56.8252 52.0685C57.337 53.537 58.4413 54.5551 59.7231 54.5588C61.0097 54.5625 62.1204 53.5429 62.6344 52.0685H56.8252Z" fill="#EB4130"/>
<path d="M59.7306 55.321C59.7275 55.321 59.7246 55.321 59.7214 55.321C57.4445 55.3144 55.5958 52.8246 55.6006 49.7705C55.6018 48.9609 55.7312 48.179 55.9849 47.4468L56.0098 47.3751L63.4583 47.3964L63.4829 47.468C63.7343 48.2013 63.8612 48.9838 63.86 49.7938C63.8572 51.5613 63.2486 53.1793 62.1905 54.2327C61.4753 54.9448 60.6248 55.321 59.7306 55.321ZM56.1614 47.588C55.9313 48.2772 55.8142 49.0112 55.8131 49.7709C55.8085 52.7078 57.5621 55.1024 59.7221 55.1085C59.7249 55.1085 59.7278 55.1085 59.7305 55.1085C60.5675 55.1085 61.3661 54.7538 62.0406 54.0822C63.0441 53.0832 63.6448 51.4799 63.6475 49.7934C63.6486 49.0334 63.5338 48.2987 63.3059 47.6085L56.1614 47.588Z" fill="white"/>
<path d="M56.6824 50.3393C56.6821 50.3393 56.6817 50.3393 56.6815 50.3393C56.6229 50.3388 56.5756 50.2909 56.5762 50.2322C56.5815 49.6127 56.6845 49.016 56.8824 48.4586L56.9079 48.3868L58.8867 48.4171C58.9453 48.4181 58.9922 48.4663 58.9912 48.525C58.9903 48.5831 58.943 48.6296 58.885 48.6296C58.8845 48.6296 58.8839 48.6296 58.8834 48.6296L57.0577 48.6016C56.884 49.116 56.7935 49.6648 56.7887 50.234C56.7881 50.2923 56.7407 50.3393 56.6824 50.3393Z" fill="white"/>
<path d="M59.8011 61.1865C59.7423 61.1865 59.6948 61.139 59.6948 61.0803V55.2314C59.6948 55.1726 59.7423 55.1251 59.8011 55.1251C59.8598 55.1251 59.9073 55.1726 59.9073 55.2314V61.0803C59.9073 61.139 59.8598 61.1865 59.8011 61.1865Z" fill="white"/>
<path d="M62.21 61.2106H57.3919C57.3331 61.2106 57.2856 61.1631 57.2856 61.1044C57.2856 61.0457 57.3331 60.9982 57.3919 60.9982H62.21C62.2687 60.9982 62.3162 61.0457 62.3162 61.1044C62.3162 61.1631 62.2687 61.2106 62.21 61.2106Z" fill="white"/>
<path d="M54.6061 55.7527C53.5504 54.3471 51.9149 53.7883 50.9163 54.5072C49.9199 55.2245 49.9288 56.9471 50.9204 58.3921C50.6628 59.3791 50.8307 60.4691 51.4732 61.3616C52.6176 62.9511 54.8338 63.312 56.4234 62.1676C58.0129 61.0232 58.3738 58.807 57.2294 57.2175C56.5906 56.3301 55.6176 55.826 54.6061 55.7527Z" fill="#EFBC73"/>
<path d="M54.7968 62.9406C53.6608 62.9407 52.5405 62.4137 51.8276 61.4234C51.199 60.5504 50.9882 59.4556 51.2462 58.412C50.2395 56.9136 50.2578 55.1674 51.2948 54.4208C52.3352 53.6716 54.0005 54.2122 55.1025 55.6503C56.1668 55.7415 57.1319 56.2879 57.7563 57.1552C58.933 58.7897 58.5606 61.0768 56.926 62.2536C56.2818 62.7175 55.5359 62.9406 54.7968 62.9406ZM52.3722 54.3037C52.0196 54.3037 51.6917 54.3967 51.4188 54.5931C50.483 55.2669 50.4963 56.9441 51.4484 58.3318C51.4659 58.3572 51.4715 58.3889 51.4637 58.4187C51.2037 59.4148 51.3992 60.4647 52 61.2993C53.1083 62.8386 55.2625 63.1894 56.802 62.0811C58.3413 60.9728 58.6921 58.8186 57.5838 57.2792C56.9869 56.4502 56.0594 55.9324 55.039 55.8583C55.0084 55.8561 54.9802 55.8407 54.9617 55.8162C54.2421 54.8582 53.2331 54.3037 52.3722 54.3037Z" fill="#FFD092"/>
<path d="M51.2617 55.241C51.2177 55.241 51.1766 55.2135 51.1613 55.1698C51.0857 54.9525 50.8957 54.5409 50.4722 54.2245C50.1392 53.9757 49.796 53.8838 49.5666 53.8504C49.5085 53.842 49.4682 53.788 49.4767 53.73C49.4851 53.6719 49.5387 53.6306 49.5971 53.6402C49.8508 53.677 50.2307 53.7788 50.5994 54.0543C51.0682 54.4045 51.2784 54.8597 51.362 55.0998C51.3813 55.1552 51.352 55.2157 51.2967 55.235C51.285 55.2391 51.2733 55.241 51.2617 55.241Z" fill="#363E44"/>
<path d="M56.0269 61.2512C56.5536 61.2512 56.9806 60.3936 56.9806 59.3357C56.9806 58.2778 56.5536 57.4202 56.0269 57.4202C55.5002 57.4202 55.0732 58.2778 55.0732 59.3357C55.0732 60.3936 55.5002 61.2512 56.0269 61.2512Z" fill="#FFD092"/>
<path d="M67.8182 62.4939C67.8149 62.4939 67.8116 62.4938 67.8083 62.4935C67.7499 62.488 67.7069 62.4362 67.7123 62.3778C67.8104 61.3271 67.8591 60.2605 67.8569 59.2075C67.8543 57.9198 67.7758 56.6164 67.6238 55.3339C67.6169 55.2756 67.6585 55.2228 67.7167 55.2158C67.7756 55.2083 67.8278 55.2506 67.8348 55.3088C67.9878 56.5996 68.0667 57.9111 68.0693 59.2071C68.0715 60.2669 68.0225 61.3402 67.9239 62.3975C67.9187 62.4526 67.8725 62.4939 67.8182 62.4939Z" fill="#363E44"/>
<path d="M69.5918 55.7808C68.8614 55.7088 68.2666 55.9888 67.8463 56.5124C67.4259 55.9889 66.831 55.7088 66.1007 55.7808C64.5399 55.9347 63.9455 57.7038 64.32 59.3581C64.7328 61.1816 65.5981 62.6338 66.7649 62.5188C67.2073 62.4752 67.5679 62.2376 67.8463 61.8509C68.1246 62.2376 68.4852 62.4752 68.9276 62.5188C70.0945 62.6338 70.9597 61.1816 71.3725 59.3581C71.747 57.7038 71.1527 55.9347 69.5918 55.7808Z" fill="#E03300"/>
<path d="M69.3561 56.4822C69.2789 56.5824 69.9147 57.054 70.1282 58.0355C70.3716 59.1545 70.2562 60.0854 70.3677 60.1452C70.4997 60.2161 70.9047 58.7285 70.6503 57.592C70.4171 56.5508 69.4508 56.3592 69.3561 56.4822Z" fill="#F7F1EB"/>
<path d="M63.3697 62.2001C63.9104 62.2001 64.3488 61.8396 64.3488 61.395C64.3488 60.9504 63.9104 60.59 63.3697 60.59C62.829 60.59 62.3906 60.9504 62.3906 61.395C62.3906 61.8396 62.829 62.2001 63.3697 62.2001Z" fill="#7664E3"/>
<path d="M66.4625 63.9209C66.9239 63.9209 67.2979 63.6134 67.2979 63.234C67.2979 62.8546 66.9239 62.547 66.4625 62.547C66.001 62.547 65.627 62.8546 65.627 63.234C65.627 63.6134 66.001 63.9209 66.4625 63.9209Z" fill="#7664E3"/>
<path d="M63.7162 63.7612C64.2191 63.7612 64.6268 63.426 64.6268 63.0125C64.6268 62.599 64.2191 62.2638 63.7162 62.2638C63.2133 62.2638 62.8057 62.599 62.8057 63.0125C62.8057 63.426 63.2133 63.7612 63.7162 63.7612Z" fill="#7664E3"/>
<path opacity="0.7" d="M63.5402 62.9821C63.8494 62.9821 64.1 62.8646 64.1 62.7196C64.1 62.5747 63.8494 62.4572 63.5402 62.4572C63.2311 62.4572 62.9805 62.5747 62.9805 62.7196C62.9805 62.8646 63.2311 62.9821 63.5402 62.9821Z" fill="white"/>
<path d="M58.5366 67.1229C58.9383 67.1229 59.264 66.8073 59.264 66.418C59.264 66.0287 58.9383 65.7131 58.5366 65.7131C58.1348 65.7131 57.8091 66.0287 57.8091 66.418C57.8091 66.8073 58.1348 67.1229 58.5366 67.1229Z" fill="#7664E3"/>
<path d="M57.331 67.9392C57.7328 67.9392 58.0585 67.6236 58.0585 67.2343C58.0585 66.845 57.7328 66.5294 57.331 66.5294C56.9292 66.5294 56.6035 66.845 56.6035 67.2343C56.6035 67.6236 56.9292 67.9392 57.331 67.9392Z" fill="#7664E3"/>
<path d="M59.5867 65.9616C60.01 65.9616 60.3531 65.6795 60.3531 65.3314C60.3531 64.9834 60.01 64.7013 59.5867 64.7013C59.1634 64.7013 58.8203 64.9834 58.8203 65.3314C58.8203 65.6795 59.1634 65.9616 59.5867 65.9616Z" fill="#7664E3"/>
<path d="M62.4759 67.3642C62.8992 67.3642 63.2423 67.0821 63.2423 66.734C63.2423 66.386 62.8992 66.1039 62.4759 66.1039C62.0526 66.1039 61.7095 66.386 61.7095 66.734C61.7095 67.0821 62.0526 67.3642 62.4759 67.3642Z" fill="#7664E3"/>
<path d="M64.2537 67.2448C64.677 67.2448 65.0201 66.9627 65.0201 66.6147C65.0201 66.2666 64.677 65.9845 64.2537 65.9845C63.8304 65.9845 63.4873 66.2666 63.4873 66.6147C63.4873 66.9627 63.8304 67.2448 64.2537 67.2448Z" fill="#7664E3"/>
<path d="M65.3699 66.194C65.7932 66.194 66.1363 65.9119 66.1363 65.5639C66.1363 65.2158 65.7932 64.9337 65.3699 64.9337C64.9466 64.9337 64.6035 65.2158 64.6035 65.5639C64.6035 65.9119 64.9466 66.194 65.3699 66.194Z" fill="#7664E3"/>
<path d="M66.7034 65.3013C67.1267 65.3013 67.4698 65.0191 67.4698 64.6711C67.4698 64.3231 67.1267 64.041 66.7034 64.041C66.2801 64.041 65.937 64.3231 65.937 64.6711C65.937 65.0191 66.2801 65.3013 66.7034 65.3013Z" fill="#7664E3"/>
<path d="M60.6365 67.4012C61.0598 67.4012 61.4029 67.119 61.4029 66.771C61.4029 66.423 61.0598 66.1409 60.6365 66.1409C60.2133 66.1409 59.8701 66.423 59.8701 66.771C59.8701 67.119 60.2133 67.4012 60.6365 67.4012Z" fill="#7664E3"/>
<path d="M59.2479 68.3366C59.6711 68.3366 60.0143 68.0545 60.0143 67.7064C60.0143 67.3584 59.6711 67.0763 59.2479 67.0763C58.8246 67.0763 58.4814 67.3584 58.4814 67.7064C58.4814 68.0545 58.8246 68.3366 59.2479 68.3366Z" fill="#7664E3"/>
<path d="M64.9477 64.9057C65.4506 64.9057 65.8582 64.5705 65.8582 64.157C65.8582 63.7435 65.4506 63.4083 64.9477 63.4083C64.4448 63.4083 64.0371 63.7435 64.0371 64.157C64.0371 64.5705 64.4448 64.9057 64.9477 64.9057Z" fill="#7664E3"/>
<path d="M63.506 66.1C64.0028 66.0221 64.3536 65.6278 64.2896 65.2193C64.2255 64.8108 63.7709 64.5428 63.2741 64.6207C62.7773 64.6986 62.4264 65.0929 62.4905 65.5014C62.5545 65.9099 63.0092 66.1779 63.506 66.1Z" fill="#7664E3"/>
<path d="M61.5364 66.1118C61.965 66.0446 62.2677 65.7044 62.2125 65.3519C62.1572 64.9995 61.7649 64.7682 61.3362 64.8355C60.9076 64.9027 60.6049 65.2429 60.6601 65.5953C60.7154 65.9478 61.1077 66.179 61.5364 66.1118Z" fill="#7664E3"/>
<path d="M60.4233 64.7944C60.9261 64.7944 61.3338 64.4592 61.3338 64.0457C61.3338 63.6322 60.9261 63.297 60.4233 63.297C59.9204 63.297 59.5127 63.6322 59.5127 64.0457C59.5127 64.4592 59.9204 64.7944 60.4233 64.7944Z" fill="#7664E3"/>
<path d="M62.3227 64.8002C62.8256 64.8002 63.2332 64.465 63.2332 64.0515C63.2332 63.6381 62.8256 63.3029 62.3227 63.3029C61.8198 63.3029 61.4121 63.6381 61.4121 64.0515C61.4121 64.465 61.8198 64.8002 62.3227 64.8002Z" fill="#7664E3"/>
<path d="M61.9335 63.2533C62.4364 63.2533 62.8441 62.9181 62.8441 62.5047C62.8441 62.0912 62.4364 61.756 61.9335 61.756C61.4306 61.756 61.0229 62.0912 61.0229 62.5047C61.0229 62.9181 61.4306 63.2533 61.9335 63.2533Z" fill="#7664E3"/>
<path d="M65.3923 62.4458C65.3428 62.4458 65.2984 62.4111 65.2883 62.3606C65.2766 62.303 65.3139 62.247 65.3714 62.2354C66.7483 61.9575 67.2682 60.9275 67.6249 59.856C67.6434 59.8003 67.7035 59.7704 67.7592 59.7887C67.8149 59.8072 67.8451 59.8674 67.8266 59.923C67.4496 61.0554 66.8964 62.1443 65.4135 62.4437C65.4063 62.4452 65.3993 62.4458 65.3923 62.4458Z" fill="#7664E3"/>
<path d="M65.3619 62.7215C65.9026 62.7215 66.341 62.3611 66.341 61.9165C66.341 61.4719 65.9026 61.1115 65.3619 61.1115C64.8212 61.1115 64.3828 61.4719 64.3828 61.9165C64.3828 62.3611 64.8212 62.7215 65.3619 62.7215Z" fill="#7664E3"/>
<path opacity="0.7" d="M66.1757 61.7129C66.1338 61.8517 65.8599 61.8917 65.5639 61.8023C65.268 61.7129 65.0621 61.5279 65.1041 61.3891C65.146 61.2504 65.4199 61.2103 65.7158 61.2998C66.0117 61.3892 66.2177 61.5742 66.1757 61.7129Z" fill="white"/>
<path opacity="0.7" d="M64.0565 61.1309C64.0146 61.2697 63.7407 61.3097 63.4448 61.2203C63.1489 61.1309 62.943 60.9459 62.9849 60.8071C63.0269 60.6683 63.3007 60.6283 63.5967 60.7177C63.8926 60.8071 64.0985 60.9921 64.0565 61.1309Z" fill="white"/>
<path d="M30.19 95.9454L29.8791 101.853L24.7383 101.62L24.816 96.1786L30.19 95.9454Z" fill="white"/>
<path d="M16.8984 95.7051L16.5609 101.612L11.4995 101.379L11.5838 95.9382L16.8984 95.7051Z" fill="white"/>
<path d="M15.0719 57.7325C13.3534 59.5122 11.0897 62.3425 9.7201 66.2953C8.34946 70.2511 8.50672 73.5051 9.0779 80.4242C9.61902 86.9789 10.2104 92.9324 10.7904 98.1923C13.2523 98.0852 15.286 98.0852 17.7478 97.9782C18.4614 89.3083 18.5328 80.7453 19.2463 72.0754C20.0669 75.9287 21.9579 79.5679 22.7785 83.4212C22.9926 88.2022 23.8489 93.0902 24.0629 97.8711C26.6318 97.8711 28.5585 97.7641 31.1274 97.7641C31.8671 93.0986 32.3984 86.4916 31.3414 78.7116C30.1758 70.1317 27.5205 63.3798 25.3474 58.9098C21.9222 58.5173 18.497 58.125 15.0719 57.7325Z" fill="#003A6B"/>
<path d="M10.2734 104.703L11.4894 100.932H16.7591L19.2858 101.447C21.1192 101.818 22.3559 103.35 22.339 104.703H10.2734Z" fill="#363E44"/>
<path d="M23.5151 104.703L24.7311 100.932H30.0008L32.5275 101.447C34.3609 101.818 35.5976 103.35 35.5807 104.703H23.5151Z" fill="#363E44"/>
<path d="M35.4859 104.056H23.7273C23.6686 104.056 23.6211 104.009 23.6211 103.95C23.6211 103.891 23.6686 103.844 23.7273 103.844H35.4859C35.5445 103.844 35.5921 103.891 35.5921 103.95C35.5921 104.009 35.5445 104.056 35.4859 104.056Z" fill="white"/>
<path d="M22.2447 104.056H10.4861C10.4274 104.056 10.3799 104.009 10.3799 103.95C10.3799 103.891 10.4274 103.844 10.4861 103.844H22.2447C22.3033 103.844 22.3509 103.891 22.3509 103.95C22.3509 104.009 22.3033 104.056 22.2447 104.056Z" fill="white"/>
<path d="M18.2275 46.4415H21.8818V39.7286H18.2275V46.4415Z" fill="#363E44"/>
<path d="M9.91485 47.4904C7.75434 49.7977 1.13056 56.1032 3.66568 58.6706C5.76264 60.7942 11.9571 54.3877 14.2441 52.2254C12.801 50.6471 11.3579 49.0687 9.91485 47.4904Z" fill="white"/>
<path d="M29.254 48.5118C35.0583 50.9198 38.0939 52.8843 37.0024 55.0052C36.3692 56.2356 31.7879 55.8793 27.1074 54.2218C27.5783 52.2937 28.2666 50.7442 29.254 48.5118Z" fill="white"/>
<path d="M31.1983 52.9746C31.1983 52.9744 31.1983 52.9743 31.1982 52.9741C34.4475 48.31 36.6633 44.9385 37.3883 43.9246C37.4642 43.8184 37.5974 43.6304 37.8303 43.442C38.6931 42.7441 39.5423 43.16 40.7847 42.8401C42.1945 42.477 42.7824 41.4748 43.0854 41.6902C43.2962 41.8401 43.181 42.2805 42.6376 43.0202C42.6376 43.0203 42.6376 43.0204 42.6377 43.0204C43.1152 42.5058 43.7932 41.8363 44.077 42.1009C44.3884 42.424 43.6843 43.3041 43.2323 43.8157C43.7794 43.1964 44.2557 43.0308 44.3772 43.2177C44.5684 43.5119 44.2561 44.0909 43.5012 44.8813L43.5013 44.8813C44.1751 44.4811 44.3982 44.4844 44.4653 44.6758C44.5878 45.0253 43.9549 45.6634 43.3089 46.1418C42.5817 46.6804 41.8306 46.8459 41.3546 46.9389C41.3545 46.939 41.3544 46.9391 41.3543 46.9392C39.8313 49.6935 37.8272 53.3888 37.0403 54.8421C36.8402 55.2117 36.4088 55.3897 36.0063 55.2683C34.7962 54.9033 32.3266 54.0613 31.1983 52.9746Z" fill="white"/>
<path d="M38.5007 43.2485C38.454 43.2485 38.4112 43.2175 38.3983 43.1703C38.3828 43.1137 38.4162 43.0553 38.4728 43.0398C38.7887 42.9536 39.1138 42.9447 39.458 42.9353C39.6161 42.931 39.7797 42.9265 39.9499 42.9145C40.0109 42.9096 40.0592 42.9544 40.0634 43.0129C40.0675 43.0714 40.0234 43.1222 39.965 43.1263C39.7901 43.1387 39.6242 43.1433 39.4638 43.1476C39.1327 43.1566 38.82 43.1653 38.5287 43.2447C38.5194 43.2473 38.5099 43.2485 38.5007 43.2485Z" fill="#363E44"/>
<path d="M41.636 43.6795C41.5903 43.6795 41.5481 43.6498 41.5343 43.6038C41.5174 43.5476 41.5493 43.4884 41.6055 43.4715C41.7668 43.423 41.9245 43.3592 42.0743 43.2818C42.2911 43.1697 42.4927 43.0285 42.6734 42.8622C42.7165 42.8223 42.7837 42.8253 42.8235 42.8683C42.8632 42.9116 42.8604 42.9787 42.8173 43.0184C42.6227 43.1976 42.4055 43.3498 42.1718 43.4706C42.0104 43.554 41.8405 43.6227 41.6666 43.675C41.6564 43.678 41.6461 43.6795 41.636 43.6795Z" fill="#363E44"/>
<path d="M42.2986 44.3924C42.253 44.3924 42.2107 44.3627 42.1969 44.3167C42.18 44.2606 42.2119 44.2013 42.268 44.1844C42.4296 44.1358 42.5873 44.0719 42.7369 43.9946C42.9536 43.8826 43.1552 43.7414 43.336 43.5751C43.3792 43.5352 43.4463 43.5381 43.4861 43.5813C43.5258 43.6245 43.523 43.6916 43.4799 43.7314C43.2852 43.9107 43.068 44.0627 42.8344 44.1835C42.6733 44.2667 42.5033 44.3354 42.3292 44.3879C42.3191 44.3909 42.3087 44.3924 42.2986 44.3924Z" fill="#363E44"/>
<path d="M42.5207 45.5545C42.4751 45.5545 42.4329 45.5248 42.4191 45.4789C42.4022 45.4227 42.434 45.3634 42.4902 45.3465C42.6518 45.2978 42.8095 45.234 42.9589 45.1568C43.1759 45.0447 43.3774 44.9035 43.5581 44.7373C43.6012 44.6975 43.6685 44.7002 43.7082 44.7434C43.748 44.7865 43.7452 44.8538 43.702 44.8935C43.5074 45.0728 43.2902 45.2248 43.0565 45.3456C42.8955 45.4288 42.7255 45.4975 42.5514 45.5501C42.5412 45.5531 42.5309 45.5545 42.5207 45.5545Z" fill="#363E44"/>
<path d="M39.4265 45.844C39.4078 45.844 39.3888 45.8391 39.3717 45.8288C39.3214 45.7984 39.3053 45.7331 39.3356 45.6829C39.4753 45.4515 39.7329 45.1323 40.1665 44.9257C40.7799 44.6334 41.3632 44.7578 41.5855 44.8244C41.6417 44.8414 41.6735 44.9007 41.6566 44.9568C41.6397 45.013 41.5803 45.0447 41.5243 45.028C41.3254 44.968 40.8044 44.8572 40.2579 45.1174C39.8719 45.3014 39.6423 45.5862 39.5176 45.7926C39.4976 45.8257 39.4624 45.844 39.4265 45.844Z" fill="#363E44"/>
<path d="M31.235 53.0277C31.2141 53.0277 31.1929 53.0214 31.1745 53.0086C31.1263 52.9751 31.1144 52.9089 31.148 52.8608C31.8663 51.8293 32.5755 50.802 33.316 49.7202C33.3491 49.6718 33.4151 49.6593 33.4636 49.6925C33.512 49.7256 33.5244 49.7918 33.4913 49.8401C32.7505 50.9225 32.041 51.9503 31.3223 52.9821C31.3017 53.0118 31.2687 53.0277 31.235 53.0277Z" fill="#363E44"/>
<path d="M8.16113 47.2199C8.16113 47.2199 13.9456 44.4718 19.256 44.9456C24.5664 45.4194 29.7582 47.5042 29.7582 47.5042L27.2216 53.948L27.5094 64.7546L10.6959 65.5766L10.6267 54.3507L8.16113 47.2199Z" fill="#003A6B"/>
<path d="M36.8357 41.8162C35.3362 41.7242 31.7208 43.4007 31.9285 45.2809C32.109 46.9148 35.5314 48.7612 41.4142 49.0184C47.6531 49.2911 53.9567 47.4151 54.2168 45.4454C54.4377 43.7725 50.2111 42.5521 46.0853 42.4818C43.1357 42.4315 41.118 43.1574 39.2365 42.8885C37.8197 42.6859 37.828 41.877 36.8357 41.8162Z" fill="white"/>
<path d="M42.4626 49.2507C42.0625 49.2507 41.6632 49.2424 41.2646 49.2249C35.2838 48.9635 31.8615 47.0555 31.6779 45.393C31.6168 44.8397 31.8535 44.2781 32.3815 43.7236C33.4851 42.5648 35.609 41.7426 36.6971 41.8106C37.1971 41.8412 37.4633 42.0518 37.7451 42.2748C38.0448 42.5118 38.3845 42.7806 39.1066 42.8837C40.074 43.0219 41.0814 42.8931 42.2477 42.7435C43.3147 42.6067 44.5235 42.4527 45.9421 42.476C49.515 42.5368 52.838 43.4279 53.8435 44.5947C54.1087 44.9026 54.2209 45.2273 54.1771 45.5598C53.92 47.5072 48.2068 49.2505 42.4626 49.2507ZM36.5685 42.0192C35.5119 42.0192 33.545 42.81 32.5354 43.8701C32.0526 44.377 31.8351 44.8816 31.8891 45.3697C32.0631 46.9443 35.4113 48.7564 41.2738 49.0126C44.1986 49.1404 47.3369 48.7974 49.8834 48.071C52.322 47.3755 53.8483 46.4264 53.9665 45.532C54.0021 45.2622 53.9065 44.9934 53.6825 44.7334C52.7131 43.6083 49.4563 42.7483 45.9385 42.6884C44.5367 42.6647 43.3346 42.8183 42.2748 42.9542C41.0932 43.1057 40.0728 43.2366 39.0765 43.094C38.2977 42.9827 37.9341 42.695 37.6133 42.4413C37.3364 42.2222 37.1176 42.0491 36.6842 42.0226C36.647 42.0204 36.6084 42.0192 36.5685 42.0192Z" fill="#D3BBA3"/>
<path d="M35.7873 45.7102C37.1025 45.6917 38.1638 45.3387 38.158 44.922C38.1521 44.5052 37.0812 44.1823 35.766 44.2009C34.4509 44.2194 33.3895 44.5723 33.3954 44.9891C33.4013 45.4059 34.4722 45.7287 35.7873 45.7102Z" fill="#776E42"/>
<path d="M34.1477 44.4267C35.1071 44.1294 36.6141 44.1257 37.5136 44.4183C37.911 44.5476 38.1231 44.7131 38.1537 44.8832C38.0886 45.0536 37.8429 45.2203 37.4191 45.3516C36.4597 45.6489 34.9527 45.6526 34.0531 45.36C33.6557 45.2307 33.4437 45.0652 33.4131 44.8951C33.4781 44.7247 33.7239 44.558 34.1477 44.4267Z" fill="#003A6B"/>
<path d="M38.6877 47.6887C40.0029 47.6702 41.0642 47.3173 41.0584 46.9005C41.0525 46.4837 39.9816 46.1608 38.6664 46.1794C37.3513 46.1979 36.2899 46.5508 36.2958 46.9676C36.3017 47.3844 37.3726 47.7073 38.6877 47.6887Z" fill="#E0AA63"/>
<path d="M37.86 46.2367C39.0953 46.078 40.4625 46.2622 40.9138 46.648C41.1131 46.8184 41.1 46.9997 40.9172 47.1627C40.6475 47.314 40.2192 47.4393 39.6735 47.5094C38.4381 47.6681 37.0709 47.4839 36.6197 47.0981C36.4204 46.9277 36.4334 46.7464 36.6162 46.5834C36.8859 46.4322 37.3143 46.3068 37.86 46.2367Z" fill="#EFBC73"/>
<path d="M44.677 48.4504C45.9921 48.4319 47.0535 48.079 47.0476 47.6622C47.0417 47.2454 45.9708 46.9225 44.6557 46.9411C43.3406 46.9596 42.2792 47.3125 42.2851 47.7293C42.2909 48.1461 43.3618 48.469 44.677 48.4504Z" fill="#D3BBA3"/>
<path d="M42.8636 47.2264C43.7232 46.9 45.227 46.8461 46.2223 47.1059C46.662 47.2207 46.9286 47.3775 47.0155 47.545C47.007 47.7159 46.8168 47.8891 46.4371 48.0332C45.5775 48.3597 44.0737 48.4136 43.0784 48.1537C42.6387 48.039 42.3721 47.8821 42.2852 47.7147C42.2937 47.5438 42.4839 47.3706 42.8636 47.2264Z" fill="#D3BBA3"/>
<path d="M49.6076 46.9836C50.9228 46.9651 51.9842 46.6122 51.9783 46.1954C51.9724 45.7786 50.9015 45.4557 49.5864 45.4743C48.2712 45.4928 47.2098 45.8458 47.2157 46.2625C47.2216 46.6793 48.2925 47.0022 49.6076 46.9836Z" fill="#D3BBA3"/>
<path d="M47.7943 45.7596C48.6539 45.4332 50.1576 45.3793 51.1529 45.6391C51.5926 45.7539 51.8592 45.9107 51.9462 46.0782C51.9376 46.2491 51.7474 46.4223 51.3677 46.5664C50.5081 46.8929 49.0044 46.9468 48.0091 46.6869C47.5694 46.5722 47.3027 46.4153 47.2158 46.2479C47.2243 46.077 47.4146 45.9038 47.7943 45.7596Z" fill="#D87355"/>
<path d="M49.2102 44.9426C50.5253 44.9241 51.5867 44.5712 51.5808 44.1544C51.5749 43.7376 50.504 43.4147 49.1889 43.4333C47.8738 43.4518 46.8124 43.8047 46.8183 44.2215C46.8241 44.6383 47.895 44.9612 49.2102 44.9426Z" fill="#D3BBA3"/>
<path d="M47.3968 43.7186C48.2564 43.3922 49.7602 43.3382 50.7555 43.5981C51.1952 43.7129 51.4618 43.8697 51.5487 44.0372C51.5402 44.2081 51.35 44.3813 50.9703 44.5254C50.1107 44.8518 48.607 44.9058 47.6116 44.6459C47.1719 44.5312 46.9053 44.3743 46.8184 44.2068C46.8269 44.036 47.0171 43.8627 47.3968 43.7186Z" fill="#E6D0BE"/>
<path d="M39.3002 44.4635C40.0115 44.4635 40.5881 44.2649 40.5881 44.0199C40.5881 43.7749 40.0115 43.5762 39.3002 43.5762C38.5889 43.5762 38.0122 43.7749 38.0122 44.0199C38.0122 44.2649 38.5889 44.4635 39.3002 44.4635Z" fill="#E6D0BE"/>
<path d="M39.7723 44.179C39.9786 44.1468 40.2772 43.9845 40.3962 43.8128C41.0655 42.8469 41.1076 42.3365 40.9367 42.2165C40.6408 42.0087 39.6125 42.5992 38.2615 43.9391C38.1641 44.0357 38.237 44.1814 38.3732 44.1972C38.9566 44.2649 39.3144 44.2506 39.7723 44.179Z" fill="white"/>
<path d="M14.9363 52.0051L24.6881 51.5567L26.6122 60.2717L27.8079 63.5597C30.0777 70.3547 31.5758 76.7909 31.9178 82.6896L32.2915 91.7315L8.30433 92.404C8.16798 81.7095 8.0457 69.1428 10.5461 63.4101L14.0583 60.1222L14.9363 52.0051Z" fill="#77E5FE"/>
<path d="M14.9926 52.1934C14.9451 52.1934 14.9018 52.1613 14.8897 52.1131L13.2083 45.4251C13.194 45.3682 13.2285 45.3105 13.2854 45.2962C13.3419 45.2821 13.4001 45.3164 13.4143 45.3733L15.0957 52.0613C15.11 52.1182 15.0755 52.1759 15.0186 52.1902C15.0099 52.1924 15.0012 52.1934 14.9926 52.1934Z" fill="#363E44"/>
<path d="M24.5761 51.8857C24.5701 51.8857 24.5641 51.8851 24.5581 51.8841C24.5003 51.8744 24.4614 51.8195 24.4713 51.7616L25.424 46.1665C25.4339 46.1087 25.4884 46.07 25.5466 46.0797C25.6044 46.0894 25.6433 46.1443 25.6334 46.2022L24.6807 51.7973C24.6718 51.849 24.6269 51.8857 24.5761 51.8857Z" fill="#363E44"/>
<path d="M21.7027 49.2683L21.6602 47.8718C21.6371 47.1153 22.0251 46.4054 22.6744 46.0163L24.9568 44.6485L24.8485 47.7385C24.8286 48.3057 24.5567 48.8346 24.107 49.1809L23.0226 50.0159L21.7027 49.2683Z" fill="white"/>
<path d="M15.9191 63.5258L14.9079 64.5588L14.8574 63.0419L21.6146 48.7051L23.4968 49.6784L15.9191 63.5258Z" fill="#B77250"/>
<path d="M22.1128 49.1923C22.0612 49.1923 22.0159 49.1546 22.0079 49.1021C21.7585 47.459 22.6051 46.103 24.5241 45.0715C24.5759 45.0435 24.6401 45.0629 24.6679 45.1147C24.6957 45.1664 24.6763 45.2308 24.6247 45.2586C22.7932 46.2431 21.9835 47.5254 22.2179 49.0701C22.2268 49.1281 22.1869 49.1824 22.1289 49.191C22.1235 49.1919 22.1182 49.1923 22.1128 49.1923Z" fill="#E6D0BE"/>
<path d="M23.1722 49.7074C23.1389 49.7074 23.1059 49.6918 23.0853 49.6623C23.0515 49.6144 23.0631 49.5481 23.1111 49.5142C24.1255 48.8006 24.575 47.5741 24.5257 45.654C24.5242 45.5955 24.5705 45.5467 24.6291 45.5451C24.6844 45.5445 24.7365 45.5899 24.7381 45.6487C24.7894 47.6462 24.3113 48.9298 23.2333 49.6881C23.2147 49.7012 23.1933 49.7074 23.1722 49.7074Z" fill="#E6D0BE"/>
<path d="M22.6853 49.5634C22.6714 49.5634 22.6573 49.5607 22.6436 49.5549C22.5897 49.5317 22.5646 49.4694 22.5877 49.4154L24.0188 46.0667C24.0418 46.0127 24.1041 45.9874 24.1582 46.0106C24.2122 46.0338 24.2372 46.0961 24.2142 46.1501L22.7831 49.4988C22.7659 49.5392 22.7266 49.5634 22.6853 49.5634Z" fill="#E6D0BE"/>
<path d="M20.8008 50.4313L21.6144 48.7051L23.4965 49.6784L22.5808 51.3518L20.8008 50.4313Z" fill="#84524D"/>
<path d="M6.02425 53.9803C8.46653 54.5113 14.2799 55.4774 14.8436 55.5943C15.8974 55.8127 21.1018 56.6761 20.9686 57.7026C20.9171 58.0997 20.2757 58.1559 19.9075 58.0758C20.1729 58.287 20.5855 58.5793 20.4169 58.9954C20.2187 59.4842 19.466 59.2594 19.4372 59.2638C19.7286 59.451 20.0175 59.7622 19.9032 60.079C19.7545 60.4911 19.3535 60.5607 18.9678 60.4474C18.9928 60.5119 19.3705 60.8204 19.2374 61.2006C19.139 61.4813 18.7288 61.5174 18.2349 61.4564C17.2985 61.263 13.619 60.7067 11.8188 60.5214C7.5907 60.0863 4.24658 59.0245 4.24658 59.0245C4.24658 59.0245 4.82586 54.5915 6.02425 53.9803Z" fill="white"/>
<path d="M10.4684 54.8661C10.4622 54.8661 10.4557 54.8656 10.4493 54.8644C9.26737 54.6493 6.817 54.1983 6.00279 54.0306C5.94532 54.0188 5.90836 53.9625 5.92016 53.9052C5.93192 53.8476 5.98834 53.8105 6.04563 53.8225C6.8579 53.9897 9.3062 54.4405 10.4874 54.6554C10.545 54.6659 10.5833 54.7212 10.5728 54.7789C10.5635 54.8302 10.5188 54.8661 10.4684 54.8661Z" fill="#363E44"/>
<path d="M18.1406 66.0887C18.7648 65.5946 19.9434 66.4443 20.2568 66.0431C20.5746 65.6364 19.6102 64.4457 19.8472 64.2455C20.0189 64.1006 20.5761 64.7025 20.8484 64.5186C21.1466 64.3172 20.7371 63.642 20.9394 62.6072C21.0122 62.2349 21.1473 61.544 21.6676 61.2419C22.4679 60.7772 23.864 61.4158 24.0341 62.1521C24.0801 62.3511 24.0174 62.475 23.3969 63.8814C23.0855 64.5873 22.9319 64.9427 23.0329 65.0646C23.2078 65.276 23.7228 64.9569 24.8532 64.7916C25.6914 64.669 26.2548 64.5866 26.4916 64.8826C26.8131 65.2846 26.4755 66.3136 25.8544 66.612C25.5038 66.7804 25.3022 66.6009 24.2161 66.521C23.3361 66.4562 22.8969 66.4123 22.7598 66.612C22.4954 66.9969 23.4687 67.6298 23.4424 68.8646C23.4386 69.0403 23.4217 69.8373 22.8691 70.2123C22.5772 70.4105 22.2525 70.4115 22.1226 70.4119C22.0672 70.4121 21.4494 70.4054 21.0304 69.9796C20.5094 69.4502 20.9025 68.8894 20.5071 68.455C19.9269 67.8177 18.7272 68.6365 18.0951 68.0227C17.6176 67.5593 17.66 66.4691 18.1406 66.0887Z" fill="#005592"/>
<path d="M13.7411 76.9101C14.2078 76.1725 12.6589 75.0604 13.013 73.6335C13.2095 72.8412 13.9397 72.1658 14.3783 72.2682C14.9073 72.3916 14.5486 73.5682 15.3794 74.7257C16.2067 75.8782 17.2374 75.66 17.5639 76.637C17.8075 77.3659 17.5142 78.3262 16.9268 78.7304C16.3129 79.1529 15.8694 78.6299 15.0154 78.958C13.848 79.4064 13.8843 80.6882 12.9219 80.8239C12.3564 80.9037 11.822 80.536 11.5567 80.1867C11.0318 79.4962 11.1852 78.2522 11.8297 77.6382C12.5321 76.9692 13.4045 77.4421 13.7411 76.9101Z" fill="#FADB3F"/>
<path d="M18.4996 35.2987C18.6474 35.2649 20.0671 34.9629 21.0577 35.8322C21.7948 36.479 21.9927 37.4055 22.0894 39.0096C22.2034 40.8987 22.0074 42.0438 21.5155 42.4829C20.7385 43.1766 18.0161 42.199 16.845 40.6875C15.9997 39.5964 15.8829 38.0661 16.4652 36.8043C17.0459 35.5459 18.4053 35.3202 18.4996 35.2987Z" fill="white"/>
<path d="M18.8126 47.0125H18.6374C17.7603 47.0125 17.0493 46.3015 17.0493 45.4244V40.4045C17.0493 39.5275 17.7603 38.8165 18.6374 38.8165H18.8126C19.6896 38.8165 20.4006 39.5275 20.4006 40.4045V45.4244C20.4006 46.3015 19.6896 47.0125 18.8126 47.0125Z" fill="white"/>
<path d="M20.4085 42.8551C20.4042 42.8551 20.3999 42.8549 20.3956 42.8544C19.2991 42.7229 17.6528 41.9624 16.7615 40.812C16.7256 40.7656 16.7341 40.6989 16.7805 40.6629C16.8267 40.6272 16.8935 40.6353 16.9295 40.6819C17.7543 41.7466 19.3524 42.5154 20.4209 42.6434C20.4792 42.6504 20.5207 42.7032 20.5137 42.7615C20.5073 42.8155 20.4615 42.8551 20.4085 42.8551Z" fill="#363E44"/>
<path d="M16.1865 45.6357C16.1865 46.4424 17.0732 47.2084 18.6964 47.2084C20.3197 47.2084 21.0521 46.4226 21.0521 45.6159C21.0521 44.8091 20.3197 44.287 18.6964 44.287C17.0732 44.287 16.1865 44.8289 16.1865 45.6357Z" fill="white"/>
<path d="M19.0371 38.5832C19.0371 38.5832 19.2789 39.1101 19.7701 39.48C19.8736 39.5579 20.3068 38.576 20.1729 38.5484C19.5805 38.4266 19.0371 38.5832 19.0371 38.5832Z" fill="white"/>
<path d="M21.6529 39.7811C21.6529 39.7811 20.8361 40.0166 20.1137 39.6855C19.9874 39.6277 19.8727 39.5561 19.7688 39.4777C19.7304 39.1075 19.8921 38.76 20.1701 38.5469C20.3049 38.5744 20.4421 38.6163 20.5762 38.6777C21.2986 39.0088 21.6529 39.7811 21.6529 39.7811Z" fill="#363E44"/>
<path d="M21.0287 41.1263C20.9232 41.1263 20.8193 41.0931 20.7346 41.0267C20.521 40.8592 20.5562 40.5839 20.5578 40.5723C20.5658 40.5141 20.6197 40.4732 20.6776 40.4816C20.7357 40.4896 20.7763 40.5432 20.7683 40.6013C20.7681 40.6026 20.7489 40.768 20.8657 40.8595C20.96 40.9335 21.0993 40.9322 21.2044 40.8568C21.2521 40.8223 21.3184 40.8334 21.3527 40.8811C21.3868 40.9289 21.3759 40.9951 21.3283 41.0294C21.2382 41.094 21.1327 41.1263 21.0287 41.1263Z" fill="#363E44"/>
<path d="M21.9902 39.6231C21.9965 39.7151 22.019 39.8485 22.1 39.9794C22.1977 40.1373 22.3082 40.1746 22.3194 40.2808C22.3268 40.352 22.2901 40.4599 22.0725 40.6097L21.9902 39.6231Z" fill="white"/>
<path d="M22.0728 40.7169C22.039 40.7169 22.0058 40.7008 21.9852 40.6709C21.952 40.6226 21.9642 40.5564 22.0125 40.5231C22.2076 40.3888 22.216 40.3128 22.2139 40.2927C22.2118 40.2723 22.1952 40.2538 22.1516 40.2096C22.1104 40.1678 22.0592 40.1159 22.0099 40.0361C21.937 39.9184 21.8948 39.7821 21.8845 39.6312C21.8805 39.5726 21.9247 39.522 21.9833 39.5179C22.0407 39.5153 22.0925 39.5582 22.0965 39.6167C22.1044 39.7328 22.136 39.8363 22.1906 39.9244C22.2273 39.9838 22.2657 40.0227 22.3029 40.0604C22.3581 40.1164 22.4152 40.1743 22.4253 40.2708C22.44 40.4129 22.3444 40.5527 22.1329 40.6982C22.1146 40.7108 22.0936 40.7169 22.0728 40.7169Z" fill="#363E44"/>
<path d="M16.183 34.8172C19.1013 33.4448 22.1625 35.2759 21.9232 37.5002C21.9232 37.5002 20.825 36.2324 20.825 36.2062C20.6256 36.5978 20.2721 37.1688 19.671 37.7001C18.7424 38.5207 17.745 38.785 17.2583 38.8794C17.2583 42.78 17.2583 46.6807 17.2583 50.5813H14.996V47.6702L14.3339 50.5813H11.7891C11.7891 50.5813 11.5017 37.0187 16.183 34.8172Z" fill="#363E44"/>
<path d="M18.4361 40.449C18.9037 40.1474 18.9936 39.4546 18.6369 38.9016C18.2802 38.3486 17.6121 38.1447 17.1445 38.4462C16.6769 38.7478 16.587 39.4406 16.9437 39.9936C17.3004 40.5467 17.9685 40.7506 18.4361 40.449Z" fill="white"/>
<path d="M17.433 39.9268C17.4043 39.9268 17.3757 39.9153 17.3547 39.8925C17.3233 39.8582 17.2944 39.8208 17.2688 39.781C17.1678 39.6239 17.1247 39.4418 17.1476 39.2684C17.1713 39.0884 17.2624 38.9393 17.4043 38.8482C17.4764 38.8019 17.5569 38.7737 17.6436 38.7644C17.7018 38.758 17.7544 38.8002 17.7607 38.8586C17.767 38.9169 17.7248 38.9692 17.6665 38.9756C17.6128 38.9814 17.5631 38.9987 17.519 39.027C17.4307 39.0837 17.3735 39.1793 17.3582 39.2962C17.3419 39.4198 17.3736 39.5511 17.4476 39.6661C17.4665 39.6956 17.4879 39.7233 17.5112 39.7486C17.5509 39.7919 17.5481 39.859 17.5048 39.8988C17.4844 39.9176 17.4587 39.9268 17.433 39.9268Z" fill="#363E44"/>
<path d="M50.5463 98.9375H46.0161V104.933H50.5463V98.9375Z" fill="#D3BBA3"/>
<path d="M50.8795 98.4045H45.6831V99.8035H50.8795V98.4045Z" fill="#9E460D"/>
<path d="M63.0702 98.9803H58.54V104.976H63.0702V98.9803Z" fill="#EFBC73"/>
<path d="M63.4035 98.4473H58.207V99.8463H63.4035V98.4473Z" fill="#9E460D"/>
<path d="M56.8085 99.0078H52.2783V105.004H56.8085V99.0078Z" fill="#D87355"/>
<path d="M57.1417 98.4748H51.9453V99.8738H57.1417V98.4748Z" fill="#9E460D"/>
<path d="M82.5952 82.6855C85.1783 82.6855 87.2723 82.2352 87.2723 81.6796C87.2723 81.1241 85.1783 80.6738 82.5952 80.6738C80.012 80.6738 77.918 81.1241 77.918 81.6796C77.918 82.2352 80.012 82.6855 82.5952 82.6855Z" fill="#D3BBA3"/>
<path d="M80.8936 72.3392L81.5815 71.5471C81.7157 72.0879 81.9799 72.5668 82.3679 72.9869C82.5389 73.1721 82.6714 73.3919 82.7292 73.6373C82.7822 73.8622 82.7969 74.0956 82.7716 74.3276L82.6105 75.8046L80.8196 75.9175L80.4913 74.5838C80.3433 73.9828 80.3898 73.3531 80.6197 72.7839C80.6853 72.6214 80.7787 72.4715 80.8936 72.3392Z" fill="#BC8271"/>
<path d="M80.835 75.917L82.6136 75.8049L82.6243 78.4386L81.155 78.5312L80.835 75.917Z" fill="#2D353A"/>
<path d="M82.0927 91.088L83.2527 91.0149L82.6246 78.4377L81.1553 78.5303L82.0927 91.088Z" fill="#EFBC73"/>
<path d="M80.8193 75.918L81.4685 75.8771L81.7885 78.4914L81.1394 78.5323L80.8193 75.918Z" fill="#40484C"/>
<path d="M77.9127 69.508L77.6797 72.9243L79.2249 72.6708L77.9127 69.508Z" fill="white"/>
<path d="M78.4632 70.8242L77.9131 69.4983L77.8154 70.9304L78.4632 70.8242Z" fill="#D87355"/>
<path d="M81.77 91.4843L81.2787 91.5649C80.9877 91.6126 80.713 91.4154 80.6653 91.1244L77.6797 72.9236L79.2249 72.6701L82.2105 90.8709C82.2582 91.1619 82.061 91.4365 81.77 91.4843Z" fill="#D87355"/>
<path d="M80.8108 88.663C80.7596 88.663 80.7146 88.6261 80.7062 88.574L78.1259 72.8444C78.1164 72.7866 78.1556 72.7319 78.2135 72.7224C78.2715 72.7124 78.326 72.7521 78.3355 72.81L80.9157 88.5395C80.9252 88.5974 80.886 88.6521 80.8281 88.6615C80.8223 88.6626 80.8165 88.663 80.8108 88.663Z" fill="#363E44"/>
<path d="M81.4749 88.5536C81.4237 88.5536 81.3787 88.5167 81.3702 88.4646L78.79 72.7351C78.7805 72.6772 78.8197 72.6225 78.8775 72.6131C78.9356 72.6029 78.9901 72.6428 78.9995 72.7006L81.5798 88.4302C81.5893 88.4881 81.5501 88.5427 81.4922 88.5522C81.4864 88.5532 81.4806 88.5536 81.4749 88.5536Z" fill="#363E44"/>
<path d="M80.2585 88.7533C80.2074 88.7533 80.1624 88.7164 80.1537 88.6643C80.1443 88.6064 80.1835 88.5517 80.2414 88.5422L81.7866 88.2888C81.8446 88.2795 81.8991 88.3185 81.9086 88.3764C81.9181 88.4343 81.8789 88.489 81.821 88.4984L80.2758 88.7518C80.2701 88.7528 80.2642 88.7533 80.2585 88.7533Z" fill="#363E44"/>
<path d="M80.4124 89.6888C80.3612 89.6888 80.3162 89.6519 80.3076 89.5998C80.2981 89.5419 80.3373 89.4873 80.3952 89.4779L81.9404 89.2244C81.9984 89.2143 82.0529 89.2541 82.0624 89.312C82.0719 89.3699 82.0327 89.4245 81.9748 89.4341L80.4296 89.6875C80.4239 89.6885 80.418 89.6888 80.4124 89.6888Z" fill="#363E44"/>
<path d="M83.9401 73.9885L83.2923 72.6814C82.9413 71.9732 83.0009 71.1307 83.448 70.4789L85.0197 68.1877L86.2608 71.168C86.4887 71.7151 86.4606 72.3354 86.1844 72.8597L85.5182 74.1241L83.9401 73.9885Z" fill="white"/>
<path d="M84.6519 90.0403L84.1414 91.4607L83.4336 90.0427L83.612 73.4943L85.822 73.5995L84.6519 90.0403Z" fill="#B77250"/>
<path d="M84.2502 73.7418C84.2155 73.7418 84.1816 73.7249 84.1613 73.6937C83.2111 72.2445 83.4248 70.5908 84.7965 68.7786C84.8318 68.7319 84.8984 68.7226 84.9453 68.7581C84.9921 68.7935 85.0013 68.8601 84.9658 68.9069C83.6542 70.6398 83.4433 72.2112 84.3389 73.5774C84.3711 73.6265 84.3574 73.6922 84.3083 73.7244C84.2903 73.7362 84.2702 73.7418 84.2502 73.7418Z" fill="#E6D0BE"/>
<path d="M85.4795 73.7707C85.4614 73.7707 85.4429 73.766 85.4261 73.7562C85.3755 73.7266 85.3583 73.6616 85.3879 73.611C86.0414 72.4908 85.9346 71.1296 85.0518 69.327C85.0261 69.2743 85.0479 69.2107 85.1006 69.1848C85.1533 69.1589 85.2169 69.1809 85.2427 69.2336C86.1596 71.1059 86.264 72.5309 85.5714 73.7181C85.5516 73.7518 85.516 73.7707 85.4795 73.7707Z" fill="#E6D0BE"/>
<path d="M84.9554 73.846C84.8979 73.846 84.8507 73.8003 84.8492 73.7425L84.751 69.9412C84.7496 69.8826 84.7958 69.8338 84.8546 69.8322C84.8555 69.8322 84.8564 69.8322 84.8573 69.8322C84.9147 69.8322 84.9619 69.8779 84.9635 69.9358L85.0616 73.7371C85.0631 73.7957 85.0168 73.8445 84.9581 73.846C84.9571 73.846 84.9562 73.846 84.9554 73.846Z" fill="#E6D0BE"/>
<path d="M83.5908 75.4867L83.6123 73.4943L85.8223 73.5995L85.6809 75.5862L83.5908 75.4867Z" fill="#9E460D"/>
<path d="M87.2721 95.8457H77.8921V81.5451C78.7204 82.7618 84.9655 83.1597 87.2721 81.5451V95.8457Z" fill="#003A6B"/>
<path d="M82.3781 82.753C80.5612 82.753 78.9428 82.3817 77.8635 81.7994C77.8118 81.7716 77.7925 81.7072 77.8204 81.6555C77.8482 81.6039 77.9129 81.5844 77.9643 81.6125C79.8905 82.6515 83.8043 83.0031 87.264 81.6074C87.3181 81.5858 87.3803 81.6117 87.4023 81.6662C87.4242 81.7206 87.3979 81.7826 87.3435 81.8045C85.6887 82.472 83.9582 82.753 82.3781 82.753Z" fill="white"/>
<path d="M81.6554 99.5506H90.6667C90.0822 99.5506 89.6084 98.6243 89.6084 97.4815C89.6084 96.3387 90.0822 95.4123 90.6667 95.4123H81.6554C81.071 95.4123 80.5972 96.3387 80.5972 97.4815C80.5971 98.6242 81.0709 99.5506 81.6554 99.5506Z" fill="#F7F1EB"/>
<path d="M66.975 99.6352H85.3555C84.1633 99.6352 83.1969 98.6715 83.1969 97.4827C83.1969 96.294 84.1926 95.3617 85.3848 95.3617L66.9749 95.3303C65.7829 95.3303 64.8164 96.294 64.8164 97.4827C64.8165 98.6715 65.7829 99.6352 66.975 99.6352Z" fill="#9E460D"/>
<path d="M90.8544 99.6577H85.3556C84.0856 99.6577 83.0908 98.7022 83.0908 97.4823C83.0908 96.2624 84.0856 95.3069 85.3556 95.3069H90.8544C90.9131 95.3069 90.9606 95.3544 90.9606 95.4131C90.9606 95.4719 90.9131 95.5194 90.8544 95.5194H85.3556C84.2048 95.5194 83.3032 96.3816 83.3032 97.4823C83.3032 98.583 84.2048 99.4453 85.3556 99.4453H90.8544C90.9131 99.4453 90.9606 99.4928 90.9606 99.5515C90.9606 99.6102 90.9131 99.6577 90.8544 99.6577Z" fill="#9E460D"/>
<path d="M89.972 99.0894H85.1565C85.0978 99.0894 85.0503 99.0419 85.0503 98.9832C85.0503 98.9245 85.0978 98.877 85.1565 98.877H89.972C90.0308 98.877 90.0783 98.9245 90.0783 98.9832C90.0782 99.0419 90.0307 99.0894 89.972 99.0894Z" fill="#E6D0BE"/>
<path d="M89.7216 98.2556H84.906C84.8473 98.2556 84.7998 98.2081 84.7998 98.1494C84.7998 98.0907 84.8473 98.0432 84.906 98.0432H89.7216C89.7803 98.0432 89.8278 98.0907 89.8278 98.1494C89.8278 98.2081 89.7802 98.2556 89.7216 98.2556Z" fill="#E6D0BE"/>
<path d="M89.6376 97.7556H83.9866C83.9279 97.7556 83.8804 97.7081 83.8804 97.6494C83.8804 97.5907 83.9279 97.5432 83.9866 97.5432H89.6376C89.6964 97.5432 89.7439 97.5907 89.7439 97.6494C89.7439 97.7081 89.6964 97.7556 89.6376 97.7556Z" fill="#E6D0BE"/>
<path d="M89.7213 96.6735H84.4881C84.4293 96.6735 84.3818 96.626 84.3818 96.5673C84.3818 96.5086 84.4293 96.4611 84.4881 96.4611H89.7213C89.78 96.4611 89.8275 96.5086 89.8275 96.5673C89.8275 96.626 89.78 96.6735 89.7213 96.6735Z" fill="#E6D0BE"/>
<path d="M66.4661 98.7211H71.4453V96.3236H66.4661V98.7211Z" fill="#D3BBA3"/>
<path d="M72.3141 98.7211H81.207V96.3236H72.3141V98.7211Z" fill="#D3BBA3"/>
<path d="M81.6559 102.28H90.6672C90.0827 102.28 89.6089 101.687 89.6089 100.956C89.6089 100.224 90.0827 99.631 90.6672 99.631H81.6559C81.0715 99.631 80.5977 100.224 80.5977 100.956C80.5976 101.687 81.0714 102.28 81.6559 102.28Z" fill="#F7F1EB"/>
<path d="M66.9751 102.334H85.3556C84.1635 102.334 83.6148 101.717 83.6148 100.956C83.6148 100.195 84.1635 99.5782 85.3556 99.5782H66.9751C65.7831 99.5782 65.2344 100.195 65.2344 100.956C65.2343 101.717 65.7831 102.334 66.9751 102.334Z" fill="#EFBC73"/>
<path d="M90.8542 102.387H85.3553C84.1988 102.387 83.5083 101.852 83.5083 100.957C83.5083 100.061 84.1988 99.5256 85.3553 99.5256H90.8542C90.9129 99.5256 90.9604 99.5731 90.9604 99.6319C90.9604 99.6906 90.9129 99.7381 90.8542 99.7381H85.3553C84.3166 99.7381 83.7208 100.182 83.7208 100.957C83.7208 101.731 84.3166 102.175 85.3553 102.175H90.8542C90.9129 102.175 90.9604 102.222 90.9604 102.281C90.9604 102.34 90.9129 102.387 90.8542 102.387Z" fill="#9E460D"/>
<path d="M89.972 102.023H85.1565C85.0978 102.023 85.0503 101.976 85.0503 101.917C85.0503 101.858 85.0978 101.811 85.1565 101.811H89.972C90.0308 101.811 90.0783 101.858 90.0783 101.917C90.0782 101.976 90.0307 102.023 89.972 102.023Z" fill="#E6D0BE"/>
<path d="M89.7216 101.49H84.906C84.8473 101.49 84.7998 101.443 84.7998 101.384C84.7998 101.325 84.8473 101.278 84.906 101.278H89.7216C89.7803 101.278 89.8278 101.325 89.8278 101.384C89.8278 101.443 89.7802 101.49 89.7216 101.49Z" fill="#E6D0BE"/>
<path d="M89.6381 101.17H83.9871C83.9284 101.17 83.8809 101.122 83.8809 101.063C83.8809 101.005 83.9284 100.957 83.9871 100.957H89.6381C89.6968 100.957 89.7443 101.005 89.7443 101.063C89.7443 101.122 89.6968 101.17 89.6381 101.17Z" fill="#E6D0BE"/>
<path d="M89.7213 100.476H84.4881C84.4293 100.476 84.3818 100.429 84.3818 100.37C84.3818 100.311 84.4293 100.264 84.4881 100.264H89.7213C89.78 100.264 89.8275 100.311 89.8275 100.37C89.8275 100.429 89.78 100.476 89.7213 100.476Z" fill="#E6D0BE"/>
<path d="M75.0816 102.375H66.6411C67.1885 102.375 67.6323 102.931 67.6323 103.616C67.6323 104.301 67.1885 104.857 66.6411 104.857H75.0816C75.629 104.857 76.0728 104.301 76.0728 103.616C76.0728 102.931 75.629 102.375 75.0816 102.375Z" fill="#F7F1EB"/>
<path d="M88.8323 102.326H71.6162C72.7328 102.326 73.2467 102.904 73.2467 103.617C73.2467 104.33 72.7328 104.908 71.6162 104.908H88.8323C89.9488 104.908 90.4628 104.33 90.4628 103.617C90.4628 102.904 89.9488 102.326 88.8323 102.326Z" fill="#30C981"/>
<path d="M71.6161 104.964H66.4656C66.4069 104.964 66.3594 104.916 66.3594 104.858C66.3594 104.799 66.4069 104.751 66.4656 104.751H71.6161C72.5848 104.751 73.1403 104.338 73.1403 103.617C73.1403 102.896 72.5848 102.482 71.6161 102.482H66.4656C66.4069 102.482 66.3594 102.435 66.3594 102.376C66.3594 102.317 66.4069 102.27 66.4656 102.27H71.6161C72.7036 102.27 73.3528 102.773 73.3528 103.617C73.3528 104.46 72.7036 104.964 71.6161 104.964Z" fill="#9E460D"/>
<path d="M71.8022 102.824H67.2918C67.2331 102.824 67.1855 102.776 67.1855 102.718C67.1855 102.659 67.2331 102.612 67.2918 102.612H71.8022C71.8609 102.612 71.9085 102.659 71.9085 102.718C71.9085 102.776 71.8609 102.824 71.8022 102.824Z" fill="#E6D0BE"/>
<path d="M72.0375 103.322H67.5271C67.4684 103.322 67.4209 103.275 67.4209 103.216C67.4209 103.157 67.4684 103.11 67.5271 103.11H72.0375C72.0962 103.11 72.1438 103.157 72.1438 103.216C72.1438 103.275 72.0962 103.322 72.0375 103.322Z" fill="#E6D0BE"/>
<path d="M72.8983 103.623H67.6053C67.5465 103.623 67.499 103.575 67.499 103.517C67.499 103.458 67.5465 103.41 67.6053 103.41H72.8983C72.957 103.41 73.0045 103.458 73.0045 103.517C73.0045 103.575 72.957 103.623 72.8983 103.623Z" fill="#E6D0BE"/>
<path d="M72.4288 104.271H67.5271C67.4684 104.271 67.4209 104.224 67.4209 104.165C67.4209 104.106 67.4684 104.059 67.5271 104.059H72.4288C72.4876 104.059 72.5351 104.106 72.5351 104.165C72.5351 104.224 72.4876 104.271 72.4288 104.271Z" fill="#E6D0BE"/>
</g>
<defs>
<clipPath id="clip0_176_144">
<rect x="1.09326" y="14" width="91.814" height="94" rx="7.28682" fill="white"/>
</clipPath>
</defs>
</svg>
