<svg width="94" height="120" viewBox="0 0 94 120" fill="none" xmlns="http://www.w3.org/2000/svg">
<g clip-path="url(#clip0_177_10875)">
<rect width="94" height="120" fill="#EFBC73"/>
<g clip-path="url(#clip1_177_10875)">
<path d="M47 107.927C73.1629 107.927 94.3721 86.7178 94.3721 60.5549C94.3721 34.392 73.1629 13.1828 47 13.1828C20.8371 13.1828 -0.37207 34.392 -0.37207 60.5549C-0.37207 86.7178 20.8371 107.927 47 107.927Z" fill="#402A83"/>
<path d="M59.7393 38.9804C59.732 38.9804 59.7249 38.9803 59.7177 38.9803L54.2323 38.9376C53.5035 38.9319 52.8206 38.6427 52.3095 38.1232C51.7983 37.6037 51.5201 36.9162 51.526 36.1873L51.5456 33.7626C51.5577 32.2651 52.7799 31.0548 54.2745 31.0548C54.2818 31.0548 54.2889 31.0549 54.2961 31.0549L59.7814 31.0976C60.5103 31.1033 61.1931 31.3925 61.7042 31.9119C62.2155 32.4314 62.4937 33.1189 62.4878 33.8478L62.4682 36.2725C62.4561 37.77 61.2338 38.9803 59.7393 38.9804ZM54.2745 31.2831C52.9049 31.2831 51.7851 32.3921 51.7739 33.7644L51.7543 36.1891C51.7488 36.857 52.0039 37.4871 52.4723 37.9631C52.9406 38.439 53.5663 38.704 54.2341 38.7093L59.7194 38.752C59.726 38.752 59.7327 38.7521 59.7392 38.7521C61.1088 38.7521 62.2287 37.643 62.2398 36.2707L62.2595 33.846C62.2649 33.1781 62.0099 32.548 61.5416 32.0721C61.0732 31.5962 60.4475 31.3312 59.7796 31.3259L54.2943 31.2832C54.2878 31.2832 54.2811 31.2831 54.2745 31.2831Z" fill="#84524D"/>
<path d="M41.1375 36.2248L40.9585 59.1724L73.0785 59.423L73.2575 36.4753L41.1375 36.2248Z" fill="#D3BBA3"/>
<path d="M57.0352 49.3993C57.0103 49.3993 56.9856 49.3913 56.965 49.3752L42.935 38.4177C42.8853 38.3788 42.8765 38.3071 42.9153 38.2575C42.9541 38.2076 43.0258 38.1991 43.0756 38.2377L57.036 49.1409L71.0228 38.446C71.073 38.4078 71.1447 38.4172 71.1828 38.4673C71.2211 38.5173 71.2115 38.589 71.1615 38.6272L57.1046 49.3758C57.084 49.3916 57.0596 49.3993 57.0352 49.3993Z" fill="#F7F1EB"/>
<path d="M54.8443 47.8156L54.8257 50.2043L59.3522 50.2396L59.3709 47.8509L54.8443 47.8156Z" fill="#F7F1EB"/>
<path d="M54.7567 79.3746C54.6936 79.3746 54.6426 79.3235 54.6426 79.2605V62.8596C54.6426 62.7965 54.6937 62.7455 54.7567 62.7455C54.8198 62.7455 54.8708 62.7966 54.8708 62.8596V79.2605C54.8709 79.3235 54.8198 79.3746 54.7567 79.3746Z" fill="#D3BBA3"/>
<path d="M44.492 89.8722H0.509636C0.446578 89.8722 0.395508 89.8211 0.395508 89.7581V24.9969C0.395508 24.9338 0.44663 24.8828 0.509636 24.8828H12.7314C12.7944 24.8828 12.8455 24.9338 12.8455 24.9969C12.8455 25.0599 12.7944 25.111 12.7314 25.111H0.623817V89.6439H44.492C44.555 89.6439 44.6061 89.695 44.6061 89.758C44.6061 89.8212 44.555 89.8722 44.492 89.8722Z" fill="#D3BBA3"/>
<path d="M54.7564 33.0344C54.6933 33.0344 54.6423 32.9834 54.6423 32.9203V25.1111H41.7333C41.6702 25.1111 41.6191 25.06 41.6191 24.9969C41.6191 24.9339 41.6703 24.8828 41.7333 24.8828H54.7564C54.8195 24.8828 54.8705 24.9339 54.8705 24.9969V32.9203C54.8706 32.9834 54.8195 33.0344 54.7564 33.0344Z" fill="#D3BBA3"/>
<path d="M6.03319 85.1095H49.2334L49.2334 26.9772L6.03319 26.9772L6.03319 85.1095Z" fill="#35674E"/>
<path d="M32.9907 21.5793C32.9907 18.067 30.1434 15.2197 26.6311 15.2197C23.1187 15.2197 20.2714 18.067 20.2714 21.5793H13.2979V29.9601H39.9643V21.5793H32.9907ZM21.945 21.5793C21.945 18.9912 24.043 16.8932 26.631 16.8932C29.219 16.8932 31.3171 18.9912 31.3171 21.5793H21.945Z" fill="#F7F1EB"/>
<path d="M40.9665 29.0722H14.3002C14.2371 29.0722 14.186 29.0212 14.186 28.9581V20.5772C14.186 20.5141 14.2372 20.4631 14.3002 20.4631H21.1606C21.2217 16.9459 24.1018 14.1035 27.6334 14.1035C31.165 14.1035 34.0451 16.9458 34.1062 20.4631H40.9666C41.0297 20.4631 41.0808 20.5142 41.0808 20.5772V28.9581C41.0807 29.0212 41.0296 29.0722 40.9665 29.0722ZM14.4143 28.8439H40.8524V20.6914H33.993C33.9299 20.6914 33.8789 20.6403 33.8789 20.5772C33.8789 17.1335 31.0772 14.3318 27.6334 14.3318C24.1896 14.3318 21.3878 17.1335 21.3878 20.5772C21.3878 20.6403 21.3367 20.6914 21.2737 20.6914H14.4143V28.8439ZM32.3194 20.6914H22.9473C22.8842 20.6914 22.8331 20.6403 22.8331 20.5772C22.8331 17.9304 24.9865 15.7771 27.6333 15.7771C30.2802 15.7771 32.4335 17.9304 32.4335 20.5772C32.4336 20.6403 32.3824 20.6914 32.3194 20.6914ZM23.0629 20.4631H32.2038C32.143 17.9947 30.1162 16.0053 27.6333 16.0053C25.1505 16.0053 23.1236 17.9947 23.0629 20.4631Z" fill="#D3BBA3"/>
<path d="M42.295 44.9772H11.2557C11.1927 44.9772 11.1416 44.9261 11.1416 44.863V36.7761C11.1416 36.713 11.1927 36.662 11.2557 36.662H42.295C42.3581 36.662 42.4092 36.7131 42.4092 36.7761V44.863C42.4092 44.9262 42.3581 44.9772 42.295 44.9772ZM11.3699 44.7489H42.1809V36.8903H11.3699V44.7489Z" fill="#9E9569"/>
<path d="M35.2365 70.5391H21.1675V71.403H35.2365V70.5391Z" fill="white"/>
<path d="M40.6468 72.6972H23.3506V73.5611H40.6468V72.6972Z" fill="white"/>
<path d="M37.8091 74.8553H21.1675V75.7193H37.8091V74.8553Z" fill="white"/>
<path d="M42.2949 61.0359H24.8906V61.8999H42.2949V61.0359Z" fill="white"/>
<path d="M37.3384 63.1941H20.6968V64.058H37.3384V63.1941Z" fill="white"/>
<path d="M40.238 65.3522H20.6968V66.2162H40.238V65.3522Z" fill="white"/>
<path d="M40.2377 52.1086H24.9521V52.9725H40.2377V52.1086Z" fill="white"/>
<path d="M37.3381 54.2667H20.7583V55.1307H37.3381V54.2667Z" fill="white"/>
<path d="M42.2948 56.4249H20.7583V57.2888H42.2948V56.4249Z" fill="white"/>
<path d="M18.503 76.7336H11.5184C11.4554 76.7336 11.4043 76.6825 11.4043 76.6194V69.6381C11.4043 69.5749 11.4554 69.5239 11.5184 69.5239H18.503C18.566 69.5239 18.6171 69.575 18.6171 69.6381V76.6194C18.6171 76.6825 18.566 76.7336 18.503 76.7336ZM11.6326 76.5053H18.3888V69.7521H11.6326V76.5053Z" fill="white"/>
<path d="M14.6359 75.5642L12.4492 73.5761L13.1247 72.7434L14.5113 73.8514L16.6869 70.6937L17.572 71.3029L14.6359 75.5642Z" fill="#F7F1EB"/>
<path d="M18.503 67.2303H11.5184C11.4554 67.2303 11.4043 67.1793 11.4043 67.1162V60.1349C11.4043 60.0718 11.4554 60.0208 11.5184 60.0208H18.503C18.566 60.0208 18.6171 60.0719 18.6171 60.1349V67.1162C18.6171 67.1793 18.566 67.2303 18.503 67.2303ZM11.6326 67.002H18.3888V60.2491H11.6326V67.002Z" fill="white"/>
<path d="M14.6359 66.0611L12.4492 64.073L13.1247 63.2403L14.5113 64.3483L16.6869 61.1906L17.572 61.7998L14.6359 66.0611Z" fill="#F7F1EB"/>
<path d="M18.503 58.3011H11.5184C11.4554 58.3011 11.4043 58.2501 11.4043 58.187V51.2056C11.4043 51.1425 11.4554 51.0915 11.5184 51.0915H18.503C18.566 51.0915 18.6171 51.1426 18.6171 51.2056V58.187C18.6171 58.2501 18.566 58.3011 18.503 58.3011ZM11.6326 58.0728H18.3888V51.3197H11.6326V58.0728Z" fill="white"/>
<path d="M14.6359 57.1318L12.4492 55.1437L13.1247 54.311L14.5113 55.4189L16.6869 52.2612L17.572 52.8705L14.6359 57.1318Z" fill="#F7F1EB"/>
<path d="M34.8579 106.233H0.889519C0.82646 106.233 0.775391 106.182 0.775391 106.119V97.3783C0.775391 97.3152 0.826512 97.2642 0.889519 97.2642H34.8579C34.921 97.2642 34.972 97.3152 34.972 97.3783V106.119C34.972 106.182 34.921 106.233 34.8579 106.233ZM1.00365 106.005H34.7438V97.4924H1.00365V106.005Z" fill="#E6D0BE"/>
<path d="M30.6589 94.5029C29.2103 94.0639 29.0388 91.923 27.8304 91.9534C24.8385 92.029 23.48 101.368 21.211 101.244C19.3378 101.142 19.0311 94.7117 16.8619 94.5029C14.5465 94.2801 12.9139 101.416 10.4133 101.244C8.21753 101.094 8.30514 95.5112 4.41461 93.6423C3.76098 93.3283 3.07606 93.1585 2.38916 93.0911V104.313H33.3583V93.7476C32.1895 94.5505 31.3197 94.7032 30.6589 94.5029Z" fill="#8B865C"/>
<path d="M78.7488 66.993H74.9888L76.8688 58.481L78.7488 66.993Z" fill="#EFBC73"/>
<path d="M82.5091 66.9934H78.749L80.629 60.9498L82.5091 66.9934Z" fill="#8B865C"/>
<path d="M86.2688 66.9932H82.5088L84.3888 55.9425L86.2688 66.9932Z" fill="#35674E"/>
<path d="M90.0291 66.9928H86.269L88.1491 61.4675L90.0291 66.9928Z" fill="#D3BBA3"/>
<path d="M90.7339 68.0868H73.9506C73.8874 68.0868 73.8364 68.0357 73.8364 67.9727V60.9488C73.8364 60.8857 73.8875 60.8347 73.9506 60.8347C74.0136 60.8347 74.0647 60.8857 74.0647 60.9488V67.8585H90.7339C90.797 67.8585 90.8481 67.9096 90.8481 67.9726C90.8481 68.0357 90.7969 68.0868 90.7339 68.0868Z" fill="#E6D0BE"/>
<path d="M94.372 104.481V101.004L85.5563 80.3792C84.8297 78.4459 83.1164 77.0571 81.075 76.7433C76.2228 75.9975 66.7203 75.0565 56.7851 76.9533C54.9799 77.2979 53.4254 78.4374 52.5493 80.053L46.6908 90.8573L44.7061 104.481H94.372Z" fill="#35674E"/>
<path d="M74.4273 90.504C74.4039 90.504 74.3802 90.4969 74.3599 90.482L71.369 88.2909C71.3188 88.2542 71.3073 88.1842 71.3429 88.1332L77.231 79.7305C77.2673 79.679 77.3383 79.6664 77.39 79.7026C77.4416 79.7388 77.4541 79.8099 77.418 79.8616L71.594 88.1727L74.4948 90.2978C74.5456 90.3351 74.5567 90.4065 74.5195 90.4574C74.4971 90.4878 74.4624 90.504 74.4273 90.504Z" fill="#363E44"/>
<path d="M84.4202 96.9497C84.3952 96.9497 84.3702 96.9415 84.3492 96.9248C84.2998 96.8855 84.2918 96.8137 84.331 96.7644L87.0302 93.3795C87.0697 93.3302 87.1415 93.3223 87.1907 93.3613C87.2401 93.4006 87.2481 93.4724 87.2088 93.5217L84.5096 96.9066C84.487 96.935 84.4537 96.9497 84.4202 96.9497Z" fill="#363E44"/>
<path d="M68.995 77.2888H65.1255L66.9826 80.6968L68.995 77.2888Z" fill="#363E44"/>
<path d="M66.3443 79.0555H67.0024H67.6604L69.1142 97.5127L67.0024 99.6512L64.8906 97.5127L66.3443 79.0555Z" fill="#363E44"/>
<path d="M49.2581 89.86L54.0729 100.895C55.0911 103.228 54.0989 105.95 51.8179 107.081L51.4036 107.286C48.2162 108.867 44.4823 106.53 44.5094 102.973L44.6026 90.7655L49.2581 89.86Z" fill="white"/>
<path d="M47.3295 98.0774H61.0888L54.8672 79.2624H41.1079L47.3295 98.0774Z" fill="#EFBC73"/>
<path d="M57.8657 88.4497L57.015 85.8768L69.8931 94.2612L72.9231 89.8439L83.4394 97.594L76.0976 105.953C73.972 108.374 70.2136 108.406 68.0463 106.023L59.9523 97.1243C59.2733 96.3777 58.3375 95.9137 57.3317 95.8297C55.7597 95.6985 53.5294 95.4224 53.4164 94.9072C53.2411 94.1077 57.4035 93.9067 57.4035 93.9067C57.4035 93.9067 52.4377 93.8499 52.4282 93.0107C52.4187 92.1717 56.9157 92.0154 56.9157 92.0154C56.9157 92.0154 52.0104 91.8234 51.9637 91.0884C51.917 90.3535 56.6111 90.1408 56.6111 90.1408C56.6111 90.1408 52.2469 89.9754 52.2541 89.0034C52.2611 88.0315 57.8657 88.4497 57.8657 88.4497Z" fill="white"/>
<path d="M73.181 96.9483C73.1559 96.9483 73.1307 96.94 73.1095 96.9231L69.9073 94.3491C69.8582 94.3096 69.8505 94.2377 69.8899 94.1885C69.9293 94.1397 70.001 94.1316 70.0504 94.1712L73.2526 96.7452C73.3017 96.7846 73.3095 96.8566 73.27 96.9057C73.2475 96.9337 73.2144 96.9483 73.181 96.9483Z" fill="#363E44"/>
<path d="M44.5279 91.0289C43.4974 91.3197 43.2085 91.842 43.3326 92.3507C43.4566 92.8594 43.9465 93.1618 44.977 92.871C46.0075 92.5802 47.1883 91.8062 47.0643 91.2974C46.9402 90.7888 45.5584 90.738 44.5279 91.0289Z" fill="white"/>
<path d="M44.3248 89.2066C43.1304 89.5437 42.7957 90.149 42.9394 90.7386C43.0831 91.3282 43.6509 91.6788 44.8453 91.3417C46.0396 91.0046 47.4082 90.1075 47.2645 89.5179C47.1208 88.9284 45.5192 88.8696 44.3248 89.2066Z" fill="white"/>
<path d="M43.8085 88.0789C42.778 88.3697 42.2881 88.0673 42.1641 87.5585C42.0401 87.0499 42.329 86.5275 43.3595 86.2367C44.39 85.9459 45.7718 85.9967 45.8958 86.5054C46.0198 87.014 44.839 87.788 43.8085 88.0789Z" fill="white"/>
<path d="M44.463 89.774C43.2687 90.111 42.7008 89.7605 42.5571 89.1709C42.4134 88.5813 42.7482 87.976 43.9425 87.6389C45.1369 87.3018 46.7384 87.3606 46.8821 87.9502C47.0259 88.5398 45.6574 89.4369 44.463 89.774Z" fill="white"/>
<path d="M70.467 79.9116C70.443 79.9116 70.4194 79.904 70.3998 79.8896L68.9859 78.8586C68.9349 78.8215 68.9237 78.7501 68.9609 78.6992C68.9979 78.6482 69.0694 78.637 69.1203 78.6742L70.4381 79.635L71.6093 77.8783C71.6442 77.8257 71.7149 77.8117 71.7676 77.8466C71.8202 77.8816 71.8343 77.9524 71.7993 78.0049L70.562 79.8607C70.5448 79.8866 70.5177 79.9043 70.4872 79.9098C70.4804 79.911 70.4737 79.9116 70.467 79.9116Z" fill="#363E44"/>
<path d="M63.839 79.4111C63.7969 79.4111 63.7568 79.3878 63.7369 79.348L62.8827 77.6395C62.8545 77.5831 62.8773 77.5145 62.9337 77.4863C62.9903 77.4583 63.0586 77.481 63.0869 77.5374L63.8936 79.1511L65.298 78.5728C65.3565 78.5491 65.423 78.5766 65.4471 78.6348C65.471 78.6931 65.4433 78.7599 65.385 78.7839L63.8825 79.4026C63.8683 79.4083 63.8536 79.4111 63.839 79.4111Z" fill="#363E44"/>
<path d="M65.1441 77.3185L64.4281 76.1586L62.6465 68.9708C62.6524 67.9111 65.373 67.3683 66.4328 67.3742C67.4925 67.3801 67.691 66.6507 67.685 67.7104L69.8674 76.1585L68.9761 77.3184L65.1441 77.3185Z" fill="white"/>
<path d="M61.7089 74.6653C62.9882 75.4543 66.0603 72.4876 66.0603 72.4876L67.997 68.6092C67.8598 66.4991 66.038 64.8998 63.928 65.037C61.8179 65.1742 60.2186 66.996 60.3559 69.106C60.3559 69.106 60.4058 73.8618 61.7089 74.6653Z" fill="white"/>
<path d="M60.8601 70.0824C60.8601 70.0824 59.8615 71.2748 59.9378 71.5675C60.0288 71.9169 61.2366 72.0551 61.2366 72.0551C61.2366 72.0551 60.8317 70.087 60.8601 70.0824Z" fill="white"/>
<path d="M64.0119 68.971C64.0119 68.971 63.3932 68.823 62.7404 68.9958C62.6015 69.0325 63.1577 70.0747 63.2728 69.9769C63.7794 69.5468 64.0119 68.971 64.0119 68.971Z" fill="#35674E"/>
<mask id="mask0_177_10875" style="mask-type:luminance" maskUnits="userSpaceOnUse" x="61" y="68" width="4" height="3">
<path d="M64.0121 68.9717C64.0121 68.9717 63.1022 68.7541 62.325 69.1549C61.5476 69.5557 61.1973 70.4232 61.1973 70.4232C61.1973 70.4232 62.1072 70.6408 62.8845 70.24C63.6618 69.8392 64.0121 68.9717 64.0121 68.9717Z" fill="white"/>
</mask>
<g mask="url(#mask0_177_10875)">
<path d="M62.7057 68.9754C62.1596 68.6579 61.4595 68.8431 61.142 69.3891C60.8245 69.9352 61.0097 70.6353 61.5558 70.9528C62.1018 71.2703 62.8019 71.0851 63.1194 70.539C63.437 69.993 63.2517 69.2929 62.7057 68.9754Z" fill="#363E44"/>
</g>
<path d="M68.25 64.3901C68.25 64.3901 70.3347 68.3093 67.763 70.0761L66.9662 69.5545L65.376 70.4826L65.7935 68.3785C65.8684 67.577 65.1913 66.9072 64.3907 66.9908L60.8957 67.3557L60.8105 65.4759C63.0194 63.8447 65.4607 63.3022 68.25 64.3901Z" fill="#363E44"/>
<path d="M64.3166 64.2006C64.7156 64.2579 65.0855 63.981 65.1428 63.582C65.2002 63.183 64.9532 62.6042 64.5542 62.5469C64.1552 62.4895 63.7553 62.9753 63.6979 63.3743C63.6406 63.7733 63.9176 64.1432 64.3166 64.2006Z" fill="#363E44"/>
<path d="M63.7894 64.454C64.166 64.3103 64.3547 63.8885 64.211 63.5119C64.0672 63.1353 63.5701 62.7494 63.1936 62.8932C62.817 63.037 62.7035 63.6559 62.8472 64.0325C62.991 64.409 63.4128 64.5978 63.7894 64.454Z" fill="#363E44"/>
<path d="M62.6632 65.0091C63.1318 64.7283 63.2841 64.1208 63.0032 63.6522C62.7224 63.1835 61.9678 62.786 61.4992 63.0669C61.0306 63.3478 61.0254 64.2006 61.3062 64.6692C61.5871 65.1378 62.1946 65.29 62.6632 65.0091Z" fill="#363E44"/>
<path d="M65.4745 64.1798C65.8714 64.25 66.2501 63.9851 66.3203 63.5882C66.3905 63.1913 66.1624 62.6049 65.7654 62.5346C65.3685 62.4645 64.9531 62.9371 64.8829 63.334C64.8126 63.7309 65.0775 64.1096 65.4745 64.1798Z" fill="#363E44"/>
<path d="M61.7737 65.2725C61.9329 64.813 61.6895 64.3114 61.2301 64.1523C60.7706 63.993 60.0286 64.1531 59.8694 64.6126C59.7101 65.0721 60.194 65.657 60.6535 65.8162C61.113 65.9754 61.6145 65.732 61.7737 65.2725Z" fill="#363E44"/>
<path d="M66.413 64.3648C66.8831 64.5417 67.4075 64.304 67.5843 63.8339C67.7612 63.3639 67.6161 62.5935 67.1461 62.4166C66.6761 62.2397 66.059 62.7234 65.8822 63.1934C65.7054 63.6635 65.943 64.188 66.413 64.3648Z" fill="#363E44"/>
<path d="M67.3276 64.4181C67.5953 64.7044 68.0445 64.7195 68.3308 64.4518C68.6171 64.1841 68.7821 63.5949 68.5144 63.3085C68.2466 63.0222 67.6476 63.1472 67.3613 63.4149C67.0749 63.6826 67.0598 64.1317 67.3276 64.4181Z" fill="#363E44"/>
<path d="M61.6492 66.384C61.6577 65.7912 61.1841 65.3038 60.5913 65.2953C59.9986 65.2868 59.2009 65.756 59.1925 66.3488C59.1839 66.9415 59.9678 67.4334 60.5605 67.4419C61.1533 67.4503 61.6407 66.9767 61.6492 66.384Z" fill="#363E44"/>
<path d="M68.7388 68.5764C69.0671 69.2277 68.8054 70.0218 68.1541 70.3501C67.5029 70.6785 66.7088 70.4167 66.3804 69.7655C66.0521 69.1142 66.3139 68.3201 66.9651 67.9918C67.6163 67.6634 68.4105 67.9252 68.7388 68.5764Z" fill="white"/>
<path d="M60.5957 71.936L61.2109 75.0915C61.2965 75.5308 61.7308 75.8093 62.166 75.705C62.2755 75.6788 62.3937 75.6492 62.5189 75.6159C64.6862 75.0405 66.4034 73.3865 67.0569 71.2416C67.2759 70.523 67.0285 69.7438 66.4351 69.2832L66.2396 69.1314L65.642 69.5225C65.642 69.5225 65.3084 71.2942 64.6669 71.4749C64.0255 71.6555 62.7766 71.2261 60.5957 71.936Z" fill="#363E44"/>
<path d="M62.1901 72.7701C62.081 72.7701 61.9715 72.7429 61.8722 72.6879C61.8172 72.6573 61.7972 72.5879 61.8278 72.5327C61.8584 72.4775 61.9277 72.4574 61.983 72.4883C62.1291 72.5692 62.3094 72.5575 62.4421 72.4588C62.57 72.3633 62.6337 72.1995 62.6044 72.0413C62.5929 71.9793 62.6339 71.9198 62.6959 71.9083C62.7575 71.8968 62.8175 71.9379 62.8289 71.9998C62.8738 72.2427 62.7756 72.4947 62.5785 72.6418C62.4644 72.7269 62.3276 72.7701 62.1901 72.7701Z" fill="white"/>
<path d="M65.3427 67.1322C65.3123 67.1322 65.282 67.1202 65.2595 67.0963C65.2164 67.0504 65.2185 66.9781 65.2644 66.9349L66.6751 65.6069C66.7209 65.5638 66.7932 65.5658 66.8365 65.6118C66.8796 65.6578 66.8775 65.73 66.8316 65.7732L65.4209 67.1013C65.3988 67.122 65.3707 67.1322 65.3427 67.1322Z" fill="white"/>
<path d="M94.1608 14.0735H66.3979V35.0159H94.1608V14.0735Z" fill="#35674E"/>
<path d="M94.1607 35.1305H66.3978C66.3347 35.1305 66.2837 35.0794 66.2837 35.0163V14.0738C66.2837 14.0107 66.3348 13.9597 66.3978 13.9597H94.1607C94.2238 13.9597 94.2748 14.0108 94.2748 14.0738V35.0163C94.2748 35.0794 94.2237 35.1305 94.1607 35.1305ZM66.5119 34.9021H94.0465V14.188H66.5119V34.9021Z" fill="#D3BBA3"/>
<path d="M92.7343 18.9198H89.6313V22.0228H92.7343V18.9198Z" fill="white"/>
<path d="M89.0711 22.1372H85.9681C85.905 22.1372 85.854 22.0861 85.854 22.023V18.9201C85.854 18.857 85.9051 18.806 85.9681 18.806H89.0711C89.1342 18.806 89.1853 18.8571 89.1853 18.9201V22.023C89.1853 22.0861 89.1342 22.1372 89.0711 22.1372ZM86.0823 21.9088H88.9569V19.0343H86.0823V21.9088Z" fill="#E6D0BE"/>
<path d="M85.408 22.1372H82.305C82.2419 22.1372 82.1909 22.0861 82.1909 22.023V18.9201C82.1909 18.857 82.242 18.806 82.305 18.806H85.408C85.4712 18.806 85.5222 18.8571 85.5222 18.9201V22.023C85.5222 22.0861 85.4711 22.1372 85.408 22.1372ZM82.4192 21.9088H85.2939V19.0343H82.4192V21.9088Z" fill="#E6D0BE"/>
<path d="M81.745 22.1372H78.642C78.5788 22.1372 78.5278 22.0861 78.5278 22.023V18.9201C78.5278 18.857 78.5789 18.806 78.642 18.806H81.745C81.8081 18.806 81.8591 18.8571 81.8591 18.9201V22.023C81.8591 22.0861 81.808 22.1372 81.745 22.1372ZM78.7561 21.9088H81.6308V19.0343H78.7561V21.9088Z" fill="#E6D0BE"/>
<path d="M78.0819 22.1372H74.9789C74.9158 22.1372 74.8647 22.0861 74.8647 22.023V18.9201C74.8647 18.857 74.9158 18.806 74.9789 18.806H78.0819C78.145 18.806 78.196 18.8571 78.196 18.9201V22.023C78.196 22.0861 78.1449 22.1372 78.0819 22.1372ZM75.093 21.9088H77.9677V19.0343H75.093V21.9088Z" fill="#E6D0BE"/>
<path d="M74.4182 22.1372H71.3153C71.2522 22.1372 71.2012 22.0861 71.2012 22.023V18.9201C71.2012 18.857 71.2522 18.806 71.3153 18.806H74.4182C74.4813 18.806 74.5323 18.8571 74.5323 18.9201V22.023C74.5324 22.0861 74.4813 22.1372 74.4182 22.1372ZM71.4295 21.9088H74.3041V19.0343H71.4295V21.9088Z" fill="#E6D0BE"/>
<path d="M70.7577 22.1372H67.6547C67.5915 22.1372 67.5405 22.0861 67.5405 22.023V18.9201C67.5405 18.857 67.5916 18.806 67.6547 18.806H70.7577C70.8208 18.806 70.8718 18.8571 70.8718 18.9201V22.023C70.8718 22.0861 70.8208 22.1372 70.7577 22.1372ZM67.7688 21.9088H70.6435V19.0343H67.7688V21.9088Z" fill="#E6D0BE"/>
<path d="M92.7346 25.7757H89.6317C89.5686 25.7757 89.5176 25.7246 89.5176 25.6615V22.5586C89.5176 22.4955 89.5686 22.4445 89.6317 22.4445H92.7346C92.7977 22.4445 92.8487 22.4956 92.8487 22.5586V25.6615C92.8487 25.7246 92.7977 25.7757 92.7346 25.7757ZM89.7458 25.5474H92.6204V22.6728H89.7458V25.5474Z" fill="#E6D0BE"/>
<path d="M89.0711 25.7757H85.9681C85.905 25.7757 85.854 25.7246 85.854 25.6615V22.5586C85.854 22.4955 85.9051 22.4445 85.9681 22.4445H89.0711C89.1342 22.4445 89.1853 22.4956 89.1853 22.5586V25.6615C89.1853 25.7246 89.1342 25.7757 89.0711 25.7757ZM86.0823 25.5474H88.9569V22.6728H86.0823V25.5474Z" fill="#E6D0BE"/>
<path d="M85.408 25.7757H82.305C82.2419 25.7757 82.1909 25.7246 82.1909 25.6615V22.5586C82.1909 22.4955 82.242 22.4445 82.305 22.4445H85.408C85.4712 22.4445 85.5222 22.4956 85.5222 22.5586V25.6615C85.5222 25.7246 85.4711 25.7757 85.408 25.7757ZM82.4192 25.5474H85.2939V22.6728H82.4192V25.5474Z" fill="#E6D0BE"/>
<path d="M81.745 25.7757H78.642C78.5788 25.7757 78.5278 25.7246 78.5278 25.6615V22.5586C78.5278 22.4955 78.5789 22.4445 78.642 22.4445H81.745C81.8081 22.4445 81.8591 22.4956 81.8591 22.5586V25.6615C81.8591 25.7246 81.808 25.7757 81.745 25.7757ZM78.7561 25.5474H81.6308V22.6728H78.7561V25.5474Z" fill="#E6D0BE"/>
<path d="M78.0815 22.5583H74.9785V25.6612H78.0815V22.5583Z" fill="white"/>
<path d="M74.4182 25.7757H71.3153C71.2522 25.7757 71.2012 25.7246 71.2012 25.6615V22.5586C71.2012 22.4955 71.2522 22.4445 71.3153 22.4445H74.4182C74.4813 22.4445 74.5323 22.4956 74.5323 22.5586V25.6615C74.5324 25.7246 74.4813 25.7757 74.4182 25.7757ZM71.4295 25.5474H74.3041V22.6728H71.4295V25.5474Z" fill="#E6D0BE"/>
<path d="M70.7553 22.5583H67.6523V25.6612H70.7553V22.5583Z" fill="#EFBC73"/>
<path d="M92.7346 29.4136H89.6317C89.5686 29.4136 89.5176 29.3626 89.5176 29.2995V26.1965C89.5176 26.1334 89.5686 26.0824 89.6317 26.0824H92.7346C92.7977 26.0824 92.8487 26.1335 92.8487 26.1965V29.2995C92.8487 29.3626 92.7977 29.4136 92.7346 29.4136ZM89.7458 29.1853H92.6204V26.3107H89.7458V29.1853Z" fill="#E6D0BE"/>
<path d="M89.0711 29.4136H85.9681C85.905 29.4136 85.854 29.3626 85.854 29.2995V26.1965C85.854 26.1334 85.9051 26.0824 85.9681 26.0824H89.0711C89.1342 26.0824 89.1853 26.1335 89.1853 26.1965V29.2995C89.1853 29.3626 89.1342 29.4136 89.0711 29.4136ZM86.0823 29.1853H88.9569V26.3107H86.0823V29.1853Z" fill="#E6D0BE"/>
<path d="M85.4081 26.1961H82.3052V29.2991H85.4081V26.1961Z" fill="white"/>
<path d="M81.745 29.4136H78.642C78.5788 29.4136 78.5278 29.3626 78.5278 29.2995V26.1965C78.5278 26.1334 78.5789 26.0824 78.642 26.0824H81.745C81.8081 26.0824 81.8591 26.1335 81.8591 26.1965V29.2995C81.8591 29.3626 81.808 29.4136 81.745 29.4136ZM78.7561 29.1853H81.6308V26.3107H78.7561V29.1853Z" fill="#E6D0BE"/>
<path d="M78.0819 29.4136H74.9789C74.9158 29.4136 74.8647 29.3626 74.8647 29.2995V26.1965C74.8647 26.1334 74.9158 26.0824 74.9789 26.0824H78.0819C78.145 26.0824 78.196 26.1335 78.196 26.1965V29.2995C78.196 29.3626 78.1449 29.4136 78.0819 29.4136ZM75.093 29.1853H77.9677V26.3107H75.093V29.1853Z" fill="#E6D0BE"/>
<path d="M74.4182 29.4136H71.3153C71.2522 29.4136 71.2012 29.3626 71.2012 29.2995V26.1965C71.2012 26.1334 71.2522 26.0824 71.3153 26.0824H74.4182C74.4813 26.0824 74.5323 26.1335 74.5323 26.1965V29.2995C74.5324 29.3626 74.4813 29.4136 74.4182 29.4136ZM71.4295 29.1853H74.3041V26.3107H71.4295V29.1853Z" fill="#E6D0BE"/>
<path d="M70.7552 29.4136H67.6522C67.5891 29.4136 67.5381 29.3626 67.5381 29.2995V26.1965C67.5381 26.1334 67.5892 26.0824 67.6522 26.0824H70.7552C70.8183 26.0824 70.8693 26.1335 70.8693 26.1965V29.2995C70.8694 29.3626 70.8183 29.4136 70.7552 29.4136ZM67.7664 29.1853H70.6411V26.3107H67.7664V29.1853Z" fill="#E6D0BE"/>
<path d="M92.7343 29.8347H89.6313V32.9376H92.7343V29.8347Z" fill="#EFBC73"/>
<path d="M89.0711 33.0522H85.9681C85.905 33.0522 85.854 33.0011 85.854 32.938V29.835C85.854 29.7719 85.9051 29.7209 85.9681 29.7209H89.0711C89.1342 29.7209 89.1853 29.7719 89.1853 29.835V32.938C89.1853 33.0011 89.1342 33.0522 89.0711 33.0522ZM86.0823 32.8239H88.9569V29.9492H86.0823V32.8239Z" fill="#E6D0BE"/>
<path d="M85.408 33.0522H82.305C82.2419 33.0522 82.1909 33.0011 82.1909 32.938V29.835C82.1909 29.7719 82.242 29.7209 82.305 29.7209H85.408C85.4712 29.7209 85.5222 29.7719 85.5222 29.835V32.938C85.5222 33.0011 85.4711 33.0522 85.408 33.0522ZM82.4192 32.8239H85.2939V29.9492H82.4192V32.8239Z" fill="#E6D0BE"/>
<path d="M81.745 33.0522H78.642C78.5788 33.0522 78.5278 33.0011 78.5278 32.938V29.835C78.5278 29.7719 78.5789 29.7209 78.642 29.7209H81.745C81.8081 29.7209 81.8591 29.7719 81.8591 29.835V32.938C81.8591 33.0011 81.808 33.0522 81.745 33.0522ZM78.7561 32.8239H81.6308V29.9492H78.7561V32.8239Z" fill="#E6D0BE"/>
<path d="M78.0819 33.0522H74.9789C74.9158 33.0522 74.8647 33.0011 74.8647 32.938V29.835C74.8647 29.7719 74.9158 29.7209 74.9789 29.7209H78.0819C78.145 29.7209 78.196 29.7719 78.196 29.835V32.938C78.196 33.0011 78.1449 33.0522 78.0819 33.0522ZM75.093 32.8239H77.9677V29.9492H75.093V32.8239Z" fill="#E6D0BE"/>
<path d="M74.4182 33.0522H71.3153C71.2522 33.0522 71.2012 33.0011 71.2012 32.938V29.835C71.2012 29.7719 71.2522 29.7209 71.3153 29.7209H74.4182C74.4813 29.7209 74.5323 29.7719 74.5323 29.835V32.938C74.5324 33.0011 74.4813 33.0522 74.4182 33.0522ZM71.4295 32.8239H74.3041V29.9492H71.4295V32.8239Z" fill="#E6D0BE"/>
<path d="M70.7552 33.0522H67.6522C67.5891 33.0522 67.5381 33.0011 67.5381 32.938V29.835C67.5381 29.7719 67.5892 29.7209 67.6522 29.7209H70.7552C70.8183 29.7209 70.8693 29.7719 70.8693 29.835V32.938C70.8694 33.0011 70.8183 33.0522 70.7552 33.0522ZM67.7664 32.8239H70.6411V29.9492H67.7664V32.8239Z" fill="#E6D0BE"/>
<path d="M92.9319 15.4259C92.9681 15.2031 92.8168 14.9932 92.594 14.957C92.3711 14.9209 92.1612 15.0722 92.125 15.295C92.0889 15.5178 92.2402 15.7277 92.463 15.7639C92.6858 15.8001 92.8958 15.6488 92.9319 15.4259Z" fill="#402A83"/>
<path d="M90.4705 15.4259C90.5067 15.2031 90.3553 14.9932 90.1325 14.957C89.9097 14.9209 89.6998 15.0722 89.6636 15.295C89.6275 15.5178 89.7788 15.7277 90.0016 15.7639C90.2244 15.8001 90.4343 15.6488 90.4705 15.4259Z" fill="#402A83"/>
<path d="M88.0096 15.4259C88.0457 15.2031 87.8944 14.9932 87.6716 14.957C87.4488 14.9209 87.2388 15.0722 87.2027 15.295C87.1665 15.5178 87.3178 15.7277 87.5406 15.7639C87.7635 15.8001 87.9734 15.6488 88.0096 15.4259Z" fill="#402A83"/>
<path d="M85.5481 15.4267C85.5843 15.2039 85.433 14.9939 85.2102 14.9578C84.9874 14.9216 84.7774 15.0729 84.7413 15.2957C84.7051 15.5185 84.8564 15.7285 85.0792 15.7646C85.302 15.8008 85.512 15.6495 85.5481 15.4267Z" fill="#402A83"/>
<path d="M83.0828 15.4613C83.1347 15.2417 82.9986 15.0215 82.779 14.9697C82.5593 14.9178 82.3392 15.0538 82.2873 15.2735C82.2354 15.4932 82.3714 15.7133 82.5911 15.7652C82.8108 15.8171 83.0309 15.681 83.0828 15.4613Z" fill="#402A83"/>
<path d="M80.6258 15.4267C80.6619 15.2039 80.5106 14.9939 80.2878 14.9578C80.065 14.9216 79.8551 15.0729 79.8189 15.2957C79.7827 15.5185 79.934 15.7285 80.1569 15.7646C80.3797 15.8008 80.5896 15.6495 80.6258 15.4267Z" fill="#402A83"/>
<path d="M78.1604 15.4613C78.2123 15.2417 78.0763 15.0215 77.8566 14.9697C77.6369 14.9178 77.4168 15.0538 77.3649 15.2735C77.313 15.4932 77.4491 15.7133 77.6688 15.7652C77.8884 15.8171 78.1086 15.681 78.1604 15.4613Z" fill="#402A83"/>
<path d="M75.7029 15.4267C75.7391 15.2039 75.5878 14.9939 75.365 14.9578C75.1421 14.9216 74.9322 15.0729 74.896 15.2957C74.8599 15.5185 75.0112 15.7285 75.234 15.7646C75.4568 15.8008 75.6668 15.6495 75.7029 15.4267Z" fill="#402A83"/>
<path d="M73.2376 15.4613C73.2895 15.2417 73.1534 15.0215 72.9337 14.9697C72.7141 14.9178 72.4939 15.0538 72.4421 15.2735C72.3902 15.4932 72.5262 15.7133 72.7459 15.7652C72.9656 15.8171 73.1857 15.681 73.2376 15.4613Z" fill="#402A83"/>
<path d="M70.7806 15.4267C70.8167 15.2039 70.6654 14.9939 70.4426 14.9578C70.2198 14.9216 70.0098 15.0729 69.9737 15.2957C69.9375 15.5185 70.0888 15.7285 70.3116 15.7646C70.5345 15.8008 70.7444 15.6495 70.7806 15.4267Z" fill="#402A83"/>
<path d="M68.2025 15.6511C68.3621 15.4915 68.3621 15.2327 68.2025 15.0731C68.0428 14.9135 67.7841 14.9135 67.6244 15.0731C67.4648 15.2327 67.4648 15.4915 67.6244 15.6511C67.7841 15.8107 68.0428 15.8107 68.2025 15.6511Z" fill="#402A83"/>
<path d="M67.9652 15.4502C67.9021 15.4502 67.8511 15.3992 67.8511 15.3361V13.0627C67.8511 12.9996 67.9021 12.9485 67.9652 12.9485C68.0283 12.9485 68.0793 12.9996 68.0793 13.0627V15.3361C68.0794 15.3992 68.0283 15.4502 67.9652 15.4502Z" fill="#D3BBA3"/>
<path d="M70.4213 15.4502C70.3581 15.4502 70.3071 15.3992 70.3071 15.3361V13.0627C70.3071 12.9996 70.3582 12.9485 70.4213 12.9485C70.4843 12.9485 70.5354 12.9996 70.5354 13.0627V15.3361C70.5354 15.3992 70.4844 15.4502 70.4213 15.4502Z" fill="#D3BBA3"/>
<path d="M72.8768 15.4502C72.8137 15.4502 72.7627 15.3992 72.7627 15.3361V13.0627C72.7627 12.9996 72.8138 12.9485 72.8768 12.9485C72.9399 12.9485 72.991 12.9996 72.991 13.0627V15.3361C72.991 15.3992 72.9399 15.4502 72.8768 15.4502Z" fill="#D3BBA3"/>
<path d="M75.3324 15.4502C75.2693 15.4502 75.2183 15.3992 75.2183 15.3361V13.0627C75.2183 12.9996 75.2693 12.9485 75.3324 12.9485C75.3954 12.9485 75.4465 12.9996 75.4465 13.0627V15.3361C75.4465 15.3992 75.3954 15.4502 75.3324 15.4502Z" fill="#D3BBA3"/>
<path d="M77.7884 15.4502C77.7253 15.4502 77.6743 15.3992 77.6743 15.3361V13.0627C77.6743 12.9996 77.7254 12.9485 77.7884 12.9485C77.8515 12.9485 77.9026 12.9996 77.9026 13.0627V15.3361C77.9026 15.3992 77.8516 15.4502 77.7884 15.4502Z" fill="#D3BBA3"/>
<path d="M80.244 15.4502C80.1809 15.4502 80.1299 15.3992 80.1299 15.3361V13.0627C80.1299 12.9996 80.181 12.9485 80.244 12.9485C80.3071 12.9485 80.3582 12.9996 80.3582 13.0627V15.3361C80.3581 15.3992 80.3071 15.4502 80.244 15.4502Z" fill="#D3BBA3"/>
<path d="M82.6996 15.4502C82.6365 15.4502 82.5854 15.3992 82.5854 15.3361V13.0627C82.5854 12.9996 82.6365 12.9485 82.6996 12.9485C82.7627 12.9485 82.8137 12.9996 82.8137 13.0627V15.3361C82.8137 15.3992 82.7627 15.4502 82.6996 15.4502Z" fill="#D3BBA3"/>
<path d="M85.1556 15.4502C85.0925 15.4502 85.0415 15.3992 85.0415 15.3361V13.0627C85.0415 12.9996 85.0926 12.9485 85.1556 12.9485C85.2187 12.9485 85.2698 12.9996 85.2698 13.0627V15.3361C85.2698 15.3992 85.2187 15.4502 85.1556 15.4502Z" fill="#D3BBA3"/>
<path d="M87.6112 15.4502C87.5481 15.4502 87.4971 15.3992 87.4971 15.3361V13.0627C87.4971 12.9996 87.5481 12.9485 87.6112 12.9485C87.6743 12.9485 87.7253 12.9996 87.7253 13.0627V15.3361C87.7253 15.3992 87.6743 15.4502 87.6112 15.4502Z" fill="#D3BBA3"/>
<path d="M90.0668 15.4502C90.0037 15.4502 89.9526 15.3992 89.9526 15.3361V13.0627C89.9526 12.9996 90.0037 12.9485 90.0668 12.9485C90.1299 12.9485 90.1809 12.9996 90.1809 13.0627V15.3361C90.1809 15.3992 90.1299 15.4502 90.0668 15.4502Z" fill="#D3BBA3"/>
<path d="M92.5228 15.4502C92.4597 15.4502 92.4087 15.3992 92.4087 15.3361V13.0627C92.4087 12.9996 92.4598 12.9485 92.5228 12.9485C92.5859 12.9485 92.6369 12.9996 92.6369 13.0627V15.3361C92.6369 15.3992 92.5859 15.4502 92.5228 15.4502Z" fill="#D3BBA3"/>
<path d="M87.2671 52.6058H74.5453C74.4822 52.6058 74.4312 52.5548 74.4312 52.4917V39.7756C74.4312 39.7125 74.4822 39.6615 74.5453 39.6615H87.2671C87.3302 39.6615 87.3812 39.7126 87.3812 39.7756V52.4917C87.3812 52.5548 87.3302 52.6058 87.2671 52.6058ZM74.6595 52.3775H87.1529V39.8898H74.6595V52.3775Z" fill="#35674E"/>
<path d="M80.2237 50.5691L76.2407 46.9479L77.4712 45.4312L79.9966 47.4493L83.9593 41.6978L85.5715 42.8074L80.2237 50.5691Z" fill="white"/>
<path d="M48.8151 30.8639C48.814 30.8639 48.8129 30.8639 48.8118 30.8639C48.1561 30.863 47.54 30.6069 47.077 30.1428C46.614 29.6785 46.3595 29.0618 46.3604 28.4061L46.3636 25.9514L51.2727 25.9577L51.2696 28.4123C51.2687 29.068 51.0127 29.6841 50.5485 30.1472C50.085 30.6094 49.4695 30.8639 48.8151 30.8639ZM46.5916 26.1799L46.5887 28.4063C46.5879 29.001 46.8187 29.5604 47.2387 29.9814C47.6586 30.4024 48.2174 30.6348 48.8121 30.6355C48.813 30.6355 48.8141 30.6355 48.8151 30.6355C50.0413 30.6355 51.0398 29.6388 51.0413 28.4121L51.0442 26.1858L46.5916 26.1799Z" fill="#363E44"/>
<path d="M53.1087 25.3839C55.4751 23.0175 55.4751 19.1808 53.1087 16.8144C50.7423 14.448 46.9056 14.448 44.5392 16.8144C42.1728 19.1808 42.1728 23.0175 44.5392 25.384C46.9056 27.7504 50.7423 27.7504 53.1087 25.3839Z" fill="#EFBC73"/>
<path d="M48.8326 29.3246C48.8263 29.3246 48.8202 29.3246 48.814 29.3246C48.2607 29.3238 46.4556 29.29 46.4561 28.8867C46.4561 28.8237 46.5072 28.7727 46.5702 28.7727H46.5703C46.6235 28.7728 46.6682 28.8092 46.6808 28.8585C46.7888 28.9443 47.4952 29.0945 48.8142 29.0963C48.8216 29.0963 48.8289 29.0963 48.8361 29.0963C50.1411 29.0963 50.8406 28.9491 50.9483 28.8641C50.961 28.815 51.0057 28.7786 51.0589 28.7786H51.059C51.1221 28.7787 51.1731 28.8298 51.173 28.8929C51.1725 29.2918 49.4068 29.3246 48.8326 29.3246Z" fill="#363E44"/>
<path d="M48.8341 28.2986C48.8277 28.2986 48.8216 28.2986 48.8154 28.2986C48.2622 28.2978 46.4571 28.2641 46.4575 27.8608C46.4576 27.7978 46.5087 27.7468 46.5716 27.7468H46.5718C46.625 27.7469 46.6696 27.7834 46.6822 27.8327C46.7903 27.9183 47.4967 28.0686 48.8156 28.0703C48.823 28.0703 48.8303 28.0703 48.8376 28.0703C50.1425 28.0703 50.8421 27.9231 50.9498 27.8381C50.9625 27.789 51.0071 27.7526 51.0602 27.7526C51.0603 27.7526 51.0603 27.7526 51.0604 27.7526C51.1234 27.7527 51.1745 27.8039 51.1744 27.867C51.1737 28.2659 49.4081 28.2986 48.8341 28.2986Z" fill="#363E44"/>
<path d="M49.6279 25.7991C49.6128 25.7991 49.5977 25.7962 49.5831 25.79C49.5251 25.7652 49.4981 25.6981 49.5229 25.6401L51.433 21.1677C51.4577 21.1096 51.5253 21.0829 51.5828 21.1075C51.6408 21.1323 51.6678 21.1994 51.643 21.2573L49.7329 25.7298C49.7144 25.7732 49.6721 25.7991 49.6279 25.7991Z" fill="#363E44"/>
<path d="M48.0092 25.7968C47.9648 25.7968 47.9226 25.7707 47.9041 25.7273L46.0057 21.2498C45.9811 21.1917 46.0082 21.1247 46.0662 21.1001C46.1241 21.0755 46.1913 21.1025 46.2159 21.1606L48.1144 25.6381C48.139 25.6961 48.1118 25.7631 48.0538 25.7878C48.0392 25.7939 48.0242 25.7968 48.0092 25.7968Z" fill="#363E44"/>
<path d="M49.9134 21.8659C49.5952 21.8659 49.276 21.7669 49.0217 21.5757C48.7743 21.6815 48.5028 21.7288 48.2336 21.702C47.4851 21.6263 46.8387 20.9808 46.7618 20.2325C46.7554 20.1697 46.801 20.1136 46.8637 20.1072C46.9266 20.1019 46.9824 20.1464 46.9889 20.2091C47.0551 20.8537 47.6119 21.4098 48.2566 21.4748C48.4525 21.4946 48.6499 21.4685 48.8347 21.4049C48.466 20.998 48.3482 20.3738 48.5585 19.8638C48.6644 19.6075 48.8956 19.3219 49.2272 19.2892C49.5159 19.2596 49.8103 19.443 49.9457 19.7325C50.0549 19.9662 50.0635 20.2589 49.9699 20.5571C49.8518 20.9334 49.5859 21.2507 49.2518 21.4565C49.6263 21.6855 50.1271 21.7032 50.5104 21.485C50.5647 21.4538 50.6347 21.4729 50.666 21.5278C50.6972 21.5826 50.6781 21.6522 50.6232 21.6834C50.4077 21.8061 50.1609 21.8659 49.9134 21.8659ZM49.2862 19.5145C49.2739 19.5145 49.2619 19.5151 49.2497 19.5163C49.0185 19.5391 48.8501 19.7558 48.7696 19.951C48.582 20.4053 48.7037 20.9676 49.0577 21.3072C49.3809 21.133 49.6415 20.8409 49.7521 20.4886C49.8285 20.2451 49.8238 20.0109 49.7387 19.8292C49.6512 19.6418 49.4653 19.5145 49.2862 19.5145Z" fill="#35674E"/>
</g>
</g>
<defs>
<clipPath id="clip0_177_10875">
<rect width="94" height="120" fill="white"/>
</clipPath>
<clipPath id="clip1_177_10875">
<rect x="-0.37207" y="12.5" width="94.7442" height="97" rx="7.51938" fill="white"/>
</clipPath>
</defs>
</svg>
