<svg width="94" height="120" viewBox="0 0 94 120" fill="none" xmlns="http://www.w3.org/2000/svg">
<g clip-path="url(#clip0_176_252)">
<rect width="94" height="120" fill="#621DA3"/>
<g clip-path="url(#clip1_176_252)">
<path d="M47 107.374C73.1629 107.374 94.3721 86.1648 94.3721 60.0019C94.3721 33.839 73.1629 12.6298 47 12.6298C20.8371 12.6298 -0.37207 33.839 -0.37207 60.0019C-0.37207 86.1648 20.8371 107.374 47 107.374Z" fill="#E064D9"/>
<path d="M43.1517 94.1961V85.2237H58.5329V76.2513H72.6324V65.9971H91.5074V76.5204H77.4079V86.7745H62.0267V95.7469H46.6455V104.719H27.7705V94.1961H43.1517Z" fill="#FFEDFB"/>
<path d="M43.9644 101.786H25.0894C25.0607 101.786 25.0376 101.763 25.0376 101.734V91.2107C25.0376 91.1821 25.0607 91.159 25.0894 91.159H40.4188V82.2383C40.4188 82.2098 40.442 82.1866 40.4706 82.1866H55.8001V73.266C55.8001 73.2374 55.8232 73.2142 55.8518 73.2142H69.8995V63.0118C69.8995 62.9832 69.9226 62.96 69.9513 62.96H88.8263C88.8548 62.96 88.878 62.9832 88.878 63.0118V73.535C88.878 73.5636 88.8548 73.5868 88.8263 73.5868H74.7786V83.7892C74.7786 83.8178 74.7555 83.841 74.7268 83.841H59.3974V92.7616C59.3974 92.7902 59.3742 92.8134 59.3456 92.8134H44.0162V101.734C44.0162 101.763 43.993 101.786 43.9644 101.786ZM25.1411 101.682H43.9126V92.7616C43.9126 92.733 43.9358 92.7098 43.9644 92.7098H59.2938V83.7892C59.2938 83.7606 59.317 83.7374 59.3456 83.7374H74.6751V73.535C74.6751 73.5065 74.6982 73.4833 74.7268 73.4833H88.7745V63.0636H70.003V73.266C70.003 73.2945 69.9799 73.3177 69.9513 73.3177H55.9036V82.2383C55.9036 82.2669 55.8805 82.2901 55.8518 82.2901H40.5224V91.2107C40.5224 91.2393 40.4992 91.2625 40.4706 91.2625H25.1411V101.682Z" fill="#D3BBA3"/>
<path d="M48.9184 13.9508C51.6514 14.3511 53.7005 16.4889 54.1104 19.0806C54.9196 18.8831 55.7792 18.8334 56.654 18.9615C60.2955 19.4949 62.8151 22.8792 62.2817 26.5206C62.2384 26.8165 62.1743 27.1041 62.0948 27.3842C62.481 27.3915 62.8712 27.4232 63.2635 27.4807C68.2844 28.2161 71.7583 32.8824 71.0229 37.9032C70.4252 41.9841 67.2304 45.0431 63.3593 45.6504C63.4127 46.1835 63.4032 46.7315 63.322 47.2857C62.7886 50.9271 59.4042 53.4467 55.7628 52.9133C55.695 52.9034 55.6284 52.8905 55.5614 52.8786C54.9269 56.8549 51.2126 59.594 47.2168 59.0087C45.0188 58.6868 43.192 57.4245 42.0803 55.6906C41.2928 56.0366 40.4021 56.1738 39.4882 56.04C38.1076 55.8377 36.9536 55.0599 36.2334 53.9855C34.8934 54.7473 33.2998 55.0863 31.6565 54.8456C27.7392 54.2718 25.0287 50.6311 25.6025 46.7138C26.0179 43.8775 28.0416 41.675 30.6135 40.8925C29.0823 39.3463 28.2708 37.1246 28.6105 34.8057C29.0439 31.8463 31.2281 29.5769 33.9592 28.8908C32.4566 27.3667 31.6608 25.1816 31.9949 22.9008C32.5606 19.0387 36.1501 16.3664 40.0122 16.932C40.848 17.0545 41.6278 17.319 42.3314 17.6968C43.3814 15.1446 46.0641 13.5327 48.9184 13.9508Z" fill="#FFEDFB"/>
<path d="M24.7124 31.8957C26.2481 30.36 26.2481 27.8701 24.7124 26.3344C23.1767 24.7988 20.6869 24.7988 19.1512 26.3344C17.6155 27.8701 17.6155 30.36 19.1512 31.8957C20.6869 33.4313 23.1767 33.4313 24.7124 31.8957Z" fill="#FFEDFB"/>
<path d="M15.0054 38.5441C16.0913 37.4582 16.0913 35.6976 15.0054 34.6117C13.9196 33.5258 12.159 33.5258 11.0731 34.6117C9.98722 35.6976 9.98722 37.4582 11.0731 38.5441C12.159 39.6299 13.9196 39.6299 15.0054 38.5441Z" fill="#FFEDFB"/>
<path d="M13.2922 45.8105C14.0879 45.3696 14.3756 44.3672 13.9347 43.5714C13.4939 42.7757 12.4914 42.488 11.6957 42.9289C10.9 43.3697 10.6123 44.3722 11.0531 45.1679C11.494 45.9637 12.4964 46.2513 13.2922 45.8105Z" fill="#FFEDFB"/>
<path d="M48.3987 47.5626C48.8938 46.9137 49.2174 45.845 49.2174 44.6356C49.2174 44.245 49.1831 43.8693 49.1208 43.5173C49.6879 43.2444 50.0454 42.8475 50.0454 42.4053C50.0454 42.0914 49.865 41.8003 49.5576 41.5601C52.7016 39.8948 54.9865 34.8664 54.9865 28.9214C54.9865 28.6776 54.9823 28.4354 54.9747 28.1948H39.5938C39.5862 28.4354 39.582 28.6776 39.582 28.9214C39.582 34.8664 41.8668 39.8948 45.0109 41.5601C44.7036 41.8003 44.5231 42.0914 44.5231 42.4053C44.5231 42.8475 44.8806 43.2444 45.4477 43.5173C45.3854 43.8693 45.3512 44.245 45.3512 44.6356C45.3512 45.845 45.6748 46.9137 46.1698 47.5626C43.7896 47.774 41.994 48.6482 41.9339 49.7028H52.6346C52.5745 48.6482 50.779 47.774 48.3987 47.5626Z" fill="#F5CD1B"/>
<path d="M44.4979 39.2912C39.9419 39.2912 36.2354 35.5846 36.2354 31.0286V28.9214C36.2354 28.8928 36.2585 28.8696 36.2871 28.8696H44.4979C44.5266 28.8696 44.5497 28.8928 44.5497 28.9214V39.2394C44.5497 39.268 44.5266 39.2912 44.4979 39.2912ZM36.3389 28.9732V31.0286C36.3389 35.5102 39.971 39.1595 44.4462 39.1875V28.9732H36.3389Z" fill="#F5CD1B"/>
<path d="M50.0034 39.2912C49.9748 39.2912 49.9517 39.268 49.9517 39.2394V28.9214C49.9517 28.8928 49.9748 28.8696 50.0034 28.8696H58.2142C58.2429 28.8696 58.266 28.8928 58.266 28.9214V31.0286C58.266 35.5846 54.5594 39.2912 50.0034 39.2912ZM50.0552 28.9732V39.1875C54.5303 39.1595 58.1625 35.5102 58.1625 31.0286V28.9732H50.0552Z" fill="#F5CD1B"/>
<path d="M49.606 39.9896C49.5923 39.9896 49.5788 39.9842 49.5686 39.9736C49.5488 39.9529 49.5496 39.9202 49.5702 39.9004C50.3066 39.196 51.6833 37.6391 52.6295 35.1261C53.453 32.9386 53.4742 31.7713 53.5064 30.0045C53.5088 29.8732 53.5113 29.7385 53.5141 29.5996C53.5147 29.571 53.5374 29.5489 53.5669 29.5489C53.5955 29.5495 53.6182 29.5731 53.6176 29.6018C53.6148 29.7406 53.6123 29.8753 53.6099 30.0065C53.5776 31.784 53.5562 32.9584 52.7264 35.1627C51.7731 37.6948 50.3846 39.2648 49.6418 39.9753C49.6317 39.9848 49.6189 39.9896 49.606 39.9896Z" fill="#F7F1EB"/>
<path d="M44.6737 31.1872L44.6683 31.1861C43.8313 31.0163 43.1766 30.3633 43.0046 29.5269L43.0035 29.5323C42.8337 30.3693 42.1807 31.024 41.3442 31.196L41.3497 31.1971C42.1866 31.3669 42.8414 32.0199 43.0134 32.8564L43.0145 32.8509C43.1843 32.0139 43.8372 31.3591 44.6737 31.1872Z" fill="#FFEDFB"/>
<path d="M48.9643 41.5623H45.5689C45.5402 41.5623 45.5171 41.5391 45.5171 41.5105C45.5171 41.4819 45.5402 41.4587 45.5689 41.4587H48.9643C48.9929 41.4587 49.0161 41.4819 49.0161 41.5105C49.0161 41.5391 48.9929 41.5623 48.9643 41.5623Z" fill="#F7F1EB"/>
<path d="M48.7149 43.5596H45.8189C45.7902 43.5596 45.7671 43.5364 45.7671 43.5078C45.7671 43.4792 45.7902 43.4561 45.8189 43.4561H48.7149C48.7435 43.4561 48.7666 43.4792 48.7666 43.5078C48.7666 43.5365 48.7435 43.5596 48.7149 43.5596Z" fill="#F7F1EB"/>
<path d="M47.9658 47.7217H46.4849C46.4562 47.7217 46.4331 47.6985 46.4331 47.6699C46.4331 47.6414 46.4562 47.6182 46.4849 47.6182H47.9658C47.9944 47.6182 48.0176 47.6414 48.0176 47.6699C48.0176 47.6985 47.9944 47.7217 47.9658 47.7217Z" fill="#F7F1EB"/>
<path d="M27.3716 66.4751C29.4513 70.3717 37.2926 86.6588 42.6926 84.051C46.6865 82.1222 44.7804 77.3235 37.8521 64.5862C34.9292 65.8359 30.2944 65.2253 27.3716 66.4751Z" fill="#FDFFFF"/>
<path d="M58.9541 71.8801C58.8041 71.4626 58.2483 71.2541 58.1128 71.2273C58.3966 70.9342 58.5761 70.5312 58.3759 70.0516C58.1982 69.6257 57.5784 69.4888 57.5236 69.4797C57.5563 69.435 58.0572 69.1642 57.9038 68.5022C57.8001 68.0548 57.3492 67.8158 57.1906 67.7762C59.1519 66.599 59.8533 66.1119 59.6675 65.6601C59.3412 64.8667 53.8943 67.1274 50.2142 69.0084C42.4815 72.9607 38.2651 75.5811 38.1881 75.6197C36.8099 76.3066 42.048 81.3442 42.6518 84.0055C42.8204 83.9045 45.0613 83.2196 54.3515 75.3154C55.321 74.4905 57.5479 73.5449 58.3201 73.1365C58.7411 72.9138 59.1492 72.4228 58.9541 71.8801Z" fill="#FDFFFF"/>
<path d="M52.3371 73.1952C52.3248 73.1952 52.3124 73.1909 52.3025 73.1819C52.2813 73.1628 52.2795 73.1301 52.2987 73.1088C52.8987 72.4419 53.0877 71.7391 53.2397 71.1744C53.3922 70.6073 53.5127 70.1595 54.0051 70.1088C54.3514 70.0732 54.7351 69.8658 55.1459 69.4925C55.2677 69.3818 55.2679 69.2347 55.2275 69.134C55.1874 69.0339 55.0873 68.9286 54.9259 68.9286C54.9227 68.9286 54.9195 68.9286 54.9162 68.9287L52.2303 68.9978C52.2025 68.9992 52.178 68.976 52.1773 68.9474C52.1765 68.9188 52.1991 68.8951 52.2277 68.8943L54.9136 68.8252C54.9174 68.8251 54.9212 68.825 54.9251 68.825C55.1017 68.825 55.2573 68.9302 55.3236 69.0954C55.3917 69.2651 55.3504 69.4467 55.2155 69.5691C54.7881 69.9576 54.3844 70.1738 54.0157 70.2117C53.5942 70.2551 53.4929 70.6315 53.3396 71.2013C53.1849 71.7766 52.9922 72.4926 52.3756 73.178C52.3654 73.1895 52.3513 73.1952 52.3371 73.1952Z" fill="#CE51D7"/>
<path d="M56.7535 73.4312C56.735 73.4312 56.7171 73.4212 56.7077 73.4037C56.3651 72.7603 56.5806 71.9532 57.1985 71.5663L57.2406 71.5399L56.7069 71.7332C56.2934 71.883 55.8321 71.716 55.6102 71.3361C55.4852 71.1223 55.4528 70.873 55.5187 70.6343C55.5846 70.3955 55.7405 70.1982 55.9576 70.0788L56.4628 69.8008C56.1324 69.8645 55.7868 69.6933 55.646 69.3749C55.4939 69.031 55.6241 68.6285 55.9489 68.4389L56.7985 67.9427C56.8233 67.9284 56.855 67.9366 56.8693 67.9613C56.8837 67.986 56.8754 68.0177 56.8507 68.0321L56.0011 68.5283C55.7219 68.6913 55.61 69.0373 55.7408 69.333C55.8795 69.6469 56.2499 69.7943 56.5664 69.6618L57.1922 69.3996C57.2176 69.3891 57.2469 69.4001 57.2588 69.4249C57.2708 69.4497 57.2613 69.4795 57.2372 69.4927L56.0076 70.1694C55.8152 70.2753 55.6771 70.4501 55.6186 70.6617C55.5601 70.8733 55.5889 71.0942 55.6996 71.2838C55.8963 71.6205 56.3052 71.7685 56.6716 71.6357L57.6629 71.2767C57.6879 71.2677 57.7155 71.2789 57.727 71.3027C57.7386 71.3264 57.7304 71.3552 57.7079 71.3692L57.2533 71.6539C56.6813 72.0121 56.4818 72.7593 56.7991 73.3549C56.8125 73.3802 56.803 73.4115 56.7777 73.425C56.77 73.4292 56.7617 73.4312 56.7535 73.4312Z" fill="#CE51D7"/>
<path d="M33.1297 73.5285C33.1297 73.5285 37.9335 64.7264 37.8522 64.5856C35.1708 56.8918 19.646 60.8764 10.1837 62.5942C10.1102 62.6075 10.0377 62.6213 9.96612 62.6356C6.07674 63.4121 3.97896 67.6721 5.67017 71.2596L8.37965 77.007L5.81834 92.1277H38.4564L33.1297 73.5285Z" fill="#CE51D7"/>
<path d="M6.39551 106.39L11.0333 84.4197L13.9718 92.1271H33.9758L38.7574 106.39H6.39551Z" fill="#F8D9B8"/>
<path d="M11.0405 59.7063C16.1666 60.6711 22.0047 61.1851 27.8127 59.7063C27.8127 59.7063 27.1818 50.1655 20.6298 50.3616C15.167 50.5251 11.7205 55.6061 11.0405 59.7063Z" fill="#6D21A5"/>
<path d="M18.1401 51.6545C18.1401 51.6545 20.5536 50.4355 21.5737 49.3175C22.5937 48.1994 24.7911 47.3053 26.0517 48.9833C27.3124 50.6613 23.4328 51.7508 23.4328 51.7508L18.1401 51.6545Z" fill="#6D21A5"/>
<path d="M19.9439 51.2592C19.9439 51.2592 20.4223 45.353 17.3639 47.2481C14.3054 49.1432 18.3347 52.1441 19.9439 51.2592Z" fill="#6D21A5"/>
<path d="M18.43 51.6287C17.6103 51.6287 16.6755 51.3226 16.0599 50.7561C15.2357 49.9977 15.2575 48.9965 16.1197 48.0092C16.6396 47.4139 17.1531 47.1758 17.6455 47.3018C19.0785 47.6681 19.8229 50.9679 19.8538 51.1082C19.8576 51.1252 19.8526 51.1429 19.8404 51.1554C19.5294 51.4763 19.0083 51.6287 18.43 51.6287ZM17.389 47.3729C17.0064 47.3729 16.6068 47.6089 16.1976 48.0774C15.0749 49.3629 15.6733 50.2598 16.1299 50.6799C16.5944 51.1074 17.3096 51.4144 18.043 51.5012C18.7798 51.5886 19.3987 51.4435 19.7463 51.1032C19.6708 50.7805 18.925 47.7357 17.6197 47.4022C17.5437 47.3826 17.4667 47.3729 17.389 47.3729Z" fill="#6D21A5"/>
<path d="M17.8042 62.5631L18.906 57.7532L22.0044 58.9384L22.336 62.8185L17.8042 62.5631Z" fill="#FDFFFF"/>
<path d="M23.2838 63.5019C23.2103 64.0391 21.6675 64.2718 19.8378 64.0215C18.0082 63.7713 16.5845 63.1329 16.658 62.5957C16.7315 62.0584 18.2743 61.8258 20.1039 62.076C21.9336 62.3263 23.3572 62.9647 23.2838 63.5019Z" fill="#FDFFFF"/>
<path d="M23.8147 51.6544C23.8147 51.6544 25.2301 58.6488 22.4327 59.7578C20.7402 60.4289 18.5308 58.9305 17.8542 58.115C17.1774 57.2995 17.0864 55.6501 17.0864 55.6501C17.0864 55.6501 17.8383 56.0139 18.1938 55.5083C18.5493 55.0026 17.3041 52.907 19.3896 52.3589C21.475 51.8108 21.969 52.611 23.8147 51.6544Z" fill="#FDFFFF"/>
<path d="M21.614 60.0831C20.6016 60.0831 19.4865 59.5534 18.8128 59.0133C18.7905 58.9953 18.787 58.9628 18.8049 58.9405C18.8228 58.9182 18.8553 58.9146 18.8777 58.9324C19.5582 59.4782 20.6984 60.0138 21.709 59.9778C21.7374 59.9772 21.7615 59.9992 21.7625 60.0278C21.7635 60.0564 21.7412 60.0803 21.7126 60.0813C21.6799 60.0825 21.6469 60.0831 21.614 60.0831Z" fill="#CE51D7"/>
<path d="M18.2631 56.0396C18.6088 56.532 18.7494 57.5807 18.257 57.9264C17.7646 58.2722 16.8259 57.784 16.4802 57.2916C16.1344 56.7993 16.2533 56.1199 16.7456 55.7741C17.2379 55.4285 17.9173 55.5473 18.2631 56.0396Z" fill="#FDFFFF"/>
<path d="M19.8457 54.4827C19.8511 54.4961 19.8453 54.5097 19.8507 54.5232C19.8509 54.5238 19.8513 54.5241 19.8516 54.5247C19.8652 54.7281 19.8792 54.9427 19.8555 55.1452C19.8449 55.2348 19.8028 55.2951 19.7833 55.3785C19.7691 55.4396 19.7556 55.4982 19.7391 55.5578C19.155 55.2179 18.8237 54.6713 18.8237 54.6713C18.8237 54.6713 19.2845 54.4838 19.8457 54.4827Z" fill="#FFEDFB"/>
<path d="M20.505 54.5828C21.2586 54.8288 21.7236 55.511 21.7985 55.6273C21.7935 55.6372 21.7883 55.6469 21.783 55.6567C21.6355 55.7126 20.8705 55.9763 20.1291 55.7343C19.9901 55.6889 19.8618 55.6279 19.7431 55.559C19.7215 55.5079 19.7021 55.4554 19.6879 55.4001C19.6035 55.073 19.6717 54.7431 19.8466 54.4833C20.0568 54.4839 20.2818 54.5099 20.505 54.5828Z" fill="#CE51D7"/>
<path d="M23.8804 54.8497C23.9447 55.0819 23.9502 55.2692 23.8707 55.4859C23.3071 55.5958 22.8149 55.4902 22.8149 55.4902C22.8149 55.4902 23.0889 54.7874 23.6889 54.3436C23.7913 54.4886 23.8348 54.6849 23.8804 54.8497Z" fill="#FFEDFB"/>
<path d="M23.8825 55.4834C23.6197 55.1726 23.5389 54.7363 23.6897 54.3448C23.7574 54.2954 23.8281 54.2484 23.9044 54.2069C24.6663 53.7917 25.5737 53.987 25.5737 53.987C25.5737 53.987 25.2458 54.8553 24.484 55.2705C24.2871 55.3778 24.0806 55.4438 23.8825 55.4834Z" fill="#CE51D7"/>
<path d="M17.0469 57.2205C17.0305 57.2205 17.0143 57.2127 17.0043 57.1981C16.9819 57.1658 16.9622 57.1309 16.9453 57.0945C16.8072 56.7953 16.9039 56.4556 17.1607 56.337C17.2246 56.3076 17.2935 56.294 17.365 56.296C17.3936 56.297 17.4159 56.3208 17.4151 56.3494C17.4142 56.378 17.3889 56.4012 17.3617 56.3995C17.3063 56.3976 17.2533 56.4084 17.2041 56.4311C16.9991 56.5257 16.9251 56.8038 17.0393 57.0511C17.0536 57.0822 17.0705 57.1119 17.0895 57.1394C17.1057 57.163 17.0998 57.1952 17.0762 57.2114C17.0673 57.2175 17.057 57.2205 17.0469 57.2205Z" fill="#CE51D7"/>
<path d="M22.7361 56.6613C22.7261 56.6613 22.716 56.6585 22.707 56.6524C22.6834 56.6363 22.6772 56.6041 22.6933 56.5805C22.7549 56.4899 22.7793 56.406 22.766 56.331C22.7523 56.2529 22.7005 56.2049 22.6288 56.1385C22.5714 56.0852 22.5062 56.0248 22.4437 55.9336C22.3642 55.8173 22.3107 55.6809 22.2849 55.528C22.2801 55.4999 22.2991 55.4731 22.3273 55.4684C22.3557 55.4633 22.3822 55.4826 22.387 55.5108C22.4103 55.6488 22.4581 55.7713 22.5292 55.8751C22.5851 55.9567 22.6457 56.013 22.6992 56.0625C22.7791 56.1366 22.8481 56.2006 22.8679 56.313C22.8861 56.4155 22.8561 56.525 22.7789 56.6387C22.769 56.6534 22.7527 56.6613 22.7361 56.6613Z" fill="#CE51D7"/>
<path d="M22.0462 57.7973C22.0058 57.7973 21.9658 57.7919 21.9264 57.7811C21.665 57.709 21.5317 57.4226 21.5261 57.4104C21.5143 57.3844 21.5257 57.3538 21.5517 57.3418C21.5778 57.33 21.6085 57.3414 21.6203 57.3673C21.6215 57.3699 21.7399 57.6225 21.9544 57.6814C22.0702 57.7132 22.1965 57.6827 22.3295 57.5909C22.353 57.5747 22.3852 57.5805 22.4016 57.604C22.4178 57.6276 22.4119 57.6598 22.3884 57.676C22.2716 57.7568 22.1569 57.7973 22.0462 57.7973Z" fill="#CE51D7"/>
<path d="M6.23547 70.5413L12.9718 83.4745C14.47 86.7229 17.6625 89.0631 21.2397 89.0631H23.3407L23.2417 79.1399L14.6057 66.1586C13.4027 64.1174 10.875 63.2812 8.69194 64.2022C6.22895 65.2414 5.11584 68.1137 6.23547 70.5413Z" fill="#FDFFFF"/>
<path d="M19.1837 86.5858L21.9818 65.7829C21.9818 65.7829 22.0077 64.9855 21.8529 64.1874C21.4201 61.9558 20.5457 57.9481 21.2277 57.707C22.1537 57.3796 23.5964 62.552 23.5964 62.552C23.5964 62.552 24.8362 60.9842 25.8845 62.2407C25.8845 62.2407 27.5612 61.5468 28.0385 63.0521C28.0385 63.0521 28.7378 62.7175 29.4619 63.8512C30.1859 64.9849 29.5904 65.7063 29.5904 65.7063L28.9952 65.807C28.9952 65.807 29.6563 68.6558 29.538 69.0153C29.4198 69.3748 32.1762 88.0049 25.0762 88.9128C17.9762 89.8208 19.1837 86.5858 19.1837 86.5858Z" fill="#FDFFFF"/>
<path d="M21.4467 61.9221C21.4214 61.9221 21.3992 61.9035 21.3955 61.8777C21.3643 61.6612 21.3315 61.4396 21.2984 61.217C20.9835 59.0945 20.8205 57.7959 21.2102 57.6581C21.5437 57.5403 21.9394 57.9944 22.4186 59.0474C22.4304 59.0734 22.4189 59.1041 22.3929 59.1159C22.3669 59.1278 22.3362 59.1162 22.3243 59.0902C21.7683 57.8684 21.4304 57.69 21.2447 57.7558C20.9073 57.8751 21.181 59.7196 21.4009 61.2018C21.434 61.4246 21.4668 61.6463 21.4981 61.863C21.5021 61.8913 21.4825 61.9175 21.4542 61.9216C21.4516 61.9219 21.4491 61.9221 21.4467 61.9221Z" fill="#CE51D7"/>
<path d="M19.8233 81.8807C19.821 81.8807 19.8187 81.8805 19.8163 81.8802C19.788 81.8764 19.7681 81.8504 19.772 81.822L20.5718 75.8753C20.5756 75.8469 20.601 75.8271 20.63 75.8308C20.6584 75.8347 20.6782 75.8607 20.6744 75.8891L19.8746 81.8358C19.8711 81.8618 19.8488 81.8807 19.8233 81.8807Z" fill="#CE51D7"/>
<path d="M77.9015 61.9941C77.5249 61.9941 77.1465 61.9795 76.767 61.9499C72.9446 61.6529 69.4666 59.8846 66.9738 56.9707C64.481 54.0569 63.2716 50.3463 63.5685 46.5225C63.8655 42.6988 65.6331 39.2195 68.5459 36.7258C71.4587 34.232 75.1685 33.0223 78.9902 33.3192C82.8126 33.6162 86.2905 35.3846 88.7834 38.2984C91.2762 41.2123 92.4857 44.9228 92.1887 48.7466C91.8918 52.5704 90.1241 56.0496 87.2113 58.5434C84.5878 60.7896 81.318 61.9941 77.9015 61.9941ZM77.8558 33.3786C74.4637 33.3786 71.218 34.5743 68.6132 36.8044C65.7215 39.2803 63.9665 42.7344 63.6718 46.5306C63.0632 54.3671 68.9413 61.238 76.775 61.8467C77.1516 61.876 77.5277 61.8905 77.9014 61.8905C81.2935 61.8906 84.5393 60.6948 87.144 58.4647C90.0358 55.9889 91.7907 52.5348 92.0855 48.7385C92.694 40.9019 86.8159 34.0312 78.9822 33.4224C78.6056 33.3932 78.2295 33.3786 77.8558 33.3786Z" fill="#6D21A5"/>
<path d="M78.7036 37.01C72.8378 36.5542 67.7133 40.9416 67.2576 46.8095C66.802 52.6775 71.1877 57.8039 77.0535 58.2597C82.9192 58.7155 88.0438 54.3282 88.4994 48.4602C88.9551 42.5923 84.5693 37.4659 78.7036 37.01ZM77.3835 54.0098C73.864 53.7363 71.2326 50.6605 71.506 47.1397C71.7795 43.6189 74.8541 40.9865 78.3736 41.2599C81.8931 41.5335 84.5245 44.6093 84.2511 48.13C83.9777 51.6508 80.903 54.2833 77.3835 54.0098Z" fill="#EDBAB0"/>
<path d="M80.7446 47.6465C80.7509 46.0645 79.4741 44.7769 77.8927 44.7706C76.3113 44.7643 75.0241 46.0416 75.0178 47.6236C75.0115 49.2056 76.2883 50.4932 77.8697 50.4996C79.4512 50.5059 80.7383 49.2285 80.7446 47.6465Z" fill="#FAE99C"/>
<path d="M70.4943 50.5308L59.7559 55.6833L60.3652 56.9532L71.1037 51.8007L70.4943 50.5308Z" fill="#FAE99C"/>
<path d="M72.0834 51.0366L78.5419 47.4547L71.7061 50.2507L72.0834 51.0366Z" fill="#EDBAB0"/>
<path d="M55.5546 58.5119L59.5993 56.5714L57.5579 55.2125L53.5132 57.153L55.5546 58.5119Z" fill="#FAE99C"/>
<path d="M55.7323 58.8823L59.777 56.9418L59.5609 59.3837L55.5161 61.3242L55.7323 58.8823Z" fill="#FAE99C"/>
<path d="M71.4577 49.7415L70.9087 50.0049L71.7765 51.8139L72.3255 51.5505L71.4577 49.7415Z" fill="#FAE99C"/>
<path d="M70.9138 49.9991L70.3647 50.2626L71.2327 52.0715L71.7817 51.8081L70.9138 49.9991Z" fill="#FFEDFB"/>
<path d="M81.1165 91.6413C81.1115 91.6413 81.1066 91.6413 81.1016 91.6412L77.2498 91.6112C76.7457 91.6073 76.2732 91.4072 75.9196 91.0479C75.566 90.6885 75.3734 90.2129 75.3775 89.7086L75.3913 88.006C75.3997 86.97 76.2452 86.1327 77.2792 86.1327C77.2842 86.1327 77.2892 86.1327 77.2942 86.1327L81.1459 86.1627C81.6501 86.1667 82.1226 86.3667 82.4762 86.7261C82.8298 87.0854 83.0223 87.5611 83.0182 88.0654L83.0045 89.768C82.9961 90.8039 82.1505 91.6413 81.1165 91.6413ZM81.1024 91.5377C81.1071 91.5377 81.1118 91.5377 81.1165 91.5377C82.0938 91.5377 82.8929 90.7464 82.9009 89.7671L82.9146 88.0645C82.9185 87.5879 82.7366 87.1384 82.4023 86.7987C82.0681 86.4591 81.6216 86.27 81.145 86.2663L77.2933 86.2363C77.2886 86.2362 77.2838 86.2362 77.2792 86.2362C76.3018 86.2362 75.5027 87.0275 75.4948 88.0068L75.481 89.7094C75.4772 90.186 75.6591 90.6356 75.9933 90.9753C76.3276 91.3149 76.7741 91.504 77.2506 91.5077L81.1024 91.5377Z" fill="#621DA3"/>
<path d="M68.0568 89.7342L67.9312 105.848L90.4861 106.024L90.6118 89.9102L68.0568 89.7342Z" fill="#621DA3"/>
<path d="M79.2177 98.9579C79.2064 98.9579 79.1952 98.9542 79.1858 98.9469L69.3339 91.2524C69.3113 91.2348 69.3073 91.2023 69.3249 91.1797C69.3424 91.1572 69.375 91.1531 69.3976 91.1708L79.218 98.8407L89.0571 91.3173C89.0799 91.3 89.1123 91.3043 89.1296 91.327C89.147 91.3496 89.1427 91.3822 89.12 91.3996L79.2491 98.9473C79.2398 98.9543 79.2288 98.9579 79.2177 98.9579Z" fill="#F7F1EB"/>
<path d="M77.682 97.8734L77.6689 99.5508L80.8475 99.5756L80.8606 97.8982L77.682 97.8734Z" fill="#F7F1EB"/>
</g>
</g>
<defs>
<clipPath id="clip0_176_252">
<rect width="94" height="120" fill="white"/>
</clipPath>
<clipPath id="clip1_176_252">
<rect x="-0.37207" y="11.5" width="94.7442" height="97" rx="7.51938" fill="white"/>
</clipPath>
</defs>
</svg>
