<svg width="292" height="408" viewBox="0 0 292 408" fill="none" xmlns="http://www.w3.org/2000/svg">
<rect width="292" height="408" rx="24" fill="#FFDCEB"/>
<path d="M103.505 28.08V38.192H103.377C103.377 37.424 102.673 29.744 95.4413 29.744H84.4333V51.568H94.8013C100.433 51.568 101.009 45.936 101.009 45.36H101.073V59.44H101.009C101.009 58.864 100.433 53.232 94.8013 53.232H84.4333V76.336H96.7213C103.953 76.336 104.657 68.656 104.657 67.888H104.785V78H70.0973V77.872C70.4813 77.872 74.0653 77.296 74.0653 70.832V35.248C74.0653 28.784 70.4813 28.208 70.0973 28.208V28.08H103.505ZM111.886 78V77.872C112.27 77.872 115.854 77.296 115.854 70.832V35.248C115.854 28.784 112.27 28.208 111.886 28.208V28.08H123.79L151.438 61.68V35.248C151.438 28.784 147.854 28.208 147.47 28.208V28.08H157.198V28.208C156.814 28.208 153.23 28.784 153.23 35.248V78.384L117.646 35.248V70.832C117.646 77.296 121.23 77.872 121.614 77.872V78H111.886ZM167.759 29.744C160.527 29.744 159.823 37.424 159.823 38.192H159.695V28.08H200.783V38.192H200.655C200.655 37.424 199.951 29.744 192.719 29.744H185.423V70.832C185.423 77.296 189.007 77.872 189.391 77.872V78H171.087V77.872C171.471 77.872 175.055 77.296 175.055 70.832V29.744H167.759ZM203.317 91.44C207.541 91.44 208.053 83.952 208.053 78.192V35.248C208.053 28.784 204.469 28.208 204.085 28.208V28.08H222.389V28.208C222.005 28.208 218.421 28.784 218.421 35.248V78.064C218.421 86.704 212.405 91.568 203.317 91.568V91.44Z" fill="#B5346D"/>
<path d="M70.06 116V115.96C70.18 115.96 71.3 115.78 71.3 113.76V102.64C71.3 100.62 70.18 100.44 70.06 100.44V100.4H73.78L82.42 110.9V102.64C82.42 100.62 81.3 100.44 81.18 100.44V100.4H84.22V100.44C84.1 100.44 82.98 100.62 82.98 102.64V116.12L71.86 102.64V113.76C71.86 115.78 72.98 115.96 73.1 115.96V116H70.06ZM86.3353 102.24C86.3353 100.22 85.2153 100.04 85.0953 100.04V100H89.5353V106.36C90.0153 105.24 91.0953 104.08 93.2953 104.08C94.2953 104.08 95.1953 104.38 95.8553 104.96C96.4953 105.54 96.8953 106.4 96.8953 107.54V113.76C96.8953 115.78 98.0153 115.96 98.1353 115.96V116H92.4553V115.96C92.5753 115.96 93.6953 115.78 93.6953 113.76V107.8C93.6953 107.3 93.6553 106.64 93.3953 106.1C93.1353 105.58 92.6753 105.2 91.9753 105.2C90.5553 105.2 89.5353 106.62 89.5353 108.58V113.76C89.5353 115.78 90.6553 115.96 90.7753 115.96V116H85.0953V115.96C85.2153 115.96 86.3353 115.78 86.3353 113.76V102.24ZM103.661 104.92C101.421 104.92 100.021 106.78 99.8411 107.94H99.7811C99.9611 105.84 101.661 104.08 104.801 104.08C105.881 104.08 107.421 104.24 108.461 105.12C109.101 105.68 109.541 106.52 109.541 107.8V113.76C109.541 115.78 110.661 115.96 110.781 115.96V116H106.341V114.18C105.781 115.12 104.601 116.12 102.481 116.12C100.561 116.12 99.1011 115.2 99.1011 113.24C99.1011 110.64 101.661 108.9 106.341 108.78V107.88C106.341 106.74 106.061 105.98 105.561 105.52C105.101 105.1 104.441 104.92 103.661 104.92ZM102.301 113.24C102.301 114.2 102.841 115.18 103.941 115.18C105.281 115.18 106.221 113.82 106.341 113.42V109.26C103.261 109.3 102.301 111.78 102.301 113.24ZM102.701 101.8V101.74L103.761 100.26H103.821C104.641 101.4 106.101 102.96 107.061 103.34L107.001 103.4C105.821 103.24 103.721 102.58 102.701 101.8ZM116.543 110.56C116.543 106.84 118.463 104.08 121.863 104.08C123.463 104.08 124.263 104.74 124.783 105.46V102.5H121.983V101.94H124.783C124.663 100.2 123.663 100.04 123.543 100.04V100H127.983V101.94H128.383V102.5H127.983V113.76C127.983 115.78 129.103 115.96 129.223 115.96V116H124.783V114.4C124.163 115.54 122.903 116.24 121.543 116.24C118.463 116.24 116.543 113.88 116.543 110.56ZM119.723 110.36C119.723 113.12 120.703 115.36 122.443 115.36C123.463 115.36 124.203 114.76 124.783 113.38V106.52C124.263 105.42 123.523 105.16 122.943 105.16C121.103 105.16 119.723 107.2 119.723 110.36ZM131.751 106.52C131.751 104.5 130.631 104.32 130.511 104.32V104.28H134.951V113.76C134.951 115.78 136.071 115.96 136.191 115.96V116H130.511V115.96C130.631 115.96 131.751 115.78 131.751 113.76V106.52ZM131.551 101.44C131.551 100.5 132.331 99.72 133.271 99.72C134.211 99.72 134.991 100.5 134.991 101.44C134.991 102.38 134.211 103.16 133.271 103.16C132.331 103.16 131.551 102.38 131.551 101.44ZM143.184 116.24C139.304 116.24 137.304 113.68 137.304 110.36C137.304 106.84 139.704 104.08 143.524 104.08C146.664 104.08 147.904 105.72 147.904 107.52C147.904 110.26 144.324 111.08 140.604 111.1C140.784 113.5 141.804 115.36 144.324 115.36C145.944 115.36 146.884 114.42 147.444 113.6L147.504 113.64C147.384 114.02 146.504 116.24 143.184 116.24ZM140.144 103.46L140.184 103.48C141.344 103.46 142.784 102.82 143.484 102.36H143.524C144.224 102.82 145.664 103.46 146.824 103.48L146.864 103.46C145.804 102.98 144.084 101.48 143.524 100.56H143.484C142.924 101.48 141.204 102.98 140.144 103.46ZM140.584 110.62C144.124 110.6 145.504 109.06 145.504 107C145.504 105.74 144.824 104.56 143.584 104.56C141.544 104.56 140.604 107.2 140.584 110.62ZM144.364 100.48V100.42L145.424 98.94H145.484C146.304 100.08 147.764 101.64 148.724 102.02L148.664 102.08C147.484 101.92 145.384 101.26 144.364 100.48ZM153.465 116.2C152.465 116.2 151.565 115.9 150.905 115.32C150.265 114.74 149.865 113.88 149.865 112.74V106.52C149.865 104.5 148.745 104.32 148.625 104.32V104.28H153.065V112.48C153.065 112.98 153.105 113.64 153.365 114.18C153.625 114.7 154.085 115.08 154.785 115.08C156.205 115.08 157.225 113.66 157.225 111.7V106.52C157.225 104.5 156.105 104.32 155.985 104.32V104.28H160.425V113.76C160.425 115.78 161.545 115.96 161.665 115.96V116H157.225V113.92C156.745 115.04 155.665 116.2 153.465 116.2ZM168.757 102.24C168.757 100.22 167.637 100.04 167.517 100.04V100H171.957V106.36C172.437 105.24 173.517 104.08 175.717 104.08C176.717 104.08 177.617 104.38 178.277 104.96C178.917 105.54 179.317 106.4 179.317 107.54V113.76C179.317 115.78 180.437 115.96 180.557 115.96V116H174.877V115.96C174.997 115.96 176.117 115.78 176.117 113.76V107.8C176.117 107.3 176.077 106.64 175.817 106.1C175.557 105.58 175.097 105.2 174.397 105.2C172.977 105.2 171.957 106.62 171.957 108.58V113.76C171.957 115.78 173.077 115.96 173.197 115.96V116H167.517V115.96C167.637 115.96 168.757 115.78 168.757 113.76V102.24ZM186.083 104.92C183.843 104.92 182.443 106.78 182.263 107.94H182.203C182.383 105.84 184.083 104.08 187.223 104.08C188.303 104.08 189.843 104.24 190.883 105.12C191.523 105.68 191.963 106.52 191.963 107.8V113.76C191.963 115.78 193.083 115.96 193.203 115.96V116H188.763V114.18C188.203 115.12 187.023 116.12 184.903 116.12C182.983 116.12 181.523 115.2 181.523 113.24C181.523 110.64 184.083 108.9 188.763 108.78V107.88C188.763 106.74 188.483 105.98 187.983 105.52C187.523 105.1 186.863 104.92 186.083 104.92ZM184.723 113.24C184.723 114.2 185.263 115.18 186.363 115.18C187.703 115.18 188.643 113.82 188.763 113.42V109.26C185.683 109.3 184.723 111.78 184.723 113.24ZM185.123 101.8V101.74L186.183 100.26H186.243C187.063 101.4 188.523 102.96 189.483 103.34L189.423 103.4C188.243 103.24 186.143 102.58 185.123 101.8ZM195.56 106.52C195.56 104.5 194.44 104.32 194.32 104.32V104.28H198.76V106.36C199.24 105.24 200.32 104.08 202.52 104.08C203.52 104.08 204.42 104.38 205.08 104.96C205.72 105.54 206.12 106.4 206.12 107.54V113.76C206.12 115.78 207.24 115.96 207.36 115.96V116H201.68V115.96C201.8 115.96 202.92 115.78 202.92 113.76V107.8C202.92 107.3 202.88 106.64 202.62 106.1C202.36 105.58 201.9 105.2 201.2 105.2C199.78 105.2 198.76 106.62 198.76 108.58V113.76C198.76 115.78 199.88 115.96 200 115.96V116H194.32V115.96C194.44 115.96 195.56 115.78 195.56 113.76V106.52ZM209.48 102.24C209.48 100.22 208.36 100.04 208.24 100.04V100H212.68V106.36C213.16 105.24 214.24 104.08 216.44 104.08C217.44 104.08 218.34 104.38 219 104.96C219.64 105.54 220.04 106.4 220.04 107.54V113.76C220.04 115.78 221.16 115.96 221.28 115.96V116H215.6V115.96C215.72 115.96 216.84 115.78 216.84 113.76V107.8C216.84 107.3 216.8 106.64 216.54 106.1C216.28 105.58 215.82 105.2 215.12 105.2C213.7 105.2 212.68 106.62 212.68 108.58V113.76C212.68 115.78 213.8 115.96 213.92 115.96V116H208.24V115.96C208.36 115.96 209.48 115.78 209.48 113.76V102.24Z" fill="#B5346D"/>
<g clip-path="url(#clip0_1_3337)">
<path d="M271 262.5C271 268.896 270.522 275.18 269.597 281.316C269.6 281.319 269.597 281.322 269.597 281.325C269.597 281.331 269.594 281.346 269.591 281.367C269.391 282.701 269.167 284.029 268.922 285.347C264.915 307.157 255.265 326.989 241.545 343.283C239.356 345.886 237.06 348.4 234.662 350.816C215.239 370.43 189.389 383.666 160.53 387.108C155.603 387.698 150.586 388 145.5 388C76.1876 388 20 331.812 20 262.5C20 193.188 76.1876 137 145.5 137C214.812 137 271 193.188 271 262.5Z" fill="#B5346D"/>
<path d="M230.686 270.855C230.582 270.855 230.479 270.846 230.376 270.827C229.737 270.711 229.204 270.245 228.876 269.514C228.556 268.8 228.469 267.915 228.631 267.022C228.794 266.129 229.186 265.331 229.737 264.776C230.3 264.207 230.963 263.957 231.603 264.073C232.903 264.309 233.686 266.016 233.348 267.878C233.186 268.771 232.793 269.569 232.243 270.125C231.77 270.603 231.226 270.855 230.686 270.855ZM231.296 264.32C230.828 264.32 230.352 264.544 229.931 264.969C229.42 265.486 229.054 266.232 228.902 267.071C228.749 267.91 228.829 268.738 229.127 269.401C229.416 270.048 229.878 270.458 230.426 270.558C230.973 270.657 231.55 270.435 232.048 269.932C232.56 269.415 232.926 268.669 233.078 267.83C233.389 266.116 232.705 264.552 231.554 264.343C231.468 264.327 231.382 264.32 231.296 264.32Z" fill="#363E44"/>
<path d="M231.835 267.007C232.748 261.95 233.726 259.083 236.31 257.307C239.782 254.921 244.173 256.417 244.629 256.58C244.92 256.684 249.148 257.914 250.515 262.129C251.865 266.292 250.963 271.024 247.979 274.17L249.556 283.708C250.062 286.77 247.99 289.663 244.928 290.169L244.235 290.284C241.173 290.79 238.28 288.718 237.774 285.656L236.72 279.284C234.751 279.443 233.121 279.134 232.343 278.252C230.948 276.672 230.759 272.962 231.835 267.007Z" fill="white"/>
<path d="M238.139 267.869C238.136 267.869 238.134 267.869 238.132 267.869L228.833 267.418C228.757 267.414 228.699 267.35 228.702 267.274C228.706 267.199 228.772 267.14 228.846 267.144L238.145 267.595C238.221 267.598 238.279 267.663 238.276 267.738C238.272 267.812 238.211 267.869 238.139 267.869Z" fill="#363E44"/>
<path d="M236.608 279.285C236.54 279.285 236.481 279.235 236.472 279.167L236.149 276.824C236.138 276.749 236.191 276.68 236.266 276.669C236.341 276.659 236.41 276.711 236.42 276.786L236.744 279.129C236.754 279.204 236.702 279.274 236.627 279.284C236.62 279.285 236.614 279.285 236.608 279.285Z" fill="#363E44"/>
<path d="M239.193 271.311C239.167 271.311 239.141 271.304 239.118 271.289C239.054 271.248 239.036 271.163 239.078 271.099C239.507 270.44 239.771 270.015 239.963 269.705C240.059 269.551 240.137 269.425 240.21 269.311C240.251 269.247 240.336 269.228 240.4 269.269C240.463 269.31 240.482 269.395 240.441 269.459C240.369 269.572 240.291 269.697 240.196 269.85C240.003 270.161 239.739 270.587 239.308 271.249C239.281 271.289 239.237 271.311 239.193 271.311Z" fill="#363E44"/>
<path d="M234.987 257.135C237.692 253.415 246.203 253.893 250.073 257.568C255.305 262.537 254.599 271.494 250.153 275.241C248.661 276.497 246.097 278.159 242.94 277.281C241.097 276.768 241.019 274.193 241.012 273.571C242.561 273.015 243.479 271.439 243.205 269.9C242.929 268.35 241.515 267.239 240.092 267.234C239.148 267.23 238.451 267.713 238.172 267.933C234.735 263.885 233.06 259.786 234.987 257.135Z" fill="#363E44"/>
<path d="M269.6 281.316C269.6 281.316 269.6 281.319 269.597 281.325C269.597 281.331 269.594 281.346 269.591 281.367C269.512 281.739 269.046 284.031 268.922 285.347C264.915 307.157 255.265 326.989 241.545 343.283L226.537 346.171L223.818 325.64L213.034 326.998L206.626 299.829C206.626 299.829 231.729 286.514 249.184 282.888C255.786 281.515 263.198 281.137 269.597 281.316H269.6Z" fill="#917AFF"/>
<path d="M250.073 257.568C250.073 257.568 248.556 271.504 241.013 273.571L236.608 290.666C236.608 290.666 237.698 290.875 239.477 291.014C240.372 287.28 241.678 282.268 241.678 282.268V291.124C245.212 291.206 250.11 290.855 254.779 288.962C255.058 286.539 255.205 283.728 254.886 281.217C254.378 277.223 256.844 282.164 257.99 287.372C262.556 284.643 266.491 280.034 268.094 272.363L250.073 257.568Z" fill="#363E44"/>
<path d="M181.991 207.092H70.3135V301.835H181.991V207.092Z" fill="#FFDCEB"/>
<path d="M90.1814 301.836C90.1814 301.836 105.143 256.074 110.339 234.283C110.339 234.283 131.841 226.612 155.03 231.55C155.03 231.55 162.59 271.353 158.632 301.836H131.177L134.663 249.811L124.228 301.836H90.1814Z" fill="#363E44"/>
<path d="M134.016 162.488H126.193V178.491H134.016V162.488Z" fill="white"/>
<path d="M134.01 166.258C137.591 162.677 137.591 156.871 134.01 153.291C130.429 149.71 124.624 149.71 121.043 153.29C117.462 156.871 117.462 162.677 121.043 166.258C124.624 169.839 130.43 169.839 134.01 166.258Z" fill="#363E44"/>
<path d="M138.129 168.14C136.647 170.135 129.996 168.188 129.996 168.188L124.766 162.685C123.685 159.361 125.505 155.79 128.83 154.709C132.155 153.629 135.725 155.449 136.806 158.774C136.806 158.774 139.639 166.109 138.129 168.14Z" fill="white"/>
<path d="M136.628 160.581C136.628 160.581 138.892 161.802 138.953 162.298C139.027 162.89 137.257 163.842 137.257 163.842C137.257 163.842 136.674 160.571 136.628 160.581Z" fill="white"/>
<path d="M135.326 169.281C132.952 169.281 130.129 168.463 129.991 168.423C129.919 168.402 129.877 168.326 129.898 168.253C129.92 168.18 129.996 168.139 130.069 168.16C130.107 168.171 133.935 169.279 136.371 168.941C136.446 168.931 136.515 168.983 136.525 169.058C136.536 169.133 136.483 169.202 136.408 169.213C136.068 169.26 135.702 169.281 135.326 169.281Z" fill="#363E44"/>
<path d="M130.378 161.863C130.378 161.863 131.289 160.91 132.621 160.477C132.904 160.385 133.106 162.826 132.796 162.785C131.43 162.605 130.378 161.863 130.378 161.863Z" fill="white"/>
<mask id="mask0_1_3337" style="mask-type:luminance" maskUnits="userSpaceOnUse" x="130" y="160" width="7" height="3">
<path d="M130.378 161.863C130.378 161.863 131.719 160.461 133.523 160.286C135.328 160.111 136.913 161.229 136.913 161.229C136.913 161.229 135.572 162.63 133.768 162.806C131.963 162.981 130.378 161.863 130.378 161.863Z" fill="white"/>
</mask>
<g mask="url(#mask0_1_3337)">
<path d="M132.658 160.401C133.253 159.234 134.681 158.77 135.848 159.365C137.014 159.959 137.478 161.387 136.884 162.554C136.289 163.721 134.861 164.185 133.695 163.59C132.528 162.995 132.064 161.568 132.658 160.401Z" fill="#363E44"/>
</g>
<path d="M135.549 165.642C135.455 165.642 135.359 165.63 135.265 165.604C134.86 165.496 134.546 165.159 134.463 164.745C134.449 164.671 134.497 164.599 134.571 164.584C134.646 164.569 134.718 164.618 134.732 164.692C134.794 165.004 135.031 165.258 135.336 165.339C135.652 165.424 135.992 165.314 136.2 165.058C136.249 165 136.335 164.991 136.393 165.039C136.452 165.087 136.461 165.173 136.413 165.232C136.198 165.495 135.878 165.642 135.549 165.642Z" fill="#363E44"/>
<path d="M123.815 164.744C123.815 164.744 125.484 163.35 128.126 164.74L129.182 163.62C129.182 163.62 125.777 155.67 135.801 155.972C135.801 155.972 130.487 150.094 125.302 154.572C120.116 159.049 123.815 164.744 123.815 164.744Z" fill="#363E44"/>
<path d="M124.206 166.208C124.94 167.271 126.283 167.615 127.207 166.977C128.13 166.339 128.284 164.961 127.551 163.899C126.818 162.837 125.474 162.493 124.551 163.13C123.627 163.768 123.473 165.146 124.206 166.208Z" fill="white"/>
<path d="M124.643 165.086C124.572 165.086 124.512 165.031 124.507 164.959C124.473 164.484 124.666 164.053 125.024 163.806C125.614 163.399 126.469 163.612 126.931 164.281C126.974 164.343 126.958 164.428 126.896 164.472C126.833 164.514 126.748 164.499 126.705 164.437C126.329 163.892 125.645 163.711 125.18 164.032C124.903 164.223 124.753 164.563 124.78 164.94C124.786 165.015 124.729 165.081 124.653 165.086C124.65 165.086 124.647 165.086 124.643 165.086Z" fill="#363E44"/>
<path d="M127.037 170.345C126.183 170.345 125.388 169.801 125.11 168.946C124.765 167.885 125.348 166.741 126.41 166.396C127.471 166.051 128.615 166.634 128.96 167.696C129.305 168.757 128.722 169.901 127.66 170.246C127.453 170.313 127.243 170.345 127.037 170.345ZM125.371 168.862C125.669 169.779 126.658 170.283 127.576 169.985C128.493 169.687 128.997 168.698 128.699 167.78C128.401 166.863 127.412 166.359 126.494 166.657C125.577 166.955 125.073 167.944 125.371 168.862Z" fill="#4424DD"/>
<path d="M129.677 155.006C129.677 155.006 126.418 139.356 121.549 140.937C116.68 142.518 126.138 156.546 129.677 155.006Z" fill="#363E44"/>
<path d="M126.484 156.442C126.484 156.442 119.499 138.015 113.577 140.88C107.655 143.745 122.249 158.999 126.484 156.442Z" fill="#363E44"/>
<path d="M125.114 156.416C125.114 156.416 109.413 139.663 104.625 145.243C99.8374 150.823 121.925 160.951 125.114 156.416Z" fill="#363E44"/>
<path d="M122.304 158.645C122.304 158.645 108.259 147.727 105.041 152.719C101.823 157.71 120.242 162.607 122.304 158.645Z" fill="#363E44"/>
<path d="M113.394 159.47C110.158 159.47 107.074 158.863 105.724 157.558C105.039 156.896 104.821 156.102 105.077 155.199C105.307 154.386 105.843 153.763 106.67 153.348C111.183 151.082 122.998 155.539 123.498 155.73L123.605 155.771L123.584 155.883C123.386 156.955 122.182 157.873 120.104 158.537C118.197 159.147 115.755 159.47 113.394 159.47ZM110.101 152.988C108.804 152.988 107.653 153.162 106.793 153.593C106.038 153.973 105.55 154.538 105.341 155.274C105.115 156.072 105.308 156.774 105.915 157.361C108.185 159.557 115.569 159.699 120.021 158.276C121.892 157.678 123.045 156.853 123.289 155.945C122.309 155.583 115.113 152.988 110.101 152.988Z" fill="#363E44"/>
<path d="M123.71 155.408C122.785 155.408 121.633 154.844 120.327 153.743C116.696 150.684 112.834 144.224 113.503 141.047C113.7 140.115 114.255 139.508 115.156 139.244C115.967 139.006 116.78 139.129 117.571 139.608C121.891 142.223 124.404 154.598 124.509 155.123L124.532 155.235L124.425 155.277C124.206 155.365 123.967 155.408 123.71 155.408ZM115.958 139.401C115.716 139.401 115.474 139.437 115.233 139.507C114.437 139.741 113.945 140.278 113.772 141.104C113.121 144.194 116.929 150.521 120.503 153.533C122.006 154.799 123.318 155.337 124.216 155.061C123.946 153.772 121.429 142.264 117.429 139.843C116.944 139.549 116.451 139.401 115.958 139.401Z" fill="#363E44"/>
<path d="M128.014 153.084C128.014 153.084 125.52 145.758 129.169 146.018C132.817 146.278 128.014 153.084 128.014 153.084Z" fill="#363E44"/>
<path d="M119.85 158.602C119.85 158.602 109.904 156.387 111.021 161.546C112.138 166.705 119.85 158.602 119.85 158.602Z" fill="#363E44"/>
<path d="M107.329 230.723L102.886 254.531C102.886 254.531 127.092 252.403 134.278 231.483L107.329 230.723Z" fill="white"/>
<path d="M130.496 229.818C130.772 231.371 142.634 249.027 160.422 251.242L155.476 227.438L130.496 229.818Z" fill="white"/>
<path d="M103.483 177.045L95.231 235.457C95.231 235.457 132.981 241.381 162.152 232.288L159.94 187.577C159.584 183.961 156.846 181.035 153.26 180.441C144.762 179.036 125.607 176.111 103.483 177.045Z" fill="#4424DD"/>
<path d="M195.375 190.428L185.238 184.139C183.412 183.006 181.077 183.212 179.436 184.601C168.712 193.68 155.773 181.302 155.773 181.302L149.47 182.935L158.211 213.532C184.159 226.436 194.604 206.938 197.878 197.454C198.789 194.816 197.747 191.899 195.375 190.428Z" fill="#4424DD"/>
<path d="M102.621 229.818C102.621 229.818 73.2716 237.734 77.5758 211.281C80.8609 191.091 92.4421 182.845 97.7244 178.889C100.435 176.859 103.484 177.045 103.484 177.045L102.621 229.818Z" fill="#4424DD"/>
<path d="M101.302 207.04C101.294 207.04 101.286 207.039 101.278 207.038C101.203 207.024 101.153 206.953 101.167 206.878L103.662 192.982C103.675 192.908 103.747 192.858 103.821 192.872C103.896 192.885 103.945 192.956 103.932 193.031L101.437 206.927C101.425 206.993 101.367 207.04 101.302 207.04Z" fill="#363E44"/>
<path d="M159.778 212.905C159.714 212.905 159.657 212.86 159.644 212.794L158.153 205.23C158.139 205.156 158.187 205.084 158.262 205.069C158.336 205.055 158.408 205.103 158.423 205.177L159.913 212.741C159.928 212.816 159.879 212.888 159.805 212.902C159.796 212.904 159.787 212.905 159.778 212.905Z" fill="#363E44"/>
<path d="M213.587 168.929C213.364 168.367 212.699 168.384 210.74 169.657C212.895 167.211 213.756 165.448 213.152 164.594C212.768 164.051 211.369 164.602 209.813 166.512C211.098 164.934 213.092 162.227 212.126 161.301C211.249 160.546 209.309 162.623 207.948 164.213L207.947 164.213C209.478 161.943 209.769 160.617 209.124 160.195C208.196 159.59 206.563 162.646 202.407 163.896C198.744 164.998 196.166 163.86 193.679 166.042C193.007 166.631 192.633 167.208 192.419 167.533C190.891 169.862 187.026 176.236 181.345 185.297C182.623 187.994 185.024 189.913 187.637 191.486C189.243 192.453 190.938 193.317 192.725 193.895C193.507 194.148 194.345 194.364 195.184 194.435C197.895 188.842 200.899 183.397 204.589 176.045C204.589 176.045 204.589 176.045 204.589 176.045C205.996 175.711 208.214 175.128 210.316 173.436C212.184 171.933 213.993 169.956 213.587 168.929Z" fill="white"/>
<path d="M199.284 165.69C201.359 161.931 201.311 160.135 200.705 159.825C199.685 159.304 196.6 161.788 192.874 166.9C194.69 166.723 197.468 165.867 199.284 165.69Z" fill="white"/>
<path d="M198.473 172.935C198.451 172.935 198.428 172.929 198.407 172.918C198.341 172.881 198.316 172.798 198.353 172.732C198.73 172.047 199.437 171.095 200.664 170.448C202.401 169.533 204.101 169.825 204.75 169.993C204.824 170.012 204.868 170.086 204.849 170.16C204.83 170.233 204.755 170.277 204.682 170.258C204.063 170.099 202.445 169.821 200.792 170.691C199.625 171.306 198.952 172.212 198.593 172.864C198.568 172.909 198.521 172.935 198.473 172.935Z" fill="#363E44"/>
<path d="M195.64 165.206C195.581 165.206 195.527 165.168 195.509 165.11C195.486 165.038 195.526 164.961 195.598 164.938C196.509 164.65 197.465 164.585 198.479 164.517C198.951 164.485 199.439 164.452 199.949 164.395C200.024 164.387 200.092 164.441 200.1 164.517C200.108 164.592 200.054 164.66 199.979 164.668C199.464 164.725 198.972 164.758 198.497 164.79C197.501 164.858 196.56 164.921 195.681 165.199C195.667 165.204 195.653 165.206 195.64 165.206Z" fill="#363E44"/>
<path d="M204.594 166.356C204.537 166.356 204.484 166.32 204.465 166.263C204.44 166.192 204.478 166.114 204.549 166.089C205.035 165.921 205.508 165.708 205.954 165.454C206.6 165.087 207.196 164.632 207.726 164.103C207.78 164.05 207.867 164.05 207.92 164.104C207.974 164.157 207.974 164.244 207.92 164.297C207.373 164.843 206.757 165.313 206.089 165.693C205.629 165.954 205.141 166.175 204.639 166.348C204.624 166.354 204.609 166.356 204.594 166.356Z" fill="#363E44"/>
<path d="M206.652 168.401C206.595 168.401 206.542 168.365 206.522 168.309C206.498 168.237 206.536 168.159 206.607 168.134C207.094 167.966 207.566 167.753 208.011 167.499C208.658 167.131 209.254 166.677 209.784 166.148C209.838 166.095 209.925 166.095 209.978 166.148C210.032 166.202 210.032 166.289 209.978 166.342C209.431 166.888 208.815 167.358 208.147 167.738C207.687 167.999 207.199 168.22 206.697 168.393C206.682 168.398 206.667 168.401 206.652 168.401Z" fill="#363E44"/>
<path d="M207.452 171.838C207.395 171.838 207.341 171.803 207.322 171.746C207.297 171.674 207.335 171.596 207.407 171.572C207.893 171.404 208.365 171.19 208.811 170.937C209.458 170.569 210.054 170.114 210.584 169.586C210.638 169.532 210.724 169.532 210.778 169.586C210.831 169.64 210.831 169.726 210.778 169.78C210.231 170.326 209.615 170.795 208.946 171.175C208.486 171.437 207.998 171.658 207.496 171.831C207.481 171.836 207.466 171.838 207.452 171.838Z" fill="#363E44"/>
<path d="M178.216 186.606L183.729 180.882L198.473 188.903L195.639 196.329C195.639 196.329 187.833 197.504 183.878 189.58C183.878 189.58 178.99 188.719 178.216 186.606Z" fill="white"/>
<path d="M114.369 224.517C114.354 224.517 114.338 224.514 114.323 224.509C114.252 224.483 114.214 224.405 114.24 224.333L124.96 194.235H148.486C148.562 194.235 148.623 194.297 148.623 194.373C148.623 194.448 148.562 194.51 148.486 194.51H125.153L114.498 224.425C114.478 224.481 114.425 224.517 114.369 224.517Z" fill="#B5346D"/>
<path d="M138.926 225.83H115.496L126.184 195.823H149.614L138.926 225.83Z" fill="#B5346D"/>
<path d="M121.553 178.49L125.729 174.675L130.112 177.066L128.86 186.46L121.553 178.49Z" fill="white"/>
<path d="M138.69 178.49L134.598 174.675L129.865 177.188L131.384 186.207L138.69 178.49Z" fill="white"/>
<path d="M131.648 214.481C131.581 211.786 113.074 210.245 109.62 210.047C108.823 210.002 104.839 209.915 99.924 209.787C99.9093 209.807 99.8945 209.828 99.88 209.847C99.3433 210.568 98.8064 211.274 98.3618 212.058C96.6787 215.023 96.2432 218.327 95.9898 221.672C95.8643 223.328 95.7818 225.019 95.8489 226.699C107.845 226.923 121.341 226.994 123.173 227.097C124.882 227.253 128.819 227.622 129.011 226.403C129.273 224.741 125.137 223.734 125.027 223.541C126.306 223.719 130.599 224.115 130.877 222.734C131.09 221.672 126.975 220.011 125.96 219.553C126.049 219.526 130.95 220.857 131.349 219.208C131.689 217.805 127.837 216.098 126.893 215.551C128.102 215.632 131.68 215.768 131.648 214.481Z" fill="white"/>
<path d="M126.943 215.563C126.925 215.563 126.906 215.559 126.889 215.552C126.229 215.268 125.545 215.028 124.854 214.838C123.613 214.496 122.327 214.309 121.029 214.28C120.954 214.278 120.894 214.215 120.895 214.139C120.897 214.065 120.958 214.005 121.032 214.005C121.033 214.005 121.035 214.005 121.035 214.005C122.355 214.035 123.664 214.226 124.927 214.573C125.629 214.766 126.326 215.011 126.997 215.299C127.066 215.329 127.099 215.41 127.069 215.48C127.047 215.532 126.996 215.563 126.943 215.563Z" fill="#363E44"/>
<path d="M126.033 219.605C126.02 219.605 126.006 219.604 125.993 219.599C125.849 219.555 125.702 219.512 125.551 219.471C124.311 219.13 123.024 218.942 121.727 218.913C121.651 218.911 121.591 218.848 121.593 218.773C121.594 218.698 121.655 218.639 121.73 218.639C121.731 218.639 121.732 218.639 121.733 218.639C123.053 218.668 124.362 218.859 125.624 219.206C125.777 219.248 125.927 219.292 126.073 219.337C126.146 219.359 126.186 219.436 126.164 219.508C126.146 219.568 126.092 219.605 126.033 219.605Z" fill="#363E44"/>
<path d="M124.945 223.636C124.937 223.636 124.929 223.635 124.92 223.634C124.093 223.481 123.245 223.394 122.398 223.375C122.322 223.373 122.262 223.31 122.264 223.234C122.266 223.159 122.322 223.099 122.404 223.1C123.265 223.12 124.129 223.208 124.97 223.364C125.044 223.378 125.094 223.449 125.08 223.524C125.068 223.59 125.01 223.636 124.945 223.636Z" fill="#363E44"/>
<path d="M92.7974 207.992C93.0254 207.586 103.136 209.337 103.136 209.337C103.136 209.337 100.071 220.946 99.6626 227.936H91.0214C91.0214 227.936 87.781 220.023 93.3621 212.641C93.3621 212.641 91.608 210.113 92.7974 207.992Z" fill="white"/>
<path d="M234.662 350.815C215.239 370.43 189.389 383.666 160.53 387.108C160.518 387.105 160.505 387.105 160.493 387.102C164.137 381.773 167.905 376.526 171.74 371.334C173.046 369.565 174.362 367.802 175.68 366.042C176.842 364.496 177.991 362.966 179.355 361.593C181.801 359.135 184.662 357.124 187.683 355.442C193.798 352.043 200.551 349.932 207.297 348.203C213.736 346.555 220.6 345.886 227.105 347.574C229.812 348.278 232.337 349.388 234.662 350.815Z" fill="white"/>
<path d="M192.67 281.054C194.979 276.331 196.742 273.781 199.78 272.754C203.863 271.374 207.769 274.07 208.172 274.358C208.43 274.541 212.249 276.931 212.419 281.462C212.587 285.936 210.379 290.343 206.565 292.608L205.457 302.437C205.101 305.593 202.255 307.862 199.099 307.507L198.385 307.426C195.229 307.071 192.959 304.224 193.315 301.069L194.055 294.503C192.072 294.11 190.554 293.351 190.034 292.266C189.101 290.322 189.95 286.616 192.67 281.054Z" fill="white"/>
<path d="M193.983 294.474C193.976 294.474 193.97 294.474 193.963 294.473C193.888 294.463 193.836 294.393 193.847 294.318L194.181 291.922C194.192 291.847 194.261 291.794 194.336 291.805C194.411 291.815 194.463 291.885 194.453 291.96L194.118 294.356C194.109 294.425 194.05 294.474 193.983 294.474Z" fill="#363E44"/>
<path d="M198.069 287.656C198.031 287.656 197.993 287.641 197.966 287.609C197.916 287.552 197.922 287.466 197.979 287.416C198.284 287.15 198.555 286.905 198.842 286.645C199.077 286.432 199.319 286.213 199.593 285.971C199.65 285.921 199.737 285.926 199.787 285.983C199.837 286.04 199.831 286.127 199.775 286.177C199.502 286.418 199.26 286.636 199.026 286.849C198.738 287.109 198.467 287.355 198.16 287.623C198.134 287.645 198.102 287.656 198.069 287.656Z" fill="#363E44"/>
<path d="M218.317 284.31C219.175 281.818 217.851 279.102 215.358 278.244C215.354 278.242 215.351 278.241 215.346 278.24C215.743 277.825 216.062 277.322 216.261 276.744C217 274.597 215.859 272.258 213.713 271.519C213.265 271.365 212.809 271.297 212.36 271.299C212.947 269.217 211.818 267.014 209.746 266.301C208.576 265.898 207.35 266.057 206.356 266.63C205.983 265.1 204.865 263.785 203.265 263.234C200.845 262.401 198.215 263.62 197.27 265.967C197.158 265.917 197.045 265.87 196.927 265.829C194.78 265.09 192.441 266.23 191.702 268.377C190.963 270.523 192.104 272.862 194.25 273.601C194.312 273.623 194.375 273.637 194.437 273.655C193.429 277.542 197.296 279.346 197.515 279.485C196.474 281.07 195.434 282.655 194.394 284.239C194.994 284.651 195.696 285.188 196.296 285.601C197.295 283.904 198.253 283.437 199.332 283.6C201.032 283.856 202.038 285.828 201.658 287.449C201.311 288.929 200.291 290.257 198.653 290.6C200.265 291.183 201.969 291.747 203.764 292.275C204.7 292.55 205.619 292.804 206.521 293.038C207.175 292.867 211.401 291.686 213.564 287.523C215.633 287.628 217.608 286.368 218.317 284.31Z" fill="black"/>
<path d="M248.488 349.948C228.216 354.459 216.211 357.319 211.754 358.253C211.287 358.351 210.464 358.527 209.372 358.458C205.327 358.202 204.073 354.986 199.942 352.775C195.255 350.267 191.195 351.509 190.914 350.181C190.718 349.257 192.118 348.358 195.408 347.712C195.408 347.712 195.408 347.711 195.408 347.711C192.851 347.915 189.373 348.039 189.265 346.626C189.227 344.988 193.297 344.362 195.777 344.103C192.775 344.416 191.084 343.685 191.22 342.882C191.434 341.618 193.706 340.833 197.69 340.574L197.69 340.573C194.889 339.984 194.297 339.424 194.591 338.743C195.126 337.501 198.405 337.35 201.325 337.66C204.612 338.009 207.04 339.42 208.55 340.346C208.55 340.346 208.551 340.347 208.551 340.346C222.421 335.715 231.615 332.737 242.74 328.768C245.017 327.956 248.488 349.948 248.488 349.948Z" fill="white"/>
<path d="M233.85 307.544C252.289 328.962 258.002 345.191 249.677 349.572C244.96 352.054 230.925 342.123 217.656 324.075C223.413 318.816 226.726 313.727 233.85 307.544Z" fill="white"/>
<path d="M165.537 309.802C142.508 314.699 124.423 319.662 126.398 327.05C130.579 342.69 147.952 334.652 163.394 334.514C163.975 328.172 164.998 317.491 165.537 309.802Z" fill="white"/>
<path d="M146.113 324.432C146.113 324.432 151.927 308.791 154.425 300.283C157.048 291.348 159.619 277.773 157.715 277.438C156.631 277.247 155.898 279.026 154.253 283.911C154.09 283.581 153.433 282.718 152.398 282.706C150.867 282.688 150.426 283.907 150.343 284C150.297 283.884 149.761 282.643 148.738 282.458C147.586 282.249 146.721 282.781 146.213 283.547C146.089 283.261 145.523 282.255 144.535 282.106C143.518 281.952 142.345 282.53 142.058 283.564C141.532 285.46 140.075 291.127 139.031 293.798C136.975 299.054 127.168 316.741 126.205 325.124C133.327 323.509 146.113 324.432 146.113 324.432Z" fill="white"/>
<path d="M144.154 286.298C144.148 286.298 144.141 286.297 144.135 286.296L142.488 286.057C142.413 286.046 142.361 285.976 142.372 285.901C142.383 285.826 142.451 285.774 142.527 285.785L144.174 286.025C144.249 286.036 144.301 286.105 144.29 286.18C144.28 286.248 144.222 286.298 144.154 286.298Z" fill="#363E44"/>
<path d="M148.338 286.92C148.333 286.92 148.327 286.92 148.322 286.919L146.453 286.707C146.378 286.699 146.324 286.631 146.332 286.556C146.341 286.481 146.407 286.426 146.484 286.435L148.353 286.646C148.428 286.655 148.482 286.723 148.474 286.798C148.466 286.868 148.406 286.92 148.338 286.92Z" fill="#363E44"/>
<path d="M152.399 287.349C152.392 287.349 152.386 287.349 152.379 287.348C152.073 287.303 151.796 287.265 151.52 287.226C151.241 287.188 150.963 287.149 150.655 287.104C150.58 287.093 150.528 287.023 150.539 286.949C150.55 286.874 150.62 286.822 150.694 286.833C151.002 286.878 151.28 286.916 151.557 286.955C151.835 286.993 152.112 287.031 152.418 287.076C152.493 287.087 152.545 287.157 152.534 287.232C152.525 287.3 152.466 287.349 152.399 287.349Z" fill="#363E44"/>
<path d="M155.713 288.123C155.703 288.123 155.693 288.122 155.683 288.12L154.07 287.762C153.996 287.746 153.95 287.672 153.966 287.598C153.982 287.525 154.055 287.478 154.13 287.494L155.742 287.852C155.816 287.868 155.863 287.941 155.847 288.015C155.832 288.079 155.776 288.123 155.713 288.123Z" fill="#363E44"/>
<path d="M241.791 312.247C239.312 307.584 235.107 304.063 230.065 302.492C223.644 300.49 213.897 298.552 202.223 299.792C180.452 302.104 155.803 309.802 155.803 309.802V341.643L171.675 338.334L175.146 364.343L240.057 353.289L237.287 334.963L248.488 324.845L241.791 312.247Z" fill="#1A0094"/>
<path d="M124.236 386.18H73.9917V367.234L124.236 376.306V386.18Z" fill="#363E44"/>
<path d="M124.044 377.408C126.069 371.162 113.388 361.453 95.719 355.723C78.05 349.992 62.0843 350.41 60.0586 356.656C58.0328 362.902 70.7142 372.611 88.3831 378.342C106.052 384.072 122.018 383.654 124.044 377.408Z" fill="#363E44"/>
<path d="M140.758 340.801H75.3562C75.2803 340.801 75.219 340.739 75.219 340.664C75.219 340.588 75.2803 340.527 75.3562 340.527H140.758C140.834 340.527 140.896 340.588 140.896 340.664C140.896 340.739 140.834 340.801 140.758 340.801Z" fill="#363E44"/>
<path d="M87.5707 276.532C86.1861 276.532 84.6476 275.371 83.8133 273.555C82.7813 271.307 83.2128 268.895 84.7754 268.177C85.541 267.825 86.4557 267.926 87.3503 268.461C88.2282 268.987 88.9849 269.871 89.4812 270.951C89.9773 272.031 90.1549 273.182 89.9814 274.19C89.8046 275.217 89.2853 275.977 88.5193 276.328C88.2195 276.466 87.8992 276.532 87.5707 276.532ZM85.7333 268.246C85.4368 268.246 85.1527 268.306 84.8898 268.427C83.4647 269.081 83.0936 271.33 84.0627 273.44C85.0318 275.55 86.9793 276.734 88.4049 276.08C89.0862 275.767 89.5502 275.079 89.7111 274.144C89.8754 273.19 89.7052 272.096 89.2318 271.066C88.7586 270.036 88.0405 269.194 87.2094 268.697C86.7092 268.398 86.2054 268.246 85.7333 268.246Z" fill="#363E44"/>
<path d="M85.4218 271.963C82.5976 265.799 80.4079 262.455 76.5244 261.032C71.3051 259.121 66.183 262.47 65.6536 262.828C65.3156 263.056 60.3146 266.014 59.9486 271.849C59.5874 277.612 62.2903 283.364 67.1348 286.408L68.2447 299.116C68.601 303.195 72.1969 306.213 76.2764 305.857L77.2004 305.776C81.2799 305.42 84.2981 301.824 83.9419 297.744L83.2006 289.256C85.7695 288.813 87.7515 287.885 88.4576 286.502C89.7222 284.026 88.7481 279.222 85.4218 271.963Z" fill="white"/>
<path d="M77.6022 275.092C77.5435 275.092 77.4893 275.055 77.4712 274.996C77.4489 274.923 77.4895 274.846 77.5618 274.824L89.2994 271.201C89.3719 271.179 89.4487 271.219 89.4708 271.292C89.4932 271.364 89.4526 271.441 89.3803 271.463L77.6427 275.086C77.6291 275.09 77.6155 275.092 77.6022 275.092Z" fill="#363E44"/>
<path d="M83.2989 289.182C83.2301 289.182 83.1707 289.13 83.1629 289.06L82.809 285.96C82.8004 285.885 82.8544 285.817 82.9297 285.808C83.0049 285.799 83.073 285.854 83.0815 285.929L83.4354 289.029C83.4442 289.105 83.39 289.172 83.3147 289.181C83.3094 289.182 83.3042 289.182 83.2989 289.182Z" fill="#363E44"/>
<path d="M77.3831 279.837C77.3499 279.837 77.3167 279.825 77.2904 279.801C76.5218 279.096 76.0442 278.638 75.6954 278.303C75.525 278.14 75.3847 278.005 75.2554 277.885C75.2 277.833 75.1968 277.746 75.2484 277.691C75.3002 277.635 75.3869 277.632 75.4423 277.684C75.5725 277.805 75.7138 277.94 75.8853 278.105C76.233 278.439 76.7095 278.896 77.4758 279.599C77.5317 279.65 77.5354 279.737 77.4841 279.793C77.4572 279.822 77.4203 279.837 77.3831 279.837Z" fill="#363E44"/>
<path d="M78.1581 260.379C73.4818 256.51 62.7605 259.911 59.0191 265.875C53.9596 273.941 57.7968 285.157 64.7074 288.489C67.0258 289.607 70.847 290.89 74.5938 288.734C76.7816 287.475 76.0373 284.157 75.8424 283.36C73.6806 283.157 71.9913 281.444 71.8375 279.387C71.6826 277.315 73.1253 275.432 74.9424 274.959C76.1478 274.645 77.1972 275.034 77.6258 275.223C80.6924 268.924 81.4904 263.136 78.1581 260.379Z" fill="#363E44"/>
<path d="M35.7222 335.904C52.5671 343.573 63.3876 348.882 67.1014 350.518C67.4902 350.69 68.1754 350.995 69.139 351.133C72.7094 351.646 74.3818 349.042 78.3793 347.849C82.9151 346.495 86.2272 348.329 86.712 347.211C87.0493 346.433 85.9926 345.385 83.243 344.216C83.2428 344.216 83.2429 344.216 83.2432 344.216C85.433 344.861 88.4409 345.605 88.7901 344.381C89.1186 342.945 85.6864 341.652 83.5722 340.972C86.1312 341.795 87.7355 341.459 87.762 340.727C87.8035 339.575 85.9662 338.469 82.5424 337.514V337.514C85.0888 337.506 85.7053 337.12 85.5727 336.468C85.3304 335.276 82.501 334.544 79.9016 334.285C76.9753 333.993 74.6055 334.793 73.1232 335.333C73.1228 335.333 73.1224 335.333 73.122 335.333C61.875 328.725 54.404 324.425 45.4281 318.901C43.5916 317.771 35.7216 335.904 35.7222 335.904Z" fill="white"/>
<path d="M49.6277 304.408C34.2296 314.26 28.3734 330.927 35.3019 335.672C39.2278 338.36 52.6155 330.883 66.1258 316.074C61.5543 310.8 55.3168 310.645 49.6277 304.408Z" fill="white"/>
<path d="M122.909 345.856C104.456 346.763 92.4722 347.685 88.4237 347.834C87.9998 347.849 87.2516 347.88 86.3048 347.652C82.7964 346.808 82.1827 343.766 78.8942 341.177C75.1628 338.24 71.4168 338.721 71.3703 337.501C71.3379 336.653 72.7004 336.069 75.6824 335.998C75.6827 335.998 75.6827 335.998 75.6824 335.998C73.4108 335.788 70.3421 335.368 70.4603 334.099C70.6743 332.642 74.3369 332.707 76.5505 332.856C73.8709 332.676 72.4995 331.77 72.7398 331.079C73.1179 329.991 75.2281 329.642 78.7602 330.02L78.7604 330.019C76.3934 329.07 75.9593 328.483 76.3189 327.925C76.9756 326.905 79.8738 327.271 82.3868 327.991C85.216 328.802 87.1318 330.423 88.3158 331.474C88.316 331.474 88.3165 331.474 88.317 331.474C101.176 329.485 109.685 328.247 120.038 326.426C122.156 326.054 122.91 345.856 122.909 345.856Z" fill="white"/>
<path d="M112.877 314.625C126.354 330.131 132.152 341.111 125.262 345.198C120.825 347.83 110.601 342.609 99.3091 330.965C103.569 325.8 107.589 320.763 112.877 314.625Z" fill="white"/>
<path d="M114.097 343.152C114.074 343.152 114.051 343.146 114.029 343.134C109.483 340.545 104.359 336.37 99.2104 331.06C99.1576 331.006 99.1589 330.919 99.2134 330.866C99.2677 330.814 99.3544 330.815 99.4073 330.87C104.538 336.16 109.641 340.319 114.165 342.896C114.231 342.933 114.254 343.017 114.217 343.083C114.191 343.127 114.145 343.152 114.097 343.152Z" fill="#363E44"/>
<path d="M34.2297 317.413C34.2297 317.413 46.7186 294.293 75.8063 296.053C99.915 297.512 122.72 320.763 122.72 320.763L107.711 340.073L102.449 336.92L99.9149 356.821L38.3228 355.245L44.613 327.683L34.2297 317.413Z" fill="#453D6E"/>
<path d="M81.5932 386.18H30.5262L21.5522 324.506H72.6191L81.5932 386.18Z" fill="#B5346D"/>
<path d="M246.555 233.792C238.87 236.587 230.557 236.222 223.147 232.765C215.737 229.308 210.117 223.172 207.322 215.487C204.527 207.802 204.891 199.49 208.349 192.079C211.806 184.669 217.942 179.049 225.627 176.254C233.311 173.459 241.624 173.824 249.034 177.281C256.445 180.739 262.065 186.875 264.86 194.559C267.655 202.244 267.29 210.557 263.833 217.967C260.375 225.377 254.239 230.997 246.555 233.792ZM228.931 185.338C218.077 189.286 212.458 201.329 216.406 212.183C220.354 223.037 232.396 228.656 243.25 224.708C254.105 220.76 259.723 208.717 255.775 197.863C251.827 187.009 239.785 181.391 228.931 185.338Z" fill="#F2E6DC"/>
<path d="M246.142 232.657C238.76 235.341 230.776 234.991 223.658 231.67C216.54 228.349 211.142 222.455 208.457 215.074C205.772 207.693 206.123 199.708 209.444 192.59C212.765 185.473 218.659 180.074 226.04 177.389C233.421 174.705 241.406 175.055 248.523 178.376C255.641 181.697 261.039 187.591 263.724 194.972C266.409 202.353 266.059 210.338 262.738 217.456C259.417 224.574 253.523 229.972 246.142 232.657ZM228.518 184.203C217.038 188.378 211.095 201.115 215.27 212.596C219.446 224.076 232.183 230.019 243.663 225.843C255.144 221.668 261.086 208.93 256.911 197.45C252.735 185.97 239.998 180.027 228.518 184.203Z" fill="white"/>
<path d="M215.27 212.596C214.588 210.721 214.178 208.813 214.016 206.914L206.738 206.959C206.923 209.697 207.493 212.424 208.457 215.074C210.674 221.169 214.743 226.248 220.101 229.704L223.688 223.369C219.941 220.844 216.93 217.157 215.27 212.596Z" fill="white"/>
<path d="M238.034 182.957C246.334 183.7 253.879 189.115 256.911 197.45C259.227 203.82 258.428 210.575 255.298 216.041L261.307 220.152C261.826 219.284 262.304 218.385 262.738 217.456C266.058 210.338 266.409 202.353 263.724 194.972C261.039 187.591 255.641 181.697 248.523 178.376C245.188 176.82 241.662 175.916 238.097 175.671L238.034 182.957Z" fill="#4424DD"/>
<path d="M213.996 203.41C214.624 194.98 220.072 187.275 228.518 184.203C230.501 183.481 232.522 183.062 234.53 182.921L234.593 175.643C231.708 175.794 228.831 176.374 226.04 177.389C218.659 180.074 212.765 185.472 209.444 192.59C207.824 196.062 206.913 199.741 206.714 203.455L213.996 203.41Z" fill="white"/>
<path d="M253.324 218.936C250.876 221.98 247.595 224.413 243.663 225.843C237.927 227.93 231.877 227.49 226.738 225.095L223.152 231.427C223.32 231.509 223.488 231.591 223.658 231.67C230.775 234.991 238.76 235.341 246.141 232.657C251.44 230.729 255.971 227.404 259.335 223.048L253.324 218.936Z" fill="#917AFF"/>
<path d="M42.1021 174.565H31.7058L36.904 151.03L42.1021 174.565Z" fill="#917AFF"/>
<path d="M52.4984 174.565H42.1021L47.3002 157.855L52.4984 174.565Z" fill="#B5346D"/>
<path d="M62.8947 174.565H52.4985L57.6966 144.011L62.8947 174.565Z" fill="#4424DD"/>
<path d="M73.2911 174.565H62.8948L68.0929 159.288L73.2911 174.565Z" fill="#FFFBF8"/>
<path d="M75.2404 177.413H28.8356C28.7598 177.413 28.6985 177.351 28.6985 177.276V157.855C28.6985 157.779 28.7598 157.718 28.8356 157.718C28.9115 157.718 28.9728 157.779 28.9728 157.855V177.139H75.2404C75.3163 177.139 75.3776 177.2 75.3776 177.276C75.3776 177.351 75.3163 177.413 75.2404 177.413Z" fill="#E6D0BE"/>
<path d="M37.8276 265.582C49.4617 265.4 58.8382 255.918 58.8382 244.241C58.8382 243.9 58.8284 243.561 58.8125 243.224H37.8276V265.582Z" fill="white"/>
<path d="M35.7216 241.118H48.7638C48.4338 234.083 42.6272 228.481 35.511 228.481C28.1829 228.481 22.2422 234.422 22.2422 241.75C22.2422 249.078 28.1828 255.019 35.511 255.019C35.5817 255.019 35.6512 255.014 35.7217 255.013V241.118H35.7216Z" fill="#4424DD"/>
</g>
<defs>
<clipPath id="clip0_1_3337">
<rect x="20" y="134" width="252" height="258" rx="20" fill="white"/>
</clipPath>
</defs>
</svg>
