<svg width="94" height="120" viewBox="0 0 94 120" fill="none" xmlns="http://www.w3.org/2000/svg">
<g clip-path="url(#clip0_177_9399)">
<rect width="94" height="120" fill="#FFDCEB"/>
<g clip-path="url(#clip1_177_9399)">
<g clip-path="url(#clip2_177_9399)">
<path d="M93.9961 60.814C93.9961 63.2187 93.8165 65.5813 93.4686 67.8882C93.4697 67.8893 93.4686 67.8905 93.4686 67.8916C93.4686 67.8939 93.4675 67.8995 93.4663 67.9075C93.3913 68.4089 93.3072 68.908 93.215 69.4038C91.7085 77.6035 88.0804 85.0598 82.9221 91.1857C82.0988 92.1646 81.2359 93.1095 80.3343 94.0179C73.0316 101.392 63.3128 106.369 52.4628 107.663C50.6106 107.884 48.7244 107.998 46.812 107.998C20.7527 107.998 -0.37207 86.8732 -0.37207 60.8139C-0.37207 34.7546 20.7527 13.6298 46.812 13.6298C72.8713 13.6298 93.9961 34.7547 93.9961 60.814Z" fill="#B5346D"/>
<path d="M78.8394 63.9552C78.8005 63.9552 78.7617 63.9517 78.7231 63.9447C78.4826 63.901 78.2823 63.7256 78.1591 63.4507C78.0388 63.1824 78.0061 62.8498 78.0671 62.514C78.1281 62.1783 78.2756 61.8783 78.4826 61.6694C78.6945 61.4554 78.9437 61.3616 79.1842 61.4052C79.673 61.494 79.9674 62.1358 79.8403 62.8359C79.7793 63.1717 79.6318 63.4716 79.4249 63.6805C79.2469 63.8602 79.0427 63.9552 78.8394 63.9552ZM79.0687 61.498C78.8928 61.498 78.7139 61.5824 78.5558 61.742C78.3634 61.9363 78.2259 62.217 78.1686 62.5325C78.1113 62.8479 78.1414 63.1591 78.2532 63.4085C78.3621 63.6515 78.5356 63.8058 78.7416 63.8433C78.9475 63.8806 79.1642 63.7971 79.3517 63.608C79.5441 63.4137 79.6816 63.1331 79.7388 62.8176C79.8559 62.1734 79.5987 61.5854 79.1659 61.5068C79.1336 61.5009 79.1012 61.498 79.0687 61.498Z" fill="#363E44"/>
<path d="M79.2715 62.5087C79.6148 60.6074 79.9826 59.5294 80.9539 58.862C82.2593 57.965 83.91 58.5271 84.0815 58.5885C84.191 58.6275 85.7806 59.09 86.2945 60.6748C86.802 62.2398 86.4629 64.0189 85.3412 65.2019L85.934 68.7878C86.1243 69.9391 85.3454 71.0266 84.1941 71.2169L83.9333 71.26C82.7821 71.4504 81.6946 70.6714 81.5043 69.5202L81.1083 67.1247C80.3679 67.1843 79.7551 67.0682 79.4624 66.7365C78.9381 66.1425 78.867 64.7477 79.2715 62.5087Z" fill="white"/>
<path d="M81.6416 62.8327C81.6407 62.8327 81.6399 62.8327 81.639 62.8327L78.1428 62.6632C78.1144 62.6618 78.0924 62.6377 78.0938 62.6092C78.0952 62.5808 78.12 62.5588 78.1479 62.5602L81.6441 62.7297C81.6725 62.7311 81.6944 62.7553 81.6931 62.7837C81.6917 62.8113 81.6689 62.8327 81.6416 62.8327Z" fill="#363E44"/>
<path d="M81.0657 67.1246C81.0403 67.1246 81.0182 67.1059 81.0147 67.0801L80.8931 66.1993C80.8892 66.1711 80.9089 66.145 80.9371 66.1412C80.9655 66.1373 80.9914 66.157 80.9952 66.1852L81.1169 67.066C81.1208 67.0942 81.101 67.1203 81.0728 67.1242C81.0705 67.1245 81.068 67.1246 81.0657 67.1246Z" fill="#363E44"/>
<path d="M82.0379 64.1268C82.0282 64.1268 82.0185 64.1241 82.0098 64.1184C81.9859 64.1029 81.9791 64.0709 81.9947 64.0471C82.1562 63.7991 82.2553 63.6394 82.3276 63.5229C82.3635 63.4651 82.393 63.4175 82.4204 63.3747C82.4358 63.3508 82.4677 63.3438 82.4917 63.3592C82.5157 63.3746 82.5227 63.4065 82.5073 63.4305C82.4801 63.4729 82.4508 63.52 82.4153 63.5773C82.3427 63.6943 82.2433 63.8545 82.0812 64.1034C82.0712 64.1185 82.0547 64.1268 82.0379 64.1268Z" fill="#363E44"/>
<path d="M80.4565 58.7972C81.4735 57.3984 84.6734 57.5783 86.1281 58.9598C88.0954 60.8281 87.83 64.1956 86.1582 65.6042C85.5973 66.0767 84.6334 66.7014 83.4467 66.3713C82.7537 66.1786 82.7243 65.2101 82.7217 64.9763C83.3041 64.7675 83.6491 64.175 83.546 63.5963C83.4422 63.0134 82.9107 62.5959 82.3757 62.5938C82.0208 62.5925 81.7587 62.7742 81.6537 62.8567C80.3616 61.335 79.7318 59.7939 80.4565 58.7972Z" fill="#363E44"/>
<path d="M93.4697 67.8884C93.4697 67.8884 93.4697 67.8896 93.4685 67.8918C93.4685 67.8941 93.4674 67.8998 93.4663 67.9078C93.4367 68.0476 93.2616 68.9094 93.215 69.404C91.7085 77.6038 88.0804 85.0601 82.922 91.186L77.2792 92.2718L76.2571 84.5529L72.2027 85.0635L69.7935 74.8489C69.7935 74.8489 79.2315 69.8429 85.794 68.4797C88.2759 67.9635 91.0627 67.8213 93.4685 67.8884H93.4697Z" fill="#917AFF"/>
<path d="M86.1282 58.9598C86.1282 58.9598 85.558 64.1993 82.7218 64.9764L81.0659 71.4037C81.0659 71.4037 81.4758 71.4822 82.1446 71.5345C82.4811 70.1306 82.9721 68.2463 82.9721 68.2463V71.576C84.3007 71.6067 86.1424 71.4749 87.8976 70.7632C88.0024 69.8521 88.0578 68.7952 87.9378 67.8511C87.7467 66.3494 88.6741 68.207 89.1047 70.1653C90.8215 69.1391 92.3009 67.4064 92.9035 64.5223L86.1282 58.9598Z" fill="#363E44"/>
<path d="M60.5317 39.9822H18.5444V75.6029H60.5317V39.9822Z" fill="#FFDCEB"/>
<path d="M26.0142 75.6028C26.0142 75.6028 31.6391 58.3979 33.5929 50.2052C33.5929 50.2052 41.677 47.321 50.3951 49.1776C50.3951 49.1776 53.2374 64.1424 51.7495 75.6028H41.4272L42.7378 56.0434L38.8148 75.6028H26.0142Z" fill="#363E44"/>
<path d="M42.4951 23.2127H39.5537V29.2293H42.4951V23.2127Z" fill="white"/>
<path d="M42.4927 24.6299C43.839 23.2836 43.8389 21.1009 42.4926 19.7546C41.1464 18.4083 38.9636 18.4083 37.6173 19.7546C36.2711 21.1008 36.2711 23.2836 37.6174 24.6299C38.9637 25.9762 41.1464 25.9762 42.4927 24.6299Z" fill="#363E44"/>
<path d="M44.0412 25.338C43.4839 26.0879 40.9836 25.356 40.9836 25.356L39.017 23.2872C38.6109 22.0372 39.295 20.6946 40.545 20.2885C41.795 19.8824 43.1376 20.5664 43.5437 21.8165C43.5437 21.8165 44.6089 24.5743 44.0412 25.338Z" fill="white"/>
<path d="M43.4771 22.4955C43.4771 22.4955 44.328 22.9544 44.3513 23.141C44.3791 23.3637 43.7134 23.7213 43.7134 23.7213C43.7134 23.7213 43.4944 22.4916 43.4771 22.4955Z" fill="white"/>
<path d="M42.9877 25.7666C42.095 25.7666 41.0335 25.4593 40.9819 25.4442C40.9546 25.4362 40.9389 25.4076 40.9469 25.3802C40.9549 25.3528 40.9835 25.3372 41.0109 25.3452C41.0253 25.3494 42.4647 25.766 43.3803 25.6388C43.4086 25.6349 43.4346 25.6546 43.4385 25.6828C43.4424 25.711 43.4227 25.7371 43.3945 25.741C43.2664 25.7589 43.129 25.7666 42.9877 25.7666Z" fill="#363E44"/>
<path d="M41.127 22.9784C41.127 22.9784 41.4697 22.6201 41.9703 22.4575C42.0768 22.4229 42.1528 23.3405 42.036 23.3251C41.5225 23.2574 41.127 22.9784 41.127 22.9784Z" fill="white"/>
<mask id="mask0_177_9399" style="mask-type:luminance" maskUnits="userSpaceOnUse" x="41" y="22" width="3" height="2">
<path d="M41.1265 22.9806C41.1265 22.9806 41.6305 22.4536 42.309 22.3877C42.9875 22.3219 43.5834 22.7421 43.5834 22.7421C43.5834 22.7421 43.0794 23.2691 42.4009 23.3349C41.7224 23.4008 41.1265 22.9806 41.1265 22.9806Z" fill="white"/>
</mask>
<g mask="url(#mask0_177_9399)">
<path d="M41.9841 22.4302C42.2076 21.9915 42.7444 21.8171 43.1831 22.0406C43.6218 22.2641 43.7962 22.8009 43.5727 23.2396C43.3492 23.6783 42.8124 23.8527 42.3737 23.6292C41.935 23.4057 41.7605 22.8689 41.9841 22.4302Z" fill="#363E44"/>
</g>
<path d="M43.0714 24.3987C43.0358 24.3987 42.9999 24.3941 42.9645 24.3847C42.8123 24.3439 42.694 24.2172 42.6631 24.0617C42.6575 24.0338 42.6757 24.0067 42.7036 24.0011C42.7319 23.9955 42.7587 24.0137 42.7642 24.0416C42.7875 24.1588 42.8767 24.2543 42.9912 24.285C43.11 24.3168 43.2377 24.2753 43.3162 24.1793C43.3343 24.1573 43.3668 24.154 43.3888 24.172C43.4108 24.1901 43.4141 24.2226 43.3961 24.2446C43.3152 24.3434 43.1951 24.3987 43.0714 24.3987Z" fill="#363E44"/>
<path d="M38.6593 24.0609C38.6593 24.0609 39.2869 23.5368 40.2803 24.0594L40.6773 23.6381C40.6773 23.6381 39.397 20.6491 43.1659 20.7629C43.1659 20.7629 41.1679 18.5527 39.2183 20.2362C37.2687 21.9196 38.6593 24.0609 38.6593 24.0609Z" fill="#363E44"/>
<path d="M38.8065 24.6117C39.0822 25.0111 39.5872 25.1405 39.9345 24.9007C40.2818 24.6609 40.3397 24.1428 40.064 23.7434C39.7883 23.3441 39.2832 23.2148 38.936 23.4545C38.5887 23.6943 38.5307 24.2124 38.8065 24.6117Z" fill="white"/>
<path d="M38.9708 24.1899C38.944 24.1899 38.9213 24.1692 38.9194 24.142C38.9066 23.9635 38.9793 23.8015 39.1139 23.7086C39.3358 23.5554 39.6572 23.6356 39.8308 23.887C39.847 23.9104 39.8411 23.9425 39.8177 23.9587C39.7941 23.9749 39.7621 23.9691 39.7459 23.9456C39.6047 23.741 39.3474 23.6727 39.1725 23.7935C39.0682 23.8654 39.0121 23.993 39.0222 24.1347C39.0243 24.1631 39.0029 24.1877 38.9744 24.1898C38.9733 24.1899 38.972 24.1899 38.9708 24.1899Z" fill="#363E44"/>
<path d="M39.8705 26.1669C39.5496 26.1669 39.2506 25.9623 39.1462 25.641C39.0165 25.242 39.2357 24.8118 39.6348 24.6822C40.0338 24.5525 40.4641 24.7717 40.5938 25.1708C40.7234 25.5698 40.5042 26 40.1051 26.1296C40.0273 26.1549 39.9482 26.1669 39.8705 26.1669ZM39.2443 25.6092C39.3563 25.9542 39.7281 26.1436 40.0732 26.0316C40.4182 25.9195 40.6077 25.5476 40.4956 25.2026C40.3834 24.8576 40.0115 24.6682 39.6666 24.7802C39.3216 24.8923 39.1322 25.2642 39.2443 25.6092Z" fill="#4424DD"/>
<path d="M40.8635 20.4001C40.8635 20.4001 39.638 14.516 37.8074 15.1106C35.9768 15.7051 39.5327 20.9789 40.8635 20.4001Z" fill="#363E44"/>
<path d="M39.6632 20.9396C39.6632 20.9396 37.0371 14.0119 34.8104 15.0889C32.5838 16.1659 38.071 21.9011 39.6632 20.9396Z" fill="#363E44"/>
<path d="M39.1478 20.9298C39.1478 20.9298 33.2448 14.6312 31.4447 16.7292C29.6447 18.8271 37.9488 22.6347 39.1478 20.9298Z" fill="#363E44"/>
<path d="M38.0915 21.7678C38.0915 21.7678 32.8113 17.663 31.6014 19.5396C30.3916 21.4162 37.3163 23.2571 38.0915 21.7678Z" fill="#363E44"/>
<path d="M34.7416 22.0777C33.525 22.0777 32.3653 21.8497 31.858 21.3591C31.6004 21.11 31.5185 20.8115 31.6147 20.4722C31.7012 20.1664 31.9028 19.9322 32.2137 19.7761C33.9103 18.9242 38.3523 20.6 38.5405 20.6717L38.5806 20.687L38.5728 20.7293C38.4982 21.1322 38.0457 21.4772 37.2644 21.727C36.5473 21.9564 35.6293 22.0777 34.7416 22.0777ZM33.5036 19.6408C33.0157 19.6408 32.583 19.7061 32.26 19.8683C31.976 20.0109 31.7923 20.2236 31.7139 20.5003C31.6289 20.8004 31.7015 21.0643 31.9297 21.285C32.7833 22.1104 35.5592 22.164 37.2331 21.6288C37.9367 21.4039 38.3702 21.094 38.462 20.7525C38.0933 20.6162 35.388 19.6408 33.5036 19.6408Z" fill="#363E44"/>
<path d="M38.6201 20.551C38.2723 20.551 37.8391 20.3389 37.348 19.9251C35.9829 18.7747 34.531 16.3462 34.7825 15.1518C34.8564 14.8012 35.0654 14.5731 35.4039 14.4738C35.709 14.3844 36.0145 14.4305 36.312 14.6106C37.9361 15.5937 38.881 20.2463 38.9205 20.4438L38.9289 20.486L38.889 20.5019C38.8063 20.5347 38.7164 20.551 38.6201 20.551ZM35.7053 14.533C35.6145 14.533 35.5236 14.5463 35.4329 14.5728C35.1337 14.6605 34.9488 14.8625 34.8834 15.1731C34.6388 16.3349 36.0706 18.7137 37.4144 19.8462C37.9793 20.3222 38.4725 20.5243 38.8103 20.4203C38.7086 19.936 37.7623 15.6091 36.2586 14.6988C36.0761 14.5884 35.8909 14.533 35.7053 14.533Z" fill="#363E44"/>
<path d="M40.2386 19.677C40.2386 19.677 39.3008 16.9228 40.6726 17.0205C42.0444 17.1182 40.2386 19.677 40.2386 19.677Z" fill="#363E44"/>
<path d="M37.1687 21.7522C37.1687 21.7522 33.4293 20.9193 33.8493 22.8589C34.2693 24.7986 37.1687 21.7522 37.1687 21.7522Z" fill="#363E44"/>
<path d="M32.4612 48.8667L30.791 57.818C30.791 57.818 39.8914 57.0179 42.5931 49.1524L32.4612 48.8667Z" fill="white"/>
<path d="M41.1714 48.527C41.2752 49.111 45.7348 55.749 52.4227 56.5817L50.5631 47.6323L41.1714 48.527Z" fill="white"/>
<path d="M31.0153 28.6872L27.9126 50.6482C27.9126 50.6482 42.1054 52.8755 53.073 49.4567L52.2411 32.647C52.1075 31.2871 51.0778 30.187 49.7297 29.964C46.5347 29.4355 39.333 28.3358 31.0153 28.6872Z" fill="#4424DD"/>
<path d="M65.5635 33.7186L61.7526 31.3542C61.0659 30.9282 60.188 31.0057 59.5712 31.5278C55.5391 34.9413 50.6746 30.2875 50.6746 30.2875L48.3047 30.9014L51.591 42.4052C61.3468 47.2565 65.2738 39.9258 66.5048 36.3604C66.8473 35.3684 66.4553 34.2719 65.5635 33.7186Z" fill="#4424DD"/>
<path d="M30.6911 48.5278C30.6911 48.5278 19.6566 51.5039 21.2748 41.5585C22.5099 33.9677 26.8641 30.8673 28.8501 29.38C29.8693 28.6168 31.0153 28.687 31.0153 28.687L30.6911 48.5278Z" fill="#4424DD"/>
<path d="M30.1952 39.9645C30.1922 39.9645 30.1891 39.9643 30.186 39.9637C30.158 39.9586 30.1394 39.9319 30.1444 39.9038L31.0824 34.6794C31.0875 34.6513 31.1144 34.6327 31.1423 34.6378C31.1704 34.6428 31.189 34.6696 31.184 34.6976L30.2459 39.9221C30.2414 39.947 30.2197 39.9645 30.1952 39.9645Z" fill="#363E44"/>
<path d="M52.1802 42.169C52.1561 42.169 52.1345 42.152 52.1297 42.1274L51.5693 39.2835C51.5639 39.2555 51.582 39.2284 51.61 39.223C51.6379 39.2175 51.665 39.2356 51.6706 39.2636L52.2309 42.1075C52.2364 42.1355 52.2183 42.1626 52.1903 42.1681C52.1868 42.1687 52.1835 42.169 52.1802 42.169Z" fill="#363E44"/>
<path d="M72.4107 25.6355C72.327 25.4241 72.077 25.4303 71.3402 25.9089C72.1504 24.9896 72.4743 24.3267 72.2471 24.0055C72.1028 23.8015 71.5767 24.0085 70.9916 24.7269C71.475 24.1334 72.2244 23.1156 71.8613 22.7676C71.5317 22.4838 70.8023 23.2644 70.2905 23.8623L70.2903 23.8622C70.8659 23.0091 70.9753 22.5103 70.7327 22.3519C70.3838 22.1241 69.77 23.2733 68.2075 23.7433C66.8303 24.1575 65.861 23.7295 64.9258 24.5501C64.6733 24.7716 64.5326 24.9882 64.4523 25.1106C63.8778 25.9862 62.4246 28.3827 60.2886 31.7893C60.7693 32.8034 61.6719 33.5246 62.6541 34.116C63.2579 34.4796 63.8952 34.8045 64.5672 35.0218C64.8611 35.1169 65.1761 35.1982 65.4918 35.2249C66.511 33.122 67.6405 31.0748 69.0275 28.3109C69.0276 28.3108 69.0277 28.3107 69.0278 28.3107C69.5568 28.1851 70.3904 27.966 71.1809 27.33C71.883 26.765 72.5633 26.0216 72.4107 25.6355Z" fill="white"/>
<path d="M67.0333 24.418C67.8136 23.0046 67.7956 22.3294 67.5677 22.2129C67.1844 22.0169 66.0242 22.9509 64.6235 24.8729C65.3063 24.8063 66.3506 24.4845 67.0333 24.418Z" fill="white"/>
<path d="M66.7283 27.1421C66.7199 27.1421 66.7113 27.14 66.7035 27.1357C66.6786 27.1219 66.6694 27.0906 66.6831 27.0656C66.8248 26.8082 67.0906 26.4504 67.5522 26.2072C68.2053 25.8632 68.8441 25.9728 69.0884 26.0359C69.116 26.0431 69.1325 26.0712 69.1254 26.0988C69.1183 26.1263 69.0902 26.1429 69.0626 26.1358C68.8298 26.0757 68.2215 25.9712 67.6002 26.2985C67.1613 26.5298 66.9084 26.8704 66.7735 27.1154C66.7641 27.1324 66.7464 27.1421 66.7283 27.1421Z" fill="#363E44"/>
<path d="M65.6629 24.2367C65.641 24.2367 65.6207 24.2227 65.6138 24.2007C65.6051 24.1736 65.6202 24.1446 65.6473 24.136C65.9896 24.0276 66.3494 24.0034 66.7303 23.9777C66.9078 23.9658 67.0915 23.9534 67.283 23.9321C67.3113 23.9289 67.3368 23.9494 67.3399 23.9777C67.3431 24.006 67.3226 24.0315 67.2943 24.0346C67.1006 24.0561 66.9159 24.0686 66.7372 24.0806C66.3626 24.1059 66.0088 24.1297 65.6784 24.2344C65.6733 24.236 65.668 24.2367 65.6629 24.2367Z" fill="#363E44"/>
<path d="M69.0296 24.6689C69.0082 24.6689 68.9882 24.6555 68.9809 24.6342C68.9716 24.6073 68.9859 24.5779 69.0128 24.5686C69.1955 24.5056 69.3731 24.4252 69.5407 24.3299C69.7837 24.1917 70.0079 24.0208 70.2072 23.822C70.2274 23.8019 70.26 23.8019 70.2801 23.8221C70.3003 23.8423 70.3003 23.8749 70.28 23.895C70.0743 24.1003 69.8427 24.2768 69.5916 24.4196C69.4186 24.518 69.2351 24.601 69.0464 24.6661C69.0408 24.6681 69.0352 24.6689 69.0296 24.6689Z" fill="#363E44"/>
<path d="M69.803 25.4378C69.7816 25.4378 69.7616 25.4244 69.7543 25.4031C69.745 25.3761 69.7593 25.3468 69.7862 25.3375C69.969 25.2743 70.1466 25.1941 70.3141 25.0988C70.5572 24.9605 70.7815 24.7896 70.9806 24.5908C71.0008 24.5707 71.0334 24.5707 71.0535 24.5909C71.0736 24.6111 71.0736 24.6437 71.0534 24.6638C70.8478 24.8691 70.6162 25.0455 70.3651 25.1884C70.1921 25.2868 70.0087 25.3697 69.8198 25.4349C69.8143 25.4369 69.8086 25.4378 69.803 25.4378Z" fill="#363E44"/>
<path d="M70.1038 26.7302C70.0824 26.7302 70.0624 26.7168 70.0551 26.6954C70.0458 26.6685 70.0601 26.6392 70.087 26.6298C70.2697 26.5668 70.4473 26.4864 70.6149 26.3911C70.8581 26.2528 71.0823 26.0819 71.2815 25.8832C71.3016 25.8631 71.3342 25.8631 71.3544 25.8833C71.3745 25.9035 71.3745 25.9361 71.3543 25.9562C71.1487 26.1614 70.917 26.3379 70.6658 26.4808C70.4928 26.5792 70.3094 26.6622 70.1206 26.7273C70.115 26.7293 70.1094 26.7302 70.1038 26.7302Z" fill="#363E44"/>
<path d="M59.1123 32.2816L61.1851 30.1295L66.7283 33.1453L65.6631 35.9371C65.6631 35.9371 62.728 36.379 61.2412 33.3998C61.2412 33.3998 59.4035 33.0762 59.1123 32.2816Z" fill="white"/>
<path d="M35.1077 46.5351C35.102 46.5351 35.0961 46.5341 35.0904 46.5321C35.0636 46.5225 35.0496 46.493 35.0591 46.4662L39.0895 35.1503H47.9348C47.9633 35.1503 47.9863 35.1734 47.9863 35.2019C47.9863 35.2303 47.9633 35.2534 47.9348 35.2534H39.1622L35.1563 46.5008C35.1488 46.5219 35.1289 46.5351 35.1077 46.5351Z" fill="#B5346D"/>
<path d="M44.3407 47.0285H35.5317L39.5499 35.7469H48.3588L44.3407 47.0285Z" fill="#B5346D"/>
<path d="M37.8091 29.2297L39.3792 27.7953L41.0271 28.694L40.5561 32.2258L37.8091 29.2297Z" fill="white"/>
<path d="M44.2518 29.2297L42.7133 27.7953L40.9341 28.7399L41.5048 32.1309L44.2518 29.2297Z" fill="white"/>
<path d="M41.6042 42.7592C41.579 41.7461 34.6208 41.1667 33.3224 41.0925C33.0225 41.0753 31.5246 41.0425 29.6769 40.9947C29.6713 41.0022 29.6658 41.0098 29.6603 41.0172C29.4585 41.2881 29.2567 41.5537 29.0895 41.8483C28.4567 42.9633 28.293 44.2053 28.1977 45.4628C28.1505 46.0856 28.1195 46.7214 28.1447 47.3528C32.6549 47.4371 37.7291 47.4638 38.4179 47.5026C39.0602 47.5611 40.5406 47.7001 40.6128 47.2415C40.7111 46.6168 39.156 46.2382 39.1147 46.1656C39.5958 46.2325 41.2096 46.3816 41.3141 45.8621C41.3944 45.4628 39.847 44.8385 39.4655 44.6663C39.499 44.6561 41.3417 45.1565 41.4918 44.5366C41.6194 44.0091 40.1713 43.3673 39.8164 43.1618C40.2707 43.1922 41.6163 43.2432 41.6042 42.7592Z" fill="white"/>
<path d="M39.8352 43.166C39.8284 43.166 39.8215 43.1647 39.8148 43.1618C39.5669 43.0551 39.3096 42.9648 39.0499 42.8934C38.5835 42.7651 38.0997 42.6945 37.612 42.6836C37.5835 42.683 37.561 42.6593 37.5615 42.6309C37.5622 42.6028 37.5852 42.5804 37.6131 42.5804C37.6135 42.5804 37.6139 42.5804 37.6142 42.5804C38.1104 42.5915 38.6026 42.6633 39.0772 42.7939C39.3414 42.8666 39.6033 42.9585 39.8556 43.067C39.8817 43.0783 39.8938 43.1086 39.8825 43.1348C39.8742 43.1544 39.8552 43.166 39.8352 43.166Z" fill="#363E44"/>
<path d="M39.4933 44.6858C39.4883 44.6858 39.4832 44.685 39.4782 44.6835C39.4241 44.6668 39.3687 44.6508 39.3122 44.6352C38.8458 44.5068 38.362 44.4363 37.8742 44.4254C37.8457 44.4248 37.8232 44.4012 37.8237 44.3727C37.8244 44.3446 37.8474 44.3223 37.8753 44.3223C37.8757 44.3223 37.8761 44.3223 37.8764 44.3223C38.3727 44.3333 38.8649 44.4051 39.3395 44.5357C39.397 44.5515 39.4533 44.5679 39.5084 44.5848C39.5356 44.5932 39.5509 44.6221 39.5425 44.6493C39.5358 44.6715 39.5154 44.6858 39.4933 44.6858Z" fill="#363E44"/>
<path d="M39.0843 46.2014C39.0811 46.2014 39.078 46.2012 39.0748 46.2006C38.764 46.1431 38.4449 46.1103 38.1266 46.1032C38.0982 46.1026 38.0756 46.079 38.0762 46.0505C38.0769 46.0221 38.098 45.9996 38.1289 46.0001C38.4527 46.0074 38.7772 46.0407 39.0935 46.0992C39.1215 46.1043 39.14 46.1313 39.1349 46.1593C39.1303 46.1841 39.1086 46.2014 39.0843 46.2014Z" fill="#363E44"/>
<path d="M26.9975 40.3207C27.0832 40.1679 30.8845 40.8262 30.8845 40.8262C30.8845 40.8262 29.7322 45.191 29.5786 47.819H26.3297C26.3297 47.819 25.1114 44.844 27.2098 42.0683C27.2098 42.0683 26.5503 41.1179 26.9975 40.3207Z" fill="white"/>
<path d="M80.3344 94.0175C73.0317 101.392 63.313 106.368 52.4629 107.662C52.4583 107.661 52.4538 107.661 52.4492 107.66C53.8193 105.657 55.2359 103.684 56.6776 101.732C57.1687 101.067 57.6633 100.404 58.159 99.7421C58.5956 99.1611 59.0277 98.5858 59.5404 98.0696C60.4603 97.1453 61.5358 96.3892 62.6717 95.7571C64.9706 94.4791 67.5095 93.6855 70.046 93.0352C72.4666 92.4155 75.0475 92.1643 77.4931 92.7987C78.5107 93.0636 79.4601 93.4809 80.3344 94.0175Z" fill="white"/>
<path d="M64.5466 67.7888C65.4149 66.0129 66.0775 65.0543 67.2199 64.6681C68.755 64.1492 70.2233 65.163 70.375 65.2711C70.4719 65.3402 71.9078 66.2388 71.9717 67.9421C72.0348 69.6242 71.2049 71.281 69.7707 72.1328L69.3541 75.8282C69.2204 77.0145 68.1503 77.8679 66.9639 77.7342L66.6952 77.7039C65.5088 77.5702 64.6555 76.5001 64.7892 75.3137L65.0675 72.8451C64.322 72.6973 63.7512 72.4121 63.5555 72.004C63.205 71.273 63.5241 69.8801 64.5466 67.7888Z" fill="white"/>
<path d="M65.0399 72.8348C65.0376 72.8348 65.0351 72.8346 65.0327 72.8343C65.0045 72.8303 64.9849 72.8043 64.9888 72.7761L65.1147 71.875C65.1186 71.8468 65.1445 71.8271 65.1729 71.8311C65.2011 71.835 65.2207 71.8611 65.2168 71.8893L65.0909 72.7903C65.0873 72.8162 65.0653 72.8348 65.0399 72.8348Z" fill="#363E44"/>
<path d="M66.5764 70.2712C66.5621 70.2712 66.5478 70.2653 66.5376 70.2536C66.5189 70.2321 66.5211 70.1995 66.5426 70.1808C66.6573 70.0807 66.759 69.9887 66.8668 69.8911C66.9552 69.8111 67.0463 69.7286 67.1493 69.6376C67.1706 69.6188 67.2032 69.6208 67.222 69.6421C67.2409 69.6635 67.2389 69.6961 67.2175 69.7149C67.115 69.8056 67.0242 69.8878 66.936 69.9676C66.8278 70.0654 66.7257 70.1578 66.6104 70.2585C66.6006 70.2671 66.5885 70.2712 66.5764 70.2712Z" fill="#363E44"/>
<path d="M74.1891 69.0132C74.5118 68.0762 74.0138 67.055 73.0767 66.7324C73.0753 66.7319 73.0739 66.7315 73.0723 66.731C73.2215 66.5748 73.3412 66.3859 73.4162 66.1683C73.6941 65.3614 73.2652 64.482 72.4583 64.2041C72.2896 64.1461 72.1181 64.1206 71.9494 64.1212C72.1702 63.3384 71.7455 62.5103 70.9669 62.2421C70.5268 62.0906 70.0659 62.1504 69.6922 62.3659C69.552 61.7906 69.1314 61.2962 68.53 61.0891C67.6203 60.7758 66.6314 61.2342 66.2762 62.1167C66.2341 62.0979 66.1914 62.0801 66.147 62.0648C65.3401 61.7869 64.4607 62.2158 64.1828 63.0227C63.9049 63.8296 64.3338 64.709 65.1407 64.9869C65.1639 64.9949 65.1875 65.0003 65.2109 65.0071C64.8319 66.4684 66.2859 67.1467 66.3681 67.1992C65.977 67.7949 65.5859 68.3907 65.1948 68.9864C65.4203 69.1414 65.6843 69.3433 65.9098 69.4983C66.2855 68.8603 66.6457 68.685 67.0515 68.7462C67.6906 68.8425 68.0687 69.5837 67.9258 70.1933C67.7954 70.7497 67.412 71.2492 66.7961 71.378C67.4022 71.5973 68.0429 71.8091 68.7175 72.0077C69.0694 72.1112 69.4153 72.2067 69.7542 72.2946C69.9999 72.2304 71.5888 71.7863 72.4021 70.221C73.1802 70.2605 73.9227 69.7867 74.1891 69.0132Z" fill="black"/>
<path d="M85.5322 93.6918C77.9109 95.3877 73.3972 96.4629 71.7215 96.8143C71.546 96.8511 71.2366 96.9174 70.8261 96.8914C69.305 96.7952 68.8338 95.5858 67.2806 94.7548C65.5183 93.8119 63.9921 94.2788 63.8863 93.7794C63.8127 93.4321 64.3388 93.0939 65.5758 92.8511C65.5759 92.8511 65.5759 92.8509 65.5758 92.8509C64.6147 92.9273 63.307 92.9742 63.2662 92.443C63.252 91.8271 64.7821 91.5916 65.7147 91.4944C64.5859 91.6121 63.9504 91.3369 64.0015 91.0351C64.082 90.56 64.9361 90.265 66.4339 90.1673L66.434 90.1672C65.3808 89.9457 65.1584 89.735 65.2686 89.4792C65.4698 89.0122 66.7028 88.9552 67.8005 89.0718C69.0363 89.2031 69.9492 89.7336 70.5168 90.0818C70.517 90.0819 70.5172 90.082 70.5173 90.0819C75.7321 88.3407 79.1884 87.2209 83.3714 85.7289C84.2272 85.4236 85.5325 93.6918 85.5322 93.6918Z" fill="white"/>
<path d="M80.0288 77.7489C86.9612 85.8016 89.1091 91.9032 85.9792 93.5501C84.2057 94.4833 78.929 90.7497 73.9404 83.9642C76.1049 81.9868 77.3504 80.0736 80.0288 77.7489Z" fill="white"/>
<path d="M54.3451 78.5984C45.687 80.4397 38.8877 82.3054 39.6302 85.0833C41.202 90.9635 47.7337 87.9412 53.5394 87.8896C53.7579 85.5051 54.1427 81.4893 54.3451 78.5984Z" fill="white"/>
<path d="M47.0425 84.0983C47.0425 84.0983 49.2286 78.218 50.1675 75.0192C51.1536 71.6598 52.1203 66.5563 51.4046 66.4302C50.997 66.3584 50.7213 67.0272 50.1031 68.8637C50.0415 68.7396 49.7946 68.4153 49.4056 68.4107C48.8299 68.4039 48.664 68.8621 48.633 68.8973C48.6155 68.8535 48.4142 68.3871 48.0296 68.3173C47.5964 68.2387 47.2711 68.4388 47.0801 68.7268C47.0334 68.6195 46.8207 68.2413 46.4491 68.1851C46.0669 68.1274 45.6259 68.3445 45.518 68.7332C45.3201 69.4462 44.7726 71.5766 44.3798 72.5809C43.6068 74.5572 39.9198 81.207 39.5576 84.3586C42.2354 83.7514 47.0425 84.0983 47.0425 84.0983Z" fill="white"/>
<path d="M46.3064 69.761C46.3039 69.761 46.3015 69.7609 46.2989 69.7605L45.6799 69.6705C45.6517 69.6665 45.6322 69.6403 45.6363 69.6121C45.6403 69.5839 45.6659 69.5644 45.6947 69.5685L46.3137 69.6585C46.3419 69.6625 46.3615 69.6887 46.3574 69.7169C46.3536 69.7426 46.3317 69.761 46.3064 69.761Z" fill="#363E44"/>
<path d="M47.8794 69.9951C47.8775 69.9951 47.8755 69.995 47.8736 69.9948L47.1708 69.9152C47.1425 69.912 47.1222 69.8865 47.1253 69.8582C47.1286 69.8299 47.1537 69.8095 47.1824 69.8128L47.8851 69.8923C47.9134 69.8955 47.9337 69.9211 47.9306 69.9494C47.9276 69.9757 47.9052 69.9951 47.8794 69.9951Z" fill="#363E44"/>
<path d="M49.406 70.1563C49.4035 70.1563 49.401 70.1561 49.3984 70.1557C49.2834 70.1389 49.1794 70.1245 49.0755 70.11C48.9708 70.0956 48.8661 70.0811 48.7502 70.0641C48.722 70.06 48.7025 70.0338 48.7066 70.0056C48.7107 69.9775 48.737 69.9579 48.7651 69.962C48.8807 69.979 48.9852 69.9935 49.0896 70.0079C49.1938 70.0223 49.298 70.0368 49.4133 70.0536C49.4415 70.0578 49.461 70.084 49.4569 70.1121C49.4532 70.1378 49.4311 70.1563 49.406 70.1563Z" fill="#363E44"/>
<path d="M50.6521 70.4473C50.6484 70.4473 50.6446 70.4469 50.6408 70.446L50.0346 70.3116C50.0068 70.3054 49.9892 70.2779 49.9954 70.2501C50.0015 70.2223 50.0288 70.2047 50.0569 70.2109L50.6632 70.3453C50.691 70.3515 50.7085 70.3791 50.7024 70.4069C50.697 70.4309 50.6757 70.4473 50.6521 70.4473Z" fill="#363E44"/>
<path d="M83.0141 79.5175C82.0821 77.7643 80.5012 76.4408 78.6057 75.8498C76.1917 75.0973 72.5271 74.3688 68.1379 74.8349C59.9529 75.7042 50.6855 78.5983 50.6855 78.5983V90.5695L56.6529 89.3255L57.9579 99.1039L82.3625 94.9482L81.3208 88.0581L85.5321 84.2539L83.0141 79.5175Z" fill="#1A0094"/>
<path d="M38.8177 107.314H19.9272V100.191L38.8177 103.602V107.314Z" fill="#363E44"/>
<path d="M38.745 104.017C39.5066 101.668 34.7388 98.0182 28.0958 95.8637C21.4528 93.7092 15.4502 93.8663 14.6886 96.2146C13.927 98.5629 18.6948 102.213 25.3378 104.368C31.9808 106.522 37.9834 106.365 38.745 104.017Z" fill="#363E44"/>
<path d="M45.0295 90.2539H20.4402C20.4117 90.2539 20.3887 90.2308 20.3887 90.2023C20.3887 90.1739 20.4117 90.1508 20.4402 90.1508H45.0295C45.058 90.1508 45.0811 90.1739 45.0811 90.2023C45.0811 90.2308 45.058 90.2539 45.0295 90.2539Z" fill="#363E44"/>
<path d="M25.0324 66.0893C24.5118 66.0894 23.9334 65.6528 23.6197 64.9699C23.2317 64.125 23.394 63.2181 23.9815 62.9483C24.2693 62.8159 24.6132 62.8539 24.9495 63.0551C25.2796 63.2526 25.5641 63.585 25.7507 63.9911C25.9372 64.3973 26.004 64.8297 25.9388 65.2089C25.8723 65.595 25.6771 65.8806 25.389 66.0128C25.2763 66.0647 25.1559 66.0893 25.0324 66.0893ZM24.3416 62.9741C24.2301 62.9741 24.1233 62.9966 24.0245 63.042C23.4887 63.2881 23.3491 64.1337 23.7135 64.927C24.0778 65.7202 24.8101 66.1653 25.346 65.9193C25.6022 65.8016 25.7766 65.5431 25.8371 65.1915C25.8989 64.8327 25.8349 64.4217 25.6569 64.0344C25.479 63.6469 25.209 63.3307 24.8966 63.1437C24.7085 63.0312 24.5191 62.9741 24.3416 62.9741Z" fill="#363E44"/>
<path d="M24.2245 64.3719C23.1626 62.0544 22.3394 60.7971 20.8793 60.2623C18.917 59.5436 16.9913 60.8029 16.7922 60.9374C16.6652 61.0233 14.7849 62.1353 14.6473 64.3291C14.5115 66.4956 15.5277 68.6583 17.3491 69.8029L17.7664 74.5804C17.9004 76.1142 19.2523 77.2489 20.7861 77.1149L21.1335 77.0846C22.6672 76.9506 23.802 75.5987 23.6681 74.0649L23.3893 70.8735C24.3552 70.7071 25.1003 70.3579 25.3658 69.8382C25.8413 68.9072 25.475 67.1011 24.2245 64.3719Z" fill="white"/>
<path d="M21.2845 65.5483C21.2624 65.5483 21.242 65.5341 21.2352 65.512C21.2268 65.4848 21.2421 65.4559 21.2693 65.4475L25.6822 64.0854C25.7095 64.077 25.7384 64.0922 25.7467 64.1195C25.7551 64.1467 25.7398 64.1756 25.7127 64.1839L21.2997 65.5461C21.2946 65.5476 21.2895 65.5483 21.2845 65.5483Z" fill="#363E44"/>
<path d="M23.4262 70.8453C23.4004 70.8453 23.378 70.8259 23.3751 70.7995L23.242 69.6339C23.2388 69.6056 23.2591 69.5801 23.2874 69.5768C23.3157 69.5735 23.3413 69.5939 23.3445 69.6222L23.4775 70.7878C23.4808 70.8161 23.4605 70.8417 23.4322 70.8449C23.4302 70.8451 23.4282 70.8453 23.4262 70.8453Z" fill="#363E44"/>
<path d="M21.2021 67.3319C21.1897 67.3319 21.1772 67.3274 21.1673 67.3183C20.8783 67.0531 20.6987 66.8809 20.5676 66.7551C20.5036 66.6937 20.4508 66.6431 20.4022 66.5979C20.3813 66.5785 20.3802 66.5458 20.3995 66.525C20.419 66.5041 20.4516 66.503 20.4725 66.5224C20.5214 66.5679 20.5745 66.6188 20.639 66.6807C20.7697 66.8061 20.9489 66.9779 21.237 67.2423C21.258 67.2615 21.2594 67.2942 21.2401 67.3152C21.23 67.3262 21.2161 67.3319 21.2021 67.3319Z" fill="#363E44"/>
<path d="M21.4933 60.0166C19.7351 58.562 15.7043 59.8404 14.2976 62.0828C12.3954 65.1152 13.8381 69.3323 16.4362 70.5849C17.3079 71.0051 18.7445 71.4877 20.1532 70.677C20.9758 70.2037 20.6959 68.9562 20.6227 68.6565C19.8099 68.5805 19.1748 67.9362 19.117 67.1628C19.0587 66.3838 19.6011 65.676 20.2843 65.4981C20.7375 65.38 21.132 65.5264 21.2931 65.5975C22.4461 63.2291 22.7461 61.0531 21.4933 60.0166Z" fill="#363E44"/>
<path d="M5.53857 88.4122C11.8718 91.2957 15.9399 93.2918 17.3362 93.9068C17.4824 93.9712 17.74 94.086 18.1023 94.138C19.4446 94.3307 20.0734 93.3516 21.5763 92.9031C23.2816 92.3942 24.5269 93.0836 24.7092 92.6632C24.836 92.3708 24.4387 91.977 23.4049 91.5375C23.4048 91.5375 23.4049 91.5373 23.405 91.5373C24.2283 91.78 25.3592 92.0597 25.4905 91.5994C25.614 91.0596 24.3236 90.5732 23.5287 90.3175C24.4908 90.627 25.094 90.5006 25.1039 90.2255C25.1196 89.7924 24.4288 89.3768 23.1415 89.0176V89.0175C24.0989 89.0145 24.3307 88.8695 24.2808 88.6242C24.1897 88.1762 23.126 87.901 22.1487 87.8035C21.0485 87.6937 20.1575 87.9945 19.6002 88.1976C19.6 88.1976 19.5999 88.1976 19.5997 88.1975C15.3712 85.7131 12.5624 84.0965 9.18769 82.0197C8.49725 81.5949 5.53837 88.4121 5.53857 88.4122Z" fill="white"/>
<path d="M10.7668 76.571C4.97761 80.2751 2.77584 86.5411 5.38077 88.325C6.85678 89.3358 11.8901 86.5246 16.9696 80.957C15.2508 78.9739 12.9057 78.9157 10.7668 76.571Z" fill="white"/>
<path d="M38.3185 92.1538C31.3808 92.4946 26.8752 92.8414 25.3531 92.8973C25.1937 92.9032 24.9124 92.9148 24.5564 92.8291C23.2374 92.5119 23.0066 91.3681 21.7703 90.3948C20.3674 89.2903 18.959 89.4714 18.9415 89.0127C18.9293 88.6937 19.4416 88.4741 20.5627 88.4475C20.5628 88.4475 20.5628 88.4473 20.5627 88.4473C19.7087 88.3686 18.5549 88.2106 18.5994 87.7336C18.6798 87.1856 20.0568 87.2103 20.8891 87.2663C19.8817 87.1985 19.366 86.8577 19.4564 86.598C19.5986 86.1891 20.3919 86.0578 21.7199 86.1998L21.7199 86.1997C20.83 85.8427 20.6668 85.6221 20.802 85.4122C21.0489 85.0289 22.1386 85.1664 23.0834 85.4371C24.1471 85.7419 24.8673 86.3514 25.3125 86.7466C25.3126 86.7467 25.3127 86.7467 25.3129 86.7467C30.1475 85.9987 33.3467 85.5333 37.2391 84.8488C38.0355 84.7088 38.3187 92.1538 38.3185 92.1538Z" fill="white"/>
<path d="M34.5466 80.4122C39.6135 86.2421 41.7932 90.3701 39.2028 91.9067C37.5348 92.8961 33.6905 90.9333 29.4453 86.5554C31.047 84.6136 32.5585 82.7197 34.5466 80.4122Z" fill="white"/>
<path d="M35.0051 91.1377C34.9964 91.1377 34.9876 91.1356 34.9796 91.131C33.2704 90.1574 31.3437 88.5877 29.4081 86.5916C29.3883 86.5712 29.3888 86.5385 29.4092 86.5187C29.4297 86.4989 29.4623 86.4994 29.4822 86.5198C31.4111 88.509 33.3297 90.0726 35.0307 91.0414C35.0554 91.0554 35.0641 91.0869 35.05 91.1117C35.0404 91.1283 35.023 91.1377 35.0051 91.1377Z" fill="#363E44"/>
<path d="M4.97754 81.4602C4.97754 81.4602 9.67295 72.7679 20.609 73.4296C29.6732 73.978 38.247 82.7196 38.247 82.7196L32.6044 89.9795L30.6258 88.7942L29.6731 96.2764L6.51641 95.6837L8.88134 85.3214L4.97754 81.4602Z" fill="#453D6E"/>
<path d="M22.785 107.314H3.58537L0.211426 84.1271H19.411L22.785 107.314Z" fill="#B5346D"/>
<path d="M84.8052 50.0201C81.9161 51.0709 78.7907 50.9338 76.0047 49.6339C73.2187 48.3341 71.1057 46.0271 70.0548 43.1379C69.004 40.2488 69.1411 37.1234 70.441 34.3374C71.7409 31.5514 74.0478 29.4384 76.937 28.3876C79.8261 27.3367 82.9515 27.4738 85.7376 28.7737C88.5236 30.0736 90.6366 32.3806 91.6874 35.2697C92.7382 38.1588 92.6011 41.2842 91.3013 44.0702C90.0014 46.8562 87.6943 48.9692 84.8052 50.0201ZM78.1793 31.803C74.0985 33.2872 71.986 37.8148 73.4703 41.8956C74.9546 45.9765 79.4821 48.0889 83.5629 46.6046C87.6438 45.1203 89.7562 40.5928 88.2719 36.5119C86.7876 32.4311 82.2601 30.3187 78.1793 31.803Z" fill="#F2E6DC"/>
<path d="M84.65 49.5931C81.8749 50.6025 78.8728 50.4708 76.1969 49.2222C73.5208 47.9737 71.4912 45.7577 70.4818 42.9826C69.4724 40.2075 69.6042 37.2055 70.8528 34.5294C72.1013 31.8534 74.3173 29.8238 77.0923 28.8144C79.8674 27.8051 82.8695 27.9368 85.5455 29.1854C88.2215 30.4339 90.2511 32.6499 91.2605 35.425C92.2699 38.2001 92.1382 41.2022 90.8896 43.8781C89.641 46.5542 87.4251 48.5838 84.65 49.5931ZM78.024 31.3761C73.7078 32.946 71.4735 37.7347 73.0434 42.0509C74.6133 46.3671 79.402 48.6014 83.7183 47.0315C88.0345 45.4616 90.2688 40.6729 88.6988 36.3566C87.129 32.0404 82.3403 29.8061 78.024 31.3761Z" fill="white"/>
<path d="M73.0437 42.0524C72.7873 41.3475 72.6331 40.6301 72.5721 39.9161L69.8359 39.9332C69.9053 40.9624 70.1198 41.9879 70.4821 42.9841C71.3156 45.2757 72.8454 47.1854 74.8598 48.4845L76.2085 46.1029C74.7999 45.1533 73.6675 43.7674 73.0437 42.0524Z" fill="white"/>
<path d="M81.6021 30.9084C84.7227 31.188 87.5594 33.2237 88.6992 36.3575C89.5702 38.7522 89.2697 41.2919 88.093 43.347L90.3522 44.8926C90.5472 44.5662 90.727 44.2282 90.8899 43.879C92.1385 41.203 92.2702 38.201 91.2608 35.4259C90.2514 32.6508 88.2219 30.4349 85.5458 29.1863C84.2918 28.6011 82.9661 28.2613 81.6257 28.1693L81.6021 30.9084Z" fill="#4424DD"/>
<path d="M72.5645 38.5983C72.8006 35.429 74.849 32.5321 78.0243 31.3772C78.7699 31.1059 79.5297 30.9484 80.2846 30.8954L80.3082 28.159C79.2238 28.2156 78.142 28.4339 77.0925 28.8155C74.3175 29.8248 72.1015 31.8545 70.853 34.5305C70.2439 35.8359 69.9014 37.219 69.8267 38.6154L72.5645 38.5983Z" fill="white"/>
<path d="M87.3506 44.4358C86.43 45.58 85.1963 46.495 83.7184 47.0326C81.5617 47.8171 79.287 47.6517 77.3549 46.7513L76.0068 49.1318C76.07 49.1626 76.1331 49.1935 76.1969 49.2232C78.8729 50.4718 81.875 50.6036 84.65 49.5942C86.642 48.8697 88.3457 47.6194 89.6105 45.9818L87.3506 44.4358Z" fill="#917AFF"/>
<path d="M7.938 27.7544H4.0293L5.98365 18.9059L7.938 27.7544Z" fill="#917AFF"/>
<path d="M11.8467 27.7542H7.93799L9.89234 21.4717L11.8467 27.7542Z" fill="#B5346D"/>
<path d="M15.7553 27.7544H11.8467L13.801 16.2669L15.7553 27.7544Z" fill="#4424DD"/>
<path d="M19.6641 27.7544H15.7554L17.7097 22.0107L19.6641 27.7544Z" fill="#FFFBF8"/>
<path d="M20.3968 28.8245H2.95C2.92149 28.8245 2.89844 28.8014 2.89844 28.7729V21.4714C2.89844 21.4429 2.92149 21.4198 2.95 21.4198C2.97852 21.4198 3.00157 21.4429 3.00157 21.4714V28.7214H20.3968C20.4253 28.7214 20.4483 28.7445 20.4483 28.7729C20.4483 28.8014 20.4253 28.8245 20.3968 28.8245Z" fill="#E6D0BE"/>
<path d="M6.33057 61.9722C10.7046 61.9039 14.2299 58.339 14.2299 53.9487C14.2299 53.8205 14.2262 53.6932 14.2202 53.5665H6.33057V61.9722Z" fill="white"/>
<path d="M5.53853 52.775H10.442C10.3179 50.1302 8.13484 48.0239 5.45938 48.0239C2.70424 48.0239 0.470703 50.2573 0.470703 53.0125C0.470703 55.7677 2.70419 58.0012 5.45938 58.0012C5.48593 58.0012 5.51208 57.9996 5.53858 57.9992V52.775H5.53853Z" fill="#4424DD"/>
</g>
</g>
</g>
<defs>
<clipPath id="clip0_177_9399">
<rect width="94" height="120" fill="white"/>
</clipPath>
<clipPath id="clip1_177_9399">
<rect x="-0.37207" y="12.5" width="94.7442" height="97" rx="7.51938" fill="white"/>
</clipPath>
<clipPath id="clip2_177_9399">
<rect x="-0.37207" y="12.5" width="94.7442" height="97" rx="7.51938" fill="white"/>
</clipPath>
</defs>
</svg>
