<svg width="292" height="408" viewBox="0 0 292 408" fill="none" xmlns="http://www.w3.org/2000/svg">
<rect width="292" height="408" rx="24" fill="#E1FCEA"/>
<path d="M74.0035 78V77.872C74.3875 77.872 77.9715 77.296 77.9715 70.832V35.248C77.9715 28.784 74.3875 28.208 74.0035 28.208V28.08H92.3075V28.208C91.9235 28.208 88.3395 28.784 88.3395 35.248V70.832C88.3395 77.296 91.9235 77.872 92.3075 77.872V78H74.0035ZM98.917 40.688C98.917 31.92 106.469 27.184 116.197 27.184C122.021 27.184 125.541 28.08 130.085 28.08V38.576H129.957C129.573 36.528 128.869 33.904 126.629 31.856C124.645 30.128 121.509 28.848 116.325 28.848C111.077 28.848 106.213 30.96 106.213 35.888C106.213 40.304 110.309 42.672 113.893 44.72L122.917 49.84C130.149 53.936 133.093 58.736 133.093 64.24C133.093 72.816 125.989 78.384 114.213 78.384C110.117 78.384 104.165 78 100.069 78V64.688H100.197C100.517 67.504 101.157 70.576 103.397 73.008C105.381 75.184 108.709 76.72 113.637 76.72C122.085 76.72 124.773 72.752 124.773 68.656C124.773 65.328 123.109 62.448 116.901 58.928L107.429 53.552C101.989 50.48 98.917 46.64 98.917 40.688ZM174.629 28.08V38.192H174.501C174.501 37.424 173.797 29.744 166.565 29.744H154.277V53.488H165.925C171.557 53.488 172.133 47.856 172.133 47.28H172.197V61.36H172.133C172.133 60.784 171.557 55.152 165.925 55.152H154.277V70.832C154.277 77.296 157.861 77.872 158.245 77.872V78H139.941V77.872C140.325 77.872 143.909 77.296 143.909 70.832V35.248C143.909 28.784 140.325 28.208 139.941 28.208V28.08H174.629ZM182.004 78V77.872C182.388 77.872 185.972 77.296 185.972 70.832V35.248C185.972 28.784 182.388 28.208 182.004 28.208V28.08H200.372C207.412 28.08 212.532 29.36 215.732 32.24C218.228 34.48 219.508 37.872 219.508 42.416C219.508 48.368 216.884 52.72 212.66 55.536C208.948 58.032 203.956 59.248 198.452 59.248H196.34V70.832C196.34 77.296 199.924 77.872 200.308 77.872V78H182.004ZM196.34 57.584H197.812C200.82 57.584 203.316 56.624 205.108 54.832C207.668 52.336 209.012 48.176 209.012 42.736C209.012 37.872 208.052 34.544 206.196 32.432C204.532 30.576 202.1 29.744 199.092 29.744H196.34V57.584Z" fill="#1BA972"/>
<path d="M74.56 116V115.96C74.68 115.96 75.8 115.78 75.8 113.76V102.64C75.8 100.62 74.68 100.44 74.56 100.44V100.4H78.28L86.92 110.9V102.64C86.92 100.62 85.8 100.44 85.68 100.44V100.4H88.72V100.44C88.6 100.44 87.48 100.62 87.48 102.64V116.12L76.36 102.64V113.76C76.36 115.78 77.48 115.96 77.6 115.96V116H74.56ZM94.6228 119.86C95.6828 119.86 96.3628 119.44 96.8028 118.84C97.4828 117.9 97.6028 116.52 97.6028 115.52V114.4C96.9828 115.54 95.7228 116.24 94.3628 116.24C91.2828 116.24 89.3628 113.88 89.3628 110.56C89.3628 106.84 91.2828 104.08 94.6828 104.08C96.2828 104.08 97.0828 104.74 97.6028 105.46V104.28H102.043V104.32C101.923 104.32 100.803 104.5 100.803 106.52V115.2C100.803 116.9 100.163 118.08 99.2628 118.88C98.0428 119.98 96.3228 120.34 95.1028 120.34C93.1028 120.34 91.8028 119.64 91.0628 119.64V116.56H91.1228C91.3028 117.6 91.7828 118.34 92.3428 118.86C93.1428 119.6 94.1028 119.86 94.6228 119.86ZM92.5428 110.36C92.5428 113.12 93.5228 115.36 95.2628 115.36C96.2828 115.36 97.0228 114.76 97.6028 113.38V106.52C97.0828 105.42 96.3428 105.16 95.7628 105.16C93.9228 105.16 92.5428 107.2 92.5428 110.36ZM107.691 116.2C106.691 116.2 105.791 115.9 105.131 115.32C104.491 114.74 104.091 113.88 104.091 112.74V106.52C104.091 104.5 102.971 104.32 102.851 104.32V104.28H107.291V112.48C107.291 112.98 107.331 113.64 107.591 114.18C107.851 114.7 108.311 115.08 109.011 115.08C110.431 115.08 111.451 113.66 111.451 111.7V106.52C111.451 104.5 110.331 104.32 110.211 104.32V104.28H114.651V105.08C114.971 104.82 115.071 104.54 115.091 104.28C115.091 104.06 115.011 103.54 114.211 103.34V103.32L115.871 102.16C116.111 102.34 116.451 102.96 116.411 103.5C116.351 104.46 115.331 105.1 114.651 105.4V113.76C114.651 115.78 115.771 115.96 115.891 115.96V116H111.451V113.92C110.971 115.04 109.891 116.2 107.691 116.2ZM123.327 116.24C119.447 116.24 117.527 113.48 117.527 110.16C117.527 106.84 119.447 104.08 123.327 104.08C124.807 104.08 126.007 104.48 126.927 105.16C127.067 104.96 127.107 104.74 127.087 104.56C127.067 104.34 126.947 103.84 126.127 103.7V103.68L127.687 102.38C127.947 102.54 128.327 103.14 128.347 103.68C128.367 104.42 127.787 105.02 127.227 105.42C128.487 106.54 129.127 108.26 129.127 110.16C129.127 113.48 127.207 116.24 123.327 116.24ZM120.807 110.16C120.807 113.12 121.487 115.76 123.327 115.76C125.167 115.76 125.867 113.12 125.867 110.16C125.867 107.2 125.167 104.56 123.327 104.56C121.487 104.56 120.807 107.2 120.807 110.16ZM121.207 101.8V101.74L122.267 100.26H122.327C123.147 101.4 124.607 102.96 125.567 103.34L125.507 103.4C124.327 103.24 122.227 102.58 121.207 101.8ZM131.564 106.52C131.564 104.5 130.444 104.32 130.324 104.32V104.28H134.764V113.76C134.764 115.78 135.884 115.96 136.004 115.96V116H130.324V115.96C130.444 115.96 131.564 115.78 131.564 113.76V106.52ZM131.364 101.44C131.364 100.5 132.144 99.72 133.084 99.72C134.024 99.72 134.804 100.5 134.804 101.44C134.804 102.38 134.024 103.16 133.084 103.16C132.144 103.16 131.364 102.38 131.364 101.44ZM143.321 106.52C143.321 104.5 142.201 104.32 142.081 104.32V104.28H146.521V106.36C147.001 105.24 148.081 104.08 150.281 104.08C151.281 104.08 152.181 104.38 152.841 104.96C153.481 105.54 153.881 106.4 153.881 107.54V113.76C153.881 115.78 155.001 115.96 155.121 115.96V116H149.441V115.96C149.561 115.96 150.681 115.78 150.681 113.76V107.8C150.681 107.3 150.641 106.64 150.381 106.1C150.121 105.58 149.661 105.2 148.961 105.2C147.541 105.2 146.521 106.62 146.521 108.58V113.76C146.521 115.78 147.641 115.96 147.761 115.96V116H142.081V115.96C142.201 115.96 143.321 115.78 143.321 113.76V106.52ZM161.342 119.86C162.402 119.86 163.082 119.44 163.522 118.84C164.202 117.9 164.322 116.52 164.322 115.52V114.4C163.702 115.54 162.442 116.24 161.082 116.24C158.002 116.24 156.082 113.88 156.082 110.56C156.082 106.84 158.002 104.08 161.402 104.08C163.002 104.08 163.802 104.74 164.322 105.46V104.28H168.762V104.32C168.642 104.32 167.522 104.5 167.522 106.52V115.2C167.522 116.9 166.882 118.08 165.982 118.88C164.762 119.98 163.042 120.34 161.822 120.34C159.822 120.34 158.522 119.64 157.782 119.64V116.56H157.842C158.022 117.6 158.502 118.34 159.062 118.86C159.862 119.6 160.822 119.86 161.342 119.86ZM159.262 110.36C159.262 113.12 160.242 115.36 161.982 115.36C163.002 115.36 163.742 114.76 164.322 113.38V106.52C163.802 105.42 163.062 105.16 162.482 105.16C160.642 105.16 159.262 107.2 159.262 110.36ZM171.05 102.24C171.05 100.22 169.93 100.04 169.81 100.04V100H174.25V106.36C174.73 105.24 175.81 104.08 178.01 104.08C179.01 104.08 179.91 104.38 180.57 104.96C181.21 105.54 181.61 106.4 181.61 107.54V113.76C181.61 115.78 182.73 115.96 182.85 115.96V116H177.17V115.96C177.29 115.96 178.41 115.78 178.41 113.76V107.8C178.41 107.3 178.37 106.64 178.11 106.1C177.85 105.58 177.39 105.2 176.69 105.2C175.27 105.2 174.25 106.62 174.25 108.58V113.76C174.25 115.78 175.37 115.96 175.49 115.96V116H169.81V115.96C169.93 115.96 171.05 115.78 171.05 113.76V102.24ZM189.696 116.24C185.816 116.24 183.816 113.68 183.816 110.36C183.816 106.84 186.216 104.08 190.036 104.08C193.176 104.08 194.416 105.72 194.416 107.52C194.416 110.26 190.836 111.08 187.116 111.1C187.296 113.5 188.316 115.36 190.836 115.36C192.456 115.36 193.396 114.42 193.956 113.6L194.016 113.64C193.896 114.02 193.016 116.24 189.696 116.24ZM186.656 103.46L186.696 103.48C187.856 103.46 189.296 102.82 189.996 102.36H190.036C190.736 102.82 192.176 103.46 193.336 103.48L193.376 103.46C192.316 102.98 190.596 101.48 190.036 100.56H189.996C189.436 101.48 187.716 102.98 186.656 103.46ZM187.096 110.62C190.636 110.6 192.016 109.06 192.016 107C192.016 105.74 191.336 104.56 190.096 104.56C188.056 104.56 187.116 107.2 187.096 110.62ZM188.296 118.4C188.296 117.72 188.816 117.2 189.496 117.2C190.176 117.2 190.696 117.72 190.696 118.4C190.696 119.08 190.176 119.6 189.496 119.6C188.816 119.6 188.296 119.08 188.296 118.4ZM205.141 116.2C203.281 116.2 202.481 116 200.941 116V112.24H201.021C201.161 112.98 201.341 113.76 201.781 114.38C202.321 115.16 203.281 115.72 205.041 115.72C206.721 115.72 207.461 114.9 207.461 114.08C207.461 113.14 206.941 112.6 205.261 111.78L202.841 110.6C201.361 109.88 200.781 108.86 200.781 107.64C200.781 105.98 202.221 104.12 205.561 104.12C207.501 104.12 208.781 104.52 209.301 104.52V107.72H209.261C209.061 106.88 208.741 106.24 208.321 105.74C207.641 104.96 206.701 104.6 205.561 104.6C203.961 104.6 202.981 105.18 202.981 106.16C202.981 106.76 203.541 107.42 204.581 107.92L207.561 109.38C209.401 110.28 209.981 111.44 209.981 112.62C209.981 115.1 207.861 116.2 205.141 116.2ZM212.814 106.52C212.814 104.5 211.694 104.32 211.574 104.32V104.28H216.014V113.76C216.014 115.78 217.134 115.96 217.254 115.96V116H211.574V115.96C211.694 115.96 212.814 115.78 212.814 113.76V106.52ZM211.534 102.32C212.034 100.66 212.674 99.84 213.334 99.84C214.094 99.84 215.474 100.96 216.154 100.96C216.534 100.96 216.814 100.86 217.134 99.9H217.214C216.834 101.62 216.274 102.3 215.614 102.3C214.654 102.3 213.574 101.24 212.734 101.24C212.354 101.24 211.974 101.54 211.594 102.32H211.534Z" fill="#1BA972"/>
<g clip-path="url(#clip0_1_1091)">
<path d="M146 384C212.826 384 267 329.826 267 263C267 196.174 212.826 142 146 142C79.1735 142 25 196.174 25 263C25 329.826 79.1735 384 146 384Z" fill="#2CA677"/>
<path d="M75.6982 251.088L93.4304 251.055L72.6728 244.254C60.9786 216.077 59.9456 190.639 71.0138 185.253C83.2303 179.308 105.563 200.044 120.895 231.566C136.227 263.089 138.752 293.462 126.536 299.407C114.319 305.351 91.9869 284.616 76.6549 253.093C76.3295 252.424 76.0121 251.756 75.6982 251.088Z" fill="#81D8B6"/>
<path d="M108.534 214.531C107.787 199.21 108.867 184.977 111.303 173.37L124.768 190.917L113.837 163.707C117.69 151.812 123.3 144.38 129.857 144.096C143.503 143.506 156.079 174.085 157.948 212.396C159.817 250.706 150.271 282.241 136.626 282.83C122.98 283.42 110.403 252.841 108.534 214.531Z" fill="#1BA972"/>
<path d="M154.948 365.32C154.821 365.32 154.704 365.236 154.668 365.108C136.453 300.757 130.913 247.94 129.473 214.964C127.912 179.225 130.697 158.431 130.726 158.225C130.748 158.066 130.892 157.953 131.054 157.976C131.214 157.998 131.325 158.145 131.303 158.304C131.275 158.51 128.496 179.266 130.056 214.958C131.496 247.9 137.032 300.662 155.229 364.949C155.273 365.104 155.183 365.265 155.028 365.309C155.001 365.317 154.975 365.32 154.948 365.32Z" fill="#F7F1EB"/>
<path d="M152.588 366.465C152.465 366.465 152.35 366.386 152.31 366.263C136.776 318.2 119.253 277.824 107.288 252.416C94.3232 224.885 84.9113 208.511 84.8179 208.349C84.7374 208.209 84.7852 208.031 84.9247 207.95C85.0637 207.87 85.2423 207.918 85.3229 208.057C85.4165 208.219 94.8378 224.61 107.812 252.16C119.785 277.585 137.321 317.988 152.865 366.083C152.915 366.236 152.831 366.401 152.677 366.45C152.648 366.46 152.617 366.465 152.588 366.465Z" fill="#E6D0BE"/>
<path d="M179.677 247.355L167.011 251.424L180.273 242.028C182.173 220.245 177.091 202.777 167.957 201.683C157.877 200.475 146.679 219.672 142.947 244.56C139.215 269.449 144.362 290.604 154.442 291.812C164.523 293.02 175.721 273.822 179.453 248.934C179.532 248.406 179.605 247.88 179.677 247.355Z" fill="#E6D0BE"/>
<path d="M157.81 368.493C157.673 368.493 157.551 368.396 157.524 368.257C149.436 326.793 151.285 288.408 154.26 263.509C157.505 236.349 162.811 218.313 163.505 217.625C163.62 217.511 163.805 217.512 163.918 217.626C164.027 217.737 164.03 217.912 163.928 218.026C163.374 218.85 158.029 236.588 154.786 264.021C151.859 288.777 150.058 326.937 158.096 368.145C158.127 368.303 158.024 368.456 157.866 368.487C157.847 368.491 157.828 368.493 157.81 368.493Z" fill="#F7F1EB"/>
<path d="M222.173 304.894H127.511C127.35 304.894 127.219 304.764 127.219 304.603V301.5C127.219 301.433 127.243 301.368 127.285 301.316L231.224 173.954C231.275 173.892 231.348 173.854 231.427 173.848C231.508 173.841 231.584 173.868 231.644 173.92L234.778 176.707C234.847 176.769 234.883 176.86 234.874 176.953L222.463 304.631C222.448 304.781 222.323 304.894 222.173 304.894ZM127.803 304.311H221.908L234.279 177.044L231.484 174.558L127.803 301.604L127.803 304.311Z" fill="#D3BBA3"/>
<path d="M128.105 301.5H219.664L232.075 173.822H140.517L128.105 301.5Z" fill="#F7F1EB"/>
<path d="M253.919 354.833H248.461C248.32 354.833 248.199 354.733 248.174 354.594L228.041 244.023C228.037 243.998 228.036 243.973 228.038 243.947L229.814 222.984C229.826 222.839 229.944 222.724 230.09 222.717C230.226 222.71 230.365 222.813 230.391 222.957L254.206 354.49C254.222 354.575 254.198 354.662 254.143 354.729C254.088 354.795 254.006 354.833 253.919 354.833ZM248.704 354.25H253.57L230.209 225.224L228.622 243.957L248.704 354.25Z" fill="#D3BBA3"/>
<path d="M214.906 381.845H209.447C209.308 381.845 209.189 381.747 209.161 381.611L193.647 304.66C193.63 304.574 193.652 304.486 193.707 304.418C193.762 304.35 193.845 304.311 193.933 304.311H199.391C199.53 304.311 199.65 304.409 199.677 304.545L215.192 381.496C215.209 381.581 215.187 381.67 215.131 381.738C215.076 381.805 214.993 381.845 214.906 381.845ZM209.685 381.262H214.55L199.153 304.894H194.289L209.685 381.262Z" fill="#D3BBA3"/>
<path d="M147.264 381.845H141.805C141.718 381.845 141.635 381.805 141.579 381.738C141.524 381.67 141.502 381.581 141.519 381.496L157.033 304.545C157.061 304.409 157.18 304.311 157.319 304.311H162.778C162.865 304.311 162.948 304.35 163.003 304.418C163.059 304.486 163.081 304.574 163.064 304.66L147.55 381.611C147.522 381.747 147.402 381.845 147.264 381.845ZM142.161 381.262H147.025L162.422 304.894H157.558L142.161 381.262Z" fill="#D3BBA3"/>
<path d="M132.15 254.291L223.184 254.762L219.07 301.487H127.634L132.15 254.291Z" fill="#D3BBA3"/>
<path d="M219.567 294.102H128.228L128.774 289.153H220.114L219.567 294.102Z" fill="#B77250"/>
<path d="M212.54 173.203L214.966 254L192.5 286.877C191.278 288.666 190.726 290.828 190.942 292.983L191.796 301.528H178.726L176.944 289.349L202.787 172.906L212.54 173.203Z" fill="#E6D0BE"/>
<path d="M165.062 173.797L155.361 255.481L139.565 285.957C137.822 289.32 137.498 292.988 137.436 296.775L138.624 301.528H178.825L179.101 292.934C179.145 291.595 179.402 290.272 179.863 289.015L181.024 285.854L208.331 258.555L206.054 173.203L165.062 173.797Z" fill="#003A6B"/>
<path d="M153.625 286.304L165.945 260.68C168.11 256.265 169.439 251.487 169.864 246.588L176.053 175.282L172.191 253.703L158.49 286.638L157.212 289.758C156.919 290.472 156.823 291.252 156.934 292.016L158.304 301.453L150.024 301.528L150.675 293.827C150.853 291.711 151.532 289.668 152.654 287.865L153.625 286.304Z" fill="#EFBC73"/>
<path d="M186.449 190.135L177.538 255.485L164.619 284.773L162.268 290.103C162.22 290.21 162.184 290.322 162.16 290.437L159.814 301.478L170.879 301.552L170.538 290.383L171.955 285.314L180.211 255.782L186.449 190.135Z" fill="#EFBC73"/>
<path d="M205.519 259.262H187.058V217.737C187.058 215.407 188.25 213.239 190.216 211.99L192.877 210.3L192.855 197.541H199.303L199.322 210.3L202.198 212.015C204.258 213.243 205.52 215.464 205.52 217.862L205.519 259.262Z" fill="#FC8F47"/>
<path d="M202.16 225.952H186.977V238.795H202.16V225.952Z" fill="#E0AA63"/>
<path d="M197.136 201.3H192.855C192.694 201.3 192.563 201.17 192.563 201.009C192.563 200.847 192.694 200.717 192.855 200.717H197.136C197.297 200.717 197.428 200.847 197.428 201.009C197.428 201.17 197.297 201.3 197.136 201.3Z" fill="white"/>
<path d="M197.136 202.737H192.855C192.694 202.737 192.563 202.607 192.563 202.445C192.563 202.284 192.694 202.154 192.855 202.154H197.136C197.297 202.154 197.428 202.284 197.428 202.445C197.428 202.607 197.297 202.737 197.136 202.737Z" fill="white"/>
<path d="M170.936 225.893C170.275 227.802 169.901 229.929 169.897 232.176C169.885 240.411 174.818 247.101 180.917 247.118C187.016 247.135 191.971 240.474 191.983 232.239C191.987 229.992 191.62 227.863 190.964 225.95L170.936 225.893Z" fill="#E6D0BE"/>
<path d="M172.967 238.483C174.371 242.514 177.402 245.308 180.92 245.318C184.452 245.328 187.5 242.53 188.911 238.483H172.967Z" fill="#EB4130"/>
<path d="M180.941 247.41C180.933 247.41 180.925 247.41 180.916 247.41C174.667 247.392 169.593 240.558 169.606 232.175C169.609 229.953 169.964 227.807 170.661 225.798L170.729 225.601L191.173 225.659L191.24 225.856C191.93 227.869 192.279 230.016 192.275 232.239C192.267 237.091 190.597 241.532 187.693 244.423C185.73 246.377 183.396 247.41 180.941 247.41ZM171.145 226.185C170.513 228.077 170.192 230.091 170.189 232.176C170.176 240.237 174.99 246.81 180.918 246.827C180.926 246.827 180.934 246.827 180.941 246.827C183.238 246.827 185.43 245.853 187.281 244.01C190.036 241.268 191.684 236.867 191.692 232.238C191.695 230.152 191.38 228.136 190.754 226.241L171.145 226.185Z" fill="white"/>
<path d="M172.574 233.74C172.574 233.74 172.573 233.74 172.572 233.74C172.411 233.738 172.282 233.607 172.283 233.446C172.298 231.745 172.58 230.108 173.124 228.578L173.194 228.381L178.625 228.464C178.786 228.466 178.914 228.599 178.912 228.76C178.909 228.92 178.779 229.047 178.62 229.047C178.618 229.047 178.617 229.047 178.615 229.047L173.605 228.97C173.128 230.382 172.88 231.888 172.866 233.451C172.865 233.611 172.734 233.74 172.574 233.74Z" fill="white"/>
<path d="M181.134 263.511C180.973 263.511 180.843 263.381 180.843 263.22V247.166C180.843 247.005 180.973 246.875 181.134 246.875C181.296 246.875 181.426 247.005 181.426 247.166V263.22C181.426 263.381 181.296 263.511 181.134 263.511Z" fill="white"/>
<path d="M187.746 263.573H174.522C174.361 263.573 174.231 263.443 174.231 263.282C174.231 263.12 174.361 262.99 174.522 262.99H187.746C187.908 262.99 188.038 263.12 188.038 263.282C188.038 263.443 187.908 263.573 187.746 263.573Z" fill="white"/>
<path d="M166.876 248.594C163.979 244.736 159.489 243.202 156.749 245.176C154.014 247.144 154.038 251.872 156.76 255.838C156.053 258.547 156.514 261.539 158.277 263.989C161.418 268.352 167.501 269.342 171.864 266.201C176.227 263.06 177.217 256.977 174.076 252.615C172.323 250.179 169.652 248.795 166.876 248.594Z" fill="#EFBC73"/>
<path d="M167.399 268.323C164.281 268.323 161.206 266.877 159.25 264.159C157.525 261.763 156.946 258.758 157.654 255.894C154.891 251.781 154.941 246.988 157.788 244.939C160.643 242.883 165.214 244.366 168.238 248.313C171.16 248.564 173.808 250.064 175.522 252.444C178.752 256.93 177.73 263.208 173.243 266.438C171.475 267.711 169.428 268.323 167.399 268.323ZM160.745 244.618C159.777 244.618 158.877 244.873 158.128 245.412C155.559 247.261 155.596 251.865 158.209 255.673C158.257 255.743 158.272 255.83 158.251 255.912C157.537 258.646 158.074 261.527 159.723 263.818C162.765 268.043 168.678 269.006 172.903 265.964C177.128 262.922 178.091 257.01 175.049 252.784C173.411 250.509 170.865 249.088 168.064 248.884C167.98 248.878 167.903 248.836 167.852 248.769C165.877 246.14 163.108 244.618 160.745 244.618Z" fill="#FFD092"/>
<path d="M157.696 247.188C157.575 247.188 157.463 247.112 157.421 246.992C157.213 246.396 156.692 245.266 155.529 244.398C154.615 243.715 153.673 243.463 153.044 243.371C152.884 243.348 152.774 243.2 152.797 243.041C152.82 242.881 152.967 242.768 153.127 242.794C153.824 242.895 154.866 243.175 155.879 243.931C157.165 244.892 157.742 246.141 157.972 246.8C158.025 246.952 157.944 247.119 157.792 247.172C157.76 247.183 157.728 247.188 157.696 247.188Z" fill="#363E44"/>
<path d="M170.775 263.684C172.22 263.684 173.392 261.331 173.392 258.427C173.392 255.524 172.22 253.17 170.775 253.17C169.329 253.17 168.157 255.524 168.157 258.427C168.157 261.331 169.329 263.684 170.775 263.684Z" fill="#FFD092"/>
<path d="M203.14 267.096C203.13 267.096 203.121 267.096 203.112 267.095C202.952 267.08 202.834 266.938 202.849 266.777C203.118 263.894 203.252 260.966 203.246 258.076C203.238 254.542 203.023 250.964 202.606 247.444C202.587 247.284 202.701 247.139 202.861 247.12C203.022 247.099 203.166 247.216 203.185 247.375C203.605 250.918 203.821 254.518 203.829 258.075C203.835 260.984 203.7 263.93 203.429 266.832C203.415 266.983 203.288 267.096 203.14 267.096Z" fill="#363E44"/>
<path d="M208.007 248.669C206.003 248.472 204.37 249.24 203.216 250.677C202.063 249.24 200.43 248.472 198.425 248.669C194.141 249.091 192.51 253.947 193.538 258.488C194.671 263.493 197.046 267.479 200.248 267.163C201.462 267.043 202.452 266.391 203.216 265.33C203.98 266.391 204.97 267.043 206.184 267.163C209.387 267.479 211.762 263.493 212.895 258.488C213.923 253.947 212.291 249.091 208.007 248.669Z" fill="#E03300"/>
<path d="M207.361 250.597C207.149 250.872 208.894 252.166 209.48 254.86C210.148 257.931 209.832 260.486 210.138 260.651C210.5 260.845 211.612 256.762 210.913 253.643C210.273 250.785 207.621 250.259 207.361 250.597Z" fill="#F7F1EB"/>
<path d="M190.928 266.288C192.413 266.288 193.616 265.298 193.616 264.078C193.616 262.858 192.413 261.868 190.928 261.868C189.444 261.868 188.241 262.858 188.241 264.078C188.241 265.298 189.444 266.288 190.928 266.288Z" fill="#7664E3"/>
<path d="M199.418 271.014C200.685 271.014 201.712 270.17 201.712 269.129C201.712 268.087 200.685 267.243 199.418 267.243C198.152 267.243 197.125 268.087 197.125 269.129C197.125 270.17 198.152 271.014 199.418 271.014Z" fill="#7664E3"/>
<path d="M191.88 270.572C193.26 270.572 194.379 269.652 194.379 268.517C194.379 267.382 193.26 266.462 191.88 266.462C190.499 266.462 189.38 267.382 189.38 268.517C189.38 269.652 190.499 270.572 191.88 270.572Z" fill="#7664E3"/>
<path opacity="0.7" d="M191.397 268.433C192.245 268.433 192.933 268.11 192.933 267.712C192.933 267.314 192.245 266.992 191.397 266.992C190.548 266.992 189.861 267.314 189.861 267.712C189.861 268.11 190.548 268.433 191.397 268.433Z" fill="white"/>
<path d="M177.664 279.801C178.767 279.801 179.661 278.935 179.661 277.866C179.661 276.798 178.767 275.931 177.664 275.931C176.561 275.931 175.667 276.798 175.667 277.866C175.667 278.935 176.561 279.801 177.664 279.801Z" fill="#7664E3"/>
<path d="M174.355 282.042C175.458 282.042 176.352 281.176 176.352 280.107C176.352 279.039 175.458 278.172 174.355 278.172C173.252 278.172 172.358 279.039 172.358 280.107C172.358 281.176 173.252 282.042 174.355 282.042Z" fill="#7664E3"/>
<path d="M180.546 276.615C181.708 276.615 182.649 275.841 182.649 274.885C182.649 273.93 181.708 273.156 180.546 273.156C179.384 273.156 178.442 273.93 178.442 274.885C178.442 275.841 179.384 276.615 180.546 276.615Z" fill="#7664E3"/>
<path d="M188.476 280.463C189.638 280.463 190.579 279.688 190.579 278.733C190.579 277.778 189.638 277.004 188.476 277.004C187.314 277.004 186.372 277.778 186.372 278.733C186.372 279.688 187.314 280.463 188.476 280.463Z" fill="#7664E3"/>
<path d="M193.355 280.137C194.517 280.137 195.458 279.363 195.458 278.408C195.458 277.453 194.517 276.678 193.355 276.678C192.193 276.678 191.251 277.453 191.251 278.408C191.251 279.363 192.193 280.137 193.355 280.137Z" fill="#7664E3"/>
<path d="M196.419 277.25C197.58 277.25 198.522 276.476 198.522 275.521C198.522 274.566 197.58 273.791 196.419 273.791C195.257 273.791 194.315 274.566 194.315 275.521C194.315 276.476 195.257 277.25 196.419 277.25Z" fill="#7664E3"/>
<path d="M200.079 274.801C201.241 274.801 202.183 274.026 202.183 273.071C202.183 272.116 201.241 271.341 200.079 271.341C198.917 271.341 197.976 272.116 197.976 273.071C197.976 274.026 198.917 274.801 200.079 274.801Z" fill="#7664E3"/>
<path d="M183.428 280.565C184.59 280.565 185.532 279.79 185.532 278.835C185.532 277.88 184.59 277.105 183.428 277.105C182.266 277.105 181.324 277.88 181.324 278.835C181.324 279.79 182.266 280.565 183.428 280.565Z" fill="#7664E3"/>
<path d="M179.617 283.131C180.778 283.131 181.72 282.357 181.72 281.402C181.72 280.447 180.778 279.672 179.617 279.672C178.455 279.672 177.513 280.447 177.513 281.402C177.513 282.357 178.455 283.131 179.617 283.131Z" fill="#7664E3"/>
<path d="M195.26 273.717C196.64 273.717 197.759 272.797 197.759 271.662C197.759 270.527 196.64 269.607 195.26 269.607C193.879 269.607 192.76 270.527 192.76 271.662C192.76 272.797 193.879 273.717 195.26 273.717Z" fill="#7664E3"/>
<path d="M191.303 276.993C192.667 276.78 193.63 275.697 193.454 274.576C193.278 273.455 192.03 272.72 190.666 272.933C189.303 273.147 188.34 274.229 188.516 275.351C188.692 276.472 189.94 277.207 191.303 276.993Z" fill="#7664E3"/>
<path d="M185.897 277.024C187.073 276.84 187.904 275.906 187.753 274.939C187.601 273.971 186.524 273.337 185.348 273.521C184.171 273.706 183.34 274.639 183.492 275.607C183.644 276.574 184.72 277.209 185.897 277.024Z" fill="#7664E3"/>
<path d="M182.842 273.412C184.222 273.412 185.341 272.492 185.341 271.357C185.341 270.223 184.222 269.303 182.842 269.303C181.462 269.303 180.343 270.223 180.343 271.357C180.343 272.492 181.462 273.412 182.842 273.412Z" fill="#7664E3"/>
<path d="M188.055 273.424C189.435 273.424 190.554 272.504 190.554 271.369C190.554 270.234 189.435 269.314 188.055 269.314C186.674 269.314 185.555 270.234 185.555 271.369C185.555 272.504 186.674 273.424 188.055 273.424Z" fill="#7664E3"/>
<path d="M186.987 269.182C188.368 269.182 189.486 268.262 189.486 267.127C189.486 265.992 188.368 265.072 186.987 265.072C185.607 265.072 184.488 265.992 184.488 267.127C184.488 268.262 185.607 269.182 186.987 269.182Z" fill="#7664E3"/>
<path d="M196.481 266.964C196.345 266.964 196.223 266.868 196.196 266.73C196.164 266.572 196.266 266.418 196.424 266.386C200.203 265.623 201.63 262.796 202.609 259.855C202.66 259.703 202.825 259.621 202.978 259.671C203.13 259.722 203.213 259.887 203.162 260.039C202.128 263.147 200.609 266.136 196.539 266.958C196.52 266.962 196.5 266.964 196.481 266.964Z" fill="#7664E3"/>
<path d="M196.398 267.722C197.882 267.722 199.085 266.733 199.085 265.513C199.085 264.293 197.882 263.303 196.398 263.303C194.914 263.303 193.711 264.293 193.711 265.513C193.711 266.733 194.914 267.722 196.398 267.722Z" fill="#7664E3"/>
<path opacity="0.7" d="M198.631 264.955C198.516 265.336 197.765 265.446 196.952 265.2C196.14 264.955 195.575 264.447 195.69 264.066C195.805 263.685 196.557 263.575 197.369 263.821C198.181 264.066 198.747 264.574 198.631 264.955Z" fill="white"/>
<path opacity="0.7" d="M192.815 263.354C192.7 263.735 191.948 263.845 191.136 263.599C190.323 263.354 189.758 262.846 189.873 262.465C189.988 262.084 190.74 261.974 191.552 262.22C192.365 262.465 192.93 262.973 192.815 263.354Z" fill="white"/>
<path d="M99.8612 358.911L99.0079 375.124L84.8979 374.484L85.1112 359.551L99.8612 358.911Z" fill="white"/>
<path d="M63.3802 358.256L62.454 374.469L48.562 373.829L48.7934 358.896L63.3802 358.256Z" fill="white"/>
<path d="M58.3673 254.03C53.6504 258.915 47.4375 266.684 43.6783 277.533C39.9163 288.39 40.3479 297.321 41.9156 316.312C43.4008 334.303 45.0239 350.643 46.616 365.08C53.3729 364.786 58.9548 364.786 65.7118 364.492C67.6702 340.696 67.8662 317.193 69.8247 293.397C72.077 303.973 77.2671 313.962 79.5194 324.538C80.1069 337.66 82.4572 351.076 83.0448 364.198C90.0956 364.198 95.3836 363.905 102.434 363.905C104.465 351.099 105.923 332.965 103.022 311.612C99.8225 288.062 92.5348 269.531 86.5702 257.262C77.1692 256.185 67.7681 255.108 58.3673 254.03Z" fill="#003A6B"/>
<path d="M45.1975 382.947L48.5349 372.597H62.9987L69.9336 374.011C74.9658 375.03 78.36 379.233 78.3136 382.947H45.1975Z" fill="#363E44"/>
<path d="M81.541 382.947L84.8784 372.597H99.3422L106.277 374.011C111.309 375.03 114.703 379.233 114.657 382.947H81.541Z" fill="#363E44"/>
<path d="M114.398 381.176H82.1244C81.9633 381.176 81.8328 381.046 81.8328 380.884C81.8328 380.723 81.9633 380.593 82.1244 380.593H114.398C114.559 380.593 114.689 380.723 114.689 380.884C114.689 381.046 114.559 381.176 114.398 381.176Z" fill="white"/>
<path d="M78.0545 381.176H45.7811C45.62 381.176 45.4895 381.046 45.4895 380.884C45.4895 380.723 45.62 380.593 45.7811 380.593H78.0545C78.2156 380.593 78.3461 380.723 78.3461 380.884C78.3461 381.046 78.2156 381.176 78.0545 381.176Z" fill="white"/>
<path d="M67.0278 223.043H77.0579V204.618H67.0278V223.043Z" fill="#363E44"/>
<path d="M44.2124 225.92C38.2824 232.253 20.1023 249.559 27.0604 256.606C32.8159 262.435 49.8176 244.851 56.0947 238.916C52.134 234.584 48.1731 230.252 44.2124 225.92Z" fill="white"/>
<path d="M97.2923 228.727C113.223 235.337 121.555 240.728 118.559 246.55C116.821 249.927 104.247 248.949 91.4006 244.399C92.693 239.107 94.5821 234.855 97.2923 228.727Z" fill="white"/>
<path d="M102.629 240.976C102.629 240.976 102.629 240.976 102.629 240.975C111.547 228.173 117.629 218.92 119.619 216.137C119.827 215.845 120.193 215.329 120.832 214.812C123.2 212.897 125.531 214.038 128.941 213.16C132.81 212.164 134.424 209.413 135.256 210.004C135.834 210.416 135.518 211.624 134.027 213.655C134.026 213.655 134.027 213.655 134.027 213.655C135.337 212.243 137.198 210.405 137.977 211.131C138.832 212.018 136.899 214.434 135.659 215.838C137.16 214.138 138.468 213.684 138.801 214.197C139.326 215.004 138.469 216.593 136.397 218.763L136.397 218.763C138.246 217.664 138.859 217.673 139.043 218.199C139.379 219.158 137.642 220.909 135.869 222.222C133.873 223.701 131.812 224.155 130.505 224.41C130.505 224.41 130.505 224.411 130.504 224.411C126.324 231.971 120.823 242.113 118.664 246.102C118.115 247.117 116.931 247.605 115.826 247.272C112.504 246.27 105.726 243.959 102.629 240.976Z" fill="white"/>
<path d="M122.671 214.281C122.543 214.281 122.425 214.196 122.39 214.066C122.348 213.911 122.439 213.751 122.595 213.708C123.462 213.472 124.354 213.447 125.299 213.422C125.733 213.41 126.181 213.397 126.649 213.364C126.816 213.351 126.949 213.474 126.96 213.634C126.971 213.795 126.85 213.935 126.69 213.946C126.21 213.98 125.755 213.992 125.314 214.004C124.406 214.029 123.548 214.053 122.748 214.271C122.722 214.278 122.696 214.281 122.671 214.281Z" fill="#363E44"/>
<path d="M131.276 215.462C131.151 215.462 131.035 215.381 130.997 215.255C130.951 215.1 131.038 214.938 131.192 214.891C131.635 214.758 132.068 214.583 132.479 214.371C133.074 214.063 133.627 213.676 134.123 213.219C134.242 213.109 134.426 213.118 134.535 213.236C134.645 213.355 134.637 213.539 134.518 213.648C133.984 214.14 133.388 214.557 132.747 214.889C132.304 215.118 131.837 215.306 131.36 215.45C131.332 215.458 131.304 215.462 131.276 215.462Z" fill="#363E44"/>
<path d="M133.095 217.418C132.969 217.418 132.854 217.337 132.816 217.211C132.769 217.057 132.857 216.894 133.011 216.847C133.454 216.714 133.887 216.539 134.298 216.327C134.893 216.019 135.446 215.632 135.942 215.175C136.061 215.066 136.245 215.074 136.354 215.192C136.463 215.311 136.455 215.495 136.337 215.604C135.803 216.096 135.207 216.514 134.565 216.845C134.123 217.073 133.657 217.262 133.179 217.406C133.151 217.414 133.123 217.418 133.095 217.418Z" fill="#363E44"/>
<path d="M133.705 220.609C133.58 220.609 133.464 220.527 133.426 220.401C133.38 220.247 133.467 220.084 133.621 220.038C134.065 219.904 134.498 219.729 134.908 219.517C135.503 219.209 136.056 218.822 136.552 218.366C136.671 218.256 136.855 218.264 136.964 218.382C137.073 218.501 137.066 218.685 136.947 218.794C136.413 219.286 135.817 219.704 135.176 220.035C134.734 220.264 134.267 220.452 133.789 220.596C133.761 220.605 133.733 220.609 133.705 220.609Z" fill="#363E44"/>
<path d="M125.211 221.406C125.16 221.406 125.108 221.392 125.061 221.364C124.923 221.28 124.878 221.101 124.962 220.964C125.345 220.328 126.052 219.452 127.242 218.885C128.926 218.083 130.527 218.424 131.137 218.607C131.291 218.654 131.378 218.817 131.332 218.971C131.286 219.125 131.123 219.212 130.969 219.166C130.423 219.001 128.993 218.697 127.493 219.411C126.434 219.916 125.803 220.698 125.461 221.265C125.406 221.355 125.31 221.406 125.211 221.406Z" fill="#363E44"/>
<path d="M102.73 241.122C102.672 241.122 102.614 241.105 102.564 241.069C102.432 240.978 102.399 240.796 102.491 240.664C104.463 237.833 106.409 235.013 108.441 232.044C108.532 231.911 108.714 231.877 108.847 231.968C108.98 232.059 109.014 232.24 108.923 232.373C106.889 235.344 104.942 238.165 102.97 240.997C102.913 241.078 102.822 241.122 102.73 241.122Z" fill="#363E44"/>
<path d="M39.3984 225.177C39.3984 225.177 55.2751 217.635 69.8504 218.935C84.4256 220.235 98.6756 225.957 98.6756 225.957L91.7133 243.644L92.5032 273.304L46.3556 275.56L46.1656 244.749L39.3984 225.177Z" fill="#003A6B"/>
<path d="M118.102 210.34C113.986 210.088 104.063 214.69 104.633 219.85C105.129 224.335 114.522 229.402 130.668 230.108C147.792 230.857 165.094 225.708 165.807 220.302C166.414 215.71 154.813 212.36 143.489 212.167C135.393 212.029 129.856 214.022 124.691 213.284C120.802 212.728 120.825 210.507 118.102 210.34Z" fill="white"/>
<path d="M133.545 230.748C132.447 230.748 131.351 230.725 130.257 230.677C113.842 229.96 104.449 224.723 103.945 220.16C103.777 218.641 104.427 217.1 105.876 215.578C108.905 212.398 114.734 210.141 117.721 210.328C119.093 210.412 119.824 210.99 120.597 211.602C121.42 212.252 122.352 212.99 124.334 213.273C126.99 213.652 129.755 213.299 132.956 212.888C135.884 212.513 139.202 212.09 143.096 212.154C152.902 212.321 162.023 214.767 164.782 217.969C165.51 218.814 165.818 219.705 165.698 220.618C164.992 225.963 149.311 230.748 133.545 230.748ZM117.368 210.9C114.468 210.9 109.069 213.071 106.298 215.98C104.973 217.371 104.376 218.756 104.525 220.096C105.002 224.418 114.192 229.392 130.283 230.095C138.31 230.445 146.924 229.504 153.913 227.51C160.606 225.601 164.796 222.996 165.12 220.542C165.218 219.801 164.955 219.063 164.34 218.35C161.68 215.262 152.741 212.901 143.086 212.737C139.238 212.672 135.939 213.093 133.03 213.466C129.787 213.882 126.986 214.241 124.252 213.85C122.114 213.545 121.116 212.755 120.236 212.059C119.476 211.457 118.875 210.982 117.685 210.909C117.584 210.903 117.477 210.9 117.368 210.9Z" fill="#D3BBA3"/>
<path d="M115.224 221.035C118.834 220.984 121.747 220.016 121.731 218.872C121.714 217.728 118.775 216.842 115.165 216.892C111.556 216.943 108.643 217.912 108.659 219.056C108.675 220.2 111.614 221.086 115.224 221.035Z" fill="#776E42"/>
<path d="M110.724 217.51C113.357 216.694 117.493 216.684 119.962 217.487C121.053 217.842 121.635 218.297 121.719 218.763C121.54 219.231 120.866 219.688 119.702 220.049C117.069 220.865 112.933 220.875 110.464 220.072C109.373 219.717 108.791 219.263 108.707 218.796C108.886 218.328 109.56 217.871 110.724 217.51Z" fill="#003A6B"/>
<path d="M123.185 226.463C126.794 226.412 129.707 225.443 129.691 224.299C129.675 223.155 126.736 222.269 123.126 222.32C119.517 222.371 116.603 223.339 116.62 224.483C116.636 225.627 119.575 226.514 123.185 226.463Z" fill="#E0AA63"/>
<path d="M120.912 222.475C124.303 222.039 128.055 222.545 129.294 223.604C129.841 224.071 129.805 224.569 129.303 225.016C128.563 225.432 127.387 225.776 125.889 225.968C122.499 226.404 118.746 225.898 117.508 224.839C116.961 224.371 116.996 223.874 117.498 223.427C118.239 223.011 119.414 222.667 120.912 222.475Z" fill="#EFBC73"/>
<path d="M139.622 228.554C143.232 228.503 146.145 227.535 146.129 226.391C146.113 225.247 143.174 224.361 139.564 224.411C135.954 224.462 133.041 225.431 133.057 226.575C133.073 227.719 136.013 228.605 139.622 228.554Z" fill="#D3BBA3"/>
<path d="M134.646 225.193C137.005 224.297 141.132 224.149 143.864 224.862C145.071 225.177 145.803 225.607 146.041 226.067C146.018 226.536 145.496 227.011 144.454 227.407C142.094 228.303 137.967 228.451 135.235 227.738C134.028 227.423 133.297 226.992 133.058 226.533C133.082 226.064 133.604 225.588 134.646 225.193Z" fill="#D3BBA3"/>
<path d="M153.156 224.531C156.765 224.48 159.678 223.511 159.662 222.367C159.646 221.223 156.707 220.337 153.097 220.388C149.487 220.439 146.574 221.408 146.59 222.552C146.607 223.695 149.546 224.582 153.156 224.531Z" fill="#D3BBA3"/>
<path d="M148.179 221.169C150.538 220.273 154.666 220.125 157.397 220.839C158.604 221.154 159.336 221.584 159.575 222.044C159.551 222.513 159.029 222.988 157.987 223.384C155.628 224.28 151.5 224.428 148.769 223.715C147.562 223.4 146.83 222.969 146.591 222.509C146.615 222.04 147.137 221.565 148.179 221.169Z" fill="#D87355"/>
<path d="M152.066 218.926C155.675 218.875 158.588 217.906 158.572 216.762C158.556 215.618 155.617 214.732 152.007 214.783C148.398 214.834 145.485 215.803 145.501 216.947C145.517 218.091 148.456 218.977 152.066 218.926Z" fill="#D3BBA3"/>
<path d="M147.089 215.564C149.448 214.668 153.576 214.52 156.307 215.233C157.514 215.548 158.246 215.979 158.485 216.439C158.461 216.908 157.939 217.383 156.897 217.779C154.538 218.675 150.41 218.823 147.678 218.109C146.472 217.794 145.74 217.364 145.501 216.904C145.525 216.435 146.047 215.96 147.089 215.564Z" fill="#E6D0BE"/>
<path d="M124.866 217.612C126.818 217.612 128.401 217.066 128.401 216.394C128.401 215.721 126.818 215.176 124.866 215.176C122.913 215.176 121.331 215.721 121.331 216.394C121.331 217.066 122.913 217.612 124.866 217.612Z" fill="#E6D0BE"/>
<path d="M126.162 216.826C126.728 216.738 127.548 216.292 127.874 215.821C129.711 213.17 129.827 211.769 129.358 211.44C128.546 210.869 125.723 212.49 122.015 216.168C121.748 216.433 121.948 216.833 122.322 216.876C123.923 217.062 124.905 217.022 126.162 216.826Z" fill="white"/>
<path d="M57.9949 238.309L84.7605 237.078L90.0418 260.998L93.3235 270.022C99.5534 288.673 103.665 306.338 104.604 322.528L105.629 347.345L39.7924 349.191C39.4182 319.838 39.0825 285.346 45.9454 269.612L55.5851 260.588L57.9949 238.309Z" fill="#77E5FE"/>
<path d="M58.1486 238.831C58.0182 238.831 57.8993 238.743 57.8661 238.611L53.2513 220.254C53.212 220.098 53.3068 219.94 53.463 219.9C53.618 219.862 53.7776 219.956 53.8168 220.112L58.4316 238.468C58.4708 238.625 58.376 238.783 58.2198 238.822C58.1962 238.828 58.1722 238.831 58.1486 238.831Z" fill="#363E44"/>
<path d="M84.4532 237.985C84.4369 237.985 84.4205 237.984 84.404 237.981C84.2453 237.954 84.1385 237.803 84.1656 237.644L86.7805 222.288C86.8076 222.129 86.9572 222.023 87.1169 222.049C87.2756 222.076 87.3825 222.227 87.3554 222.386L84.7403 237.742C84.7161 237.884 84.5927 237.985 84.4532 237.985Z" fill="#363E44"/>
<path d="M76.5655 230.8L76.4487 226.967C76.3855 224.891 77.4504 222.942 79.2324 221.875L85.497 218.12L85.1996 226.601C85.145 228.158 84.3989 229.61 83.1645 230.56L80.1881 232.852L76.5655 230.8Z" fill="white"/>
<path d="M60.6919 269.936L57.9164 272.771L57.7778 268.608L76.3242 229.258L81.4901 231.929L60.6919 269.936Z" fill="#B77250"/>
<path d="M77.6919 230.59C77.5503 230.59 77.426 230.487 77.404 230.343C76.7195 225.833 79.0431 222.111 84.31 219.28C84.4523 219.203 84.6286 219.256 84.7049 219.399C84.781 219.54 84.7279 219.717 84.5861 219.793C79.5593 222.496 77.3368 226.015 77.9805 230.255C78.0047 230.414 77.8952 230.563 77.7359 230.587C77.7213 230.589 77.7066 230.59 77.6919 230.59Z" fill="#E6D0BE"/>
<path d="M80.5992 232.005C80.5076 232.005 80.4172 231.962 80.3605 231.881C80.2678 231.749 80.2995 231.567 80.4313 231.474C83.2157 229.516 84.4494 226.149 84.314 220.879C84.3099 220.719 84.4369 220.585 84.5979 220.58C84.7497 220.579 84.8927 220.703 84.8969 220.865C85.0379 226.347 83.7255 229.87 80.7667 231.951C80.7157 231.988 80.6571 232.005 80.5992 232.005Z" fill="#E6D0BE"/>
<path d="M79.2635 231.611C79.2253 231.611 79.1866 231.604 79.149 231.588C79.0009 231.525 78.9321 231.353 78.9955 231.205L82.9234 222.014C82.9865 221.866 83.1575 221.797 83.3061 221.86C83.4542 221.924 83.523 222.095 83.4597 222.243L79.5317 231.434C79.4845 231.545 79.3767 231.611 79.2635 231.611Z" fill="#E6D0BE"/>
<path d="M74.0911 233.996L76.3241 229.258L81.49 231.929L78.9767 236.522L74.0911 233.996Z" fill="#84524D"/>
<path d="M33.5344 243.731C40.2377 245.188 56.1935 247.84 57.7408 248.16C60.6331 248.76 74.9173 251.13 74.5518 253.947C74.4105 255.037 72.6499 255.191 71.6394 254.971C72.3679 255.551 73.5005 256.354 73.0375 257.495C72.4936 258.837 70.4276 258.22 70.3487 258.232C71.1484 258.746 71.9414 259.6 71.6277 260.47C71.2196 261.601 70.1189 261.792 69.0604 261.481C69.1289 261.658 70.1657 262.505 69.8002 263.548C69.5303 264.319 68.4042 264.418 67.0488 264.25C64.4785 263.719 54.3796 262.192 49.4386 261.684C37.8338 260.49 28.6553 257.575 28.6553 257.575C28.6553 257.575 30.2452 245.408 33.5344 243.731Z" fill="white"/>
<path d="M45.7322 246.162C45.715 246.162 45.6973 246.16 45.6797 246.157C42.4357 245.566 35.7102 244.328 33.4755 243.868C33.3177 243.836 33.2163 243.681 33.2487 243.524C33.281 243.366 33.4358 243.264 33.5931 243.297C35.8225 243.756 42.5423 244.993 45.7842 245.583C45.9425 245.612 46.0476 245.764 46.0188 245.922C45.9931 246.063 45.8704 246.162 45.7322 246.162Z" fill="#363E44"/>
<path d="M66.7884 276.97C68.5016 275.613 71.7365 277.945 72.5967 276.845C73.4689 275.728 70.8219 272.46 71.4725 271.911C71.9438 271.513 73.473 273.165 74.2205 272.66C75.039 272.107 73.915 270.254 74.4703 267.414C74.6701 266.392 75.0408 264.496 76.4688 263.667C78.6655 262.391 82.4973 264.144 82.9641 266.165C83.0904 266.711 82.9183 267.051 81.2153 270.911C80.3607 272.849 79.9389 273.824 80.2161 274.159C80.6963 274.739 82.1098 273.863 85.2124 273.409C87.513 273.073 89.0593 272.847 89.7091 273.659C90.5917 274.763 89.6651 277.587 87.9604 278.406C86.9979 278.868 86.4448 278.375 83.4637 278.156C81.0483 277.978 79.8431 277.858 79.4666 278.406C78.741 279.462 81.4124 281.199 81.3402 284.589C81.3299 285.071 81.2833 287.258 79.7668 288.288C78.9654 288.831 78.0744 288.834 77.7178 288.835C77.5656 288.836 75.8699 288.817 74.7201 287.649C73.2902 286.196 74.3688 284.657 73.2837 283.464C71.6914 281.715 68.3986 283.962 66.6636 282.278C65.3531 281.006 65.4692 278.014 66.7884 276.97Z" fill="#005592"/>
<path d="M54.7137 306.666C55.9947 304.641 51.7435 301.589 52.7152 297.672C53.2547 295.498 55.2587 293.644 56.4625 293.925C57.9145 294.264 56.9301 297.493 59.2104 300.67C61.481 303.833 64.31 303.235 65.2061 305.916C65.8746 307.917 65.0696 310.552 63.4573 311.662C61.7725 312.821 60.5552 311.386 58.2112 312.286C55.007 313.517 55.1066 317.035 52.4654 317.408C50.913 317.627 49.4465 316.617 48.7181 315.659C47.2776 313.764 47.6985 310.349 49.4675 308.664C51.3954 306.828 53.7899 308.126 54.7137 306.666Z" fill="#FADB3F"/>
<path d="M67.7752 192.462C68.1807 192.369 72.0775 191.541 74.7963 193.926C76.8195 195.702 77.3626 198.245 77.6281 202.647C77.9409 207.832 77.4029 210.975 76.053 212.18C73.9202 214.084 66.4483 211.401 63.2339 207.253C60.9137 204.258 60.5932 200.058 62.1913 196.594C63.7852 193.141 67.5164 192.521 67.7752 192.462Z" fill="white"/>
<path d="M68.6333 224.612H68.1523C65.7452 224.612 63.7937 222.661 63.7937 220.253V206.475C63.7937 204.068 65.7452 202.117 68.1523 202.117H68.6333C71.0405 202.117 72.992 204.068 72.992 206.475V220.253C72.992 222.661 71.0405 224.612 68.6333 224.612Z" fill="white"/>
<path d="M73.0132 213.199C73.0015 213.199 72.9898 213.198 72.978 213.197C69.9683 212.836 65.4498 210.749 63.0035 207.591C62.9048 207.464 62.9281 207.281 63.0555 207.182C63.1824 207.084 63.3657 207.106 63.4645 207.234C65.7284 210.156 70.1147 212.266 73.0474 212.618C73.2073 212.637 73.3213 212.782 73.3021 212.942C73.2845 213.09 73.1586 213.199 73.0132 213.199Z" fill="#363E44"/>
<path d="M61.4255 220.831C61.4255 223.046 63.8592 225.148 68.3145 225.148C72.7698 225.148 74.7801 222.991 74.7801 220.777C74.7801 218.563 72.7698 217.13 68.3145 217.13C63.8592 217.13 61.4255 218.617 61.4255 220.831Z" fill="white"/>
<path d="M69.2495 201.475C69.2495 201.475 69.9131 202.921 71.2613 203.936C71.5453 204.15 72.7343 201.455 72.3668 201.379C70.7409 201.045 69.2495 201.475 69.2495 201.475Z" fill="white"/>
<path d="M76.4294 204.765C76.4294 204.765 74.1875 205.411 72.2047 204.503C71.8581 204.344 71.5431 204.147 71.258 203.932C71.1528 202.916 71.5964 201.962 72.3596 201.377C72.7295 201.453 73.1062 201.568 73.4741 201.736C75.4568 202.645 76.4294 204.765 76.4294 204.765Z" fill="#363E44"/>
<path d="M74.7168 208.452C74.4272 208.452 74.1419 208.361 73.9096 208.179C73.3232 207.719 73.4199 206.964 73.4243 206.932C73.4464 206.772 73.5942 206.66 73.753 206.683C73.9125 206.705 74.024 206.852 74.002 207.012C74.0016 207.015 73.9487 207.469 74.2694 207.72C74.5282 207.923 74.9107 207.92 75.1991 207.713C75.3299 207.618 75.512 207.649 75.606 207.78C75.6997 207.911 75.6698 208.093 75.5391 208.187C75.2918 208.364 75.0023 208.452 74.7168 208.452Z" fill="#363E44"/>
<path d="M77.356 204.332C77.3731 204.585 77.4348 204.951 77.6572 205.31C77.9253 205.743 78.2287 205.846 78.2593 206.137C78.2797 206.333 78.179 206.629 77.5817 207.04L77.356 204.332Z" fill="white"/>
<path d="M77.5817 207.332C77.489 207.332 77.3978 207.288 77.3413 207.206C77.25 207.073 77.2835 206.892 77.4161 206.8C77.9517 206.432 77.9747 206.223 77.969 206.168C77.9632 206.112 77.9175 206.061 77.7979 205.94C77.685 205.825 77.5444 205.683 77.409 205.464C77.2089 205.14 77.0931 204.766 77.0649 204.352C77.0539 204.192 77.1752 204.053 77.336 204.041C77.4936 204.034 77.6358 204.152 77.6466 204.313C77.6684 204.631 77.7552 204.915 77.9049 205.157C78.0058 205.32 78.1112 205.427 78.2131 205.53C78.3648 205.684 78.5215 205.843 78.5492 206.108C78.5895 206.498 78.327 206.881 77.7467 207.281C77.6963 207.316 77.6387 207.332 77.5817 207.332Z" fill="#363E44"/>
<path d="M61.4163 191.139C69.4261 187.372 77.8281 192.397 77.1713 198.503C77.1713 198.503 74.157 195.023 74.157 194.951C73.6099 196.026 72.6397 197.593 70.9898 199.051C68.441 201.304 65.7035 202.029 64.3675 202.288C64.3675 212.994 64.3675 223.7 64.3675 234.406H58.1584V226.416L56.3412 234.406H49.3564C49.3564 234.406 48.5675 197.181 61.4163 191.139Z" fill="#363E44"/>
<path d="M67.6006 206.597C68.8839 205.769 69.1307 203.868 68.1517 202.35C67.1727 200.832 65.3388 200.272 64.0554 201.1C62.7721 201.928 62.5253 203.829 63.5043 205.347C64.4832 206.865 66.3172 207.425 67.6006 206.597Z" fill="white"/>
<path d="M64.8479 205.165C64.7691 205.165 64.6905 205.133 64.633 205.07C64.5468 204.976 64.4674 204.874 64.3972 204.765C64.12 204.333 64.0018 203.833 64.0645 203.358C64.1296 202.864 64.3798 202.454 64.7691 202.204C64.9669 202.077 65.1879 202 65.4261 201.974C65.5855 201.957 65.7299 202.072 65.7473 202.233C65.7646 202.393 65.6489 202.536 65.4887 202.554C65.3413 202.57 65.2051 202.617 65.0839 202.695C64.8417 202.851 64.6847 203.113 64.6427 203.434C64.598 203.773 64.685 204.134 64.8878 204.449C64.9399 204.53 64.9987 204.606 65.0624 204.676C65.1714 204.794 65.1637 204.979 65.0451 205.088C64.989 205.139 64.9184 205.165 64.8479 205.165Z" fill="#363E44"/>
<path d="M155.732 367.128H143.298V383.584H155.732V367.128Z" fill="#D3BBA3"/>
<path d="M156.647 365.665H142.384V369.505H156.647V365.665Z" fill="#9E460D"/>
<path d="M190.107 367.242H177.673V383.699H190.107V367.242Z" fill="#EFBC73"/>
<path d="M191.022 365.779H176.759V369.619H191.022V365.779Z" fill="#9E460D"/>
<path d="M172.92 367.318H160.486V383.774H172.92V367.318Z" fill="#D87355"/>
<path d="M173.835 365.855H159.572V369.695H173.835V365.855Z" fill="#9E460D"/>
<path d="M243.696 322.518C250.786 322.518 256.533 321.282 256.533 319.757C256.533 318.232 250.786 316.996 243.696 316.996C236.606 316.996 230.859 318.232 230.859 319.757C230.859 321.282 236.606 322.518 243.696 322.518Z" fill="#D3BBA3"/>
<path d="M239.026 294.12L240.914 291.946C241.282 293.43 242.008 294.745 243.072 295.898C243.542 296.406 243.905 297.009 244.064 297.683C244.209 298.3 244.25 298.941 244.18 299.577L243.738 303.631L238.823 303.941L237.922 300.281C237.516 298.631 237.643 296.903 238.274 295.341C238.454 294.895 238.71 294.483 239.026 294.12Z" fill="#BC8271"/>
<path d="M238.865 303.938L243.747 303.631L243.776 310.859L239.743 311.114L238.865 303.938Z" fill="#2D353A"/>
<path d="M242.317 345.58L245.5 345.38L243.776 310.859L239.744 311.113L242.317 345.58Z" fill="#EFBC73"/>
<path d="M238.823 303.941L240.604 303.829L241.483 311.004L239.701 311.116L238.823 303.941Z" fill="#40484C"/>
<path d="M230.845 286.349L230.205 295.726L234.446 295.03L230.845 286.349Z" fill="white"/>
<path d="M232.356 289.963L230.846 286.324L230.578 290.255L232.356 289.963Z" fill="#D87355"/>
<path d="M241.432 346.669L240.083 346.891C239.284 347.022 238.531 346.48 238.4 345.682L230.205 295.726L234.446 295.031L242.641 344.986C242.772 345.785 242.23 346.538 241.432 346.669Z" fill="#D87355"/>
<path d="M238.799 338.924C238.659 338.924 238.535 338.823 238.512 338.68L231.43 295.507C231.404 295.348 231.512 295.198 231.67 295.172C231.83 295.145 231.979 295.254 232.005 295.413L239.087 338.585C239.113 338.744 239.006 338.894 238.847 338.92C238.831 338.923 238.815 338.924 238.799 338.924Z" fill="#363E44"/>
<path d="M240.622 338.625C240.482 338.625 240.358 338.524 240.335 338.381L233.253 295.209C233.227 295.05 233.334 294.9 233.493 294.874C233.652 294.846 233.802 294.955 233.828 295.114L240.91 338.287C240.936 338.445 240.828 338.595 240.67 338.621C240.654 338.624 240.638 338.625 240.622 338.625Z" fill="#363E44"/>
<path d="M237.284 339.173C237.143 339.173 237.02 339.071 236.996 338.928C236.97 338.769 237.078 338.619 237.237 338.593L241.478 337.898C241.637 337.872 241.787 337.979 241.812 338.138C241.839 338.297 241.731 338.447 241.572 338.473L237.331 339.169C237.315 339.171 237.299 339.173 237.284 339.173Z" fill="#363E44"/>
<path d="M237.705 341.741C237.565 341.741 237.441 341.64 237.418 341.497C237.392 341.338 237.499 341.188 237.658 341.162L241.899 340.467C242.059 340.439 242.208 340.548 242.234 340.707C242.26 340.866 242.153 341.016 241.994 341.042L237.753 341.738C237.737 341.74 237.721 341.741 237.705 341.741Z" fill="#363E44"/>
<path d="M247.388 298.647L245.61 295.06C244.647 293.116 244.81 290.804 246.037 289.015L250.351 282.726L253.758 290.906C254.383 292.408 254.306 294.11 253.548 295.549L251.719 299.019L247.388 298.647Z" fill="white"/>
<path d="M249.342 342.702L247.941 346.601L245.999 342.709L246.488 297.288L252.554 297.577L249.342 342.702Z" fill="#B77250"/>
<path d="M248.24 297.972C248.145 297.972 248.052 297.926 247.996 297.841C245.388 293.863 245.975 289.324 249.739 284.35C249.836 284.222 250.019 284.196 250.148 284.294C250.276 284.391 250.301 284.574 250.204 284.702C246.604 289.458 246.025 293.772 248.483 297.521C248.572 297.656 248.534 297.837 248.399 297.925C248.35 297.957 248.295 297.972 248.24 297.972Z" fill="#E6D0BE"/>
<path d="M251.613 298.05C251.563 298.05 251.513 298.038 251.467 298.011C251.328 297.929 251.281 297.751 251.362 297.612C253.155 294.537 252.862 290.801 250.439 285.854C250.369 285.709 250.428 285.534 250.573 285.464C250.718 285.392 250.892 285.453 250.963 285.597C253.48 290.736 253.767 294.647 251.865 297.906C251.811 297.999 251.713 298.05 251.613 298.05Z" fill="#E6D0BE"/>
<path d="M250.175 298.259C250.017 298.259 249.888 298.133 249.883 297.974L249.614 287.541C249.61 287.38 249.737 287.246 249.898 287.242C249.901 287.242 249.903 287.242 249.906 287.242C250.063 287.242 250.193 287.367 250.197 287.526L250.467 297.96C250.471 298.121 250.344 298.254 250.182 298.259C250.18 298.259 250.177 298.259 250.175 298.259Z" fill="#E6D0BE"/>
<path d="M246.429 302.757L246.488 297.288L252.554 297.577L252.166 303.03L246.429 302.757Z" fill="#9E460D"/>
<path d="M256.533 358.639H230.788V319.388C233.062 322.728 250.203 323.82 256.533 319.388V358.639Z" fill="#003A6B"/>
<path d="M243.101 322.702C238.114 322.702 233.672 321.683 230.709 320.084C230.568 320.008 230.515 319.831 230.591 319.689C230.668 319.548 230.845 319.494 230.986 319.571C236.273 322.423 247.015 323.388 256.511 319.557C256.659 319.498 256.83 319.569 256.891 319.719C256.951 319.868 256.879 320.038 256.729 320.098C252.187 321.93 247.437 322.702 243.101 322.702Z" fill="white"/>
<path d="M241.117 368.809H265.851C264.246 368.809 262.946 366.267 262.946 363.13C262.946 359.993 264.246 357.451 265.851 357.451H241.117C239.513 357.451 238.213 359.993 238.213 363.13C238.213 366.266 239.513 368.809 241.117 368.809Z" fill="#F7F1EB"/>
<path d="M200.824 369.037H251.273C248.001 369.037 245.348 366.392 245.348 363.129C245.348 359.866 248.081 357.308 251.353 357.308L200.824 357.221C197.552 357.221 194.899 359.866 194.899 363.129C194.9 366.392 197.552 369.037 200.824 369.037Z" fill="#9E460D"/>
<path d="M266.365 369.101H251.272C247.787 369.101 245.056 366.478 245.056 363.13C245.056 359.782 247.787 357.159 251.272 357.159H266.365C266.526 357.159 266.657 357.29 266.657 357.451C266.657 357.612 266.526 357.742 266.365 357.742H251.272C248.114 357.742 245.639 360.109 245.639 363.13C245.639 366.151 248.114 368.518 251.272 368.518H266.365C266.526 368.518 266.657 368.648 266.657 368.809C266.657 368.97 266.526 369.101 266.365 369.101Z" fill="#9E460D"/>
<path d="M263.943 367.541H250.726C250.565 367.541 250.435 367.411 250.435 367.25C250.435 367.088 250.565 366.958 250.726 366.958H263.943C264.104 366.958 264.235 367.088 264.235 367.25C264.235 367.411 264.104 367.541 263.943 367.541Z" fill="#E6D0BE"/>
<path d="M263.255 365.255H250.038C249.877 365.255 249.747 365.124 249.747 364.963C249.747 364.802 249.877 364.672 250.038 364.672H263.255C263.416 364.672 263.547 364.802 263.547 364.963C263.547 365.124 263.416 365.255 263.255 365.255Z" fill="#E6D0BE"/>
<path d="M263.026 363.883H247.516C247.355 363.883 247.224 363.752 247.224 363.591C247.224 363.43 247.355 363.3 247.516 363.3H263.026C263.187 363.3 263.318 363.43 263.318 363.591C263.318 363.752 263.187 363.883 263.026 363.883Z" fill="#E6D0BE"/>
<path d="M263.255 360.91H248.892C248.73 360.91 248.6 360.78 248.6 360.619C248.6 360.457 248.73 360.327 248.892 360.327H263.255C263.416 360.327 263.547 360.457 263.547 360.619C263.547 360.78 263.416 360.91 263.255 360.91Z" fill="#E6D0BE"/>
<path d="M199.427 366.529H213.094V359.949H199.427V366.529Z" fill="#D3BBA3"/>
<path d="M215.479 366.529H239.887V359.949H215.479V366.529Z" fill="#D3BBA3"/>
<path d="M241.117 376.302H265.851C264.246 376.302 262.946 374.674 262.946 372.666C262.946 370.658 264.246 369.03 265.851 369.03H241.117C239.513 369.03 238.213 370.658 238.213 372.666C238.213 374.674 239.513 376.302 241.117 376.302Z" fill="#F7F1EB"/>
<path d="M200.824 376.449H251.273C248 376.449 246.495 374.755 246.495 372.666C246.495 370.578 248 368.884 251.273 368.884H200.824C197.552 368.884 196.046 370.578 196.046 372.666C196.046 374.755 197.552 376.449 200.824 376.449Z" fill="#EFBC73"/>
<path d="M266.365 376.593H251.272C248.098 376.593 246.203 375.125 246.203 372.666C246.203 370.207 248.098 368.739 251.272 368.739H266.365C266.526 368.739 266.656 368.869 266.656 369.03C266.656 369.192 266.526 369.322 266.365 369.322H251.272C248.421 369.322 246.786 370.541 246.786 372.666C246.786 374.792 248.421 376.011 251.272 376.011H266.365C266.526 376.011 266.656 376.141 266.656 376.302C266.656 376.463 266.526 376.593 266.365 376.593Z" fill="#9E460D"/>
<path d="M263.943 375.595H250.726C250.565 375.595 250.434 375.465 250.434 375.304C250.434 375.143 250.565 375.012 250.726 375.012H263.943C264.104 375.012 264.235 375.143 264.235 375.304C264.234 375.465 264.104 375.595 263.943 375.595Z" fill="#E6D0BE"/>
<path d="M263.255 374.132H250.038C249.877 374.132 249.747 374.001 249.747 373.84C249.747 373.679 249.877 373.548 250.038 373.548H263.255C263.416 373.548 263.547 373.679 263.547 373.84C263.547 374.001 263.416 374.132 263.255 374.132Z" fill="#E6D0BE"/>
<path d="M263.026 373.253H247.515C247.354 373.253 247.224 373.123 247.224 372.962C247.224 372.8 247.354 372.67 247.515 372.67H263.026C263.187 372.67 263.317 372.8 263.317 372.962C263.317 373.123 263.187 373.253 263.026 373.253Z" fill="#E6D0BE"/>
<path d="M263.255 371.35H248.892C248.73 371.35 248.6 371.219 248.6 371.058C248.6 370.897 248.73 370.767 248.892 370.767H263.255C263.416 370.767 263.547 370.897 263.547 371.058C263.547 371.219 263.416 371.35 263.255 371.35Z" fill="#E6D0BE"/>
<path d="M223.075 376.567H199.908C201.411 376.567 202.629 378.091 202.629 379.972C202.629 381.853 201.411 383.378 199.908 383.378H223.075C224.577 383.378 225.795 381.853 225.795 379.972C225.795 378.091 224.577 376.567 223.075 376.567Z" fill="#F7F1EB"/>
<path d="M260.816 376.43H213.563C216.628 376.43 218.038 378.016 218.038 379.972C218.038 381.929 216.628 383.515 213.563 383.515H260.816C263.88 383.515 265.291 381.929 265.291 379.972C265.291 378.016 263.88 376.43 260.816 376.43Z" fill="#30C981"/>
<path d="M213.563 383.67H199.427C199.266 383.67 199.135 383.539 199.135 383.378C199.135 383.217 199.266 383.086 199.427 383.086H213.563C216.222 383.086 217.747 381.951 217.747 379.972C217.747 377.993 216.222 376.858 213.563 376.858H199.427C199.266 376.858 199.135 376.728 199.135 376.567C199.135 376.406 199.266 376.275 199.427 376.275H213.563C216.548 376.275 218.33 377.657 218.33 379.972C218.33 382.287 216.548 383.67 213.563 383.67Z" fill="#9E460D"/>
<path d="M214.075 377.793H201.695C201.534 377.793 201.404 377.663 201.404 377.502C201.404 377.341 201.534 377.21 201.695 377.21H214.075C214.236 377.21 214.366 377.341 214.366 377.502C214.366 377.663 214.236 377.793 214.075 377.793Z" fill="#E6D0BE"/>
<path d="M214.719 379.165H202.34C202.178 379.165 202.048 379.034 202.048 378.873C202.048 378.712 202.178 378.582 202.34 378.582H214.719C214.88 378.582 215.011 378.712 215.011 378.873C215.011 379.034 214.88 379.165 214.719 379.165Z" fill="#E6D0BE"/>
<path d="M217.082 379.987H202.554C202.393 379.987 202.263 379.857 202.263 379.696C202.263 379.535 202.393 379.404 202.554 379.404H217.082C217.243 379.404 217.374 379.535 217.374 379.696C217.374 379.857 217.243 379.987 217.082 379.987Z" fill="#E6D0BE"/>
<path d="M215.793 381.77H202.34C202.178 381.77 202.048 381.639 202.048 381.478C202.048 381.317 202.178 381.186 202.34 381.186H215.793C215.955 381.186 216.085 381.317 216.085 381.478C216.085 381.639 215.955 381.77 215.793 381.77Z" fill="#E6D0BE"/>
</g>
<defs>
<clipPath id="clip0_1_1091">
<rect x="20" y="134" width="252" height="258" rx="20" fill="white"/>
</clipPath>
</defs>
</svg>
