<svg width="292" height="408" viewBox="0 0 292 408" fill="none" xmlns="http://www.w3.org/2000/svg">
<rect width="292" height="408" rx="24" fill="#EDE7FF"/>
<path d="M94.1615 28.08V38.192H94.0335C94.0335 37.424 93.3295 29.744 86.0975 29.744H75.0895V51.568H85.4575C91.0895 51.568 91.6655 45.936 91.6655 45.36H91.7295V59.44H91.6655C91.6655 58.864 91.0895 53.232 85.4575 53.232H75.0895V76.336H87.3775C94.6095 76.336 95.3135 68.656 95.3135 67.888H95.4415V78H60.7535V77.872C61.1375 77.872 64.7215 77.296 64.7215 70.832V35.248C64.7215 28.784 61.1375 28.208 60.7535 28.208V28.08H94.1615ZM102.542 78V77.872C102.926 77.872 106.51 77.296 106.51 70.832V35.248C106.51 28.784 102.926 28.208 102.542 28.208V28.08H114.446L142.094 61.68V35.248C142.094 28.784 138.51 28.208 138.126 28.208V28.08H147.854V28.208C147.47 28.208 143.886 28.784 143.886 35.248V78.384L108.302 35.248V70.832C108.302 77.296 111.886 77.872 112.27 77.872V78H102.542ZM158.415 29.744C151.183 29.744 150.479 37.424 150.479 38.192H150.351V28.08H191.439V38.192H191.311C191.311 37.424 190.607 29.744 183.375 29.744H176.079V70.832C176.079 77.296 179.663 77.872 180.047 77.872V78H161.743V77.872C162.127 77.872 165.711 77.296 165.711 70.832V29.744H158.415ZM195.254 78V77.872C195.638 77.872 199.222 77.296 199.222 70.832V35.248C199.222 28.784 195.638 28.208 195.254 28.208V28.08H213.622C220.662 28.08 225.782 29.36 228.982 32.24C231.478 34.48 232.758 37.872 232.758 42.416C232.758 48.368 230.134 52.72 225.91 55.536C222.198 58.032 217.206 59.248 211.702 59.248H209.59V70.832C209.59 77.296 213.174 77.872 213.558 77.872V78H195.254ZM209.59 57.584H211.062C214.07 57.584 216.566 56.624 218.358 54.832C220.918 52.336 222.262 48.176 222.262 42.736C222.262 37.872 221.302 34.544 219.446 32.432C217.782 30.576 215.35 29.744 212.342 29.744H209.59V57.584Z" fill="#402A83"/>
<path d="M73.56 116V115.96C73.68 115.96 74.8 115.78 74.8 113.76V102.64C74.8 100.62 73.68 100.44 73.56 100.44V100.4H77.28L85.92 110.9V102.64C85.92 100.62 84.8 100.44 84.68 100.44V100.4H87.72V100.44C87.6 100.44 86.48 100.62 86.48 102.64V116.12L75.36 102.64V113.76C75.36 115.78 76.48 115.96 76.6 115.96V116H73.56ZM93.6228 119.86C94.6828 119.86 95.3628 119.44 95.8028 118.84C96.4828 117.9 96.6028 116.52 96.6028 115.52V114.4C95.9828 115.54 94.7228 116.24 93.3628 116.24C90.2828 116.24 88.3628 113.88 88.3628 110.56C88.3628 106.84 90.2828 104.08 93.6828 104.08C95.2828 104.08 96.0828 104.74 96.6028 105.46V104.28H101.043V104.32C100.923 104.32 99.8028 104.5 99.8028 106.52V115.2C99.8028 116.9 99.1628 118.08 98.2628 118.88C97.0428 119.98 95.3228 120.34 94.1028 120.34C92.1028 120.34 90.8028 119.64 90.0628 119.64V116.56H90.1228C90.3028 117.6 90.7828 118.34 91.3428 118.86C92.1428 119.6 93.1028 119.86 93.6228 119.86ZM91.5428 110.36C91.5428 113.12 92.5228 115.36 94.2628 115.36C95.2828 115.36 96.0228 114.76 96.6028 113.38V106.52C96.0828 105.42 95.3428 105.16 94.7628 105.16C92.9228 105.16 91.5428 107.2 91.5428 110.36ZM106.691 116.2C105.691 116.2 104.791 115.9 104.131 115.32C103.491 114.74 103.091 113.88 103.091 112.74V106.52C103.091 104.5 101.971 104.32 101.851 104.32V104.28H106.291V112.48C106.291 112.98 106.331 113.64 106.591 114.18C106.851 114.7 107.311 115.08 108.011 115.08C109.431 115.08 110.451 113.66 110.451 111.7V106.52C110.451 104.5 109.331 104.32 109.211 104.32V104.28H113.651V105.08C113.971 104.82 114.071 104.54 114.091 104.28C114.091 104.06 114.011 103.54 113.211 103.34V103.32L114.871 102.16C115.111 102.34 115.451 102.96 115.411 103.5C115.351 104.46 114.331 105.1 113.651 105.4V113.76C113.651 115.78 114.771 115.96 114.891 115.96V116H110.451V113.92C109.971 115.04 108.891 116.2 106.691 116.2ZM122.327 116.24C118.447 116.24 116.527 113.48 116.527 110.16C116.527 106.84 118.447 104.08 122.327 104.08C123.807 104.08 125.007 104.48 125.927 105.16C126.067 104.96 126.107 104.74 126.087 104.56C126.067 104.34 125.947 103.84 125.127 103.7V103.68L126.687 102.38C126.947 102.54 127.327 103.14 127.347 103.68C127.367 104.42 126.787 105.02 126.227 105.42C127.487 106.54 128.127 108.26 128.127 110.16C128.127 113.48 126.207 116.24 122.327 116.24ZM119.807 110.16C119.807 113.12 120.487 115.76 122.327 115.76C124.167 115.76 124.867 113.12 124.867 110.16C124.867 107.2 124.167 104.56 122.327 104.56C120.487 104.56 119.807 107.2 119.807 110.16ZM120.207 101.8V101.74L121.267 100.26H121.327C122.147 101.4 123.607 102.96 124.567 103.34L124.507 103.4C123.327 103.24 121.227 102.58 120.207 101.8ZM130.564 106.52C130.564 104.5 129.444 104.32 129.324 104.32V104.28H133.764V113.76C133.764 115.78 134.884 115.96 135.004 115.96V116H129.324V115.96C129.444 115.96 130.564 115.78 130.564 113.76V106.52ZM130.364 101.44C130.364 100.5 131.144 99.72 132.084 99.72C133.024 99.72 133.804 100.5 133.804 101.44C133.804 102.38 133.024 103.16 132.084 103.16C131.144 103.16 130.364 102.38 130.364 101.44ZM142.321 106.52C142.321 104.5 141.201 104.32 141.081 104.32V104.28H145.521V106.36C146.001 105.24 147.081 104.08 149.281 104.08C150.281 104.08 151.181 104.38 151.841 104.96C152.481 105.54 152.881 106.4 152.881 107.54V113.76C152.881 115.78 154.001 115.96 154.121 115.96V116H148.441V115.96C148.561 115.96 149.681 115.78 149.681 113.76V107.8C149.681 107.3 149.641 106.64 149.381 106.1C149.121 105.58 148.661 105.2 147.961 105.2C146.541 105.2 145.521 106.62 145.521 108.58V113.76C145.521 115.78 146.641 115.96 146.761 115.96V116H141.081V115.96C141.201 115.96 142.321 115.78 142.321 113.76V106.52ZM156.242 102.24C156.242 100.22 155.122 100.04 155.002 100.04V100H159.442V106.36C159.922 105.24 161.002 104.08 163.202 104.08C164.202 104.08 165.102 104.38 165.762 104.96C166.402 105.54 166.802 106.4 166.802 107.54V113.76C166.802 115.78 167.922 115.96 168.042 115.96V116H162.362V115.96C162.482 115.96 163.602 115.78 163.602 113.76V107.8C163.602 107.3 163.562 106.64 163.302 106.1C163.042 105.58 162.582 105.2 161.882 105.2C160.462 105.2 159.442 106.62 159.442 108.58V113.76C159.442 115.78 160.562 115.96 160.682 115.96V116H155.002V115.96C155.122 115.96 156.242 115.78 156.242 113.76V102.24ZM170.407 106.52C170.407 104.5 169.287 104.32 169.167 104.32V104.28H173.607V113.76C173.607 115.78 174.727 115.96 174.847 115.96V116H169.167V115.96C169.287 115.96 170.407 115.78 170.407 113.76V106.52ZM169.807 101.28V101.22L170.867 99.74H170.927C171.747 100.88 173.207 102.44 174.167 102.82L174.107 102.88C172.927 102.72 170.827 102.06 169.807 101.28ZM177.36 106.52C177.36 104.5 176.24 104.32 176.12 104.32V104.28H180.56V106.36C181.04 105.24 182.12 104.08 184.32 104.08C185.32 104.08 186.22 104.38 186.88 104.96C187.52 105.54 187.92 106.4 187.92 107.54V113.76C187.92 115.78 189.04 115.96 189.16 115.96V116H183.48V115.96C183.6 115.96 184.72 115.78 184.72 113.76V107.8C184.72 107.3 184.68 106.64 184.42 106.1C184.16 105.58 183.7 105.2 183 105.2C181.58 105.2 180.56 106.62 180.56 108.58V113.76C180.56 115.78 181.68 115.96 181.8 115.96V116H176.12V115.96C176.24 115.96 177.36 115.78 177.36 113.76V106.52ZM200.885 116V115.98C200.905 115.98 201.845 115.6 200.945 114.1L199.305 111.38L197.165 114.12C196.065 115.52 197.085 115.98 197.085 115.98V116H193.885V115.98C194.085 115.98 195.405 115.66 196.185 114.66L199.065 110.98L196.685 107C195.385 104.84 194.145 104.32 193.925 104.32V104.28H199.685V104.3C199.665 104.3 198.725 104.68 199.625 106.18L201.125 108.68L203.005 106.16C204.045 104.74 203.065 104.3 203.045 104.3V104.28H206.065V104.3C205.885 104.3 204.665 104.68 203.765 105.9L201.365 109.08L203.885 113.28C205.185 115.44 206.425 115.96 206.645 115.96V116H200.885ZM210.892 104.92C208.652 104.92 207.252 106.78 207.072 107.94H207.012C207.192 105.84 208.892 104.08 212.032 104.08C213.112 104.08 214.652 104.24 215.692 105.12C216.332 105.68 216.772 106.52 216.772 107.8V113.76C216.772 115.78 217.892 115.96 218.012 115.96V116H213.572V114.18C213.012 115.12 211.832 116.12 209.712 116.12C207.792 116.12 206.332 115.2 206.332 113.24C206.332 110.64 208.892 108.9 213.572 108.78V107.88C213.572 106.74 213.292 105.98 212.792 105.52C212.332 105.1 211.672 104.92 210.892 104.92ZM209.532 113.24C209.532 114.2 210.072 115.18 211.172 115.18C212.512 115.18 213.452 113.82 213.572 113.42V109.26C210.492 109.3 209.532 111.78 209.532 113.24Z" fill="#402A83"/>
<path d="M146 387.819C215.588 387.819 272 331.407 272 261.819C272 192.231 215.588 135.819 146 135.819C76.4121 135.819 20 192.231 20 261.819C20 331.407 76.4121 387.819 146 387.819Z" fill="#402A83"/>
<path d="M179.884 204.435C179.864 204.435 179.845 204.435 179.826 204.435L165.236 204.321C163.298 204.306 161.481 203.537 160.122 202.155C158.762 200.774 158.022 198.945 158.038 197.006L158.09 190.557C158.122 186.574 161.373 183.355 165.348 183.355C165.368 183.355 165.387 183.355 165.406 183.355L179.996 183.469C181.934 183.484 183.75 184.253 185.11 185.635C186.47 187.016 187.21 188.845 187.194 190.784L187.142 197.233C187.11 201.216 183.859 204.435 179.884 204.435ZM165.348 183.962C161.706 183.962 158.727 186.912 158.697 190.562L158.645 197.011C158.631 198.788 159.309 200.463 160.555 201.729C161.8 202.995 163.465 203.7 165.241 203.714L179.831 203.828C179.848 203.828 179.866 203.828 179.883 203.828C183.526 203.828 186.505 200.878 186.535 197.228L186.587 190.779C186.601 189.002 185.923 187.327 184.677 186.061C183.431 184.795 181.767 184.09 179.991 184.076L165.401 183.962C165.384 183.962 165.366 183.962 165.348 183.962Z" fill="#84524D"/>
<path d="M130.407 197.106L129.931 258.142L215.363 258.808L215.84 197.772L130.407 197.106Z" fill="#D3BBA3"/>
<path d="M172.691 232.148C172.625 232.148 172.559 232.126 172.505 232.083L135.188 202.939C135.056 202.835 135.032 202.644 135.135 202.512C135.239 202.38 135.429 202.357 135.562 202.46L172.694 231.46L209.896 203.014C210.029 202.912 210.22 202.937 210.321 203.071C210.423 203.204 210.397 203.394 210.264 203.496L172.876 232.085C172.821 232.127 172.756 232.148 172.691 232.148Z" fill="#F7F1EB"/>
<path d="M166.864 227.936L166.814 234.289L178.854 234.383L178.904 228.029L166.864 227.936Z" fill="#F7F1EB"/>
<path d="M166.632 311.876C166.464 311.876 166.328 311.74 166.328 311.572V267.949C166.328 267.782 166.464 267.646 166.632 267.646C166.8 267.646 166.935 267.782 166.935 267.949V311.572C166.936 311.74 166.8 311.876 166.632 311.876Z" fill="#D3BBA3"/>
<path d="M139.33 339.797H22.3463C22.1786 339.797 22.0427 339.661 22.0427 339.493V167.242C22.0427 167.074 22.1787 166.938 22.3463 166.938H54.8536C55.0213 166.938 55.1571 167.074 55.1571 167.242C55.1571 167.41 55.0211 167.545 54.8536 167.545H22.65V339.19H139.33C139.498 339.19 139.634 339.325 139.634 339.493C139.634 339.661 139.498 339.797 139.33 339.797Z" fill="#D3BBA3"/>
<path d="M166.632 188.62C166.464 188.62 166.328 188.484 166.328 188.317V167.546H131.993C131.826 167.546 131.69 167.41 131.69 167.242C131.69 167.074 131.826 166.938 131.993 166.938H166.632C166.8 166.938 166.936 167.074 166.936 167.242V188.317C166.936 188.484 166.8 188.62 166.632 188.62Z" fill="#D3BBA3"/>
<path d="M37.0373 327.131H151.941L151.941 172.511H37.0373L37.0373 327.131Z" fill="#35674E"/>
<path d="M108.738 158.154C108.738 148.812 101.165 141.239 91.823 141.239C82.4808 141.239 74.9076 148.812 74.9076 158.154H56.3594V180.446H127.287V158.154H108.738ZM79.3589 158.154C79.3589 151.271 84.9392 145.69 91.8228 145.69C98.7064 145.69 104.287 151.271 104.287 158.154H79.3589Z" fill="#F7F1EB"/>
<path d="M129.953 178.083H59.0257C58.858 178.083 58.7222 177.947 58.7222 177.78V155.488C58.7222 155.32 58.8581 155.185 59.0257 155.185H77.273C77.4355 145.83 85.096 138.269 94.4893 138.269C103.883 138.269 111.543 145.829 111.706 155.185H129.953C130.121 155.185 130.257 155.321 130.257 155.488V177.78C130.256 177.947 130.121 178.083 129.953 178.083ZM59.3293 177.476H129.649V155.792H111.405C111.237 155.792 111.101 155.656 111.101 155.488C111.101 146.329 103.649 138.877 94.4893 138.877C85.3296 138.877 77.8775 146.329 77.8775 155.488C77.8775 155.656 77.7415 155.792 77.5739 155.792H59.3293V177.476ZM106.953 155.792H82.0253C81.8575 155.792 81.7217 155.656 81.7217 155.488C81.7217 148.448 87.4491 142.721 94.4892 142.721C101.529 142.721 107.257 148.448 107.257 155.488C107.257 155.656 107.121 155.792 106.953 155.792ZM82.3327 155.185H106.646C106.484 148.619 101.093 143.328 94.4892 143.328C87.8855 143.328 82.4943 148.619 82.3327 155.185Z" fill="#D3BBA3"/>
<path d="M133.486 220.384H50.9273C50.7596 220.384 50.6238 220.248 50.6238 220.08V198.571C50.6238 198.403 50.7597 198.267 50.9273 198.267H133.486C133.653 198.267 133.789 198.403 133.789 198.571V220.08C133.789 220.248 133.653 220.384 133.486 220.384ZM51.2309 219.777H133.182V198.874H51.2309V219.777Z" fill="#9E9569"/>
<path d="M114.711 288.374H77.2908V290.672H114.711V288.374Z" fill="white"/>
<path d="M129.102 294.115H83.0979V296.413H129.102V294.115Z" fill="white"/>
<path d="M121.554 299.855H77.2908V302.153H121.554V299.855Z" fill="white"/>
<path d="M133.485 263.096H87.1936V265.394H133.485V263.096Z" fill="white"/>
<path d="M120.302 268.836H76.0386V271.134H120.302V268.836Z" fill="white"/>
<path d="M128.014 274.577H76.0386V276.875H128.014V274.577Z" fill="white"/>
<path d="M128.014 239.349H87.3577V241.646H128.014V239.349Z" fill="white"/>
<path d="M120.302 245.089H76.2026V247.387H120.302V245.089Z" fill="white"/>
<path d="M133.485 250.83H76.2026V253.128H133.485V250.83Z" fill="white"/>
<path d="M70.2045 304.852H51.627C51.4593 304.852 51.3235 304.716 51.3235 304.548V285.979C51.3235 285.811 51.4595 285.676 51.627 285.676H70.2045C70.3722 285.676 70.5081 285.811 70.5081 285.979V304.548C70.5081 304.716 70.3721 304.852 70.2045 304.852ZM51.9306 304.244H69.9008V286.283H51.9306V304.244Z" fill="white"/>
<path d="M59.9192 301.741L54.103 296.453L55.8998 294.238L59.5876 297.185L65.3743 288.786L67.7286 290.407L59.9192 301.741Z" fill="#F7F1EB"/>
<path d="M70.2045 279.573H51.627C51.4593 279.573 51.3235 279.437 51.3235 279.27V260.701C51.3235 260.533 51.4595 260.397 51.627 260.397H70.2045C70.3722 260.397 70.5081 260.533 70.5081 260.701V279.27C70.5081 279.437 70.3721 279.573 70.2045 279.573ZM51.9306 278.966H69.9008V261.004H51.9306V278.966Z" fill="white"/>
<path d="M59.9192 276.463L54.103 271.175L55.8998 268.96L59.5876 271.907L65.3743 263.508L67.7286 265.128L59.9192 276.463Z" fill="#F7F1EB"/>
<path d="M70.2045 255.826H51.627C51.4593 255.826 51.3235 255.69 51.3235 255.523V236.954C51.3235 236.786 51.4595 236.65 51.627 236.65H70.2045C70.3722 236.65 70.5081 236.786 70.5081 236.954V255.523C70.5081 255.69 70.3721 255.826 70.2045 255.826ZM51.9306 255.219H69.9008V237.257H51.9306V255.219Z" fill="white"/>
<path d="M59.9192 252.715L54.103 247.427L55.8998 245.213L59.5876 248.16L65.3743 239.761L67.7286 241.381L59.9192 252.715Z" fill="#F7F1EB"/>
<path d="M113.704 383.312H23.3556C23.1878 383.312 23.052 383.176 23.052 383.008V359.759C23.052 359.592 23.188 359.456 23.3556 359.456H113.704C113.872 359.456 114.008 359.592 114.008 359.759V383.008C114.008 383.176 113.872 383.312 113.704 383.312ZM23.6591 382.705H113.401V360.063H23.6591V382.705Z" fill="#E6D0BE"/>
<path d="M102.536 352.109C98.6828 350.941 98.2267 345.247 95.0127 345.328C87.0547 345.529 83.4416 370.368 77.4063 370.04C72.4241 369.769 71.6084 352.664 65.8387 352.109C59.6803 351.516 55.3379 370.496 48.6868 370.04C42.8465 369.639 43.0795 354.791 32.7315 349.82C30.993 348.985 29.1712 348.533 27.3442 348.354V378.202H109.716V350.1C106.607 352.236 104.293 352.642 102.536 352.109Z" fill="#8B865C"/>
<path d="M230.445 278.94H220.444L225.444 256.299L230.445 278.94Z" fill="#EFBC73"/>
<path d="M240.446 278.94H230.445L235.445 262.865L240.446 278.94Z" fill="#8B865C"/>
<path d="M250.447 278.94H240.446L245.446 249.547L250.447 278.94Z" fill="#35674E"/>
<path d="M260.448 278.94H250.447L255.447 264.243L260.448 278.94Z" fill="#D3BBA3"/>
<path d="M262.323 281.85H217.683C217.515 281.85 217.379 281.714 217.379 281.547V262.864C217.379 262.697 217.515 262.561 217.683 262.561C217.85 262.561 217.986 262.697 217.986 262.864V281.243H262.323C262.491 281.243 262.627 281.379 262.627 281.546C262.627 281.714 262.491 281.85 262.323 281.85Z" fill="#E6D0BE"/>
<path d="M272 378.645V369.396L248.552 314.538C246.62 309.396 242.062 305.702 236.633 304.867C223.727 302.884 198.452 300.381 172.027 305.426C167.225 306.342 163.09 309.373 160.76 313.67L145.178 342.408L139.899 378.645H272Z" fill="#35674E"/>
<path d="M218.952 341.468C218.89 341.468 218.827 341.449 218.773 341.41L210.817 335.582C210.684 335.484 210.653 335.298 210.748 335.162L226.409 312.813C226.506 312.676 226.694 312.643 226.832 312.739C226.969 312.835 227.003 313.024 226.907 313.162L211.416 335.267L219.131 340.92C219.267 341.019 219.296 341.209 219.197 341.344C219.137 341.425 219.045 341.468 218.952 341.468Z" fill="#363E44"/>
<path d="M245.53 358.611C245.464 358.611 245.397 358.589 245.341 358.545C245.21 358.44 245.188 358.249 245.293 358.118L252.472 349.115C252.577 348.984 252.768 348.963 252.899 349.067C253.03 349.171 253.051 349.362 252.947 349.494L245.768 358.497C245.708 358.572 245.619 358.611 245.53 358.611Z" fill="#363E44"/>
<path d="M204.503 306.324H194.211L199.151 315.389L204.503 306.324Z" fill="#363E44"/>
<path d="M197.453 311.024H199.203H200.953L204.82 360.117L199.203 365.804L193.586 360.117L197.453 311.024Z" fill="#363E44"/>
<path d="M152.007 339.759L164.813 369.109C167.521 375.316 164.882 382.556 158.816 385.563L157.713 386.11C149.236 390.313 139.304 384.099 139.376 374.637L139.624 342.168L152.007 339.759Z" fill="white"/>
<path d="M146.877 361.616H183.474L166.926 311.572H130.329L146.877 361.616Z" fill="#EFBC73"/>
<path d="M174.901 336.007L172.638 329.164L206.891 351.465L214.951 339.715L242.922 360.329L223.394 382.563C217.74 389.001 207.744 389.088 201.979 382.749L180.451 359.08C178.645 357.094 176.156 355.86 173.481 355.636C169.3 355.287 163.367 354.553 163.067 353.183C162.601 351.056 173.672 350.522 173.672 350.522C173.672 350.522 160.464 350.37 160.439 348.138C160.413 345.907 172.374 345.491 172.374 345.491C172.374 345.491 159.327 344.98 159.203 343.026C159.079 341.071 171.564 340.505 171.564 340.505C171.564 340.505 159.956 340.065 159.975 337.48C159.994 334.895 174.901 336.007 174.901 336.007Z" fill="white"/>
<path d="M215.637 358.611C215.57 358.611 215.503 358.589 215.447 358.544L206.93 351.698C206.799 351.593 206.778 351.402 206.883 351.271C206.988 351.141 207.179 351.119 207.31 351.225L215.827 358.071C215.958 358.176 215.979 358.367 215.874 358.498C215.814 358.572 215.726 358.611 215.637 358.611Z" fill="#363E44"/>
<path d="M139.425 342.871C136.684 343.644 135.916 345.033 136.246 346.386C136.575 347.739 137.879 348.544 140.619 347.77C143.36 346.997 146.501 344.938 146.171 343.585C145.841 342.232 142.166 342.097 139.425 342.871Z" fill="white"/>
<path d="M138.885 338.022C135.708 338.919 134.818 340.529 135.2 342.097C135.582 343.665 137.092 344.598 140.269 343.701C143.446 342.805 147.086 340.418 146.704 338.85C146.322 337.282 142.062 337.126 138.885 338.022Z" fill="white"/>
<path d="M137.512 335.023C134.771 335.797 133.468 334.992 133.138 333.639C132.808 332.286 133.576 330.897 136.317 330.124C139.058 329.35 142.734 329.485 143.064 330.838C143.393 332.191 140.253 334.25 137.512 335.023Z" fill="white"/>
<path d="M139.253 339.533C136.076 340.429 134.566 339.497 134.184 337.928C133.801 336.36 134.692 334.75 137.868 333.854C141.045 332.957 145.305 333.113 145.687 334.682C146.07 336.25 142.43 338.636 139.253 339.533Z" fill="white"/>
<path d="M208.418 313.299C208.354 313.299 208.291 313.279 208.239 313.241L204.478 310.498C204.343 310.399 204.313 310.21 204.412 310.074C204.51 309.939 204.7 309.909 204.836 310.008L208.341 312.563L211.456 307.891C211.549 307.751 211.737 307.714 211.877 307.807C212.017 307.9 212.054 308.088 211.961 308.228L208.67 313.164C208.624 313.233 208.552 313.28 208.471 313.294C208.453 313.297 208.435 313.299 208.418 313.299Z" fill="#363E44"/>
<path d="M190.788 311.967C190.677 311.967 190.57 311.905 190.517 311.799L188.245 307.255C188.17 307.105 188.231 306.922 188.381 306.847C188.531 306.773 188.713 306.833 188.788 306.983L190.934 311.275L194.669 309.737C194.825 309.674 195.001 309.747 195.065 309.902C195.129 310.057 195.055 310.235 194.9 310.299L190.904 311.944C190.866 311.96 190.827 311.967 190.788 311.967Z" fill="#363E44"/>
<path d="M194.26 306.404L192.355 303.319L187.617 284.201C187.632 281.382 194.869 279.939 197.688 279.954C200.506 279.97 201.034 278.03 201.018 280.849L206.823 303.319L204.452 306.404L194.26 306.404Z" fill="white"/>
<path d="M185.123 299.346C188.526 301.444 196.697 293.553 196.697 293.553L201.848 283.237C201.483 277.625 196.637 273.371 191.025 273.736C185.413 274.101 181.159 278.947 181.524 284.559C181.524 284.559 181.657 297.208 185.123 299.346Z" fill="white"/>
<path d="M182.866 287.155C182.866 287.155 180.21 290.327 180.412 291.105C180.655 292.035 183.867 292.402 183.867 292.402C183.867 292.402 182.79 287.167 182.866 287.155Z" fill="white"/>
<path d="M191.25 284.202C191.25 284.202 189.604 283.808 187.868 284.267C187.498 284.365 188.978 287.137 189.284 286.877C190.631 285.733 191.25 284.202 191.25 284.202Z" fill="#35674E"/>
<mask id="mask0_1_3487" style="mask-type:luminance" maskUnits="userSpaceOnUse" x="183" y="284" width="9" height="5">
<path d="M191.25 284.203C191.25 284.203 188.83 283.624 186.762 284.69C184.695 285.756 183.763 288.063 183.763 288.063C183.763 288.063 186.183 288.642 188.251 287.576C190.318 286.51 191.25 284.203 191.25 284.203Z" fill="white"/>
</mask>
<g mask="url(#mask0_1_3487)">
<path d="M187.774 284.212C186.322 283.367 184.46 283.86 183.615 285.312C182.771 286.765 183.264 288.627 184.716 289.471C186.168 290.316 188.03 289.823 188.875 288.371C189.72 286.918 189.227 285.056 187.774 284.212Z" fill="#363E44"/>
</g>
<path d="M202.521 272.014C202.521 272.014 208.066 282.438 201.226 287.137L199.107 285.75L194.877 288.219L195.987 282.622C196.187 280.49 194.386 278.709 192.256 278.931L182.96 279.902L182.734 274.902C188.609 270.563 195.102 269.12 202.521 272.014Z" fill="#363E44"/>
<path d="M192.059 271.509C193.121 271.662 194.104 270.925 194.257 269.864C194.409 268.802 193.753 267.263 192.691 267.111C191.63 266.958 190.566 268.25 190.414 269.311C190.261 270.373 190.998 271.356 192.059 271.509Z" fill="#363E44"/>
<path d="M190.657 272.183C191.659 271.8 192.161 270.679 191.779 269.677C191.396 268.675 190.074 267.649 189.073 268.031C188.071 268.414 187.769 270.06 188.151 271.061C188.534 272.063 189.656 272.565 190.657 272.183Z" fill="#363E44"/>
<path d="M187.661 273.66C188.907 272.913 189.312 271.297 188.565 270.05C187.818 268.804 185.811 267.747 184.565 268.494C183.319 269.241 183.305 271.509 184.052 272.755C184.799 274.002 186.415 274.407 187.661 273.66Z" fill="#363E44"/>
<path d="M195.139 271.454C196.195 271.64 197.202 270.936 197.389 269.88C197.576 268.824 196.969 267.265 195.913 267.078C194.858 266.891 193.753 268.148 193.566 269.204C193.379 270.26 194.084 271.267 195.139 271.454Z" fill="#363E44"/>
<path d="M185.296 274.36C185.719 273.137 185.072 271.803 183.85 271.38C182.627 270.956 180.654 271.382 180.23 272.604C179.807 273.827 181.094 275.382 182.316 275.806C183.538 276.229 184.872 275.582 185.296 274.36Z" fill="#363E44"/>
<path d="M197.636 271.946C198.886 272.416 200.281 271.784 200.751 270.534C201.222 269.284 200.836 267.235 199.586 266.764C198.335 266.294 196.694 267.58 196.224 268.83C195.754 270.081 196.386 271.476 197.636 271.946Z" fill="#363E44"/>
<path d="M200.068 272.088C200.78 272.849 201.975 272.889 202.736 272.177C203.498 271.465 203.937 269.898 203.224 269.136C202.512 268.375 200.919 268.707 200.157 269.419C199.396 270.131 199.356 271.326 200.068 272.088Z" fill="#363E44"/>
<path d="M184.965 277.317C184.987 275.74 183.727 274.444 182.151 274.421C180.574 274.398 178.453 275.646 178.43 277.223C178.407 278.799 180.492 280.108 182.069 280.13C183.646 280.153 184.942 278.893 184.965 277.317Z" fill="#363E44"/>
<path d="M203.822 283.15C204.695 284.882 203.999 286.994 202.267 287.867C200.535 288.741 198.422 288.044 197.549 286.312C196.676 284.58 197.372 282.468 199.104 281.595C200.836 280.721 202.949 281.417 203.822 283.15Z" fill="white"/>
<path d="M182.162 292.085L183.799 300.478C184.026 301.646 185.181 302.387 186.339 302.109C186.63 302.04 186.945 301.961 187.278 301.872C193.042 300.342 197.61 295.943 199.348 290.238C199.93 288.326 199.272 286.254 197.694 285.029L197.174 284.625L195.584 285.665C195.584 285.665 194.697 290.377 192.991 290.858C191.285 291.338 187.963 290.197 182.162 292.085Z" fill="#363E44"/>
<path d="M186.403 294.304C186.113 294.304 185.822 294.232 185.558 294.086C185.411 294.004 185.358 293.82 185.44 293.673C185.521 293.526 185.705 293.473 185.853 293.555C186.241 293.77 186.721 293.739 187.074 293.476C187.414 293.222 187.583 292.787 187.505 292.366C187.475 292.201 187.584 292.043 187.749 292.012C187.913 291.981 188.072 292.091 188.102 292.256C188.222 292.902 187.961 293.572 187.436 293.963C187.133 294.189 186.769 294.304 186.403 294.304Z" fill="white"/>
<path d="M194.788 279.308C194.708 279.308 194.627 279.276 194.567 279.212C194.453 279.09 194.458 278.898 194.58 278.783L198.332 275.251C198.454 275.136 198.646 275.142 198.762 275.264C198.876 275.386 198.871 275.578 198.749 275.693L194.996 279.226C194.938 279.281 194.863 279.308 194.788 279.308Z" fill="white"/>
<path d="M271.439 138.192H197.595V193.895H271.439V138.192Z" fill="#35674E"/>
<path d="M271.439 194.198H197.595C197.427 194.198 197.292 194.063 197.292 193.895V138.192C197.292 138.024 197.428 137.889 197.595 137.889H271.439C271.607 137.889 271.742 138.024 271.742 138.192V193.895C271.742 194.063 271.607 194.198 271.439 194.198ZM197.899 193.591H271.135V138.496H197.899V193.591Z" fill="#D3BBA3"/>
<path d="M267.645 151.08H259.392V159.333H267.645V151.08Z" fill="white"/>
<path d="M257.902 159.637H249.648C249.48 159.637 249.345 159.501 249.345 159.333V151.08C249.345 150.912 249.481 150.777 249.648 150.777H257.902C258.069 150.777 258.205 150.912 258.205 151.08V159.333C258.205 159.501 258.069 159.637 257.902 159.637ZM249.952 159.03H257.598V151.384H249.952V159.03Z" fill="#E6D0BE"/>
<path d="M248.158 159.637H239.905C239.737 159.637 239.601 159.501 239.601 159.333V151.08C239.601 150.912 239.737 150.777 239.905 150.777H248.158C248.326 150.777 248.462 150.912 248.462 151.08V159.333C248.462 159.501 248.326 159.637 248.158 159.637ZM240.208 159.03H247.855V151.384H240.208V159.03Z" fill="#E6D0BE"/>
<path d="M238.415 159.637H230.162C229.994 159.637 229.858 159.501 229.858 159.333V151.08C229.858 150.912 229.994 150.777 230.162 150.777H238.415C238.583 150.777 238.719 150.912 238.719 151.08V159.333C238.719 159.501 238.583 159.637 238.415 159.637ZM230.465 159.03H238.111V151.384H230.465V159.03Z" fill="#E6D0BE"/>
<path d="M228.671 159.637H220.418C220.25 159.637 220.115 159.501 220.115 159.333V151.08C220.115 150.912 220.25 150.777 220.418 150.777H228.671C228.839 150.777 228.975 150.912 228.975 151.08V159.333C228.975 159.501 228.839 159.637 228.671 159.637ZM220.722 159.03H228.368V151.384H220.722V159.03Z" fill="#E6D0BE"/>
<path d="M218.928 159.637H210.675C210.507 159.637 210.371 159.501 210.371 159.333V151.08C210.371 150.912 210.507 150.777 210.675 150.777H218.928C219.096 150.777 219.231 150.912 219.231 151.08V159.333C219.231 159.501 219.096 159.637 218.928 159.637ZM210.978 159.03H218.624V151.384H210.978V159.03Z" fill="#E6D0BE"/>
<path d="M209.191 159.637H200.937C200.769 159.637 200.634 159.501 200.634 159.333V151.08C200.634 150.912 200.77 150.777 200.937 150.777H209.191C209.359 150.777 209.494 150.912 209.494 151.08V159.333C209.494 159.501 209.359 159.637 209.191 159.637ZM201.241 159.03H208.887V151.384H201.241V159.03Z" fill="#E6D0BE"/>
<path d="M267.645 169.314H259.392C259.224 169.314 259.088 169.178 259.088 169.01V160.757C259.088 160.589 259.224 160.453 259.392 160.453H267.645C267.813 160.453 267.949 160.589 267.949 160.757V169.01C267.949 169.178 267.813 169.314 267.645 169.314ZM259.696 168.706H267.341V161.06H259.696V168.706Z" fill="#E6D0BE"/>
<path d="M257.902 169.314H249.648C249.48 169.314 249.345 169.178 249.345 169.01V160.757C249.345 160.589 249.481 160.453 249.648 160.453H257.902C258.069 160.453 258.205 160.589 258.205 160.757V169.01C258.205 169.178 258.069 169.314 257.902 169.314ZM249.952 168.706H257.598V161.06H249.952V168.706Z" fill="#E6D0BE"/>
<path d="M248.158 169.314H239.905C239.737 169.314 239.601 169.178 239.601 169.01V160.757C239.601 160.589 239.737 160.453 239.905 160.453H248.158C248.326 160.453 248.462 160.589 248.462 160.757V169.01C248.462 169.178 248.326 169.314 248.158 169.314ZM240.208 168.706H247.855V161.06H240.208V168.706Z" fill="#E6D0BE"/>
<path d="M238.415 169.314H230.162C229.994 169.314 229.858 169.178 229.858 169.01V160.757C229.858 160.589 229.994 160.453 230.162 160.453H238.415C238.583 160.453 238.719 160.589 238.719 160.757V169.01C238.719 169.178 238.583 169.314 238.415 169.314ZM230.465 168.706H238.111V161.06H230.465V168.706Z" fill="#E6D0BE"/>
<path d="M228.671 160.757H220.418V169.01H228.671V160.757Z" fill="white"/>
<path d="M218.928 169.314H210.675C210.507 169.314 210.371 169.178 210.371 169.01V160.757C210.371 160.589 210.507 160.453 210.675 160.453H218.928C219.096 160.453 219.231 160.589 219.231 160.757V169.01C219.231 169.178 219.096 169.314 218.928 169.314ZM210.978 168.706H218.624V161.06H210.978V168.706Z" fill="#E6D0BE"/>
<path d="M209.185 160.757H200.931V169.01H209.185V160.757Z" fill="#EFBC73"/>
<path d="M267.645 178.991H259.392C259.224 178.991 259.088 178.855 259.088 178.687V170.434C259.088 170.266 259.224 170.13 259.392 170.13H267.645C267.813 170.13 267.949 170.266 267.949 170.434V178.687C267.949 178.855 267.813 178.991 267.645 178.991ZM259.696 178.384H267.341V170.737H259.696V178.384Z" fill="#E6D0BE"/>
<path d="M257.902 178.991H249.648C249.48 178.991 249.345 178.855 249.345 178.687V170.434C249.345 170.266 249.481 170.13 249.648 170.13H257.902C258.069 170.13 258.205 170.266 258.205 170.434V178.687C258.205 178.855 258.069 178.991 257.902 178.991ZM249.952 178.384H257.598V170.737H249.952V178.384Z" fill="#E6D0BE"/>
<path d="M248.158 170.434H239.905V178.687H248.158V170.434Z" fill="white"/>
<path d="M238.415 178.991H230.162C229.994 178.991 229.858 178.855 229.858 178.687V170.434C229.858 170.266 229.994 170.13 230.162 170.13H238.415C238.583 170.13 238.719 170.266 238.719 170.434V178.687C238.719 178.855 238.583 178.991 238.415 178.991ZM230.465 178.384H238.111V170.737H230.465V178.384Z" fill="#E6D0BE"/>
<path d="M228.671 178.991H220.418C220.25 178.991 220.115 178.855 220.115 178.687V170.434C220.115 170.266 220.25 170.13 220.418 170.13H228.671C228.839 170.13 228.975 170.266 228.975 170.434V178.687C228.975 178.855 228.839 178.991 228.671 178.991ZM220.722 178.384H228.368V170.737H220.722V178.384Z" fill="#E6D0BE"/>
<path d="M218.928 178.991H210.675C210.507 178.991 210.371 178.855 210.371 178.687V170.434C210.371 170.266 210.507 170.13 210.675 170.13H218.928C219.096 170.13 219.231 170.266 219.231 170.434V178.687C219.231 178.855 219.096 178.991 218.928 178.991ZM210.978 178.384H218.624V170.737H210.978V178.384Z" fill="#E6D0BE"/>
<path d="M209.185 178.991H200.931C200.763 178.991 200.628 178.855 200.628 178.687V170.434C200.628 170.266 200.764 170.13 200.931 170.13H209.185C209.352 170.13 209.488 170.266 209.488 170.434V178.687C209.488 178.855 209.352 178.991 209.185 178.991ZM201.235 178.384H208.881V170.737H201.235V178.384Z" fill="#E6D0BE"/>
<path d="M267.645 180.111H259.392V188.364H267.645V180.111Z" fill="#EFBC73"/>
<path d="M257.902 188.668H249.648C249.48 188.668 249.345 188.532 249.345 188.364V180.111C249.345 179.943 249.481 179.807 249.648 179.807H257.902C258.069 179.807 258.205 179.943 258.205 180.111V188.364C258.205 188.532 258.069 188.668 257.902 188.668ZM249.952 188.06H257.598V180.414H249.952V188.06Z" fill="#E6D0BE"/>
<path d="M248.158 188.668H239.905C239.737 188.668 239.601 188.532 239.601 188.364V180.111C239.601 179.943 239.737 179.807 239.905 179.807H248.158C248.326 179.807 248.462 179.943 248.462 180.111V188.364C248.462 188.532 248.326 188.668 248.158 188.668ZM240.208 188.06H247.855V180.414H240.208V188.06Z" fill="#E6D0BE"/>
<path d="M238.415 188.668H230.162C229.994 188.668 229.858 188.532 229.858 188.364V180.111C229.858 179.943 229.994 179.807 230.162 179.807H238.415C238.583 179.807 238.719 179.943 238.719 180.111V188.364C238.719 188.532 238.583 188.668 238.415 188.668ZM230.465 188.06H238.111V180.414H230.465V188.06Z" fill="#E6D0BE"/>
<path d="M228.671 188.668H220.418C220.25 188.668 220.115 188.532 220.115 188.364V180.111C220.115 179.943 220.25 179.807 220.418 179.807H228.671C228.839 179.807 228.975 179.943 228.975 180.111V188.364C228.975 188.532 228.839 188.668 228.671 188.668ZM220.722 188.06H228.368V180.414H220.722V188.06Z" fill="#E6D0BE"/>
<path d="M218.928 188.668H210.675C210.507 188.668 210.371 188.532 210.371 188.364V180.111C210.371 179.943 210.507 179.807 210.675 179.807H218.928C219.096 179.807 219.231 179.943 219.231 180.111V188.364C219.231 188.532 219.096 188.668 218.928 188.668ZM210.978 188.06H218.624V180.414H210.978V188.06Z" fill="#E6D0BE"/>
<path d="M209.185 188.668H200.931C200.763 188.668 200.628 188.532 200.628 188.364V180.111C200.628 179.943 200.764 179.807 200.931 179.807H209.185C209.352 179.807 209.488 179.943 209.488 180.111V188.364C209.488 188.532 209.352 188.668 209.185 188.668ZM201.235 188.06H208.881V180.414H201.235V188.06Z" fill="#E6D0BE"/>
<path d="M268.171 141.788C268.267 141.196 267.864 140.637 267.272 140.541C266.679 140.445 266.121 140.848 266.024 141.44C265.928 142.033 266.331 142.591 266.923 142.687C267.516 142.784 268.074 142.381 268.171 141.788Z" fill="#402A83"/>
<path d="M261.624 141.788C261.72 141.196 261.318 140.637 260.725 140.541C260.133 140.445 259.574 140.847 259.478 141.44C259.382 142.033 259.784 142.591 260.377 142.687C260.97 142.784 261.528 142.381 261.624 141.788Z" fill="#402A83"/>
<path d="M255.078 141.789C255.174 141.196 254.772 140.638 254.179 140.541C253.586 140.445 253.028 140.848 252.932 141.44C252.836 142.033 253.238 142.591 253.831 142.688C254.423 142.784 254.982 142.381 255.078 141.789Z" fill="#402A83"/>
<path d="M248.531 141.789C248.628 141.196 248.225 140.638 247.633 140.542C247.04 140.445 246.482 140.848 246.385 141.44C246.289 142.033 246.692 142.592 247.284 142.688C247.877 142.784 248.435 142.381 248.531 141.789Z" fill="#402A83"/>
<path d="M241.975 141.883C242.113 141.298 241.751 140.713 241.166 140.575C240.582 140.437 239.997 140.799 239.859 141.383C239.721 141.967 240.083 142.553 240.667 142.691C241.251 142.829 241.837 142.467 241.975 141.883Z" fill="#402A83"/>
<path d="M235.439 141.789C235.535 141.196 235.132 140.638 234.54 140.542C233.947 140.446 233.389 140.848 233.293 141.441C233.196 142.033 233.599 142.592 234.191 142.688C234.784 142.784 235.343 142.382 235.439 141.789Z" fill="#402A83"/>
<path d="M228.882 141.882C229.02 141.298 228.658 140.712 228.073 140.574C227.489 140.436 226.904 140.798 226.766 141.382C226.628 141.967 226.99 142.552 227.574 142.69C228.158 142.828 228.744 142.466 228.882 141.882Z" fill="#402A83"/>
<path d="M222.346 141.789C222.442 141.196 222.039 140.638 221.447 140.542C220.854 140.446 220.296 140.848 220.2 141.441C220.103 142.033 220.506 142.592 221.098 142.688C221.691 142.784 222.249 142.382 222.346 141.789Z" fill="#402A83"/>
<path d="M215.788 141.881C215.926 141.297 215.564 140.712 214.98 140.574C214.396 140.436 213.81 140.797 213.672 141.382C213.534 141.966 213.896 142.552 214.481 142.69C215.065 142.827 215.65 142.466 215.788 141.881Z" fill="#402A83"/>
<path d="M209.253 141.789C209.349 141.197 208.947 140.638 208.354 140.542C207.761 140.446 207.203 140.848 207.107 141.441C207.011 142.034 207.413 142.592 208.006 142.688C208.598 142.784 209.157 142.382 209.253 141.789Z" fill="#402A83"/>
<path d="M202.395 142.387C202.82 141.962 202.82 141.274 202.395 140.85C201.971 140.425 201.283 140.425 200.858 140.85C200.434 141.274 200.434 141.962 200.858 142.387C201.283 142.812 201.971 142.812 202.395 142.387Z" fill="#402A83"/>
<path d="M201.765 141.854C201.598 141.854 201.462 141.718 201.462 141.55V135.504C201.462 135.336 201.598 135.2 201.765 135.2C201.933 135.2 202.069 135.336 202.069 135.504V141.55C202.069 141.718 201.933 141.854 201.765 141.854Z" fill="#D3BBA3"/>
<path d="M208.297 141.854C208.13 141.854 207.994 141.718 207.994 141.55V135.504C207.994 135.336 208.13 135.2 208.297 135.2C208.465 135.2 208.601 135.336 208.601 135.504V141.55C208.601 141.718 208.465 141.854 208.297 141.854Z" fill="#D3BBA3"/>
<path d="M214.829 141.854C214.661 141.854 214.525 141.718 214.525 141.55V135.504C214.525 135.336 214.661 135.2 214.829 135.2C214.997 135.2 215.133 135.336 215.133 135.504V141.55C215.133 141.718 214.997 141.854 214.829 141.854Z" fill="#D3BBA3"/>
<path d="M221.361 141.854C221.193 141.854 221.057 141.718 221.057 141.55V135.504C221.057 135.336 221.193 135.2 221.361 135.2C221.529 135.2 221.664 135.336 221.664 135.504V141.55C221.664 141.718 221.529 141.854 221.361 141.854Z" fill="#D3BBA3"/>
<path d="M227.893 141.854C227.725 141.854 227.589 141.718 227.589 141.55V135.504C227.589 135.336 227.725 135.2 227.893 135.2C228.06 135.2 228.196 135.336 228.196 135.504V141.55C228.196 141.718 228.061 141.854 227.893 141.854Z" fill="#D3BBA3"/>
<path d="M234.425 141.854C234.257 141.854 234.121 141.718 234.121 141.55V135.504C234.121 135.336 234.257 135.2 234.425 135.2C234.592 135.2 234.728 135.336 234.728 135.504V141.55C234.728 141.718 234.592 141.854 234.425 141.854Z" fill="#D3BBA3"/>
<path d="M240.956 141.854C240.788 141.854 240.653 141.718 240.653 141.55V135.504C240.653 135.336 240.788 135.2 240.956 135.2C241.124 135.2 241.26 135.336 241.26 135.504V141.55C241.26 141.718 241.124 141.854 240.956 141.854Z" fill="#D3BBA3"/>
<path d="M247.488 141.854C247.32 141.854 247.184 141.718 247.184 141.55V135.504C247.184 135.336 247.32 135.2 247.488 135.2C247.656 135.2 247.791 135.336 247.791 135.504V141.55C247.792 141.718 247.656 141.854 247.488 141.854Z" fill="#D3BBA3"/>
<path d="M254.02 141.854C253.852 141.854 253.716 141.718 253.716 141.55V135.504C253.716 135.336 253.852 135.2 254.02 135.2C254.188 135.2 254.323 135.336 254.323 135.504V141.55C254.323 141.718 254.188 141.854 254.02 141.854Z" fill="#D3BBA3"/>
<path d="M260.551 141.854C260.383 141.854 260.248 141.718 260.248 141.55V135.504C260.248 135.336 260.384 135.2 260.551 135.2C260.719 135.2 260.855 135.336 260.855 135.504V141.55C260.855 141.718 260.719 141.854 260.551 141.854Z" fill="#D3BBA3"/>
<path d="M267.083 141.854C266.915 141.854 266.78 141.718 266.78 141.55V135.504C266.78 135.336 266.916 135.2 267.083 135.2C267.251 135.2 267.387 135.336 267.387 135.504V141.55C267.387 141.718 267.251 141.854 267.083 141.854Z" fill="#D3BBA3"/>
<path d="M253.102 240.676H219.264C219.097 240.676 218.961 240.54 218.961 240.373V206.551C218.961 206.383 219.097 206.247 219.264 206.247H253.102C253.27 206.247 253.405 206.383 253.405 206.551V240.373C253.406 240.541 253.27 240.676 253.102 240.676ZM219.568 240.069H252.798V206.854H219.568V240.069Z" fill="#35674E"/>
<path d="M234.368 235.26L223.774 225.628L227.047 221.594L233.764 226.962L244.304 211.664L248.592 214.615L234.368 235.26Z" fill="white"/>
<path d="M150.828 182.846C150.825 182.846 150.823 182.846 150.82 182.846C149.076 182.844 147.437 182.163 146.206 180.928C144.974 179.693 144.297 178.053 144.299 176.309L144.308 169.78L157.365 169.797L157.357 176.326C157.355 178.07 156.674 179.708 155.439 180.94C154.206 182.17 152.569 182.846 150.828 182.846ZM144.914 170.388L144.907 176.31C144.904 177.892 145.519 179.379 146.636 180.499C147.752 181.619 149.239 182.237 150.82 182.239C150.823 182.239 150.826 182.239 150.828 182.239C154.09 182.239 156.746 179.588 156.75 176.325L156.757 170.404L144.914 170.388Z" fill="#363E44"/>
<path d="M162.248 168.272C168.543 161.978 168.543 151.773 162.248 145.479C155.954 139.184 145.749 139.184 139.455 145.479C133.161 151.773 133.161 161.978 139.455 168.272C145.749 174.566 155.954 174.566 162.248 168.272Z" fill="#EFBC73"/>
<path d="M150.875 178.753C150.858 178.753 150.841 178.753 150.825 178.753C149.354 178.751 144.552 178.661 144.553 177.589C144.554 177.421 144.69 177.285 144.857 177.285H144.857C144.999 177.286 145.118 177.382 145.151 177.514C145.438 177.742 147.317 178.141 150.826 178.146C150.845 178.146 150.865 178.146 150.884 178.146C154.355 178.146 156.215 177.754 156.502 177.528C156.536 177.398 156.654 177.301 156.796 177.301H156.796C156.964 177.301 157.1 177.437 157.1 177.605C157.098 178.666 152.402 178.753 150.875 178.753Z" fill="#363E44"/>
<path d="M150.878 176.024C150.861 176.024 150.845 176.024 150.829 176.024C149.357 176.022 144.556 175.932 144.557 174.86C144.557 174.692 144.693 174.557 144.861 174.557H144.861C145.003 174.557 145.121 174.654 145.155 174.785C145.442 175.013 147.321 175.412 150.829 175.417C150.849 175.417 150.868 175.417 150.888 175.417C154.358 175.417 156.219 175.025 156.506 174.799C156.539 174.669 156.658 174.572 156.799 174.572C156.8 174.572 156.8 174.572 156.8 174.572C156.967 174.572 157.103 174.708 157.103 174.876C157.101 175.937 152.405 176.024 150.878 176.024Z" fill="#363E44"/>
<path d="M152.99 169.375C152.95 169.375 152.91 169.368 152.871 169.351C152.717 169.285 152.645 169.107 152.711 168.952L157.791 157.057C157.857 156.902 158.037 156.831 158.19 156.897C158.344 156.962 158.416 157.141 158.35 157.295L153.269 169.191C153.22 169.306 153.108 169.375 152.99 169.375Z" fill="#363E44"/>
<path d="M148.685 169.37C148.567 169.37 148.455 169.301 148.405 169.185L143.356 157.276C143.291 157.121 143.363 156.943 143.517 156.878C143.671 156.812 143.85 156.884 143.915 157.039L148.965 168.948C149.03 169.102 148.958 169.28 148.804 169.346C148.765 169.362 148.725 169.37 148.685 169.37Z" fill="#363E44"/>
<path d="M153.75 158.914C152.904 158.914 152.055 158.651 151.378 158.142C150.72 158.424 149.998 158.55 149.282 158.478C147.291 158.277 145.572 156.56 145.368 154.57C145.35 154.403 145.472 154.254 145.639 154.236C145.806 154.223 145.954 154.341 145.972 154.507C146.148 156.222 147.629 157.701 149.343 157.874C149.864 157.927 150.389 157.857 150.881 157.688C149.9 156.606 149.587 154.946 150.146 153.589C150.428 152.908 151.043 152.148 151.925 152.061C152.693 151.982 153.476 152.47 153.836 153.24C154.126 153.861 154.149 154.64 153.9 155.433C153.586 156.434 152.879 157.278 151.99 157.825C152.986 158.434 154.318 158.481 155.338 157.901C155.482 157.818 155.669 157.869 155.752 158.015C155.835 158.161 155.784 158.346 155.638 158.429C155.065 158.755 154.408 158.914 153.75 158.914ZM152.082 152.66C152.049 152.66 152.017 152.662 151.985 152.665C151.37 152.726 150.922 153.302 150.708 153.821C150.209 155.03 150.533 156.525 151.474 157.428C152.334 156.965 153.027 156.188 153.321 155.251C153.524 154.603 153.512 153.98 153.285 153.497C153.053 152.999 152.558 152.66 152.082 152.66Z" fill="#35674E"/>
</svg>
