<svg width="94" height="120" viewBox="0 0 94 120" fill="none" xmlns="http://www.w3.org/2000/svg">
<g clip-path="url(#clip0_177_9668)">
<rect width="94" height="120" fill="#E6D0BE"/>
<g clip-path="url(#clip1_177_9668)">
<path d="M47.188 107.372C73.2471 107.372 94.3721 86.2471 94.3721 60.188C94.3721 34.129 73.2471 13.0039 47.188 13.0039C21.129 13.0039 0.00390625 34.129 0.00390625 60.188C0.00390625 86.2471 21.129 107.372 47.188 107.372Z" fill="#51691C"/>
<path d="M60.4789 72.6949L62.8795 56.856L67.9314 72.5929H78.4079L69.8061 42.4889L54.824 45.0998L51.1309 70.6995L60.4789 72.6949Z" fill="black"/>
<path d="M47.2313 35.1455C47.2313 35.1453 45.6534 25.8859 45.3449 24.4164C45.3127 24.2626 45.2569 23.9907 45.0913 23.6702C44.478 22.4827 43.3407 22.5305 42.126 21.5761C40.7477 20.4932 40.5847 19.103 40.1464 19.194C39.8415 19.2573 39.7554 19.799 39.9963 20.8779C39.9963 20.878 39.9962 20.8781 39.9962 20.8779C39.7189 20.0793 39.2956 19.0125 38.8546 19.167C38.355 19.3727 38.7052 20.6844 38.9559 21.4676C38.6525 20.5196 38.2076 20.1063 37.9832 20.2537C37.63 20.4858 37.6941 21.2756 38.1436 22.5129L38.1436 22.513C37.5945 21.7454 37.3469 21.641 37.1803 21.8197C36.8763 22.1459 37.265 23.1561 37.7455 23.9966C38.2865 24.9427 39.0343 25.4888 39.514 25.8219C39.5141 25.822 39.5142 25.8222 39.5142 25.8223C39.9539 30.6237 40.2165 33.7128 40.5064 37.5967C40.6555 39.5951 46.7213 39.1075 47.2313 35.1455Z" fill="#FFC3B1"/>
<path d="M43.0358 22.7113C42.8098 20.9918 43.0928 20.3236 43.3664 20.2965C43.8266 20.2509 44.6205 21.64 45.2673 24.1116C44.6106 23.7772 43.6925 23.0457 43.0358 22.7113Z" fill="#FFC3B1"/>
<path d="M42.2923 25.6168C42.2361 25.6168 42.1872 25.575 42.1797 25.5177C42.142 25.2277 42.026 24.7996 41.6872 24.407C41.2075 23.8515 40.5752 23.7208 40.3256 23.6905C40.2632 23.6828 40.2188 23.6262 40.2264 23.5639C40.234 23.5015 40.2907 23.4572 40.353 23.4647C40.6289 23.4983 41.3278 23.6429 41.8593 24.2585C42.235 24.6936 42.3636 25.1675 42.4052 25.4883C42.4133 25.5506 42.3695 25.6076 42.3072 25.6158C42.3022 25.6165 42.2972 25.6168 42.2923 25.6168Z" fill="black"/>
<path d="M44.4978 23.1284C44.4727 23.1284 44.4474 23.1202 44.4263 23.1031C44.1424 22.8733 43.8011 22.7121 43.4396 22.5415C43.2651 22.4591 43.0846 22.3739 42.8982 22.2757C42.8426 22.2465 42.8213 22.1777 42.8505 22.1221C42.8797 22.0666 42.9484 22.0452 43.0041 22.0745C43.1862 22.1703 43.3643 22.2544 43.5367 22.3358C43.9108 22.5124 44.2642 22.6792 44.5694 22.9263C44.6182 22.9658 44.6257 23.0374 44.5862 23.0863C44.5638 23.114 44.5309 23.1284 44.4978 23.1284Z" fill="black"/>
<path d="M40.9613 22.2404C40.9352 22.2404 40.909 22.2315 40.8876 22.2132C40.7217 22.0718 40.5682 21.9143 40.4315 21.745C40.2332 21.4997 40.0681 21.2279 39.9407 20.9372C39.9155 20.8797 39.9417 20.8126 39.9993 20.7874C40.0571 20.7621 40.1239 20.7885 40.1491 20.8459C40.2683 21.1181 40.4229 21.3725 40.6083 21.6021C40.7363 21.7604 40.8799 21.9078 41.0352 22.0402C41.0829 22.0809 41.0886 22.1527 41.0478 22.2005C41.0254 22.2269 40.9935 22.2404 40.9613 22.2404Z" fill="black"/>
<path d="M39.8861 22.7059C39.86 22.7059 39.8338 22.697 39.8124 22.6787C39.6464 22.5371 39.4929 22.3797 39.3563 22.2105C39.158 21.9653 38.9929 21.6934 38.8656 21.4027C38.8403 21.3452 38.8665 21.2781 38.9241 21.2529C38.9818 21.2277 39.0487 21.254 39.0739 21.3114C39.1931 21.5837 39.3476 21.838 39.5331 22.0676C39.661 22.2258 39.8045 22.3732 39.96 22.5057C40.0077 22.5464 40.0134 22.6181 39.9727 22.666C39.9502 22.6924 39.9182 22.7059 39.8861 22.7059Z" fill="black"/>
<path d="M39.0785 23.8801C39.0524 23.8801 39.0262 23.8712 39.0048 23.8529C38.8388 23.7113 38.6853 23.5538 38.5486 23.3847C38.3504 23.1394 38.1853 22.8676 38.0579 22.5769C38.0327 22.5194 38.0589 22.4523 38.1165 22.4271C38.1742 22.4018 38.241 22.4282 38.2663 22.4856C38.3854 22.7579 38.54 23.0122 38.7255 23.2418C38.8534 23.4 38.9969 23.5473 39.1523 23.6799C39.2001 23.7206 39.2058 23.7923 39.1651 23.8401C39.1426 23.8665 39.1107 23.8801 39.0785 23.8801Z" fill="black"/>
<path d="M79.8579 42.9967C82.1166 37.8431 74.5255 28.9092 67.072 28.0933C64.9171 27.8575 62.748 27.624 62.748 27.624C61.6553 27.4217 55.6051 27.5292 53.2891 28.4057C46.2145 31.0831 39.9234 34.563 39.902 37.591C39.8434 45.9164 53.68 37.63 53.68 37.63L53.5403 51.9663L73.3507 54.4896L71.1537 39.8785C71.1537 39.8785 78.1091 46.9866 79.8579 42.9967Z" fill="black"/>
<path d="M66.3524 28.4733H60.6333V46.6351H66.3524V28.4733Z" fill="#F7F1EB"/>
<path d="M63.3655 46.635L61.7788 45.0483L62.623 31.732L63.9175 31.7042L64.9523 45.0483L63.3655 46.635Z" fill="black"/>
<path d="M63.2966 32.7827L65.4322 29.6995H61.1611L63.2966 32.7827Z" fill="black"/>
<path d="M67.0722 55.1617C67.0452 55.1617 67.019 55.1521 66.9983 55.1344C66.9751 55.1145 66.9608 55.0861 66.9588 55.0556L66.5935 49.582C66.5927 49.5696 66.5939 49.557 66.5971 49.545L69.8982 37.2585L67.3764 36.9703C67.3351 36.9655 67.2996 36.9386 67.284 36.9C67.2684 36.8615 67.275 36.8175 67.3014 36.7853L69.6543 33.9094L68.4635 28.3574C68.4503 28.296 68.4894 28.2356 68.5508 28.2224C68.6125 28.2093 68.6726 28.2484 68.6858 28.3097L69.8881 33.9152C69.8953 33.949 69.8868 33.9843 69.8649 34.011L67.6092 36.768L70.0552 37.0475C70.088 37.0513 70.1176 37.0692 70.1362 37.0966C70.1549 37.1239 70.1607 37.1581 70.1521 37.19L66.8216 49.5858L67.1778 54.9245L73.3408 54.3766C73.4034 54.3718 73.4585 54.4174 73.4641 54.4798C73.4697 54.5423 73.4235 54.5975 73.3609 54.6031L67.0822 55.1613C67.0789 55.1616 67.0755 55.1617 67.0722 55.1617Z" fill="white"/>
<path d="M59.9243 27.5072L63.23 26.2556L67.0723 28.0938L64.9514 31.2316L63.2625 30.0084L61.7576 31.415L59.9243 27.5072Z" fill="white"/>
<path d="M45.8594 25.8941L38.9507 27.294L39.5623 30.3124L46.471 28.9125L45.8594 25.8941Z" fill="white"/>
<path d="M39.9024 37.7676L38.9644 29.9112L46.7621 28.0937L48.1315 37.9646L39.9024 37.7676Z" fill="black"/>
<path d="M48.0717 38.2127C48.0153 38.2127 47.9664 38.1707 47.9591 38.1132L47.1772 31.9188C47.1693 31.8565 47.2134 31.7997 47.2757 31.7918C47.3383 31.7842 47.3949 31.8281 47.4028 31.8904L48.1848 38.0848C48.1926 38.1471 48.1485 38.2039 48.0862 38.2118C48.0813 38.2124 48.0765 38.2127 48.0717 38.2127Z" fill="white"/>
<path d="M66.4173 46.635H60.6333V48.8611H66.4173V46.635Z" fill="#84524D"/>
<path d="M60.476 54.8119C60.4738 54.8119 60.4716 54.8119 60.4694 54.8117L53.1309 54.3823C53.0683 54.3786 53.0204 54.3248 53.0241 54.2621C53.0277 54.1995 53.08 54.1509 53.1443 54.1553L60.3624 54.5778V51.4952L56.5161 36.7724C56.5068 36.737 56.5152 36.6994 56.5384 36.6713C56.5616 36.6431 56.597 36.6279 56.6335 36.6302L59.2166 36.7992L57.0718 34.3937C57.0474 34.3664 57.0377 34.3289 57.0458 34.2931L58.5528 27.5992C58.5666 27.538 58.6272 27.4994 58.6887 27.5133C58.7499 27.527 58.7884 27.5879 58.7747 27.6491L57.2804 34.286L59.5712 36.855C59.6018 36.8895 59.6087 36.939 59.5885 36.9805C59.5683 37.022 59.5252 37.0475 59.4789 37.0441L56.776 36.8673L60.5861 51.4517C60.5885 51.4611 60.5898 51.4707 60.5898 51.4805V54.6982C60.5898 54.7295 60.5768 54.7594 60.5541 54.7809C60.5328 54.8009 60.5049 54.8119 60.476 54.8119Z" fill="white"/>
<path d="M68.4341 50.0088L74.8313 53.361C74.8313 53.361 82.9368 40.9943 79.2519 38.828C75.2413 36.4704 68.4341 50.0088 68.4341 50.0088Z" fill="black"/>
<path d="M64.9506 24.0823C66.2932 23.3992 66.8751 21.8371 66.9714 20.2117C67.0433 18.9992 66.4174 18.1754 65.5025 18.1831C64.8729 17.1494 62.5101 16.9473 61.5153 17.6935C59.6874 19.0644 59.797 23.0071 61.8417 24.1756C63.1921 24.9472 64.8288 24.1443 64.9506 24.0823Z" fill="white"/>
<path d="M60.979 24.2763C61.3703 24.1244 61.5027 23.5255 61.2748 22.9386C61.0469 22.3518 60.545 21.9992 60.1537 22.1511C59.7625 22.303 59.6301 22.902 59.858 23.4888C60.0859 24.0757 60.5878 24.4283 60.979 24.2763Z" fill="#FFC3B1"/>
<path d="M66.8398 23.8168C67.1219 23.254 67.0464 22.6453 66.6712 22.4572C66.296 22.2691 65.7631 22.5729 65.481 23.1357C65.1989 23.6985 65.2744 24.3072 65.6496 24.4953C66.0248 24.6834 66.5577 24.3796 66.8398 23.8168Z" fill="#FFC3B1"/>
<path d="M66.2207 24.105C66.1812 24.105 66.1429 24.0845 66.1219 24.0476C66.0908 23.9931 66.1098 23.9237 66.1644 23.8926C66.2645 23.8354 66.3578 23.7311 66.4204 23.6063C66.4829 23.4816 66.5106 23.3445 66.4964 23.23C66.4893 23.1725 66.4647 23.0699 66.3803 23.0276C66.3686 23.0217 66.356 23.0172 66.3432 23.0143C66.282 23.0004 66.2436 22.9394 66.2576 22.8781C66.2715 22.817 66.3329 22.7786 66.3937 22.7925C66.4242 22.7995 66.454 22.8102 66.4822 22.8243C66.615 22.8908 66.7002 23.025 66.7221 23.202C66.742 23.3622 66.707 23.542 66.6237 23.7083C66.5403 23.8746 66.4172 24.0101 66.277 24.0901C66.2592 24.1003 66.2399 24.105 66.2207 24.105Z" fill="black"/>
<path d="M60.4761 23.8342C60.4535 23.8342 60.4307 23.8275 60.4108 23.8135C60.2788 23.7208 60.1689 23.5743 60.1016 23.4008C59.9542 23.0209 60.0524 22.6402 60.3255 22.5341C60.3548 22.5227 60.3855 22.515 60.4167 22.5108C60.4785 22.5028 60.536 22.5465 60.5442 22.6088C60.5523 22.6711 60.5084 22.7282 60.4462 22.7363C60.433 22.738 60.4201 22.7413 60.4079 22.746C60.2588 22.8039 60.2156 23.0661 60.3136 23.3186C60.3642 23.4486 60.4472 23.5613 60.5416 23.6275C60.5929 23.6636 60.6053 23.7345 60.5692 23.7858C60.5471 23.8173 60.5119 23.8342 60.4761 23.8342Z" fill="black"/>
<path d="M63.2625 30.0081H63.2625L61.4623 28.0191L61.312 24.7543L65.1491 24.5895L65.2974 27.8578L63.2625 30.0081Z" fill="#FFC3B1"/>
<path d="M66.0598 22.3392C65.9899 23.8232 65.1133 26.1358 63.211 26.0462C61.3086 25.9566 60.6533 23.5718 60.7233 22.0878C60.761 21.2864 60.9463 19.9461 61.5251 19.5843C62.0182 19.276 62.9034 20.1113 63.5813 20.1432C64.3181 20.1779 65.0026 19.389 65.4596 19.8006C65.9167 20.2123 66.0948 21.5971 66.0598 22.3392Z" fill="#FFC3B1"/>
<path d="M63.1995 26.8988C66.284 26.9213 66.1324 21.7808 66.1324 21.7808L60.6736 21.8786C60.6736 21.8786 60.2086 26.877 63.1995 26.8988Z" fill="white"/>
<path d="M60.71 22.1615C60.7115 23.8747 61.8146 23.0263 63.2727 23.025C64.7307 23.0237 66.0931 23.9126 66.0916 22.1994C66.0901 20.4862 64.9631 20.5026 63.505 20.5039C62.0469 20.5052 60.7084 20.4482 60.71 22.1615Z" fill="#FFC3B1"/>
<path d="M65.8979 21.6131C65.8979 21.6131 65.7661 21.8122 65.532 22.0076C65.3763 22.1375 64.886 22.1308 64.886 22.1308C64.886 22.1308 64.3415 22.3893 64.1172 22.3405C63.8927 22.2918 63.7427 22.2219 63.7427 22.2219C63.7427 22.2219 63.815 22.1127 63.9478 21.9765C64.1132 21.8068 64.8044 21.781 64.8044 21.781C64.8044 21.781 65.2567 21.4424 65.4746 21.4845C65.7259 21.5331 65.8979 21.6131 65.8979 21.6131Z" fill="white"/>
<path d="M64.7026 21.5023C64.3735 21.5953 64.1152 21.8053 63.9497 21.9747C63.974 22.1091 64.0315 22.2353 64.1169 22.3407C64.3412 22.3894 64.6398 22.4172 64.9374 22.3331C65.1768 22.2655 65.3781 22.1358 65.5343 22.0049C65.5741 21.8243 65.5498 21.6427 65.4751 21.4853C65.2569 21.443 64.9797 21.4241 64.7026 21.5023Z" fill="black"/>
<path d="M60.9805 21.3815C60.9805 21.3815 61.1096 21.6233 61.3554 21.8552C61.4915 21.9836 61.9513 21.9443 61.9513 21.9443C61.9513 21.9443 62.4205 22.3001 62.6425 22.2778C62.8934 22.2526 63.0688 22.1902 63.0688 22.1902C63.0688 22.1902 63.0084 22.077 62.8915 21.9313C62.7429 21.7461 62.097 21.6179 62.097 21.6179C62.097 21.6179 61.6283 21.2716 61.4062 21.294C61.1557 21.3193 60.9805 21.3815 60.9805 21.3815Z" fill="white"/>
<path d="M62.8923 21.9328C62.7439 21.7474 62.5039 21.5088 62.1805 21.3836C61.9105 21.2791 61.631 21.2724 61.4094 21.2944C61.3355 21.4476 61.3084 21.6248 61.3445 21.8043C61.3481 21.8223 61.3532 21.8396 61.3579 21.8571C61.4936 21.9849 61.6641 22.1094 61.8687 22.1886C62.1387 22.2932 62.4181 22.2999 62.6399 22.2778C62.7536 22.1874 62.8407 22.0679 62.8923 21.9328Z" fill="black"/>
<path d="M63.4404 23.3884C63.398 23.3884 63.3573 23.3646 63.3378 23.3237C63.3107 23.2671 63.3347 23.1992 63.3914 23.1722C63.483 23.1284 63.5384 23.0803 63.5472 23.0367C63.5525 23.01 63.5402 22.9833 63.5061 22.9192C63.4774 22.8651 63.4416 22.7978 63.417 22.7072C63.381 22.5744 63.3801 22.4329 63.4143 22.2865C63.4286 22.2252 63.4897 22.1871 63.5508 22.2016C63.612 22.2159 63.65 22.2771 63.6357 22.3382C63.6101 22.4475 63.6104 22.5516 63.6364 22.6477C63.6543 22.7136 63.6811 22.7639 63.7068 22.8125C63.7487 22.8913 63.792 22.9728 63.77 23.0818C63.746 23.2005 63.6516 23.3 63.4893 23.3774C63.4735 23.3849 63.4569 23.3884 63.4404 23.3884Z" fill="black"/>
<path d="M63.2603 23.9767C63.0906 23.9767 62.9149 23.8883 62.8062 23.7461C62.7357 23.6539 62.6958 23.5431 62.6939 23.4341C62.6927 23.3713 62.7428 23.3196 62.8056 23.3184C62.8655 23.3178 62.9201 23.3673 62.9213 23.4301C62.9224 23.4909 62.9456 23.554 62.9868 23.6079C63.0559 23.6983 63.1725 23.754 63.2752 23.7489C63.3361 23.7437 63.3917 23.7929 63.3954 23.8556C63.3991 23.9183 63.3513 23.9721 63.2886 23.9758C63.2792 23.9764 63.2697 23.9767 63.2603 23.9767Z" fill="white"/>
<path d="M65.3821 19.4338C65.3456 19.4338 65.3098 19.4163 65.2879 19.3838C65.1453 19.1735 64.9753 18.9915 64.7824 18.8428C63.7115 18.0175 62.2479 18.4182 61.8249 18.5608C61.7649 18.5809 61.7009 18.5488 61.6808 18.4893C61.6607 18.4298 61.6927 18.3653 61.7522 18.3452C62.2023 18.1937 63.7611 17.7685 64.9212 18.6627C65.1333 18.8262 65.3199 19.0259 65.476 19.2563C65.5113 19.3082 65.4977 19.3789 65.4457 19.4142C65.4262 19.4275 65.404 19.4338 65.3821 19.4338Z" fill="#D3BBA3"/>
<path d="M61.2383 19.5877C61.1992 19.5877 61.161 19.5674 61.1399 19.5311C61.1084 19.4768 61.1268 19.4073 61.1811 19.3757C61.6341 19.1124 63.2281 18.2965 64.7203 18.8534C64.9937 18.9555 65.2489 19.0992 65.4787 19.2807C65.528 19.3197 65.5364 19.3911 65.4974 19.4404C65.4585 19.4897 65.387 19.498 65.3378 19.4591C65.1266 19.2923 64.892 19.1602 64.6409 19.0665C63.242 18.5444 61.7265 19.3217 61.2954 19.5723C61.2773 19.5828 61.2577 19.5877 61.2383 19.5877Z" fill="#D3BBA3"/>
<path d="M62.8005 36.651L61.2323 38.1984C60.709 38.7148 59.8663 38.7092 59.3499 38.1859C58.8336 37.6627 58.8392 36.8199 59.3625 36.3035L60.9306 34.7561C61.4539 34.2398 62.2966 34.2454 62.813 34.7686L62.813 34.7687C63.3293 35.2919 63.3238 36.1346 62.8005 36.651Z" fill="#D87355"/>
<path d="M55.5694 59.6055C55.5096 59.6055 55.4594 59.5588 55.456 59.4983L54.5138 42.8288C54.512 42.7953 54.525 42.7627 54.5494 42.7396L61.078 36.5895C61.1235 36.5466 61.1955 36.5485 61.2387 36.5943C61.2817 36.64 61.2796 36.712 61.2338 36.7551L54.7439 42.8689L55.6831 59.4854C55.6866 59.5482 55.6387 59.6019 55.576 59.6054C55.5738 59.6055 55.5716 59.6055 55.5694 59.6055Z" fill="#D87355"/>
<path d="M67.2462 36.6439L68.8144 38.1914C69.3377 38.7078 70.1805 38.7021 70.6968 38.1789C71.2131 37.6556 71.2076 36.8129 70.6843 36.2965L69.1161 34.7491C68.5929 34.2327 67.7501 34.2384 67.2337 34.7616L67.2337 34.7617C66.7174 35.2849 66.723 36.1276 67.2462 36.6439Z" fill="#D87355"/>
<path d="M74.4771 59.5985C74.4749 59.5985 74.4727 59.5985 74.4705 59.5984C74.4079 59.5948 74.3599 59.5411 74.3634 59.4784L75.3026 42.8618L68.8126 36.748C68.7669 36.7049 68.7648 36.633 68.8078 36.5873C68.8509 36.5415 68.9229 36.5395 68.9685 36.5824L75.4971 42.7325C75.5215 42.7556 75.5346 42.7882 75.5327 42.8218L74.5905 59.4912C74.5871 59.5517 74.5369 59.5985 74.4771 59.5985Z" fill="#D87355"/>
<path d="M80.3219 47.868H50.5381V99.5792H80.3219V47.868Z" fill="#E6D0BE"/>
<path d="M81.4949 46.6836H49.0142V50.5647H81.4949V46.6836Z" fill="#D3BBA3"/>
<path d="M80.6423 51.0198H48.1616C48.0988 51.0198 48.0479 50.9689 48.0479 50.9061V47.025C48.0479 46.9621 48.0988 46.9113 48.1616 46.9113H80.6423C80.7051 46.9113 80.756 46.9621 80.756 47.025V50.9061C80.756 50.9689 80.7051 51.0198 80.6423 51.0198ZM48.2753 50.7924H80.5286V47.1387H48.2753V50.7924Z" fill="black"/>
<path d="M50.4487 65.8111C50.3859 65.8111 50.335 65.7601 50.335 65.6973V50.9168C50.335 50.854 50.3859 50.8031 50.4487 50.8031C50.5115 50.8031 50.5624 50.854 50.5624 50.9168V65.6973C50.5624 65.7601 50.5115 65.8111 50.4487 65.8111Z" fill="black"/>
<path d="M80.3507 67.5733C80.2881 67.5733 80.2373 67.5227 80.237 67.46L80.1802 50.9172C80.18 50.8544 80.2307 50.8033 80.2935 50.8031C80.3524 50.8055 80.4073 50.8536 80.4075 50.9164L80.4644 67.4592C80.4646 67.5221 80.4138 67.5731 80.3511 67.5733C80.351 67.5733 80.3508 67.5733 80.3507 67.5733Z" fill="black"/>
<path d="M16.5725 106.939H31.8487L30.4421 101.099H24.4574L20.1297 102.419C18.0088 102.994 16.5529 104.844 16.5725 106.939Z" fill="#40484C"/>
<path d="M2.90986 106.939H18.1861L16.7795 101.099H10.7948L6.46713 102.419C4.34617 102.994 2.89027 104.844 2.90986 106.939Z" fill="#40484C"/>
<path d="M8.8054 60.1214C8.17493 61.7785 7.75244 102.26 7.75244 102.26L17.1815 102.609C17.1815 102.609 16.9411 81.961 17.0286 73.5756C18.1862 80.4521 21.2747 100.338 21.8379 102.027C24.8412 101.934 28.1472 102.47 31.1506 102.377C27.9567 88.2435 25.1708 68.4601 22.8006 58.0566C19.0464 58.7449 12.5596 59.4332 8.8054 60.1214Z" fill="black"/>
<path d="M24.2171 68.3124C22.8037 68.3124 21.6538 67.1625 21.6538 65.7492C21.6538 65.6864 21.7047 65.6355 21.7675 65.6355C21.8303 65.6355 21.8812 65.6864 21.8812 65.7492C21.8812 67.0372 22.9291 68.085 24.2172 68.085C24.28 68.085 24.3309 68.1359 24.3309 68.1987C24.3308 68.2615 24.2799 68.3124 24.2171 68.3124Z" fill="white"/>
<path d="M24.2646 65.0594L8.42188 65.1254L8.53832 63.1755L23.8622 63.2675L24.2646 65.0594Z" fill="#40484C"/>
<path d="M18.093 65.5145H15.893C15.8302 65.5145 15.7793 65.4636 15.7793 65.4008V62.9676C15.7793 62.9048 15.8302 62.8539 15.893 62.8539H18.093C18.1558 62.8539 18.2067 62.9048 18.2067 62.9676V65.4008C18.2067 65.4636 18.1558 65.5145 18.093 65.5145ZM16.0067 65.2871H17.9793V63.0813H16.0067V65.2871Z" fill="#FFB244"/>
<path d="M41.0911 49.3705C41.6602 49.0545 42.5734 48.4874 42.3966 48.0979C42.2259 47.7698 41.4033 48.1559 40.8104 48.4664C40.8103 48.4664 40.8102 48.4663 40.8103 48.4662C41.5342 47.9743 41.7781 47.615 41.6365 47.4132C41.4329 47.1232 40.5853 47.8369 39.203 47.7147C37.9846 47.607 37.3543 46.9628 36.3565 47.3156C36.0873 47.4108 35.9077 47.5375 35.8057 47.6087C34.8669 48.2645 30.2264 51.9228 29.899 52.1699C28.5245 53.2072 33.9485 55.3857 34.9385 54.588C37.2352 52.7373 37.519 52.3886 38.4082 51.5806C38.4084 51.5805 38.4085 51.5805 38.4086 51.5805C38.866 51.6483 39.5935 51.7385 40.4186 51.4859C41.1515 51.2614 41.9234 50.8892 41.9248 50.5361C41.9256 50.3427 41.7261 50.2687 40.9931 50.414C41.9232 49.9438 42.3884 49.5227 42.3104 49.1974C42.2608 48.9907 41.78 48.988 41.0911 49.3705Z" fill="white"/>
<path d="M38.0624 47.8763C39.1249 47.0065 39.3239 46.4677 39.1807 46.3037C38.9399 46.0279 37.7287 46.3991 36.0156 47.4747C36.5758 47.6377 37.5022 47.7133 38.0624 47.8763Z" fill="white"/>
<path d="M38.4703 47.6405C38.4623 47.6405 38.4542 47.6397 38.4462 47.6379C37.9511 47.5311 37.3702 47.4561 37.0399 47.4316C36.9773 47.427 36.9302 47.3725 36.9349 47.3099C36.9395 47.2472 36.9951 47.1995 37.0566 47.2049C37.3946 47.2298 37.9885 47.3065 38.4941 47.4156C38.5555 47.4289 38.5946 47.4894 38.5813 47.5507C38.5698 47.6041 38.5226 47.6405 38.4703 47.6405Z" fill="black"/>
<path d="M39.7671 48.7834C39.6965 48.7834 39.6308 48.7802 39.5711 48.7774C39.5083 48.7743 39.46 48.721 39.463 48.6583C39.466 48.5955 39.5194 48.5488 39.5821 48.5502C39.7226 48.557 39.8819 48.5647 40.0547 48.5301C40.2707 48.487 40.6024 48.3685 40.9203 48.221C40.9771 48.1947 41.0448 48.2193 41.0713 48.2763C41.0977 48.3333 41.0729 48.4009 41.016 48.4273C40.6779 48.5842 40.3352 48.706 40.0993 48.7531C39.9808 48.7767 39.8689 48.7834 39.7671 48.7834Z" fill="black"/>
<path d="M39.9867 49.6295C39.9694 49.6295 39.9536 49.6292 39.9393 49.6285C39.8766 49.6255 39.8282 49.5722 39.8312 49.5095C39.8342 49.4468 39.8887 49.3995 39.9502 49.4013C40.076 49.4074 40.4111 49.3766 40.5952 49.3356C40.7372 49.304 40.9178 49.2439 41.1473 49.152C41.2059 49.1286 41.2718 49.157 41.2951 49.2152C41.3185 49.2735 41.2902 49.3397 41.2319 49.3631C40.9908 49.4597 40.7987 49.5233 40.6446 49.5575C40.4701 49.5963 40.1598 49.6295 39.9867 49.6295Z" fill="black"/>
<path d="M39.9039 50.7478C39.8588 50.7478 39.8135 50.7467 39.7684 50.7445C39.7057 50.7415 39.6573 50.6882 39.6603 50.6255C39.6633 50.5628 39.7172 50.5163 39.7793 50.5174C39.9395 50.5251 40.1008 50.5179 40.2587 50.4961C40.4107 50.4752 40.6997 50.4252 40.9279 50.326C40.9853 50.3008 41.0524 50.3273 41.0775 50.3849C41.1025 50.4424 41.0761 50.5094 41.0186 50.5344C40.7655 50.6445 40.4533 50.6988 40.2898 50.7214C40.1625 50.739 40.0332 50.7478 39.9039 50.7478Z" fill="black"/>
<path d="M4.67545 49.6285C3.29283 52.0315 -2.02175 59.766 0.906653 61.6805C3.23677 63.2039 7.99695 55.8518 9.52458 53.5546C7.88717 52.4144 6.31292 50.7687 4.67545 49.6285Z" fill="white"/>
<path d="M0.618652 56.8751C0.618652 56.8751 4.39813 48.1218 6.95288 45.9306C8.97999 44.1919 13.349 43.5071 17.4698 43.5824C23.0489 43.6844 25.586 46.034 25.586 46.034L30.2288 51.6228L34.8223 48.3088L37.6189 52.324C37.6189 52.324 32.7616 57.6917 30.5767 58.0751C27.4078 58.6311 23.3854 55.5296 23.3854 55.5296L24.3312 62.9195C24.3825 63.3206 24.0725 63.6766 23.6681 63.6808L8.66728 63.8363C8.10381 63.8421 7.67611 63.3305 7.78166 62.777L9.22163 55.2257L7.3962 57.3271L0.618652 56.8751Z" fill="black"/>
<path d="M22.9317 45.3022C22.9255 45.3022 22.9192 45.3017 22.9129 45.3007L19.6335 44.7506C19.5969 44.7445 19.5656 44.7209 19.5496 44.6874C19.5336 44.6539 19.5351 44.6147 19.5534 44.5824L20.0014 43.7929C20.0251 43.7513 20.0728 43.7292 20.1195 43.737L23.4289 44.3058C23.4661 44.3122 23.4978 44.3367 23.5133 44.3712C23.5288 44.4056 23.5261 44.4456 23.5062 44.4777L23.0284 45.2484C23.0074 45.2823 22.9706 45.3022 22.9317 45.3022ZM19.8314 44.5532L22.8753 45.0638L23.2241 44.5013L20.1597 43.9747L19.8314 44.5532Z" fill="white"/>
<path d="M9.33913 45.5702C9.3002 45.5702 9.26348 45.5502 9.2425 45.5164L8.76462 44.7457C8.74467 44.7136 8.74209 44.6736 8.75756 44.6391C8.77308 44.6046 8.80474 44.5802 8.84197 44.5738L12.1513 44.0051C12.1982 43.9971 12.2457 44.0193 12.2694 44.061L12.7174 44.8504C12.7357 44.8828 12.7372 44.9219 12.7212 44.9554C12.7052 44.9889 12.6739 45.0125 12.6373 45.0187L9.3579 45.5687C9.35161 45.5697 9.34537 45.5702 9.33913 45.5702ZM9.0468 44.7693L9.39555 45.3317L12.4395 44.8212L12.1111 44.2426L9.0468 44.7693Z" fill="white"/>
<path d="M35.22 53.0414C35.1852 53.0414 35.1507 53.0254 35.1284 52.9952L32.7654 49.7949C32.7281 49.7443 32.7388 49.6731 32.7893 49.6358C32.8398 49.5986 32.9111 49.6094 32.9483 49.6598L35.3114 52.8601C35.3486 52.9107 35.338 52.9819 35.2875 53.0192C35.2672 53.0342 35.2434 53.0414 35.22 53.0414Z" fill="white"/>
<path d="M10.6866 65.6751L10.3905 65.5345C9.91469 65.3084 9.71218 64.7396 9.93815 64.2637L18.0195 47.2492C18.2455 46.7734 18.8144 46.5709 19.2902 46.7969L19.5863 46.9375C20.0621 47.1635 20.2646 47.7324 20.0386 48.2082L11.9573 65.2227C11.7314 65.6986 11.1624 65.9011 10.6866 65.6751Z" fill="#84524D"/>
<path d="M19.104 58.4782L14.7162 58.4222C14.3237 58.4172 14.0097 58.095 14.0147 57.7026L14.0151 57.6687C14.0201 57.2763 14.3423 56.9622 14.7347 56.9672L19.1226 57.0233C19.515 57.0283 19.8291 57.3505 19.8241 57.7429L19.8237 57.7768C19.8187 58.1692 19.4965 58.4833 19.104 58.4782Z" fill="#84524D"/>
<path d="M10.6524 57.8571C13.2151 58.5056 12.076 58.1273 12.6677 58.2709C13.7738 58.5395 16.1469 59.0463 16.1229 59.8269C16.115 60.0866 15.9301 60.332 15.6552 60.4767C15.8737 60.7282 15.923 61.0811 15.7811 61.3669C15.5946 61.7425 15.1795 61.7978 15.149 61.8013C15.3424 61.9722 15.4369 62.2232 15.384 62.4522C15.3111 62.7682 14.9665 63.0037 14.5777 62.9518C14.6018 63.0209 14.6791 63.2698 14.5629 63.5291C14.4342 63.8164 14.1199 64.0003 13.7671 63.993C12.7842 63.7551 11.1607 63.6029 9.26836 63.3155C4.88756 62.6501 8.95792 58.6511 10.6524 57.8571Z" fill="white"/>
<path d="M14.4776 59.9099C14.4663 59.9099 14.4548 59.9082 14.4435 59.9046C14.3836 59.8859 14.3502 59.822 14.369 59.7621L14.5189 59.2842C14.5376 59.2243 14.6014 59.191 14.6614 59.2098C14.7213 59.2285 14.7546 59.2924 14.7358 59.3523L14.586 59.8302C14.5708 59.8787 14.5259 59.9099 14.4776 59.9099Z" fill="black"/>
<path d="M14.0992 61.1238C14.0879 61.1238 14.0764 61.1221 14.0651 61.1185C14.0051 61.0997 13.9718 61.0359 13.9906 60.976L14.1405 60.498C14.1592 60.438 14.2231 60.4048 14.283 60.4236C14.3429 60.4423 14.3763 60.5062 14.3575 60.5661L14.2076 61.044C14.1924 61.0926 14.1475 61.1238 14.0992 61.1238Z" fill="black"/>
<path d="M13.7271 62.3632C13.7158 62.3632 13.7043 62.3615 13.693 62.3579C13.6331 62.3392 13.5997 62.2754 13.6185 62.2155L13.7683 61.7376C13.7871 61.6776 13.8509 61.6443 13.9108 61.6631C13.9708 61.6818 14.0041 61.7456 13.9853 61.8055L13.8355 62.2834C13.8203 62.3321 13.7755 62.3632 13.7271 62.3632Z" fill="black"/>
<path d="M13.3667 63.4801C13.3554 63.4801 13.344 63.4784 13.3326 63.4748C13.2727 63.4561 13.2394 63.3922 13.2582 63.3324L13.408 62.8544C13.4268 62.7945 13.4905 62.7612 13.5506 62.78C13.6105 62.7987 13.6439 62.8626 13.625 62.9225L13.4752 63.4004C13.46 63.449 13.4151 63.4801 13.3667 63.4801Z" fill="black"/>
<path d="M7.49763 57.2108L11.3055 58.0028L9.76242 63.4428L1.78454 62.1665C0.779285 62.0056 0.0398091 61.1394 0.0396029 60.1225L0.0395509 59.9334C0.0393447 58.834 0.256082 57.7454 0.677284 56.7297L7.49763 57.2108Z" fill="black"/>
<path d="M7.38977 63.0991C7.38048 63.0991 7.37115 63.098 7.36182 63.0956C7.30092 63.0803 7.26399 63.0185 7.27936 62.9576L8.2052 59.2917C8.22062 59.2307 8.28286 59.1943 8.34325 59.2092C8.40415 59.2246 8.44107 59.2864 8.4257 59.3473L7.49986 63.0132C7.48687 63.0648 7.44056 63.0991 7.38977 63.0991Z" fill="white"/>
<path d="M45.1447 49.5109C45.3384 48.6633 43.3253 47.4801 40.6483 46.8683C37.9713 46.2565 35.6441 46.4478 35.4504 47.2954C35.2567 48.1431 37.2698 49.3262 39.9468 49.938C42.6238 50.5498 44.951 50.3586 45.1447 49.5109Z" fill="#D67A00"/>
<path d="M45.4991 47.9866L35.8047 45.7711L35.4433 47.3525L45.1377 49.568L45.4991 47.9866Z" fill="#D67A00"/>
<path d="M45.487 48.0115C45.6807 47.1638 43.6676 45.9807 40.9906 45.3689C38.3136 44.7571 35.9864 44.9483 35.7927 45.796C35.5989 46.6436 37.612 47.8268 40.2891 48.4386C42.9661 49.0504 45.2933 48.8591 45.487 48.0115Z" fill="#FFB244"/>
<path d="M43.7427 49.0456C42.9012 49.0456 41.9003 48.9284 40.8351 48.6849C38.055 48.0495 36.0425 46.8288 36.2534 45.906C36.4645 44.9833 38.8076 44.7582 41.5875 45.3937C44.3675 46.0292 46.38 47.2498 46.1691 48.1726C46.039 48.7419 45.0974 49.0456 43.7427 49.0456ZM38.6676 45.2573C37.3917 45.2573 36.5718 45.534 36.4751 45.9567C36.3179 46.6444 38.0527 47.8157 40.8857 48.4633C43.7187 49.111 45.79 48.8097 45.9474 48.122C46.1046 47.4343 44.3697 46.263 41.5368 45.6154C40.4455 45.366 39.467 45.2573 38.6676 45.2573Z" fill="white"/>
<path d="M13.6813 41.6227C14.3683 42.2659 16.7153 41.0914 16.7153 41.0914L18.2931 38.6879C18.4712 37.376 17.5521 36.1681 16.2401 35.99C14.9281 35.812 13.7201 36.731 13.5421 38.043C13.5421 38.043 12.9815 40.9676 13.6813 41.6227Z" fill="white"/>
<path d="M17.5333 44.4098C16.2599 45.1044 15.1466 45.0258 14.1841 44.2188L14.9994 38.2135L18.2968 38.6611L17.5333 44.4098Z" fill="white"/>
<path d="M13.7303 38.7047C13.7303 38.7047 12.9692 39.3123 12.9796 39.5014C12.9921 39.7271 13.716 39.962 13.716 39.962C13.716 39.962 13.7123 38.7039 13.7303 38.7047Z" fill="white"/>
<path d="M14.5096 41.9317C14.4504 41.9317 14.4005 41.8859 14.3963 41.826C14.3919 41.7634 14.4391 41.709 14.5017 41.7046C15.5693 41.6298 16.6293 41.0056 16.6399 40.9993C16.694 40.9673 16.7636 40.985 16.7957 41.0388C16.8278 41.0928 16.8102 41.1626 16.7563 41.1946C16.7112 41.2215 15.6403 41.8527 14.5176 41.9314C14.515 41.9316 14.5123 41.9317 14.5096 41.9317Z" fill="black"/>
<path d="M14.1582 40.4969C14.1269 40.4969 14.0959 40.4841 14.0734 40.459C14.0315 40.4122 14.0356 40.3403 14.0823 40.2984C14.3576 40.0524 14.5443 40.0376 14.7923 40.0964C14.8534 40.1109 14.8912 40.1722 14.8767 40.2333C14.8622 40.2944 14.8007 40.3318 14.7399 40.3177C14.574 40.2783 14.461 40.2647 14.2338 40.4679C14.2122 40.4874 14.1852 40.4969 14.1582 40.4969Z" fill="black"/>
<path d="M16.1463 38.7607C16.1463 38.7607 15.7423 38.4671 15.2169 38.3958C15.1051 38.3807 15.1945 39.3038 15.3075 39.2675C15.8043 39.1082 16.1463 38.7607 16.1463 38.7607Z" fill="white"/>
<path d="M14.8676 38.3852C14.9872 38.3753 15.104 38.3806 15.2154 38.3957C15.4012 38.6584 15.4268 38.9887 15.3078 39.267C15.1946 39.3033 15.0735 39.33 14.9465 39.3405C14.2622 39.3971 13.668 38.9653 13.668 38.9653C13.668 38.9653 14.1832 38.4418 14.8676 38.3852Z" fill="black"/>
<path d="M16.838 40.2719C16.7849 40.2719 16.7373 40.2345 16.7265 40.1804C16.7143 40.1188 16.7543 40.059 16.8159 40.0467C17.1706 39.9763 17.4679 39.7146 17.573 39.3802C17.6546 39.121 17.5921 38.789 17.3491 38.7044C17.1704 38.6423 16.9092 38.7419 16.7544 38.9309C16.7147 38.9796 16.6431 38.9866 16.5944 38.9469C16.5458 38.9072 16.5387 38.8355 16.5784 38.7869C16.7932 38.5246 17.1565 38.3968 17.4237 38.4896C17.8006 38.6207 17.9058 39.08 17.79 39.4485C17.6602 39.8609 17.2953 40.1833 16.8601 40.2698C16.8528 40.2712 16.8453 40.2719 16.838 40.2719Z" fill="black"/>
<path d="M16.8907 39.7198C16.839 39.7198 16.7922 39.6843 16.78 39.6318C16.7658 39.5707 16.8039 39.5095 16.8651 39.4954C16.9444 39.477 17.0092 39.4166 17.0302 39.3415C17.0428 39.2963 17.0317 39.2427 17.0083 39.2354C16.9922 39.2302 16.9455 39.2445 16.9163 39.2825C16.8781 39.3324 16.8067 39.3418 16.7569 39.3036C16.7071 39.2654 16.6977 39.194 16.7359 39.1442C16.8191 39.0356 16.962 38.9827 17.076 39.0183C17.2376 39.0688 17.2909 39.2534 17.2491 39.4027C17.2061 39.5567 17.0756 39.68 16.9165 39.7169C16.9079 39.7188 16.8992 39.7198 16.8907 39.7198Z" fill="black"/>
<path d="M13.531 36.6095L13.4746 35.5324C13.4746 35.5324 15.6366 36.3418 16.2936 36.673C16.9357 36.9967 18.7221 38.1494 18.7221 38.1494L18.249 38.9469L13.531 36.6095Z" fill="#D87355"/>
<path d="M19.8591 37.4423L18.7222 38.1491C18.7222 38.1491 15.78 36.1707 13.4807 35.6675L13.0997 33.9829C13.0708 33.849 13.2034 33.7211 13.365 33.7385C14.5639 33.8679 17.632 34.8221 19.9746 37.0965C20.0782 37.1972 19.9879 37.3621 19.8591 37.4423Z" fill="black"/>
<path d="M13.534 36.6082C13.534 36.6082 12.8683 36.6385 12.6589 36.6467C12.3313 36.6597 11.9019 36.7497 11.8367 36.9428C11.7885 37.086 11.6866 37.2195 12.7216 37.4785C14.2915 37.8713 18.261 38.9454 18.261 38.9454C18.261 38.9454 16.4155 37.9654 15.7844 37.6533C15.2338 37.381 13.534 36.6082 13.534 36.6082Z" fill="black"/>
<path d="M16.25 44.9111L17.7245 42.9322L18.811 43.7471L18.6558 45.5708L16.25 44.9111Z" fill="black"/>
<path d="M16.0558 44.9109L14.232 43.126L13.2231 44.2125L14.0768 45.6482L16.0558 44.9109Z" fill="black"/>
<path d="M94.1907 78.41C92.349 76.8619 90.8649 75.6263 90.2281 75.1241C89.9743 74.9238 89.5278 74.5684 88.8441 74.2809C86.3107 73.2156 84.5803 74.9165 81.404 74.8859C80.6578 74.8787 75.8819 72.6707 75.1399 73.7369C74.7742 74.2624 75.3205 75.207 77.1231 76.5918C77.1232 76.5919 77.1231 76.5923 77.1229 76.5922C75.6324 75.6974 73.558 74.5722 73.0659 75.3973C72.5488 76.3805 73.9092 77.4944 75.2701 78.3611C73.7185 77.3728 73.2831 77.7325 73.1235 78.2609C72.872 79.0927 74.0145 80.2546 76.3551 81.6143C76.3552 81.6144 76.3551 81.6146 76.355 81.6146C74.4766 81.1271 73.9483 81.2889 73.921 81.7903C73.8712 82.706 75.8165 83.7877 77.6828 84.4803C79.7838 85.2601 81.6837 85.1359 82.8798 85.0291C82.8801 85.0291 82.8804 85.0292 82.8807 85.0294C87.3718 89.5033 90.8255 92.9678 94.1907 96.387L94.1907 78.41Z" fill="#D38C79"/>
<path d="M84.3365 75.4779C81.7129 73.0623 81.2785 71.6351 81.6745 71.2315C82.3406 70.5529 85.4246 71.6983 89.7037 74.7456C88.2266 75.0837 85.8134 75.1398 84.3365 75.4779Z" fill="#D38C79"/>
<path d="M86.2304 79.8353C84.9319 79.8353 83.6039 77.4694 83.3827 74.7535C83.3776 74.6909 83.4242 74.6361 83.4868 74.6309C83.5497 74.6253 83.6042 74.6725 83.6093 74.735C83.8372 77.5326 85.1782 79.6079 86.231 79.6079C86.2359 79.6079 86.2405 79.6075 86.2453 79.6078C86.3073 79.6078 86.3579 79.6575 86.359 79.7197C86.3599 79.7825 86.3098 79.8341 86.2471 79.8351C86.2415 79.8352 86.2359 79.8353 86.2304 79.8353Z" fill="black"/>
<path d="M80.2921 77.4045C80.2917 77.4045 80.2914 77.4045 80.291 77.4045C79.8498 77.4 79.4075 77.3545 78.9762 77.2693C78.3502 77.1457 77.7415 76.9378 77.167 76.6517C77.1108 76.6237 77.088 76.5554 77.116 76.4993C77.1439 76.4431 77.212 76.4201 77.2684 76.4482C77.8247 76.7253 78.4142 76.9265 79.0203 77.0462C79.4379 77.1287 79.8662 77.1728 80.2933 77.1772C80.3561 77.1778 80.4065 77.2293 80.4058 77.292C80.4052 77.3544 80.3544 77.4045 80.2921 77.4045Z" fill="black"/>
<path d="M79.2091 79.5567C79.2087 79.5567 79.2084 79.5567 79.2079 79.5567C78.7669 79.5522 78.3245 79.5068 77.8932 79.4216C77.2673 79.2979 76.6586 79.0901 76.084 78.804C76.0278 78.776 76.0049 78.7078 76.0329 78.6516C76.0608 78.5955 76.1289 78.5724 76.1854 78.6005C76.7418 78.8776 77.3313 79.0788 77.9373 79.1985C78.3549 79.281 78.7832 79.325 79.2103 79.3294C79.2731 79.3301 79.3235 79.3815 79.3228 79.4443C79.3222 79.5066 79.2714 79.5567 79.2091 79.5567Z" fill="black"/>
<path d="M79.4831 82.4749C79.4827 82.4749 79.4823 82.4749 79.4819 82.4749C79.0409 82.4704 78.5984 82.4249 78.1671 82.3397C77.5412 82.216 76.9325 82.0083 76.3579 81.7221C76.3018 81.6941 76.2789 81.6259 76.3069 81.5697C76.3348 81.5135 76.403 81.4905 76.4593 81.5186C77.0157 81.7957 77.6051 81.9969 78.2111 82.1167C78.6288 82.1992 79.0571 82.2432 79.4842 82.2475C79.5471 82.2482 79.5974 82.2996 79.5968 82.3624C79.5962 82.4247 79.5454 82.4749 79.4831 82.4749Z" fill="black"/>
<path d="M93.5244 105.947L94.1368 92.6734C91.8516 88.3469 89.7217 84.3432 89.0052 83.0944C88.8443 82.814 88.5625 82.3177 88.0352 81.796C86.0815 79.8631 83.8876 80.6789 80.906 79.5838C77.5228 78.3412 76.9346 75.5671 76.1352 76.0234C75.5792 76.3408 75.1414 77.6139 76.2977 79.5709C76.2978 79.571 76.2975 79.5713 76.2974 79.5711C75.248 78.1852 73.7426 76.3678 72.9784 76.95C72.132 77.6694 73.6498 80.0124 74.6373 81.3849C73.442 79.7236 72.3094 79.1979 71.9642 79.6286C71.4209 80.3067 72.0478 81.8108 73.7127 83.945C73.7128 83.9451 73.7126 83.9452 73.7126 83.9452C72.1514 82.7927 71.6008 82.7458 71.3886 83.201C71.001 84.0321 72.4028 85.761 73.8763 87.0994C75.5352 88.6062 77.3444 89.1993 78.4941 89.5461C78.4944 89.5462 78.4947 89.5464 78.4948 89.5467C81.575 96.7256 83.3597 100.917 85.6341 106.413L93.5244 105.947Z" fill="#FFC3B1"/>
<path d="M83.4068 81.2264C81.8729 78.0069 82.0019 76.5206 82.5198 76.2937C83.3909 75.9123 85.8256 78.1248 88.6601 82.5477C87.1636 82.3108 84.9034 81.4633 83.4068 81.2264Z" fill="#FFC3B1"/>
<path d="M86.4584 81.0049C86.4449 81.0049 86.4311 81.0025 86.4177 80.9974C85.703 80.7231 84.926 80.6238 84.1034 80.5186C83.7111 80.4684 83.3054 80.4166 82.8811 80.3435C82.8192 80.3328 82.7776 80.274 82.7883 80.2122C82.7989 80.1502 82.8573 80.1084 82.9196 80.1194C83.3391 80.1916 83.7423 80.2432 84.1322 80.2931C84.9688 80.4 85.759 80.501 86.4992 80.7851C86.5579 80.8076 86.5871 80.8734 86.5646 80.932C86.5472 80.9772 86.5041 81.0049 86.4584 81.0049Z" fill="black"/>
<path d="M78.9779 81.5141C78.9634 81.5141 78.9487 81.5113 78.9345 81.5055C78.5267 81.3367 78.1332 81.1296 77.7648 80.8898C77.23 80.5417 76.7427 80.122 76.3163 79.6424C76.2746 79.5954 76.2788 79.5236 76.3257 79.4818C76.3727 79.4402 76.4445 79.4443 76.4863 79.4912C76.8992 79.9558 77.3711 80.3622 77.8889 80.6993C78.2455 80.9314 78.6266 81.132 79.0215 81.2953C79.0795 81.3193 79.1071 81.3858 79.0831 81.4438C79.0649 81.4877 79.0225 81.5141 78.9779 81.5141Z" fill="black"/>
<path d="M77.1708 83.1075C77.1563 83.1075 77.1416 83.1047 77.1274 83.0989C76.7198 82.9302 76.3262 82.7231 75.9578 82.4832C75.4229 82.1351 74.9355 81.7154 74.5092 81.2358C74.4675 81.1888 74.4717 81.117 74.5186 81.0752C74.5656 81.0336 74.6374 81.0378 74.6792 81.0847C75.0921 81.5492 75.5639 81.9556 76.0818 82.2927C76.4386 82.5249 76.8196 82.7255 77.2143 82.8887C77.2723 82.9127 77.2999 82.9792 77.2759 83.0372C77.2578 83.0811 77.2154 83.1075 77.1708 83.1075Z" fill="black"/>
<path d="M76.3373 85.9171C76.3228 85.9171 76.3081 85.9142 76.2938 85.9084C75.886 85.7396 75.4925 85.5324 75.1242 85.2928C74.5894 84.9447 74.1021 84.5249 73.6757 84.0453C73.634 83.9983 73.6382 83.9265 73.6851 83.8848C73.732 83.8431 73.8039 83.8473 73.8457 83.8942C74.2586 84.3587 74.7306 84.7651 75.2483 85.1022C75.6049 85.3343 75.9859 85.5349 76.3808 85.6983C76.4389 85.7223 76.4664 85.7888 76.4424 85.8468C76.4243 85.8906 76.3819 85.9171 76.3373 85.9171Z" fill="black"/>
<path d="M94.2257 107.243V89.4555L93.2615 87.278L80.293 96.3877L84.9855 107.243H94.2257Z" fill="#776E42"/>
<path d="M79.209 71.302C79.1579 71.302 79.1114 71.2672 79.0987 71.2153L78.0414 66.8958C78.0264 66.8348 78.0638 66.7733 78.1248 66.7583C78.1856 66.7434 78.2472 66.7806 78.2622 66.8417L79.3196 71.1612C79.3345 71.2222 79.2972 71.2837 79.2362 71.2987C79.2271 71.3009 79.218 71.302 79.209 71.302Z" fill="white"/>
<path d="M75.9539 72.1285C75.9173 72.1285 75.8813 72.1109 75.8594 72.0781L72.8591 67.5987C72.8242 67.5465 72.8381 67.476 72.8903 67.4409C72.9423 67.406 73.013 67.4199 73.0481 67.4721L76.0483 71.9515C76.0833 72.0037 76.0693 72.0743 76.0172 72.1093C75.9977 72.1223 75.9757 72.1285 75.9539 72.1285Z" fill="white"/>
<path d="M73.1512 74.0576C73.1276 74.0576 73.1038 74.0503 73.0834 74.0352L69.8978 71.6645C69.8475 71.627 69.837 71.5558 69.8745 71.5054C69.9121 71.4551 69.9832 71.4447 70.0336 71.4821L73.2192 73.8528C73.2696 73.8902 73.28 73.9615 73.2425 74.0119C73.2202 74.0418 73.1859 74.0576 73.1512 74.0576Z" fill="white"/>
<path d="M46.1405 104.713C49.9403 104.713 53.0207 103.738 53.0207 102.534C53.0207 101.331 49.9403 100.356 46.1405 100.356C42.3406 100.356 39.2603 101.331 39.2603 102.534C39.2603 103.738 42.3406 104.713 46.1405 104.713Z" fill="#D67A00"/>
<path d="M53.0207 100.365H39.2603V102.609H53.0207V100.365Z" fill="#D67A00"/>
<path d="M46.1405 102.586C49.9403 102.586 53.0207 101.61 53.0207 100.407C53.0207 99.2038 49.9403 98.2284 46.1405 98.2284C42.3406 98.2284 39.2603 99.2038 39.2603 100.407C39.2603 101.61 42.3406 102.586 46.1405 102.586Z" fill="#FFB244"/>
<path d="M46.951 102.699C43.0292 102.699 39.957 101.692 39.957 100.407C39.957 99.1215 43.0291 98.1146 46.951 98.1146C50.8728 98.1146 53.9448 99.1215 53.9448 100.407C53.9448 101.692 50.8728 102.699 46.951 102.699ZM46.951 98.342C43.2831 98.342 40.1844 99.2876 40.1844 100.407C40.1844 101.526 43.2831 102.472 46.951 102.472C50.6188 102.472 53.7175 101.526 53.7175 100.407C53.7175 99.2876 50.6188 98.342 46.951 98.342Z" fill="white"/>
<path d="M46.6351 101.168C50.4349 101.168 53.5153 100.192 53.5153 98.989C53.5153 97.7858 50.4349 96.8104 46.6351 96.8104C42.8353 96.8104 39.7549 97.7858 39.7549 98.989C39.7549 100.192 42.8353 101.168 46.6351 101.168Z" fill="#D67A00"/>
<path d="M53.5153 96.8192H39.7549V99.0638H53.5153V96.8192Z" fill="#D67A00"/>
<path d="M46.6351 99.0403C50.4349 99.0403 53.5153 98.0649 53.5153 96.8617C53.5153 95.6584 50.4349 94.683 46.6351 94.683C42.8353 94.683 39.7549 95.6584 39.7549 96.8617C39.7549 98.0649 42.8353 99.0403 46.6351 99.0403Z" fill="#FFB244"/>
<path d="M47.4456 99.1538C43.5238 99.1538 40.4517 98.1469 40.4517 96.8615C40.4517 95.5761 43.5237 94.5692 47.4456 94.5692C51.3674 94.5692 54.4395 95.5761 54.4395 96.8615C54.4395 98.1469 51.3674 99.1538 47.4456 99.1538ZM47.4456 94.7966C43.7778 94.7966 40.6791 95.7422 40.6791 96.8615C40.6791 97.9808 43.7778 98.9264 47.4456 98.9264C51.1134 98.9264 54.2121 97.9808 54.2121 96.8615C54.212 95.7422 51.1134 94.7966 47.4456 94.7966Z" fill="white"/>
<path d="M47.9876 97.6207C51.7875 97.6207 54.8679 96.6453 54.8679 95.4421C54.8679 94.2389 51.7875 93.2635 47.9876 93.2635C44.1878 93.2635 41.1074 94.2389 41.1074 95.4421C41.1074 96.6453 44.1878 97.6207 47.9876 97.6207Z" fill="#D67A00"/>
<path d="M54.8679 93.2723H41.1074V95.5169H54.8679V93.2723Z" fill="#D67A00"/>
<path d="M47.9876 95.4934C51.7875 95.4934 54.8679 94.518 54.8679 93.3148C54.8679 92.1116 51.7875 91.1362 47.9876 91.1362C44.1878 91.1362 41.1074 92.1116 41.1074 93.3148C41.1074 94.518 44.1878 95.4934 47.9876 95.4934Z" fill="#FFB244"/>
<path d="M48.7981 95.6069C44.8763 95.6069 41.8042 94.6 41.8042 93.3147C41.8042 92.0292 44.8763 91.0223 48.7981 91.0223C52.7199 91.0223 55.792 92.0292 55.792 93.3147C55.7919 94.6 52.7199 95.6069 48.7981 95.6069ZM48.7981 91.2497C45.1302 91.2497 42.0316 92.1953 42.0316 93.3147C42.0316 94.4339 45.1302 95.3795 48.7981 95.3795C52.4659 95.3795 55.5646 94.4339 55.5646 93.3147C55.5646 92.1954 52.4659 91.2497 48.7981 91.2497Z" fill="white"/>
<path d="M59.4784 106.148C63.2782 106.148 66.3586 105.172 66.3586 103.969C66.3586 102.766 63.2782 101.79 59.4784 101.79C55.6785 101.79 52.5981 102.766 52.5981 103.969C52.5981 105.172 55.6785 106.148 59.4784 106.148Z" fill="#D67A00"/>
<path d="M66.3586 101.799H52.5981V104.044H66.3586V101.799Z" fill="#D67A00"/>
<path d="M59.4784 104.02C63.2782 104.02 66.3586 103.045 66.3586 101.842C66.3586 100.639 63.2782 99.6631 59.4784 99.6631C55.6785 99.6631 52.5981 100.639 52.5981 101.842C52.5981 103.045 55.6785 104.02 59.4784 104.02Z" fill="#FFB244"/>
<path d="M60.2888 104.134C56.367 104.134 53.2949 103.127 53.2949 101.842C53.2949 100.556 56.367 99.5493 60.2888 99.5493C64.2107 99.5493 67.2828 100.556 67.2828 101.842C67.2828 103.127 64.2107 104.134 60.2888 104.134ZM60.2888 99.7767C56.621 99.7767 53.5223 100.722 53.5223 101.842C53.5223 102.961 56.621 103.906 60.2888 103.906C63.9567 103.906 67.0554 102.961 67.0554 101.842C67.0554 100.722 63.9567 99.7767 60.2888 99.7767Z" fill="white"/>
<path d="M60.8942 102.922C64.7861 102.922 67.9411 101.923 67.9411 100.691C67.9411 99.4583 64.7861 98.4593 60.8942 98.4593C57.0022 98.4593 53.8472 99.4583 53.8472 100.691C53.8472 101.923 57.0022 102.922 60.8942 102.922Z" fill="#D67A00"/>
<path d="M67.9411 98.4673H53.8472V100.766H67.9411V98.4673Z" fill="#D67A00"/>
<path d="M60.8942 100.743C64.7861 100.743 67.9411 99.7436 67.9411 98.5112C67.9411 97.2789 64.7861 96.2798 60.8942 96.2798C57.0022 96.2798 53.8472 97.2789 53.8472 98.5112C53.8472 99.7436 57.0022 100.743 60.8942 100.743Z" fill="#FFB244"/>
<path d="M61.7242 100.856C57.7089 100.856 54.5635 99.8261 54.5635 98.511C54.5635 97.196 57.7088 96.166 61.7242 96.166C65.7395 96.166 68.8848 97.1961 68.8848 98.511C68.8848 99.826 65.7395 100.856 61.7242 100.856ZM61.7242 96.3934C57.9659 96.3934 54.7909 97.3632 54.7909 98.5111C54.7909 99.659 57.9659 100.629 61.7242 100.629C65.4824 100.629 68.6574 99.659 68.6574 98.5111C68.6574 97.3632 65.4823 96.3934 61.7242 96.3934Z" fill="white"/>
<path d="M59.4415 99.2896C63.3335 99.2896 66.4885 98.2906 66.4885 97.0583C66.4885 95.8259 63.3335 94.8269 59.4415 94.8269C55.5496 94.8269 52.3945 95.8259 52.3945 97.0583C52.3945 98.2906 55.5496 99.2896 59.4415 99.2896Z" fill="#D67A00"/>
<path d="M66.4885 94.8351H52.3945V97.1341H66.4885V94.8351Z" fill="#D67A00"/>
<path d="M59.4415 97.1102C63.3335 97.1102 66.4885 96.1112 66.4885 94.8788C66.4885 93.6465 63.3335 92.6475 59.4415 92.6475C55.5496 92.6475 52.3945 93.6465 52.3945 94.8788C52.3945 96.1112 55.5496 97.1102 59.4415 97.1102Z" fill="#FFB244"/>
<path d="M60.272 97.2238C56.2567 97.2238 53.1113 96.1937 53.1113 94.8787C53.1113 93.5637 56.2567 92.5336 60.272 92.5336C64.2873 92.5336 67.4327 93.5637 67.4327 94.8787C67.4327 96.1937 64.2873 97.2238 60.272 97.2238ZM60.272 92.761C56.5137 92.761 53.3387 93.7308 53.3387 94.8787C53.3387 96.0266 56.5137 96.9964 60.272 96.9964C64.0302 96.9964 67.2052 96.0266 67.2052 94.8787C67.2052 93.7308 64.0301 92.761 60.272 92.761Z" fill="white"/>
<path d="M61.7242 96.061C65.6162 96.061 68.7712 95.062 68.7712 93.8296C68.7712 92.5973 65.6162 91.5983 61.7242 91.5983C57.8323 91.5983 54.6772 92.5973 54.6772 93.8296C54.6772 95.062 57.8323 96.061 61.7242 96.061Z" fill="#D67A00"/>
<path d="M68.7712 91.6063H54.6772V93.9053H68.7712V91.6063Z" fill="#D67A00"/>
<path d="M61.7242 93.8816C65.6162 93.8816 68.7712 92.8825 68.7712 91.6502C68.7712 90.4178 65.6162 89.4188 61.7242 89.4188C57.8323 89.4188 54.6772 90.4178 54.6772 91.6502C54.6772 92.8825 57.8323 93.8816 61.7242 93.8816Z" fill="#FFB244"/>
<path d="M62.5542 93.9951C58.539 93.9951 55.3936 92.965 55.3936 91.65C55.3936 90.335 58.5389 89.305 62.5542 89.305C66.5696 89.305 69.7149 90.3351 69.7149 91.65C69.7149 92.965 66.5695 93.9951 62.5542 93.9951ZM62.5542 89.5324C58.796 89.5324 55.621 90.5021 55.621 91.65C55.621 92.7979 58.796 93.7677 62.5542 93.7677C66.3125 93.7677 69.4875 92.7979 69.4875 91.65C69.4875 90.5021 66.3124 89.5324 62.5542 89.5324Z" fill="white"/>
<path d="M46.5223 94.4673C50.3221 94.4673 53.4025 93.4919 53.4025 92.2887C53.4025 91.0854 50.3221 90.11 46.5223 90.11C42.7225 90.11 39.6421 91.0854 39.6421 92.2887C39.6421 93.4919 42.7225 94.4673 46.5223 94.4673Z" fill="#D67A00"/>
<path d="M53.4025 90.1188H39.6421V92.3635H53.4025V90.1188Z" fill="#D67A00"/>
<path d="M46.5223 92.34C50.3221 92.34 53.4025 91.3646 53.4025 90.1613C53.4025 88.9581 50.3221 87.9827 46.5223 87.9827C42.7225 87.9827 39.6421 88.9581 39.6421 90.1613C39.6421 91.3646 42.7225 92.34 46.5223 92.34Z" fill="#FFB244"/>
<path d="M47.3328 92.4535C43.411 92.4535 40.3389 91.4466 40.3389 90.1612C40.3389 88.8758 43.4109 87.8689 47.3328 87.8689C51.2546 87.8689 54.3267 88.8758 54.3267 90.1612C54.3267 91.4466 51.2546 92.4535 47.3328 92.4535ZM47.3328 88.0964C43.665 88.0964 40.5663 89.042 40.5663 90.1612C40.5663 91.2805 43.665 92.2261 47.3328 92.2261C51.0006 92.2261 54.0993 91.2805 54.0993 90.1612C54.0993 89.042 51.0006 88.0964 47.3328 88.0964Z" fill="white"/>
<path d="M48.0038 90.8421C51.8036 90.8421 54.884 89.8667 54.884 88.6635C54.884 87.4603 51.8036 86.4849 48.0038 86.4849C44.2039 86.4849 41.1235 87.4603 41.1235 88.6635C41.1235 89.8667 44.2039 90.8421 48.0038 90.8421Z" fill="#D67A00"/>
<path d="M54.884 86.4937H41.1235V88.7383H54.884V86.4937Z" fill="#D67A00"/>
<path d="M48.0038 88.7148C51.8036 88.7148 54.884 87.7394 54.884 86.5362C54.884 85.3329 51.8036 84.3575 48.0038 84.3575C44.2039 84.3575 41.1235 85.3329 41.1235 86.5362C41.1235 87.7394 44.2039 88.7148 48.0038 88.7148Z" fill="#FFB244"/>
<path d="M48.8142 88.8284C44.8924 88.8284 41.8203 87.8215 41.8203 86.536C41.8203 85.2506 44.8924 84.2437 48.8142 84.2437C52.7361 84.2437 55.8082 85.2506 55.8082 86.536C55.8082 87.8215 52.7361 88.8284 48.8142 88.8284ZM48.8142 84.4711C45.1464 84.4711 42.0477 85.4167 42.0477 86.536C42.0477 87.6554 45.1464 88.6009 48.8142 88.6009C52.4821 88.6009 55.5808 87.6554 55.5808 86.536C55.5808 85.4167 52.4821 84.4711 48.8142 84.4711Z" fill="white"/>
<path d="M50.2323 87.6882C54.0321 87.6882 57.1125 86.7128 57.1125 85.5096C57.1125 84.3063 54.0321 83.3309 50.2323 83.3309C46.4324 83.3309 43.3521 84.3063 43.3521 85.5096C43.3521 86.7128 46.4324 87.6882 50.2323 87.6882Z" fill="#D67A00"/>
<path d="M57.1125 83.3397H43.3521V85.5843H57.1125V83.3397Z" fill="#D67A00"/>
<path d="M50.2323 85.5608C54.0321 85.5608 57.1125 84.5854 57.1125 83.3822C57.1125 82.179 54.0321 81.2036 50.2323 81.2036C46.4324 81.2036 43.3521 82.179 43.3521 83.3822C43.3521 84.5854 46.4324 85.5608 50.2323 85.5608Z" fill="#FFB244"/>
<path d="M51.0428 85.6744C47.121 85.6744 44.0488 84.6675 44.0488 83.3821C44.0488 82.0967 47.1209 81.0898 51.0428 81.0898C54.9646 81.0898 58.0367 82.0967 58.0367 83.3821C58.0367 84.6675 54.9647 85.6744 51.0428 85.6744ZM51.0428 81.3172C47.3749 81.3172 44.2762 82.2628 44.2762 83.3821C44.2762 84.5014 47.3749 85.447 51.0428 85.447C54.7106 85.447 57.8093 84.5014 57.8093 83.3821C57.8093 82.2628 54.7106 81.3172 51.0428 81.3172Z" fill="white"/>
<path d="M48.118 84.8263C51.9178 84.8263 54.9982 83.8509 54.9982 82.6477C54.9982 81.4445 51.9178 80.4691 48.118 80.4691C44.3182 80.4691 41.2378 81.4445 41.2378 82.6477C41.2378 83.8509 44.3182 84.8263 48.118 84.8263Z" fill="#D67A00"/>
<path d="M54.9982 80.4779H41.2378V82.7225H54.9982V80.4779Z" fill="#D67A00"/>
<path d="M48.118 82.699C51.9178 82.699 54.9982 81.7236 54.9982 80.5203C54.9982 79.3171 51.9178 78.3417 48.118 78.3417C44.3182 78.3417 41.2378 79.3171 41.2378 80.5203C41.2378 81.7236 44.3182 82.699 48.118 82.699Z" fill="#FFB244"/>
<path d="M48.9284 82.8126C45.0066 82.8126 41.9346 81.8057 41.9346 80.5203C41.9346 79.2349 45.0066 78.228 48.9284 78.228C52.8503 78.228 55.9224 79.2349 55.9224 80.5203C55.9224 81.8057 52.8503 82.8126 48.9284 82.8126ZM48.9284 78.4554C45.2606 78.4554 42.1619 79.401 42.1619 80.5203C42.1619 81.6396 45.2606 82.5852 48.9284 82.5852C52.5963 82.5852 55.695 81.6396 55.695 80.5203C55.695 79.401 52.5963 78.4554 48.9284 78.4554Z" fill="white"/>
<path d="M66.6034 93.7601C67.4581 92.9133 65.9831 90.0385 63.3088 87.3391C60.6344 84.6397 57.7735 83.1379 56.9188 83.9847C56.064 84.8315 57.5391 87.7063 60.2134 90.4057C62.8877 93.1051 65.7486 94.6069 66.6034 93.7601Z" fill="#D67A00"/>
<path d="M68.1504 92.2393L58.4658 82.4639L56.8712 84.0437L66.5558 93.8191L68.1504 92.2393Z" fill="#D67A00"/>
<path d="M68.1146 92.2629C68.9694 91.416 67.4943 88.5412 64.82 85.8418C62.1457 83.1424 59.2848 81.6406 58.43 82.4874C57.5752 83.3343 59.0503 86.2091 61.7246 88.9085C64.3989 91.6079 67.2598 93.1097 68.1146 92.2629Z" fill="#FFB244"/>
<path d="M68.0025 93.1916C66.7108 93.1916 64.4249 91.8019 62.2141 89.5702C59.4541 86.7841 58.0074 83.8929 58.9206 82.9883C59.834 82.0837 62.7112 83.5577 65.4712 86.3438C68.2312 89.13 69.6779 92.0211 68.7647 92.9257C68.583 93.1058 68.3234 93.1916 68.0025 93.1916ZM59.6879 82.9431C59.4289 82.9431 59.2223 83.0096 59.0806 83.1499C58.2854 83.9376 59.7945 86.8045 62.3757 89.4103C64.9569 92.016 67.8095 93.552 68.6048 92.7642C69.4 91.9765 67.8909 89.1096 65.3097 86.5038C63.1882 84.3622 60.8831 82.9431 59.6879 82.9431Z" fill="white"/>
<path d="M47.1834 82.114C50.9833 82.114 54.0637 81.1386 54.0637 79.9354C54.0637 78.7322 50.9833 77.7568 47.1834 77.7568C43.3836 77.7568 40.3032 78.7322 40.3032 79.9354C40.3032 81.1386 43.3836 82.114 47.1834 82.114Z" fill="#D67A00"/>
<path d="M54.0637 77.7656H40.3032V80.0102H54.0637V77.7656Z" fill="#D67A00"/>
<path d="M47.1834 79.9867C50.9833 79.9867 54.0637 79.0113 54.0637 77.8081C54.0637 76.6049 50.9833 75.6295 47.1834 75.6295C43.3836 75.6295 40.3032 76.6049 40.3032 77.8081C40.3032 79.0113 43.3836 79.9867 47.1834 79.9867Z" fill="#FFB244"/>
<path d="M47.9939 80.1002C44.0721 80.1002 41 79.0933 41 77.8079C41 76.5225 44.0721 75.5156 47.9939 75.5156C51.9158 75.5156 54.9878 76.5225 54.9878 77.8079C54.9878 79.0933 51.9157 80.1002 47.9939 80.1002ZM47.9939 75.743C44.3261 75.743 41.2274 76.6886 41.2274 77.8079C41.2274 78.9272 44.3261 79.8728 47.9939 79.8728C51.6617 79.8728 54.7604 78.9272 54.7604 77.8079C54.7604 76.6887 51.6617 75.743 47.9939 75.743Z" fill="white"/>
<path d="M49.4124 78.962C53.2123 78.962 56.2927 77.9866 56.2927 76.7834C56.2927 75.5802 53.2123 74.6048 49.4124 74.6048C45.6126 74.6048 42.5322 75.5802 42.5322 76.7834C42.5322 77.9866 45.6126 78.962 49.4124 78.962Z" fill="#D67A00"/>
<path d="M56.2927 74.6136H42.5322V76.8582H56.2927V74.6136Z" fill="#D67A00"/>
<path d="M49.4124 76.8346C53.2123 76.8346 56.2927 75.8593 56.2927 74.656C56.2927 73.4528 53.2123 72.4774 49.4124 72.4774C45.6126 72.4774 42.5322 73.4528 42.5322 74.656C42.5322 75.8593 45.6126 76.8346 49.4124 76.8346Z" fill="#FFB244"/>
<path d="M50.2229 76.9483C46.3011 76.9483 43.229 75.9414 43.229 74.656C43.229 73.3706 46.3011 72.3636 50.2229 72.3636C54.1448 72.3636 57.2169 73.3706 57.2169 74.656C57.2169 75.9414 54.1448 76.9483 50.2229 76.9483ZM50.2229 72.5911C46.5551 72.5911 43.4564 73.5367 43.4564 74.656C43.4564 75.7753 46.5551 76.7209 50.2229 76.7209C53.8908 76.7209 56.9895 75.7753 56.9895 74.656C56.9895 73.5367 53.8908 72.5911 50.2229 72.5911Z" fill="white"/>
<path d="M47.2982 76.1002C51.098 76.1002 54.1784 75.1247 54.1784 73.9215C54.1784 72.7183 51.098 71.7429 47.2982 71.7429C43.4983 71.7429 40.418 72.7183 40.418 73.9215C40.418 75.1247 43.4983 76.1002 47.2982 76.1002Z" fill="#D67A00"/>
<path d="M54.1784 71.7518H40.418V73.9964H54.1784V71.7518Z" fill="#D67A00"/>
<path d="M47.2982 73.9728C51.098 73.9728 54.1784 72.9974 54.1784 71.7942C54.1784 70.591 51.098 69.6156 47.2982 69.6156C43.4983 69.6156 40.418 70.591 40.418 71.7942C40.418 72.9974 43.4983 73.9728 47.2982 73.9728Z" fill="#FFB244"/>
<path d="M48.1086 74.0865C44.1868 74.0865 41.1147 73.0796 41.1147 71.7942C41.1147 70.5088 44.1868 69.5019 48.1086 69.5019C52.0305 69.5019 55.1026 70.5088 55.1026 71.7942C55.1025 73.0796 52.0305 74.0865 48.1086 74.0865ZM48.1086 69.7293C44.4408 69.7293 41.3421 70.6749 41.3421 71.7942C41.3421 72.9135 44.4408 73.8591 48.1086 73.8591C51.7765 73.8591 54.8752 72.9135 54.8752 71.7942C54.8752 70.6749 51.7765 69.7293 48.1086 69.7293Z" fill="white"/>
<path d="M29.4682 27.9796C29.4202 27.9796 29.3755 27.949 29.3601 27.9007L27.9054 23.3866C27.8961 23.3579 27.8987 23.3267 27.9124 23.2999C27.9262 23.273 27.9501 23.2528 27.9787 23.2435L38.3481 19.902C38.4082 19.8825 38.472 19.9156 38.4911 19.9754L39.9458 24.4895C39.9551 24.5182 39.9525 24.5494 39.9388 24.5762C39.925 24.6031 39.9011 24.6233 39.8725 24.6326L29.5031 27.9741C29.4915 27.9779 29.4798 27.9796 29.4682 27.9796ZM28.1566 23.4252L29.5416 27.7229L39.6946 24.4511L38.3096 20.1534L28.1566 23.4252Z" fill="#8B865C"/>
<path d="M28.0133 23.3515L28.6222 22.3765L35.9786 20.0059L36.9717 20.4647L37.9348 21.0366L38.4196 22.5411L37.9717 23.5678L37.4333 24.52L30.0769 26.8906L29.0133 26.4546L28.0502 25.8825L27.5654 24.3782L28.0133 23.3515Z" fill="#D3BBA3"/>
<path d="M34.3995 24.1806C34.7984 23.4023 34.4908 22.448 33.7126 22.0491C32.9343 21.6503 31.98 21.9578 31.5811 22.7361C31.1822 23.5144 31.4898 24.4686 32.2681 24.8675C33.0463 25.2664 34.0006 24.9588 34.3995 24.1806Z" fill="#E6D0BE"/>
<path d="M38.4197 22.5408C37.6105 22.823 37.1695 23.6997 37.4334 24.5198L38.9047 24.0457L38.4197 22.5408Z" fill="#E6D0BE"/>
<path d="M37.9347 21.0364L37.4497 19.5316L35.9785 20.0057C36.2431 20.8256 37.113 21.2799 37.9347 21.0364Z" fill="#E6D0BE"/>
<path d="M28.0843 25.8691C28.0726 25.8728 28.0618 25.8779 28.0503 25.8819L28.5352 27.3868L30.0769 26.89C29.8085 26.0579 28.9165 25.6009 28.0843 25.8691Z" fill="#E6D0BE"/>
<path d="M27.0806 22.8731L27.5655 24.378C27.5772 24.3746 27.589 24.3724 27.6006 24.3686C28.4329 24.1004 28.8902 23.2085 28.6223 22.3763L27.0806 22.8731Z" fill="#E6D0BE"/>
<path d="M27.6026 27.0233C27.5847 27.0233 27.5669 27.0191 27.5507 27.0108C27.5238 26.997 27.5036 26.9732 27.4943 26.9445L26.0397 22.4303C26.0304 22.4016 26.033 22.3704 26.0467 22.3436C26.0605 22.3167 26.0843 22.2965 26.113 22.2872L36.4824 18.9457C36.5112 18.9364 36.5422 18.9391 36.5691 18.9527C36.596 18.9665 36.6162 18.9904 36.6255 19.0191L38.0801 23.5332C38.0994 23.5929 38.0665 23.657 38.0067 23.6762L27.6374 27.0178C27.626 27.0215 27.6143 27.0233 27.6026 27.0233ZM26.291 22.4688L27.6759 26.7665L37.8288 23.4947L36.4439 19.197L26.291 22.4688Z" fill="white"/>
<path d="M28.6073 34.5308C30.7632 33.749 32.3103 32.5619 32.0627 31.8792C31.8152 31.1965 29.8667 31.2768 27.7108 32.0586C25.5549 32.8404 24.0078 34.0276 24.2554 34.7103C24.5029 35.393 26.4513 35.3126 28.6073 34.5308Z" fill="#D67A00"/>
<path d="M31.6164 30.6482L23.8091 33.4793L24.2709 34.7528L32.0782 31.9217L31.6164 30.6482Z" fill="#D67A00"/>
<path d="M28.1698 33.3236C30.3257 32.5418 31.8728 31.3546 31.6252 30.672C31.3777 29.9893 29.4292 30.0696 27.2733 30.8514C25.1174 31.6332 23.5703 32.8204 23.8179 33.5031C24.0654 34.1858 26.0138 34.1054 28.1698 33.3236Z" fill="#FFB244"/>
<path d="M25.5285 33.9138C24.7669 33.9138 24.2992 33.7291 24.1709 33.375C24.0308 32.9888 24.3296 32.4986 25.0349 31.9574C25.6965 31.4497 26.641 30.9597 27.6944 30.5778C28.7477 30.1957 29.7868 29.9664 30.62 29.932C31.5083 29.8952 32.0518 30.0801 32.1919 30.4663C32.4967 31.307 30.6397 32.5488 28.6683 33.2636C27.6149 33.6456 26.576 33.8749 25.7427 33.9093C25.6689 33.9123 25.5975 33.9138 25.5285 33.9138ZM30.8233 30.1551C30.7607 30.1551 30.696 30.1564 30.6294 30.1592C29.8188 30.1926 28.804 30.4172 27.7719 30.7914C26.7399 31.1657 25.8171 31.6439 25.1734 32.1378C24.581 32.5923 24.2862 33.0259 24.3847 33.2975C24.4832 33.5691 24.9875 33.7131 25.7334 33.6821C26.544 33.6486 27.5588 33.4241 28.5909 33.0498C30.8284 32.2385 32.1718 31.0779 31.9782 30.5438C31.8884 30.2965 31.4622 30.1551 30.8233 30.1551Z" fill="white"/>
<path d="M31.9128 24.1117C32.211 23.4896 30.86 22.2216 28.8952 21.2796C26.9303 20.3376 25.0957 20.0783 24.7974 20.7005C24.4991 21.3226 25.8502 22.5906 27.815 23.5326C29.7799 24.4746 31.6145 24.7339 31.9128 24.1117Z" fill="#D67A00"/>
<path d="M32.4498 22.9869L25.3345 19.5756L24.778 20.7363L31.8934 24.1476L32.4498 22.9869Z" fill="#D67A00"/>
<path d="M32.4401 23.0108C32.7384 22.3886 31.3874 21.1206 29.4225 20.1786C27.4577 19.2366 25.623 18.9773 25.3247 19.5995C25.0265 20.2217 26.3775 21.4897 28.3423 22.4317C30.3072 23.3737 32.1418 23.633 32.4401 23.0108Z" fill="#FFB244"/>
<path d="M31.9828 23.6589C31.1231 23.6589 29.8608 23.2837 28.7133 22.7336C26.914 21.871 25.2733 20.5191 25.6421 19.7497C26.0112 18.9804 28.0925 19.4129 29.8916 20.2754C31.6909 21.138 33.3316 22.4899 32.9628 23.2593C32.8291 23.538 32.4709 23.6589 31.9828 23.6589ZM26.6265 19.5777C26.2093 19.5777 25.9319 19.6712 25.8472 19.848C25.615 20.3324 26.7753 21.5524 28.8115 22.5285C30.8479 23.5048 32.5254 23.6453 32.7577 23.161C32.9899 22.6766 31.8296 21.4567 29.7934 20.4805C28.5005 19.8607 27.3521 19.5777 26.6265 19.5777Z" fill="white"/>
<path d="M31.3962 44.8085C31.3758 44.8085 31.3557 44.803 31.338 44.7925L27.264 42.3644C27.2101 42.3322 27.1924 42.2624 27.2246 42.2085L32.8021 32.85C32.8343 32.7962 32.904 32.7784 32.958 32.8106L37.032 35.2387C37.0579 35.2541 37.0767 35.2793 37.084 35.3084C37.0915 35.3377 37.0869 35.3687 37.0715 35.3946L31.4938 44.753C31.4784 44.7789 31.4532 44.7977 31.424 44.805C31.4148 44.8074 31.4054 44.8085 31.3962 44.8085ZM27.478 42.2272L31.3566 44.5389L36.8179 35.3758L32.9392 33.0642L27.478 42.2272Z" fill="#8B865C"/>
<path d="M36.9739 35.3364L37.1609 36.4706L33.2039 43.1099L32.1553 43.4214L31.0544 43.6282L29.6967 42.819L29.3547 41.7523L29.1299 40.6818L33.0869 34.0425L34.1734 33.6673L35.2743 33.4606L36.632 34.2697L36.9739 35.3364Z" fill="#D3BBA3"/>
<path d="M33.824 39.9881C34.6192 39.6241 34.9688 38.6843 34.6048 37.8891C34.2408 37.0939 33.3011 36.7443 32.5058 37.1083C31.7106 37.4723 31.361 38.412 31.725 39.2072C32.089 40.0025 33.0287 40.3521 33.824 39.9881Z" fill="#E6D0BE"/>
<path d="M29.6965 42.819C30.1177 42.0727 29.8696 41.1231 29.1297 40.6818L28.3384 42.0096L29.6965 42.819Z" fill="#E6D0BE"/>
<path d="M31.0542 43.6283L32.4123 44.4378L33.2037 43.11C32.4634 42.6691 31.5102 42.9027 31.0542 43.6283Z" fill="#E6D0BE"/>
<path d="M35.2574 33.493C35.2637 33.4825 35.2684 33.4714 35.2744 33.4609L33.9162 32.6514L33.0869 34.0428C33.8381 34.4902 34.8097 34.2441 35.2574 33.493Z" fill="#E6D0BE"/>
<path d="M37.9901 35.0793L36.6319 34.2698C36.6254 34.2801 36.618 34.2895 36.6117 34.3001C36.164 35.0511 36.4099 36.0229 37.1608 36.4707L37.9901 35.0793Z" fill="#E6D0BE"/>
<path d="M33.4284 44.2937C33.4081 44.2937 33.3879 44.2883 33.3702 44.2777L29.2962 41.8496C29.2423 41.8175 29.2246 41.7477 29.2568 41.6937L34.8344 32.3353C34.8665 32.2813 34.9364 32.2637 34.9902 32.2958L39.0642 34.7239C39.0902 34.7393 39.1088 34.7645 39.1163 34.7936C39.1237 34.8229 39.1191 34.8539 39.1037 34.8798L33.5261 44.2383C33.5107 44.2641 33.4856 44.2829 33.4564 44.2902C33.4471 44.2926 33.4377 44.2937 33.4284 44.2937ZM29.5103 41.7124L33.3889 44.0241L38.8501 34.861L34.9714 32.5494L29.5103 41.7124Z" fill="white"/>
<path d="M83.3886 29.9087C87.3854 29.9087 90.6254 26.6687 90.6254 22.672C90.6254 18.6752 87.3854 15.4352 83.3886 15.4352C79.3919 15.4352 76.1519 18.6752 76.1519 22.672C76.1519 26.6687 79.3919 29.9087 83.3886 29.9087Z" fill="#F7F1EB"/>
<path d="M83.6678 29.9025C79.6148 29.9025 76.3174 26.6052 76.3174 22.5521C76.3174 18.4991 79.6148 15.2017 83.6678 15.2017C87.7208 15.2017 91.0182 18.4991 91.0182 22.5521C91.0182 26.6052 87.7208 29.9025 83.6678 29.9025ZM83.6678 15.4291C79.7402 15.4291 76.5447 18.6245 76.5447 22.5521C76.5447 26.4798 79.7401 29.6752 83.6678 29.6752C87.5955 29.6752 90.7908 26.4798 90.7908 22.5521C90.7908 18.6245 87.5954 15.4291 83.6678 15.4291Z" fill="black"/>
<path d="M82.1431 21.1095L79.1367 20.8478L79.0024 22.3915L82.0087 22.6531L82.1431 21.1095Z" fill="#D87355"/>
<path d="M80.6329 21.9108C79.2828 21.7933 78.091 22.8176 77.9708 24.1988C77.8506 25.5799 78.8476 26.7947 80.1976 26.9122C81.5477 27.0298 82.7396 26.0054 82.8598 24.6243C82.98 23.2431 81.983 22.0283 80.6329 21.9108ZM80.2073 26.2973C79.2027 26.2099 78.4609 25.3059 78.5503 24.2782C78.6397 23.2505 79.5266 22.4883 80.5312 22.5757C81.5358 22.6631 82.2777 23.5671 82.1882 24.5948C82.0988 25.6225 81.2119 26.3847 80.2073 26.2973Z" fill="#D87355"/>
<path d="M80.5321 27.0034C80.78 26.7969 80.8137 26.4286 80.6072 26.1806C80.4007 25.9327 80.0324 25.899 79.7844 26.1055C79.5365 26.3119 79.5028 26.6803 79.7093 26.9283C79.9157 27.1762 80.2841 27.2099 80.5321 27.0034Z" fill="#D87355"/>
<path d="M80.4907 26.5788C80.4736 26.7757 80.3001 26.9214 80.1032 26.9043C79.9063 26.8871 79.7606 26.7136 79.7777 26.5167C79.7949 26.3199 79.9684 26.1741 80.1653 26.1912C80.3621 26.2085 80.5078 26.3819 80.4907 26.5788Z" fill="#F7F1EB"/>
<path d="M80.8284 21.5748C80.8176 21.6994 80.7078 21.7916 80.5832 21.7807C80.4587 21.7699 80.3665 21.6601 80.3773 21.5355C80.3882 21.4109 80.4979 21.3188 80.6225 21.3296C80.7471 21.3405 80.8393 21.4503 80.8284 21.5748Z" fill="white"/>
<path d="M80.5514 22.2614C80.5072 22.2575 80.4745 22.2186 80.4783 22.1744L80.5353 21.5196C80.5392 21.4754 80.5781 21.4427 80.6223 21.4465C80.6665 21.4504 80.6992 21.4893 80.6954 21.5335L80.6384 22.1883C80.6346 22.2325 80.5956 22.2652 80.5514 22.2614Z" fill="white"/>
<path d="M86.7721 18.775L84.2178 20.382L85.0281 21.67L87.5824 20.063L86.7721 18.775Z" fill="#D87355"/>
<path d="M86.0368 20.3033C84.8897 21.025 84.5584 22.5612 85.2966 23.7346C86.0348 24.908 87.5631 25.2743 88.7102 24.5526C89.8573 23.8309 90.1886 22.2948 89.4504 21.1213C88.7122 19.9479 87.1839 19.5817 86.0368 20.3033ZM88.3466 24.0567C87.4931 24.5937 86.3558 24.3211 85.8065 23.448C85.2571 22.5749 85.5038 21.4317 86.3573 20.8948C87.2108 20.3578 88.348 20.6303 88.8974 21.5034C89.4467 22.3766 89.2001 23.5197 88.3466 24.0567Z" fill="#D87355"/>
<path d="M88.9567 23.9838C89.1286 24.2569 89.0465 24.6176 88.7734 24.7894C88.5003 24.9613 88.1396 24.8792 87.9677 24.6061C87.7959 24.333 87.878 23.9722 88.1511 23.8005C88.4243 23.6286 88.7849 23.7107 88.9567 23.9838Z" fill="#D87355"/>
<path d="M88.7423 24.11C88.8476 24.2773 88.7972 24.4982 88.63 24.6035C88.4627 24.7087 88.2418 24.6584 88.1366 24.4911C88.0313 24.3239 88.0816 24.1029 88.2489 23.9977C88.4162 23.8925 88.6371 23.9427 88.7423 24.11Z" fill="#F7F1EB"/>
<path d="M85.9898 19.9174C86.0564 20.0232 86.0246 20.163 85.9188 20.2295C85.8129 20.2961 85.6731 20.2643 85.6066 20.1585C85.54 20.0527 85.5718 19.9129 85.6776 19.8463C85.7834 19.7797 85.9232 19.8115 85.9898 19.9174Z" fill="white"/>
<path d="M86.1835 20.6321C86.146 20.6557 86.0964 20.6444 86.0728 20.6069L85.7228 20.0506C85.6992 20.0131 85.7105 19.9634 85.748 19.9398C85.7855 19.9162 85.8352 19.9275 85.8588 19.965L86.2088 20.5214C86.2324 20.5589 86.2211 20.6085 86.1835 20.6321Z" fill="white"/>
<path d="M80.5918 20.6549C80.551 20.6549 80.5094 20.648 80.4688 20.6335C80.3765 20.6006 80.3026 20.5336 80.2606 20.445C80.2187 20.3565 80.2137 20.2569 80.2467 20.1646L80.4694 19.541C80.5023 19.4488 80.5693 19.3748 80.6579 19.3329C80.7462 19.2909 80.8458 19.2859 80.9383 19.3189C81.1288 19.3871 81.2284 19.5974 81.1604 19.7879L80.9377 20.4115C80.8841 20.5613 80.7425 20.6549 80.5918 20.6549ZM80.815 19.525C80.7577 19.525 80.7039 19.5605 80.6836 19.6176L80.4609 20.2411C80.4483 20.2762 80.4502 20.314 80.4661 20.3477C80.4821 20.3813 80.5102 20.4069 80.5453 20.4193C80.6178 20.4453 80.6977 20.4073 80.7235 20.335L80.9462 19.7114C80.9721 19.639 80.9342 19.559 80.8618 19.5331C80.8463 19.5275 80.8306 19.525 80.815 19.525Z" fill="#D87355"/>
<path d="M81.1982 19.2998C81.1574 19.2998 81.1158 19.2929 81.0752 19.2784C80.9829 19.2455 80.909 19.1785 80.8671 19.09C80.8251 19.0014 80.8201 18.9017 80.8532 18.8095L81.0758 18.186C81.1439 17.9955 81.3541 17.8959 81.5448 17.9639C81.637 17.9968 81.711 18.0638 81.7529 18.1524C81.7949 18.241 81.7998 18.3406 81.7668 18.4328L81.5441 19.0563C81.4906 19.2061 81.3489 19.2998 81.1982 19.2998ZM81.4215 18.1699C81.3642 18.1699 81.3104 18.2055 81.2899 18.2625L81.0673 18.886C81.0548 18.921 81.0566 18.9589 81.0725 18.9926C81.0885 19.0262 81.1166 19.0517 81.1517 19.0642C81.224 19.0902 81.3039 19.0522 81.33 18.9798L81.5526 18.3563C81.5651 18.3212 81.5633 18.2833 81.5474 18.2496C81.5314 18.216 81.5033 18.1905 81.4682 18.178C81.4529 18.1725 81.4371 18.1699 81.4215 18.1699Z" fill="#D87355"/>
<path d="M80.8397 19.7595C80.8228 19.7595 80.8057 19.7557 80.7895 19.7477C80.7332 19.72 80.71 19.6518 80.7378 19.5955L81.0939 18.8739C81.1217 18.8176 81.19 18.7946 81.2461 18.8222C81.3024 18.85 81.3256 18.9182 81.2978 18.9745L80.9418 19.6961C80.9219 19.7362 80.8817 19.7595 80.8397 19.7595Z" fill="#D87355"/>
<path d="M80.595 21.2239C80.5332 21.2239 80.4826 21.1745 80.4813 21.1125L80.4649 20.2901C80.4636 20.2273 80.5135 20.1754 80.5763 20.1741C80.6418 20.1745 80.691 20.2228 80.6923 20.2856L80.7087 21.108C80.71 21.1708 80.6601 21.2227 80.5973 21.2239C80.5965 21.2239 80.5957 21.2239 80.595 21.2239Z" fill="#D87355"/>
<path d="M82.2011 18.1855C82.0128 18.1855 81.8522 18.0408 81.8358 17.8498C81.8275 17.7521 81.8577 17.6571 81.9209 17.5821C81.984 17.5072 82.0726 17.4614 82.1703 17.4531L82.8299 17.3968C83.0321 17.3795 83.2094 17.5297 83.2266 17.7312C83.2349 17.8289 83.2048 17.9239 83.1416 17.9989C83.0784 18.0737 82.9899 18.1196 82.8922 18.1279L82.2325 18.1841C82.222 18.185 82.2115 18.1855 82.2011 18.1855ZM82.0624 17.8304C82.069 17.9071 82.1367 17.9652 82.2132 17.9575L82.8729 17.9013C82.91 17.8982 82.9437 17.8808 82.9677 17.8522C82.9918 17.8238 83.0032 17.7877 83.0001 17.7506C82.9936 17.6739 82.9263 17.6173 82.8492 17.6234L82.1896 17.6797C82.1524 17.6828 82.1187 17.7002 82.0947 17.7287C82.0707 17.7572 82.0593 17.7933 82.0624 17.8304Z" fill="#D87355"/>
<path d="M83.6851 18.1752C83.5988 18.1752 83.516 18.1451 83.4493 18.0888C83.3744 18.0256 83.3285 17.9371 83.3202 17.8394C83.3119 17.7418 83.3421 17.6468 83.4052 17.5719C83.4684 17.4969 83.5569 17.451 83.6546 17.4427L84.3143 17.3865C84.4122 17.3783 84.507 17.4084 84.5819 17.4716C84.6569 17.5347 84.7027 17.6233 84.711 17.721C84.7282 17.9225 84.5782 18.1004 84.3767 18.1176L83.7169 18.1738C83.7062 18.1748 83.6957 18.1752 83.6851 18.1752ZM84.3457 17.6126C84.3417 17.6126 84.3377 17.6127 84.3336 17.6132L83.6739 17.6693C83.6368 17.6725 83.603 17.6899 83.5791 17.7184C83.555 17.7469 83.5436 17.783 83.5467 17.8201C83.5499 17.8572 83.5673 17.8909 83.5958 17.9149C83.6243 17.939 83.6605 17.951 83.6975 17.9472L84.3573 17.891C84.4339 17.8845 84.4909 17.8168 84.4843 17.7402C84.4812 17.7031 84.4638 17.6694 84.4353 17.6454C84.41 17.624 84.3786 17.6126 84.3457 17.6126Z" fill="#D87355"/>
<path d="M83.6924 17.9155C83.6912 17.9155 83.6901 17.9155 83.6889 17.9154L82.8847 17.891C82.8219 17.8891 82.7726 17.8367 82.7745 17.774C82.7764 17.7111 82.8275 17.6595 82.8916 17.6638L83.6958 17.6881C83.7586 17.6901 83.8079 17.7424 83.806 17.8052C83.8041 17.8668 83.7536 17.9155 83.6924 17.9155Z" fill="#D87355"/>
<path d="M81.4546 18.2765C81.4123 18.2765 81.3717 18.2528 81.3521 18.212C81.3249 18.1555 81.3487 18.0875 81.4053 18.0603L82.1467 17.704C82.2033 17.6771 82.2712 17.7006 82.2984 17.7573C82.3256 17.8138 82.3018 17.8818 82.2452 17.909L81.5038 18.2652C81.4879 18.2729 81.4711 18.2765 81.4546 18.2765Z" fill="#D87355"/>
<path d="M85.3369 19.2715C85.2054 19.2715 85.0781 19.2007 85.0123 19.0768L84.7015 18.492C84.6066 18.3135 84.6747 18.0909 84.8533 17.996C84.94 17.9499 85.0392 17.9404 85.1328 17.9691C85.2265 17.9978 85.3034 18.0612 85.3495 18.1478L85.6602 18.7325C85.755 18.9111 85.687 19.1337 85.5083 19.2286C85.4537 19.2577 85.3949 19.2715 85.3369 19.2715ZM85.0254 18.1804C85.0028 18.1804 84.9805 18.1859 84.9601 18.1968C84.8922 18.2329 84.8663 18.3175 84.9023 18.3854L85.2131 18.9701C85.2492 19.038 85.3339 19.0639 85.4017 19.0278C85.4696 18.9917 85.4955 18.9071 85.4594 18.8392L85.1487 18.2546C85.1312 18.2217 85.1019 18.1975 85.0663 18.1866C85.0528 18.1824 85.0391 18.1804 85.0254 18.1804Z" fill="#D87355"/>
<path d="M85.6269 19.7984C85.5814 19.7984 85.5385 19.771 85.5209 19.7261L85.2276 18.9768C85.2047 18.9183 85.2335 18.8523 85.292 18.8295C85.3507 18.8065 85.4165 18.8354 85.4393 18.8939L85.7327 19.6432C85.7555 19.7017 85.7267 19.7677 85.6683 19.7905C85.6546 19.7959 85.6406 19.7984 85.6269 19.7984Z" fill="#D87355"/>
<path d="M85.0351 18.4234C85.0085 18.4234 84.9818 18.4141 84.9602 18.3952L84.3415 17.8531C84.2943 17.8118 84.2895 17.74 84.3309 17.6927C84.3721 17.6455 84.444 17.6407 84.4913 17.6822L85.1101 18.2243C85.1572 18.2656 85.162 18.3375 85.1206 18.3847C85.0982 18.4103 85.0667 18.4234 85.0351 18.4234Z" fill="#D87355"/>
</g>
</g>
<defs>
<clipPath id="clip0_177_9668">
<rect width="94" height="120" fill="white"/>
</clipPath>
<clipPath id="clip1_177_9668">
<rect x="-0.37207" y="11.5" width="94.7442" height="97" rx="7.51938" fill="white"/>
</clipPath>
</defs>
</svg>
