<svg width="94" height="120" viewBox="0 0 94 120" fill="none" xmlns="http://www.w3.org/2000/svg">
<g clip-path="url(#clip0_176_359)">
<rect width="94" height="120" fill="#EFBC73"/>
<g clip-path="url(#clip1_176_359)">
<path d="M46.9995 107.368C73.1624 107.368 94.3716 86.1589 94.3716 59.996C94.3716 33.8331 73.1624 12.6239 46.9995 12.6239C20.8366 12.6239 -0.372559 33.8331 -0.372559 59.996C-0.372559 86.1589 20.8366 107.368 46.9995 107.368Z" fill="#475DB4"/>
<path d="M17.2335 24.9623C17.4481 23.6398 16.55 22.3937 15.2275 22.1791C13.905 21.9645 12.6589 22.8626 12.4443 24.1851C12.2297 25.5076 13.1278 26.7536 14.4502 26.9683C15.7727 27.1829 17.0188 26.2848 17.2335 24.9623Z" fill="#E6D0BE"/>
<path d="M8.12021 38.3887C9.45999 38.3887 10.5461 37.3026 10.5461 35.9629C10.5461 34.6231 9.45999 33.537 8.12021 33.537C6.78044 33.537 5.69434 34.6231 5.69434 35.9629C5.69434 37.3026 6.78044 38.3887 8.12021 38.3887Z" fill="#E6D0BE"/>
<path d="M21.4835 38.4815C22.8233 38.4815 23.9094 37.3953 23.9094 36.0556C23.9094 34.7158 22.8233 33.6297 21.4835 33.6297C20.1437 33.6297 19.0576 34.7158 19.0576 36.0556C19.0576 37.3953 20.1437 38.4815 21.4835 38.4815Z" fill="#E6D0BE"/>
<path d="M28.1334 49.8245C29.4732 49.8245 30.5593 48.7384 30.5593 47.3986C30.5593 46.0588 29.4732 44.9727 28.1334 44.9727C26.7936 44.9727 25.7075 46.0588 25.7075 47.3986C25.7075 48.7384 26.7936 49.8245 28.1334 49.8245Z" fill="#E6D0BE"/>
<path d="M14.8292 50.0099C16.169 50.0099 17.2551 48.9238 17.2551 47.584C17.2551 46.2442 16.169 45.1581 14.8292 45.1581C13.4894 45.1581 12.4033 46.2442 12.4033 47.584C12.4033 48.9238 13.4894 50.0099 14.8292 50.0099Z" fill="#E6D0BE"/>
<path d="M14.8173 47.707C14.7976 47.707 14.7779 47.7019 14.7603 47.6917L8.10542 43.8495C8.07006 43.8292 8.04834 43.7915 8.04834 43.7507V36.0663C8.04834 36.0255 8.07006 35.9878 8.10542 35.9674L14.7603 32.1252C14.7956 32.105 14.8391 32.105 14.8744 32.1252L21.5293 35.9674C21.5646 35.9878 21.5864 36.0255 21.5864 36.0663V43.7507C21.5864 43.7915 21.5646 43.8292 21.5293 43.8495L14.8744 47.6917C14.8568 47.7019 14.8371 47.707 14.8173 47.707ZM8.27666 43.6848L14.8173 47.4611L21.3581 43.6848V36.1322L14.8173 32.3559L8.27666 36.1322V43.6848Z" fill="#E6D0BE"/>
<path d="M14.831 32.3083C14.7679 32.3083 14.7168 32.2573 14.7168 32.1942V24.5098C14.7168 24.469 14.7385 24.4313 14.7739 24.4109L21.4288 20.5686C21.4641 20.5483 21.5076 20.5483 21.5429 20.5686L28.1977 24.4109C28.2524 24.4425 28.2711 24.5123 28.2395 24.5669C28.2079 24.6215 28.1383 24.64 28.0836 24.6086L21.4858 20.7993L14.9451 24.5757V32.1942C14.9451 32.2573 14.894 32.3083 14.831 32.3083Z" fill="#E6D0BE"/>
<path d="M14.9078 55.478C14.8448 55.478 14.7936 55.4269 14.7936 55.3638V47.7453L8.25287 43.969L1.65512 47.7783C1.60048 47.8097 1.53069 47.7911 1.49917 47.7365C1.4677 47.6818 1.48637 47.6121 1.54096 47.5805L8.19579 43.7383C8.23115 43.7181 8.27459 43.7181 8.30995 43.7383L14.9648 47.5805C15.0002 47.6009 15.0219 47.6386 15.0219 47.6794V55.3638C15.022 55.4269 14.9708 55.478 14.9078 55.478Z" fill="#E6D0BE"/>
<path d="M28.1318 47.7071C28.112 47.7071 28.0924 47.702 28.0747 47.6919L21.4199 43.8497C21.3845 43.8293 21.3628 43.7916 21.3628 43.7508V36.0664C21.3628 36.0256 21.3845 35.988 21.4199 35.9676L28.0747 32.1254C28.1291 32.0939 28.1991 32.1125 28.2306 32.1672C28.2622 32.2218 28.2435 32.2916 28.1889 32.3231L21.5911 36.1323V43.6849L28.1318 47.4612L34.7295 43.6519C34.784 43.6202 34.8539 43.6391 34.8855 43.6937C34.9169 43.7483 34.8983 43.8181 34.8437 43.8497L28.1889 47.6919C28.1712 47.702 28.1515 47.7071 28.1318 47.7071Z" fill="#E6D0BE"/>
<path d="M90.197 89.0201H29.724C29.661 89.0201 29.6099 88.969 29.6099 88.9059V46.5624C29.6099 46.4993 29.661 46.4482 29.724 46.4482H90.197C90.26 46.4482 90.3112 46.4993 90.3112 46.5624V88.9059C90.3111 88.969 90.26 89.0201 90.197 89.0201ZM29.8382 88.7917H90.0828V46.6766H29.8382V88.7917Z" fill="#475DB4"/>
<path d="M90.4982 42.7881H29.5649V46.7108H90.4982V42.7881Z" fill="#475DB4"/>
<path d="M32.9844 44.7103C32.9844 45.1908 32.5942 45.5804 32.1128 45.5804C31.6314 45.5804 31.2412 45.1909 31.2412 44.7103C31.2412 44.2298 31.6314 43.8402 32.1128 43.8402C32.5942 43.8402 32.9844 44.2298 32.9844 44.7103Z" fill="white"/>
<path d="M35.8008 44.7103C35.8008 45.1908 35.4106 45.5804 34.9292 45.5804C34.4478 45.5804 34.0576 45.1909 34.0576 44.7103C34.0576 44.2298 34.4478 43.8402 34.9292 43.8402C35.4106 43.8402 35.8008 44.2298 35.8008 44.7103Z" fill="white"/>
<path d="M38.6167 44.7103C38.6167 45.1908 38.2265 45.5804 37.7451 45.5804C37.2638 45.5804 36.8735 45.1909 36.8735 44.7103C36.8735 44.2298 37.2638 43.8402 37.7451 43.8402C38.2265 43.8402 38.6167 44.2298 38.6167 44.7103Z" fill="white"/>
<path d="M89.2931 73.3477H72.8213V74.3143H89.2931V73.3477Z" fill="#E6D0BE"/>
<path d="M86.5099 75.633H72.8213V76.5997H86.5099V75.633Z" fill="#E6D0BE"/>
<path d="M88.9257 77.8218H73.0298V78.7885H88.9257V77.8218Z" fill="#E6D0BE"/>
<path d="M54.2984 49.5025H39.9941V50.4692H54.2984V49.5025Z" fill="#E6D0BE"/>
<path d="M47.1543 51.9376H39.9941V52.9042H47.1543V51.9376Z" fill="#E6D0BE"/>
<path d="M50.3484 79.6115C48.8596 79.6115 47.4345 79.2724 46.0324 78.9389C45.6109 78.8386 45.175 78.7349 44.7454 78.6424C44.6838 78.6291 44.6446 78.5684 44.6579 78.5068C44.6711 78.4451 44.7321 78.4055 44.7935 78.4192C45.2255 78.5122 45.6626 78.6162 46.0852 78.7168C48.9313 79.3938 51.8742 80.094 55.2366 77.8555C58.5989 75.6168 59.0879 72.6315 59.5608 69.7445C60.0416 66.8093 60.5389 63.7742 63.9838 61.4806C67.429 59.1864 70.4211 59.8984 73.3147 60.587C76.1609 61.2641 79.1038 61.964 82.4663 59.7255C85.5374 57.6806 86.2109 55.0439 86.6779 52.2951C86.6885 52.233 86.7469 52.1919 86.8096 52.2015C86.8717 52.2121 86.9136 52.2711 86.903 52.3333C86.4273 55.1334 85.7397 57.8202 82.5928 59.9155C79.1476 62.2094 76.1555 61.4976 73.2619 60.8091C70.4158 60.132 67.4728 59.4319 64.1103 61.6706C60.7481 63.9092 60.2591 66.8945 59.7861 69.7815C59.3053 72.7167 58.8081 75.7519 55.3631 78.0455C53.5874 79.2278 51.932 79.6115 50.3484 79.6115Z" fill="#475DB4"/>
<path d="M51.5688 80.1952C49.6753 80.1952 47.831 79.5587 46.0217 78.9342C45.589 78.7849 45.1416 78.6304 44.7015 78.4876C44.6415 78.4681 44.6087 78.4038 44.6282 78.3438C44.6476 78.2838 44.7119 78.2509 44.772 78.2704C45.2141 78.4139 45.6625 78.5687 46.0962 78.7184C49.2056 79.7916 52.4209 80.9011 55.7774 78.6663C59.1341 76.4314 59.3504 73.037 59.5596 69.7542C59.7724 66.416 59.9924 62.9642 63.4431 60.6667C66.8938 58.3688 70.1636 59.4974 73.3255 60.5885C76.4349 61.6617 79.6503 62.7709 83.0072 60.5362C86.2872 58.3522 86.498 55.113 86.7017 51.9806C86.7058 51.9176 86.7618 51.8708 86.823 51.874C86.886 51.8781 86.9336 51.9324 86.9296 51.9953C86.7222 55.1832 86.5078 58.4797 83.1337 60.7262C79.6828 63.0241 76.4131 61.8955 73.2511 60.8043C70.1415 59.7312 66.9262 58.6217 63.5696 60.8566C60.213 63.0915 59.9967 66.4859 59.7875 69.7687C59.5747 73.1068 59.3547 76.5587 55.904 78.8562C54.4278 79.8391 52.9845 80.1952 51.5688 80.1952Z" fill="#475DB4"/>
<path d="M45.5244 81.663C45.5148 81.663 45.505 81.6618 45.4952 81.6593C45.4343 81.6432 45.3979 81.5808 45.414 81.5198C45.648 80.6318 45.7998 79.7057 45.9465 78.81C46.4274 75.8747 46.9247 72.8395 50.3699 70.5457C53.815 68.2517 56.8072 68.9635 59.7008 69.6521C62.5469 70.3294 65.49 71.0295 68.8523 68.7907C72.2146 66.552 72.7036 63.5667 73.1765 60.6798C73.6574 57.7445 74.1546 54.7093 77.5995 52.4156C80.7412 50.3237 83.4636 50.7189 86.2068 51.3518C86.2682 51.366 86.3065 51.4273 86.2923 51.4887C86.2781 51.5503 86.2168 51.5889 86.1554 51.5743C83.4629 50.9529 80.792 50.5643 77.7261 52.6056C74.3638 54.8443 73.8748 57.8296 73.4018 60.7167C72.921 63.6519 72.4238 66.687 68.9789 68.9807C65.5337 71.2746 62.5415 70.5626 59.648 69.8742C56.8019 69.1971 53.8588 68.4971 50.4964 70.7357C47.134 72.9745 46.6449 75.9598 46.1719 78.8469C46.0242 79.7478 45.8716 80.6795 45.6347 81.578C45.6212 81.6292 45.575 81.663 45.5244 81.663Z" fill="#475DB4"/>
<path d="M45.7178 82.2458C45.7114 82.2458 45.705 82.2452 45.6984 82.2441C45.6363 82.2336 45.5945 82.1745 45.6052 82.1123C45.79 81.0348 45.8591 79.8946 45.926 78.7919C46.1294 75.4393 46.3396 71.9726 49.7907 69.6748C53.2416 67.3768 56.521 68.5201 59.6927 69.6257C62.8116 70.7128 66.0365 71.8369 69.3931 69.602C72.7495 67.3673 72.9562 63.9583 73.1561 60.6615C73.3593 57.3091 73.5695 53.8424 77.0203 51.5449C80.2785 49.3753 83.4422 50.4473 85.9845 51.3088C86.0443 51.329 86.0763 51.3938 86.056 51.4536C86.0357 51.5132 85.9712 51.5453 85.9113 51.525C82.7385 50.45 80.0786 49.783 77.1468 51.7348C73.7905 53.9696 73.5838 57.3786 73.3839 60.6754C73.1806 64.0279 72.9705 67.4944 69.5196 69.792C66.0685 72.09 62.7892 70.9467 59.6175 69.8412C56.4987 68.7541 53.2736 67.6302 49.9171 69.8648C46.5605 72.0997 46.3538 75.5088 46.1539 78.8056C46.0866 79.9145 46.0171 81.0611 45.8301 82.1509C45.8207 82.2065 45.7724 82.2458 45.7178 82.2458Z" fill="#475DB4"/>
<path d="M68.6022 68.7058C68.5653 68.7058 68.5291 68.688 68.5071 68.655L66.4669 65.591C66.432 65.5385 66.4462 65.4676 66.4987 65.4327C66.5511 65.3975 66.622 65.4118 66.657 65.4644L68.6971 68.5284C68.7321 68.581 68.7179 68.6518 68.6653 68.6867C68.6459 68.6997 68.6239 68.7058 68.6022 68.7058Z" fill="#475DB4"/>
<path d="M66.2375 65.1511C66.2006 65.1511 66.1643 65.1333 66.1424 65.1003L64.067 61.9832C64.0321 61.9307 64.0463 61.8599 64.0988 61.825C64.1512 61.7898 64.2221 61.8041 64.2571 61.8566L66.3324 64.9737C66.3674 65.0262 66.3532 65.0971 66.3006 65.132C66.2812 65.145 66.2592 65.1511 66.2375 65.1511Z" fill="#475DB4"/>
<path d="M67.5465 69.407C67.5096 69.407 67.4734 69.3891 67.4514 69.3562L65.4112 66.2921C65.3763 66.2396 65.3905 66.1687 65.443 66.1338C65.4955 66.0986 65.5663 66.113 65.6013 66.1655L67.6415 69.2296C67.6764 69.2821 67.6622 69.3529 67.6097 69.3878C67.5902 69.4008 67.5683 69.407 67.5465 69.407Z" fill="#475DB4"/>
<path d="M65.1819 65.8567C65.145 65.8567 65.1087 65.8388 65.0867 65.8058L63.0113 62.6888C62.9764 62.6362 62.9906 62.5654 63.0431 62.5305C63.0955 62.4951 63.1665 62.5096 63.2014 62.5622L65.2768 65.6792C65.3118 65.7317 65.2975 65.8026 65.245 65.8375C65.2256 65.8505 65.2037 65.8567 65.1819 65.8567Z" fill="#475DB4"/>
<path d="M66.3281 69.865C66.2912 69.865 66.255 69.8471 66.233 69.8142L64.3551 66.9937C64.3201 66.9412 64.3344 66.8704 64.3869 66.8355C64.4393 66.8001 64.5102 66.8146 64.5451 66.8671L66.423 69.6875C66.458 69.7401 66.4438 69.8109 66.3913 69.8458C66.3718 69.8588 66.3498 69.865 66.3281 69.865Z" fill="#475DB4"/>
<path d="M64.1256 66.5562C64.0887 66.5562 64.0524 66.5383 64.0304 66.5053L62.1173 63.632C62.0824 63.5794 62.0966 63.5086 62.1491 63.4737C62.2015 63.4383 62.2723 63.4529 62.3074 63.5054L64.2204 66.3787C64.2554 66.4312 64.2412 66.5021 64.1887 66.537C64.1693 66.55 64.1473 66.5562 64.1256 66.5562Z" fill="#475DB4"/>
<path d="M65.0016 70.1643C64.9647 70.1643 64.9284 70.1464 64.9065 70.1135L63.2989 67.6991C63.264 67.6466 63.2782 67.5758 63.3307 67.5409C63.3831 67.5056 63.4541 67.52 63.489 67.5725L65.0965 69.9869C65.1315 70.0394 65.1173 70.1102 65.0647 70.1451C65.0453 70.1581 65.0233 70.1643 65.0016 70.1643Z" fill="#475DB4"/>
<path d="M63.0701 67.2619C63.0331 67.2619 62.997 67.244 62.9749 67.2111L61.3863 64.825C61.3514 64.7725 61.3656 64.7017 61.4181 64.6668C61.4706 64.6314 61.5414 64.6459 61.5764 64.6984L63.165 67.0845C63.1999 67.137 63.1857 67.2078 63.1332 67.2427C63.1138 67.2557 63.0918 67.2619 63.0701 67.2619Z" fill="#475DB4"/>
<path d="M63.5133 70.2159C63.4764 70.2159 63.4401 70.198 63.4182 70.165L62.2433 68.4005C62.2083 68.348 62.2225 68.2771 62.2751 68.2422C62.3275 68.207 62.3983 68.2214 62.4333 68.2739L63.6082 70.0384C63.6432 70.0909 63.629 70.1618 63.5764 70.1967C63.557 70.2097 63.5351 70.2159 63.5133 70.2159Z" fill="#475DB4"/>
<path d="M62.0139 67.9625C61.977 67.9625 61.9407 67.9447 61.9188 67.9117L60.7628 66.1755C60.7278 66.123 60.7421 66.0521 60.7946 66.0172C60.847 65.9818 60.9179 65.9965 60.9528 66.0489L62.1088 67.7851C62.1438 67.8376 62.1295 67.9085 62.077 67.9434C62.0576 67.9564 62.0356 67.9625 62.0139 67.9625Z" fill="#475DB4"/>
<path d="M61.9168 70.1089C61.8799 70.1089 61.8436 70.091 61.8217 70.058L61.1876 69.1058C61.1527 69.0533 61.1669 68.9824 61.2194 68.9475C61.2719 68.9125 61.3427 68.9268 61.3777 68.9792L62.0117 69.9314C62.0467 69.9839 62.0325 70.0548 61.9799 70.0897C61.9605 70.1027 61.9385 70.1089 61.9168 70.1089Z" fill="#475DB4"/>
<path d="M60.958 68.6659C60.9211 68.6659 60.8849 68.648 60.8629 68.6151L60.2477 67.6911C60.2127 67.6385 60.2269 67.5677 60.2794 67.5328C60.3319 67.4976 60.4027 67.5119 60.4377 67.5645L61.053 68.4885C61.0879 68.541 61.0737 68.6119 61.0212 68.6468C61.0017 68.6597 60.9798 68.6659 60.958 68.6659Z" fill="#475DB4"/>
<path d="M67.2584 64.3969C67.2215 64.3969 67.1853 64.3791 67.1633 64.3461L65.1231 61.2819C65.0882 61.2294 65.1025 61.1585 65.1549 61.1236C65.2073 61.0884 65.2782 61.1028 65.3132 61.1553L67.3534 64.2195C67.3883 64.272 67.3741 64.3429 67.3216 64.3778C67.3021 64.3908 67.2802 64.3969 67.2584 64.3969Z" fill="#475DB4"/>
<path d="M69.6584 68.0009C69.6215 68.0009 69.5852 67.9831 69.5633 67.9501L67.4879 64.833C67.453 64.7805 67.4672 64.7096 67.5197 64.6748C67.5721 64.6396 67.643 64.6539 67.678 64.7064L69.7533 67.8235C69.7883 67.876 69.7741 67.9469 69.7215 67.9818C69.7021 67.9948 69.6801 68.0009 69.6584 68.0009Z" fill="#475DB4"/>
<path d="M68.3145 63.6934C68.2776 63.6934 68.2413 63.6756 68.2194 63.6426L66.3414 60.8222C66.3065 60.7696 66.3207 60.6988 66.3732 60.6639C66.4256 60.6287 66.4965 60.643 66.5315 60.6956L68.4094 63.516C68.4444 63.5685 68.4302 63.6394 68.3776 63.6743C68.3582 63.6873 68.3362 63.6934 68.3145 63.6934Z" fill="#475DB4"/>
<path d="M70.5519 67.0559C70.515 67.0559 70.4787 67.0381 70.4568 67.0051L68.5436 64.1317C68.5086 64.0792 68.5228 64.0084 68.5753 63.9735C68.6278 63.9383 68.6985 63.9526 68.7336 64.0051L70.6468 66.8785C70.6818 66.931 70.6676 67.0019 70.615 67.0368C70.5956 67.0498 70.5736 67.0559 70.5519 67.0559Z" fill="#475DB4"/>
<path d="M69.3702 62.9892C69.3333 62.9892 69.297 62.9714 69.275 62.9384L67.6676 60.5241C67.6326 60.4716 67.6469 60.4007 67.6994 60.3658C67.7517 60.3306 67.8226 60.345 67.8576 60.3975L69.4651 62.8118C69.5 62.8643 69.4858 62.9352 69.4333 62.9701C69.4139 62.9831 69.392 62.9892 69.3702 62.9892Z" fill="#475DB4"/>
<path d="M71.2835 65.8637C71.2466 65.8637 71.2103 65.8459 71.1884 65.8129L69.5997 63.4269C69.5648 63.3744 69.579 63.3035 69.6315 63.2686C69.6839 63.2332 69.7547 63.2479 69.7898 63.3003L71.3785 65.6863C71.4134 65.7388 71.3992 65.8097 71.3467 65.8446C71.3272 65.8575 71.3053 65.8637 71.2835 65.8637Z" fill="#475DB4"/>
<path d="M70.4263 62.2874C70.3894 62.2874 70.3532 62.2696 70.3312 62.2365L69.1563 60.4721C69.1214 60.4196 69.1357 60.3487 69.1881 60.3138C69.2405 60.2784 69.3114 60.293 69.3464 60.3455L70.5212 62.11C70.5562 62.1625 70.5419 62.2334 70.4895 62.2683C70.47 62.2813 70.448 62.2874 70.4263 62.2874Z" fill="#475DB4"/>
<path d="M71.9065 64.512C71.8696 64.512 71.8334 64.4942 71.8114 64.4612L70.6554 62.725C70.6204 62.6725 70.6347 62.6016 70.6871 62.5667C70.7396 62.5314 70.8104 62.5459 70.8454 62.5984L72.0014 64.3346C72.0363 64.3871 72.0221 64.458 71.9696 64.4929C71.9502 64.5059 71.9282 64.512 71.9065 64.512Z" fill="#475DB4"/>
<path d="M71.4817 61.5834C71.4448 61.5834 71.4086 61.5656 71.3866 61.5326L70.7526 60.5804C70.7176 60.5279 70.7318 60.457 70.7843 60.4221C70.8367 60.3872 70.9077 60.4013 70.9426 60.4538L71.5767 61.406C71.6116 61.4585 71.5974 61.5294 71.5449 61.5643C71.5254 61.5771 71.5035 61.5834 71.4817 61.5834Z" fill="#475DB4"/>
<path d="M72.4218 62.9944C72.3849 62.9944 72.3487 62.9766 72.3267 62.9435L71.7115 62.0195C71.6766 61.9671 71.6908 61.8962 71.7433 61.8613C71.7957 61.8261 71.8666 61.8404 71.9016 61.8931L72.5168 62.8171C72.5517 62.8695 72.5374 62.9404 72.485 62.9753C72.4655 62.9883 72.4436 62.9944 72.4218 62.9944Z" fill="#475DB4"/>
<path d="M54.9572 77.7952C54.9203 77.7952 54.884 77.7774 54.862 77.7444L52.8219 74.6802C52.7869 74.6277 52.8012 74.5568 52.8537 74.5219C52.9061 74.4867 52.9769 74.5011 53.0119 74.5536L55.0521 77.6178C55.087 77.6703 55.0728 77.7412 55.0203 77.7761C55.0009 77.7891 54.9789 77.7952 54.9572 77.7952Z" fill="#475DB4"/>
<path d="M52.5925 74.2404C52.5556 74.2404 52.5193 74.2226 52.4973 74.1896L50.422 71.0725C50.387 71.02 50.4012 70.9491 50.4538 70.9143C50.5062 70.8791 50.577 70.8934 50.612 70.9459L52.6874 74.063C52.7223 74.1155 52.7081 74.1864 52.6556 74.2213C52.6362 74.2342 52.6143 74.2404 52.5925 74.2404Z" fill="#475DB4"/>
<path d="M53.9015 78.4964C53.8646 78.4964 53.8284 78.4786 53.8064 78.4456L51.7662 75.3816C51.7313 75.329 51.7455 75.2582 51.798 75.2233C51.8505 75.1881 51.9213 75.2024 51.9563 75.255L53.9964 78.319C54.0314 78.3715 54.0172 78.4424 53.9647 78.4773C53.9452 78.4903 53.9232 78.4964 53.9015 78.4964Z" fill="#475DB4"/>
<path d="M51.5369 74.9458C51.4999 74.9458 51.4637 74.928 51.4417 74.895L49.3663 71.7779C49.3314 71.7254 49.3456 71.6545 49.3981 71.6196C49.4506 71.5844 49.5214 71.5988 49.5564 71.6513L51.6318 74.7684C51.6667 74.8209 51.6525 74.8918 51.6 74.9267C51.5806 74.9397 51.5586 74.9458 51.5369 74.9458Z" fill="#475DB4"/>
<path d="M52.6831 78.9542C52.6462 78.9542 52.6099 78.9364 52.588 78.9034L50.7101 76.083C50.6751 76.0305 50.6893 75.9596 50.7418 75.9247C50.7943 75.8895 50.8651 75.9038 50.9001 75.9564L52.778 78.7768C52.813 78.8293 52.7988 78.9002 52.7462 78.9351C52.7268 78.9481 52.7049 78.9542 52.6831 78.9542Z" fill="#475DB4"/>
<path d="M50.4806 75.6493C50.4437 75.6493 50.4075 75.6315 50.3855 75.5985L48.4723 72.7252C48.4373 72.6727 48.4515 72.6018 48.5041 72.5669C48.5566 72.5317 48.6273 72.5461 48.6623 72.5986L50.5755 75.4719C50.6105 75.5244 50.5963 75.5953 50.5437 75.6302C50.5243 75.6432 50.5023 75.6493 50.4806 75.6493Z" fill="#475DB4"/>
<path d="M51.3566 79.2535C51.3197 79.2535 51.2834 79.2357 51.2614 79.2027L49.6539 76.7884C49.619 76.7359 49.6332 76.665 49.6857 76.6301C49.7382 76.5948 49.8089 76.6094 49.844 76.6618L51.4515 79.0761C51.4864 79.1286 51.4722 79.1995 51.4197 79.2344C51.4003 79.2474 51.3783 79.2535 51.3566 79.2535Z" fill="#475DB4"/>
<path d="M49.4246 76.3511C49.3877 76.3511 49.3515 76.3333 49.3295 76.3003L47.7408 73.9143C47.7059 73.8618 47.7201 73.7909 47.7726 73.7561C47.8251 73.7209 47.8958 73.7352 47.9309 73.7877L49.5196 76.1737C49.5545 76.2263 49.5403 76.2971 49.4878 76.332C49.4683 76.345 49.4464 76.3511 49.4246 76.3511Z" fill="#475DB4"/>
<path d="M49.8683 79.3051C49.8314 79.3051 49.7951 79.2873 49.7731 79.2543L48.5983 77.4898C48.5633 77.4373 48.5775 77.3664 48.63 77.3315C48.6824 77.2963 48.7533 77.3107 48.7883 77.3632L49.9632 79.1277C49.9981 79.1802 49.9839 79.2511 49.9314 79.286C49.912 79.299 49.89 79.3051 49.8683 79.3051Z" fill="#475DB4"/>
<path d="M48.3694 77.0557C48.3324 77.0557 48.2962 77.0379 48.2742 77.0049L47.1183 75.2687C47.0833 75.2162 47.0976 75.1453 47.15 75.1104C47.2025 75.0752 47.2733 75.0896 47.3083 75.1421L48.4643 76.8783C48.4992 76.9308 48.485 77.0017 48.4325 77.0366C48.4131 77.0495 48.3911 77.0557 48.3694 77.0557Z" fill="#475DB4"/>
<path d="M48.2718 79.1981C48.2349 79.1981 48.1986 79.1803 48.1766 79.1473L47.5426 78.1951C47.5076 78.1425 47.5219 78.0717 47.5744 78.0368C47.6268 78.0018 47.6977 78.0159 47.7326 78.0685L48.3667 79.0207C48.4016 79.0732 48.3874 79.1441 48.3349 79.179C48.3154 79.1918 48.2935 79.1981 48.2718 79.1981Z" fill="#475DB4"/>
<path d="M47.313 77.7551C47.2761 77.7551 47.2399 77.7373 47.2179 77.7043L46.6026 76.7803C46.5677 76.7278 46.5819 76.6569 46.6344 76.622C46.6869 76.5868 46.7577 76.6012 46.7927 76.6537L47.4079 77.5777C47.4429 77.6302 47.4287 77.7011 47.3762 77.736C47.3567 77.749 47.3347 77.7551 47.313 77.7551Z" fill="#475DB4"/>
<path d="M53.6134 73.4857C53.5765 73.4857 53.5403 73.4679 53.5183 73.4349L51.4781 70.3708C51.4432 70.3183 51.4574 70.2474 51.5099 70.2125C51.5622 70.1773 51.6331 70.1917 51.6682 70.2442L53.7083 73.3083C53.7433 73.3608 53.7291 73.4317 53.6766 73.4666C53.6571 73.4796 53.6351 73.4857 53.6134 73.4857Z" fill="#475DB4"/>
<path d="M56.0129 77.0898C55.976 77.0898 55.9398 77.072 55.9178 77.039L53.8424 73.922C53.8074 73.8695 53.8217 73.7986 53.8742 73.7637C53.9266 73.7285 53.9975 73.7429 54.0325 73.7954L56.1079 76.9124C56.1428 76.965 56.1286 77.0358 56.0761 77.0707C56.0566 77.0837 56.0347 77.0898 56.0129 77.0898Z" fill="#475DB4"/>
<path d="M54.6694 72.7829C54.6325 72.7829 54.5963 72.765 54.5743 72.732L52.6964 69.9116C52.6615 69.8591 52.6757 69.7882 52.7282 69.7533C52.7805 69.7181 52.8514 69.7326 52.8865 69.785L54.7643 72.6054C54.7993 72.6579 54.7851 72.7288 54.7326 72.7637C54.7131 72.7768 54.6912 72.7829 54.6694 72.7829Z" fill="#475DB4"/>
<path d="M56.9069 76.1452C56.87 76.1452 56.8337 76.1273 56.8117 76.0944L54.8985 73.221C54.8636 73.1685 54.8778 73.0976 54.9303 73.0628C54.9827 73.0276 55.0536 73.0419 55.0886 73.0944L57.0018 75.9678C57.0367 76.0203 57.0225 76.0912 56.97 76.1261C56.9506 76.1391 56.9286 76.1452 56.9069 76.1452Z" fill="#475DB4"/>
<path d="M55.7252 72.0786C55.6882 72.0786 55.652 72.0607 55.63 72.0278L54.0226 69.6134C53.9876 69.5609 54.0019 69.49 54.0543 69.4552C54.1068 69.4198 54.1776 69.4343 54.2126 69.4868L55.8201 71.9012C55.855 71.9537 55.8408 72.0245 55.7883 72.0594C55.7689 72.0724 55.7469 72.0786 55.7252 72.0786Z" fill="#475DB4"/>
<path d="M57.6385 74.9526C57.6016 74.9526 57.5653 74.9348 57.5434 74.9018L55.9547 72.5158C55.9198 72.4633 55.934 72.3924 55.9865 72.3575C56.0389 72.3221 56.1097 72.3367 56.1448 72.3892L57.7334 74.7752C57.7684 74.8277 57.7541 74.8986 57.7016 74.9335C57.6822 74.9465 57.6602 74.9526 57.6385 74.9526Z" fill="#475DB4"/>
<path d="M56.7813 71.3763C56.7444 71.3763 56.7081 71.3585 56.6862 71.3253L55.5113 69.5609C55.4764 69.5084 55.4906 69.4375 55.5431 69.4027C55.5955 69.3675 55.6663 69.3818 55.7014 69.4343L56.8762 71.1988C56.9112 71.2514 56.8969 71.3222 56.8444 71.3571C56.825 71.3702 56.803 71.3763 56.7813 71.3763Z" fill="#475DB4"/>
<path d="M58.2614 73.6013C58.2245 73.6013 58.1883 73.5834 58.1663 73.5505L57.0103 71.8143C56.9754 71.7617 56.9897 71.6909 57.0421 71.656C57.0946 71.6207 57.1654 71.6351 57.2004 71.6877L58.3564 73.4239C58.3913 73.4764 58.3771 73.5472 58.3246 73.5821C58.3051 73.5951 58.2832 73.6013 58.2614 73.6013Z" fill="#475DB4"/>
<path d="M57.8367 70.6726C57.7998 70.6726 57.7636 70.6548 57.7416 70.6218L57.1075 69.6696C57.0726 69.6171 57.0868 69.5462 57.1393 69.5113C57.1918 69.4765 57.2625 69.4905 57.2976 69.543L57.9316 70.4952C57.9666 70.5478 57.9524 70.6186 57.8999 70.6535C57.8804 70.6664 57.8585 70.6726 57.8367 70.6726Z" fill="#475DB4"/>
<path d="M58.7764 72.0836C58.7395 72.0836 58.7032 72.0657 58.6813 72.0328L58.066 71.1088C58.0311 71.0562 58.0453 70.9854 58.0978 70.9505C58.1503 70.9153 58.2211 70.9297 58.2561 70.9822L58.8713 71.9062C58.9063 71.9587 58.8921 72.0296 58.8395 72.0644C58.8201 72.0774 58.7982 72.0836 58.7764 72.0836Z" fill="#475DB4"/>
<path d="M82.3297 59.564C82.2928 59.564 82.2566 59.5462 82.2346 59.5132L80.1944 56.4492C80.1595 56.3966 80.1737 56.3258 80.2262 56.2909C80.2786 56.2557 80.3495 56.2701 80.3845 56.3226L82.4247 59.3866C82.4596 59.4391 82.4454 59.51 82.3929 59.5449C82.3734 59.5579 82.3515 59.564 82.3297 59.564Z" fill="#475DB4"/>
<path d="M79.965 56.0134C79.9281 56.0134 79.8919 55.9956 79.8699 55.9626L77.7945 52.8455C77.7596 52.793 77.7738 52.7221 77.8263 52.6872C77.8787 52.652 77.9496 52.6665 77.9846 52.7189L80.06 55.836C80.0949 55.8885 80.0807 55.9594 80.0282 55.9943C80.0087 56.0073 79.9868 56.0134 79.965 56.0134Z" fill="#475DB4"/>
<path d="M81.2741 60.2693C81.2372 60.2693 81.201 60.2515 81.1789 60.2185L79.1388 57.1544C79.1038 57.1019 79.118 57.0311 79.1706 56.9962C79.223 56.961 79.2938 56.9753 79.3288 57.0278L81.369 60.0919C81.4039 60.1444 81.3897 60.2153 81.3372 60.2502C81.3178 60.2632 81.2958 60.2693 81.2741 60.2693Z" fill="#475DB4"/>
<path d="M78.9094 56.7188C78.8725 56.7188 78.8362 56.701 78.8142 56.668L76.7389 53.5509C76.7039 53.4984 76.7181 53.4276 76.7707 53.3927C76.8231 53.3574 76.8939 53.3718 76.9289 53.4244L79.0043 56.5414C79.0392 56.5939 79.025 56.6648 78.9725 56.6997C78.9531 56.7127 78.9311 56.7188 78.9094 56.7188Z" fill="#475DB4"/>
<path d="M80.0556 60.7272C80.0187 60.7272 79.9825 60.7094 79.9605 60.6764L78.0826 57.856C78.0477 57.8035 78.0619 57.7326 78.1144 57.6977C78.1669 57.6625 78.2376 57.6769 78.2727 57.7294L80.1506 60.5498C80.1855 60.6023 80.1713 60.6732 80.1188 60.7081C80.0994 60.7211 80.0774 60.7272 80.0556 60.7272Z" fill="#475DB4"/>
<path d="M77.8536 57.4183C77.8167 57.4183 77.7804 57.4005 77.7585 57.3675L75.8453 54.4942C75.8104 54.4417 75.8246 54.3708 75.8771 54.3359C75.9296 54.3007 76.0003 54.3151 76.0354 54.3676L77.9485 57.2409C77.9835 57.2934 77.9693 57.3643 77.9167 57.3992C77.8973 57.4122 77.8753 57.4183 77.8536 57.4183Z" fill="#475DB4"/>
<path d="M78.7291 61.0266C78.6922 61.0266 78.656 61.0087 78.634 60.9758L77.0265 58.5614C76.9915 58.5089 77.0057 58.438 77.0583 58.4032C77.1107 58.3678 77.1815 58.3823 77.2165 58.4348L78.8241 60.8491C78.859 60.9017 78.8448 60.9725 78.7923 61.0074C78.7728 61.0204 78.7508 61.0266 78.7291 61.0266Z" fill="#475DB4"/>
<path d="M76.7972 58.1243C76.7603 58.1243 76.7241 58.1065 76.7021 58.0735L75.1134 55.6874C75.0784 55.6349 75.0927 55.564 75.1452 55.5291C75.1976 55.4938 75.2684 55.5083 75.3034 55.5609L76.8921 57.947C76.927 57.9994 76.9128 58.0703 76.8603 58.1052C76.8409 58.1182 76.8189 58.1243 76.7972 58.1243Z" fill="#475DB4"/>
<path d="M77.2412 61.0781C77.2043 61.0781 77.1681 61.0602 77.1461 61.0272L75.9713 59.2627C75.9363 59.2102 75.9506 59.1394 76.0031 59.1045C76.0555 59.0693 76.1264 59.0835 76.1613 59.1362L77.3362 60.9006C77.3711 60.9532 77.3569 61.024 77.3044 61.0589C77.285 61.0719 77.263 61.0781 77.2412 61.0781Z" fill="#475DB4"/>
<path d="M75.7415 58.8249C75.7046 58.8249 75.6683 58.8071 75.6463 58.7739L74.4903 57.0376C74.4554 56.9852 74.4696 56.9144 74.5221 56.8795C74.5745 56.8441 74.6453 56.8586 74.6804 56.9112L75.8364 58.6475C75.8713 58.6999 75.8571 58.7708 75.8046 58.8057C75.7852 58.8188 75.7632 58.8249 75.7415 58.8249Z" fill="#475DB4"/>
<path d="M75.6443 60.9674C75.6074 60.9674 75.5711 60.9495 75.5491 60.9164L74.9151 59.9641C74.8802 59.9117 74.8944 59.8408 74.9469 59.8059C74.9993 59.7706 75.0702 59.7851 75.1052 59.8377L75.7392 60.79C75.7741 60.8424 75.7599 60.9133 75.7074 60.9482C75.688 60.9613 75.666 60.9674 75.6443 60.9674Z" fill="#475DB4"/>
<path d="M74.6855 59.528C74.6486 59.528 74.6124 59.5102 74.5904 59.4772L73.9752 58.5533C73.9403 58.5008 73.9545 58.4299 74.007 58.395C74.0594 58.3598 74.1303 58.3743 74.1653 58.4267L74.7804 59.3506C74.8154 59.4031 74.8012 59.474 74.7487 59.5089C74.7292 59.5219 74.7073 59.528 74.6855 59.528Z" fill="#475DB4"/>
<path d="M80.986 55.2591C80.9491 55.2591 80.9128 55.2412 80.8909 55.2082L78.8507 52.1442C78.8157 52.0917 78.83 52.0208 78.8825 51.9859C78.9349 51.9505 79.0058 51.9652 79.0408 52.0176L81.0809 55.0816C81.1159 55.1342 81.1016 55.205 81.0491 55.2399C81.0297 55.2529 81.0077 55.2591 80.986 55.2591Z" fill="#475DB4"/>
<path d="M83.3859 58.8632C83.349 58.8632 83.3128 58.8454 83.2908 58.8124L81.2154 55.6954C81.1805 55.6428 81.1947 55.572 81.2472 55.5371C81.2996 55.5018 81.3705 55.5162 81.4055 55.5688L83.4809 58.6858C83.5158 58.7383 83.5016 58.8092 83.4491 58.8441C83.4296 58.8571 83.4077 58.8632 83.3859 58.8632Z" fill="#475DB4"/>
<path d="M82.042 54.556C82.0051 54.556 81.9688 54.5382 81.9468 54.5051L80.0689 51.6846C80.034 51.6321 80.0483 51.5613 80.1007 51.5264C80.153 51.4911 80.224 51.5054 80.259 51.5581L82.1369 54.3785C82.1718 54.4311 82.1576 54.5019 82.1051 54.5368C82.0857 54.5499 82.0637 54.556 82.042 54.556Z" fill="#475DB4"/>
<path d="M84.2799 57.9143C84.2429 57.9143 84.2067 57.8965 84.1847 57.8633L82.2716 54.9898C82.2366 54.9374 82.2509 54.8666 82.3034 54.8317C82.3558 54.7965 82.4266 54.8108 82.4616 54.8635L84.3748 57.7369C84.4097 57.7893 84.3955 57.8602 84.343 57.8951C84.3235 57.9082 84.3016 57.9143 84.2799 57.9143Z" fill="#475DB4"/>
<path d="M83.0978 53.8515C83.0609 53.8515 83.0246 53.8337 83.0027 53.8007L81.3951 51.3864C81.3602 51.3338 81.3744 51.263 81.4269 51.2281C81.4793 51.1927 81.5502 51.2073 81.5852 51.2598L83.1927 53.6741C83.2277 53.7266 83.2134 53.7975 83.1609 53.8324C83.1415 53.8454 83.1196 53.8515 83.0978 53.8515Z" fill="#475DB4"/>
<path d="M85.0111 56.7255C84.9742 56.7255 84.9379 56.7077 84.916 56.6747L83.3273 54.2887C83.2923 54.2361 83.3065 54.1653 83.359 54.1304C83.4115 54.095 83.4823 54.1095 83.5173 54.1621L85.106 56.5481C85.141 56.6006 85.1268 56.6715 85.0742 56.7064C85.0548 56.7194 85.0328 56.7255 85.0111 56.7255Z" fill="#475DB4"/>
<path d="M84.1534 53.1495C84.1165 53.1495 84.0802 53.1317 84.0582 53.0987L82.8834 51.3342C82.8485 51.2817 82.8627 51.2108 82.9152 51.1759C82.9676 51.1407 83.0385 51.155 83.0735 51.2077L84.2483 52.9721C84.2832 53.0246 84.269 53.0955 84.2165 53.1304C84.1971 53.1434 84.1751 53.1495 84.1534 53.1495Z" fill="#475DB4"/>
<path d="M85.6341 55.3743C85.5972 55.3743 85.561 55.3565 85.539 55.3234L84.3829 53.5872C84.348 53.5347 84.3622 53.4639 84.4147 53.429C84.4672 53.3938 84.5379 53.4081 84.573 53.4606L85.729 55.1968C85.764 55.2494 85.7498 55.3202 85.6973 55.3551C85.6778 55.3681 85.6558 55.3743 85.6341 55.3743Z" fill="#475DB4"/>
<path d="M85.2097 52.4462C85.1728 52.4462 85.1365 52.4283 85.1146 52.3952L84.4806 51.4429C84.4456 51.3905 84.4599 51.3196 84.5123 51.2847C84.5648 51.2494 84.6356 51.2639 84.6706 51.3165L85.3046 52.2688C85.3396 52.3212 85.3253 52.3921 85.2728 52.427C85.2534 52.44 85.2314 52.4462 85.2097 52.4462Z" fill="#475DB4"/>
<path d="M86.1494 53.8567C86.1125 53.8567 86.0763 53.8388 86.0542 53.8057L85.4391 52.8817C85.4041 52.8293 85.4184 52.7584 85.4708 52.7235C85.5233 52.6883 85.5941 52.7027 85.6291 52.7553L86.2443 53.6793C86.2792 53.7317 86.265 53.8026 86.2125 53.8375C86.1931 53.8505 86.1711 53.8567 86.1494 53.8567Z" fill="#475DB4"/>
<path d="M79.3838 102.11L72.2947 88.6604V78.5612H65.4683V88.6604L58.3792 102.11C57.5446 103.693 58.5879 105.672 60.2571 105.672H77.5059C79.1752 105.672 80.2184 103.693 79.3838 102.11Z" fill="#E6D0BE"/>
<path d="M77.5062 105.788H60.2574C59.4752 105.788 58.7807 105.38 58.3519 104.669C57.8746 103.878 57.8465 102.878 58.2785 102.058L65.3544 88.6335V78.4484H72.4091V88.6335L79.4851 102.058C79.9171 102.877 79.889 103.878 79.4116 104.669C78.9828 105.38 78.2883 105.788 77.5062 105.788ZM65.5827 78.6767V88.69L58.4805 102.164C58.0855 102.914 58.1111 103.828 58.5474 104.552C58.9339 105.192 59.5571 105.559 60.2574 105.559H77.5062C78.2064 105.559 78.8296 105.192 79.2161 104.552C79.6524 103.828 79.6781 102.914 79.2831 102.164L72.1808 88.69V78.6767H65.5827Z" fill="white"/>
<path d="M72.991 95.1179C72.95 95.1179 72.9104 95.0958 72.8899 95.0569L70.895 91.2725C70.8656 91.2167 70.887 91.1477 70.9428 91.1183C70.9987 91.0889 71.0676 91.1102 71.097 91.166L73.0919 94.9504C73.1213 95.0063 73.1 95.0753 73.0442 95.1047C73.0272 95.1136 73.009 95.1179 72.991 95.1179Z" fill="white"/>
<path d="M68.8184 80.0031C71.5535 80.0031 73.7707 79.2371 73.7707 78.2923C73.7707 77.3474 71.5535 76.5814 68.8184 76.5814C66.0834 76.5814 63.8662 77.3474 63.8662 78.2923C63.8662 79.2371 66.0834 80.0031 68.8184 80.0031Z" fill="#E6D0BE"/>
<path d="M68.8183 80.1187C65.9773 80.1187 63.752 79.3171 63.752 78.2936C63.752 77.2702 65.9773 76.4686 68.8183 76.4686C71.6593 76.4686 73.8847 77.2702 73.8847 78.2936C73.8847 79.3171 71.6593 80.1187 68.8183 80.1187ZM68.8183 76.6968C65.9243 76.6968 63.9803 77.5224 63.9803 78.2936C63.9803 79.0648 65.9243 79.8903 68.8183 79.8903C71.7123 79.8903 73.6564 79.0648 73.6564 78.2936C73.6564 77.5224 71.7123 76.6968 68.8183 76.6968Z" fill="white"/>
<path d="M73.693 96.6677H64.0714L60.7354 102.997H77.0291L73.693 96.6677Z" fill="#475DB4"/>
<path d="M66.8384 99.966C66.4502 99.966 66.1343 99.625 66.1343 99.2058C66.1343 98.7865 66.4502 98.4454 66.8384 98.4454C67.2266 98.4454 67.5425 98.7865 67.5425 99.2058C67.5425 99.625 67.2266 99.966 66.8384 99.966ZM66.8384 98.6736C66.576 98.6736 66.3626 98.9123 66.3626 99.2057C66.3626 99.499 66.576 99.7377 66.8384 99.7377C67.1007 99.7377 67.3141 99.499 67.3141 99.2057C67.3141 98.9123 67.1007 98.6736 66.8384 98.6736Z" fill="white"/>
<path d="M70.8205 101.764C70.0954 101.764 69.5054 101.123 69.5054 100.335C69.5054 99.5466 70.0954 98.9053 70.8205 98.9053C71.5456 98.9053 72.1356 99.5466 72.1356 100.335C72.1356 101.123 71.5456 101.764 70.8205 101.764ZM70.8205 99.1337C70.2212 99.1337 69.7337 99.6725 69.7337 100.335C69.7337 100.997 70.2212 101.536 70.8205 101.536C71.4197 101.536 71.9072 100.997 71.9072 100.335C71.9072 99.6725 71.4197 99.1337 70.8205 99.1337Z" fill="white"/>
<path d="M67.871 94.5641C67.3318 94.5641 66.8931 94.0884 66.8931 93.5037C66.8931 92.919 67.3318 92.4434 67.871 92.4434C68.4103 92.4434 68.8491 92.919 68.8491 93.5037C68.8491 94.0884 68.4103 94.5641 67.871 94.5641ZM67.871 92.6717C67.4577 92.6717 67.1214 93.0449 67.1214 93.5037C67.1214 93.9625 67.4577 94.3358 67.871 94.3358C68.2845 94.3358 68.6208 93.9625 68.6208 93.5037C68.6208 93.0449 68.2845 92.6717 67.871 92.6717Z" fill="white"/>
<path d="M4.84629 104.225L0.477051 104.16L1.77885 98.526L6.23141 99.2681L4.84629 104.225Z" fill="black"/>
<path d="M10.9511 107.124H-0.363281L0.67852 102.799H5.11106L8.31636 103.776C9.88728 104.202 10.9656 105.572 10.9511 107.124Z" fill="#475DB4"/>
<path d="M25.2403 105.068L20.8711 105.002L21.006 98.526L25.4585 99.2681L25.2403 105.068Z" fill="#E2A18D"/>
<path d="M31.2572 107.124H19.9429L20.9172 102.799H25.4172L28.6225 103.776C30.1934 104.202 31.2717 105.572 31.2572 107.124Z" fill="white"/>
<path d="M10.6163 61.4889C10.6163 61.4889 7.9178 67.4931 6.09632 74.7791C4.27484 82.065 1.03662 100.347 1.03662 100.347H6.02887C6.02887 100.347 15.8785 89.0812 16.7555 73.6322L19.7913 61.4214L10.6163 61.4889Z" fill="black"/>
<path d="M14.6646 75.924C14.6646 75.924 19.7917 83.3449 20.1965 99.9407H25.9308C25.9308 99.9407 30.1135 90.6309 27.7523 80.8487C25.3911 71.0666 21.5457 60.5424 21.5457 60.5424H15.4066L14.6646 75.924Z" fill="black"/>
<path d="M5.80904 103.988C5.78467 103.988 5.76031 103.979 5.74175 103.96C5.70457 103.923 5.70457 103.863 5.74175 103.826L6.45004 103.118C6.48716 103.08 6.54745 103.08 6.58457 103.118C6.62174 103.155 6.62174 103.215 6.58457 103.252L5.87628 103.96C5.85777 103.979 5.83341 103.988 5.80904 103.988Z" fill="#363E44"/>
<path d="M6.61422 104.23C6.58985 104.23 6.56548 104.22 6.54692 104.202C6.50975 104.165 6.50975 104.105 6.54692 104.067L7.25521 103.359C7.29233 103.322 7.35263 103.322 7.38975 103.359C7.42692 103.396 7.42692 103.456 7.38975 103.494L6.68146 104.202C6.66295 104.22 6.63858 104.23 6.61422 104.23Z" fill="#363E44"/>
<path d="M26.1181 104.06C26.0938 104.06 26.0694 104.051 26.0508 104.032C26.0137 103.995 26.0137 103.935 26.0508 103.898L26.7591 103.189C26.7962 103.152 26.8565 103.152 26.8937 103.189C26.9308 103.226 26.9308 103.287 26.8937 103.324L26.1854 104.032C26.1669 104.051 26.1425 104.06 26.1181 104.06Z" fill="#363E44"/>
<path d="M26.9233 104.301C26.8989 104.301 26.8746 104.292 26.856 104.274C26.8188 104.236 26.8188 104.176 26.856 104.139L27.5643 103.431C27.6014 103.394 27.6617 103.394 27.6988 103.431C27.736 103.468 27.736 103.528 27.6988 103.565L26.9905 104.274C26.972 104.292 26.9477 104.301 26.9233 104.301Z" fill="#363E44"/>
<path d="M5.39926 67.6943C4.60858 74.219 2.54836 80.7587 2.65765 86.9993L11.7359 87.2101L12.4898 73.7584L16.5009 74.3991L16.7992 87.21L29.9071 87.1797L23.9376 60.4932L34.0176 70.5662L39.6994 64.9296C39.6994 64.9296 25.592 47.4486 17.2711 46.1821C6.18935 44.4955 1.76365 52.318 0.00428188 58.1685C-1.52636 63.2585 2.48278 65.9952 5.39926 67.6943Z" fill="white"/>
<path d="M11.2912 63.2432C11.2744 63.2432 11.2574 63.2395 11.2412 63.2316C11.1846 63.2039 11.161 63.1356 11.1887 63.0789L11.6672 62.0993L4.04713 58.161C3.99109 58.132 3.96916 58.0631 3.99814 58.0072C4.02707 57.9513 4.09592 57.9294 4.15191 57.9582L11.8711 61.9477C11.9262 61.9762 11.9485 62.0435 11.9213 62.0992L11.3938 63.179C11.3741 63.2196 11.3334 63.2432 11.2912 63.2432Z" fill="#475DB4"/>
<path d="M6.80546 59.5734C6.78716 59.5734 6.7686 59.5691 6.75134 59.5597C6.69587 59.5298 6.67518 59.4604 6.70514 59.4051L9.77757 53.7124C9.80743 53.657 9.87653 53.6359 9.93221 53.6662C9.98769 53.696 10.0084 53.7654 9.97841 53.8208L6.90599 59.5134C6.8854 59.5517 6.84611 59.5734 6.80546 59.5734Z" fill="#475DB4"/>
<path d="M23.9376 60.6108C23.9315 60.6108 23.9255 60.6103 23.9193 60.6093C23.857 60.5993 23.8147 60.5408 23.8247 60.4785L24.7461 54.748C24.7561 54.6857 24.8151 54.6432 24.8769 54.6535C24.9392 54.6636 24.9816 54.7221 24.9715 54.7844L24.0501 60.5148C24.0411 60.5709 23.9926 60.6108 23.9376 60.6108Z" fill="#475DB4"/>
<path d="M17.9871 57.5082C17.9672 57.5082 17.9472 57.5031 17.9289 57.4922C17.8747 57.46 17.8569 57.3899 17.889 57.3357L20.7917 52.4509L19.2404 51.0493C19.2152 51.0265 19.2015 50.9937 19.2029 50.96C19.2042 50.9261 19.2206 50.8946 19.2475 50.8739L21.2777 49.3181C21.0181 48.9304 19.9863 47.396 19.7355 47.1242C19.6927 47.0779 19.6957 47.0057 19.742 46.9629C19.7885 46.9204 19.8607 46.9232 19.9033 46.9695C20.2014 47.2926 21.4731 49.1993 21.5271 49.2804C21.5604 49.3304 21.5493 49.3977 21.5016 49.4343L19.4952 50.9719L21.0142 52.3442C21.0545 52.3807 21.0636 52.4405 21.0358 52.4873L18.0854 57.4524C18.064 57.4883 18.0261 57.5082 17.9871 57.5082Z" fill="#475DB4"/>
<path d="M13.4432 56.7996C13.3922 56.7996 13.3458 56.7653 13.3326 56.7137L11.8991 51.1189C11.8856 51.0663 11.9111 51.0115 11.9601 50.9878L13.804 50.0984L12.3114 48.0583C12.2759 48.0096 12.2841 47.942 12.3302 47.9033C12.4048 47.8408 14.1618 46.369 14.5388 46.1429C14.593 46.1104 14.6629 46.1281 14.6954 46.1821C14.7278 46.2361 14.7103 46.3062 14.6562 46.3387C14.3391 46.5288 12.917 47.7108 12.5588 48.0098L14.0692 50.0742C14.0892 50.1016 14.096 50.1364 14.0878 50.1693C14.0795 50.2021 14.0571 50.2297 14.0267 50.2444L12.1434 51.1528L13.5538 56.657C13.5694 56.7181 13.5326 56.7803 13.4715 56.7959C13.462 56.7984 13.4525 56.7996 13.4432 56.7996Z" fill="#475DB4"/>
<path d="M19.4423 46.8595L16.5009 74.4025L12.4897 73.7607L14.9499 45.8969C17.0381 45.9758 19.1598 46.041 19.4423 46.8595Z" fill="#475DB4"/>
<path d="M19.3679 46.7329C18.718 48.2737 16.5996 48.4382 15.7196 47.0162L14.9854 45.8297L16.8374 40.2288L20.4237 40.8738L19.3679 46.7329Z" fill="white"/>
<path d="M19.5887 37.5545C19.7456 37.5624 21.2465 37.6597 21.9903 38.8056C22.5437 39.6583 22.4806 40.6386 22.1262 42.2669C21.7089 44.1844 21.086 45.5234 20.459 45.7951C18.9236 46.4603 17.1669 44.3061 16.4237 42.4684C15.8872 41.142 16.2009 39.5817 17.1363 38.4858C18.0692 37.3929 19.4886 37.5495 19.5887 37.5545Z" fill="white"/>
<path d="M14.9775 38.6831C14.9775 38.2175 15.2739 37.8222 15.6879 37.6725C15.6859 37.651 15.6846 37.6294 15.6846 37.6074C15.6846 37.2366 15.9585 36.9306 16.3148 36.8787C16.3285 36.325 16.7806 35.8802 17.3375 35.8802C17.5031 35.8802 17.659 35.9204 17.7974 35.9902C17.9361 35.7554 18.191 35.5974 18.4835 35.5974C18.7914 35.5974 19.0581 35.7723 19.1908 36.028C19.3316 35.9024 19.5168 35.8254 19.7204 35.8254C19.9094 35.8254 20.0829 35.8916 20.2195 36.0015C20.3533 35.9347 20.5037 35.8961 20.6635 35.8961C21.1464 35.8961 21.5487 36.2399 21.6397 36.696C21.6966 36.686 21.7547 36.6797 21.8144 36.6797C22.3644 36.6797 22.8102 37.1256 22.8102 37.6755C22.8102 37.7981 22.7869 37.9151 22.7463 38.0236C22.9852 38.1707 23.1451 38.4339 23.1451 38.735C23.1451 39.1966 22.7709 39.5708 22.3093 39.5708C22.2983 39.5708 22.2876 39.5696 22.2767 39.5691C22.1959 39.8674 22.0973 40.0794 22.0776 40.144C22.0208 40.0631 21.2861 39.3804 20.5376 39.0315C20.4055 39.3189 20.1157 39.5189 19.7786 39.5189C19.4831 39.5189 19.2239 39.3651 19.0753 39.1335C18.7797 39.4508 18.602 39.9748 18.3827 40.5135C18.2035 40.4141 17.8133 40.2348 17.3667 40.3288C16.6759 40.4741 16.3404 41.8477 16.0119 42.7509C15.6423 41.4124 15.4581 40.3944 15.4591 39.5795C15.169 39.3869 14.9775 39.0576 14.9775 38.6831Z" fill="#373E44"/>
<path d="M19.5222 45.9963C19.5142 45.9963 19.5063 45.9955 19.4982 45.9937C18.606 45.8031 17.6095 44.8921 16.8324 43.5568C16.8007 43.5023 16.8191 43.4324 16.8737 43.4008C16.9281 43.3691 16.998 43.3875 17.0297 43.442C17.775 44.7226 18.7156 45.5931 19.5459 45.7706C19.6076 45.7838 19.6469 45.8444 19.6337 45.906C19.6222 45.9596 19.5749 45.9963 19.5222 45.9963Z" fill="#363E44"/>
<path d="M19.2017 40.9829C19.2017 40.9829 19.2948 41.5772 19.6813 42.0846C19.7625 42.1912 20.468 41.3309 20.3411 41.2655C19.7855 40.9791 19.2017 40.9829 19.2017 40.9829Z" fill="white"/>
<path d="M21.4737 42.9133C21.4737 42.9133 21.3374 42.043 20.7099 41.5097C20.5935 41.4106 20.4683 41.3303 20.3417 41.265C20.0045 41.3996 19.7455 41.701 19.6797 42.0813C19.7613 42.1887 19.8557 42.2924 19.9654 42.3856C20.5928 42.9189 21.4737 42.9133 21.4737 42.9133Z" fill="#363E44"/>
<path d="M21.8544 42.8531C21.8348 42.9467 21.8197 43.0862 21.8638 43.2396C21.9168 43.4246 22.0166 43.493 21.9978 43.6021C21.9852 43.6752 21.9183 43.7726 21.6592 43.861L21.8544 42.8531Z" fill="white"/>
<path d="M21.6591 43.9724C21.6116 43.9724 21.5673 43.9426 21.551 43.8951C21.5308 43.8355 21.5626 43.7705 21.6223 43.7503C21.8525 43.6718 21.8818 43.6001 21.8853 43.5799C21.8886 43.5603 21.8774 43.5375 21.8468 43.482C21.8174 43.4287 21.7808 43.3622 21.7539 43.2683C21.7141 43.1298 21.7103 42.9813 21.7426 42.8271C21.7554 42.7655 21.816 42.7257 21.8777 42.7387C21.9394 42.7516 21.9789 42.8121 21.9661 42.8738C21.9415 42.9913 21.9439 43.103 21.9734 43.2055C21.9932 43.2746 22.0205 43.3241 22.0468 43.3719C22.0865 43.4439 22.1276 43.5183 22.1102 43.6189C22.0847 43.7665 21.9492 43.88 21.6959 43.9663C21.6837 43.9706 21.6714 43.9724 21.6591 43.9724Z" fill="#363E44"/>
<path d="M17.7896 42.0218C18.3411 41.8534 18.6267 41.1879 18.4274 40.5354C18.2281 39.8828 17.6195 39.4904 17.0679 39.6589C16.5164 39.8273 16.2309 40.4928 16.4302 41.1453C16.6295 41.7979 17.2381 42.1903 17.7896 42.0218Z" fill="white"/>
<path d="M16.9683 41.2265C16.9266 41.2265 16.8864 41.2035 16.8663 41.1637C16.8445 41.1204 16.8261 41.0746 16.8118 41.0277C16.7549 40.8417 16.7632 40.6469 16.835 40.4795C16.9097 40.3053 17.0435 40.1813 17.2118 40.1299C17.2973 40.1037 17.3862 40.098 17.476 40.1133C17.5382 40.1238 17.5801 40.1827 17.5695 40.2448C17.5591 40.3069 17.5007 40.3482 17.438 40.3385C17.3833 40.329 17.3298 40.3325 17.2784 40.3482C17.1755 40.3796 17.0926 40.4582 17.0448 40.5695C16.9943 40.6874 16.9891 40.8265 17.0302 40.961C17.0407 40.9956 17.0541 41.0291 17.0701 41.0609C17.0985 41.1172 17.0759 41.1858 17.0196 41.2142C17.0032 41.2226 16.9856 41.2265 16.9683 41.2265Z" fill="#363E44"/>
<path d="M20.6514 44.4828C20.4899 44.4828 20.335 44.41 20.2396 44.2794C20.0723 44.0504 20.1855 43.7836 20.1904 43.7723C20.2156 43.7146 20.2828 43.6879 20.3406 43.7132C20.3984 43.7384 20.4248 43.8058 20.3997 43.8635C20.3992 43.8646 20.3345 44.0224 20.4239 44.1447C20.4962 44.2435 20.6335 44.2811 20.7578 44.2357C20.8173 44.2146 20.8826 44.2449 20.904 44.3041C20.9255 44.3634 20.8949 44.4288 20.8356 44.4504C20.7752 44.4723 20.7128 44.4828 20.6514 44.4828Z" fill="#363E44"/>
<path d="M37.942 92.653L38.4229 97.6024L47.3819 96.7319L46.9011 91.7826L37.942 92.653Z" fill="#EFBC73"/>
<path d="M30.6577 97.3422L31.8244 100.078L41.1623 96.0965C41.9178 95.7744 42.2692 94.9007 41.947 94.1452C41.6249 93.3896 40.7512 93.0383 39.9956 93.3605L30.6577 97.3422Z" fill="#FFD092"/>
<path d="M40.703 95.2418C41.014 95.1684 41.2066 94.8567 41.1331 94.5458C41.0597 94.2348 40.7481 94.0422 40.4371 94.1156C40.1261 94.1891 39.9336 94.5007 40.007 94.8117C40.0804 95.1226 40.392 95.3152 40.703 95.2418Z" fill="#F7F1EB"/>
<path d="M17.4717 102.924L21.3341 91.4919L33.2242 100.729L33.8736 102.924H17.4717Z" fill="#E0AA63"/>
<path d="M26.6973 66.6003C24.7546 68.3092 23.8927 70.0466 23.4786 71.1984C21.6295 76.3415 23.7468 85.3858 29.4561 87.6365C30.9122 92.6943 32.3682 97.7523 33.8243 102.81C31.271 101.716 22.7176 97.6707 18.5357 90.1376C16.4665 86.4104 13.8611 78.5338 17.1563 70.2788C19.0726 65.4779 22.5312 62.6288 24.3982 61.3125C25.1646 63.0751 25.931 64.8377 26.6973 66.6003Z" fill="#EFBC73"/>
<path d="M35.4395 88.4002C35.4555 88.4471 35.4725 88.4933 35.4873 88.5408C36.4331 91.5735 34.7413 94.7987 31.7086 95.7445C28.6759 96.6902 25.4507 94.9984 24.505 91.9657C24.4901 91.9182 24.4778 91.8705 24.4644 91.8229L35.4395 88.4002Z" fill="#FFD092"/>
<path d="M32.3002 88.7988L32.4775 89.3596L51.3386 83.3956L51.1613 82.8349L32.3002 88.7988Z" fill="#EFBC73"/>
<path d="M32.1255 86.8435L32.7031 88.6703L50.7936 82.95L50.216 81.1232L32.1255 86.8435Z" fill="#FFD092"/>
<path d="M33.0487 102.926C33.0334 102.926 33.0182 102.923 33.0037 102.916C29.7368 101.517 21.7019 97.4748 17.6602 90.1943C16.8912 88.8091 15.5159 85.8926 14.9457 81.9237C14.36 77.8462 14.807 73.9145 16.2747 70.2378C18.0575 65.7716 21.2187 62.869 23.5569 61.2206C23.585 61.2009 23.6205 61.1951 23.6535 61.204C23.6865 61.2133 23.7137 61.2369 23.7273 61.2685L26.0264 66.5562C26.0462 66.6017 26.0343 66.6547 25.9971 66.6875C24.4924 68.011 23.4202 69.5422 22.8105 71.2384C21.9012 73.7674 21.9609 77.3043 22.9662 80.4689C24.0887 84.0027 26.133 86.511 28.7224 87.5317C28.7554 87.5447 28.7804 87.5723 28.7902 87.6064L33.1584 102.78C33.1706 102.822 33.1573 102.868 33.1242 102.897C33.103 102.916 33.076 102.926 33.0487 102.926ZM23.5741 61.4883C21.2734 63.1323 18.2198 65.9805 16.4867 70.3225C12.666 79.8944 16.9602 88.463 17.8599 90.0835C21.779 97.1433 29.4984 101.138 32.8721 102.611L28.5864 87.7232C25.9567 86.6639 23.8848 84.1147 22.7487 80.538C21.7289 77.328 21.6703 73.7349 22.5957 71.1612C23.2103 69.4518 24.2828 67.9079 25.7841 66.5712L23.5741 61.4883Z" fill="#363E44"/>
<path d="M27.1689 60.504L29.019 66.3551L34.0817 64.7543L32.2315 58.9032L27.1689 60.504Z" fill="#E0AA63"/>
<path d="M22.9384 59.6962L26.084 69.6442L30.3789 68.2861L27.2333 58.3381L22.9384 59.6962Z" fill="#FFD092"/>
<path d="M30.6856 65.1866C31.7655 64.1066 31.7655 62.3557 30.6856 61.2757C29.6056 60.1958 27.8547 60.1958 26.7748 61.2757C25.6948 62.3557 25.6948 64.1066 26.7747 65.1866C27.8547 66.2665 29.6056 66.2665 30.6856 65.1866Z" fill="#EFBC73"/>
<path d="M28.7882 64.603C29.5444 64.5738 30.1339 63.937 30.1046 63.1807C30.0754 62.4244 29.4387 61.835 28.6824 61.8642C27.9261 61.8934 27.3367 62.5302 27.3659 63.2865C27.3951 64.0428 28.0319 64.6322 28.7882 64.603Z" fill="#F7F1EB"/>
<path d="M27.2321 47.0937L28.4219 50.8563L32.8331 49.4614L31.6434 45.6989L27.2321 47.0937Z" fill="#EFBC73"/>
<path d="M28.1508 50.7029L28.5205 51.8721L33.3553 50.3433L32.9856 49.1741L28.1508 50.7029Z" fill="white"/>
<path d="M28.1049 51.551L35.5493 75.0942L40.9334 73.3917L33.489 49.8486L28.1049 51.551Z" fill="#FFD092"/>
<path d="M34.7735 75.2088C34.725 75.2088 34.68 75.1777 34.6646 75.1291L27.2212 51.5865C27.2021 51.5263 27.2355 51.4622 27.2956 51.4433L32.6796 49.7409C32.7084 49.7319 32.7398 49.7345 32.7666 49.7484C32.7934 49.7624 32.8137 49.7864 32.8228 49.8153L40.2663 73.358C40.2754 73.3868 40.2727 73.4181 40.2587 73.445C40.2448 73.4719 40.2208 73.4921 40.1919 73.5012L34.8079 75.2034C34.7964 75.2071 34.7849 75.2088 34.7735 75.2088ZM27.4733 51.6265L34.8479 74.9513L40.0143 73.3179L32.6396 49.9929L27.4733 51.6265Z" fill="#363E44"/>
<path d="M28.1573 55.8988L28.7744 57.8505L36.6651 55.3554L36.048 53.4038L28.1573 55.8988Z" fill="white"/>
<path d="M34.2932 56.2251C34.2448 56.2251 34.1998 56.194 34.1844 56.1454L33.5674 54.194C33.5483 54.1338 33.5817 54.0697 33.6418 54.0507C33.7017 54.0315 33.766 54.065 33.7851 54.1251L34.402 56.0765C34.4211 56.1367 34.3877 56.2009 34.3276 56.2198C34.3162 56.2234 34.3046 56.2251 34.2932 56.2251Z" fill="#363E44"/>
<path d="M31.1687 57.2128C31.1203 57.2128 31.0753 57.1817 31.0599 57.1331L30.4428 55.1816C30.4238 55.1214 30.4572 55.0573 30.5173 55.0383C30.5771 55.0191 30.6415 55.0526 30.6605 55.1127L31.2776 57.0643C31.2966 57.1245 31.2633 57.1885 31.2031 57.2075C31.1917 57.2111 31.1801 57.2128 31.1687 57.2128Z" fill="#363E44"/>
<path d="M26.0278 46.6943L26.2529 47.4063L32.5553 45.4135L32.3302 44.7014L26.0278 46.6943Z" fill="white"/>
<path d="M39.4615 72.7989L42.1768 78.2101L43.4622 77.5651L40.7469 72.1539L39.4615 72.7989Z" fill="#E0AA63"/>
<path d="M41.5132 77.5871L41.9653 78.4882L43.8105 77.5623L43.3583 76.6612L41.5132 77.5871Z" fill="#EFBC73"/>
<path d="M37.1107 73.5661L38.936 79.3387L40.3074 78.9051L38.482 73.1325L37.1107 73.5661Z" fill="#E0AA63"/>
<path d="M38.4012 78.5968L38.7124 79.581L40.6309 78.9743L40.3197 77.9901L38.4012 78.5968Z" fill="#EFBC73"/>
<path d="M34.8457 74.0185L35.4312 80.0441L36.8626 79.9051L36.2772 73.8794L34.8457 74.0185Z" fill="#E0AA63"/>
<path d="M35.0899 79.1351L35.1938 80.2054L37.1269 80.0176L37.0229 78.9473L35.0899 79.1351Z" fill="#EFBC73"/>
<path d="M33.2064 77.1681L33.243 77.2837L44.3628 73.7679C43.9534 72.4732 42.9296 71.4651 41.6287 71.0757L40.0519 70.6038L34.6679 72.306L33.7807 73.5467C33.0302 74.5963 32.8174 75.9378 33.2064 77.1681Z" fill="#EFBC73"/>
<path d="M47.4693 107.038H17.2954V102.827H47.5278L47.4693 107.038Z" fill="#EFBC73"/>
<path d="M11.2907 63.1255C12.5442 63.5276 13.5114 63.8354 13.7248 63.9114C14.7832 64.2886 21.3702 66.6106 21.096 67.5162C20.935 68.0482 18.9748 67.3411 18.6055 67.2054C18.8497 67.4621 20.5269 68.857 20.3078 69.2716C19.9309 69.9847 17.9791 68.367 17.9488 68.3674C18.2232 68.6028 19.7961 69.6831 19.6524 70.0042C19.3448 70.6913 17.6761 69.6974 17.2936 69.525C17.3102 69.5953 18.6943 70.3902 18.5059 70.8542C18.3564 71.2225 16.2278 70.5724 15.7258 70.4385C14.7851 70.1041 12.236 69.5215 10.401 69.0717C9.72976 68.9072 9.10027 68.7145 8.51562 68.5064L11.2907 63.1255Z" fill="white"/>
<path d="M18.6326 67.2849C18.6069 67.2849 18.5811 67.2763 18.5598 67.2587C18.3825 67.1119 18.1938 66.9763 17.9987 66.8558C17.6484 66.6392 17.2697 66.4654 16.8731 66.3395C16.813 66.3204 16.7798 66.2562 16.7988 66.1961C16.818 66.136 16.8822 66.1027 16.9422 66.1219C17.3566 66.2537 17.7525 66.4352 18.1187 66.6616C18.3226 66.7877 18.52 66.9294 18.7053 67.0828C18.7539 67.123 18.7607 67.1949 18.7205 67.2435C18.698 67.2708 18.6654 67.2849 18.6326 67.2849Z" fill="#363E44"/>
<path d="M17.9796 68.4615C17.958 68.4615 17.9361 68.4554 17.9167 68.4425C17.8765 68.416 17.8351 68.3895 17.7926 68.3632C17.4418 68.1464 17.0631 67.9728 16.667 67.847C16.6069 67.8279 16.5737 67.7637 16.5928 67.7036C16.6119 67.6434 16.6762 67.6102 16.7361 67.6294C17.1501 67.7608 17.5459 67.9423 17.9127 68.169C17.9571 68.1966 18.0004 68.2242 18.0425 68.252C18.0951 68.2868 18.1096 68.3575 18.0749 68.4102C18.053 68.4434 18.0166 68.4615 17.9796 68.4615Z" fill="#363E44"/>
<path d="M17.2722 69.6174C17.2549 69.6174 17.2373 69.6135 17.2208 69.6051C16.9802 69.4834 16.7271 69.3802 16.4688 69.2981C16.4087 69.279 16.3755 69.2148 16.3945 69.1548C16.4137 69.0947 16.4782 69.0614 16.5379 69.0805C16.8078 69.1662 17.0723 69.2742 17.3238 69.4013C17.3801 69.4297 17.4026 69.4984 17.3742 69.5547C17.3541 69.5945 17.3139 69.6174 17.2722 69.6174Z" fill="#363E44"/>
<path d="M67.2154 37.3687H67.1163C66.1589 37.3687 65.3828 36.5926 65.3828 35.6353V18.9614H68.9488V35.6353C68.9488 36.5927 68.1728 37.3687 67.2154 37.3687Z" fill="#E6D0BE"/>
<path d="M67.8007 37.4801H67.7016C66.6828 37.4801 65.854 36.6512 65.854 35.6325V18.9586C65.854 18.8955 65.9051 18.8445 65.9682 18.8445H69.5342C69.5972 18.8445 69.6483 18.8955 69.6483 18.9586V35.6325C69.6483 36.6512 68.8195 37.4801 67.8007 37.4801ZM66.0823 19.0727V35.6325C66.0823 36.5254 66.8087 37.2518 67.7016 37.2518H67.8007C68.6936 37.2518 69.42 36.5255 69.42 35.6325V19.0727H66.0823Z" fill="white"/>
<path d="M67.7844 36.6195H67.7176C67.0726 36.6195 66.5498 36.0967 66.5498 35.4517V24.2181H68.9523V35.4517C68.9523 36.0967 68.4294 36.6195 67.7844 36.6195Z" fill="#EFBC73"/>
<path d="M68.1526 36.1139C68.1259 36.1139 68.0991 36.1045 68.0774 36.0856C68.03 36.0439 68.0254 35.9718 68.0669 35.9244C68.229 35.7399 68.3335 35.5074 68.3692 35.2521C68.3779 35.1896 68.4354 35.1454 68.4981 35.1549C68.5605 35.1636 68.604 35.2213 68.5953 35.2838C68.5534 35.5833 68.43 35.857 68.2385 36.0751C68.2159 36.1007 68.1844 36.1139 68.1526 36.1139Z" fill="white"/>
<path d="M68.497 34.9537C68.4339 34.9537 68.3828 34.9026 68.3828 34.8395V33.0064C68.3828 32.9433 68.4339 32.8923 68.497 32.8923C68.56 32.8923 68.6111 32.9433 68.6111 33.0064V34.8395C68.6111 34.9026 68.56 34.9537 68.497 34.9537Z" fill="white"/>
<path d="M68.497 31.9058C68.4339 31.9058 68.3828 31.8548 68.3828 31.7917V29.5319C68.3828 29.4688 68.4339 29.4178 68.497 29.4178C68.56 29.4178 68.6111 29.4688 68.6111 29.5319V31.7917C68.6111 31.8548 68.56 31.9058 68.497 31.9058Z" fill="white"/>
<path d="M70.2971 17.5148H65.1626V20.1522H70.2971V17.5148Z" fill="#373E44"/>
<path d="M65.7764 19.7295H65.7674C65.6796 19.7295 65.6084 19.6583 65.6084 19.5706V18.1614C65.6084 18.0736 65.6796 18.0024 65.7674 18.0024H65.7764C65.8642 18.0024 65.9354 18.0736 65.9354 18.1614V19.5706C65.9354 19.6583 65.8642 19.7295 65.7764 19.7295Z" fill="#EFBC73"/>
<path d="M66.752 19.7295H66.7429C66.6552 19.7295 66.584 19.6583 66.584 19.5706V18.1614C66.584 18.0736 66.6552 18.0024 66.7429 18.0024H66.752C66.8398 18.0024 66.911 18.0736 66.911 18.1614V19.5706C66.911 19.6583 66.8398 19.7295 66.752 19.7295Z" fill="#EFBC73"/>
<path d="M67.7281 19.7295H67.719C67.6312 19.7295 67.5601 19.6583 67.5601 19.5706V18.1614C67.5601 18.0736 67.6312 18.0024 67.719 18.0024H67.7281C67.8159 18.0024 67.887 18.0736 67.887 18.1614V19.5706C67.887 19.6583 67.8159 19.7295 67.7281 19.7295Z" fill="#EFBC73"/>
<path d="M68.7037 19.7295H68.6946C68.6068 19.7295 68.5356 19.6583 68.5356 19.5706V18.1614C68.5356 18.0736 68.6068 18.0024 68.6946 18.0024H68.7037C68.7914 18.0024 68.8626 18.0736 68.8626 18.1614V19.5706C68.8626 19.6583 68.7915 19.7295 68.7037 19.7295Z" fill="#EFBC73"/>
<path d="M69.6797 19.7295H69.6707C69.5829 19.7295 69.5117 19.6583 69.5117 19.5706V18.1614C69.5117 18.0736 69.5829 18.0024 69.6707 18.0024H69.6797C69.7675 18.0024 69.8387 18.0736 69.8387 18.1614V19.5706C69.8386 19.6583 69.7675 19.7295 69.6797 19.7295Z" fill="#EFBC73"/>
<path d="M73.7217 37.3687H73.6226C72.6653 37.3687 71.8892 36.5926 71.8892 35.6353V18.9614H75.4552V35.6353C75.4552 36.5927 74.6791 37.3687 73.7217 37.3687Z" fill="#E6D0BE"/>
<path d="M74.3071 37.4801H74.2079C73.1891 37.4801 72.3604 36.6512 72.3604 35.6325V18.9586C72.3604 18.8955 72.4115 18.8445 72.4745 18.8445H76.0405C76.1036 18.8445 76.1547 18.8955 76.1547 18.9586V35.6325C76.1546 36.6512 75.3259 37.4801 74.3071 37.4801ZM72.5887 19.0727V35.6325C72.5887 36.5254 73.3151 37.2518 74.208 37.2518H74.3071C75.2 37.2518 75.9264 36.5255 75.9264 35.6325V19.0727H72.5887Z" fill="white"/>
<path d="M74.2912 36.6192H74.2245C73.5795 36.6192 73.0566 36.0963 73.0566 35.4513V25.6729H75.4591V35.4513C75.4591 36.0963 74.9362 36.6192 74.2912 36.6192Z" fill="#EFBC73"/>
<path d="M74.6595 36.1139C74.6327 36.1139 74.6059 36.1045 74.5842 36.0855C74.5369 36.0439 74.5322 35.9718 74.5738 35.9244C74.7358 35.7399 74.8404 35.5074 74.8761 35.2521C74.8848 35.1896 74.942 35.1454 75.005 35.1549C75.0674 35.1636 75.1109 35.2213 75.1022 35.2838C75.0603 35.5833 74.9369 35.857 74.7453 36.0751C74.7228 36.1007 74.6912 36.1139 74.6595 36.1139Z" fill="white"/>
<path d="M75.0033 34.9537C74.9403 34.9537 74.8892 34.9026 74.8892 34.8395V33.0064C74.8892 32.9433 74.9403 32.8923 75.0033 32.8923C75.0664 32.8923 75.1175 32.9433 75.1175 33.0064V34.8395C75.1175 34.9026 75.0664 34.9537 75.0033 34.9537Z" fill="white"/>
<path d="M75.0033 31.9058C74.9403 31.9058 74.8892 31.8548 74.8892 31.7917V29.5319C74.8892 29.4688 74.9403 29.4178 75.0033 29.4178C75.0664 29.4178 75.1175 29.4688 75.1175 29.5319V31.7917C75.1175 31.8548 75.0664 31.9058 75.0033 31.9058Z" fill="white"/>
<path d="M76.8039 17.5148H71.6694V20.1522H76.8039V17.5148Z" fill="#373E44"/>
<path d="M72.2833 19.7295H72.2742C72.1864 19.7295 72.1152 19.6583 72.1152 19.5706V18.1614C72.1152 18.0736 72.1864 18.0024 72.2742 18.0024H72.2833C72.371 18.0024 72.4422 18.0736 72.4422 18.1614V19.5706C72.4422 19.6583 72.3711 19.7295 72.2833 19.7295Z" fill="#EFBC73"/>
<path d="M73.2593 19.7295H73.2503C73.1625 19.7295 73.0913 19.6583 73.0913 19.5706V18.1614C73.0913 18.0736 73.1625 18.0024 73.2503 18.0024H73.2593C73.3471 18.0024 73.4183 18.0736 73.4183 18.1614V19.5706C73.4182 19.6583 73.3471 19.7295 73.2593 19.7295Z" fill="#EFBC73"/>
<path d="M74.2349 19.7295H74.2258C74.1381 19.7295 74.0669 19.6583 74.0669 19.5706V18.1614C74.0669 18.0736 74.1381 18.0024 74.2258 18.0024H74.2349C74.3227 18.0024 74.3939 18.0736 74.3939 18.1614V19.5706C74.3938 19.6583 74.3227 19.7295 74.2349 19.7295Z" fill="#EFBC73"/>
<path d="M75.211 19.7295H75.2019C75.1141 19.7295 75.043 19.6583 75.043 19.5706V18.1614C75.043 18.0736 75.1141 18.0024 75.2019 18.0024H75.211C75.2988 18.0024 75.3699 18.0736 75.3699 18.1614V19.5706C75.3699 19.6583 75.2988 19.7295 75.211 19.7295Z" fill="#EFBC73"/>
<path d="M76.1866 19.7295H76.1775C76.0897 19.7295 76.0186 19.6583 76.0186 19.5706V18.1614C76.0186 18.0736 76.0897 18.0024 76.1775 18.0024H76.1866C76.2744 18.0024 76.3455 18.0736 76.3455 18.1614V19.5706C76.3455 19.6583 76.2744 19.7295 76.1866 19.7295Z" fill="#EFBC73"/>
<path d="M80.2266 37.3687H80.1275C79.1701 37.3687 78.394 36.5926 78.394 35.6353V18.9614H81.9601V35.6353C81.9601 36.5927 81.184 37.3687 80.2266 37.3687Z" fill="#E6D0BE"/>
<path d="M80.8125 37.4801H80.7134C79.6946 37.4801 78.8657 36.6512 78.8657 35.6325V18.9586C78.8657 18.8955 78.9168 18.8445 78.9799 18.8445H82.546C82.609 18.8445 82.6601 18.8955 82.6601 18.9586V35.6325C82.6601 36.6512 81.8312 37.4801 80.8125 37.4801ZM79.094 19.0727V35.6325C79.094 36.5254 79.8205 37.2518 80.7134 37.2518H80.8125C81.7054 37.2518 82.4318 36.5255 82.4318 35.6325V19.0727H79.094Z" fill="white"/>
<path d="M80.7961 36.6192H80.7294C80.0844 36.6192 79.5615 36.0964 79.5615 35.4513V22.7627H81.964V35.4513C81.964 36.0963 81.4411 36.6192 80.7961 36.6192Z" fill="#EFBC73"/>
<path d="M81.1644 36.1139C81.1376 36.1139 81.1108 36.1045 81.0891 36.0856C81.0418 36.0439 81.0371 35.9718 81.0787 35.9244C81.2407 35.7398 81.3452 35.5074 81.381 35.2521C81.3897 35.1896 81.4472 35.1454 81.5098 35.1549C81.5723 35.1636 81.6158 35.2213 81.6071 35.2838C81.5652 35.5832 81.4418 35.8569 81.2502 36.0751C81.2276 36.1007 81.1961 36.1139 81.1644 36.1139Z" fill="white"/>
<path d="M81.5087 34.9537C81.4456 34.9537 81.3945 34.9026 81.3945 34.8395V33.0064C81.3945 32.9433 81.4456 32.8923 81.5087 32.8923C81.5717 32.8923 81.6229 32.9433 81.6229 33.0064V34.8395C81.6229 34.9026 81.5718 34.9537 81.5087 34.9537Z" fill="white"/>
<path d="M81.5087 31.9058C81.4456 31.9058 81.3945 31.8548 81.3945 31.7917V29.5319C81.3945 29.4688 81.4456 29.4178 81.5087 29.4178C81.5717 29.4178 81.6229 29.4688 81.6229 29.5319V31.7917C81.6229 31.8548 81.5718 31.9058 81.5087 31.9058Z" fill="white"/>
<path d="M83.3088 17.5148H78.1743V20.1522H83.3088V17.5148Z" fill="#373E44"/>
<path d="M78.7881 19.7295H78.7791C78.6913 19.7295 78.6201 19.6583 78.6201 19.5706V18.1614C78.6201 18.0736 78.6913 18.0024 78.7791 18.0024H78.7881C78.8759 18.0024 78.9471 18.0736 78.9471 18.1614V19.5706C78.9471 19.6583 78.876 19.7295 78.7881 19.7295Z" fill="#EFBC73"/>
<path d="M79.7642 19.7295H79.7551C79.6674 19.7295 79.5962 19.6583 79.5962 19.5706V18.1614C79.5962 18.0736 79.6674 18.0024 79.7551 18.0024H79.7642C79.852 18.0024 79.9232 18.0736 79.9232 18.1614V19.5706C79.9231 19.6583 79.852 19.7295 79.7642 19.7295Z" fill="#EFBC73"/>
<path d="M80.7398 19.7295H80.7307C80.643 19.7295 80.5718 19.6583 80.5718 19.5706V18.1614C80.5718 18.0736 80.643 18.0024 80.7307 18.0024H80.7398C80.8276 18.0024 80.8988 18.0736 80.8988 18.1614V19.5706C80.8987 19.6583 80.8276 19.7295 80.7398 19.7295Z" fill="#EFBC73"/>
<path d="M81.7159 19.7295H81.7068C81.619 19.7295 81.5479 19.6583 81.5479 19.5706V18.1614C81.5479 18.0736 81.619 18.0024 81.7068 18.0024H81.7159C81.8036 18.0024 81.8748 18.0736 81.8748 18.1614V19.5706C81.8748 19.6583 81.8036 19.7295 81.7159 19.7295Z" fill="#EFBC73"/>
<path d="M82.6915 19.7295H82.6824C82.5946 19.7295 82.5234 19.6583 82.5234 19.5706V18.1614C82.5234 18.0736 82.5946 18.0024 82.6824 18.0024H82.6915C82.7792 18.0024 82.8504 18.0736 82.8504 18.1614V19.5706C82.8504 19.6583 82.7792 19.7295 82.6915 19.7295Z" fill="#EFBC73"/>
<path d="M83.8265 38.8125H64.7846C64.7215 38.8125 64.6704 38.7614 64.6704 38.6983V27.923C64.6704 27.8599 64.7215 27.8088 64.7846 27.8088H83.8265C83.8895 27.8088 83.9407 27.8599 83.9407 27.923V38.6983C83.9407 38.7614 83.8895 38.8125 83.8265 38.8125ZM64.8987 38.5842H83.7124V28.0372H64.8987V38.5842Z" fill="white"/>
<path d="M52.0118 35.9976H28.3095C28.2464 35.9976 28.1953 35.9465 28.1953 35.8834V18.0108C28.1953 17.9477 28.2464 17.8966 28.3095 17.8966C28.3725 17.8966 28.4236 17.9477 28.4236 18.0108V35.7693H52.0118C52.0748 35.7693 52.126 35.8204 52.126 35.8835C52.126 35.9465 52.0748 35.9976 52.0118 35.9976Z" fill="white"/>
<path d="M45.7847 23.9404C45.7459 23.9404 45.708 23.9206 45.6866 23.8848C45.6543 23.8307 45.6719 23.7606 45.726 23.7283L48.9609 21.795C49.0151 21.7625 49.0851 21.7803 49.1175 21.8344C49.1498 21.8885 49.1322 21.9586 49.0781 21.991L45.8431 23.9243C45.8248 23.9352 45.8046 23.9404 45.7847 23.9404Z" fill="white"/>
<path d="M43.7365 23.4233C43.6993 23.4233 43.6629 23.4053 43.641 23.3718L39.258 16.6993C39.2234 16.6467 39.2381 16.5759 39.2908 16.5413C39.3435 16.5067 39.4142 16.5213 39.4489 16.574L43.8318 23.2465C43.8664 23.2992 43.8517 23.3699 43.799 23.4046C43.7798 23.4173 43.758 23.4233 43.7365 23.4233Z" fill="white"/>
<path d="M34.039 19.091C34.0049 19.091 33.9711 19.0757 33.9486 19.0466C33.9101 18.9967 33.9193 18.925 33.9692 18.8865L37.3742 16.2559C37.4241 16.2175 37.4958 16.2265 37.5344 16.2765C37.5729 16.3264 37.5637 16.3981 37.5138 16.4366L34.1087 19.0671C34.088 19.0832 34.0634 19.091 34.039 19.091Z" fill="white"/>
<path d="M32.9347 21.3768C32.0976 21.3768 31.4165 20.6956 31.4165 19.8585C31.4165 19.0213 32.0976 18.3403 32.9347 18.3403C33.7719 18.3403 34.453 19.0214 34.453 19.8585C34.453 20.6957 33.7719 21.3768 32.9347 21.3768ZM32.9347 18.5687C32.2235 18.5687 31.6448 19.1473 31.6448 19.8585C31.6448 20.5698 32.2235 21.1485 32.9347 21.1485C33.646 21.1485 34.2247 20.5698 34.2247 19.8585C34.2247 19.1473 33.646 18.5687 32.9347 18.5687Z" fill="white"/>
<path d="M38.5959 17.0073C37.7587 17.0073 37.0776 16.3262 37.0776 15.489C37.0776 14.6519 37.7587 13.9709 38.5959 13.9709C39.4331 13.9709 40.1141 14.6519 40.1141 15.489C40.1141 16.3262 39.4331 17.0073 38.5959 17.0073ZM38.5959 14.1992C37.8846 14.1992 37.306 14.7778 37.306 15.489C37.306 16.2003 37.8846 16.779 38.5959 16.779C39.3071 16.779 39.8858 16.2003 39.8858 15.489C39.8858 14.7778 39.3071 14.1992 38.5959 14.1992Z" fill="white"/>
<path d="M44.548 26.0165C43.7109 26.0165 43.0298 25.3354 43.0298 24.4982C43.0298 23.6611 43.7109 22.9801 44.548 22.9801C45.3852 22.9801 46.0663 23.6611 46.0663 24.4982C46.0663 25.3354 45.3852 26.0165 44.548 26.0165ZM44.548 23.2084C43.8368 23.2084 43.2581 23.7871 43.2581 24.4982C43.2581 25.2095 43.8368 25.7882 44.548 25.7882C45.2593 25.7882 45.838 25.2095 45.838 24.4982C45.838 23.7871 45.2593 23.2084 44.548 23.2084Z" fill="white"/>
<path d="M50.2536 22.7433C49.4164 22.7433 48.7354 22.0622 48.7354 21.225C48.7354 20.3878 49.4164 19.7068 50.2536 19.7068C51.0907 19.7068 51.7717 20.3878 51.7717 21.225C51.7718 22.0622 51.0907 22.7433 50.2536 22.7433ZM50.2536 19.9351C49.5424 19.9351 48.9637 20.5138 48.9637 21.225C48.9637 21.9363 49.5424 22.515 50.2536 22.515C50.9648 22.515 51.5435 21.9363 51.5435 21.225C51.5435 20.5138 50.9649 19.9351 50.2536 19.9351Z" fill="white"/>
<path d="M34.7678 23.4916H31.2759V33.0663H34.7678V23.4916Z" fill="white"/>
<path d="M40.53 21.5849H37.0381V33.067H40.53V21.5849Z" fill="white"/>
<path d="M46.2927 26.8775H42.8008V33.065H46.2927V26.8775Z" fill="white"/>
<path d="M52.0554 25.1039H48.5635V33.0681H52.0554V25.1039Z" fill="white"/>
</g>
</g>
<defs>
<clipPath id="clip0_176_359">
<rect width="94" height="120" fill="white"/>
</clipPath>
<clipPath id="clip1_176_359">
<rect x="-0.37207" y="11.5" width="94.7442" height="97" rx="7.51938" fill="white"/>
</clipPath>
</defs>
</svg>
