<svg width="292" height="408" viewBox="0 0 292 408" fill="none" xmlns="http://www.w3.org/2000/svg">
<rect width="292" height="408" rx="24" fill="#FFE5DC"/>
<path d="M78.0348 78V77.872C78.4188 77.872 82.0028 77.296 82.0028 70.832V35.248C82.0028 28.784 78.4188 28.208 78.0348 28.208V28.08H96.3388V28.208C95.9548 28.208 92.3708 28.784 92.3708 35.248V70.832C92.3708 77.296 95.9548 77.872 96.3388 77.872V78H78.0348ZM102.948 78V77.872C103.332 77.872 106.916 77.296 106.916 70.832V35.248C106.916 28.784 103.332 28.208 102.948 28.208V28.08H114.852L142.5 61.68V35.248C142.5 28.784 138.916 28.208 138.532 28.208V28.08H148.26V28.208C147.876 28.208 144.292 28.784 144.292 35.248V78.384L108.708 35.248V70.832C108.708 77.296 112.292 77.872 112.676 77.872V78H102.948ZM189.285 28.08V38.192H189.157C189.157 37.424 188.453 29.744 181.221 29.744H168.933V53.488H180.581C186.213 53.488 186.789 47.856 186.789 47.28H186.853V61.36H186.789C186.789 60.784 186.213 55.152 180.581 55.152H168.933V70.832C168.933 77.296 172.517 77.872 172.901 77.872V78H154.597V77.872C154.981 77.872 158.565 77.296 158.565 70.832V35.248C158.565 28.784 154.981 28.208 154.597 28.208V28.08H189.285ZM195.38 91.44C199.604 91.44 200.116 83.952 200.116 78.192V35.248C200.116 28.784 196.532 28.208 196.148 28.208V28.08H214.452V28.208C214.068 28.208 210.484 28.784 210.484 35.248V78.064C210.484 86.704 204.468 91.568 195.38 91.568V91.44Z" fill="#7B2C12"/>
<path d="M73.06 116V115.96C73.18 115.96 74.3 115.78 74.3 113.76V102.64C74.3 100.62 73.18 100.44 73.06 100.44V100.4H76.78L85.42 110.9V102.64C85.42 100.62 84.3 100.44 84.18 100.44V100.4H87.22V100.44C87.1 100.44 85.98 100.62 85.98 102.64V116.12L74.86 102.64V113.76C74.86 115.78 75.98 115.96 76.1 115.96V116H73.06ZM93.1228 119.86C94.1828 119.86 94.8628 119.44 95.3028 118.84C95.9828 117.9 96.1028 116.52 96.1028 115.52V114.4C95.4828 115.54 94.2228 116.24 92.8628 116.24C89.7828 116.24 87.8628 113.88 87.8628 110.56C87.8628 106.84 89.7828 104.08 93.1828 104.08C94.7828 104.08 95.5828 104.74 96.1028 105.46V104.28H100.543V104.32C100.423 104.32 99.3028 104.5 99.3028 106.52V115.2C99.3028 116.9 98.6628 118.08 97.7628 118.88C96.5428 119.98 94.8228 120.34 93.6028 120.34C91.6028 120.34 90.3028 119.64 89.5628 119.64V116.56H89.6228C89.8028 117.6 90.2828 118.34 90.8428 118.86C91.6428 119.6 92.6028 119.86 93.1228 119.86ZM91.0428 110.36C91.0428 113.12 92.0228 115.36 93.7628 115.36C94.7828 115.36 95.5228 114.76 96.1028 113.38V106.52C95.5828 105.42 94.8428 105.16 94.2628 105.16C92.4228 105.16 91.0428 107.2 91.0428 110.36ZM106.191 116.2C105.191 116.2 104.291 115.9 103.631 115.32C102.991 114.74 102.591 113.88 102.591 112.74V106.52C102.591 104.5 101.471 104.32 101.351 104.32V104.28H105.791V112.48C105.791 112.98 105.831 113.64 106.091 114.18C106.351 114.7 106.811 115.08 107.511 115.08C108.931 115.08 109.951 113.66 109.951 111.7V106.52C109.951 104.5 108.831 104.32 108.711 104.32V104.28H113.151V105.08C113.471 104.82 113.571 104.54 113.591 104.28C113.591 104.06 113.511 103.54 112.711 103.34V103.32L114.371 102.16C114.611 102.34 114.951 102.96 114.911 103.5C114.851 104.46 113.831 105.1 113.151 105.4V113.76C113.151 115.78 114.271 115.96 114.391 115.96V116H109.951V113.92C109.471 115.04 108.391 116.2 106.191 116.2ZM121.827 116.24C117.947 116.24 116.027 113.48 116.027 110.16C116.027 106.84 117.947 104.08 121.827 104.08C123.307 104.08 124.507 104.48 125.427 105.16C125.567 104.96 125.607 104.74 125.587 104.56C125.567 104.34 125.447 103.84 124.627 103.7V103.68L126.187 102.38C126.447 102.54 126.827 103.14 126.847 103.68C126.867 104.42 126.287 105.02 125.727 105.42C126.987 106.54 127.627 108.26 127.627 110.16C127.627 113.48 125.707 116.24 121.827 116.24ZM119.307 110.16C119.307 113.12 119.987 115.76 121.827 115.76C123.667 115.76 124.367 113.12 124.367 110.16C124.367 107.2 123.667 104.56 121.827 104.56C119.987 104.56 119.307 107.2 119.307 110.16ZM119.707 101.8V101.74L120.767 100.26H120.827C121.647 101.4 123.107 102.96 124.067 103.34L124.007 103.4C122.827 103.24 120.727 102.58 119.707 101.8ZM130.064 106.52C130.064 104.5 128.944 104.32 128.824 104.32V104.28H133.264V113.76C133.264 115.78 134.384 115.96 134.504 115.96V116H128.824V115.96C128.944 115.96 130.064 115.78 130.064 113.76V106.52ZM129.864 101.44C129.864 100.5 130.644 99.72 131.584 99.72C132.524 99.72 133.304 100.5 133.304 101.44C133.304 102.38 132.524 103.16 131.584 103.16C130.644 103.16 129.864 102.38 129.864 101.44ZM146.301 116.24C142.421 116.24 140.421 113.68 140.421 110.16C140.421 106.84 142.621 104.08 146.701 104.08C148.421 104.08 149.741 104.68 150.321 104.68V107.88H150.261C150.181 107.32 150.021 106.26 149.381 105.48C148.961 104.96 148.301 104.56 147.301 104.56C144.461 104.56 143.701 107.2 143.701 110.16C143.701 113.12 144.861 115.36 147.521 115.36C149.061 115.36 150.001 114.54 150.561 113.6L150.621 113.64C150.501 114.02 149.621 116.24 146.301 116.24ZM152.499 102.24C152.499 100.22 151.379 100.04 151.259 100.04V100H155.699V106.36C156.179 105.24 157.259 104.08 159.459 104.08C160.459 104.08 161.359 104.38 162.019 104.96C162.659 105.54 163.059 106.4 163.059 107.54V113.76C163.059 115.78 164.179 115.96 164.299 115.96V116H158.619V115.96C158.739 115.96 159.859 115.78 159.859 113.76V107.8C159.859 107.3 159.819 106.64 159.559 106.1C159.299 105.58 158.839 105.2 158.139 105.2C156.719 105.2 155.699 106.62 155.699 108.58V113.76C155.699 115.78 156.819 115.96 156.939 115.96V116H151.259V115.96C151.379 115.96 152.499 115.78 152.499 113.76V102.24ZM171.145 116.24C167.265 116.24 165.265 113.68 165.265 110.36C165.265 106.84 167.665 104.08 171.485 104.08C174.625 104.08 175.865 105.72 175.865 107.52C175.865 110.26 172.285 111.08 168.565 111.1C168.745 113.5 169.765 115.36 172.285 115.36C173.905 115.36 174.845 114.42 175.405 113.6L175.465 113.64C175.345 114.02 174.465 116.24 171.145 116.24ZM168.545 110.62C172.085 110.6 173.465 109.06 173.465 107C173.465 105.74 172.785 104.56 171.545 104.56C169.505 104.56 168.565 107.2 168.545 110.62ZM187.59 116.24C183.71 116.24 181.71 113.68 181.71 110.16C181.71 106.84 183.91 104.08 187.99 104.08C189.71 104.08 191.03 104.68 191.61 104.68V107.88H191.55C191.47 107.32 191.31 106.26 190.67 105.48C190.25 104.96 189.59 104.56 188.59 104.56C185.75 104.56 184.99 107.2 184.99 110.16C184.99 113.12 186.15 115.36 188.81 115.36C190.35 115.36 191.29 114.54 191.85 113.6L191.91 113.64C191.79 114.02 190.91 116.24 187.59 116.24ZM193.788 102.24C193.788 100.22 192.668 100.04 192.548 100.04V100H196.988V106.36C197.468 105.24 198.548 104.08 200.748 104.08C201.748 104.08 202.648 104.38 203.308 104.96C203.948 105.54 204.348 106.4 204.348 107.54V113.76C204.348 115.78 205.468 115.96 205.588 115.96V116H199.908V115.96C200.028 115.96 201.148 115.78 201.148 113.76V107.8C201.148 107.3 201.108 106.64 200.848 106.1C200.588 105.58 200.128 105.2 199.428 105.2C198.008 105.2 196.988 106.62 196.988 108.58V113.76C196.988 115.78 198.108 115.96 198.228 115.96V116H192.548V115.96C192.668 115.96 193.788 115.78 193.788 113.76V102.24ZM212.354 116.24C208.474 116.24 206.554 113.48 206.554 110.16C206.554 106.84 208.474 104.08 212.354 104.08C213.834 104.08 215.034 104.48 215.954 105.16C216.094 104.96 216.134 104.74 216.114 104.56C216.094 104.34 215.974 103.84 215.154 103.7V103.68L216.714 102.38C216.974 102.54 217.354 103.14 217.374 103.68C217.394 104.42 216.814 105.02 216.254 105.42C217.514 106.54 218.154 108.26 218.154 110.16C218.154 113.48 216.234 116.24 212.354 116.24ZM209.834 110.16C209.834 113.12 210.514 115.76 212.354 115.76C214.194 115.76 214.894 113.12 214.894 110.16C214.894 107.2 214.194 104.56 212.354 104.56C210.514 104.56 209.834 107.2 209.834 110.16ZM210.614 99.72C211.034 99.46 211.634 99.22 212.354 99.22C213.114 99.22 214.054 99.52 214.054 100.44C214.054 101.76 211.954 101.78 211.954 103.02C211.914 103.02 211.834 102.98 211.834 102.88C211.834 101.36 212.514 101.32 212.514 100.38C212.514 99.94 212.294 99.78 212.054 99.78C211.394 99.78 211.014 100.68 211.014 101.68H210.894L210.614 99.72Z" fill="#7B2C12"/>
<g clip-path="url(#clip0_1_1553)">
<path d="M146.5 389C215.812 389 272 332.812 272 263.5C272 194.188 215.812 138 146.5 138C77.1883 138 21 194.188 21 263.5C21 332.812 77.1883 389 146.5 389Z" fill="#7B2C12"/>
<path d="M236.298 206.208H141.884V300.622H236.298V206.208Z" fill="#EFA231"/>
<path d="M171.765 262.33C171.765 262.33 166.933 235.947 164.771 227.323C162.5 218.267 157.829 205.226 156.013 205.903C154.979 206.289 155.248 208.199 156.308 213.257C155.998 213.055 154.91 212.674 154.009 213.189C152.677 213.951 152.997 215.197 152.973 215.32C152.873 215.243 151.695 214.426 150.717 214.785C149.614 215.189 149.222 216.105 149.172 217.025C148.919 216.842 147.721 216.241 146.798 216.633C145.599 217.143 145.412 218.573 145.689 219.612C146.197 221.519 147.715 226.695 148.169 229.535C149.061 235.123 149.566 255.394 152.99 263.13C158.327 258.117 171.765 262.33 171.765 262.33Z" fill="white"/>
<path d="M154.861 229.677C154.857 229.677 154.853 229.677 154.849 229.676C154.773 229.669 154.718 229.603 154.725 229.527C154.915 227.448 155.807 226.028 156.524 224.886C157.229 223.765 157.695 223.024 157.128 222.269C156.622 221.597 156.359 220.592 156.347 219.283C156.344 218.863 156.586 218.508 156.98 218.357C157.371 218.207 157.803 218.313 158.079 218.628L162.088 223.186C162.137 223.242 162.132 223.329 162.075 223.379C162.018 223.429 161.932 223.424 161.881 223.367L157.873 218.809C157.631 218.533 157.303 218.527 157.078 218.613C156.855 218.699 156.618 218.918 156.622 219.28C156.633 220.512 156.884 221.489 157.347 222.105C158.027 223.01 157.467 223.902 156.757 225.032C156.055 226.149 155.182 227.539 154.998 229.552C154.991 229.623 154.932 229.677 154.861 229.677Z" fill="#363E44"/>
<path d="M147.691 222.72C147.63 222.72 147.575 222.679 147.559 222.617C147.539 222.544 147.583 222.469 147.656 222.45C149.12 222.064 150.046 220.597 149.764 219.109L149.538 217.918C149.525 217.85 149.566 217.782 149.633 217.762C149.7 217.741 149.772 217.775 149.799 217.839L150.725 220.034C151.064 220.836 151.928 221.281 152.778 221.093C153.256 220.987 153.662 220.698 153.92 220.281C154.178 219.864 154.255 219.373 154.137 218.896L153.371 215.819C153.354 215.749 153.394 215.677 153.464 215.655C153.534 215.634 153.608 215.671 153.633 215.739L154.159 217.179C154.421 217.896 155.222 218.279 155.946 218.031C156.627 217.797 157.023 217.09 156.867 216.387L156.385 214.217C156.369 214.144 156.416 214.07 156.489 214.054C156.563 214.038 156.637 214.084 156.653 214.158L157.135 216.328C157.321 217.167 156.848 218.011 156.035 218.29C155.32 218.535 154.541 218.265 154.116 217.678L154.403 218.83C154.539 219.379 154.451 219.945 154.154 220.426C153.856 220.906 153.389 221.238 152.837 221.36C151.856 221.578 150.863 221.065 150.473 220.14L150.046 219.13C150.312 220.734 149.305 222.299 147.726 222.715C147.714 222.718 147.703 222.72 147.691 222.72Z" fill="#363E44"/>
<path d="M167.745 232.512L146.465 239.034C146.465 239.034 146.718 264.256 152.365 270.329C157.038 275.355 189.152 269.553 189.152 269.553L190.852 242.145L170.037 248.036L167.745 232.512Z" fill="#E98029"/>
<path d="M237.569 272.599L248.438 291.326L265.169 279.589C272.249 275.516 273.216 265.692 267.072 260.311C258.551 252.848 248.984 244.785 228.919 241.791L230.29 260.833L242.512 270.329L237.569 272.599Z" fill="#E98029"/>
<path d="M236.989 292.4C236.989 292.4 209.563 304.083 182.03 291.66L187.836 243.059C187.836 243.059 205.972 236.071 235.439 242.88L236.989 292.4Z" fill="#E98029"/>
<path d="M182.981 271.013C182.974 271.013 182.967 271.012 182.959 271.011C182.884 270.999 182.834 270.928 182.845 270.854L185.471 254.404C185.483 254.33 185.554 254.278 185.628 254.29C185.703 254.302 185.754 254.373 185.742 254.447L183.116 270.897C183.106 270.965 183.047 271.013 182.981 271.013Z" fill="#363E44"/>
<path d="M225.481 241.716C225.481 241.716 211.624 248.942 197.754 241.621C197.754 241.621 208.949 238.051 225.481 241.716Z" fill="white"/>
<path d="M223.903 234.217C223.903 236.878 221.746 239.034 219.086 239.034C216.425 239.034 214.268 236.878 214.268 234.217L219.086 229.4C221.746 229.4 223.903 231.556 223.903 234.217Z" fill="#363E44"/>
<path d="M224.939 244.361C226.804 242.496 226.804 239.473 224.939 237.608C223.075 235.743 220.052 235.743 218.187 237.608C216.322 239.473 216.322 242.496 218.187 244.361C220.052 246.225 223.075 246.225 224.939 244.361Z" fill="#363E44"/>
<path d="M221.566 251.804C224.035 251.804 226.036 249.803 226.036 247.334C226.036 244.866 224.035 242.864 221.566 242.864C219.097 242.864 217.096 244.866 217.096 247.334C217.096 249.803 219.097 251.804 221.566 251.804Z" fill="#363E44"/>
<path d="M223.575 252.778C223.575 254.889 221.863 256.601 219.751 256.601C217.64 256.601 215.928 254.889 215.928 252.778C215.928 250.666 217.64 248.954 219.751 248.954C221.863 248.954 223.575 250.666 223.575 252.778Z" fill="#363E44"/>
<path d="M217.959 254.042C215.785 255.614 212.799 258.224 210.373 262.219C205.167 270.79 206.259 279.606 206.727 282.416C209.716 282.285 212.705 282.153 215.693 282.022C215.381 280.055 215.178 277.574 215.397 274.731C215.751 270.143 217.058 266.496 218.156 264.091C217.714 266.397 217.358 269.116 217.269 272.17C217.157 276.011 217.496 279.379 217.959 282.12C219.306 282.022 220.652 281.923 221.999 281.825C221.479 278.397 221.061 274.676 220.816 270.692C220.473 265.092 220.534 259.937 220.816 255.322C219.864 254.895 218.911 254.469 217.959 254.042Z" fill="#363E44"/>
<path d="M205.552 282.285C205.484 282.285 205.425 282.235 205.416 282.166C204.9 278.2 204.71 270.432 209.242 262.971C211.185 259.771 213.75 257.006 216.865 254.754C216.926 254.709 217.012 254.723 217.056 254.784C217.101 254.846 217.087 254.931 217.026 254.976C213.941 257.207 211.401 259.945 209.476 263.113C204.988 270.503 205.176 278.2 205.688 282.13C205.697 282.206 205.645 282.274 205.569 282.284C205.563 282.285 205.558 282.285 205.552 282.285Z" fill="#363E44"/>
<path d="M241.299 249.627C241.299 249.627 218.802 253.454 212.601 273.494C212.601 273.494 190.667 263.038 176.982 261.238L215.243 286.567L241.299 249.627Z" fill="#F2E6DC"/>
<path d="M182.953 300.672L218.266 315.338C218.576 316.872 220.072 317.865 221.607 317.555C223.142 317.245 224.135 315.749 223.825 314.214L250.476 287.024L242.323 246.684L215.671 273.874C215.981 275.409 214.988 276.904 213.454 277.215C211.919 277.525 210.423 276.532 210.113 274.997L174.8 260.332L182.953 300.672Z" fill="#F3BD40"/>
<path d="M223.358 312.711C223.294 312.711 223.237 312.666 223.224 312.601L216.113 277.418C216.098 277.344 216.146 277.271 216.22 277.256C216.296 277.242 216.366 277.289 216.382 277.364L223.493 312.547C223.508 312.621 223.46 312.694 223.386 312.709C223.376 312.711 223.367 312.711 223.358 312.711Z" fill="#776E42"/>
<path d="M218.138 313.767C218.074 313.767 218.017 313.722 218.004 313.656L210.892 278.473C210.877 278.399 210.925 278.326 211 278.311C211.075 278.297 211.146 278.344 211.161 278.419L218.273 313.602C218.288 313.676 218.24 313.749 218.165 313.764C218.156 313.766 218.147 313.767 218.138 313.767Z" fill="#776E42"/>
<path d="M210.522 274.653C210.484 274.653 210.447 274.638 210.42 274.607C210.369 274.551 210.374 274.464 210.43 274.414C210.45 274.396 212.426 272.659 215.16 273.454C215.232 273.476 215.274 273.552 215.253 273.624C215.232 273.697 215.156 273.739 215.083 273.718C212.498 272.966 210.632 274.601 210.613 274.618C210.587 274.641 210.554 274.653 210.522 274.653Z" fill="#E6D0BE"/>
<path d="M236.298 272.728L248.438 291.326L268.764 274.516L259.568 261.102L236.298 272.728Z" fill="#E98029"/>
<path d="M246.552 267.44C246.5 267.44 246.451 267.411 246.428 267.362C246.395 267.294 246.424 267.212 246.493 267.179L259.509 260.979C259.578 260.946 259.66 260.975 259.692 261.043C259.725 261.112 259.696 261.194 259.627 261.226L246.61 267.427C246.591 267.436 246.571 267.44 246.552 267.44Z" fill="#363E44"/>
<path d="M232.782 276.727C233.439 276.311 236.042 275.028 239.423 273.332C243.044 271.516 247.439 272.207 250.283 275.09C250.36 275.168 250.437 275.247 250.514 275.326C254.885 279.822 253.714 287.256 248.17 290.185C239.079 294.989 230.3 299.501 228.851 300.416C227.288 301.481 223.691 303.946 222.853 302.873C221.711 301.412 225.158 298.226 225.16 297.981C224.022 298.838 220.098 301.519 219.09 300.336C218.316 299.427 221.393 295.623 222.126 294.638C222.025 294.66 218.014 298.567 216.747 297.192C215.668 296.021 218.466 292.314 219.083 291.281C217.962 292.006 214.585 294.054 213.927 292.796C212.549 290.163 229.559 278.767 232.782 276.727Z" fill="white"/>
<path d="M218.968 291.324C218.938 291.324 218.909 291.314 218.884 291.295C218.824 291.249 218.813 291.163 218.859 291.103C219.351 290.465 219.891 289.857 220.464 289.296C221.493 288.286 222.652 287.402 223.907 286.667C223.972 286.628 224.056 286.65 224.095 286.716C224.133 286.781 224.111 286.865 224.046 286.903C222.81 287.627 221.669 288.498 220.656 289.491C220.092 290.044 219.561 290.643 219.076 291.27C219.049 291.306 219.009 291.324 218.968 291.324Z" fill="#363E44"/>
<path d="M222.009 294.733C221.975 294.733 221.941 294.72 221.914 294.695C221.86 294.642 221.858 294.555 221.91 294.501C222.027 294.379 222.148 294.257 222.273 294.134C223.303 293.125 224.461 292.24 225.717 291.505C225.782 291.467 225.866 291.489 225.904 291.554C225.942 291.62 225.92 291.704 225.855 291.742C224.619 292.465 223.479 293.336 222.465 294.33C222.342 294.451 222.223 294.571 222.108 294.691C222.081 294.719 222.045 294.733 222.009 294.733Z" fill="#363E44"/>
<path d="M225.216 298.034C225.176 298.034 225.137 298.017 225.11 297.985C225.062 297.926 225.07 297.84 225.129 297.791C225.856 297.191 226.64 296.644 227.459 296.165C227.523 296.127 227.608 296.148 227.646 296.214C227.684 296.279 227.662 296.363 227.597 296.402C226.791 296.874 226.019 297.412 225.303 298.003C225.278 298.024 225.247 298.034 225.216 298.034Z" fill="#363E44"/>
<path d="M170.898 255.002C170.83 255.002 170.771 254.951 170.762 254.882L169.901 248.053C169.891 247.978 169.945 247.909 170.02 247.9C170.095 247.89 170.164 247.943 170.173 248.019L171.034 254.848C171.044 254.923 170.99 254.991 170.915 255.001C170.91 255.001 170.904 255.002 170.898 255.002Z" fill="#363E44"/>
<path d="M210.146 244.474L211.721 244.187C213.511 243.861 214.697 242.145 214.371 240.355L212.77 231.576C212.444 229.787 210.729 228.6 208.939 228.926L207.364 229.213C205.574 229.54 204.388 231.255 204.714 233.045L206.315 241.824C206.641 243.614 208.357 244.8 210.146 244.474Z" fill="white"/>
<path d="M213.62 219.4C213.317 219.181 210.384 217.125 207.296 218.145C204.997 218.904 203.654 220.818 201.886 224.37C199.804 228.553 199.143 231.344 199.836 232.817C200.931 235.143 208.057 235.547 212.175 233.242C215.148 231.578 216.891 228.213 216.786 224.784C216.682 221.364 213.813 219.54 213.62 219.4Z" fill="white"/>
<path d="M203.181 220.502C203.168 220.53 203.139 220.542 203.127 220.571C203.126 220.572 203.126 220.573 203.126 220.574C202.839 220.904 202.536 221.252 202.195 221.523C202.043 221.644 201.888 221.672 201.733 221.769C201.618 221.841 201.51 221.909 201.394 221.975C201.02 220.576 201.342 219.245 201.342 219.245C201.342 219.245 202.326 219.655 203.181 220.502Z" fill="white"/>
<path d="M204.42 225.192C204.398 225.2 204.375 225.207 204.352 225.213C204.035 225.072 202.479 224.315 201.721 222.833C201.578 222.555 201.474 222.269 201.397 221.986C201.442 221.875 201.492 221.765 201.555 221.658C201.921 221.033 202.523 220.634 203.182 220.504C203.501 220.822 203.802 221.203 204.031 221.65C204.802 223.155 204.484 224.889 204.42 225.192Z" fill="#363E44"/>
<path d="M208.76 227.155C208.507 227.605 208.232 227.898 207.784 228.107C206.761 227.423 206.173 226.519 206.173 226.519C206.173 226.519 207.651 225.864 209.233 226.096C209.17 226.471 208.94 226.835 208.76 227.155Z" fill="white"/>
<path d="M209.238 226.097C209.414 226.124 209.591 226.162 209.768 226.214C211.553 226.734 212.638 228.401 212.638 228.401C212.638 228.401 210.828 229.226 209.043 228.706C208.581 228.572 208.167 228.361 207.806 228.122C207.876 227.251 208.415 226.464 209.238 226.097Z" fill="#363E44"/>
<path d="M221.513 226.257C220.545 230.398 218.234 233.632 213.318 234.582C211.531 232.662 213.483 229.901 213.385 228.648C213.262 227.087 215.203 224.523 216.258 223.492C211.866 221.407 205.048 218.972 205.001 218.768C204.864 218.167 206.447 217.078 209.129 216.198C210.642 215.702 212.965 215.068 214.784 216.043C218.021 217.779 222.715 221.115 221.513 226.257Z" fill="#363E44"/>
<path d="M212.108 229.517C210.871 230.363 210.447 231.897 211.162 232.943C211.877 233.989 213.459 234.152 214.697 233.306C215.935 232.46 216.359 230.926 215.644 229.88C214.929 228.834 213.346 228.671 212.108 229.517Z" fill="white"/>
<path d="M213.818 232.649C213.766 232.649 213.716 232.619 213.693 232.569C213.662 232.5 213.692 232.418 213.761 232.387C213.837 232.352 213.912 232.31 213.983 232.261C214.549 231.875 214.749 231.179 214.429 230.711C214.352 230.599 214.251 230.507 214.13 230.44C214.064 230.403 214.04 230.319 214.076 230.253C214.113 230.187 214.196 230.163 214.263 230.2C214.422 230.288 214.554 230.408 214.655 230.556C215.06 231.149 214.828 232.016 214.138 232.488C214.054 232.545 213.965 232.595 213.875 232.636C213.856 232.645 213.837 232.649 213.818 232.649Z" fill="#363E44"/>
<path d="M202.894 227.335C202.822 227.335 202.761 227.279 202.757 227.206C202.74 226.905 202.808 226.664 202.958 226.491C203.124 226.299 203.335 226.254 203.558 226.207C203.71 226.175 203.882 226.139 204.072 226.051C204.313 225.94 204.533 225.77 204.725 225.544C204.774 225.487 204.861 225.48 204.918 225.529C204.976 225.578 204.983 225.665 204.934 225.723C204.716 225.978 204.464 226.172 204.187 226.3C203.969 226.401 203.781 226.44 203.615 226.476C203.415 226.518 203.271 226.548 203.166 226.67C203.063 226.788 203.018 226.963 203.031 227.19C203.036 227.266 202.978 227.331 202.902 227.335C202.899 227.335 202.897 227.335 202.894 227.335Z" fill="#363E44"/>
<path d="M203.611 230.161C203.51 230.161 203.403 230.151 203.292 230.128C202.738 230.011 202.424 229.634 202.315 229.478C202.271 229.416 202.286 229.331 202.348 229.287C202.41 229.244 202.496 229.259 202.539 229.321C202.63 229.451 202.89 229.762 203.348 229.859C203.859 229.968 204.258 229.729 204.367 229.653C204.43 229.61 204.515 229.626 204.558 229.689C204.601 229.751 204.585 229.836 204.523 229.879C204.414 229.954 204.072 230.161 203.611 230.161Z" fill="#363E44"/>
<path d="M205.976 234.985C205.68 234.985 205.361 234.974 205.018 234.948C204.942 234.942 204.886 234.877 204.891 234.801C204.897 234.726 204.96 234.667 205.038 234.675C207.638 234.868 208.831 234.204 208.843 234.197C208.908 234.16 208.992 234.182 209.03 234.248C209.067 234.313 209.045 234.397 208.98 234.435C208.936 234.46 208.004 234.985 205.976 234.985Z" fill="#363E44"/>
<path d="M75.2312 367.126H62.8583L60.8298 316.509H76.5143L75.2312 367.126Z" fill="white"/>
<path d="M87.2683 374.934H62.6047V363.65H75.9843C82.2163 363.65 87.2683 368.702 87.2683 374.934Z" fill="#F3BD40"/>
<path d="M75.8039 366.035C75.7688 366.035 75.7337 366.021 75.707 365.995C75.6533 365.941 75.6533 365.854 75.707 365.801L77.8831 363.624C77.9368 363.571 78.0234 363.571 78.0771 363.624C78.1307 363.678 78.1307 363.765 78.0771 363.818L75.9009 365.995C75.8742 366.021 75.8391 366.035 75.8039 366.035Z" fill="#363E44"/>
<path d="M78.2781 366.777C78.2429 366.777 78.2078 366.764 78.1811 366.737C78.1275 366.683 78.1275 366.597 78.1811 366.543L80.3572 364.367C80.4109 364.313 80.4976 364.313 80.5512 364.367C80.6048 364.42 80.6048 364.507 80.5512 364.561L78.375 366.737C78.3483 366.764 78.3132 366.777 78.2781 366.777Z" fill="#363E44"/>
<path d="M46.4065 367.188L34.2507 364.881L40.4684 342.179L42.4305 314.913L58.1012 317.699L53.923 343.913L46.4065 367.188Z" fill="white"/>
<path d="M54.0288 380.276L30.8633 371.812L34.7359 361.213L47.3028 365.805C53.1563 367.944 56.1677 374.423 54.0288 380.276Z" fill="#F3BD40"/>
<path d="M46.3624 367.992C46.3107 367.992 46.2612 367.962 46.2379 367.912C46.206 367.844 46.2358 367.762 46.3044 367.73L49.0953 366.433C49.1645 366.401 49.2457 366.431 49.2776 366.499C49.3095 366.568 49.2796 366.65 49.211 366.682L46.4201 367.979C46.4013 367.988 46.3817 367.992 46.3624 367.992Z" fill="#363E44"/>
<path d="M48.4312 369.538C48.3795 369.538 48.33 369.508 48.3067 369.458C48.2749 369.39 48.3046 369.308 48.3732 369.276L51.1643 367.979C51.2331 367.947 51.3146 367.977 51.3465 368.046C51.3784 368.114 51.3486 368.196 51.28 368.228L48.489 369.525C48.4702 369.534 48.4506 369.538 48.4312 369.538Z" fill="#363E44"/>
<path d="M82.8469 330.526H60.3865L59.202 318.196L57.1075 330.526H35.5571L42.3297 297.971H76.1817L82.8469 330.526Z" fill="#E98029"/>
<path d="M78.8157 270.232C85.3184 270.016 104.135 270.472 104.185 263.046C104.226 256.903 85.8866 257.218 79.4108 257.039C79.2125 261.437 79.014 265.834 78.8157 270.232Z" fill="white"/>
<path d="M35.4271 265.814C30.9818 270.565 17.3531 283.548 22.5692 288.834C26.8838 293.207 39.6291 280.016 44.3347 275.564C41.3655 272.314 38.3963 269.064 35.4271 265.814Z" fill="white"/>
<path d="M28.3093 270.232C28.3093 270.232 39.1226 255.733 59.9754 256.22C75.2103 256.576 84.8113 256.589 84.8113 256.589V274.01L76.1816 277.66V297.971H42.3295V279.731L39.5543 281.166L28.3093 270.232Z" fill="#F9DF51"/>
<path d="M78.8165 278.63L52.0149 310.04C51.2133 310.979 49.8021 311.091 48.8628 310.289L47.6632 309.265C47.538 308.4 47.102 307.61 46.4368 307.042L45.5421 306.279C44.9522 305.775 44.882 304.889 45.3853 304.299L46.7458 302.704C46.4597 296.876 48.4019 291.157 52.1782 286.708L53.8328 284.759C55.3495 282.972 57.4377 281.765 59.7431 281.342L65.1333 280.355C65.6638 280.257 66.1582 280.019 66.5646 279.664L71.1525 275.761C73.1825 274.034 76.1075 273.849 78.3387 275.307C79.467 276.044 79.6913 277.605 78.8165 278.63Z" fill="#D87355"/>
<path d="M77.6626 283.086C77.6669 281.057 76.0256 279.409 73.9968 279.405C71.968 279.401 70.3198 281.042 70.3156 283.071C70.3113 285.1 71.9525 286.748 73.9814 286.752C76.0102 286.756 77.6583 285.115 77.6626 283.086Z" fill="#363E44"/>
<path d="M74.014 285.68C75.4484 285.662 76.5966 284.484 76.5785 283.05C76.5605 281.616 75.383 280.467 73.9486 280.485C72.5141 280.504 71.366 281.681 71.384 283.115C71.4021 284.55 72.5796 285.698 74.014 285.68Z" fill="#D3BBA3"/>
<path d="M58.5129 306.852C59.9823 305.453 60.0396 303.128 58.6407 301.659C57.2418 300.189 54.9166 300.132 53.4471 301.531C51.9776 302.93 51.9204 305.255 53.3193 306.724C54.7181 308.194 57.0434 308.251 58.5129 306.852Z" fill="#363E44"/>
<path d="M55.9757 306.792C57.4102 306.792 58.5732 305.63 58.5732 304.195C58.5732 302.76 57.4102 301.597 55.9757 301.597C54.5411 301.597 53.3782 302.76 53.3782 304.195C53.3782 305.63 54.5411 306.792 55.9757 306.792Z" fill="#D3BBA3"/>
<path d="M49.7523 299.448L65.046 281.525L57.3411 283.222C56.8226 283.336 56.3471 283.594 55.9698 283.968C51.7714 288.124 49.0248 293.493 48.1172 299.229L49.7523 299.448Z" fill="#363E44"/>
<path d="M74.3258 276.595C75.5993 275.892 76.4469 274.987 76.2189 274.574C75.991 274.161 74.7738 274.396 73.5003 275.099C72.2267 275.802 71.3791 276.706 71.6071 277.119C71.835 277.532 73.0522 277.298 74.3258 276.595Z" fill="#F9DF51"/>
<path d="M78.4626 276.803L77.9155 277.445C77.7681 277.617 77.5036 277.623 77.3483 277.458L76.7647 276.836C76.6319 276.694 76.6269 276.476 76.7528 276.328L77.2999 275.687C77.4472 275.515 77.7118 275.508 77.867 275.674L78.4506 276.296C78.5833 276.437 78.5884 276.656 78.4626 276.803Z" fill="#FFD092"/>
<path d="M27.4224 279.176C32.4475 280.269 44.4086 282.258 45.5686 282.499C47.7368 282.948 59.3102 285.665 59.0993 287.377C58.9985 288.195 56.7452 287.773 55.9877 287.608C56.5339 288.043 58.8122 289.486 58.4652 290.342C58.0575 291.349 55.0794 290.045 55.0202 290.054C55.6197 290.439 58.0695 291.878 57.8344 292.53C57.5284 293.379 54.8479 292.724 54.0544 292.491C54.1059 292.624 56.63 293.65 56.3082 294.678C56.0719 295.432 53.6136 294.828 52.5465 294.568C50.6197 294.17 27.961 290.752 23.831 289.578C22.2142 289.12 24.9565 280.434 27.4224 279.176Z" fill="white"/>
<path d="M38.2999 281.303C38.2917 281.303 38.2836 281.303 38.2751 281.301C35.703 280.833 29.0154 279.533 27.3946 279.199C27.3204 279.184 27.2727 279.111 27.288 279.037C27.3033 278.963 27.3749 278.915 27.4502 278.93C29.0699 279.264 35.7536 280.563 38.3245 281.031C38.399 281.045 38.4483 281.116 38.4348 281.191C38.4226 281.257 38.3648 281.303 38.2999 281.303Z" fill="#363E44"/>
<path d="M56.031 287.67C56.0063 287.67 55.9815 287.664 55.9591 287.65C55.5696 287.409 55.1608 287.194 54.7442 287.01C53.9944 286.679 53.2013 286.44 52.3864 286.3C52.3118 286.287 52.2616 286.217 52.2745 286.142C52.2872 286.067 52.3566 286.018 52.4328 286.03C53.2698 286.173 54.0847 286.419 54.855 286.759C55.2831 286.948 55.7032 287.169 56.1033 287.417C56.1677 287.456 56.1876 287.541 56.1478 287.605C56.1218 287.647 56.0769 287.67 56.031 287.67Z" fill="#363E44"/>
<path d="M55.0749 290.145C55.0552 290.145 55.035 290.14 55.0158 290.131C54.9293 290.09 54.8407 290.049 54.7497 290.009C54.0002 289.678 53.207 289.439 52.3923 289.299C52.3176 289.287 52.2674 289.216 52.2803 289.141C52.2931 289.066 52.363 289.017 52.4386 289.029C53.2756 289.173 54.0904 289.418 54.8607 289.758C54.9541 289.799 55.0455 289.841 55.1343 289.884C55.2026 289.916 55.2316 289.998 55.1989 290.067C55.1752 290.116 55.1261 290.145 55.0749 290.145Z" fill="#363E44"/>
<path d="M54.0069 292.594C53.9921 292.594 53.9771 292.592 53.9625 292.587C53.4557 292.413 52.9293 292.279 52.3976 292.187C52.323 292.175 52.2728 292.104 52.2857 292.029C52.2985 291.955 52.368 291.905 52.444 291.917C52.9899 292.011 53.5308 292.149 54.0515 292.327C54.1231 292.352 54.1613 292.43 54.1368 292.502C54.117 292.558 54.0638 292.594 54.0069 292.594Z" fill="#363E44"/>
<path d="M91.2449 261.786C95.5437 248.891 99.0898 239.89 100.702 234.087C101.426 231.482 101.653 228.736 103.63 227.048C104.507 226.299 105.538 225.691 106.022 226.39C106.777 227.481 103.823 229.561 104.463 230.433C105.107 231.309 108.643 229.966 108.708 228.687C108.761 227.655 106.346 227.742 106.68 226.564C106.908 225.758 108.246 225.805 109.192 226.027C109.492 226.097 110.751 226.394 111.341 227.639C111.966 228.956 111.303 230.2 111.234 230.325C112.052 230.196 112.809 230.537 113.06 231.078C113.396 231.799 112.886 233 111.664 233.335C111.821 233.321 112.993 233.23 113.276 233.764C113.553 234.288 112.96 235.383 111.556 236.236C112.491 236.205 113.116 236.496 113.222 236.827C113.517 237.754 112.375 239.165 108.654 241.072C107.896 244.268 104.1 263.855 104.1 263.855C104.1 263.855 98.9419 267.632 91.2449 261.786Z" fill="white"/>
<path d="M91.2449 261.924C91.2306 261.924 91.216 261.921 91.2014 261.917C91.1297 261.893 91.0908 261.815 91.1148 261.743C91.5586 260.411 92.021 259.042 92.4884 257.675C92.5129 257.603 92.5909 257.565 92.6624 257.589C92.7342 257.614 92.7724 257.692 92.7479 257.763C92.2806 259.131 91.8188 260.499 91.3748 261.83C91.3557 261.887 91.3024 261.924 91.2449 261.924Z" fill="#363E44"/>
<path d="M110.67 238.657C110.668 238.657 110.666 238.657 110.664 238.657C109.274 238.601 108.118 238.073 108.087 237.479C108.065 237.044 108.641 236.585 109.492 236.299C108.502 236.192 107.81 235.858 107.714 235.405C107.595 234.837 108.374 234.108 109.568 233.603C108.521 233.56 107.681 233.193 107.554 232.668C107.388 231.984 108.403 230.909 110.124 230.462C110.197 230.442 110.272 230.486 110.292 230.56C110.311 230.633 110.267 230.708 110.193 230.727C108.569 231.149 107.703 232.121 107.82 232.604C107.929 233.052 108.984 233.45 110.325 233.304C110.404 233.295 110.476 233.347 110.492 233.425C110.507 233.503 110.461 233.579 110.384 233.601C108.708 234.106 107.9 234.955 107.983 235.348C108.059 235.713 108.984 236.088 110.354 236.06C110.429 236.058 110.502 236.118 110.509 236.199C110.517 236.279 110.462 236.35 110.381 236.363C109.055 236.579 108.345 237.152 108.361 237.465C108.379 237.81 109.268 238.326 110.675 238.383C110.751 238.386 110.809 238.45 110.806 238.525C110.803 238.599 110.743 238.657 110.67 238.657Z" fill="#363E44"/>
<path d="M104.227 240.402C104.215 240.402 104.202 240.4 104.19 240.397C104.117 240.376 104.074 240.301 104.095 240.228C104.222 239.766 104.565 238.887 105.423 238.191C106.393 237.405 107.448 237.303 107.99 237.306C108.066 237.307 108.126 237.369 108.125 237.445C108.124 237.521 108.057 237.579 107.986 237.58C107.58 237.574 106.532 237.645 105.596 238.404C104.797 239.052 104.478 239.871 104.359 240.301C104.342 240.362 104.287 240.402 104.227 240.402Z" fill="#363E44"/>
<path d="M136.053 236.849L138.457 236.767L134.665 231.063L134.807 230.286L138.472 222.433L136.562 222.084L130.281 229.26C124.323 228.059 113.465 225.902 103.574 224.108L108.786 216.087L107.164 215.791L97.0394 222.954C92.6896 222.212 88.8605 221.619 86.1838 221.318C84.3307 221.11 79.1485 222.06 78.9275 223.345C78.5726 225.41 83.0796 226.537 85.1359 227.067C88.4067 227.911 93.2919 228.758 98.7309 229.551L119.764 248.419L123.722 248.352L109.509 230.981C118.454 232.074 127.104 232.94 131.397 233.354L136.053 236.849Z" fill="#F3BD40"/>
<path d="M89.8845 224.864C89.8981 225.206 89.6316 225.495 89.2891 225.509C88.9466 225.522 88.6579 225.256 88.6443 224.913C88.6307 224.571 88.8972 224.282 89.2397 224.269C89.582 224.255 89.8708 224.521 89.8845 224.864Z" fill="#776E42"/>
<path d="M92.3871 225.261C92.4006 225.604 92.1341 225.893 91.7917 225.906C91.4492 225.92 91.1605 225.653 91.1467 225.311C91.1332 224.968 91.3997 224.68 91.7421 224.666C92.0848 224.652 92.3735 224.919 92.3871 225.261Z" fill="#776E42"/>
<path d="M94.8898 225.659C94.9035 226.002 94.6368 226.29 94.2943 226.304C93.9519 226.318 93.6631 226.051 93.6494 225.709C93.6358 225.366 93.9023 225.077 94.2448 225.064C94.5874 225.05 94.8762 225.317 94.8898 225.659Z" fill="#776E42"/>
<path d="M97.3924 226.057C97.406 226.399 97.1395 226.688 96.797 226.702C96.4546 226.715 96.1658 226.449 96.1521 226.106C96.1384 225.764 96.405 225.475 96.7475 225.461C97.09 225.448 97.3787 225.714 97.3924 226.057Z" fill="#776E42"/>
<path d="M99.8949 226.454C99.9084 226.797 99.6419 227.086 99.2995 227.099C98.957 227.113 98.6683 226.846 98.6545 226.504C98.641 226.161 98.9075 225.873 99.25 225.859C99.5926 225.845 99.8813 226.112 99.8949 226.454Z" fill="#776E42"/>
<path d="M102.398 226.852C102.411 227.195 102.145 227.483 101.802 227.497C101.46 227.511 101.171 227.244 101.157 226.902C101.144 226.559 101.41 226.27 101.753 226.257C102.095 226.243 102.384 226.51 102.398 226.852Z" fill="#776E42"/>
<path d="M104.9 227.25C104.914 227.592 104.647 227.881 104.305 227.895C103.962 227.908 103.674 227.642 103.66 227.299C103.646 226.957 103.913 226.668 104.255 226.654C104.598 226.641 104.887 226.907 104.9 227.25Z" fill="#776E42"/>
<path d="M107.403 227.647C107.417 227.99 107.15 228.279 106.808 228.292C106.465 228.306 106.176 228.039 106.163 227.697C106.149 227.354 106.416 227.066 106.758 227.052C107.101 227.038 107.389 227.305 107.403 227.647Z" fill="#776E42"/>
<path d="M109.906 228.045C109.919 228.388 109.653 228.676 109.31 228.69C108.968 228.704 108.679 228.437 108.665 228.094C108.652 227.752 108.918 227.463 109.261 227.45C109.603 227.436 109.892 227.702 109.906 228.045Z" fill="#776E42"/>
<path d="M112.408 228.443C112.422 228.785 112.155 229.074 111.813 229.088C111.47 229.101 111.182 228.835 111.168 228.492C111.154 228.15 111.421 227.861 111.763 227.847C112.106 227.834 112.394 228.1 112.408 228.443Z" fill="#776E42"/>
<path d="M114.911 228.84C114.924 229.183 114.658 229.472 114.315 229.485C113.973 229.499 113.684 229.232 113.67 228.89C113.657 228.547 113.923 228.258 114.266 228.245C114.608 228.231 114.897 228.498 114.911 228.84Z" fill="#776E42"/>
<path d="M117.413 229.238C117.427 229.58 117.16 229.869 116.818 229.883C116.475 229.896 116.187 229.63 116.173 229.287C116.16 228.945 116.426 228.656 116.769 228.643C117.111 228.629 117.4 228.895 117.413 229.238Z" fill="#776E42"/>
<path d="M59.9426 246.048C67.2924 246.048 73.2507 240.58 73.2507 233.835C73.2507 227.09 67.2924 221.622 59.9426 221.622C52.5927 221.622 46.6345 227.09 46.6345 233.835C46.6345 240.58 52.5927 246.048 59.9426 246.048Z" fill="#363E44"/>
<path d="M65.2201 244.453H55.0701V259.941H65.2201V244.453Z" fill="white"/>
<path d="M60.1452 250.982C66.021 250.982 70.7843 245.406 70.7843 238.529C70.7843 231.652 66.021 226.076 60.1452 226.076C54.2694 226.076 49.5061 231.652 49.5061 238.529C49.5061 245.406 54.2694 250.982 60.1452 250.982Z" fill="white"/>
<path d="M64.271 228.546L65.7383 232.99H70.7033C70.6888 227.157 65.9564 222.433 60.12 222.433C54.2835 222.433 49.551 227.157 49.5366 232.99H62.9643L64.271 228.546Z" fill="#363E44"/>
<path d="M50.5987 243.273C52.0162 242.627 52.3863 240.395 51.4255 238.289C50.4646 236.183 48.5367 235 47.1192 235.647C45.7018 236.294 45.3316 238.525 46.2925 240.631C47.2533 242.737 49.1813 243.92 50.5987 243.273Z" fill="white"/>
<path d="M48.1553 241.234C48.1239 241.234 48.0921 241.223 48.0665 241.201C47.7317 240.915 47.4481 240.531 47.2467 240.09C46.9836 239.513 46.8877 238.9 46.9767 238.363C47.069 237.806 47.3482 237.396 47.7625 237.206C48.0752 237.064 48.4361 237.062 48.8064 237.201C48.8773 237.227 48.9131 237.307 48.8867 237.377C48.8599 237.448 48.7806 237.484 48.71 237.458C48.4095 237.345 48.1213 237.344 47.8764 237.456C47.5477 237.606 47.3243 237.944 47.2472 238.408C47.167 238.891 47.2554 239.448 47.4961 239.976C47.681 240.381 47.9396 240.732 48.2441 240.992C48.3018 241.041 48.3087 241.128 48.2594 241.185C48.2327 241.217 48.1942 241.234 48.1553 241.234Z" fill="#363E44"/>
<path d="M60.1659 251.297C58.3687 251.297 56.5807 250.791 54.9954 249.832C54.9305 249.793 54.9098 249.709 54.949 249.644C54.988 249.579 55.0721 249.558 55.1374 249.598C56.7018 250.543 58.3936 251.023 60.1659 251.023C61.9285 251.023 63.6118 250.548 65.1695 249.613C65.2346 249.573 65.3189 249.595 65.3577 249.66C65.3967 249.724 65.3757 249.809 65.3107 249.848C63.7099 250.81 61.9788 251.297 60.1659 251.297Z" fill="#363E44"/>
<path d="M74.1886 240.623C75.1495 238.517 74.7793 236.286 73.3619 235.639C71.9445 234.992 70.0165 236.175 69.0557 238.281C68.0948 240.387 68.465 242.619 69.8824 243.265C71.2998 243.912 73.2278 242.729 74.1886 240.623Z" fill="white"/>
<path d="M72.1771 241.234C72.1384 241.234 72.0999 241.217 72.0727 241.186C72.0236 241.128 72.0303 241.041 72.0879 240.992C72.3926 240.732 72.6512 240.381 72.836 239.976C73.3247 238.905 73.1541 237.775 72.4559 237.456C72.211 237.344 71.9228 237.345 71.6222 237.458C71.551 237.484 71.4722 237.449 71.4455 237.378C71.419 237.307 71.4548 237.228 71.5257 237.201C71.8961 237.062 72.2573 237.064 72.5698 237.207C73.4056 237.588 73.637 238.881 73.0858 240.09C72.8843 240.531 72.6009 240.915 72.2661 241.201C72.2403 241.223 72.2086 241.234 72.1771 241.234Z" fill="#363E44"/>
<path d="M70.0722 243.22C70.0582 243.22 70.0437 243.218 70.0295 243.213C69.9577 243.19 69.9183 243.112 69.9419 243.04C70.417 241.589 70.6579 240.059 70.6579 238.49C70.6579 237.822 70.6132 237.151 70.525 236.496C70.5149 236.421 70.5676 236.352 70.6425 236.342C70.7193 236.331 70.7868 236.385 70.7968 236.459C70.8865 237.126 70.9321 237.81 70.9321 238.49C70.9321 240.088 70.6865 241.647 70.2025 243.125C70.1837 243.183 70.1299 243.22 70.0722 243.22Z" fill="#363E44"/>
<path d="M50.2226 243.168C50.165 243.168 50.1113 243.132 50.0924 243.074C49.6122 241.626 49.3689 240.096 49.3689 238.529C49.3689 237.751 49.4301 236.972 49.5508 236.214C49.5627 236.139 49.6324 236.088 49.7078 236.1C49.7826 236.112 49.8336 236.182 49.8217 236.257C49.7033 237.001 49.6432 237.766 49.6432 238.529C49.6432 240.067 49.882 241.567 50.3529 242.988C50.3767 243.06 50.3378 243.137 50.2658 243.161C50.2514 243.166 50.2368 243.168 50.2226 243.168Z" fill="#363E44"/>
<path d="M57.8751 239.281C57.8751 239.281 55.6892 240.479 53.796 239.78C51.903 239.081 51.0195 236.75 51.0195 236.75C51.0195 236.75 51.7694 236.34 52.7742 236.141C53.4815 236 54.4238 237.825 54.4238 237.825C54.4238 237.825 56.6085 237.23 57.063 237.846C57.6164 238.595 57.8751 239.281 57.8751 239.281Z" fill="#F9DF51"/>
<path d="M56.9449 238.298C57.0005 238.147 57.0396 237.994 57.0634 237.841C56.6085 237.222 55.9578 236.569 55.0987 236.251C54.3147 235.962 53.4825 236 52.774 236.141C52.666 236.299 52.5732 236.471 52.5039 236.658C52.051 237.885 52.6782 239.246 53.9045 239.699C55.131 240.151 56.492 239.524 56.9449 238.298Z" fill="#363E44"/>
<path d="M60.3574 243.14C60.312 243.14 60.2676 243.117 60.2414 243.076C60.2007 243.012 60.2196 242.927 60.2837 242.887C60.6387 242.661 60.8535 242.4 60.9222 242.111C60.9943 241.807 60.8857 241.56 60.7355 241.219C60.6193 240.956 60.4878 240.658 60.4106 240.261C60.3121 239.757 60.3307 239.222 60.4657 238.671C60.4839 238.598 60.5588 238.553 60.6317 238.57C60.7052 238.589 60.7502 238.663 60.7322 238.736C60.6066 239.248 60.589 239.744 60.6797 240.209C60.7511 240.575 60.8761 240.858 60.9864 241.109C61.1452 241.469 61.2825 241.781 61.1889 242.174C61.1032 242.535 60.8482 242.853 60.4307 243.118C60.408 243.133 60.3826 243.14 60.3574 243.14Z" fill="#363E44"/>
<path d="M59.0802 245.377C58.662 245.377 58.234 245.245 57.9027 244.987C57.5596 244.72 57.3539 244.339 57.3382 243.943C57.3352 243.867 57.3941 243.803 57.4698 243.801C57.547 243.796 57.6094 243.856 57.6123 243.932C57.6248 244.247 57.7922 244.553 58.0714 244.77C58.5898 245.175 59.4169 245.213 59.9146 244.856C59.9765 244.812 60.0619 244.826 60.1061 244.887C60.1503 244.949 60.1361 245.035 60.0747 245.079C59.7961 245.278 59.4418 245.377 59.0802 245.377Z" fill="#363E44"/>
<path d="M60.0405 263.364C64.5809 263.364 68.2616 261.656 68.2616 259.549C68.2616 257.442 64.5809 255.734 60.0405 255.734C55.5001 255.734 51.8193 257.442 51.8193 259.549C51.8193 261.656 55.5001 263.364 60.0405 263.364Z" fill="white"/>
<path d="M62.1362 239.236C62.1362 239.236 64.3064 240.463 66.2085 239.788C68.1104 239.114 69.0242 236.795 69.0242 236.795C69.0242 236.795 68.4579 236.475 67.6503 236.252C66.877 236.038 65.6794 237.773 65.6794 237.773C65.6794 237.773 63.6435 236.998 63.2013 237.514C62.4853 238.35 62.1362 239.236 62.1362 239.236Z" fill="#F9DF51"/>
<path d="M67.7886 236.544C67.7529 236.443 67.7095 236.349 67.6621 236.256C66.887 236.04 65.8878 235.911 64.952 236.243C64.2242 236.501 63.6426 237 63.2 237.517C63.2159 237.72 63.2555 237.924 63.3267 238.125C63.7634 239.358 65.1162 240.002 66.3484 239.566C67.5807 239.129 68.2253 237.776 67.7886 236.544Z" fill="#363E44"/>
<path d="M46.6006 228.439C46.5847 228.439 46.5684 228.436 46.5525 228.43C46.4815 228.404 46.4456 228.325 46.4721 228.254C47.9398 224.329 51.119 221.638 54.7691 221.232C57.2003 220.96 59.2263 221.775 60.4967 222.507C60.5624 222.545 60.585 222.629 60.547 222.694C60.5094 222.76 60.4253 222.783 60.3598 222.745C59.1251 222.034 57.1586 221.241 54.7994 221.504C51.2529 221.9 48.1604 224.523 46.729 228.35C46.7084 228.405 46.6562 228.439 46.6006 228.439Z" fill="#363E44"/>
<path d="M54.3543 226.079C54.3312 226.079 54.3078 226.073 54.2864 226.061C54.2207 226.023 54.1978 225.94 54.2354 225.874C54.9631 224.601 56.3001 222.876 58.5364 221.882C61.8933 220.392 65.9957 221.11 69.2431 223.758C69.3018 223.806 69.3106 223.892 69.2629 223.951C69.215 224.009 69.1289 224.019 69.0699 223.971C65.9029 221.389 61.9095 220.685 58.6479 222.133C56.4793 223.096 55.1809 224.773 54.4735 226.01C54.4481 226.054 54.4017 226.079 54.3543 226.079Z" fill="#363E44"/>
<path d="M106.778 339.288H88.8818V357.184H106.778V339.288Z" fill="#FFD092"/>
<path d="M95.3482 357.179H77.4519V375.075H95.3482V357.179Z" fill="#D87355"/>
<path d="M118.209 357.179H100.312V375.075H118.209V357.179Z" fill="#F3BD40"/>
<path d="M72.7991 348.236C72.7991 348.236 72.8755 327.548 79.9073 327.548C86.939 327.548 87.6946 347.426 87.6946 347.426C87.6946 347.426 81.3262 351.655 72.7991 348.236Z" fill="black"/>
<path d="M82.5323 333.576C82.5323 335.895 81.3572 337.775 79.9074 337.775C78.4576 337.775 77.2825 335.895 77.2825 333.576C77.2825 331.256 79.5993 330.192 79.5993 330.192C79.5993 330.192 82.5323 331.256 82.5323 333.576Z" fill="#DC8929"/>
<path d="M56.9934 384.65C59.2378 384.044 60.8871 382.922 60.6772 382.145C60.4673 381.368 58.4777 381.23 56.2333 381.836C53.9889 382.443 52.3396 383.564 52.5495 384.341C52.7593 385.118 54.749 385.256 56.9934 384.65Z" fill="#D87355"/>
<path d="M73.5007 364.141L68.2539 370.558C68.2539 370.558 67.9581 376.56 60.6723 382.146L55.7449 383.244L58.929 381.409L65.0005 369.478L68.4005 361.41L73.5007 364.141Z" fill="#DC8929"/>
<path d="M49.6069 373.102C49.7379 372.308 47.9844 371.357 45.6904 370.979C43.3965 370.601 41.4308 370.938 41.2998 371.732C41.1689 372.526 42.9223 373.476 45.2163 373.855C47.5102 374.233 49.476 373.896 49.6069 373.102Z" fill="#D87355"/>
<path d="M68.7369 362.042L61.3028 365.707C61.3028 365.707 58.5462 371.048 49.6007 373.112L44.6614 372.069L48.3197 371.719L58.7897 363.376L65.2272 357.443L68.7369 362.042Z" fill="#DC8929"/>
<path d="M84.2677 342.807C84.2677 342.807 85.6844 343.01 85.9677 344.103C86.2511 345.195 86.8986 352.724 86.8986 352.724L84.7129 362.115L82.77 361.75L84.8344 352.461L83.0129 345.6L84.2677 342.807Z" fill="#DC8929"/>
<path d="M77.7976 341.707C77.7976 341.707 77.6686 343.132 76.5917 343.471C75.5149 343.811 68.0296 344.846 68.0296 344.846L58.5388 343.147L58.8024 341.188L68.1859 342.77L74.9437 340.598L77.7976 341.707Z" fill="#DC8929"/>
<path d="M73.9864 339.8L85.1581 342.307L80.3819 352.184C80.3819 352.184 87.3713 357.266 77.5485 368.855C77.5485 368.855 63.6244 366.521 58.6052 357.266C58.6052 357.266 63.7863 350.888 74.796 350.727L73.9864 339.8Z" fill="#DC8929"/>
<path d="M82.6845 342.842C82.5419 343.452 80.8796 343.585 78.9718 343.139C77.0639 342.694 75.6329 341.837 75.7754 341.227C75.9181 340.617 77.5803 340.484 79.4882 340.93C81.396 341.376 82.8271 342.232 82.6845 342.842Z" fill="#DC8929"/>
<path d="M77.7373 341.364L79.2299 336.776L81.4612 336.075L80.8675 342.035L77.7373 341.364Z" fill="#DC8929"/>
<path d="M61.2995 342.898C61.5993 342.148 60.3955 340.962 58.6106 340.248C56.8258 339.533 55.1359 339.561 54.8361 340.31C54.5363 341.06 55.7401 342.246 57.5249 342.96C59.3097 343.675 60.9997 343.647 61.2995 342.898Z" fill="#DC8929"/>
<path d="M79.4965 365.39C78.9664 364.782 79.7113 363.265 81.1605 362.001C82.6097 360.738 84.2144 360.207 84.7445 360.815C85.2746 361.423 84.5297 362.94 83.0805 364.204C81.6312 365.467 80.0266 365.998 79.4965 365.39Z" fill="#DC8929"/>
<path d="M192.67 378.988L187.432 357.768L177.724 360.165L180.565 371.676C181.889 377.038 187.309 380.312 192.67 378.988Z" fill="#D87355"/>
<path d="M181.051 373.515C181.027 373.515 181.002 373.509 180.98 373.496C180.915 373.456 180.894 373.372 180.933 373.307L182.343 370.973C182.383 370.908 182.467 370.887 182.532 370.926C182.597 370.965 182.617 371.05 182.578 371.114L181.168 373.449C181.142 373.492 181.097 373.515 181.051 373.515Z" fill="white"/>
<path d="M182.215 375.486C182.191 375.486 182.166 375.48 182.144 375.467C182.079 375.427 182.058 375.343 182.098 375.278L183.508 372.944C183.547 372.879 183.631 372.858 183.696 372.897C183.761 372.936 183.782 373.021 183.743 373.085L182.332 375.42C182.307 375.463 182.261 375.486 182.215 375.486Z" fill="white"/>
<path d="M156.288 373.735L172.559 370.034L169.637 356.755L153.222 360.368L156.288 373.735Z" fill="white"/>
<path d="M170.952 363.771C177.969 355.657 180.734 346.551 177.128 343.432C173.521 340.314 164.91 344.364 157.893 352.478C150.876 360.592 148.111 369.698 151.717 372.817C155.324 375.936 163.935 371.886 170.952 363.771Z" fill="white"/>
<path d="M170.079 368.731C170.079 368.731 186.086 352.783 184.993 341.243C184.175 332.613 173.903 326.121 173.903 326.121L150.303 354.518L170.079 368.731Z" fill="white"/>
<path d="M167.017 374.318L194.614 368.124L191.692 354.845L163.869 360.968L167.017 374.318Z" fill="white"/>
<path d="M180.806 361.227C186.084 351.887 186.997 342.414 182.846 340.069C178.696 337.723 171.052 343.392 165.774 352.732C160.496 362.071 159.582 371.544 163.733 373.89C167.884 376.236 175.528 370.566 180.806 361.227Z" fill="white"/>
<path d="M162.151 372.44C162.103 372.44 162.058 372.416 162.032 372.372C160.128 369.121 160.899 362.664 163.996 355.923C164.028 355.854 164.109 355.824 164.178 355.855C164.247 355.887 164.277 355.969 164.245 356.037C161.185 362.7 160.409 369.057 162.269 372.234C162.307 372.299 162.285 372.383 162.22 372.421C162.198 372.434 162.174 372.44 162.151 372.44Z" fill="#363E44"/>
<path d="M164.121 356.117C164.102 356.117 164.082 356.113 164.064 356.105C163.995 356.073 163.965 355.992 163.996 355.923C164.495 354.836 165.054 353.746 165.656 352.681C168.218 348.147 171.413 344.328 174.653 341.925C177.924 339.499 180.858 338.803 182.916 339.967C186.003 341.711 186.455 347.366 184.066 354.372C184.041 354.444 183.963 354.482 183.892 354.457C183.82 354.433 183.781 354.355 183.806 354.283C186.15 347.408 185.748 341.882 182.78 340.205C180.823 339.099 177.994 339.788 174.816 342.145C171.607 344.526 168.438 348.315 165.894 352.816C165.296 353.874 164.742 354.958 164.246 356.037C164.222 356.088 164.173 356.117 164.121 356.117Z" fill="#363E44"/>
<path d="M173.975 370.304C173.938 370.304 173.902 370.289 173.875 370.261C173.823 370.205 173.826 370.119 173.881 370.067C176.367 367.729 178.721 364.654 180.687 361.176C181.973 358.901 183.022 356.582 183.806 354.284C183.83 354.212 183.909 354.173 183.98 354.198C184.052 354.222 184.09 354.3 184.065 354.372C183.276 356.686 182.22 359.021 180.925 361.311C178.946 364.813 176.575 367.91 174.069 370.267C174.042 370.291 174.009 370.304 173.975 370.304Z" fill="#363E44"/>
<path d="M180.928 366.298C180.928 366.298 193.475 347.507 190.128 336.409C187.625 328.11 176.274 323.771 176.274 323.771L161.233 357.393L180.928 366.298Z" fill="white"/>
<path d="M205.365 373.953L200.127 352.733L190.418 355.13L193.26 366.641C194.584 372.003 200.003 375.277 205.365 373.953Z" fill="#D87355"/>
<path d="M193.746 368.481C193.721 368.481 193.697 368.474 193.675 368.461C193.61 368.422 193.589 368.337 193.628 368.272L195.038 365.938C195.077 365.873 195.162 365.852 195.227 365.891C195.292 365.93 195.312 366.015 195.273 366.08L193.863 368.414C193.837 368.457 193.792 368.481 193.746 368.481Z" fill="white"/>
<path d="M194.91 370.451C194.885 370.451 194.861 370.445 194.839 370.432C194.774 370.392 194.753 370.308 194.792 370.243L196.202 367.909C196.241 367.844 196.326 367.823 196.391 367.862C196.456 367.901 196.476 367.986 196.437 368.05L195.027 370.385C195.001 370.428 194.956 370.451 194.91 370.451Z" fill="white"/>
<path d="M128.851 344.669C116.692 346.352 110.01 347.462 107.34 347.798C107.06 347.834 106.567 347.898 105.927 347.805C103.556 347.459 102.973 345.504 100.646 344.003C98.0051 342.301 95.5541 342.837 95.4522 342.041C95.3813 341.487 96.2488 341.025 98.218 340.803C98.2182 340.803 98.2182 340.802 98.218 340.802C96.7026 340.799 94.6474 340.705 94.6516 339.868C94.7081 338.901 97.1356 338.728 98.6092 338.695C96.8254 338.735 95.8651 338.222 95.9838 337.756C96.1706 337.022 97.5466 336.669 99.906 336.707C99.9062 336.707 99.9062 336.707 99.906 336.707C98.2844 336.226 97.9628 335.867 98.1682 335.48C98.5432 334.774 100.483 334.843 102.187 335.166C104.107 335.53 105.469 336.478 106.314 337.096C106.314 337.096 106.315 337.096 106.315 337.096C114.708 335.035 124.391 333.756 124.391 333.756C126.323 332.111 136.877 323.023 137.739 323.112C142.192 323.578 143.913 332.3 144.264 334.546C144.463 335.825 128.851 344.669 128.851 344.669Z" fill="white"/>
<path d="M103.101 344.882C100.055 345.504 99.0885 346.374 99.2025 346.853C99.3942 347.66 102.212 348.193 106.778 347.845C105.828 346.928 104.052 345.799 103.101 344.882Z" fill="white"/>
<path d="M104.47 347.319C104.445 347.319 104.42 347.312 104.398 347.298C103.807 346.929 103.321 346.431 102.805 345.903C102.566 345.658 102.319 345.405 102.05 345.151C101.994 345.1 101.992 345.013 102.044 344.958C102.095 344.902 102.182 344.9 102.237 344.952C102.511 345.209 102.761 345.464 103.002 345.711C103.505 346.227 103.981 346.714 104.543 347.065C104.607 347.106 104.627 347.19 104.586 347.254C104.561 347.296 104.516 347.319 104.47 347.319Z" fill="#363E44"/>
<path d="M137.151 318.966L127.188 328.862L139.5 341.033L141.114 339.401C146.756 347.109 155.818 349.571 155.818 349.571L176.274 323.771C144.681 302.052 139.56 315.95 137.151 318.966Z" fill="#D87355"/>
<path d="M135.691 373.907C134.132 376.597 133 377.236 132.581 376.976C131.878 376.537 132.268 373.696 134.052 369.478C134.619 370.671 135.124 372.714 135.691 373.907Z" fill="white"/>
<path d="M144.472 350.087C139.009 361.078 135.443 366.536 134.275 368.96C134.153 369.214 133.935 369.661 133.819 370.298C133.392 372.655 135.06 373.831 135.743 376.514C136.517 379.56 135.228 381.712 135.95 382.062C136.453 382.306 137.167 381.63 138.005 379.834C138.005 379.834 138.005 379.834 138.005 379.834C137.526 381.272 136.961 383.25 137.756 383.513C138.691 383.767 139.627 381.521 140.127 380.134C139.522 381.812 139.702 382.886 140.182 382.922C140.937 382.978 141.71 381.786 142.424 379.537C142.365 381.228 142.602 381.647 143.034 381.575C143.823 381.444 144.375 379.584 144.611 377.865C144.877 375.929 144.412 374.336 144.095 373.339C144.095 373.338 144.095 373.338 144.095 373.338C148.719 366.036 156.614 353.607 156.614 353.607L158.44 339.288H145.659C145.659 339.288 144.472 350.087 144.472 350.087Z" fill="white"/>
<path d="M135.226 374.898C135.174 374.898 135.124 374.868 135.101 374.818C134.946 374.482 134.785 374.166 134.629 373.862C134.292 373.206 133.974 372.586 133.813 371.909C133.795 371.835 133.841 371.761 133.914 371.744C133.989 371.727 134.062 371.772 134.08 371.845C134.234 372.49 134.544 373.096 134.873 373.737C135.03 374.044 135.193 374.362 135.35 374.704C135.382 374.773 135.352 374.854 135.283 374.886C135.264 374.894 135.245 374.898 135.226 374.898Z" fill="#363E44"/>
<path d="M130.508 317.588C135.12 320.099 145.529 314.02 145.529 314.02L149.027 303.705C151.898 295.239 145.272 286.378 136.36 287.079C136.178 287.093 135.995 287.111 135.811 287.133C128.476 288.01 123.241 294.668 124.118 302.003C124.118 302.003 125.811 315.031 130.508 317.588Z" fill="white"/>
<path d="M148.035 321.282L147.887 321.38C145.461 322.986 142.184 322.221 140.72 319.707L131.409 303.717C130.026 301.342 130.792 298.297 133.134 296.858C135.539 295.381 138.687 296.157 140.131 298.582L149.59 314.474C150.971 316.794 150.287 319.791 148.035 321.282Z" fill="white"/>
<path d="M138.963 316.978C138.912 316.978 138.862 316.948 138.839 316.898C138.807 316.83 138.837 316.748 138.905 316.716C140.745 315.859 142.034 315.104 142.047 315.097C142.112 315.058 142.196 315.08 142.234 315.145C142.273 315.211 142.251 315.295 142.186 315.333C142.173 315.341 140.873 316.102 139.021 316.965C139.003 316.973 138.983 316.978 138.963 316.978Z" fill="#363E44"/>
<path d="M125.873 305.961C125.873 305.961 123.166 309.574 123.433 310.41C123.751 311.409 127.274 311.62 127.274 311.62C127.274 311.62 125.792 305.979 125.873 305.961Z" fill="white"/>
<path d="M137.317 303.543C137.317 303.543 135.213 302.717 132.83 303.002C132.323 303.062 133.765 307.005 134.219 306.718C136.214 305.455 137.317 303.543 137.317 303.543Z" fill="white"/>
<path d="M131.289 303.353C131.802 303.174 132.319 303.064 132.825 303.003C133.938 303.943 134.425 305.361 134.22 306.716C133.766 307.004 133.265 307.258 132.721 307.449C129.787 308.475 126.693 307.259 126.693 307.259C126.693 307.259 128.355 304.379 131.289 303.353Z" fill="black"/>
<path d="M130.17 313.463C129.95 313.463 129.729 313.414 129.523 313.314C129.455 313.281 129.427 313.199 129.46 313.131C129.493 313.063 129.575 313.034 129.643 313.067C130.068 313.274 130.575 313.213 130.935 312.913C131.282 312.624 131.438 312.151 131.331 311.709C131.313 311.635 131.358 311.561 131.432 311.544C131.504 311.526 131.58 311.571 131.597 311.645C131.729 312.188 131.538 312.768 131.111 313.124C130.843 313.347 130.508 313.463 130.17 313.463Z" fill="#363E44"/>
<path d="M146.156 304.078C146.773 301.843 145.722 299.602 143.809 299.073C141.895 298.545 139.843 299.929 139.225 302.164C138.608 304.4 139.659 306.641 141.573 307.17C143.487 307.698 145.539 306.314 146.156 304.078Z" fill="white"/>
<path d="M144.301 304.138C144.282 304.138 144.262 304.133 144.243 304.124C144.174 304.092 144.145 304.01 144.178 303.942C144.235 303.82 144.283 303.691 144.319 303.559C144.462 303.041 144.425 302.508 144.213 302.057C144.005 301.613 143.653 301.304 143.222 301.184C143.005 301.125 142.78 301.116 142.554 301.159C142.48 301.173 142.408 301.125 142.394 301.05C142.38 300.976 142.428 300.904 142.503 300.89C142.77 300.839 143.037 300.849 143.295 300.92C143.805 301.061 144.219 301.423 144.462 301.94C144.701 302.45 144.744 303.051 144.584 303.632C144.543 303.779 144.49 303.923 144.425 304.059C144.402 304.109 144.353 304.138 144.301 304.138Z" fill="#363E44"/>
<path d="M152.739 288.134C148.151 282.649 141.081 282.917 140.035 282.974C134.737 281.027 129.036 282.136 125.123 285.895C119.418 291.373 120.643 299.475 120.754 300.134C123.747 299.101 127.989 298.283 131.012 298.4L132.916 292.848L133.207 298.668C135.597 299.129 138.551 300.131 139.883 301.265C139.997 301.039 141.083 299.482 142.69 299.366C144.638 299.225 146.502 300.97 146.591 302.979C146.728 306.062 146.74 308.308 146.884 310.002C156.886 305.406 157.956 294.372 152.739 288.134Z" fill="black"/>
<path d="M164.236 288.893C165.132 285.097 162.782 281.294 158.986 280.398C155.191 279.501 151.387 281.852 150.491 285.647C149.595 289.443 151.945 293.247 155.741 294.143C159.536 295.039 163.34 292.689 164.236 288.893Z" fill="black"/>
<path d="M157.364 296.19C153.395 296.19 150.166 292.961 150.166 288.991C150.166 285.022 153.395 281.792 157.364 281.792C161.334 281.792 164.563 285.022 164.563 288.991C164.563 292.961 161.334 296.19 157.364 296.19ZM157.364 282.067C153.546 282.067 150.44 285.173 150.44 288.991C150.44 292.809 153.546 295.916 157.364 295.916C161.183 295.916 164.289 292.809 164.289 288.991C164.289 285.173 161.183 282.067 157.364 282.067Z" fill="black"/>
<path d="M159.352 294.699C155.383 294.699 152.154 291.47 152.154 287.5C152.154 283.531 155.383 280.301 159.352 280.301C163.322 280.301 166.552 283.531 166.552 287.5C166.552 291.47 163.322 294.699 159.352 294.699ZM159.352 280.576C155.534 280.576 152.428 283.682 152.428 287.5C152.428 291.319 155.534 294.425 159.352 294.425C163.171 294.425 166.277 291.319 166.277 287.5C166.277 283.682 163.171 280.576 159.352 280.576Z" fill="black"/>
<path d="M137.486 285.865C141.386 285.865 144.548 282.704 144.548 278.803C144.548 274.903 141.386 271.742 137.486 271.742C133.586 271.742 130.424 274.903 130.424 278.803C130.424 282.704 133.586 285.865 137.486 285.865Z" fill="black"/>
<path d="M135.995 286.003C132.026 286.003 128.796 282.773 128.796 278.804C128.796 274.834 132.026 271.605 135.995 271.605C139.965 271.605 143.194 274.834 143.194 278.804C143.194 282.773 139.965 286.003 135.995 286.003ZM135.995 271.879C132.177 271.879 129.07 274.985 129.07 278.803C129.07 282.622 132.177 285.728 135.995 285.728C139.813 285.728 142.92 282.622 142.92 278.803C142.92 274.985 139.813 271.879 135.995 271.879Z" fill="black"/>
<path d="M186.713 160.443H147.868V199.288H186.713V160.443Z" fill="#D87355"/>
<path d="M174.933 182.032C174.694 184.079 173.938 185.659 172.667 186.771C171.396 187.883 169.705 188.439 167.596 188.439C165.31 188.439 163.478 187.619 162.1 185.98C160.722 184.34 160.033 182.147 160.033 179.4V177.539C160.033 175.741 160.354 174.159 160.997 172.794C161.639 171.429 162.55 170.381 163.728 169.65C164.907 168.919 166.271 168.554 167.822 168.554C169.878 168.554 171.526 169.128 172.767 170.275C174.007 171.423 174.73 173.011 174.933 175.04H172.368C172.147 173.494 171.666 172.374 170.926 171.681C170.186 170.987 169.151 170.641 167.822 170.641C166.192 170.641 164.913 171.244 163.987 172.45C163.061 173.656 162.598 175.372 162.598 177.598V179.474C162.598 181.576 163.037 183.248 163.915 184.489C164.792 185.731 166.019 186.352 167.596 186.352C169.014 186.352 170.102 186.031 170.86 185.388C171.617 184.746 172.12 183.627 172.368 182.032L174.933 182.032Z" fill="white"/>
<path d="M156.224 144.11H117.379V182.955H156.224V144.11Z" fill="#E98029"/>
<path d="M130.209 171.839V152.486H136.536C138.636 152.486 140.216 152.921 141.275 153.789C142.333 154.657 142.863 155.942 142.863 157.644C142.863 158.547 142.606 159.347 142.092 160.043C141.578 160.738 140.878 161.277 139.992 161.658C141.037 161.95 141.864 162.507 142.471 163.326C143.078 164.146 143.381 165.123 143.381 166.257C143.381 167.994 142.818 169.358 141.693 170.351C140.568 171.343 138.977 171.839 136.921 171.839H130.209ZM132.761 160.741H136.616C137.732 160.741 138.625 160.461 139.294 159.902C139.963 159.342 140.297 158.583 140.297 157.624C140.297 156.558 139.987 155.783 139.367 155.299C138.747 154.816 137.803 154.573 136.536 154.573H132.761V160.741ZM132.761 162.788V169.753H136.974C138.162 169.753 139.099 169.445 139.786 168.829C140.472 168.213 140.816 167.365 140.816 166.283C140.816 163.953 139.549 162.788 137.014 162.788H132.761Z" fill="white"/>
<path d="M126.28 162.076H77.98V210.376H126.28V162.076Z" fill="white"/>
<path d="M107.22 190.259H97.1387L94.8744 196.556H91.6021L100.791 172.492H103.568L112.774 196.556H109.518L107.22 190.259ZM98.0972 187.664H106.278L102.18 176.409L98.0972 187.664Z" fill="#E6D0BE"/>
</g>
<defs>
<clipPath id="clip0_1_1553">
<rect x="20" y="134" width="252" height="258" rx="20" fill="white"/>
</clipPath>
</defs>
</svg>
