<svg width="94" height="120" viewBox="0 0 94 120" fill="none" xmlns="http://www.w3.org/2000/svg">
<g clip-path="url(#clip0_177_11075)">
<rect width="94" height="120" fill="#BE0054"/>
<g clip-path="url(#clip1_177_11075)">
<g clip-path="url(#clip2_177_11075)">
<path d="M47.1389 107.289C73.1708 107.289 94.2738 86.1824 94.2738 60.1463C94.2738 34.1103 73.1708 13.0039 47.1389 13.0039C21.1069 13.0039 0.00390625 34.1103 0.00390625 60.1463C0.00390625 86.1824 21.1069 107.289 47.1389 107.289Z" fill="#344E81"/>
<path d="M76.1068 23.6818H72.2715V28.6797H76.1068V23.6818Z" fill="white"/>
<path d="M71.8136 23.559C72.2919 23.3331 72.4629 22.6911 72.1956 22.1252C71.9283 21.5593 71.3238 21.2836 70.8455 21.5096C70.3672 21.7355 70.1962 22.3774 70.4635 22.9433C70.7308 23.5093 71.3353 23.7849 71.8136 23.559Z" fill="white"/>
<path d="M70.9485 22.8935C70.9323 22.8935 70.9163 22.8859 70.9063 22.8716C70.8824 22.8376 70.8612 22.8012 70.8433 22.7633C70.6955 22.4505 70.7935 22.0929 71.0617 21.966C71.1285 21.9344 71.2005 21.9199 71.2755 21.9209C71.3039 21.9216 71.3265 21.9452 71.3259 21.9736C71.3252 22.0017 71.3023 22.024 71.2744 22.024C71.274 22.024 71.2736 22.024 71.2732 22.024C71.213 22.0216 71.1579 22.0345 71.1058 22.0592C70.8889 22.1618 70.8129 22.4579 70.9365 22.7192C70.9519 22.7518 70.9701 22.7832 70.9906 22.8124C71.007 22.8357 71.0014 22.8678 70.9781 22.8842C70.9691 22.8905 70.9587 22.8935 70.9485 22.8935Z" fill="#363E44"/>
<path d="M77.8972 22.9424C78.1646 22.3764 77.9935 21.7345 77.5152 21.5086C77.0369 21.2827 76.4325 21.5583 76.1652 22.1242C75.8979 22.6902 76.0689 23.3321 76.5472 23.558C77.0255 23.7839 77.6299 23.5083 77.8972 22.9424Z" fill="white"/>
<path d="M77.4126 22.8932C77.4024 22.8932 77.3921 22.8901 77.383 22.8838C77.3598 22.8675 77.3541 22.8353 77.3705 22.812C77.391 22.7827 77.4092 22.7514 77.4246 22.7188C77.5482 22.4574 77.4722 22.1613 77.2553 22.0588C77.2031 22.0341 77.1467 22.0215 77.0878 22.0236C77.0874 22.0236 77.087 22.0236 77.0867 22.0236C77.0588 22.0236 77.0358 22.0013 77.0352 21.9732C77.0346 21.9447 77.0571 21.9212 77.0856 21.9205C77.1596 21.9194 77.2326 21.934 77.2994 21.9656C77.5676 22.0925 77.6656 22.4501 77.5178 22.7629C77.4999 22.8007 77.4787 22.8371 77.4548 22.8712C77.4448 22.8855 77.4289 22.8932 77.4126 22.8932Z" fill="#363E44"/>
<path d="M76.5211 22.3437C76.5211 23.8977 75.4449 25.537 74.1175 25.537C72.79 25.537 71.7139 23.8977 71.7139 22.3437C71.7139 20.7897 72.79 19.53 74.1175 19.53C75.4449 19.53 76.5211 20.7897 76.5211 22.3437Z" fill="white"/>
<path d="M74.1176 25.5881C73.6321 25.5881 73.155 25.3754 72.7379 24.973C72.7175 24.9533 72.7168 24.9206 72.7366 24.9002C72.7565 24.8798 72.789 24.8792 72.8095 24.8989C73.207 25.2823 73.6594 25.4851 74.1176 25.4851C74.6161 25.4851 75.1017 25.2487 75.5216 24.8017C75.5411 24.7809 75.5737 24.7799 75.5944 24.7994C75.6151 24.8189 75.6162 24.8515 75.5967 24.8722C75.1568 25.3406 74.6453 25.5881 74.1176 25.5881Z" fill="#363E44"/>
<path d="M74.1654 23.7311C74.1483 23.7311 74.1317 23.7226 74.1218 23.7072C74.1065 23.6832 74.1136 23.6513 74.1377 23.6361C74.2133 23.588 74.2588 23.5333 74.2731 23.4734C74.2877 23.4115 74.2644 23.3584 74.232 23.285C74.2053 23.2245 74.1751 23.156 74.1572 23.0641C74.1345 22.9472 74.1387 22.8234 74.1699 22.696C74.1767 22.6684 74.2049 22.6515 74.2323 22.6582C74.2599 22.665 74.2768 22.6929 74.27 22.7205C74.2423 22.8333 74.2384 22.9423 74.2583 23.0444C74.274 23.1249 74.3018 23.1879 74.3262 23.2434C74.3621 23.3248 74.396 23.4016 74.3732 23.4972C74.3526 23.5842 74.2919 23.6601 74.1929 23.7231C74.1844 23.7285 74.1749 23.7311 74.1654 23.7311Z" fill="#363E44"/>
<path d="M73.9363 24.274C73.817 24.274 73.7049 24.2209 73.6385 24.1291C73.5782 24.0459 73.5588 23.9366 73.5854 23.8289C73.5922 23.8013 73.6202 23.7842 73.6477 23.7913C73.6753 23.7981 73.6922 23.826 73.6854 23.8536C73.6661 23.9317 73.6795 24.0101 73.7219 24.0687C73.7784 24.1466 73.8828 24.1853 73.9886 24.1664C74.0165 24.1616 74.0433 24.1803 74.0483 24.2083C74.0532 24.2363 74.0344 24.2631 74.0064 24.2679C73.9829 24.272 73.9595 24.274 73.9363 24.274Z" fill="#363E44"/>
<path d="M72.8221 22.9061C72.3232 22.9061 71.9286 22.4599 71.9121 22.441C71.8934 22.4195 71.8956 22.387 71.9171 22.3683C71.9384 22.3496 71.971 22.3518 71.9897 22.3733C71.9935 22.3775 72.3707 22.8031 72.8221 22.8031C73.2735 22.8031 73.6507 22.3775 73.6544 22.3733C73.6731 22.3518 73.7057 22.3496 73.7271 22.3683C73.7485 22.387 73.7507 22.4195 73.7321 22.441C73.7155 22.4599 73.3209 22.9061 72.8221 22.9061Z" fill="#363E44"/>
<path d="M75.4514 22.9061C74.9526 22.9061 74.558 22.4599 74.5415 22.441C74.5228 22.4195 74.525 22.387 74.5465 22.3683C74.5678 22.3496 74.6004 22.3518 74.6191 22.3733C74.6229 22.3775 75.0001 22.8031 75.4514 22.8031C75.9029 22.8031 76.2801 22.3775 76.2838 22.3733C76.3025 22.3518 76.3351 22.3496 76.3565 22.3683C76.3779 22.387 76.3801 22.4195 76.3615 22.441C76.3449 22.4599 75.9503 22.9061 75.4514 22.9061Z" fill="#363E44"/>
<path d="M74.0648 18.6881C75.2618 18.6859 76.2304 17.7135 76.2281 16.5162C76.2258 15.319 75.2536 14.3503 74.0566 14.3526C72.8595 14.3548 71.891 15.3272 71.8933 16.5245C71.8956 17.7217 72.8678 18.6904 74.0648 18.6881Z" fill="black"/>
<path d="M74.6477 18.7416C73.4241 18.7416 72.4287 17.746 72.4287 16.5223C72.4287 15.2987 73.4241 14.3031 74.6477 14.3031C75.8711 14.3031 76.8665 15.2987 76.8665 16.5223C76.8666 17.746 75.8712 18.7416 74.6477 18.7416ZM74.6477 14.4061C73.4809 14.4061 72.5318 15.3554 72.5318 16.5223C72.5318 17.6892 73.4809 18.6385 74.6477 18.6385C75.8144 18.6385 76.7635 17.6892 76.7635 16.5223C76.7635 15.3554 75.8144 14.4061 74.6477 14.4061Z" fill="#BD0054"/>
<path d="M74.4128 18.1535C73.1892 18.1535 72.1938 17.1579 72.1938 15.9342C72.1938 14.7105 73.1892 13.7149 74.4128 13.7149C75.6363 13.7149 76.6317 14.7105 76.6317 15.9342C76.6317 17.1579 75.6363 18.1535 74.4128 18.1535ZM74.4128 13.8179C73.246 13.8179 72.2969 14.7673 72.2969 15.9342C72.2969 17.1011 73.2461 18.0504 74.4128 18.0504C75.5795 18.0504 76.5286 17.1011 76.5286 15.9342C76.5286 14.7673 75.5795 13.8179 74.4128 13.8179Z" fill="#BD0054"/>
<path d="M74.0999 19.832C74.5651 20.0911 75.1773 20.5356 75.6128 21.2685C76.4801 22.7284 75.9206 24.8371 75.1723 26.4206C75.6619 25.8672 76.5805 24.6626 76.8192 22.9156C76.9087 22.2614 76.9517 21.9402 76.8887 21.4711C76.9169 21.3934 77.4765 20.1001 76.5211 19.0007C75.8213 18.1954 74.9317 18.2691 73.9977 18.6119C73.62 18.4331 72.6896 18.2138 71.9528 18.7403C71.2201 19.2638 70.8828 20.215 71.2742 21.4326C71.209 22.0021 71.0381 22.7849 71.3998 23.9562C71.7593 25.1203 72.7266 25.9871 73.0999 26.4206C72.2713 24.4213 71.615 22.8541 72.5105 21.3067C73.0198 20.4266 73.6235 20.0006 74.0999 19.832Z" fill="black"/>
<path d="M76.8886 21.5227C76.8645 21.5227 76.8429 21.5057 76.8381 21.4811C76.8342 21.4609 76.8313 21.4301 76.8273 21.3874C76.7998 21.0945 76.716 20.2033 75.9024 19.6316C75.1919 19.1325 74.5317 19.4142 74.2497 19.5345C74.1928 19.5587 74.1552 19.5748 74.1277 19.5803C74.116 19.5826 74.1039 19.5809 74.0933 19.5752C74.0873 19.572 74.0781 19.5668 74.066 19.5597C73.4284 19.1917 72.8058 19.119 72.3129 19.355C71.6571 19.6689 71.2419 20.5407 71.3255 21.4279C71.3282 21.4562 71.3074 21.4813 71.2791 21.484C71.2501 21.4873 71.2257 21.4658 71.223 21.4375C71.1354 20.509 71.5751 19.594 72.2685 19.262C72.7931 19.0111 73.4497 19.0849 74.1175 19.4704C74.1199 19.4718 74.1221 19.4731 74.1243 19.4743C74.1447 19.4672 74.1752 19.4542 74.2093 19.4396C74.4814 19.3235 75.2043 19.015 75.9617 19.5473C76.8142 20.1463 76.9013 21.0731 76.93 21.3777C76.9335 21.4158 76.9364 21.446 76.9394 21.4611C76.9448 21.4891 76.9267 21.5161 76.8988 21.5217C76.8952 21.5224 76.8919 21.5227 76.8886 21.5227Z" fill="#BD0054"/>
<path d="M67.2208 40.2701C67.4842 40.8303 67.9551 41.6617 68.7694 42.4591C69.4045 43.081 70.8936 44.5391 72.956 44.4618C74.8718 44.39 76.1777 43.0348 76.9185 42.2661C77.6228 41.5353 78.0624 40.8004 78.3294 40.2701C78.5845 40.4559 78.5974 40.8486 78.8916 41.1496C79.2049 41.47 79.3071 41.8184 79.4929 42.0917C78.5632 43.1493 77.7871 44.4613 76.6269 46.4037C74.3645 50.1914 74.105 52.5139 73.0086 52.5473C71.9182 52.5804 71.4374 50.3056 68.8301 46.0396C67.7692 44.3039 66.7685 42.9128 66.0107 41.9197C66.1367 41.6768 66.2953 41.4076 66.4949 41.1269C66.7413 40.7807 66.9931 40.497 67.2208 40.2701Z" fill="#0E0600"/>
<path d="M80.1521 35.8483L78.3295 40.2712C78.3295 40.2712 85.6381 47.0097 82.8135 60.4383H73.9061L73.1002 51.7842L69.8298 60.4383H60.1053C60.1053 60.4383 62.1316 46.2712 67.2209 40.2712L66.6272 36.0409C66.6272 36.0409 65.8898 35.6795 65.7637 35.5139C64.8637 33.977 65.9538 31.5591 65.9538 31.5591C65.9538 31.5591 54.809 24.7418 57.9378 21.9755C59.9496 20.1968 70.6616 26.9617 70.6616 26.9617L75.129 27.3956C75.129 27.3956 78.579 28.3304 82.3413 29.8091L80.1521 35.8483Z" fill="white"/>
<path d="M75.7642 38.2016C75.3915 38.2016 75.0129 38.1433 74.6385 38.0226C73.5027 37.6564 72.7939 36.4915 72.5887 34.6539C72.584 34.6116 72.5795 34.5716 72.5773 34.5626C72.5703 34.5351 72.587 34.507 72.6147 34.5001C72.6419 34.4933 72.6703 34.5099 72.6772 34.5376C72.681 34.5526 72.6842 34.5806 72.6911 34.6425C72.8915 36.4368 73.5759 37.5717 74.6701 37.9245C76.2842 38.4448 77.9798 37.771 78.8892 36.2476C78.9037 36.2232 78.9354 36.2152 78.9599 36.2298C78.9843 36.2444 78.9923 36.276 78.9777 36.3004C78.2539 37.5131 77.0445 38.2016 75.7642 38.2016Z" fill="#363E44"/>
<path d="M70.4818 36.5123C70.4658 36.5123 70.4501 36.5049 70.44 36.491C70.4233 36.468 70.4284 36.4358 70.4515 36.4191C70.9129 36.0842 71.9637 34.8595 72.1371 34.3962C72.1471 34.3695 72.1768 34.3561 72.2034 34.366C72.2301 34.3759 72.2436 34.4056 72.2336 34.4323C72.0394 34.951 70.9526 36.1828 70.512 36.5025C70.5028 36.5091 70.4922 36.5123 70.4818 36.5123Z" fill="#363E44"/>
<path d="M72.1536 40.9546C72.1276 40.9546 72.1053 40.935 72.1024 40.9086C72.0993 40.8803 72.1198 40.8549 72.1482 40.8518C72.218 40.8444 72.2707 40.7836 72.2681 40.7134C72.2655 40.6437 72.2088 40.5869 72.1389 40.5842C72.1105 40.5831 72.0883 40.5592 72.0894 40.5308C72.0905 40.5024 72.114 40.4787 72.1428 40.4813C72.2663 40.486 72.3666 40.5863 72.3711 40.7097C72.3757 40.8335 72.2826 40.9411 72.1592 40.9543C72.1572 40.9545 72.1554 40.9546 72.1536 40.9546Z" fill="#363E44"/>
<path d="M63.1005 24.9026C63.1006 24.9026 63.1007 24.9027 63.1008 24.9027C67.2717 23.1333 70.2648 21.9579 71.1746 21.5588C71.2699 21.517 71.4384 21.444 71.6235 21.2933C72.3093 20.7349 72.1241 20.0047 72.5773 19.0884C73.0916 18.0487 73.7297 17.8587 73.6113 17.5871C73.529 17.3983 73.4065 17.3118 72.7405 17.6143L72.7404 17.6142C73.22 17.3262 73.67 16.9212 73.5101 16.6566C73.3092 16.3609 72.6906 16.7518 72.2174 17.0204C72.7901 16.6953 73.2008 16.3334 73.0568 16.0834C72.9172 15.8411 72.1322 16.077 71.4302 16.6362L71.4302 16.6361C71.8528 16.1763 71.8868 16.0018 71.7485 15.9181C71.4959 15.7654 70.8944 16.1543 70.4154 16.5796C69.8761 17.0584 69.6239 17.6169 69.4733 17.9728C69.4732 17.9729 69.4732 17.9729 69.473 17.973C66.4233 18.9093 60.0535 20.5033 57.9376 21.9746C57.3313 22.3962 60.6925 24.2897 63.1005 24.9026Z" fill="white"/>
<path d="M68.8516 18.2513C68.9945 17.1125 69.1247 16.3157 69.3972 16.2691C69.9363 16.1771 70.1728 17.3124 70.1735 19.0031C69.809 18.6792 69.216 18.5753 68.8516 18.2513Z" fill="white"/>
<path d="M69.4729 18.0242C69.4444 18.0242 69.4214 18.0011 69.4214 17.9726C69.4214 17.9638 69.4236 17.9555 69.4275 17.9483C69.5562 17.644 69.7127 17.3132 69.9747 16.9755C69.9922 16.9531 70.0245 16.949 70.047 16.9664C70.0695 16.9839 70.0736 17.0162 70.0561 17.0387C69.8011 17.3674 69.648 17.6914 69.5205 17.9925C69.5125 18.0116 69.4936 18.0242 69.4729 18.0242Z" fill="#363E44"/>
<path d="M72.0627 18.4602C72.0544 18.4602 72.0459 18.4582 72.0381 18.4539C72.0131 18.4403 72.0039 18.409 72.0175 18.384C72.086 18.2586 72.1664 18.1391 72.2565 18.0287C72.3871 17.8686 72.5392 17.7262 72.7085 17.6055C72.7316 17.5891 72.7637 17.5943 72.7803 17.6176C72.7968 17.6407 72.7915 17.6729 72.7683 17.6894C72.6065 17.8047 72.4612 17.9408 72.3363 18.0938C72.2502 18.1993 72.1735 18.3136 72.108 18.4334C72.0986 18.4505 72.081 18.4602 72.0627 18.4602Z" fill="#363E44"/>
<path d="M71.615 17.8273C71.6066 17.8273 71.5982 17.8252 71.5903 17.821C71.5654 17.8073 71.5561 17.776 71.5698 17.7511C71.6382 17.6257 71.7186 17.5062 71.8087 17.3958C71.9394 17.2356 72.0915 17.0932 72.2607 16.9726C72.2838 16.9561 72.316 16.9614 72.3326 16.9846C72.3491 17.0078 72.3437 17.04 72.3205 17.0565C72.1587 17.1718 72.0134 17.3079 71.8885 17.4609C71.8025 17.5664 71.7257 17.6807 71.6603 17.8005C71.6509 17.8176 71.6333 17.8273 71.615 17.8273Z" fill="#363E44"/>
<path d="M70.7449 17.463C70.7365 17.463 70.7281 17.461 70.7202 17.4567C70.6952 17.4431 70.686 17.4118 70.6997 17.3868C70.7682 17.2613 70.8486 17.1418 70.9386 17.0315C71.0692 16.8714 71.2213 16.729 71.3905 16.6083C71.4137 16.5919 71.4458 16.5971 71.4624 16.6204C71.4789 16.6435 71.4735 16.6757 71.4503 16.6922C71.2886 16.8075 71.1433 16.9436 71.0184 17.0966C70.9324 17.202 70.8556 17.3162 70.7901 17.4362C70.7808 17.4533 70.7631 17.463 70.7449 17.463Z" fill="#363E44"/>
<path d="M63.1009 24.9539C63.0808 24.9539 63.0618 24.9421 63.0534 24.9225C63.0423 24.8963 63.0545 24.8661 63.0807 24.855C64.0928 24.4257 65.1068 24.001 66.1807 23.5566C66.2071 23.5458 66.2371 23.5582 66.248 23.5845C66.2589 23.6108 66.2464 23.641 66.2201 23.6519C65.1465 24.0961 64.1328 24.5207 63.121 24.9499C63.1144 24.9526 63.1076 24.9539 63.1009 24.9539Z" fill="#363E44"/>
<path d="M78.3291 40.2502C78.3291 40.2502 81.1519 42.6205 83.2557 49.242C85.8249 57.3278 87.6035 71.2265 85.3768 88.3136H56.0396C56.0396 88.3136 57.9853 74.0424 58.7146 68.7383C59.8595 60.4115 61.9747 48.6161 65.2847 42.9829C66.9419 40.1627 67.4616 39.9071 67.4616 39.9071L78.3291 40.2502Z" fill="#EFBC73"/>
<path d="M69.7439 26.3378L65.9532 31.5587C65.9532 31.5587 63.8265 31.4861 63.5237 30.1429C63.2208 28.7996 66.6825 24.3763 66.6825 24.3763C66.6825 24.3763 69.4542 24.4429 69.7439 26.3378Z" fill="#BD0054"/>
<path d="M65.9532 31.5588C65.9532 31.5588 67.4941 33.8669 70.0152 34.9105C72.2711 35.8443 75.6049 36.0584 78.329 35.759C79.4279 35.6382 79.8604 35.3038 79.8604 35.3038C79.8604 35.3038 80.0888 35.8998 80.037 36.1259L78.329 40.2708L71.9299 45.761L67.2203 40.2708L66.6267 36.0405C66.6267 36.0405 65.4112 35.6471 65.2434 34.5059C65.1232 33.688 65.3139 32.4392 65.9532 31.5588Z" fill="#BD0054"/>
<path d="M82.6767 82.9981C80.5368 82.9982 79.5361 81.0688 79.3144 80.5733C79.2189 80.7832 78.9757 81.2494 78.5196 81.7207C77.9635 82.2955 76.9742 82.9806 75.4192 82.9806C73.581 82.9805 72.2636 80.9821 71.9785 80.5106C71.8997 80.7222 71.6854 81.2092 71.2394 81.7016C70.7037 82.293 69.7193 82.9981 68.0719 82.9981C65.9134 82.9981 64.7967 80.8837 64.5583 80.3723C64.4559 80.5996 64.1834 81.1411 63.7048 81.6674C63.127 82.3026 62.1224 83.0467 60.6172 82.9835C58.093 82.878 57.1176 80.2869 57.1081 80.2608C57.0984 80.234 57.1121 80.2045 57.1388 80.1947C57.1655 80.185 57.1952 80.1987 57.2049 80.2254C57.2143 80.2509 58.167 82.7779 60.6215 82.8806C63.4271 82.9982 64.4987 80.2526 64.5091 80.2249C64.5166 80.205 64.5356 80.1918 64.5569 80.1916C64.557 80.1916 64.5572 80.1916 64.5573 80.1916C64.5784 80.1916 64.5974 80.2044 64.6052 80.224C64.6159 80.2508 65.6994 82.8951 68.0719 82.8951C69.6792 82.8951 70.6384 82.2103 71.16 81.636C71.7263 81.0123 71.9149 80.3795 71.9168 80.3731C71.9225 80.3531 71.9399 80.3385 71.9607 80.3363C71.9817 80.3339 72.0015 80.3445 72.0115 80.3629C72.0252 80.388 73.4073 82.8776 75.4193 82.8776C76.9362 82.8776 77.9007 82.2113 78.4427 81.6524C79.0315 81.0451 79.264 80.4291 79.2663 80.423C79.2738 80.4027 79.2931 80.3893 79.3146 80.3893C79.3362 80.3893 79.3554 80.4028 79.3629 80.4229C79.3722 80.4477 80.3069 82.8951 82.6769 82.8951C82.6789 82.8951 82.6806 82.8951 82.6827 82.8951C85.064 82.8911 86.0182 80.496 86.0276 80.4718C86.0378 80.4452 86.0678 80.4321 86.0942 80.4423C86.1208 80.4526 86.1339 80.4823 86.1237 80.5089C86.114 80.5338 85.1356 82.994 82.6829 82.9982C82.6807 82.9981 82.6787 82.9981 82.6767 82.9981Z" fill="#BD0054"/>
<path d="M82.3162 87.5244C80.1678 87.5245 79.1635 85.5939 78.9414 85.0993C78.8458 85.309 78.6016 85.7754 78.1435 86.2471C77.5854 86.8218 76.5925 87.5069 75.0318 87.5069C73.1864 87.5069 71.8638 85.5072 71.5783 85.0367C71.4993 85.248 71.2843 85.7353 70.8364 86.228C70.2987 86.8194 69.3107 87.5244 67.6572 87.5244C65.4903 87.5244 64.3694 85.4088 64.1306 84.8983C64.0281 85.1253 63.7544 85.6671 63.2737 86.1937C62.694 86.8289 61.6879 87.5726 60.1749 87.5099C57.6415 87.4043 56.6626 84.8133 56.6531 84.7872C56.6433 84.7605 56.6569 84.7309 56.6837 84.7211C56.7105 84.7113 56.74 84.725 56.7498 84.7517C56.7592 84.7772 57.7154 87.3042 60.1792 87.4069C62.9948 87.5245 64.0709 84.7789 64.0815 84.7512C64.089 84.7313 64.108 84.7181 64.1292 84.7179C64.1516 84.719 64.1696 84.7306 64.1775 84.7503C64.1882 84.777 65.2758 87.4213 67.6573 87.4213C69.2731 87.4213 70.2365 86.7347 70.7602 86.1586C71.3272 85.5349 71.5147 84.9057 71.5166 84.8994C71.5224 84.8794 71.5397 84.8648 71.5605 84.8626C71.5811 84.8604 71.6012 84.8707 71.6112 84.8891C71.625 84.9142 73.0123 87.4039 75.032 87.4039C77.9488 87.4039 78.8843 84.9738 78.8934 84.9492C78.9009 84.929 78.9202 84.9156 78.9417 84.9156C78.9632 84.9156 78.9825 84.929 78.99 84.9491C78.9993 84.9739 79.9375 87.4213 82.3164 87.4213C82.3185 87.4213 82.3202 87.4213 82.3222 87.4213C84.7125 87.4174 85.6704 85.0221 85.6798 84.998C85.6901 84.9714 85.72 84.9581 85.7464 84.9686C85.773 84.9789 85.7862 85.0087 85.7759 85.0352C85.7662 85.0601 84.784 87.5203 82.3224 87.5244C82.3202 87.5244 82.3182 87.5244 82.3162 87.5244Z" fill="#BD0054"/>
<path d="M82.9866 78.286C80.8769 78.2861 79.8893 76.3607 79.6693 75.8626C79.5746 76.0733 79.3347 76.5382 78.8859 77.0084C78.3371 77.5832 77.3608 78.2685 75.8262 78.2685C74.014 78.2685 72.7148 76.274 72.4317 75.7999C72.3534 76.0121 72.1422 76.498 71.7031 76.9892C71.1745 77.5808 70.203 78.286 68.5772 78.286C66.4493 78.286 65.3474 76.1758 65.1106 75.6616C65.009 75.8899 64.7403 76.4299 64.2692 76.955C63.6991 77.5903 62.7062 78.3347 61.2222 78.2715C58.7311 78.1659 57.7689 75.5747 57.7594 75.5485C57.7497 75.5217 57.7637 75.4922 57.7904 75.4826C57.8171 75.4729 57.8468 75.4868 57.8563 75.5136C57.8656 75.5391 58.8054 78.0659 61.2265 78.1685C63.9961 78.2859 65.051 75.5408 65.0614 75.513C65.0688 75.4931 65.0878 75.4798 65.1092 75.4796C65.1093 75.4796 65.1095 75.4796 65.1096 75.4796C65.1308 75.4796 65.1498 75.4925 65.1576 75.5122C65.1681 75.539 66.2371 78.183 68.5772 78.183C70.165 78.183 71.1117 77.4965 71.6263 76.9207C72.1837 76.297 72.368 75.6676 72.3698 75.6613C72.3756 75.6411 72.393 75.6265 72.4138 75.6242C72.4352 75.6217 72.4548 75.6326 72.4647 75.6511C72.4783 75.6762 73.8418 78.1655 75.8262 78.1655C77.3224 78.1655 78.2737 77.4993 78.8083 76.9405C79.3892 76.3332 79.6187 75.7173 79.6209 75.7112C79.6284 75.6908 79.6477 75.6773 79.6693 75.6773C79.6909 75.6773 79.7102 75.6909 79.7176 75.7112C79.7267 75.7358 80.6489 78.1831 82.9865 78.1831C82.9885 78.1831 82.9902 78.1831 82.9922 78.1831C85.3409 78.1791 86.2824 75.7842 86.2916 75.76C86.3018 75.7334 86.3317 75.7204 86.3581 75.7302C86.3847 75.7404 86.398 75.7701 86.3879 75.7967C86.3784 75.8216 85.4129 78.282 82.9924 78.2862C82.9906 78.286 82.9885 78.286 82.9866 78.286Z" fill="#BD0054"/>
<path d="M82.3411 29.8076C86.9318 31.6119 91.9153 34.2259 90.7604 36.9391C89.3516 40.2488 80.1519 35.8467 80.1519 35.8467L82.3411 29.8076Z" fill="white"/>
<path d="M90.482 37.3915C87.1958 40.8333 84.0739 43.7869 83.3441 44.5328C83.2677 44.6109 83.1334 44.7493 82.9166 44.8753C82.1135 45.342 81.465 44.8889 80.3966 44.9942C79.1844 45.1137 78.7609 45.6702 78.5381 45.4531C78.3831 45.3021 78.3437 45.1496 78.888 44.6074L78.8879 44.6073C78.427 44.9717 77.8621 45.2635 77.6616 45.0081C77.4457 44.7009 78.0593 44.2382 78.4987 43.8729C77.9668 44.315 77.4589 44.5843 77.2667 44.3499C77.0804 44.1228 77.6036 43.439 78.4135 42.9568V42.9567C77.8049 43.2013 77.6209 43.1699 77.59 43.003C77.5338 42.6982 78.139 42.2515 78.7347 41.9386C79.4052 41.5863 80.0474 41.5458 80.4529 41.5299C80.453 41.5299 80.4531 41.5299 80.4532 41.5298C82.5049 38.8805 85.159 35.2965 87.025 33.3357C88.2787 32.0184 90.4821 37.3914 90.482 37.3915Z" fill="white"/>
<path d="M79.4197 45.2679C79.3988 45.2679 79.379 45.255 79.3714 45.2342C79.3615 45.2075 79.3752 45.1779 79.4019 45.168C79.7196 45.0507 80.0434 44.9769 80.3916 44.9427C80.8187 44.9005 81.1842 44.9471 81.5066 44.9881C81.6379 45.0048 81.7619 45.0206 81.8839 45.03C81.9123 45.0322 81.9335 45.057 81.9313 45.0854C81.9291 45.1137 81.9045 45.135 81.876 45.1328C81.7514 45.1231 81.6262 45.1072 81.4936 45.0903C81.1765 45.0499 80.8172 45.0041 80.4017 45.0452C80.0624 45.0786 79.747 45.1504 79.4376 45.2647C79.4317 45.2669 79.4257 45.2679 79.4197 45.2679Z" fill="#363E44"/>
<path d="M83.7341 37.3211C83.723 37.3211 83.7118 37.3176 83.7024 37.3102C83.68 37.2926 83.676 37.2603 83.6935 37.2379C85.1199 35.4141 86.1666 34.1628 86.9875 33.3002C87.0072 33.2796 87.0399 33.2789 87.0604 33.2984C87.081 33.318 87.0818 33.3506 87.0622 33.3712C86.2436 34.2314 85.199 35.4802 83.7747 37.3014C83.7645 37.3143 83.7494 37.3211 83.7341 37.3211Z" fill="#363E44"/>
<path d="M80.957 41.022C79.7853 40.7398 78.9541 40.5719 78.8073 40.8224C78.5168 41.318 79.5443 41.9718 81.2049 42.6001C81.022 42.1217 81.14 41.5004 80.957 41.022Z" fill="white"/>
<path d="M79.3035 41.7563C79.2814 41.7563 79.2611 41.7422 79.2542 41.72C79.2459 41.6928 79.2611 41.664 79.2883 41.6556C79.7159 41.5238 80.0981 41.4927 80.4475 41.4788C80.4625 41.4769 80.4782 41.482 80.4897 41.4936C80.5099 41.5137 80.5099 41.5463 80.4897 41.5664C80.48 41.5761 80.4667 41.5817 80.453 41.5817C80.1116 41.5951 79.7363 41.6254 79.3186 41.7541C79.3136 41.7557 79.3085 41.7563 79.3035 41.7563Z" fill="#363E44"/>
<path d="M78.9217 44.6687C78.9051 44.6687 78.8888 44.6608 78.8788 44.6459C78.863 44.6223 78.8693 44.5903 78.893 44.5744C79.0741 44.453 79.2701 44.3566 79.4758 44.2877C79.6173 44.2402 79.7644 44.2057 79.913 44.185C79.9406 44.1807 79.9672 44.2007 79.9711 44.2289C79.9751 44.2571 79.9554 44.2831 79.9272 44.287C79.7848 44.3069 79.644 44.34 79.5085 44.3854C79.3116 44.4514 79.1238 44.5438 78.9503 44.6601C78.9415 44.6659 78.9316 44.6687 78.9217 44.6687Z" fill="#363E44"/>
<path d="M78.4656 43.9946C78.4491 43.9946 78.4327 43.9867 78.4228 43.9718C78.407 43.9482 78.4133 43.9162 78.4369 43.9003C78.6181 43.7789 78.8141 43.6825 79.0198 43.6136C79.1612 43.5661 79.3084 43.5316 79.457 43.5109C79.4843 43.5065 79.5112 43.5266 79.5151 43.5548C79.519 43.583 79.4994 43.609 79.4711 43.6129C79.3288 43.6328 79.1879 43.6659 79.0525 43.7113C78.8556 43.7773 78.6678 43.8697 78.4942 43.986C78.4855 43.9918 78.4755 43.9946 78.4656 43.9946Z" fill="#363E44"/>
<path d="M78.4315 43.004C78.4149 43.004 78.3985 42.996 78.3886 42.9812C78.3728 42.9576 78.3791 42.9256 78.4027 42.9097C78.584 42.7883 78.78 42.6918 78.9856 42.6229C79.1275 42.5754 79.2746 42.5408 79.4228 42.5202C79.4509 42.5162 79.477 42.536 79.4809 42.5642C79.4848 42.5924 79.4652 42.6184 79.437 42.6223C79.295 42.6421 79.1542 42.6751 79.0183 42.7207C78.8215 42.7866 78.6337 42.879 78.4601 42.9954C78.4513 43.0012 78.4413 43.004 78.4315 43.004Z" fill="#363E44"/>
<path d="M85.3794 31.0575L82.509 36.836C82.509 36.836 80.3998 37.1179 79.878 35.8437C79.3561 34.5695 82.0346 29.6323 82.0346 29.6323C82.0346 29.6323 84.7787 29.2371 85.3794 31.0575Z" fill="#BD0054"/>
<path d="M72.2712 28.3911C72.2428 28.3911 72.2197 28.3681 72.2197 28.3396V27.1171C72.2197 27.0886 72.2428 27.0656 72.2712 27.0656C72.2997 27.0656 72.3228 27.0886 72.3228 27.1171V28.3396C72.3228 28.3681 72.2997 28.3911 72.2712 28.3911Z" fill="#363E44"/>
<path d="M76.1067 28.7338C76.0782 28.7338 76.0552 28.7108 76.0552 28.6823V27.6649C76.0552 27.6364 76.0782 27.6134 76.1067 27.6134C76.1352 27.6134 76.1582 27.6364 76.1582 27.6649V28.6823C76.1582 28.7108 76.1352 28.7338 76.1067 28.7338Z" fill="#363E44"/>
<path d="M92.6838 93.5544H52.2136C52.1851 93.5544 52.1621 93.5314 52.1621 93.5029V88.3115C52.1621 88.283 52.1851 88.2599 52.2136 88.2599H92.6838C92.7123 88.2599 92.7354 88.283 92.7354 88.3115V93.5029C92.7354 93.5314 92.7123 93.5544 92.6838 93.5544ZM52.2652 93.4514H92.6323V88.363H52.2652V93.4514Z" fill="#363E44"/>
<path d="M94.3206 98.7475H45.2214C45.193 98.7475 45.1699 98.7245 45.1699 98.696V93.5045C45.1699 93.476 45.193 93.453 45.2214 93.453H94.3206C94.3491 93.453 94.3721 93.476 94.3721 93.5045V98.696C94.3721 98.7245 94.3491 98.7475 94.3206 98.7475ZM45.273 98.6444H94.2691V93.556H45.273V98.6444Z" fill="#363E44"/>
<path d="M24.0086 91.679C24.0086 91.679 21.7033 98.753 19.1804 99.1989C14.4517 100.034 6.63867 90.5229 6.63867 90.5229L9.40106 83.8194L15.9402 88.4786L18.021 81.3463L24.0086 91.679Z" fill="white"/>
<path d="M0.166992 98.6216L2.29963 83.2644L9.45998 83.8054L7.36196 91.6783L6.02275 95.3207C4.9801 97.6679 2.58352 99.0188 0.166992 98.6216Z" fill="#0E0600"/>
<path d="M42.6326 79.7692C42.6326 79.7692 48.7864 80.4916 49.5675 82.932C51.0316 87.5059 40.4497 97.5978 40.4497 97.5978L35.3916 93.6219L38.8601 88.4253L33.2012 87.0936L42.6326 79.7692Z" fill="white"/>
<path d="M38.8718 88.4367C38.8627 88.4367 38.8535 88.4342 38.8451 88.4292C38.8208 88.4144 38.813 88.3828 38.8278 88.3584L39.6557 86.9932C39.6705 86.9688 39.7022 86.9612 39.7265 86.9758C39.7509 86.9906 39.7586 87.0222 39.7439 87.0466L38.9159 88.4118C38.9063 88.4279 38.8892 88.4367 38.8718 88.4367Z" fill="black"/>
<path d="M51.7969 99.9245H31.3896L35.7358 93.0059L43.8358 93.8752L47.6396 94.6417C50.1183 95.3132 51.8197 97.4753 51.7969 99.9245Z" fill="#0E0600"/>
<path d="M20.5904 73.7581L19.0014 77.3915C19.0014 77.3915 15.9123 79.548 14.7899 81.6328C12.7829 85.3607 13.5332 88.5778 13.5332 88.5778L12.5483 90.142L23.8131 92.4057L24.2102 91.6226C24.2102 91.6226 26.5294 91.2618 27.4171 89.9521C28.4842 88.3778 28.652 86.4271 28.652 86.4271C28.652 86.4271 30.584 88.0677 32.2275 88.5155C33.8824 88.9665 36.8374 87.9675 36.8374 87.9675L38.0113 88.2249L45.8468 80.3599L44.3204 80.0596C44.3204 80.0596 44.7879 78.5658 41.5409 77.0823C40.7112 76.7033 38.9887 76.0533 37.8795 75.8147C35.7605 75.3589 34.0815 75.8896 34.0815 75.8896L20.5904 73.7581Z" fill="black"/>
<path d="M53.4559 56.3803C54.1371 56.0016 55.23 55.322 55.0184 54.8553C54.8142 54.462 53.8297 54.9247 53.12 55.2968C53.1199 55.2969 53.1198 55.2967 53.1199 55.2967C53.9864 54.7071 54.2783 54.2766 54.1088 54.0347C53.8651 53.6871 52.8506 54.5425 51.1961 54.396C49.7379 54.2669 48.9834 53.495 47.7893 53.9177C47.467 54.0318 47.2521 54.1836 47.1299 54.269C46.0063 55.0549 40.2665 59.2078 39.8746 59.5039C38.2295 60.747 37.1185 62.7701 38.3109 64.8748C39.1565 66.3674 40.3779 67.2137 41.6778 66.4211C44.3284 64.8051 49.1806 59.9971 50.2449 59.0289C50.245 59.0288 50.2451 59.0287 50.2453 59.0287C50.7927 59.11 51.6635 59.2181 52.651 58.9153C53.5282 58.6464 54.4522 58.2003 54.4538 57.7771C54.4546 57.5454 54.2159 57.4567 53.3386 57.6309V57.6308C54.4519 57.0672 55.0086 56.5626 54.9152 56.1727C54.8559 55.9251 54.2805 55.9219 53.4559 56.3803Z" fill="white"/>
<path d="M49.8306 54.5903C51.1024 53.548 51.3405 52.9022 51.169 52.7057C50.8808 52.3751 49.4312 52.82 47.3809 54.1089C48.0514 54.3043 49.1602 54.3949 49.8306 54.5903Z" fill="white"/>
<path d="M50.3189 54.2233C50.3153 54.2233 50.3116 54.223 50.3079 54.2222C49.711 54.0931 49.011 54.0027 48.6131 53.9733C48.5847 53.9712 48.5635 53.9464 48.5656 53.9181C48.5677 53.8898 48.5912 53.8682 48.6208 53.8705C49.022 53.9002 49.7279 53.9914 50.3296 54.1215C50.3575 54.1275 50.3751 54.1549 50.3691 54.1827C50.3639 54.2068 50.3426 54.2233 50.3189 54.2233Z" fill="black"/>
<path d="M51.8698 55.5925C51.7874 55.5925 51.7104 55.5888 51.6404 55.5854C51.6119 55.5841 51.59 55.5599 51.5914 55.5315C51.5928 55.5031 51.6193 55.481 51.6453 55.4825C51.8184 55.4908 52.0146 55.5003 52.2316 55.4569C52.4961 55.404 52.9003 55.2597 53.2866 55.0802C53.3124 55.0682 53.3431 55.0794 53.355 55.1052C53.367 55.131 53.3558 55.1616 53.33 55.1737C52.9309 55.3591 52.5279 55.5027 52.2518 55.5578C52.1167 55.5849 51.9878 55.5925 51.8698 55.5925Z" fill="black"/>
<path d="M52.1336 56.6071C52.1145 56.6071 52.097 56.6067 52.0813 56.606C52.0528 56.6046 52.0309 56.5805 52.0323 56.552C52.0337 56.5236 52.0588 56.5022 52.0862 56.5031C52.259 56.5112 52.6673 56.4698 52.8807 56.4224C53.0553 56.3835 53.2757 56.3102 53.5546 56.1982C53.5809 56.1875 53.611 56.2005 53.6215 56.2269C53.6321 56.2533 53.6193 56.2833 53.5929 56.2939C53.3088 56.4079 53.0832 56.4828 52.9031 56.5229C52.7023 56.5676 52.3329 56.6071 52.1336 56.6071Z" fill="black"/>
<path d="M52.0349 57.9466C51.9822 57.9466 51.9293 57.9454 51.8767 57.9429C51.8483 57.9415 51.8263 57.9174 51.8277 57.8889C51.8291 57.8605 51.8546 57.8381 51.8816 57.8399C52.0784 57.8494 52.2767 57.8406 52.471 57.8138C52.6572 57.7881 53.0118 57.7266 53.2941 57.6035C53.3202 57.5922 53.3506 57.6042 53.3619 57.6302C53.3732 57.6563 53.3613 57.6867 53.3352 57.698C53.0416 57.826 52.6765 57.8894 52.4851 57.9159C52.3365 57.9364 52.1856 57.9466 52.0349 57.9466Z" fill="black"/>
<path d="M39.1469 59.1832C40.8758 57.9577 42.9291 56.5313 43.6161 56.0295L47.6931 61.499C47.6931 61.499 42.436 67.2027 39.514 66.7254C38.6009 66.5762 37.9971 65.9475 37.5985 65.1536C36.5529 63.071 37.2458 60.5307 39.1469 59.1832Z" fill="#BD0054"/>
<path d="M36.3041 65.6364C36.3041 65.6364 38.8175 68.1341 42.0843 66.3263C43.8203 65.3656 43.2391 61.8692 42.9318 60.285C42.3338 57.2027 34.8611 50.1465 30.1909 53.8437C30.1909 53.8437 33.8718 62.2266 36.3041 65.6364Z" fill="#BD0054"/>
<path d="M40.5661 58.4096C40.551 58.4096 40.5361 58.403 40.5259 58.3904C38.9593 56.4444 37.0933 55.6712 35.8039 55.3652C34.4074 55.0338 33.3703 55.1638 33.36 55.1649C33.3314 55.1687 33.3058 55.1488 33.3022 55.1206C33.2985 55.0923 33.3183 55.0665 33.3466 55.0628C33.357 55.0615 34.413 54.9293 35.8276 55.2649C37.1328 55.5747 39.0212 56.3571 40.6062 58.3258C40.624 58.348 40.6205 58.3804 40.5984 58.3982C40.5888 58.4059 40.5774 58.4096 40.5661 58.4096Z" fill="#F7F1EB"/>
<path d="M41.6241 63.1001C41.6049 63.1001 41.5865 63.0894 41.5777 63.071C40.5438 60.927 39.0282 59.994 37.9387 59.5889C36.7591 59.1503 35.8144 59.2185 35.8051 59.2194C35.7767 59.2212 35.7519 59.2005 35.7497 59.172C35.7475 59.1437 35.7686 59.1189 35.797 59.1166C35.8065 59.1159 36.774 59.0459 37.9746 59.4923C39.0818 59.904 40.6218 60.8513 41.6704 63.0263C41.6828 63.0519 41.672 63.0827 41.6464 63.095C41.6392 63.0984 41.6315 63.1001 41.6241 63.1001Z" fill="#F7F1EB"/>
<path d="M41.1866 65.1377C39.2321 65.1377 38.1151 63.7008 38.1038 63.686C38.0866 63.6634 38.0909 63.6311 38.1135 63.6139C38.1362 63.5967 38.1685 63.601 38.1857 63.6236C38.1969 63.6382 39.325 65.0871 41.2911 65.0332C41.2916 65.0332 41.292 65.0332 41.2925 65.0332C41.3203 65.0332 41.3432 65.0554 41.344 65.0834C41.3448 65.1119 41.3223 65.1355 41.2938 65.1363C41.2579 65.1373 41.222 65.1377 41.1866 65.1377Z" fill="#F7F1EB"/>
<path d="M30.1907 53.8439C27.5755 54.1257 22.2824 55.4723 20.5773 56.489C16.7652 58.7617 15.2524 60.7286 15.2524 60.7286L21.1914 70.2638C20.2504 72.9977 19.1069 77.2989 19.1069 77.2989L38.1448 75.7056C38.1448 75.7056 37.3533 66.5747 36.5599 63.0638C35.843 59.8907 32.4344 53.6022 30.1907 53.8439Z" fill="#EFBC73"/>
<path d="M19.846 71.0785C16.2959 71.627 8.8469 74.9189 8.54761 69.6979C8.39031 66.9538 8.61067 63.4485 11.7576 59.8912C13.9128 57.4549 17.7839 56.3871 20.1004 56.7795L20.6246 65.6108L19.846 71.0785Z" fill="#BD0054"/>
<path d="M10.4681 66.4163C10.465 66.4163 10.4619 66.416 10.4588 66.4154C10.4308 66.4103 10.4122 66.3834 10.4173 66.3555C10.7066 64.7715 11.2901 63.3359 12.1515 62.0885C12.8406 61.0907 13.708 60.2106 14.7296 59.4727C16.4687 58.2166 18.0759 57.8029 18.0919 57.7989C18.1194 57.7921 18.1475 57.8087 18.1544 57.8363C18.1614 57.8638 18.1446 57.8919 18.117 57.8988C18.1012 57.9028 16.5101 58.3129 14.7866 59.5587C13.1977 60.7072 11.1676 62.8218 10.5186 66.374C10.5142 66.3988 10.4925 66.4163 10.4681 66.4163Z" fill="#F7F1EB"/>
<path d="M16.9222 65.478C16.9064 65.478 16.8909 65.4708 16.8807 65.4572C16.8638 65.4343 16.8686 65.4021 16.8914 65.3851C19.0137 63.8128 19.4528 61.531 19.457 61.5082C19.4622 61.4802 19.4889 61.4615 19.5169 61.4668C19.5449 61.4719 19.5634 61.4987 19.5583 61.5267C19.5541 61.5499 19.1089 63.8705 16.9528 65.4679C16.9436 65.4748 16.9328 65.478 16.9222 65.478Z" fill="#F7F1EB"/>
<path d="M13.7752 65.2576C13.7713 65.2576 13.7673 65.2572 13.7633 65.2563C13.7357 65.2498 13.7185 65.222 13.725 65.1943C14.2038 63.1625 15.3633 61.8331 16.2517 61.0757C17.2144 60.255 18.077 59.9095 18.0856 59.9061C18.112 59.8958 18.142 59.9086 18.1524 59.9351C18.1629 59.9616 18.1499 59.9915 18.1234 60.0019C18.115 60.0053 17.2655 60.346 16.3155 61.1567C15.44 61.9039 14.2973 63.215 13.8253 65.218C13.8198 65.2416 13.7986 65.2576 13.7752 65.2576Z" fill="#F7F1EB"/>
<path d="M27.1211 58.8163C27.1859 59.077 27.0271 59.3409 26.7664 59.4057C26.5057 59.4704 26.2418 59.3116 26.1771 59.0508C26.1123 58.7901 26.2711 58.5262 26.5318 58.4614C26.7925 58.3967 27.0564 58.5555 27.1211 58.8163Z" fill="black"/>
<path d="M27.69 60.5588C27.7548 60.8196 27.5959 61.0834 27.3352 61.1482C27.0745 61.213 26.8107 61.0541 26.7459 60.7934C26.6811 60.5326 26.84 60.2687 27.1007 60.204C27.3614 60.1392 27.6252 60.2981 27.69 60.5588Z" fill="black"/>
<path d="M33.2452 65.7255C32.5161 65.8353 29.413 65.8075 28.74 67.0855C28.0621 68.3726 28.3926 69.941 29.1311 71.1889C29.1368 71.1906 29.1431 71.1924 29.1488 71.194C29.4801 71.4215 30.0111 71.7111 30.678 71.7293C31.4383 71.75 31.647 71.3981 32.4532 71.2954C33.8139 71.1221 34.5658 71.9903 34.8483 71.5954C35.0421 71.3244 34.6261 70.7995 34.1212 70.4197C33.6028 70.0296 33.102 69.9955 33.1175 69.8904C33.1346 69.775 33.6386 69.8753 34.277 69.9426C34.5736 69.9739 35.333 70.5598 35.6526 70.2282C35.9073 69.9639 35.2716 69.1573 34.4271 68.8517C33.8297 68.6355 33.2507 68.8523 33.2326 68.738C33.2191 68.6522 33.5673 68.5315 33.8981 68.5164C34.4441 68.4914 35.2275 69.0825 35.5157 68.7716C35.798 68.467 35.2303 67.7724 34.4716 67.4422C33.832 67.1639 33.1978 67.4363 33.1745 67.2944C33.1581 67.1946 33.4169 67.0139 34.0464 66.8123C34.5719 66.6442 35.7013 66.6543 35.609 66.0807C35.5313 65.5983 34.3457 65.5598 33.2452 65.7255Z" fill="white"/>
<path d="M17.8522 66.6264C16.2458 66.8879 15.8036 72.6417 17.2837 73.6419C17.5245 73.8047 30.093 70.8293 30.093 70.8293L31.9531 65.8379C26.6379 65.9427 22.2739 65.9067 17.8522 66.6264Z" fill="white"/>
<path d="M19.8995 73.4045C19.8995 73.4045 9.73856 75.5097 8.74439 71.249C7.48185 65.8381 15.4795 66.4434 19.7254 66.3644L19.8995 73.4045Z" fill="#BD0054"/>
<path d="M29.0815 54.9568C29.6194 56.5823 28.203 58.8758 25.5806 56.9581C25.5806 56.9581 25.5912 58.0548 24.6653 58.5451C23.4694 59.1784 21.8556 58.6723 21.3556 57.3854C21.1975 56.9785 21.1554 56.5024 21.3583 56.1029L23.2189 55.4244L26.3757 54.5358L28.5465 54.0988C28.5465 54.0988 28.9586 54.5851 29.0815 54.9568Z" fill="#BD0054"/>
<path d="M24.9795 56.8291L24.6891 56.8244C23.8297 56.8107 23.1442 56.1029 23.1579 55.2435L23.2453 49.7806C23.2591 48.9213 23.9668 48.2358 24.8261 48.2495L25.1166 48.2541C25.976 48.2678 26.6615 48.9756 26.6477 49.835L26.5604 55.298C26.5466 56.1573 25.8389 56.8428 24.9795 56.8291Z" fill="white"/>
<path d="M28.9754 51.6239C28.7591 52.6811 25.6938 52.8301 25.6938 52.8301L22.7096 51.9369C21.672 50.8278 21.7308 49.0884 22.8409 48.0518C23.951 47.0152 25.692 47.074 26.7296 48.183C26.7296 48.183 29.1957 50.5471 28.9754 51.6239Z" fill="white"/>
<path d="M26.9927 48.9268C26.9927 48.9268 28.1085 48.9905 28.2243 49.1743C28.3625 49.3937 27.8406 50.0936 27.8406 50.0936C27.8406 50.0936 27.009 48.9142 26.9927 48.9268Z" fill="white"/>
<path d="M24.8604 50.0304C24.8604 50.0304 25.0873 49.6339 25.499 49.3773C25.5866 49.3227 25.8587 50.126 25.7508 50.1382C25.2763 50.1918 24.8604 50.0304 24.8604 50.0304Z" fill="#BD0054"/>
<mask id="mask0_177_11075" style="mask-type:luminance" maskUnits="userSpaceOnUse" x="24" y="49" width="4" height="2">
<path d="M24.8604 50.0309C24.8604 50.0309 25.1941 49.4478 25.7865 49.2381C26.3789 49.0285 27.0056 49.2716 27.0056 49.2716C27.0056 49.2716 26.6719 49.8547 26.0795 50.0644C25.4871 50.274 24.8604 50.0309 24.8604 50.0309Z" fill="white"/>
</mask>
<g mask="url(#mask0_177_11075)">
<path d="M25.5052 49.3491C25.6076 48.9073 26.0491 48.6321 26.4913 48.7343C26.9335 48.8366 27.209 49.2777 27.1066 49.7195C27.0043 50.1613 26.5628 50.4365 26.1206 50.3343C25.6784 50.232 25.4029 49.7909 25.5052 49.3491Z" fill="black"/>
</g>
<path d="M20.375 49.9956C20.375 49.9956 21.4018 53.013 23.5925 52.536L23.7114 51.8627L24.98 51.4869L23.6726 50.6709C23.216 50.3161 23.1984 49.6327 23.6361 49.2548L25.6923 47.489C25.6923 47.489 25.5474 45.8098 25.1154 45.5442C23.4342 44.511 21.1778 48.0014 20.375 49.9956Z" fill="black"/>
<path d="M22.3272 52.3094C22.5067 52.8014 23.0514 53.0548 23.5438 52.8754C24.0362 52.6961 24.2899 52.1519 24.1104 51.66C23.9309 51.1681 23.3862 50.9146 22.8938 51.094C22.4013 51.2733 22.1477 51.8175 22.3272 52.3094Z" fill="white"/>
<path d="M27.4077 51.0606C27.2699 51.0606 27.1362 50.9948 27.053 50.8815C27.0361 50.8586 27.041 50.8263 27.064 50.8095C27.0869 50.7926 27.1191 50.7975 27.136 50.8205C27.2113 50.9228 27.3403 50.9748 27.4644 50.9526C27.5934 50.9297 27.6976 50.8323 27.73 50.7045C27.737 50.6769 27.765 50.6603 27.7926 50.6671C27.8202 50.6741 27.8368 50.7022 27.8299 50.7297C27.7876 50.8968 27.6512 51.0241 27.4825 51.0541C27.4576 51.0585 27.4325 51.0606 27.4077 51.0606Z" fill="black"/>
<path d="M23.0337 45.4615C22.4537 45.5269 21.6491 46.6894 21.221 47.6799C20.779 48.7028 20.6244 48.8479 20.0151 49.1518C18.8394 49.7382 18.5854 50.7167 19.0263 51.716C19.5884 52.9898 21.7102 52.7797 22.8937 50.2755C24.0772 47.7712 23.9703 45.3559 23.0337 45.4615Z" fill="#1C0300"/>
<path d="M20.1753 49.5096C20.1753 49.5096 19.6994 49.4448 19.0362 49.5096C18.6636 49.546 18.1912 49.6698 17.7062 49.7754L17.4359 49.4301V49.8322C17.0952 49.8992 16.7578 49.9469 16.4512 49.9413C16.1775 49.9367 15.8958 49.9038 15.6186 49.8515V49.3699L15.2779 49.7799C14.0683 49.4925 13.0132 48.9258 13.0132 48.9258C13.7855 48.8814 14.7328 48.6997 16.3422 48.0931L16.6636 48.6917L16.7 47.9602C18.4296 47.4013 20.1753 49.5096 20.1753 49.5096Z" fill="#BD0054"/>
<path d="M77.0674 53.8598L77.0383 53.8539C73.959 53.2292 71.55 50.8265 70.9173 47.7489L70.9153 47.7394L70.9111 47.7604C70.2855 50.8451 67.8789 53.2584 64.7959 53.8924L64.8249 53.8983C67.9042 54.5229 70.3132 56.9256 70.9459 60.0033L70.9479 60.0128L70.9522 59.9918C71.5777 56.9071 73.9844 54.4938 77.0674 53.8598Z" fill="#BE0054"/>
<path d="M67.1296 60.1778L67.1154 60.1749C65.6071 59.8689 64.427 58.692 64.1171 57.1845L64.1161 57.1798L64.1141 57.1901C63.8077 58.7011 62.6288 59.8832 61.1187 60.1938L61.1329 60.1967C62.6412 60.5027 63.8213 61.6796 64.1312 63.1871L64.1322 63.1918L64.1343 63.1815C64.4406 61.6704 65.6195 60.4883 67.1296 60.1778Z" fill="#BE0054"/>
<path d="M54.749 73.2882L54.7293 73.2842C52.6413 72.8606 51.0079 71.2315 50.5789 69.1446L50.5775 69.1382L50.5746 69.1524C50.1505 71.244 48.5186 72.8804 46.4282 73.3102L46.4479 73.3142C48.5359 73.7378 50.1693 75.367 50.5983 77.4538L50.5996 77.4602L50.6025 77.446C51.0267 75.3545 52.6586 73.7181 54.749 73.2882Z" fill="#BE0054"/>
<path d="M51.0758 26.2567L52.174 22.2554L48.1602 23.3049L51.0758 26.2567Z" fill="#F7F1EB"/>
<path d="M57.5023 24.0132L57.9941 19.8931L54.1807 21.5271L57.5023 24.0132Z" fill="#BE0054"/>
<path d="M63.3884 20.8941L63.2638 16.7466L59.7349 18.9281L63.3884 20.8941Z" fill="#BE0054"/>
<path d="M37.2825 27.4606L39.6159 24.0297L35.4785 23.724L37.2825 27.4606Z" fill="#F7F1EB"/>
<path d="M43.9441 27.4028L45.743 23.6638L41.606 23.9752L43.9441 27.4028Z" fill="#BE0054"/>
<path d="M40.3993 23.9756C37.6985 23.9756 34.9959 23.6999 32.357 23.1547C32.3292 23.1489 32.3112 23.1217 32.317 23.0938C32.3227 23.0659 32.35 23.0482 32.3779 23.0538C44.0161 25.4585 55.9707 22.5759 65.1766 15.1454C65.1987 15.1275 65.2311 15.131 65.249 15.1531C65.2669 15.1753 65.2634 15.2078 65.2413 15.2256C62.9288 17.0921 60.4035 18.6964 57.7356 19.9937C55.1256 21.2628 52.3657 22.2452 49.5324 22.9135C46.7295 23.5746 43.8462 23.9306 40.9626 23.9716C40.7749 23.9743 40.5871 23.9756 40.3993 23.9756Z" fill="#BE0054"/>
<path d="M22.2453 41.8089L25.2314 38.9284L21.2441 37.7821L22.2453 41.8089Z" fill="#F7F1EB"/>
<path d="M29.243 42.8832L31.611 39.4895L27.4922 39.2375L29.243 42.8832Z" fill="#BE0054"/>
<path d="M36.5285 42.3958L37.9851 38.6237L33.9224 39.3184L36.5285 42.3958Z" fill="#F7F1EB"/>
<path d="M10.1489 35.8445L14.0055 34.315L10.7529 31.7394L10.1489 35.8445Z" fill="#F7F1EB"/>
<path d="M15.8913 39.4244L19.3534 37.1379L15.6426 35.2825L15.8913 39.4244Z" fill="#BE0054"/>
<path d="M31.1057 39.5152C28.7832 39.5152 26.4147 39.2276 24.0452 38.6501C18.8027 37.3724 13.8169 34.6903 10.0064 31.0978C9.98572 31.0783 9.98474 31.0457 10.0043 31.025C10.0237 31.0043 10.0565 31.0033 10.0771 31.0228C18.2193 38.6991 30.2849 41.4436 40.1011 37.8523C40.1278 37.8426 40.1574 37.8562 40.1672 37.883C40.1769 37.9097 40.1632 37.9393 40.1365 37.9491C37.2874 38.9914 34.2386 39.5152 31.1057 39.5152Z" fill="#BE0054"/>
<path d="M48.3042 21.3215C49.8658 30.153 47.5268 37.9499 43.0799 38.7365C38.633 39.523 33.7623 33.0013 32.2007 24.1698L48.3042 21.3215Z" fill="#EFBC73"/>
<path d="M42.8517 38.4497C40.9005 38.4497 38.8598 37.1397 37.0285 34.6877C34.969 31.9301 33.418 28.0549 32.6615 23.7758C32.6565 23.7478 32.6752 23.721 32.7032 23.7161L48.8068 20.8678C48.8204 20.8653 48.8342 20.8686 48.8453 20.8763C48.8565 20.8842 48.8641 20.8961 48.8665 20.9096C49.6231 25.1887 49.4951 29.3609 48.5061 32.6577C47.5135 35.9666 45.7713 38.0003 43.6004 38.3842C43.3527 38.428 43.103 38.4497 42.8517 38.4497ZM32.7719 23.8086C33.529 28.052 35.0691 31.8921 37.1111 34.6261C39.1537 37.361 41.4519 38.6593 43.5825 38.2828C47.9856 37.504 50.3099 29.7465 48.774 20.9783L32.7719 23.8086Z" fill="black"/>
<path d="M46.5062 26.2902C46.561 27.3128 45.8453 28.2389 44.8115 28.4217C43.7739 28.6052 42.7806 27.9756 42.4854 26.99L46.5062 26.2902Z" fill="#363E44"/>
<path d="M40.116 27.4203C40.1708 28.4429 39.4551 29.369 38.4213 29.5519C37.3837 29.7354 36.3904 29.1057 36.0952 28.1202L40.116 27.4203Z" fill="#363E44"/>
<path d="M39.139 34.5345C39.1211 34.5345 39.1029 34.5308 39.0855 34.5228C39.0208 34.4932 38.9924 34.4167 39.022 34.352C39.5853 33.122 40.7158 32.2473 42.046 32.012C43.391 31.7738 44.7631 32.2181 45.7157 33.2C45.7653 33.251 45.7641 33.3326 45.713 33.3821C45.662 33.4317 45.5804 33.4304 45.5309 33.3794C44.6379 32.4589 43.3521 32.0427 42.0909 32.2656C40.8439 32.4861 39.7842 33.3061 39.2562 34.4593C39.2345 34.5066 39.1878 34.5345 39.139 34.5345Z" fill="#363E44"/>
<path d="M36.8915 21.3035C34.926 30.0539 29.7609 36.3449 25.3548 35.355C20.9487 34.365 18.9702 26.4688 20.9357 17.7184L36.8915 21.3035Z" fill="#BE0054"/>
<path d="M26.9175 35.335C26.5977 35.335 26.2817 35.3004 25.9707 35.2306C23.8198 34.7473 22.1728 32.6357 21.3332 29.2847C20.4967 25.9459 20.5604 21.7723 21.5127 17.5325C21.5157 17.5191 21.5239 17.5075 21.5354 17.5002C21.5469 17.4928 21.5609 17.4904 21.5742 17.4935L37.53 21.0786C37.5577 21.0848 37.5752 21.1124 37.569 21.1401C36.6166 25.3799 34.8893 29.1798 32.7054 31.8399C30.8303 34.1237 28.8091 35.335 26.9175 35.335ZM21.602 17.6053C19.6649 26.2938 21.6305 34.1497 25.9933 35.13C28.1043 35.6042 30.4597 34.4128 32.6258 31.7745C34.7911 29.1372 36.5059 25.3719 37.4572 21.1678L21.602 17.6053Z" fill="black"/>
<path d="M32.946 26.6466C33.0458 25.6275 32.3716 24.6707 31.3469 24.4425C30.3184 24.2134 29.2983 24.7987 28.96 25.7702L32.946 26.6466Z" fill="#363E44"/>
<path d="M26.6121 25.236C26.7119 24.2168 26.0377 23.2601 25.0129 23.0318C23.9845 22.8028 22.9643 23.388 22.626 24.3596L26.6121 25.236Z" fill="#363E44"/>
<path d="M27.4195 31.2645C27.1217 31.2645 26.8218 31.2321 26.5246 31.166C25.206 30.8723 24.1152 29.9484 23.6066 28.6948C23.5799 28.6289 23.6117 28.5538 23.6776 28.527C23.7435 28.5002 23.8186 28.5321 23.8453 28.598C24.3221 29.7732 25.3446 30.6392 26.5806 30.9145C27.8305 31.1928 29.1336 30.8336 30.0663 29.9535C30.1181 29.9047 30.1995 29.907 30.2484 29.9588C30.2972 30.0105 30.2948 30.0921 30.2432 30.1409C29.47 30.8705 28.4579 31.2645 27.4195 31.2645Z" fill="#363E44"/>
</g>
</g>
</g>
<defs>
<clipPath id="clip0_177_11075">
<rect width="94" height="120" fill="white"/>
</clipPath>
<clipPath id="clip1_177_11075">
<rect x="-0.37207" y="11.5" width="94.7442" height="97" rx="7.51938" fill="white"/>
</clipPath>
<clipPath id="clip2_177_11075">
<rect x="-0.37207" y="11.5" width="94.7442" height="97" rx="7.51938" fill="white"/>
</clipPath>
</defs>
</svg>
