<svg width="292" height="408" viewBox="0 0 292 408" fill="none" xmlns="http://www.w3.org/2000/svg">
<rect width="292" height="408" rx="24" fill="#F7FFE5"/>
<path d="M109.443 28.08V38.192H109.315C109.315 37.424 108.611 29.744 101.379 29.744H90.3708V51.568H100.739C106.371 51.568 106.947 45.936 106.947 45.36H107.011V59.44H106.947C106.947 58.864 106.371 53.232 100.739 53.232H90.3708V76.336H102.659C109.891 76.336 110.595 68.656 110.595 67.888H110.723V78H76.0348V77.872C76.4188 77.872 80.0028 77.296 80.0028 70.832V35.248C80.0028 28.784 76.4188 28.208 76.0348 28.208V28.08H109.443ZM117.823 40.688C117.823 31.92 125.375 27.184 135.103 27.184C140.927 27.184 144.447 28.08 148.991 28.08V38.576H148.863C148.479 36.528 147.775 33.904 145.535 31.856C143.551 30.128 140.415 28.848 135.231 28.848C129.983 28.848 125.119 30.96 125.119 35.888C125.119 40.304 129.215 42.672 132.799 44.72L141.823 49.84C149.055 53.936 151.999 58.736 151.999 64.24C151.999 72.816 144.895 78.384 133.119 78.384C129.023 78.384 123.071 78 118.975 78V64.688H119.103C119.423 67.504 120.063 70.576 122.303 73.008C124.287 75.184 127.615 76.72 132.543 76.72C140.991 76.72 143.679 72.752 143.679 68.656C143.679 65.328 142.015 62.448 135.807 58.928L126.335 53.552C120.895 50.48 117.823 46.64 117.823 40.688ZM161.821 29.744C154.589 29.744 153.885 37.424 153.885 38.192H153.757V28.08H194.845V38.192H194.717C194.717 37.424 194.013 29.744 186.781 29.744H179.485V70.832C179.485 77.296 183.069 77.872 183.453 77.872V78H165.149V77.872C165.533 77.872 169.117 77.296 169.117 70.832V29.744H161.821ZM197.38 91.44C201.604 91.44 202.116 83.952 202.116 78.192V35.248C202.116 28.784 198.532 28.208 198.148 28.208V28.08H216.452V28.208C216.068 28.208 212.484 28.784 212.484 35.248V78.064C212.484 86.704 206.468 91.568 197.38 91.568V91.44Z" fill="#51691C"/>
<path d="M69.56 116V115.96C69.68 115.96 70.8 115.78 70.8 113.76V102.64C70.8 100.62 69.68 100.44 69.56 100.44V100.4H73.28L81.92 110.9V102.64C81.92 100.62 80.8 100.44 80.68 100.44V100.4H83.72V100.44C83.6 100.44 82.48 100.62 82.48 102.64V116.12L71.36 102.64V113.76C71.36 115.78 72.48 115.96 72.6 115.96V116H69.56ZM89.6228 119.86C90.6828 119.86 91.3628 119.44 91.8028 118.84C92.4828 117.9 92.6028 116.52 92.6028 115.52V114.4C91.9828 115.54 90.7228 116.24 89.3628 116.24C86.2828 116.24 84.3628 113.88 84.3628 110.56C84.3628 106.84 86.2828 104.08 89.6828 104.08C91.2828 104.08 92.0828 104.74 92.6028 105.46V104.28H97.0428V104.32C96.9228 104.32 95.8028 104.5 95.8028 106.52V115.2C95.8028 116.9 95.1628 118.08 94.2628 118.88C93.0428 119.98 91.3228 120.34 90.1028 120.34C88.1028 120.34 86.8028 119.64 86.0628 119.64V116.56H86.1228C86.3028 117.6 86.7828 118.34 87.3428 118.86C88.1428 119.6 89.1028 119.86 89.6228 119.86ZM87.5428 110.36C87.5428 113.12 88.5228 115.36 90.2628 115.36C91.2828 115.36 92.0228 114.76 92.6028 113.38V106.52C92.0828 105.42 91.3428 105.16 90.7628 105.16C88.9228 105.16 87.5428 107.2 87.5428 110.36ZM102.691 116.2C101.691 116.2 100.791 115.9 100.131 115.32C99.4914 114.74 99.0914 113.88 99.0914 112.74V106.52C99.0914 104.5 97.9714 104.32 97.8514 104.32V104.28H102.291V112.48C102.291 112.98 102.331 113.64 102.591 114.18C102.851 114.7 103.311 115.08 104.011 115.08C105.431 115.08 106.451 113.66 106.451 111.7V106.52C106.451 104.5 105.331 104.32 105.211 104.32V104.28H109.651V105.08C109.971 104.82 110.071 104.54 110.091 104.28C110.091 104.06 110.011 103.54 109.211 103.34V103.32L110.871 102.16C111.111 102.34 111.451 102.96 111.411 103.5C111.351 104.46 110.331 105.1 109.651 105.4V113.76C109.651 115.78 110.771 115.96 110.891 115.96V116H106.451V113.92C105.971 115.04 104.891 116.2 102.691 116.2ZM118.327 116.24C114.447 116.24 112.527 113.48 112.527 110.16C112.527 106.84 114.447 104.08 118.327 104.08C119.807 104.08 121.007 104.48 121.927 105.16C122.067 104.96 122.107 104.74 122.087 104.56C122.067 104.34 121.947 103.84 121.127 103.7V103.68L122.687 102.38C122.947 102.54 123.327 103.14 123.347 103.68C123.367 104.42 122.787 105.02 122.227 105.42C123.487 106.54 124.127 108.26 124.127 110.16C124.127 113.48 122.207 116.24 118.327 116.24ZM115.807 110.16C115.807 113.12 116.487 115.76 118.327 115.76C120.167 115.76 120.867 113.12 120.867 110.16C120.867 107.2 120.167 104.56 118.327 104.56C116.487 104.56 115.807 107.2 115.807 110.16ZM116.207 101.8V101.74L117.267 100.26H117.327C118.147 101.4 119.607 102.96 120.567 103.34L120.507 103.4C119.327 103.24 117.227 102.58 116.207 101.8ZM126.564 106.52C126.564 104.5 125.444 104.32 125.324 104.32V104.28H129.764V113.76C129.764 115.78 130.884 115.96 131.004 115.96V116H125.324V115.96C125.444 115.96 126.564 115.78 126.564 113.76V106.52ZM126.364 101.44C126.364 100.5 127.144 99.72 128.084 99.72C129.024 99.72 129.804 100.5 129.804 101.44C129.804 102.38 129.024 103.16 128.084 103.16C127.144 103.16 126.364 102.38 126.364 101.44ZM142.181 119.86C143.241 119.86 143.921 119.44 144.361 118.84C145.041 117.9 145.161 116.52 145.161 115.52V114.4C144.541 115.54 143.281 116.24 141.921 116.24C138.841 116.24 136.921 113.88 136.921 110.56C136.921 106.84 138.841 104.08 142.241 104.08C143.841 104.08 144.641 104.74 145.161 105.46V104.28H149.601V104.32C149.481 104.32 148.361 104.5 148.361 106.52V115.2C148.361 116.9 147.721 118.08 146.821 118.88C145.601 119.98 143.881 120.34 142.661 120.34C140.661 120.34 139.361 119.64 138.621 119.64V116.56H138.681C138.861 117.6 139.341 118.34 139.901 118.86C140.701 119.6 141.661 119.86 142.181 119.86ZM140.101 110.36C140.101 113.12 141.081 115.36 142.821 115.36C143.841 115.36 144.581 114.76 145.161 113.38V106.52C144.641 105.42 143.901 105.16 143.321 105.16C141.481 105.16 140.101 107.2 140.101 110.36ZM152.13 106.52C152.13 104.5 151.01 104.32 150.89 104.32V104.28H155.33V113.76C155.33 115.78 156.45 115.96 156.57 115.96V116H150.89V115.96C151.01 115.96 152.13 115.78 152.13 113.76V106.52ZM151.93 101.44C151.93 100.5 152.71 99.72 153.65 99.72C154.59 99.72 155.37 100.5 155.37 101.44C155.37 102.38 154.59 103.16 153.65 103.16C152.71 103.16 151.93 102.38 151.93 101.44ZM162.165 104.92C159.925 104.92 158.525 106.78 158.345 107.94H158.285C158.465 105.84 160.165 104.08 163.305 104.08C164.385 104.08 165.925 104.24 166.965 105.12C167.605 105.68 168.045 106.52 168.045 107.8V113.76C168.045 115.78 169.165 115.96 169.285 115.96V116H164.845V114.18C164.285 115.12 163.105 116.12 160.985 116.12C159.065 116.12 157.605 115.2 157.605 113.24C157.605 110.64 160.165 108.9 164.845 108.78V107.88C164.845 106.74 164.565 105.98 164.065 105.52C163.605 105.1 162.945 104.92 162.165 104.92ZM160.805 113.24C160.805 114.2 161.345 115.18 162.445 115.18C163.785 115.18 164.725 113.82 164.845 113.42V109.26C161.765 109.3 160.805 111.78 160.805 113.24ZM161.085 103.34C162.045 102.96 163.505 101.4 164.325 100.26H164.385L165.445 101.74V101.8C164.425 102.58 162.325 103.24 161.145 103.4L161.085 103.34ZM185.042 116V115.96C185.162 115.96 186.282 115.78 186.282 113.76V107.8C186.282 107.3 186.242 106.64 185.982 106.1C185.722 105.58 185.262 105.2 184.562 105.2C183.142 105.2 182.162 106.62 182.162 108.58V113.76C182.162 115.78 183.282 115.96 183.402 115.96V116H177.722V115.96C177.842 115.96 178.962 115.78 178.962 113.76V107.8C178.962 107.3 178.922 106.64 178.662 106.1C178.402 105.58 177.942 105.2 177.242 105.2C175.822 105.2 174.842 106.62 174.842 108.58V113.76C174.842 115.78 175.962 115.96 176.082 115.96V116H170.402V115.96C170.522 115.96 171.642 115.78 171.642 113.76V106.52C171.642 104.5 170.522 104.32 170.402 104.32V104.28H174.842V106.36C175.322 105.24 176.362 104.08 178.562 104.08C179.562 104.08 180.462 104.38 181.122 104.96C181.562 105.36 181.902 105.92 182.062 106.6C182.662 105.24 183.682 104.08 185.882 104.08C186.882 104.08 187.782 104.38 188.442 104.96C189.082 105.54 189.482 106.4 189.482 107.54V113.76C189.482 115.78 190.602 115.96 190.722 115.96V116H185.042ZM197.652 102.24C197.652 100.22 196.532 100.04 196.412 100.04V100H200.852V106.36C201.332 105.24 202.412 104.08 204.612 104.08C205.612 104.08 206.512 104.38 207.172 104.96C207.812 105.54 208.212 106.4 208.212 107.54V113.76C208.212 115.78 209.332 115.96 209.452 115.96V116H203.772V115.96C203.892 115.96 205.012 115.78 205.012 113.76V107.8C205.012 107.3 204.972 106.64 204.712 106.1C204.452 105.58 203.992 105.2 203.292 105.2C201.872 105.2 200.852 106.62 200.852 108.58V113.76C200.852 115.78 201.972 115.96 202.092 115.96V116H196.412V115.96C196.532 115.96 197.652 115.78 197.652 113.76V102.24ZM216.218 116.24C212.338 116.24 210.418 113.48 210.418 110.16C210.418 106.84 212.338 104.08 216.218 104.08C220.098 104.08 222.018 106.84 222.018 110.16C222.018 113.48 220.098 116.24 216.218 116.24ZM212.858 103.46L212.898 103.48C214.058 103.46 215.498 102.82 216.198 102.36H216.238C216.938 102.82 218.378 103.46 219.538 103.48L219.578 103.46C218.518 102.98 216.798 101.48 216.238 100.56H216.198C215.638 101.48 213.918 102.98 212.858 103.46ZM213.698 110.16C213.698 113.12 214.378 115.76 216.218 115.76C218.058 115.76 218.758 113.12 218.758 110.16C218.758 107.2 218.058 104.56 216.218 104.56C214.378 104.56 213.698 107.2 213.698 110.16ZM215.018 118.4C215.018 117.72 215.538 117.2 216.218 117.2C216.898 117.2 217.418 117.72 217.418 118.4C217.418 119.08 216.898 119.6 216.218 119.6C215.538 119.6 215.018 119.08 215.018 118.4Z" fill="#51691C"/>
<path d="M146.5 389C215.812 389 272 332.812 272 263.5C272 194.188 215.812 138 146.5 138C77.1883 138 21 194.188 21 263.5C21 332.812 77.1883 389 146.5 389Z" fill="#51691C"/>
<path d="M181.851 296.765L188.236 254.636L201.673 296.493H229.538L206.659 216.423L166.81 223.367L156.987 291.457L181.851 296.765Z" fill="black"/>
<path d="M146.615 196.884C146.615 196.884 142.418 172.256 141.597 168.347C141.512 167.938 141.363 167.215 140.923 166.362C139.292 163.204 136.266 163.331 133.036 160.792C129.37 157.912 128.936 154.215 127.77 154.457C126.959 154.625 126.73 156.066 127.371 158.935C127.371 158.936 127.371 158.936 127.371 158.936C126.633 156.811 125.507 153.974 124.335 154.385C123.006 154.932 123.937 158.421 124.604 160.504C123.797 157.982 122.613 156.883 122.017 157.275C121.077 157.893 121.248 159.993 122.443 163.284L122.443 163.284C120.983 161.243 120.324 160.965 119.881 161.44C119.072 162.308 120.106 164.995 121.385 167.231C122.823 169.747 124.812 171.199 126.088 172.086C126.089 172.086 126.089 172.086 126.089 172.087C127.258 184.857 127.957 193.074 128.728 203.404C129.125 208.719 145.258 207.422 146.615 196.884Z" fill="#FFC3B1"/>
<path d="M135.456 163.812C134.855 159.238 135.607 157.461 136.335 157.389C137.559 157.268 139.671 160.962 141.391 167.536C139.645 166.647 137.202 164.701 135.456 163.812Z" fill="#FFC3B1"/>
<path d="M133.478 171.54C133.329 171.54 133.198 171.429 133.179 171.277C133.078 170.505 132.77 169.367 131.869 168.323C130.593 166.845 128.911 166.497 128.247 166.417C128.081 166.396 127.963 166.246 127.983 166.08C128.003 165.914 128.154 165.796 128.32 165.816C129.054 165.905 130.913 166.29 132.326 167.927C133.326 169.085 133.668 170.345 133.779 171.199C133.8 171.364 133.683 171.516 133.518 171.538C133.504 171.54 133.491 171.54 133.478 171.54Z" fill="black"/>
<path d="M139.344 164.922C139.277 164.922 139.21 164.9 139.154 164.855C138.399 164.243 137.491 163.815 136.529 163.361C136.065 163.142 135.585 162.915 135.089 162.654C134.941 162.576 134.885 162.393 134.962 162.245C135.04 162.098 135.223 162.041 135.371 162.119C135.855 162.374 136.329 162.597 136.788 162.814C137.783 163.284 138.723 163.727 139.534 164.384C139.664 164.489 139.684 164.68 139.579 164.81C139.519 164.884 139.432 164.922 139.344 164.922Z" fill="black"/>
<path d="M129.938 162.56C129.868 162.56 129.798 162.536 129.741 162.487C129.3 162.111 128.892 161.692 128.528 161.242C128.001 160.59 127.562 159.867 127.223 159.093C127.156 158.94 127.226 158.762 127.379 158.695C127.532 158.628 127.71 158.698 127.777 158.851C128.094 159.575 128.505 160.251 128.999 160.862C129.339 161.283 129.721 161.675 130.134 162.027C130.261 162.135 130.276 162.326 130.168 162.453C130.108 162.524 130.023 162.56 129.938 162.56Z" fill="black"/>
<path d="M127.078 163.798C127.008 163.798 126.938 163.774 126.881 163.725C126.44 163.349 126.032 162.93 125.668 162.48C125.141 161.828 124.702 161.105 124.363 160.331C124.296 160.178 124.366 160 124.519 159.933C124.672 159.866 124.85 159.936 124.917 160.089C125.234 160.813 125.645 161.489 126.139 162.1C126.479 162.521 126.861 162.913 127.274 163.265C127.401 163.373 127.416 163.564 127.308 163.691C127.248 163.762 127.163 163.798 127.078 163.798Z" fill="black"/>
<path d="M124.929 166.922C124.86 166.922 124.79 166.898 124.733 166.849C124.292 166.473 123.883 166.054 123.52 165.604C122.993 164.952 122.554 164.229 122.215 163.455C122.148 163.302 122.217 163.124 122.371 163.057C122.524 162.99 122.702 163.06 122.769 163.213C123.086 163.937 123.497 164.613 123.99 165.224C124.331 165.645 124.712 166.037 125.126 166.389C125.253 166.497 125.268 166.688 125.16 166.815C125.1 166.886 125.015 166.922 124.929 166.922Z" fill="black"/>
<path d="M233.396 217.77C239.403 204.063 219.213 180.3 199.388 178.13C193.656 177.503 187.887 176.882 187.887 176.882C184.981 176.344 168.888 176.63 162.728 178.961C143.911 186.082 127.178 195.338 127.121 203.392C126.965 225.536 163.768 203.496 163.768 203.496L163.396 241.627L216.088 248.339L210.244 209.476C210.244 209.476 228.744 228.383 233.396 217.77Z" fill="black"/>
<path d="M197.473 179.14H182.261V227.447H197.473V179.14Z" fill="#F7F1EB"/>
<path d="M189.529 227.447L185.309 223.227L187.554 187.808L190.997 187.734L193.75 223.227L189.529 227.447Z" fill="black"/>
<path d="M189.345 190.602L195.025 182.401H183.665L189.345 190.602Z" fill="black"/>
<path d="M199.388 250.126C199.316 250.126 199.246 250.1 199.191 250.053C199.129 250 199.091 249.925 199.086 249.843L198.115 235.285C198.112 235.252 198.116 235.219 198.124 235.186L206.904 202.507L200.197 201.74C200.087 201.728 199.993 201.656 199.951 201.554C199.91 201.451 199.927 201.334 199.997 201.248L206.256 193.599L203.088 178.832C203.053 178.669 203.157 178.508 203.32 178.473C203.485 178.438 203.645 178.542 203.679 178.705L206.877 193.615C206.897 193.704 206.874 193.798 206.816 193.869L200.816 201.202L207.322 201.946C207.409 201.956 207.488 202.003 207.537 202.076C207.587 202.149 207.603 202.24 207.58 202.325L198.721 235.295L199.669 249.495L216.061 248.038C216.228 248.025 216.374 248.146 216.389 248.312C216.404 248.478 216.281 248.625 216.114 248.64L199.414 250.125C199.406 250.125 199.397 250.126 199.388 250.126Z" fill="white"/>
<path d="M180.376 176.57L189.168 173.241L199.388 178.13L193.747 186.476L189.255 183.223L185.252 186.964L180.376 176.57Z" fill="white"/>
<path d="M142.966 172.279L124.59 176.003L126.217 184.031L144.592 180.308L142.966 172.279Z" fill="white"/>
<path d="M127.121 203.86L124.626 182.964L145.367 178.129L149.009 204.384L127.121 203.86Z" fill="black"/>
<path d="M148.849 205.044C148.699 205.044 148.569 204.932 148.55 204.779L146.47 188.303C146.449 188.138 146.567 187.987 146.732 187.966C146.899 187.945 147.049 188.062 147.07 188.228L149.15 204.704C149.171 204.869 149.054 205.02 148.888 205.041C148.875 205.043 148.862 205.044 148.849 205.044Z" fill="white"/>
<path d="M197.645 227.447H182.261V233.368H197.645V227.447Z" fill="#84524D"/>
<path d="M181.843 249.195C181.838 249.195 181.832 249.195 181.826 249.195L162.307 248.053C162.14 248.043 162.013 247.9 162.023 247.733C162.033 247.566 162.172 247.437 162.343 247.449L181.541 248.573V240.374L171.311 201.214C171.286 201.12 171.308 201.02 171.37 200.945C171.432 200.87 171.526 200.83 171.623 200.836L178.494 201.285L172.789 194.887C172.724 194.814 172.698 194.715 172.72 194.62L176.728 176.815C176.765 176.652 176.926 176.55 177.09 176.587C177.252 176.623 177.355 176.785 177.318 176.948L173.344 194.601L179.437 201.434C179.518 201.525 179.537 201.657 179.483 201.768C179.429 201.878 179.315 201.946 179.191 201.937L172.002 201.466L182.136 240.258C182.143 240.283 182.146 240.309 182.146 240.334V248.893C182.146 248.976 182.112 249.056 182.051 249.113C181.995 249.166 181.92 249.195 181.843 249.195Z" fill="white"/>
<path d="M203.01 236.42L220.025 245.336C220.025 245.336 241.584 212.443 231.783 206.682C221.115 200.411 203.01 236.42 203.01 236.42Z" fill="black"/>
<path d="M193.744 167.463C197.315 165.646 198.862 161.491 199.119 157.168C199.31 153.943 197.645 151.752 195.211 151.772C193.537 149.023 187.252 148.485 184.606 150.47C179.745 154.117 180.036 164.603 185.475 167.711C189.066 169.764 193.42 167.628 193.744 167.463Z" fill="white"/>
<path d="M183.18 167.979C184.221 167.575 184.573 165.982 183.967 164.421C183.361 162.86 182.026 161.922 180.985 162.326C179.945 162.73 179.592 164.323 180.199 165.884C180.805 167.445 182.14 168.383 183.18 167.979Z" fill="#FFC3B1"/>
<path d="M198.768 166.755C199.519 165.258 199.318 163.639 198.32 163.139C197.322 162.639 195.905 163.447 195.154 164.944C194.404 166.441 194.605 168.06 195.603 168.56C196.601 169.06 198.018 168.252 198.768 166.755Z" fill="#FFC3B1"/>
<path d="M197.122 167.522C197.017 167.522 196.915 167.468 196.859 167.37C196.777 167.225 196.827 167.04 196.972 166.957C197.239 166.805 197.487 166.528 197.653 166.196C197.819 165.864 197.893 165.499 197.856 165.195C197.837 165.042 197.771 164.769 197.547 164.656C197.516 164.641 197.482 164.629 197.448 164.621C197.285 164.584 197.183 164.422 197.22 164.259C197.257 164.096 197.421 163.994 197.582 164.031C197.664 164.05 197.743 164.078 197.818 164.116C198.171 164.293 198.397 164.649 198.456 165.12C198.509 165.546 198.416 166.025 198.194 166.467C197.972 166.909 197.645 167.27 197.272 167.483C197.224 167.51 197.173 167.522 197.122 167.522Z" fill="black"/>
<path d="M181.843 166.802C181.783 166.802 181.722 166.785 181.669 166.748C181.318 166.501 181.026 166.111 180.847 165.65C180.455 164.639 180.716 163.627 181.443 163.345C181.52 163.314 181.602 163.294 181.685 163.283C181.85 163.261 182.002 163.378 182.024 163.543C182.046 163.709 181.929 163.861 181.764 163.882C181.728 163.887 181.694 163.896 181.662 163.908C181.265 164.062 181.15 164.76 181.411 165.431C181.545 165.777 181.766 166.077 182.017 166.253C182.154 166.349 182.187 166.537 182.091 166.674C182.032 166.758 181.938 166.802 181.843 166.802Z" fill="black"/>
<path d="M189.254 183.223H189.254L184.466 177.932L184.066 169.249L194.272 168.81L194.667 177.503L189.254 183.223Z" fill="#FFC3B1"/>
<path d="M196.695 162.826C196.509 166.773 194.177 172.924 189.118 172.686C184.058 172.447 182.315 166.104 182.501 162.157C182.601 160.026 183.094 156.461 184.633 155.498C185.945 154.678 188.3 156.9 190.103 156.985C192.062 157.077 193.883 154.979 195.098 156.074C196.314 157.169 196.788 160.852 196.695 162.826Z" fill="#FFC3B1"/>
<path d="M189.087 174.953C197.291 175.013 196.888 161.34 196.888 161.34L182.368 161.6C182.368 161.6 181.131 174.895 189.087 174.953Z" fill="white"/>
<path d="M182.464 162.354C182.469 166.911 185.403 164.654 189.281 164.65C193.159 164.647 196.783 167.011 196.779 162.455C196.774 157.898 193.777 157.941 189.899 157.945C186.021 157.948 182.46 157.797 182.464 162.354Z" fill="#FFC3B1"/>
<path d="M196.264 160.895C196.264 160.895 195.913 161.425 195.29 161.945C194.876 162.29 193.572 162.272 193.572 162.272C193.572 162.272 192.124 162.96 191.527 162.83C190.93 162.7 190.531 162.515 190.531 162.515C190.531 162.515 190.724 162.224 191.077 161.862C191.517 161.41 193.355 161.342 193.355 161.342C193.355 161.342 194.558 160.441 195.138 160.553C195.806 160.682 196.264 160.895 196.264 160.895Z" fill="white"/>
<path d="M193.085 160.6C192.21 160.847 191.523 161.406 191.083 161.857C191.148 162.214 191.3 162.549 191.527 162.83C192.124 162.96 192.918 163.033 193.71 162.81C194.346 162.63 194.882 162.285 195.297 161.937C195.403 161.456 195.339 160.974 195.14 160.555C194.56 160.442 193.822 160.392 193.085 160.6Z" fill="black"/>
<path d="M183.183 160.279C183.183 160.279 183.527 160.922 184.181 161.539C184.543 161.88 185.766 161.776 185.766 161.776C185.766 161.776 187.014 162.722 187.604 162.662C188.271 162.596 188.738 162.43 188.738 162.43C188.738 162.43 188.577 162.129 188.266 161.741C187.871 161.248 186.153 160.907 186.153 160.907C186.153 160.907 184.906 159.986 184.316 160.046C183.65 160.113 183.183 160.279 183.183 160.279Z" fill="white"/>
<path d="M188.269 161.744C187.874 161.251 187.236 160.617 186.376 160.283C185.657 160.005 184.914 159.988 184.325 160.046C184.128 160.454 184.056 160.925 184.152 161.402C184.162 161.45 184.175 161.496 184.188 161.543C184.549 161.883 185.002 162.214 185.546 162.425C186.264 162.703 187.008 162.721 187.598 162.662C187.9 162.421 188.132 162.103 188.269 161.744Z" fill="black"/>
<path d="M189.727 165.617C189.614 165.617 189.506 165.553 189.454 165.445C189.382 165.294 189.446 165.113 189.597 165.042C189.84 164.925 189.988 164.797 190.011 164.681C190.025 164.61 189.993 164.539 189.902 164.369C189.826 164.225 189.73 164.046 189.665 163.805C189.569 163.452 189.567 163.075 189.658 162.686C189.696 162.523 189.858 162.422 190.021 162.46C190.184 162.498 190.285 162.661 190.247 162.823C190.179 163.114 190.179 163.391 190.249 163.647C190.296 163.822 190.367 163.956 190.436 164.085C190.547 164.295 190.662 164.511 190.604 164.801C190.54 165.117 190.289 165.381 189.857 165.587C189.815 165.607 189.771 165.617 189.727 165.617Z" fill="black"/>
<path d="M189.248 167.182C188.797 167.182 188.33 166.947 188.041 166.568C187.853 166.323 187.747 166.029 187.742 165.739C187.739 165.572 187.872 165.434 188.039 165.431C188.198 165.429 188.344 165.561 188.347 165.728C188.35 165.89 188.411 166.058 188.521 166.201C188.705 166.441 189.015 166.589 189.288 166.576C189.45 166.562 189.598 166.693 189.608 166.86C189.618 167.027 189.491 167.17 189.324 167.18C189.299 167.181 189.274 167.182 189.248 167.182Z" fill="white"/>
<path d="M194.892 155.099C194.795 155.099 194.699 155.052 194.641 154.966C194.262 154.407 193.81 153.923 193.297 153.527C190.448 151.332 186.555 152.398 185.43 152.777C185.271 152.831 185.1 152.745 185.047 152.587C184.994 152.429 185.079 152.257 185.237 152.204C186.434 151.801 190.58 150.67 193.666 153.048C194.23 153.483 194.726 154.014 195.142 154.627C195.235 154.765 195.199 154.953 195.061 155.047C195.009 155.082 194.95 155.099 194.892 155.099Z" fill="#D3BBA3"/>
<path d="M183.87 155.508C183.765 155.508 183.664 155.454 183.608 155.357C183.524 155.213 183.573 155.028 183.717 154.944C184.922 154.244 189.162 152.073 193.131 153.555C193.858 153.826 194.537 154.209 195.148 154.691C195.279 154.795 195.302 154.985 195.198 155.116C195.094 155.247 194.904 155.269 194.773 155.166C194.212 154.722 193.588 154.371 192.92 154.122C189.199 152.733 185.168 154.8 184.021 155.467C183.973 155.495 183.921 155.508 183.87 155.508Z" fill="#D3BBA3"/>
<path d="M188.025 200.893L183.854 205.009C182.463 206.383 180.221 206.368 178.848 204.976C177.474 203.584 177.489 201.342 178.881 199.969L183.052 195.853C184.444 194.48 186.685 194.495 188.059 195.887L188.059 195.887C189.432 197.278 189.417 199.52 188.025 200.893Z" fill="#D87355"/>
<path d="M168.793 261.948C168.633 261.948 168.5 261.823 168.491 261.662L165.985 217.325C165.98 217.236 166.015 217.149 166.08 217.088L183.444 200.73C183.565 200.616 183.757 200.621 183.872 200.743C183.986 200.864 183.98 201.055 183.859 201.17L166.597 217.432L169.095 261.628C169.104 261.795 168.977 261.938 168.81 261.947C168.804 261.948 168.798 261.948 168.793 261.948Z" fill="#D87355"/>
<path d="M199.85 200.876L204.021 204.992C205.413 206.365 207.655 206.35 209.028 204.958C210.401 203.567 210.387 201.325 208.995 199.952L204.824 195.836C203.432 194.463 201.19 194.478 199.817 195.869L199.817 195.869C198.444 197.261 198.458 199.503 199.85 200.876Z" fill="#D87355"/>
<path d="M219.083 261.93C219.077 261.93 219.072 261.93 219.066 261.93C218.899 261.92 218.771 261.778 218.781 261.611L221.279 217.414L204.017 201.153C203.895 201.038 203.89 200.847 204.004 200.725C204.119 200.603 204.31 200.598 204.431 200.712L221.796 217.07C221.861 217.132 221.896 217.218 221.891 217.308L219.385 261.645C219.376 261.806 219.242 261.93 219.083 261.93Z" fill="#D87355"/>
<path d="M234.63 230.729H155.411V368.27H234.63V230.729Z" fill="#E6D0BE"/>
<path d="M237.75 227.579H151.358V237.902H237.75V227.579Z" fill="#D3BBA3"/>
<path d="M235.482 239.112H149.089C148.922 239.112 148.787 238.976 148.787 238.809V228.486C148.787 228.319 148.922 228.184 149.089 228.184H235.482C235.649 228.184 235.784 228.319 235.784 228.486V238.809C235.784 238.976 235.648 239.112 235.482 239.112ZM149.392 238.507H235.179V228.789H149.392V238.507Z" fill="black"/>
<path d="M155.172 278.454C155.005 278.454 154.87 278.318 154.87 278.151V238.838C154.87 238.671 155.005 238.536 155.172 238.536C155.339 238.536 155.475 238.671 155.475 238.838V278.151C155.475 278.318 155.339 278.454 155.172 278.454Z" fill="black"/>
<path d="M234.706 283.141C234.54 283.141 234.404 283.006 234.404 282.84L234.252 238.839C234.252 238.672 234.387 238.536 234.554 238.536C234.711 238.542 234.857 238.67 234.857 238.837L235.008 282.837C235.009 283.005 234.874 283.14 234.707 283.141C234.707 283.141 234.706 283.141 234.706 283.141Z" fill="black"/>
<path d="M65.0691 387.847H105.701L101.96 372.314H86.0415L74.5307 375.825C68.8894 377.353 65.017 382.273 65.0691 387.847Z" fill="#40484C"/>
<path d="M28.7287 387.847H69.3604L65.6191 372.314H49.701L38.1903 375.825C32.5489 377.353 28.6765 382.273 28.7287 387.847Z" fill="#40484C"/>
<path d="M44.4094 263.323C42.7325 267.73 41.6088 375.403 41.6088 375.403L66.6882 376.332C66.6882 376.332 66.0486 321.412 66.2815 299.108C69.3603 317.398 77.5753 370.291 79.0732 374.784C87.0614 374.535 95.8547 375.963 103.843 375.713C95.348 338.122 87.938 285.502 81.6338 257.831C71.6484 259.662 54.3948 261.492 44.4094 263.323Z" fill="black"/>
<path d="M85.4011 285.108C81.6417 285.108 78.5833 282.05 78.5833 278.291C78.5833 278.124 78.7186 277.989 78.8857 277.989C79.0527 277.989 79.1881 278.124 79.1881 278.291C79.1881 281.717 81.9753 284.504 85.4013 284.504C85.5683 284.504 85.7037 284.639 85.7037 284.806C85.7036 284.973 85.5682 285.108 85.4011 285.108Z" fill="white"/>
<path d="M85.5275 276.458L43.3892 276.634L43.6989 271.448L84.4572 271.692L85.5275 276.458Z" fill="#40484C"/>
<path d="M69.1119 277.668H63.2604C63.0934 277.668 62.958 277.533 62.958 277.366V270.894C62.958 270.727 63.0934 270.591 63.2604 270.591H69.1119C69.279 270.591 69.4143 270.727 69.4143 270.894V277.366C69.4143 277.533 69.279 277.668 69.1119 277.668ZM63.5629 277.063H68.8096V271.196H63.5629V277.063Z" fill="#FFB244"/>
<path d="M130.284 234.724C131.798 233.883 134.227 232.375 133.756 231.339C133.302 230.466 131.114 231.493 129.537 232.319C129.537 232.319 129.537 232.319 129.537 232.319C131.462 231.01 132.111 230.054 131.735 229.518C131.193 228.746 128.939 230.645 125.262 230.32C122.021 230.033 120.345 228.32 117.691 229.258C116.975 229.511 116.497 229.848 116.226 230.038C113.729 231.782 101.386 241.512 100.515 242.17C96.8595 244.929 111.286 250.723 113.919 248.601C120.028 243.679 120.783 242.751 123.148 240.602C123.148 240.602 123.149 240.602 123.149 240.602C124.366 240.782 126.301 241.022 128.495 240.35C130.445 239.753 132.498 238.763 132.501 237.824C132.503 237.31 131.973 237.113 130.023 237.499C132.497 236.249 133.734 235.128 133.527 234.263C133.395 233.713 132.116 233.706 130.284 234.724Z" fill="white"/>
<path d="M122.228 230.75C125.054 228.437 125.584 227.003 125.203 226.567C124.562 225.834 121.341 226.821 116.784 229.682C118.274 230.115 120.738 230.316 122.228 230.75Z" fill="white"/>
<path d="M123.313 230.123C123.292 230.123 123.27 230.12 123.249 230.116C121.932 229.831 120.387 229.632 119.509 229.567C119.342 229.555 119.217 229.41 119.229 229.243C119.242 229.076 119.389 228.949 119.553 228.964C120.452 229.03 122.032 229.234 123.377 229.524C123.54 229.56 123.644 229.721 123.608 229.884C123.578 230.026 123.452 230.123 123.313 230.123Z" fill="black"/>
<path d="M126.762 233.162C126.574 233.162 126.4 233.154 126.241 233.146C126.074 233.138 125.945 232.996 125.953 232.829C125.961 232.662 126.103 232.538 126.27 232.542C126.644 232.56 127.067 232.581 127.527 232.489C128.102 232.374 128.984 232.059 129.829 231.667C129.98 231.597 130.16 231.662 130.231 231.814C130.301 231.965 130.235 232.145 130.084 232.215C129.185 232.632 128.273 232.956 127.645 233.082C127.33 233.145 127.033 233.162 126.762 233.162Z" fill="black"/>
<path d="M127.346 235.414C127.3 235.414 127.258 235.413 127.22 235.411C127.053 235.403 126.925 235.261 126.933 235.094C126.941 234.928 127.086 234.802 127.249 234.807C127.584 234.823 128.475 234.741 128.965 234.632C129.343 234.548 129.823 234.388 130.433 234.144C130.589 234.081 130.765 234.157 130.827 234.312C130.889 234.467 130.813 234.643 130.658 234.705C130.017 234.962 129.506 235.131 129.096 235.222C128.632 235.325 127.807 235.414 127.346 235.414Z" fill="black"/>
<path d="M127.127 238.386C127.006 238.386 126.886 238.384 126.766 238.378C126.599 238.37 126.471 238.228 126.478 238.061C126.487 237.894 126.63 237.771 126.795 237.774C127.221 237.794 127.65 237.775 128.07 237.717C128.475 237.661 129.243 237.529 129.85 237.264C130.003 237.198 130.181 237.268 130.248 237.421C130.314 237.574 130.244 237.753 130.091 237.819C129.418 238.112 128.588 238.256 128.153 238.316C127.814 238.363 127.47 238.386 127.127 238.386Z" fill="black"/>
<path d="M33.4259 235.41C29.7484 241.802 15.6127 262.374 23.4016 267.466C29.5993 271.518 42.2604 251.963 46.3236 245.853C41.9684 242.82 37.7812 238.443 33.4259 235.41Z" fill="white"/>
<path d="M22.6354 254.683C22.6354 254.683 32.688 231.401 39.4831 225.573C44.8748 220.948 56.4955 219.127 67.456 219.327C82.2952 219.599 89.0433 225.848 89.0433 225.848L101.392 240.713L113.61 231.899L121.048 242.578C121.048 242.578 108.129 256.855 102.318 257.875C93.8889 259.354 83.1902 251.104 83.1902 251.104L85.7059 270.76C85.8424 271.827 85.0177 272.774 83.9422 272.785L44.0431 273.198C42.5443 273.214 41.4067 271.853 41.6875 270.381L45.5175 250.296L40.6623 255.885L22.6354 254.683Z" fill="black"/>
<path d="M81.9836 223.902C81.967 223.902 81.9504 223.901 81.9335 223.898L73.2109 222.435C73.1135 222.419 73.0303 222.356 72.9879 222.267C72.9454 222.178 72.9492 222.074 72.9979 221.988L74.1894 219.888C74.2525 219.777 74.3795 219.718 74.5036 219.739L83.3059 221.252C83.4049 221.269 83.4891 221.334 83.5304 221.426C83.5716 221.517 83.5646 221.624 83.5116 221.709L82.2406 223.759C82.1848 223.849 82.087 223.902 81.9836 223.902ZM73.7373 221.91L81.8335 223.268L82.7611 221.772L74.6105 220.371L73.7373 221.91Z" fill="white"/>
<path d="M45.8305 224.615C45.727 224.615 45.6293 224.562 45.5735 224.472L44.3025 222.422C44.2494 222.337 44.2425 222.231 44.2837 222.139C44.325 222.047 44.4092 221.982 44.5082 221.965L53.3103 220.452C53.435 220.431 53.5615 220.49 53.6246 220.601L54.8161 222.701C54.8648 222.787 54.8686 222.891 54.8261 222.98C54.7837 223.069 54.7004 223.132 54.6031 223.148L45.8805 224.611C45.8637 224.614 45.8471 224.615 45.8305 224.615ZM45.053 222.485L45.9806 223.981L54.0768 222.623L53.2035 221.084L45.053 222.485Z" fill="white"/>
<path d="M114.668 244.485C114.575 244.485 114.483 244.443 114.424 244.363L108.139 235.85C108.04 235.716 108.068 235.526 108.202 235.427C108.337 235.328 108.526 235.357 108.625 235.491L114.911 244.003C115.01 244.138 114.981 244.327 114.847 244.426C114.793 244.466 114.73 244.485 114.668 244.485Z" fill="white"/>
<path d="M49.4139 278.091L48.6263 277.717C47.3607 277.116 46.8221 275.603 47.4231 274.337L68.9178 229.082C69.519 227.817 71.0321 227.278 72.2976 227.879L73.0852 228.253C74.3508 228.854 74.8894 230.367 74.2884 231.633L52.7937 276.888C52.1927 278.154 50.6794 278.692 49.4139 278.091Z" fill="#84524D"/>
<path d="M71.8031 258.948L60.1323 258.799C59.0885 258.786 58.2532 257.929 58.2665 256.885L58.2676 256.795C58.2809 255.751 59.1379 254.916 60.1817 254.929L71.8525 255.079C72.8962 255.092 73.7315 255.949 73.7182 256.993L73.7171 257.083C73.7038 258.126 72.8469 258.962 71.8031 258.948Z" fill="#84524D"/>
<path d="M49.3223 257.294C56.1383 259.019 53.1086 258.013 54.6824 258.395C57.6245 259.109 63.9365 260.457 63.8727 262.534C63.8514 263.224 63.3599 263.877 62.6287 264.262C63.2098 264.931 63.3408 265.87 62.9633 266.63C62.4675 267.629 61.3634 267.776 61.2822 267.785C61.7965 268.24 62.048 268.907 61.9074 269.516C61.7134 270.357 60.7969 270.983 59.7628 270.845C59.8268 271.029 60.0324 271.691 59.7234 272.381C59.381 273.145 58.5451 273.634 57.6068 273.614C54.9924 272.982 50.6742 272.577 45.6409 271.812C33.9889 270.043 44.8152 259.406 49.3223 257.294Z" fill="white"/>
<path d="M59.4964 262.757C59.4664 262.757 59.4359 262.752 59.4058 262.743C59.2464 262.693 59.1576 262.523 59.2077 262.364L59.6063 261.093C59.6562 260.933 59.8257 260.845 59.9852 260.895C60.1446 260.944 60.2334 261.114 60.1833 261.274L59.7847 262.545C59.7444 262.674 59.6251 262.757 59.4964 262.757Z" fill="black"/>
<path d="M58.4898 265.984C58.4598 265.984 58.4293 265.979 58.3992 265.97C58.2398 265.92 58.151 265.75 58.2011 265.591L58.5997 264.319C58.6496 264.16 58.8194 264.071 58.9788 264.121C59.1382 264.171 59.2269 264.341 59.1769 264.501L58.7783 265.772C58.7378 265.901 58.6185 265.984 58.4898 265.984Z" fill="black"/>
<path d="M57.5011 269.281C57.471 269.281 57.4406 269.276 57.4105 269.267C57.251 269.217 57.1623 269.047 57.2123 268.888L57.6108 267.617C57.6606 267.457 57.8304 267.369 57.9897 267.419C58.1493 267.469 58.2379 267.638 58.1879 267.797L57.7895 269.069C57.749 269.198 57.6297 269.281 57.5011 269.281Z" fill="black"/>
<path d="M56.5426 272.253C56.5125 272.253 56.4821 272.248 56.4519 272.239C56.2925 272.189 56.2038 272.019 56.2538 271.86L56.6524 270.589C56.7023 270.429 56.8719 270.34 57.0315 270.391C57.1909 270.44 57.2796 270.61 57.2296 270.769L56.831 272.041C56.7905 272.17 56.6712 272.253 56.5426 272.253Z" fill="black"/>
<path d="M40.9313 255.575L51.0594 257.682L46.9552 272.151L25.7357 268.756C23.0619 268.329 21.095 266.025 21.0945 263.32L21.0944 262.817C21.0938 259.893 21.6703 256.997 22.7906 254.296L40.9313 255.575Z" fill="black"/>
<path d="M40.6443 271.236C40.6197 271.236 40.5948 271.233 40.57 271.227C40.408 271.186 40.3098 271.022 40.3507 270.86L42.8132 261.109C42.8542 260.947 43.0198 260.85 43.1804 260.89C43.3424 260.931 43.4406 261.095 43.3997 261.257L40.9372 271.008C40.9026 271.145 40.7795 271.236 40.6443 271.236Z" fill="white"/>
<path d="M141.065 235.096C141.581 232.842 136.226 229.695 129.106 228.068C121.985 226.44 115.796 226.949 115.28 229.204C114.765 231.458 120.12 234.605 127.24 236.232C134.36 237.86 140.55 237.351 141.065 235.096Z" fill="#D67A00"/>
<path d="M142.008 231.042L116.223 225.15L115.262 229.356L141.047 235.248L142.008 231.042Z" fill="#D67A00"/>
<path d="M141.976 231.11C142.492 228.855 137.137 225.708 130.017 224.081C122.897 222.454 116.707 222.962 116.191 225.217C115.676 227.472 121.031 230.618 128.151 232.246C135.271 233.873 141.461 233.364 141.976 231.11Z" fill="#FFB244"/>
<path d="M137.336 233.86C135.098 233.86 132.436 233.548 129.603 232.9C122.208 231.21 116.855 227.964 117.416 225.509C117.978 223.055 124.21 222.456 131.604 224.146C138.998 225.837 144.351 229.083 143.79 231.538C143.444 233.052 140.94 233.86 137.336 233.86ZM123.837 223.784C120.444 223.784 118.263 224.52 118.006 225.644C117.588 227.473 122.202 230.589 129.737 232.311C137.272 234.034 142.782 233.232 143.2 231.403C143.618 229.574 139.004 226.459 131.469 224.736C128.566 224.073 125.964 223.784 123.837 223.784Z" fill="white"/>
<path d="M57.3797 214.118C59.2071 215.829 65.4494 212.705 65.4494 212.705L69.6462 206.312C70.1199 202.822 67.6751 199.61 64.1855 199.136C60.6959 198.662 57.483 201.107 57.0094 204.596C57.0094 204.596 55.5185 212.375 57.3797 214.118Z" fill="white"/>
<path d="M67.6253 221.531C64.2382 223.379 61.2771 223.17 58.717 221.023L60.8855 205.05L69.656 206.241L67.6253 221.531Z" fill="white"/>
<path d="M57.5098 206.356C57.5098 206.356 55.4855 207.973 55.5132 208.476C55.5464 209.076 57.472 209.701 57.472 209.701C57.472 209.701 57.4621 206.354 57.5098 206.356Z" fill="white"/>
<path d="M59.5827 214.94C59.4253 214.94 59.2926 214.818 59.2814 214.658C59.2697 214.492 59.3952 214.347 59.5619 214.336C62.4015 214.137 65.2208 212.477 65.2489 212.46C65.3928 212.375 65.5781 212.422 65.6634 212.565C65.7488 212.708 65.7019 212.894 65.5584 212.979C65.4387 213.051 62.5903 214.73 59.6041 214.939C59.5971 214.94 59.5899 214.94 59.5827 214.94Z" fill="black"/>
<path d="M58.6483 211.124C58.5652 211.124 58.4825 211.09 58.4227 211.023C58.3113 210.899 58.3221 210.708 58.4465 210.596C59.1787 209.942 59.6753 209.903 60.3349 210.059C60.4975 210.098 60.598 210.261 60.5595 210.423C60.5209 210.586 60.3571 210.685 60.1954 210.648C59.7543 210.543 59.4537 210.507 58.8495 211.047C58.7919 211.099 58.72 211.124 58.6483 211.124Z" fill="black"/>
<path d="M63.9354 206.505C63.9354 206.505 62.8608 205.724 61.4633 205.534C61.1659 205.494 61.4039 207.949 61.7044 207.853C63.0258 207.429 63.9354 206.505 63.9354 206.505Z" fill="white"/>
<path d="M60.5347 205.507C60.8529 205.48 61.1634 205.494 61.4598 205.534C61.9542 206.233 62.0222 207.112 61.7056 207.852C61.4046 207.949 61.0825 208.02 60.7447 208.048C58.9245 208.198 57.344 207.05 57.344 207.05C57.344 207.05 58.7145 205.657 60.5347 205.507Z" fill="black"/>
<path d="M65.7763 210.526C65.635 210.526 65.5085 210.426 65.4799 210.282C65.4473 210.119 65.5536 209.96 65.7175 209.927C66.6611 209.739 67.4516 209.043 67.7313 208.154C67.9483 207.465 67.7821 206.581 67.1356 206.357C66.6604 206.191 65.9657 206.456 65.5541 206.959C65.4483 207.088 65.2579 207.107 65.1285 207.002C64.9993 206.896 64.9802 206.705 65.0859 206.576C65.6571 205.878 66.6235 205.538 67.3342 205.785C68.3366 206.134 68.6165 207.356 68.3083 208.336C67.9632 209.433 66.9926 210.29 65.8352 210.52C65.8156 210.524 65.7957 210.526 65.7763 210.526Z" fill="black"/>
<path d="M65.9164 209.056C65.7789 209.056 65.6544 208.961 65.622 208.822C65.5842 208.659 65.6855 208.496 65.8482 208.459C66.0591 208.41 66.2316 208.249 66.2874 208.05C66.3209 207.929 66.2915 207.787 66.2291 207.767C66.1863 207.753 66.0622 207.792 65.9845 207.893C65.8829 208.025 65.6931 208.05 65.5606 207.949C65.4279 207.847 65.403 207.657 65.5046 207.525C65.7259 207.236 66.1059 207.095 66.4093 207.19C66.839 207.324 66.9807 207.815 66.8698 208.212C66.7554 208.622 66.4081 208.95 65.9849 209.048C65.962 209.053 65.9389 209.056 65.9164 209.056Z" fill="black"/>
<path d="M56.9795 200.781L56.8296 197.916C56.8296 197.916 62.58 200.069 64.3276 200.95C66.0353 201.811 70.7868 204.877 70.7868 204.877L69.5284 206.998L56.9795 200.781Z" fill="#D87355"/>
<path d="M73.8109 202.997L70.7869 204.877C70.7869 204.877 62.9611 199.614 56.8455 198.276L55.8321 193.796C55.7552 193.439 56.1081 193.099 56.5378 193.146C59.7267 193.49 67.8871 196.028 74.118 202.077C74.3935 202.345 74.1535 202.784 73.8109 202.997Z" fill="black"/>
<path d="M56.9876 200.778C56.9876 200.778 55.217 200.858 54.6599 200.88C53.7887 200.915 52.6464 201.154 52.4732 201.668C52.3448 202.048 52.0739 202.404 54.8268 203.092C59.0023 204.137 69.5604 206.994 69.5604 206.994C69.5604 206.994 64.6519 204.387 62.9732 203.557C61.5086 202.833 56.9876 200.778 56.9876 200.778Z" fill="black"/>
<path d="M64.2117 222.863L68.1336 217.599L71.0234 219.767L70.6105 224.618L64.2117 222.863Z" fill="black"/>
<path d="M63.6956 222.863L58.8447 218.116L56.1614 221.005L58.432 224.824L63.6956 222.863Z" fill="black"/>
<path d="M271.519 311.968C266.62 307.851 262.673 304.564 260.979 303.228C260.304 302.696 259.116 301.75 257.298 300.986C250.559 298.152 245.957 302.676 237.509 302.595C235.524 302.576 222.821 296.703 220.847 299.539C219.875 300.936 221.328 303.449 226.122 307.132C226.123 307.132 226.122 307.133 226.122 307.133C222.157 304.753 216.64 301.76 215.331 303.955C213.956 306.57 217.574 309.533 221.194 311.838C217.067 309.209 215.909 310.166 215.484 311.572C214.815 313.784 217.854 316.874 224.079 320.491C224.08 320.491 224.08 320.492 224.079 320.492C219.083 319.195 217.678 319.625 217.605 320.959C217.473 323.395 222.647 326.272 227.611 328.114C233.199 330.188 238.252 329.858 241.434 329.574C241.435 329.574 241.436 329.574 241.436 329.575C253.382 341.474 262.568 350.689 271.518 359.783L271.519 311.968Z" fill="#D38C79"/>
<path d="M245.309 304.168C238.331 297.744 237.175 293.947 238.229 292.874C240 291.069 248.203 294.115 259.585 302.221C255.656 303.12 249.237 303.269 245.309 304.168Z" fill="#D38C79"/>
<path d="M250.346 315.757C246.892 315.757 243.36 309.465 242.772 302.241C242.758 302.075 242.882 301.929 243.049 301.915C243.216 301.9 243.361 302.025 243.375 302.192C243.981 309.633 247.547 315.153 250.348 315.153C250.361 315.153 250.373 315.152 250.386 315.152C250.551 315.152 250.685 315.285 250.688 315.45C250.691 315.617 250.557 315.754 250.39 315.757C250.376 315.757 250.361 315.757 250.346 315.757Z" fill="black"/>
<path d="M234.552 309.293C234.551 309.293 234.55 309.293 234.549 309.293C233.375 309.281 232.199 309.16 231.052 308.933C229.387 308.604 227.768 308.051 226.24 307.29C226.09 307.216 226.029 307.034 226.104 306.885C226.178 306.735 226.359 306.674 226.509 306.749C227.989 307.486 229.557 308.021 231.169 308.34C232.28 308.559 233.419 308.676 234.555 308.688C234.722 308.69 234.856 308.826 234.854 308.993C234.852 309.159 234.717 309.293 234.552 309.293Z" fill="black"/>
<path d="M231.671 315.017C231.67 315.017 231.669 315.017 231.668 315.017C230.495 315.005 229.318 314.884 228.171 314.657C226.506 314.328 224.887 313.776 223.359 313.014C223.209 312.94 223.148 312.758 223.223 312.609C223.297 312.46 223.478 312.398 223.628 312.473C225.108 313.21 226.676 313.745 228.288 314.064C229.399 314.283 230.538 314.4 231.674 314.412C231.841 314.414 231.975 314.55 231.973 314.717C231.971 314.883 231.837 315.017 231.671 315.017Z" fill="black"/>
<path d="M232.4 322.778C232.399 322.778 232.398 322.778 232.397 322.778C231.224 322.766 230.047 322.645 228.899 322.419C227.235 322.09 225.616 321.537 224.087 320.776C223.938 320.702 223.877 320.52 223.952 320.371C224.026 320.221 224.207 320.16 224.357 320.235C225.837 320.972 227.405 321.507 229.017 321.825C230.128 322.045 231.267 322.162 232.403 322.173C232.57 322.175 232.704 322.312 232.702 322.479C232.701 322.645 232.566 322.778 232.4 322.778Z" fill="black"/>
<path d="M269.745 385.209L271.374 349.905C265.296 338.397 259.631 327.748 257.725 324.426C257.297 323.68 256.548 322.361 255.145 320.973C249.949 315.832 244.114 318.002 236.183 315.089C227.184 311.784 225.62 304.405 223.494 305.619C222.015 306.463 220.85 309.849 223.926 315.055C223.926 315.055 223.925 315.056 223.925 315.055C221.134 311.369 217.13 306.535 215.097 308.084C212.846 309.997 216.883 316.229 219.51 319.879C216.33 315.461 213.318 314.062 212.4 315.208C210.955 317.012 212.622 321.012 217.05 326.689C217.051 326.689 217.05 326.689 217.05 326.689C212.897 323.624 211.433 323.499 210.869 324.71C209.838 326.92 213.566 331.519 217.486 335.079C221.898 339.087 226.71 340.664 229.768 341.586C229.769 341.587 229.769 341.587 229.77 341.588C237.962 360.683 242.709 371.832 248.759 386.45L269.745 385.209Z" fill="#FFC3B1"/>
<path d="M242.834 319.457C238.754 310.894 239.097 306.941 240.475 306.337C242.792 305.323 249.268 311.208 256.807 322.972C252.826 322.341 246.815 320.087 242.834 319.457Z" fill="#FFC3B1"/>
<path d="M250.951 318.87C250.915 318.87 250.879 318.863 250.843 318.85C248.942 318.12 246.875 317.856 244.687 317.576C243.644 317.443 242.565 317.305 241.436 317.11C241.272 317.082 241.161 316.926 241.19 316.761C241.218 316.596 241.373 316.485 241.539 316.515C242.654 316.707 243.727 316.844 244.764 316.976C246.989 317.261 249.091 317.529 251.06 318.285C251.216 318.345 251.294 318.52 251.234 318.676C251.187 318.796 251.073 318.87 250.951 318.87Z" fill="black"/>
<path d="M231.055 320.224C231.016 320.224 230.977 320.216 230.939 320.2C229.855 319.752 228.808 319.201 227.828 318.563C226.406 317.637 225.11 316.521 223.976 315.245C223.865 315.12 223.876 314.929 224.001 314.818C224.126 314.707 224.317 314.718 224.428 314.843C225.526 316.079 226.781 317.16 228.159 318.056C229.107 318.674 230.12 319.207 231.171 319.641C231.325 319.705 231.398 319.882 231.335 320.037C231.286 320.153 231.174 320.224 231.055 320.224Z" fill="black"/>
<path d="M226.248 324.461C226.209 324.461 226.17 324.453 226.132 324.438C225.048 323.989 224.001 323.438 223.021 322.8C221.599 321.874 220.302 320.758 219.168 319.482C219.057 319.357 219.069 319.166 219.193 319.055C219.318 318.945 219.509 318.956 219.62 319.081C220.719 320.316 221.974 321.397 223.351 322.294C224.3 322.911 225.313 323.445 226.363 323.879C226.518 323.943 226.591 324.12 226.527 324.274C226.479 324.39 226.366 324.461 226.248 324.461Z" fill="black"/>
<path d="M224.031 331.935C223.992 331.935 223.953 331.927 223.915 331.912C222.83 331.463 221.784 330.912 220.804 330.274C219.382 329.349 218.086 328.232 216.951 326.956C216.841 326.831 216.852 326.64 216.976 326.529C217.101 326.419 217.292 326.43 217.404 326.554C218.502 327.79 219.757 328.871 221.134 329.768C222.083 330.385 223.096 330.918 224.147 331.353C224.301 331.417 224.374 331.594 224.31 331.748C224.262 331.865 224.149 331.935 224.031 331.935Z" fill="black"/>
<path d="M271.61 388.657V341.346L269.046 335.554L234.552 359.784L247.033 388.657H271.61Z" fill="#776E42"/>
<path d="M231.671 293.06C231.535 293.06 231.411 292.967 231.377 292.829L228.565 281.34C228.525 281.178 228.625 281.014 228.787 280.974C228.949 280.935 229.113 281.034 229.153 281.196L231.965 292.685C232.005 292.847 231.905 293.011 231.743 293.051C231.719 293.057 231.695 293.06 231.671 293.06Z" fill="white"/>
<path d="M223.013 295.258C222.916 295.258 222.82 295.211 222.762 295.124L214.781 283.21C214.689 283.071 214.726 282.883 214.864 282.79C215.003 282.697 215.191 282.734 215.284 282.873L223.264 294.787C223.357 294.926 223.32 295.114 223.181 295.207C223.129 295.241 223.071 295.258 223.013 295.258Z" fill="white"/>
<path d="M215.558 300.388C215.495 300.388 215.432 300.369 215.378 300.328L206.905 294.023C206.771 293.923 206.743 293.734 206.843 293.6C206.943 293.466 207.132 293.438 207.266 293.538L215.739 299.843C215.873 299.943 215.901 300.133 215.801 300.267C215.741 300.346 215.65 300.388 215.558 300.388Z" fill="white"/>
<path d="M143.713 381.927C153.82 381.927 162.013 379.333 162.013 376.132C162.013 372.932 153.82 370.338 143.713 370.338C133.606 370.338 125.413 372.932 125.413 376.132C125.413 379.333 133.606 381.927 143.713 381.927Z" fill="#D67A00"/>
<path d="M162.013 370.36H125.413V376.33H162.013V370.36Z" fill="#D67A00"/>
<path d="M143.713 376.268C153.82 376.268 162.013 373.673 162.013 370.473C162.013 367.273 153.82 364.678 143.713 364.678C133.606 364.678 125.413 367.273 125.413 370.473C125.413 373.673 133.606 376.268 143.713 376.268Z" fill="#FFB244"/>
<path d="M145.869 376.57C135.438 376.57 127.267 373.892 127.267 370.473C127.267 367.054 135.438 364.376 145.869 364.376C156.301 364.376 164.471 367.054 164.471 370.473C164.471 373.892 156.3 376.57 145.869 376.57ZM145.869 364.981C136.114 364.981 127.872 367.496 127.872 370.473C127.872 373.45 136.114 375.965 145.869 375.965C155.625 375.965 163.867 373.45 163.867 370.473C163.867 367.496 155.625 364.981 145.869 364.981Z" fill="white"/>
<path d="M145.029 372.495C155.136 372.495 163.329 369.9 163.329 366.7C163.329 363.5 155.136 360.905 145.029 360.905C134.923 360.905 126.729 363.5 126.729 366.7C126.729 369.9 134.923 372.495 145.029 372.495Z" fill="#D67A00"/>
<path d="M163.329 360.927H126.729V366.898H163.329V360.927Z" fill="#D67A00"/>
<path d="M145.029 366.836C155.136 366.836 163.329 364.241 163.329 361.041C163.329 357.841 155.136 355.246 145.029 355.246C134.923 355.246 126.729 357.841 126.729 361.041C126.729 364.241 134.923 366.836 145.029 366.836Z" fill="#FFB244"/>
<path d="M147.185 367.138C136.754 367.138 128.583 364.46 128.583 361.041C128.583 357.622 136.754 354.944 147.185 354.944C157.617 354.944 165.788 357.622 165.788 361.041C165.788 364.46 157.617 367.138 147.185 367.138ZM147.185 355.549C137.43 355.549 129.188 358.064 129.188 361.041C129.188 364.018 137.43 366.533 147.185 366.533C156.941 366.533 165.183 364.018 165.183 361.041C165.183 358.064 156.941 355.549 147.185 355.549Z" fill="white"/>
<path d="M148.627 363.063C158.733 363.063 166.927 360.469 166.927 357.268C166.927 354.068 158.733 351.474 148.627 351.474C138.52 351.474 130.327 354.068 130.327 357.268C130.327 360.469 138.52 363.063 148.627 363.063Z" fill="#D67A00"/>
<path d="M166.927 351.496H130.327V357.466H166.927V351.496Z" fill="#D67A00"/>
<path d="M148.627 357.404C158.733 357.404 166.927 354.809 166.927 351.609C166.927 348.409 158.733 345.814 148.627 345.814C138.52 345.814 130.327 348.409 130.327 351.609C130.327 354.809 138.52 357.404 148.627 357.404Z" fill="#FFB244"/>
<path d="M150.782 357.706C140.351 357.706 132.18 355.028 132.18 351.609C132.18 348.19 140.351 345.512 150.782 345.512C161.214 345.512 169.385 348.19 169.385 351.609C169.385 355.028 161.214 357.706 150.782 357.706ZM150.782 346.117C141.027 346.117 132.785 348.632 132.785 351.609C132.785 354.586 141.027 357.101 150.782 357.101C160.538 357.101 168.78 354.586 168.78 351.609C168.78 348.632 160.538 346.117 150.782 346.117Z" fill="white"/>
<path d="M179.189 385.742C189.296 385.742 197.489 383.148 197.489 379.948C197.489 376.747 189.296 374.153 179.189 374.153C169.082 374.153 160.889 376.747 160.889 379.948C160.889 383.148 169.082 385.742 179.189 385.742Z" fill="#D67A00"/>
<path d="M197.489 374.175H160.889V380.145H197.489V374.175Z" fill="#D67A00"/>
<path d="M179.189 380.083C189.296 380.083 197.489 377.489 197.489 374.288C197.489 371.088 189.296 368.494 179.189 368.494C169.082 368.494 160.889 371.088 160.889 374.288C160.889 377.489 169.082 380.083 179.189 380.083Z" fill="#FFB244"/>
<path d="M181.345 380.385C170.914 380.385 162.742 377.707 162.742 374.288C162.742 370.869 170.913 368.191 181.345 368.191C191.776 368.191 199.947 370.869 199.947 374.288C199.947 377.707 191.776 380.385 181.345 380.385ZM181.345 368.796C171.589 368.796 163.347 371.311 163.347 374.288C163.347 377.265 171.589 379.78 181.345 379.78C191.101 379.78 199.342 377.265 199.342 374.288C199.342 371.311 191.101 368.796 181.345 368.796Z" fill="white"/>
<path d="M182.955 377.161C193.307 377.161 201.699 374.503 201.699 371.226C201.699 367.948 193.307 365.291 182.955 365.291C172.603 365.291 164.212 367.948 164.212 371.226C164.212 374.503 172.603 377.161 182.955 377.161Z" fill="#D67A00"/>
<path d="M201.699 365.313H164.212V371.428H201.699V365.313Z" fill="#D67A00"/>
<path d="M182.955 371.364C193.307 371.364 201.699 368.707 201.699 365.429C201.699 362.151 193.307 359.494 182.955 359.494C172.603 359.494 164.212 362.151 164.212 365.429C164.212 368.707 172.603 371.364 182.955 371.364Z" fill="#FFB244"/>
<path d="M185.163 371.667C174.484 371.667 166.117 368.927 166.117 365.429C166.117 361.931 174.483 359.192 185.163 359.192C195.843 359.192 204.209 361.931 204.209 365.429C204.209 368.927 195.843 371.667 185.163 371.667ZM185.163 359.797C175.167 359.797 166.722 362.376 166.722 365.429C166.722 368.482 175.167 371.062 185.163 371.062C195.159 371.062 203.604 368.482 203.604 365.429C203.604 362.376 195.159 359.797 185.163 359.797Z" fill="white"/>
<path d="M179.091 367.499C189.443 367.499 197.835 364.842 197.835 361.564C197.835 358.286 189.443 355.629 179.091 355.629C168.739 355.629 160.348 358.286 160.348 361.564C160.348 364.842 168.739 367.499 179.091 367.499Z" fill="#D67A00"/>
<path d="M197.834 355.652H160.348V361.767H197.834V355.652Z" fill="#D67A00"/>
<path d="M179.091 361.703C189.443 361.703 197.835 359.046 197.835 355.768C197.835 352.49 189.443 349.833 179.091 349.833C168.739 349.833 160.348 352.49 160.348 355.768C160.348 359.046 168.739 361.703 179.091 361.703Z" fill="#FFB244"/>
<path d="M181.299 362.005C170.62 362.005 162.254 359.265 162.254 355.768C162.254 352.27 170.62 349.53 181.299 349.53C191.979 349.53 200.345 352.27 200.345 355.768C200.345 359.265 191.979 362.005 181.299 362.005ZM181.299 350.135C171.303 350.135 162.858 352.714 162.858 355.768C162.858 358.821 171.303 361.4 181.299 361.4C191.295 361.4 199.74 358.821 199.74 355.768C199.74 352.715 191.295 350.135 181.299 350.135Z" fill="white"/>
<path d="M185.163 358.908C195.515 358.908 203.907 356.251 203.907 352.973C203.907 349.696 195.515 347.038 185.163 347.038C174.812 347.038 166.42 349.696 166.42 352.973C166.42 356.251 174.812 358.908 185.163 358.908Z" fill="#D67A00"/>
<path d="M203.907 347.061H166.42V353.176H203.907V347.061Z" fill="#D67A00"/>
<path d="M185.163 353.112C195.515 353.112 203.907 350.455 203.907 347.177C203.907 343.899 195.515 341.242 185.163 341.242C174.812 341.242 166.42 343.899 166.42 347.177C166.42 350.455 174.812 353.112 185.163 353.112Z" fill="#FFB244"/>
<path d="M187.372 353.415C176.692 353.415 168.326 350.675 168.326 347.177C168.326 343.679 176.692 340.94 187.372 340.94C198.052 340.94 206.418 343.679 206.418 347.177C206.418 350.675 198.051 353.415 187.372 353.415ZM187.372 341.544C177.376 341.544 168.931 344.124 168.931 347.177C168.931 350.23 177.376 352.81 187.372 352.81C197.368 352.81 205.813 350.23 205.813 347.177C205.813 344.124 197.368 341.544 187.372 341.544Z" fill="white"/>
<path d="M144.729 354.675C154.836 354.675 163.029 352.081 163.029 348.88C163.029 345.68 154.836 343.086 144.729 343.086C134.622 343.086 126.429 345.68 126.429 348.88C126.429 352.081 134.622 354.675 144.729 354.675Z" fill="#D67A00"/>
<path d="M163.029 343.107H126.429V349.078H163.029V343.107Z" fill="#D67A00"/>
<path d="M144.729 349.016C154.836 349.016 163.029 346.421 163.029 343.221C163.029 340.021 154.836 337.426 144.729 337.426C134.622 337.426 126.429 340.021 126.429 343.221C126.429 346.421 134.622 349.016 144.729 349.016Z" fill="#FFB244"/>
<path d="M146.885 349.318C136.454 349.318 128.283 346.64 128.283 343.221C128.283 339.802 136.454 337.124 146.885 337.124C157.316 337.124 165.487 339.802 165.487 343.221C165.487 346.64 157.316 349.318 146.885 349.318ZM146.885 337.729C137.129 337.729 128.887 340.244 128.887 343.221C128.887 346.198 137.129 348.713 146.885 348.713C156.641 348.713 164.883 346.198 164.883 343.221C164.883 340.244 156.641 337.729 146.885 337.729Z" fill="white"/>
<path d="M148.669 345.032C158.776 345.032 166.969 342.437 166.969 339.237C166.969 336.037 158.776 333.442 148.669 333.442C138.562 333.442 130.369 336.037 130.369 339.237C130.369 342.437 138.562 345.032 148.669 345.032Z" fill="#D67A00"/>
<path d="M166.969 333.464H130.369V339.434H166.969V333.464Z" fill="#D67A00"/>
<path d="M148.669 339.372C158.776 339.372 166.969 336.778 166.969 333.578C166.969 330.377 158.776 327.783 148.669 327.783C138.562 327.783 130.369 330.377 130.369 333.578C130.369 336.778 138.562 339.372 148.669 339.372Z" fill="#FFB244"/>
<path d="M150.825 339.675C140.394 339.675 132.222 336.997 132.222 333.578C132.222 330.159 140.393 327.481 150.825 327.481C161.256 327.481 169.427 330.159 169.427 333.578C169.427 336.997 161.256 339.675 150.825 339.675ZM150.825 328.085C141.069 328.085 132.827 330.6 132.827 333.578C132.827 336.555 141.069 339.07 150.825 339.07C160.581 339.07 168.822 336.555 168.822 333.578C168.822 330.6 160.581 328.085 150.825 328.085Z" fill="white"/>
<path d="M154.598 336.644C164.704 336.644 172.898 334.049 172.898 330.849C172.898 327.649 164.704 325.054 154.598 325.054C144.491 325.054 136.298 327.649 136.298 330.849C136.298 334.049 144.491 336.644 154.598 336.644Z" fill="#D67A00"/>
<path d="M172.898 325.076H136.298V331.046H172.898V325.076Z" fill="#D67A00"/>
<path d="M154.598 330.984C164.704 330.984 172.898 328.39 172.898 325.19C172.898 321.989 164.704 319.395 154.598 319.395C144.491 319.395 136.298 321.989 136.298 325.19C136.298 328.39 144.491 330.984 154.598 330.984Z" fill="#FFB244"/>
<path d="M156.754 331.287C146.322 331.287 138.151 328.608 138.151 325.19C138.151 321.771 146.322 319.093 156.754 319.093C167.185 319.093 175.356 321.771 175.356 325.19C175.356 328.608 167.185 331.287 156.754 331.287ZM156.754 319.697C146.998 319.697 138.756 322.213 138.756 325.19C138.756 328.167 146.998 330.682 156.754 330.682C166.509 330.682 174.751 328.167 174.751 325.19C174.751 322.213 166.509 319.697 156.754 319.697Z" fill="white"/>
<path d="M148.973 329.033C159.08 329.033 167.273 326.439 167.273 323.238C167.273 320.038 159.08 317.444 148.973 317.444C138.866 317.444 130.673 320.038 130.673 323.238C130.673 326.439 138.866 329.033 148.973 329.033Z" fill="#D67A00"/>
<path d="M167.273 317.466H130.673V323.436H167.273V317.466Z" fill="#D67A00"/>
<path d="M148.973 323.374C159.08 323.374 167.273 320.779 167.273 317.579C167.273 314.379 159.08 311.784 148.973 311.784C138.866 311.784 130.673 314.379 130.673 317.579C130.673 320.779 138.866 323.374 148.973 323.374Z" fill="#FFB244"/>
<path d="M151.129 323.676C140.698 323.676 132.527 320.998 132.527 317.579C132.527 314.16 140.698 311.482 151.129 311.482C161.56 311.482 169.732 314.16 169.732 317.579C169.732 320.998 161.56 323.676 151.129 323.676ZM151.129 312.087C141.373 312.087 133.132 314.602 133.132 317.579C133.132 320.556 141.373 323.071 151.129 323.071C160.885 323.071 169.127 320.556 169.127 317.579C169.127 314.602 160.885 312.087 151.129 312.087Z" fill="white"/>
<path d="M198.141 352.796C200.414 350.543 196.491 342.897 189.378 335.717C182.264 328.537 174.655 324.543 172.382 326.795C170.108 329.048 174.031 336.694 181.145 343.874C188.258 351.054 195.867 355.048 198.141 352.796Z" fill="#D67A00"/>
<path d="M202.255 348.75L176.496 322.75L172.255 326.951L198.014 352.952L202.255 348.75Z" fill="#D67A00"/>
<path d="M202.161 348.813C204.434 346.561 200.511 338.914 193.398 331.734C186.285 324.555 178.675 320.56 176.402 322.812C174.128 325.065 178.052 332.711 185.165 339.891C192.278 347.071 199.887 351.065 202.161 348.813Z" fill="#FFB244"/>
<path d="M201.861 351.283C198.425 351.283 192.346 347.586 186.465 341.651C179.124 334.24 175.276 326.55 177.705 324.144C180.135 321.738 187.787 325.659 195.128 333.069C202.47 340.48 206.317 348.17 203.889 350.576C203.405 351.055 202.715 351.283 201.861 351.283ZM179.746 324.024C179.057 324.024 178.508 324.201 178.131 324.574C176.016 326.669 180.03 334.294 186.895 341.225C193.761 348.156 201.348 352.241 203.463 350.146C205.578 348.051 201.564 340.425 194.699 333.495C189.056 327.798 182.925 324.024 179.746 324.024Z" fill="white"/>
<path d="M146.488 321.819C156.595 321.819 164.788 319.224 164.788 316.024C164.788 312.824 156.595 310.229 146.488 310.229C136.381 310.229 128.188 312.824 128.188 316.024C128.188 319.224 136.381 321.819 146.488 321.819Z" fill="#D67A00"/>
<path d="M164.788 310.251H128.188V316.222H164.788V310.251Z" fill="#D67A00"/>
<path d="M146.488 316.159C156.595 316.159 164.788 313.565 164.788 310.365C164.788 307.164 156.595 304.57 146.488 304.57C136.381 304.57 128.188 307.164 128.188 310.365C128.188 313.565 136.381 316.159 146.488 316.159Z" fill="#FFB244"/>
<path d="M148.644 316.462C138.212 316.462 130.041 313.784 130.041 310.365C130.041 306.946 138.212 304.268 148.644 304.268C159.075 304.268 167.246 306.946 167.246 310.365C167.246 313.784 159.075 316.462 148.644 316.462ZM148.644 304.873C138.888 304.873 130.646 307.388 130.646 310.365C130.646 313.342 138.888 315.857 148.644 315.857C158.399 315.857 166.641 313.342 166.641 310.365C166.641 307.388 158.399 304.873 148.644 304.873Z" fill="white"/>
<path d="M152.417 313.43C162.523 313.43 170.716 310.836 170.716 307.636C170.716 304.435 162.523 301.841 152.417 301.841C142.31 301.841 134.117 304.435 134.117 307.636C134.117 310.836 142.31 313.43 152.417 313.43Z" fill="#D67A00"/>
<path d="M170.716 301.863H134.117V307.833H170.716V301.863Z" fill="#D67A00"/>
<path d="M152.417 307.771C162.523 307.771 170.716 305.177 170.716 301.976C170.716 298.776 162.523 296.182 152.417 296.182C142.31 296.182 134.117 298.776 134.117 301.976C134.117 305.177 142.31 307.771 152.417 307.771Z" fill="#FFB244"/>
<path d="M154.572 308.073C144.141 308.073 135.97 305.395 135.97 301.976C135.97 298.557 144.141 295.879 154.572 295.879C165.004 295.879 173.175 298.557 173.175 301.976C173.175 305.395 165.004 308.073 154.572 308.073ZM154.572 296.484C144.817 296.484 136.575 298.999 136.575 301.976C136.575 304.954 144.817 307.469 154.572 307.469C164.328 307.469 172.57 304.954 172.57 301.976C172.57 298.999 164.328 296.484 154.572 296.484Z" fill="white"/>
<path d="M146.792 305.82C156.899 305.82 165.092 303.225 165.092 300.025C165.092 296.825 156.899 294.231 146.792 294.231C136.685 294.231 128.492 296.825 128.492 300.025C128.492 303.225 136.685 305.82 146.792 305.82Z" fill="#D67A00"/>
<path d="M165.092 294.253H128.492V300.223H165.092V294.253Z" fill="#D67A00"/>
<path d="M146.792 300.161C156.899 300.161 165.092 297.566 165.092 294.366C165.092 291.166 156.899 288.571 146.792 288.571C136.685 288.571 128.492 291.166 128.492 294.366C128.492 297.566 136.685 300.161 146.792 300.161Z" fill="#FFB244"/>
<path d="M148.948 300.463C138.517 300.463 130.346 297.785 130.346 294.366C130.346 290.947 138.517 288.269 148.948 288.269C159.379 288.269 167.55 290.947 167.55 294.366C167.55 297.785 159.379 300.463 148.948 300.463ZM148.948 288.874C139.192 288.874 130.95 291.389 130.95 294.366C130.95 297.343 139.192 299.858 148.948 299.858C158.704 299.858 166.946 297.343 166.946 294.366C166.946 291.389 158.704 288.874 148.948 288.874Z" fill="white"/>
<path d="M99.368 177.833C99.2402 177.833 99.1214 177.752 99.0802 177.623L95.2111 165.617C95.1865 165.54 95.1933 165.457 95.2298 165.386C95.2664 165.315 95.3299 165.261 95.4062 165.236L122.987 156.348C123.146 156.297 123.316 156.385 123.367 156.544L127.236 168.55C127.261 168.626 127.254 168.709 127.217 168.781C127.181 168.852 127.117 168.906 127.041 168.931L99.4607 177.819C99.4299 177.829 99.3987 177.833 99.368 177.833ZM95.8794 165.719L99.563 177.15L126.568 168.448L122.884 157.017L95.8794 165.719Z" fill="#8B865C"/>
<path d="M95.4988 165.524L97.1183 162.931L116.685 156.626L119.326 157.846L121.888 159.368L123.177 163.369L121.986 166.1L120.554 168.633L100.988 174.938L98.1585 173.778L95.5968 172.257L94.3075 168.255L95.4988 165.524Z" fill="#D3BBA3"/>
<path d="M112.484 167.731C113.545 165.661 112.727 163.123 110.657 162.062C108.587 161.001 106.049 161.819 104.988 163.889C103.927 165.959 104.745 168.497 106.815 169.558C108.885 170.619 111.423 169.801 112.484 167.731Z" fill="#E6D0BE"/>
<path d="M123.177 163.369C121.025 164.119 119.852 166.451 120.554 168.633L124.467 167.372L123.177 163.369Z" fill="#E6D0BE"/>
<path d="M121.888 159.368L120.598 155.365L116.685 156.626C117.389 158.807 119.702 160.015 121.888 159.368Z" fill="#E6D0BE"/>
<path d="M95.6874 172.222C95.6564 172.232 95.6276 172.246 95.597 172.256L96.8869 176.259L100.988 174.938C100.274 172.725 97.901 171.509 95.6874 172.222Z" fill="#E6D0BE"/>
<path d="M93.0177 164.253L94.3075 168.256C94.3385 168.246 94.3699 168.241 94.4009 168.231C96.6145 167.517 97.8309 165.145 97.1183 162.931L93.0177 164.253Z" fill="#E6D0BE"/>
<path d="M94.4057 175.29C94.3581 175.29 94.311 175.278 94.2678 175.256C94.1963 175.22 94.1424 175.156 94.1178 175.08L90.2487 163.073C90.224 162.997 90.2309 162.914 90.2674 162.843C90.304 162.771 90.3675 162.717 90.4438 162.693L118.024 153.805C118.101 153.78 118.183 153.787 118.255 153.824C118.326 153.86 118.38 153.924 118.405 154L122.274 166.007C122.325 166.165 122.238 166.336 122.079 166.387L94.4985 175.275C94.4681 175.285 94.4369 175.29 94.4057 175.29ZM90.9171 163.176L94.6008 174.607L121.606 165.904L117.922 154.473L90.9171 163.176Z" fill="white"/>
<path d="M97.0792 195.255C102.814 193.176 106.928 190.018 106.27 188.203C105.611 186.387 100.429 186.601 94.6947 188.68C88.9604 190.759 84.8455 193.917 85.504 195.733C86.1624 197.549 91.3448 197.335 97.0792 195.255Z" fill="#D67A00"/>
<path d="M105.082 184.927L84.3164 192.457L85.5447 195.845L106.311 188.315L105.082 184.927Z" fill="#D67A00"/>
<path d="M95.9149 192.045C101.649 189.965 105.764 186.808 105.106 184.992C104.447 183.176 99.2648 183.39 93.5304 185.469C87.7961 187.548 83.6812 190.706 84.3397 192.522C84.9981 194.338 90.1805 194.124 95.9149 192.045Z" fill="#FFB244"/>
<path d="M88.8903 193.613C86.8646 193.613 85.6206 193.122 85.2792 192.18C84.9067 191.153 85.7014 189.849 87.5773 188.409C89.3372 187.059 91.8492 185.756 94.651 184.74C97.4527 183.724 100.216 183.114 102.433 183.022C104.795 182.924 106.241 183.416 106.613 184.443C107.424 186.679 102.485 189.982 97.2415 191.883C94.4398 192.899 91.6763 193.509 89.4599 193.601C89.2637 193.609 89.0737 193.613 88.8903 193.613ZM102.973 183.615C102.807 183.615 102.635 183.619 102.458 183.626C100.302 183.715 97.6024 184.313 94.8573 185.308C92.1123 186.303 89.6577 187.575 87.9457 188.889C86.3702 190.098 85.5859 191.251 85.8479 191.974C86.1098 192.696 87.4513 193.079 89.4351 192.996C91.5913 192.908 94.2905 192.31 97.0355 191.315C102.987 189.157 106.56 186.07 106.045 184.649C105.806 183.991 104.673 183.615 102.973 183.615Z" fill="white"/>
<path d="M105.87 167.543C106.663 165.888 103.07 162.516 97.8438 160.01C92.6177 157.505 87.7379 156.815 86.9446 158.47C86.1512 160.125 89.7446 163.497 94.9707 166.003C100.197 168.508 105.077 169.198 105.87 167.543Z" fill="#D67A00"/>
<path d="M107.298 164.552L88.3728 155.479L86.8928 158.566L105.818 167.639L107.298 164.552Z" fill="#D67A00"/>
<path d="M107.273 164.617C108.066 162.962 104.473 159.589 99.2468 157.084C94.0207 154.578 89.141 153.888 88.3476 155.543C87.5543 157.198 91.1477 160.571 96.3738 163.076C101.6 165.582 106.48 166.271 107.273 164.617Z" fill="#FFB244"/>
<path d="M106.056 166.34C103.769 166.34 100.412 165.342 97.3595 163.879C92.5737 161.585 88.2099 157.989 89.1909 155.942C90.1725 153.896 95.7084 155.047 100.494 157.341C105.279 159.635 109.643 163.231 108.662 165.277C108.307 166.018 107.354 166.34 106.056 166.34ZM91.8089 155.485C90.6995 155.485 89.9617 155.734 89.7362 156.204C89.1186 157.492 92.2048 160.737 97.6208 163.334C103.037 165.93 107.499 166.304 108.117 165.016C108.734 163.727 105.648 160.483 100.232 157.886C96.7934 156.238 93.7389 155.485 91.8089 155.485Z" fill="white"/>
<path d="M104.497 222.595C104.443 222.595 104.389 222.58 104.342 222.552L93.506 216.094C93.3627 216.008 93.3157 215.823 93.4013 215.679L108.236 190.788C108.322 190.645 108.507 190.597 108.651 190.683L119.487 197.141C119.556 197.182 119.606 197.249 119.625 197.327C119.645 197.404 119.633 197.487 119.592 197.556L104.756 222.447C104.715 222.516 104.649 222.566 104.571 222.586C104.546 222.592 104.522 222.595 104.497 222.595ZM94.0754 215.729L104.392 221.878L118.918 197.506L108.601 191.357L94.0754 215.729Z" fill="#8B865C"/>
<path d="M119.332 197.401L119.829 200.417L109.304 218.076L106.515 218.905L103.587 219.455L99.976 217.303L99.0664 214.466L98.4684 211.618L108.993 193.959L111.883 192.961L114.811 192.411L118.422 194.563L119.332 197.401Z" fill="#D3BBA3"/>
<path d="M110.954 209.772C113.069 208.804 113.999 206.304 113.031 204.189C112.063 202.074 109.563 201.144 107.448 202.112C105.333 203.08 104.403 205.58 105.371 207.695C106.34 209.81 108.839 210.74 110.954 209.772Z" fill="#E6D0BE"/>
<path d="M99.9761 217.303C101.096 215.318 100.437 212.792 98.4686 211.618L96.3638 215.15L99.9761 217.303Z" fill="#E6D0BE"/>
<path d="M103.587 219.455L107.2 221.608L109.305 218.077C107.336 216.904 104.8 217.525 103.587 219.455Z" fill="#E6D0BE"/>
<path d="M114.766 192.497C114.783 192.469 114.796 192.439 114.811 192.411L111.199 190.258L108.993 193.959C110.991 195.149 113.575 194.494 114.766 192.497Z" fill="#E6D0BE"/>
<path d="M122.035 196.716L118.422 194.563C118.405 194.591 118.385 194.616 118.369 194.644C117.178 196.641 117.832 199.226 119.829 200.417L122.035 196.716Z" fill="#E6D0BE"/>
<path d="M109.903 221.226C109.849 221.226 109.795 221.212 109.748 221.184L98.9118 214.726C98.7685 214.64 98.7214 214.454 98.807 214.311L113.642 189.42C113.728 189.276 113.914 189.229 114.057 189.315L124.893 195.773C124.962 195.814 125.011 195.881 125.031 195.958C125.051 196.036 125.039 196.118 124.998 196.187L110.162 221.079C110.121 221.148 110.055 221.198 109.977 221.217C109.952 221.223 109.927 221.226 109.903 221.226ZM99.4813 214.361L109.798 220.509L124.323 196.137L114.007 189.989L99.4813 214.361Z" fill="white"/>
<path d="M242.786 182.964C253.417 182.964 262.035 174.346 262.035 163.715C262.035 153.085 253.417 144.467 242.786 144.467C232.156 144.467 223.538 153.085 223.538 163.715C223.538 174.346 232.156 182.964 242.786 182.964Z" fill="#F7F1EB"/>
<path d="M243.529 182.948C232.749 182.948 223.978 174.178 223.978 163.397C223.978 152.617 232.749 143.847 243.529 143.847C254.309 143.847 263.08 152.617 263.08 163.397C263.08 174.178 254.309 182.948 243.529 182.948ZM243.529 144.452C233.082 144.452 224.583 152.951 224.583 163.397C224.583 173.844 233.082 182.343 243.529 182.343C253.976 182.343 262.475 173.844 262.475 163.397C262.475 152.951 253.976 144.452 243.529 144.452Z" fill="black"/>
<path d="M239.474 159.559L231.478 158.863L231.121 162.969L239.117 163.665L239.474 159.559Z" fill="#D87355"/>
<path d="M235.458 161.691C231.867 161.379 228.697 164.103 228.377 167.777C228.057 171.45 230.709 174.681 234.3 174.994C237.891 175.307 241.061 172.582 241.381 168.908C241.7 165.235 239.049 162.004 235.458 161.691ZM234.326 173.358C231.654 173.126 229.68 170.721 229.918 167.988C230.156 165.254 232.515 163.227 235.187 163.46C237.859 163.692 239.832 166.097 239.594 168.83C239.357 171.563 236.998 173.591 234.326 173.358Z" fill="#D87355"/>
<path d="M235.189 175.235C235.848 174.686 235.938 173.706 235.389 173.047C234.839 172.387 233.86 172.298 233.2 172.847C232.541 173.396 232.451 174.376 233 175.035C233.549 175.695 234.529 175.784 235.189 175.235Z" fill="#D87355"/>
<path d="M235.08 174.107C235.034 174.63 234.573 175.018 234.049 174.972C233.525 174.927 233.138 174.465 233.183 173.941C233.229 173.418 233.69 173.03 234.214 173.076C234.738 173.121 235.125 173.583 235.08 174.107Z" fill="#F7F1EB"/>
<path d="M235.978 160.796C235.95 161.127 235.658 161.373 235.326 161.344C234.995 161.315 234.75 161.023 234.779 160.691C234.807 160.36 235.099 160.115 235.431 160.144C235.762 160.173 236.007 160.465 235.978 160.796Z" fill="white"/>
<path d="M235.241 162.623C235.123 162.613 235.036 162.509 235.046 162.392L235.198 160.65C235.208 160.533 235.312 160.445 235.429 160.456C235.547 160.466 235.634 160.57 235.624 160.687L235.472 162.429C235.462 162.546 235.358 162.633 235.241 162.623Z" fill="white"/>
<path d="M251.785 153.352L244.992 157.626L247.147 161.052L253.941 156.778L251.785 153.352Z" fill="#D87355"/>
<path d="M249.83 157.416C246.779 159.336 245.898 163.421 247.861 166.543C249.825 169.664 253.89 170.638 256.941 168.718C259.992 166.799 260.873 162.713 258.91 159.592C256.946 156.471 252.881 155.497 249.83 157.416ZM255.974 167.399C253.704 168.827 250.679 168.103 249.218 165.78C247.757 163.458 248.413 160.417 250.683 158.989C252.953 157.561 255.978 158.286 257.439 160.608C258.9 162.93 258.244 165.971 255.974 167.399Z" fill="#D87355"/>
<path d="M257.596 167.205C258.053 167.931 257.835 168.891 257.108 169.348C256.382 169.805 255.422 169.586 254.965 168.86C254.508 168.133 254.727 167.174 255.453 166.717C256.18 166.26 257.139 166.478 257.596 167.205Z" fill="#D87355"/>
<path d="M257.027 167.54C257.307 167.985 257.173 168.573 256.728 168.853C256.283 169.132 255.695 168.999 255.415 168.554C255.135 168.109 255.269 167.521 255.714 167.241C256.159 166.961 256.747 167.095 257.027 167.54Z" fill="#F7F1EB"/>
<path d="M249.705 156.389C249.882 156.67 249.798 157.042 249.516 157.219C249.235 157.396 248.863 157.311 248.686 157.03C248.509 156.749 248.593 156.377 248.875 156.2C249.156 156.022 249.528 156.107 249.705 156.389Z" fill="white"/>
<path d="M250.221 158.29C250.121 158.353 249.989 158.323 249.926 158.223L248.995 156.744C248.932 156.644 248.962 156.512 249.062 156.449C249.162 156.386 249.294 156.416 249.357 156.516L250.288 157.996C250.35 158.095 250.32 158.227 250.221 158.29Z" fill="white"/>
<path d="M235.349 158.355C235.24 158.355 235.129 158.336 235.021 158.298C234.776 158.21 234.579 158.032 234.468 157.797C234.356 157.561 234.343 157.296 234.431 157.051L235.023 155.392C235.111 155.147 235.289 154.95 235.524 154.838C235.759 154.727 236.024 154.714 236.27 154.801C236.777 154.983 237.042 155.542 236.861 156.049L236.268 157.707C236.126 158.106 235.749 158.355 235.349 158.355ZM235.942 155.349C235.79 155.349 235.647 155.444 235.593 155.596L235 157.254C234.967 157.347 234.972 157.448 235.014 157.538C235.057 157.627 235.132 157.695 235.225 157.728C235.418 157.797 235.63 157.696 235.699 157.504L236.291 155.845C236.36 155.653 236.259 155.44 236.067 155.371C236.026 155.356 235.984 155.349 235.942 155.349Z" fill="#D87355"/>
<path d="M236.962 154.752C236.853 154.752 236.743 154.733 236.634 154.695C236.389 154.607 236.192 154.429 236.081 154.193C235.969 153.958 235.956 153.693 236.044 153.447L236.636 151.789C236.817 151.282 237.376 151.017 237.883 151.198C238.129 151.286 238.326 151.464 238.437 151.7C238.549 151.935 238.562 152.2 238.474 152.446L237.882 154.104C237.739 154.502 237.363 154.752 236.962 154.752ZM237.556 151.746C237.403 151.746 237.26 151.841 237.206 151.992L236.613 153.651C236.58 153.744 236.585 153.845 236.627 153.935C236.67 154.024 236.745 154.092 236.838 154.125C237.03 154.194 237.243 154.093 237.312 153.9L237.904 152.242C237.938 152.149 237.933 152.048 237.89 151.958C237.848 151.869 237.773 151.801 237.68 151.768C237.639 151.753 237.597 151.746 237.556 151.746Z" fill="#D87355"/>
<path d="M236.008 155.974C235.963 155.974 235.917 155.964 235.874 155.942C235.725 155.869 235.663 155.687 235.737 155.537L236.684 153.618C236.758 153.468 236.94 153.407 237.089 153.481C237.239 153.555 237.3 153.736 237.226 153.886L236.279 155.805C236.227 155.912 236.12 155.974 236.008 155.974Z" fill="#D87355"/>
<path d="M235.357 159.869C235.193 159.869 235.058 159.737 235.055 159.572L235.011 157.385C235.008 157.218 235.14 157.08 235.307 157.076C235.482 157.077 235.612 157.206 235.616 157.373L235.66 159.56C235.663 159.727 235.53 159.865 235.363 159.869C235.361 159.869 235.359 159.869 235.357 159.869Z" fill="#D87355"/>
<path d="M239.629 151.788C239.128 151.788 238.701 151.403 238.658 150.895C238.636 150.635 238.716 150.382 238.884 150.183C239.052 149.984 239.287 149.862 239.547 149.84L241.302 149.69C241.839 149.644 242.311 150.044 242.357 150.579C242.379 150.839 242.299 151.092 242.131 151.291C241.963 151.49 241.727 151.612 241.467 151.635L239.713 151.784C239.685 151.786 239.657 151.788 239.629 151.788ZM239.26 150.843C239.278 151.047 239.458 151.202 239.661 151.181L241.416 151.032C241.515 151.024 241.604 150.977 241.668 150.901C241.732 150.826 241.763 150.73 241.754 150.631C241.737 150.427 241.558 150.276 241.353 150.293L239.599 150.442C239.5 150.451 239.41 150.497 239.346 150.573C239.282 150.648 239.252 150.745 239.26 150.843Z" fill="#D87355"/>
<path d="M243.576 151.76C243.346 151.76 243.126 151.68 242.949 151.53C242.749 151.362 242.627 151.127 242.605 150.867C242.583 150.607 242.663 150.354 242.831 150.155C242.999 149.956 243.235 149.834 243.495 149.812L245.249 149.662C245.51 149.64 245.762 149.72 245.961 149.888C246.161 150.056 246.282 150.292 246.305 150.552C246.35 151.088 245.951 151.561 245.415 151.607L243.66 151.756C243.632 151.759 243.604 151.76 243.576 151.76ZM245.333 150.263C245.322 150.263 245.312 150.264 245.301 150.265L243.546 150.414C243.447 150.423 243.358 150.469 243.294 150.545C243.23 150.621 243.199 150.717 243.208 150.815C243.216 150.914 243.263 151.004 243.338 151.068C243.414 151.132 243.51 151.164 243.609 151.153L245.364 151.004C245.567 150.987 245.719 150.807 245.702 150.603C245.693 150.504 245.647 150.414 245.571 150.351C245.504 150.294 245.42 150.263 245.333 150.263Z" fill="#D87355"/>
<path d="M243.596 151.069C243.593 151.069 243.59 151.069 243.587 151.069L241.448 151.004C241.281 150.999 241.149 150.86 241.155 150.693C241.16 150.526 241.296 150.389 241.466 150.4L243.605 150.465C243.772 150.47 243.903 150.609 243.898 150.776C243.893 150.94 243.759 151.069 243.596 151.069Z" fill="#D87355"/>
<path d="M237.643 152.029C237.531 152.029 237.423 151.966 237.371 151.858C237.298 151.707 237.362 151.526 237.512 151.454L239.484 150.506C239.635 150.435 239.815 150.497 239.888 150.648C239.96 150.798 239.897 150.979 239.746 151.051L237.774 151.999C237.732 152.019 237.687 152.029 237.643 152.029Z" fill="#D87355"/>
<path d="M247.97 154.675C247.62 154.675 247.282 154.487 247.107 154.157L246.28 152.602C246.028 152.127 246.209 151.535 246.684 151.283C246.914 151.16 247.178 151.135 247.427 151.211C247.677 151.288 247.881 151.456 248.004 151.687L248.83 153.242C249.082 153.717 248.901 154.309 248.426 154.561C248.281 154.639 248.124 154.675 247.97 154.675ZM247.142 151.773C247.082 151.773 247.022 151.788 246.968 151.817C246.787 151.913 246.718 152.138 246.814 152.319L247.641 153.874C247.737 154.054 247.962 154.123 248.142 154.027C248.323 153.931 248.392 153.706 248.296 153.526L247.469 151.971C247.423 151.883 247.345 151.819 247.25 151.79C247.215 151.779 247.178 151.773 247.142 151.773Z" fill="#D87355"/>
<path d="M248.74 156.077C248.619 156.077 248.505 156.004 248.459 155.885L247.678 153.892C247.618 153.736 247.694 153.561 247.85 153.5C248.006 153.439 248.181 153.516 248.242 153.671L249.022 155.664C249.083 155.82 249.006 155.995 248.85 156.056C248.814 156.07 248.777 156.077 248.74 156.077Z" fill="#D87355"/>
<path d="M247.166 152.421C247.095 152.421 247.025 152.396 246.967 152.346L245.321 150.904C245.196 150.794 245.183 150.603 245.293 150.477C245.403 150.351 245.594 150.339 245.72 150.449L247.366 151.891C247.491 152.001 247.504 152.192 247.394 152.318C247.334 152.386 247.25 152.421 247.166 152.421Z" fill="#D87355"/>
</svg>
