<svg width="94" height="120" viewBox="0 0 94 120" fill="none" xmlns="http://www.w3.org/2000/svg">
<g clip-path="url(#clip0_173_4166)">
<rect width="94" height="120" fill="#3B6A03"/>
<g clip-path="url(#clip1_173_4166)">
<g clip-path="url(#clip2_173_4166)">
<path d="M47.5601 107.87C73.6191 107.87 94.7442 86.7451 94.7442 60.6861C94.7442 34.627 73.6191 13.502 47.5601 13.502C21.501 13.502 0.375977 34.627 0.375977 60.6861C0.375977 86.7451 21.501 107.87 47.5601 107.87Z" fill="#96C85B"/>
<path d="M76.4944 43.9766H85.291V42.3192H76.4944V43.9766Z" fill="#2C4F02"/>
<path d="M77.8248 61.8477H83.9604V43.1475H77.8248V61.8477Z" fill="#2C4F02"/>
<path d="M66.0149 43.9766H74.8115V42.3192H66.0149V43.9766Z" fill="#2C4F02"/>
<path d="M67.3449 66.4981H73.4805V43.1455H67.3449V66.4981Z" fill="#2C4F02"/>
<path d="M55.5539 43.9766H64.3506V42.3192H55.5539V43.9766Z" fill="#2C4F02"/>
<path d="M55.5539 68.168H64.3506V66.5106H55.5539V68.168Z" fill="#2C4F02"/>
<path d="M56.8844 67.4297H63.02V43.1467H56.8844V67.4297Z" fill="#2C4F02"/>
<path d="M45.0744 72.2246H84.4678V69.1824H45.0744V72.2246Z" fill="#2C4F02"/>
<path d="M43.9686 77.2266H84.4678V73.1839H43.9686V77.2266Z" fill="#2C4F02"/>
<path d="M42.4851 82.3985H84.4678V78.2077H42.4851V82.3985Z" fill="#2C4F02"/>
<path d="M45.0744 43.9766H53.8711V42.3192H45.0744V43.9766Z" fill="#2C4F02"/>
<path d="M45.0744 68.168H53.8711V66.5106H45.0744V68.168Z" fill="#2C4F02"/>
<path d="M46.4049 67.4297H52.5405V43.1467H46.4049V67.4297Z" fill="#2C4F02"/>
<path d="M65.353 22.1485L85.7211 35.9088H44.9849L65.353 22.1485Z" fill="#2C4F02"/>
<path d="M85.7211 37.6055H44.9849V41.0457H85.7211V37.6055Z" fill="#2C4F02"/>
<path d="M32.6649 112.205C33.3417 109.705 33.9272 107.483 34.1517 106.473C34.4525 108.195 34.819 110.21 35.1881 112.205H53.4669C51.1271 101.508 47.2289 83.7712 46.3866 80.4719C39.0304 79.8946 29.2168 79.5714 21.8606 78.9941C20.5696 84.2421 16.3585 101.504 13.749 112.205H32.6649Z" fill="#3B6A03"/>
<path d="M46.8299 94.9651C44.1772 94.9651 42.019 92.8071 42.019 90.1545C42.019 90.0658 42.0908 89.9941 42.1794 89.9941C42.2679 89.9941 42.3397 90.0658 42.3397 90.1545C42.3397 92.6303 44.354 94.6445 46.8299 94.6445C46.9185 94.6445 46.9903 94.7162 46.9903 94.8048C46.9903 94.8934 46.9185 94.9651 46.8299 94.9651Z" fill="white"/>
<path d="M48.467 89.5317H19.2817L20.0827 86.2539H47.7308L48.467 89.5317Z" fill="#4F2704"/>
<path d="M37.1773 90.3145H33.153C33.0644 90.3145 32.9927 90.2428 32.9927 90.1542V85.7033C32.9927 85.6147 33.0644 85.543 33.153 85.543H37.1773C37.2658 85.543 37.3376 85.6147 37.3376 85.7033V90.1542C37.3376 90.2428 37.2658 90.3145 37.1773 90.3145ZM33.3133 89.9939H37.017V85.8637H33.3133V89.9939Z" fill="#EFBC73"/>
<path d="M80.1925 65.9102C81.2731 65.3102 83.0066 64.2337 82.671 63.4943C82.347 62.8713 80.7854 63.6042 79.6596 64.1938C79.6595 64.1938 79.6593 64.1936 79.6595 64.1936C81.0338 63.2596 81.4969 62.5775 81.228 62.1945C80.8416 61.6437 79.2324 62.9989 76.6079 62.7668C74.295 62.5622 73.0982 61.3394 71.204 62.0092C70.6928 62.1899 70.352 62.4303 70.1582 62.5657C68.3758 63.8106 59.566 70.7559 58.9445 71.225C56.3351 73.1944 66.6323 77.3301 68.5118 75.8156C72.872 72.3022 73.411 71.64 75.0991 70.1061C75.0992 70.1059 75.0995 70.1059 75.0997 70.1059C75.9681 70.2347 77.3493 70.406 78.9157 69.9262C80.3071 69.5001 81.7726 68.7935 81.7753 68.1232C81.7766 67.756 81.3979 67.6155 80.0064 67.8914V67.8913C81.7723 66.9985 82.6554 66.1992 82.5073 65.5815C82.4132 65.1891 81.5005 65.184 80.1925 65.9102Z" fill="#FDFFFD"/>
<path d="M74.4423 63.0739C76.4596 61.4227 76.8373 60.3997 76.5654 60.0883C76.1082 59.5648 73.8089 60.2695 70.5566 62.3114C71.6201 62.621 73.3788 62.7644 74.4423 63.0739Z" fill="#FDFFFD"/>
<path d="M75.2173 62.5702C75.206 62.5702 75.1948 62.5691 75.1833 62.5665C74.2405 62.363 73.1344 62.2202 72.506 62.1737C72.4177 62.1673 72.3513 62.0904 72.3579 62.0021C72.3644 61.9139 72.4426 61.8481 72.5295 61.854C73.1688 61.9013 74.2931 62.0463 75.251 62.2531C75.3376 62.2717 75.3925 62.357 75.3738 62.4436C75.3576 62.5188 75.2912 62.5702 75.2173 62.5702Z" fill="#3B6A03"/>
<path d="M77.6784 64.7383C77.5459 64.7383 77.4223 64.7323 77.3101 64.727C77.2216 64.7228 77.153 64.6476 77.1574 64.5592C77.1616 64.4707 77.2378 64.4035 77.325 64.4067C77.5954 64.42 77.9014 64.4346 78.2358 64.3678C78.6499 64.2849 79.2845 64.0584 79.8916 63.7767C79.9727 63.7395 80.0675 63.7744 80.1045 63.8547C80.1418 63.935 80.1069 64.0304 80.0266 64.0676C79.3886 64.3637 78.7426 64.5933 78.2987 64.6821C78.0783 64.7261 77.8691 64.7383 77.6784 64.7383Z" fill="#3B6A03"/>
<path d="M78.0973 66.3462C78.065 66.3462 78.0352 66.3455 78.0086 66.3443C77.9202 66.3401 77.8519 66.2649 77.8561 66.1765C77.8605 66.088 77.9366 66.0183 78.024 66.024C78.2675 66.0353 78.9097 65.9765 79.2631 65.8979C79.5359 65.8373 79.8816 65.7223 80.3199 65.5467C80.4021 65.5139 80.4952 65.5538 80.5285 65.6359C80.5613 65.7181 80.5214 65.8115 80.4393 65.8445C79.9844 66.0266 79.6226 66.1465 79.3327 66.211C79.0047 66.2839 78.4221 66.3462 78.0973 66.3462Z" fill="#3B6A03"/>
<path d="M77.9398 68.4675C77.8548 68.4675 77.7697 68.4654 77.6849 68.4614C77.5964 68.4571 77.5282 68.382 77.5324 68.2935C77.5366 68.205 77.6146 68.1373 77.7002 68.1411C78.0077 68.1562 78.3174 68.142 78.6206 68.1003C78.9117 68.0603 79.4656 67.9646 79.9055 67.7731C79.9868 67.7376 80.0812 67.7752 80.1165 67.8561C80.152 67.9374 80.1147 68.0318 80.0336 68.0671C79.5583 68.2739 78.9718 68.3757 78.6643 68.4178C78.4252 68.4509 78.1824 68.4675 77.9398 68.4675Z" fill="#3B6A03"/>
<path d="M11.058 66.3984C8.43318 70.9605 -1.65656 85.6445 3.90304 89.2791C8.3268 92.1712 17.3639 78.2134 20.2641 73.8521C17.1554 71.6875 14.1667 68.5631 11.058 66.3984Z" fill="#FDFFFD"/>
<path d="M3.35547 80.1547C3.35547 80.1547 10.5307 63.5365 15.381 59.3766C19.2294 56.0758 27.524 54.7756 35.3473 54.9187C45.939 55.1123 50.7556 59.573 50.7556 59.573L59.5701 70.1834L68.2908 63.8917L73.6001 71.5143C73.6001 71.5143 64.3784 81.705 60.2306 82.4328C54.2145 83.4883 46.5779 77.6001 46.5779 77.6001L47.4347 84.9422L18.3971 85.5349L19.6883 77.0233L16.2228 81.0127L3.35547 80.1547Z" fill="#3B6A03"/>
<path d="M45.7164 58.1289C45.7076 58.1289 45.6988 58.1281 45.6898 58.1267L39.4639 57.0826C39.4123 57.0741 39.3681 57.0407 39.3457 56.9934C39.3231 56.9462 39.3252 56.8909 39.351 56.8455L40.2014 55.3467C40.2349 55.2878 40.302 55.2565 40.368 55.2678L46.6507 56.3476C46.7032 56.3565 46.7479 56.3911 46.7698 56.4398C46.7916 56.4883 46.788 56.5447 46.7599 56.5901L45.8527 58.0531C45.8231 58.1008 45.7713 58.1289 45.7164 58.1289ZM39.743 56.8043L45.6368 57.7927L46.3619 56.6233L40.4246 55.6029L39.743 56.8043Z" fill="white"/>
<path d="M19.9117 58.6367C19.8568 58.6367 19.805 58.6085 19.7754 58.5609L18.8683 57.0979C18.8402 57.0525 18.8365 56.9961 18.8583 56.9476C18.8802 56.8989 18.9248 56.8643 18.9773 56.8554L25.2601 55.7756C25.3262 55.7643 25.3934 55.7957 25.4267 55.8545L26.2771 57.3533C26.3029 57.3986 26.305 57.454 26.2824 57.5012C26.2599 57.5485 26.2158 57.5819 26.1642 57.5905L19.9382 58.6345C19.9294 58.6359 19.9205 58.6367 19.9117 58.6367ZM19.2662 57.1311L19.9912 58.3004L25.8851 57.312L25.2034 56.1106L19.2662 57.1311Z" fill="white"/>
<path d="M69.0451 72.8202C68.9959 72.8202 68.9474 72.7977 68.916 72.7551L64.4297 66.6793C64.3772 66.608 64.3923 66.5077 64.4635 66.4551C64.5348 66.4025 64.6352 66.4177 64.6877 66.4889L69.1739 72.5647C69.2266 72.636 69.2114 72.7363 69.1401 72.7889C69.1115 72.81 69.0781 72.8202 69.0451 72.8202Z" fill="white"/>
<path d="M23.8505 70.015L17.7568 89.7677L32.9745 94.4623L39.0681 74.7096L23.8505 70.015Z" fill="#FFDA48"/>
<path d="M28.513 70.5853L27.8096 72.8654L34.1905 74.8339L34.8939 72.5538L28.513 70.5853Z" fill="#EFBC73"/>
<path d="M22.4044 82.0177C27.2695 83.2488 25.107 82.5305 26.2303 82.8033C28.3302 83.3131 32.8356 84.2752 32.7901 85.7573C32.7749 86.2502 32.424 86.7162 31.9022 86.9909C32.317 87.4684 32.4104 88.1384 32.141 88.6809C31.7871 89.3939 30.9991 89.499 30.9411 89.5058C31.3082 89.8302 31.4876 90.3067 31.3873 90.7415C31.2488 91.3413 30.5947 91.7884 29.8565 91.6899C29.9022 91.821 30.0489 92.2937 29.8283 92.7859C29.5839 93.3313 28.9873 93.6804 28.3175 93.6665C26.4514 93.215 23.3692 92.9259 19.7766 92.3803C11.4598 91.1172 19.1874 83.525 22.4044 82.0177Z" fill="#FDFFFD"/>
<path d="M29.6663 85.8628C29.6503 85.8628 29.6343 85.8605 29.6183 85.8555C29.5338 85.829 29.4867 85.739 29.5133 85.6544L29.7977 84.7474C29.8241 84.6628 29.9142 84.6157 29.9986 84.6423C30.0831 84.6688 30.1302 84.7588 30.1036 84.8431L29.8192 85.7506C29.7977 85.8191 29.7345 85.8628 29.6663 85.8628Z" fill="#3B6A03"/>
<path d="M28.9476 88.1658C28.9316 88.1658 28.9155 88.1635 28.8996 88.1584C28.815 88.132 28.768 88.042 28.7945 87.9575L29.079 87.0501C29.1054 86.9654 29.1954 86.9185 29.2799 86.945C29.3644 86.9715 29.4115 87.0615 29.3849 87.1458L29.1005 88.0533C29.079 88.1219 29.0158 88.1658 28.9476 88.1658Z" fill="#3B6A03"/>
<path d="M28.242 90.5193C28.2261 90.5193 28.2099 90.5169 28.1939 90.5119C28.1095 90.4855 28.0624 90.3954 28.0889 90.3111L28.3734 89.4036C28.3998 89.3191 28.49 89.272 28.5742 89.2986C28.6588 89.325 28.7058 89.4151 28.6793 89.4994L28.3949 90.4069C28.3735 90.4754 28.3102 90.5193 28.242 90.5193Z" fill="#3B6A03"/>
<path d="M27.5579 92.6402C27.5419 92.6402 27.5259 92.6379 27.5099 92.6329C27.4254 92.6064 27.3783 92.5164 27.4049 92.4318L27.6893 91.5247C27.7158 91.4402 27.8057 91.3931 27.8902 91.4197C27.9747 91.4461 28.0218 91.5362 27.9952 91.6206L27.7108 92.5279C27.6892 92.5964 27.6261 92.6402 27.5579 92.6402Z" fill="#3B6A03"/>
<path d="M16.4149 80.7943L23.644 82.2979L20.7146 92.6257L5.56864 90.2025C3.66023 89.8972 2.2563 88.2527 2.25593 86.3221L2.25586 85.963C2.2555 83.8759 2.6669 81.8092 3.46652 79.881L16.4149 80.7943Z" fill="#3B6A03"/>
<path d="M16.2104 91.9172C16.1973 91.9172 16.1841 91.9156 16.171 91.9123C16.0851 91.8906 16.033 91.8035 16.0547 91.7176L17.8124 84.7578C17.8341 84.672 17.922 84.6203 18.0071 84.6416C18.093 84.6634 18.1451 84.7504 18.1234 84.8364L16.3657 91.7961C16.3473 91.8688 16.282 91.9172 16.2104 91.9172Z" fill="white"/>
<path d="M22.5713 45.08C24.0817 43.9407 24.7201 43.8963 26.1378 43.0421C26.9224 42.5694 27.8807 40.9912 28.8203 42.0586C29.4689 42.7956 29.3325 44.3036 28.3582 45.0017C26.8055 46.1141 25.6362 45.2588 24.2967 46.5475C23.2871 47.5188 22.9006 49.5488 23.8748 50.7705C24.6021 51.6827 25.7993 51.7824 26.1248 51.7992C25.7581 52.4747 25.3914 53.1503 25.0247 53.8258C23.9918 53.3683 23.4043 52.879 22.7086 52.1287C23.0124 53.0782 23.5066 53.622 24.5368 54.302C23.9515 54.6535 23.3662 55.005 22.7809 55.3564C21.2999 54.016 20.8359 52.6459 20.6703 51.9929C19.9797 49.2688 20.8214 46.4001 22.5713 45.08Z" fill="#EFBC73"/>
<path d="M24.5231 47.0497C24.4408 47.0497 24.3708 46.9868 24.3636 46.9032L24.0465 43.2456C24.0428 43.2034 24.0561 43.1612 24.0834 43.1287C24.1109 43.0961 24.15 43.0758 24.1923 43.0722L25.7598 42.9363C25.8487 42.9276 25.9258 42.9939 25.9334 43.0822L26.2505 46.7398C26.2542 46.7821 26.2409 46.8243 26.2136 46.8568C26.1861 46.8893 26.147 46.9097 26.1046 46.9133L24.5371 47.0492C24.5324 47.0496 24.5277 47.0497 24.5231 47.0497ZM24.3798 43.3778L24.6691 46.7158L25.9173 46.6076L25.6279 43.2696L24.3798 43.3778Z" fill="#3B6A03"/>
<path d="M30.2564 40.1719C30.4609 40.0663 32.4339 39.0849 34.2195 39.989C35.5482 40.6617 36.1898 41.95 36.9394 44.2735C37.8222 47.0097 37.9676 48.7686 37.4108 49.6007C36.5309 50.9153 32.1582 50.5071 29.8641 48.7263C28.2082 47.4408 27.4571 45.2335 27.8354 43.1567C28.2127 41.0857 30.126 40.2393 30.2564 40.1719Z" fill="#FDFFFD"/>
<path d="M32.493 57.8169H32.3057C30.9525 57.8169 29.8555 56.7199 29.8555 55.3666V47.8157C29.8555 46.4624 30.9525 45.3654 32.3057 45.3654H32.493C33.8462 45.3654 34.9432 46.4624 34.9432 47.8157V55.3666C34.9432 56.7199 33.8462 57.8169 32.493 57.8169Z" fill="#FDFFFD"/>
<path d="M34.9426 50.6194C34.9416 50.6194 34.9406 50.6194 34.9396 50.6194C33.0817 50.5861 31.0593 49.9266 29.7876 48.9395C29.7177 48.8852 29.705 48.7845 29.7592 48.7145C29.8135 48.6446 29.9142 48.6319 29.9842 48.6862C31.2047 49.6337 33.1521 50.2667 34.9454 50.2987C35.0339 50.3003 35.1044 50.3734 35.1028 50.4619C35.1013 50.5496 35.0298 50.6194 34.9426 50.6194Z" fill="#3B6A03"/>
<path d="M32.2896 44.8014C32.2896 44.8014 32.8445 45.485 33.7067 45.8434C33.8884 45.919 34.1535 44.3103 33.9462 44.3205C33.0292 44.3653 32.2896 44.8014 32.2896 44.8014Z" fill="white"/>
<path d="M36.5897 45.575C36.5897 45.575 35.4779 46.2306 34.2905 46.0168C34.0829 45.9794 33.8871 45.9176 33.7047 45.8417C33.5081 45.3114 33.6142 44.739 33.9424 44.3204C34.1509 44.3099 34.3686 44.3196 34.5889 44.3592C35.7764 44.573 36.5897 45.575 36.5897 45.575Z" fill="#3B6A03"/>
<path d="M34.6707 52.0165C34.6143 52.0165 34.5595 51.9866 34.5303 51.9339C33.9933 50.9628 33.1253 48.9506 33.3457 46.3827C33.5463 44.0464 34.5287 42.3267 35.3175 41.2954C35.3715 41.225 35.4724 41.2119 35.5422 41.2655C35.6126 41.3192 35.626 41.4199 35.5722 41.4902C34.8093 42.4877 33.8592 44.1508 33.6652 46.4103C33.452 48.8935 34.2915 50.8396 34.8109 51.7786C34.8538 51.8561 34.8257 51.9536 34.7482 51.9965C34.7236 52.0101 34.697 52.0165 34.6707 52.0165Z" fill="#EFBC73"/>
<path d="M35.9944 47.8112C35.898 47.8112 35.8014 47.792 35.7108 47.7523C35.4112 47.6209 35.2987 47.3133 35.2795 47.1522C35.269 47.0643 35.3317 46.9845 35.4196 46.974C35.5076 46.9632 35.5873 47.0263 35.5979 47.1143C35.5991 47.1241 35.6326 47.3679 35.8395 47.4586C36.006 47.5316 36.211 47.4772 36.3376 47.3263C36.3944 47.2582 36.4956 47.2493 36.5634 47.3062C36.6314 47.3629 36.6404 47.464 36.5836 47.532C36.4327 47.7123 36.2136 47.8112 35.9944 47.8112Z" fill="#3B6A03"/>
<path d="M37.0264 45.2148C37.0704 45.3477 37.154 45.5355 37.3226 45.6975C37.526 45.8929 37.7027 45.9059 37.7592 46.058C37.797 46.16 37.784 46.3325 37.5208 46.6352L37.0264 45.2148Z" fill="#FDFFFD"/>
<path d="M37.5209 46.7958C37.4837 46.7958 37.4461 46.7828 37.4157 46.7566C37.349 46.6985 37.3419 46.5972 37.4 46.5304C37.6364 46.2584 37.6198 46.1429 37.6092 46.1139C37.5982 46.0845 37.5665 46.0633 37.4857 46.0148C37.4093 45.9691 37.3144 45.9122 37.2117 45.8134C37.0603 45.6681 36.9467 45.4838 36.8744 45.2655C36.8465 45.1815 36.8921 45.0908 36.976 45.063C37.0602 45.0353 37.1508 45.0808 37.1787 45.1648C37.2344 45.3327 37.3202 45.4732 37.4338 45.5821C37.5104 45.6557 37.5817 45.6986 37.6506 45.7399C37.7528 45.8013 37.8585 45.8647 37.9097 46.0023C37.9849 46.2056 37.8973 46.4471 37.642 46.7408C37.6102 46.7772 37.5657 46.7958 37.5209 46.7958Z" fill="#3B6A03"/>
<path d="M31.0181 48.4359C30.6835 48.4359 30.3375 48.3461 30.0215 48.172C29.9439 48.1292 29.9157 48.0317 29.9584 47.9542C30.0012 47.8766 30.0987 47.8486 30.1762 47.8911C30.5757 48.1112 31.0271 48.1729 31.4152 48.0605C31.4998 48.0357 31.5891 48.0848 31.6138 48.1698C31.6384 48.2548 31.5895 48.3437 31.5044 48.3683C31.3485 48.4135 31.1847 48.4359 31.0181 48.4359Z" fill="#3B6A03"/>
<path d="M26.6676 40.3399C29.7746 36.5554 35.6327 38.7523 36.123 42.1155C36.123 42.1155 34.0283 40.6658 34.0185 40.6272C33.8737 41.2788 33.5701 42.2526 32.8875 43.2617C31.8329 44.8205 30.4665 45.5866 29.7866 45.9097C30.0534 47.0155 30.4049 49.2574 30.7084 50.6832C30.7084 50.6832 21.5464 46.5781 26.6676 40.3399Z" fill="#EFBC73"/>
<path d="M32.1068 47.7784C32.6815 47.1592 32.5534 46.106 31.8207 45.4261C31.0881 44.7462 30.0283 44.6971 29.4536 45.3164C28.8789 45.9356 29.007 46.9888 29.7397 47.6687C30.4723 48.3486 31.5321 48.3977 32.1068 47.7784Z" fill="#FDFFFD"/>
<path d="M30.4007 47.3896C30.3707 47.3896 30.3403 47.3811 30.3134 47.3635C30.2536 47.3247 30.197 47.2804 30.1451 47.2321C29.9374 47.0394 29.8053 46.7882 29.7732 46.5248C29.7399 46.2513 29.8173 45.9975 29.9913 45.8101C30.0798 45.7149 30.1874 45.6431 30.3111 45.5965C30.3936 45.5651 30.4864 45.6072 30.5176 45.69C30.5488 45.7729 30.5069 45.8653 30.424 45.8965C30.3471 45.9254 30.2806 45.9698 30.2262 46.0283C30.1177 46.1452 30.0698 46.3078 30.0914 46.486C30.1144 46.6743 30.2109 46.8558 30.3632 46.9971C30.4019 47.0331 30.444 47.0658 30.4883 47.0949C30.5625 47.1432 30.5834 47.2425 30.5351 47.3167C30.5045 47.3638 30.453 47.3896 30.4007 47.3896Z" fill="#3B6A03"/>
<path d="M34.9074 40.0263L34.9179 37.9786C34.9179 37.9786 30.8904 39.7067 29.674 40.3937C28.4854 41.0649 25.2007 43.4105 25.2007 43.4105L26.1692 44.8806L34.9074 40.0263Z" fill="#FFDA48"/>
<path d="M22.9816 42.1709L25.2008 43.4098C25.2008 43.4098 30.6036 39.3948 34.919 38.2351L35.4909 35.0065C35.5338 34.75 35.2707 34.5193 34.9659 34.5668C32.7037 34.9193 26.9709 37.0031 22.7317 41.5256C22.5442 41.7258 22.7302 42.0306 22.9816 42.1709Z" fill="#3B6A03"/>
<path d="M34.9017 40.0227C34.9017 40.0227 36.1669 40.0207 36.5648 40.0177C37.1871 40.013 38.0096 40.1453 38.1504 40.5057C38.2547 40.7729 38.4598 41.0169 36.5201 41.6006C33.5781 42.4858 26.1465 44.8777 26.1465 44.8777C26.1465 44.8777 29.5585 42.8541 30.7275 42.206C31.7473 41.6404 34.9017 40.0227 34.9017 40.0227Z" fill="#3B6A03"/>
<path d="M45.045 27.2226C45.0383 27.2226 45.0317 27.222 45.0251 27.2208C44.9955 27.2156 44.9691 27.1987 44.9518 27.1739L38.7343 18.2706C38.6984 18.2192 38.711 18.1482 38.7625 18.1124L42.6373 15.4057C42.662 15.3883 42.6929 15.3813 42.7222 15.3869C42.7518 15.3921 42.7782 15.409 42.7956 15.4338L49.0131 24.3372C49.0489 24.3886 49.0364 24.4595 48.9848 24.4954L45.11 27.202C45.0908 27.2155 45.0681 27.2226 45.045 27.2226ZM38.9859 18.2337L45.0731 26.9506L48.7614 24.3741L42.6742 15.6571L38.9859 18.2337Z" fill="#FFDA48"/>
<path d="M45.0452 27.1107L43.9383 26.8157L39.5273 20.4993L39.6738 19.4189L39.9369 18.3338L41.2282 17.4318L42.3374 17.5582L43.4021 17.7926L47.813 24.1091L47.7089 25.2501L47.4457 26.3352L46.1545 27.2371L45.0452 27.1107Z" fill="#FFDA48"/>
<path d="M44.19 23.8337C45.017 23.5586 45.4644 22.665 45.1893 21.8378C44.9142 21.0106 44.0207 20.563 43.1937 20.838C42.3667 21.1131 41.9193 22.0067 42.1945 22.8339C42.4696 23.6611 43.363 24.1087 44.19 23.8337Z" fill="#EFBC73"/>
<path d="M41.228 17.4317C41.7335 18.1203 42.6979 18.284 43.4019 17.7926L42.5197 16.5294L41.228 17.4317Z" fill="#EFBC73"/>
<path d="M39.9367 18.334L38.645 19.2363L39.5272 20.4995C40.2309 20.0075 40.4091 19.0457 39.9367 18.334Z" fill="#EFBC73"/>
<path d="M47.4232 26.3069C47.4302 26.317 47.4383 26.3258 47.4454 26.3356L48.7371 25.4332L47.8128 24.1095C47.0986 24.6087 46.9242 25.5924 47.4232 26.3069Z" fill="#EFBC73"/>
<path d="M44.8624 28.1392L46.1542 27.2369C46.1475 27.2268 46.142 27.2162 46.135 27.2062C45.6359 26.4916 44.6525 26.3168 43.938 26.8155L44.8624 28.1392Z" fill="#EFBC73"/>
<path d="M44.6798 29.279C44.6731 29.279 44.6665 29.2785 44.6599 29.2772C44.6303 29.272 44.6039 29.2551 44.5866 29.2303L38.3691 20.327C38.3332 20.2756 38.3458 20.2047 38.3973 20.1688L42.272 17.4621C42.2967 17.4448 42.327 17.4379 42.3569 17.4433C42.3865 17.4485 42.4129 17.4655 42.4303 17.4902L48.6478 26.3936C48.6837 26.445 48.6711 26.516 48.6196 26.5518L44.7448 29.2584C44.7257 29.2719 44.7029 29.279 44.6798 29.279ZM38.6207 20.2901L44.7079 29.007L48.3962 26.4305L42.3089 17.7136L38.6207 20.2901Z" fill="white"/>
<path d="M18.8603 32.4964C18.8133 32.4964 18.7694 32.4671 18.753 32.4202L17.3012 28.2686C17.2913 28.2402 17.2931 28.2089 17.3062 28.1817C17.3192 28.1546 17.3426 28.1337 17.3711 28.1237L26.9101 24.7895C26.9697 24.769 27.0342 24.8001 27.055 24.8593L28.5067 29.0109C28.5166 29.0393 28.5148 29.0706 28.5017 29.0979C28.4887 29.1249 28.4653 29.1458 28.4368 29.1558L18.8979 32.49C18.8854 32.4943 18.8728 32.4964 18.8603 32.4964ZM17.5535 28.3009L18.9301 32.2379L28.2544 28.9786L26.8777 25.0417L17.5535 28.3009Z" fill="#FFDA48"/>
<path d="M28.3994 29.0483L27.857 29.966L21.0898 32.3314L20.1584 31.9288L19.2524 31.4205L18.7686 30.0369L19.1605 29.075L19.638 28.1799L26.4052 25.8145L27.4014 26.1944L28.3075 26.7028L28.7913 28.0863L28.3994 29.0483Z" fill="#FFDA48"/>
<path d="M23.8501 30.5245C24.6603 30.4853 25.2854 29.7969 25.2462 28.9869C25.207 28.1769 24.5185 27.552 23.7082 27.5912C22.898 27.6303 22.273 28.3188 22.3121 29.1288C22.3513 29.9388 23.0399 30.5637 23.8501 30.5245Z" fill="#EFBC73"/>
<path d="M18.7686 30.0367C19.5125 29.7568 19.9015 28.9339 19.6381 28.1797L18.2847 28.6528L18.7686 30.0367Z" fill="#EFBC73"/>
<path d="M19.2524 31.4212L19.7364 32.8052L21.0898 32.3321C20.8258 31.578 20.0088 31.1767 19.2524 31.4212Z" fill="#EFBC73"/>
<path d="M28.2763 26.7151C28.287 26.7113 28.297 26.7063 28.3075 26.7024L27.8235 25.3184L26.4053 25.8141C26.6732 26.5793 27.5107 26.9827 28.2763 26.7151Z" fill="#EFBC73"/>
<path d="M29.2752 29.47L28.7912 28.086C28.7805 28.0894 28.7696 28.0917 28.7589 28.0955C27.9933 28.363 27.5896 29.2003 27.8569 29.9658L29.2752 29.47Z" fill="#EFBC73"/>
<path d="M20.6124 33.3402C20.5654 33.3402 20.5215 33.3109 20.5051 33.264L19.0532 29.1125C19.0433 29.0841 19.0451 29.0528 19.0582 29.0256C19.0712 28.9985 19.0946 28.9776 19.123 28.9676L28.662 25.6333C28.7214 25.6126 28.7861 25.644 28.8069 25.7031L30.2586 29.8547C30.2685 29.8831 30.2667 29.9144 30.2536 29.9417C30.2406 29.9687 30.2172 29.9896 30.1888 29.9996L20.6499 33.3338C20.6375 33.3382 20.6249 33.3402 20.6124 33.3402ZM19.3055 29.1448L20.6822 33.0817L30.0064 29.8224L28.6297 25.8855L19.3055 29.1448Z" fill="white"/>
</g>
</g>
</g>
<defs>
<clipPath id="clip0_173_4166">
<rect width="94" height="120" fill="white"/>
</clipPath>
<clipPath id="clip1_173_4166">
<rect y="12" width="94.7442" height="97" rx="7.51938" fill="white"/>
</clipPath>
<clipPath id="clip2_173_4166">
<rect y="12" width="94.7442" height="97" rx="7.51938" fill="white"/>
</clipPath>
</defs>
</svg>
