<svg width="94" height="120" viewBox="0 0 94 120" fill="none" xmlns="http://www.w3.org/2000/svg">
<g clip-path="url(#clip0_177_11243)">
<rect width="94" height="120" fill="#DABD00"/>
<g clip-path="url(#clip1_177_11243)">
<path d="M47.188 107.372C73.2471 107.372 94.3721 86.2471 94.3721 60.188C94.3721 34.129 73.2471 13.0039 47.188 13.0039C21.129 13.0039 0.00390625 34.129 0.00390625 60.188C0.00390625 86.2471 21.129 107.372 47.188 107.372Z" fill="#3E41B5"/>
<path d="M22.5957 82.1755L20.9165 78.3387L19.0927 79.1369C18.6729 78.6174 18.1938 78.1596 17.6695 77.7696L18.3948 75.9153L14.4944 74.3896L13.7691 76.244C13.1194 76.1748 12.4568 76.186 11.796 76.2828L10.9978 74.4591L7.16099 76.1383L7.9592 77.9621C7.43971 78.3819 6.9819 78.861 6.59184 79.3852L4.73753 78.6599L3.21191 82.5603L5.06622 83.2856C4.99707 83.9354 5.00831 84.598 5.10511 85.2588L3.28132 86.057L4.96056 89.8938L6.78434 89.0956C7.20415 89.6151 7.68327 90.0729 8.2075 90.4629L7.4822 92.3172L11.3826 93.8429L12.1079 91.9885C12.7576 92.0577 13.4202 92.0465 14.0811 91.9497L14.8793 93.7734L18.716 92.0942L17.9178 90.2704C18.4373 89.8506 18.8951 89.3715 19.2852 88.8473L21.1395 89.5726L22.6651 85.6722L20.8108 84.9469C20.88 84.2971 20.8687 83.6345 20.7719 82.9737L22.5957 82.1755ZM14.6863 88.1096C12.4808 89.0749 9.91046 88.0695 8.94517 85.8641C7.97988 83.6586 8.98529 81.0882 11.1907 80.123C13.3962 79.1577 15.9666 80.1631 16.9318 82.3685C17.8972 84.574 16.8918 87.1444 14.6863 88.1096Z" fill="#D3BBA3"/>
<path d="M92.3328 53.1036L91.0748 49.9223L89.5296 50.5333C89.1993 50.098 88.8174 49.7119 88.3956 49.3802L89.0654 47.8786L85.8773 46.5379L85.2075 48.0395C84.6697 47.9676 84.1184 47.9614 83.5654 48.0251L82.9674 46.5129L79.7168 47.7982L80.3148 49.3105C79.8678 49.6421 79.4698 50.0238 79.1267 50.444L77.611 49.8066L76.202 52.9651L77.7177 53.6025C77.6368 54.133 77.6222 54.6759 77.679 55.2194L76.1338 55.8304L77.3918 59.0118L78.937 58.4008C79.2673 58.836 79.6492 59.2222 80.0711 59.5538L79.4012 61.0554L82.5893 62.3961L83.2592 60.8945C83.7969 60.9664 84.3482 60.9727 84.9012 60.9089L85.4992 62.4211L88.7498 61.1358L88.1518 59.6235C88.5988 59.2919 88.9968 58.9102 89.34 58.49L90.8556 59.1274L92.2646 55.9689L90.749 55.3315C90.8299 54.801 90.8444 54.2581 90.7877 53.7147L92.3328 53.1036ZM85.5427 57.7782C83.6742 58.5171 81.5732 57.6336 80.8501 55.8048C80.127 53.9761 81.0555 51.8947 82.924 51.1558C84.7926 50.4169 86.8935 51.3004 87.6166 53.1292C88.3397 54.9579 87.4112 57.0394 85.5427 57.7782Z" fill="#E2E3FF"/>
<path d="M65.5609 91.7268L64.8555 92.0794C64.6202 91.767 64.3628 91.4775 64.0867 91.2118L64.5208 90.554L62.2925 89.0825L61.8574 89.7418C61.5013 89.591 61.1339 89.4685 60.7587 89.3753L60.8057 88.5866L58.1409 88.4261L58.0939 89.213C57.7138 89.2599 57.3343 89.3369 56.9588 89.4456L56.6058 88.74L54.2185 89.9334L54.5715 90.639C54.2593 90.8741 53.97 91.1314 53.7044 91.4074L53.0464 90.9729L51.5763 93.2005L52.2358 93.636C52.0853 93.9921 51.963 94.3594 51.87 94.7347L51.0813 94.6871L50.9224 97.3521L51.7092 97.3995C51.7563 97.7797 51.8336 98.1593 51.9425 98.5348L51.2371 98.8875L52.4319 101.276L53.1373 100.923C53.3725 101.235 53.63 101.525 53.906 101.791L53.472 102.448L55.7003 103.92L56.1354 103.261C56.4914 103.411 56.8589 103.534 57.2341 103.627L57.1871 104.416L59.8519 104.576L59.8988 103.789C60.279 103.743 60.6585 103.666 61.0339 103.557L61.387 104.262L63.7742 103.069L63.4212 102.363C63.7334 102.128 64.0227 101.871 64.2883 101.595L64.9463 102.03L66.4163 99.8019L65.7569 99.3664C65.9074 99.0104 66.0297 98.643 66.1227 98.2678L66.9114 98.3153L67.0703 95.6504L66.2834 95.603C66.2364 95.2228 66.1591 94.8432 66.0502 94.4677L66.7555 94.115L65.5609 91.7268ZM64.1241 96.1504C64.2634 97.5038 63.8114 98.8615 62.8886 99.8607C59.7535 103.256 54.3421 101.451 53.8687 96.8521C53.7294 95.4986 54.1814 94.141 55.1042 93.1417C58.2394 89.7465 63.6507 91.5514 64.1241 96.1504Z" fill="#E2E3FF"/>
<path d="M59.0096 102.392C56.8466 102.392 54.7604 101.197 53.7282 99.1343C53.093 97.8645 52.9371 96.409 53.2893 95.036C53.6379 93.6766 54.4587 92.4859 55.6004 91.6833C55.6237 91.6669 55.6558 91.6726 55.6723 91.6958C55.6886 91.7191 55.6831 91.7513 55.6598 91.7677C53.3394 93.3988 52.5487 96.5459 53.8205 99.0881C54.8344 101.115 56.8845 102.288 59.0094 102.289C59.8781 102.289 60.759 102.093 61.5871 101.679C63.9453 100.5 65.2088 97.8768 64.6597 95.3005C64.6538 95.2727 64.6715 95.2453 64.6995 95.2393C64.7266 95.2333 64.7546 95.2511 64.7606 95.2791C65.3196 97.9013 64.0335 100.571 61.6333 101.771C60.7905 102.192 59.8935 102.392 59.0096 102.392Z" fill="#3E41B5"/>
<path d="M4.84972 77.3593L88.6748 77.3593L88.6748 17.9181L4.84972 17.9181L4.84972 77.3593Z" fill="#DABD00"/>
<path d="M86.0449 69.6347L86.0449 20.5483L7.47967 20.5483L7.47967 69.6347L86.0449 69.6347Z" fill="#E2E3FF"/>
<path d="M37.9382 78.6185H40.4199C40.4199 80.4801 41.9291 81.9893 43.7907 81.9893H49.7333C51.5948 81.9893 53.104 80.4801 53.104 78.6185H55.5856L58.0674 91.807V92.91H35.4565V91.807L37.9382 78.6185Z" fill="#DABD00"/>
<path d="M58.0677 94.3398H35.4568C35.4283 94.3398 35.4053 94.3168 35.4053 94.2883C35.4053 94.2597 35.4283 94.2367 35.4568 94.2367H58.0677C58.0962 94.2367 58.1192 94.2597 58.1192 94.2883C58.1192 94.3168 58.0961 94.3398 58.0677 94.3398Z" fill="#DABD00"/>
<path d="M75.8144 56.3159C76.0886 55.1547 75.3695 53.9911 74.2083 53.7169C73.0471 53.4427 71.8835 54.1618 71.6093 55.323C71.3351 56.4842 72.0541 57.6478 73.2154 57.922C74.3766 58.1962 75.5402 57.4771 75.8144 56.3159Z" fill="#E2E3FF"/>
<path d="M35.1296 64.7723H11.16C11.1314 64.7723 11.1084 64.7493 11.1084 64.7208V46.6465C11.1084 46.618 11.1314 46.5949 11.16 46.5949C11.1885 46.5949 11.2115 46.618 11.2115 46.6465V64.6692H35.1296C35.1582 64.6692 35.1812 64.6923 35.1812 64.7208C35.1812 64.7493 35.1582 64.7723 35.1296 64.7723Z" fill="#DABD00"/>
<path d="M28.8324 52.5803C28.8148 52.5803 28.7977 52.5713 28.7881 52.5552C28.7735 52.5307 28.7814 52.499 28.8059 52.4845L32.0773 50.5293C32.1017 50.5147 32.1334 50.5226 32.148 50.5471C32.1626 50.5716 32.1547 50.6032 32.1302 50.6178L28.8588 52.573C28.8505 52.5779 28.8414 52.5803 28.8324 52.5803Z" fill="#DABD00"/>
<path d="M26.7609 52.0573C26.7441 52.0573 26.7276 52.0492 26.7177 52.0341L22.2853 45.2862C22.2697 45.2624 22.2763 45.2304 22.3001 45.2148C22.3239 45.1992 22.3559 45.2057 22.3715 45.2296L26.8039 51.9774C26.8195 52.0012 26.8129 52.0331 26.7891 52.0488C26.7804 52.0546 26.7706 52.0573 26.7609 52.0573Z" fill="#DABD00"/>
<path d="M16.9545 47.6775C16.939 47.6775 16.9237 47.6706 16.9136 47.6574C16.8962 47.6348 16.9003 47.6025 16.9229 47.5851L20.3663 44.9249C20.3889 44.9074 20.4213 44.9116 20.4386 44.9341C20.456 44.9567 20.4519 44.9891 20.4293 45.0064L16.9859 47.6667C16.9766 47.6739 16.9654 47.6775 16.9545 47.6775Z" fill="#DABD00"/>
<path d="M15.8377 49.9865C15.0263 49.9865 14.3662 49.3264 14.3662 48.5151C14.3662 47.7037 15.0263 47.0436 15.8377 47.0436C16.649 47.0436 17.3092 47.7037 17.3092 48.5151C17.3092 49.3264 16.649 49.9865 15.8377 49.9865ZM15.8377 47.1467C15.0832 47.1467 14.4693 47.7605 14.4693 48.5151C14.4693 49.2696 15.0832 49.8834 15.8377 49.8834C16.5922 49.8834 17.206 49.2696 17.206 48.5151C17.206 47.7605 16.5922 47.1467 15.8377 47.1467Z" fill="#DABD00"/>
<path d="M21.5623 45.5688C20.7509 45.5688 20.0908 44.9087 20.0908 44.0973C20.0908 43.286 20.7509 42.6259 21.5623 42.6259C22.3737 42.6259 23.0338 43.286 23.0338 44.0973C23.0338 44.9087 22.3737 45.5688 21.5623 45.5688ZM21.5623 42.7291C20.8078 42.7291 20.194 43.3429 20.194 44.0973C20.194 44.8519 20.8078 45.4657 21.5623 45.4657C22.3168 45.4657 22.9306 44.8519 22.9306 44.0973C22.9306 43.3429 22.3168 42.7291 21.5623 42.7291Z" fill="#DABD00"/>
<path d="M27.5813 54.6795C26.77 54.6795 26.1099 54.0194 26.1099 53.208C26.1099 52.3967 26.77 51.7366 27.5813 51.7366C28.3927 51.7366 29.0528 52.3967 29.0528 53.208C29.0528 54.0194 28.3928 54.6795 27.5813 54.6795ZM27.5813 51.8397C26.8268 51.8397 26.213 52.4535 26.213 53.208C26.213 53.9626 26.8268 54.5764 27.5813 54.5764C28.3359 54.5764 28.9497 53.9626 28.9497 53.208C28.9497 52.4535 28.3359 51.8397 27.5813 51.8397Z" fill="#DABD00"/>
<path d="M33.3518 51.3678C32.5405 51.3678 31.8804 50.7076 31.8804 49.8963C31.8804 49.0849 32.5405 48.4248 33.3518 48.4248C34.1632 48.4248 34.8233 49.0849 34.8233 49.8963C34.8233 50.7076 34.1632 51.3678 33.3518 51.3678ZM33.3518 48.5279C32.5973 48.5279 31.9835 49.1417 31.9835 49.8963C31.9835 50.6508 32.5973 51.2646 33.3518 51.2646C34.1063 51.2646 34.7201 50.6508 34.7201 49.8963C34.7201 49.1417 34.1063 48.5279 33.3518 48.5279Z" fill="#DABD00"/>
<path d="M17.6909 52.1904H14.1597V61.873H17.6909V52.1904Z" fill="#DABD00"/>
<path d="M23.5186 50.2613H19.9873V61.8729H23.5186V50.2613Z" fill="#DABD00"/>
<path d="M29.3457 55.616H25.8145V61.8732H29.3457V55.616Z" fill="#DABD00"/>
<path d="M35.1734 53.8191H31.6421V61.8731H35.1734V53.8191Z" fill="#DABD00"/>
<path d="M73.118 41.131C70.8364 41.5073 68.5448 40.9725 66.6655 39.6252C64.7861 38.2779 63.5439 36.2793 63.1677 33.9977C62.7915 31.7161 63.3263 29.4245 64.6736 27.5452C66.0209 25.6658 68.0194 24.4236 70.301 24.0473C72.5826 23.6711 74.8742 24.2059 76.7536 25.5532C78.633 26.9005 79.8752 28.8991 80.2514 31.1807C80.6276 33.4623 80.0928 35.7539 78.7455 37.6332C77.3982 39.5126 75.3997 40.7548 73.118 41.131ZM70.7458 26.7446C67.5231 27.276 65.3335 30.3302 65.8649 33.5529C66.3963 36.7756 69.4506 38.9652 72.6733 38.4338C75.896 37.9024 78.0855 34.8481 77.5541 31.6254C77.0227 28.4027 73.9685 26.2132 70.7458 26.7446Z" fill="#3E41B5"/>
<path d="M73.0625 40.7935C70.871 41.1549 68.6699 40.6412 66.8646 39.3471C65.0594 38.053 63.8663 36.1333 63.5049 33.9418C63.1435 31.7502 63.6571 29.5491 64.9513 27.7439C66.2454 25.9387 68.1651 24.7455 70.3566 24.3841C72.5482 24.0228 74.7493 24.5364 76.5545 25.8306C78.3597 27.1247 79.5529 29.0443 79.9143 31.2359C80.2757 33.4275 79.7619 35.6286 78.4679 37.4338C77.1737 39.2389 75.2541 40.4322 73.0625 40.7935ZM70.6903 26.4071C67.2817 26.9692 64.9658 30.1995 65.5279 33.6081C66.0899 37.0168 69.3203 39.3326 72.7289 38.7706C76.1376 38.2085 78.4534 34.9781 77.8913 31.5695C77.3293 28.1608 74.0989 25.845 70.6903 26.4071Z" fill="#E2E3FF"/>
<path d="M72.3037 26.3526C74.9062 26.6011 77.147 28.4736 77.7913 31.0849L79.8187 30.7506C79.3704 28.7623 78.2246 27.0291 76.5544 25.8317C75.2951 24.929 73.8432 24.4065 72.3363 24.2954L72.3037 26.3526Z" fill="#D87355"/>
<path d="M77.9527 32.0625C78.2271 35.2846 75.973 38.2366 72.7289 38.7715C71.0257 39.0523 69.3671 38.6146 68.0635 37.6811L66.7368 39.254C66.7792 39.2856 66.8216 39.3171 66.8646 39.348C68.6698 40.6421 70.8709 41.1558 73.0625 40.7944C75.254 40.433 77.1737 39.2398 78.4678 37.4346C79.6652 35.7644 80.1939 33.7551 79.98 31.7281L77.9527 32.0625Z" fill="#3E41B5"/>
<path d="M67.6448 27.8241C68.4841 27.1059 69.523 26.6005 70.6902 26.408C70.8987 26.3736 71.1065 26.3502 71.313 26.337L71.3456 24.2814C71.0166 24.2965 70.6865 24.3307 70.3566 24.3851C68.7836 24.6445 67.3506 25.3325 66.1885 26.3677L67.6448 27.8241Z" fill="#EFBC73"/>
<path d="M64.9513 27.7452C63.6572 29.5504 63.1435 31.7515 63.5049 33.9431C63.8033 35.7528 64.6694 37.3767 65.9785 38.6165L67.3058 37.0428C66.3961 36.1455 65.7512 34.9638 65.5279 33.6094C65.216 31.7183 65.7903 29.8824 66.9453 28.5263L65.4894 27.0704C65.3 27.2847 65.1202 27.5096 64.9513 27.7452Z" fill="#F7F1EB"/>
<path d="M71.6837 34.6714C70.5358 34.6714 69.6021 33.7376 69.6021 32.5897C69.6021 31.4419 70.5358 30.5081 71.6837 30.5081C72.8315 30.5081 73.7653 31.4419 73.7653 32.5897C73.7653 33.7376 72.8315 34.6714 71.6837 34.6714ZM71.6837 30.6113C70.5928 30.6113 69.7052 31.4988 69.7052 32.5897C69.7052 33.6807 70.5928 34.5683 71.6837 34.5683C72.7746 34.5683 73.6622 33.6807 73.6622 32.5897C73.6622 31.4988 72.7746 30.6113 71.6837 30.6113Z" fill="#3E41B5"/>
<path d="M80.1339 44.9008H62.8306V65.7655H80.1339V44.9008Z" fill="#F7F1EB"/>
<path d="M72.7455 53.9306C72.7308 53.9306 72.7163 53.9243 72.7062 53.9125L71.6593 52.682H69.9913L68.5365 53.9183C68.5167 53.9352 68.4874 53.9346 68.4682 53.9171L65.7742 51.442L64.1152 52.1262C64.089 52.1369 64.0588 52.1246 64.0478 52.0982C64.037 52.0719 64.0495 52.0417 64.0759 52.0308L65.7652 51.3341C65.7835 51.3266 65.8049 51.3303 65.8197 51.3438L68.5045 53.8103L69.939 52.5912C69.9483 52.5832 69.9601 52.5789 69.9724 52.5789H71.6832C71.6983 52.5789 71.7126 52.5855 71.7225 52.597L72.757 53.8131L73.6629 53.2976L74.1113 50.2927C74.1133 50.2793 74.1204 50.2673 74.1313 50.2592L75.6005 49.1533C75.6128 49.144 75.6285 49.1408 75.6434 49.1442L77.6102 49.6072L79.3434 47.0434C79.3594 47.0199 79.3914 47.0136 79.415 47.0296C79.4386 47.0456 79.4448 47.0776 79.4289 47.1012L77.6757 49.6944C77.6638 49.7122 77.6424 49.7207 77.6212 49.7158L75.6433 49.2503L74.2103 50.3289L73.7613 53.3377C73.7589 53.3534 73.7496 53.367 73.7358 53.3749L72.771 53.9239C72.763 53.9284 72.7542 53.9306 72.7455 53.9306Z" fill="#D87355"/>
<path d="M65.701 64.508C65.6725 64.508 65.6494 64.485 65.6494 64.4565V52.1587C65.6494 52.1302 65.6725 52.1072 65.701 52.1072C65.7295 52.1072 65.7525 52.1302 65.7525 52.1587V64.4565C65.7525 64.485 65.7294 64.508 65.701 64.508Z" fill="#E2E3FF"/>
<path d="M68.5032 64.5083C68.4747 64.5083 68.4517 64.4852 68.4517 64.4567V55.0974C68.4517 55.0689 68.4747 55.0458 68.5032 55.0458C68.5317 55.0458 68.5548 55.0689 68.5548 55.0974V64.4567C68.5548 64.4852 68.5317 64.5083 68.5032 64.5083Z" fill="#E2E3FF"/>
<path d="M72.6663 64.5083C72.6378 64.5083 72.6147 64.4852 72.6147 64.4567V55.0974C72.6147 55.0689 72.6378 55.0458 72.6663 55.0458C72.6948 55.0458 72.7179 55.0689 72.7179 55.0974V64.4567C72.7179 64.4852 72.6948 64.5083 72.6663 64.5083Z" fill="#E2E3FF"/>
<path d="M75.6858 64.5083C75.6573 64.5083 75.6343 64.4852 75.6343 64.4567V49.8464C75.6343 49.8179 75.6573 49.7948 75.6858 49.7948C75.7144 49.7948 75.7374 49.8179 75.7374 49.8464V64.4567C75.7374 64.4852 75.7144 64.5083 75.6858 64.5083Z" fill="#E2E3FF"/>
<path d="M77.618 64.5079C77.5895 64.5079 77.5664 64.4849 77.5664 64.4564V50.6894C77.5664 50.6609 77.5895 50.6378 77.618 50.6378C77.6465 50.6378 77.6695 50.6609 77.6695 50.6894V64.4564C77.6695 64.4849 77.6465 64.5079 77.618 64.5079Z" fill="#E2E3FF"/>
<path d="M59.8679 31.7732C60.0862 34.0753 59.3949 36.3247 57.9215 38.1068C56.448 39.889 54.3687 40.9907 52.0666 41.2091C49.7645 41.4273 47.5152 40.7361 45.733 39.2627C43.9508 37.7892 42.8491 35.7099 42.6308 33.4078C42.4125 31.1057 43.1037 28.8564 44.5772 27.0742C46.0507 25.292 48.13 24.1903 50.4321 23.972C52.7342 23.7537 54.9835 24.4449 56.7657 25.9184C58.5479 27.3918 59.6496 29.4711 59.8679 31.7732ZM45.3522 33.1497C45.6606 36.4013 48.5568 38.7959 51.8085 38.4875C55.0601 38.1792 57.4547 35.2829 57.1464 32.0313C56.838 28.7796 53.9418 26.3851 50.6901 26.6934C47.4384 27.0017 45.0439 29.898 45.3522 33.1497Z" fill="#3E41B5"/>
<path d="M59.5278 31.8052C59.7375 34.0164 59.0735 36.177 57.6582 37.8888C56.2429 39.6007 54.2457 40.6589 52.0344 40.8686C49.8232 41.0783 47.6627 40.4144 45.9508 38.999C44.239 37.5837 43.1807 35.5865 42.9711 33.3753C42.7614 31.164 43.4253 29.0035 44.8406 27.2916C46.256 25.5798 48.2531 24.5216 50.4644 24.3119C52.6757 24.1022 54.8362 24.7661 56.548 26.1815C58.2598 27.5968 59.3181 29.594 59.5278 31.8052ZM45.0121 33.1817C45.3383 36.621 48.4016 39.1536 51.8408 38.8275C55.2801 38.5014 57.8128 35.438 57.4866 31.9988C57.1605 28.5596 54.0972 26.0269 50.6579 26.353C47.2187 26.6791 44.686 29.7425 45.0121 33.1817Z" fill="#E2E3FF"/>
<path d="M45.0682 31.5686C45.4952 28.9894 47.5174 26.8827 50.1669 26.4198L49.9729 24.3741C47.9584 24.6844 46.1505 25.7082 44.841 27.2921C43.8538 28.4862 43.2326 29.8988 43.0181 31.3945L45.0682 31.5686Z" fill="#D87355"/>
<path d="M51.153 26.3261C54.3865 26.2741 57.1762 28.726 57.4866 31.9992C57.6495 33.7177 57.0987 35.3423 56.0777 36.5785L57.5555 38.0103C57.59 37.9702 57.6244 37.9301 57.6581 37.8893C59.0734 36.1775 59.7374 34.0169 59.5277 31.8057C59.318 29.5944 58.2598 27.5972 56.5479 26.1819C54.964 24.8723 52.9959 24.2067 50.959 24.2805L51.153 26.3261Z" fill="#EFBC73"/>
<path d="M46.2155 36.3175C45.5567 35.4308 45.124 34.3596 45.0123 33.1819C44.9924 32.9716 44.9833 32.7627 44.9843 32.5557L42.9359 32.3818C42.9282 32.711 42.9396 33.0427 42.9712 33.3755C43.1217 34.9627 43.7095 36.4396 44.6623 37.6703L46.2155 36.3175Z" fill="#3E41B5"/>
<path d="M45.9511 38.9991C47.6629 40.4145 49.8235 41.0784 52.0347 40.8687C53.8607 40.6956 55.5403 39.9433 56.8673 38.7226L55.3887 37.2902C54.4309 38.136 53.2077 38.698 51.8411 38.8276C49.9331 39.0086 48.141 38.3092 46.8676 37.0637L45.3149 38.4159C45.5156 38.6196 45.7276 38.8144 45.9511 38.9991Z" fill="#DABD00"/>
<path d="M51.2488 34.6975C51.2008 34.6975 51.1526 34.6958 51.104 34.6925C50.5493 34.6542 50.0427 34.4022 49.6775 33.9829C49.3124 33.5636 49.1324 33.0272 49.1706 32.4725C49.2088 31.9177 49.4608 31.4111 49.8801 31.046C50.2994 30.6808 50.8358 30.5009 51.3906 30.539C51.9454 30.5773 52.4519 30.8293 52.8171 31.2486C53.1822 31.6679 53.3623 32.2043 53.3241 32.759C53.2484 33.8556 52.3319 34.6974 51.2488 34.6975ZM51.2443 30.6372C50.7671 30.6372 50.3112 30.8073 49.9478 31.1237C49.5493 31.4709 49.3099 31.9523 49.2735 32.4796C49.2371 33.0068 49.4082 33.5166 49.7553 33.9152C50.1024 34.3137 50.5839 34.5532 51.1111 34.5895C52.199 34.665 53.1461 33.8404 53.2211 32.7519C53.2575 32.2247 53.0864 31.7149 52.7393 31.3163C52.3922 30.9178 51.9107 30.6783 51.3835 30.642C51.3835 30.642 51.3835 30.642 51.3834 30.642C51.337 30.6388 51.2905 30.6372 51.2443 30.6372Z" fill="#3E41B5"/>
<path d="M59.6745 44.9008H42.3711V65.7655H59.6745V44.9008Z" fill="#F7F1EB"/>
<path d="M48.0437 53.9303H45.2413C45.2266 53.9303 45.2126 53.924 45.2028 53.913L43.5976 52.1125C43.5786 52.0912 43.5805 52.0586 43.6018 52.0397C43.6229 52.0208 43.6555 52.0225 43.6745 52.0439L45.2644 53.8272H48.0247L49.4794 52.5908C49.4888 52.5829 49.5006 52.5786 49.5128 52.5786H51.193L52.3515 50.4507L53.0569 48.82C53.0666 48.7976 53.0904 48.7851 53.1146 48.79L54.0396 48.9804L55.1793 49.1431L57.1853 49.6149C57.1912 49.6163 57.197 49.6189 57.2021 49.6223L58.9553 50.7979C58.979 50.8138 58.9853 50.8459 58.9694 50.8695C58.9536 50.8931 58.9215 50.8995 58.8979 50.8836L57.1524 49.7132L55.1601 49.2443L54.0219 49.082L53.1348 48.8995L52.444 50.4959L51.2688 52.6548C51.2598 52.6713 51.2424 52.6817 51.2235 52.6817H49.5316L48.0769 53.918C48.0678 53.926 48.0559 53.9303 48.0437 53.9303Z" fill="#EFBC73"/>
<path d="M45.2415 64.5083C45.213 64.5083 45.1899 64.4852 45.1899 64.4567V55.0974C45.1899 55.0689 45.213 55.0458 45.2415 55.0458C45.27 55.0458 45.2931 55.0689 45.2931 55.0974V64.4567C45.2931 64.4852 45.27 64.5083 45.2415 64.5083Z" fill="#E2E3FF"/>
<path d="M48.0438 64.5083C48.0152 64.5083 47.9922 64.4852 47.9922 64.4567V55.0974C47.9922 55.0689 48.0152 55.0458 48.0438 55.0458C48.0723 55.0458 48.0953 55.0689 48.0953 55.0974V64.4567C48.0953 64.4852 48.0722 64.5083 48.0438 64.5083Z" fill="#E2E3FF"/>
<path d="M51.2815 64.5085C51.253 64.5085 51.23 64.4855 51.23 64.4569V53.4108C51.23 53.3822 51.253 53.3592 51.2815 53.3592C51.3101 53.3592 51.3331 53.3822 51.3331 53.4108V64.4569C51.3331 64.4855 51.3101 64.5085 51.2815 64.5085Z" fill="#E2E3FF"/>
<path d="M55.2269 64.5083C55.1983 64.5083 55.1753 64.4852 55.1753 64.4567V49.8464C55.1753 49.8179 55.1983 49.7948 55.2269 49.7948C55.2554 49.7948 55.2784 49.8179 55.2784 49.8464V64.4567C55.2784 64.4852 55.2554 64.5083 55.2269 64.5083Z" fill="#E2E3FF"/>
<path d="M57.1585 64.5079C57.13 64.5079 57.1069 64.4849 57.1069 64.4564V50.6894C57.1069 50.6609 57.13 50.6378 57.1585 50.6378C57.187 50.6378 57.2101 50.6609 57.2101 50.6894V64.4564C57.2101 64.4849 57.187 64.5079 57.1585 64.5079Z" fill="#E2E3FF"/>
<path d="M37.6254 36.4545H10.8577C10.8292 36.4545 10.8062 36.4314 10.8062 36.4029V29.5149C10.8062 29.4864 10.8292 29.4634 10.8577 29.4634H37.6254C37.6539 29.4634 37.677 29.4864 37.677 29.5149V36.4029C37.677 36.4314 37.6539 36.4545 37.6254 36.4545ZM10.9093 36.3513H37.5738V29.5665H10.9093V36.3513Z" fill="#DABD00"/>
<path d="M34.3165 27.2488C33.175 26.9028 33.0398 25.2158 32.0876 25.2398C29.7299 25.2993 28.6595 32.6583 26.8714 32.5612C25.3953 32.481 25.1536 27.4134 23.4443 27.2489C21.6197 27.0733 20.3332 32.6965 18.3627 32.5612C16.6324 32.4424 16.7014 28.0434 13.6356 26.5707C13.1205 26.3233 12.5808 26.1894 12.0396 26.1364V34.9794H36.4437V26.6536C35.5228 27.2864 34.8373 27.4067 34.3165 27.2488Z" fill="#DABD00"/>
<path d="M22.2827 43.0174C21.9926 43.0174 21.6831 42.7542 21.5423 42.3606C21.3762 41.8961 21.507 41.4231 21.8339 41.3062C21.9958 41.2483 22.179 41.2844 22.3496 41.4079C22.5143 41.5271 22.6488 41.7149 22.728 41.9366C22.8073 42.1583 22.8225 42.3888 22.7707 42.5855C22.717 42.7891 22.5983 42.9331 22.4365 42.991C22.3865 43.0088 22.3349 43.0174 22.2827 43.0174ZM21.9899 41.3826C21.9481 41.3826 21.9074 41.3894 21.8686 41.4033C21.5952 41.501 21.4924 41.915 21.6393 42.3259C21.7864 42.7369 22.1286 42.9913 22.4017 42.8939C22.5306 42.8478 22.6262 42.7289 22.6709 42.5592C22.7174 42.3824 22.7033 42.1737 22.6309 41.9714C22.5586 41.769 22.4372 41.5986 22.2891 41.4914C22.1897 41.4195 22.0868 41.3826 21.9899 41.3826Z" fill="#363E44"/>
<path d="M21.9035 42.0719C21.462 40.8336 21.0954 40.1507 20.3692 39.8104C19.3933 39.353 18.3474 39.9137 18.2391 39.9739C18.17 40.0123 17.154 40.4992 16.9849 41.6201C16.8179 42.7272 17.243 43.884 18.1274 44.5538V48.221C18.1274 49.0151 18.7711 49.6587 19.5651 49.6587H19.745C20.539 49.6587 21.1827 49.0151 21.1827 48.221V45.3749C21.6864 45.3327 22.0849 45.1867 22.2446 44.9316C22.5307 44.4746 22.4235 43.5302 21.9035 42.0719Z" fill="white"/>
<path d="M21.9962 37.6921C21.7022 37.7403 21.4083 37.7884 21.1143 37.8366C21.1317 37.9421 21.1474 38.337 20.9555 38.6862C20.8916 38.273 20.7343 38.0567 20.6121 37.9188C19.5372 38.0948 18.4623 38.2709 17.3874 38.4469C17.4592 38.5488 17.6358 38.8289 17.6284 39.2177C17.6171 39.8043 17.196 40.1598 17.1305 40.2133C16.414 40.9863 16.1695 42.0703 16.5043 43.0234C16.9075 44.1716 17.9652 44.5994 18.1261 44.6614C18.3567 44.6285 18.5924 44.5912 18.8327 44.5489C19.2933 44.468 19.7325 44.3757 20.1494 44.2759C19.752 44.1449 19.5358 43.7863 19.491 43.4088C19.442 42.9953 19.7471 42.5336 20.1767 42.5176C20.4495 42.5073 20.6745 42.65 20.8752 43.0996C21.0358 43.014 21.2253 42.9002 21.3859 42.8146L20.7436 41.546C20.8105 41.5132 22.3376 40.7341 22.4136 39.2015C22.449 38.4888 22.1542 37.9413 21.9962 37.6921Z" fill="#363E44"/>
<path d="M20.9071 42.7599C20.8895 42.7599 20.8724 42.751 20.8628 42.7349C20.8482 42.7104 20.8561 42.6788 20.8806 42.6641L22.5216 41.6824C22.5461 41.6678 22.5778 41.6758 22.5924 41.7002C22.607 41.7247 22.599 41.7563 22.5746 41.7709L20.9335 42.7527C20.9252 42.7576 20.9161 42.7599 20.9071 42.7599Z" fill="#363E44"/>
<path d="M21.2053 45.3872C21.1774 45.3872 21.1545 45.3649 21.1538 45.3369L21.1377 44.7321C21.1369 44.7036 21.1594 44.6799 21.1879 44.6792C21.1884 44.6792 21.1889 44.6792 21.1893 44.6792C21.2171 44.6792 21.2401 44.7014 21.2408 44.7294L21.2569 45.3343C21.2577 45.3627 21.2351 45.3864 21.2067 45.3872C21.2062 45.3872 21.2057 45.3872 21.2053 45.3872Z" fill="#363E44"/>
<path d="M20.3809 43.5784C20.3669 43.5784 20.353 43.5728 20.3429 43.5616C20.2742 43.4866 20.213 43.4172 20.1494 43.3452C20.097 43.2859 20.0432 43.2247 19.982 43.1571C19.963 43.1359 19.9646 43.1034 19.9858 43.0843C20.0068 43.0652 20.0395 43.0668 20.0586 43.088C20.1199 43.156 20.1741 43.2174 20.2268 43.277C20.29 43.3486 20.3507 43.4175 20.419 43.4921C20.4382 43.5131 20.4368 43.5457 20.4158 43.5649C20.4059 43.5739 20.3934 43.5784 20.3809 43.5784Z" fill="#363E44"/>
<path d="M16.6382 102.185L10.8779 102.405L11.5997 94.8338L17.4073 95.5022L16.6382 102.185Z" fill="white"/>
<path d="M24.3978 105.942L9.75586 106.014L11.0761 100.302L16.8581 100.273L20.9666 101.543C23.0022 102.094 24.4065 103.895 24.3978 105.942Z" fill="#363E44"/>
<path d="M32.6383 101.247L27.2192 103.212L25.5991 95.781L31.3341 94.6476L32.6383 101.247Z" fill="white"/>
<path d="M39.9193 105.942L25.2773 106.014L26.5976 100.302L32.4456 100.273L36.4881 101.543C38.5237 102.094 39.928 103.895 39.9193 105.942Z" fill="#363E44"/>
<path d="M26.5739 59.5754C27.1634 61.0756 32.1087 96.0423 32.687 98.0847C29.8931 98.0847 27.0992 98.0847 24.3053 98.0847C23.9505 97.5067 20.6981 76.0693 20.4873 74.8885C20.3099 75.5736 18.2124 97.3757 18.035 98.0609C15.4491 98.0609 12.7611 98.0609 10.1753 98.0609C10.3175 95.8061 13.3522 60.2344 13.8218 58.901C17.6745 59.1258 22.7212 59.3506 26.5739 59.5754Z" fill="#363E44"/>
<path d="M28.872 48.5439C34.4852 49.7329 37.3707 51.0939 36.7471 53.1818C36.3853 54.393 33.0172 54.9897 28.5386 54.2863C28.6376 52.4757 28.7037 50.7317 28.872 48.5439Z" fill="white"/>
<path d="M10.7032 49.2716C3.91206 51.2815 0.78419 52.934 1.71204 55.0955C2.2503 56.3494 6.20201 56.8564 11.6397 55.5161C11.3769 53.584 11.0805 51.6 10.7032 49.2716Z" fill="white"/>
<path d="M6.84863 50.0081C6.84863 50.0081 13.3042 47.4349 18.6516 47.2422C23.2091 47.078 30.2536 48.2796 30.2536 48.2796L30.3259 55.994L27.5639 55.7181L28.3808 67.3133L11.9372 68.1483L11.3772 57.7938L10.1757 58.384L6.84863 50.0081Z" fill="#3E41B5"/>
<path d="M31.6098 51.0961C31.5233 49.6872 31.4653 46.4714 31.5617 44.0145C31.6629 41.4342 32.188 37.6393 32.7179 37.7196C33.0197 37.7654 33.0551 38.2978 33.0551 39.7269C33.1274 39.6546 33.3763 39.486 33.6493 39.5744C34.0533 39.7051 34.0614 40.0644 34.0748 40.0963C34.0974 40.0698 34.3478 39.7911 34.633 39.8329C34.9543 39.8798 35.1346 40.0963 35.2004 40.3425C35.2583 40.2785 35.496 40.0641 35.769 40.1124C36.0497 40.1619 36.3069 40.4175 36.2909 40.7146C36.2614 41.2595 36.1429 42.8775 36.1811 43.6719C36.2564 45.2353 37.269 50.751 36.7807 53.0392C35.0517 51.9847 33.3388 52.1506 31.6098 51.0961Z" fill="white"/>
<path d="M34.7655 50.4264C34.7578 50.4264 34.75 50.4247 34.7428 50.4211C33.9216 50.0172 32.8593 49.6409 31.4951 49.2706C31.4676 49.2631 31.4514 49.2349 31.4589 49.2073C31.4663 49.1798 31.4946 49.1634 31.5221 49.1711C32.8927 49.5431 33.9611 49.9217 34.7883 50.3284C34.8138 50.341 34.8243 50.3719 34.8118 50.3975C34.8028 50.4158 34.7845 50.4264 34.7655 50.4264Z" fill="#363E44"/>
<path d="M32.5637 40.5881C32.5602 40.5881 32.5567 40.5877 32.5533 40.587L32.1296 40.5006C32.1017 40.495 32.0837 40.4677 32.0894 40.4398C32.0951 40.4119 32.1226 40.3939 32.1503 40.3996L32.574 40.486C32.6019 40.4917 32.6199 40.5189 32.6141 40.5468C32.6091 40.5712 32.5877 40.5881 32.5637 40.5881Z" fill="#363E44"/>
<path d="M33.6393 40.8061C33.6359 40.8061 33.6325 40.8057 33.629 40.805L33.2053 40.7187C33.1774 40.713 33.1594 40.6858 33.1651 40.6578C33.1708 40.6299 33.1981 40.6119 33.226 40.6176L33.6496 40.704C33.6775 40.7096 33.6955 40.7369 33.6898 40.7648C33.6849 40.7893 33.6634 40.8061 33.6393 40.8061Z" fill="#363E44"/>
<path d="M34.7365 41.0155C34.7331 41.0155 34.7296 41.0151 34.7261 41.0144L34.3025 40.928C34.2746 40.9223 34.2566 40.8951 34.2623 40.8672C34.268 40.8393 34.2953 40.8213 34.3231 40.827L34.7468 40.9134C34.7747 40.919 34.7927 40.9463 34.787 40.9742C34.782 40.9987 34.7605 41.0155 34.7365 41.0155Z" fill="#363E44"/>
<path d="M35.7282 41.2261C35.7248 41.2261 35.7213 41.2257 35.7179 41.225L35.2942 41.1387C35.2663 41.1331 35.2483 41.1058 35.254 41.0779C35.2596 41.05 35.2869 41.032 35.3148 41.0377L35.7385 41.124C35.7664 41.1296 35.7844 41.1569 35.7787 41.1848C35.7737 41.2092 35.7522 41.2261 35.7282 41.2261Z" fill="#363E44"/>
<path d="M7.1117 53.4322C7.11185 53.4322 7.11195 53.4321 7.11201 53.4319C7.84406 48.291 8.46204 44.6575 8.60875 43.5283C8.62411 43.4101 8.65217 43.2015 8.6138 42.9306C8.47168 41.927 7.64547 41.6768 7.01449 40.6897C6.29853 39.5696 6.5295 38.5336 6.19297 38.4891C5.95886 38.4582 5.76172 38.8245 5.66436 39.6572H5.6642C5.66544 39.016 5.62914 38.1464 5.27482 38.1467C4.86573 38.169 4.78838 39.1957 4.77193 39.8191C4.79184 39.0645 4.57665 38.6573 4.37914 38.7068C4.06824 38.7846 3.91658 39.3661 3.92896 40.3644H3.92891C3.7278 39.6775 3.57665 39.5408 3.41272 39.6271C3.11337 39.7846 3.13905 40.6051 3.27292 41.327C3.4236 42.1397 3.82242 42.7177 4.08253 43.0761C4.08258 43.0762 4.08263 43.0763 4.08258 43.0764C3.19655 46.6239 1.24256 52.7866 1.56357 54.577C1.58559 54.6999 5.17766 53.4655 7.1117 53.4322Z" fill="white"/>
<path d="M8.60888 43.5285C9.00651 41.5377 8.95365 40.342 8.71552 40.2247C8.25657 39.9987 7.90936 41.1549 7.55566 42.2506C7.94453 42.6269 8.22001 43.1521 8.60888 43.5285Z" fill="white"/>
<path d="M7.16203 52.8513C7.15961 52.8513 7.15713 52.8511 7.1546 52.8508C7.1264 52.8467 7.10685 52.8206 7.11088 52.7924C7.23423 51.9357 7.36474 51.049 7.49877 50.157C7.50305 50.1289 7.52965 50.1097 7.55745 50.1136C7.58561 50.1178 7.60505 50.1441 7.60082 50.1723C7.46674 51.0642 7.33628 51.9506 7.21298 52.8071C7.20932 52.8328 7.18725 52.8513 7.16203 52.8513Z" fill="#363E44"/>
<path d="M5.96166 40.7256C5.94434 40.7256 5.92748 40.7169 5.91768 40.7011C5.82527 40.5511 5.75251 40.3897 5.7014 40.2212C5.64855 40.0471 5.619 39.8665 5.61379 39.6845C5.61297 39.656 5.6354 39.6323 5.66392 39.6315C5.69285 39.632 5.7161 39.653 5.71693 39.6816C5.72188 39.8543 5.74988 40.0259 5.8001 40.1913C5.84863 40.3513 5.91773 40.5046 6.0055 40.647C6.0204 40.6713 6.01287 40.703 5.98864 40.718C5.98028 40.7232 5.9709 40.7256 5.96166 40.7256Z" fill="#363E44"/>
<path d="M5.02856 41.0277C5.00938 41.0277 4.99097 41.017 4.9821 40.9986C4.89402 40.8162 4.82997 40.6229 4.79171 40.4238C4.75216 40.2182 4.74035 40.0075 4.75654 39.7974C4.75871 39.769 4.78217 39.7473 4.81192 39.75C4.84034 39.7522 4.86153 39.777 4.85937 39.8054C4.84384 40.0062 4.85519 40.2077 4.89299 40.4043C4.92955 40.5945 4.99076 40.7793 5.07492 40.9537C5.08729 40.9793 5.07657 41.0101 5.05089 41.0225C5.04372 41.026 5.03604 41.0277 5.02856 41.0277Z" fill="#363E44"/>
<path d="M4.35115 41.6423C4.33444 41.6423 4.31804 41.6343 4.30814 41.6193C4.18861 41.4392 4.0928 41.2441 4.02334 41.0395C3.9515 40.8278 3.90824 40.6072 3.89463 40.3837C3.89292 40.3553 3.91453 40.3309 3.94299 40.3291C3.97198 40.3282 3.99585 40.3491 3.99761 40.3775C4.01065 40.5918 4.05221 40.8033 4.12111 41.0063C4.18768 41.2025 4.27957 41.3896 4.39416 41.5623C4.40994 41.586 4.40344 41.618 4.37972 41.6337C4.37085 41.6396 4.3609 41.6423 4.35115 41.6423Z" fill="#363E44"/>
<path d="M79.4818 84.86H63.519V98.53H79.4818V84.86Z" fill="#DABD00"/>
<path d="M77.5746 82.9529H61.6118V96.6229H77.5746V82.9529Z" fill="#E2E3FF"/>
<path d="M93.7407 84.879H81.2806C81.2521 84.879 81.229 84.8559 81.229 84.8274C81.229 84.7989 81.2521 84.7758 81.2806 84.7758H93.7407C93.7692 84.7758 93.7923 84.7989 93.7923 84.8274C93.7923 84.8559 93.7692 84.879 93.7407 84.879Z" fill="#3E41B5"/>
<path d="M91.0943 87.8067H81.2806C81.2521 87.8067 81.229 87.7836 81.229 87.7551C81.229 87.7266 81.2521 87.7036 81.2806 87.7036H91.0943C91.1228 87.7036 91.1459 87.7266 91.1459 87.7551C91.1459 87.7836 91.1228 87.8067 91.0943 87.8067Z" fill="#3E41B5"/>
<path d="M92.7483 90.459H81.2806C81.2521 90.459 81.229 90.436 81.229 90.4075C81.229 90.3789 81.2521 90.3559 81.2806 90.3559H92.7483C92.7768 90.3559 92.7998 90.3789 92.7998 90.4075C92.7998 90.436 92.7767 90.459 92.7483 90.459Z" fill="#3E41B5"/>
<path d="M89.1695 93.2486H81.2806C81.2521 93.2486 81.229 93.2256 81.229 93.1971C81.229 93.1686 81.2521 93.1455 81.2806 93.1455H89.1695C89.1981 93.1455 89.2211 93.1686 89.2211 93.1971C89.2211 93.2256 89.1981 93.2486 89.1695 93.2486Z" fill="#3E41B5"/>
<path d="M67.7137 87.0805C67.9643 86.9552 68.2242 86.8681 68.4867 86.8169L68.3871 85.3954C67.9432 85.4639 67.5024 85.6012 67.0796 85.8126C66.0528 86.3261 65.3113 87.1862 64.9258 88.1807L66.2922 88.583C66.5653 87.9526 67.0526 87.4111 67.7137 87.0805Z" fill="#EFBC73"/>
<path d="M66.2138 90.7995C66.0387 90.3063 65.9998 89.7902 66.0815 89.2975L64.7151 88.8952C64.544 89.7241 64.6073 90.6065 64.9395 91.4368L66.2138 90.7995Z" fill="#EFBC73"/>
<path d="M73.196 88.1403L71.9218 88.7776C72.4255 90.1966 71.8024 91.8062 70.422 92.4966C69.0415 93.187 67.3799 92.72 66.5467 91.4657L65.2725 92.103C66.461 94.0551 68.9759 94.8047 71.056 93.7645C73.1362 92.7241 74.045 90.2622 73.196 88.1403Z" fill="#D87355"/>
<path d="M69.2294 86.7653C70.1624 86.8168 71.0492 87.2989 71.5886 88.111L72.8629 87.4737C72.0507 86.1396 70.619 85.3673 69.1299 85.344L69.2294 86.7653Z" fill="#EFBC73"/>
<path d="M49.2715 76.9261L48.2555 74.3566L47.0341 74.8396C46.7697 74.4871 46.4647 74.1739 46.1283 73.9043L46.6505 72.6989L44.1152 71.6005L43.593 72.8059C43.1662 72.7448 42.7291 72.7366 42.2911 72.7847L41.8081 71.5633L39.2386 72.5793L39.7216 73.8007C39.3691 74.0651 39.0559 74.3702 38.7863 74.7065L37.5809 74.1843L36.4825 76.7197L37.6879 77.2419C37.6269 77.6687 37.6185 78.1058 37.6667 78.5438L36.4453 79.0268L37.4613 81.5963L38.6827 81.1133C38.9472 81.4658 39.2522 81.779 39.5885 82.0486L39.0663 83.254L41.6017 84.3524L42.1239 83.147C42.5506 83.2081 42.9878 83.2163 43.4258 83.1682L43.9088 84.3896L46.4782 83.3736L45.9953 82.1522C46.3477 81.8877 46.661 81.5827 46.9305 81.2463L48.1359 81.7686L49.2344 79.2332L48.029 78.711C48.09 78.2843 48.0983 77.8471 48.0502 77.4091L49.2715 76.9261ZM43.9159 80.6507C42.4389 81.2348 40.768 80.5109 40.184 79.0339C39.5999 77.5569 40.3238 75.8861 41.8008 75.302C43.2778 74.718 44.9487 75.4419 45.5327 76.9189C46.1168 78.3959 45.3929 80.0667 43.9159 80.6507Z" fill="#E2E3FF"/>
</g>
</g>
<defs>
<clipPath id="clip0_177_11243">
<rect width="94" height="120" fill="white"/>
</clipPath>
<clipPath id="clip1_177_11243">
<rect x="-0.37207" y="11.5" width="94.7442" height="97" rx="7.51938" fill="white"/>
</clipPath>
</defs>
</svg>
