<svg width="292" height="408" viewBox="0 0 292 408" fill="none" xmlns="http://www.w3.org/2000/svg">
<rect width="292" height="408" rx="24" fill="#FFECEE"/>
<path d="M83.3473 78V77.872C83.7313 77.872 87.3153 77.296 87.3153 70.832V35.248C87.3153 28.784 83.7313 28.208 83.3473 28.208V28.08H101.651V28.208C101.267 28.208 97.6833 28.784 97.6833 35.248V70.832C97.6833 77.296 101.267 77.872 101.651 77.872V78H83.3473ZM108.261 40.688C108.261 31.92 115.813 27.184 125.541 27.184C131.365 27.184 134.885 28.08 139.429 28.08V38.576H139.301C138.917 36.528 138.213 33.904 135.973 31.856C133.989 30.128 130.853 28.848 125.669 28.848C120.421 28.848 115.557 30.96 115.557 35.888C115.557 40.304 119.653 42.672 123.237 44.72L132.261 49.84C139.493 53.936 142.437 58.736 142.437 64.24C142.437 72.816 135.333 78.384 123.557 78.384C119.461 78.384 113.509 78 109.413 78V64.688H109.541C109.861 67.504 110.501 70.576 112.741 73.008C114.725 75.184 118.053 76.72 122.981 76.72C131.429 76.72 134.117 72.752 134.117 68.656C134.117 65.328 132.453 62.448 126.245 58.928L116.773 53.552C111.333 50.48 108.261 46.64 108.261 40.688ZM183.973 28.08V38.192H183.845C183.845 37.424 183.141 29.744 175.909 29.744H163.621V53.488H175.269C180.901 53.488 181.477 47.856 181.477 47.28H181.541V61.36H181.477C181.477 60.784 180.901 55.152 175.269 55.152H163.621V70.832C163.621 77.296 167.205 77.872 167.589 77.872V78H149.285V77.872C149.669 77.872 153.253 77.296 153.253 70.832V35.248C153.253 28.784 149.669 28.208 149.285 28.208V28.08H183.973ZM190.067 91.44C194.291 91.44 194.803 83.952 194.803 78.192V35.248C194.803 28.784 191.219 28.208 190.835 28.208V28.08H209.139V28.208C208.755 28.208 205.171 28.784 205.171 35.248V78.064C205.171 86.704 199.155 91.568 190.067 91.568V91.44Z" fill="#E8606B"/>
<path d="M52.06 116V115.96C52.18 115.96 53.3 115.78 53.3 113.76V102.64C53.3 100.62 52.18 100.44 52.06 100.44V100.4H55.78L64.42 110.9V102.64C64.42 100.62 63.3 100.44 63.18 100.44V100.4H66.22V100.44C66.1 100.44 64.98 100.62 64.98 102.64V116.12L53.86 102.64V113.76C53.86 115.78 54.98 115.96 55.1 115.96V116H52.06ZM72.1228 119.86C73.1828 119.86 73.8628 119.44 74.3028 118.84C74.9828 117.9 75.1028 116.52 75.1028 115.52V114.4C74.4828 115.54 73.2228 116.24 71.8628 116.24C68.7828 116.24 66.8628 113.88 66.8628 110.56C66.8628 106.84 68.7828 104.08 72.1828 104.08C73.7828 104.08 74.5828 104.74 75.1028 105.46V104.28H79.5428V104.32C79.4228 104.32 78.3028 104.5 78.3028 106.52V115.2C78.3028 116.9 77.6628 118.08 76.7628 118.88C75.5428 119.98 73.8228 120.34 72.6028 120.34C70.6028 120.34 69.3028 119.64 68.5628 119.64V116.56H68.6228C68.8028 117.6 69.2828 118.34 69.8428 118.86C70.6428 119.6 71.6028 119.86 72.1228 119.86ZM70.0428 110.36C70.0428 113.12 71.0228 115.36 72.7628 115.36C73.7828 115.36 74.5228 114.76 75.1028 113.38V106.52C74.5828 105.42 73.8428 105.16 73.2628 105.16C71.4228 105.16 70.0428 107.2 70.0428 110.36ZM85.1914 116.2C84.1914 116.2 83.2914 115.9 82.6314 115.32C81.9914 114.74 81.5914 113.88 81.5914 112.74V106.52C81.5914 104.5 80.4714 104.32 80.3514 104.32V104.28H84.7914V112.48C84.7914 112.98 84.8314 113.64 85.0914 114.18C85.3514 114.7 85.8114 115.08 86.5114 115.08C87.9314 115.08 88.9514 113.66 88.9514 111.7V106.52C88.9514 104.5 87.8314 104.32 87.7114 104.32V104.28H92.1514V105.08C92.4714 104.82 92.5714 104.54 92.5914 104.28C92.5914 104.06 92.5114 103.54 91.7114 103.34V103.32L93.3714 102.16C93.6114 102.34 93.9514 102.96 93.9114 103.5C93.8514 104.46 92.8314 105.1 92.1514 105.4V113.76C92.1514 115.78 93.2714 115.96 93.3914 115.96V116H88.9514V113.92C88.4714 115.04 87.3914 116.2 85.1914 116.2ZM100.827 116.24C96.9469 116.24 95.0269 113.48 95.0269 110.16C95.0269 106.84 96.9469 104.08 100.827 104.08C102.307 104.08 103.507 104.48 104.427 105.16C104.567 104.96 104.607 104.74 104.587 104.56C104.567 104.34 104.447 103.84 103.627 103.7V103.68L105.187 102.38C105.447 102.54 105.827 103.14 105.847 103.68C105.867 104.42 105.287 105.02 104.727 105.42C105.987 106.54 106.627 108.26 106.627 110.16C106.627 113.48 104.707 116.24 100.827 116.24ZM98.3069 110.16C98.3069 113.12 98.9869 115.76 100.827 115.76C102.667 115.76 103.367 113.12 103.367 110.16C103.367 107.2 102.667 104.56 100.827 104.56C98.9869 104.56 98.3069 107.2 98.3069 110.16ZM98.7069 101.8V101.74L99.7669 100.26H99.8269C100.647 101.4 102.107 102.96 103.067 103.34L103.007 103.4C101.827 103.24 99.7269 102.58 98.7069 101.8ZM109.064 106.52C109.064 104.5 107.944 104.32 107.824 104.32V104.28H112.264V113.76C112.264 115.78 113.384 115.96 113.504 115.96V116H107.824V115.96C107.944 115.96 109.064 115.78 109.064 113.76V106.52ZM108.864 101.44C108.864 100.5 109.644 99.72 110.584 99.72C111.524 99.72 112.304 100.5 112.304 101.44C112.304 102.38 111.524 103.16 110.584 103.16C109.644 103.16 108.864 102.38 108.864 101.44ZM120.821 106.52C120.821 104.5 119.701 104.32 119.581 104.32V104.28H124.021V106.36C124.501 105.24 125.581 104.08 127.781 104.08C128.781 104.08 129.681 104.38 130.341 104.96C130.981 105.54 131.381 106.4 131.381 107.54V113.76C131.381 115.78 132.501 115.96 132.621 115.96V116H126.941V115.96C127.061 115.96 128.181 115.78 128.181 113.76V107.8C128.181 107.3 128.141 106.64 127.881 106.1C127.621 105.58 127.161 105.2 126.461 105.2C125.041 105.2 124.021 106.62 124.021 108.58V113.76C124.021 115.78 125.141 115.96 125.261 115.96V116H119.581V115.96C119.701 115.96 120.821 115.78 120.821 113.76V106.52ZM138.102 116.2C137.102 116.2 136.202 115.9 135.542 115.32C134.902 114.74 134.502 113.88 134.502 112.74V106.52C134.502 104.5 133.382 104.32 133.262 104.32V104.28H137.702V112.48C137.702 112.98 137.742 113.64 138.002 114.18C138.262 114.7 138.722 115.08 139.422 115.08C140.842 115.08 141.862 113.66 141.862 111.7V106.52C141.862 104.5 140.742 104.32 140.622 104.32V104.28H145.062V113.76C145.062 115.78 146.182 115.96 146.302 115.96V116H141.862V113.92C141.382 115.04 140.302 116.2 138.102 116.2ZM152.995 116.24C149.115 116.24 147.195 113.48 147.195 110.16C147.195 106.84 149.115 104.08 152.995 104.08C156.875 104.08 158.795 106.84 158.795 110.16C158.795 113.48 156.875 116.24 152.995 116.24ZM149.635 103.46L149.675 103.48C150.835 103.46 152.275 102.82 152.975 102.36H153.015C153.715 102.82 155.155 103.46 156.315 103.48L156.355 103.46C155.295 102.98 153.575 101.48 153.015 100.56H152.975C152.415 101.48 150.695 102.98 149.635 103.46ZM150.475 110.16C150.475 113.12 151.155 115.76 152.995 115.76C154.835 115.76 155.535 113.12 155.535 110.16C155.535 107.2 154.835 104.56 152.995 104.56C151.155 104.56 150.475 107.2 150.475 110.16ZM161.075 106.52C161.075 104.5 159.955 104.32 159.835 104.32V104.28H164.275V113.76C164.275 115.78 165.395 115.96 165.515 115.96V116H159.835V115.96C159.955 115.96 161.075 115.78 161.075 113.76V106.52ZM160.875 101.44C160.875 100.5 161.655 99.72 162.595 99.72C163.535 99.72 164.315 100.5 164.315 101.44C164.315 102.38 163.535 103.16 162.595 103.16C161.655 103.16 160.875 102.38 160.875 101.44ZM179.673 102.24C179.673 100.22 178.553 100.04 178.433 100.04V100H182.873V113.76C182.873 115.78 183.993 115.96 184.113 115.96V116H179.673V114.4C179.053 115.54 177.793 116.24 176.433 116.24C173.353 116.24 171.433 113.88 171.433 110.56C171.433 106.84 173.353 104.08 176.753 104.08C178.353 104.08 179.153 104.74 179.673 105.46V102.24ZM174.613 110.36C174.613 113.12 175.593 115.36 177.333 115.36C178.353 115.36 179.093 114.76 179.673 113.38V106.52C179.153 105.42 178.413 105.16 177.833 105.16C175.993 105.16 174.613 107.2 174.613 110.36ZM189.762 116.2C188.762 116.2 187.862 115.9 187.202 115.32C186.562 114.74 186.162 113.88 186.162 112.74V106.52C186.162 104.5 185.042 104.32 184.922 104.32V104.28H189.362V112.48C189.362 112.98 189.402 113.64 189.662 114.18C189.922 114.7 190.382 115.08 191.082 115.08C192.502 115.08 193.522 113.66 193.522 111.7V106.52C193.522 104.5 192.402 104.32 192.282 104.32V104.28H196.722V105.08C197.042 104.82 197.142 104.54 197.162 104.28C197.162 104.06 197.082 103.54 196.282 103.34V103.32L197.942 102.16C198.182 102.34 198.522 102.96 198.482 103.5C198.422 104.46 197.402 105.1 196.722 105.4V113.76C196.722 115.78 197.842 115.96 197.962 115.96V116H193.522V113.92C193.042 115.04 191.962 116.2 189.762 116.2ZM205.397 116.24C201.517 116.24 199.597 113.48 199.597 110.16C199.597 106.84 201.517 104.08 205.397 104.08C206.877 104.08 208.077 104.48 208.997 105.16C209.137 104.96 209.177 104.74 209.157 104.56C209.137 104.34 209.017 103.84 208.197 103.7V103.68L209.757 102.38C210.017 102.54 210.397 103.14 210.417 103.68C210.437 104.42 209.857 105.02 209.297 105.42C210.557 106.54 211.197 108.26 211.197 110.16C211.197 113.48 209.277 116.24 205.397 116.24ZM202.597 102.84C203.097 101.18 203.737 100.36 204.397 100.36C205.157 100.36 206.537 101.48 207.217 101.48C207.597 101.48 207.877 101.38 208.197 100.42H208.277C207.897 102.14 207.337 102.82 206.677 102.82C205.717 102.82 204.637 101.76 203.797 101.76C203.417 101.76 203.037 102.06 202.657 102.84H202.597ZM202.877 110.16C202.877 113.12 203.557 115.76 205.397 115.76C207.237 115.76 207.937 113.12 207.937 110.16C207.937 107.2 207.237 104.56 205.397 104.56C203.557 104.56 202.877 107.2 202.877 110.16ZM213.634 106.52C213.634 104.5 212.514 104.32 212.394 104.32V104.28H216.834V106.36C217.314 105.24 218.394 104.08 220.594 104.08C221.594 104.08 222.494 104.38 223.154 104.96C223.794 105.54 224.194 106.4 224.194 107.54V113.76C224.194 115.78 225.314 115.96 225.434 115.96V116H219.754V115.96C219.874 115.96 220.994 115.78 220.994 113.76V107.8C220.994 107.3 220.954 106.64 220.694 106.1C220.434 105.58 219.974 105.2 219.274 105.2C217.854 105.2 216.834 106.62 216.834 108.58V113.76C216.834 115.78 217.954 115.96 218.074 115.96V116H212.394V115.96C212.514 115.96 213.634 115.78 213.634 113.76V106.52ZM231.654 119.86C232.714 119.86 233.394 119.44 233.834 118.84C234.514 117.9 234.634 116.52 234.634 115.52V114.4C234.014 115.54 232.754 116.24 231.394 116.24C228.314 116.24 226.394 113.88 226.394 110.56C226.394 106.84 228.314 104.08 231.714 104.08C233.314 104.08 234.114 104.74 234.634 105.46V104.28H239.074V104.32C238.954 104.32 237.834 104.5 237.834 106.52V115.2C237.834 116.9 237.194 118.08 236.294 118.88C235.074 119.98 233.354 120.34 232.134 120.34C230.134 120.34 228.834 119.64 228.094 119.64V116.56H228.154C228.334 117.6 228.814 118.34 229.374 118.86C230.174 119.6 231.134 119.86 231.654 119.86ZM229.574 110.36C229.574 113.12 230.554 115.36 232.294 115.36C233.314 115.36 234.054 114.76 234.634 113.38V106.52C234.114 105.42 233.374 105.16 232.794 105.16C230.954 105.16 229.574 107.2 229.574 110.36Z" fill="#E8606B"/>
<g clip-path="url(#clip0_1_906)">
<g clip-path="url(#clip1_1_906)">
<path d="M144.864 388.372C213.272 388.372 268.728 332.917 268.728 264.508C268.728 196.1 213.272 140.644 144.864 140.644C76.4558 140.644 21 196.1 21 264.508C21 332.917 76.4558 388.372 144.864 388.372Z" fill="#E8606B"/>
<path d="M215.507 372.978C215.657 372.963 215.774 372.836 215.774 372.682C215.85 340.634 225.462 313.018 233.511 295.495C242.236 276.503 251.057 264.943 251.145 264.829C251.246 264.698 251.221 264.511 251.091 264.41C250.96 264.31 250.773 264.335 250.672 264.465C250.584 264.58 241.729 276.181 232.976 295.23C224.898 312.81 215.253 340.518 215.177 372.681C215.177 372.846 215.31 372.98 215.475 372.98C215.486 372.98 215.496 372.979 215.507 372.978Z" fill="#E6D0BE"/>
<path d="M245.547 272.542C245.547 272.542 243.179 262.206 260.406 250.574C260.406 250.574 260.414 271.031 245.547 272.542Z" fill="#E6D0BE"/>
<path d="M240.62 278.56C240.846 278.687 243.734 268.583 233.555 257.149C233.555 257.149 232.202 273.827 240.62 278.56Z" fill="#E6D0BE"/>
<path d="M234.991 288.049C234.991 288.049 234.896 278.974 221.024 269.717C221.024 269.717 227.098 288.157 234.991 288.049Z" fill="#E6D0BE"/>
<path d="M229.937 299.779C230.196 299.76 227.026 289.741 212.227 285.826C212.227 285.826 220.305 300.479 229.937 299.779Z" fill="#E6D0BE"/>
<path d="M226.283 308.827C226.283 308.827 221.343 302.377 206.422 303.124C206.422 303.124 220.681 313.102 226.283 308.827Z" fill="#E6D0BE"/>
<path d="M222.134 321.472C222.134 321.472 216.016 317.896 204.217 323.425C204.217 323.425 219.023 326.773 222.134 321.472Z" fill="#E6D0BE"/>
<path d="M242.102 279.962C241.906 279.842 248.48 273.238 261.734 276.175C261.734 276.175 249.407 284.433 242.102 279.962Z" fill="#E6D0BE"/>
<path d="M237.488 289.534C237.488 289.534 245.457 285.192 260.303 292.79C260.303 292.79 241.242 296.478 237.488 289.534Z" fill="#E6D0BE"/>
<path d="M232.42 301.916C232.31 301.681 242.603 299.563 253.237 310.576C253.237 310.576 236.505 310.668 232.42 301.916Z" fill="#E6D0BE"/>
<path d="M228.576 310.446C228.576 310.446 236.616 311.616 243.239 325.007C243.239 325.007 227.575 317.422 228.576 310.446Z" fill="#E6D0BE"/>
<path d="M224.293 322.53C224.293 322.53 230.398 326.128 231.323 339.126C231.323 339.126 221.182 327.831 224.293 322.53Z" fill="#E6D0BE"/>
<path d="M249.754 221.737C265.354 206.138 265.354 180.846 249.754 165.246C234.155 149.646 208.863 149.646 193.263 165.246C177.663 180.846 177.663 206.138 193.263 221.737C208.863 237.337 234.155 237.337 249.754 221.737Z" fill="#E6D0BE"/>
<path d="M227.303 233.572C227.224 233.572 227.146 233.571 227.066 233.571C216.36 233.509 206.319 229.282 198.792 221.668C191.266 214.055 187.154 203.966 187.216 193.259C187.278 182.554 191.505 172.512 199.119 164.986C206.676 157.515 216.673 153.409 227.29 153.409C227.37 153.409 227.448 153.409 227.527 153.409C238.234 153.471 248.275 157.698 255.801 165.312C263.328 172.926 267.439 183.015 267.377 193.721C267.316 204.427 263.089 214.468 255.475 221.995C247.918 229.465 237.92 233.572 227.303 233.572ZM227.293 153.68C205.446 153.68 187.613 171.386 187.487 193.261C187.426 203.895 191.509 213.916 198.985 221.478C206.461 229.041 216.434 233.239 227.068 233.3C227.144 233.301 227.224 233.301 227.301 233.301C249.148 233.303 266.981 215.595 267.107 193.72C267.168 183.086 263.085 173.065 255.609 165.503C248.133 157.94 238.16 153.742 227.526 153.68C227.449 153.68 227.369 153.68 227.293 153.68Z" fill="white"/>
<path d="M227.367 174.249C216.276 174.249 205.374 172.381 195.841 168.849L195.935 168.595C205.439 172.117 216.308 173.978 227.367 173.978C238.341 173.978 249.138 172.143 258.589 168.672L258.683 168.926C249.202 172.408 238.373 174.249 227.367 174.249Z" fill="white"/>
<path d="M195.57 217.833L195.475 217.579C205.099 213.957 216.128 212.042 227.367 212.042C238.546 212.042 249.523 213.938 259.11 217.523L259.015 217.777C249.458 214.202 238.514 212.313 227.367 212.313C216.16 212.313 205.165 214.222 195.57 217.833Z" fill="white"/>
<path d="M227.297 233.572C221.704 233.572 216.453 229.391 212.512 221.799C208.585 214.235 206.422 204.182 206.422 193.491C206.422 182.799 208.585 172.746 212.512 165.182C216.453 157.59 221.704 153.409 227.297 153.409C232.89 153.409 238.141 157.59 242.082 165.182C246.009 172.746 248.172 182.799 248.172 193.491C248.172 204.182 246.009 214.235 242.082 221.799C238.141 229.391 232.89 233.572 227.297 233.572ZM227.297 153.68C215.936 153.68 206.693 171.539 206.693 193.491C206.693 215.442 215.936 233.301 227.297 233.301C238.658 233.301 247.901 215.442 247.901 193.491C247.901 171.539 238.658 153.68 227.297 153.68Z" fill="white"/>
<path d="M227.432 153.63H227.162V233.384H227.432V153.63Z" fill="white"/>
<path d="M187.331 192.794L187.329 193.065L267.256 193.688L267.258 193.417L187.331 192.794Z" fill="white"/>
<path d="M163.703 178.495H158.002V176.867C157.298 176.732 156.599 176.545 155.921 176.311L155.108 177.719L150.17 174.869L150.985 173.457C150.444 172.987 149.933 172.476 149.463 171.935L148.051 172.75L145.201 167.813L146.609 166.999C146.375 166.321 146.188 165.622 146.053 164.919H144.425V159.217H146.053C146.188 158.514 146.375 157.815 146.609 157.137L145.201 156.323L148.051 151.386L149.463 152.201C149.933 151.66 150.444 151.149 150.985 150.679L150.17 149.267L155.108 146.417L155.921 147.825C156.599 147.591 157.298 147.404 158.002 147.269V145.641H163.703V147.269C164.406 147.404 165.105 147.59 165.784 147.825L166.597 146.417L171.534 149.267L170.719 150.679C171.26 151.148 171.771 151.659 172.241 152.201L173.653 151.386L176.504 156.323L175.095 157.137C175.33 157.816 175.517 158.514 175.652 159.217H177.279V164.919H175.652C175.517 165.621 175.33 166.32 175.095 166.999L176.504 167.813L173.653 172.75L172.241 171.935C171.771 172.476 171.26 172.988 170.719 173.457L171.534 174.869L166.597 177.719L165.784 176.311C165.105 176.545 164.406 176.732 163.703 176.867V178.495ZM158.272 178.224H163.432V176.642L163.543 176.622C164.307 176.482 165.066 176.278 165.799 176.018L165.906 175.981L166.696 177.35L171.164 174.77L170.372 173.398L170.458 173.325C171.048 172.82 171.604 172.265 172.109 171.674L172.182 171.588L173.554 172.38L176.134 167.912L174.765 167.122L174.802 167.015C175.063 166.281 175.266 165.522 175.406 164.759L175.426 164.648H177.008V159.488H175.426L175.406 159.377C175.266 158.614 175.063 157.855 174.802 157.121L174.765 157.015L176.134 156.224L173.554 151.756L172.182 152.548L172.109 152.462C171.604 151.871 171.048 151.316 170.458 150.812L170.372 150.739L171.164 149.366L166.696 146.786L165.906 148.155L165.799 148.118C165.066 147.858 164.307 147.655 163.543 147.514L163.432 147.494V145.912H158.272V147.494L158.162 147.514C157.398 147.654 156.639 147.857 155.905 148.118L155.799 148.155L155.009 146.786L150.54 149.366L151.332 150.738L151.247 150.811C150.656 151.316 150.1 151.871 149.596 152.462L149.523 152.548L148.151 151.756L145.571 156.224L146.94 157.014L146.902 157.121C146.642 157.854 146.439 158.613 146.299 159.377L146.278 159.488H144.696V164.648H146.278L146.299 164.759C146.439 165.522 146.642 166.282 146.902 167.015L146.94 167.121L145.571 167.912L148.151 172.38L149.523 171.588L149.596 171.673C150.1 172.264 150.656 172.819 151.247 173.324L151.332 173.397L150.54 174.769L155.009 177.349L155.799 175.98L155.905 176.018C156.639 176.278 157.398 176.481 158.162 176.621L158.272 176.642V178.224ZM160.878 173.94C157.732 173.94 154.716 172.74 152.448 170.472C149.146 167.169 148.109 162.282 149.741 157.716C150.873 154.552 153.337 152.088 156.501 150.956C161.067 149.324 165.954 150.362 169.257 153.664C172.559 156.966 173.596 161.854 171.963 166.419C170.832 169.584 168.368 172.048 165.203 173.179C163.774 173.69 162.312 173.94 160.878 173.94ZM160.825 150.467C159.422 150.467 157.992 150.711 156.593 151.211C153.504 152.316 151.1 154.72 149.996 157.808C148.399 162.274 149.412 167.053 152.64 170.28C155.867 173.508 160.646 174.521 165.112 172.924C168.2 171.82 170.604 169.416 171.708 166.328C173.305 161.862 172.292 157.083 169.065 153.856C166.849 151.639 163.901 150.467 160.825 150.467Z" fill="white"/>
<path d="M33.9097 338.114H219.062L219.063 197.776L33.9097 197.776L33.9097 338.114Z" fill="#D3BBA3"/>
<path d="M213.253 321.052L213.253 203.586L39.7187 203.586L39.7187 321.052H213.253Z" fill="#F2E6DC"/>
<path d="M123.001 328.893C123.001 330.818 124.561 332.379 126.486 332.379C128.411 332.379 129.971 330.818 129.971 328.893C129.971 326.969 128.411 325.408 126.486 325.408C124.561 325.408 123.001 326.969 123.001 328.893Z" fill="#F7F1EB"/>
<path d="M33.9097 341.919C33.9097 349.951 40.4213 356.463 48.4536 356.463H242.528C250.56 356.463 257.072 349.951 257.072 341.919H33.9097Z" fill="#E6D0BE"/>
<path d="M82.6453 355.092C76.213 355.092 70.98 349.859 70.98 343.427C70.98 343.352 71.0405 343.291 71.1154 343.291C71.1902 343.291 71.2507 343.352 71.2507 343.427C71.2507 349.709 76.3623 354.821 82.6453 354.821C82.7201 354.821 82.7806 354.882 82.7806 354.956C82.7806 355.031 82.72 355.092 82.6453 355.092Z" fill="#F2E6DC"/>
<path d="M178.45 351.672H156.693C153.21 351.672 150.377 348.839 150.377 345.357C150.377 345.282 150.438 345.221 150.513 345.221H184.63C184.705 345.221 184.765 345.282 184.765 345.357C184.765 348.839 181.932 351.672 178.45 351.672ZM150.65 345.492C150.722 348.763 153.405 351.402 156.693 351.402H178.45C181.738 351.402 184.421 348.763 184.493 345.492H150.65Z" fill="#F2E6DC"/>
<path opacity="0.5" d="M50.7886 182.415L51.1874 147.157L110.029 147.469L110.059 176.281L114.362 183.055L102.36 182.842L50.7886 182.415Z" fill="white"/>
<path d="M118.299 181.268C118.297 181.268 118.296 181.268 118.294 181.268L104.534 180.854L52.9658 180.427C52.9297 180.427 52.8953 180.412 52.8703 180.386C52.845 180.361 52.8311 180.326 52.8316 180.29L53.2304 145.032C53.2312 144.958 53.2915 144.898 53.3657 144.898C53.366 144.898 53.3664 144.898 53.3664 144.898L112.208 145.21C112.282 145.21 112.343 145.271 112.342 145.345L112.3 174.579L118.397 181.04C118.435 181.079 118.445 181.138 118.422 181.188C118.4 181.237 118.352 181.268 118.299 181.268ZM53.1036 180.157L104.539 180.584L117.975 180.988L112.066 174.726C112.043 174.701 112.03 174.667 112.03 174.633L112.072 145.48L53.4995 145.17L53.1036 180.157Z" fill="#8B865C"/>
<path d="M97.7876 155.309C97.7872 155.309 97.7868 155.309 97.7865 155.309L62.5498 155.017C62.475 155.016 62.4149 154.955 62.4155 154.881C62.4162 154.806 62.4766 154.746 62.5509 154.746C62.5513 154.746 62.5517 154.746 62.552 154.746L97.7887 155.038C97.8635 155.039 97.9236 155.1 97.923 155.175C97.9223 155.249 97.8619 155.309 97.7876 155.309Z" fill="#8B865C"/>
<path d="M103.386 155.355C103.386 155.355 103.386 155.355 103.385 155.355L101.19 155.337C101.115 155.337 101.055 155.275 101.056 155.201C101.056 155.126 101.117 155.066 101.191 155.066C101.191 155.066 101.192 155.066 101.192 155.066L103.387 155.085C103.462 155.085 103.522 155.146 103.522 155.221C103.521 155.296 103.461 155.355 103.386 155.355Z" fill="#8B865C"/>
<path d="M72.0854 161.675C72.085 161.675 72.0846 161.675 72.0844 161.675L62.4556 161.595C62.3807 161.594 62.3206 161.533 62.3213 161.458C62.322 161.384 62.3823 161.324 62.4567 161.324C62.4571 161.324 62.4575 161.324 62.4577 161.324L72.0865 161.404C72.1614 161.404 72.2215 161.466 72.2208 161.54C72.2201 161.615 72.1598 161.675 72.0854 161.675Z" fill="#8B865C"/>
<path d="M103.292 161.933C103.292 161.933 103.291 161.933 103.291 161.933L82.8731 161.764C82.7982 161.763 82.7381 161.702 82.7388 161.627C82.7395 161.553 82.7998 161.493 82.8741 161.493C82.8746 161.493 82.875 161.493 82.8752 161.493L103.293 161.662C103.368 161.663 103.428 161.724 103.427 161.799C103.427 161.873 103.366 161.933 103.292 161.933Z" fill="#8B865C"/>
<path d="M89.3575 168.396C89.3571 168.396 89.3567 168.396 89.3564 168.396L62.3613 168.173C62.2865 168.172 62.2264 168.111 62.2271 168.036C62.2277 167.962 62.2881 167.902 62.3624 167.902C62.3628 167.902 62.3632 167.902 62.3635 167.902L89.3586 168.126C89.4334 168.126 89.4935 168.187 89.4928 168.262C89.4922 168.336 89.4318 168.396 89.3575 168.396Z" fill="#8B865C"/>
<path d="M103.198 168.511C103.197 168.511 103.197 168.511 103.197 168.511L96.624 168.457C96.5492 168.456 96.4891 168.395 96.4898 168.32C96.4904 168.246 96.5508 168.186 96.6251 168.186C96.6255 168.186 96.6259 168.186 96.6262 168.186L103.199 168.24C103.274 168.241 103.334 168.302 103.333 168.377C103.332 168.451 103.272 168.511 103.198 168.511Z" fill="#8B865C"/>
<path d="M116.902 259.721H160.578C170.748 277.576 176.115 298.346 175.138 320.703H102.343C101.365 298.338 106.736 277.571 116.902 259.721Z" fill="#E8606B"/>
<path d="M109.583 223.647C84.9921 228.95 74.0127 234.154 74.5963 241.695C75.1981 249.471 91.4618 251.442 113.234 246.443C116.345 245.729 113.436 222.816 109.583 223.647Z" fill="white"/>
<path d="M169.738 221.151C169.738 221.151 162.898 219.745 154.599 218.668C149.739 218.037 139.599 230.827 139.599 230.827C139.599 230.827 128.541 218.049 123.152 218.857C114.864 220.099 107.983 221.719 107.983 221.719L113.891 265.372H163.056L169.738 221.151Z" fill="#FFCD61"/>
<path d="M114.691 254.327C119.64 254.327 123.652 250.316 123.652 245.367C123.652 240.419 119.64 236.407 114.691 236.407C109.743 236.407 105.731 240.419 105.731 245.367C105.731 250.316 109.743 254.327 114.691 254.327Z" fill="#FFCD61"/>
<path d="M144.917 252.303C142.107 252.303 139.498 251.035 137.76 248.822C137.714 248.764 137.724 248.679 137.783 248.632C137.842 248.586 137.927 248.596 137.973 248.655C139.66 250.802 142.19 252.033 144.917 252.033C149.783 252.033 153.741 248.074 153.741 243.208C153.741 243.133 153.802 243.073 153.877 243.073C153.952 243.073 154.012 243.133 154.012 243.208C154.012 248.223 149.932 252.303 144.917 252.303Z" fill="#363E44"/>
<path d="M94.5322 233.569C94.5323 233.569 89.8121 205.871 88.8895 201.475C88.7929 201.015 88.6261 200.201 88.1309 199.243C86.2961 195.69 82.8941 195.833 79.2605 192.979C75.1375 189.739 74.65 185.581 73.339 185.853C72.427 186.042 72.1694 187.663 72.8901 190.89C72.8901 190.89 72.8897 190.891 72.8895 190.89C72.0601 188.501 70.7937 185.31 69.4748 185.772C67.9805 186.387 69.028 190.311 69.7776 192.654C68.8701 189.818 67.5393 188.582 66.8681 189.023C65.8117 189.717 66.0032 192.08 67.348 195.781L67.3477 195.781C65.7053 193.485 64.9647 193.173 64.4664 193.707C63.5567 194.683 64.7195 197.705 66.157 200.219C67.7752 203.049 70.0121 204.683 71.4472 205.679C71.4476 205.679 71.4479 205.68 71.4479 205.68C72.763 220.043 73.5485 229.283 74.4158 240.902C74.8619 246.88 93.0067 245.421 94.5322 233.569Z" fill="white"/>
<path d="M81.9826 196.374C81.3067 191.23 82.1531 189.232 82.9717 189.151C84.3482 189.014 86.7229 193.17 88.6578 200.563C86.6934 199.563 83.9469 197.374 81.9826 196.374Z" fill="white"/>
<path d="M79.7588 204.862C79.6918 204.862 79.6336 204.812 79.6248 204.744C79.5082 203.848 79.1496 202.526 78.1031 201.314C76.6216 199.598 74.6701 199.195 73.8997 199.101C73.8255 199.092 73.7727 199.024 73.7818 198.95C73.7907 198.876 73.8584 198.823 73.9324 198.832C74.734 198.93 76.7648 199.35 78.3079 201.137C79.3984 202.4 79.7719 203.777 79.8931 204.709C79.9027 204.783 79.8504 204.851 79.7764 204.86C79.7704 204.861 79.7645 204.862 79.7588 204.862Z" fill="#363E44"/>
<path d="M86.3551 197.418C86.3252 197.418 86.2952 197.408 86.2701 197.388C85.4016 196.685 84.3695 196.198 83.2771 195.682C82.757 195.436 82.2194 195.182 81.6656 194.891C81.5996 194.856 81.574 194.774 81.6089 194.708C81.6436 194.642 81.7254 194.616 81.7918 194.651C82.3403 194.94 82.8753 195.193 83.3927 195.437C84.5004 195.96 85.5467 196.454 86.4405 197.177C86.4987 197.224 86.5077 197.309 86.4606 197.368C86.4338 197.401 86.3947 197.418 86.3551 197.418Z" fill="#363E44"/>
<path d="M75.7767 194.761C75.7457 194.761 75.7143 194.751 75.689 194.729C75.2021 194.314 74.752 193.852 74.351 193.356C73.7689 192.636 73.2845 191.838 72.9113 190.986C72.8813 190.917 72.9126 190.837 72.981 190.807C73.0501 190.777 73.1295 190.809 73.1593 190.877C73.5229 191.708 73.9947 192.484 74.5614 193.186C74.9519 193.669 75.3904 194.119 75.8644 194.523C75.9214 194.572 75.9282 194.657 75.8796 194.714C75.8529 194.745 75.8149 194.761 75.7767 194.761Z" fill="#363E44"/>
<path d="M72.5601 196.154C72.5288 196.154 72.4977 196.143 72.4721 196.121C71.9851 195.706 71.535 195.244 71.1343 194.748C70.5525 194.028 70.068 193.231 69.6945 192.378C69.6645 192.31 69.6958 192.23 69.7643 192.2C69.8333 192.17 69.9127 192.201 69.9425 192.27C70.3064 193.1 70.7782 193.877 71.3447 194.578C71.7351 195.061 72.1734 195.511 72.6478 195.916C72.7046 195.964 72.7114 196.05 72.6628 196.106C72.6363 196.138 72.5982 196.154 72.5601 196.154Z" fill="#363E44"/>
<path d="M70.1439 199.667C70.1128 199.667 70.0815 199.656 70.0561 199.635C69.5687 199.219 69.1187 198.757 68.7183 198.261C68.1365 197.541 67.652 196.744 67.2785 195.891C67.2485 195.823 67.2797 195.743 67.3482 195.713C67.4173 195.683 67.4967 195.714 67.5265 195.783C67.8904 196.613 68.3622 197.39 68.9287 198.091C69.3187 198.574 69.757 199.024 70.2318 199.429C70.2886 199.477 70.2954 199.563 70.2468 199.62C70.2203 199.651 70.1821 199.667 70.1439 199.667Z" fill="#363E44"/>
<path opacity="0.5" d="M117.733 228.352C118.849 232.508 116.41 240.049 114.692 243.522C110.94 251.106 107.937 255.579 97.9087 248.797C96.1538 240.072 95.4362 236.406 93.7373 227.813C94.9504 224.2 96.1537 215.03 105.732 215.03C111.034 215.03 115.608 220.439 117.733 228.352Z" fill="#FFCD61"/>
<path d="M106.075 252.269C103.85 252.269 101.182 251.174 97.8329 248.91L97.787 248.879L97.776 248.824C96.3219 241.594 95.5992 237.936 94.4019 231.874L93.5977 227.804L93.609 227.77C93.7602 227.319 93.9086 226.792 94.0803 226.182C95.2673 221.96 97.2539 214.895 105.732 214.895C108.339 214.895 110.861 216.188 113.025 218.634C115.127 221.01 116.801 224.358 117.864 228.318C118.944 232.34 116.682 239.804 114.813 243.582C112.761 247.732 110.804 251.235 107.641 252.071C107.143 252.202 106.623 252.269 106.075 252.269ZM98.0305 248.716C102.111 251.468 105.144 252.451 107.571 251.809C110.625 251.002 112.548 247.551 114.57 243.462C116.421 239.721 118.664 232.343 117.602 228.388C116.55 224.469 114.897 221.158 112.822 218.814C110.711 216.427 108.259 215.166 105.732 215.166C97.4588 215.166 95.5069 222.108 94.3407 226.255C94.1795 226.829 94.0269 227.372 93.8771 227.822L94.6675 231.822C95.8619 237.868 96.5838 241.523 98.0305 248.716Z" fill="#FFCD61"/>
<path d="M112.967 226.276C112.717 226.276 112.293 226.046 111.521 225.626C110.497 225.068 108.949 224.226 106.56 223.211C104.175 222.198 102.324 221.596 100.973 221.156C99.327 220.62 98.6457 220.398 98.6943 219.976C98.7083 219.855 98.7893 219.742 98.9354 219.64C99.6813 219.119 102.434 218.763 105.05 219.391C109.629 220.492 112.727 224.29 113.189 225.615C113.279 225.875 113.28 226.057 113.19 226.171C113.135 226.242 113.064 226.276 112.967 226.276ZM98.9632 220.008C98.94 220.209 99.921 220.528 101.057 220.898C102.413 221.34 104.27 221.945 106.666 222.962C109.067 223.982 110.622 224.828 111.651 225.388C112.305 225.743 112.871 226.051 112.981 226.001C112.988 225.989 113.003 225.899 112.928 225.689C112.467 224.404 109.427 220.722 104.987 219.655C102.444 219.044 99.7958 219.369 99.0904 219.862C98.9789 219.94 98.9648 219.993 98.9632 220.008Z" fill="#FFCD61"/>
<path d="M99.0258 230.889C98.9084 230.889 98.8196 230.851 98.7513 230.773C98.6714 230.681 98.6424 230.545 98.6653 230.368C98.782 229.466 100.372 227.19 102.598 225.68C106.495 223.035 111.389 223.301 112.68 223.853C112.933 223.961 113.068 224.083 113.092 224.226C113.145 224.544 112.715 224.694 111.565 225.093C110.463 225.475 108.798 226.052 106.439 227.135C104.084 228.217 102.393 229.179 101.158 229.882C100.021 230.528 99.3878 230.889 99.0258 230.889ZM110.086 223.76C108.032 223.76 105.186 224.251 102.75 225.904C100.586 227.373 99.0442 229.55 98.9339 230.403C98.9164 230.538 98.9459 230.584 98.9554 230.595C99.0889 230.747 99.9853 230.238 101.024 229.647C102.263 228.941 103.961 227.975 106.326 226.889C108.697 225.801 110.369 225.221 111.476 224.837C112.179 224.593 112.787 224.382 112.825 224.267C112.821 224.253 112.765 224.181 112.558 224.096C112.11 223.909 111.219 223.76 110.086 223.76Z" fill="#FFCD61"/>
<path d="M135.514 270.043C137.498 269.478 139.317 270.313 139.403 269.946C139.468 269.671 138.371 269.2 137.305 269.076C135.546 268.871 132.871 270.61 132.014 269.536C131.175 268.484 133.178 266.36 135.71 265.462C137.845 264.705 139.906 265.827 140.016 265.372C140.092 265.052 139.224 264.551 137.237 263.755C135.579 263.089 131.925 262.627 132.362 260.787C132.73 259.24 136.572 259.385 140.089 260.173C142.42 260.696 144.717 261.497 146.061 261.905C145.829 261.196 145.424 260.121 144.739 258.907C143.515 256.744 142.794 256.127 143.368 255.16C143.958 254.163 145.738 255.043 147.432 256.531C149.452 258.306 150.189 260.378 150.832 261.456C155.368 259.663 165.098 256.077 169.634 254.284C169.287 254.036 167.049 251.154 165.502 249.189L169.145 225.081C173.206 228.868 196.687 252.734 195.265 258.866C193.71 265.57 161.053 276.892 152.013 278.841C150.887 279.504 149.1 280.322 146.94 280.229C144.477 280.123 143.887 278.934 141.306 278.418C136.949 277.546 134.309 280.19 133.491 278.845C132.929 277.922 134.401 276.315 136.125 275.198C137.895 274.051 139.522 274.054 139.497 273.71C139.47 273.332 137.816 273.542 135.736 273.615C134.77 273.649 132.173 275.376 131.22 274.228C130.461 273.313 132.711 270.842 135.514 270.043Z" fill="white"/>
<path d="M150.202 263.995C150.176 263.995 150.149 263.987 150.126 263.971C148.81 263.074 146.967 262.374 145.985 262.037C145.914 262.013 145.877 261.936 145.901 261.865C145.925 261.794 146.001 261.756 146.073 261.781C147.068 262.122 148.936 262.832 150.278 263.748C150.34 263.79 150.356 263.874 150.314 263.936C150.288 263.974 150.245 263.995 150.202 263.995Z" fill="#363E44"/>
<path opacity="0.5" d="M163.316 223.961C166.981 221.032 173.429 220.115 177.248 220.968C185.586 222.831 192.206 231.308 188.564 246.312C180.999 249.016 177.204 251.348 169.639 254.052C167.893 253.573 159.465 248.667 157.859 240.092C157.63 238.871 156.337 229.54 163.316 223.961Z" fill="#FFCD61"/>
<path d="M169.644 254.194L169.603 254.183C168.609 253.91 166.015 252.457 163.604 250.207C161.399 248.148 158.589 244.727 157.726 240.117C157.647 239.696 155.877 229.734 163.232 223.856C166.951 220.883 173.419 219.974 177.277 220.836C181.342 221.744 184.781 224.175 186.961 227.679C189.909 232.42 190.509 238.874 188.696 246.344L188.679 246.415L188.61 246.44C184.832 247.79 181.947 249.069 179.156 250.306C176.362 251.545 173.472 252.826 169.684 254.18L169.644 254.194ZM174.129 220.794C170.534 220.794 166.184 221.843 163.401 224.067C156.172 229.845 157.914 239.652 157.992 240.067C159.535 248.305 167.614 253.318 169.634 253.91C173.392 252.565 176.267 251.291 179.047 250.059C181.825 248.827 184.696 247.554 188.45 246.21C190.225 238.841 189.631 232.485 186.731 227.822C184.59 224.38 181.212 221.993 177.218 221.1C176.311 220.898 175.257 220.794 174.129 220.794Z" fill="#FFCD61"/>
<path d="M181.249 230.332C180.998 230.332 180.575 230.102 179.803 229.682C178.779 229.125 177.231 228.283 174.842 227.268C172.457 226.255 170.606 225.652 169.255 225.212C167.609 224.676 166.927 224.454 166.976 224.033C166.99 223.912 167.071 223.799 167.217 223.697C167.963 223.176 170.716 222.819 173.332 223.448C177.911 224.548 181.009 228.346 181.471 229.672C181.561 229.932 181.561 230.114 181.472 230.228C181.417 230.298 181.346 230.332 181.249 230.332ZM167.245 224.064C167.222 224.265 168.203 224.585 169.339 224.955C170.695 225.396 172.552 226.001 174.947 227.019C177.349 228.039 178.904 228.884 179.932 229.444C180.586 229.8 181.153 230.108 181.262 230.058C181.27 230.046 181.285 229.956 181.21 229.745C180.748 228.46 177.709 224.778 173.269 223.711C170.726 223.1 168.078 223.426 167.372 223.919C167.261 223.997 167.247 224.05 167.245 224.064Z" fill="#FFCD61"/>
<path d="M176.388 239.501C176.084 239.501 175.771 238.998 175.067 237.865C174.295 236.625 173.13 234.752 171.154 232.169C169.182 229.592 167.539 227.792 166.339 226.478C164.891 224.892 164.292 224.235 164.589 223.829C164.672 223.714 164.822 223.646 165.034 223.626C166.164 223.52 169.367 224.829 171.819 227.123C176.116 231.141 177.142 237.173 176.826 238.896C176.766 239.223 176.661 239.413 176.505 239.477C176.465 239.493 176.427 239.501 176.388 239.501ZM165.187 223.89C165.142 223.89 165.1 223.892 165.06 223.896C164.932 223.908 164.842 223.941 164.807 223.989C164.641 224.216 165.437 225.088 166.539 226.295C167.742 227.613 169.39 229.418 171.369 232.005C173.353 234.597 174.523 236.478 175.297 237.722C175.795 238.524 176.27 239.282 176.402 239.226C176.438 239.212 176.511 239.115 176.56 238.847C176.868 237.166 175.855 231.267 171.635 227.32C169.324 225.16 166.366 223.89 165.187 223.89Z" fill="#FFCD61"/>
<path d="M161.345 207.472C161.456 202.348 157.393 198.104 152.269 197.993C147.145 197.882 142.901 201.945 142.79 207.069C142.679 212.193 146.742 216.436 151.866 216.548C156.99 216.659 161.234 212.595 161.345 207.472Z" fill="#84524D"/>
<path d="M153.291 217.527C148.1 217.527 143.877 213.304 143.877 208.112C143.877 202.921 148.1 198.698 153.291 198.698C158.483 198.698 162.706 202.921 162.706 208.112C162.706 213.304 158.483 217.527 153.291 217.527ZM153.291 198.969C148.25 198.969 144.148 203.07 144.148 208.112C144.148 213.154 148.25 217.256 153.291 217.256C158.333 217.256 162.435 213.154 162.435 208.112C162.435 203.07 158.333 198.969 153.291 198.969Z" fill="#84524D"/>
<path d="M138.367 225.125C142.06 225.25 145.155 222.358 145.28 218.665L145.886 200.716L132.514 200.264L131.907 218.213C131.783 221.906 134.675 225 138.367 225.125Z" fill="white"/>
<path d="M138.048 179.731C141.153 178.032 144.195 178.539 146.087 179.512C151.464 182.276 154.147 189.667 152.208 198.397C143.428 197.819 134.648 197.241 125.867 196.664C125.1 190.976 125.047 185.151 128.256 181.748C132.402 177.352 137.457 179.706 138.048 179.731Z" fill="#84524D"/>
<path d="M127.446 195.652C126.983 202.909 131.614 209.11 137.789 209.504C143.965 209.898 149.346 204.335 149.809 197.079C150.272 189.823 145.593 184.192 139.417 183.798C133.242 183.404 127.909 188.396 127.446 195.652Z" fill="white"/>
<path d="M148.095 194.691C146.569 196.696 146.715 199.374 148.421 200.672C150.128 201.971 152.748 201.398 154.274 199.394C155.799 197.389 155.653 194.711 153.947 193.412C152.241 192.113 149.621 192.686 148.095 194.691Z" fill="white"/>
<path d="M129.589 193.51C130.848 195.692 130.362 198.33 128.505 199.401C126.648 200.473 124.121 199.572 122.863 197.389C121.604 195.207 122.089 192.569 123.947 191.498C125.804 190.427 128.33 191.327 129.589 193.51Z" fill="white"/>
<path d="M138.411 209.659C138.201 209.659 137.991 209.653 137.781 209.639C135.429 209.489 133.227 208.507 131.414 206.799C131.359 206.748 131.357 206.662 131.408 206.608C131.459 206.553 131.545 206.551 131.599 206.602C133.366 208.266 135.51 209.223 137.798 209.369C140.135 209.518 142.418 208.813 144.407 207.332C144.467 207.287 144.552 207.3 144.597 207.36C144.641 207.42 144.629 207.504 144.569 207.549C142.706 208.936 140.589 209.659 138.411 209.659Z" fill="#363E44"/>
<path d="M127.624 199.316C127.559 199.316 127.502 199.27 127.491 199.204C127.349 198.365 127.278 197.502 127.279 196.638C127.279 196.564 127.339 196.503 127.414 196.503C127.489 196.503 127.55 196.564 127.55 196.639C127.549 197.487 127.619 198.335 127.758 199.159C127.77 199.232 127.721 199.302 127.647 199.315C127.639 199.316 127.632 199.316 127.624 199.316Z" fill="#363E44"/>
<path d="M149.202 200.634C149.189 200.634 149.176 200.632 149.163 200.628C149.091 200.606 149.051 200.531 149.072 200.459C149.348 199.536 149.536 198.574 149.632 197.599C149.639 197.524 149.704 197.47 149.78 197.477C149.854 197.485 149.908 197.551 149.901 197.625C149.804 198.617 149.612 199.597 149.331 200.537C149.314 200.596 149.26 200.634 149.202 200.634Z" fill="#363E44"/>
<path d="M137.797 200.622C137.768 200.622 137.738 200.612 137.713 200.592C137.324 200.285 137.126 199.966 137.124 199.645C137.122 199.362 137.265 199.168 137.417 198.963C137.552 198.78 137.691 198.592 137.753 198.309C137.81 198.053 137.79 197.776 137.693 197.485C137.669 197.415 137.707 197.338 137.778 197.314C137.849 197.29 137.926 197.329 137.949 197.4C138.062 197.737 138.085 198.062 138.018 198.367C137.943 198.706 137.779 198.928 137.635 199.123C137.5 199.306 137.394 199.45 137.395 199.643C137.397 199.878 137.56 200.126 137.881 200.38C137.94 200.426 137.95 200.511 137.904 200.57C137.877 200.604 137.837 200.622 137.797 200.622Z" fill="#363E44"/>
<path d="M139.547 203.195C139.436 203.195 139.337 203.19 139.255 203.182C139.18 203.175 139.126 203.109 139.132 203.035C139.139 202.96 139.204 202.905 139.28 202.912C139.655 202.947 140.39 202.936 141.107 202.485C141.482 202.25 141.804 201.921 142.038 201.535C142.077 201.471 142.16 201.451 142.224 201.489C142.288 201.528 142.308 201.611 142.269 201.675C142.014 202.097 141.662 202.457 141.251 202.715C140.625 203.108 139.987 203.195 139.547 203.195Z" fill="#363E44"/>
<path d="M133.996 199.865C132.727 199.865 131.304 199.466 129.966 198.732C128.568 197.965 127.428 196.922 126.755 195.795C126.07 194.646 125.95 193.543 126.417 192.69C127.369 190.954 130.511 190.841 133.42 192.437C136.329 194.033 137.921 196.743 136.969 198.479C136.501 199.332 135.507 199.823 134.169 199.862C134.112 199.864 134.054 199.865 133.996 199.865ZM129.383 191.573C128.125 191.573 127.11 191.991 126.655 192.82C126.235 193.585 126.353 194.593 126.988 195.656C127.636 196.742 128.74 197.75 130.097 198.494C131.454 199.239 132.893 199.628 134.161 199.591C135.399 199.555 136.312 199.114 136.732 198.349C137.612 196.744 136.068 194.198 133.29 192.674C131.948 191.938 130.559 191.573 129.383 191.573Z" fill="#40484C"/>
<path d="M143.3 200.362C142.84 200.362 142.396 200.32 141.979 200.236C140.667 199.973 139.769 199.321 139.451 198.402C139.134 197.482 139.438 196.416 140.307 195.398C141.16 194.4 142.459 193.564 143.967 193.043C147.102 191.96 150.18 192.6 150.827 194.472C151.145 195.391 150.841 196.458 149.971 197.475C149.119 198.473 147.819 199.309 146.311 199.83C145.293 200.182 144.26 200.362 143.3 200.362ZM146.988 192.782C146.077 192.782 145.071 192.948 144.055 193.299C142.592 193.804 141.335 194.612 140.513 195.574C139.708 196.515 139.422 197.488 139.707 198.313C139.992 199.138 140.818 199.727 142.032 199.971C143.272 200.22 144.76 200.079 146.223 199.574C147.686 199.069 148.944 198.261 149.765 197.299C150.57 196.358 150.856 195.385 150.571 194.56C150.176 193.417 148.764 192.782 146.988 192.782Z" fill="#40484C"/>
<path d="M139.345 197.596C139.341 197.596 139.337 197.595 139.333 197.595L137.105 197.406C137.031 197.4 136.976 197.334 136.982 197.26C136.988 197.185 137.052 197.13 137.128 197.136L139.356 197.325C139.43 197.332 139.486 197.397 139.479 197.472C139.473 197.542 139.414 197.596 139.345 197.596Z" fill="#FFCD61"/>
<path d="M146.799 195.002C146.799 195.002 146.799 195.002 146.799 195.002L146.77 194.997C146.749 195.056 146.702 195.13 146.638 195.123C146.554 195.207 146.506 195.351 146.447 195.444C146.339 195.611 146.087 195.433 146.195 195.267C146.267 195.155 145.832 195.344 145.644 195.399C145.043 195.574 144.436 195.722 143.824 195.851C143.538 195.911 143.252 195.973 142.965 196.023C142.735 196.063 141.97 196.235 141.914 196.195C141.097 196.826 140.622 197.448 140.622 197.448C140.622 197.448 141.67 198.023 143.071 198.216C143.076 198.197 143.082 198.179 143.087 198.16C143.136 197.974 146.445 197.482 146.521 197.633C147.968 196.874 148.862 195.707 148.862 195.707C148.862 195.707 148.002 195.234 146.799 195.002Z" fill="#FFCD61"/>
<path d="M144.406 194.989C143.407 195.2 142.556 195.699 141.916 196.194C141.938 196.808 142.178 197.416 142.643 197.889C142.762 198.011 142.892 198.118 143.027 198.21C143.659 198.301 144.363 198.316 145.077 198.165C145.594 198.056 146.068 197.868 146.497 197.645C147.085 196.875 147.177 195.848 146.769 194.997C146.063 194.863 145.242 194.812 144.406 194.989Z" fill="#363E44"/>
<path d="M130.875 193.881C130.875 193.881 130.875 193.882 130.875 193.882L130.904 193.881C130.914 193.943 130.949 194.024 131.013 194.028C131.082 194.125 131.104 194.275 131.148 194.376C131.226 194.559 131.504 194.426 131.426 194.244C131.373 194.121 131.771 194.381 131.947 194.466C132.51 194.739 133.084 194.986 133.666 195.216C133.937 195.323 134.209 195.432 134.484 195.53C134.704 195.608 135.429 195.905 135.491 195.875C136.191 196.634 136.555 197.326 136.555 197.326C136.555 197.326 135.426 197.718 134.012 197.674C134.01 197.655 134.007 197.636 134.005 197.616C133.989 197.425 130.808 196.386 130.709 196.523C129.409 195.532 128.723 194.231 128.723 194.231C128.723 194.231 129.65 193.909 130.875 193.881Z" fill="#FFCD61"/>
<path d="M133.236 194.269C134.185 194.644 134.941 195.279 135.49 195.874C135.365 196.476 135.026 197.035 134.489 197.424C134.351 197.524 134.205 197.607 134.056 197.676C133.419 197.66 132.722 197.557 132.043 197.288C131.552 197.094 131.115 196.829 130.73 196.538C130.279 195.681 130.36 194.653 130.904 193.881C131.623 193.868 132.442 193.955 133.236 194.269Z" fill="#363E44"/>
<path d="M123.152 218.906C133.398 216.63 143.9 216.732 154.599 218.695L153.869 239.437H117.062L123.152 218.906Z" fill="white"/>
<path d="M200.378 195.861L220.227 218.246L229.927 209.142L209.034 188.1L200.378 195.861Z" fill="#2D353A"/>
<path d="M214.363 203.617L243.507 214.962L227.859 189.423L200.826 178.101L214.363 203.617Z" fill="#40484C"/>
<path d="M229.774 225.082C229.74 225.082 229.705 225.069 229.679 225.042C229.626 224.989 229.626 224.904 229.678 224.851L238.994 215.514L233.917 207.555C233.877 207.492 233.896 207.408 233.959 207.368C234.022 207.328 234.105 207.347 234.146 207.41L239.281 215.46C239.315 215.513 239.308 215.583 239.263 215.628L229.87 225.042C229.844 225.068 229.809 225.082 229.774 225.082Z" fill="#E8606B"/>
<path d="M221.57 228.871L231.945 222.828L225.933 233.027L221.57 228.871Z" fill="#E8606B"/>
<path d="M80.9215 353.951H113.523C111.409 353.951 109.695 350.599 109.695 346.465C109.695 342.33 111.409 338.979 113.523 338.979H80.9215C78.807 338.979 77.0928 342.331 77.0928 346.465C77.0928 350.599 78.807 353.951 80.9215 353.951Z" fill="#F7F1EB"/>
<path d="M27.8093 354.252H94.3076C89.9946 354.252 86.4982 350.766 86.4982 346.465C86.4982 342.164 90.1007 338.791 94.4137 338.791L27.8093 338.677C23.4963 338.677 20 342.164 20 346.465C20 350.766 23.4963 354.252 27.8093 354.252Z" fill="#D87355"/>
<path d="M114.201 354.086H94.3076C89.8525 354.086 86.3628 350.738 86.3628 346.465C86.3628 342.191 89.8525 338.843 94.3076 338.843H114.201C114.276 338.843 114.337 338.904 114.337 338.979C114.337 339.054 114.276 339.114 114.201 339.114H94.3076C90.0044 339.114 86.6335 342.343 86.6335 346.465C86.6335 350.587 90.0044 353.815 94.3076 353.815H114.201C114.276 353.815 114.337 353.876 114.337 353.951C114.337 354.026 114.276 354.086 114.201 354.086Z" fill="#84524D"/>
<path d="M111.009 352.031H93.587C93.5122 352.031 93.4517 351.97 93.4517 351.896C93.4517 351.821 93.5122 351.76 93.587 351.76H111.009C111.084 351.76 111.144 351.821 111.144 351.896C111.144 351.97 111.084 352.031 111.009 352.031Z" fill="#E6D0BE"/>
<path d="M110.102 349.017H92.6803C92.6054 349.017 92.5449 348.956 92.5449 348.881C92.5449 348.807 92.6054 348.746 92.6803 348.746H110.102C110.177 348.746 110.237 348.807 110.237 348.881C110.237 348.956 110.177 349.017 110.102 349.017Z" fill="#E6D0BE"/>
<path d="M109.8 347.208H89.3556C89.2807 347.208 89.2202 347.147 89.2202 347.073C89.2202 346.998 89.2807 346.937 89.3556 346.937H109.8C109.875 346.937 109.935 346.998 109.935 347.073C109.935 347.147 109.875 347.208 109.8 347.208Z" fill="#E6D0BE"/>
<path d="M110.102 343.29H91.1691C91.0942 343.29 91.0337 343.229 91.0337 343.154C91.0337 343.08 91.0942 343.019 91.1691 343.019H110.102C110.177 343.019 110.237 343.08 110.237 343.154C110.237 343.229 110.177 343.29 110.102 343.29Z" fill="#E6D0BE"/>
<path d="M25.9676 350.946H43.9819V342.272H25.9676V350.946Z" fill="#B77250"/>
<path d="M47.1264 350.946H79.2998V342.272H47.1264V350.946Z" fill="#B77250"/>
<path d="M80.9215 363.827H113.523C111.409 363.827 109.695 361.682 109.695 359.035C109.695 356.388 111.409 354.242 113.523 354.242H80.9215C78.807 354.242 77.0928 356.388 77.0928 359.035C77.0928 361.682 78.807 363.827 80.9215 363.827Z" fill="#F7F1EB"/>
<path d="M27.8092 364.02H94.3075C89.9945 364.02 88.0094 361.788 88.0094 359.035C88.0094 356.282 89.9945 354.049 94.3075 354.049H27.8092C23.4963 354.049 21.5112 356.282 21.5112 359.035C21.5112 361.788 23.4963 364.02 27.8092 364.02Z" fill="#EFBC73"/>
<path d="M114.201 363.963H94.3075C90.279 363.963 87.874 362.121 87.874 359.035C87.874 355.949 90.2792 354.107 94.3075 354.107H114.201C114.276 354.107 114.337 354.168 114.337 354.243C114.337 354.317 114.276 354.378 114.201 354.378H94.3075C90.391 354.378 88.1448 356.076 88.1448 359.035C88.1448 361.995 90.3911 363.692 94.3075 363.692H114.201C114.276 363.692 114.337 363.753 114.337 363.828C114.337 363.902 114.276 363.963 114.201 363.963Z" fill="#84524D"/>
<path d="M111.009 362.647H93.587C93.5122 362.647 93.4517 362.586 93.4517 362.511C93.4517 362.437 93.5122 362.376 93.587 362.376H111.009C111.084 362.376 111.144 362.437 111.144 362.511C111.144 362.586 111.084 362.647 111.009 362.647Z" fill="#E6D0BE"/>
<path d="M110.102 360.717H92.6803C92.6054 360.717 92.5449 360.657 92.5449 360.582C92.5449 360.507 92.6054 360.447 92.6803 360.447H110.102C110.177 360.447 110.237 360.507 110.237 360.582C110.237 360.657 110.177 360.717 110.102 360.717Z" fill="#E6D0BE"/>
<path d="M109.8 359.56H89.3556C89.2807 359.56 89.2202 359.499 89.2202 359.424C89.2202 359.35 89.2807 359.289 89.3556 359.289H109.8C109.875 359.289 109.935 359.35 109.935 359.424C109.935 359.499 109.875 359.56 109.8 359.56Z" fill="#E6D0BE"/>
<path d="M110.102 357.051H91.1691C91.0942 357.051 91.0337 356.99 91.0337 356.916C91.0337 356.841 91.0942 356.78 91.1691 356.78H110.102C110.177 356.78 110.237 356.841 110.237 356.916C110.237 356.99 110.177 357.051 110.102 357.051Z" fill="#E6D0BE"/>
<path d="M57.1392 373.428H26.6025C28.5831 373.428 30.1886 376.567 30.1886 380.439C30.1886 384.312 28.583 387.451 26.6025 387.451H57.1392C59.1196 387.451 60.7253 384.312 60.7253 380.439C60.7253 376.567 59.1196 373.428 57.1392 373.428Z" fill="#F7F1EB"/>
<path d="M106.887 373.146H44.6016C48.6413 373.146 51.9163 376.411 51.9163 380.44C51.9163 384.468 48.6414 387.734 44.6016 387.734H106.887C110.927 387.734 114.202 384.468 114.202 380.44C114.202 376.411 110.927 373.146 106.887 373.146Z" fill="#E64A67"/>
<path d="M44.6014 387.587H25.9679C25.893 387.587 25.8325 387.526 25.8325 387.451C25.8325 387.377 25.893 387.316 25.9679 387.316H44.6014C48.6272 387.316 51.7806 384.296 51.7806 380.44C51.7806 376.584 48.6272 373.563 44.6014 373.563H25.9679C25.893 373.563 25.8325 373.503 25.8325 373.428C25.8325 373.353 25.893 373.293 25.9679 373.293H44.6014C48.7789 373.293 52.0514 376.432 52.0514 380.44C52.0514 384.447 48.779 387.587 44.6014 387.587Z" fill="#84524D"/>
<path d="M45.2759 375.488H28.9576C28.8828 375.488 28.8223 375.428 28.8223 375.353C28.8223 375.278 28.8828 375.217 28.9576 375.217H45.2759C45.3507 375.217 45.4112 375.278 45.4112 375.353C45.4112 375.428 45.3506 375.488 45.2759 375.488Z" fill="#E6D0BE"/>
<path d="M46.1255 378.311H29.8072C29.7324 378.311 29.6719 378.251 29.6719 378.176C29.6719 378.101 29.7324 378.041 29.8072 378.041H46.1255C46.2003 378.041 46.2609 378.101 46.2609 378.176C46.2609 378.251 46.2003 378.311 46.1255 378.311Z" fill="#E6D0BE"/>
<path d="M49.2397 380.005H30.0904C30.0156 380.005 29.9551 379.945 29.9551 379.87C29.9551 379.795 30.0156 379.734 30.0904 379.734H49.2397C49.3146 379.734 49.3751 379.795 49.3751 379.87C49.3751 379.945 49.3146 380.005 49.2397 380.005Z" fill="#E6D0BE"/>
<path d="M47.5411 383.675H29.8072C29.7324 383.675 29.6719 383.615 29.6719 383.54C29.6719 383.465 29.7324 383.405 29.8072 383.405H47.5411C47.6159 383.405 47.6764 383.465 47.6764 383.54C47.6764 383.615 47.6159 383.675 47.5411 383.675Z" fill="#E6D0BE"/>
<path d="M102.566 376.242H85.6934V384.367H102.566V376.242Z" fill="white"/>
<path d="M57.1392 364.177H26.6025C28.5831 364.177 30.1886 366.187 30.1886 368.666C30.1886 371.145 28.583 373.155 26.6025 373.155H57.1392C59.1196 373.155 60.7253 371.145 60.7253 368.666C60.7253 366.187 59.1196 364.177 57.1392 364.177Z" fill="#F7F1EB"/>
<path d="M106.887 363.996H44.6016C48.6413 363.996 50.5007 366.087 50.5007 368.666C50.5007 371.245 48.6414 373.336 44.6016 373.336H106.887C110.927 373.336 112.786 371.245 112.786 368.666C112.786 366.087 110.927 363.996 106.887 363.996Z" fill="#F1B051"/>
<path d="M44.6014 373.29H25.9679C25.893 373.29 25.8325 373.23 25.8325 373.155C25.8325 373.08 25.893 373.019 25.9679 373.019H44.6014C48.2642 373.019 50.365 371.433 50.365 368.666C50.365 365.899 48.2642 364.312 44.6014 364.312H25.9679C25.893 364.312 25.8325 364.252 25.8325 364.177C25.8325 364.102 25.893 364.042 25.9679 364.042H44.6014C48.38 364.042 50.6358 365.77 50.6358 368.666C50.6358 371.561 48.38 373.29 44.6014 373.29Z" fill="#84524D"/>
<path d="M45.2759 365.545H28.9576C28.8828 365.545 28.8223 365.484 28.8223 365.409C28.8223 365.335 28.8828 365.274 28.9576 365.274H45.2759C45.3507 365.274 45.4112 365.335 45.4112 365.409C45.4112 365.484 45.3506 365.545 45.2759 365.545Z" fill="#E6D0BE"/>
<path d="M46.1255 367.352H29.8072C29.7324 367.352 29.6719 367.291 29.6719 367.217C29.6719 367.142 29.7324 367.081 29.8072 367.081H46.1255C46.2003 367.081 46.2609 367.142 46.2609 367.217C46.2609 367.291 46.2003 367.352 46.1255 367.352Z" fill="#E6D0BE"/>
<path d="M49.2397 368.437H30.0904C30.0156 368.437 29.9551 368.376 29.9551 368.301C29.9551 368.227 30.0156 368.166 30.0904 368.166H49.2397C49.3146 368.166 49.3751 368.227 49.3751 368.301C49.3751 368.376 49.3146 368.437 49.2397 368.437Z" fill="#E6D0BE"/>
<path d="M47.5411 370.786H29.8072C29.7324 370.786 29.6719 370.725 29.6719 370.651C29.6719 370.576 29.7324 370.515 29.8072 370.515H47.5411C47.6159 370.515 47.6764 370.576 47.6764 370.651C47.6764 370.725 47.6159 370.786 47.5411 370.786Z" fill="#E6D0BE"/>
<path d="M49.2582 290.77C46.904 290.771 45.0922 290.005 44.7341 288.665C44.7148 288.593 44.7577 288.518 44.83 288.499C44.9014 288.48 44.9764 288.523 44.9957 288.595C45.4723 290.379 48.8501 291.032 52.5254 290.05C54.3209 289.57 55.9145 288.774 57.0128 287.809C58.0859 286.866 58.5521 285.88 58.3259 285.034C58.3065 284.961 58.3494 284.887 58.4217 284.868C58.4933 284.849 58.5681 284.891 58.5874 284.964C58.8418 285.915 58.346 286.998 57.1915 288.013C56.0625 289.005 54.4302 289.821 52.5951 290.312C51.4301 290.623 50.2916 290.77 49.2582 290.77Z" fill="#E64A67"/>
<path d="M46.7166 292.783C45.8193 292.783 45.0908 292.52 44.6524 291.967C44.6059 291.908 44.6157 291.823 44.6744 291.776C44.7327 291.73 44.8178 291.74 44.8644 291.798C46.0119 293.246 49.4014 292.476 52.4203 290.083C55.4393 287.689 56.9622 284.565 55.8149 283.117C55.7684 283.059 55.7783 282.974 55.8369 282.927C55.8955 282.881 55.9805 282.891 56.0269 282.949C57.2669 284.514 55.7245 287.809 52.5884 290.295C50.5615 291.902 48.3568 292.783 46.7166 292.783Z" fill="#E64A67"/>
<path d="M51.9853 290.473C51.6127 290.473 51.2003 290.326 50.78 290.035C50.158 289.605 49.5858 288.91 49.1687 288.077C48.8663 287.472 48.6678 286.838 48.5953 286.241C48.5862 286.167 48.639 286.1 48.7132 286.09C48.7878 286.081 48.8549 286.134 48.8638 286.209C48.9329 286.775 49.122 287.379 49.4109 287.956C49.8079 288.749 50.3487 289.408 50.9339 289.812C51.4952 290.2 52.0243 290.303 52.4249 290.103C52.8253 289.902 53.06 289.417 53.086 288.735C53.1131 288.024 52.9094 287.196 52.5123 286.403C52.2106 285.8 51.8222 285.27 51.3893 284.869C51.3345 284.818 51.3311 284.733 51.382 284.678C51.4325 284.623 51.5183 284.62 51.5733 284.67C52.0297 285.093 52.4383 285.65 52.7545 286.282C53.1716 287.115 53.3855 287.99 53.3566 288.745C53.3267 289.53 53.0388 290.098 52.546 290.345C52.3738 290.431 52.1853 290.473 51.9853 290.473Z" fill="#E64A67"/>
<path d="M45.1783 291.403C45.28 291.783 45.0539 292.174 44.6734 292.276C44.2928 292.377 43.9019 292.151 43.8002 291.771C43.6986 291.39 43.9246 290.999 44.3052 290.898C44.6857 290.796 45.0765 291.022 45.1783 291.403Z" fill="#E64A67"/>
<path d="M45.4786 288.582C45.5803 288.963 45.3542 289.354 44.9737 289.455C44.5931 289.557 44.2022 289.331 44.1005 288.95C43.9989 288.57 44.2249 288.179 44.6055 288.077C44.986 287.976 45.3769 288.202 45.4786 288.582Z" fill="#E64A67"/>
<path d="M49.3624 285.896C49.464 286.277 49.238 286.668 48.8574 286.77C48.4769 286.871 48.086 286.645 47.9843 286.265C47.8826 285.884 48.1087 285.493 48.4892 285.391C48.8698 285.29 49.2607 285.516 49.3624 285.896Z" fill="#E64A67"/>
<path d="M52.1597 284.623C52.2614 285.003 52.0353 285.394 51.6548 285.496C51.2743 285.598 50.8833 285.372 50.7817 284.991C50.68 284.611 50.9061 284.22 51.2866 284.118C51.6671 284.016 52.0581 284.242 52.1597 284.623Z" fill="#E64A67"/>
<path d="M56.4512 282.714C56.5529 283.094 56.3268 283.485 55.9463 283.587C55.5658 283.689 55.1748 283.463 55.0732 283.082C54.9715 282.702 55.1976 282.311 55.5781 282.209C55.9586 282.107 56.3496 282.333 56.4512 282.714Z" fill="#E64A67"/>
<path d="M59.0718 284.554C59.1735 284.935 58.9474 285.326 58.5669 285.427C58.1864 285.529 57.7954 285.303 57.6938 284.922C57.5921 284.542 57.8182 284.151 58.1987 284.049C58.5792 283.948 58.97 284.174 59.0718 284.554Z" fill="#E64A67"/>
<path d="M59.9732 314.727C59.9075 314.727 59.8499 314.68 59.8396 314.613C59.0695 309.635 57.8726 304.695 56.2823 299.929C55.1882 296.65 53.8887 293.398 52.4201 290.264C52.3884 290.196 52.4174 290.116 52.485 290.084C52.5533 290.052 52.6335 290.082 52.6651 290.149C54.1383 293.293 55.4418 296.555 56.539 299.843C58.1342 304.624 59.3347 309.579 60.1071 314.571C60.1184 314.645 60.0678 314.714 59.994 314.726C59.987 314.727 59.9801 314.727 59.9732 314.727Z" fill="#E64A67"/>
<path d="M61.3525 281.732C60.8963 281.732 60.4295 281.713 59.955 281.672C55.3821 281.281 51.8217 279.09 52.0185 276.787C52.0249 276.712 52.0905 276.657 52.1649 276.663C52.2394 276.67 52.2945 276.735 52.2882 276.81C52.1042 278.964 55.5537 281.024 59.978 281.403C64.4036 281.781 68.1519 280.336 68.336 278.182C68.3422 278.107 68.4091 278.052 68.4823 278.058C68.5569 278.065 68.612 278.13 68.6056 278.205C68.4292 280.269 65.2935 281.732 61.3525 281.732Z" fill="#E64A67"/>
<path d="M55.242 282.479C54.7933 282.479 54.3605 282.452 53.949 282.398C52.1665 282.163 50.9854 281.439 50.6233 280.361C50.5995 280.29 50.6377 280.213 50.7086 280.189C50.7794 280.165 50.8563 280.203 50.8801 280.274C51.2076 281.25 52.3102 281.909 53.9846 282.129C55.6923 282.355 57.7793 282.094 59.8595 281.396C64.1226 279.964 67.031 277.132 66.3428 275.083C66.319 275.012 66.3573 274.935 66.4281 274.911C66.499 274.887 66.5758 274.926 66.5996 274.996C67.3353 277.188 64.3504 280.173 59.9459 281.652C58.3257 282.196 56.6994 282.479 55.242 282.479Z" fill="#E64A67"/>
<path d="M59.7282 281.698C58.5174 281.698 57.3612 280.043 57.1066 277.891C57.0144 277.112 57.0478 276.341 57.2035 275.662C57.22 275.589 57.2932 275.544 57.3655 275.56C57.4385 275.577 57.484 275.649 57.4673 275.722C57.3187 276.372 57.2869 277.111 57.3754 277.859C57.6234 279.955 58.7345 281.553 59.8519 281.42C60.3779 281.358 60.8332 280.914 61.1341 280.17C61.4461 279.4 61.5508 278.408 61.4291 277.379C61.3365 276.597 61.1202 275.86 60.8033 275.248C60.7689 275.182 60.7947 275.1 60.8612 275.066C60.9278 275.031 61.0094 275.057 61.0437 275.124C61.3755 275.765 61.6017 276.533 61.6981 277.347C61.825 278.421 61.7139 279.46 61.3852 280.272C61.0456 281.111 60.5124 281.615 59.8837 281.689C59.8319 281.695 59.7799 281.698 59.7282 281.698Z" fill="#E64A67"/>
<path d="M51.4012 279.958C51.3621 280.415 50.9602 280.754 50.5033 280.715C50.0464 280.676 49.7077 280.274 49.7467 279.817C49.7858 279.36 50.1877 279.021 50.6446 279.06C51.1015 279.099 51.4402 279.501 51.4012 279.958Z" fill="#E64A67"/>
<path d="M52.8446 276.988C52.8054 277.445 52.4035 277.784 51.9467 277.745C51.4898 277.706 51.1511 277.304 51.1901 276.847C51.2292 276.39 51.6311 276.051 52.088 276.09C52.545 276.129 52.8837 276.532 52.8446 276.988Z" fill="#E64A67"/>
<path d="M58.1584 275.582C58.1193 276.039 57.7174 276.378 57.2605 276.339C56.8036 276.3 56.4649 275.898 56.5041 275.441C56.543 274.984 56.9451 274.645 57.402 274.684C57.8587 274.723 58.1974 275.126 58.1584 275.582Z" fill="#E64A67"/>
<path d="M61.7244 275.294C61.6853 275.75 61.2834 276.089 60.8265 276.05C60.3697 276.011 60.031 275.609 60.0699 275.152C60.1091 274.695 60.511 274.357 60.9679 274.396C61.4249 274.435 61.7636 274.837 61.7244 275.294Z" fill="#E64A67"/>
<path d="M67.1781 274.899C67.1389 275.356 66.737 275.695 66.2801 275.656C65.8233 275.617 65.4846 275.215 65.5236 274.758C65.5627 274.301 65.9646 273.962 66.4215 274.001C66.8785 274.04 67.2172 274.442 67.1781 274.899Z" fill="#E64A67"/>
<path d="M69.3201 277.95C69.2812 278.407 68.8791 278.746 68.4222 278.707C67.9654 278.668 67.6267 278.266 67.6657 277.809C67.7048 277.352 68.1067 277.013 68.5636 277.052C69.0206 277.091 69.3593 277.493 69.3201 277.95Z" fill="#E64A67"/>
<path d="M58.4372 311.331C58.4286 311.331 58.4199 311.33 58.4112 311.329C58.3379 311.314 58.2899 311.243 58.3043 311.17C59.428 305.415 60.0699 299.531 60.2121 293.683C60.3101 289.659 60.1721 285.584 59.8024 281.571C59.7955 281.497 59.8504 281.431 59.9248 281.424C60.0009 281.417 60.0652 281.472 60.0721 281.546C60.4427 285.57 60.581 289.655 60.4828 293.689C60.3401 299.553 59.6966 305.452 58.57 311.222C58.5574 311.286 58.5007 311.331 58.4372 311.331Z" fill="#E64A67"/>
<path d="M73.6952 294.834C72.2015 294.834 70.5236 294.519 68.8603 293.918C66.784 293.168 64.975 292.06 63.7666 290.8C62.5347 289.514 62.0693 288.218 62.4558 287.148C62.4813 287.077 62.559 287.041 62.629 287.066C62.6994 287.092 62.7357 287.169 62.7104 287.239C62.3607 288.207 62.8051 289.405 63.9619 290.612C65.1421 291.844 66.9143 292.927 68.9522 293.663C70.9899 294.399 73.0457 294.699 74.7402 294.506C76.4012 294.317 77.5087 293.68 77.8583 292.712C77.8838 292.641 77.9614 292.605 78.0316 292.63C78.102 292.656 78.1383 292.733 78.113 292.804C77.7265 293.874 76.5396 294.574 74.7708 294.775C74.4259 294.814 74.0661 294.834 73.6952 294.834Z" fill="#E64A67"/>
<path d="M75.8333 297.399C75.2866 297.399 74.6743 297.297 74.0111 297.091C72.3268 296.569 70.5037 295.437 68.8775 293.904C67.2511 292.371 66.0136 290.618 65.3925 288.967C64.7592 287.284 64.8404 285.902 65.6211 285.074C65.6723 285.019 65.7583 285.017 65.8124 285.068C65.8668 285.119 65.8694 285.205 65.8181 285.259C65.1123 286.008 65.0511 287.291 65.646 288.872C66.2528 290.484 67.4664 292.202 69.0632 293.707C70.66 295.212 72.4457 296.322 74.0914 296.833C75.7046 297.333 76.9817 297.197 77.6872 296.448C77.7384 296.393 77.8245 296.391 77.8785 296.442C77.9329 296.493 77.9355 296.579 77.8842 296.633C77.405 297.142 76.7019 297.399 75.8333 297.399Z" fill="#E64A67"/>
<path d="M69.6898 294.172C69.4055 294.172 69.1452 294.103 68.9183 293.964C68.3786 293.633 68.105 292.953 68.1479 292.048C68.1895 291.173 68.5233 290.183 69.0881 289.261C69.5161 288.563 70.0435 287.959 70.6132 287.516C70.6726 287.47 70.7572 287.48 70.8031 287.539C70.849 287.598 70.8384 287.683 70.7794 287.729C70.2351 288.153 69.7301 288.731 69.3189 289.403C68.7775 290.286 68.4578 291.23 68.4183 292.061C68.3802 292.862 68.6079 293.456 69.0597 293.733C69.5114 294.009 70.1438 293.943 70.8403 293.545C71.5624 293.132 72.2582 292.419 72.7995 291.535C73.1931 290.893 73.4735 290.208 73.6104 289.556C73.6257 289.483 73.6978 289.436 73.7707 289.451C73.8439 289.467 73.8908 289.539 73.8753 289.612C73.7321 290.294 73.44 291.008 73.0303 291.676C72.4657 292.598 71.7357 293.345 70.9745 293.78C70.5188 294.04 70.0818 294.172 69.6898 294.172Z" fill="#E64A67"/>
<path d="M77.3465 295.943C77.1907 296.374 77.414 296.85 77.8453 297.006C78.2766 297.162 78.7525 296.938 78.9083 296.507C79.0641 296.076 78.8407 295.6 78.4094 295.444C77.9783 295.288 77.5023 295.512 77.3465 295.943Z" fill="#E64A67"/>
<path d="M77.2786 292.641C77.1228 293.073 77.3462 293.548 77.7775 293.704C78.2088 293.86 78.6846 293.637 78.8404 293.205C78.9962 292.774 78.7728 292.298 78.3417 292.142C77.9103 291.987 77.4344 292.21 77.2786 292.641Z" fill="#E64A67"/>
<path d="M73.0418 289.14C72.886 289.571 73.1094 290.047 73.5406 290.203C73.9719 290.359 74.4478 290.135 74.6036 289.704C74.7594 289.273 74.536 288.797 74.1047 288.641C73.6734 288.485 73.1976 288.709 73.0418 289.14Z" fill="#E64A67"/>
<path d="M69.9241 287.385C69.7683 287.816 69.9917 288.292 70.423 288.448C70.8543 288.603 71.3301 288.38 71.4859 287.949C71.6417 287.517 71.4183 287.042 70.9872 286.886C70.5558 286.73 70.0799 286.953 69.9241 287.385Z" fill="#E64A67"/>
<path d="M65.1365 284.743C64.9807 285.174 65.2041 285.65 65.6354 285.806C66.0667 285.962 66.5425 285.739 66.6983 285.307C66.8541 284.876 66.6308 284.4 66.1995 284.244C65.7682 284.089 65.2923 284.312 65.1365 284.743Z" fill="#E64A67"/>
<path d="M61.9139 286.617C61.7581 287.049 61.9814 287.524 62.4127 287.68C62.844 287.836 63.3198 287.613 63.4756 287.181C63.6315 286.75 63.4081 286.274 62.9768 286.119C62.5455 285.963 62.0696 286.186 61.9139 286.617Z" fill="#E64A67"/>
<path d="M57.8796 321.502C57.8689 321.502 57.8582 321.5 57.8474 321.498C57.7748 321.48 57.7303 321.407 57.748 321.334C59.1406 315.622 61.0255 309.995 63.3506 304.611C64.9504 300.906 66.7863 297.254 68.8071 293.755C68.8445 293.69 68.9275 293.668 68.992 293.706C69.0569 293.743 69.0791 293.826 69.0416 293.891C67.0259 297.38 65.1948 301.023 63.5991 304.718C61.2801 310.089 59.4 315.701 58.0112 321.398C57.9959 321.46 57.9405 321.502 57.8796 321.502Z" fill="#E64A67"/>
<path d="M68.7649 340.17C73.1512 335.55 76.1176 327.409 76.1176 321.599C76.1176 315.376 72.7145 310.898 67.8095 308.921V302.865H55.7547V308.921C50.8498 310.898 47.4468 315.377 47.4468 321.599C47.4468 327.409 50.413 335.55 54.7994 340.17H68.7649Z" fill="#EFBC73"/>
</g>
</g>
<defs>
<clipPath id="clip0_1_906">
<rect x="20" y="134" width="252" height="258" rx="20" fill="white"/>
</clipPath>
<clipPath id="clip1_1_906">
<rect x="20" y="134" width="252" height="258" rx="20" fill="white"/>
</clipPath>
</defs>
</svg>
