<svg width="94" height="120" viewBox="0 0 94 120" fill="none" xmlns="http://www.w3.org/2000/svg">
<g clip-path="url(#clip0_177_9549)">
<rect width="94" height="120" fill="#F9DD65"/>
<g clip-path="url(#clip1_177_9549)">
<path d="M47.2519 107.244C73.2757 107.244 94.372 86.1477 94.372 60.124C94.372 34.1003 73.2757 13.0039 47.2519 13.0039C21.2282 13.0039 0.131836 34.1003 0.131836 60.124C0.131836 86.1477 21.2282 107.244 47.2519 107.244Z" fill="#B8381A"/>
<path d="M54.0783 30.1739C54.0894 30.0368 54.0966 29.8986 54.0966 29.7586C54.0966 26.9662 51.833 24.7026 49.0406 24.7026C48.3318 24.7026 47.6575 24.8491 47.0452 25.1124C46.632 23.5795 45.2328 22.4512 43.5694 22.4512C42.9248 22.4512 42.3204 22.6214 41.7971 22.918C40.5328 20.2499 37.816 18.4041 34.6673 18.4041C31.2154 18.4041 28.2835 20.6229 27.2147 23.7113C26.9467 23.6778 26.6742 23.6584 26.3971 23.6584C22.7981 23.6584 19.8804 26.5753 19.8789 30.1739H54.0783Z" fill="white"/>
<path d="M29.9731 27.6564L24.5874 29.3483L33.8754 58.9137L39.261 57.2218L29.9731 27.6564Z" fill="#F7F1EB"/>
<path d="M25.295 29.4697L19.6553 29.2139L18.2514 60.1739L23.8911 60.4296L25.295 29.4697Z" fill="#F7F1EB"/>
<path d="M18.1242 30.1071L12.5742 29.0729L6.89668 59.5401L12.4466 60.5743L18.1242 30.1071Z" fill="#F7F1EB"/>
<path d="M7.93634 29.5675L2.30566 29.1633L0.0867141 60.0736L5.71739 60.4778L7.93634 29.5675Z" fill="#F7F1EB"/>
<path d="M21.5414 41.012L5.15625 35.8139L4.40651 38.1772L20.7917 43.3753L21.5414 41.012Z" fill="#F7F1EB"/>
<path d="M32.5536 44.7054L16.4194 50.6375L17.275 52.9646L33.4092 47.0324L32.5536 44.7054Z" fill="#F7F1EB"/>
<path d="M56.9037 60.8806H50.394V31.1617L53.6489 26.0938L56.9037 31.1617V60.8806Z" fill="#F7F1EB"/>
<path d="M66.2699 60.8806H59.7603V31.1617L63.0151 26.0938L66.2699 31.1617V60.8806Z" fill="#F7F1EB"/>
<path d="M75.6357 60.8806H69.126V31.1617L72.3808 26.0938L75.6357 31.1617V60.8806Z" fill="#F7F1EB"/>
<path d="M85.0018 60.8806H78.4922V31.1617L81.747 26.0938L85.0018 31.1617V60.8806Z" fill="#F7F1EB"/>
<path d="M94.368 60.8806H87.8584V31.1617L91.1132 26.0938L94.368 31.1617V60.8806Z" fill="#F7F1EB"/>
<path d="M90.8562 36.6099H52.4126V39.3341H90.8562V36.6099Z" fill="#F7F1EB"/>
<path d="M90.8563 53.0806H51.7388V55.8048H90.8563V53.0806Z" fill="#F7F1EB"/>
<path d="M22.1862 79.6507L7.11201 77.4428L6.79834 93.6417L19.9202 94.0703C19.9202 94.0703 18.7872 89.693 14.1524 87.3755L22.1862 79.6507Z" fill="#F9DD65"/>
<path d="M32.4627 60.0057C32.4627 60.0057 55.2354 52.8406 61.4779 58.6181C67.2223 63.9348 60.3459 84.6216 60.3459 84.6216L50.093 83.7807L49.2339 73.1137C49.2339 73.1137 37.0876 77.1398 34.1204 74.7644C31.222 72.4441 32.4627 60.0057 32.4627 60.0057Z" fill="#8B865C"/>
<path d="M43.3353 64.2527C43.3353 64.2527 46.3672 87.9327 39.5782 93.057C33.3309 97.7726 14.1831 87.3518 14.1831 87.3518L17.2444 75.3152L27.4721 78.4461C27.4721 78.4461 25.6538 65.7798 28.5157 63.2786C31.3114 60.8353 43.3353 64.2527 43.3353 64.2527Z" fill="#8B865C"/>
<path d="M44.0032 74.5986C43.975 74.5986 43.952 74.5759 43.9517 74.5477C43.9368 73.3764 43.898 72.1573 43.836 70.9241C43.8346 70.8957 43.8564 70.8715 43.8849 70.8701C43.9129 70.8678 43.9375 70.8905 43.9389 70.9189C44.0008 72.1534 44.0398 73.3738 44.0547 74.5464C44.055 74.5748 44.0322 74.5982 44.0038 74.5986C44.0036 74.5986 44.0034 74.5986 44.0032 74.5986Z" fill="#9E9569"/>
<path d="M37.0889 84.4013C37.0713 84.4013 37.0541 84.3923 37.0445 84.3759C35.6679 82.0315 33.1821 80.4929 31.3393 79.615C29.3405 78.6628 27.6475 78.2614 27.6306 78.2575C27.6029 78.2511 27.5857 78.2233 27.5922 78.1957C27.5986 78.168 27.6263 78.1506 27.654 78.1572C27.671 78.1612 29.3749 78.5651 31.3836 79.5221C33.2394 80.4062 35.7434 81.9569 37.1333 84.3238C37.1476 84.3483 37.1394 84.3799 37.115 84.3943C37.1067 84.399 37.0978 84.4013 37.0889 84.4013Z" fill="#9E9569"/>
<path d="M71.002 92.7918H49.5229L51.5326 83.893L59.9154 84.5808L66.0004 86.437C68.9825 87.2447 71.0295 89.8455 71.002 92.7918Z" fill="#F9DD65"/>
<path d="M52.7436 43.2518C63.8127 51.9812 67.9513 60.3676 65.5294 62.2249C64.1246 63.3023 59.1343 60.5973 54.6296 56.1219C53.801 52.6952 50.7563 45.5964 52.7436 43.2518Z" fill="white"/>
<path d="M34.8048 45.3725C38.0301 42.1043 44.0562 39.1755 50.6913 41.7082C57.529 44.3183 62.5655 50.1036 62.5655 50.1036L55.061 56.646L51.4984 66.453L25.1763 67.8C25.1763 67.8 29.5867 50.6603 34.8048 45.3725Z" fill="#F9DD65"/>
<path d="M35.4373 50.4209C35.1474 63.1131 47.1987 73.4989 51.1262 70.6722C54.3748 68.3341 45.93 56.2243 43.5367 52.7474C39.8428 50.6566 38.1527 51.7137 35.4373 50.4209Z" fill="white"/>
<path d="M44.1816 47.1023L32.6538 50.9364L35.2653 58.7884L46.7931 54.9543L44.1816 47.1023Z" fill="#F9DD65"/>
<path d="M35.2304 58.8561L33.6023 53.9603C33.5933 53.9333 33.6079 53.9041 33.6349 53.8952C33.6618 53.8862 33.6911 53.9008 33.7 53.9278L35.2957 58.7259L46.7257 54.9248L44.8705 49.3461C44.8616 49.3191 44.8762 49.29 44.9032 49.281C44.9302 49.2719 44.9593 49.2866 44.9683 49.3136L46.856 54.99L46.8072 55.0062L35.2304 58.8561Z" fill="#363E44"/>
<path d="M59.6793 57.3027C59.6792 57.3025 59.6792 57.3022 59.6793 57.3021C64.9758 52.3173 68.638 48.6791 69.8127 47.6003C69.9357 47.4874 70.1519 47.287 70.493 47.1125C71.7569 46.4657 72.7098 47.21 74.3491 47.1363C76.2091 47.0528 77.2091 45.9527 77.5315 46.3022C77.7557 46.5453 77.4954 47.0665 76.6203 47.8496C76.6203 47.8496 76.6203 47.8498 76.6204 47.8497C77.3536 47.3312 78.3787 46.6713 78.6641 47.0774C78.9685 47.5638 77.8553 48.4805 77.1546 49.0021C78.0027 48.3708 78.6425 48.2888 78.7452 48.5548C78.9068 48.9735 78.3633 49.6163 77.2102 50.4073L77.2102 50.4074C78.159 50.0836 78.4374 50.1465 78.4709 50.4038C78.532 50.8736 77.5717 51.506 76.6371 51.935C75.585 52.4179 74.6014 52.4274 73.9811 52.4187C73.981 52.4187 73.9808 52.4187 73.9807 52.4189C70.6332 56.2948 68.4856 58.7916 65.8457 61.977C65.3056 62.6286 64.323 62.6777 63.7201 62.0837C62.09 60.4776 61.201 59.5443 59.6793 57.3027Z" fill="white"/>
<path d="M59.7395 57.2972C59.7258 57.2972 59.7122 57.2918 59.702 57.2811C59.6825 57.2604 59.6835 57.2278 59.7042 57.2082C60.8732 56.1077 62.0317 55.008 63.2461 53.846C63.2666 53.8265 63.2993 53.8271 63.3189 53.8476C63.3386 53.8682 63.3378 53.9008 63.3173 53.9204C62.1027 55.0825 60.944 56.1825 59.7748 57.2832C59.7649 57.2926 59.7522 57.2972 59.7395 57.2972Z" fill="#363E44"/>
<path d="M72.861 47.5547C74.1191 46.209 74.2877 45.4569 74.0681 45.2643C73.6987 44.9405 72.1543 45.6498 70.0679 47.3851C70.8418 47.5021 72.0871 47.4377 72.861 47.5547Z" fill="white"/>
<path d="M70.8538 57.0346C70.8387 57.0346 70.8244 57.028 70.8146 57.0166L65.8561 51.2221C65.8382 51.2012 65.8399 51.17 65.8599 51.1512C66.0304 50.9906 70.0354 47.2183 70.1782 47.112C72.3649 45.3004 73.8224 44.9077 74.2957 45.3229C74.5454 45.5418 74.6427 45.7689 73.7544 46.8506C74.0873 46.884 74.5803 46.8734 74.9769 46.7714C75.5106 46.6339 76.0305 46.3893 76.489 46.1735C77.1285 45.8725 77.6335 45.6347 77.9029 45.8209C78.0048 45.8912 78.0647 45.999 78.0763 46.1324C78.0955 46.3534 77.9858 46.6269 77.7757 46.8973C78.165 46.6927 78.8379 46.4114 79.0812 46.7575C79.1782 46.9124 79.1991 47.0881 79.1449 47.2821C79.0613 47.5803 78.811 47.8711 78.5649 48.0762C78.7195 48.0449 78.8572 48.0513 78.9728 48.0959C79.1112 48.1493 79.2144 48.2553 79.2712 48.4024C79.4522 48.8712 78.774 49.4684 78.1295 50.0079C78.3559 50.0069 78.7429 50.0372 78.8562 50.2477C78.9211 50.3682 78.9276 50.508 78.8756 50.6632C78.7271 51.1066 78.1085 51.6329 77.2997 52.004C76.2585 52.4819 75.3755 52.7108 74.6064 52.7055C73.2216 54.309 70.9159 56.9897 70.8927 57.0167C70.883 57.028 70.8688 57.0346 70.8538 57.0346ZM65.9663 51.1925L70.8539 56.904C71.1656 56.5417 73.2598 54.1073 74.5439 52.6204C74.5509 52.6123 74.5605 52.6064 74.5709 52.6038C74.5752 52.6027 74.5801 52.6023 74.5841 52.6023C75.3457 52.6137 76.2191 52.3867 77.2568 51.9104C78.0289 51.556 78.6402 51.0417 78.778 50.6305C78.8206 50.5033 78.8164 50.391 78.7655 50.2965C78.6678 50.115 78.2124 50.0994 77.9852 50.1164C77.9638 50.118 77.9429 50.1062 77.9339 50.0866C77.9242 50.0655 77.9299 50.0405 77.9478 50.0256L77.9617 50.014C78.5754 49.5017 79.3392 48.8641 79.1752 48.4394C79.1291 48.3202 79.0464 48.2346 78.9358 48.1919C78.7579 48.1232 78.5107 48.1637 78.2213 48.3092C78.1957 48.3219 78.1648 48.3116 78.1521 48.2863C78.1393 48.2609 78.1496 48.2299 78.175 48.2172C78.4571 48.0754 78.929 47.6713 79.0457 47.2542C79.0919 47.0894 79.0749 46.9414 78.9954 46.8143C78.7723 46.4972 77.9552 46.8901 77.5545 47.1423C77.535 47.1546 77.5091 47.1526 77.4921 47.1371C77.4816 47.1276 77.4755 47.1142 77.4752 47.1C77.4749 47.0859 77.4805 47.0722 77.4905 47.0623C77.8106 46.7466 77.9957 46.3937 77.9738 46.1412C77.9647 46.0379 77.9212 45.9586 77.8444 45.9055C77.6238 45.7532 77.1183 45.9911 76.5329 46.2666C76.0702 46.4844 75.5458 46.7312 75.0025 46.871C74.5538 46.9866 73.9855 46.9886 73.6475 46.9415C73.629 46.9389 73.6133 46.9265 73.6065 46.9091C73.5998 46.8917 73.603 46.8719 73.615 46.8575C74.5748 45.7045 74.4062 45.5567 74.2277 45.4003C73.9216 45.1318 72.6944 45.161 70.2418 47.1928C70.1302 47.2761 67.4177 49.8254 65.9663 51.1925Z" fill="#F9DD65"/>
<path d="M71.4108 46.965C71.3838 46.965 71.3611 46.9439 71.3595 46.9166C71.3578 46.8882 71.3794 46.8638 71.4078 46.8621L71.4916 46.8571C72.0946 46.8209 73.1039 46.7604 73.7678 46.8517C73.796 46.8556 73.8157 46.8816 73.8118 46.9098C73.8079 46.9379 73.782 46.9575 73.7538 46.9537C73.1 46.8638 72.097 46.924 71.4977 46.9599L71.4139 46.9649C71.4129 46.965 71.4119 46.965 71.4108 46.965Z" fill="#F9DD65"/>
<path d="M75.0148 48.3839C74.9883 48.3839 74.9659 48.3636 74.9636 48.3368C74.9611 48.3085 74.9822 48.2835 75.0105 48.2811C75.2044 48.2645 75.4242 48.2458 75.6596 48.1652C76.1094 48.0109 76.9303 47.5541 77.5653 47.0113C77.5869 46.9929 77.6194 46.9953 77.6378 47.017C77.6563 47.0386 77.6538 47.0711 77.6322 47.0896C76.9875 47.6407 76.1519 48.1053 75.693 48.2625C75.4456 48.3474 75.2092 48.3675 75.0193 48.3837C75.0177 48.3839 75.0163 48.3839 75.0148 48.3839Z" fill="#F9DD65"/>
<path d="M75.6559 49.4505C75.6295 49.4505 75.6069 49.4302 75.6047 49.4033C75.6023 49.375 75.6233 49.35 75.6516 49.3476C75.8452 49.3311 76.2935 49.2242 76.5239 49.1395C76.9745 48.974 77.6253 48.5705 78.2 48.2054C78.2239 48.1901 78.2558 48.1972 78.2711 48.2212C78.2864 48.2452 78.2792 48.277 78.2552 48.2923C77.676 48.6603 77.0195 49.0671 76.5593 49.2362C76.3227 49.3231 75.8606 49.4332 75.6604 49.4503C75.6588 49.4504 75.6574 49.4505 75.6559 49.4505Z" fill="#F9DD65"/>
<path d="M75.6276 50.9646C75.6011 50.9646 75.5786 50.9443 75.5764 50.9174C75.5739 50.8891 75.595 50.8642 75.6233 50.8617C75.8436 50.8429 76.063 50.8036 76.2753 50.7448C76.6488 50.6415 77.831 50.0938 78.0318 49.9743C78.0563 49.9598 78.0878 49.9678 78.1024 49.9922C78.1169 50.0167 78.109 50.0482 78.0845 50.0628C77.8757 50.1871 76.6928 50.7362 76.3027 50.8441C76.0843 50.9046 75.8586 50.945 75.632 50.9644C75.6305 50.9645 75.629 50.9646 75.6276 50.9646Z" fill="#F9DD65"/>
<path d="M49.7388 62.9891C52.6842 65.2552 59.8846 70.2485 60.5681 70.7639C61.8457 71.7275 68.568 77.0761 67.9014 78.1298C67.5829 78.6333 66.2413 77.6614 65.7973 77.3197C66.0198 77.7725 67.0627 79.4189 66.5714 79.8713C65.9942 80.4029 64.4512 78.6314 64.4098 78.6189C64.6824 79.0558 65.8388 80.7523 65.4837 81.1059C65.0217 81.5658 63.4726 80.3103 63.0263 79.913C63.0189 80.0156 64.118 81.7679 63.8234 82.0377C63.4971 82.3366 62.0246 81.2005 61.3995 80.8045C60.2637 79.9494 55.6713 76.863 53.3691 75.4699C47.9622 72.198 46.5158 70.7184 44.1798 68.6766C43.2653 67.8774 47.7393 63.0496 49.7388 62.9891Z" fill="white"/>
<path d="M64.0292 82.6918C63.4411 82.6918 62.3717 82.0514 61.8648 81.5951C60.641 80.6739 53.1589 75.8112 53.0835 75.7622C53.0701 75.7536 53.0615 75.7392 53.0602 75.7233C53.0589 75.7075 53.065 75.6919 53.0767 75.6811L59.9978 69.328C60.0168 69.3105 60.046 69.3099 60.0658 69.3266C60.0887 69.346 62.3836 71.2891 64.5598 73.3482C65.8387 74.5583 66.8272 75.5713 67.4979 76.359C68.3631 77.3752 68.6951 78.0093 68.5126 78.2977C68.4187 78.4462 68.2666 78.5401 68.0608 78.5766C67.6313 78.6528 67.0267 78.4609 66.617 78.2127C66.653 78.2748 66.6938 78.3432 66.7374 78.4163C67.1287 79.0724 67.7199 80.064 67.259 80.4885C66.7982 80.9129 65.961 80.3002 65.4412 79.846C65.8864 80.4359 66.3965 81.202 66.0498 81.6461C65.9657 81.7538 65.8472 81.8153 65.6976 81.8288C65.115 81.8816 64.1875 81.1891 63.7695 80.8486C63.7815 80.8676 63.7938 80.8869 63.806 80.9061C64.1331 81.4214 64.6805 82.2839 64.3256 82.6002C64.2542 82.6638 64.1522 82.6918 64.0292 82.6918ZM53.1953 75.7121C53.8873 76.1621 60.7564 80.6319 61.9302 81.5156C62.596 82.1147 63.928 82.8165 64.257 82.5233C64.5467 82.2652 63.9877 81.3845 63.719 80.9613C63.5672 80.7222 63.535 80.6669 63.5379 80.6253C63.5393 80.6057 63.5518 80.5886 63.5699 80.5813C63.5881 80.5739 63.6089 80.5775 63.6235 80.5906C64.1244 81.0365 65.1217 81.7775 65.6883 81.7262C65.8101 81.7152 65.9018 81.6683 65.9686 81.5827C66.3117 81.1431 65.6091 80.2311 65.1893 79.6863C65.1241 79.6015 65.0625 79.5216 65.0125 79.4535C64.9994 79.4357 64.9992 79.4115 65.012 79.3934C65.0248 79.3753 65.0476 79.3674 65.0689 79.3738C65.0862 79.379 65.0948 79.3868 65.1823 79.4695C66.1753 80.4074 66.8506 80.7245 67.1891 80.4127C67.5885 80.0449 67.0002 79.0585 66.6488 78.469C66.5544 78.3108 66.4729 78.174 66.4233 78.0731C66.4127 78.0516 66.4184 78.0257 66.4369 78.0105C66.4554 77.9954 66.4819 77.9949 66.501 78.0096C66.828 78.2613 67.5455 78.5631 68.0427 78.4751C68.2189 78.4439 68.3477 78.3657 68.4256 78.2426C69.0017 77.3319 62.5975 71.6051 60.0339 69.4345L53.1953 75.7121Z" fill="#F9DD65"/>
<path d="M65.8486 77.336C65.8318 77.336 65.8153 77.3277 65.8054 77.3125C65.6242 77.0332 65.4223 76.7645 65.2054 76.5138C64.8154 76.0631 64.3679 75.6595 63.8755 75.3143C63.8522 75.298 63.8465 75.2659 63.8628 75.2426C63.8792 75.2192 63.9113 75.2136 63.9346 75.2299C64.434 75.58 64.8878 75.9892 65.2832 76.4464C65.5033 76.7007 65.708 76.9732 65.8918 77.2564C65.9073 77.2803 65.9005 77.3122 65.8766 77.3276C65.8679 77.3334 65.8583 77.336 65.8486 77.336Z" fill="#363E44"/>
<path d="M64.46 78.6572C64.445 78.6572 64.4302 78.6507 64.42 78.6382C64.376 78.5841 64.3302 78.5297 64.283 78.4751C63.8929 78.0243 63.4455 77.6207 62.9531 77.2756C62.9298 77.2593 62.9242 77.2272 62.9405 77.2039C62.9569 77.1806 62.9889 77.1749 63.0123 77.1912C63.5115 77.5412 63.9653 77.9505 64.3609 78.4077C64.4089 78.4631 64.4552 78.5183 64.4999 78.5731C64.5179 78.5952 64.5145 78.6276 64.4925 78.6456C64.4829 78.6534 64.4713 78.6572 64.46 78.6572Z" fill="#363E44"/>
<path d="M63.0058 79.9277C62.9928 79.9277 62.9799 79.9229 62.9699 79.9131C62.6906 79.6413 62.3862 79.3894 62.0649 79.1643C62.0416 79.1479 62.036 79.1159 62.0523 79.0925C62.0687 79.0692 62.1007 79.0635 62.1241 79.0799C62.4498 79.3081 62.7585 79.5637 63.0418 79.8393C63.0622 79.8592 63.0626 79.8918 63.0428 79.9122C63.0326 79.9225 63.0193 79.9277 63.0058 79.9277Z" fill="#363E44"/>
<path d="M55.5255 31.3691C55.7147 31.4108 57.5213 31.8373 58.1912 33.3842C58.6897 34.5353 58.4118 35.7153 57.6464 37.6241C56.7451 39.8718 55.8923 41.0895 55.0836 41.3287C53.8059 41.7066 51.1931 39.0879 50.6658 36.6992C50.2852 34.9751 50.987 33.1408 52.3502 31.9991C53.7096 30.8607 55.4047 31.3425 55.5255 31.3691Z" fill="white"/>
<path d="M49.3487 45.0287L48.9876 44.858C47.9005 44.3441 47.4357 43.0463 47.9496 41.9592L50.5707 36.4139C51.0846 35.3268 52.3824 34.8621 53.4696 35.3759L53.8307 35.5467C54.9178 36.0606 55.3826 37.3584 54.8687 38.4455L52.2475 43.9907C51.7337 45.0778 50.4358 45.5425 49.3487 45.0287Z" fill="white"/>
<path d="M53.6899 41.0138C53.6806 41.0138 53.6711 41.0113 53.6626 41.006C52.4813 40.2637 51.0119 38.506 50.6155 36.7104C50.6093 36.6826 50.6269 36.6551 50.6547 36.649C50.6826 36.6427 50.7099 36.6604 50.7161 36.6882C51.0922 38.3923 52.5375 40.1774 53.7174 40.9187C53.7415 40.9339 53.7487 40.9656 53.7335 40.9897C53.7238 41.0053 53.7071 41.0138 53.6899 41.0138Z" fill="#363E44"/>
<path d="M53.2833 34.262C52.4212 34.4097 51.8643 34.8969 51.4892 35.797C51.1809 36.5369 51.6698 37.85 51.0638 38.9783C50.3487 40.31 48.5628 40.5492 47.4387 39.9709C46.543 39.5101 46.3273 38.4306 46.292 38.2385C46.329 38.2793 46.6713 38.6448 47.1798 38.5898C47.5259 38.5524 47.7442 38.3424 47.8086 38.2755C47.6865 38.2601 47.3358 38.199 47.0688 37.9055C46.7519 37.5572 46.681 37.0221 46.8839 36.5369C47.295 37.1525 47.7632 37.0976 47.9813 37.1102C48.1225 37.1184 48.9677 36.9376 49.7322 35.7045C50.4779 34.5018 50.6867 34.2285 51.1933 34.003C51.658 33.796 52.3185 33.786 53.2833 34.262Z" fill="#363E44"/>
<path d="M52.6295 37.2899C53.3351 37.1981 53.8191 36.447 53.7105 35.6121C53.6019 34.7773 52.9418 34.1749 52.2362 34.2667C51.5305 34.3585 51.0465 35.1097 51.1551 35.9445C51.2638 36.7794 51.9238 37.3817 52.6295 37.2899Z" fill="white"/>
<path d="M51.8196 36.0699C51.7977 36.0699 51.7773 36.0558 51.7705 36.0336C51.7543 35.9814 51.7425 35.927 51.7353 35.8719C51.707 35.6547 51.7522 35.4408 51.8625 35.2695C51.9747 35.0955 52.1404 34.9861 52.3291 34.9616C52.4249 34.9492 52.5204 34.9592 52.6133 34.9915C52.6402 35.0009 52.6544 35.0302 52.645 35.0571C52.6357 35.084 52.6065 35.0982 52.5794 35.0888C52.5018 35.0618 52.4221 35.0534 52.3424 35.0637C52.1843 35.0843 52.0446 35.1772 51.9492 35.3253C51.852 35.4761 51.8123 35.6656 51.8374 35.8587C51.8439 35.9079 51.8544 35.9566 51.8688 36.0032C51.8772 36.0304 51.862 36.0592 51.8349 36.0676C51.8298 36.0692 51.8246 36.0699 51.8196 36.0699Z" fill="#363E44"/>
<path d="M54.0435 35.4802C54.0435 35.4802 54.7316 35.4954 55.3674 35.8557C55.5026 35.9324 54.634 36.8702 54.5404 36.7361C54.1285 36.1467 54.0435 35.4802 54.0435 35.4802Z" fill="#F9DD65"/>
<path d="M55.7587 36.1355C55.6356 36.0247 55.5028 35.9335 55.3678 35.8569C54.9451 35.99 54.6416 36.3308 54.54 36.7352C54.6337 36.8695 54.7443 36.9999 54.8748 37.1174C55.5781 37.7506 56.5903 37.773 56.5903 37.773C56.5903 37.773 56.4621 36.7687 55.7587 36.1355Z" fill="#373E44"/>
<path d="M55.3979 39.4678C55.1999 39.4678 55.0159 39.3615 54.9293 39.1885C54.8009 38.9322 54.96 38.6839 54.9668 38.6734C54.9824 38.6497 55.0143 38.643 55.0381 38.6585C55.0619 38.6741 55.0686 38.706 55.053 38.7298C55.0517 38.7318 54.9194 38.9389 55.0214 39.1424C55.102 39.3036 55.2906 39.3921 55.4794 39.3574C55.5072 39.3525 55.5341 39.3709 55.5392 39.3988C55.5444 39.4268 55.5258 39.4536 55.4978 39.4587C55.4644 39.4649 55.431 39.4678 55.3979 39.4678Z" fill="#363E44"/>
<path d="M56.7614 39.0642C56.7366 39.0642 56.7148 39.0462 56.7106 39.021C56.7061 38.9929 56.7251 38.9664 56.7532 38.9619C56.9839 38.9243 57.1232 38.8551 57.1559 38.7617C57.1732 38.7124 57.1592 38.6676 57.1306 38.5861C57.1083 38.5224 57.0806 38.4431 57.0688 38.3383C57.0513 38.1835 57.0742 38.0239 57.1367 37.8641C57.1471 37.8377 57.1771 37.8246 57.2035 37.835C57.23 37.8453 57.2431 37.8752 57.2327 37.9017C57.1762 38.0458 57.1556 38.1888 57.1712 38.3268C57.1816 38.4201 57.2062 38.4902 57.2279 38.5521C57.2576 38.6369 57.2832 38.7101 57.2531 38.7959C57.2058 38.9307 57.0477 39.0182 56.7698 39.0635C56.7669 39.064 56.7641 39.0642 56.7614 39.0642Z" fill="#363E44"/>
<path d="M58.8324 34.5185C58.5053 32.2264 56.8221 30.513 54.9066 30.3539C52.6298 30.1649 50.4208 32.2049 50.2505 35.0143C51.5472 34.9567 52.8559 34.8908 54.1763 34.8159C55.7459 34.7271 57.2981 34.6276 58.8324 34.5185Z" fill="#F9DD65"/>
<path d="M46.4523 35.2139C46.4253 35.2139 46.4027 35.1929 46.401 35.1656C46.3992 35.1372 46.4208 35.1127 46.4492 35.111L54.39 34.6177C54.419 34.6163 54.4428 34.6376 54.4446 34.6659C54.4463 34.6943 54.4247 34.7188 54.3963 34.7205L46.4556 35.2138C46.4545 35.2138 46.4534 35.2139 46.4523 35.2139Z" fill="#F9DD65"/>
<path d="M56.2798 33.9293C56.9887 33.8799 57.6978 33.8307 58.4068 33.7813C59.0648 33.5766 59.4335 33.3144 59.3871 32.8196C59.3501 32.425 58.7866 32.2327 58.4438 32.2647C57.2539 32.3756 56.341 33.8143 56.2798 33.9293Z" fill="#363E44"/>
<path d="M77.0316 73.7318C77.2334 75.8321 77.3014 78.3339 77.0316 81.13C76.5659 85.9553 75.2652 89.882 74.0723 92.6712C76.8343 93.0658 79.5963 93.4604 82.3583 93.8549C81.4614 91.6883 80.5871 89.0589 79.9909 86.0128C78.7855 79.8547 79.2181 74.5548 79.8429 70.9204C78.9058 71.8575 77.9687 72.7947 77.0316 73.7318Z" fill="#E6D0BE"/>
<path d="M88.7666 64.3125C88.3677 63.8513 87.7969 63.8124 87.0122 64.041C87.0158 63.7476 87.0155 63.4492 87.0111 63.1454C87.6473 62.262 88.2485 61.1563 87.814 60.4895C87.7459 60.3851 87.4797 60.0134 86.8433 60.076C86.7507 59.0588 86.6274 58.067 86.4764 57.1053C87.3644 53.9446 87.4788 52.3818 86.7612 51.9664C86.466 51.7955 86.0445 51.7727 85.416 52.2072C85.3622 52.0151 85.3072 51.8252 85.2514 51.6368C85.7633 50.2489 86.3627 48.2548 85.5329 47.5794C85.3511 47.4314 84.7811 47.108 83.8689 47.7846C83.7769 47.5707 83.6836 47.3613 83.5893 47.1557C84.1274 45.1221 83.9007 44.0627 83.4271 43.8191C83.135 43.6689 82.6014 43.6173 81.9857 44.2047C80.5456 41.9928 79.0261 40.7357 77.7628 40.7357C76.3689 40.7357 74.8737 42.0937 73.4826 44.5099C73.1612 44.1744 72.8342 44.0047 72.5224 44.12C71.8059 44.3847 71.7693 46.393 71.8547 47.9531C71.7052 48.3321 71.5584 48.7241 71.4144 49.1285C70.7808 48.5052 70.4525 48.524 70.1659 48.6573C69.6934 48.8771 69.7279 50.7462 70.2604 52.885C70.2071 53.0871 70.1546 53.2913 70.1026 53.4974C69.3111 52.5109 69.0663 52.725 68.8122 52.8186C68.0418 53.1025 68.4861 56.286 68.9846 58.9708C68.9143 59.4079 68.8468 59.8499 68.7832 60.2983C68.2422 64.1084 68.3779 67.131 68.9664 69.5016C68.2296 69.3597 67.8948 69.4353 67.7844 69.6145C67.4731 70.1197 68.6517 71.9184 70.6542 73.3731C72.5608 76.1195 75.4081 77.1349 78.0032 77.1349C81.665 77.1349 84.6499 75.007 86.0874 70.5041C88.4001 68.0674 89.5431 65.2104 88.7666 64.3125Z" fill="#00AB4C"/>
<path d="M70.2504 65.1737C70.2249 65.1737 70.2028 65.1548 70.1994 65.1289C69.8842 62.7525 70.11 61.4381 70.8525 61.3279C71.6183 61.2134 72.3965 62.6628 72.7289 63.3751C72.5732 62.2919 72.7122 61.6926 73.1508 61.5477C73.7649 61.3449 74.7671 62.1715 75.4323 63.4298C75.4456 63.4549 75.436 63.4861 75.4109 63.4994C75.3856 63.5127 75.3545 63.5031 75.3412 63.4779C74.6988 62.2628 73.7508 61.4578 73.1831 61.6455C72.7499 61.7887 72.6567 62.4815 72.8983 63.7634C72.9032 63.7894 72.8875 63.8149 72.8621 63.8224C72.8366 63.8298 72.8098 63.8167 72.7999 63.7922C72.5197 63.0969 71.6273 61.3174 70.8676 61.4297C70.2005 61.5288 69.9995 62.8377 70.3015 65.1154C70.3053 65.1435 70.2854 65.1694 70.2573 65.1732C70.2549 65.1735 70.2526 65.1737 70.2504 65.1737Z" fill="#E6D0BE"/>
<path d="M83.6202 71.7926C83.6179 71.7926 83.6156 71.7924 83.6133 71.7921C83.5852 71.7884 83.5653 71.7625 83.5691 71.7343C83.8231 69.8192 83.656 68.7189 83.0987 68.6361C82.4625 68.5406 81.7138 70.0383 81.4783 70.6228C81.4684 70.6474 81.4416 70.6604 81.416 70.653C81.3906 70.6455 81.375 70.6201 81.3799 70.5941C81.5798 69.5329 81.5009 68.9352 81.1452 68.8177C80.6778 68.6631 79.8661 69.3547 79.3353 70.3587C79.3221 70.3838 79.2909 70.3934 79.2657 70.3801C79.2406 70.3668 79.2309 70.3357 79.2443 70.3105C79.8069 69.2463 80.6562 68.5477 81.1774 68.7199C81.5441 68.8411 81.6656 69.3321 81.5459 70.2167C81.8383 69.6002 82.4774 68.44 83.1136 68.5342C83.7448 68.6279 83.9375 69.7391 83.6711 71.7478C83.6678 71.7738 83.6456 71.7926 83.6202 71.7926Z" fill="#E6D0BE"/>
<path d="M82.3712 55.8961C82.3689 55.8961 82.3666 55.8959 82.3643 55.8956C82.3361 55.8919 82.3163 55.866 82.3201 55.8378C82.5741 53.9226 82.407 52.8223 81.8496 52.7396C81.216 52.6458 80.4649 54.1418 80.2293 54.7263C80.2194 54.7508 80.1924 54.7638 80.167 54.7565C80.1416 54.749 80.126 54.7235 80.1309 54.6975C80.3308 53.6364 80.2518 53.0387 79.8961 52.9212C79.4292 52.7668 78.6172 53.458 78.0863 54.4621C78.0731 54.4872 78.042 54.4969 78.0167 54.4836C77.9916 54.4703 77.9819 54.4392 77.9953 54.414C78.5579 53.3497 79.4072 52.6512 79.9284 52.8233C80.2951 52.9445 80.4166 53.4355 80.2968 54.3201C80.5893 53.7036 81.23 52.544 81.8646 52.6377C82.4957 52.7313 82.6884 53.8426 82.422 55.8513C82.4187 55.8772 82.3966 55.8961 82.3712 55.8961Z" fill="#E6D0BE"/>
<path d="M87.0656 94.8466C87.1887 94.5531 87.2701 94.2364 87.2955 93.9015C87.4229 92.2252 86.1673 90.7629 84.4909 90.6354C83.3735 90.5505 82.352 91.0804 81.7567 91.9393C81.326 90.48 80.0316 89.3672 78.4243 89.245C77.9312 89.2075 77.4534 89.2677 77.0087 89.4075C76.5652 88.9586 75.9657 88.66 75.2871 88.6084C74.8494 88.5751 74.4294 88.6501 74.0496 88.8068C73.8123 87.4012 72.6438 86.2837 71.1585 86.1707C69.4092 86.0378 67.8833 87.348 67.7504 89.0974C67.7497 89.1049 67.7497 89.1123 67.7492 89.1199C67.4058 88.9737 67.0337 88.8794 66.6409 88.8496C64.8903 88.7165 63.3425 89.8923 62.9585 91.5517C62.8388 91.5241 62.7168 91.5022 62.5906 91.4926C61.2422 91.3901 60.066 92.4001 59.9635 93.7485C59.934 94.1363 59.9991 94.5088 60.1353 94.8467L87.0656 94.8466Z" fill="#716D4F"/>
<path d="M13.1141 71.0423C13.1103 71.0423 13.1065 71.0418 13.1026 71.041C13.0749 71.0347 13.0575 71.0072 13.0638 70.9794L15.4454 60.4324L13.0648 52.7807C13.0626 52.7735 13.062 52.7659 13.063 52.7585L14.596 41.3464C14.5998 41.3182 14.6258 41.2985 14.6539 41.3022C14.6821 41.306 14.7019 41.3319 14.6981 41.3601L13.1666 52.761L15.5479 60.415C15.5506 60.4236 15.5509 60.4328 15.549 60.4416L13.1643 71.0021C13.1588 71.026 13.1376 71.0423 13.1141 71.0423Z" fill="#D3BBA3"/>
<path d="M15.4606 60.491C15.4532 60.491 15.4457 60.4894 15.4385 60.486L8.2846 57.0794C8.26869 57.0719 8.25772 57.0567 8.25561 57.0392L6.89695 46.0003L0.62596 43.9664C0.598924 43.9577 0.584093 43.9286 0.592847 43.9016C0.601602 43.8746 0.630544 43.8597 0.657734 43.8685L6.95998 45.9125C6.97904 45.9187 6.99279 45.9353 6.99521 45.9552L8.35438 56.9986L15.4827 60.3931C15.5084 60.4053 15.5194 60.436 15.5072 60.4617C15.4984 60.4802 15.4799 60.491 15.4606 60.491Z" fill="#D3BBA3"/>
<path d="M14.8786 58.3397C14.8693 58.3397 14.8599 58.3372 14.8514 58.3319C14.8272 58.3169 14.8199 58.2851 14.835 58.261L18.6254 52.1819C18.6282 52.1774 18.6317 52.1733 18.6357 52.1699L23.7316 47.8402L23.094 36.2996C23.0924 36.2712 23.1141 36.2469 23.1425 36.2453C23.172 36.2437 23.1952 36.2655 23.1967 36.2939L23.8358 47.86C23.8367 47.8761 23.83 47.8917 23.8177 47.9021L18.7085 52.2431L14.9223 58.3154C14.9126 58.3311 14.8958 58.3397 14.8786 58.3397Z" fill="#D3BBA3"/>
<path d="M0.055438 53.5362C0.0380319 53.5362 0.0210387 53.5274 0.0114087 53.5115C-0.00337102 53.4872 0.00435351 53.4555 0.0287118 53.4407L3.20821 51.5103C3.2181 51.5043 3.23 51.5017 3.24148 51.5032L7.67005 52.071C7.69827 52.0746 7.71825 52.1004 7.71459 52.1286C7.71099 52.1568 7.6855 52.1772 7.65697 52.1732L3.24627 51.6077L0.0821658 53.5288C0.0737202 53.5338 0.064553 53.5362 0.055438 53.5362Z" fill="#D3BBA3"/>
<path d="M1.60715 52.5139C1.58774 52.5139 1.5692 52.5029 1.56044 52.4842L0.765581 50.7808C0.753582 50.7551 0.764654 50.7244 0.790454 50.7124C0.816254 50.7004 0.846896 50.7115 0.858895 50.7373L1.65376 52.4406C1.66576 52.4664 1.65468 52.497 1.62888 52.509C1.62183 52.5123 1.61441 52.5139 1.60715 52.5139Z" fill="#D3BBA3"/>
<path d="M5.01396 45.3321C5.01309 45.3321 5.01231 45.3321 5.01144 45.3321C4.98301 45.3307 4.96107 45.3066 4.96246 45.2782L5.07602 42.8936C5.07735 42.8652 5.1029 42.844 5.12993 42.8446C5.15836 42.8459 5.1803 42.87 5.17891 42.8984L5.06536 45.2831C5.06407 45.3107 5.04126 45.3321 5.01396 45.3321Z" fill="#D3BBA3"/>
<path d="M8.37326 57.0186C8.3679 57.0186 8.36239 57.0177 8.35698 57.0159C8.33005 57.0069 8.31543 56.9778 8.32444 56.9508L9.45996 53.5442C9.46892 53.5173 9.49791 53.5026 9.5251 53.5117C9.55203 53.5207 9.56666 53.5498 9.55765 53.5768L8.42213 56.9834C8.41492 57.005 8.39484 57.0186 8.37326 57.0186Z" fill="#D3BBA3"/>
<path d="M13.5115 49.4959C13.4893 49.4959 13.4689 49.4814 13.4622 49.4591L12.7809 47.1881L11.9852 43.6645C11.9789 43.6367 11.9963 43.6091 12.024 43.6029C12.0517 43.5967 12.0793 43.614 12.0856 43.6417L12.8805 47.1619L13.5609 49.4296C13.569 49.4568 13.5536 49.4855 13.5263 49.4937C13.5214 49.4951 13.5164 49.4959 13.5115 49.4959Z" fill="#D3BBA3"/>
<path d="M23.7845 47.9148C23.7669 47.9148 23.7498 47.9058 23.7402 47.8896L20.4506 42.3452C20.4361 42.3207 20.4441 42.2892 20.4686 42.2746C20.493 42.2601 20.5246 42.2682 20.5392 42.2927L23.8288 47.837C23.8433 47.8615 23.8352 47.8931 23.8108 47.9076C23.8025 47.9125 23.7935 47.9148 23.7845 47.9148Z" fill="#D3BBA3"/>
<path d="M22.1985 53.3848C22.1933 53.3848 22.1881 53.384 22.183 53.3824L18.681 52.2768C18.6539 52.2682 18.6388 52.2393 18.6474 52.2122C18.6559 52.1851 18.685 52.17 18.712 52.1786L22.2052 53.2814L26.7382 53.0549C26.7661 53.0527 26.7908 53.0753 26.7922 53.1037C26.7936 53.1321 26.7718 53.1563 26.7433 53.1577L22.2012 53.3848C22.2003 53.3848 22.1994 53.3848 22.1985 53.3848Z" fill="#D3BBA3"/>
<path d="M25.4912 55.4288C25.4712 55.4288 25.452 55.417 25.4438 55.3973L24.5353 53.2398C24.5243 53.2136 24.5366 53.1833 24.5628 53.1723C24.5887 53.1613 24.6192 53.1735 24.6302 53.1998L25.5387 55.3573C25.5497 55.3835 25.5375 55.4138 25.5112 55.4248C25.5047 55.4275 25.4979 55.4288 25.4912 55.4288Z" fill="#D3BBA3"/>
<path d="M23.6531 44.7945C23.6356 44.7945 23.6186 44.7857 23.609 44.7696C23.5943 44.7452 23.6021 44.7136 23.6265 44.6989L25.5601 43.5344L26.0092 41.7381C26.0161 41.7105 26.044 41.6935 26.0716 41.7007C26.0992 41.7076 26.116 41.7355 26.1091 41.7631L25.6549 43.58C25.6516 43.5932 25.6432 43.6046 25.6315 43.6116L23.6797 44.7871C23.6713 44.7921 23.6622 44.7945 23.6531 44.7945Z" fill="#D3BBA3"/>
<path d="M21.6555 44.363C21.6532 44.363 21.651 44.3628 21.6487 44.3625L19.4661 44.0728C19.4379 44.069 19.418 44.0432 19.4219 44.015C19.4256 43.9868 19.4511 43.967 19.4797 43.9707L21.6622 44.2604C21.6904 44.2642 21.7103 44.29 21.7065 44.3182C21.7031 44.3441 21.6809 44.363 21.6555 44.363Z" fill="#D3BBA3"/>
<path d="M23.2204 38.3953C23.2106 38.3953 23.2007 38.3925 23.1919 38.3866L21.1479 37.024C21.1243 37.0083 21.1179 36.9763 21.1337 36.9526C21.1494 36.9289 21.1813 36.9225 21.2051 36.9383L23.249 38.3009C23.2727 38.3167 23.2791 38.3487 23.2633 38.3724C23.2534 38.3872 23.237 38.3953 23.2204 38.3953Z" fill="#D3BBA3"/>
<path d="M9.6665 48.1571C9.6665 48.1571 10.8654 48.0689 11.6088 47.2731C12.3521 46.4772 12.3585 45.2751 12.3585 45.2751C12.3585 45.2751 11.1596 45.3634 10.4162 46.1592C9.67284 46.955 9.6665 48.1571 9.6665 48.1571Z" fill="#D3BBA3"/>
<path d="M28.3713 45.8406C28.3713 45.8406 28.1969 44.762 27.4176 44.1517C26.6383 43.5413 25.5493 43.6304 25.5493 43.6304C25.5493 43.6304 25.7238 44.709 26.503 45.3194C27.2823 45.9298 28.3713 45.8406 28.3713 45.8406Z" fill="#D3BBA3"/>
<path d="M8.6358 67.8159C7.47762 67.797 6.55469 66.8063 6.55469 66.8063C6.55469 66.8063 7.5095 65.8462 8.66768 65.8651C9.82585 65.884 10.7488 66.8747 10.7488 66.8747C10.7488 66.8747 9.79398 67.8348 8.6358 67.8159Z" fill="#E6D0BE"/>
<path d="M9.1012 71.3642C9.08889 71.3642 9.07658 71.3598 9.06675 71.351C9.02503 71.3135 8.04318 70.4176 8.00369 69.2514C7.96408 68.0853 8.8829 67.125 8.92204 67.0846C8.9414 67.0648 8.97287 67.0638 8.99347 67.0822C9.03523 67.1198 10.017 68.0157 10.0565 69.1818C10.0961 70.3479 9.17736 71.3083 9.13822 71.3486C9.12803 71.359 9.11464 71.3642 9.1012 71.3642ZM8.96149 67.1939C8.79366 67.3822 8.07274 68.2514 8.10653 69.2479C8.14036 70.2444 8.91854 71.0628 9.09867 71.2392C9.2665 71.0509 9.98737 70.1817 9.95358 69.1852C9.91975 68.1878 9.14173 67.3702 8.96149 67.1939Z" fill="#E6D0BE"/>
<path d="M10.0027 68.5255C9.98533 68.5255 9.96845 68.5167 9.95876 68.5009C9.92941 68.453 9.24238 67.3154 9.53551 66.186C9.82858 65.0566 10.9822 64.3965 11.0312 64.369C11.0552 64.3554 11.0858 64.3634 11.1004 64.387C11.1297 64.4349 11.8168 65.5726 11.5237 66.702C11.2305 67.8314 10.0769 68.4914 10.0279 68.5189C10.0199 68.5233 10.0112 68.5255 10.0027 68.5255ZM11.038 64.485C10.8237 64.6179 9.88569 65.2467 9.6352 66.2118C9.38452 67.1778 9.89836 68.1826 10.0211 68.4028C10.2355 68.2699 11.1734 67.6411 11.424 66.676C11.6744 65.711 11.1606 64.7054 11.038 64.485Z" fill="#E6D0BE"/>
<path d="M13.1647 72.0232C12.7243 72.0232 11.82 71.947 11.1579 71.3824C10.27 70.6254 10.1802 69.2994 10.1769 69.2433C10.1752 69.2157 10.1956 69.1917 10.2231 69.189C10.2792 69.1835 11.6027 69.0624 12.4905 69.8195C13.3784 70.5765 13.4682 71.9026 13.4716 71.9586C13.4732 71.9862 13.4528 72.0102 13.4253 72.013C13.4111 72.0143 13.3148 72.0232 13.1647 72.0232ZM10.2843 69.2878C10.3102 69.5387 10.466 70.6571 11.2248 71.304C11.9835 71.9509 13.1125 71.928 13.3643 71.9139C13.3384 71.6631 13.1825 70.5447 12.4238 69.8978C11.665 69.2508 10.5359 69.2739 10.2843 69.2878Z" fill="#D3BBA3"/>
<path d="M11.6705 69.7323C10.5123 69.7134 9.58936 68.7227 9.58936 68.7227C9.58936 68.7227 10.5442 67.7627 11.7023 67.7816C12.8605 67.8005 13.7835 68.7912 13.7835 68.7912C13.7835 68.7912 12.8286 69.7512 11.6705 69.7323Z" fill="#E6D0BE"/>
<path d="M6.32385 68.8285C6.15906 67.682 6.99105 66.6137 6.99105 66.6137C6.99105 66.6137 8.09021 67.4044 8.255 68.5509C8.41979 69.6975 7.5878 70.7657 7.5878 70.7657C7.5878 70.7657 6.48864 69.975 6.32385 68.8285Z" fill="#D3BBA3"/>
<path d="M12.5184 69.2733C13.4344 68.5643 14.7741 68.761 14.7741 68.761C14.7741 68.761 14.6287 70.1072 13.7127 70.8162C12.7967 71.5252 11.457 71.3285 11.457 71.3285C11.457 71.3285 11.6025 69.9824 12.5184 69.2733Z" fill="#D3BBA3"/>
<path d="M16.5227 72.0761C16.5177 72.0761 16.5128 72.0754 16.5078 72.0739C16.454 72.0577 15.1843 71.665 14.652 70.6267C14.1198 69.5884 14.5423 68.3282 14.5606 68.2751C14.5696 68.2489 14.5977 68.2345 14.6241 68.2425C14.6779 68.2587 15.9476 68.6514 16.4799 69.6897C17.0121 70.728 16.5896 71.9882 16.5713 72.0413C16.564 72.0627 16.5441 72.0761 16.5227 72.0761ZM14.7436 70.5797C15.1989 71.4679 16.2509 71.8764 16.4891 71.9592C16.5608 71.7175 16.843 70.624 16.3882 69.7367C15.9329 68.8486 14.8809 68.4401 14.6427 68.3572C14.5711 68.599 14.2889 69.6924 14.7436 70.5797Z" fill="#E6D0BE"/>
<path d="M13.9077 71.4684C15.0339 71.1976 16.175 71.9263 16.175 71.9263C16.175 71.9263 15.4902 73.0944 14.364 73.3653C13.2378 73.6362 12.0967 72.9073 12.0967 72.9073C12.0967 72.9073 12.7815 71.7393 13.9077 71.4684Z" fill="#E6D0BE"/>
<path d="M9.67311 72.8811C8.76938 72.1566 8.64697 70.8081 8.64697 70.8081C8.64697 70.8081 9.98977 70.6344 10.8935 71.359C11.7973 72.0835 11.9197 73.432 11.9197 73.432C11.9197 73.432 10.5768 73.6057 9.67311 72.8811Z" fill="#D3BBA3"/>
<path d="M13.5796 68.8717C13.5753 68.8717 13.5708 68.8711 13.5665 68.87C13.5121 68.8557 12.2295 68.5074 11.6615 67.4882C11.0934 66.469 11.4718 65.1949 11.4882 65.1412C11.4963 65.1147 11.524 65.0994 11.5506 65.1065C11.6049 65.1208 12.8876 65.4691 13.4556 66.4882C14.0237 67.5075 13.6453 68.7815 13.6288 68.8352C13.6221 68.8573 13.6018 68.8717 13.5796 68.8717ZM11.7514 67.4381C12.2373 68.3098 13.3029 68.6815 13.5438 68.756C13.607 68.5118 13.8511 67.4093 13.3657 66.5384C12.8802 65.6674 11.8142 65.295 11.5733 65.2204C11.5101 65.4646 11.266 66.5671 11.7514 67.4381Z" fill="#D3BBA3"/>
<path d="M17.5472 72.6077C16.4294 72.9112 15.2676 72.2158 15.2676 72.2158C15.2676 72.2158 15.9182 71.0284 17.036 70.7249C18.1539 70.4214 19.3157 71.1168 19.3157 71.1168C19.3157 71.1168 18.6651 72.3042 17.5472 72.6077Z" fill="#D3BBA3"/>
<path d="M17.5427 70.5401C16.639 69.8155 16.5166 68.467 16.5166 68.467C16.5166 68.467 17.8594 68.2933 18.7631 69.0179C19.6668 69.7424 19.7893 71.0909 19.7893 71.0909C19.7893 71.0909 18.4465 71.2646 17.5427 70.5401Z" fill="#E6D0BE"/>
<path d="M89.8839 40.433L89.8682 40.4299C87.4846 39.9464 85.6199 38.0867 85.1301 35.7043L85.1269 35.72C84.6434 38.1036 82.7837 39.9683 80.4014 40.4582L80.417 40.4614C82.8006 40.9448 84.6654 42.8046 85.1552 45.1869L85.1584 45.1712C85.6418 42.7877 87.5016 40.9229 89.8839 40.433Z" fill="white"/>
<path d="M81.4281 45.9806L81.4204 45.9791C80.2528 45.7423 79.3394 44.8313 79.0995 43.6644L79.0979 43.672C78.8611 44.8396 77.9501 45.753 76.7832 45.993L76.7909 45.9945C77.9584 46.2313 78.8719 47.1423 79.1118 48.3092L79.1134 48.3016C79.3501 47.134 80.2611 46.2205 81.4281 45.9806Z" fill="white"/>
<path d="M73.4347 70.281L73.4221 70.2784C71.5063 69.8899 70.0075 68.3951 69.6137 66.4802L69.6112 66.4928C69.2226 68.4086 67.7278 69.9075 65.813 70.3012L65.8256 70.3038C67.7414 70.6923 69.2402 72.1871 69.6339 74.1019L69.6365 74.0894C70.0251 72.1736 71.5199 70.6747 73.4347 70.281Z" fill="white"/>
<path d="M69.2733 37.5672L69.2633 37.5652C67.7528 37.2588 66.5712 36.0803 66.2607 34.5706L66.2587 34.5806C65.9524 36.0911 64.7739 37.2728 63.2642 37.5832L63.2741 37.5852C64.7846 37.8915 65.9663 39.07 66.2767 40.5797L66.2787 40.5698C66.5851 39.0593 67.7636 37.8776 69.2733 37.5672Z" fill="white"/>
<path d="M57.0481 102.926C57.0639 102.92 57.0797 102.915 57.0954 102.909C61.334 101.36 63.5681 96.816 63.2267 95.8822C62.8761 94.9234 58.2473 92.9173 54.0087 94.467C53.993 94.4728 53.9777 94.479 53.9619 94.4848L57.0481 102.926Z" fill="#F9DD65"/>
<path d="M43.5139 99.9376C43.4929 99.9376 43.4732 99.9247 43.4655 99.9038C43.4558 99.877 43.4695 99.8475 43.4962 99.8378L52.7054 96.4707L53.7234 99.2549L59.7373 97.0561C59.764 97.0464 59.7936 97.06 59.8034 97.0868C59.8131 97.1135 59.7994 97.1431 59.7727 97.1528L53.662 99.3869L52.644 96.6028L43.5316 99.9345C43.5258 99.9366 43.5198 99.9376 43.5139 99.9376Z" fill="#363E44"/>
<path d="M45.2277 100.512C48.2477 99.4076 50.5047 97.9898 50.269 97.3449C50.0332 96.7001 47.3939 97.0725 44.3739 98.1767C41.3539 99.2809 39.0969 100.699 39.3327 101.344C39.5684 101.988 42.2077 101.616 45.2277 100.512Z" fill="#F9DD65"/>
</g>
</g>
<defs>
<clipPath id="clip0_177_9549">
<rect width="94" height="120" fill="white"/>
</clipPath>
<clipPath id="clip1_177_9549">
<rect x="-0.37207" y="11.5" width="94.7442" height="97" rx="7.51938" fill="white"/>
</clipPath>
</defs>
</svg>
