<svg width="94" height="120" viewBox="0 0 94 120" fill="none" xmlns="http://www.w3.org/2000/svg">
<g clip-path="url(#clip0_177_5451)">
<rect width="94" height="120" fill="#FFCD61"/>
<g clip-path="url(#clip1_177_5451)">
<g clip-path="url(#clip2_177_5451)">
<path d="M46.5729 107.135C72.2923 107.135 93.142 86.285 93.142 60.5656C93.142 34.8462 72.2923 13.9966 46.5729 13.9966C20.8536 13.9966 0.00390625 34.8462 0.00390625 60.5656C0.00390625 86.285 20.8536 107.135 46.5729 107.135Z" fill="#E8606B"/>
<path d="M73.1324 101.347C73.1887 101.341 73.2326 101.294 73.2327 101.236C73.2613 89.1866 76.875 78.804 79.9014 72.216C83.1817 65.0754 86.4981 60.7295 86.5313 60.6864C86.569 60.6372 86.5598 60.5668 86.5107 60.529C86.4615 60.4915 86.3911 60.5006 86.3534 60.5496C86.3201 60.5928 82.991 64.9545 79.7002 72.1163C76.6632 78.7259 73.037 89.1431 73.0083 101.235C73.0081 101.297 73.0583 101.348 73.1202 101.348C73.1243 101.348 73.1284 101.348 73.1324 101.347Z" fill="#E6D0BE"/>
<path d="M84.4266 63.5861C84.4266 63.5861 83.5364 59.7 90.0132 55.3268C90.0132 55.3268 90.0162 63.0179 84.4266 63.5861Z" fill="#E6D0BE"/>
<path d="M82.5742 65.8484C82.6592 65.8961 83.7449 62.0973 79.9178 57.7985C79.9178 57.7985 79.4091 64.0688 82.5742 65.8484Z" fill="#E6D0BE"/>
<path d="M80.4575 69.416C80.4575 69.416 80.422 66.0042 75.2065 62.5238C75.2065 62.5238 77.4903 69.4568 80.4575 69.416Z" fill="#E6D0BE"/>
<path d="M78.5575 73.8264C78.6547 73.8193 77.4631 70.0524 71.8989 68.5804C71.8989 68.5804 74.936 74.0896 78.5575 73.8264Z" fill="#E6D0BE"/>
<path d="M77.184 77.2282C77.184 77.2282 75.3264 74.8032 69.7168 75.0841C69.7168 75.0841 75.0777 78.8355 77.184 77.2282Z" fill="#E6D0BE"/>
<path d="M75.624 81.9827C75.624 81.9827 73.3237 80.6383 68.8877 82.717C68.8877 82.717 74.4541 83.9757 75.624 81.9827Z" fill="#E6D0BE"/>
<path d="M83.1315 66.376C83.0578 66.3309 85.5294 63.848 90.5122 64.9523C90.5122 64.9523 85.8776 68.0571 83.1315 66.376Z" fill="#E6D0BE"/>
<path d="M81.3965 69.9745C81.3965 69.9745 84.3926 68.3421 89.9742 71.1987C89.9742 71.1987 82.8077 72.5851 81.3965 69.9745Z" fill="#E6D0BE"/>
<path d="M79.491 74.6298C79.4498 74.5415 83.3197 73.7452 87.3178 77.8856C87.3178 77.8856 81.0269 77.9201 79.491 74.6298Z" fill="#E6D0BE"/>
<path d="M78.0456 77.8372C78.0456 77.8372 81.0685 78.2768 83.5583 83.3114C83.5583 83.3114 77.6693 80.4599 78.0456 77.8372Z" fill="#E6D0BE"/>
<path d="M76.4354 82.3804C76.4354 82.3804 78.7307 83.7332 79.0786 88.6198C79.0786 88.6198 75.2657 84.3736 76.4354 82.3804Z" fill="#E6D0BE"/>
<path d="M86.0085 44.4845C91.8735 38.6195 91.8735 29.1104 86.0085 23.2454C80.1435 17.3804 70.6344 17.3804 64.7694 23.2454C58.9044 29.1104 58.9044 38.6195 64.7694 44.4845C70.6344 50.3495 80.1435 50.3495 86.0085 44.4845Z" fill="#E6D0BE"/>
<path d="M77.5674 48.9334C77.5375 48.9334 77.5082 48.9333 77.4782 48.9331C73.4531 48.9099 69.6779 47.3207 66.8482 44.4581C64.0184 41.5955 62.4727 37.8024 62.4959 33.7772C62.519 29.7521 64.1083 25.977 66.9709 23.1472C69.8121 20.3384 73.5708 18.7946 77.5625 18.7946C77.5924 18.7946 77.6217 18.7947 77.6517 18.7949C81.6769 18.818 85.452 20.4073 88.2818 23.2699C91.1116 26.1324 92.6572 29.9256 92.6341 33.9507C92.6109 37.9758 91.0216 41.751 88.1591 44.5808C85.3178 47.3895 81.5591 48.9334 77.5674 48.9334ZM77.5636 18.8965C69.3498 18.8965 62.645 25.5535 62.5977 33.7778C62.5746 37.7757 64.1098 41.5434 66.9205 44.3866C69.7313 47.2298 73.4809 48.8083 77.4788 48.8313C77.5075 48.8315 77.5377 48.8316 77.5664 48.8316C85.7802 48.8324 92.4849 42.1745 92.5323 33.9502C92.5553 29.9523 91.0201 26.1847 88.2094 23.3415C85.3987 20.4982 81.6491 18.9197 77.6512 18.8967C77.6224 18.8965 77.5923 18.8965 77.5636 18.8965Z" fill="white"/>
<path d="M77.5917 26.6304C73.4217 26.6304 69.3231 25.9283 65.7388 24.6001L65.7741 24.5046C69.3472 25.8287 73.4337 26.5286 77.5916 26.5286C81.7177 26.5286 85.7768 25.8388 89.3303 24.5338L89.3654 24.6293C85.8009 25.9384 81.7296 26.6304 77.5917 26.6304Z" fill="white"/>
<path d="M65.637 43.0165L65.6011 42.9212C69.2197 41.5593 73.3659 40.8395 77.5917 40.8395C81.7946 40.8395 85.9214 41.5521 89.5261 42.9001L89.4904 42.9954C85.897 41.6516 81.7826 40.9412 77.5917 40.9412C73.3781 40.9413 69.2442 41.6589 65.637 43.0165Z" fill="white"/>
<path d="M77.5651 48.934C75.4624 48.934 73.4882 47.3621 72.0063 44.5078C70.5298 41.6641 69.7168 37.8843 69.7168 33.8647C69.7168 29.8451 70.5299 26.0653 72.0063 23.2216C73.4882 20.3673 75.4623 18.7953 77.5651 18.7953C79.6678 18.7953 81.6419 20.3673 83.1238 23.2216C84.6003 26.0653 85.4133 29.8451 85.4133 33.8647C85.4133 37.8842 84.6002 41.6641 83.1238 44.5078C81.6419 47.3621 79.6678 48.934 77.5651 48.934ZM77.5651 18.8971C73.2937 18.8971 69.8186 25.6115 69.8186 33.8647C69.8186 42.1178 73.2937 48.8322 77.5651 48.8322C81.8365 48.8322 85.3115 42.1178 85.3115 33.8647C85.3115 25.6116 81.8365 18.8971 77.5651 18.8971Z" fill="white"/>
<path d="M77.616 18.8776H77.5142V48.8626H77.616V18.8776Z" fill="white"/>
<path d="M62.5394 33.6024L62.5386 33.7042L92.5886 33.9386L92.5894 33.8368L62.5394 33.6024Z" fill="white"/>
<path d="M53.656 28.2261H51.5125V27.6142C51.248 27.5635 50.9853 27.4932 50.7302 27.4049L50.4244 27.9346L48.5681 26.8629L48.8745 26.332C48.6709 26.1555 48.4788 25.9633 48.3024 25.7599L47.7715 26.0664L46.6997 24.21L47.2294 23.9042C47.1411 23.6492 47.0708 23.3865 47.0201 23.1219H46.4082V20.9784H47.0201C47.0708 20.7139 47.1411 20.4511 47.2294 20.1961L46.6997 19.8903L47.7715 18.034L48.3024 18.3405C48.4788 18.1371 48.6709 17.9449 48.8745 17.7684L48.5681 17.2375L50.4244 16.1658L50.7302 16.6954C50.9853 16.6071 51.248 16.5369 51.5125 16.4862V15.8741H53.656V16.4861C53.9205 16.5368 54.1832 16.6071 54.4383 16.6953L54.7441 16.1657L56.6004 17.2375L56.294 17.7683C56.4974 17.9447 56.6895 18.1369 56.8661 18.3405L57.397 18.034L58.4687 19.8903L57.9391 20.1961C58.0275 20.4514 58.0977 20.7142 58.1483 20.9784H58.7602V23.1219H58.1483C58.0977 23.3862 58.0275 23.6489 57.9391 23.9042L58.4687 24.21L57.397 26.0664L56.8661 25.7599C56.6895 25.9634 56.4974 26.1556 56.294 26.332L56.6004 26.8629L54.7441 27.9346L54.4383 27.4049C54.1832 27.4932 53.9205 27.5635 53.656 27.6142V28.2261ZM51.6143 28.1243H53.5542V27.5296L53.5959 27.522C53.8831 27.4692 54.1685 27.3929 54.4442 27.2951L54.4841 27.2809L54.7813 27.7956L56.4613 26.8257L56.1635 26.3098L56.1957 26.2823C56.4177 26.0927 56.6265 25.8838 56.8163 25.6617L56.8438 25.6295L57.3596 25.9274L58.3296 24.2474L57.8149 23.9502L57.8291 23.9103C57.927 23.6342 58.0033 23.3488 58.056 23.0619L58.0636 23.0202H58.6584V21.0802H58.0636L58.056 21.0385C58.0033 20.7517 57.927 20.4663 57.8291 20.1902L57.8149 20.1503L58.3296 19.8531L57.3596 18.1731L56.8438 18.4709L56.8163 18.4388C56.6265 18.2165 56.4176 18.0077 56.1957 17.8181L56.1635 17.7907L56.4613 17.2748L54.7813 16.3048L54.4841 16.8195L54.4442 16.8054C54.1684 16.7076 53.8831 16.6312 53.5959 16.5785L53.5542 16.5708V15.9759H51.6143V16.5707L51.5726 16.5784C51.2855 16.6311 51.0001 16.7075 50.7242 16.8053L50.6843 16.8194L50.3872 16.3047L48.7072 17.2747L49.005 17.7906L48.9728 17.818C48.7507 18.0078 48.5418 18.2166 48.3522 18.4386L48.3248 18.4709L47.8088 18.173L46.8389 19.853L47.3536 20.1502L47.3394 20.1901C47.2416 20.4658 47.1653 20.7513 47.1125 21.0385L47.1049 21.0802H46.51V23.0201H47.1049L47.1125 23.0618C47.1653 23.349 47.2416 23.6344 47.3394 23.9101L47.3536 23.95L46.8389 24.2472L47.8088 25.9272L48.3248 25.6294L48.3522 25.6615C48.5419 25.8835 48.7507 26.0924 48.9728 26.2821L49.005 26.3096L48.7072 26.8255L50.3872 27.7955L50.6843 27.2808L50.7242 27.2949C51.0001 27.3927 51.2855 27.4691 51.5726 27.5218L51.6143 27.5294V28.1243ZM52.594 26.5135C51.4112 26.5135 50.2774 26.0625 49.4247 25.2097C48.1831 23.9681 47.7931 22.1306 48.4069 20.4141C48.8322 19.2243 49.7587 18.298 50.9485 17.8726C52.6651 17.259 54.5025 17.649 55.744 18.8905C56.9855 20.1321 57.3754 21.9696 56.7616 23.686C56.3363 24.8759 55.4099 25.8022 54.22 26.2276C53.6826 26.4198 53.1332 26.5135 52.594 26.5135ZM52.5741 17.6887C52.0464 17.6887 51.5089 17.7804 50.9827 17.9685C49.8216 18.3836 48.9177 19.2875 48.5026 20.4484C47.9023 22.1275 48.2831 23.9243 49.4966 25.1377C50.71 26.3512 52.5068 26.7321 54.1857 26.1318C55.3468 25.7167 56.2507 24.8128 56.6658 23.6518C57.2662 21.9728 56.8853 20.176 55.672 18.9626C54.8388 18.1294 53.7304 17.6887 52.5741 17.6887Z" fill="white"/>
<path d="M4.85754 88.2395L74.4692 88.2395V35.4768L4.85754 35.4768V88.2395Z" fill="#D3BBA3"/>
<path d="M72.2852 81.8243L72.2852 37.6606L7.04147 37.6606L7.04147 81.8243L72.2852 81.8243Z" fill="#F2E6DC"/>
<path d="M38.353 84.7724C38.353 85.4961 38.9397 86.0827 39.6634 86.0827C40.387 86.0827 40.9737 85.4961 40.9737 84.7724C40.9737 84.0487 40.387 83.462 39.6634 83.462C38.9397 83.462 38.353 84.0487 38.353 84.7724Z" fill="#F7F1EB"/>
<path d="M4.85742 89.67C4.85742 92.6899 7.30558 95.1381 10.3255 95.1381H83.2913C86.3112 95.1381 88.7594 92.6899 88.7594 89.67H4.85742Z" fill="#E6D0BE"/>
<path d="M23.1807 94.6228C20.7624 94.6228 18.7949 92.6553 18.7949 90.2371C18.7949 90.209 18.8177 90.1862 18.8458 90.1862C18.874 90.1862 18.8967 90.209 18.8967 90.2371C18.8967 92.5992 20.8185 94.521 23.1807 94.521C23.2089 94.521 23.2316 94.5438 23.2316 94.5719C23.2316 94.6 23.2088 94.6228 23.1807 94.6228Z" fill="#F2E6DC"/>
<path d="M59.2004 93.337H51.0204C49.7111 93.337 48.646 92.2719 48.646 90.9626C48.646 90.9345 48.6687 90.9117 48.6969 90.9117H61.5239C61.552 90.9117 61.5748 90.9345 61.5748 90.9626C61.5748 92.2718 60.5097 93.337 59.2004 93.337ZM48.7483 91.0135C48.7755 92.2432 49.7843 93.2352 51.0205 93.2352H59.2005C60.4366 93.2352 61.4454 92.2433 61.4725 91.0135H48.7483Z" fill="#F2E6DC"/>
<path opacity="0.5" d="M11.2036 29.7015L11.3535 16.4456L33.4761 16.5627L33.4875 27.3952L35.1052 29.9422L30.5929 29.8621L11.2036 29.7015Z" fill="white"/>
<path d="M36.5852 29.2699C36.5847 29.2699 36.5842 29.2699 36.5837 29.2699L31.4103 29.1143L12.0222 28.9537C12.0086 28.9536 11.9957 28.9481 11.9862 28.9384C11.9767 28.9287 11.9715 28.9157 11.9717 28.9022L12.1216 15.6463C12.1219 15.6184 12.1446 15.596 12.1725 15.596C12.1726 15.596 12.1728 15.596 12.1728 15.596L34.2953 15.7131C34.3233 15.7133 34.346 15.7361 34.3459 15.7641L34.3302 26.755L36.6223 29.184C36.6364 29.199 36.6401 29.221 36.6317 29.2398C36.6234 29.2582 36.6052 29.2699 36.5852 29.2699ZM12.074 28.8523L31.4121 29.0125L36.4637 29.1645L34.2422 26.8102C34.2333 26.8007 34.2283 26.7882 34.2283 26.7752L34.2441 15.8147L12.2228 15.6981L12.074 28.8523Z" fill="#8B865C"/>
<path d="M28.8735 19.5091C28.8734 19.5091 28.8732 19.5091 28.8731 19.5091L15.6252 19.3994C15.5971 19.3991 15.5745 19.3762 15.5747 19.3481C15.575 19.3201 15.5977 19.2976 15.6256 19.2976C15.6258 19.2976 15.6259 19.2976 15.626 19.2976L28.8739 19.4074C28.9021 19.4076 28.9247 19.4306 28.9244 19.4587C28.9241 19.4866 28.9014 19.5091 28.8735 19.5091Z" fill="#8B865C"/>
<path d="M30.9783 19.5265C30.9782 19.5265 30.978 19.5265 30.9779 19.5265L30.1525 19.5197C30.1244 19.5195 30.1018 19.4965 30.1021 19.4684C30.1023 19.4405 30.125 19.4179 30.1529 19.4179C30.1531 19.4179 30.1533 19.4179 30.1534 19.4179L30.9787 19.4248C31.0069 19.425 31.0295 19.448 31.0292 19.4761C31.029 19.5041 31.0062 19.5265 30.9783 19.5265Z" fill="#8B865C"/>
<path d="M19.2101 21.9024C19.2099 21.9024 19.2098 21.9024 19.2097 21.9024L15.5896 21.8725C15.5614 21.8722 15.5388 21.8492 15.5391 21.8211C15.5393 21.7932 15.562 21.7707 15.59 21.7707C15.5901 21.7707 15.5903 21.7707 15.5904 21.7707L19.2105 21.8006C19.2386 21.8008 19.2612 21.8238 19.261 21.8519C19.2607 21.8799 19.238 21.9024 19.2101 21.9024Z" fill="#8B865C"/>
<path d="M30.9432 21.9992C30.943 21.9992 30.9429 21.9992 30.9428 21.9992L23.2663 21.9356C23.2382 21.9354 23.2156 21.9124 23.2158 21.8843C23.2161 21.8563 23.2388 21.8338 23.2667 21.8338C23.2669 21.8338 23.267 21.8338 23.2671 21.8338L30.9436 21.8974C30.9717 21.8977 30.9943 21.9206 30.9941 21.9487C30.9938 21.9767 30.9711 21.9992 30.9432 21.9992Z" fill="#8B865C"/>
<path d="M25.7041 24.4297C25.704 24.4297 25.7038 24.4297 25.7037 24.4297L15.5544 24.3456C15.5263 24.3454 15.5037 24.3224 15.5039 24.2943C15.5042 24.2664 15.5269 24.2438 15.5548 24.2438C15.555 24.2438 15.5551 24.2438 15.5552 24.2438L25.7045 24.3279C25.7327 24.3282 25.7553 24.3511 25.755 24.3792C25.7547 24.4072 25.732 24.4297 25.7041 24.4297Z" fill="#8B865C"/>
<path d="M30.9077 24.4726C30.9075 24.4726 30.9074 24.4726 30.9073 24.4726L28.4362 24.4521C28.4081 24.4518 28.3855 24.4289 28.3857 24.4008C28.386 24.3729 28.4087 24.3503 28.4366 24.3503C28.4368 24.3503 28.4369 24.3503 28.437 24.3503L30.9081 24.3708C30.9363 24.371 30.9588 24.394 30.9586 24.4221C30.9583 24.4501 30.9356 24.4726 30.9077 24.4726Z" fill="#8B865C"/>
<path d="M36.0596 58.7656H52.4804C56.3039 65.4782 58.3218 73.2871 57.9544 81.6928H30.5857C30.2182 73.2843 32.2373 65.4763 36.0596 58.7656Z" fill="#E8606B"/>
<path d="M33.3077 45.2023C24.0623 47.1961 19.9344 49.1525 20.1538 51.9877C20.3801 54.9115 26.4947 55.6526 34.6805 53.7731C35.85 53.5046 34.7564 44.8899 33.3077 45.2023Z" fill="white"/>
<path d="M55.9246 44.2643C55.9246 44.2643 53.3529 43.7358 50.2327 43.3308C48.4055 43.0936 44.5932 47.9022 44.5932 47.9022C44.5932 47.9022 40.4358 43.0981 38.4096 43.4018C35.2936 43.8688 32.7065 44.4778 32.7065 44.4778L34.9279 60.89H53.4124L55.9246 44.2643Z" fill="#FFCD61"/>
<path d="M35.2286 56.7375C37.089 56.7375 38.5973 55.2293 38.5973 53.3688C38.5973 51.5083 37.089 50.0001 35.2286 50.0001C33.3681 50.0001 31.8599 51.5083 31.8599 53.3688C31.8599 55.2293 33.3681 56.7375 35.2286 56.7375Z" fill="#FFCD61"/>
<path d="M46.5925 55.9768C45.5361 55.9768 44.5555 55.4998 43.902 54.668C43.8846 54.6459 43.8885 54.6139 43.9106 54.5966C43.9328 54.5792 43.9647 54.5831 43.982 54.6052C44.616 55.4122 45.5675 55.875 46.5925 55.875C48.422 55.875 49.9103 54.3866 49.9103 52.5572C49.9103 52.5291 49.9331 52.5063 49.9612 52.5063C49.9894 52.5063 50.0121 52.5291 50.0121 52.5572C50.0121 54.4427 48.4781 55.9768 46.5925 55.9768Z" fill="#363E44"/>
<path d="M27.6494 48.9324C27.6495 48.9322 25.8748 38.5185 25.528 36.8659C25.4916 36.6928 25.4289 36.3871 25.2427 36.0266C24.5529 34.691 23.2739 34.7448 21.9077 33.6715C20.3576 32.4535 20.1744 30.8901 19.6814 30.9925C19.3386 31.0637 19.2417 31.6729 19.5127 32.8863C19.5127 32.8864 19.5125 32.8865 19.5125 32.8863C19.2006 31.9881 18.7245 30.7884 18.2286 30.9622C17.6668 31.1934 18.0606 32.6687 18.3425 33.5495C18.0013 32.4834 17.5009 32.0185 17.2486 32.1843C16.8514 32.4453 16.9234 33.3336 17.429 34.7251L17.4289 34.7251C16.8114 33.8619 16.533 33.7444 16.3456 33.9454C16.0036 34.3122 16.4408 35.4485 16.9812 36.3936C17.5896 37.4577 18.4306 38.0719 18.9702 38.4465C18.9703 38.4466 18.9704 38.4467 18.9704 38.4469C19.4649 43.8468 19.7602 47.321 20.0863 51.689C20.254 53.9366 27.0759 53.3882 27.6494 48.9324Z" fill="white"/>
<path d="M22.9313 34.9481C22.6772 33.0141 22.9954 32.2627 23.3031 32.2322C23.8207 32.1809 24.7135 33.7432 25.4409 36.5229C24.7024 36.1468 23.6698 35.3241 22.9313 34.9481Z" fill="white"/>
<path d="M22.0952 38.139C22.07 38.139 22.0481 38.1203 22.0448 38.0947C22.001 37.758 21.8662 37.261 21.4727 36.8052C20.9157 36.1601 20.182 36.0084 19.8924 35.9732C19.8645 35.9698 19.8446 35.9444 19.848 35.9165C19.8514 35.8886 19.8768 35.8687 19.9047 35.8721C20.206 35.9088 20.9696 36.0667 21.5497 36.7387C21.9597 37.2137 22.1001 37.7311 22.1457 38.0815C22.1493 38.1094 22.1297 38.1349 22.1018 38.1386C22.0996 38.1388 22.0973 38.139 22.0952 38.139Z" fill="#363E44"/>
<path d="M24.575 35.3406C24.5637 35.3406 24.5524 35.3369 24.543 35.3292C24.2165 35.0649 23.8285 34.8817 23.4177 34.6877C23.2222 34.5954 23.0201 34.5 22.8119 34.3904C22.787 34.3773 22.7774 34.3465 22.7905 34.3217C22.8036 34.2968 22.8344 34.2873 22.8593 34.3003C23.0655 34.4088 23.2667 34.5039 23.4612 34.5957C23.8777 34.7923 24.271 34.978 24.6071 35.25C24.629 35.2677 24.6323 35.2998 24.6146 35.3216C24.6046 35.3341 24.5898 35.3406 24.575 35.3406Z" fill="#363E44"/>
<path d="M20.5977 34.3417C20.5861 34.3417 20.5742 34.3376 20.5647 34.3295C20.3817 34.1734 20.2124 33.9996 20.0617 33.8132C19.8428 33.5425 19.6607 33.2426 19.5204 32.9221C19.5091 32.8963 19.5209 32.8663 19.5466 32.8551C19.5726 32.8438 19.6025 32.8555 19.6136 32.8813C19.7504 33.1935 19.9277 33.4855 20.1408 33.7492C20.2876 33.9308 20.4525 34.1 20.6307 34.2521C20.6521 34.2703 20.6547 34.3025 20.6364 34.3238C20.6264 34.3356 20.6121 34.3417 20.5977 34.3417Z" fill="#363E44"/>
<path d="M19.3883 34.8653C19.3765 34.8653 19.3648 34.8612 19.3552 34.8531C19.1721 34.6969 19.0029 34.5232 18.8523 34.3368C18.6335 34.0661 18.4514 33.7663 18.3109 33.4457C18.2996 33.4199 18.3114 33.3899 18.3371 33.3787C18.3631 33.3674 18.393 33.3791 18.4042 33.4049C18.541 33.7172 18.7184 34.0092 18.9313 34.2728C19.0781 34.4544 19.2429 34.6236 19.4213 34.7757C19.4426 34.7939 19.4452 34.8261 19.4269 34.8474C19.4169 34.8592 19.4026 34.8653 19.3883 34.8653Z" fill="#363E44"/>
<path d="M18.48 36.1863C18.4683 36.1863 18.4566 36.1823 18.447 36.1741C18.2638 36.0178 18.0946 35.8441 17.9441 35.6578C17.7253 35.3871 17.5432 35.0873 17.4027 34.7667C17.3914 34.7409 17.4032 34.711 17.4289 34.6997C17.4549 34.6884 17.4848 34.7001 17.496 34.7259C17.6328 35.0382 17.8101 35.3302 18.0231 35.5938C18.1698 35.7752 18.3346 35.9445 18.5131 36.0967C18.5344 36.1149 18.537 36.1471 18.5187 36.1685C18.5087 36.1802 18.4944 36.1863 18.48 36.1863Z" fill="#363E44"/>
<path opacity="0.5" d="M36.3722 46.9723C36.7917 48.5348 35.8747 51.3698 35.2288 52.6755C33.8184 55.5268 32.6893 57.2086 28.9189 54.6589C28.2591 51.3785 27.9893 50.0003 27.3506 46.7693C27.8067 45.4112 28.2591 41.9635 31.86 41.9635C33.8538 41.9634 35.5733 43.997 36.3722 46.9723Z" fill="#FFCD61"/>
<path d="M31.989 55.9642C31.1526 55.9642 30.1494 55.5528 28.8902 54.7013L28.8729 54.6896L28.8688 54.6692C28.3221 51.9511 28.0504 50.5755 27.6002 48.2966L27.2979 46.7662L27.3021 46.7534C27.359 46.584 27.4148 46.3858 27.4793 46.1564C27.9256 44.5692 28.6725 41.9129 31.8599 41.9129C32.84 41.9129 33.7883 42.399 34.6021 43.3187C35.3924 44.2119 36.0214 45.4708 36.4211 46.9594C36.8272 48.4717 35.9768 51.2779 35.2742 52.6984C34.5025 54.2585 33.767 55.5755 32.5776 55.8899C32.3906 55.9393 32.1948 55.9642 31.989 55.9642ZM28.9645 54.6286C30.4987 55.6632 31.6388 56.0327 32.5514 55.7915C33.6995 55.488 34.4225 54.1907 35.1829 52.6532C35.8787 51.2467 36.722 48.4727 36.3228 46.9857C35.9271 45.5123 35.3057 44.2676 34.5258 43.3862C33.7318 42.4889 32.8099 42.0147 31.8598 42.0147C28.7495 42.0147 28.0157 44.6246 27.5772 46.1839C27.5166 46.3996 27.4592 46.6037 27.4029 46.7729L27.7001 48.277C28.1491 50.5499 28.4205 51.9241 28.9645 54.6286Z" fill="#FFCD61"/>
<path d="M34.58 46.1921C34.4858 46.1921 34.3267 46.1055 34.0363 45.9475C33.6512 45.738 33.0693 45.4214 32.171 45.0398C31.2743 44.659 30.5786 44.4325 30.0706 44.267C29.4517 44.0655 29.1955 43.982 29.2138 43.8236C29.219 43.7782 29.2495 43.7357 29.3044 43.6973C29.5849 43.5012 30.62 43.3673 31.6033 43.6036C33.325 44.0174 34.4898 45.4452 34.6633 45.9436C34.6973 46.0414 34.6974 46.1097 34.6637 46.1527C34.6429 46.1792 34.6163 46.1921 34.58 46.1921ZM29.3149 43.8353C29.3062 43.911 29.675 44.0312 30.1021 44.1702C30.6119 44.3363 31.3101 44.5636 32.2108 44.9461C33.1136 45.3296 33.6982 45.6477 34.085 45.8581C34.3308 45.9918 34.5439 46.1076 34.585 46.0888C34.5879 46.0843 34.5935 46.0505 34.5651 45.9714C34.3917 45.4882 33.249 44.1038 31.5796 43.7026C30.6235 43.4729 29.6279 43.5954 29.3627 43.7807C29.3208 43.8101 29.3155 43.8299 29.3149 43.8353Z" fill="#FFCD61"/>
<path d="M29.3386 47.9261C29.2945 47.9261 29.2611 47.9118 29.2354 47.8824C29.2053 47.8479 29.1944 47.7968 29.203 47.7303C29.2469 47.391 29.8448 46.5355 30.6817 45.9676C32.1467 44.9732 33.9868 45.0733 34.4721 45.2807C34.5672 45.3214 34.6178 45.3673 34.6269 45.4211C34.6471 45.5407 34.4853 45.5968 34.0528 45.7469C33.6386 45.8906 33.0127 46.1076 32.1257 46.5149C31.2405 46.9214 30.6045 47.2832 30.1402 47.5475C29.7129 47.7906 29.4747 47.9261 29.3386 47.9261ZM33.497 45.2457C32.7248 45.2457 31.6545 45.4304 30.7388 46.0518C29.9251 46.6041 29.3455 47.4226 29.304 47.7434C29.2975 47.7941 29.3086 47.8114 29.3121 47.8155C29.3623 47.8729 29.6993 47.6812 30.0898 47.459C30.5557 47.1939 31.1939 46.8308 32.0832 46.4224C32.9747 46.0131 33.6033 45.795 34.0194 45.6507C34.2839 45.559 34.5124 45.4797 34.5267 45.4364C34.5252 45.4312 34.5041 45.4043 34.4264 45.372C34.2579 45.3019 33.9227 45.2457 33.497 45.2457Z" fill="#FFCD61"/>
<path d="M43.0571 62.6461C43.8029 62.4336 44.4869 62.7475 44.5192 62.6097C44.5434 62.5063 44.1312 62.3292 43.7304 62.2825C43.0692 62.2054 42.0634 62.8591 41.7413 62.4553C41.4258 62.0598 42.1789 61.2613 43.1309 60.9237C43.9335 60.639 44.7083 61.061 44.7495 60.89C44.7784 60.7696 44.4518 60.5814 43.7049 60.2818C43.0815 60.0317 41.7078 59.8577 41.8721 59.1662C42.0102 58.5846 43.4548 58.6391 44.7772 58.9354C45.6534 59.1318 46.5171 59.433 47.0224 59.5864C46.935 59.3199 46.783 58.9155 46.5252 58.4594C46.0653 57.6459 45.7942 57.414 46.0097 57.0504C46.2318 56.6757 46.9009 57.0064 47.5378 57.566C48.2975 58.2334 48.5745 59.0123 48.8162 59.4176C50.5215 58.7436 54.1798 57.3951 55.8852 56.7211C55.7546 56.6278 54.9133 55.5444 54.3316 54.8055L55.7012 45.7419C57.2279 47.1657 66.0563 56.1384 65.5215 58.4439C64.9368 60.9645 52.6591 65.221 49.26 65.9539C48.8367 66.2029 48.165 66.5106 47.3528 66.4757C46.427 66.4358 46.2052 65.9889 45.2347 65.7946C43.5966 65.4669 42.6039 66.4611 42.2964 65.9555C42.0853 65.6084 42.6386 65.0041 43.2867 64.5841C43.9521 64.1529 44.5639 64.1541 44.5546 64.0246C44.5444 63.8825 43.9227 63.9617 43.1406 63.9891C42.7773 64.0019 41.8011 64.6512 41.4428 64.2196C41.1572 63.8755 42.003 62.9464 43.0571 62.6461Z" fill="white"/>
<path d="M48.5794 60.3718C48.5695 60.3718 48.5595 60.369 48.5507 60.363C48.0559 60.0255 47.3629 59.7625 46.9938 59.6357C46.9673 59.6266 46.9531 59.5977 46.9623 59.571C46.9713 59.5445 46.9999 59.5303 47.0269 59.5394C47.4009 59.6678 48.1035 59.9347 48.6081 60.2789C48.6313 60.2947 48.6373 60.3264 48.6214 60.3496C48.6116 60.3641 48.5956 60.3718 48.5794 60.3718Z" fill="#363E44"/>
<path opacity="0.5" d="M53.5103 45.3198C54.8883 44.2183 57.3126 43.8736 58.7482 44.1944C61.8832 44.895 64.372 48.0818 63.0028 53.7231C60.1586 54.7397 58.7316 55.6164 55.8874 56.6331C55.2311 56.4529 52.0623 54.6085 51.4584 51.3844C51.3725 50.9255 50.8863 47.4172 53.5103 45.3198Z" fill="#FFCD61"/>
<path d="M55.8893 56.6868L55.8738 56.6825C55.5 56.5798 54.5247 56.0338 53.6185 55.1878C52.7894 54.4137 51.7329 53.1273 51.4083 51.3941C51.3787 51.2358 50.7134 47.4906 53.4784 45.2805C54.8768 44.1627 57.3084 43.8209 58.7592 44.1451C60.2873 44.4866 61.5803 45.4004 62.3998 46.718C63.5083 48.5002 63.7339 50.9268 63.0522 53.7355L63.0457 53.7621L63.0198 53.7714C61.5995 54.2791 60.5147 54.7599 59.4656 55.225C58.4148 55.6908 57.3283 56.1725 55.9044 56.6814L55.8893 56.6868ZM57.5752 44.1294C56.2238 44.1294 54.5883 44.5236 53.542 45.36C50.8242 47.5324 51.4792 51.2195 51.5083 51.3754C52.0885 54.4727 55.126 56.3574 55.8855 56.58C57.2984 56.0744 58.3791 55.5953 59.4244 55.1319C60.4688 54.6689 61.5485 54.1903 62.9597 53.6848C63.627 50.9144 63.4036 48.5246 62.3134 46.7718C61.5084 45.4775 60.2383 44.58 58.737 44.2445C58.3958 44.1682 57.9994 44.1294 57.5752 44.1294Z" fill="#FFCD61"/>
<path d="M60.2524 47.7155C60.1581 47.7155 59.999 47.6289 59.7087 47.4709C59.3236 47.2615 58.7416 46.9448 57.8434 46.5633C56.9468 46.1824 56.251 45.9559 55.743 45.7905C55.1241 45.5889 54.8679 45.5055 54.8862 45.3471C54.8914 45.3016 54.9219 45.2591 54.9768 45.2208C55.2573 45.0248 56.2922 44.8908 57.2757 45.1271C58.9973 45.5408 60.1622 46.9688 60.3357 47.4671C60.3697 47.5648 60.3698 47.6332 60.3361 47.6761C60.3154 47.7026 60.2887 47.7155 60.2524 47.7155ZM54.9873 45.3587C54.9786 45.4345 55.3474 45.5546 55.7745 45.6937C56.2844 45.8597 56.9825 46.087 57.8832 46.4696C58.786 46.8531 59.3706 47.1711 59.7573 47.3815C60.0033 47.5153 60.2163 47.6311 60.2574 47.6122C60.2603 47.6077 60.2659 47.5739 60.2375 47.4948C60.0641 47.0116 58.9214 45.6273 57.252 45.2261C56.2959 44.9963 55.3003 45.1188 55.0351 45.3042C54.9932 45.3335 54.988 45.3533 54.9873 45.3587Z" fill="#FFCD61"/>
<path d="M58.425 51.1629C58.3107 51.1629 58.1929 50.9736 57.9281 50.5479C57.6381 50.0817 57.1999 49.3772 56.4571 48.4063C55.7158 47.4373 55.0979 46.7606 54.6469 46.2665C54.1025 45.6703 53.8772 45.4235 53.9887 45.2707C54.0202 45.2276 54.0766 45.2019 54.1563 45.1944C54.581 45.1544 55.7851 45.6468 56.7072 46.5091C58.3226 48.0197 58.7083 50.2877 58.5897 50.9355C58.5673 51.0583 58.5277 51.1297 58.4688 51.1539C58.4541 51.1598 58.4396 51.1629 58.425 51.1629ZM54.2138 45.2936C54.1968 45.2936 54.1809 45.2943 54.1658 45.2957C54.1178 45.3002 54.0842 45.3127 54.071 45.3307C54.0084 45.4163 54.3078 45.7441 54.7221 46.1979C55.1744 46.6934 55.794 47.3719 56.538 48.3444C57.2838 49.3192 57.7236 50.0263 58.0146 50.4941C58.2021 50.7955 58.3805 51.0806 58.4302 51.0596C58.4436 51.0541 58.4712 51.0179 58.4897 50.9171C58.6054 50.2848 58.2246 48.0673 56.6378 46.5834C55.7692 45.7712 54.657 45.2936 54.2138 45.2936Z" fill="#FFCD61"/>
<path d="M52.7689 39.12C52.8107 37.1937 51.283 35.5981 49.3567 35.5563C47.4303 35.5145 45.8348 37.0422 45.793 38.9686C45.7512 40.895 47.2789 42.4905 49.2052 42.5323C51.1316 42.5741 52.7271 41.0464 52.7689 39.12Z" fill="#84524D"/>
<path d="M49.7412 42.9006C47.7895 42.9006 46.2017 41.3127 46.2017 39.361C46.2017 37.4092 47.7895 35.8214 49.7412 35.8214C51.693 35.8214 53.2808 37.4092 53.2808 39.361C53.2808 41.3127 51.6929 42.9006 49.7412 42.9006ZM49.7412 35.9232C47.8456 35.9232 46.3035 37.4654 46.3035 39.361C46.3035 41.2566 47.8456 42.7988 49.7412 42.7988C51.6368 42.7988 53.179 41.2566 53.179 39.361C53.179 37.4654 51.6368 35.9232 49.7412 35.9232Z" fill="#84524D"/>
<path d="M44.13 45.7567C45.5183 45.8036 46.6818 44.7162 46.7287 43.3279L46.9568 36.5795L41.9292 36.4095L41.7012 43.158C41.6543 44.5463 42.7417 45.7098 44.13 45.7567Z" fill="white"/>
<path d="M44.0099 28.6895C45.1773 28.0506 46.3213 28.2415 47.0326 28.6071C49.0542 29.6463 50.0628 32.4251 49.3338 35.7073C46.0326 35.4901 42.7316 35.2729 39.4305 35.0557C39.1421 32.9174 39.1223 30.7274 40.3287 29.448C41.8873 27.7951 43.7879 28.6801 44.0099 28.6895Z" fill="#84524D"/>
<path d="M40.0242 34.6754C39.8502 37.4035 41.5913 39.7352 43.913 39.8833C46.2348 40.0314 48.2581 37.9399 48.4321 35.2117C48.6061 32.4837 46.8468 30.3667 44.5251 30.2186C42.2033 30.0705 40.1983 31.9473 40.0242 34.6754Z" fill="white"/>
<path d="M47.7874 34.3137C47.2137 35.0675 47.2686 36.0743 47.9101 36.5625C48.5516 37.0507 49.5367 36.8355 50.1104 36.0818C50.6841 35.328 50.6291 34.3212 49.9876 33.833C49.3461 33.3447 48.3611 33.56 47.7874 34.3137Z" fill="white"/>
<path d="M40.8296 33.8698C41.3029 34.6903 41.1204 35.6819 40.4221 36.0847C39.7238 36.4875 38.774 36.1488 38.3008 35.3283C37.8275 34.5078 38.01 33.5161 38.7083 33.1134C39.4066 32.7106 40.3564 33.0492 40.8296 33.8698Z" fill="white"/>
<path d="M44.1467 39.9418C44.0679 39.9418 43.989 39.9393 43.9099 39.9342C43.0255 39.8778 42.1977 39.5086 41.516 38.8665C41.4955 38.8472 41.4946 38.815 41.5139 38.7945C41.5331 38.774 41.5653 38.7731 41.5858 38.7924C42.25 39.418 43.0559 39.7777 43.9164 39.8327C44.7948 39.8887 45.6532 39.6238 46.4012 39.0668C46.4238 39.0499 46.4556 39.0547 46.4724 39.0772C46.4892 39.0998 46.4845 39.1316 46.462 39.1484C45.7617 39.6699 44.9657 39.9418 44.1467 39.9418Z" fill="#363E44"/>
<path d="M40.0908 36.053C40.0664 36.053 40.0449 36.0354 40.0407 36.0106C39.9875 35.6952 39.9607 35.3707 39.9609 35.0462C39.9609 35.0181 39.9837 34.9953 40.0118 34.9953C40.0399 34.9953 40.0627 35.0181 40.0627 35.0463C40.0625 35.3652 40.0889 35.6839 40.1411 35.9937C40.1458 36.0214 40.1271 36.0476 40.0994 36.0523C40.0965 36.0528 40.0936 36.053 40.0908 36.053Z" fill="#363E44"/>
<path d="M48.2032 36.5479C48.1984 36.5479 48.1936 36.5472 48.1887 36.5458C48.1618 36.5377 48.1464 36.5094 48.1545 36.4825C48.2582 36.1353 48.329 35.7734 48.3649 35.4069C48.3677 35.379 48.392 35.3585 48.4205 35.3612C48.4485 35.364 48.4689 35.3889 48.4662 35.4169C48.4296 35.7899 48.3576 36.1582 48.252 36.5116C48.2454 36.5337 48.2252 36.5479 48.2032 36.5479Z" fill="#363E44"/>
<path d="M43.9157 36.544C43.9046 36.544 43.8935 36.5404 43.8842 36.533C43.7379 36.4175 43.6634 36.2976 43.6626 36.1768C43.6618 36.0703 43.7157 35.9974 43.7727 35.9202C43.8233 35.8516 43.8757 35.7808 43.8992 35.6745C43.9205 35.5781 43.9128 35.474 43.8764 35.3649C43.8675 35.3382 43.8818 35.3094 43.9085 35.3005C43.9353 35.2915 43.964 35.306 43.9729 35.3326C44.0153 35.4593 44.0239 35.5818 43.9986 35.6965C43.9705 35.8239 43.9089 35.9072 43.8546 35.9807C43.8039 36.0493 43.7639 36.1034 43.7644 36.1761C43.7651 36.2645 43.8265 36.3576 43.9473 36.4531C43.9694 36.4705 43.9731 36.5025 43.9557 36.5246C43.9456 36.5374 43.9307 36.544 43.9157 36.544Z" fill="#363E44"/>
<path d="M44.5737 37.5113C44.5319 37.5113 44.4948 37.5092 44.4638 37.5063C44.4358 37.5038 44.4151 37.479 44.4177 37.451C44.4203 37.423 44.4445 37.4024 44.473 37.405C44.614 37.4178 44.8904 37.414 45.1602 37.2445C45.3012 37.1559 45.4222 37.0323 45.5101 36.8872C45.5246 36.8631 45.5559 36.8554 45.5799 36.87C45.604 36.8845 45.6117 36.9158 45.5971 36.9398C45.5011 37.0985 45.3688 37.2336 45.2144 37.3307C44.9787 37.4787 44.739 37.5113 44.5737 37.5113Z" fill="#363E44"/>
<path d="M42.4865 36.2589C42.0094 36.2589 41.4744 36.1088 40.9716 35.833C40.4459 35.5446 40.0171 35.1524 39.7643 34.7288C39.5065 34.2966 39.4614 33.8821 39.6372 33.5615C39.9952 32.9089 41.1762 32.8663 42.27 33.4663C43.3637 34.0663 43.9623 35.0854 43.6044 35.7379C43.4285 36.0585 43.0546 36.2432 42.5516 36.2579C42.53 36.2585 42.5082 36.2589 42.4865 36.2589ZM40.7523 33.1413C40.2792 33.1413 39.8976 33.2985 39.7266 33.6104C39.5687 33.8981 39.6132 34.2767 39.8518 34.6766C40.0955 35.0849 40.5105 35.4639 41.0207 35.7437C41.5307 36.0236 42.0719 36.17 42.5487 36.1561C43.0141 36.1425 43.3574 35.9766 43.5152 35.6889C43.8462 35.0856 43.2657 34.1285 42.2211 33.5555C41.7165 33.2787 41.1944 33.1413 40.7523 33.1413Z" fill="#40484C"/>
<path d="M45.985 36.4455C45.8118 36.4455 45.6449 36.4299 45.4881 36.3984C44.9947 36.2992 44.6572 36.0542 44.5378 35.7086C44.4184 35.3629 44.5327 34.9618 44.8596 34.5792C45.1801 34.2042 45.6687 33.8898 46.2355 33.694C47.4144 33.2867 48.5715 33.5275 48.8147 34.231C48.9342 34.5767 48.8199 34.9777 48.493 35.3603C48.1725 35.7353 47.6838 36.0498 47.117 36.2456C46.7341 36.3778 46.3458 36.4455 45.985 36.4455ZM47.3714 33.5956C47.029 33.5956 46.6505 33.6583 46.2687 33.7902C45.7188 33.9802 45.2459 34.2838 44.937 34.6454C44.6345 34.9993 44.5269 35.3651 44.6341 35.6753C44.7412 35.9854 45.0516 36.2068 45.5082 36.2986C45.9743 36.3923 46.5339 36.3393 47.0838 36.1493C47.6337 35.9593 48.1067 35.6556 48.4156 35.2941C48.7181 34.9401 48.8257 34.5744 48.7185 34.2642C48.57 33.8343 48.0393 33.5956 47.3714 33.5956Z" fill="#40484C"/>
<path d="M44.4973 35.406C44.4959 35.406 44.4944 35.406 44.493 35.4058L43.6554 35.3348C43.6274 35.3324 43.6067 35.3078 43.6091 35.2798C43.6115 35.2518 43.6354 35.2311 43.6641 35.2334L44.5016 35.3044C44.5296 35.3068 44.5504 35.3314 44.548 35.3594C44.5458 35.3859 44.5236 35.406 44.4973 35.406Z" fill="#FFCD61"/>
<path d="M47.2998 34.4297C47.2997 34.4298 47.2998 34.4299 47.2997 34.43L47.2889 34.4279C47.2812 34.4502 47.2634 34.478 47.2394 34.4752C47.2077 34.507 47.1898 34.5612 47.1674 34.596C47.1269 34.6586 47.0323 34.592 47.0727 34.5294C47.0999 34.4872 46.9363 34.5585 46.8654 34.5791C46.6396 34.6448 46.4116 34.7003 46.1814 34.7488C46.074 34.7714 45.9665 34.7948 45.8584 34.8137C45.7718 34.8288 45.4843 34.8934 45.4633 34.8784C45.1559 35.1156 44.9775 35.3493 44.9775 35.3493C44.9775 35.3493 45.3716 35.5655 45.8982 35.6382C45.9003 35.6312 45.9025 35.6244 45.9044 35.6173C45.9227 35.5473 47.1668 35.3623 47.1952 35.4192C47.7392 35.1338 48.0756 34.6947 48.0756 34.6947C48.0756 34.6947 47.7521 34.5172 47.2998 34.4297Z" fill="#FFCD61"/>
<path d="M46.4003 34.425C46.0247 34.5044 45.7048 34.6922 45.4639 34.878C45.4724 35.109 45.5626 35.3376 45.7373 35.5155C45.7823 35.5613 45.8308 35.6014 45.8819 35.6363C46.1192 35.6705 46.3841 35.676 46.6526 35.6193C46.8468 35.5782 47.0252 35.5074 47.1864 35.4237C47.4073 35.1342 47.4421 34.7481 47.2888 34.428C47.0232 34.3777 46.7144 34.3586 46.4003 34.425Z" fill="#363E44"/>
<path d="M41.313 34.009C41.313 34.009 41.313 34.0092 41.313 34.0093L41.3241 34.009C41.3279 34.0323 41.3408 34.0627 41.3649 34.064C41.3909 34.1006 41.3994 34.1571 41.4158 34.1952C41.4452 34.2637 41.5496 34.2137 41.5203 34.1453C41.5005 34.0993 41.6499 34.1969 41.7163 34.229C41.9279 34.3316 42.1435 34.4244 42.3623 34.5108C42.4643 34.551 42.5664 34.5921 42.6699 34.6287C42.7528 34.6581 43.0252 34.77 43.0486 34.7587C43.3119 35.044 43.4486 35.3042 43.4486 35.3042C43.4486 35.3042 43.024 35.4515 42.4927 35.435C42.4918 35.4277 42.4907 35.4206 42.4901 35.4133C42.4838 35.3413 41.2881 34.9507 41.2506 35.002C40.762 34.6296 40.5039 34.1405 40.5039 34.1405C40.5039 34.1405 40.8524 34.0195 41.313 34.009Z" fill="#FFCD61"/>
<path d="M42.2008 34.1545C42.5578 34.2956 42.8418 34.5343 43.0482 34.7578C43.0012 34.9841 42.874 35.1944 42.672 35.3405C42.6199 35.3782 42.5654 35.4096 42.5092 35.4354C42.2696 35.4295 42.0075 35.3906 41.7522 35.2897C41.5676 35.2168 41.4035 35.1171 41.2586 35.0076C41.0893 34.6852 41.1196 34.2988 41.3243 34.0088C41.5946 34.0036 41.9022 34.0365 42.2008 34.1545Z" fill="#363E44"/>
<path d="M38.4096 43.4191C42.2617 42.5637 46.2102 42.6017 50.2326 43.3399L49.958 51.1384H36.1196L38.4096 43.4191Z" fill="white"/>
<path d="M67.4443 34.7566L74.9066 43.1726L78.5536 39.7501L70.6986 31.839L67.4443 34.7566Z" fill="#2D353A"/>
<path d="M72.7021 37.6732L83.6595 41.9385L77.7763 32.3367L67.6128 28.08L72.7021 37.6732Z" fill="#40484C"/>
<path d="M78.4962 45.7437C78.4832 45.7437 78.4702 45.7388 78.4603 45.7289C78.4403 45.709 78.4403 45.6768 78.4602 45.6569L81.9626 42.1466L80.0539 39.1543C80.0388 39.1306 80.0458 39.0992 80.0694 39.084C80.0931 39.0689 80.1246 39.0759 80.1397 39.0996L82.0704 42.1262C82.0833 42.1463 82.0804 42.1727 82.0636 42.1896L78.5323 45.7288C78.5223 45.7387 78.5092 45.7437 78.4962 45.7437Z" fill="#E8606B"/>
<path d="M75.4116 47.1683L79.3126 44.8961L77.0521 48.7308L75.4116 47.1683Z" fill="#E8606B"/>
<path d="M22.5327 94.1929H34.7901C33.9951 94.1929 33.3506 92.9328 33.3506 91.3784C33.3506 89.824 33.9951 88.5639 34.7901 88.5639H22.5327C21.7377 88.5639 21.0933 89.824 21.0933 91.3784C21.0933 92.9328 21.7377 94.1929 22.5327 94.1929Z" fill="#F7F1EB"/>
<path d="M2.56397 94.3064H27.5653C25.9437 94.3064 24.6292 92.9956 24.6292 91.3786C24.6292 89.7617 25.9836 88.4936 27.6052 88.4936L2.56397 88.4508C0.942448 88.4508 -0.37207 89.7617 -0.37207 91.3786C-0.37207 92.9956 0.942448 94.3064 2.56397 94.3064Z" fill="#D87355"/>
<path d="M35.0446 94.244H27.5651C25.8902 94.244 24.5781 92.9854 24.5781 91.3786C24.5781 89.7719 25.8902 88.5132 27.5651 88.5132H35.0446C35.0727 88.5132 35.0955 88.536 35.0955 88.5641C35.0955 88.5922 35.0727 88.615 35.0446 88.615H27.5651C25.9473 88.615 24.6799 89.829 24.6799 91.3786C24.6799 92.9283 25.9473 94.1422 27.5651 94.1422H35.0446C35.0727 94.1422 35.0955 94.165 35.0955 94.1931C35.0955 94.2212 35.0727 94.244 35.0446 94.244Z" fill="#84524D"/>
<path d="M33.8447 93.471H27.2945C27.2664 93.471 27.2437 93.4482 27.2437 93.4201C27.2437 93.392 27.2664 93.3692 27.2945 93.3692H33.8446C33.8728 93.3692 33.8955 93.392 33.8955 93.4201C33.8955 93.4482 33.8728 93.471 33.8447 93.471Z" fill="#E6D0BE"/>
<path d="M33.5038 92.338H26.9537C26.9256 92.338 26.9028 92.3152 26.9028 92.2871C26.9028 92.259 26.9256 92.2362 26.9537 92.2362H33.5038C33.5319 92.2362 33.5547 92.259 33.5547 92.2871C33.5547 92.3152 33.5319 92.338 33.5038 92.338Z" fill="#E6D0BE"/>
<path d="M33.3902 91.658H25.7037C25.6756 91.658 25.6528 91.6352 25.6528 91.6071C25.6528 91.579 25.6756 91.5562 25.7037 91.5562H33.3902C33.4184 91.5562 33.4411 91.579 33.4411 91.6071C33.4411 91.6352 33.4184 91.658 33.3902 91.658Z" fill="#E6D0BE"/>
<path d="M33.5037 90.185H26.3854C26.3572 90.185 26.3345 90.1622 26.3345 90.1341C26.3345 90.106 26.3572 90.0832 26.3854 90.0832H33.5036C33.5318 90.0832 33.5545 90.106 33.5545 90.1341C33.5545 90.1622 33.5318 90.185 33.5037 90.185Z" fill="#E6D0BE"/>
<path d="M1.87172 93.063H8.64453V89.8019H1.87172V93.063Z" fill="#B77250"/>
<path d="M9.82666 93.063H21.9229V89.8019H9.82666V93.063Z" fill="#B77250"/>
<path d="M22.5327 97.9074H34.7901C33.9951 97.9074 33.3506 97.1008 33.3506 96.1056C33.3506 95.1105 33.9951 94.3038 34.7901 94.3038H22.5327C21.7377 94.3038 21.0933 95.1105 21.0933 96.1056C21.0933 97.1007 21.7377 97.9074 22.5327 97.9074Z" fill="#F7F1EB"/>
<path d="M2.56413 97.9799H27.5654C25.9439 97.9799 25.1975 97.1407 25.1975 96.1055C25.1975 95.0703 25.9439 94.2311 27.5654 94.2311H2.56413C0.942614 94.2311 0.196289 95.0703 0.196289 96.1055C0.196289 97.1407 0.942614 97.9799 2.56413 97.9799Z" fill="#EFBC73"/>
<path d="M35.0447 97.9586H27.5653C26.0507 97.9586 25.1465 97.2659 25.1465 96.1058C25.1465 94.9457 26.0507 94.2531 27.5653 94.2531H35.0447C35.0729 94.2531 35.0956 94.2759 35.0956 94.304C35.0956 94.3321 35.0729 94.3549 35.0447 94.3549H27.5653C26.0928 94.3549 25.2483 94.9931 25.2483 96.1058C25.2483 97.2186 26.0928 97.8568 27.5653 97.8568H35.0447C35.0729 97.8568 35.0956 97.8796 35.0956 97.9077C35.0956 97.9358 35.0729 97.9586 35.0447 97.9586Z" fill="#84524D"/>
<path d="M33.8447 97.4633H27.2945C27.2664 97.4633 27.2437 97.4405 27.2437 97.4124C27.2437 97.3843 27.2664 97.3615 27.2945 97.3615H33.8446C33.8728 97.3615 33.8955 97.3843 33.8955 97.4124C33.8955 97.4405 33.8728 97.4633 33.8447 97.4633Z" fill="#E6D0BE"/>
<path d="M33.5038 96.7378H26.9537C26.9256 96.7378 26.9028 96.715 26.9028 96.6869C26.9028 96.6588 26.9256 96.636 26.9537 96.636H33.5038C33.5319 96.636 33.5547 96.6588 33.5547 96.6869C33.5547 96.715 33.5319 96.7378 33.5038 96.7378Z" fill="#E6D0BE"/>
<path d="M33.3902 96.3031H25.7037C25.6756 96.3031 25.6528 96.2803 25.6528 96.2522C25.6528 96.2241 25.6756 96.2013 25.7037 96.2013H33.3902C33.4184 96.2013 33.4411 96.2241 33.4411 96.2522C33.4411 96.2803 33.4184 96.3031 33.3902 96.3031Z" fill="#E6D0BE"/>
<path d="M33.5037 95.3595H26.3854C26.3572 95.3595 26.3345 95.3367 26.3345 95.3086C26.3345 95.2805 26.3572 95.2577 26.3854 95.2577H33.5036C33.5318 95.2577 33.5545 95.2805 33.5545 95.3086C33.5545 95.3367 33.5318 95.3595 33.5037 95.3595Z" fill="#E6D0BE"/>
<path d="M13.5912 101.516H2.11035C2.855 101.516 3.45861 102.696 3.45861 104.152C3.45861 105.608 2.85495 106.788 2.11035 106.788H13.5912C14.3358 106.788 14.9394 105.608 14.9394 104.152C14.9394 102.696 14.3358 101.516 13.5912 101.516Z" fill="#F7F1EB"/>
<path d="M32.2948 101.41H8.87744C10.3963 101.41 11.6276 102.638 11.6276 104.153C11.6276 105.667 10.3963 106.895 8.87744 106.895H32.2949C33.8137 106.895 35.045 105.667 35.045 104.153C35.045 102.638 33.8137 101.41 32.2948 101.41Z" fill="#E64A67"/>
<path d="M8.87731 106.839H1.8717C1.84355 106.839 1.8208 106.817 1.8208 106.789C1.8208 106.76 1.84355 106.738 1.8717 106.738H8.87731C10.3909 106.738 11.5765 105.602 11.5765 104.152C11.5765 102.703 10.3909 101.567 8.87731 101.567H1.8717C1.84355 101.567 1.8208 101.544 1.8208 101.516C1.8208 101.488 1.84355 101.465 1.8717 101.465H8.87731C10.4479 101.465 11.6783 102.646 11.6783 104.152C11.6783 105.659 10.448 106.839 8.87731 106.839Z" fill="#84524D"/>
<path d="M9.13087 102.291H2.99572C2.96757 102.291 2.94482 102.268 2.94482 102.24C2.94482 102.212 2.96757 102.189 2.99572 102.189H9.13087C9.15902 102.189 9.18177 102.212 9.18177 102.24C9.18177 102.268 9.15897 102.291 9.13087 102.291Z" fill="#E6D0BE"/>
<path d="M9.45021 103.352H3.31506C3.28691 103.352 3.26416 103.329 3.26416 103.301C3.26416 103.273 3.28691 103.25 3.31506 103.25H9.45021C9.47835 103.25 9.5011 103.273 9.5011 103.301C9.5011 103.329 9.47835 103.352 9.45021 103.352Z" fill="#E6D0BE"/>
<path d="M10.621 103.989H3.4215C3.39336 103.989 3.37061 103.966 3.37061 103.938C3.37061 103.91 3.39336 103.887 3.4215 103.887H10.621C10.6492 103.887 10.6719 103.91 10.6719 103.938C10.6719 103.966 10.6492 103.989 10.621 103.989Z" fill="#E6D0BE"/>
<path d="M9.98242 105.369H3.31506C3.28691 105.369 3.26416 105.347 3.26416 105.318C3.26416 105.29 3.28691 105.268 3.31506 105.268H9.98242C10.0106 105.268 10.0333 105.29 10.0333 105.318C10.0333 105.347 10.0106 105.369 9.98242 105.369Z" fill="#E6D0BE"/>
<path d="M30.6704 102.574H24.3267V105.629H30.6704V102.574Z" fill="white"/>
<path d="M13.5912 98.0389H2.11035C2.855 98.0389 3.45861 98.7945 3.45861 99.7266C3.45861 100.659 2.85495 101.414 2.11035 101.414H13.5912C14.3358 101.414 14.9394 100.659 14.9394 99.7266C14.9394 98.7945 14.3358 98.0389 13.5912 98.0389Z" fill="#F7F1EB"/>
<path d="M32.2948 97.9707H8.87744C10.3963 97.9707 11.0953 98.7567 11.0953 99.7263C11.0953 100.696 10.3963 101.482 8.87744 101.482H32.2949C33.8137 101.482 34.5127 100.696 34.5127 99.7263C34.5127 98.7566 33.8137 97.9707 32.2948 97.9707Z" fill="#F1B051"/>
<path d="M8.87731 101.465H1.8717C1.84355 101.465 1.8208 101.442 1.8208 101.414C1.8208 101.386 1.84355 101.363 1.8717 101.363H8.87731C10.2544 101.363 11.0443 100.766 11.0443 99.7261C11.0443 98.6859 10.2544 98.0893 8.87731 98.0893H1.8717C1.84355 98.0893 1.8208 98.0665 1.8208 98.0384C1.8208 98.0103 1.84355 97.9875 1.8717 97.9875H8.87731C10.2979 97.9875 11.1461 98.6374 11.1461 99.7261C11.1461 100.815 10.2979 101.465 8.87731 101.465Z" fill="#84524D"/>
<path d="M9.13087 98.5526H2.99572C2.96757 98.5526 2.94482 98.5298 2.94482 98.5017C2.94482 98.4736 2.96757 98.4508 2.99572 98.4508H9.13087C9.15902 98.4508 9.18177 98.4736 9.18177 98.5017C9.18177 98.5298 9.15897 98.5526 9.13087 98.5526Z" fill="#E6D0BE"/>
<path d="M9.45021 99.2326H3.31506C3.28691 99.2326 3.26416 99.2098 3.26416 99.1817C3.26416 99.1536 3.28691 99.1308 3.31506 99.1308H9.45021C9.47835 99.1308 9.5011 99.1536 9.5011 99.1817C9.5011 99.2098 9.47835 99.2326 9.45021 99.2326Z" fill="#E6D0BE"/>
<path d="M10.621 99.6402H3.4215C3.39336 99.6402 3.37061 99.6173 3.37061 99.5893C3.37061 99.5612 3.39336 99.5384 3.4215 99.5384H10.621C10.6492 99.5384 10.6719 99.5612 10.6719 99.5893C10.6719 99.6173 10.6492 99.6402 10.621 99.6402Z" fill="#E6D0BE"/>
<path d="M9.98242 100.523H3.31506C3.28691 100.523 3.26416 100.501 3.26416 100.473C3.26416 100.444 3.28691 100.422 3.31506 100.422H9.98242C10.0106 100.422 10.0333 100.444 10.0333 100.473C10.0333 100.501 10.0106 100.523 9.98242 100.523Z" fill="#E6D0BE"/>
<path d="M10.628 70.4388C9.74284 70.4389 9.06166 70.151 8.92704 69.6472C8.91976 69.62 8.93589 69.5921 8.96307 69.5849C8.98994 69.5777 9.01814 69.5938 9.02537 69.6209C9.20457 70.2918 10.4745 70.5371 11.8563 70.168C12.5314 69.9876 13.1305 69.6884 13.5434 69.3255C13.9469 68.971 14.1222 68.6004 14.0371 68.282C14.0298 68.2548 14.046 68.2269 14.0731 68.2197C14.1001 68.2124 14.1282 68.2285 14.1354 68.2557C14.2311 68.6134 14.0447 69.0205 13.6106 69.402C13.1861 69.7751 12.5725 70.0821 11.8825 70.2664C11.4445 70.3833 11.0165 70.4388 10.628 70.4388Z" fill="#E64A67"/>
<path d="M9.67235 71.1951C9.33501 71.1951 9.0611 71.096 8.8963 70.888C8.87879 70.866 8.88251 70.834 8.90454 70.8165C8.92648 70.7991 8.95849 70.8027 8.976 70.8248C9.40744 71.3689 10.6817 71.0795 11.8168 70.1797C12.9518 69.2799 13.5244 68.1052 13.0931 67.561C13.0756 67.539 13.0793 67.507 13.1013 67.4895C13.1233 67.472 13.1553 67.4758 13.1728 67.4978C13.639 68.0859 13.0591 69.3247 11.88 70.2594C11.1179 70.8637 10.289 71.1951 9.67235 71.1951Z" fill="#E64A67"/>
<path d="M11.6534 70.3266C11.5133 70.3266 11.3582 70.271 11.2002 70.1618C10.9663 70.0003 10.7512 69.7388 10.5944 69.4255C10.4807 69.1984 10.4061 68.9598 10.3788 68.7355C10.3754 68.7076 10.3952 68.6822 10.4231 68.6788C10.4512 68.6753 10.4764 68.6953 10.4798 68.7231C10.5057 68.936 10.5768 69.1631 10.6854 69.38C10.8347 69.6782 11.038 69.9261 11.2581 70.0781C11.4691 70.2238 11.668 70.2625 11.8186 70.1872C11.9692 70.1118 12.0574 69.9293 12.0672 69.6731C12.0774 69.4059 12.0008 69.0945 11.8515 68.7963C11.7381 68.5696 11.592 68.3702 11.4293 68.2195C11.4087 68.2005 11.4074 68.1682 11.4265 68.1476C11.4455 68.127 11.4778 68.1257 11.4984 68.1449C11.6701 68.3038 11.8237 68.5133 11.9426 68.7508C12.0994 69.064 12.1798 69.393 12.1689 69.677C12.1577 69.972 12.0494 70.1855 11.8642 70.2782C11.7994 70.3106 11.7285 70.3266 11.6534 70.3266Z" fill="#E64A67"/>
<path d="M9.09416 70.6764C9.13238 70.8195 9.04739 70.9665 8.90432 71.0047C8.76125 71.0429 8.61427 70.9579 8.57605 70.8148C8.53782 70.6718 8.62282 70.5248 8.76588 70.4866C8.90895 70.4483 9.05589 70.5333 9.09416 70.6764Z" fill="#E64A67"/>
<path d="M9.20695 69.6161C9.24518 69.7591 9.16018 69.9061 9.01711 69.9443C8.87405 69.9826 8.72706 69.8976 8.68884 69.7545C8.65062 69.6114 8.73561 69.4645 8.87868 69.4262C9.02175 69.388 9.16873 69.473 9.20695 69.6161Z" fill="#E64A67"/>
<path d="M10.6669 68.6056C10.7051 68.7487 10.6201 68.8957 10.4771 68.9339C10.334 68.9721 10.187 68.8871 10.1488 68.7441C10.1106 68.601 10.1956 68.454 10.3386 68.4158C10.4817 68.3776 10.6287 68.4626 10.6669 68.6056Z" fill="#E64A67"/>
<path d="M11.7187 68.1269C11.7569 68.2699 11.6719 68.4169 11.5288 68.4552C11.3858 68.4934 11.2388 68.4084 11.2006 68.2653C11.1623 68.1222 11.2473 67.9753 11.3904 67.937C11.5335 67.8988 11.6805 67.9838 11.7187 68.1269Z" fill="#E64A67"/>
<path d="M13.3324 67.4095C13.3707 67.5526 13.2857 67.6995 13.1426 67.7378C12.9995 67.776 12.8525 67.691 12.8143 67.5479C12.7761 67.4049 12.8611 67.2579 13.0042 67.2197C13.1472 67.1814 13.2942 67.2664 13.3324 67.4095Z" fill="#E64A67"/>
<path d="M14.3178 68.1012C14.356 68.2442 14.271 68.3912 14.128 68.4295C13.9849 68.4677 13.8379 68.3827 13.7997 68.2396C13.7615 68.0966 13.8465 67.9496 13.9895 67.9113C14.1326 67.8731 14.2795 67.9581 14.3178 68.1012Z" fill="#E64A67"/>
<path d="M14.6566 79.4456C14.6319 79.4456 14.6102 79.4276 14.6063 79.4025C14.3168 77.5311 13.8668 75.6737 13.2689 73.8819C12.8576 72.6491 12.369 71.4265 11.8168 70.2482C11.8049 70.2227 11.8158 70.1924 11.8413 70.1805C11.8669 70.1685 11.8971 70.1795 11.909 70.2049C12.4628 71.3869 12.9529 72.6131 13.3654 73.8496C13.9652 75.6469 14.4165 77.5099 14.7069 79.3869C14.7112 79.4147 14.6922 79.4407 14.6644 79.4449C14.6618 79.4454 14.6592 79.4456 14.6566 79.4456Z" fill="#E64A67"/>
<path d="M15.1753 67.041C15.0038 67.041 14.8283 67.0336 14.6499 67.0184C12.9306 66.8714 11.592 66.0474 11.666 65.1816C11.6684 65.1536 11.6931 65.1328 11.721 65.1352C11.7491 65.1376 11.7698 65.1622 11.7674 65.1903C11.6982 66.0002 12.9951 66.7748 14.6585 66.917C16.3224 67.0591 17.7316 66.5159 17.8009 65.706C17.8032 65.678 17.8283 65.6572 17.8559 65.6597C17.8839 65.6621 17.9046 65.6867 17.9022 65.7147C17.8359 66.4907 16.657 67.041 15.1753 67.041Z" fill="#E64A67"/>
<path d="M12.8778 67.322C12.7091 67.322 12.5464 67.3119 12.3917 67.2915C11.7215 67.2032 11.2775 66.9312 11.1413 66.5256C11.1324 66.499 11.1467 66.4701 11.1734 66.4611C11.2 66.4522 11.2289 66.4665 11.2379 66.4932C11.361 66.8599 11.7755 67.1077 12.4051 67.1906C13.0471 67.2752 13.8318 67.1773 14.6139 66.9147C16.2166 66.3765 17.3101 65.3118 17.0514 64.5412C17.0424 64.5146 17.0568 64.4857 17.0834 64.4768C17.1101 64.4678 17.139 64.4822 17.1479 64.5089C17.4245 65.3326 16.3023 66.4552 14.6463 67.0113C14.0372 67.2157 13.4258 67.322 12.8778 67.322Z" fill="#E64A67"/>
<path d="M14.5643 67.0285C14.1091 67.0286 13.6744 66.4062 13.5787 65.597C13.544 65.3042 13.5566 65.0145 13.6152 64.759C13.6214 64.7316 13.6489 64.7145 13.6761 64.7207C13.7035 64.727 13.7206 64.7543 13.7143 64.7817C13.6585 65.0259 13.6465 65.3037 13.6798 65.585C13.773 66.373 14.1908 66.9738 14.6109 66.924C14.8086 66.9006 14.9798 66.7338 15.0929 66.4541C15.2103 66.1643 15.2496 65.7916 15.2038 65.4048C15.169 65.1107 15.0877 64.8337 14.9686 64.6035C14.9556 64.5786 14.9653 64.5478 14.9903 64.5349C15.0154 64.5219 15.0461 64.5318 15.0589 64.5567C15.1837 64.7976 15.2687 65.0867 15.305 65.3927C15.3527 65.7963 15.3109 66.1868 15.1874 66.4922C15.0597 66.8079 14.8592 66.9971 14.6228 67.0251C14.6033 67.0274 14.5838 67.0285 14.5643 67.0285Z" fill="#E64A67"/>
<path d="M11.4337 66.3741C11.419 66.5458 11.2679 66.6732 11.0961 66.6585C10.9244 66.6438 10.797 66.4927 10.8117 66.3209C10.8264 66.1491 10.9775 66.0218 11.1493 66.0364C11.3211 66.0511 11.4484 66.2023 11.4337 66.3741Z" fill="#E64A67"/>
<path d="M11.9762 65.2578C11.9615 65.4296 11.8104 65.5569 11.6386 65.5423C11.4669 65.5276 11.3395 65.3765 11.3542 65.2047C11.3689 65.0329 11.52 64.9056 11.6918 64.9202C11.8636 64.9349 11.9909 65.0861 11.9762 65.2578Z" fill="#E64A67"/>
<path d="M13.9742 64.7292C13.9595 64.901 13.8084 65.0283 13.6366 65.0136C13.4649 64.9989 13.3375 64.8478 13.3522 64.676C13.3669 64.5042 13.518 64.3769 13.6898 64.3916C13.8615 64.4063 13.9889 64.5574 13.9742 64.7292Z" fill="#E64A67"/>
<path d="M15.3151 64.6204C15.3004 64.7922 15.1493 64.9196 14.9775 64.9049C14.8057 64.8902 14.6784 64.7391 14.693 64.5673C14.7078 64.3955 14.8589 64.2682 15.0306 64.2829C15.2025 64.2975 15.3298 64.4487 15.3151 64.6204Z" fill="#E64A67"/>
<path d="M17.3654 64.4722C17.3507 64.6439 17.1996 64.7713 17.0278 64.7566C16.856 64.7419 16.7287 64.5908 16.7433 64.419C16.758 64.2472 16.9092 64.1199 17.0809 64.1345C17.2527 64.1492 17.3801 64.3004 17.3654 64.4722Z" fill="#E64A67"/>
<path d="M18.1706 65.6192C18.1559 65.7909 18.0047 65.9183 17.833 65.9036C17.6612 65.889 17.5339 65.7378 17.5485 65.566C17.5632 65.3943 17.7143 65.2669 17.8861 65.2816C18.0579 65.2962 18.1853 65.4474 18.1706 65.6192Z" fill="#E64A67"/>
<path d="M14.0793 78.1697C14.076 78.1697 14.0727 78.1694 14.0695 78.1688C14.0419 78.1634 14.0239 78.1367 14.0293 78.1091C14.4518 75.9453 14.6931 73.7333 14.7465 71.5344C14.7834 70.0216 14.7315 68.4895 14.5925 66.9809C14.5899 66.9529 14.6105 66.9281 14.6385 66.9255C14.6671 66.9229 14.6913 66.9435 14.6939 66.9715C14.8333 68.4841 14.8852 70.0202 14.8483 71.5369C14.7947 73.7415 14.5527 75.9593 14.1292 78.1286C14.1244 78.1529 14.1031 78.1697 14.0793 78.1697Z" fill="#E64A67"/>
<path d="M19.8155 71.9657C19.254 71.9657 18.6231 71.8473 17.9978 71.6214C17.2171 71.3394 16.537 70.9231 16.0827 70.4491C15.6195 69.9659 15.4446 69.4783 15.5899 69.076C15.5995 69.0495 15.6287 69.0359 15.655 69.0454C15.6815 69.055 15.6951 69.0841 15.6856 69.1105C15.5541 69.4745 15.7212 69.9249 16.1561 70.3786C16.5998 70.8416 17.2661 71.2489 18.0323 71.5257C18.7984 71.8025 19.5713 71.915 20.2084 71.8425C20.8329 71.7715 21.2493 71.5319 21.3808 71.1679C21.3903 71.1415 21.4195 71.1278 21.4459 71.1373C21.4724 71.1469 21.486 71.1761 21.4765 71.2025C21.3312 71.6048 20.8849 71.868 20.2199 71.9437C20.0903 71.9584 19.955 71.9657 19.8155 71.9657Z" fill="#E64A67"/>
<path d="M20.6194 72.9301C20.4138 72.9301 20.1836 72.8917 19.9343 72.8144C19.301 72.6179 18.6156 72.1923 18.0042 71.6159C17.3927 71.0396 16.9274 70.3805 16.6939 69.7599C16.4558 69.1273 16.4864 68.6074 16.7799 68.2961C16.7991 68.2756 16.8314 68.2747 16.8518 68.294C16.8723 68.3133 16.8732 68.3455 16.8539 68.3659C16.5886 68.6474 16.5656 69.1298 16.7892 69.7241C17.0174 70.3304 17.4736 70.976 18.074 71.5419C18.6743 72.1078 19.3457 72.5252 19.9644 72.7172C20.571 72.9053 21.0511 72.8539 21.3164 72.5724C21.3356 72.5519 21.368 72.551 21.3883 72.5702C21.4087 72.5895 21.4097 72.6217 21.3904 72.6422C21.2102 72.8333 20.9459 72.9301 20.6194 72.9301Z" fill="#E64A67"/>
<path d="M18.3094 71.7171C18.2025 71.7171 18.1046 71.6911 18.0193 71.6389C17.8164 71.5145 17.7135 71.2588 17.7297 70.9187C17.7453 70.5896 17.8708 70.2175 18.0831 69.871C18.2441 69.6082 18.4424 69.3813 18.6565 69.2146C18.6789 69.1973 18.7107 69.2014 18.7279 69.2235C18.7452 69.2457 18.7412 69.2777 18.719 69.2949C18.5144 69.4541 18.3245 69.6717 18.1699 69.9241C17.9664 70.2563 17.8462 70.6112 17.8313 70.9235C17.817 71.2248 17.9026 71.448 18.0725 71.552C18.2423 71.6561 18.4801 71.631 18.7419 71.4814C19.0134 71.3263 19.275 71.058 19.4785 70.7258C19.6265 70.4843 19.7319 70.227 19.7834 69.9818C19.7891 69.9542 19.8163 69.9367 19.8437 69.9424C19.8712 69.9482 19.8888 69.9752 19.883 70.0027C19.8291 70.2592 19.7193 70.5276 19.5653 70.779C19.353 71.1255 19.0785 71.4064 18.7924 71.5697C18.6211 71.6677 18.4568 71.7171 18.3094 71.7171Z" fill="#E64A67"/>
<path d="M21.1881 72.3826C21.1295 72.5447 21.2135 72.7236 21.3756 72.7822C21.5378 72.8408 21.7167 72.7568 21.7753 72.5947C21.8338 72.4325 21.7499 72.2536 21.5877 72.195C21.4256 72.1365 21.2467 72.2205 21.1881 72.3826Z" fill="#E64A67"/>
<path d="M21.1627 71.1416C21.1041 71.3037 21.1881 71.4826 21.3502 71.5412C21.5124 71.5998 21.6913 71.5158 21.7499 71.3537C21.8085 71.1915 21.7245 71.0126 21.5624 70.954C21.4002 70.8955 21.2213 70.9794 21.1627 71.1416Z" fill="#E64A67"/>
<path d="M19.5699 69.825C19.5113 69.9871 19.5953 70.166 19.7575 70.2246C19.9196 70.2832 20.0985 70.1992 20.1571 70.0371C20.2157 69.8749 20.1317 69.696 19.9696 69.6374C19.8074 69.5788 19.6285 69.6628 19.5699 69.825Z" fill="#E64A67"/>
<path d="M18.3976 69.1648C18.339 69.327 18.423 69.5059 18.5851 69.5644C18.7473 69.623 18.9262 69.5391 18.9847 69.3769C19.0433 69.2148 18.9593 69.0359 18.7972 68.9773C18.635 68.9187 18.4561 69.0027 18.3976 69.1648Z" fill="#E64A67"/>
<path d="M16.5978 68.172C16.5392 68.3341 16.6232 68.513 16.7853 68.5716C16.9475 68.6302 17.1264 68.5462 17.1849 68.3841C17.2435 68.2219 17.1595 68.043 16.9974 67.9845C16.8352 67.9259 16.6563 68.0099 16.5978 68.172Z" fill="#E64A67"/>
<path d="M15.3858 68.877C15.3273 69.0391 15.4112 69.218 15.5734 69.2766C15.7355 69.3352 15.9144 69.2512 15.973 69.089C16.0316 68.9269 15.9476 68.748 15.7855 68.6894C15.6233 68.6309 15.4444 68.7148 15.3858 68.877Z" fill="#E64A67"/>
<path d="M13.8693 81.9918C13.8653 81.9918 13.8613 81.9914 13.8572 81.9904C13.8299 81.9837 13.8132 81.9562 13.8198 81.9289C14.3434 79.7813 15.052 77.6659 15.9262 75.6415C16.5277 74.2487 17.2179 72.8754 17.9777 71.5601C17.9917 71.5357 18.0229 71.5274 18.0472 71.5414C18.0716 71.5555 18.0799 71.5866 18.0658 71.611C17.308 72.9229 16.6196 74.2926 16.0197 75.6818C15.1478 77.701 14.4409 79.8109 13.9188 81.9529C13.913 81.9762 13.8922 81.9918 13.8693 81.9918Z" fill="#E64A67"/>
<path d="M17.9622 89.012C19.6113 87.2752 20.7266 84.2143 20.7266 82.0299C20.7266 79.6906 19.4471 78.0069 17.603 77.2634V74.9866H13.0708V77.2634C11.2267 78.0069 9.94727 79.6906 9.94727 82.0299C9.94727 84.2143 11.0625 87.2752 12.7116 89.012H17.9622Z" fill="#EFBC73"/>
</g>
</g>
</g>
<defs>
<clipPath id="clip0_177_5451">
<rect width="94" height="120" fill="white"/>
</clipPath>
<clipPath id="clip1_177_5451">
<rect x="-0.37207" y="11.5" width="94.7442" height="97" rx="7.51938" fill="white"/>
</clipPath>
<clipPath id="clip2_177_5451">
<rect x="-0.37207" y="11.5" width="94.7442" height="97" rx="7.51938" fill="white"/>
</clipPath>
</defs>
</svg>
