<svg width="292" height="408" viewBox="0 0 292 408" fill="none" xmlns="http://www.w3.org/2000/svg">
<rect width="292" height="408" rx="24" fill="#EAEEFF"/>
<path d="M78.5348 78V77.872C78.9188 77.872 82.5028 77.296 82.5028 70.832V35.248C82.5028 28.784 78.9188 28.208 78.5348 28.208V28.08H96.8388V28.208C96.4548 28.208 92.8708 28.784 92.8708 35.248V70.832C92.8708 77.296 96.4548 77.872 96.8388 77.872V78H78.5348ZM103.448 78V77.872C103.832 77.872 107.416 77.296 107.416 70.832V35.248C107.416 28.784 103.832 28.208 103.448 28.208V28.08H115.352L143 61.68V35.248C143 28.784 139.416 28.208 139.032 28.208V28.08H148.76V28.208C148.376 28.208 144.792 28.784 144.792 35.248V78.384L109.208 35.248V70.832C109.208 77.296 112.792 77.872 113.176 77.872V78H103.448ZM159.321 29.744C152.089 29.744 151.385 37.424 151.385 38.192H151.257V28.08H192.345V38.192H192.217C192.217 37.424 191.513 29.744 184.281 29.744H176.985V70.832C176.985 77.296 180.569 77.872 180.953 77.872V78H162.649V77.872C163.033 77.872 166.617 77.296 166.617 70.832V29.744H159.321ZM194.88 91.44C199.104 91.44 199.616 83.952 199.616 78.192V35.248C199.616 28.784 196.032 28.208 195.648 28.208V28.08H213.952V28.208C213.568 28.208 209.984 28.784 209.984 35.248V78.064C209.984 86.704 203.968 91.568 194.88 91.568V91.44Z" fill="#475DB4"/>
<path d="M75.56 116V115.96C75.68 115.96 76.8 115.78 76.8 113.76V102.64C76.8 100.62 75.68 100.44 75.56 100.44V100.4H79.28L87.92 110.9V102.64C87.92 100.62 86.8 100.44 86.68 100.44V100.4H89.72V100.44C89.6 100.44 88.48 100.62 88.48 102.64V116.12L77.36 102.64V113.76C77.36 115.78 78.48 115.96 78.6 115.96V116H75.56ZM91.8353 102.24C91.8353 100.22 90.7153 100.04 90.5953 100.04V100H95.0353V106.36C95.5153 105.24 96.5953 104.08 98.7953 104.08C99.7953 104.08 100.695 104.38 101.355 104.96C101.995 105.54 102.395 106.4 102.395 107.54V113.76C102.395 115.78 103.515 115.96 103.635 115.96V116H97.9553V115.96C98.0753 115.96 99.1953 115.78 99.1953 113.76V107.8C99.1953 107.3 99.1553 106.64 98.8953 106.1C98.6353 105.58 98.1753 105.2 97.4753 105.2C96.0553 105.2 95.0353 106.62 95.0353 108.58V113.76C95.0353 115.78 96.1553 115.96 96.2753 115.96V116H90.5953V115.96C90.7153 115.96 91.8353 115.78 91.8353 113.76V102.24ZM109.161 104.92C106.921 104.92 105.521 106.78 105.341 107.94H105.281C105.461 105.84 107.161 104.08 110.301 104.08C111.381 104.08 112.921 104.24 113.961 105.12C114.601 105.68 115.041 106.52 115.041 107.8V113.76C115.041 115.78 116.161 115.96 116.281 115.96V116H111.841V114.18C111.281 115.12 110.101 116.12 107.981 116.12C106.061 116.12 104.601 115.2 104.601 113.24C104.601 110.64 107.161 108.9 111.841 108.78V107.88C111.841 106.74 111.561 105.98 111.061 105.52C110.601 105.1 109.941 104.92 109.161 104.92ZM107.801 113.24C107.801 114.2 108.341 115.18 109.441 115.18C110.781 115.18 111.721 113.82 111.841 113.42V109.26C108.761 109.3 107.801 111.78 107.801 113.24ZM108.201 101.8V101.74L109.261 100.26H109.321C110.141 101.4 111.601 102.96 112.561 103.34L112.501 103.4C111.321 103.24 109.221 102.58 108.201 101.8ZM121.963 116V115.96C122.083 115.96 123.203 115.78 123.203 113.76V102.24C123.203 100.22 122.083 100.04 121.963 100.04V100H126.403V113.76C126.403 115.78 127.523 115.96 127.643 115.96V116H121.963ZM126.403 109.68L129.343 105.76C130.183 104.66 129.463 104.3 129.443 104.3V104.28H133.823V104.3C133.563 104.3 131.763 104.8 130.683 105.86L127.363 109.2H128.963C130.603 109.2 131.303 109.66 131.863 111.32L132.623 113.52C133.163 115.12 133.803 115.66 134.763 115.2L134.803 115.24C133.783 115.92 132.943 116.2 131.703 116.2C130.603 116.2 129.863 115.86 129.483 114.7L128.443 111.58C127.983 110.22 127.563 109.68 126.803 109.68H126.403ZM136.288 102.24C136.288 100.22 135.168 100.04 135.048 100.04V100H139.488V106.36C139.968 105.24 141.048 104.08 143.248 104.08C144.248 104.08 145.148 104.38 145.808 104.96C146.448 105.54 146.848 106.4 146.848 107.54V113.76C146.848 115.78 147.968 115.96 148.088 115.96V116H142.408V115.96C142.528 115.96 143.648 115.78 143.648 113.76V107.8C143.648 107.3 143.608 106.64 143.348 106.1C143.088 105.58 142.628 105.2 141.928 105.2C140.508 105.2 139.488 106.62 139.488 108.58V113.76C139.488 115.78 140.608 115.96 140.728 115.96V116H135.048V115.96C135.168 115.96 136.288 115.78 136.288 113.76V102.24ZM154.854 116.24C150.974 116.24 149.054 113.48 149.054 110.16C149.054 106.84 150.974 104.08 154.854 104.08C158.734 104.08 160.654 106.84 160.654 110.16C160.654 113.48 158.734 116.24 154.854 116.24ZM152.334 110.16C152.334 113.12 153.014 115.76 154.854 115.76C156.694 115.76 157.394 113.12 157.394 110.16C157.394 107.2 156.694 104.56 154.854 104.56C153.014 104.56 152.334 107.2 152.334 110.16ZM166.173 104.92C163.933 104.92 162.533 106.78 162.353 107.94H162.293C162.473 105.84 164.173 104.08 167.313 104.08C168.393 104.08 169.933 104.24 170.973 105.12C171.613 105.68 172.053 106.52 172.053 107.8V113.76C172.053 115.78 173.173 115.96 173.293 115.96V116H168.853V114.18C168.293 115.12 167.113 116.12 164.993 116.12C163.073 116.12 161.613 115.2 161.613 113.24C161.613 110.64 164.173 108.9 168.853 108.78V107.88C168.853 106.74 168.573 105.98 168.073 105.52C167.613 105.1 166.953 104.92 166.173 104.92ZM164.813 113.24C164.813 114.2 165.353 115.18 166.453 115.18C167.793 115.18 168.733 113.82 168.853 113.42V109.26C165.773 109.3 164.813 111.78 164.813 113.24ZM180.214 102.24C180.214 100.22 179.094 100.04 178.974 100.04V100H183.414V106.36C183.894 105.24 184.974 104.08 187.174 104.08C188.174 104.08 189.074 104.38 189.734 104.96C190.374 105.54 190.774 106.4 190.774 107.54V113.76C190.774 115.78 191.894 115.96 192.014 115.96V116H186.334V115.96C186.454 115.96 187.574 115.78 187.574 113.76V107.8C187.574 107.3 187.534 106.64 187.274 106.1C187.014 105.58 186.554 105.2 185.854 105.2C184.434 105.2 183.414 106.62 183.414 108.58V113.76C183.414 115.78 184.534 115.96 184.654 115.96V116H178.974V115.96C179.094 115.96 180.214 115.78 180.214 113.76V102.24ZM198.78 116.24C194.9 116.24 192.98 113.48 192.98 110.16C192.98 106.84 194.9 104.08 198.78 104.08C202.66 104.08 204.58 106.84 204.58 110.16C204.58 113.48 202.66 116.24 198.78 116.24ZM196.26 110.16C196.26 113.12 196.94 115.76 198.78 115.76C200.62 115.76 201.32 113.12 201.32 110.16C201.32 107.2 200.62 104.56 198.78 104.56C196.94 104.56 196.26 107.2 196.26 110.16ZM197.58 118.4C197.58 117.72 198.1 117.2 198.78 117.2C199.46 117.2 199.98 117.72 199.98 118.4C199.98 119.08 199.46 119.6 198.78 119.6C198.1 119.6 197.58 119.08 197.58 118.4ZM211.985 116.24C208.105 116.24 206.105 113.68 206.105 110.16C206.105 106.84 208.305 104.08 212.385 104.08C214.105 104.08 215.425 104.68 216.005 104.68V107.88H215.945C215.865 107.32 215.705 106.26 215.065 105.48C214.645 104.96 213.985 104.56 212.985 104.56C210.145 104.56 209.385 107.2 209.385 110.16C209.385 113.12 210.545 115.36 213.205 115.36C214.745 115.36 215.685 114.54 216.245 113.6L216.305 113.64C216.185 114.02 215.305 116.24 211.985 116.24Z" fill="#475DB4"/>
<path d="M146 389C215.588 389 272 332.588 272 263C272 193.412 215.588 137 146 137C76.4121 137 20 193.412 20 263C20 332.588 76.4121 389 146 389Z" fill="#475DB4"/>
<path d="M66.8287 169.805C67.3996 166.287 65.0109 162.973 61.4933 162.402C57.9758 161.831 54.6614 164.22 54.0905 167.737C53.5197 171.255 55.9084 174.569 59.426 175.14C62.9435 175.711 66.2579 173.322 66.8287 169.805Z" fill="#E6D0BE"/>
<path d="M42.59 205.524C46.1535 205.524 49.0424 202.635 49.0424 199.072C49.0424 195.508 46.1535 192.619 42.59 192.619C39.0265 192.619 36.1377 195.508 36.1377 199.072C36.1377 202.635 39.0265 205.524 42.59 205.524Z" fill="#E6D0BE"/>
<path d="M78.1335 205.763C81.697 205.763 84.5858 202.875 84.5858 199.311C84.5858 195.747 81.697 192.859 78.1335 192.859C74.57 192.859 71.6812 195.747 71.6812 199.311C71.6812 202.875 74.57 205.763 78.1335 205.763Z" fill="#E6D0BE"/>
<path d="M95.8215 235.942C99.385 235.942 102.274 233.053 102.274 229.49C102.274 225.926 99.385 223.037 95.8215 223.037C92.2579 223.037 89.3691 225.926 89.3691 229.49C89.3691 233.053 92.2579 235.942 95.8215 235.942Z" fill="#E6D0BE"/>
<path d="M60.4338 236.435C63.9973 236.435 66.8861 233.546 66.8861 229.983C66.8861 226.419 63.9973 223.53 60.4338 223.53C56.8703 223.53 53.9814 226.419 53.9814 229.983C53.9814 233.546 56.8703 236.435 60.4338 236.435Z" fill="#E6D0BE"/>
<path d="M60.4033 230.309C60.3508 230.309 60.2985 230.295 60.2515 230.268L42.551 220.049C42.4569 219.995 42.3992 219.894 42.3992 219.786V199.347C42.3992 199.239 42.4569 199.138 42.551 199.084L60.2515 188.865C60.3455 188.811 60.4611 188.811 60.5551 188.865L78.2557 199.084C78.3498 199.138 78.4075 199.239 78.4075 199.347V219.786C78.4075 219.894 78.3498 219.995 78.2557 220.049L60.5551 230.268C60.5082 230.295 60.4558 230.309 60.4033 230.309ZM43.0065 219.611L60.4033 229.655L77.8004 219.611V199.522L60.4033 189.478L43.0065 199.522V219.611Z" fill="#E6D0BE"/>
<path d="M60.4394 189.349C60.2717 189.349 60.1357 189.214 60.1357 189.046V168.607C60.1357 168.498 60.1935 168.398 60.2876 168.344L77.9882 158.124C78.0822 158.07 78.1978 158.07 78.2918 158.124L95.9923 168.344C96.1376 168.428 96.1873 168.614 96.1034 168.759C96.0193 168.904 95.8343 168.953 95.6886 168.87L78.1399 158.738L60.7429 168.782V189.046C60.7429 189.214 60.6071 189.349 60.4394 189.349Z" fill="#E6D0BE"/>
<path d="M60.6436 250.973C60.4759 250.973 60.3399 250.838 60.3399 250.67V230.406L42.9428 220.362L25.3942 230.494C25.2488 230.577 25.0632 230.528 24.9794 230.383C24.8957 230.237 24.9453 230.052 25.0905 229.968L42.791 219.748C42.885 219.695 43.0006 219.695 43.0946 219.748L60.7952 229.968C60.8893 230.022 60.9471 230.122 60.9471 230.231V250.67C60.9472 250.838 60.8112 250.973 60.6436 250.973Z" fill="#E6D0BE"/>
<path d="M95.8166 230.309C95.7641 230.309 95.7118 230.295 95.6648 230.268L77.9643 220.049C77.8703 219.994 77.8125 219.894 77.8125 219.786V199.347C77.8125 199.238 77.8703 199.138 77.9643 199.084L95.6648 188.864C95.8096 188.781 95.9956 188.83 96.0796 188.976C96.1634 189.121 96.1136 189.307 95.9684 189.39L78.4198 199.522V219.61L95.8166 229.655L113.365 219.523C113.51 219.438 113.696 219.489 113.78 219.634C113.864 219.779 113.814 219.965 113.669 220.049L95.9684 230.268C95.9214 230.295 95.8692 230.309 95.8166 230.309Z" fill="#E6D0BE"/>
<path d="M260.896 340.198H100.051C99.883 340.198 99.7471 340.062 99.7471 339.895V227.27C99.7471 227.102 99.883 226.966 100.051 226.966H260.896C261.064 226.966 261.2 227.102 261.2 227.27V339.895C261.2 340.062 261.064 340.198 260.896 340.198ZM100.354 339.591H260.593V227.573H100.354V339.591Z" fill="#475DB4"/>
<path d="M261.698 217.227H99.6282V227.66H261.698V217.227Z" fill="#475DB4"/>
<path d="M108.724 222.341C108.724 223.619 107.686 224.655 106.405 224.655C105.125 224.655 104.087 223.619 104.087 222.341C104.087 221.063 105.125 220.027 106.405 220.027C107.686 220.027 108.724 221.063 108.724 222.341Z" fill="white"/>
<path d="M116.214 222.341C116.214 223.619 115.176 224.655 113.896 224.655C112.615 224.655 111.577 223.619 111.577 222.341C111.577 221.063 112.615 220.027 113.896 220.027C115.176 220.027 116.214 221.063 116.214 222.341Z" fill="white"/>
<path d="M123.704 222.341C123.704 223.619 122.666 224.655 121.386 224.655C120.106 224.655 119.068 223.619 119.068 222.341C119.068 221.063 120.106 220.027 121.386 220.027C122.666 220.027 123.704 221.063 123.704 222.341Z" fill="white"/>
<path d="M258.493 298.508H214.681V301.079H258.493V298.508Z" fill="#E6D0BE"/>
<path d="M251.09 304.584H214.681V307.155H251.09V304.584Z" fill="#E6D0BE"/>
<path d="M257.516 310.412H215.236V312.983H257.516V310.412Z" fill="#E6D0BE"/>
<path d="M165.414 235.089H127.368V237.661H165.414V235.089Z" fill="#E6D0BE"/>
<path d="M146.412 241.564H127.368V244.135H146.412V241.564Z" fill="#E6D0BE"/>
<path d="M154.908 315.172C150.948 315.172 147.158 314.27 143.428 313.383C142.307 313.116 141.148 312.84 140.005 312.594C139.841 312.559 139.737 312.397 139.772 312.234C139.808 312.069 139.97 311.964 140.133 312.001C141.282 312.248 142.445 312.524 143.569 312.792C151.139 314.593 158.966 316.455 167.909 310.501C176.852 304.547 178.153 296.606 179.411 288.927C180.69 281.121 182.012 273.048 191.175 266.947C200.339 260.845 208.297 262.739 215.994 264.57C223.564 266.371 231.391 268.233 240.335 262.279C248.503 256.84 250.295 249.827 251.537 242.516C251.565 242.35 251.72 242.241 251.887 242.267C252.052 242.295 252.164 242.452 252.136 242.617C250.87 250.065 249.042 257.211 240.671 262.784C231.508 268.886 223.549 266.992 215.853 265.161C208.283 263.36 200.455 261.498 191.512 267.453C182.569 273.407 181.268 281.347 180.01 289.026C178.731 296.833 177.409 304.906 168.246 311.007C163.523 314.151 159.12 315.172 154.908 315.172Z" fill="#475DB4"/>
<path d="M158.154 316.728C153.117 316.728 148.212 315.035 143.4 313.374C142.249 312.977 141.059 312.566 139.888 312.186C139.729 312.135 139.641 311.963 139.693 311.804C139.745 311.644 139.916 311.557 140.076 311.609C141.252 311.99 142.444 312.402 143.598 312.8C151.868 315.655 160.42 318.606 169.348 312.662C178.276 306.717 178.851 297.689 179.408 288.957C179.974 280.079 180.559 270.897 189.737 264.786C198.915 258.675 207.612 261.676 216.022 264.579C224.293 267.433 232.845 270.383 241.773 264.439C250.498 258.63 251.058 250.015 251.6 241.683C251.611 241.516 251.76 241.391 251.923 241.4C252.09 241.411 252.217 241.555 252.206 241.722C251.655 250.202 251.084 258.97 242.11 264.945C232.931 271.057 224.234 268.055 215.824 265.153C207.553 262.298 199.001 259.347 190.073 265.292C181.146 271.236 180.57 280.264 180.014 288.996C179.448 297.875 178.863 307.056 169.684 313.167C165.758 315.781 161.919 316.728 158.154 316.728Z" fill="#475DB4"/>
<path d="M142.077 320.626C142.052 320.626 142.025 320.623 142 320.616C141.837 320.573 141.741 320.407 141.783 320.245C142.406 317.883 142.809 315.42 143.2 313.038C144.479 305.23 145.802 297.157 154.965 291.056C164.128 284.955 172.087 286.848 179.783 288.68C187.354 290.481 195.181 292.343 204.125 286.389C213.067 280.434 214.368 272.494 215.626 264.815C216.905 257.008 218.227 248.935 227.39 242.834C235.747 237.27 242.987 238.321 250.284 240.005C250.447 240.042 250.549 240.205 250.511 240.369C250.474 240.532 250.31 240.635 250.147 240.596C242.986 238.944 235.882 237.91 227.727 243.339C218.784 249.294 217.483 257.234 216.225 264.913C214.946 272.72 213.624 280.793 204.461 286.894C195.298 292.995 187.339 291.101 179.643 289.27C172.073 287.469 164.245 285.608 155.302 291.562C146.358 297.517 145.057 305.457 143.799 313.136C143.406 315.532 143 318.01 142.37 320.4C142.334 320.536 142.212 320.626 142.077 320.626Z" fill="#475DB4"/>
<path d="M142.591 322.179C142.574 322.179 142.557 322.178 142.54 322.175C142.374 322.146 142.263 321.989 142.292 321.824C142.783 318.958 142.967 315.925 143.145 312.992C143.686 304.075 144.245 294.855 153.424 288.743C162.603 282.63 171.325 285.672 179.761 288.612C188.057 291.504 196.635 294.494 205.563 288.549C214.49 282.605 215.04 273.538 215.571 264.769C216.112 255.852 216.671 246.632 225.849 240.521C234.515 234.75 242.93 237.602 249.692 239.893C249.851 239.947 249.936 240.119 249.882 240.278C249.828 240.437 249.657 240.522 249.497 240.468C241.058 237.609 233.984 235.835 226.186 241.026C217.259 246.97 216.709 256.038 216.177 264.806C215.637 273.723 215.078 282.943 205.899 289.054C196.72 295.167 187.997 292.126 179.561 289.185C171.266 286.294 162.688 283.305 153.76 289.248C144.832 295.193 144.283 304.26 143.751 313.029C143.572 315.978 143.387 319.028 142.89 321.927C142.865 322.075 142.736 322.179 142.591 322.179Z" fill="#475DB4"/>
<path d="M203.46 286.166C203.362 286.166 203.266 286.119 203.207 286.031L197.781 277.881C197.688 277.741 197.726 277.553 197.865 277.46C198.005 277.367 198.193 277.405 198.286 277.544L203.713 285.694C203.806 285.834 203.768 286.022 203.628 286.115C203.577 286.15 203.518 286.166 203.46 286.166Z" fill="#475DB4"/>
<path d="M197.171 276.72C197.073 276.72 196.976 276.673 196.918 276.585L191.398 268.294C191.305 268.154 191.342 267.966 191.482 267.873C191.622 267.78 191.81 267.818 191.903 267.957L197.423 276.248C197.516 276.388 197.478 276.576 197.339 276.669C197.287 276.704 197.228 276.72 197.171 276.72Z" fill="#475DB4"/>
<path d="M200.652 288.036C200.553 288.036 200.457 287.988 200.398 287.901L194.972 279.751C194.879 279.611 194.917 279.423 195.057 279.33C195.196 279.236 195.384 279.274 195.478 279.414L200.904 287.564C200.997 287.704 200.959 287.892 200.819 287.985C200.768 288.019 200.709 288.036 200.652 288.036Z" fill="#475DB4"/>
<path d="M194.362 278.59C194.264 278.59 194.168 278.543 194.109 278.455L188.589 270.164C188.496 270.024 188.534 269.836 188.674 269.743C188.813 269.649 189.002 269.688 189.095 269.827L194.615 278.118C194.708 278.258 194.67 278.446 194.53 278.539C194.478 278.574 194.42 278.59 194.362 278.59Z" fill="#475DB4"/>
<path d="M197.412 289.257C197.314 289.257 197.217 289.21 197.159 289.122L192.164 281.621C192.071 281.481 192.109 281.292 192.249 281.2C192.388 281.106 192.576 281.144 192.669 281.284L197.664 288.786C197.757 288.925 197.719 289.114 197.58 289.207C197.528 289.241 197.47 289.257 197.412 289.257Z" fill="#475DB4"/>
<path d="M191.554 280.46C191.456 280.46 191.359 280.412 191.301 280.324L186.212 272.682C186.119 272.542 186.157 272.354 186.297 272.261C186.436 272.167 186.625 272.206 186.718 272.345L191.806 279.988C191.899 280.127 191.861 280.316 191.722 280.409C191.67 280.443 191.612 280.46 191.554 280.46Z" fill="#475DB4"/>
<path d="M193.884 290.047C193.786 290.047 193.689 290 193.631 289.912L189.355 283.491C189.262 283.351 189.3 283.162 189.44 283.07C189.579 282.976 189.768 283.014 189.861 283.154L194.136 289.575C194.229 289.715 194.191 289.904 194.052 289.996C194 290.031 193.942 290.047 193.884 290.047Z" fill="#475DB4"/>
<path d="M188.745 282.33C188.647 282.33 188.551 282.282 188.492 282.195L184.267 275.848C184.174 275.709 184.212 275.52 184.351 275.427C184.491 275.333 184.679 275.372 184.772 275.512L188.998 281.858C189.091 281.998 189.053 282.186 188.913 282.279C188.862 282.313 188.803 282.33 188.745 282.33Z" fill="#475DB4"/>
<path d="M189.925 290.19C189.826 290.19 189.73 290.142 189.671 290.054L186.547 285.361C186.454 285.221 186.491 285.033 186.631 284.94C186.77 284.846 186.959 284.885 187.052 285.024L190.177 289.718C190.27 289.857 190.232 290.046 190.092 290.139C190.041 290.173 189.982 290.19 189.925 290.19Z" fill="#475DB4"/>
<path d="M185.936 284.199C185.838 284.199 185.742 284.152 185.683 284.064L182.609 279.446C182.516 279.307 182.554 279.118 182.693 279.025C182.833 278.931 183.021 278.97 183.114 279.11L186.189 283.728C186.282 283.867 186.244 284.056 186.104 284.149C186.053 284.183 185.994 284.199 185.936 284.199Z" fill="#475DB4"/>
<path d="M185.678 289.899C185.579 289.899 185.483 289.851 185.425 289.764L183.738 287.231C183.645 287.091 183.683 286.903 183.823 286.81C183.962 286.717 184.151 286.755 184.244 286.894L185.93 289.427C186.023 289.567 185.985 289.755 185.846 289.848C185.794 289.882 185.735 289.899 185.678 289.899Z" fill="#475DB4"/>
<path d="M183.128 286.07C183.03 286.07 182.934 286.022 182.875 285.935L181.239 283.477C181.146 283.337 181.184 283.149 181.323 283.056C181.463 282.962 181.651 283 181.744 283.14L183.381 285.598C183.474 285.738 183.436 285.926 183.296 286.019C183.244 286.053 183.186 286.07 183.128 286.07Z" fill="#475DB4"/>
<path d="M199.886 274.709C199.787 274.709 199.691 274.662 199.633 274.574L194.206 266.424C194.113 266.284 194.151 266.096 194.291 266.003C194.43 265.909 194.618 265.948 194.712 266.087L200.138 274.237C200.231 274.377 200.193 274.566 200.054 274.658C200.002 274.693 199.944 274.709 199.886 274.709Z" fill="#475DB4"/>
<path d="M206.269 284.296C206.171 284.296 206.074 284.248 206.016 284.161L200.496 275.87C200.403 275.73 200.441 275.542 200.58 275.449C200.72 275.355 200.908 275.394 201.001 275.533L206.521 283.824C206.614 283.964 206.576 284.152 206.437 284.245C206.385 284.28 206.327 284.296 206.269 284.296Z" fill="#475DB4"/>
<path d="M202.694 272.839C202.596 272.839 202.5 272.792 202.441 272.704L197.446 265.202C197.353 265.063 197.391 264.874 197.531 264.781C197.67 264.688 197.859 264.726 197.952 264.866L202.947 272.367C203.04 272.507 203.002 272.695 202.862 272.788C202.81 272.823 202.752 272.839 202.694 272.839Z" fill="#475DB4"/>
<path d="M208.646 281.778C208.548 281.778 208.451 281.731 208.393 281.643L203.304 274C203.211 273.861 203.249 273.672 203.389 273.579C203.528 273.486 203.716 273.524 203.81 273.664L208.898 281.306C208.991 281.446 208.953 281.634 208.814 281.727C208.762 281.762 208.704 281.778 208.646 281.778Z" fill="#475DB4"/>
<path d="M205.503 270.969C205.404 270.969 205.308 270.922 205.25 270.834L200.974 264.412C200.881 264.273 200.919 264.084 201.059 263.991C201.198 263.898 201.386 263.936 201.48 264.076L205.755 270.497C205.848 270.637 205.81 270.825 205.671 270.918C205.619 270.953 205.56 270.969 205.503 270.969Z" fill="#475DB4"/>
<path d="M210.591 278.612C210.493 278.612 210.397 278.565 210.338 278.477L206.113 272.131C206.02 271.991 206.058 271.803 206.197 271.71C206.336 271.616 206.525 271.655 206.618 271.794L210.844 278.14C210.937 278.28 210.899 278.469 210.759 278.561C210.707 278.596 210.649 278.612 210.591 278.612Z" fill="#475DB4"/>
<path d="M208.311 269.1C208.213 269.1 208.117 269.052 208.058 268.964L204.933 264.271C204.841 264.131 204.878 263.943 205.018 263.85C205.157 263.756 205.346 263.795 205.439 263.934L208.564 268.628C208.657 268.767 208.619 268.956 208.479 269.049C208.428 269.083 208.369 269.1 208.311 269.1Z" fill="#475DB4"/>
<path d="M212.249 275.013C212.151 275.013 212.054 274.965 211.996 274.878L208.921 270.26C208.828 270.12 208.866 269.932 209.006 269.839C209.145 269.745 209.334 269.783 209.427 269.923L212.501 274.541C212.594 274.681 212.556 274.869 212.417 274.962C212.365 274.997 212.307 275.013 212.249 275.013Z" fill="#475DB4"/>
<path d="M211.12 267.229C211.022 267.229 210.925 267.182 210.867 267.094L209.18 264.561C209.087 264.422 209.125 264.233 209.265 264.14C209.404 264.048 209.593 264.085 209.686 264.225L211.372 266.757C211.465 266.897 211.427 267.086 211.288 267.178C211.236 267.213 211.178 267.229 211.12 267.229Z" fill="#475DB4"/>
<path d="M213.619 270.983C213.521 270.983 213.425 270.936 213.366 270.847L211.73 268.39C211.637 268.25 211.675 268.062 211.814 267.969C211.954 267.875 212.142 267.913 212.235 268.054L213.872 270.511C213.965 270.651 213.927 270.839 213.787 270.932C213.735 270.967 213.677 270.983 213.619 270.983Z" fill="#475DB4"/>
<path d="M167.165 310.332C167.067 310.332 166.971 310.284 166.912 310.196L161.486 302.046C161.393 301.907 161.431 301.718 161.57 301.625C161.71 301.532 161.898 301.57 161.991 301.709L167.418 309.86C167.511 309.999 167.473 310.188 167.333 310.281C167.281 310.315 167.223 310.332 167.165 310.332Z" fill="#475DB4"/>
<path d="M160.876 300.886C160.778 300.886 160.681 300.838 160.623 300.751L155.103 292.46C155.01 292.32 155.048 292.132 155.187 292.039C155.327 291.945 155.515 291.983 155.608 292.123L161.128 300.414C161.221 300.553 161.183 300.742 161.044 300.835C160.992 300.869 160.934 300.886 160.876 300.886Z" fill="#475DB4"/>
<path d="M164.357 312.201C164.259 312.201 164.162 312.154 164.104 312.066L158.677 303.916C158.584 303.777 158.622 303.588 158.762 303.495C158.901 303.402 159.09 303.44 159.183 303.58L164.609 311.729C164.702 311.869 164.664 312.058 164.525 312.15C164.473 312.185 164.415 312.201 164.357 312.201Z" fill="#475DB4"/>
<path d="M158.067 302.755C157.969 302.755 157.873 302.708 157.814 302.62L152.294 294.329C152.201 294.19 152.239 294.001 152.379 293.908C152.518 293.815 152.707 293.853 152.8 293.993L158.32 302.283C158.413 302.423 158.375 302.612 158.235 302.704C158.184 302.739 158.125 302.755 158.067 302.755Z" fill="#475DB4"/>
<path d="M161.117 313.423C161.018 313.423 160.922 313.376 160.864 313.288L155.869 305.786C155.776 305.646 155.814 305.458 155.953 305.365C156.093 305.271 156.281 305.31 156.374 305.449L161.369 312.951C161.462 313.091 161.424 313.279 161.285 313.372C161.233 313.407 161.175 313.423 161.117 313.423Z" fill="#475DB4"/>
<path d="M155.259 304.625C155.161 304.625 155.064 304.578 155.006 304.49L149.917 296.848C149.824 296.708 149.862 296.52 150.002 296.427C150.141 296.333 150.329 296.371 150.423 296.511L155.511 304.154C155.604 304.293 155.567 304.482 155.427 304.575C155.375 304.609 155.317 304.625 155.259 304.625Z" fill="#475DB4"/>
<path d="M157.589 314.214C157.491 314.214 157.394 314.166 157.336 314.079L153.06 307.657C152.967 307.518 153.005 307.329 153.145 307.236C153.284 307.142 153.473 307.181 153.566 307.32L157.841 313.742C157.934 313.882 157.897 314.07 157.757 314.163C157.705 314.198 157.647 314.214 157.589 314.214Z" fill="#475DB4"/>
<path d="M152.45 306.495C152.352 306.495 152.256 306.448 152.197 306.36L147.972 300.014C147.879 299.874 147.916 299.685 148.056 299.593C148.196 299.499 148.384 299.537 148.477 299.677L152.703 306.023C152.796 306.163 152.758 306.351 152.618 306.444C152.566 306.479 152.508 306.495 152.45 306.495Z" fill="#475DB4"/>
<path d="M153.63 314.355C153.531 314.355 153.435 314.308 153.377 314.22L150.252 309.527C150.159 309.387 150.196 309.199 150.336 309.106C150.475 309.012 150.664 309.05 150.757 309.19L153.882 313.883C153.975 314.023 153.937 314.211 153.798 314.304C153.746 314.339 153.687 314.355 153.63 314.355Z" fill="#475DB4"/>
<path d="M149.642 308.366C149.544 308.366 149.447 308.318 149.389 308.231L146.314 303.613C146.221 303.473 146.259 303.285 146.399 303.192C146.538 303.098 146.726 303.136 146.82 303.276L149.894 307.894C149.987 308.034 149.949 308.222 149.81 308.315C149.758 308.349 149.7 308.366 149.642 308.366Z" fill="#475DB4"/>
<path d="M149.383 314.065C149.285 314.065 149.188 314.017 149.13 313.93L147.443 311.397C147.35 311.257 147.388 311.069 147.528 310.976C147.667 310.883 147.856 310.921 147.949 311.06L149.635 313.593C149.728 313.733 149.69 313.921 149.551 314.014C149.499 314.048 149.441 314.065 149.383 314.065Z" fill="#475DB4"/>
<path d="M146.833 310.235C146.735 310.235 146.639 310.188 146.58 310.1L144.944 307.642C144.851 307.503 144.889 307.314 145.028 307.221C145.168 307.128 145.356 307.166 145.449 307.306L147.086 309.763C147.179 309.903 147.141 310.092 147.001 310.184C146.949 310.219 146.891 310.235 146.833 310.235Z" fill="#475DB4"/>
<path d="M163.591 298.875C163.493 298.875 163.396 298.828 163.338 298.74L157.911 290.59C157.818 290.45 157.856 290.262 157.996 290.169C158.135 290.076 158.324 290.114 158.417 290.253L163.843 298.403C163.936 298.543 163.898 298.731 163.759 298.824C163.707 298.859 163.649 298.875 163.591 298.875Z" fill="#475DB4"/>
<path d="M169.974 308.462C169.876 308.462 169.779 308.415 169.721 308.327L164.201 300.036C164.108 299.896 164.145 299.708 164.285 299.615C164.425 299.521 164.613 299.56 164.706 299.699L170.226 307.99C170.319 308.13 170.281 308.318 170.142 308.411C170.09 308.446 170.032 308.462 169.974 308.462Z" fill="#475DB4"/>
<path d="M166.399 297.005C166.301 297.005 166.205 296.957 166.146 296.87L161.151 289.368C161.058 289.228 161.096 289.04 161.236 288.947C161.375 288.853 161.564 288.892 161.657 289.031L166.652 296.533C166.745 296.672 166.707 296.861 166.567 296.954C166.515 296.989 166.457 297.005 166.399 297.005Z" fill="#475DB4"/>
<path d="M172.351 305.944C172.253 305.944 172.156 305.896 172.098 305.808L167.009 298.166C166.916 298.026 166.954 297.838 167.094 297.745C167.233 297.651 167.421 297.69 167.515 297.829L172.603 305.472C172.696 305.611 172.659 305.8 172.519 305.893C172.467 305.927 172.409 305.944 172.351 305.944Z" fill="#475DB4"/>
<path d="M169.208 295.135C169.109 295.135 169.013 295.088 168.955 295L164.679 288.578C164.586 288.439 164.624 288.25 164.764 288.157C164.903 288.063 165.091 288.102 165.185 288.241L169.46 294.663C169.553 294.803 169.515 294.991 169.376 295.084C169.324 295.119 169.265 295.135 169.208 295.135Z" fill="#475DB4"/>
<path d="M174.297 302.777C174.198 302.777 174.102 302.73 174.044 302.642L169.818 296.296C169.725 296.156 169.763 295.968 169.903 295.875C170.042 295.781 170.23 295.82 170.324 295.959L174.549 302.306C174.642 302.445 174.604 302.634 174.465 302.727C174.413 302.761 174.354 302.777 174.297 302.777Z" fill="#475DB4"/>
<path d="M172.016 293.264C171.918 293.264 171.822 293.217 171.763 293.129L168.639 288.436C168.546 288.296 168.584 288.108 168.723 288.015C168.862 287.921 169.051 287.96 169.144 288.099L172.269 292.792C172.362 292.932 172.324 293.121 172.184 293.213C172.133 293.248 172.074 293.264 172.016 293.264Z" fill="#475DB4"/>
<path d="M175.954 299.179C175.856 299.179 175.759 299.132 175.701 299.044L172.626 294.426C172.533 294.287 172.571 294.098 172.711 294.005C172.85 293.912 173.039 293.95 173.132 294.09L176.206 298.707C176.299 298.847 176.261 299.036 176.122 299.128C176.07 299.163 176.012 299.179 175.954 299.179Z" fill="#475DB4"/>
<path d="M174.825 291.394C174.726 291.394 174.63 291.347 174.572 291.259L172.885 288.726C172.792 288.587 172.83 288.398 172.97 288.306C173.109 288.213 173.297 288.25 173.391 288.39L175.077 290.922C175.17 291.062 175.132 291.251 174.993 291.343C174.941 291.378 174.883 291.394 174.825 291.394Z" fill="#475DB4"/>
<path d="M177.324 295.149C177.226 295.149 177.13 295.102 177.071 295.014L175.435 292.557C175.342 292.417 175.38 292.228 175.519 292.136C175.659 292.042 175.847 292.08 175.94 292.22L177.577 294.677C177.67 294.817 177.632 295.006 177.492 295.098C177.44 295.133 177.382 295.149 177.324 295.149Z" fill="#475DB4"/>
<path d="M239.971 261.856C239.873 261.856 239.777 261.809 239.718 261.721L234.292 253.571C234.199 253.431 234.237 253.243 234.376 253.15C234.516 253.056 234.704 253.095 234.797 253.234L240.224 261.384C240.317 261.524 240.279 261.712 240.139 261.805C240.088 261.84 240.029 261.856 239.971 261.856Z" fill="#475DB4"/>
<path d="M233.682 252.41C233.584 252.41 233.488 252.362 233.429 252.274L227.909 243.984C227.816 243.844 227.854 243.655 227.994 243.563C228.133 243.469 228.321 243.508 228.415 243.647L233.935 251.938C234.028 252.077 233.99 252.266 233.85 252.359C233.798 252.393 233.74 252.41 233.682 252.41Z" fill="#475DB4"/>
<path d="M237.163 263.726C237.065 263.726 236.968 263.678 236.91 263.591L231.483 255.441C231.39 255.301 231.428 255.113 231.568 255.02C231.707 254.926 231.896 254.964 231.989 255.104L237.415 263.254C237.508 263.394 237.47 263.582 237.331 263.675C237.279 263.709 237.221 263.726 237.163 263.726Z" fill="#475DB4"/>
<path d="M230.873 254.28C230.775 254.28 230.679 254.232 230.62 254.145L225.1 245.854C225.007 245.714 225.045 245.526 225.185 245.433C225.324 245.339 225.513 245.377 225.606 245.517L231.126 253.808C231.219 253.948 231.181 254.136 231.041 254.229C230.99 254.263 230.931 254.28 230.873 254.28Z" fill="#475DB4"/>
<path d="M233.923 264.948C233.825 264.948 233.728 264.9 233.67 264.813L228.675 257.311C228.582 257.171 228.62 256.983 228.759 256.89C228.899 256.796 229.087 256.834 229.18 256.974L234.175 264.476C234.268 264.616 234.23 264.804 234.091 264.897C234.039 264.931 233.981 264.948 233.923 264.948Z" fill="#475DB4"/>
<path d="M228.065 256.149C227.967 256.149 227.87 256.102 227.812 256.014L222.723 248.372C222.63 248.232 222.668 248.044 222.808 247.951C222.947 247.857 223.136 247.895 223.229 248.035L228.317 255.678C228.41 255.817 228.373 256.006 228.233 256.099C228.181 256.133 228.123 256.149 228.065 256.149Z" fill="#475DB4"/>
<path d="M230.395 265.737C230.297 265.737 230.201 265.69 230.142 265.602L225.866 259.181C225.773 259.041 225.811 258.853 225.951 258.76C226.09 258.666 226.279 258.704 226.372 258.844L230.648 265.266C230.741 265.405 230.703 265.594 230.563 265.687C230.511 265.721 230.453 265.737 230.395 265.737Z" fill="#475DB4"/>
<path d="M225.257 258.019C225.158 258.019 225.062 257.972 225.004 257.884L220.778 251.538C220.685 251.398 220.723 251.21 220.862 251.117C221.002 251.023 221.19 251.061 221.283 251.201L225.509 257.548C225.602 257.687 225.564 257.876 225.424 257.969C225.373 258.003 225.314 258.019 225.257 258.019Z" fill="#475DB4"/>
<path d="M226.436 265.879C226.337 265.879 226.241 265.832 226.183 265.744L223.058 261.051C222.965 260.911 223.003 260.722 223.142 260.63C223.282 260.536 223.47 260.574 223.563 260.714L226.688 265.407C226.781 265.547 226.743 265.735 226.604 265.828C226.552 265.863 226.493 265.879 226.436 265.879Z" fill="#475DB4"/>
<path d="M222.448 259.889C222.35 259.889 222.253 259.842 222.195 259.754L219.12 255.136C219.027 254.996 219.065 254.808 219.205 254.715C219.344 254.621 219.532 254.66 219.626 254.8L222.7 259.418C222.793 259.557 222.755 259.746 222.616 259.838C222.564 259.873 222.506 259.889 222.448 259.889Z" fill="#475DB4"/>
<path d="M222.189 265.589C222.091 265.589 221.994 265.541 221.936 265.453L220.249 262.92C220.156 262.781 220.194 262.592 220.334 262.499C220.473 262.405 220.662 262.444 220.755 262.584L222.441 265.117C222.534 265.256 222.496 265.445 222.357 265.538C222.305 265.572 222.247 265.589 222.189 265.589Z" fill="#475DB4"/>
<path d="M219.639 261.76C219.541 261.76 219.445 261.712 219.386 261.624L217.75 259.167C217.657 259.027 217.695 258.839 217.834 258.746C217.974 258.652 218.162 258.691 218.255 258.83L219.892 261.287C219.985 261.427 219.947 261.616 219.807 261.708C219.755 261.743 219.697 261.76 219.639 261.76Z" fill="#475DB4"/>
<path d="M236.397 250.399C236.298 250.399 236.202 250.351 236.144 250.264L230.717 242.114C230.624 241.974 230.662 241.786 230.802 241.693C230.941 241.599 231.13 241.638 231.223 241.777L236.649 249.927C236.742 250.066 236.704 250.255 236.565 250.348C236.513 250.382 236.454 250.399 236.397 250.399Z" fill="#475DB4"/>
<path d="M242.78 259.986C242.682 259.986 242.585 259.938 242.527 259.851L237.007 251.56C236.914 251.42 236.952 251.232 237.092 251.139C237.231 251.045 237.419 251.084 237.512 251.223L243.033 259.514C243.125 259.654 243.088 259.842 242.948 259.935C242.896 259.97 242.838 259.986 242.78 259.986Z" fill="#475DB4"/>
<path d="M239.205 248.529C239.107 248.529 239.011 248.481 238.952 248.393L233.958 240.891C233.865 240.752 233.903 240.563 234.042 240.47C234.181 240.377 234.37 240.415 234.463 240.555L239.458 248.057C239.551 248.196 239.513 248.385 239.373 248.478C239.322 248.512 239.263 248.529 239.205 248.529Z" fill="#475DB4"/>
<path d="M245.157 257.468C245.059 257.468 244.962 257.42 244.904 257.332L239.815 249.689C239.722 249.55 239.76 249.361 239.9 249.268C240.039 249.175 240.228 249.213 240.321 249.353L245.409 256.996C245.502 257.135 245.464 257.324 245.325 257.416C245.273 257.451 245.215 257.468 245.157 257.468Z" fill="#475DB4"/>
<path d="M242.014 246.659C241.916 246.659 241.819 246.611 241.761 246.524L237.485 240.102C237.392 239.962 237.43 239.774 237.57 239.681C237.709 239.587 237.897 239.626 237.991 239.765L242.266 246.187C242.359 246.327 242.321 246.515 242.182 246.608C242.13 246.643 242.072 246.659 242.014 246.659Z" fill="#475DB4"/>
<path d="M247.102 254.301C247.004 254.301 246.908 254.254 246.849 254.166L242.624 247.82C242.531 247.68 242.569 247.492 242.708 247.399C242.848 247.305 243.036 247.344 243.129 247.483L247.355 253.829C247.448 253.969 247.41 254.158 247.27 254.25C247.219 254.285 247.16 254.301 247.102 254.301Z" fill="#475DB4"/>
<path d="M244.822 244.789C244.724 244.789 244.628 244.742 244.569 244.654L241.444 239.961C241.352 239.821 241.389 239.633 241.529 239.54C241.668 239.446 241.857 239.484 241.95 239.625L245.075 244.317C245.168 244.457 245.13 244.646 244.99 244.738C244.939 244.773 244.88 244.789 244.822 244.789Z" fill="#475DB4"/>
<path d="M248.76 250.703C248.662 250.703 248.566 250.656 248.507 250.568L245.432 245.95C245.339 245.81 245.377 245.622 245.517 245.529C245.656 245.436 245.845 245.474 245.938 245.613L249.013 250.231C249.106 250.371 249.068 250.56 248.928 250.652C248.876 250.687 248.818 250.703 248.76 250.703Z" fill="#475DB4"/>
<path d="M247.631 242.919C247.533 242.919 247.436 242.872 247.378 242.784L245.692 240.251C245.599 240.111 245.637 239.923 245.776 239.83C245.916 239.736 246.104 239.774 246.197 239.914L247.883 242.447C247.976 242.587 247.938 242.775 247.799 242.868C247.747 242.903 247.689 242.919 247.631 242.919Z" fill="#475DB4"/>
<path d="M250.13 246.672C250.032 246.672 249.936 246.625 249.877 246.537L248.241 244.079C248.148 243.94 248.186 243.751 248.326 243.659C248.465 243.565 248.654 243.603 248.747 243.743L250.383 246.201C250.476 246.34 250.438 246.529 250.298 246.621C250.247 246.656 250.188 246.672 250.13 246.672Z" fill="#475DB4"/>
<path d="M232.137 375.016L213.282 339.244V312.382H195.125V339.244L176.269 375.016C174.049 379.228 176.824 384.492 181.264 384.492H227.143C231.582 384.492 234.357 379.228 232.137 375.016Z" fill="#E6D0BE"/>
<path d="M227.142 384.796H181.264C179.184 384.796 177.336 383.712 176.196 381.822C174.926 379.717 174.852 377.056 176.001 374.875L194.821 339.17V312.079H213.585V339.17L232.406 374.875C233.555 377.056 233.48 379.717 232.21 381.822C231.07 383.712 229.223 384.796 227.142 384.796ZM195.428 312.686V339.32L176.538 375.158C175.487 377.152 175.555 379.584 176.716 381.508C177.744 383.212 179.401 384.189 181.264 384.189H227.142C229.005 384.189 230.662 383.212 231.69 381.508C232.851 379.585 232.919 377.152 231.868 375.158L212.978 339.32V312.686H195.428Z" fill="white"/>
<path d="M215.132 356.422C215.023 356.422 214.917 356.363 214.863 356.259L209.557 346.194C209.479 346.045 209.536 345.862 209.684 345.784C209.833 345.705 210.016 345.762 210.094 345.91L215.4 355.976C215.479 356.125 215.422 356.308 215.273 356.387C215.228 356.41 215.18 356.422 215.132 356.422Z" fill="white"/>
<path d="M204.035 316.223C211.31 316.223 217.207 314.185 217.207 311.672C217.207 309.159 211.31 307.122 204.035 307.122C196.761 307.122 190.863 309.159 190.863 311.672C190.863 314.185 196.761 316.223 204.035 316.223Z" fill="#E6D0BE"/>
<path d="M204.035 316.526C196.479 316.526 190.56 314.394 190.56 311.672C190.56 308.95 196.479 306.818 204.035 306.818C211.591 306.818 217.511 308.95 217.511 311.672C217.511 314.394 211.591 316.526 204.035 316.526ZM204.035 307.425C196.338 307.425 191.167 309.621 191.167 311.672C191.167 313.723 196.338 315.919 204.035 315.919C211.732 315.919 216.903 313.723 216.903 311.672C216.903 309.621 211.732 307.425 204.035 307.425Z" fill="white"/>
<path d="M216.999 360.538H191.407L182.534 377.372H225.872L216.999 360.538Z" fill="#475DB4"/>
<path d="M198.767 369.312C197.735 369.312 196.895 368.405 196.895 367.29C196.895 366.175 197.735 365.267 198.767 365.267C199.8 365.267 200.64 366.175 200.64 367.29C200.64 368.405 199.8 369.312 198.767 369.312ZM198.767 365.874C198.069 365.874 197.502 366.509 197.502 367.29C197.502 368.07 198.069 368.705 198.767 368.705C199.465 368.705 200.033 368.07 200.033 367.29C200.033 366.509 199.465 365.874 198.767 365.874Z" fill="white"/>
<path d="M209.359 374.1C207.43 374.1 205.861 372.394 205.861 370.298C205.861 368.201 207.43 366.495 209.359 366.495C211.288 366.495 212.857 368.201 212.857 370.298C212.857 372.394 211.288 374.1 209.359 374.1ZM209.359 367.103C207.765 367.103 206.468 368.536 206.468 370.298C206.468 372.06 207.765 373.493 209.359 373.493C210.953 373.493 212.249 372.06 212.249 370.298C212.249 368.536 210.953 367.103 209.359 367.103Z" fill="white"/>
<path d="M201.513 354.949C200.079 354.949 198.912 353.683 198.912 352.128C198.912 350.573 200.079 349.308 201.513 349.308C202.948 349.308 204.115 350.573 204.115 352.128C204.115 353.683 202.948 354.949 201.513 354.949ZM201.513 349.915C200.414 349.915 199.519 350.908 199.519 352.128C199.519 353.349 200.414 354.341 201.513 354.341C202.613 354.341 203.507 353.349 203.507 352.128C203.507 350.908 202.613 349.915 201.513 349.915Z" fill="white"/>
<path d="M33.8798 380.63L22.2585 380.455L25.7211 365.471L37.5639 367.445L33.8798 380.63Z" fill="black"/>
<path d="M50.1165 388.345H20.0227L22.7937 376.84H34.5833L43.1088 379.441C47.2871 380.573 50.1551 384.217 50.1165 388.345Z" fill="#475DB4"/>
<path d="M88.1229 382.872L76.5017 382.697L76.8605 365.471L88.7034 367.445L88.1229 382.872Z" fill="#E2A18D"/>
<path d="M104.127 388.345H74.0332L76.6248 376.84H88.5938L97.1193 379.441C101.298 380.573 104.166 384.217 104.127 388.345Z" fill="white"/>
<path d="M49.2273 266.961C49.2273 266.961 42.0498 282.931 37.2051 302.31C32.3603 321.689 23.7473 370.317 23.7473 370.317H37.0257C37.0257 370.317 63.2236 340.351 65.5562 299.26L73.6308 266.781L49.2273 266.961Z" fill="black"/>
<path d="M59.9937 305.36C59.9937 305.36 73.6308 325.098 74.7075 369.24H89.9597C89.9597 369.24 101.085 344.477 94.8044 318.459C88.524 292.44 78.2962 264.448 78.2962 264.448H61.9675L59.9937 305.36Z" fill="black"/>
<path d="M36.4397 380.005C36.3749 380.005 36.31 379.98 36.2607 379.93C36.1618 379.832 36.1618 379.672 36.2607 379.573L38.1446 377.689C38.2433 377.59 38.4037 377.59 38.5024 377.689C38.6013 377.788 38.6013 377.948 38.5024 378.047L36.6185 379.93C36.5693 379.98 36.5045 380.005 36.4397 380.005Z" fill="#363E44"/>
<path d="M38.5815 380.647C38.5167 380.647 38.4519 380.623 38.4025 380.573C38.3037 380.475 38.3037 380.315 38.4025 380.216L40.2864 378.332C40.3852 378.233 40.5455 378.233 40.6443 378.332C40.7431 378.431 40.7431 378.591 40.6443 378.69L38.7604 380.574C38.7111 380.623 38.6463 380.647 38.5815 380.647Z" fill="#363E44"/>
<path d="M90.4585 380.196C90.3936 380.196 90.3288 380.172 90.2795 380.122C90.1806 380.023 90.1806 379.863 90.2795 379.764L92.1634 377.881C92.2621 377.782 92.4225 377.782 92.5212 377.881C92.6201 377.979 92.6201 378.139 92.5212 378.238L90.6373 380.122C90.5881 380.172 90.5233 380.196 90.4585 380.196Z" fill="#363E44"/>
<path d="M92.6003 380.838C92.5355 380.838 92.4707 380.814 92.4213 380.764C92.3225 380.666 92.3225 380.505 92.4213 380.407L94.3052 378.523C94.404 378.424 94.5643 378.424 94.6631 378.523C94.7619 378.622 94.7619 378.782 94.6631 378.88L92.7792 380.764C92.7299 380.814 92.6651 380.838 92.6003 380.838Z" fill="#363E44"/>
<path d="M35.3506 283.478C33.2476 300.832 27.7679 318.227 28.0585 334.825L52.2047 335.386L54.21 299.607L64.8787 301.312L65.6723 335.386L100.536 335.305L84.6587 264.325L111.469 291.117L126.582 276.124C126.582 276.124 89.0591 229.629 66.9274 226.26C37.4521 221.774 25.6807 242.58 21.0011 258.142C16.9299 271.68 27.5934 278.959 35.3506 283.478Z" fill="white"/>
<path d="M51.0218 271.639C50.9771 271.639 50.9319 271.629 50.8889 271.608C50.7383 271.534 50.6757 271.352 50.7493 271.202L52.0219 268.596L31.7542 258.121C31.6051 258.044 31.5468 257.861 31.6239 257.712C31.7008 257.563 31.8839 257.505 32.0329 257.582L52.5643 268.193C52.7109 268.269 52.7702 268.448 52.6978 268.596L51.2948 271.468C51.2423 271.576 51.1342 271.639 51.0218 271.639Z" fill="#475DB4"/>
<path d="M39.0905 261.875C39.0418 261.875 38.9924 261.863 38.9465 261.838C38.799 261.759 38.7439 261.574 38.8236 261.427L46.9957 246.286C47.0751 246.138 47.2589 246.082 47.407 246.163C47.5545 246.242 47.6096 246.427 47.5299 246.574L39.3578 261.715C39.3031 261.817 39.1986 261.875 39.0905 261.875Z" fill="#475DB4"/>
<path d="M84.6591 264.633C84.643 264.633 84.6268 264.632 84.6104 264.629C84.4448 264.602 84.3322 264.447 84.3589 264.281L86.8097 249.039C86.8363 248.874 86.9932 248.761 87.1576 248.788C87.3232 248.815 87.4359 248.97 87.4091 249.136L84.9583 264.378C84.9345 264.527 84.8054 264.633 84.6591 264.633Z" fill="#475DB4"/>
<path d="M68.8324 256.388C68.7796 256.388 68.7262 256.375 68.6777 256.345C68.5334 256.26 68.4861 256.074 68.5716 255.929L76.2922 242.937L72.1658 239.209C72.0989 239.148 72.0624 239.061 72.0661 238.971C72.0697 238.881 72.1133 238.797 72.1847 238.742L77.5848 234.604C76.8943 233.573 74.1498 229.492 73.4828 228.769C73.3691 228.646 73.3768 228.454 73.5001 228.34C73.6236 228.227 73.8159 228.234 73.9291 228.357C74.7221 229.217 78.1045 234.288 78.248 234.504C78.3367 234.637 78.3071 234.816 78.1802 234.913L72.8436 239.003L76.8839 242.653C76.9911 242.75 77.0153 242.909 76.9414 243.033L69.094 256.24C69.037 256.335 68.9361 256.388 68.8324 256.388Z" fill="#475DB4"/>
<path d="M56.7448 254.505C56.6094 254.505 56.486 254.414 56.4508 254.276L52.6379 239.395C52.6021 239.255 52.6699 239.11 52.8001 239.047L57.7046 236.681L53.7346 231.255C53.6402 231.125 53.6621 230.945 53.7845 230.843C53.9831 230.676 58.6562 226.762 59.6591 226.16C59.8032 226.074 59.9892 226.121 60.0755 226.264C60.1618 226.408 60.1151 226.595 59.9713 226.681C59.1278 227.187 55.3455 230.331 54.3926 231.126L58.4099 236.617C58.4631 236.69 58.4812 236.782 58.4594 236.869C58.4375 236.957 58.3779 237.03 58.2968 237.069L53.2878 239.485L57.0391 254.126C57.0807 254.288 56.9828 254.454 56.8203 254.495C56.795 254.502 56.7698 254.505 56.7448 254.505Z" fill="#475DB4"/>
<path d="M72.7024 228.061L64.8787 301.32L54.21 299.613L60.7534 225.501C66.3075 225.711 71.9508 225.884 72.7024 228.061Z" fill="#475DB4"/>
<path d="M72.5047 227.723C70.7761 231.822 65.1418 232.259 62.8011 228.477L60.8481 225.321L65.7741 210.424L75.3129 212.14L72.5047 227.723Z" fill="white"/>
<path d="M73.0911 203.31C73.5084 203.331 77.5005 203.59 79.4787 206.637C80.9508 208.905 80.7829 211.513 79.8403 215.844C78.7303 220.944 77.0736 224.505 75.4058 225.228C71.322 226.997 66.6495 221.267 64.6728 216.38C63.2459 212.852 64.0801 208.702 66.5683 205.787C69.0496 202.88 72.8248 203.296 73.0911 203.31Z" fill="white"/>
<path d="M60.8269 206.312C60.8269 205.074 61.6151 204.022 62.7162 203.624C62.7111 203.567 62.7075 203.509 62.7075 203.451C62.7075 202.465 63.436 201.651 64.3839 201.513C64.4201 200.04 65.6226 198.857 67.1038 198.857C67.5443 198.857 67.9589 198.964 68.3272 199.15C68.696 198.525 69.3741 198.105 70.152 198.105C70.9711 198.105 71.6803 198.57 72.0333 199.25C72.4079 198.916 72.9005 198.711 73.4418 198.711C73.9447 198.711 74.406 198.887 74.7695 199.18C75.1254 199.002 75.5254 198.899 75.9503 198.899C77.2348 198.899 78.305 199.814 78.547 201.027C78.6981 201 78.8528 200.984 79.0115 200.984C80.4743 200.984 81.66 202.169 81.66 203.632C81.66 203.958 81.5983 204.269 81.4903 204.558C82.1257 204.949 82.5508 205.649 82.5508 206.45C82.5508 207.678 81.5555 208.673 80.3279 208.673C80.2986 208.673 80.2702 208.67 80.2413 208.669C80.0261 209.462 79.764 210.026 79.7116 210.198C79.5606 209.983 77.6064 208.167 75.6156 207.239C75.2641 208.003 74.4934 208.535 73.5968 208.535C72.8107 208.535 72.1214 208.126 71.7262 207.51C70.9398 208.354 70.4672 209.748 69.8841 211.181C69.4074 210.916 68.3694 210.439 67.1815 210.689C65.3442 211.076 64.4517 214.729 63.578 217.132C62.5951 213.571 62.105 210.864 62.1078 208.696C61.3361 208.184 60.8269 207.308 60.8269 206.312Z" fill="#373E44"/>
<path d="M72.9135 225.761C72.8924 225.761 72.8712 225.759 72.8498 225.754C70.4768 225.247 67.8262 222.824 65.7593 219.273C65.6749 219.128 65.724 218.942 65.8691 218.857C66.0137 218.773 66.1997 218.822 66.2841 218.967C68.2664 222.373 70.7682 224.689 72.9767 225.161C73.1406 225.196 73.2452 225.357 73.2101 225.521C73.1797 225.663 73.0536 225.761 72.9135 225.761Z" fill="#363E44"/>
<path d="M72.0613 212.429C72.0613 212.429 72.3091 214.01 73.3369 215.359C73.5529 215.643 75.4295 213.354 75.092 213.18C73.6141 212.419 72.0613 212.429 72.0613 212.429Z" fill="white"/>
<path d="M78.1048 217.565C78.1048 217.565 77.7422 215.251 76.0731 213.832C75.7635 213.569 75.4305 213.355 75.0938 213.181C74.1969 213.539 73.508 214.341 73.333 215.353C73.5501 215.638 73.8012 215.914 74.0929 216.162C75.7617 217.581 78.1048 217.565 78.1048 217.565Z" fill="#363E44"/>
<path d="M79.1182 217.399C79.0661 217.648 79.0259 218.019 79.143 218.427C79.2841 218.919 79.5495 219.101 79.4996 219.391C79.466 219.586 79.2882 219.845 78.5989 220.08L79.1182 217.399Z" fill="white"/>
<path d="M78.5987 220.384C78.4722 220.384 78.3543 220.304 78.3111 220.178C78.2572 220.02 78.342 219.847 78.5008 219.793C79.1131 219.584 79.1911 219.394 79.2002 219.34C79.2091 219.288 79.1792 219.227 79.098 219.08C79.0196 218.938 78.9223 218.761 78.8507 218.511C78.745 218.143 78.7349 217.748 78.8207 217.338C78.8549 217.174 79.0159 217.068 79.18 217.103C79.3441 217.137 79.4493 217.298 79.4151 217.462C79.3498 217.774 79.3563 218.071 79.4346 218.344C79.4873 218.528 79.5598 218.659 79.6298 218.787C79.7355 218.978 79.8447 219.176 79.7985 219.443C79.7306 219.836 79.3702 220.138 78.6964 220.368C78.6642 220.379 78.6312 220.384 78.5987 220.384Z" fill="#363E44"/>
<path d="M68.3071 215.197C69.774 214.749 70.5335 212.979 70.0034 211.243C69.4733 209.508 67.8545 208.464 66.3875 208.912C64.9206 209.36 64.1611 211.13 64.6912 212.866C65.2213 214.601 66.8402 215.645 68.3071 215.197Z" fill="white"/>
<path d="M66.1214 213.084C66.0104 213.084 65.9036 213.023 65.8502 212.917C65.792 212.801 65.7432 212.68 65.7051 212.555C65.5539 212.06 65.5758 211.542 65.7669 211.097C65.9656 210.634 66.3214 210.304 66.769 210.167C66.9964 210.097 67.233 210.082 67.4718 210.123C67.6372 210.151 67.7486 210.308 67.7206 210.473C67.6929 210.638 67.5376 210.748 67.3708 210.722C67.2253 210.697 67.0828 210.706 66.9463 210.748C66.6726 210.831 66.4521 211.04 66.325 211.336C66.1905 211.65 66.1766 212.02 66.286 212.378C66.3139 212.47 66.3497 212.559 66.3923 212.643C66.4678 212.793 66.4077 212.976 66.258 213.051C66.2141 213.073 66.1674 213.084 66.1214 213.084Z" fill="#363E44"/>
<path d="M75.9182 221.734C75.4885 221.734 75.0765 221.541 74.8228 221.193C74.3778 220.584 74.6789 219.875 74.692 219.845C74.7589 219.691 74.9376 219.62 75.0915 219.687C75.2453 219.755 75.3155 219.934 75.2486 220.087C75.2473 220.09 75.0752 220.51 75.3131 220.835C75.5052 221.098 75.8706 221.198 76.2011 221.077C76.3593 221.021 76.5329 221.102 76.59 221.259C76.6472 221.417 76.5657 221.591 76.4081 221.648C76.2473 221.706 76.0815 221.734 75.9182 221.734Z" fill="#363E44"/>
<path d="M121.909 349.87L123.188 363.034L147.018 360.719L145.739 347.554L121.909 349.87Z" fill="#EFBC73"/>
<path d="M102.534 362.341L105.637 369.619L130.474 359.028C132.484 358.171 133.418 355.847 132.561 353.838C131.705 351.828 129.381 350.894 127.371 351.751L102.534 362.341Z" fill="#FFD092"/>
<path d="M129.253 356.759C130.08 356.563 130.592 355.735 130.397 354.907C130.201 354.08 129.373 353.568 128.546 353.763C127.718 353.959 127.206 354.788 127.401 355.615C127.597 356.442 128.426 356.954 129.253 356.759Z" fill="#F7F1EB"/>
<path d="M67.4626 377.179L77.7359 346.772L109.361 371.34L111.088 377.179H67.4626Z" fill="#E0AA63"/>
<path d="M92.0003 280.572C86.8331 285.118 84.5408 289.739 83.4393 292.803C78.521 306.482 84.1526 330.538 99.3381 336.524C103.211 349.977 107.084 363.43 110.957 376.883C104.166 373.973 81.4151 363.213 70.292 343.177C64.7886 333.263 57.8587 312.313 66.6231 290.357C71.7201 277.587 80.9194 270.009 85.8852 266.508C87.9237 271.196 89.962 275.884 92.0003 280.572Z" fill="#EFBC73"/>
<path d="M115.254 338.56C115.297 338.685 115.342 338.808 115.382 338.934C117.897 347 113.397 355.579 105.331 358.094C97.2646 360.61 88.6863 356.11 86.1707 348.044C86.1313 347.917 86.0986 347.79 86.0627 347.664L115.254 338.56Z" fill="#FFD092"/>
<path d="M106.904 339.616L107.376 341.107L157.542 325.244L157.071 323.753L106.904 339.616Z" fill="#EFBC73"/>
<path d="M106.44 334.417L107.976 339.276L156.093 324.061L154.557 319.202L106.44 334.417Z" fill="#FFD092"/>
<path d="M108.893 377.187C108.853 377.187 108.812 377.179 108.773 377.162C100.084 373.439 78.7132 362.689 67.9629 343.324C65.9176 339.64 62.2596 331.883 60.7431 321.326C59.185 310.481 60.3741 300.023 64.2777 290.244C69.0196 278.365 77.428 270.644 83.647 266.26C83.7217 266.208 83.8162 266.192 83.9039 266.216C83.9917 266.24 84.064 266.303 84.1002 266.387L90.2153 280.452C90.268 280.573 90.2364 280.714 90.1374 280.801C86.1353 284.321 83.2835 288.394 81.6616 292.905C79.2432 299.632 79.4019 309.039 82.0758 317.457C85.0614 326.856 90.4988 333.527 97.3862 336.242C97.4739 336.277 97.5405 336.35 97.5666 336.441L109.185 376.8C109.217 376.912 109.182 377.034 109.094 377.111C109.038 377.161 108.966 377.187 108.893 377.187ZM83.6926 266.972C77.5735 271.345 69.4515 278.92 64.8417 290.469C54.6793 315.928 66.1012 338.719 68.4941 343.029C78.9182 361.807 99.45 372.431 108.424 376.349L97.0244 336.751C90.03 333.934 84.5192 327.153 81.4972 317.64C78.785 309.102 78.629 299.546 81.0904 292.7C82.725 288.153 85.5776 284.047 89.5708 280.491L83.6926 266.972Z" fill="#363E44"/>
<path d="M93.2546 264.362L98.1755 279.924L111.641 275.666L106.72 260.104L93.2546 264.362Z" fill="#E0AA63"/>
<path d="M82.0022 262.21L90.3689 288.669L101.793 285.057L93.4259 258.597L82.0022 262.21Z" fill="#FFD092"/>
<path d="M102.608 276.818C105.48 273.946 105.48 269.288 102.608 266.416C99.7352 263.544 95.0781 263.544 92.2056 266.416C89.3332 269.288 89.3332 273.946 92.2056 276.818C95.0781 279.69 99.7352 279.69 102.608 276.818Z" fill="#EFBC73"/>
<path d="M97.5618 275.263C99.5734 275.185 101.141 273.491 101.063 271.48C100.986 269.468 99.292 267.901 97.2804 267.978C95.2689 268.056 93.7012 269.75 93.7789 271.761C93.8566 273.773 95.5503 275.341 97.5618 275.263Z" fill="#F7F1EB"/>
<path d="M93.4242 228.697L96.5886 238.705L108.322 234.995L105.157 224.987L93.4242 228.697Z" fill="#EFBC73"/>
<path d="M95.8683 238.293L96.8516 241.403L109.711 237.337L108.728 234.227L95.8683 238.293Z" fill="white"/>
<path d="M95.7462 240.542L115.547 303.162L129.867 298.634L110.067 236.014L95.7462 240.542Z" fill="#FFD092"/>
<path d="M113.484 303.475C113.355 303.475 113.235 303.393 113.194 303.263L93.3961 240.645C93.3455 240.485 93.4341 240.314 93.5941 240.264L107.914 235.736C107.991 235.712 108.074 235.719 108.146 235.756C108.217 235.793 108.271 235.857 108.295 235.934L128.093 298.553C128.118 298.629 128.111 298.713 128.073 298.784C128.036 298.856 127.972 298.909 127.895 298.934L113.575 303.461C113.545 303.471 113.514 303.475 113.484 303.475ZM94.0666 240.751L113.682 302.791L127.423 298.446L107.808 236.406L94.0666 240.751Z" fill="#363E44"/>
<path d="M95.8835 252.113L97.5249 257.304L118.512 250.668L116.871 245.477L95.8835 252.113Z" fill="white"/>
<path d="M112.204 252.976C112.075 252.976 111.956 252.893 111.915 252.764L110.274 247.573C110.223 247.413 110.312 247.243 110.472 247.192C110.631 247.141 110.802 247.23 110.853 247.39L112.494 252.581C112.544 252.741 112.456 252.911 112.296 252.962C112.265 252.971 112.234 252.976 112.204 252.976Z" fill="#363E44"/>
<path d="M103.894 255.603C103.765 255.603 103.646 255.521 103.605 255.391L101.963 250.201C101.913 250.041 102.002 249.87 102.161 249.82C102.321 249.769 102.492 249.858 102.542 250.017L104.184 255.208C104.234 255.368 104.146 255.539 103.986 255.589C103.955 255.599 103.924 255.603 103.894 255.603Z" fill="#363E44"/>
<path d="M90.22 227.627L90.8188 229.521L107.582 224.221L106.983 222.327L90.22 227.627Z" fill="white"/>
<path d="M125.951 297.065L133.173 311.458L136.592 309.742L129.37 295.35L125.951 297.065Z" fill="#E0AA63"/>
<path d="M131.409 309.798L132.612 312.195L137.519 309.732L136.317 307.335L131.409 309.798Z" fill="#EFBC73"/>
<path d="M119.699 299.099L124.554 314.453L128.202 313.3L123.347 297.946L119.699 299.099Z" fill="#E0AA63"/>
<path d="M123.131 312.482L123.959 315.1L129.062 313.486L128.234 310.869L123.131 312.482Z" fill="#EFBC73"/>
<path d="M113.675 300.303L115.232 316.33L119.039 315.96L117.482 299.933L113.675 300.303Z" fill="#E0AA63"/>
<path d="M114.324 313.918L114.601 316.764L119.742 316.265L119.466 313.418L114.324 313.918Z" fill="#EFBC73"/>
<path d="M109.314 308.684L109.411 308.992L138.988 299.64C137.899 296.197 135.176 293.515 131.716 292.48L127.522 291.224L113.201 295.752L110.842 299.052C108.845 301.844 108.28 305.412 109.314 308.684Z" fill="#EFBC73"/>
<path d="M147.25 388.126H66.9937V376.926H147.406L147.25 388.126Z" fill="#EFBC73"/>
<path d="M51.0219 271.335C54.3561 272.404 56.9286 273.223 57.4962 273.425C60.3113 274.428 77.8314 280.604 77.1022 283.013C76.6739 284.428 71.46 282.547 70.4778 282.186C71.1274 282.869 75.5883 286.579 75.0055 287.682C74.0032 289.579 68.8119 285.276 68.7311 285.277C69.4611 285.903 73.6447 288.777 73.2623 289.631C72.4441 291.458 68.0059 288.815 66.9884 288.356C67.0325 288.543 70.7141 290.657 70.213 291.892C69.8153 292.871 64.1537 291.142 62.8185 290.786C60.3165 289.896 53.5364 288.347 48.6555 287.15C46.8702 286.713 45.1959 286.2 43.6409 285.647L51.0219 271.335Z" fill="white"/>
<path d="M70.5496 282.399C70.4813 282.399 70.4128 282.376 70.3561 282.329C69.8845 281.939 69.3825 281.578 68.8637 281.257C67.9319 280.681 66.9246 280.219 65.8697 279.884C65.7099 279.833 65.6215 279.663 65.6723 279.503C65.7232 279.343 65.894 279.254 66.0536 279.305C67.1559 279.656 68.2088 280.139 69.1829 280.741C69.7253 281.076 70.2502 281.453 70.7432 281.861C70.8723 281.968 70.8905 282.159 70.7835 282.289C70.7236 282.361 70.6369 282.399 70.5496 282.399Z" fill="#363E44"/>
<path d="M68.8127 285.529C68.7553 285.529 68.6972 285.512 68.6456 285.478C68.5386 285.408 68.4284 285.337 68.3155 285.267C67.3825 284.691 66.3752 284.229 65.3216 283.894C65.1618 283.844 65.0734 283.673 65.1242 283.513C65.1751 283.353 65.3459 283.264 65.5055 283.316C66.6064 283.665 67.6592 284.148 68.6348 284.751C68.753 284.824 68.8681 284.898 68.9802 284.971C69.1201 285.064 69.1585 285.252 69.0663 285.392C69.008 285.481 68.9113 285.529 68.8127 285.529Z" fill="#363E44"/>
<path d="M66.931 288.605C66.8851 288.605 66.8382 288.595 66.7943 288.573C66.1542 288.249 65.4812 287.974 64.7941 287.756C64.6342 287.705 64.5459 287.534 64.5966 287.375C64.6475 287.215 64.8192 287.126 64.9779 287.177C65.6959 287.405 66.3993 287.692 67.0683 288.03C67.218 288.106 67.2779 288.289 67.2024 288.439C67.1487 288.544 67.0419 288.605 66.931 288.605Z" fill="#363E44"/>
<path d="M199.769 202.807H199.506C196.959 202.807 194.895 200.743 194.895 198.196V153.847H204.38V198.196C204.38 200.743 202.316 202.807 199.769 202.807Z" fill="#E6D0BE"/>
<path d="M201.327 203.111H201.063C198.353 203.111 196.149 200.906 196.149 198.196V153.847C196.149 153.68 196.285 153.544 196.453 153.544H205.937C206.105 153.544 206.241 153.68 206.241 153.847V198.196C206.241 200.906 204.036 203.111 201.327 203.111ZM196.756 154.151V198.196C196.756 200.571 198.688 202.503 201.063 202.503H201.327C203.702 202.503 205.634 200.572 205.634 198.196V154.151H196.756Z" fill="white"/>
<path d="M201.284 200.819H201.106C199.39 200.819 198 199.429 198 197.713V167.834H204.39V197.713C204.39 199.428 202.999 200.819 201.284 200.819Z" fill="#EFBC73"/>
<path d="M202.264 199.471C202.192 199.471 202.121 199.447 202.064 199.396C201.937 199.285 201.925 199.093 202.036 198.967C202.467 198.477 202.745 197.858 202.84 197.179C202.863 197.013 203.016 196.895 203.182 196.921C203.348 196.944 203.464 197.097 203.441 197.263C203.33 198.06 203.001 198.788 202.492 199.368C202.432 199.436 202.348 199.471 202.264 199.471Z" fill="white"/>
<path d="M203.179 196.394C203.011 196.394 202.875 196.258 202.875 196.09V191.214C202.875 191.046 203.011 190.911 203.179 190.911C203.346 190.911 203.482 191.046 203.482 191.214V196.09C203.482 196.258 203.346 196.394 203.179 196.394Z" fill="white"/>
<path d="M203.179 188.282C203.011 188.282 202.875 188.146 202.875 187.978V181.968C202.875 181.8 203.011 181.664 203.179 181.664C203.346 181.664 203.482 181.8 203.482 181.968V187.978C203.482 188.146 203.346 188.282 203.179 188.282Z" fill="white"/>
<path d="M207.967 150H194.31V157.015H207.967V150Z" fill="#373E44"/>
<path d="M195.943 155.889H195.919C195.685 155.889 195.496 155.7 195.496 155.467V151.719C195.496 151.485 195.685 151.296 195.919 151.296H195.943C196.176 151.296 196.366 151.485 196.366 151.719V155.467C196.366 155.7 196.176 155.889 195.943 155.889Z" fill="#EFBC73"/>
<path d="M198.538 155.889H198.514C198.281 155.889 198.092 155.7 198.092 155.467V151.719C198.092 151.485 198.281 151.296 198.514 151.296H198.538C198.772 151.296 198.961 151.485 198.961 151.719V155.467C198.961 155.7 198.772 155.889 198.538 155.889Z" fill="#EFBC73"/>
<path d="M201.134 155.889H201.11C200.876 155.889 200.687 155.7 200.687 155.467V151.719C200.687 151.485 200.876 151.296 201.11 151.296H201.134C201.367 151.296 201.557 151.485 201.557 151.719V155.467C201.557 155.7 201.368 155.889 201.134 155.889Z" fill="#EFBC73"/>
<path d="M203.729 155.889H203.705C203.472 155.889 203.282 155.7 203.282 155.467V151.719C203.282 151.485 203.472 151.296 203.705 151.296H203.729C203.963 151.296 204.152 151.485 204.152 151.719V155.467C204.152 155.7 203.963 155.889 203.729 155.889Z" fill="#EFBC73"/>
<path d="M206.325 155.889H206.301C206.068 155.889 205.878 155.7 205.878 155.467V151.719C205.878 151.485 206.068 151.296 206.301 151.296H206.325C206.559 151.296 206.748 151.485 206.748 151.719V155.467C206.748 155.7 206.559 155.889 206.325 155.889Z" fill="#EFBC73"/>
<path d="M217.073 202.807H216.81C214.263 202.807 212.199 200.743 212.199 198.196V153.847H221.684V198.196C221.684 200.743 219.62 202.807 217.073 202.807Z" fill="#E6D0BE"/>
<path d="M218.631 203.111H218.367C215.657 203.111 213.453 200.906 213.453 198.196V153.847C213.453 153.68 213.589 153.544 213.757 153.544H223.241C223.409 153.544 223.545 153.68 223.545 153.847V198.196C223.545 200.906 221.341 203.111 218.631 203.111ZM214.06 154.151V198.196C214.06 200.571 215.992 202.503 218.367 202.503H218.631C221.006 202.503 222.938 200.572 222.938 198.196V154.151H214.06Z" fill="white"/>
<path d="M218.588 200.819H218.41C216.695 200.819 215.304 199.428 215.304 197.713V171.704H221.694V197.713C221.694 199.428 220.303 200.819 218.588 200.819Z" fill="#EFBC73"/>
<path d="M219.567 199.471C219.496 199.471 219.425 199.447 219.367 199.396C219.241 199.285 219.229 199.094 219.339 198.967C219.77 198.477 220.048 197.858 220.143 197.179C220.167 197.013 220.319 196.895 220.486 196.921C220.652 196.944 220.768 197.097 220.745 197.263C220.633 198.06 220.305 198.788 219.796 199.368C219.736 199.436 219.652 199.471 219.567 199.471Z" fill="white"/>
<path d="M220.483 196.394C220.315 196.394 220.179 196.258 220.179 196.09V191.214C220.179 191.046 220.315 190.911 220.483 190.911C220.65 190.911 220.786 191.046 220.786 191.214V196.09C220.786 196.258 220.65 196.394 220.483 196.394Z" fill="white"/>
<path d="M220.483 188.282C220.315 188.282 220.179 188.146 220.179 187.978V181.968C220.179 181.8 220.315 181.664 220.483 181.664C220.65 181.664 220.786 181.8 220.786 181.968V187.978C220.786 188.146 220.65 188.282 220.483 188.282Z" fill="white"/>
<path d="M225.271 150H211.614V157.015H225.271V150Z" fill="#373E44"/>
<path d="M213.247 155.889H213.223C212.989 155.889 212.8 155.7 212.8 155.467V151.719C212.8 151.485 212.989 151.296 213.223 151.296H213.247C213.48 151.296 213.669 151.485 213.669 151.719V155.467C213.669 155.7 213.48 155.889 213.247 155.889Z" fill="#EFBC73"/>
<path d="M215.842 155.889H215.818C215.585 155.889 215.396 155.7 215.396 155.467V151.719C215.396 151.485 215.585 151.296 215.818 151.296H215.842C216.076 151.296 216.265 151.485 216.265 151.719V155.467C216.265 155.7 216.076 155.889 215.842 155.889Z" fill="#EFBC73"/>
<path d="M218.438 155.889H218.414C218.181 155.889 217.991 155.7 217.991 155.467V151.719C217.991 151.485 218.181 151.296 218.414 151.296H218.438C218.672 151.296 218.861 151.485 218.861 151.719V155.467C218.861 155.7 218.672 155.889 218.438 155.889Z" fill="#EFBC73"/>
<path d="M221.034 155.889H221.009C220.776 155.889 220.587 155.7 220.587 155.467V151.719C220.587 151.485 220.776 151.296 221.009 151.296H221.034C221.267 151.296 221.456 151.485 221.456 151.719V155.467C221.456 155.7 221.267 155.889 221.034 155.889Z" fill="#EFBC73"/>
<path d="M223.629 155.889H223.605C223.372 155.889 223.182 155.7 223.182 155.467V151.719C223.182 151.485 223.372 151.296 223.605 151.296H223.629C223.863 151.296 224.052 151.485 224.052 151.719V155.467C224.052 155.7 223.863 155.889 223.629 155.889Z" fill="#EFBC73"/>
<path d="M234.377 202.807H234.114C231.567 202.807 229.503 200.743 229.503 198.196V153.847H238.988V198.196C238.988 200.743 236.924 202.807 234.377 202.807Z" fill="#E6D0BE"/>
<path d="M235.935 203.111H235.671C232.961 203.111 230.757 200.906 230.757 198.196V153.847C230.757 153.68 230.893 153.544 231.06 153.544H240.545C240.713 153.544 240.849 153.68 240.849 153.847V198.196C240.849 200.906 238.644 203.111 235.935 203.111ZM231.364 154.151V198.196C231.364 200.571 233.296 202.503 235.671 202.503H235.935C238.309 202.503 240.242 200.572 240.242 198.196V154.151H231.364Z" fill="white"/>
<path d="M235.892 200.819H235.714C233.999 200.819 232.608 199.428 232.608 197.713V163.963H238.998V197.713C238.998 199.428 237.607 200.819 235.892 200.819Z" fill="#EFBC73"/>
<path d="M236.871 199.471C236.8 199.471 236.729 199.447 236.671 199.396C236.545 199.285 236.533 199.093 236.643 198.967C237.074 198.476 237.352 197.858 237.447 197.179C237.471 197.013 237.623 196.895 237.79 196.921C237.956 196.944 238.072 197.097 238.049 197.263C237.937 198.06 237.609 198.788 237.1 199.368C237.039 199.436 236.956 199.471 236.871 199.471Z" fill="white"/>
<path d="M237.786 196.394C237.619 196.394 237.483 196.258 237.483 196.09V191.214C237.483 191.046 237.619 190.911 237.786 190.911C237.954 190.911 238.09 191.046 238.09 191.214V196.09C238.09 196.258 237.954 196.394 237.786 196.394Z" fill="white"/>
<path d="M237.786 188.282C237.619 188.282 237.483 188.146 237.483 187.978V181.968C237.483 181.8 237.619 181.664 237.786 181.664C237.954 181.664 238.09 181.8 238.09 181.968V187.978C238.09 188.146 237.954 188.282 237.786 188.282Z" fill="white"/>
<path d="M242.575 150H228.918V157.015H242.575V150Z" fill="#373E44"/>
<path d="M230.55 155.889H230.526C230.293 155.889 230.104 155.7 230.104 155.467V151.719C230.104 151.485 230.293 151.296 230.526 151.296H230.55C230.784 151.296 230.973 151.485 230.973 151.719V155.467C230.973 155.7 230.784 155.889 230.55 155.889Z" fill="#EFBC73"/>
<path d="M233.146 155.889H233.122C232.889 155.889 232.699 155.7 232.699 155.467V151.719C232.699 151.485 232.889 151.296 233.122 151.296H233.146C233.38 151.296 233.569 151.485 233.569 151.719V155.467C233.569 155.7 233.38 155.889 233.146 155.889Z" fill="#EFBC73"/>
<path d="M235.742 155.889H235.718C235.484 155.889 235.295 155.7 235.295 155.467V151.719C235.295 151.485 235.484 151.296 235.718 151.296H235.742C235.975 151.296 236.165 151.485 236.165 151.719V155.467C236.164 155.7 235.975 155.889 235.742 155.889Z" fill="#EFBC73"/>
<path d="M238.337 155.889H238.313C238.08 155.889 237.89 155.7 237.89 155.467V151.719C237.89 151.485 238.08 151.296 238.313 151.296H238.337C238.571 151.296 238.76 151.485 238.76 151.719V155.467C238.76 155.7 238.571 155.889 238.337 155.889Z" fill="#EFBC73"/>
<path d="M240.933 155.889H240.909C240.675 155.889 240.486 155.7 240.486 155.467V151.719C240.486 151.485 240.675 151.296 240.909 151.296H240.933C241.166 151.296 241.356 151.485 241.356 151.719V155.467C241.356 155.7 241.166 155.889 240.933 155.889Z" fill="#EFBC73"/>
<path d="M243.951 206.659H193.304C193.136 206.659 193 206.523 193 206.355V177.695C193 177.527 193.136 177.391 193.304 177.391H243.951C244.119 177.391 244.255 177.527 244.255 177.695V206.355C244.255 206.523 244.119 206.659 243.951 206.659ZM193.607 206.052H243.648V177.999H193.607V206.052Z" fill="white"/>
<path d="M159.331 199.168H96.2878C96.1201 199.168 95.9841 199.032 95.9841 198.864V151.327C95.9841 151.159 96.1201 151.023 96.2878 151.023C96.4554 151.023 96.5914 151.159 96.5914 151.327V198.561H159.331C159.499 198.561 159.635 198.697 159.635 198.865C159.635 199.032 159.499 199.168 159.331 199.168Z" fill="white"/>
<path d="M142.768 167.101C142.665 167.101 142.564 167.048 142.507 166.953C142.421 166.809 142.468 166.623 142.612 166.536L151.216 161.394C151.36 161.308 151.546 161.355 151.633 161.499C151.719 161.643 151.672 161.829 151.528 161.916L142.923 167.058C142.875 167.087 142.821 167.101 142.768 167.101Z" fill="white"/>
<path d="M137.32 165.726C137.221 165.726 137.124 165.678 137.066 165.589L125.408 147.842C125.316 147.702 125.355 147.513 125.495 147.421C125.636 147.329 125.824 147.368 125.916 147.508L137.574 165.256C137.666 165.396 137.627 165.584 137.486 165.676C137.435 165.71 137.377 165.726 137.32 165.726Z" fill="white"/>
<path d="M111.528 154.206C111.437 154.206 111.347 154.165 111.287 154.088C111.185 153.955 111.209 153.764 111.342 153.662L120.399 146.665C120.531 146.563 120.722 146.587 120.825 146.72C120.927 146.853 120.903 147.043 120.77 147.146L111.713 154.142C111.658 154.185 111.593 154.206 111.528 154.206Z" fill="white"/>
<path d="M108.59 160.278C106.364 160.278 104.552 158.467 104.552 156.24C104.552 154.013 106.364 152.202 108.59 152.202C110.817 152.202 112.629 154.013 112.629 156.24C112.629 158.467 110.817 160.278 108.59 160.278ZM108.59 152.809C106.699 152.809 105.16 154.348 105.16 156.24C105.16 158.132 106.699 159.671 108.59 159.671C110.482 159.671 112.021 158.132 112.021 156.24C112.021 154.348 110.482 152.809 108.59 152.809Z" fill="white"/>
<path d="M123.647 148.66C121.42 148.66 119.609 146.848 119.609 144.621C119.609 142.395 121.42 140.583 123.647 140.583C125.874 140.583 127.685 142.395 127.685 144.621C127.685 146.848 125.874 148.66 123.647 148.66ZM123.647 141.191C121.755 141.191 120.216 142.73 120.216 144.621C120.216 146.513 121.755 148.052 123.647 148.052C125.539 148.052 127.078 146.513 127.078 144.621C127.078 142.73 125.539 141.191 123.647 141.191Z" fill="white"/>
<path d="M139.478 172.622C137.252 172.622 135.44 170.81 135.44 168.584C135.44 166.357 137.252 164.546 139.478 164.546C141.705 164.546 143.517 166.357 143.517 168.584C143.517 170.81 141.705 172.622 139.478 172.622ZM139.478 165.153C137.587 165.153 136.047 166.692 136.047 168.584C136.047 170.475 137.587 172.015 139.478 172.015C141.37 172.015 142.909 170.475 142.909 168.584C142.909 166.692 141.37 165.153 139.478 165.153Z" fill="white"/>
<path d="M154.655 163.912C152.428 163.912 150.617 162.1 150.617 159.874C150.617 157.647 152.428 155.836 154.655 155.836C156.881 155.836 158.693 157.647 158.693 159.874C158.693 162.1 156.881 163.912 154.655 163.912ZM154.655 156.443C152.763 156.443 151.224 157.982 151.224 159.874C151.224 161.766 152.763 163.305 154.655 163.305C156.547 163.305 158.086 161.766 158.086 159.874C158.086 157.982 156.547 156.443 154.655 156.443Z" fill="white"/>
<path d="M113.465 165.908H104.177V191.374H113.465V165.908Z" fill="white"/>
<path d="M128.792 160.834H119.505V191.374H128.792V160.834Z" fill="white"/>
<path d="M144.119 174.916H134.832V191.374H144.119V174.916Z" fill="white"/>
<path d="M159.447 170.19H150.159V191.373H159.447V170.19Z" fill="white"/>
</svg>
