<svg width="94" height="120" viewBox="0 0 94 120" fill="none" xmlns="http://www.w3.org/2000/svg">
<g clip-path="url(#clip0_177_5636)">
<rect width="94" height="120" fill="#F2CD36"/>
<g clip-path="url(#clip1_177_5636)">
<path d="M46.4361 109.503C72.4951 109.503 93.6202 88.3777 93.6202 62.3187C93.6202 36.2596 72.4951 15.1346 46.4361 15.1346C20.377 15.1346 -0.748047 36.2596 -0.748047 62.3187C-0.748047 88.3777 20.377 109.503 46.4361 109.503Z" fill="#A64928"/>
<path d="M44.4359 77.3662C44.3857 77.3662 44.3397 77.3326 44.3262 77.2817L43.6089 74.5956C43.5927 74.5349 43.6286 74.4726 43.6894 74.4564C43.7494 74.4404 43.8123 74.4762 43.8285 74.537L44.5165 77.1132L49.9142 75.6717C49.9741 75.6558 50.0372 75.6915 50.0533 75.7522C50.0695 75.8129 50.0335 75.8752 49.9728 75.8914L44.4654 77.3623C44.4555 77.3649 44.4456 77.3662 44.4359 77.3662Z" fill="#F8E69E"/>
<path d="M40.6724 63.2751C40.6223 63.2751 40.5763 63.2415 40.5628 63.1906L29.727 22.6177C29.7108 22.5571 29.7468 22.4947 29.8075 22.4785L49.8374 17.1292C49.8973 17.1132 49.9602 17.149 49.9765 17.2098L52.2443 25.7012C52.2605 25.7618 52.2246 25.8242 52.1638 25.8404C52.1041 25.8564 52.0409 25.8206 52.0247 25.7598L49.7861 17.3782L29.976 22.6689L40.7823 63.132C40.7985 63.1926 40.7626 63.2549 40.7018 63.2711C40.6921 63.2738 40.6822 63.2751 40.6724 63.2751Z" fill="#F8E69E"/>
<path d="M48.0421 20.8438L33.21 24.8048L35.8996 34.8763L50.7317 30.9153L48.0421 20.8438Z" fill="#C35D2D"/>
<path d="M51.0894 32.2566L36.2573 36.2176L38.9469 46.289L53.779 42.328L51.0894 32.2566Z" fill="#2F52B6"/>
<path d="M54.1373 43.6686L39.3052 47.6296L41.9948 57.701L56.8269 53.74L54.1373 43.6686Z" fill="white"/>
<path d="M51.0255 73.4467C51.0217 73.4467 51.0177 73.4466 51.0138 73.4461L44.9463 72.8215C44.9163 72.8185 44.8888 72.8036 44.8698 72.7802C44.8507 72.7568 44.8418 72.7268 44.8448 72.6968L45.2803 68.4665C45.2869 68.4041 45.342 68.3585 45.4051 68.3651C45.4675 68.3715 45.513 68.4274 45.5066 68.4898L45.0827 72.607L51.0371 73.2199C51.0995 73.2263 51.145 73.2822 51.1386 73.3446C51.1324 73.4032 51.0831 73.4467 51.0255 73.4467Z" fill="#F8E69E"/>
<path d="M65.581 74.9451C65.5771 74.9451 65.5732 74.945 65.5692 74.9445L64.5704 74.8417C64.508 74.8353 64.4624 74.7794 64.4689 74.717C64.4754 74.6545 64.5301 74.6091 64.5937 74.6155L65.4794 74.7067L65.7051 72.514C65.7115 72.4515 65.7675 72.4061 65.8299 72.4125C65.8923 72.419 65.9378 72.4748 65.9314 72.5373L65.694 74.8431C65.6879 74.9016 65.6386 74.9451 65.581 74.9451Z" fill="#F8E69E"/>
<path d="M46.0836 61.8876C46.0797 61.8876 46.0758 61.8874 46.0718 61.887C46.0094 61.8805 45.9639 61.8247 45.9703 61.7622L50.6382 16.4147C50.6447 16.3522 50.7005 16.3067 50.763 16.3133L71.3859 18.436C71.4483 18.4425 71.4938 18.4983 71.4873 18.5608L70.5818 27.3587C70.5753 27.4211 70.5214 27.4675 70.457 27.4601C70.3946 27.4537 70.349 27.3978 70.3555 27.3354L71.2495 18.6505L50.8528 16.5511L46.1966 61.7855C46.1905 61.8441 46.1412 61.8876 46.0836 61.8876Z" fill="#F8E69E"/>
<path d="M68.3865 21.2691L53.1152 19.697L52.0477 30.0666L67.319 31.6387L68.3865 21.2691Z" fill="#DA6623"/>
<path d="M67.177 33.0197L51.9058 31.4476L50.8383 41.8171L66.1095 43.3892L67.177 33.0197Z" fill="#DA6623"/>
<path d="M65.9675 44.7694L50.6963 43.1973L49.6288 53.5669L64.9 55.139L65.9675 44.7694Z" fill="#DA6623"/>
<path d="M76.0785 20.2336L43.7051 66.6366L60.7081 78.4987L93.0813 32.0958L76.0785 20.2336Z" fill="white"/>
<path d="M86.4045 41.7794C86.3821 41.7794 86.3594 41.7728 86.3395 41.7589C86.288 41.723 86.2755 41.6522 86.3113 41.6006L92.9228 32.1238L76.1066 20.3918L73.2074 24.5473C73.1716 24.5987 73.1007 24.6115 73.0491 24.5755C72.9976 24.5395 72.9851 24.4687 73.0209 24.4172L75.9851 20.1685C76.0209 20.1171 76.0917 20.1043 76.1434 20.1403L93.1461 32.0024C93.1977 32.0384 93.2102 32.1092 93.1743 32.1607L86.4978 41.7308C86.4758 41.7624 86.4405 41.7794 86.4045 41.7794Z" fill="#F8E69E"/>
<path d="M89.1478 33.0285L76.5571 24.2437L70.592 32.7931L83.1827 41.5779L89.1478 33.0285Z" fill="#EEC107"/>
<path d="M82.389 42.7163L69.7983 33.9315L63.8333 42.4809L76.424 51.2657L82.389 42.7163Z" fill="#F2CD36"/>
<path d="M75.6298 52.4041L63.0391 43.6193L57.074 52.1687L69.6647 60.9535L75.6298 52.4041Z" fill="#FFD092"/>
<path d="M25.4581 22.3188L28.1012 27.9248L25.2861 29.2527L22.643 23.6468L21.2473 24.3051L20.7334 30.4829L25.8259 34.0161L26.68 33.6132L33.2128 47.4692L33.2133 47.469L38.2658 58.53C38.7611 59.6119 40.0395 60.0872 41.1213 59.5917C42.203 59.0962 42.6785 57.8175 42.1832 56.7357L37.1106 45.6305L37.1109 45.6304L37.0983 45.6038L37.0972 45.6011L30.5781 31.7744L31.4323 31.3715L31.9462 25.1937L26.8538 21.6604L25.4581 22.3188Z" fill="#F8E69E"/>
<path d="M37.433 22.0993L36.3604 22.3359L42.292 49.2266L43.3647 48.99L37.433 22.0993Z" fill="#363E44"/>
<path d="M40.7554 33.9353L38.3262 34.4712L38.862 36.9004L41.2913 36.3646L40.7554 33.9353Z" fill="#363E44"/>
<path d="M36.6248 18.408L35.5433 18.6466L35.4321 20.7132L36.4024 22.5412L37.4838 22.3027L37.5951 20.2361L36.6248 18.408Z" fill="#363E44"/>
<path d="M41.4782 35.6027L38.374 36.2874L39.2245 47.5221L43.1791 58.0721L46.2832 57.3874L45.4328 46.1527L41.4782 35.6027Z" fill="#F2CD36"/>
<path d="M44.4902 56.7406C44.438 56.7406 44.391 56.7044 44.3792 56.6514L41.4353 43.3236C41.4218 43.2622 41.4605 43.2016 41.5218 43.188C41.5836 43.1742 41.6438 43.2132 41.6574 43.2745L44.6013 56.6023C44.6149 56.6637 44.5761 56.7243 44.5148 56.7379C44.5065 56.7398 44.4983 56.7406 44.4902 56.7406Z" fill="#363E44"/>
<path d="M41.3861 42.6858C41.3339 42.6858 41.2869 42.6497 41.2751 42.5967L40.0569 37.0812C40.0433 37.0198 40.0821 36.9592 40.1434 36.9456C40.2052 36.9318 40.2653 36.9708 40.279 37.0321L41.4972 42.5475C41.5107 42.6089 41.472 42.6695 41.4107 42.6831C41.4024 42.685 41.3941 42.6858 41.3861 42.6858Z" fill="#363E44"/>
<path d="M71.3749 60.4858H18.8403V97.8131H71.3749V60.4858Z" fill="#E6D0BE"/>
<path d="M71.1692 53.5709H18.3208V65.8366H71.1692V53.5709Z" fill="#F7F1EB"/>
<path d="M70.9611 66.0285H70.961L18.6234 65.978C18.5605 65.978 18.5097 65.927 18.5098 65.8642C18.5099 65.8015 18.5607 65.7506 18.6235 65.7506H18.6236L70.9612 65.8011C71.0241 65.8011 71.0749 65.8521 71.0748 65.9149C71.0747 65.9777 71.0238 66.0285 70.9611 66.0285Z" fill="#D3BBA3"/>
<path d="M70.7156 64.1097H70.7155L18.3778 64.0593C18.3149 64.0592 18.2641 64.0082 18.2642 63.9455C18.2643 63.8827 18.3151 63.8318 18.3779 63.8318H18.378L70.7157 63.8823C70.7786 63.8824 70.8294 63.9333 70.8293 63.9961C70.8292 64.0589 70.7784 64.1097 70.7156 64.1097Z" fill="#D3BBA3"/>
<path d="M70.5925 61.7878H70.5924L18.2547 61.7374C18.1919 61.7373 18.141 61.6864 18.1411 61.6236C18.1412 61.5608 18.1921 61.5099 18.2548 61.5099H18.2549L70.5926 61.5604C70.6554 61.5605 70.7063 61.6114 70.7062 61.6742C70.7061 61.737 70.6552 61.7878 70.5925 61.7878Z" fill="#D3BBA3"/>
<path d="M70.9611 59.4659H70.961L18.6234 59.4155C18.5605 59.4154 18.5097 59.3645 18.5098 59.3017C18.5099 59.2389 18.5607 59.188 18.6235 59.188H18.6236L70.9612 59.2385C71.0241 59.2386 71.0749 59.2895 71.0748 59.3523C71.0747 59.4151 71.0238 59.4659 70.9611 59.4659Z" fill="#D3BBA3"/>
<path d="M71.2067 57.5479H71.2066L18.869 57.4974C18.8061 57.4974 18.7553 57.4464 18.7554 57.3836C18.7555 57.3209 18.8063 57.27 18.8691 57.27H18.8692L71.2068 57.3205C71.2697 57.3206 71.3205 57.3715 71.3204 57.4343C71.3203 57.4971 71.2694 57.5479 71.2067 57.5479Z" fill="#D3BBA3"/>
<path d="M20.6631 50.773H16.5386V101.758H20.6631V50.773Z" fill="#D3BBA3"/>
<path d="M21.1113 101.871H16.7593V50.6592H21.1113V101.871ZM16.9867 101.644H20.8839V50.8866H16.9867V101.644Z" fill="#363E44"/>
<path d="M74.1705 50.7723H70.0459V101.757H74.1705V50.7723Z" fill="#D3BBA3"/>
<path d="M74.6175 101.996H70.2656V50.7833H74.6175V101.996ZM70.493 101.768H74.3901V51.0106H70.493V101.768Z" fill="#363E44"/>
<path d="M75.9092 49.7061H14.3779V55.5219H75.9092V49.7061Z" fill="#D3BBA3"/>
<path d="M76.5233 55.766H14.7646V49.9256H76.5233V55.766ZM14.992 55.5386H76.2959V50.153H14.992V55.5386Z" fill="#363E44"/>
<path d="M59.2597 81.0133H57.6943C57.5541 80.2499 57.3542 79.5076 57.1001 78.7908L58.4549 78.0083L55.8061 73.4185L54.4482 74.2028C53.9499 73.6192 53.4065 73.0756 52.8233 72.5771L53.6072 71.2187L49.0192 68.5688L48.2371 69.9241C47.5206 69.6698 46.7786 69.4699 46.0155 69.3296V67.7635H40.7179V69.3296C39.9548 69.4698 39.2128 69.6698 38.4963 69.9241L37.7142 68.5688L33.1262 71.2187L33.9101 72.5771C33.3268 73.0756 32.7834 73.6192 32.2851 74.2028L30.9273 73.4185L28.2784 78.0083L29.6332 78.7908C29.3791 79.5076 29.1792 80.25 29.039 81.0133H27.4736V86.3132H29.039C29.1792 87.0766 29.3791 87.8189 29.6332 88.5357L28.2784 89.3182L30.9272 93.908L32.2851 93.1238C32.7834 93.7073 33.3268 94.251 33.9101 94.7494L33.1262 96.1078L37.7141 98.7577L38.4963 97.4024C39.2127 97.6567 39.9548 97.8567 40.7178 97.9969V99.563H46.0155V97.9969C46.7785 97.8567 47.5206 97.6567 48.2371 97.4024L49.0192 98.7577L53.6071 96.1078L52.8232 94.7494C53.4065 94.2509 53.9499 93.7073 54.4482 93.1238L55.806 93.908L58.4548 89.3182L57.1001 88.5357C57.3542 87.8189 57.5541 87.0766 57.6943 86.3132H59.2596L59.2597 81.0133ZM52.0295 83.947C51.8846 88.4871 48.1885 92.1848 43.6503 92.3298C38.6391 92.4899 34.5437 88.3929 34.7037 83.3795C34.8485 78.8394 38.5447 75.1417 43.0828 74.9967C48.0941 74.8367 52.1895 78.9337 52.0295 83.947Z" fill="white"/>
<path d="M43.3665 95.37C36.9138 95.37 31.6641 90.1182 31.6641 83.6628C31.6641 80.8422 32.6809 78.1175 34.5271 75.9904C36.355 73.8846 38.8719 72.4979 41.6142 72.086C41.676 72.0764 41.7342 72.1195 41.7435 72.1815C41.7528 72.2436 41.71 72.3015 41.6479 72.3108C36.0858 73.1465 31.8914 78.0268 31.8914 83.6629C31.8914 89.9928 37.0391 95.1427 43.3664 95.1427C48.5946 95.1427 53.1622 91.6116 54.4741 86.5557C54.4898 86.4948 54.552 86.4584 54.6127 86.4742C54.6735 86.49 54.7099 86.552 54.6941 86.6128C53.3563 91.7689 48.6982 95.37 43.3665 95.37Z" fill="#F2E6DC"/>
<path d="M21.5845 95.2934L23.1266 101.794L28.088 101.792L26.8875 95.2914L21.5845 95.2934Z" fill="white"/>
<path d="M23.126 101.575L23.6745 108.923L37.3922 108.918C35.5351 106.074 32.5148 102.79 28.0717 101.573L23.126 101.575Z" fill="#4446A0"/>
<path d="M6.33789 96.0688L7.70695 102.247H12.0342V95.6742L6.33789 96.0688Z" fill="white"/>
<path d="M7.65101 101.993C7.65101 102.262 5.91211 109.052 5.91211 109.052H15.8682L11.9517 101.993H7.65101Z" fill="#4446A0"/>
<path d="M11.0172 62.4827C11.0172 62.4827 9.66225 71.2425 20.429 97.4939H27.4511C27.4511 97.4939 21.8965 65.4411 21.303 61.398L11.0172 62.4827Z" fill="#4446A0"/>
<path d="M5.05225 63.7647C5.05225 63.7647 2.32996 77.5743 5.98939 97.4939H12.5169C12.5169 97.4939 13.6877 68.5967 15.369 64.2577L5.05225 63.7647Z" fill="#4446A0"/>
<path d="M12.9341 88.4505C12.9313 88.4505 12.9285 88.4504 12.9258 88.4502C12.8632 88.4457 12.8161 88.3912 12.8206 88.3286L14.1237 70.3638L16.3432 69.6014C16.4032 69.5809 16.4673 69.6126 16.4876 69.672C16.508 69.7314 16.4765 69.7961 16.4171 69.8164L14.3395 70.53L13.0473 88.345C13.043 88.4049 12.9932 88.4505 12.9341 88.4505Z" fill="#363E44"/>
<path d="M7.62305 43.4209C7.62305 43.4209 12.0951 41.5346 18.9855 43.4633L19.731 65.4334L9.82048 65.5369L7.62305 43.4209Z" fill="#1F44DC"/>
<path d="M10.2806 42.7726C10.3505 42.7672 10.2616 64.0414 10.2616 64.0414L5.0368 63.8806L3.63525 44.1293C3.63525 44.1293 6.13622 43.094 10.2806 42.7726Z" fill="#1F44DC"/>
<path d="M6.94616 56.3855L3.42968 57.6286C2.10708 58.0962 0.653139 57.4224 0.154895 56.1111C-0.75831 53.7077 -0.754753 51.0449 0.201718 48.6585C0.920515 46.8649 2.68659 44.5028 3.68107 44.1061L6.94616 56.3855Z" fill="#1F44DC"/>
<path d="M4.79646 51.4033C4.79146 51.4033 4.78635 51.4029 4.78124 51.4023C4.71905 51.394 4.67533 51.3368 4.68363 51.2745L5.02485 48.7245C5.03315 48.6623 5.08993 48.6184 5.15263 48.6269C5.21482 48.6352 5.25855 48.6924 5.25025 48.7547L4.90903 51.3047C4.9014 51.3618 4.85251 51.4033 4.79646 51.4033Z" fill="#363E44"/>
<path d="M16.1611 42.846L19.6258 63.9008L21.6956 63.8807L22.8177 44.3308C22.8177 44.3308 19.5671 43.1578 16.1611 42.846Z" fill="#1F44DC"/>
<path d="M22.8177 44.3301L21.6226 52.046L26.265 54.6356C28.0666 55.6406 30.3426 54.9314 31.2546 53.081L31.856 50.5983L22.8177 44.3301Z" fill="#1F44DC"/>
<path d="M27.1179 48.7105C28.2611 46.8396 29.3641 44.543 30.0158 43.4714C31.3593 41.262 33.6646 38.1957 34.0893 38.5238C34.3313 38.7106 34.1034 39.1938 33.4083 40.4448C33.5067 40.4167 33.8257 40.4052 34.0218 40.6154C34.3119 40.9263 34.125 41.2296 34.1212 41.264C34.1538 41.2518 34.5325 41.1323 34.7619 41.3076C35.0203 41.505 35.0489 41.7795 34.9867 42.027C35.0686 41.9991 35.4349 41.9385 35.6467 42.1178C35.9221 42.351 35.8543 42.7447 35.6958 42.9969C35.405 43.4596 34.5788 44.7042 34.2259 45.4182C33.7869 46.3064 32.3423 49.6743 31.0848 52.2014C30.1474 54.0853 25.4195 51.4903 27.1179 48.7105Z" fill="white"/>
<path d="M32.4555 44.9841C32.4476 44.9841 32.4397 44.9833 32.4317 44.9816C32.3703 44.9686 32.3311 44.9082 32.3441 44.8468C32.4569 44.3168 32.3424 43.8873 32.2505 43.5421C32.152 43.1721 32.0668 42.8526 32.3631 42.6385C32.5232 42.523 32.6601 42.2984 32.7592 41.989C32.7827 41.9156 32.734 41.8701 32.7185 41.858C32.7026 41.8456 32.6456 41.8082 32.5782 41.8494L31.1442 42.7262C31.0905 42.759 31.0205 42.7422 30.9879 42.6885C30.9552 42.635 30.972 42.565 31.0256 42.5323L32.4596 41.6554C32.5858 41.5782 32.7425 41.5876 32.859 41.6791C32.9746 41.7699 33.0205 41.9189 32.9757 42.0584C32.86 42.4195 32.6987 42.6766 32.4964 42.8228C32.3341 42.94 32.3734 43.12 32.4702 43.4835C32.5632 43.8327 32.6906 44.3108 32.5666 44.894C32.5551 44.9476 32.5079 44.9841 32.4555 44.9841Z" fill="#363E44"/>
<path d="M34.9226 43.732C34.9021 43.732 34.8812 43.7265 34.8626 43.7148C34.5514 43.5204 34.3889 43.1702 34.4181 42.8233C34.2128 43.0385 33.8854 43.0881 33.6242 42.9388C33.4705 42.8509 33.3613 42.7081 33.3169 42.5367C33.2725 42.3653 33.2986 42.1874 33.3903 42.036L33.4396 41.9547C33.2984 41.9802 33.1469 41.9503 33.023 41.8597C32.7997 41.6964 32.7347 41.392 32.8721 41.1518L33.1774 40.6173C33.2085 40.5628 33.2779 40.5438 33.3325 40.575C33.387 40.6062 33.406 40.6757 33.3748 40.7302L33.0695 41.2646C32.9896 41.4043 33.0274 41.5812 33.1572 41.6762C33.295 41.777 33.4913 41.7486 33.5949 41.6127L33.8522 41.2751C33.8887 41.2271 33.9565 41.2159 34.0065 41.25C34.0565 41.284 34.0711 41.3512 34.0398 41.4029L33.5848 42.1539C33.5251 42.2524 33.5081 42.3682 33.537 42.4797C33.5659 42.5913 33.637 42.6842 33.737 42.7414C33.9148 42.843 34.1395 42.803 34.2713 42.6465L34.6963 42.1421C34.7339 42.0977 34.7988 42.0887 34.8469 42.1211C34.8951 42.1537 34.9109 42.2174 34.8837 42.2687L34.7262 42.5651C34.5481 42.9005 34.6609 43.3207 34.9829 43.5219C35.0362 43.5552 35.0524 43.6253 35.0192 43.6786C34.9976 43.7131 34.9606 43.732 34.9226 43.732Z" fill="#363E44"/>
<path d="M8.41766 65.8125H19.8228V51.97H8.41766L8.41766 65.8125Z" fill="#4446A0"/>
<path d="M19.8227 51.97C19.8227 51.74 20.0526 43.3701 20.0526 43.3701L17.2933 42.9218L17.1094 52.3378L19.8227 51.97Z" fill="#4446A0"/>
<path d="M8.41775 51.9702L7.521 42.945L10.2453 42.6882L10.9931 52.2921L8.41775 51.9702Z" fill="#4446A0"/>
<path d="M12.3086 53.8035C12.2959 53.8035 12.283 53.8013 12.2704 53.7968C12.2113 53.7758 12.1804 53.7107 12.2014 53.6516L15.1681 45.3224H21.6928C21.7557 45.3224 21.8065 45.3733 21.8065 45.4362C21.8065 45.499 21.7557 45.5499 21.6928 45.5499H15.3284L12.4157 53.7279C12.399 53.7744 12.3553 53.8035 12.3086 53.8035Z" fill="#363E44"/>
<path d="M19.0633 54.0875H12.6187L15.5584 45.8339H22.003L19.0633 54.0875Z" fill="#363E44"/>
<path d="M2.64103 52.5395C4.68702 51.7046 9.40785 49.4998 9.87727 49.3029C10.7547 48.9349 15.5151 47.0821 15.8569 47.7401C16.0202 48.0544 15.1193 48.4528 14.8108 48.5787C15.1101 48.5999 16.2681 48.5569 16.3536 48.9447C16.4539 49.4004 15.0819 49.6629 15.063 49.6804C15.3691 49.6712 16.5869 49.5848 16.6622 49.8732C16.7603 50.2482 15.6515 50.6683 15.3138 50.7787C15.3642 50.8132 16.5081 50.5629 16.644 51.0052C16.7438 51.3298 15.7259 51.7136 15.2849 51.8814C14.5055 52.2091 5.64751 56.5093 3.89917 57.0983C3.21477 57.3288 2.07364 53.585 2.64103 52.5395Z" fill="white"/>
<path d="M2.61377 52.6139C2.56947 52.6139 2.52729 52.5877 2.50893 52.5443C2.48459 52.4864 2.51171 52.4197 2.56967 52.3954C3.22587 52.119 5.90928 50.9535 6.93155 50.4951C6.98894 50.4695 7.05614 50.4951 7.08176 50.5524C7.10755 50.6097 7.08187 50.677 7.02458 50.7026C6.00122 51.1615 3.31487 52.3283 2.6578 52.605C2.64352 52.611 2.62851 52.6139 2.61377 52.6139Z" fill="#363E44"/>
<path d="M13.1925 49.0518C13.1494 49.0518 13.1083 49.0273 13.0891 48.9857C13.0628 48.9286 13.0877 48.8611 13.1447 48.8348C13.4804 48.6802 13.833 48.5675 14.1929 48.4998C14.3933 48.4622 14.5985 48.4381 14.8027 48.4283C14.8653 48.4267 14.9187 48.4737 14.9217 48.5365C14.9247 48.5992 14.8763 48.6525 14.8135 48.6555C14.6197 48.6647 14.425 48.6875 14.2349 48.7233C13.8933 48.7875 13.5586 48.8945 13.24 49.0414C13.2246 49.0484 13.2084 49.0518 13.1925 49.0518Z" fill="#363E44"/>
<path d="M13.9239 50.1128C13.8809 50.1128 13.8398 50.0883 13.8205 50.0467C13.7942 49.9897 13.8192 49.9222 13.8762 49.8959C14.2116 49.7413 14.5642 49.6286 14.9243 49.5609C14.968 49.5527 15.0109 49.5453 15.0533 49.5386C15.1153 49.5286 15.1735 49.5712 15.1833 49.6333C15.193 49.6954 15.1507 49.7535 15.0886 49.7633C15.0485 49.7696 15.0077 49.7766 14.9663 49.7844C14.6245 49.8486 14.2898 49.9556 13.9714 50.1024C13.956 50.1095 13.9398 50.1128 13.9239 50.1128Z" fill="#363E44"/>
<path d="M14.6285 51.1348C14.5855 51.1348 14.5444 51.1103 14.5251 51.0687C14.4988 51.0117 14.5238 50.9441 14.5808 50.9179C14.7997 50.8169 15.0276 50.7332 15.2583 50.6691C15.318 50.6524 15.3813 50.6876 15.3983 50.7482C15.415 50.8087 15.3796 50.8714 15.3191 50.8882C15.1003 50.9491 14.8839 51.0285 14.676 51.1244C14.6606 51.1315 14.6444 51.1348 14.6285 51.1348Z" fill="#363E44"/>
<path d="M17.8071 60.5465L10.5776 60.4356V54.7646C10.5776 54.7018 10.6285 54.6509 10.6913 54.6509C10.7542 54.6509 10.805 54.7018 10.805 54.7646V60.2117L17.578 60.3155L17.5469 56.078C17.5464 56.0152 17.597 55.9639 17.6597 55.9634C17.6601 55.9634 17.6604 55.9634 17.6606 55.9634C17.723 55.9634 17.7739 56.0138 17.7743 56.0763L17.8071 60.5465Z" fill="#363E44"/>
<path d="M5.21722 64.095C5.15472 64.095 5.10388 64.0445 5.10352 63.9819C5.10321 63.9191 5.1538 63.8679 5.21655 63.8676L19.6249 63.7872C19.6251 63.7872 19.6254 63.7872 19.6256 63.7872C19.6881 63.7872 19.7389 63.8377 19.7393 63.9003C19.7396 63.9631 19.689 64.0142 19.6263 64.0146L5.21789 64.095C5.21764 64.095 5.21743 64.095 5.21722 64.095Z" fill="#363E44"/>
<path d="M15.0878 43.0987H11.7598L13.1883 37.4311C13.1847 36.7827 13.3061 37.229 13.9545 37.2254C14.6029 37.2218 16.2676 37.5539 16.2712 38.2023L15.0878 43.0987Z" fill="white"/>
<path d="M16.8449 41.6872C16.0622 42.17 14.1825 40.3548 14.1825 40.3548L12.9976 37.9818C13.0815 36.6907 14.1961 35.7122 15.4872 35.7961C16.7782 35.8801 17.7567 36.9948 17.6728 38.2857C17.6728 38.2857 17.6422 41.1955 16.8449 41.6872Z" fill="white"/>
<path d="M17.3641 38.8826C17.3641 38.8826 17.9751 39.6121 17.9284 39.7912C17.8728 40.005 17.1338 40.0896 17.1338 40.0896C17.1338 40.0896 17.3815 38.8854 17.3641 38.8826Z" fill="white"/>
<path d="M15.4355 38.2034C15.4355 38.2034 15.8141 38.1129 16.2135 38.2186C16.2985 38.2411 15.9582 38.8788 15.8877 38.8189C15.5778 38.5557 15.4355 38.2034 15.4355 38.2034Z" fill="#1F44DC"/>
<mask id="mask0_177_5636" style="mask-type:luminance" maskUnits="userSpaceOnUse" x="15" y="38" width="3" height="2">
<path d="M15.4355 38.2034C15.4355 38.2034 15.9923 38.0703 16.4679 38.3155C16.9435 38.5607 17.1578 39.0915 17.1578 39.0915C17.1578 39.0915 16.6011 39.2246 16.1255 38.9794C15.6499 38.7342 15.4355 38.2034 15.4355 38.2034Z" fill="white"/>
</mask>
<g mask="url(#mask0_177_5636)">
<path d="M16.2348 38.2057C16.5689 38.0114 16.9972 38.1247 17.1915 38.4588C17.3858 38.793 17.2724 39.2213 16.9384 39.4156C16.6043 39.6099 16.176 39.4965 15.9817 39.1624C15.7874 38.8283 15.9007 38.4 16.2348 38.2057Z" fill="#363E44"/>
</g>
<path d="M12.8429 35.4006C12.8429 35.4006 11.5674 37.7985 13.1409 38.8795L13.6284 38.5604L14.6014 39.1283L14.346 37.8409C14.3002 37.3505 14.7144 36.9407 15.2043 36.9919L17.3427 37.2152L17.3948 36.065C16.0432 35.0669 14.5495 34.735 12.8429 35.4006Z" fill="#363E44"/>
<path d="M15.2494 35.2844C15.0053 35.3195 14.7789 35.15 14.7438 34.9059C14.7087 34.6618 14.8598 34.3077 15.104 34.2726C15.3481 34.2375 15.5928 34.5347 15.6279 34.7789C15.6629 35.023 15.4935 35.2493 15.2494 35.2844Z" fill="#363E44"/>
<path d="M15.5721 35.4397C15.3417 35.3517 15.2262 35.0936 15.3142 34.8632C15.4021 34.6328 15.7062 34.3967 15.9366 34.4847C16.167 34.5726 16.2365 34.9513 16.1486 35.1817C16.0606 35.4122 15.8025 35.5277 15.5721 35.4397Z" fill="#363E44"/>
<path d="M16.2615 35.779C15.9748 35.6072 15.8816 35.2354 16.0535 34.9487C16.2253 34.662 16.687 34.4188 16.9737 34.5906C17.2604 34.7624 17.2636 35.2842 17.0918 35.571C16.9199 35.8577 16.5481 35.9508 16.2615 35.779Z" fill="#363E44"/>
<path d="M14.5408 35.2719C14.2979 35.3148 14.0662 35.1528 14.0233 34.9099C13.9804 34.6671 14.12 34.3082 14.3629 34.2653C14.6057 34.2223 14.8599 34.5115 14.9028 34.7544C14.9457 34.9972 14.7836 35.2289 14.5408 35.2719Z" fill="#363E44"/>
<path d="M16.8057 35.9406C16.7083 35.6594 16.8572 35.3526 17.1384 35.2551C17.4195 35.1577 17.8735 35.2556 17.9709 35.5368C18.0683 35.8179 17.7723 36.1758 17.4912 36.2732C17.21 36.3706 16.9031 36.2217 16.8057 35.9406Z" fill="#363E44"/>
<path d="M12.5437 37.9612C12.3428 38.3596 12.503 38.8455 12.9014 39.0464C13.2999 39.2473 13.7858 39.0871 13.9867 38.6887C14.1876 38.2902 14.0274 37.8044 13.629 37.6034C13.2305 37.4025 12.7446 37.5627 12.5437 37.9612Z" fill="white"/>
<path d="M17.5259 40.017L17.1495 41.9476C17.0971 42.2165 16.8314 42.3868 16.5651 42.323C16.4981 42.307 16.4258 42.2889 16.3492 42.2685C15.0231 41.9165 13.9724 40.9045 13.5726 39.5921C13.4386 39.1524 13.59 38.6757 13.9531 38.3939L14.0727 38.301L14.4383 38.5403C14.4383 38.5403 14.6424 39.6243 15.0349 39.7348C15.4274 39.8454 16.1915 39.5826 17.5259 40.017Z" fill="#363E44"/>
<path d="M16.5507 40.5717C16.4572 40.5717 16.3643 40.5423 16.2868 40.4844C16.1529 40.3847 16.0862 40.2136 16.1167 40.0485C16.1281 39.9867 16.1875 39.9459 16.2492 39.9574C16.311 39.9688 16.3518 40.0282 16.3403 40.0899C16.3254 40.1704 16.3578 40.2537 16.4227 40.3021C16.4901 40.3524 16.5818 40.3584 16.6562 40.3171C16.711 40.2865 16.7804 40.3064 16.8108 40.3614C16.8412 40.4163 16.8213 40.4855 16.7664 40.5159C16.699 40.5532 16.6247 40.5717 16.5507 40.5717Z" fill="white"/>
<path d="M14.6219 37.1219C14.5939 37.1219 14.5659 37.1117 14.544 37.0909L13.6808 36.2784C13.635 36.2354 13.6329 36.1634 13.6759 36.1177C13.7191 36.0719 13.7909 36.0698 13.8367 36.1129L14.6999 36.9253C14.7456 36.9684 14.7477 37.0403 14.7048 37.0861C14.6823 37.1099 14.6521 37.1219 14.6219 37.1219Z" fill="#84524D"/>
<path d="M18.3599 37.0468C18.3428 35.377 17.1376 33.9244 15.5972 33.85C13.9377 33.7697 12.4509 35.2009 12.2763 37.0467C12.2622 37.1951 12.258 37.3415 12.2613 37.4856L18.3599 37.0468Z" fill="#4446A0"/>
<path d="M15.5376 37.1806L20.2232 37.8405L20.3845 37.515L17.9254 36.8728C16.9525 36.9262 16.1162 37.0175 15.5376 37.1806Z" fill="#4446A0"/>
<path d="M46.3162 99.7275H39.3682V108.658H46.3162V99.7275Z" fill="#363E44"/>
<path d="M89.3841 99.7274H82.436V108.658H89.3841V99.7274Z" fill="#363E44"/>
<path d="M89.7224 100.996H38.9805V86.723L43.3781 82.844H85.3248L89.7224 86.723V100.996Z" fill="#A74929"/>
<path d="M85.3246 82.8441H43.3779L51.1379 68.9868H77.5646L85.3246 82.8441Z" fill="#F2CD36"/>
<path d="M75.9004 70.4504H52.8026L46.4097 81.8666H82.2933L75.9004 70.4504Z" fill="#363E44"/>
<path d="M85.495 83.1473C85.4555 83.1473 85.417 83.1266 85.3961 83.0898L77.4323 69.0799H51.2042L43.4439 82.8934C43.413 82.9482 43.3438 82.9676 43.289 82.9368C43.2342 82.9061 43.2148 82.8368 43.2455 82.7821L51.0712 68.8525H77.5646L77.5973 68.91L85.5937 82.9775C85.6248 83.032 85.6057 83.1014 85.551 83.1325C85.5333 83.1426 85.5141 83.1473 85.495 83.1473Z" fill="#363E44"/>
<path d="M45.897 81.8659H36.8467V78.6486L42.405 77.4849V81.0234H46.285L45.897 81.8659Z" fill="#A74929"/>
<path d="M83.0184 81.8659H92.0687V78.6486L86.5103 77.4849V81.0234H82.6304L83.0184 81.8659Z" fill="#A74929"/>
<path d="M41.8145 90.9671L50.2771 94.7909C50.3468 94.8224 50.4258 94.7714 50.4258 94.695V91.0667C50.4258 90.725 50.2019 90.4237 49.8747 90.3251L42.7147 88.1683C42.2662 88.0332 41.8145 88.3689 41.8145 88.8373V90.9671Z" fill="#F2CD36"/>
<path d="M86.977 90.8393L78.3657 94.7304V91.1021C78.3657 90.6635 78.6531 90.2767 79.0731 90.1502L86.0768 88.0405C86.5253 87.9054 86.9771 88.2411 86.9771 88.7095L86.977 90.8393Z" fill="#F2CD36"/>
<path d="M54.6219 76.9501C54.6001 76.9501 54.5781 76.9439 54.5587 76.9309C54.5065 76.8959 54.4927 76.8253 54.5275 76.7731L57.3475 72.566C57.3826 72.5137 57.4531 72.4998 57.5053 72.5348C57.5575 72.5698 57.5714 72.6404 57.5365 72.6925L54.7166 76.8997C54.6945 76.9325 54.6585 76.9501 54.6219 76.9501Z" fill="white"/>
<path d="M58.6502 76.189C58.6284 76.189 58.6066 76.1828 58.5871 76.1699C58.535 76.135 58.5209 76.0643 58.5558 76.0121L61.7254 71.2706C61.7602 71.2184 61.8309 71.2045 61.883 71.2393C61.9352 71.2742 61.9493 71.3448 61.9143 71.397L58.7448 76.1385C58.723 76.1713 58.687 76.189 58.6502 76.189Z" fill="white"/>
<path d="M67.595 78.8729C67.5733 78.8729 67.5514 78.8667 67.532 78.8538C67.4798 78.8189 67.4657 78.7482 67.5007 78.6961L70.6702 73.9546C70.7051 73.9024 70.7757 73.8885 70.8278 73.9232C70.88 73.9581 70.8941 74.0288 70.8591 74.081L67.6896 78.8225C67.6677 78.8552 67.6318 78.8729 67.595 78.8729Z" fill="white"/>
<path d="M59.9754 81.2767C59.9552 81.2767 59.9348 81.2713 59.9163 81.2601C59.8627 81.2274 59.8457 81.1574 59.8785 81.1038L61.6151 78.258C61.6478 78.2044 61.7179 78.1876 61.7713 78.2202C61.8249 78.2529 61.8419 78.3228 61.8092 78.3765L60.0725 81.2223C60.0511 81.2573 60.0137 81.2767 59.9754 81.2767Z" fill="white"/>
<path d="M62.098 77.7991C62.0778 77.7991 62.0574 77.7937 62.0389 77.7824C61.9853 77.7497 61.9683 77.6798 62.0011 77.6261L63.7458 74.767C63.7785 74.7134 63.8487 74.6966 63.902 74.7292C63.9557 74.7619 63.9726 74.8319 63.9399 74.8855L62.1952 77.7447C62.1737 77.7797 62.1363 77.7991 62.098 77.7991Z" fill="white"/>
<path d="M50.7298 80.5892C50.7081 80.5892 50.6862 80.5829 50.6668 80.57C50.6146 80.5351 50.6004 80.4645 50.6355 80.4123L51.6925 78.8312C51.7273 78.7789 51.798 78.7651 51.8501 78.7998C51.9023 78.8347 51.9164 78.9054 51.8814 78.9575L50.8244 80.5387C50.8025 80.5715 50.7664 80.5892 50.7298 80.5892Z" fill="white"/>
<path d="M74.7748 75.4609C74.7545 75.4609 74.7341 75.4556 74.7157 75.4443C74.662 75.4116 74.6451 75.3416 74.6778 75.288L75.7526 73.5268C75.7853 73.4732 75.8555 73.4563 75.9088 73.489C75.9625 73.5217 75.9794 73.5916 75.9467 73.6453L74.8719 75.4065C74.8505 75.4415 74.8131 75.4609 74.7748 75.4609Z" fill="white"/>
<path d="M90.1927 98.7399H38.3115V102.446H90.1927V98.7399Z" fill="#F2CD36"/>
<path d="M74.3902 92.9255H55.2861V97.5259H74.3902V92.9255Z" fill="white"/>
<path d="M77.7339 91.7612C77.7316 91.7612 77.7293 91.7612 77.7269 91.761C77.6643 91.7573 77.6166 91.7033 77.6203 91.6407L77.7529 89.4527L87.5411 86.5548C87.6013 86.5371 87.6647 86.5714 87.6824 86.6316C87.7001 86.6918 87.6658 86.7551 87.6057 86.7729L77.9703 89.6255L77.8473 91.6544C77.8437 91.7148 77.7936 91.7612 77.7339 91.7612Z" fill="#363E44"/>
<path d="M51.4097 92.1445C51.3501 92.1445 51.3 92.0981 51.2963 92.0377L51.1733 90.0088L41.538 87.1563C41.4778 87.1384 41.4435 87.0752 41.4612 87.015C41.4791 86.9547 41.5422 86.9205 41.6026 86.9382L51.3907 89.836L51.5233 92.024C51.5271 92.0867 51.4793 92.1406 51.4167 92.1444C51.4144 92.1445 51.412 92.1445 51.4097 92.1445Z" fill="#363E44"/>
<path d="M91.704 60.2158H90.9598C90.8932 59.8531 90.7982 59.5003 90.6774 59.1598L91.3214 58.788L90.0622 56.607L89.4168 56.9797C89.1799 56.7024 88.9215 56.444 88.6443 56.2072L89.0169 55.5617L86.836 54.3026L86.4642 54.9465C86.1236 54.8258 85.7708 54.7307 85.4081 54.664V53.9199H82.8897V54.664C82.5269 54.7307 82.1742 54.8257 81.8336 54.9465L81.4618 54.3026L79.2808 55.5617L79.6535 56.2072C79.3762 56.4441 79.1178 56.7024 78.881 56.9797L78.2355 56.607L76.9763 58.788L77.6204 59.1598C77.4996 59.5003 77.4045 59.8531 77.3379 60.2158H76.5938V62.7342H77.3379C77.4045 63.0969 77.4995 63.4497 77.6204 63.7903L76.9763 64.1621L78.2355 66.3431L78.881 65.9704C79.1178 66.2477 79.3762 66.5061 79.6535 66.7429L79.2808 67.3884L81.4618 68.6476L81.8336 68.0036C82.1742 68.1244 82.5269 68.2194 82.8897 68.2861V69.0302H85.4081V68.2861C85.7708 68.2194 86.1236 68.1244 86.4642 68.0036L86.836 68.6476L89.0169 67.3884L88.6443 66.7429C88.9215 66.5061 89.1799 66.2477 89.4168 65.9704L90.0622 66.3431L91.3214 64.1621L90.6774 63.7903C90.7982 63.4497 90.8932 63.097 90.9598 62.7342H91.704V60.2158ZM87.7595 62.9809C87.3933 63.9495 86.6231 64.7196 85.6545 65.0858C82.3634 66.3299 79.2939 63.2603 80.5381 59.9692C80.9043 59.0006 81.6745 58.2304 82.6431 57.8643C85.9341 56.6202 89.0037 59.6898 87.7595 62.9809Z" fill="#E6D0BE"/>
<path d="M84.1485 67.0986C81.0482 67.0986 78.5259 64.5763 78.5259 61.4759C78.5259 58.7155 80.5812 56.3252 83.3067 55.9159C83.3691 55.9062 83.4266 55.9493 83.436 56.0114C83.4454 56.0735 83.4025 56.1313 83.3404 56.1407C80.7253 56.5335 78.7532 58.8271 78.7532 61.4759C78.7532 64.4509 81.1735 66.8713 84.1485 66.8713C86.6066 66.8713 88.7543 65.2117 89.3711 62.8356C89.3868 62.7748 89.4489 62.7384 89.5096 62.7541C89.5705 62.7699 89.6069 62.832 89.5911 62.8928C88.9485 65.3691 86.7103 67.0986 84.1485 67.0986Z" fill="#F2E6DC"/>
</g>
</g>
<defs>
<clipPath id="clip0_177_5636">
<rect width="94" height="120" fill="white"/>
</clipPath>
<clipPath id="clip1_177_5636">
<rect x="-0.37207" y="12.5" width="94.7442" height="97" rx="7.51938" fill="white"/>
</clipPath>
</defs>
</svg>
