<svg width="94" height="120" viewBox="0 0 94 120" fill="none" xmlns="http://www.w3.org/2000/svg">
<g clip-path="url(#clip0_177_5798)">
<rect width="94" height="120" fill="#F3BD40"/>
<g clip-path="url(#clip1_177_5798)">
<g clip-path="url(#clip2_177_5798)">
<path d="M47.188 107.372C73.2471 107.372 94.3721 86.2471 94.3721 60.188C94.3721 34.129 73.2471 13.0039 47.188 13.0039C21.129 13.0039 0.00390625 34.129 0.00390625 60.188C0.00390625 86.2471 21.129 107.372 47.188 107.372Z" fill="#7B2C12"/>
<path d="M80.9494 38.6484H45.4526V74.1451H80.9494V38.6484Z" fill="#EFA231"/>
<path d="M56.6868 59.7476C56.6868 59.7476 54.8701 49.8285 54.0572 46.5864C53.2035 43.1815 51.4474 38.2785 50.7647 38.5331C50.3758 38.678 50.4771 39.3962 50.8754 41.2978C50.7591 41.2218 50.35 41.0787 50.0113 41.2723C49.5102 41.5588 49.6305 42.0272 49.6215 42.0734C49.5842 42.0444 49.1412 41.7372 48.7733 41.8722C48.3589 42.0242 48.2113 42.3687 48.1925 42.7147C48.0976 42.6457 47.6469 42.4197 47.3001 42.5671C46.8493 42.7587 46.7789 43.2964 46.883 43.6872C47.0741 44.4042 47.6449 46.3502 47.8154 47.4179C48.1508 49.5189 48.3405 57.1401 49.628 60.0485C51.6346 58.1637 56.6868 59.7476 56.6868 59.7476Z" fill="white"/>
<path d="M50.3314 47.4712C50.3299 47.4712 50.3283 47.4711 50.3267 47.471C50.2983 47.4683 50.2774 47.4433 50.28 47.4149C50.3515 46.6334 50.6871 46.0992 50.9567 45.6701C51.2217 45.2484 51.3966 44.9698 51.1836 44.6863C50.9934 44.4334 50.8946 44.0555 50.8901 43.5634C50.8887 43.4054 50.9797 43.2721 51.1278 43.2154C51.275 43.1591 51.4374 43.1989 51.5413 43.3171L53.0482 45.0307C53.067 45.0521 53.0649 45.0847 53.0435 45.1035C53.0222 45.1222 52.9896 45.1202 52.9707 45.0988L51.4638 43.3851C51.3726 43.2814 51.2495 43.2792 51.1647 43.3117C51.0809 43.3437 50.9919 43.4264 50.9932 43.5623C50.9976 44.0254 51.0919 44.3927 51.266 44.6244C51.5217 44.9646 51.3109 45.3002 51.044 45.725C50.7802 46.1449 50.4519 46.6674 50.3827 47.4243C50.3803 47.4511 50.3578 47.4712 50.3314 47.4712Z" fill="#363E44"/>
<path d="M47.6355 44.8559C47.6127 44.8559 47.5918 44.8406 47.5857 44.8175C47.5784 44.7899 47.5949 44.7617 47.6224 44.7545C48.1729 44.6094 48.5209 44.0577 48.4148 43.4984L48.3298 43.0508C48.3249 43.0249 48.3403 42.9994 48.3656 42.9918C48.3908 42.984 48.4178 42.9968 48.428 43.0211L48.7763 43.846C48.9037 44.1477 49.2283 44.3152 49.5479 44.2442C49.7279 44.2043 49.8805 44.096 49.9775 43.9392C50.0746 43.7824 50.1035 43.5975 50.059 43.4185L49.7711 42.2617C49.7645 42.235 49.7798 42.2079 49.806 42.1999C49.8323 42.1918 49.8602 42.2058 49.8696 42.2315L50.0673 42.7727C50.1659 43.0425 50.4669 43.1865 50.7391 43.093C50.9952 43.0051 51.1441 42.7395 51.0854 42.4751L50.9043 41.6593C50.8981 41.6316 50.9157 41.604 50.9435 41.5978C50.9712 41.5919 50.9988 41.6092 51.005 41.637L51.1861 42.4528C51.2561 42.7684 51.0784 43.0855 50.7725 43.1906C50.5039 43.2828 50.2108 43.181 50.0512 42.9602L50.1591 43.3936C50.2103 43.5998 50.1771 43.8128 50.0652 43.9934C49.9534 44.174 49.7777 44.2989 49.5703 44.3449C49.2014 44.4267 48.828 44.2336 48.6813 43.8861L48.521 43.5065C48.621 44.1093 48.2424 44.6977 47.6487 44.8541C47.6443 44.8553 47.6399 44.8559 47.6355 44.8559Z" fill="#363E44"/>
<path d="M55.1757 48.5374L47.1748 50.9898C47.1748 50.9898 47.2699 60.4722 49.393 62.7556C51.1501 64.6452 63.2241 62.4637 63.2241 62.4637L63.8632 52.1591L56.0372 54.374L55.1757 48.5374Z" fill="#E98029"/>
<path d="M81.4269 63.6094L85.5133 70.6503L91.8038 66.2374C94.4656 64.7062 94.8291 61.0126 92.519 58.9894C89.3157 56.1838 85.7185 53.1524 78.1748 52.0268L78.6901 59.1859L83.2852 62.756L81.4269 63.6094Z" fill="#E98029"/>
<path d="M81.2088 71.0531C81.2088 71.0531 70.8975 75.4456 60.5459 70.7749L62.7288 52.5024C62.7288 52.5024 69.5475 49.8752 80.6261 52.4352L81.2088 71.0531Z" fill="#E98029"/>
<path d="M60.9036 63.0119C60.901 63.0119 60.8982 63.0117 60.8955 63.0112C60.8673 63.0067 60.8482 62.9803 60.8527 62.9522L61.84 56.7677C61.8444 56.7396 61.8708 56.7204 61.899 56.7249C61.9272 56.7294 61.9463 56.7558 61.9418 56.7839L60.9545 62.9684C60.9505 62.9938 60.9286 63.0119 60.9036 63.0119Z" fill="#363E44"/>
<path d="M76.8822 51.9973C76.8822 51.9973 71.6725 54.714 66.458 51.9617C66.458 51.9617 70.6667 50.6195 76.8822 51.9973Z" fill="white"/>
<path d="M76.2894 49.1779C76.2894 50.1782 75.4785 50.9891 74.4782 50.9891C73.4779 50.9891 72.667 50.1782 72.667 49.1779L74.4782 47.3667C75.4785 47.3667 76.2894 48.1776 76.2894 49.1779Z" fill="#363E44"/>
<path d="M76.6787 52.9912C77.3797 52.2902 77.3797 51.1536 76.6787 50.4525C75.9776 49.7515 74.841 49.7515 74.14 50.4525C73.4389 51.1536 73.4389 52.2902 74.14 52.9912C74.841 53.6923 75.9776 53.6923 76.6787 52.9912Z" fill="#363E44"/>
<path d="M75.4106 55.7902C76.3387 55.7902 77.0911 55.0378 77.0911 54.1097C77.0911 53.1815 76.3387 52.4291 75.4106 52.4291C74.4824 52.4291 73.73 53.1815 73.73 54.1097C73.73 55.0378 74.4824 55.7902 75.4106 55.7902Z" fill="#363E44"/>
<path d="M76.166 56.1561C76.166 56.95 75.5224 57.5936 74.7285 57.5936C73.9346 57.5936 73.291 56.95 73.291 56.1561C73.291 55.3621 73.9346 54.7186 74.7285 54.7186C75.5224 54.7186 76.166 55.3621 76.166 56.1561Z" fill="#363E44"/>
<path d="M74.0545 56.6315C73.2373 57.2226 72.1146 58.2039 71.2023 59.7059C69.2451 62.9284 69.6559 66.2428 69.8318 67.2994C70.9554 67.25 72.079 67.2006 73.2026 67.1512C73.0853 66.4116 73.0091 65.4788 73.0914 64.4101C73.2243 62.6853 73.7157 61.314 74.1286 60.4097C73.9624 61.2769 73.8288 62.2989 73.7952 63.447C73.7531 64.8913 73.8804 66.1577 74.0546 67.1882C74.5608 67.1512 75.067 67.1142 75.5733 67.0771C75.378 65.7884 75.2206 64.3894 75.1288 62.8914C74.9998 60.7862 75.0226 58.8478 75.1288 57.113C74.7706 56.9525 74.4126 56.792 74.0545 56.6315Z" fill="#363E44"/>
<path d="M69.3897 67.2501C69.3641 67.2501 69.342 67.2311 69.3386 67.2052C69.1445 65.714 69.0733 62.7935 70.7771 59.9885C71.5078 58.7854 72.472 57.746 73.6431 56.899C73.6661 56.8823 73.6983 56.8875 73.7151 56.9106C73.7317 56.9337 73.7266 56.9659 73.7035 56.9826C72.5437 57.8215 71.5887 58.8508 70.8652 60.042C69.1778 62.8202 69.2485 65.7141 69.4408 67.1919C69.4445 67.2201 69.4246 67.2459 69.3964 67.2496C69.3941 67.2499 69.3919 67.2501 69.3897 67.2501Z" fill="#363E44"/>
<path d="M82.8292 54.9725C82.8292 54.9725 74.371 56.4115 72.0395 63.946C72.0395 63.946 63.7929 60.0149 58.6479 59.338L73.0329 68.8609L82.8292 54.9725Z" fill="#F2E6DC"/>
<path d="M60.8931 74.1638L74.1697 79.6775C74.2863 80.2546 74.8487 80.6279 75.4258 80.5113C76.0029 80.3946 76.3762 79.8322 76.2596 79.2551L86.2798 69.0327L83.2143 53.8659L73.1941 64.0884C73.3107 64.6654 72.9374 65.2278 72.3603 65.3445C71.7832 65.4611 71.2209 65.0878 71.1042 64.5107L57.8276 58.997L60.8931 74.1638Z" fill="#F3BD40"/>
<path d="M76.084 78.6904C76.06 78.6904 76.0385 78.6735 76.0335 78.649L73.3599 65.4212C73.3543 65.3933 73.3723 65.366 73.4002 65.3604C73.4288 65.3549 73.4554 65.3728 73.461 65.4007L76.1346 78.6285C76.1403 78.6564 76.1222 78.6837 76.0943 78.6893C76.0908 78.6901 76.0874 78.6904 76.084 78.6904Z" fill="#776E42"/>
<path d="M74.1216 79.087C74.0976 79.087 74.076 79.0701 74.0711 79.0456L71.3975 65.8177C71.3919 65.7898 71.4099 65.7626 71.4378 65.7569C71.4661 65.7514 71.4929 65.7693 71.4986 65.7972L74.1722 79.0251C74.1779 79.053 74.1598 79.0803 74.1319 79.0859C74.1284 79.0867 74.125 79.087 74.1216 79.087Z" fill="#776E42"/>
<path d="M71.2581 64.3815C71.244 64.3815 71.2299 64.3758 71.2197 64.3644C71.2007 64.3432 71.2024 64.3106 71.2236 64.2916C71.2311 64.285 71.9741 63.6319 73.0019 63.931C73.0292 63.9389 73.0449 63.9675 73.037 63.9948C73.0291 64.0222 73.0004 64.038 72.9731 64.03C72.0013 63.7473 71.2994 64.3621 71.2925 64.3684C71.2827 64.3772 71.2704 64.3815 71.2581 64.3815Z" fill="#E6D0BE"/>
<path d="M80.9492 63.6571L85.5134 70.6495L93.1553 64.3294L89.6981 59.2863L80.9492 63.6571Z" fill="#E98029"/>
<path d="M84.804 61.6693C84.7848 61.6693 84.7663 61.6585 84.7575 61.6399C84.7452 61.6142 84.7561 61.5834 84.7819 61.5712L89.6758 59.24C89.7016 59.2277 89.7323 59.2386 89.7444 59.2644C89.7567 59.29 89.7458 59.3208 89.7201 59.333L84.8262 61.6643C84.819 61.6677 84.8115 61.6693 84.804 61.6693Z" fill="#363E44"/>
<path d="M79.6272 65.1597C79.8742 65.0033 80.8527 64.5207 82.1241 63.8831C83.4852 63.2005 85.1378 63.4602 86.2069 64.5443C86.2358 64.5737 86.2648 64.6032 86.2937 64.633C87.9371 66.3231 87.4971 69.1182 85.4127 70.2195C81.9946 72.0256 78.6941 73.7217 78.1492 74.066C77.5614 74.4663 76.2092 75.3931 75.894 74.9897C75.4647 74.4403 76.7607 73.2427 76.7616 73.1506C76.3338 73.4727 74.8583 74.4806 74.4794 74.0359C74.1882 73.6942 75.3452 72.2638 75.6207 71.8936C75.5828 71.9017 74.075 73.3708 73.5985 72.8537C73.1928 72.4136 74.2449 71.0197 74.4767 70.6315C74.0551 70.9042 72.7857 71.6739 72.5381 71.2009C72.02 70.211 78.4155 65.9266 79.6272 65.1597Z" fill="white"/>
<path d="M74.4334 70.6474C74.4224 70.6474 74.4113 70.6439 74.4019 70.6367C74.3794 70.6192 74.3752 70.5869 74.3926 70.5643C74.5775 70.3247 74.7805 70.096 74.9959 69.8849C75.3829 69.5053 75.8185 69.1728 76.2905 68.8965C76.315 68.8821 76.3466 68.8903 76.361 68.9149C76.3754 68.9395 76.3671 68.9711 76.3426 68.9855C75.8779 69.2574 75.4491 69.5849 75.0681 69.9585C74.8561 70.1663 74.6563 70.3914 74.4742 70.6273C74.464 70.6405 74.4488 70.6474 74.4334 70.6474Z" fill="#363E44"/>
<path d="M75.5769 71.9288C75.5641 71.9288 75.5512 71.924 75.5412 71.9145C75.5207 71.8947 75.52 71.8621 75.5397 71.8416C75.5837 71.7958 75.6292 71.7498 75.6761 71.7038C76.0633 71.3241 76.4988 70.9916 76.9708 70.7154C76.9952 70.701 77.0269 70.7092 77.0413 70.7338C77.0557 70.7584 77.0474 70.79 77.0229 70.8044C76.5582 71.0762 76.1295 71.4036 75.7483 71.7774C75.7022 71.8227 75.6574 71.8679 75.6141 71.9129C75.604 71.9235 75.5905 71.9288 75.5769 71.9288Z" fill="#363E44"/>
<path d="M76.7826 73.1703C76.7677 73.1703 76.753 73.1639 76.7428 73.1516C76.7246 73.1296 76.7278 73.0971 76.7497 73.079C77.023 72.8535 77.3177 72.6477 77.6256 72.4675C77.65 72.4531 77.6817 72.4613 77.6962 72.4859C77.7105 72.5105 77.7023 72.5421 77.6777 72.5565C77.3746 72.7339 77.0844 72.9365 76.8154 73.1586C76.8057 73.1665 76.7941 73.1703 76.7826 73.1703Z" fill="#363E44"/>
<path d="M56.3607 56.9929C56.3351 56.9929 56.3129 56.9739 56.3096 56.9478L55.9858 54.3803C55.9822 54.3521 56.0022 54.3263 56.0305 54.3227C56.0589 54.3192 56.0846 54.3392 56.0881 54.3674L56.4119 56.9349C56.4155 56.9632 56.3955 56.989 56.3672 56.9925C56.365 56.9928 56.3628 56.9929 56.3607 56.9929Z" fill="#363E44"/>
<path d="M71.1168 53.0361L71.7089 52.9281C72.3818 52.8055 72.8279 52.1605 72.7052 51.4875L72.1034 48.1869C71.9807 47.514 71.3358 47.068 70.6629 47.1906L70.0708 47.2986C69.3979 47.4213 68.9518 48.0662 69.0745 48.7392L69.6763 52.0397C69.799 52.7127 70.4439 53.1587 71.1168 53.0361Z" fill="white"/>
<path d="M72.4229 43.6091C72.309 43.5267 71.2065 42.7538 70.0453 43.1372C69.1812 43.4225 68.676 44.1423 68.0113 45.4777C67.2284 47.0503 66.9802 48.0997 67.2408 48.6532C67.6524 49.5277 70.3315 49.6798 71.8799 48.8131C72.9975 48.1875 73.6527 46.9224 73.6134 45.6332C73.5744 44.3475 72.4956 43.6617 72.4229 43.6091Z" fill="white"/>
<path d="M68.498 44.0239C68.4935 44.0347 68.4824 44.0391 68.4778 44.0499C68.4776 44.0504 68.4776 44.0508 68.4775 44.0513C68.3697 44.1753 68.2558 44.3059 68.1273 44.4081C68.0705 44.4533 68.0121 44.4639 67.9536 44.5005C67.9107 44.5273 67.8698 44.5532 67.8264 44.5779C67.6857 44.0518 67.8067 43.5513 67.8067 43.5513C67.8067 43.5513 68.1766 43.7058 68.498 44.0239Z" fill="white"/>
<path d="M68.9642 45.7875C68.9557 45.7903 68.9471 45.7929 68.9384 45.7955C68.8193 45.7422 68.2344 45.4579 67.9492 44.9006C67.8957 44.796 67.8564 44.6886 67.8276 44.5821C67.8444 44.5403 67.8633 44.499 67.8867 44.4589C68.0244 44.2238 68.2509 44.0739 68.4987 44.0249C68.6184 44.1445 68.7318 44.2877 68.8179 44.4559C69.1075 45.0216 68.9882 45.6737 68.9642 45.7875Z" fill="#363E44"/>
<path d="M70.5958 46.5252C70.5007 46.6944 70.3975 46.8046 70.229 46.8833C69.8444 46.626 69.623 46.2862 69.623 46.2862C69.623 46.2862 70.1788 46.04 70.7738 46.1271C70.7501 46.2682 70.6633 46.405 70.5958 46.5252Z" fill="white"/>
<path d="M70.7755 46.1276C70.8416 46.1378 70.9083 46.1521 70.9749 46.1714C71.6461 46.3668 72.0539 46.9937 72.0539 46.9937C72.0539 46.9937 71.3733 47.3039 70.7021 47.1085C70.5287 47.058 70.373 46.9786 70.2373 46.8888C70.2636 46.5612 70.466 46.2654 70.7755 46.1276Z" fill="#363E44"/>
<path d="M75.3906 46.1871C75.0267 47.7441 74.1578 48.9599 72.3097 49.3169C71.6378 48.5951 72.3718 47.5572 72.3346 47.0859C72.2884 46.4991 73.0181 45.535 73.4148 45.1476C71.7637 44.3636 69.2003 43.448 69.1828 43.3715C69.1311 43.1454 69.7263 42.7359 70.7346 42.4053C71.3036 42.2188 72.1767 41.9802 72.8607 42.347C74.0777 42.9996 75.8425 44.254 75.3906 46.1871Z" fill="#363E44"/>
<path d="M71.8548 47.4134C71.3894 47.7315 71.23 48.3081 71.4988 48.7015C71.7676 49.0948 72.3627 49.156 72.8281 48.8379C73.2935 48.5199 73.4529 47.9432 73.1841 47.5499C72.9153 47.1565 72.3202 47.0954 71.8548 47.4134Z" fill="white"/>
<path d="M72.4974 48.5908C72.4778 48.5908 72.4591 48.5796 72.4505 48.5607C72.4386 48.5347 72.4501 48.5041 72.476 48.4923C72.5047 48.4793 72.5328 48.4634 72.5596 48.445C72.7722 48.2998 72.8474 48.0383 72.727 47.8622C72.6982 47.82 72.6604 47.7857 72.6146 47.7602C72.5897 47.7464 72.5808 47.715 72.5946 47.6901C72.6084 47.6653 72.6397 47.6562 72.6647 47.6701C72.7246 47.7034 72.7742 47.7484 72.8121 47.804C72.9645 48.027 72.8773 48.3529 72.6177 48.5302C72.586 48.5518 72.5527 48.5707 72.5187 48.5862C72.5118 48.5894 72.5045 48.5908 72.4974 48.5908Z" fill="#363E44"/>
<path d="M68.3903 46.5922C68.3632 46.5922 68.3404 46.571 68.3389 46.5436C68.3323 46.4304 68.3578 46.3399 68.4144 46.2746C68.4767 46.2026 68.5561 46.1858 68.6401 46.168C68.697 46.156 68.7616 46.1423 68.8331 46.1094C68.9239 46.0676 69.0064 46.0035 69.0787 45.9188C69.0973 45.8972 69.1298 45.8946 69.1514 45.9131C69.173 45.9316 69.1756 45.9641 69.1571 45.9858C69.0751 46.0818 68.9807 46.155 68.8763 46.2031C68.7943 46.2408 68.7237 46.2557 68.6614 46.2689C68.5863 46.2848 68.532 46.2963 68.4924 46.3421C68.4539 46.3865 68.437 46.4523 68.4419 46.5377C68.4435 46.5662 68.4218 46.5905 68.3934 46.5922C68.3923 46.5922 68.3913 46.5922 68.3903 46.5922Z" fill="#363E44"/>
<path d="M68.6597 47.655C68.6217 47.655 68.5815 47.6513 68.5397 47.6425C68.3315 47.5985 68.2135 47.4571 68.1724 47.3984C68.1561 47.375 68.1618 47.3429 68.1851 47.3266C68.2084 47.3103 68.2406 47.3159 68.2569 47.3392C68.291 47.3879 68.3888 47.5052 68.561 47.5415C68.7532 47.5823 68.9029 47.4927 68.9442 47.4642C68.9679 47.448 68.9998 47.454 69.0159 47.4774C69.0321 47.5009 69.0262 47.533 69.0027 47.5491C68.9618 47.5772 68.833 47.655 68.6597 47.655Z" fill="#363E44"/>
<path d="M69.5493 49.4685C69.438 49.4685 69.3179 49.4643 69.1889 49.4547C69.1604 49.4526 69.1391 49.4278 69.1413 49.3994C69.1434 49.3711 69.1671 49.349 69.1965 49.3518C70.1738 49.4244 70.6224 49.1749 70.6269 49.1723C70.6515 49.1583 70.6831 49.1667 70.6972 49.1913C70.7114 49.2159 70.703 49.2474 70.6785 49.2616C70.6619 49.2711 70.3116 49.4685 69.5493 49.4685Z" fill="#363E44"/>
<path d="M20.3935 99.148H15.7416L14.979 80.1177H20.8759L20.3935 99.148Z" fill="white"/>
<path d="M24.9192 102.084H15.6465V97.8419H20.6768C23.0198 97.8419 24.9192 99.7413 24.9192 102.084Z" fill="#F3BD40"/>
<path d="M20.6092 98.7382C20.596 98.7382 20.5828 98.7332 20.5727 98.7231C20.5526 98.7029 20.5526 98.6703 20.5727 98.6502L21.3909 97.832C21.4111 97.8119 21.4437 97.8119 21.4638 97.832C21.484 97.8522 21.484 97.8848 21.4638 97.9049L20.6457 98.7231C20.6356 98.7332 20.6224 98.7382 20.6092 98.7382Z" fill="#363E44"/>
<path d="M21.5394 99.0173C21.5262 99.0173 21.513 99.0123 21.5029 99.0022C21.4828 98.9821 21.4828 98.9495 21.5029 98.9293L22.3211 98.1111C22.3412 98.091 22.3738 98.091 22.394 98.1111C22.4142 98.1313 22.4142 98.1639 22.394 98.184L21.5758 99.0022C21.5658 99.0123 21.5526 99.0173 21.5394 99.0173Z" fill="#363E44"/>
<path d="M9.55605 99.1717L4.98584 98.3042L7.32349 89.7688L8.06116 79.5178L13.9529 80.5653L12.382 90.4211L9.55605 99.1717Z" fill="white"/>
<path d="M12.4219 104.092L3.7124 100.909L5.16841 96.9246L9.89316 98.651C12.0939 99.4552 13.2261 101.891 12.4219 104.092Z" fill="#F3BD40"/>
<path d="M9.53941 99.4732C9.51997 99.4732 9.50136 99.4621 9.49259 99.4434C9.48063 99.4175 9.49181 99.3869 9.5176 99.3748L10.5669 98.8872C10.5929 98.8751 10.6235 98.8864 10.6354 98.9122C10.6474 98.938 10.6362 98.9687 10.6104 98.9807L9.56112 99.4684C9.55406 99.4717 9.54668 99.4732 9.53941 99.4732Z" fill="#363E44"/>
<path d="M10.3172 100.055C10.2978 100.055 10.2792 100.044 10.2704 100.025C10.2585 99.9991 10.2696 99.9684 10.2954 99.9564L11.3448 99.4687C11.3707 99.4567 11.4013 99.4679 11.4133 99.4937C11.4253 99.5195 11.4141 99.5502 11.3883 99.5622L10.339 100.05C10.3319 100.053 10.3245 100.055 10.3172 100.055Z" fill="#363E44"/>
<path d="M23.2565 85.3876H14.8121L14.3668 80.7517L13.5793 85.3876H5.47705L8.02334 73.1478H20.7506L23.2565 85.3876Z" fill="#E98029"/>
<path d="M21.7407 62.7206C24.1855 62.6394 31.2602 62.8111 31.2788 60.0191C31.2942 57.7096 24.3992 57.828 21.9645 57.7607C21.8899 59.414 21.8153 61.0673 21.7407 62.7206Z" fill="white"/>
<path d="M5.42804 61.0599C3.75674 62.8461 -1.36724 67.7272 0.593862 69.7147C2.21602 71.3586 7.00786 66.3993 8.77703 64.7253C7.6607 63.5036 6.54437 62.2817 5.42804 61.0599Z" fill="white"/>
<path d="M2.75195 62.7209C2.75195 62.7209 6.81742 57.2701 14.6574 57.4531C20.3853 57.5869 23.995 57.5916 23.995 57.5916V64.1416L20.7505 65.5137V73.1501H8.02312V66.2924L6.9797 66.8319L2.75195 62.7209Z" fill="#F9DF51"/>
<path d="M21.7413 65.8785L11.6647 77.6875C11.3634 78.0406 10.8328 78.0827 10.4797 77.7813L10.0287 77.3965C9.98158 77.0711 9.81764 76.7739 9.56754 76.5605L9.23117 76.2735C9.00938 76.0842 8.98298 75.751 9.17223 75.5292L9.68372 74.9297C9.57615 72.7384 10.3063 70.5882 11.7262 68.9155L12.3482 68.1827C12.9184 67.5109 13.7036 67.0571 14.5703 66.8983L16.5968 66.5269C16.7963 66.4903 16.9822 66.4007 17.135 66.2673L18.8599 64.7998C19.6231 64.1504 20.7228 64.0809 21.5617 64.6292C21.9859 64.9064 22.0702 65.493 21.7413 65.8785Z" fill="#D87355"/>
<path d="M21.3076 67.5544C21.3092 66.7916 20.6922 66.1719 19.9294 66.1703C19.1666 66.1687 18.547 66.7858 18.5454 67.5486C18.5438 68.3113 19.1608 68.931 19.9236 68.9326C20.6864 68.9342 21.306 68.3171 21.3076 67.5544Z" fill="#363E44"/>
<path d="M19.9357 68.5293C20.475 68.5225 20.9066 68.0798 20.8998 67.5405C20.893 67.0012 20.4504 66.5695 19.9111 66.5763C19.3718 66.5831 18.9401 67.0258 18.9469 67.5651C18.9537 68.1044 19.3964 68.5361 19.9357 68.5293Z" fill="#D3BBA3"/>
<path d="M14.1076 76.4885C14.66 75.9625 14.6816 75.0883 14.1556 74.5358C13.6297 73.9834 12.7555 73.9618 12.203 74.4878C11.6505 75.0137 11.629 75.8879 12.1549 76.4404C12.6809 76.9929 13.5551 77.0144 14.1076 76.4885Z" fill="#363E44"/>
<path d="M13.1538 76.4658C13.6932 76.4658 14.1304 76.0286 14.1304 75.4892C14.1304 74.9499 13.6932 74.5126 13.1538 74.5126C12.6145 74.5126 12.1772 74.9499 12.1772 75.4892C12.1772 76.0286 12.6145 76.4658 13.1538 76.4658Z" fill="#D3BBA3"/>
<path d="M10.814 73.7054L16.5639 66.9669L13.6671 67.6047C13.4722 67.6476 13.2934 67.745 13.1516 67.8854C11.5731 69.4479 10.5404 71.4664 10.1992 73.6232L10.814 73.7054Z" fill="#363E44"/>
<path d="M20.0528 65.113C20.5316 64.8488 20.8503 64.5087 20.7646 64.3534C20.6789 64.1981 20.2213 64.2863 19.7425 64.5505C19.2636 64.8147 18.945 65.1548 19.0307 65.3101C19.1164 65.4655 19.574 65.3772 20.0528 65.113Z" fill="#F9DF51"/>
<path d="M21.6083 65.1912L21.4026 65.4323C21.3472 65.4971 21.2477 65.4995 21.1893 65.4373L20.9699 65.2034C20.92 65.1502 20.9181 65.068 20.9654 65.0126L21.1711 64.7715C21.2265 64.7067 21.326 64.7043 21.3844 64.7665L21.6038 65.0003C21.6536 65.0535 21.6555 65.1357 21.6083 65.1912Z" fill="#FFD092"/>
<path d="M2.41875 66.0835C4.30802 66.4945 8.80506 67.2424 9.24116 67.3328C10.0563 67.502 14.4076 68.5232 14.3283 69.167C14.2904 69.4747 13.4432 69.3158 13.1584 69.2538C13.3638 69.4173 14.2203 69.9598 14.0899 70.2819C13.9366 70.6602 12.8169 70.17 12.7947 70.1734C13.0201 70.3183 13.9411 70.8591 13.8527 71.1044C13.7377 71.4235 12.7299 71.1773 12.4316 71.0896C12.4509 71.1395 13.3999 71.5255 13.2789 71.9118C13.1901 72.1954 12.2658 71.9681 11.8646 71.8707C11.1402 71.721 2.62126 70.4357 1.06851 69.9946C0.460637 69.8221 1.49167 66.5566 2.41875 66.0835Z" fill="white"/>
<path d="M6.5084 66.8834C6.50531 66.8834 6.50227 66.8832 6.49907 66.8826C5.53203 66.7064 3.01771 66.2178 2.40834 66.0922C2.38044 66.0865 2.36249 66.0592 2.36827 66.0313C2.37399 66.0034 2.40091 65.9856 2.42922 65.9912C3.03818 66.1167 5.55106 66.605 6.51763 66.7811C6.54563 66.7862 6.5642 66.8131 6.55909 66.8411C6.5545 66.866 6.53279 66.8834 6.5084 66.8834Z" fill="#363E44"/>
<path d="M13.1748 69.2776C13.1655 69.2776 13.1562 69.2751 13.1478 69.2699C13.0013 69.1794 12.8477 69.0984 12.691 69.0292C12.4091 68.9048 12.1109 68.815 11.8046 68.7624C11.7765 68.7576 11.7576 68.731 11.7625 68.7029C11.7673 68.6749 11.7934 68.6563 11.822 68.6608C12.1367 68.7148 12.4431 68.807 12.7327 68.9349C12.8936 69.006 13.0516 69.0892 13.202 69.1822C13.2262 69.1971 13.2337 69.2289 13.2187 69.2531C13.2089 69.2689 13.1921 69.2776 13.1748 69.2776Z" fill="#363E44"/>
<path d="M12.8151 70.2075C12.8077 70.2075 12.8001 70.2059 12.7929 70.2024C12.7603 70.1868 12.727 70.1715 12.6928 70.1564C12.411 70.0319 12.1128 69.9422 11.8065 69.8897C11.7785 69.8849 11.7596 69.8582 11.7644 69.8301C11.7692 69.8021 11.7955 69.7834 11.8239 69.7881C12.1386 69.842 12.445 69.9342 12.7346 70.0621C12.7697 70.0776 12.804 70.0934 12.8374 70.1093C12.8631 70.1216 12.874 70.1524 12.8617 70.1781C12.8528 70.1966 12.8344 70.2075 12.8151 70.2075Z" fill="#363E44"/>
<path d="M12.4135 71.1285C12.4079 71.1285 12.4023 71.1276 12.3968 71.1258C12.2063 71.0604 12.0083 71.0099 11.8085 70.9756C11.7804 70.9709 11.7615 70.9442 11.7664 70.9161C11.7712 70.8881 11.7973 70.8694 11.8259 70.8741C12.0311 70.9092 12.2345 70.9611 12.4303 71.0282C12.4572 71.0375 12.4716 71.0668 12.4623 71.0937C12.4549 71.1151 12.4349 71.1285 12.4135 71.1285Z" fill="#363E44"/>
<path d="M26.4136 59.5449C28.0298 54.6965 29.363 51.3126 29.9692 49.1308C30.2413 48.1514 30.3267 47.119 31.0702 46.4843C31.3998 46.2029 31.7873 45.9742 31.9691 46.2369C32.2532 46.647 31.1426 47.4292 31.3833 47.7571C31.6252 48.0865 32.9546 47.5813 32.9792 47.1005C32.9991 46.7125 32.0911 46.7453 32.2166 46.3025C32.3025 45.9994 32.8057 46.0169 33.1611 46.1005C33.2739 46.127 33.7472 46.2383 33.9691 46.7065C34.2039 47.2018 33.9549 47.6694 33.9288 47.7166C34.2363 47.6681 34.5211 47.7963 34.6156 47.9994C34.7416 48.2707 34.55 48.722 34.0904 48.8479C34.1497 48.8428 34.59 48.8088 34.6964 49.0095C34.8007 49.2064 34.5779 49.618 34.05 49.9388C34.4015 49.927 34.6366 50.0366 34.6762 50.161C34.7873 50.5096 34.358 51.0398 32.959 51.757C32.674 52.9587 31.2469 60.3227 31.2469 60.3227C31.2469 60.3227 29.3074 61.7428 26.4136 59.5449Z" fill="white"/>
<path d="M26.4134 59.5965C26.4081 59.5965 26.4025 59.5956 26.3971 59.5938C26.3701 59.5848 26.3555 59.5557 26.3645 59.5286C26.5314 59.0279 26.7052 58.5133 26.8809 57.9991C26.8902 57.9721 26.9194 57.9578 26.9464 57.9669C26.9733 57.9762 26.9877 58.0054 26.9785 58.0324C26.8028 58.5464 26.6292 59.0607 26.4623 59.5612C26.4551 59.5828 26.435 59.5965 26.4134 59.5965Z" fill="#363E44"/>
<path d="M33.7166 50.849C33.7159 50.849 33.7152 50.849 33.7145 50.849C33.1918 50.8279 32.7573 50.6292 32.7458 50.4062C32.7374 50.2426 32.9538 50.0698 33.2739 49.9625C32.9019 49.9221 32.6415 49.7968 32.6055 49.6262C32.5605 49.4127 32.8535 49.1386 33.3026 48.9489C32.909 48.9326 32.593 48.7948 32.5452 48.5974C32.4828 48.3401 32.8643 47.936 33.5116 47.7677C33.5391 47.7604 33.5673 47.7771 33.5746 47.8046C33.5817 47.8322 33.5652 47.8604 33.5376 47.8676C32.927 48.0263 32.6014 48.3915 32.6454 48.5732C32.6862 48.7417 33.083 48.8912 33.5871 48.8363C33.6169 48.833 33.644 48.8526 33.6498 48.8819C33.6557 48.9111 33.6383 48.9396 33.6095 48.9482C32.979 49.1381 32.6753 49.4571 32.7064 49.605C32.7353 49.742 33.0829 49.8832 33.5979 49.8726C33.6261 49.872 33.6537 49.8945 33.6565 49.9247C33.6592 49.9551 33.6385 49.9817 33.6082 49.9866C33.1097 50.0677 32.8428 50.283 32.8489 50.4008C32.8555 50.5305 33.1896 50.7245 33.7186 50.7459C33.7471 50.747 33.7692 50.771 33.7681 50.7995C33.767 50.8273 33.7441 50.849 33.7166 50.849Z" fill="#363E44"/>
<path d="M31.2943 51.5051C31.2897 51.5051 31.2851 51.5045 31.2805 51.5033C31.2531 51.4957 31.2369 51.4673 31.2446 51.4399C31.2926 51.2662 31.4213 50.9358 31.7439 50.6742C32.1086 50.3786 32.5054 50.3401 32.7091 50.3413C32.7375 50.3416 32.7603 50.365 32.76 50.3935C32.7596 50.422 32.7345 50.4441 32.7077 50.4444C32.5548 50.4422 32.161 50.4688 31.8089 50.7543C31.5086 50.9979 31.3887 51.3056 31.3439 51.4673C31.3376 51.4902 31.3169 51.5051 31.2943 51.5051Z" fill="#363E44"/>
<path d="M43.2601 50.1705L44.164 50.1399L42.7386 47.9952L42.7918 47.7031L44.1697 44.7505L43.4514 44.6196L41.09 47.3174C38.85 46.8658 34.7678 46.055 31.0491 45.3803L33.0088 42.3648L32.3987 42.2536L28.5924 44.9467C26.957 44.6675 25.5173 44.4447 24.511 44.3315C23.8143 44.2532 21.8659 44.6104 21.7828 45.0937C21.6494 45.8699 23.3439 46.2936 24.117 46.493C25.3467 46.8101 27.1834 47.1287 29.2283 47.4266L37.1362 54.5207L38.6243 54.4952L33.2805 47.9643C36.6436 48.3754 39.8958 48.7011 41.5096 48.8564L43.2601 50.1705Z" fill="#F3BD40"/>
<path d="M25.9025 45.6649C25.9076 45.7937 25.8074 45.9022 25.6786 45.9074C25.5499 45.9125 25.4413 45.8123 25.4362 45.6835C25.4311 45.5548 25.5313 45.4462 25.6601 45.4411C25.7888 45.4359 25.8973 45.5362 25.9025 45.6649Z" fill="#776E42"/>
<path d="M26.8435 45.8147C26.8486 45.9435 26.7484 46.0521 26.6196 46.0572C26.4908 46.0623 26.3823 45.9621 26.3771 45.8334C26.372 45.7046 26.4722 45.596 26.601 45.5909C26.7298 45.5857 26.8384 45.686 26.8435 45.8147Z" fill="#776E42"/>
<path d="M27.7844 45.9638C27.7895 46.0925 27.6893 46.2011 27.5605 46.2063C27.4318 46.2114 27.3232 46.1112 27.3181 45.9824C27.313 45.8536 27.4131 45.7451 27.5419 45.7399C27.6707 45.7348 27.7793 45.835 27.7844 45.9638Z" fill="#776E42"/>
<path d="M28.7253 46.1136C28.7304 46.2423 28.6302 46.3509 28.5015 46.356C28.3727 46.3611 28.2641 46.261 28.259 46.1322C28.2538 46.0034 28.3541 45.8949 28.4828 45.8897C28.6116 45.8846 28.7201 45.9848 28.7253 46.1136Z" fill="#776E42"/>
<path d="M29.6662 46.2626C29.6713 46.3914 29.5711 46.4999 29.4424 46.5051C29.3136 46.5102 29.2051 46.41 29.1999 46.2812C29.1948 46.1525 29.295 46.0439 29.4237 46.0388C29.5526 46.0336 29.6611 46.1339 29.6662 46.2626Z" fill="#776E42"/>
<path d="M30.6071 46.4125C30.6122 46.5412 30.512 46.6498 30.3833 46.6549C30.2545 46.66 30.146 46.5598 30.1408 46.4311C30.1357 46.3023 30.2359 46.1938 30.3647 46.1886C30.4935 46.1834 30.602 46.2837 30.6071 46.4125Z" fill="#776E42"/>
<path d="M31.5481 46.5622C31.5532 46.691 31.453 46.7996 31.3242 46.8047C31.1954 46.8098 31.0869 46.7096 31.0817 46.5809C31.0766 46.4521 31.1768 46.3435 31.3056 46.3384C31.4343 46.3332 31.5429 46.4335 31.5481 46.5622Z" fill="#776E42"/>
<path d="M32.489 46.7113C32.4941 46.84 32.3939 46.9486 32.2651 46.9538C32.1364 46.9589 32.0278 46.8587 32.0226 46.7299C32.0175 46.6011 32.1177 46.4926 32.2465 46.4874C32.3753 46.4823 32.4839 46.5825 32.489 46.7113Z" fill="#776E42"/>
<path d="M33.4299 46.8612C33.435 46.9899 33.3348 47.0985 33.206 47.1036C33.0773 47.1088 32.9687 47.0085 32.9636 46.8797C32.9585 46.751 33.0587 46.6424 33.1874 46.6373C33.3162 46.6322 33.4247 46.7324 33.4299 46.8612Z" fill="#776E42"/>
<path d="M34.3708 47.0102C34.3759 47.1389 34.2757 47.2475 34.1469 47.2526C34.0181 47.2578 33.9096 47.1576 33.9045 47.0288C33.8994 46.9 33.9996 46.7915 34.1283 46.7863C34.257 46.7812 34.3656 46.8814 34.3708 47.0102Z" fill="#776E42"/>
<path d="M35.3117 47.1599C35.3169 47.2887 35.2166 47.3973 35.0879 47.4024C34.9591 47.4075 34.8506 47.3073 34.8454 47.1785C34.8403 47.0497 34.9405 46.9412 35.0693 46.936C35.1981 46.9309 35.3066 47.0312 35.3117 47.1599Z" fill="#776E42"/>
<path d="M36.2526 47.3097C36.2577 47.4385 36.1575 47.5471 36.0287 47.5522C35.9 47.5573 35.7914 47.4571 35.7863 47.3284C35.7812 47.1996 35.8814 47.0911 36.0102 47.0859C36.1389 47.0807 36.2475 47.181 36.2526 47.3097Z" fill="#776E42"/>
<path d="M14.6455 53.6272C17.4088 53.6272 19.6489 51.5715 19.6489 49.0356C19.6489 46.4997 17.4088 44.444 14.6455 44.444C11.8822 44.444 9.64209 46.4997 9.64209 49.0356C9.64209 51.5715 11.8822 53.6272 14.6455 53.6272Z" fill="#363E44"/>
<path d="M16.6296 53.0274H12.8135V58.8503H16.6296V53.0274Z" fill="white"/>
<path d="M14.7217 55.4818C16.9308 55.4818 18.7216 53.3857 18.7216 50.8C18.7216 48.2143 16.9308 46.1182 14.7217 46.1182C12.5125 46.1182 10.7217 48.2143 10.7217 50.8C10.7217 53.3857 12.5125 55.4818 14.7217 55.4818Z" fill="white"/>
<path d="M16.2726 47.047L16.8242 48.7179H18.6909C18.6855 46.5249 16.9062 44.7487 14.7119 44.7487C12.5176 44.7487 10.7383 46.5249 10.7329 48.7179H15.7813L16.2726 47.047Z" fill="#363E44"/>
<path d="M11.1325 52.5846C11.6654 52.3414 11.8046 51.5025 11.4433 50.7107C11.0821 49.9189 10.3572 49.4742 9.8243 49.7173C9.29139 49.9605 9.15222 50.7994 9.51347 51.5912C9.87471 52.383 10.5996 52.8277 11.1325 52.5846Z" fill="white"/>
<path d="M10.2136 51.8175C10.2018 51.8175 10.1898 51.8134 10.1802 51.8051C10.0543 51.6978 9.94772 51.5534 9.87197 51.3874C9.77306 51.1706 9.73701 50.94 9.77048 50.7382C9.80518 50.5288 9.91012 50.3744 10.0659 50.3033C10.1835 50.2497 10.3192 50.249 10.4584 50.3012C10.485 50.3112 10.4985 50.341 10.4886 50.3676C10.4785 50.3944 10.4487 50.4077 10.4221 50.3978C10.3092 50.3553 10.2008 50.3552 10.1087 50.3972C9.98516 50.4536 9.90115 50.5807 9.87217 50.755C9.842 50.9368 9.87526 51.1462 9.96576 51.3445C10.0353 51.4969 10.1325 51.629 10.247 51.7266C10.2687 51.7451 10.2712 51.7776 10.2527 51.7993C10.2427 51.8113 10.2282 51.8175 10.2136 51.8175Z" fill="#363E44"/>
<path d="M14.7296 55.6006C14.0539 55.6006 13.3816 55.4102 12.7856 55.0499C12.7612 55.0352 12.7535 55.0035 12.7682 54.9791C12.7828 54.9547 12.8145 54.9468 12.839 54.9616C13.4272 55.3171 14.0633 55.4974 14.7296 55.4974C15.3923 55.4974 16.0251 55.319 16.6108 54.9672C16.6352 54.9525 16.667 54.9605 16.6815 54.9849C16.6962 55.0093 16.6883 55.041 16.6639 55.0556C16.062 55.4172 15.4112 55.6006 14.7296 55.6006Z" fill="#363E44"/>
<path d="M20.0014 51.5879C20.3627 50.7962 20.2235 49.9572 19.6906 49.7141C19.1577 49.4709 18.4328 49.9157 18.0716 50.7074C17.7103 51.4992 17.8495 52.3382 18.3824 52.5813C18.9153 52.8244 19.6402 52.3797 20.0014 51.5879Z" fill="white"/>
<path d="M19.2451 51.8174C19.2306 51.8174 19.2161 51.8113 19.2059 51.7993C19.1874 51.7776 19.19 51.7451 19.2116 51.7266C19.3261 51.6289 19.4234 51.4969 19.4929 51.3446C19.6766 50.9419 19.6124 50.517 19.35 50.3972C19.2579 50.3552 19.1495 50.3554 19.0365 50.3979C19.0097 50.4078 18.9801 50.3944 18.9701 50.3677C18.9601 50.341 18.9736 50.3113 19.0002 50.3013C19.1395 50.249 19.2753 50.2498 19.3928 50.3034C19.707 50.4467 19.794 50.9331 19.5868 51.3874C19.511 51.5533 19.4045 51.6978 19.2786 51.8051C19.2689 51.8134 19.257 51.8174 19.2451 51.8174Z" fill="#363E44"/>
<path d="M18.4539 52.5635C18.4486 52.5635 18.4432 52.5627 18.4379 52.5609C18.4108 52.5521 18.396 52.523 18.4049 52.4958C18.5835 51.9505 18.6741 51.3749 18.6741 50.7853C18.6741 50.534 18.6573 50.2817 18.6241 50.0356C18.6204 50.0073 18.6402 49.9814 18.6683 49.9776C18.6972 49.9736 18.7226 49.9936 18.7263 50.0217C18.7601 50.2725 18.7772 50.5294 18.7772 50.7853C18.7772 51.3859 18.6849 51.9722 18.5029 52.528C18.4958 52.5497 18.4756 52.5635 18.4539 52.5635Z" fill="#363E44"/>
<path d="M10.9909 52.5442C10.9692 52.5442 10.9491 52.5305 10.9419 52.5088C10.7614 51.9642 10.6699 51.3892 10.6699 50.7999C10.6699 50.5075 10.6929 50.2146 10.7383 49.9295C10.7428 49.9014 10.769 49.882 10.7973 49.8867C10.8254 49.8912 10.8446 49.9176 10.8401 49.9457C10.7956 50.2255 10.7731 50.513 10.7731 50.7999C10.7731 51.3782 10.8628 51.9422 11.0399 52.4764C11.0488 52.5034 11.0342 52.5326 11.0071 52.5416C11.0017 52.5433 10.9962 52.5442 10.9909 52.5442Z" fill="#363E44"/>
<path d="M13.868 51.0828C13.868 51.0828 13.0462 51.5331 12.3344 51.2704C11.6227 51.0076 11.2905 50.1313 11.2905 50.1313C11.2905 50.1313 11.5724 49.9771 11.9502 49.9021C12.2162 49.8493 12.5704 50.5353 12.5704 50.5353C12.5704 50.5353 13.3918 50.3116 13.5627 50.5431C13.7708 50.8247 13.868 51.0828 13.868 51.0828Z" fill="#F9DF51"/>
<path d="M13.5185 50.7131C13.5394 50.6563 13.5541 50.5989 13.5631 50.5413C13.392 50.3086 13.1474 50.0629 12.8243 49.9437C12.5296 49.8349 12.2167 49.849 11.9503 49.9022C11.9098 49.9616 11.8748 50.0261 11.8488 50.0967C11.6785 50.5578 11.9143 51.0695 12.3754 51.2398C12.8365 51.41 13.3482 51.1742 13.5185 50.7131Z" fill="#363E44"/>
<path d="M14.8012 52.5334C14.7841 52.5334 14.7674 52.525 14.7576 52.5095C14.7423 52.4855 14.7494 52.4536 14.7735 52.4383C14.9069 52.3535 14.9877 52.2553 15.0135 52.1467C15.0406 52.0325 14.9998 51.9397 14.9433 51.8115C14.8997 51.7125 14.8502 51.6003 14.8212 51.4513C14.7841 51.2616 14.7912 51.0604 14.8419 50.8534C14.8488 50.8258 14.8769 50.8089 14.9043 50.8156C14.9319 50.8224 14.9489 50.8504 14.9421 50.878C14.8949 51.0704 14.8883 51.2567 14.9223 51.4316C14.9492 51.5692 14.9962 51.6758 15.0377 51.7699C15.0974 51.9055 15.149 52.0226 15.1138 52.1706C15.0816 52.3063 14.9857 52.4257 14.8288 52.5254C14.8202 52.5308 14.8107 52.5334 14.8012 52.5334Z" fill="#363E44"/>
<path d="M14.321 53.3746C14.1637 53.3746 14.0028 53.3252 13.8783 53.2281C13.7493 53.1277 13.6719 52.9846 13.6661 52.8357C13.6649 52.8072 13.687 52.7832 13.7155 52.7821C13.7445 52.7804 13.768 52.8031 13.7691 52.8316C13.7738 52.9501 13.8367 53.065 13.9417 53.1468C14.1366 53.2987 14.4476 53.313 14.6347 53.1789C14.658 53.1622 14.6901 53.1676 14.7067 53.1907C14.7233 53.2139 14.718 53.2461 14.6949 53.2627C14.5901 53.3377 14.4569 53.3746 14.321 53.3746Z" fill="#363E44"/>
<path d="M14.6822 60.1375C16.3893 60.1375 17.7731 59.4953 17.7731 58.7031C17.7731 57.911 16.3893 57.2688 14.6822 57.2688C12.9751 57.2688 11.5913 57.911 11.5913 58.7031C11.5913 59.4953 12.9751 60.1375 14.6822 60.1375Z" fill="white"/>
<path d="M15.4702 51.0653C15.4702 51.0653 16.2861 51.5263 17.0012 51.2729C17.7163 51.0194 18.0599 50.1475 18.0599 50.1475C18.0599 50.1475 17.847 50.0272 17.5433 49.9433C17.2526 49.863 16.8024 50.5151 16.8024 50.5151C16.8024 50.5151 16.0369 50.2237 15.8706 50.4179C15.6015 50.7321 15.4702 51.0653 15.4702 51.0653Z" fill="#F9DF51"/>
<path d="M17.5953 50.0529C17.5819 50.0151 17.5655 49.9794 17.5478 49.9447C17.2564 49.8635 16.8807 49.8151 16.5288 49.9398C16.2552 50.0368 16.0365 50.2243 15.8701 50.4188C15.8761 50.4951 15.891 50.5719 15.9178 50.6475C16.082 51.1107 16.5906 51.3531 17.0538 51.1889C17.5171 51.0248 17.7595 50.5161 17.5953 50.0529Z" fill="#363E44"/>
<path d="M9.62923 47.0064C9.62325 47.0064 9.61711 47.0053 9.61113 47.0031C9.58447 46.9932 9.57096 46.9634 9.58091 46.9368C10.1327 45.4613 11.328 44.4496 12.7003 44.2966C13.6144 44.1946 14.3761 44.5011 14.8537 44.7761C14.8784 44.7903 14.8869 44.8219 14.8726 44.8465C14.8585 44.8712 14.8269 44.8798 14.8023 44.8654C14.338 44.5981 13.5987 44.3002 12.7117 44.3991C11.3783 44.5478 10.2157 45.534 9.67749 46.9729C9.66976 46.9936 9.65011 47.0064 9.62923 47.0064Z" fill="#363E44"/>
<path d="M12.5442 46.1194C12.5355 46.1194 12.5267 46.1172 12.5187 46.1126C12.494 46.0984 12.4853 46.067 12.4995 46.0423C12.7731 45.5638 13.2758 44.9151 14.1165 44.5416C15.3786 43.9812 16.921 44.2513 18.1419 45.2466C18.164 45.2647 18.1673 45.2971 18.1493 45.3192C18.1313 45.3412 18.099 45.3447 18.0768 45.3266C16.8861 44.3559 15.3847 44.0912 14.1584 44.6359C13.3431 44.9979 12.855 45.6284 12.589 46.0935C12.5795 46.1101 12.562 46.1194 12.5442 46.1194Z" fill="#363E44"/>
<path d="M32.2538 88.6816H25.5254V95.4101H32.2538V88.6816Z" fill="#FFD092"/>
<path d="M27.9565 95.4079H21.228V102.136H27.9565V95.4079Z" fill="#D87355"/>
<path d="M36.5512 95.4079H29.8228V102.136H36.5512V95.4079Z" fill="#F3BD40"/>
<path d="M19.479 92.0459C19.479 92.0459 19.5077 84.2676 22.1515 84.2676C24.7952 84.2676 25.0793 91.7411 25.0793 91.7411C25.0793 91.7411 22.6849 93.3311 19.479 92.0459Z" fill="black"/>
<path d="M23.1383 86.5339C23.1383 87.406 22.6965 88.1129 22.1514 88.1129C21.6064 88.1129 21.1646 87.406 21.1646 86.5339C21.1646 85.6619 22.0356 85.2619 22.0356 85.2619C22.0356 85.2619 23.1383 85.6619 23.1383 86.5339Z" fill="#DC8929"/>
<path d="M13.5363 105.736C14.3801 105.508 15.0002 105.086 14.9213 104.794C14.8424 104.502 14.0944 104.45 13.2506 104.678C12.4067 104.906 11.7866 105.327 11.8655 105.619C11.9444 105.912 12.6925 105.964 13.5363 105.736Z" fill="#D87355"/>
<path d="M19.7425 98.0252L17.7699 100.438C17.7699 100.438 17.6587 102.694 14.9195 104.794L13.0669 105.207L14.264 104.517L16.5467 100.031L17.825 96.9984L19.7425 98.0252Z" fill="#DC8929"/>
<path d="M10.7592 101.393C10.8085 101.095 10.1492 100.738 9.28675 100.595C8.4243 100.453 7.68524 100.58 7.63601 100.878C7.58678 101.177 8.24602 101.534 9.10847 101.677C9.97092 101.819 10.71 101.692 10.7592 101.393Z" fill="#D87355"/>
<path d="M17.9516 97.2354L15.1566 98.6134C15.1566 98.6134 14.1202 100.621 10.7569 101.397L8.8999 101.005L10.2753 100.873L14.2117 97.737L16.632 95.5063L17.9516 97.2354Z" fill="#DC8929"/>
<path d="M23.7906 90.0048C23.7906 90.0048 24.3232 90.0809 24.4298 90.4918C24.5363 90.9027 24.7798 93.7332 24.7798 93.7332L23.958 97.2637L23.2275 97.1268L24.0037 93.6343L23.3189 91.0548L23.7906 90.0048Z" fill="#DC8929"/>
<path d="M21.3579 89.5913C21.3579 89.5913 21.3094 90.1272 20.9045 90.2548C20.4997 90.3823 17.6854 90.7714 17.6854 90.7714L14.1172 90.1326L14.2163 89.3961L17.7442 89.9912L20.2849 89.1743L21.3579 89.5913Z" fill="#DC8929"/>
<path d="M19.925 88.874L24.1252 89.8167L22.3294 93.53C22.3294 93.53 24.9573 95.4409 21.2642 99.7979C21.2642 99.7979 16.0291 98.9202 14.1421 95.4409C14.1421 95.4409 16.09 93.043 20.2293 92.9821L19.925 88.874Z" fill="#DC8929"/>
<path d="M23.1955 90.0181C23.1419 90.2474 22.5169 90.2975 21.7996 90.1298C21.0823 89.9622 20.5443 89.6403 20.5979 89.4109C20.6515 89.1816 21.2765 89.1315 21.9938 89.2992C22.7111 89.4668 23.2492 89.7887 23.1955 90.0181Z" fill="#DC8929"/>
<path d="M21.3354 89.4621L21.8966 87.7373L22.7355 87.4736L22.5123 89.7143L21.3354 89.4621Z" fill="#DC8929"/>
<path d="M15.1551 90.0387C15.2679 89.757 14.8153 89.311 14.1442 89.0424C13.4732 88.7738 12.8378 88.7844 12.7251 89.066C12.6124 89.3476 13.065 89.7937 13.736 90.0623C14.4071 90.3308 15.0424 90.3203 15.1551 90.0387Z" fill="#DC8929"/>
<path d="M21.9968 98.4951C21.7975 98.2664 22.0776 97.696 22.6225 97.2211C23.1673 96.7461 23.7706 96.5465 23.9699 96.7751C24.1692 97.0038 23.8892 97.5741 23.3443 98.0491C22.7994 98.5241 22.1962 98.7238 21.9968 98.4951Z" fill="#DC8929"/>
<path d="M64.5473 103.607L62.5778 95.6292L58.9277 96.5303L59.9962 100.858C60.4938 102.874 62.5314 104.105 64.5473 103.607Z" fill="#D87355"/>
<path d="M60.1785 101.55C60.1694 101.55 60.1603 101.548 60.1519 101.542C60.1275 101.528 60.1197 101.496 60.1344 101.472L60.6645 100.594C60.6792 100.57 60.7109 100.562 60.7353 100.576C60.7598 100.591 60.7676 100.623 60.7529 100.647L60.2227 101.525C60.213 101.541 60.196 101.55 60.1785 101.55Z" fill="white"/>
<path d="M60.6165 102.291C60.6074 102.291 60.5982 102.288 60.5899 102.283C60.5654 102.269 60.5577 102.237 60.5724 102.213L61.1026 101.335C61.1172 101.31 61.149 101.303 61.1733 101.317C61.1978 101.332 61.2055 101.364 61.1908 101.388L60.6606 102.266C60.651 102.282 60.6339 102.291 60.6165 102.291Z" fill="white"/>
<path d="M50.8684 101.632L56.9859 100.241L55.8871 95.248L49.7158 96.6063L50.8684 101.632Z" fill="white"/>
<path d="M56.3817 97.8847C59.0199 94.834 60.0594 91.4103 58.7035 90.2378C57.3476 89.0653 54.1098 90.588 51.4716 93.6387C48.8335 96.6895 47.794 100.113 49.1499 101.286C50.5058 102.458 53.7436 100.935 56.3817 97.8847Z" fill="white"/>
<path d="M56.0536 99.7493C56.0536 99.7493 62.0715 93.7536 61.6605 89.4147C61.3531 86.1703 57.4913 83.7295 57.4913 83.7295L48.6182 94.4059L56.0536 99.7493Z" fill="white"/>
<path d="M54.9022 101.852L65.278 99.5238L64.1792 94.5312L53.7188 96.8335L54.9022 101.852Z" fill="white"/>
<path d="M60.0862 96.9309C62.0706 93.4196 62.4141 89.8581 60.8535 88.9762C59.2929 88.0942 56.4192 90.2258 54.4348 93.7372C52.4504 97.2485 52.1069 100.81 53.6675 101.692C55.2281 102.574 58.1019 100.442 60.0862 96.9309Z" fill="white"/>
<path d="M53.0724 101.147C53.0547 101.147 53.0375 101.138 53.0279 101.122C52.3121 99.8991 52.602 97.4716 53.7663 94.9371C53.7781 94.9112 53.8088 94.8999 53.8347 94.9118C53.8606 94.9237 53.872 94.9543 53.86 94.9801C52.7093 97.4849 52.4175 99.8751 53.1169 101.07C53.1312 101.094 53.123 101.126 53.0984 101.14C53.0903 101.145 53.0813 101.147 53.0724 101.147Z" fill="#363E44"/>
<path d="M53.8133 95.0097C53.806 95.0097 53.7988 95.0082 53.7918 95.0049C53.7659 94.9931 53.7545 94.9624 53.7664 94.9365C53.9541 94.5281 54.164 94.118 54.3904 93.7175C55.3536 92.0132 56.555 90.5771 57.773 89.6737C59.0027 88.7616 60.106 88.5002 60.8795 88.9375C62.0404 89.5935 62.2101 91.7194 61.3119 94.3534C61.3028 94.3804 61.2734 94.3949 61.2465 94.3856C61.2195 94.3764 61.2051 94.3471 61.2143 94.3202C62.0957 91.7353 61.9444 89.6577 60.8287 89.0271C60.0929 88.6112 59.0294 88.8703 57.8344 89.7566C56.6277 90.6515 55.4365 92.0762 54.4801 93.7683C54.2553 94.1662 54.0467 94.5737 53.8602 94.9796C53.8515 94.9985 53.8328 95.0097 53.8133 95.0097Z" fill="#363E44"/>
<path d="M57.5179 100.344C57.5042 100.344 57.4904 100.338 57.4803 100.328C57.4608 100.307 57.4618 100.274 57.4826 100.255C58.4174 99.3758 59.3022 98.2199 60.0413 96.9123C60.5249 96.0567 60.9194 95.1848 61.214 94.3208C61.2232 94.2939 61.2527 94.2793 61.2795 94.2887C61.3064 94.2978 61.3209 94.3271 61.3116 94.3541C61.015 95.2242 60.6178 96.102 60.1311 96.963C59.3869 98.2797 58.4955 99.4439 57.5532 100.33C57.5433 100.339 57.5306 100.344 57.5179 100.344Z" fill="#363E44"/>
<path d="M60.1323 98.8376C60.1323 98.8376 64.8497 91.773 63.5911 87.6003C62.65 84.4803 58.3826 82.8489 58.3826 82.8489L52.7275 95.4897L60.1323 98.8376Z" fill="white"/>
<path d="M69.3197 101.715L67.3502 93.7366L63.7002 94.6377L64.7686 98.9656C65.2663 100.981 67.3039 102.212 69.3197 101.715Z" fill="#D87355"/>
<path d="M64.951 99.6573C64.9419 99.6573 64.9327 99.6549 64.9244 99.6499C64.8999 99.6351 64.8921 99.6035 64.9068 99.5791L65.437 98.7013C65.4517 98.6769 65.4834 98.669 65.5078 98.6838C65.5322 98.6985 65.54 98.7302 65.5253 98.7546L64.9952 99.6323C64.9855 99.6484 64.9685 99.6573 64.951 99.6573Z" fill="white"/>
<path d="M65.389 100.398C65.3799 100.398 65.3707 100.396 65.3624 100.391C65.3379 100.376 65.3301 100.344 65.3448 100.32L65.8749 99.4422C65.8897 99.4178 65.9213 99.4099 65.9457 99.4247C65.9702 99.4395 65.978 99.4711 65.9633 99.4955L65.4332 100.373C65.4235 100.389 65.4065 100.398 65.389 100.398Z" fill="white"/>
<path d="M40.5526 90.7054C35.9815 91.3378 33.4693 91.7553 32.4653 91.8817C32.3602 91.895 32.1747 91.9192 31.9342 91.8841C31.0428 91.7543 30.8234 91.0192 29.9484 90.455C28.9556 89.8148 28.0341 90.0164 27.9958 89.7172C27.9692 89.5091 28.2953 89.3351 29.0357 89.2516C29.0357 89.2516 29.0357 89.2515 29.0357 89.2515C28.4659 89.2503 27.6932 89.215 27.6948 88.9001C27.7161 88.5367 28.6287 88.4715 29.1828 88.4591C28.5121 88.4741 28.151 88.2815 28.1957 88.1061C28.2659 87.8301 28.7833 87.6974 29.6703 87.7119C29.6704 87.7119 29.6704 87.7119 29.6703 87.7119C29.0606 87.5308 28.9397 87.396 29.017 87.2506C29.1579 86.9852 29.8871 87.0108 30.528 87.1323C31.2497 87.2691 31.7619 87.6255 32.0795 87.858C32.0796 87.858 32.0798 87.8581 32.0799 87.858C35.2355 87.0832 38.8761 86.6023 38.8761 86.6023C39.6024 85.9837 43.5704 82.5668 43.8944 82.6007C45.5684 82.7755 46.2154 86.0547 46.3475 86.8994C46.4225 87.3801 40.5526 90.7054 40.5526 90.7054Z" fill="white"/>
<path d="M30.8715 90.7851C29.7263 91.019 29.3628 91.346 29.4057 91.5263C29.4778 91.8295 30.5372 92.0301 32.254 91.8991C31.8966 91.5542 31.2288 91.13 30.8715 90.7851Z" fill="white"/>
<path d="M31.3862 91.7016C31.3769 91.7016 31.3675 91.6991 31.359 91.6938C31.137 91.5552 30.954 91.3677 30.7604 91.1692C30.6705 91.0772 30.5776 90.9819 30.4762 90.8867C30.4555 90.8672 30.4544 90.8346 30.474 90.8138C30.4934 90.793 30.5261 90.792 30.5468 90.8116C30.6499 90.9084 30.7435 91.0044 30.8342 91.0972C31.0234 91.2911 31.2022 91.4743 31.4136 91.6063C31.4377 91.6214 31.4451 91.6532 31.43 91.6774C31.4203 91.693 31.4035 91.7016 31.3862 91.7016Z" fill="#363E44"/>
<path d="M43.673 81.0415L39.9272 84.7621L44.5563 89.338L45.163 88.7243C47.2844 91.6225 50.6912 92.5479 50.6912 92.5479L58.3823 82.848C46.5042 74.6824 44.5787 79.9075 43.673 81.0415Z" fill="#D87355"/>
<path d="M43.1242 101.698C42.5381 102.71 42.1124 102.95 41.9551 102.852C41.6906 102.687 41.8375 101.619 42.508 100.033C42.7213 100.482 42.911 101.25 43.1242 101.698Z" fill="white"/>
<path d="M46.4254 92.7429C44.3714 96.8752 43.031 98.9271 42.5917 99.8387C42.5457 99.9342 42.4638 100.102 42.4205 100.341C42.2599 101.228 42.887 101.67 43.1435 102.679C43.4345 103.824 42.9502 104.633 43.2217 104.765C43.4105 104.856 43.6792 104.602 43.9939 103.927C43.9939 103.927 43.9941 103.927 43.994 103.927C43.8139 104.468 43.6015 105.211 43.9005 105.31C44.2518 105.405 44.604 104.561 44.792 104.04C44.5644 104.671 44.6321 105.074 44.8125 105.088C45.0965 105.109 45.387 104.661 45.6554 103.815C45.6332 104.451 45.7226 104.608 45.885 104.582C46.1815 104.532 46.3891 103.833 46.4779 103.187C46.5778 102.459 46.4029 101.86 46.2836 101.485C46.2836 101.485 46.2836 101.485 46.2837 101.484C48.0224 98.7394 50.9905 94.0664 50.9905 94.0664L51.677 88.683H46.8716C46.8716 88.683 46.4255 92.7429 46.4254 92.7429Z" fill="white"/>
<path d="M42.9496 102.071C42.93 102.071 42.9113 102.06 42.9026 102.041C42.8446 101.914 42.7838 101.796 42.7251 101.681C42.5986 101.435 42.4792 101.201 42.4184 100.947C42.4118 100.919 42.4289 100.892 42.4566 100.885C42.4845 100.879 42.5121 100.895 42.5187 100.923C42.5766 101.166 42.6933 101.393 42.8169 101.634C42.8761 101.75 42.9374 101.869 42.9964 101.998C43.0082 102.024 42.9969 102.054 42.971 102.066C42.964 102.069 42.9567 102.071 42.9496 102.071Z" fill="#363E44"/>
<path d="M41.176 80.522C42.91 81.466 46.8231 79.1805 46.8231 79.1805L48.1384 75.3022C49.2178 72.1192 46.7268 68.7879 43.3761 69.0515C43.3075 69.0569 43.2387 69.0637 43.1697 69.0719C40.4119 69.4017 38.4436 71.9047 38.7734 74.6625C38.7734 74.6625 39.4099 79.5605 41.176 80.522Z" fill="white"/>
<path d="M47.7654 81.9103L47.7097 81.9471C46.7977 82.5509 45.5656 82.2633 45.0152 81.3181L41.5146 75.3067C40.9945 74.4136 41.2824 73.2687 42.1631 72.7278C43.0673 72.1726 44.251 72.4642 44.7937 73.376L48.35 79.3506C48.8694 80.2231 48.6121 81.3497 47.7654 81.9103Z" fill="white"/>
<path d="M44.3548 80.2921C44.3354 80.2921 44.3168 80.2811 44.3081 80.2623C44.296 80.2365 44.3072 80.2058 44.333 80.1938C45.0245 79.8716 45.5093 79.5878 45.514 79.585C45.5386 79.5706 45.5702 79.5788 45.5846 79.6033C45.599 79.6279 45.5908 79.6595 45.5663 79.6739C45.5614 79.6768 45.0729 79.9628 44.3766 80.2872C44.3695 80.2905 44.3621 80.2921 44.3548 80.2921Z" fill="#363E44"/>
<path d="M39.4332 76.1501C39.4332 76.1501 38.4154 77.5084 38.5158 77.8229C38.6356 78.1983 39.9598 78.2776 39.9598 78.2776C39.9598 78.2776 39.4027 76.1567 39.4332 76.1501Z" fill="white"/>
<path d="M43.7357 75.2418C43.7357 75.2418 42.9447 74.9309 42.0489 75.0381C41.8583 75.0609 42.4002 76.5432 42.5708 76.4352C43.3209 75.9603 43.7357 75.2418 43.7357 75.2418Z" fill="white"/>
<path d="M41.4692 75.1706C41.662 75.1032 41.8566 75.062 42.0465 75.0391C42.465 75.3924 42.6483 75.9256 42.5712 76.4349C42.4004 76.5431 42.2123 76.6388 42.0076 76.7105C40.9047 77.0962 39.7412 76.639 39.7412 76.639C39.7412 76.639 40.3662 75.5563 41.4692 75.1706Z" fill="black"/>
<path d="M41.0487 78.9711C40.966 78.9711 40.8827 78.9527 40.8054 78.9151C40.7798 78.9027 40.7691 78.8718 40.7816 78.8462C40.794 78.8206 40.8248 78.8099 40.8504 78.8224C41.0103 78.9 41.2009 78.8772 41.3364 78.7643C41.4669 78.6557 41.5252 78.478 41.4851 78.3117C41.4784 78.284 41.4954 78.2561 41.5231 78.2495C41.5504 78.2428 41.5786 78.2598 41.5853 78.2875C41.6346 78.4917 41.5628 78.7099 41.4024 78.8436C41.3016 78.9277 41.1758 78.9711 41.0487 78.9711Z" fill="#363E44"/>
<path d="M47.0587 75.4421C47.2909 74.6015 46.8957 73.759 46.1762 73.5603C45.4567 73.3616 44.6852 73.8819 44.453 74.7225C44.2209 75.563 44.616 76.4055 45.3355 76.6042C46.0551 76.803 46.8266 76.2826 47.0587 75.4421Z" fill="white"/>
<path d="M46.3617 75.4648C46.3543 75.4648 46.3468 75.4632 46.3396 75.4598C46.3139 75.4477 46.3029 75.4169 46.3151 75.3911C46.3369 75.3453 46.3548 75.2969 46.3684 75.2474C46.4222 75.0527 46.4081 74.852 46.3286 74.6826C46.2503 74.5158 46.118 74.3993 45.9559 74.3545C45.8744 74.332 45.7899 74.3288 45.7049 74.3451C45.6767 74.3501 45.6498 74.3321 45.6445 74.3042C45.6391 74.2762 45.6575 74.2492 45.6854 74.2438C45.786 74.2245 45.8863 74.2282 45.9833 74.2551C46.175 74.308 46.3307 74.4443 46.422 74.6387C46.5118 74.8305 46.5282 75.0564 46.4679 75.2749C46.4527 75.3301 46.4326 75.3841 46.4083 75.4353C46.3995 75.454 46.381 75.4648 46.3617 75.4648Z" fill="#363E44"/>
<path d="M49.534 69.4481C47.809 67.3858 45.151 67.4866 44.7576 67.5081C42.7656 66.7761 40.6224 67.193 39.1511 68.6061C37.0062 70.666 37.4669 73.7118 37.5085 73.9595C38.634 73.5714 40.2288 73.2637 41.3654 73.3078L42.0813 71.2202L42.1906 73.4086C43.0891 73.5819 44.1998 73.9585 44.7005 74.3849C44.7434 74.2998 45.1517 73.7144 45.7558 73.6708C46.4881 73.618 47.189 74.274 47.2225 75.0293C47.2739 76.1884 47.2784 77.0329 47.3326 77.6697C51.0929 75.9417 51.4952 71.7932 49.534 69.4481Z" fill="black"/>
<path d="M53.8565 69.7337C54.1935 68.3066 53.3098 66.8766 51.8828 66.5396C50.4557 66.2027 49.0257 67.0864 48.6887 68.5134C48.3518 69.9404 49.2355 71.3705 50.6625 71.7074C52.0896 72.0444 53.5196 71.1607 53.8565 69.7337Z" fill="black"/>
<path d="M51.273 72.477C49.7806 72.477 48.5664 71.2628 48.5664 69.7703C48.5664 68.2779 49.7806 67.0638 51.273 67.0638C52.7654 67.0638 53.9796 68.2779 53.9796 69.7703C53.9796 71.2628 52.7654 72.477 51.273 72.477ZM51.273 67.1669C49.8374 67.1669 48.6695 68.3348 48.6695 69.7703C48.6695 71.2059 49.8374 72.3738 51.273 72.3738C52.7086 72.3738 53.8765 71.2059 53.8765 69.7703C53.8765 68.3348 52.7086 67.1669 51.273 67.1669Z" fill="black"/>
<path d="M52.0205 71.9166C50.5281 71.9166 49.314 70.7024 49.314 69.21C49.314 67.7176 50.5281 66.5034 52.0205 66.5034C53.5129 66.5034 54.7271 67.7176 54.7271 69.21C54.7271 70.7024 53.513 71.9166 52.0205 71.9166ZM52.0205 66.6065C50.585 66.6065 49.4171 67.7744 49.4171 69.21C49.4171 70.6455 50.585 71.8134 52.0205 71.8134C53.4561 71.8134 54.624 70.6455 54.624 69.21C54.624 67.7745 53.4561 66.6065 52.0205 66.6065Z" fill="black"/>
<path d="M43.7991 68.5951C45.2654 68.5951 46.4541 67.4064 46.4541 65.94C46.4541 64.4737 45.2654 63.285 43.7991 63.285C42.3328 63.285 41.144 64.4737 41.144 65.94C41.144 67.4064 42.3328 68.5951 43.7991 68.5951Z" fill="black"/>
<path d="M43.2388 68.6467C41.7464 68.6467 40.5322 67.4325 40.5322 65.9401C40.5322 64.4477 41.7464 63.2335 43.2388 63.2335C44.7313 63.2335 45.9454 64.4477 45.9454 65.9401C45.9454 67.4325 44.7313 68.6467 43.2388 68.6467ZM43.2388 63.3366C41.8033 63.3366 40.6354 64.5045 40.6354 65.94C40.6354 67.3756 41.8033 68.5435 43.2388 68.5435C44.6744 68.5435 45.8423 67.3756 45.8423 65.94C45.8423 64.5045 44.6744 63.3366 43.2388 63.3366Z" fill="black"/>
<path d="M62.307 21.4424H47.7026V36.0468H62.307V21.4424Z" fill="#D87355"/>
<path d="M57.8783 29.5586C57.7884 30.3282 57.5043 30.9221 57.0263 31.3402C56.5483 31.7583 55.9127 31.9673 55.1198 31.9673C54.2603 31.9673 53.5714 31.6592 53.0534 31.0428C52.5353 30.4265 52.2764 29.602 52.2764 28.5691V27.8695C52.2764 27.1932 52.3971 26.5985 52.6387 26.0854C52.8802 25.5724 53.2225 25.1784 53.6656 24.9036C54.1087 24.6287 54.6218 24.4913 55.2048 24.4913C55.9777 24.4913 56.5973 24.707 57.0638 25.1384C57.5303 25.5699 57.8018 26.1671 57.8784 26.93H56.9139C56.8306 26.3486 56.6498 25.9275 56.3717 25.6669C56.0934 25.4062 55.7045 25.2759 55.2048 25.2759C54.5917 25.2759 54.1112 25.5026 53.7631 25.9561C53.4149 26.4096 53.2408 27.0548 53.2408 27.8916V28.5969C53.2408 29.3872 53.4057 30.0158 53.7356 30.4825C54.0654 30.9493 54.5268 31.1827 55.1199 31.1827C55.6529 31.1827 56.0619 31.062 56.3467 30.8204C56.6315 30.5788 56.8206 30.1583 56.9139 29.5585L57.8783 29.5586Z" fill="white"/>
<path d="M50.8441 15.3008H36.2397V29.9052H50.8441V15.3008Z" fill="#E98029"/>
<path d="M41.0635 25.7256V18.4494H43.4422C44.2318 18.4494 44.8256 18.6127 45.2238 18.9391C45.6219 19.2657 45.8209 19.7487 45.8209 20.3884C45.8209 20.7282 45.7243 21.0289 45.5311 21.2904C45.3378 21.5519 45.0746 21.7544 44.7415 21.8976C45.1346 22.0075 45.4453 22.2167 45.6735 22.5248C45.9017 22.833 46.0158 23.2003 46.0158 23.6267C46.0158 24.2797 45.8042 24.7928 45.3812 25.1659C44.958 25.539 44.36 25.7256 43.5871 25.7256H41.0635ZM42.0229 21.5528H43.4722C43.892 21.5528 44.2275 21.4477 44.4791 21.2373C44.7306 21.0269 44.8564 20.7415 44.8564 20.3809C44.8564 19.9802 44.7398 19.6889 44.5066 19.507C44.2734 19.3251 43.9186 19.2341 43.4422 19.2341H42.0229V21.5528ZM42.0229 22.3224V24.941H43.6071C44.0535 24.941 44.4058 24.8252 44.6641 24.5936C44.9222 24.3622 45.0513 24.0432 45.0513 23.6367C45.0513 22.7605 44.5749 22.3224 43.6221 22.3224H42.0229Z" fill="white"/>
<path d="M39.5861 22.0549H21.4268V40.2143H39.5861V22.0549Z" fill="white"/>
<path d="M32.4204 32.65H28.63L27.7786 35.0175H26.5483L30.0032 25.9702H31.0471L34.5082 35.0175H33.2841L32.4204 32.65ZM28.9903 31.6745H32.0662L30.5252 27.4429L28.9903 31.6745Z" fill="#E6D0BE"/>
</g>
</g>
</g>
<defs>
<clipPath id="clip0_177_5798">
<rect width="94" height="120" fill="white"/>
</clipPath>
<clipPath id="clip1_177_5798">
<rect x="-0.37207" y="11.5" width="94.7442" height="97" rx="7.51938" fill="white"/>
</clipPath>
<clipPath id="clip2_177_5798">
<rect x="-0.37207" y="11.5" width="94.7442" height="97" rx="7.51938" fill="white"/>
</clipPath>
</defs>
</svg>
