<svg width="292" height="408" viewBox="0 0 292 408" fill="none" xmlns="http://www.w3.org/2000/svg">
<rect width="292" height="408" rx="24" fill="#E7F2FF"/>
<path d="M93.6615 28.08V38.192H93.5335C93.5335 37.424 92.8295 29.744 85.5975 29.744H74.5895V51.568H84.9575C90.5895 51.568 91.1655 45.936 91.1655 45.36H91.2295V59.44H91.1655C91.1655 58.864 90.5895 53.232 84.9575 53.232H74.5895V76.336H86.8775C94.1095 76.336 94.8135 68.656 94.8135 67.888H94.9415V78H60.2535V77.872C60.6375 77.872 64.2215 77.296 64.2215 70.832V35.248C64.2215 28.784 60.6375 28.208 60.2535 28.208V28.08H93.6615ZM102.042 78V77.872C102.426 77.872 106.01 77.296 106.01 70.832V35.248C106.01 28.784 102.426 28.208 102.042 28.208V28.08H113.946L141.594 61.68V35.248C141.594 28.784 138.01 28.208 137.626 28.208V28.08H147.354V28.208C146.97 28.208 143.386 28.784 143.386 35.248V78.384L107.802 35.248V70.832C107.802 77.296 111.386 77.872 111.77 77.872V78H102.042ZM188.379 28.08V38.192H188.251C188.251 37.424 187.547 29.744 180.315 29.744H168.027V53.488H179.675C185.307 53.488 185.883 47.856 185.883 47.28H185.947V61.36H185.883C185.883 60.784 185.307 55.152 179.675 55.152H168.027V70.832C168.027 77.296 171.611 77.872 171.995 77.872V78H153.691V77.872C154.075 77.872 157.659 77.296 157.659 70.832V35.248C157.659 28.784 154.075 28.208 153.691 28.208V28.08H188.379ZM195.754 78V77.872C196.138 77.872 199.722 77.296 199.722 70.832V35.248C199.722 28.784 196.138 28.208 195.754 28.208V28.08H214.122C221.162 28.08 226.282 29.36 229.482 32.24C231.978 34.48 233.258 37.872 233.258 42.416C233.258 48.368 230.634 52.72 226.41 55.536C222.698 58.032 217.706 59.248 212.202 59.248H210.09V70.832C210.09 77.296 213.674 77.872 214.058 77.872V78H195.754ZM210.09 57.584H211.562C214.57 57.584 217.066 56.624 218.858 54.832C221.418 52.336 222.762 48.176 222.762 42.736C222.762 37.872 221.802 34.544 219.946 32.432C218.282 30.576 215.85 29.744 212.842 29.744H210.09V57.584Z" fill="#3C77BE"/>
<path d="M22.56 116V115.96C22.68 115.96 23.8 115.78 23.8 113.76V102.64C23.8 100.62 22.68 100.44 22.56 100.44V100.4H26.28L34.92 110.9V102.64C34.92 100.62 33.8 100.44 33.68 100.44V100.4H36.72V100.44C36.6 100.44 35.48 100.62 35.48 102.64V116.12L24.36 102.64V113.76C24.36 115.78 25.48 115.96 25.6 115.96V116H22.56ZM42.6228 119.86C43.6828 119.86 44.3628 119.44 44.8028 118.84C45.4828 117.9 45.6028 116.52 45.6028 115.52V114.4C44.9828 115.54 43.7228 116.24 42.3628 116.24C39.2828 116.24 37.3628 113.88 37.3628 110.56C37.3628 106.84 39.2828 104.08 42.6828 104.08C44.2828 104.08 45.0828 104.74 45.6028 105.46V104.28H50.0428V104.32C49.9228 104.32 48.8028 104.5 48.8028 106.52V115.2C48.8028 116.9 48.1628 118.08 47.2628 118.88C46.0428 119.98 44.3228 120.34 43.1028 120.34C41.1028 120.34 39.8028 119.64 39.0628 119.64V116.56H39.1228C39.3028 117.6 39.7828 118.34 40.3428 118.86C41.1428 119.6 42.1028 119.86 42.6228 119.86ZM40.5428 110.36C40.5428 113.12 41.5228 115.36 43.2628 115.36C44.2828 115.36 45.0228 114.76 45.6028 113.38V106.52C45.0828 105.42 44.3428 105.16 43.7628 105.16C41.9228 105.16 40.5428 107.2 40.5428 110.36ZM55.6914 116.2C54.6914 116.2 53.7914 115.9 53.1314 115.32C52.4914 114.74 52.0914 113.88 52.0914 112.74V106.52C52.0914 104.5 50.9714 104.32 50.8514 104.32V104.28H55.2914V112.48C55.2914 112.98 55.3314 113.64 55.5914 114.18C55.8514 114.7 56.3114 115.08 57.0114 115.08C58.4314 115.08 59.4514 113.66 59.4514 111.7V106.52C59.4514 104.5 58.3314 104.32 58.2114 104.32V104.28H62.6514V105.08C62.9714 104.82 63.0714 104.54 63.0914 104.28C63.0914 104.06 63.0114 103.54 62.2114 103.34V103.32L63.8714 102.16C64.1114 102.34 64.4514 102.96 64.4114 103.5C64.3514 104.46 63.3314 105.1 62.6514 105.4V113.76C62.6514 115.78 63.7714 115.96 63.8914 115.96V116H59.4514V113.92C58.9714 115.04 57.8914 116.2 55.6914 116.2ZM71.3269 116.24C67.4469 116.24 65.5269 113.48 65.5269 110.16C65.5269 106.84 67.4469 104.08 71.3269 104.08C72.8069 104.08 74.0069 104.48 74.9269 105.16C75.0669 104.96 75.1069 104.74 75.0869 104.56C75.0669 104.34 74.9469 103.84 74.1269 103.7V103.68L75.6869 102.38C75.9469 102.54 76.3269 103.14 76.3469 103.68C76.3669 104.42 75.7869 105.02 75.2269 105.42C76.4869 106.54 77.1269 108.26 77.1269 110.16C77.1269 113.48 75.2069 116.24 71.3269 116.24ZM68.8069 110.16C68.8069 113.12 69.4869 115.76 71.3269 115.76C73.1669 115.76 73.8669 113.12 73.8669 110.16C73.8669 107.2 73.1669 104.56 71.3269 104.56C69.4869 104.56 68.8069 107.2 68.8069 110.16ZM69.2069 101.8V101.74L70.2669 100.26H70.3269C71.1469 101.4 72.6069 102.96 73.5669 103.34L73.5069 103.4C72.3269 103.24 70.2269 102.58 69.2069 101.8ZM79.5636 106.52C79.5636 104.5 78.4436 104.32 78.3236 104.32V104.28H82.7636V113.76C82.7636 115.78 83.8836 115.96 84.0036 115.96V116H78.3236V115.96C78.4436 115.96 79.5636 115.78 79.5636 113.76V106.52ZM79.3636 101.44C79.3636 100.5 80.1436 99.72 81.0836 99.72C82.0236 99.72 82.8036 100.5 82.8036 101.44C82.8036 102.38 82.0236 103.16 81.0836 103.16C80.1436 103.16 79.3636 102.38 79.3636 101.44ZM93.8814 112.92C93.8814 114.1 94.0414 115.16 95.2214 115.16C96.1014 115.16 96.9214 114.62 97.3214 114.22H97.3814C97.2414 114.68 95.7814 116.14 93.7414 116.14C92.0014 116.14 90.6814 115.64 90.6814 113.28V104.76H89.6814V104.28H90.6814V101.2H93.8814V104.28H97.2014V104.76H93.8814V112.92ZM99.3488 106.52C99.3488 104.5 98.2288 104.32 98.1088 104.32V104.28H102.549V106.36C103.029 105.24 103.789 104.08 105.509 104.08C106.589 104.08 106.889 104.28 107.049 104.28V108.2H107.009C107.009 107.32 106.649 106.56 106.069 106.1C105.669 105.78 105.169 105.6 104.609 105.6C103.249 105.6 102.549 106.62 102.549 108.58V113.76C102.549 115.78 103.669 115.96 103.789 115.96V116H98.1088V115.96C98.2288 115.96 99.3488 115.78 99.3488 113.76V106.52ZM112.605 116.2C111.605 116.2 110.705 115.9 110.045 115.32C109.405 114.74 109.005 113.88 109.005 112.74V106.52C109.005 104.5 107.885 104.32 107.765 104.32V104.28H112.205V112.48C112.205 112.98 112.245 113.64 112.505 114.18C112.765 114.7 113.225 115.08 113.925 115.08C115.345 115.08 116.365 113.66 116.365 111.7V106.52C116.365 104.5 115.245 104.32 115.125 104.32V104.28H119.565V113.76C119.565 115.78 120.685 115.96 120.805 115.96V116H116.365V113.92C115.885 115.04 114.805 116.2 112.605 116.2ZM130.706 106.48C131.566 104.64 130.586 104.32 130.546 104.32V104.28H133.546V104.32C133.346 104.32 132.086 104.64 131.246 106.48L126.386 117.18C125.766 118.52 125.006 120.12 123.586 120.12C123.106 120.12 122.866 120.06 122.746 120.04V117.84H122.806C123.046 118.08 123.346 118.18 123.746 118.18C124.626 118.18 125.646 117.74 126.226 116.34L126.526 115.62L122.546 106.62C121.666 104.66 120.426 104.32 120.246 104.32V104.28H125.966V104.32C125.946 104.32 124.986 104.64 125.806 106.48L128.206 111.94L130.706 106.48ZM139.18 116.24C135.3 116.24 133.3 113.68 133.3 110.36C133.3 106.84 135.7 104.08 139.52 104.08C142.66 104.08 143.9 105.72 143.9 107.52C143.9 110.26 140.32 111.08 136.6 111.1C136.78 113.5 137.8 115.36 140.32 115.36C141.94 115.36 142.88 114.42 143.44 113.6L143.5 113.64C143.38 114.02 142.5 116.24 139.18 116.24ZM136.14 103.46L136.18 103.48C137.34 103.46 138.78 102.82 139.48 102.36H139.52C140.22 102.82 141.66 103.46 142.82 103.48L142.86 103.46C141.8 102.98 140.08 101.48 139.52 100.56H139.48C138.92 101.48 137.2 102.98 136.14 103.46ZM136.58 110.62C140.12 110.6 141.5 109.06 141.5 107C141.5 105.74 140.82 104.56 139.58 104.56C137.54 104.56 136.6 107.2 136.58 110.62ZM140.36 100.48V100.42L141.42 98.94H141.48C142.3 100.08 143.76 101.64 144.72 102.02L144.66 102.08C143.48 101.92 141.38 101.26 140.36 100.48ZM146.341 106.52C146.341 104.5 145.221 104.32 145.101 104.32V104.28H149.541V106.36C150.021 105.24 151.101 104.08 153.301 104.08C154.301 104.08 155.201 104.38 155.861 104.96C156.501 105.54 156.901 106.4 156.901 107.54V113.76C156.901 115.78 158.021 115.96 158.141 115.96V116H152.461V115.96C152.581 115.96 153.701 115.78 153.701 113.76V107.8C153.701 107.3 153.661 106.64 153.401 106.1C153.141 105.58 152.681 105.2 151.981 105.2C150.561 105.2 149.541 106.62 149.541 108.58V113.76C149.541 115.78 150.661 115.96 150.781 115.96V116H145.101V115.96C145.221 115.96 146.341 115.78 146.341 113.76V106.52ZM169.786 116.24C165.906 116.24 163.906 113.68 163.906 110.16C163.906 106.84 166.106 104.08 170.186 104.08C171.906 104.08 173.226 104.68 173.806 104.68V107.88H173.746C173.666 107.32 173.506 106.26 172.866 105.48C172.446 104.96 171.786 104.56 170.786 104.56C167.946 104.56 167.186 107.2 167.186 110.16C167.186 113.12 168.346 115.36 171.006 115.36C172.546 115.36 173.486 114.54 174.046 113.6L174.106 113.64C173.986 114.02 173.106 116.24 169.786 116.24ZM179.384 104.92C177.144 104.92 175.744 106.78 175.564 107.94H175.504C175.684 105.84 177.384 104.08 180.524 104.08C181.604 104.08 183.144 104.24 184.184 105.12C184.824 105.68 185.264 106.52 185.264 107.8V113.76C185.264 115.78 186.384 115.96 186.504 115.96V116H182.064V114.18C181.504 115.12 180.324 116.12 178.204 116.12C176.284 116.12 174.824 115.2 174.824 113.24C174.824 110.64 177.384 108.9 182.064 108.78V107.88C182.064 106.74 181.784 105.98 181.284 105.52C180.824 105.1 180.164 104.92 179.384 104.92ZM178.024 113.24C178.024 114.2 178.564 115.18 179.664 115.18C181.004 115.18 181.944 113.82 182.064 113.42V109.26C178.984 109.3 178.024 111.78 178.024 113.24ZM178.804 99.72C179.224 99.46 179.824 99.22 180.544 99.22C181.304 99.22 182.244 99.52 182.244 100.44C182.244 101.76 180.144 101.78 180.144 103.02C180.104 103.02 180.024 102.98 180.024 102.88C180.024 101.36 180.704 101.32 180.704 100.38C180.704 99.94 180.484 99.78 180.244 99.78C179.584 99.78 179.204 100.68 179.204 101.68H179.084L178.804 99.72ZM202.26 116V115.96C202.38 115.96 203.5 115.78 203.5 113.76V107.8C203.5 107.3 203.46 106.64 203.2 106.1C202.94 105.58 202.48 105.2 201.78 105.2C200.36 105.2 199.38 106.62 199.38 108.58V113.76C199.38 115.78 200.5 115.96 200.62 115.96V116H194.94V115.96C195.06 115.96 196.18 115.78 196.18 113.76V107.8C196.18 107.3 196.14 106.64 195.88 106.1C195.62 105.58 195.16 105.2 194.46 105.2C193.04 105.2 192.06 106.62 192.06 108.58V113.76C192.06 115.78 193.18 115.96 193.3 115.96V116H187.62V115.96C187.74 115.96 188.86 115.78 188.86 113.76V106.52C188.86 104.5 187.74 104.32 187.62 104.32V104.28H192.06V106.36C192.54 105.24 193.58 104.08 195.78 104.08C196.78 104.08 197.68 104.38 198.34 104.96C198.78 105.36 199.12 105.92 199.28 106.6C199.88 105.24 200.9 104.08 203.1 104.08C204.1 104.08 205 104.38 205.66 104.96C206.3 105.54 206.7 106.4 206.7 107.54V113.76C206.7 115.78 207.82 115.96 207.94 115.96V116H202.26ZM214.87 102.24C214.87 100.22 213.75 100.04 213.63 100.04V100H218.07V106.36C218.55 105.24 219.63 104.08 221.83 104.08C222.83 104.08 223.73 104.38 224.39 104.96C225.03 105.54 225.43 106.4 225.43 107.54V113.76C225.43 115.78 226.55 115.96 226.67 115.96V116H220.99V115.96C221.11 115.96 222.23 115.78 222.23 113.76V107.8C222.23 107.3 222.19 106.64 221.93 106.1C221.67 105.58 221.21 105.2 220.51 105.2C219.09 105.2 218.07 106.62 218.07 108.58V113.76C218.07 115.78 219.19 115.96 219.31 115.96V116H213.63V115.96C213.75 115.96 214.87 115.78 214.87 113.76V102.24ZM232.156 116.2C231.156 116.2 230.256 115.9 229.596 115.32C228.956 114.74 228.556 113.88 228.556 112.74V106.52C228.556 104.5 227.436 104.32 227.316 104.32V104.28H231.756V112.48C231.756 112.98 231.796 113.64 232.056 114.18C232.316 114.7 232.776 115.08 233.476 115.08C234.896 115.08 235.916 113.66 235.916 111.7V106.52C235.916 104.5 234.796 104.32 234.676 104.32V104.28H239.116V105.08C239.436 104.82 239.536 104.54 239.556 104.28C239.556 104.06 239.476 103.54 238.676 103.34V103.32L240.336 102.16C240.576 102.34 240.916 102.96 240.876 103.5C240.816 104.46 239.796 105.1 239.116 105.4V113.76C239.116 115.78 240.236 115.96 240.356 115.96V116H235.916V113.92C235.436 115.04 234.356 116.2 232.156 116.2ZM231.336 103.34C232.296 102.96 233.756 101.4 234.576 100.26H234.636L235.696 101.74V101.8C234.676 102.58 232.576 103.24 231.396 103.4L231.336 103.34ZM243.235 106.52C243.235 104.5 242.115 104.32 241.995 104.32V104.28H246.435V106.36C246.915 105.24 247.995 104.08 250.195 104.08C251.195 104.08 252.095 104.38 252.755 104.96C253.395 105.54 253.795 106.4 253.795 107.54V113.76C253.795 115.78 254.915 115.96 255.035 115.96V116H249.355V115.96C249.475 115.96 250.595 115.78 250.595 113.76V107.8C250.595 107.3 250.555 106.64 250.295 106.1C250.035 105.58 249.575 105.2 248.875 105.2C247.455 105.2 246.435 106.62 246.435 108.58V113.76C246.435 115.78 247.555 115.96 247.675 115.96V116H241.995V115.96C242.115 115.96 243.235 115.78 243.235 113.76V106.52ZM261.256 119.86C262.316 119.86 262.996 119.44 263.436 118.84C264.116 117.9 264.236 116.52 264.236 115.52V114.4C263.616 115.54 262.356 116.24 260.996 116.24C257.916 116.24 255.996 113.88 255.996 110.56C255.996 106.84 257.916 104.08 261.316 104.08C262.916 104.08 263.716 104.74 264.236 105.46V104.28H268.676V104.32C268.556 104.32 267.436 104.5 267.436 106.52V115.2C267.436 116.9 266.796 118.08 265.896 118.88C264.676 119.98 262.956 120.34 261.736 120.34C259.736 120.34 258.436 119.64 257.696 119.64V116.56H257.756C257.936 117.6 258.416 118.34 258.976 118.86C259.776 119.6 260.736 119.86 261.256 119.86ZM259.176 110.36C259.176 113.12 260.156 115.36 261.896 115.36C262.916 115.36 263.656 114.76 264.236 113.38V106.52C263.716 105.42 262.976 105.16 262.396 105.16C260.556 105.16 259.176 107.2 259.176 110.36Z" fill="#3C77BE"/>
<g clip-path="url(#clip0_1_3125)">
<path d="M139.478 382.957C205.465 382.957 258.957 329.465 258.957 263.478C258.957 197.492 205.465 144 139.478 144C73.4923 144 20 197.492 20 263.478C20 329.465 73.4923 382.957 139.478 382.957Z" fill="#3C77BE"/>
<path d="M51.5022 215.062L53.4004 214.243C53.9693 215.095 54.5999 215.891 55.2826 216.627L54.0489 218.284L59.6599 222.462L60.8965 220.801C61.8057 221.248 62.7488 221.623 63.7167 221.922L63.4762 223.978L70.4247 224.791L70.6647 222.74C71.6664 222.673 72.6708 222.528 73.6693 222.299L74.4879 224.197L80.912 221.426L80.0935 219.528C80.9455 218.959 81.7407 218.329 82.4766 217.646L84.1334 218.88L88.3117 213.269L86.6511 212.032C87.0979 211.123 87.4727 210.18 87.7718 209.212L89.8283 209.452L90.6412 202.504L88.5895 202.264C88.5229 201.262 88.3773 200.258 88.1483 199.259L90.0465 198.44L87.2763 192.016L85.3781 192.835C84.809 191.983 84.1786 191.188 83.4958 190.452L84.7296 188.795L79.1184 184.616L77.882 186.277C76.9728 185.83 76.0296 185.455 75.0617 185.156L75.3022 183.1L68.3536 182.287L68.1136 184.339C67.1118 184.405 66.1076 184.551 65.1089 184.78L64.2903 182.882L57.8663 185.652L58.6849 187.55C57.8329 188.119 57.0375 188.749 56.3017 189.432L54.6448 188.199L50.4665 193.81L52.127 195.046C51.6802 195.956 51.3054 196.899 51.0063 197.867L48.9498 197.626L48.137 204.575L50.1887 204.815C50.2553 205.816 50.4009 206.821 50.6299 207.819L48.7317 208.638L51.5022 215.062ZM65.3362 193.224C70.7381 191.096 76.9494 193.565 79.4172 198.82C82.1422 204.623 79.4073 211.505 73.4424 213.854C68.0406 215.982 61.8292 213.514 59.3614 208.258C56.6363 202.456 59.3713 195.574 65.3362 193.224Z" fill="#F7F1EB"/>
<path d="M69.3883 219.133C64.6883 219.133 60.1076 217.007 57.0863 213.123C56.9887 212.998 57.0113 212.817 57.1369 212.719C57.2618 212.621 57.4432 212.644 57.5408 212.769C61.7358 218.162 69.0534 220.037 75.3353 217.328C79.0184 215.739 81.8624 212.812 83.3438 209.085C84.825 205.357 84.766 201.276 83.1777 197.593C80.2585 190.824 72.6905 187.135 65.5749 189.014C65.4211 189.054 65.2635 188.963 65.223 188.809C65.1824 188.655 65.2742 188.498 65.4279 188.457C72.8178 186.507 80.6755 190.336 83.7065 197.365C85.3556 201.189 85.4168 205.427 83.8787 209.297C82.3407 213.168 79.3875 216.207 75.5633 217.856C73.5647 218.718 71.4646 219.133 69.3883 219.133Z" fill="white"/>
<path d="M219.398 255.092C219.387 255.092 219.375 255.092 219.364 255.09L212.416 254.278C212.258 254.259 212.145 254.116 212.163 253.958L212.376 252.138C211.552 251.872 210.74 251.55 209.958 251.177L208.864 252.647C208.818 252.708 208.75 252.749 208.675 252.76C208.599 252.771 208.522 252.752 208.461 252.706L202.85 248.528C202.722 248.433 202.696 248.252 202.791 248.125L203.882 246.659C203.3 246.015 202.758 245.329 202.269 244.615L200.589 245.339C200.443 245.402 200.274 245.335 200.211 245.189L197.44 238.765C197.41 238.695 197.409 238.616 197.437 238.545C197.465 238.474 197.521 238.417 197.591 238.387L199.27 237.662C199.087 236.816 198.96 235.951 198.892 235.086L197.077 234.874C196.919 234.855 196.806 234.712 196.824 234.554L197.637 227.606C197.646 227.53 197.685 227.461 197.745 227.413C197.805 227.366 197.881 227.344 197.956 227.353L199.777 227.566C200.042 226.742 200.365 225.931 200.737 225.148L199.268 224.054C199.207 224.008 199.166 223.94 199.155 223.865C199.144 223.789 199.163 223.712 199.209 223.651L203.387 218.04C203.433 217.979 203.501 217.938 203.576 217.927C203.651 217.916 203.729 217.935 203.79 217.981L205.256 219.072C205.9 218.49 206.585 217.948 207.299 217.458L206.575 215.779C206.512 215.633 206.579 215.464 206.725 215.401L213.149 212.63C213.295 212.567 213.465 212.635 213.528 212.781L214.252 214.46C215.099 214.277 215.964 214.15 216.828 214.082L217.041 212.267C217.05 212.191 217.088 212.122 217.148 212.074C217.208 212.027 217.285 212.005 217.36 212.014L224.308 212.827C224.466 212.846 224.58 212.988 224.561 213.146L224.348 214.967C225.172 215.232 225.984 215.555 226.766 215.928L227.86 214.458C227.906 214.396 227.974 214.356 228.049 214.345C228.125 214.333 228.202 214.353 228.263 214.399L233.874 218.577C234.002 218.672 234.028 218.852 233.933 218.98L232.842 220.446C233.424 221.089 233.965 221.775 234.456 222.489L236.135 221.765C236.205 221.735 236.284 221.734 236.355 221.762C236.426 221.79 236.483 221.845 236.513 221.915L239.284 228.34C239.346 228.486 239.279 228.655 239.133 228.718L237.454 229.442C237.637 230.288 237.764 231.153 237.832 232.019L239.647 232.231C239.723 232.24 239.792 232.279 239.84 232.338C239.887 232.398 239.909 232.475 239.9 232.55L239.087 239.499C239.069 239.657 238.925 239.77 238.768 239.751L236.947 239.539C236.681 240.363 236.359 241.174 235.987 241.956L237.457 243.051C237.518 243.096 237.559 243.164 237.57 243.24C237.581 243.316 237.561 243.392 237.516 243.454L233.337 249.065C233.292 249.126 233.224 249.167 233.148 249.178C233.072 249.189 232.996 249.17 232.935 249.124L231.469 248.032C230.825 248.615 230.139 249.156 229.425 249.646L230.149 251.326C230.212 251.472 230.145 251.641 229.999 251.704L223.575 254.474C223.505 254.505 223.426 254.506 223.355 254.477C223.284 254.449 223.227 254.394 223.197 254.324L222.472 252.644C221.626 252.828 220.761 252.954 219.896 253.023L219.684 254.838C219.675 254.914 219.636 254.983 219.576 255.03C219.525 255.071 219.462 255.092 219.398 255.092ZM212.768 253.739L219.145 254.485L219.352 252.72C219.368 252.582 219.48 252.475 219.619 252.466C220.613 252.4 221.609 252.253 222.578 252.031C222.713 252 222.851 252.07 222.907 252.198L223.611 253.832L229.507 251.289L228.802 249.656C228.747 249.528 228.791 249.379 228.906 249.302C229.733 248.75 230.523 248.127 231.254 247.448C231.356 247.354 231.511 247.346 231.622 247.428L233.048 248.49L236.882 243.341L235.452 242.276C235.341 242.193 235.305 242.043 235.366 241.918C235.805 241.025 236.176 240.091 236.47 239.14C236.511 239.008 236.64 238.923 236.778 238.939L238.549 239.146L239.295 232.77L237.529 232.563C237.391 232.547 237.285 232.435 237.275 232.296C237.209 231.301 237.063 230.305 236.841 229.337C236.81 229.201 236.88 229.063 237.007 229.008L238.641 228.303L236.099 222.408L234.465 223.113C234.338 223.168 234.189 223.124 234.112 223.008C233.559 222.181 232.935 221.391 232.258 220.661C232.163 220.559 232.155 220.404 232.238 220.293L233.3 218.867L228.15 215.033L227.086 216.462C227.003 216.574 226.853 216.61 226.728 216.549C225.835 216.11 224.9 215.738 223.95 215.445C223.817 215.404 223.733 215.274 223.749 215.136L223.956 213.366L217.579 212.62L217.373 214.385C217.357 214.523 217.244 214.63 217.106 214.639C216.112 214.705 215.116 214.851 214.147 215.074C214.012 215.105 213.873 215.035 213.818 214.907L213.113 213.273L207.218 215.816L207.923 217.45C207.978 217.577 207.934 217.726 207.818 217.803C206.991 218.355 206.202 218.979 205.471 219.657C205.369 219.751 205.214 219.76 205.103 219.677L203.677 218.615L199.842 223.764L201.272 224.829C201.384 224.912 201.42 225.062 201.359 225.187C200.919 226.081 200.548 227.015 200.255 227.965C200.214 228.098 200.083 228.182 199.946 228.166L198.175 227.959L197.43 234.336L199.195 234.542C199.333 234.558 199.44 234.671 199.449 234.809C199.515 235.804 199.661 236.799 199.884 237.769C199.915 237.904 199.845 238.042 199.717 238.097L198.083 238.802L200.626 244.697L202.259 243.993C202.387 243.937 202.536 243.981 202.613 244.097C203.165 244.924 203.789 245.713 204.467 246.444C204.561 246.546 204.569 246.701 204.487 246.812L203.425 248.238L208.574 252.072L209.639 250.643C209.722 250.531 209.872 250.495 209.997 250.556C210.889 250.995 211.824 251.367 212.775 251.66C212.907 251.701 212.992 251.831 212.976 251.969L212.768 253.739ZM218.378 244.924C214.091 244.924 209.995 242.484 208.074 238.394C206.722 235.515 206.623 232.304 207.795 229.353C208.968 226.402 211.244 224.135 214.204 222.969C219.765 220.779 226.11 223.301 228.651 228.711C230.003 231.59 230.102 234.801 228.929 237.752C227.756 240.703 225.48 242.97 222.521 244.136C221.165 244.67 219.761 244.924 218.378 244.924ZM214.415 223.505C211.604 224.612 209.444 226.764 208.33 229.566C207.217 232.367 207.311 235.416 208.595 238.149C211.007 243.285 217.031 245.679 222.31 243.6C225.12 242.493 227.281 240.341 228.394 237.539C229.507 234.738 229.413 231.689 228.129 228.956C225.718 223.82 219.693 221.426 214.415 223.505Z" fill="#DE7E88"/>
<path d="M127.45 293.291L133.528 253.184L146.321 293.033H172.849L151.068 216.804L113.131 223.415L103.779 288.238L127.45 293.291Z" fill="#363E44"/>
<path d="M93.9043 198.203C93.9044 198.202 89.9088 174.756 89.1278 171.035C89.046 170.645 88.9048 169.957 88.4856 169.145C86.9325 166.138 84.0526 166.259 80.9768 163.843C77.4867 161.101 77.0739 157.58 75.9641 157.811C75.1922 157.971 74.974 159.343 75.5842 162.075C75.5842 162.075 75.5838 162.075 75.5838 162.075C74.8817 160.053 73.8097 157.351 72.6932 157.743C71.4281 158.263 72.3149 161.585 72.9495 163.568C72.1813 161.168 71.0547 160.121 70.4865 160.494C69.5922 161.082 69.7544 163.082 70.8928 166.215L70.8926 166.215C69.5024 164.271 68.8754 164.007 68.4536 164.46C67.6836 165.286 68.6679 167.844 69.8847 169.972C71.2546 172.368 73.1481 173.75 74.3627 174.594C74.363 174.594 74.3633 174.595 74.3633 174.595C75.4766 186.753 76.1416 194.575 76.8757 204.41C77.2533 209.47 92.613 208.235 93.9043 198.203Z" fill="#ECD0C8"/>
<path d="M83.2809 166.717C82.7087 162.363 83.4251 160.671 84.118 160.603C85.2833 160.487 87.2935 164.004 88.9313 170.263C87.2686 169.416 84.9438 167.564 83.2809 166.717Z" fill="#ECD0C8"/>
<path d="M81.3981 174.075C81.2557 174.075 81.1319 173.969 81.1131 173.824C81.0176 173.09 80.7237 172.006 79.8658 171.012C78.6512 169.605 77.05 169.274 76.418 169.197C76.2602 169.178 76.1477 169.035 76.1669 168.877C76.186 168.719 76.3295 168.606 76.4875 168.626C77.1861 168.711 78.9559 169.077 80.3017 170.636C81.2529 171.737 81.5787 172.937 81.6842 173.75C81.7047 173.908 81.5936 174.052 81.4359 174.072C81.4229 174.074 81.4104 174.075 81.3981 174.075Z" fill="#363E44"/>
<path d="M86.9824 167.774C86.9187 167.774 86.8549 167.753 86.8016 167.71C86.0825 167.128 85.2182 166.72 84.303 166.288C83.861 166.079 83.4041 165.863 82.9319 165.615C82.7912 165.541 82.7372 165.367 82.8113 165.226C82.8849 165.085 83.0592 165.031 83.2001 165.105C83.6612 165.348 84.1125 165.561 84.5489 165.767C85.4962 166.214 86.3909 166.637 87.1637 167.262C87.2873 167.362 87.3065 167.544 87.2064 167.667C87.1496 167.737 87.0664 167.774 86.9824 167.774Z" fill="#363E44"/>
<path d="M78.0275 165.525C77.9614 165.525 77.8951 165.503 77.8408 165.456C77.4204 165.098 77.0318 164.699 76.6858 164.271C76.1839 163.65 75.7658 162.961 75.4432 162.225C75.3794 162.08 75.4457 161.91 75.5914 161.846C75.7377 161.782 75.9069 161.849 75.9708 161.994C76.2728 162.684 76.664 163.328 77.1337 163.909C77.4574 164.31 77.8211 164.683 78.2145 165.018C78.3355 165.121 78.3499 165.303 78.2467 165.424C78.1897 165.491 78.1089 165.525 78.0275 165.525Z" fill="#363E44"/>
<path d="M75.3046 166.704C75.2385 166.704 75.1722 166.681 75.1179 166.635C74.6975 166.276 74.3089 165.878 73.9629 165.449C73.461 164.828 73.0429 164.14 72.7203 163.404C72.6565 163.258 72.7228 163.088 72.8685 163.024C73.0147 162.961 73.184 163.027 73.2479 163.173C73.5496 163.862 73.9411 164.506 74.4108 165.087C74.7345 165.488 75.0982 165.861 75.4916 166.197C75.6126 166.3 75.627 166.482 75.5238 166.603C75.4669 166.669 75.3861 166.704 75.3046 166.704Z" fill="#363E44"/>
<path d="M73.2597 169.678C73.1936 169.678 73.1273 169.655 73.073 169.609C72.6526 169.251 72.264 168.852 71.918 168.424C71.4161 167.802 70.9979 167.114 70.6754 166.378C70.6116 166.232 70.6779 166.062 70.8236 165.999C70.9695 165.935 71.1391 166.001 71.203 166.147C71.5047 166.836 71.8962 167.48 72.3659 168.062C72.6896 168.462 73.0532 168.836 73.4467 169.171C73.5677 169.274 73.5821 169.456 73.4789 169.577C73.4219 169.644 73.341 169.678 73.2597 169.678Z" fill="#363E44"/>
<path d="M176.522 218.087C182.241 205.037 163.019 182.415 144.145 180.349C138.689 179.752 133.196 179.161 133.196 179.161C130.429 178.648 115.109 178.921 109.245 181.14C91.3307 187.92 75.4005 196.731 75.3464 204.399C75.198 225.48 110.235 204.498 110.235 204.498L109.881 240.799L160.044 247.189L154.481 210.191C154.481 210.191 172.093 228.19 176.522 218.087Z" fill="#363E44"/>
<path d="M142.322 181.31H127.84V227.299H142.322V181.31Z" fill="#F7F1EB"/>
<path d="M134.76 227.299L130.742 223.282L132.88 189.562L136.158 189.492L138.778 223.282L134.76 227.299Z" fill="#363E44"/>
<path d="M134.584 192.222L139.992 184.415H129.177L134.584 192.222Z" fill="#363E44"/>
<path d="M144.145 248.89C144.077 248.89 144.011 248.866 143.958 248.821C143.899 248.771 143.863 248.699 143.858 248.622L142.933 234.762C142.931 234.73 142.934 234.698 142.942 234.668L151.301 203.556L144.916 202.826C144.811 202.814 144.721 202.746 144.682 202.649C144.642 202.551 144.659 202.44 144.726 202.358L150.684 195.076L147.668 181.017C147.635 180.862 147.734 180.709 147.889 180.675C148.045 180.642 148.198 180.741 148.231 180.896L151.276 195.09C151.294 195.176 151.272 195.265 151.217 195.333L145.505 202.314L151.699 203.022C151.782 203.032 151.857 203.077 151.904 203.146C151.951 203.215 151.966 203.302 151.944 203.383L143.511 234.771L144.413 248.29L160.019 246.902C160.177 246.889 160.317 247.005 160.331 247.164C160.345 247.322 160.228 247.462 160.07 247.476L144.171 248.889C144.162 248.89 144.154 248.89 144.145 248.89Z" fill="white"/>
<path d="M126.045 178.864L134.416 175.694L144.145 180.349L138.775 188.295L134.498 185.197L130.688 188.759L126.045 178.864Z" fill="white"/>
<path d="M90.4296 174.78L72.9355 178.325L74.4843 185.968L91.9784 182.424L90.4296 174.78Z" fill="white"/>
<path d="M75.3464 204.844L72.9709 184.951L92.7162 180.348L96.184 205.343L75.3464 204.844Z" fill="#363E44"/>
<path d="M96.0321 205.971C95.8892 205.971 95.7653 205.865 95.7469 205.719L93.767 190.034C93.747 189.876 93.8588 189.732 94.0166 189.712C94.1745 189.693 94.3183 189.804 94.3382 189.962L96.3183 205.647C96.3383 205.805 96.2265 205.949 96.0688 205.969C96.0563 205.971 96.0441 205.971 96.0321 205.971Z" fill="white"/>
<path d="M142.486 227.299H127.84V232.936H142.486V227.299Z" fill="#84524D"/>
<path d="M127.443 248.005C127.437 248.005 127.432 248.005 127.426 248.004L108.844 246.917C108.685 246.907 108.564 246.771 108.573 246.613C108.582 246.454 108.717 246.333 108.878 246.342L127.155 247.412V239.606L117.415 202.325C117.392 202.236 117.413 202.14 117.472 202.069C117.531 201.998 117.62 201.959 117.713 201.965L124.254 202.393L118.823 196.302C118.761 196.233 118.736 196.138 118.757 196.047L122.573 179.098C122.608 178.942 122.762 178.845 122.917 178.88C123.072 178.915 123.169 179.069 123.135 179.224L119.351 196.03L125.152 202.535C125.229 202.622 125.247 202.748 125.196 202.853C125.144 202.958 125.035 203.021 124.918 203.014L118.074 202.566L127.722 239.496C127.728 239.52 127.731 239.544 127.731 239.569V247.717C127.731 247.796 127.698 247.872 127.641 247.926C127.587 247.977 127.516 248.005 127.443 248.005Z" fill="white"/>
<path d="M147.593 235.842L163.792 244.33C163.792 244.33 184.317 213.016 174.986 207.53C164.831 201.56 147.593 235.842 147.593 235.842Z" fill="#363E44"/>
<path d="M138.772 170.193C142.172 168.464 143.645 164.508 143.889 160.392C144.071 157.322 142.487 155.236 140.17 155.255C138.576 152.638 132.593 152.126 130.073 154.016C125.445 157.487 125.723 167.471 130.9 170.429C134.319 172.383 138.464 170.35 138.772 170.193Z" fill="white"/>
<path d="M128.715 170.681C129.705 170.297 130.04 168.78 129.463 167.294C128.886 165.808 127.615 164.915 126.625 165.3C125.634 165.685 125.299 167.201 125.876 168.687C126.453 170.173 127.724 171.066 128.715 170.681Z" fill="#ECD0C8"/>
<path d="M143.553 169.518C144.268 168.093 144.077 166.551 143.126 166.075C142.176 165.599 140.827 166.368 140.113 167.793C139.398 169.218 139.59 170.76 140.54 171.236C141.49 171.712 142.839 170.943 143.553 169.518Z" fill="#ECD0C8"/>
<path d="M141.989 170.249C141.889 170.249 141.792 170.197 141.739 170.104C141.66 169.966 141.708 169.79 141.846 169.711C142.1 169.567 142.336 169.303 142.494 168.987C142.801 168.374 142.755 167.703 142.393 167.521C142.363 167.506 142.332 167.495 142.299 167.487C142.144 167.452 142.047 167.298 142.082 167.143C142.117 166.988 142.273 166.891 142.427 166.926C142.504 166.944 142.58 166.971 142.651 167.006C143.314 167.339 143.472 168.322 143.009 169.245C142.798 169.666 142.486 170.009 142.131 170.212C142.086 170.237 142.037 170.249 141.989 170.249Z" fill="#363E44"/>
<path d="M127.442 169.564C127.385 169.564 127.327 169.547 127.277 169.512C126.943 169.277 126.665 168.906 126.494 168.467C126.121 167.504 126.37 166.54 127.061 166.272C127.135 166.243 127.213 166.223 127.292 166.213C127.447 166.192 127.594 166.303 127.615 166.461C127.635 166.619 127.524 166.763 127.367 166.784C127.333 166.788 127.301 166.797 127.27 166.809C126.892 166.955 126.783 167.619 127.031 168.258C127.159 168.588 127.369 168.873 127.608 169.041C127.738 169.132 127.77 169.312 127.678 169.442C127.622 169.521 127.533 169.564 127.442 169.564Z" fill="#363E44"/>
<path d="M134.498 185.196L129.94 180.16L129.559 171.893L139.276 171.476L139.651 179.751L134.498 185.196Z" fill="#ECD0C8"/>
<path d="M141.582 165.778C141.405 169.536 139.185 175.392 134.368 175.165C129.551 174.938 127.892 168.899 128.069 165.141C128.164 163.112 128.634 159.718 130.099 158.802C131.348 158.022 133.589 160.137 135.306 160.217C137.172 160.305 138.905 158.308 140.062 159.35C141.219 160.392 141.67 163.899 141.582 165.778Z" fill="#ECD0C8"/>
<path d="M134.339 177.323C142.149 177.38 141.766 164.364 141.766 164.364L127.943 164.611C127.943 164.611 126.765 177.268 134.339 177.323Z" fill="white"/>
<path d="M128.034 165.329C128.038 169.667 130.831 167.519 134.523 167.515C138.215 167.512 141.665 169.763 141.662 165.425C141.658 161.087 138.804 161.128 135.112 161.132C131.42 161.135 128.03 160.991 128.034 165.329Z" fill="#ECD0C8"/>
<path d="M141.171 163.939C141.171 163.939 140.838 164.443 140.245 164.938C139.85 165.267 138.609 165.25 138.609 165.25C138.609 165.25 137.23 165.905 136.662 165.781C136.094 165.658 135.714 165.481 135.714 165.481C135.714 165.481 135.897 165.204 136.233 164.86C136.652 164.43 138.402 164.365 138.402 164.365C138.402 164.365 139.548 163.507 140.099 163.614C140.736 163.737 141.171 163.939 141.171 163.939Z" fill="white"/>
<path d="M138.146 163.658C137.312 163.894 136.658 164.426 136.239 164.855C136.301 165.195 136.446 165.514 136.662 165.781C137.23 165.905 137.987 165.975 138.74 165.762C139.346 165.591 139.856 165.262 140.251 164.931C140.352 164.474 140.291 164.014 140.101 163.615C139.549 163.508 138.847 163.46 138.146 163.658Z" fill="#363E44"/>
<path d="M128.719 163.353C128.719 163.353 129.046 163.966 129.668 164.553C130.013 164.878 131.177 164.778 131.177 164.778C131.177 164.778 132.366 165.679 132.928 165.623C133.563 165.559 134.007 165.401 134.007 165.401C134.007 165.401 133.854 165.114 133.558 164.745C133.182 164.276 131.546 163.952 131.546 163.952C131.546 163.952 130.359 163.075 129.797 163.132C129.163 163.196 128.719 163.353 128.719 163.353Z" fill="white"/>
<path d="M133.56 164.748C133.185 164.279 132.577 163.675 131.758 163.358C131.074 163.093 130.367 163.076 129.805 163.132C129.618 163.52 129.55 163.968 129.641 164.423C129.65 164.469 129.663 164.513 129.675 164.557C130.019 164.88 130.45 165.196 130.968 165.396C131.652 165.661 132.36 165.678 132.921 165.622C133.209 165.393 133.43 165.091 133.56 164.748Z" fill="#363E44"/>
<path d="M134.949 168.435C134.841 168.435 134.738 168.375 134.689 168.271C134.62 168.128 134.681 167.956 134.825 167.888C135.056 167.777 135.197 167.655 135.219 167.545C135.233 167.477 135.201 167.41 135.115 167.247C135.042 167.11 134.952 166.94 134.889 166.71C134.798 166.374 134.796 166.015 134.883 165.645C134.919 165.49 135.074 165.394 135.228 165.43C135.383 165.466 135.479 165.621 135.443 165.776C135.378 166.053 135.379 166.316 135.445 166.559C135.49 166.726 135.558 166.854 135.623 166.977C135.729 167.177 135.839 167.383 135.783 167.659C135.722 167.959 135.483 168.211 135.072 168.407C135.032 168.426 134.99 168.435 134.949 168.435Z" fill="#363E44"/>
<path d="M134.493 169.925C134.063 169.925 133.618 169.701 133.343 169.341C133.164 169.108 133.063 168.827 133.058 168.551C133.056 168.392 133.182 168.261 133.341 168.258C133.497 168.256 133.631 168.382 133.634 168.541C133.637 168.695 133.696 168.855 133.8 168.992C133.975 169.22 134.271 169.365 134.531 169.348C134.686 169.339 134.825 169.46 134.835 169.619C134.844 169.778 134.723 169.914 134.564 169.923C134.541 169.925 134.517 169.925 134.493 169.925Z" fill="#BC8271"/>
<path d="M139.865 158.422C139.773 158.422 139.682 158.378 139.626 158.296C139.265 157.763 138.835 157.302 138.347 156.926C135.635 154.836 131.929 155.851 130.858 156.212C130.706 156.263 130.543 156.182 130.493 156.031C130.442 155.88 130.523 155.717 130.674 155.666C131.813 155.283 135.761 154.206 138.698 156.47C139.235 156.884 139.707 157.389 140.103 157.973C140.192 158.105 140.158 158.284 140.026 158.373C139.977 158.406 139.921 158.422 139.865 158.422Z" fill="#D3BBA3"/>
<path d="M129.372 158.812C129.273 158.812 129.176 158.76 129.123 158.668C129.043 158.531 129.089 158.355 129.227 158.275C130.374 157.608 134.409 155.542 138.189 156.952C138.881 157.211 139.527 157.575 140.109 158.034C140.234 158.133 140.255 158.314 140.157 158.439C140.058 158.564 139.877 158.585 139.752 158.486C139.217 158.064 138.624 157.729 137.988 157.492C134.446 156.17 130.608 158.138 129.516 158.773C129.471 158.799 129.421 158.812 129.372 158.812Z" fill="#D3BBA3"/>
<path d="M133.328 202.02L129.357 205.938C128.032 207.245 125.898 207.231 124.591 205.906C123.283 204.581 123.298 202.447 124.622 201.14L128.593 197.221C129.918 195.914 132.052 195.928 133.36 197.253L133.36 197.253C134.667 198.578 134.653 200.712 133.328 202.02Z" fill="#E96C79"/>
<path d="M115.018 260.144C114.867 260.144 114.74 260.026 114.731 259.873L112.345 217.663C112.34 217.578 112.373 217.495 112.435 217.437L128.967 201.864C129.082 201.755 129.264 201.76 129.374 201.876C129.483 201.992 129.477 202.174 129.361 202.283L112.928 217.764L115.306 259.84C115.315 259.999 115.193 260.135 115.035 260.144C115.029 260.144 115.024 260.144 115.018 260.144Z" fill="#E96C79"/>
<path d="M144.586 202.003L148.557 205.921C149.881 207.229 152.016 207.215 153.323 205.89C154.63 204.565 154.616 202.431 153.291 201.123L149.32 197.205C147.995 195.897 145.861 195.912 144.554 197.237L144.554 197.237C143.246 198.562 143.261 200.696 144.586 202.003Z" fill="#E96C79"/>
<path d="M162.896 260.128C162.89 260.128 162.885 260.128 162.879 260.128C162.721 260.119 162.599 259.983 162.608 259.824L164.986 217.748L148.552 202.267C148.437 202.157 148.431 201.975 148.54 201.86C148.649 201.744 148.832 201.738 148.947 201.847L165.479 217.421C165.541 217.479 165.574 217.561 165.569 217.646L163.183 259.856C163.174 260.01 163.047 260.128 162.896 260.128Z" fill="#E96C79"/>
<path d="M177.697 230.423H102.279V361.365H177.697V230.423Z" fill="#DE7E88"/>
<path d="M180.667 227.425H98.4197V237.253H180.667V227.425Z" fill="#D3BBA3"/>
<path d="M178.507 238.404H96.2603C96.1013 238.404 95.9724 238.275 95.9724 238.116V228.289C95.9724 228.13 96.1013 228.001 96.2603 228.001H178.507C178.666 228.001 178.795 228.13 178.795 228.289V238.116C178.795 238.275 178.666 238.404 178.507 238.404ZM96.5483 237.828H178.219V228.577H96.5483V237.828Z" fill="#363E44"/>
<path d="M102.051 275.858C101.892 275.858 101.763 275.73 101.763 275.57V238.144C101.763 237.985 101.892 237.856 102.051 237.856C102.21 237.856 102.339 237.985 102.339 238.144V275.57C102.339 275.729 102.21 275.858 102.051 275.858Z" fill="#363E44"/>
<path d="M177.769 280.321C177.61 280.321 177.482 280.193 177.481 280.034L177.337 238.144C177.337 237.985 177.465 237.856 177.624 237.856C177.787 237.855 177.912 237.984 177.913 238.143L178.057 280.032C178.057 280.191 177.929 280.32 177.77 280.321C177.77 280.321 177.769 280.321 177.769 280.321Z" fill="#363E44"/>
<path d="M156.553 348.074L187.737 346.313L186.471 323.993L154.337 329.138L156.553 348.074Z" fill="#ECD0C8"/>
<path d="M240.802 336.761C236.197 332.67 224.441 322.258 206.959 320.508C193.278 319.138 178.556 322.462 172.066 324.52C172.224 332.751 172.541 341.458 172.699 349.689C175.865 350.164 177.527 350.401 180.84 350.9V382.243L230.854 382.28L230.897 358.465L236.464 360.533L240.802 336.761Z" fill="#003C84"/>
<path d="M180.805 351.133C180.646 351.133 180.517 351.005 180.517 350.846C180.505 348.409 180.485 347.181 180.459 345.627C180.446 344.884 180.433 344.075 180.419 343.034C180.417 342.875 180.544 342.744 180.703 342.742C180.857 342.745 180.993 342.867 180.995 343.026C181.009 344.067 181.022 344.875 181.035 345.617C181.06 347.174 181.081 348.403 181.093 350.843C181.093 351.002 180.965 351.132 180.806 351.133C180.805 351.133 180.805 351.133 180.805 351.133Z" fill="#363E44"/>
<path d="M160.13 347.626C161.769 327.553 162.169 313.226 163.346 304.381C163.874 300.41 165.161 296.536 163.448 293.085C162.688 291.556 161.552 290.053 160.487 290.723C158.823 291.771 161.087 296.222 159.707 297.038C158.321 297.858 156.423 294.616 155.575 292.367C155.004 290.852 154.092 289.14 152.596 289.408C150.47 289.79 151.158 292.92 151.18 293.132C150.141 292.48 148.91 292.505 148.254 293.095C147.377 293.884 147.374 295.816 148.845 296.983C148.638 296.872 147.095 296.068 146.399 296.631C145.716 297.184 145.887 299.02 147.305 300.999C146.049 300.413 145.027 300.447 144.691 300.837C143.749 301.928 144.486 304.514 148.448 309.277C147.96 312.112 145.589 323.367 143.732 332.098C141.727 341.526 150.169 349.949 159.557 347.765C159.746 347.721 159.937 347.675 160.13 347.626Z" fill="#ECD0C8"/>
<path d="M160.714 340.33C160.707 340.33 160.7 340.33 160.693 340.33C160.535 340.318 160.416 340.18 160.427 340.021C160.579 337.931 160.716 335.247 160.849 332.651C160.943 330.801 161.033 329.053 161.118 327.715C161.129 327.556 161.266 327.436 161.424 327.446C161.583 327.456 161.703 327.593 161.693 327.751C161.608 329.086 161.518 330.832 161.424 332.68C161.291 335.279 161.154 337.966 161.001 340.063C160.99 340.215 160.864 340.33 160.714 340.33Z" fill="#363E44"/>
<path d="M154.728 310.942C154.715 310.942 154.702 310.941 154.689 310.939C154.531 310.918 154.421 310.773 154.442 310.616C154.528 309.97 154.569 308.689 153.868 307.363C153.046 305.808 151.681 305.115 151.132 304.889C150.985 304.828 150.915 304.66 150.976 304.513C151.036 304.366 151.205 304.296 151.352 304.356C152.105 304.667 153.501 305.435 154.378 307.094C155.153 308.562 155.108 309.979 155.013 310.692C154.993 310.837 154.87 310.942 154.728 310.942Z" fill="#363E44"/>
<path d="M147.33 309.128C149.224 310.656 152.135 310.19 153.833 308.087L167.368 290.907L160.71 285.533L146.975 302.552C145.277 304.656 145.436 307.599 147.33 309.128Z" fill="#84524D"/>
<path d="M129.392 263.269C129.312 263.269 129.232 263.236 129.176 263.172C126.898 260.586 126.783 256.839 128.903 254.262C130.947 251.777 134.554 251.116 137.478 252.69C137.618 252.765 137.671 252.94 137.596 253.08C137.52 253.22 137.346 253.272 137.206 253.197C134.522 251.753 131.217 252.355 129.347 254.628C127.408 256.985 127.517 260.418 129.608 262.791C129.713 262.91 129.701 263.092 129.582 263.197C129.527 263.245 129.459 263.269 129.392 263.269Z" fill="#363E44"/>
<path d="M167.63 277.158L158.833 287.851L123.416 272.013L145.264 245.457L167.63 277.158Z" fill="#E96C79"/>
<path d="M158.847 287.85L165.976 293.715L174.75 283.051L167.621 277.186L158.847 287.85Z" fill="#BD3644"/>
<path d="M161.232 287.313L166.302 291.485L167.848 289.606L162.777 285.434L161.232 287.313Z" fill="#E96C79"/>
<path d="M163.62 284.41L168.691 288.582L170.236 286.704L165.165 282.532L163.62 284.41Z" fill="#E96C79"/>
<path d="M166.008 281.508L171.079 285.68L172.624 283.801L167.553 279.63L166.008 281.508Z" fill="#E96C79"/>
<path d="M152.489 294.124C154.523 295.695 155.193 297.643 154.671 298.343C154.191 298.985 152.442 298.938 150.588 297.896C150.562 297.882 150.54 297.915 150.563 297.934C152.517 299.565 153.315 301.331 152.857 301.984C152.44 302.58 150.817 302.482 148.962 301.644C148.935 301.632 148.916 301.668 148.941 301.684C150.613 302.743 151.41 304.042 151.127 304.621C150.827 305.235 148.749 305.832 145.664 303.673L152.489 294.124Z" fill="#ECD0C8"/>
<path d="M163.346 304.381C164.153 299.893 165.039 296.365 163.448 293.086C162.961 292.085 162.142 290.826 161.147 290.857C159.168 290.918 160.035 293.947 159.767 296.097C159.516 298.1 158.107 299.046 157.132 300.854C156.366 302.276 155.622 304.573 156.153 308.198C158.55 306.926 160.948 305.654 163.346 304.381Z" fill="#ECD0C8"/>
<path d="M225.884 364.098H231.463V273.083H225.884V364.098Z" fill="#84524D"/>
<path d="M249.813 278.324C261.514 266.623 261.514 247.651 249.813 235.95C238.112 224.249 219.14 224.249 207.439 235.95C195.738 247.651 195.738 266.623 207.439 278.324C219.14 290.025 238.112 290.025 249.813 278.324Z" fill="#E96C79"/>
<path d="M246.253 274.619C255.948 264.925 255.948 249.206 246.253 239.512C236.558 229.817 220.84 229.817 211.145 239.512C201.451 249.206 201.451 264.925 211.145 274.619C220.84 284.314 236.558 284.314 246.253 274.619Z" fill="#F7F1EB"/>
<path d="M234.394 258.246C237.786 254.854 237.786 249.355 234.394 245.963C231.002 242.571 225.502 242.571 222.11 245.963C218.718 249.355 218.718 254.854 222.11 258.246C225.502 261.638 231.002 261.638 234.394 258.246Z" fill="#363E44"/>
<path d="M209.459 272.745C214.011 278.325 220.939 281.89 228.702 281.89C236.556 281.89 243.553 278.239 248.102 272.546C248.162 272.415 248.224 272.285 248.28 272.152C241.187 264.745 224.781 257.507 209.459 272.745Z" fill="#363E44"/>
<path d="M248.364 238.603L244.468 235.44L210.313 277.511L214.209 280.674L248.364 238.603Z" fill="#E96C79"/>
<path d="M220.915 327.355C224.854 329.744 229.573 330.718 234.109 330.562C235.926 330.5 237.765 330.194 239.549 329.798C240.385 329.375 240.314 328.124 240.269 327.399C240.238 326.907 238.438 322.386 237.871 321.34C235.878 317.659 233.991 318.782 230.66 315.274C226.881 311.294 227.006 306.913 225.607 306.996C224.633 307.054 224.121 308.693 224.378 312.145L224.378 312.145C223.881 309.545 223.993 306.269 222.557 306.548C220.916 306.959 220.466 310.96 220.887 313.501C220.377 310.426 220.123 309.215 219.302 309.396C218.053 309.672 217.486 312.259 217.896 316.371L217.896 316.371C217.457 313.654 215.946 316.385 215.946 318.071C215.946 319.348 217.029 321.994 217.399 322.604C219.144 325.478 219.579 326.101 220.915 327.355Z" fill="#ECD0C8"/>
<path d="M231.333 318.899C231.029 314.008 230.897 311.488 231.333 311.445C232.774 311.301 236.061 315.797 238.67 323.359C236.54 322.472 233.463 319.786 231.333 318.899Z" fill="#ECD0C8"/>
<path d="M226.802 316.74C226.722 316.74 226.642 316.707 226.585 316.642C226.138 316.131 225.736 315.577 225.392 314.995C224.892 314.15 224.506 313.239 224.245 312.286C224.203 312.133 224.293 311.974 224.446 311.932C224.599 311.89 224.758 311.98 224.8 312.134C225.048 313.037 225.413 313.901 225.887 314.702C226.214 315.253 226.594 315.779 227.018 316.263C227.123 316.382 227.111 316.564 226.991 316.669C226.937 316.717 226.869 316.74 226.802 316.74Z" fill="#363E44"/>
<path d="M223.259 317.695C223.179 317.695 223.099 317.662 223.042 317.597C222.595 317.086 222.194 316.532 221.849 315.949C221.349 315.104 220.963 314.193 220.702 313.24C220.66 313.087 220.75 312.929 220.904 312.887C221.056 312.844 221.215 312.935 221.257 313.088C221.505 313.991 221.871 314.855 222.345 315.656C222.671 316.208 223.052 316.733 223.476 317.217C223.58 317.337 223.568 317.519 223.449 317.623C223.394 317.671 223.326 317.695 223.259 317.695Z" fill="#363E44"/>
<path d="M220.224 320.968C220.144 320.968 220.064 320.935 220.007 320.87C219.56 320.359 219.159 319.805 218.814 319.223C218.314 318.378 217.928 317.466 217.667 316.513C217.625 316.36 217.715 316.202 217.868 316.16C218.022 316.117 218.18 316.208 218.222 316.361C218.47 317.264 218.835 318.128 219.309 318.929C219.636 319.481 220.017 320.006 220.441 320.49C220.545 320.61 220.533 320.792 220.414 320.896C220.359 320.944 220.291 320.968 220.224 320.968Z" fill="#363E44"/>
<path d="M250.497 348.25L236.488 319.341L219.927 324.946L231.549 357.041C237.158 368.111 247.155 364.392 247.155 364.392C252.385 361.897 253.024 353.464 250.497 348.25Z" fill="#ECD0C8"/>
<path d="M204.764 328.323L204.76 328.323C201.338 328.551 198.376 325.971 198.132 322.55L197.152 308.8C196.908 305.369 199.491 302.389 202.922 302.144C206.354 301.899 209.334 304.482 209.579 307.913L210.563 321.663C210.809 325.106 208.208 328.094 204.764 328.323Z" fill="#ECD0C8"/>
<path d="M209.475 292.673C209.042 292.413 204.854 289.986 200.813 291.718C197.806 293.007 196.219 295.741 194.251 300.73C191.933 306.605 191.368 310.44 192.473 312.342C194.218 315.347 203.861 315.064 209.139 311.481C212.949 308.895 214.904 304.161 214.365 299.555C213.828 294.962 209.752 292.839 209.475 292.673Z" fill="#ECD0C8"/>
<path d="M198.648 314.689C198.334 314.689 198.023 314.681 197.716 314.666C197.557 314.657 197.435 314.522 197.443 314.363C197.452 314.204 197.589 314.083 197.746 314.09C200.354 314.225 203.298 313.765 205.822 312.83C205.97 312.775 206.137 312.851 206.192 313C206.247 313.149 206.171 313.315 206.022 313.37C203.724 314.221 201.086 314.689 198.648 314.689Z" fill="#363E44"/>
<path d="M205.357 302.703C205.357 302.703 204.11 303.864 202.361 304.319C201.993 304.414 201.603 304.479 201.197 304.494C198.865 304.585 198.739 301.329 201.071 301.238C201.651 301.216 202.208 301.295 202.717 301.427C202.819 301.453 202.919 301.482 203.016 301.512C203.122 301.544 203.225 301.579 203.325 301.615C204.537 302.05 205.357 302.703 205.357 302.703Z" fill="white"/>
<path d="M196.911 303.03C196.911 303.03 198.739 301.329 201.071 301.238C201.653 301.216 202.211 301.296 202.721 301.428C203.047 302.267 203.003 303.239 202.514 304.076C202.465 304.16 202.411 304.24 202.356 304.318C201.989 304.413 201.602 304.479 201.197 304.494C198.865 304.585 196.911 303.03 196.911 303.03Z" fill="#363E44"/>
<path d="M193.675 304.936C193.546 304.936 193.429 304.848 193.396 304.717C193.253 304.138 193.304 303.724 193.554 303.451C193.738 303.25 193.956 303.208 194.167 303.167C194.296 303.141 194.429 303.115 194.581 303.051C194.852 302.935 195.09 302.731 195.289 302.445C195.379 302.315 195.559 302.282 195.689 302.373C195.82 302.464 195.852 302.643 195.761 302.774C195.5 303.149 195.179 303.421 194.808 303.58C194.6 303.669 194.421 303.704 194.277 303.732C194.098 303.767 194.03 303.784 193.979 303.84C193.874 303.955 193.865 304.217 193.955 304.578C193.993 304.733 193.899 304.889 193.745 304.927C193.722 304.933 193.698 304.936 193.675 304.936Z" fill="#363E44"/>
<path d="M195.665 310.297C195.54 310.297 195.425 310.216 195.389 310.09C195.344 309.937 195.432 309.777 195.585 309.733C195.881 309.647 196.297 309.458 196.593 309.049C196.937 308.574 197.012 307.988 196.949 307.813C196.891 307.837 196.8 307.888 196.728 307.928C196.445 308.088 196.014 308.33 195.432 308.308C194.97 308.291 194.507 308.166 194.093 307.946C193.953 307.872 193.899 307.698 193.974 307.557C194.049 307.417 194.223 307.363 194.363 307.438C194.701 307.617 195.077 307.719 195.453 307.732C195.877 307.746 196.192 307.569 196.446 307.426C196.7 307.283 196.989 307.121 197.265 307.311C197.359 307.376 197.481 307.507 197.525 307.763C197.605 308.222 197.409 308.905 197.059 309.387C196.667 309.928 196.129 310.175 195.746 310.286C195.719 310.294 195.692 310.297 195.665 310.297Z" fill="#363E44"/>
<path d="M212.167 310.162C213.996 309.075 214.712 306.905 213.767 305.315C212.821 303.725 210.573 303.317 208.744 304.404C206.915 305.491 206.199 307.661 207.144 309.251C208.09 310.841 210.338 311.249 212.167 310.162Z" fill="#ECD0C8"/>
<path d="M209.776 311.062C209.77 311.062 209.765 311.062 209.759 311.062C208.519 310.991 207.473 310.388 206.89 309.408C206.809 309.271 206.853 309.094 206.99 309.013C207.127 308.932 207.304 308.977 207.385 309.113C207.868 309.927 208.746 310.427 209.792 310.487C209.951 310.496 210.072 310.632 210.063 310.79C210.054 310.944 209.927 311.062 209.776 311.062Z" fill="#363E44"/>
<path d="M213.592 305.36C213.504 305.36 213.417 305.32 213.361 305.244C212.423 303.982 210.457 303.726 208.884 304.661C208.747 304.742 208.571 304.697 208.49 304.56C208.408 304.424 208.453 304.247 208.59 304.166C210.444 303.064 212.694 303.38 213.823 304.901C213.918 305.028 213.891 305.209 213.764 305.304C213.712 305.342 213.652 305.36 213.592 305.36Z" fill="#363E44"/>
<path d="M211.497 308.771C211.399 308.771 211.303 308.721 211.25 308.63C211.169 308.494 211.213 308.317 211.35 308.236C211.691 308.033 211.941 307.73 212.056 307.382C212.167 307.048 212.137 306.712 211.974 306.437C211.77 306.094 211.379 305.89 210.927 305.89C210.926 305.89 210.923 305.89 210.921 305.89C210.763 305.89 210.634 305.762 210.634 305.603C210.633 305.444 210.762 305.315 210.92 305.314C211.577 305.318 212.159 305.622 212.468 306.143C212.719 306.564 212.766 307.068 212.603 307.562C212.445 308.042 212.104 308.458 211.644 308.731C211.598 308.758 211.547 308.771 211.497 308.771Z" fill="#363E44"/>
<path d="M209.551 299.667C204.855 294.76 199.155 294.58 197.506 294.337C196.592 292.133 197.015 290.682 197.208 290.164C198.308 287.204 202.925 285.039 208.28 286.244C207.862 286.295 205.866 287.109 205.583 287.69C207.524 286.728 209.145 286.937 209.964 287.034C213.724 287.478 216.957 290.922 218.012 295.946C217.87 295.649 217.014 294.381 216.06 293.964C216.577 294.584 217.093 295.339 217.52 296.244C219.38 300.182 218.246 304.153 217.774 305.544C217.164 304.527 214.66 300.465 209.551 299.667Z" fill="#84524D"/>
<path d="M202.801 295.084C202.718 295.084 202.638 295.048 202.583 294.984C202.509 294.898 202.492 294.777 202.54 294.674C202.866 293.974 203.501 292.985 204.681 292.249C205.76 291.575 206.829 291.411 207.535 291.392C207.701 291.385 207.826 291.514 207.83 291.673C207.834 291.832 207.709 291.964 207.55 291.968C206.915 291.985 205.955 292.132 204.986 292.737C204.211 293.221 203.699 293.837 203.379 294.34C204.383 294.086 205.408 293.915 206.436 293.832C207.438 293.75 208.456 293.75 209.463 293.831C209.621 293.844 209.739 293.983 209.726 294.142C209.713 294.3 209.575 294.418 209.416 294.405C208.441 294.326 207.453 294.326 206.483 294.405C205.268 294.504 204.057 294.729 202.882 295.072C202.855 295.08 202.828 295.084 202.801 295.084Z" fill="#363E44"/>
<path d="M239.129 187.732H180.4C180.241 187.732 180.112 187.603 180.112 187.444V158.512C180.112 158.353 180.241 158.224 180.4 158.224H239.129C239.288 158.224 239.417 158.353 239.417 158.512V187.444C239.417 187.603 239.288 187.732 239.129 187.732ZM180.688 187.156H238.841V158.799H180.688V187.156Z" fill="#DE7E88"/>
<path d="M232.853 164.407H221.041C220.882 164.407 220.753 164.278 220.753 164.119C220.753 163.96 220.882 163.831 221.041 163.831H232.853C233.012 163.831 233.141 163.96 233.141 164.119C233.141 164.278 233.012 164.407 232.853 164.407Z" fill="#DE7E88"/>
<path d="M214.127 164.407H187.811C187.652 164.407 187.523 164.278 187.523 164.119C187.523 163.96 187.652 163.831 187.811 163.831H214.127C214.287 163.831 214.415 163.96 214.415 164.119C214.415 164.278 214.287 164.407 214.127 164.407Z" fill="#DE7E88"/>
<path d="M232.853 167.889H201.935C201.776 167.889 201.647 167.76 201.647 167.601C201.647 167.442 201.776 167.313 201.935 167.313H232.853C233.012 167.313 233.141 167.442 233.141 167.601C233.141 167.76 233.012 167.889 232.853 167.889Z" fill="#DE7E88"/>
<path d="M198.258 167.889H187.811C187.652 167.889 187.523 167.76 187.523 167.601C187.523 167.442 187.652 167.313 187.811 167.313H198.258C198.417 167.313 198.546 167.442 198.546 167.601C198.546 167.76 198.417 167.889 198.258 167.889Z" fill="#DE7E88"/>
<path d="M232.853 171.153H221.041C220.882 171.153 220.753 171.024 220.753 170.865C220.753 170.706 220.882 170.577 221.041 170.577H232.853C233.012 170.577 233.141 170.706 233.141 170.865C233.141 171.024 233.012 171.153 232.853 171.153Z" fill="#DE7E88"/>
<path d="M214.127 171.153H187.811C187.652 171.153 187.523 171.024 187.523 170.865C187.523 170.706 187.652 170.577 187.811 170.577H214.127C214.287 170.577 214.415 170.706 214.415 170.865C214.415 171.024 214.287 171.153 214.127 171.153Z" fill="#DE7E88"/>
<path d="M232.853 174.634H210.576C210.417 174.634 210.288 174.506 210.288 174.346C210.288 174.187 210.417 174.059 210.576 174.059H232.853C233.012 174.059 233.141 174.187 233.141 174.346C233.141 174.506 233.012 174.634 232.853 174.634Z" fill="#DE7E88"/>
<path d="M205.171 174.634H187.811C187.652 174.634 187.523 174.506 187.523 174.346C187.523 174.187 187.652 174.059 187.811 174.059H205.171C205.33 174.059 205.459 174.187 205.459 174.346C205.459 174.506 205.33 174.634 205.171 174.634Z" fill="#DE7E88"/>
<path d="M214.127 179.639H187.811C187.652 179.639 187.523 179.51 187.523 179.351C187.523 179.192 187.652 179.063 187.811 179.063H214.127C214.287 179.063 214.415 179.192 214.415 179.351C214.415 179.51 214.287 179.639 214.127 179.639Z" fill="#DE7E88"/>
<path d="M203.442 183.121H187.811C187.652 183.121 187.523 182.992 187.523 182.833C187.523 182.674 187.652 182.545 187.811 182.545H203.442C203.601 182.545 203.73 182.674 203.73 182.833C203.73 182.992 203.601 183.121 203.442 183.121Z" fill="#DE7E88"/>
<path d="M219.405 150.252H163.712V174.963H219.405V150.252Z" fill="#DE7E88"/>
<path d="M213.096 157.017H201.884C201.725 157.017 201.596 156.888 201.596 156.729C201.596 156.57 201.725 156.441 201.884 156.441H213.096C213.255 156.441 213.384 156.57 213.384 156.729C213.384 156.888 213.255 157.017 213.096 157.017Z" fill="white"/>
<path d="M195.323 157.017H170.346C170.186 157.017 170.058 156.888 170.058 156.729C170.058 156.57 170.186 156.441 170.346 156.441H195.323C195.482 156.441 195.611 156.57 195.611 156.729C195.611 156.888 195.482 157.017 195.323 157.017Z" fill="white"/>
<path d="M213.096 159.642H183.751C183.592 159.642 183.463 159.513 183.463 159.354C183.463 159.195 183.592 159.066 183.751 159.066H213.096C213.255 159.066 213.384 159.195 213.384 159.354C213.384 159.513 213.255 159.642 213.096 159.642Z" fill="white"/>
<path d="M180.261 159.642H170.346C170.186 159.642 170.058 159.513 170.058 159.354C170.058 159.195 170.186 159.066 170.346 159.066H180.261C180.42 159.066 180.548 159.195 180.548 159.354C180.548 159.513 180.42 159.642 180.261 159.642Z" fill="white"/>
<path d="M213.096 162.102H201.884C201.725 162.102 201.596 161.973 201.596 161.814C201.596 161.655 201.725 161.526 201.884 161.526H213.096C213.255 161.526 213.384 161.655 213.384 161.814C213.384 161.973 213.255 162.102 213.096 162.102Z" fill="white"/>
<path d="M195.323 162.102H170.346C170.186 162.102 170.058 161.973 170.058 161.814C170.058 161.655 170.186 161.526 170.346 161.526H195.323C195.482 161.526 195.611 161.655 195.611 161.814C195.611 161.973 195.482 162.102 195.323 162.102Z" fill="white"/>
<path d="M213.096 164.727H191.952C191.793 164.727 191.664 164.598 191.664 164.439C191.664 164.28 191.793 164.151 191.952 164.151H213.096C213.255 164.151 213.384 164.28 213.384 164.439C213.384 164.598 213.255 164.727 213.096 164.727Z" fill="white"/>
<path d="M186.822 164.727H170.346C170.186 164.727 170.058 164.598 170.058 164.439C170.058 164.28 170.186 164.151 170.346 164.151H186.822C186.981 164.151 187.11 164.28 187.11 164.439C187.11 164.598 186.981 164.727 186.822 164.727Z" fill="white"/>
<path d="M195.323 168.499H170.346C170.186 168.499 170.058 168.371 170.058 168.212C170.058 168.052 170.186 167.924 170.346 167.924H195.323C195.482 167.924 195.611 168.052 195.611 168.212C195.611 168.371 195.482 168.499 195.323 168.499Z" fill="white"/>
<path d="M185.182 171.124H170.346C170.186 171.124 170.058 170.995 170.058 170.836C170.058 170.677 170.186 170.548 170.346 170.548H185.181C185.341 170.548 185.469 170.677 185.469 170.836C185.469 170.995 185.341 171.124 185.182 171.124Z" fill="white"/>
<path d="M163.712 174.963L156.944 175.573L164.094 167.464L163.712 174.963Z" fill="#DE7E88"/>
<path d="M220.758 176.677H165.066L157.902 176.629C157.79 176.628 157.689 176.563 157.642 176.461C157.596 176.359 157.612 176.24 157.684 176.155L164.778 167.79V151.892C164.778 151.733 164.906 151.604 165.066 151.604H220.758C220.917 151.604 221.046 151.733 221.046 151.892V176.389C221.046 176.548 220.917 176.677 220.758 176.677ZM158.522 176.057L165.067 176.101H220.47V152.18H165.353V167.896C165.353 167.964 165.329 168.03 165.285 168.082L158.522 176.057Z" fill="white"/>
<path d="M49.4199 325.006L52.9941 324.495L47.1002 283.262L43.5259 283.773L49.4199 325.006Z" fill="#DE7E88"/>
<path d="M26.4864 287.346L64.2393 281.95L61.2732 261.2L23.5204 266.597L26.4864 287.346Z" fill="#DE7E88"/>
<path d="M94.9981 315.756L98.2795 314.25L73.7125 260.722L70.4311 262.229L94.9981 315.756Z" fill="#DE7E88"/>
<path d="M53.8791 274.074C53.7702 274.074 53.6658 274.011 53.6173 273.906L42.9804 250.73C42.9485 250.66 42.9455 250.581 42.9721 250.509C42.9986 250.438 43.0526 250.38 43.122 250.348L82.2958 232.369C82.4396 232.302 82.6113 232.366 82.6775 232.51L93.3144 255.686C93.3463 255.756 93.3493 255.835 93.3227 255.907C93.2962 255.978 93.2422 256.036 93.1728 256.068L53.999 274.048C53.9602 274.065 53.9193 274.074 53.8791 274.074ZM43.6238 250.751L54.0205 273.404L92.671 255.665L82.2743 233.012L43.6238 250.751Z" fill="#D3BBA3"/>
<path d="M55.109 270.498L89.7688 254.591L81.0259 235.541L46.366 251.449L55.109 270.498Z" fill="#D3BBA3"/>
<path d="M78.2393 255.446C78.1301 255.446 78.0259 255.384 77.9775 255.278C77.9112 255.134 77.9745 254.963 78.119 254.896L84.8446 251.809C84.9881 251.743 85.1599 251.806 85.2262 251.951C85.2926 252.096 85.2293 252.266 85.0847 252.333L78.3592 255.42C78.3204 255.438 78.2795 255.446 78.2393 255.446Z" fill="white"/>
<path d="M56.7967 265.287C56.6875 265.287 56.5833 265.225 56.5349 265.119C56.4685 264.975 56.5319 264.804 56.6764 264.738L75.7595 255.979C75.9036 255.913 76.075 255.976 76.1412 256.121C76.2075 256.265 76.1442 256.436 75.9997 256.503L56.9167 265.261C56.8778 265.279 56.8369 265.287 56.7967 265.287Z" fill="white"/>
<path d="M51.564 254.156C51.4551 254.156 51.3506 254.094 51.3022 253.989C51.2359 253.844 51.2992 253.673 51.4437 253.607L58.4082 250.41C58.552 250.344 58.7237 250.407 58.7899 250.552C58.8562 250.697 58.7929 250.867 58.6484 250.934L51.6839 254.13C51.6451 254.148 51.6042 254.156 51.564 254.156Z" fill="white"/>
<path d="M60.804 249.916C60.6951 249.916 60.5906 249.853 60.5422 249.748C60.4759 249.603 60.5392 249.432 60.6837 249.366L74.3373 243.099C74.4808 243.033 74.6527 243.096 74.719 243.241C74.7853 243.386 74.722 243.556 74.5774 243.623L60.9239 249.889C60.8851 249.907 60.8442 249.916 60.804 249.916Z" fill="white"/>
<path d="M53.1003 258.045C52.9921 258.045 52.8883 257.984 52.8394 257.879C52.7721 257.735 52.8342 257.564 52.9782 257.496L71.7159 248.732C71.8599 248.665 72.0315 248.727 72.0987 248.871C72.1661 249.015 72.1039 249.186 71.9599 249.254L53.2223 258.018C53.1827 258.036 53.1412 258.045 53.1003 258.045Z" fill="white"/>
<path d="M73.7705 248.377C73.6623 248.377 73.5586 248.315 73.5096 248.211C73.4422 248.067 73.5044 247.896 73.6484 247.828L81.2902 244.254C81.4345 244.187 81.6058 244.249 81.6731 244.393C81.7404 244.537 81.6783 244.708 81.5343 244.775L73.8925 248.35C73.8529 248.368 73.8114 248.377 73.7705 248.377Z" fill="white"/>
<path d="M54.9915 261.895C54.8832 261.895 54.7795 261.833 54.7306 261.729C54.6632 261.585 54.7253 261.413 54.8694 261.346L66.617 255.851C66.7614 255.784 66.9325 255.846 66.9999 255.99C67.0673 256.134 67.0051 256.305 66.8611 256.373L55.1134 261.868C55.0738 261.886 55.0323 261.895 54.9915 261.895Z" fill="white"/>
<path d="M69.0908 255.3C68.9826 255.3 68.8788 255.238 68.8299 255.134C68.7625 254.99 68.8247 254.818 68.9687 254.751L83.0789 248.151C83.2233 248.083 83.3944 248.146 83.4617 248.29C83.529 248.434 83.4669 248.605 83.3228 248.672L69.2126 255.273C69.1732 255.291 69.1317 255.3 69.0908 255.3Z" fill="white"/>
<path d="M118.643 382.669L106.882 314.86L101.406 315.782L113.003 382.669H118.643Z" fill="#D3BBA3"/>
<path d="M72.2416 326.844C72.1041 326.844 71.9825 326.745 71.9582 326.605L65.256 287.933C65.2429 287.858 65.2603 287.78 65.3043 287.718C65.3483 287.656 65.4151 287.613 65.4903 287.6L130.857 276.272C130.933 276.259 131.01 276.276 131.072 276.32C131.135 276.364 131.177 276.431 131.19 276.506L137.892 315.179C137.919 315.335 137.814 315.484 137.658 315.511L72.2909 326.84C72.2744 326.843 72.2579 326.844 72.2416 326.844ZM65.8725 288.118L72.4764 326.223L137.276 314.993L130.672 276.888L65.8725 288.118Z" fill="#D3BBA3"/>
<path d="M75.349 322.148L133.186 312.122L127.675 280.334L69.8386 290.36L75.349 322.148Z" fill="#BD3644"/>
<path d="M82.6658 314.465C82.5283 314.465 82.4067 314.366 82.3825 314.226C82.3553 314.069 82.4603 313.92 82.617 313.893L126.995 306.202C127.153 306.175 127.301 306.28 127.328 306.437C127.355 306.593 127.25 306.742 127.094 306.769L82.7153 314.46C82.6986 314.463 82.6821 314.465 82.6658 314.465Z" fill="white"/>
<path d="M76.6382 296.297C76.5007 296.297 76.3792 296.198 76.3549 296.058C76.3277 295.902 76.4327 295.753 76.5894 295.726L90.4498 293.323C90.6077 293.296 90.7555 293.401 90.7826 293.558C90.8098 293.715 90.7048 293.864 90.5481 293.891L76.6877 296.293C76.671 296.296 76.6545 296.297 76.6382 296.297Z" fill="white"/>
<path d="M93.1223 293.441C92.9848 293.441 92.8633 293.342 92.839 293.202C92.8118 293.045 92.9168 292.896 93.0735 292.869L119.425 288.302C119.584 288.275 119.731 288.38 119.758 288.536C119.785 288.693 119.681 288.842 119.524 288.869L93.1718 293.436C93.1551 293.439 93.1387 293.441 93.1223 293.441Z" fill="white"/>
<path d="M77.3933 302.688C77.2566 302.688 77.1356 302.59 77.1104 302.451C77.082 302.295 77.186 302.145 77.3424 302.117L100.985 297.843C101.141 297.815 101.291 297.919 101.319 298.075C101.348 298.232 101.244 298.382 101.087 298.41L77.4448 302.683C77.4275 302.686 77.4103 302.688 77.3933 302.688Z" fill="white"/>
<path d="M104.68 297.756C104.543 297.756 104.422 297.658 104.397 297.519C104.369 297.363 104.473 297.213 104.629 297.185L124.682 293.56C124.84 293.532 124.989 293.636 125.017 293.792C125.045 293.949 124.941 294.098 124.785 294.127L104.731 297.751C104.714 297.754 104.697 297.756 104.68 297.756Z" fill="white"/>
<path d="M78.6912 309.161C78.5545 309.161 78.4334 309.063 78.4082 308.924C78.3799 308.768 78.4838 308.618 78.6403 308.59L93.3377 305.933C93.4936 305.905 93.6437 306.008 93.6721 306.165C93.7004 306.321 93.5965 306.471 93.44 306.499L78.7426 309.156C78.7254 309.159 78.7082 309.161 78.6912 309.161Z" fill="white"/>
<path d="M96.0088 306.03C95.8721 306.03 95.751 305.933 95.7258 305.793C95.6975 305.637 95.8014 305.487 95.9579 305.459L125.809 300.062C125.966 300.034 126.116 300.138 126.144 300.294C126.172 300.451 126.068 300.601 125.912 300.629L96.0603 306.025C96.043 306.029 96.0258 306.03 96.0088 306.03Z" fill="white"/>
<path d="M105.761 369.97C110.033 371.645 114.83 371.798 119.255 370.873C121.028 370.503 122.781 369.89 124.464 369.198C125.213 368.64 124.93 367.425 124.763 366.721C124.649 366.244 122.113 362.113 121.379 361.182C118.797 357.909 117.136 359.332 113.27 356.456C108.884 353.192 108.262 348.872 106.903 349.191C105.958 349.413 105.733 351.109 106.573 354.454L106.573 354.454C105.642 351.986 105.196 348.753 103.834 349.27C102.293 349.953 102.531 353.956 103.377 356.378C102.354 353.447 101.899 352.301 101.124 352.619C99.9446 353.102 99.8284 355.737 100.93 359.703L100.93 359.704C100.037 357.111 99.0188 360.049 99.3054 361.703C99.5227 362.957 101.035 365.369 101.503 365.905C103.704 368.429 104.236 368.966 105.761 369.97Z" fill="#BC8271"/>
<path d="M114.547 359.899C113.417 355.15 112.859 352.7 113.279 352.583C114.669 352.197 118.659 356.05 122.507 363.028C120.265 362.52 116.788 360.407 114.547 359.899Z" fill="#BC8271"/>
<path d="M109.684 358.557C109.62 358.557 109.556 358.536 109.503 358.493C108.977 358.068 108.489 357.592 108.051 357.079C107.417 356.335 106.883 355.506 106.465 354.615C106.397 354.471 106.459 354.3 106.603 354.232C106.747 354.165 106.918 354.226 106.986 354.37C107.382 355.214 107.888 356 108.49 356.705C108.904 357.192 109.367 357.642 109.865 358.045C109.989 358.145 110.008 358.326 109.908 358.45C109.851 358.52 109.768 358.557 109.684 358.557Z" fill="#363E44"/>
<path d="M106.369 360.096C106.305 360.096 106.241 360.075 106.188 360.032C105.662 359.606 105.174 359.131 104.737 358.618C104.102 357.874 103.568 357.045 103.15 356.154C103.082 356.011 103.144 355.839 103.288 355.772C103.432 355.704 103.604 355.766 103.671 355.91C104.068 356.754 104.574 357.54 105.175 358.245C105.589 358.73 106.052 359.181 106.55 359.584C106.674 359.684 106.693 359.865 106.593 359.989C106.536 360.059 106.453 360.096 106.369 360.096Z" fill="#363E44"/>
<path d="M103.947 363.824C103.884 363.824 103.82 363.803 103.766 363.76C103.241 363.335 102.752 362.86 102.315 362.347C101.68 361.602 101.146 360.773 100.728 359.883C100.66 359.739 100.722 359.567 100.866 359.5C101.011 359.432 101.182 359.494 101.249 359.638C101.646 360.482 102.151 361.268 102.753 361.973C103.167 362.459 103.63 362.91 104.128 363.313C104.252 363.412 104.271 363.594 104.171 363.717C104.114 363.788 104.031 363.824 103.947 363.824Z" fill="#363E44"/>
<path d="M136.429 382.669L119.682 359.404L104.382 367.694L112.952 382.669H136.429Z" fill="#BC8271"/>
<path d="M55.5263 382.669L61.3806 330.224L55.5876 329.552L49.6611 382.669H55.5263Z" fill="#D3BBA3"/>
<path d="M84.3698 338.993C84.3592 338.993 84.3484 338.993 84.3376 338.991L31.1951 333.065C31.1193 333.057 31.0498 333.019 31.0021 332.959C30.9545 332.899 30.9324 332.823 30.941 332.747L35.5034 291.834C35.5208 291.676 35.6617 291.562 35.8214 291.58L88.9638 297.506C89.0397 297.515 89.1091 297.553 89.1568 297.612C89.2045 297.672 89.2265 297.748 89.2179 297.824L84.6555 338.737C84.6393 338.884 84.5146 338.993 84.3698 338.993ZM31.5452 332.525L84.1155 338.387L88.614 298.046L36.0437 292.184L31.5452 332.525Z" fill="#E0AA63"/>
<path d="M34.7307 329.149L81.75 334.391L85.4993 300.762L38.48 295.52L34.7307 329.149Z" fill="#E96C79"/>
<path d="M55.9251 322.997C56.0091 322.244 56.3503 321.656 56.9489 321.233C57.5473 320.81 58.2536 320.644 59.0683 320.735C59.8826 320.826 60.5352 321.143 61.0259 321.687C61.5162 322.232 61.7198 322.881 61.6358 323.634C61.5519 324.387 61.2103 324.976 60.6121 325.398C60.0135 325.821 59.3068 325.987 58.4927 325.896C57.678 325.805 57.0257 325.487 56.5351 324.943C56.0444 324.399 55.8412 323.75 55.9251 322.997ZM61.4308 318.819L57.2621 318.354L58.3 303.087L63.7817 303.699L61.4308 318.819Z" fill="white"/>
<path d="M58.8213 378.692C54.8696 378.912 50.5782 377.734 47.2027 375.782C45.8507 375 44.58 374.025 43.3882 373.004C44.2749 371.501 44.9383 370.386 45.2655 369.854C45.4872 369.493 45.8754 368.856 46.5859 368.195C49.2181 365.745 52.5448 367.9 55.9973 365.587C56.8604 365.009 57.3772 364.349 57.6822 363.692C58.6069 361.703 57.3517 360.659 58.1466 360.225C58.7045 359.92 62.1526 360.253 61.2477 365.078L61.0548 365.633C61.9175 362.768 60.8798 362.134 62.9368 362.62C64.5317 363.357 65.1585 366.239 64.1227 368.193C65.285 366 63.8787 364.875 64.5779 365.056C66.4796 365.548 67.492 368.854 65.2294 371.578L65.2296 371.578C66.2468 370.063 66.7177 369.96 66.977 370.564C67.4505 371.666 66.8697 374.005 64.8892 375.696C62.6921 377.573 60.3412 378.282 58.8213 378.692Z" fill="#ECD0C8"/>
<path d="M51.3785 367.462C52.1239 362.856 52.5787 361.373 51.8451 361.278C50.6113 361.118 47.2034 364.454 45.2659 371.048C47.0584 370.201 49.5859 368.308 51.3785 367.462Z" fill="#ECD0C8"/>
<path d="M59.4194 367.62C59.3204 367.62 59.2241 367.568 59.1704 367.477C59.0902 367.339 59.1367 367.163 59.2738 367.083C59.3194 367.056 59.3651 367.029 59.4111 367.001C60.1922 366.526 61.421 364.808 61.089 363.075C61.0591 362.919 61.1613 362.768 61.3174 362.738C61.475 362.708 61.6243 362.811 61.6544 362.967C62.0551 365.057 60.5609 366.976 59.7102 367.493C59.6614 367.523 59.6127 367.552 59.5643 367.58C59.5186 367.607 59.4688 367.62 59.4194 367.62Z" fill="#363E44"/>
<path d="M61.5221 370.191C61.4295 370.191 61.3385 370.146 61.2828 370.064C61.1942 369.932 61.2293 369.753 61.3612 369.664C61.3975 369.64 61.4263 369.63 61.4787 369.613C62.3425 369.327 64.3263 368.352 64.0895 365.476C64.0764 365.318 64.1943 365.178 64.3527 365.166C64.5115 365.151 64.6503 365.27 64.6632 365.429C64.9412 368.805 62.4344 369.903 61.6594 370.16L61.6354 370.168C61.5988 370.183 61.5603 370.191 61.5221 370.191Z" fill="#363E44"/>
<path d="M62.678 373.767C62.5735 373.767 62.4727 373.71 62.4217 373.61C62.3488 373.469 62.4045 373.296 62.546 373.223C62.7346 373.126 62.922 373.021 63.1027 372.911C63.6692 372.567 64.4639 371.86 65.4013 370.869C65.5107 370.753 65.6928 370.748 65.8083 370.858C65.9239 370.967 65.929 371.149 65.8197 371.265C64.8475 372.293 64.0116 373.032 63.4019 373.403C63.2094 373.52 63.0102 373.632 62.8093 373.735C62.7673 373.757 62.7222 373.767 62.678 373.767Z" fill="#363E44"/>
<path d="M54.101 382.669L60.2234 377.204L49.935 366.288L27.6301 382.499C27.5369 382.567 27.4472 382.669 27.3577 382.669H54.101Z" fill="#ECD0C8"/>
</g>
<defs>
<clipPath id="clip0_1_3125">
<rect x="20" y="134" width="252" height="258" rx="20" fill="white"/>
</clipPath>
</defs>
</svg>
