<svg width="292" height="408" viewBox="0 0 292 408" fill="none" xmlns="http://www.w3.org/2000/svg">
<rect width="292" height="408" rx="24" fill="#FFE7E1"/>
<path d="M108.318 28.08V38.192H108.19C108.19 37.424 107.486 29.744 100.254 29.744H89.2458V51.568H99.6138C105.246 51.568 105.822 45.936 105.822 45.36H105.886V59.44H105.822C105.822 58.864 105.246 53.232 99.6138 53.232H89.2458V76.336H101.534C108.766 76.336 109.47 68.656 109.47 67.888H109.598V78H74.9098V77.872C75.2938 77.872 78.8778 77.296 78.8778 70.832V35.248C78.8778 28.784 75.2938 28.208 74.9098 28.208V28.08H108.318ZM116.698 40.688C116.698 31.92 124.25 27.184 133.978 27.184C139.802 27.184 143.322 28.08 147.866 28.08V38.576H147.738C147.354 36.528 146.65 33.904 144.41 31.856C142.426 30.128 139.29 28.848 134.106 28.848C128.858 28.848 123.994 30.96 123.994 35.888C123.994 40.304 128.09 42.672 131.674 44.72L140.698 49.84C147.93 53.936 150.874 58.736 150.874 64.24C150.874 72.816 143.77 78.384 131.994 78.384C127.898 78.384 121.946 78 117.85 78V64.688H117.978C118.298 67.504 118.938 70.576 121.178 73.008C123.162 75.184 126.49 76.72 131.418 76.72C139.866 76.72 142.554 72.752 142.554 68.656C142.554 65.328 140.89 62.448 134.682 58.928L125.21 53.552C119.77 50.48 116.698 46.64 116.698 40.688ZM192.41 28.08V38.192H192.282C192.282 37.424 191.578 29.744 184.346 29.744H172.058V53.488H183.706C189.338 53.488 189.914 47.856 189.914 47.28H189.978V61.36H189.914C189.914 60.784 189.338 55.152 183.706 55.152H172.058V70.832C172.058 77.296 175.642 77.872 176.026 77.872V78H157.722V77.872C158.106 77.872 161.69 77.296 161.69 70.832V35.248C161.69 28.784 158.106 28.208 157.722 28.208V28.08H192.41ZM198.505 91.44C202.729 91.44 203.241 83.952 203.241 78.192V35.248C203.241 28.784 199.657 28.208 199.273 28.208V28.08H217.577V28.208C217.193 28.208 213.609 28.784 213.609 35.248V78.064C213.609 86.704 207.593 91.568 198.505 91.568V91.44Z" fill="#B8381A"/>
<path d="M62.06 116V115.96C62.18 115.96 63.3 115.78 63.3 113.76V102.64C63.3 100.62 62.18 100.44 62.06 100.44V100.4H65.78L74.42 110.9V102.64C74.42 100.62 73.3 100.44 73.18 100.44V100.4H76.22V100.44C76.1 100.44 74.98 100.62 74.98 102.64V116.12L63.86 102.64V113.76C63.86 115.78 64.98 115.96 65.1 115.96V116H62.06ZM82.1228 119.86C83.1828 119.86 83.8628 119.44 84.3028 118.84C84.9828 117.9 85.1028 116.52 85.1028 115.52V114.4C84.4828 115.54 83.2228 116.24 81.8628 116.24C78.7828 116.24 76.8628 113.88 76.8628 110.56C76.8628 106.84 78.7828 104.08 82.1828 104.08C83.7828 104.08 84.5828 104.74 85.1028 105.46V104.28H89.5428V104.32C89.4228 104.32 88.3028 104.5 88.3028 106.52V115.2C88.3028 116.9 87.6628 118.08 86.7628 118.88C85.5428 119.98 83.8228 120.34 82.6028 120.34C80.6028 120.34 79.3028 119.64 78.5628 119.64V116.56H78.6228C78.8028 117.6 79.2828 118.34 79.8428 118.86C80.6428 119.6 81.6028 119.86 82.1228 119.86ZM80.0428 110.36C80.0428 113.12 81.0228 115.36 82.7628 115.36C83.7828 115.36 84.5228 114.76 85.1028 113.38V106.52C84.5828 105.42 83.8428 105.16 83.2628 105.16C81.4228 105.16 80.0428 107.2 80.0428 110.36ZM95.1914 116.2C94.1914 116.2 93.2914 115.9 92.6314 115.32C91.9914 114.74 91.5914 113.88 91.5914 112.74V106.52C91.5914 104.5 90.4714 104.32 90.3514 104.32V104.28H94.7914V112.48C94.7914 112.98 94.8314 113.64 95.0914 114.18C95.3514 114.7 95.8114 115.08 96.5114 115.08C97.9314 115.08 98.9514 113.66 98.9514 111.7V106.52C98.9514 104.5 97.8314 104.32 97.7114 104.32V104.28H102.151V105.08C102.471 104.82 102.571 104.54 102.591 104.28C102.591 104.06 102.511 103.54 101.711 103.34V103.32L103.371 102.16C103.611 102.34 103.951 102.96 103.911 103.5C103.851 104.46 102.831 105.1 102.151 105.4V113.76C102.151 115.78 103.271 115.96 103.391 115.96V116H98.9514V113.92C98.4714 115.04 97.3914 116.2 95.1914 116.2ZM110.827 116.24C106.947 116.24 105.027 113.48 105.027 110.16C105.027 106.84 106.947 104.08 110.827 104.08C112.307 104.08 113.507 104.48 114.427 105.16C114.567 104.96 114.607 104.74 114.587 104.56C114.567 104.34 114.447 103.84 113.627 103.7V103.68L115.187 102.38C115.447 102.54 115.827 103.14 115.847 103.68C115.867 104.42 115.287 105.02 114.727 105.42C115.987 106.54 116.627 108.26 116.627 110.16C116.627 113.48 114.707 116.24 110.827 116.24ZM108.307 110.16C108.307 113.12 108.987 115.76 110.827 115.76C112.667 115.76 113.367 113.12 113.367 110.16C113.367 107.2 112.667 104.56 110.827 104.56C108.987 104.56 108.307 107.2 108.307 110.16ZM108.707 101.8V101.74L109.767 100.26H109.827C110.647 101.4 112.107 102.96 113.067 103.34L113.007 103.4C111.827 103.24 109.727 102.58 108.707 101.8ZM119.064 106.52C119.064 104.5 117.944 104.32 117.824 104.32V104.28H122.264V113.76C122.264 115.78 123.384 115.96 123.504 115.96V116H117.824V115.96C117.944 115.96 119.064 115.78 119.064 113.76V106.52ZM118.864 101.44C118.864 100.5 119.644 99.72 120.584 99.72C121.524 99.72 122.304 100.5 122.304 101.44C122.304 102.38 121.524 103.16 120.584 103.16C119.644 103.16 118.864 102.38 118.864 101.44ZM134.421 116.24C131.341 116.24 129.421 113.88 129.421 110.56C129.421 106.84 131.341 104.08 134.741 104.08C136.341 104.08 137.141 104.74 137.661 105.46V104.28H142.101V104.32C141.981 104.32 140.861 104.5 140.861 106.52V117.76C140.861 119.78 141.981 119.96 142.101 119.96V120H136.421V119.96C136.541 119.96 137.661 119.78 137.661 117.76V114.4C137.041 115.54 135.781 116.24 134.421 116.24ZM132.601 110.36C132.601 113.12 133.581 115.36 135.321 115.36C136.341 115.36 137.081 114.76 137.661 113.38V106.52C137.141 105.42 136.401 105.16 135.821 105.16C133.981 105.16 132.601 107.2 132.601 110.36ZM147.75 116.2C146.75 116.2 145.85 115.9 145.19 115.32C144.55 114.74 144.15 113.88 144.15 112.74V106.52C144.15 104.5 143.03 104.32 142.91 104.32V104.28H147.35V112.48C147.35 112.98 147.39 113.64 147.65 114.18C147.91 114.7 148.37 115.08 149.07 115.08C150.49 115.08 151.51 113.66 151.51 111.7V106.52C151.51 104.5 150.39 104.32 150.27 104.32V104.28H154.71V113.76C154.71 115.78 155.83 115.96 155.95 115.96V116H151.51V113.92C151.03 115.04 149.95 116.2 147.75 116.2ZM161.56 104.92C159.32 104.92 157.92 106.78 157.74 107.94H157.68C157.86 105.84 159.56 104.08 162.7 104.08C163.78 104.08 165.32 104.24 166.36 105.12C167 105.68 167.44 106.52 167.44 107.8V113.76C167.44 115.78 168.56 115.96 168.68 115.96V116H164.24V114.18C163.68 115.12 162.5 116.12 160.38 116.12C158.46 116.12 157 115.2 157 113.24C157 110.64 159.56 108.9 164.24 108.78V107.88C164.24 106.74 163.96 105.98 163.46 105.52C163 105.1 162.34 104.92 161.56 104.92ZM160.2 113.24C160.2 114.2 160.74 115.18 161.84 115.18C163.18 115.18 164.12 113.82 164.24 113.42V109.26C161.16 109.3 160.2 111.78 160.2 113.24ZM171.036 106.52C171.036 104.5 169.916 104.32 169.796 104.32V104.28H174.236V106.36C174.716 105.24 175.796 104.08 177.996 104.08C178.996 104.08 179.896 104.38 180.556 104.96C181.196 105.54 181.596 106.4 181.596 107.54V113.76C181.596 115.78 182.716 115.96 182.836 115.96V116H177.156V115.96C177.276 115.96 178.396 115.78 178.396 113.76V107.8C178.396 107.3 178.356 106.64 178.096 106.1C177.836 105.58 177.376 105.2 176.676 105.2C175.256 105.2 174.236 106.62 174.236 108.58V113.76C174.236 115.78 175.356 115.96 175.476 115.96V116H169.796V115.96C169.916 115.96 171.036 115.78 171.036 113.76V106.52ZM192.561 112.92C192.561 114.1 192.721 115.16 193.901 115.16C194.781 115.16 195.601 114.62 196.001 114.22H196.061C195.921 114.68 194.461 116.14 192.421 116.14C190.681 116.14 189.361 115.64 189.361 113.28V104.76H188.361V104.28H189.361V101.2H192.561V104.28H195.881V104.76H192.561V112.92ZM200.954 104.92C198.714 104.92 197.314 106.78 197.134 107.94H197.074C197.254 105.84 198.954 104.08 202.094 104.08C203.174 104.08 204.714 104.24 205.754 105.12C206.394 105.68 206.834 106.52 206.834 107.8V113.76C206.834 115.78 207.954 115.96 208.074 115.96V116H203.634V114.18C203.074 115.12 201.894 116.12 199.774 116.12C197.854 116.12 196.394 115.2 196.394 113.24C196.394 110.64 198.954 108.9 203.634 108.78V107.88C203.634 106.74 203.354 105.98 202.854 105.52C202.394 105.1 201.734 104.92 200.954 104.92ZM198.754 103.46L198.794 103.48C199.954 103.46 201.394 102.82 202.094 102.36H202.134C202.834 102.82 204.274 103.46 205.434 103.48L205.474 103.46C204.414 102.98 202.694 101.48 202.134 100.56H202.094C201.534 101.48 199.814 102.98 198.754 103.46ZM199.594 113.24C199.594 114.2 200.134 115.18 201.234 115.18C202.574 115.18 203.514 113.82 203.634 113.42V109.26C200.554 109.3 199.594 111.78 199.594 113.24ZM223.831 116V115.96C223.951 115.96 225.071 115.78 225.071 113.76V107.8C225.071 107.3 225.031 106.64 224.771 106.1C224.511 105.58 224.051 105.2 223.351 105.2C221.931 105.2 220.951 106.62 220.951 108.58V113.76C220.951 115.78 222.071 115.96 222.191 115.96V116H216.511V115.96C216.631 115.96 217.751 115.78 217.751 113.76V107.8C217.751 107.3 217.711 106.64 217.451 106.1C217.191 105.58 216.731 105.2 216.031 105.2C214.611 105.2 213.631 106.62 213.631 108.58V113.76C213.631 115.78 214.751 115.96 214.871 115.96V116H209.191V115.96C209.311 115.96 210.431 115.78 210.431 113.76V106.52C210.431 104.5 209.311 104.32 209.191 104.32V104.28H213.631V106.36C214.111 105.24 215.151 104.08 217.351 104.08C218.351 104.08 219.251 104.38 219.911 104.96C220.351 105.36 220.691 105.92 220.851 106.6C221.451 105.24 222.471 104.08 224.671 104.08C225.671 104.08 226.571 104.38 227.231 104.96C227.871 105.54 228.271 106.4 228.271 107.54V113.76C228.271 115.78 229.391 115.96 229.511 115.96V116H223.831Z" fill="#B8381A"/>
<path d="M146.67 388.66C215.888 388.66 272 332.547 272 263.33C272 194.112 215.888 138 146.67 138C77.4526 138 21.3406 194.112 21.3406 263.33C21.3406 332.547 77.4526 388.66 146.67 388.66Z" fill="#B8381A"/>
<path d="M164.827 183.669C164.857 183.304 164.876 182.936 164.876 182.564C164.876 175.137 158.855 169.116 151.428 169.116C149.543 169.116 147.749 169.506 146.12 170.206C145.021 166.129 141.3 163.128 136.875 163.128C135.161 163.128 133.553 163.581 132.162 164.369C128.799 157.273 121.573 152.364 113.198 152.364C104.016 152.364 96.2182 158.265 93.3754 166.48C92.6625 166.39 91.938 166.339 91.2009 166.339C81.6282 166.339 73.8677 174.097 73.8638 183.669H164.827Z" fill="white"/>
<path d="M100.711 176.973L86.386 181.474L111.09 260.111L125.415 255.611L100.711 176.973Z" fill="#F7F1EB"/>
<path d="M88.268 181.797L73.2676 181.117L69.5335 263.464L84.534 264.144L88.268 181.797Z" fill="#F7F1EB"/>
<path d="M69.195 183.492L54.4333 180.741L39.3323 261.777L54.094 264.528L69.195 183.492Z" fill="#F7F1EB"/>
<path d="M42.0985 182.056L27.1221 180.981L21.2201 263.196L36.1965 264.271L42.0985 182.056Z" fill="#F7F1EB"/>
<path d="M78.285 212.496L34.7039 198.67L32.7097 204.956L76.2908 218.782L78.285 212.496Z" fill="#F7F1EB"/>
<path d="M107.575 222.321L64.6615 238.099L66.9372 244.289L109.851 228.51L107.575 222.321Z" fill="#F7F1EB"/>
<path d="M172.341 265.341H155.027V186.295L163.684 172.816L172.341 186.295V265.341Z" fill="#F7F1EB"/>
<path d="M197.253 265.341H179.939V186.295L188.596 172.816L197.253 186.295V265.341Z" fill="#F7F1EB"/>
<path d="M222.165 265.341H204.85V186.295L213.508 172.816L222.165 186.295V265.341Z" fill="#F7F1EB"/>
<path d="M247.077 265.341H229.762V186.295L238.42 172.816L247.077 186.295V265.341Z" fill="#F7F1EB"/>
<path d="M271.989 265.341H254.674V186.295L263.331 172.816L271.989 186.295V265.341Z" fill="#F7F1EB"/>
<path d="M262.647 200.787H160.395V208.033H262.647V200.787Z" fill="#F7F1EB"/>
<path d="M262.647 244.595H158.603V251.841H262.647V244.595Z" fill="#F7F1EB"/>
<path d="M79.9997 315.266L39.9056 309.393L39.0713 352.479L73.9728 353.619C73.9728 353.619 70.9593 341.976 58.6315 335.812L79.9997 315.266Z" fill="#F9DD65"/>
<path d="M107.333 263.013C107.333 263.013 167.903 243.956 184.507 259.323C199.786 273.464 181.496 328.487 181.496 328.487L154.226 326.25L151.941 297.878C151.941 297.878 119.634 308.587 111.742 302.269C104.032 296.097 107.333 263.013 107.333 263.013Z" fill="#8B865C"/>
<path d="M136.252 274.309C136.252 274.309 144.316 337.293 126.259 350.923C109.643 363.465 58.7135 335.748 58.7135 335.748L66.856 303.733L94.0594 312.061C94.0594 312.061 89.2232 278.371 96.8353 271.719C104.271 265.22 136.252 274.309 136.252 274.309Z" fill="#8B865C"/>
<path d="M138.029 301.828C137.954 301.828 137.893 301.767 137.892 301.692C137.852 298.577 137.749 295.334 137.584 292.054C137.581 291.979 137.639 291.914 137.714 291.911C137.789 291.904 137.854 291.965 137.858 292.04C138.023 295.324 138.126 298.57 138.166 301.689C138.167 301.764 138.106 301.827 138.031 301.828C138.03 301.828 138.029 301.828 138.029 301.828Z" fill="#9E9569"/>
<path d="M119.638 327.9C119.591 327.9 119.545 327.876 119.52 327.833C115.858 321.597 109.247 317.505 104.345 315.17C99.029 312.637 94.5259 311.569 94.4809 311.559C94.4072 311.542 94.3615 311.468 94.3788 311.394C94.3959 311.321 94.4696 311.274 94.5433 311.292C94.5885 311.303 99.1203 312.377 104.463 314.922C109.399 317.274 116.059 321.399 119.756 327.694C119.794 327.759 119.772 327.843 119.707 327.881C119.686 327.894 119.662 327.9 119.638 327.9Z" fill="#9E9569"/>
<path d="M209.839 350.218H152.709L158.055 326.549L180.351 328.378L196.536 333.315C204.468 335.464 209.913 342.381 209.839 350.218Z" fill="#F9DD65"/>
<path d="M161.275 218.454C190.716 241.672 201.724 263.978 195.283 268.919C191.546 271.784 178.273 264.589 166.291 252.686C164.087 243.571 155.989 224.69 161.275 218.454Z" fill="white"/>
<path d="M113.562 224.094C122.141 215.401 138.169 207.611 155.817 214.348C174.004 221.29 187.4 236.678 187.4 236.678L167.439 254.079L157.964 280.164L87.9521 283.747C87.9521 283.747 99.6829 238.159 113.562 224.094Z" fill="#F9DD65"/>
<path d="M115.244 237.522C114.473 271.281 146.527 298.905 156.973 291.386C165.614 285.167 143.153 252.958 136.787 243.71C126.962 238.149 122.467 240.961 115.244 237.522Z" fill="white"/>
<path d="M138.502 228.695L107.841 238.893L114.787 259.778L145.448 249.58L138.502 228.695Z" fill="#F9DD65"/>
<path d="M114.694 259.957L110.364 246.935C110.34 246.863 110.379 246.786 110.451 246.762C110.522 246.738 110.6 246.777 110.624 246.849L114.868 259.611L145.27 249.501L140.335 234.662C140.311 234.591 140.35 234.513 140.422 234.489C140.494 234.465 140.571 234.504 140.595 234.576L145.616 249.674L145.486 249.717L114.694 259.957Z" fill="#363E44"/>
<path d="M179.724 255.827C179.723 255.827 179.723 255.826 179.724 255.826C193.811 242.567 203.552 232.89 206.676 230.021C207.004 229.721 207.579 229.188 208.486 228.724C211.848 227.003 214.382 228.983 218.742 228.787C223.69 228.565 226.35 225.639 227.207 226.568C227.803 227.215 227.111 228.601 224.783 230.684C224.783 230.684 224.783 230.685 224.784 230.685C226.734 229.305 229.46 227.55 230.219 228.63C231.029 229.924 228.068 232.362 226.205 233.75C228.46 232.07 230.162 231.852 230.435 232.56C230.865 233.674 229.419 235.383 226.352 237.487L226.352 237.487C228.876 236.626 229.616 236.794 229.705 237.478C229.868 238.727 227.314 240.409 224.828 241.55C222.03 242.835 219.414 242.86 217.764 242.837C217.763 242.837 217.763 242.837 217.763 242.838C208.859 253.147 203.147 259.788 196.125 268.26C194.689 269.993 192.075 270.124 190.472 268.544C186.136 264.272 183.771 261.79 179.724 255.827Z" fill="white"/>
<path d="M179.883 255.813C179.847 255.813 179.811 255.798 179.784 255.77C179.732 255.714 179.734 255.628 179.79 255.576C182.899 252.649 185.98 249.724 189.21 246.633C189.265 246.581 189.352 246.583 189.404 246.637C189.456 246.692 189.454 246.779 189.4 246.831C186.169 249.922 183.087 252.848 179.977 255.775C179.951 255.8 179.917 255.813 179.883 255.813Z" fill="#363E44"/>
<path d="M214.785 229.899C218.131 226.32 218.58 224.32 217.996 223.807C217.013 222.946 212.905 224.833 207.356 229.448C209.414 229.759 212.727 229.588 214.785 229.899Z" fill="white"/>
<path d="M209.446 255.114C209.406 255.114 209.367 255.096 209.341 255.066L196.153 239.654C196.105 239.598 196.11 239.515 196.163 239.465C196.616 239.038 207.269 229.004 207.649 228.721C213.465 223.903 217.341 222.859 218.6 223.963C219.264 224.545 219.523 225.149 217.161 228.026C218.046 228.115 219.357 228.087 220.412 227.815C221.832 227.45 223.214 226.799 224.434 226.225C226.135 225.425 227.478 224.792 228.195 225.287C228.466 225.474 228.625 225.761 228.656 226.116C228.707 226.704 228.415 227.431 227.856 228.15C228.892 227.606 230.682 226.858 231.329 227.778C231.587 228.19 231.642 228.658 231.498 229.174C231.276 229.967 230.61 230.741 229.956 231.286C230.367 231.203 230.733 231.22 231.04 231.339C231.409 231.481 231.683 231.762 231.834 232.154C232.316 233.401 230.512 234.989 228.798 236.424C229.4 236.421 230.429 236.502 230.73 237.062C230.903 237.382 230.92 237.754 230.782 238.167C230.387 239.346 228.742 240.746 226.59 241.733C223.821 243.004 221.472 243.613 219.427 243.599C215.744 247.864 209.611 254.994 209.549 255.066C209.523 255.096 209.485 255.114 209.446 255.114ZM196.446 239.575L209.446 254.766C210.275 253.802 215.845 247.327 219.261 243.373C219.279 243.351 219.305 243.336 219.332 243.329C219.344 243.326 219.357 243.325 219.367 243.324C221.393 243.355 223.716 242.751 226.476 241.484C228.53 240.542 230.156 239.174 230.522 238.08C230.636 237.742 230.624 237.443 230.489 237.192C230.229 236.709 229.018 236.667 228.414 236.713C228.357 236.717 228.301 236.685 228.277 236.633C228.251 236.577 228.266 236.511 228.314 236.471L228.351 236.44C229.983 235.078 232.015 233.382 231.579 232.252C231.456 231.935 231.236 231.707 230.942 231.594C230.469 231.411 229.811 231.519 229.041 231.906C228.973 231.94 228.891 231.912 228.858 231.845C228.824 231.777 228.851 231.695 228.918 231.661C229.669 231.284 230.924 230.209 231.234 229.1C231.357 228.661 231.312 228.268 231.1 227.93C230.507 227.086 228.334 228.131 227.268 228.802C227.216 228.835 227.147 228.83 227.102 228.788C227.074 228.763 227.058 228.727 227.057 228.69C227.056 228.652 227.071 228.616 227.098 228.589C227.949 227.75 228.442 226.811 228.383 226.139C228.359 225.865 228.243 225.654 228.039 225.513C227.452 225.107 226.108 225.74 224.551 226.473C223.32 227.052 221.925 227.709 220.48 228.081C219.287 228.388 217.775 228.393 216.876 228.268C216.827 228.261 216.785 228.228 216.767 228.182C216.749 228.135 216.758 228.083 216.79 228.045C219.343 224.978 218.894 224.585 218.42 224.169C217.605 223.455 214.341 223.532 207.818 228.936C207.521 229.158 200.306 235.939 196.446 239.575Z" fill="#F9DD65"/>
<path d="M210.927 228.331C210.855 228.331 210.795 228.274 210.79 228.202C210.786 228.126 210.843 228.061 210.919 228.057L211.142 228.043C212.746 227.947 215.43 227.786 217.196 228.029C217.271 228.04 217.323 228.109 217.313 228.184C217.303 228.259 217.234 228.311 217.159 228.301C215.42 228.061 212.752 228.221 211.158 228.317L210.935 228.33C210.932 228.331 210.93 228.331 210.927 228.331Z" fill="#F9DD65"/>
<path d="M220.513 232.104C220.443 232.104 220.383 232.05 220.377 231.979C220.37 231.903 220.426 231.837 220.502 231.831C221.017 231.787 221.602 231.737 222.228 231.522C223.425 231.112 225.608 229.897 227.297 228.453C227.354 228.404 227.441 228.411 227.49 228.468C227.539 228.526 227.532 228.612 227.475 228.661C225.76 230.127 223.537 231.363 222.317 231.781C221.659 232.007 221.03 232.06 220.525 232.103C220.521 232.104 220.517 232.104 220.513 232.104Z" fill="#F9DD65"/>
<path d="M222.218 234.941C222.148 234.941 222.088 234.887 222.082 234.816C222.076 234.741 222.131 234.674 222.207 234.668C222.722 234.624 223.914 234.339 224.527 234.114C225.725 233.674 227.457 232.601 228.985 231.63C229.049 231.589 229.134 231.608 229.174 231.672C229.215 231.736 229.196 231.82 229.132 231.861C227.591 232.84 225.845 233.922 224.621 234.371C223.992 234.603 222.763 234.895 222.23 234.941C222.226 234.941 222.222 234.941 222.218 234.941Z" fill="#F9DD65"/>
<path d="M222.143 238.968C222.073 238.968 222.013 238.914 222.007 238.843C222 238.767 222.056 238.701 222.132 238.694C222.718 238.644 223.301 238.54 223.866 238.383C224.859 238.108 228.004 236.652 228.538 236.334C228.603 236.295 228.687 236.317 228.726 236.382C228.764 236.447 228.743 236.531 228.678 236.569C228.123 236.9 224.976 238.36 223.939 238.647C223.358 238.808 222.757 238.916 222.155 238.967C222.151 238.968 222.147 238.968 222.143 238.968Z" fill="#F9DD65"/>
<path d="M153.285 270.951C161.119 276.978 180.27 290.259 182.088 291.63C185.486 294.193 203.366 308.419 201.593 311.222C200.746 312.561 197.178 309.976 195.997 309.067C196.589 310.272 199.362 314.651 198.056 315.854C196.521 317.268 192.416 312.556 192.306 312.523C193.032 313.685 196.107 318.197 195.163 319.138C193.934 320.361 189.814 317.022 188.627 315.965C188.607 316.238 191.53 320.898 190.747 321.616C189.879 322.411 185.962 319.389 184.3 318.336C181.278 316.062 169.064 307.853 162.94 304.147C148.559 295.445 144.712 291.509 138.499 286.078C136.066 283.953 147.966 271.112 153.285 270.951Z" fill="white"/>
<path d="M191.294 323.355C189.729 323.355 186.885 321.652 185.537 320.438C182.282 317.988 162.381 305.054 162.18 304.924C162.145 304.901 162.122 304.862 162.119 304.82C162.115 304.778 162.131 304.737 162.162 304.708L180.571 287.81C180.622 287.763 180.699 287.762 180.752 287.806C180.813 287.858 186.917 293.026 192.705 298.503C196.107 301.722 198.736 304.416 200.52 306.511C202.821 309.214 203.704 310.901 203.219 311.668C202.969 312.063 202.564 312.312 202.017 312.409C200.874 312.612 199.267 312.102 198.177 311.442C198.272 311.607 198.381 311.789 198.497 311.983C199.538 313.728 201.11 316.366 199.884 317.495C198.659 318.624 196.432 316.994 195.049 315.786C196.233 317.355 197.59 319.392 196.668 320.574C196.444 320.86 196.129 321.024 195.731 321.06C194.182 321.2 191.715 319.358 190.603 318.452C190.635 318.503 190.668 318.554 190.7 318.605C191.57 319.976 193.026 322.27 192.082 323.111C191.892 323.28 191.621 323.355 191.294 323.355ZM162.478 304.79C164.318 305.987 182.589 317.876 185.711 320.227C187.482 321.82 191.024 323.687 191.9 322.907C192.67 322.22 191.183 319.878 190.469 318.752C190.065 318.116 189.979 317.969 189.987 317.858C189.991 317.806 190.024 317.761 190.072 317.741C190.12 317.722 190.176 317.731 190.215 317.766C191.547 318.952 194.2 320.923 195.707 320.787C196.031 320.757 196.275 320.633 196.452 320.405C197.365 319.236 195.496 316.81 194.379 315.361C194.206 315.136 194.042 314.923 193.909 314.742C193.874 314.694 193.874 314.63 193.908 314.582C193.942 314.534 194.002 314.513 194.059 314.53C194.105 314.544 194.128 314.564 194.361 314.784C197.002 317.279 198.798 318.123 199.698 317.293C200.761 316.315 199.196 313.691 198.261 312.123C198.01 311.702 197.793 311.339 197.661 311.07C197.633 311.013 197.648 310.944 197.698 310.904C197.747 310.864 197.817 310.862 197.868 310.901C198.738 311.571 200.646 312.374 201.969 312.14C202.437 312.057 202.78 311.848 202.987 311.521C204.52 309.099 187.486 293.867 180.667 288.093L162.478 304.79Z" fill="#F9DD65"/>
<path d="M196.134 309.11C196.089 309.11 196.045 309.088 196.019 309.047C195.537 308.304 195 307.589 194.423 306.923C193.386 305.724 192.195 304.65 190.886 303.732C190.824 303.689 190.809 303.604 190.852 303.541C190.896 303.479 190.981 303.464 191.043 303.508C192.371 304.439 193.578 305.527 194.63 306.743C195.215 307.42 195.76 308.145 196.249 308.898C196.29 308.961 196.272 309.046 196.208 309.087C196.185 309.103 196.159 309.11 196.134 309.11Z" fill="#363E44"/>
<path d="M192.44 312.624C192.4 312.624 192.361 312.607 192.334 312.573C192.217 312.429 192.095 312.285 191.969 312.139C190.932 310.941 189.742 309.867 188.432 308.949C188.37 308.906 188.355 308.82 188.399 308.758C188.442 308.696 188.527 308.681 188.59 308.725C189.917 309.656 191.124 310.744 192.177 311.96C192.304 312.108 192.427 312.254 192.546 312.4C192.594 312.459 192.585 312.545 192.527 312.593C192.501 312.614 192.47 312.624 192.44 312.624Z" fill="#363E44"/>
<path d="M188.572 316.003C188.537 316.003 188.503 315.99 188.476 315.964C187.733 315.241 186.924 314.571 186.069 313.973C186.007 313.929 185.992 313.844 186.036 313.782C186.079 313.72 186.164 313.705 186.227 313.748C187.093 314.355 187.914 315.035 188.667 315.768C188.722 315.821 188.723 315.908 188.67 315.962C188.643 315.989 188.608 316.003 188.572 316.003Z" fill="#363E44"/>
<path d="M168.676 186.85C169.179 186.96 173.984 188.095 175.766 192.21C177.092 195.271 176.353 198.41 174.317 203.487C171.92 209.465 169.651 212.704 167.5 213.34C164.102 214.345 157.152 207.38 155.75 201.027C154.737 196.441 156.604 191.562 160.23 188.525C163.846 185.497 168.354 186.779 168.676 186.85Z" fill="white"/>
<path d="M152.247 223.182L151.286 222.728C148.395 221.361 147.159 217.909 148.526 215.018L155.497 200.269C156.864 197.377 160.316 196.141 163.208 197.508L164.168 197.962C167.06 199.329 168.296 202.781 166.929 205.672L159.957 220.421C158.59 223.313 155.138 224.549 152.247 223.182Z" fill="white"/>
<path d="M163.794 212.503C163.769 212.503 163.743 212.496 163.721 212.482C160.579 210.508 156.67 205.832 155.616 201.056C155.6 200.982 155.647 200.909 155.72 200.893C155.795 200.876 155.867 200.923 155.884 200.997C156.884 205.53 160.728 210.278 163.867 212.25C163.931 212.29 163.95 212.374 163.91 212.439C163.884 212.48 163.839 212.503 163.794 212.503Z" fill="#363E44"/>
<path d="M162.712 194.543C160.419 194.936 158.937 196.232 157.94 198.627C157.12 200.594 158.42 204.087 156.808 207.088C154.906 210.63 150.156 211.266 147.166 209.728C144.784 208.502 144.21 205.631 144.116 205.12C144.215 205.229 145.125 206.201 146.478 206.055C147.398 205.955 147.979 205.397 148.15 205.219C147.826 205.178 146.893 205.015 146.182 204.235C145.34 203.308 145.151 201.885 145.691 200.594C146.784 202.232 148.03 202.086 148.609 202.119C148.985 202.141 151.233 201.66 153.267 198.38C155.25 195.182 155.805 194.455 157.153 193.855C158.389 193.304 160.146 193.277 162.712 194.543Z" fill="#363E44"/>
<path d="M160.973 202.595C162.85 202.351 164.137 200.353 163.848 198.132C163.56 195.912 161.804 194.31 159.927 194.554C158.05 194.798 156.763 196.796 157.052 199.017C157.34 201.237 159.096 202.839 160.973 202.595Z" fill="white"/>
<path d="M158.819 199.351C158.76 199.351 158.706 199.313 158.688 199.254C158.645 199.115 158.614 198.971 158.595 198.824C158.519 198.246 158.639 197.677 158.933 197.222C159.231 196.759 159.672 196.468 160.174 196.403C160.429 196.37 160.683 196.396 160.93 196.482C161.001 196.507 161.039 196.585 161.014 196.657C160.989 196.728 160.912 196.766 160.84 196.741C160.633 196.669 160.421 196.647 160.209 196.674C159.789 196.729 159.417 196.976 159.163 197.37C158.905 197.771 158.799 198.275 158.866 198.789C158.883 198.92 158.911 199.049 158.95 199.173C158.972 199.246 158.932 199.322 158.859 199.345C158.846 199.349 158.832 199.351 158.819 199.351Z" fill="#363E44"/>
<path d="M164.733 197.783C164.733 197.783 166.563 197.824 168.254 198.782C168.614 198.986 166.304 201.481 166.055 201.124C164.959 199.556 164.733 197.783 164.733 197.783Z" fill="#F9DD65"/>
<path d="M169.296 199.527C168.968 199.232 168.615 198.99 168.256 198.786C167.131 199.14 166.324 200.047 166.054 201.122C166.303 201.479 166.597 201.826 166.944 202.139C168.815 203.823 171.507 203.882 171.507 203.882C171.507 203.882 171.166 201.211 169.296 199.527Z" fill="#373E44"/>
<path d="M168.336 208.391C167.81 208.391 167.32 208.108 167.09 207.648C166.748 206.966 167.171 206.305 167.19 206.278C167.231 206.215 167.316 206.197 167.379 206.238C167.442 206.279 167.46 206.364 167.419 206.428C167.415 206.433 167.064 206.984 167.335 207.525C167.549 207.954 168.051 208.189 168.553 208.097C168.627 208.084 168.699 208.133 168.712 208.207C168.726 208.282 168.676 208.353 168.602 208.366C168.513 208.383 168.424 208.391 168.336 208.391Z" fill="#363E44"/>
<path d="M171.963 207.316C171.897 207.316 171.839 207.269 171.828 207.201C171.815 207.127 171.866 207.056 171.941 207.044C172.554 206.944 172.925 206.76 173.012 206.512C173.058 206.381 173.021 206.262 172.945 206.045C172.885 205.875 172.812 205.664 172.78 205.386C172.734 204.974 172.795 204.55 172.961 204.125C172.989 204.054 173.068 204.019 173.138 204.047C173.209 204.075 173.244 204.154 173.216 204.225C173.066 204.608 173.011 204.988 173.053 205.355C173.08 205.603 173.146 205.79 173.203 205.954C173.282 206.18 173.351 206.375 173.27 206.603C173.145 206.961 172.724 207.194 171.985 207.315C171.977 207.316 171.97 207.316 171.963 207.316Z" fill="#363E44"/>
<path d="M177.47 195.225C176.6 189.129 172.123 184.571 167.029 184.148C160.973 183.645 155.097 189.071 154.644 196.544C158.093 196.391 161.574 196.215 165.086 196.016C169.261 195.78 173.389 195.515 177.47 195.225Z" fill="#F9DD65"/>
<path d="M144.542 197.075C144.471 197.075 144.41 197.019 144.406 196.946C144.401 196.871 144.459 196.806 144.534 196.801L165.655 195.489C165.732 195.485 165.795 195.542 165.8 195.617C165.805 195.693 165.747 195.758 165.672 195.762L144.551 197.074C144.548 197.075 144.545 197.075 144.542 197.075Z" fill="#F9DD65"/>
<path d="M170.681 193.658C172.567 193.527 174.453 193.396 176.339 193.264C178.089 192.72 179.07 192.023 178.946 190.706C178.848 189.657 177.349 189.145 176.437 189.23C173.272 189.526 170.844 193.352 170.681 193.658Z" fill="#363E44"/>
<path d="M225.877 299.524C226.414 305.111 226.595 311.765 225.877 319.202C224.638 332.036 221.179 342.48 218.006 349.899C225.352 350.949 232.699 351.998 240.045 353.048C237.659 347.285 235.334 340.291 233.748 332.189C230.542 315.81 231.693 301.713 233.355 292.047C230.862 294.539 228.369 297.032 225.877 299.524Z" fill="#E6D0BE"/>
<path d="M257.09 274.471C256.029 273.244 254.511 273.141 252.424 273.749C252.433 272.968 252.433 272.175 252.421 271.367C254.113 269.017 255.712 266.076 254.557 264.303C254.375 264.025 253.667 263.036 251.975 263.203C251.728 260.497 251.4 257.859 250.999 255.301C253.361 246.894 253.665 242.738 251.756 241.633C250.971 241.178 249.85 241.118 248.178 242.273C248.035 241.762 247.889 241.257 247.74 240.756C249.102 237.065 250.696 231.761 248.489 229.964C248.006 229.57 246.49 228.71 244.063 230.51C243.819 229.941 243.57 229.384 243.32 228.837C244.751 223.428 244.148 220.611 242.888 219.963C242.111 219.563 240.692 219.426 239.054 220.988C235.224 215.105 231.182 211.761 227.822 211.761C224.115 211.761 220.138 215.373 216.438 221.8C215.583 220.908 214.713 220.456 213.884 220.763C211.978 221.467 211.881 226.809 212.108 230.958C211.711 231.966 211.32 233.009 210.937 234.085C209.252 232.427 208.379 232.477 207.616 232.831C206.36 233.416 206.451 238.387 207.868 244.076C207.726 244.613 207.586 245.157 207.448 245.705C205.343 243.081 204.692 243.65 204.016 243.899C201.966 244.655 203.148 253.122 204.474 260.263C204.287 261.426 204.108 262.601 203.938 263.794C202.5 273.928 202.86 281.967 204.426 288.273C202.466 287.895 201.576 288.096 201.282 288.573C200.454 289.917 203.589 294.701 208.915 298.57C213.986 305.875 221.559 308.576 228.462 308.576C238.201 308.576 246.141 302.916 249.964 290.939C256.115 284.458 259.156 276.859 257.09 274.471Z" fill="#00AB4C"/>
<path d="M207.84 276.762C207.773 276.762 207.714 276.712 207.705 276.643C206.866 270.322 207.467 266.826 209.442 266.533C211.479 266.228 213.549 270.083 214.433 271.978C214.019 269.097 214.388 267.503 215.555 267.117C217.188 266.578 219.854 268.777 221.623 272.123C221.659 272.19 221.633 272.273 221.566 272.309C221.499 272.344 221.416 272.318 221.381 272.251C219.672 269.019 217.151 266.878 215.641 267.378C214.489 267.758 214.241 269.601 214.883 273.011C214.896 273.08 214.855 273.148 214.787 273.168C214.719 273.187 214.648 273.153 214.622 273.087C213.876 271.238 211.503 266.505 209.482 266.804C207.708 267.067 207.173 270.548 207.976 276.607C207.986 276.682 207.934 276.75 207.859 276.76C207.852 276.761 207.846 276.762 207.84 276.762Z" fill="#E6D0BE"/>
<path d="M243.401 294.366C243.395 294.366 243.389 294.365 243.383 294.364C243.308 294.354 243.255 294.286 243.265 294.211C243.941 289.117 243.496 286.19 242.014 285.97C240.322 285.716 238.331 289.7 237.704 291.254C237.678 291.32 237.607 291.354 237.539 291.335C237.471 291.315 237.429 291.247 237.443 291.178C237.974 288.355 237.764 286.766 236.818 286.453C235.575 286.042 233.416 287.881 232.004 290.552C231.969 290.619 231.886 290.644 231.819 290.609C231.752 290.573 231.727 290.491 231.762 290.424C233.259 287.593 235.518 285.735 236.904 286.193C237.879 286.515 238.202 287.821 237.884 290.174C238.662 288.534 240.362 285.449 242.054 285.699C243.733 285.948 244.245 288.904 243.536 294.247C243.528 294.316 243.469 294.366 243.401 294.366Z" fill="#E6D0BE"/>
<path d="M240.079 252.086C240.073 252.086 240.067 252.085 240.061 252.085C239.986 252.075 239.933 252.006 239.943 251.931C240.619 246.837 240.175 243.91 238.692 243.69C237.007 243.441 235.009 247.42 234.382 248.974C234.356 249.04 234.284 249.074 234.217 249.055C234.149 249.035 234.108 248.967 234.121 248.898C234.652 246.075 234.442 244.486 233.496 244.173C232.254 243.763 230.095 245.601 228.682 248.272C228.647 248.339 228.565 248.364 228.497 248.329C228.43 248.294 228.405 248.211 228.44 248.144C229.937 245.313 232.196 243.455 233.582 243.913C234.557 244.235 234.881 245.541 234.562 247.894C235.34 246.254 237.044 243.17 238.732 243.419C240.411 243.668 240.923 246.624 240.215 251.967C240.206 252.036 240.147 252.086 240.079 252.086Z" fill="#E6D0BE"/>
<path d="M252.566 355.684C252.893 354.903 253.109 354.061 253.177 353.17C253.516 348.712 250.176 344.822 245.717 344.483C242.745 344.257 240.028 345.667 238.445 347.951C237.299 344.07 233.857 341.11 229.582 340.785C228.27 340.685 226.999 340.845 225.816 341.217C224.637 340.023 223.042 339.229 221.237 339.092C220.073 339.003 218.956 339.203 217.946 339.619C217.314 335.881 214.207 332.908 210.256 332.608C205.603 332.254 201.545 335.739 201.191 340.392C201.189 340.412 201.189 340.432 201.188 340.452C200.275 340.063 199.285 339.813 198.24 339.733C193.584 339.379 189.467 342.507 188.446 346.92C188.127 346.847 187.803 346.789 187.467 346.763C183.881 346.491 180.752 349.177 180.48 352.763C180.401 353.795 180.574 354.786 180.937 355.684L252.566 355.684Z" fill="#716D4F"/>
<path d="M55.8706 292.372C55.8606 292.372 55.8504 292.371 55.8402 292.368C55.7665 292.352 55.7202 292.278 55.7368 292.205L62.0715 264.151L55.7396 243.8C55.7337 243.781 55.732 243.76 55.7347 243.741L59.8122 213.387C59.8222 213.312 59.8914 213.259 59.9662 213.269C60.0413 213.279 60.0939 213.348 60.0837 213.423L56.0103 243.747L62.344 264.105C62.3512 264.128 62.3521 264.153 62.3469 264.176L56.0041 292.265C55.9896 292.329 55.9332 292.372 55.8706 292.372Z" fill="#D3BBA3"/>
<path d="M62.1122 264.308C62.0924 264.308 62.0724 264.303 62.0534 264.294L43.0255 255.234C42.9831 255.213 42.954 255.173 42.9484 255.127L39.3346 225.765L22.6551 220.356C22.5832 220.332 22.5437 220.255 22.567 220.183C22.5903 220.111 22.6673 220.072 22.7396 220.095L39.5023 225.532C39.5529 225.548 39.5895 225.592 39.596 225.645L43.2111 255.019L62.1711 264.047C62.2394 264.08 62.2685 264.161 62.236 264.23C62.2126 264.279 62.1634 264.308 62.1122 264.308Z" fill="#D3BBA3"/>
<path d="M60.5643 258.585C60.5395 258.585 60.5146 258.578 60.492 258.564C60.4277 258.524 60.4083 258.44 60.4483 258.376L70.53 242.206C70.5375 242.195 70.5467 242.184 70.5575 242.175L84.1115 230.658L82.4155 199.963C82.4112 199.887 82.4692 199.823 82.5445 199.819C82.623 199.814 82.6847 199.872 82.6889 199.948L84.3886 230.711C84.3911 230.754 84.3732 230.795 84.3405 230.823L70.7511 242.369L60.6806 258.52C60.6547 258.562 60.61 258.585 60.5643 258.585Z" fill="#D3BBA3"/>
<path d="M21.1371 245.809C21.0908 245.809 21.0456 245.785 21.02 245.743C20.9806 245.678 21.0012 245.594 21.066 245.555L29.5228 240.42C29.5491 240.404 29.5807 240.397 29.6113 240.401L41.3904 241.912C41.4654 241.921 41.5186 241.99 41.5088 242.065C41.4992 242.14 41.4314 242.194 41.3556 242.183L29.624 240.679L21.2082 245.789C21.1857 245.802 21.1613 245.809 21.1371 245.809Z" fill="#D3BBA3"/>
<path d="M25.2649 243.09C25.2133 243.09 25.164 243.061 25.1407 243.011L23.0265 238.481C22.9946 238.412 23.0241 238.331 23.0927 238.299C23.1613 238.267 23.2428 238.297 23.2747 238.365L25.3889 242.896C25.4208 242.964 25.3914 243.046 25.3227 243.078C25.304 243.086 25.2843 243.09 25.2649 243.09Z" fill="#D3BBA3"/>
<path d="M34.3259 223.987C34.3235 223.987 34.3215 223.987 34.3191 223.987C34.2435 223.983 34.1852 223.919 34.1889 223.844L34.4909 217.501C34.4945 217.425 34.5624 217.369 34.6343 217.371C34.7099 217.374 34.7683 217.438 34.7646 217.514L34.4626 223.856C34.4591 223.93 34.3985 223.987 34.3259 223.987Z" fill="#D3BBA3"/>
<path d="M43.2607 255.071C43.2465 255.071 43.2318 255.069 43.2174 255.064C43.1458 255.04 43.1069 254.962 43.1309 254.891L46.1511 245.83C46.1749 245.758 46.252 245.719 46.3244 245.743C46.396 245.767 46.4349 245.845 46.4109 245.916L43.3907 254.977C43.3715 255.035 43.3181 255.071 43.2607 255.071Z" fill="#D3BBA3"/>
<path d="M56.9275 235.062C56.8685 235.062 56.8141 235.023 56.7963 234.964L54.9843 228.923L52.8676 219.551C52.851 219.477 52.8973 219.404 52.971 219.387C53.0447 219.371 53.1181 219.417 53.1349 219.491L55.249 228.854L57.0587 234.885C57.0803 234.958 57.0393 235.034 56.9668 235.056C56.9536 235.06 56.9404 235.062 56.9275 235.062Z" fill="#D3BBA3"/>
<path d="M84.2521 230.856C84.2052 230.856 84.1598 230.832 84.1342 230.789L75.3845 216.042C75.346 215.977 75.3674 215.893 75.4324 215.854C75.4974 215.816 75.5813 215.837 75.6202 215.902L84.3699 230.649C84.4084 230.714 84.387 230.798 84.3219 230.837C84.3 230.85 84.2759 230.856 84.2521 230.856Z" fill="#D3BBA3"/>
<path d="M80.0327 245.406C80.0187 245.406 80.0049 245.404 79.9915 245.4L70.6768 242.459C70.6046 242.436 70.5646 242.359 70.5875 242.287C70.6101 242.215 70.6874 242.175 70.7593 242.198L80.0505 245.131L92.1072 244.528C92.1813 244.523 92.2471 244.583 92.2509 244.658C92.2546 244.734 92.1965 244.798 92.1209 244.802L80.0397 245.406C80.0374 245.406 80.035 245.406 80.0327 245.406Z" fill="#D3BBA3"/>
<path d="M88.7915 250.843C88.7381 250.843 88.6873 250.811 88.6652 250.759L86.2489 245.02C86.2196 244.95 86.2523 244.87 86.322 244.841C86.3909 244.812 86.472 244.844 86.5015 244.914L88.9178 250.653C88.9471 250.722 88.9145 250.803 88.8447 250.832C88.8274 250.839 88.8093 250.843 88.7915 250.843Z" fill="#D3BBA3"/>
<path d="M83.9023 222.558C83.8559 222.558 83.8106 222.534 83.7849 222.492C83.7459 222.427 83.7667 222.343 83.8316 222.304L88.9745 219.206L90.1691 214.429C90.1874 214.355 90.2617 214.31 90.3351 214.329C90.4085 214.347 90.4532 214.422 90.4348 214.495L89.2267 219.328C89.2179 219.363 89.1955 219.393 89.1645 219.412L83.9731 222.538C83.9508 222.552 83.9264 222.558 83.9023 222.558Z" fill="#D3BBA3"/>
<path d="M78.5893 221.41C78.5832 221.41 78.5772 221.41 78.571 221.409L72.7659 220.638C72.6909 220.628 72.6381 220.56 72.6482 220.485C72.6582 220.41 72.726 220.357 72.802 220.367L78.6072 221.137C78.6821 221.147 78.735 221.216 78.7249 221.291C78.7158 221.36 78.6569 221.41 78.5893 221.41Z" fill="#D3BBA3"/>
<path d="M82.7508 205.538C82.7248 205.538 82.6984 205.53 82.675 205.515L77.2385 201.891C77.1755 201.849 77.1585 201.764 77.2006 201.701C77.2425 201.638 77.3273 201.62 77.3906 201.663L82.827 205.287C82.89 205.329 82.907 205.414 82.8649 205.477C82.8386 205.516 82.7951 205.538 82.7508 205.538Z" fill="#D3BBA3"/>
<path d="M46.7012 231.502C46.7012 231.502 49.89 231.268 51.8672 229.151C53.8444 227.034 53.8613 223.837 53.8613 223.837C53.8613 223.837 50.6724 224.071 48.6952 226.188C46.718 228.305 46.7012 231.502 46.7012 231.502Z" fill="#D3BBA3"/>
<path d="M96.4516 225.34C96.4516 225.34 95.9877 222.471 93.9149 220.848C91.8422 219.225 88.9457 219.462 88.9457 219.462C88.9457 219.462 89.4097 222.33 91.4824 223.954C93.5551 225.577 96.4516 225.34 96.4516 225.34Z" fill="#D3BBA3"/>
<path d="M43.9592 283.788C40.8786 283.738 38.4238 281.103 38.4238 281.103C38.4238 281.103 40.9634 278.549 44.0439 278.599C47.1245 278.65 49.5793 281.285 49.5793 281.285C49.5793 281.285 47.0397 283.838 43.9592 283.788Z" fill="#E6D0BE"/>
<path d="M45.1971 293.226C45.1644 293.226 45.1317 293.215 45.1055 293.191C44.9945 293.091 42.383 290.708 42.278 287.607C42.1726 284.505 44.6165 281.951 44.7206 281.843C44.7721 281.791 44.8558 281.788 44.9106 281.837C45.0217 281.937 47.6329 284.32 47.7381 287.421C47.8433 290.523 45.3997 293.077 45.2956 293.185C45.2685 293.212 45.2329 293.226 45.1971 293.226ZM44.8255 282.134C44.3791 282.635 42.4616 284.947 42.5515 287.597C42.6415 290.248 44.7113 292.424 45.1904 292.894C45.6368 292.393 47.5541 290.081 47.4643 287.431C47.3743 284.778 45.3049 282.603 44.8255 282.134Z" fill="#E6D0BE"/>
<path d="M47.5942 285.676C47.548 285.676 47.5031 285.652 47.4774 285.61C47.3993 285.483 45.5719 282.457 46.3516 279.453C47.1311 276.449 50.1996 274.693 50.3298 274.62C50.3938 274.584 50.4751 274.605 50.5138 274.668C50.5918 274.795 52.4193 277.821 51.6397 280.825C50.86 283.829 47.7916 285.585 47.6613 285.658C47.6401 285.67 47.6169 285.676 47.5942 285.676ZM50.3479 274.929C49.7778 275.282 47.283 276.955 46.6168 279.521C45.95 282.091 47.3167 284.763 47.6432 285.349C48.2133 284.996 50.7081 283.323 51.3745 280.756C52.0406 278.189 50.674 275.515 50.3479 274.929Z" fill="#E6D0BE"/>
<path d="M56.0049 294.978C54.8336 294.978 52.4284 294.775 50.6673 293.274C48.3057 291.26 48.0669 287.733 48.0579 287.584C48.0535 287.511 48.1079 287.447 48.181 287.44C48.33 287.425 51.8502 287.103 54.2116 289.117C56.5733 291.13 56.812 294.657 56.8211 294.806C56.8255 294.88 56.7711 294.944 56.698 294.951C56.6603 294.955 56.4041 294.978 56.0049 294.978ZM48.3436 287.703C48.4125 288.37 48.827 291.345 50.8451 293.065C52.8631 294.786 55.8661 294.725 56.5358 294.688C56.4669 294.02 56.0524 291.046 54.0342 289.325C52.016 287.604 49.013 287.666 48.3436 287.703Z" fill="#D3BBA3"/>
<path d="M52.0309 288.886C48.9504 288.836 46.4956 286.2 46.4956 286.2C46.4956 286.2 49.0352 283.647 52.1157 283.697C55.1962 283.748 57.651 286.383 57.651 286.383C57.651 286.383 55.1115 288.936 52.0309 288.886Z" fill="#E6D0BE"/>
<path d="M37.8097 286.481C37.3714 283.432 39.5843 280.591 39.5843 280.591C39.5843 280.591 42.5078 282.694 42.9461 285.743C43.3844 288.793 41.1715 291.634 41.1715 291.634C41.1715 291.634 38.248 289.531 37.8097 286.481Z" fill="#D3BBA3"/>
<path d="M54.2863 287.664C56.7226 285.778 60.2858 286.301 60.2858 286.301C60.2858 286.301 59.899 289.882 57.4627 291.767C55.0263 293.653 51.4631 293.13 51.4631 293.13C51.4631 293.13 51.8499 289.55 54.2863 287.664Z" fill="#D3BBA3"/>
<path d="M64.9359 295.119C64.9228 295.119 64.9096 295.117 64.8965 295.113C64.7534 295.07 61.3762 294.025 59.9604 291.264C58.5448 288.502 59.6685 285.15 59.7172 285.009C59.7411 284.939 59.8161 284.901 59.886 284.922C60.0292 284.965 63.4064 286.01 64.8221 288.771C66.2377 291.533 65.114 294.885 65.0654 295.026C65.0459 295.083 64.9931 295.119 64.9359 295.119ZM60.2041 291.139C61.4151 293.501 64.2131 294.588 64.8466 294.808C65.0373 294.165 65.7879 291.257 64.5783 288.897C63.3673 286.534 60.5691 285.448 59.9356 285.227C59.7451 285.87 58.9945 288.779 60.2041 291.139Z" fill="#E6D0BE"/>
<path d="M57.981 293.503C60.9764 292.783 64.0116 294.721 64.0116 294.721C64.0116 294.721 62.1901 297.828 59.1947 298.548C56.1992 299.269 53.1641 297.33 53.1641 297.33C53.1641 297.33 54.9855 294.224 57.981 293.503Z" fill="#E6D0BE"/>
<path d="M46.7178 297.26C44.3141 295.333 43.9885 291.747 43.9885 291.747C43.9885 291.747 47.5601 291.285 49.9639 293.212C52.3677 295.139 52.6933 298.726 52.6933 298.726C52.6933 298.726 49.1216 299.188 46.7178 297.26Z" fill="#D3BBA3"/>
<path d="M57.1079 286.597C57.0963 286.597 57.0845 286.595 57.0729 286.592C56.9284 286.554 53.5169 285.628 52.006 282.917C50.4951 280.206 51.5015 276.818 51.5452 276.675C51.5666 276.604 51.6403 276.563 51.7111 276.582C51.8556 276.62 55.2672 277.547 56.778 280.257C58.2889 282.968 57.2825 286.357 57.2388 286.5C57.2208 286.559 57.1668 286.597 57.1079 286.597ZM52.2452 282.784C53.5376 285.102 56.3719 286.091 57.0126 286.289C57.1808 285.64 57.8299 282.707 56.5388 280.391C55.2476 278.074 52.4121 277.084 51.7714 276.885C51.6033 277.535 50.954 280.467 52.2452 282.784Z" fill="#D3BBA3"/>
<path d="M67.662 296.533C64.6887 297.341 61.5986 295.491 61.5986 295.491C61.5986 295.491 63.3291 292.333 66.3024 291.525C69.2757 290.718 72.3658 292.568 72.3658 292.568C72.3658 292.568 70.6352 295.726 67.662 296.533Z" fill="#D3BBA3"/>
<path d="M67.6491 291.034C65.2454 289.107 64.9198 285.52 64.9198 285.52C64.9198 285.52 68.4915 285.058 70.8951 286.985C73.2988 288.912 73.6244 292.499 73.6244 292.499C73.6244 292.499 70.0528 292.961 67.6491 291.034Z" fill="#E6D0BE"/>
<path d="M260.063 210.959L260.021 210.95C253.682 209.664 248.722 204.718 247.419 198.381L247.41 198.423C246.125 204.763 241.178 209.723 234.842 211.026L234.883 211.034C241.223 212.32 246.183 217.266 247.486 223.603L247.494 223.561C248.78 217.221 253.727 212.262 260.063 210.959Z" fill="white"/>
<path d="M237.573 225.713L237.552 225.709C234.447 225.079 232.017 222.656 231.379 219.553L231.375 219.573C230.745 222.678 228.322 225.108 225.219 225.746L225.239 225.75C228.344 226.38 230.774 228.803 231.412 231.907L231.416 231.887C232.046 228.781 234.469 226.352 237.573 225.713Z" fill="white"/>
<path d="M216.312 290.349L216.278 290.342C211.183 289.309 207.196 285.333 206.149 280.24L206.142 280.273C205.108 285.369 201.133 289.355 196.04 290.403L196.073 290.409C201.169 291.443 205.155 295.419 206.202 300.512L206.209 300.478C207.243 295.383 211.219 291.396 216.312 290.349Z" fill="white"/>
<path d="M205.243 203.336L205.217 203.331C201.199 202.516 198.056 199.381 197.231 195.366L197.225 195.392C196.41 199.41 193.276 202.553 189.26 203.379L189.287 203.384C193.304 204.199 196.447 207.333 197.273 211.349L197.278 211.322C198.093 207.305 201.228 204.162 205.243 203.336Z" fill="white"/>
<path d="M172.726 377.172C172.768 377.157 172.81 377.143 172.852 377.128C184.126 373.006 190.068 360.921 189.16 358.437C188.228 355.887 175.916 350.551 164.642 354.673C164.6 354.688 164.56 354.705 164.518 354.72L172.726 377.172Z" fill="#F9DD65"/>
<path d="M136.727 369.223C136.671 369.223 136.619 369.189 136.599 369.133C136.573 369.062 136.609 368.984 136.68 368.958L161.175 360.002L163.882 367.407L179.878 361.559C179.949 361.533 180.028 361.57 180.054 361.641C180.08 361.712 180.043 361.79 179.972 361.816L163.719 367.759L161.012 360.353L136.774 369.215C136.759 369.221 136.743 369.223 136.727 369.223Z" fill="#363E44"/>
<path d="M141.286 370.752C149.318 367.815 155.322 364.044 154.695 362.328C154.068 360.613 147.048 361.604 139.015 364.541C130.982 367.478 124.979 371.249 125.606 372.964C126.233 374.679 133.253 373.689 141.286 370.752Z" fill="#F9DD65"/>
</svg>
