<svg width="292" height="408" viewBox="0 0 292 408" fill="none" xmlns="http://www.w3.org/2000/svg">
<rect width="292" height="408" rx="24" fill="#FFF5F3"/>
<path d="M68.691 78V77.872C69.075 77.872 72.659 77.296 72.659 70.832V35.248C72.659 28.784 69.075 28.208 68.691 28.208V28.08H86.995V28.208C86.611 28.208 83.027 28.784 83.027 35.248V70.832C83.027 77.296 86.611 77.872 86.995 77.872V78H68.691ZM93.6045 78V77.872C93.9885 77.872 97.5725 77.296 97.5725 70.832V35.248C97.5725 28.784 93.9885 28.208 93.6045 28.208V28.08H105.509L133.157 61.68V35.248C133.157 28.784 129.573 28.208 129.189 28.208V28.08H138.917V28.208C138.533 28.208 134.949 28.784 134.949 35.248V78.384L99.3645 35.248V70.832C99.3645 77.296 102.949 77.872 103.333 77.872V78H93.6045ZM179.942 28.08V38.192H179.814C179.814 37.424 179.11 29.744 171.878 29.744H159.59V53.488H171.238C176.87 53.488 177.446 47.856 177.446 47.28H177.51V61.36H177.446C177.446 60.784 176.87 55.152 171.238 55.152H159.59V70.832C159.59 77.296 163.174 77.872 163.558 77.872V78H145.254V77.872C145.638 77.872 149.222 77.296 149.222 70.832V35.248C149.222 28.784 145.638 28.208 145.254 28.208V28.08H179.942ZM187.316 78V77.872C187.7 77.872 191.284 77.296 191.284 70.832V35.248C191.284 28.784 187.7 28.208 187.316 28.208V28.08H205.684C212.724 28.08 217.844 29.36 221.044 32.24C223.54 34.48 224.82 37.872 224.82 42.416C224.82 48.368 222.196 52.72 217.972 55.536C214.26 58.032 209.268 59.248 203.764 59.248H201.652V70.832C201.652 77.296 205.236 77.872 205.62 77.872V78H187.316ZM201.652 57.584H203.124C206.132 57.584 208.628 56.624 210.42 54.832C212.98 52.336 214.324 48.176 214.324 42.736C214.324 37.872 213.364 34.544 211.508 32.432C209.844 30.576 207.412 29.744 204.404 29.744H201.652V57.584Z" fill="#821FBE"/>
<path d="M48.06 116V115.96C48.18 115.96 49.3 115.78 49.3 113.76V102.64C49.3 100.62 48.18 100.44 48.06 100.44V100.4H51.78L60.42 110.9V102.64C60.42 100.62 59.3 100.44 59.18 100.44V100.4H62.22V100.44C62.1 100.44 60.98 100.62 60.98 102.64V116.12L49.86 102.64V113.76C49.86 115.78 50.98 115.96 51.1 115.96V116H48.06ZM68.1228 119.86C69.1828 119.86 69.8628 119.44 70.3028 118.84C70.9828 117.9 71.1028 116.52 71.1028 115.52V114.4C70.4828 115.54 69.2228 116.24 67.8628 116.24C64.7828 116.24 62.8628 113.88 62.8628 110.56C62.8628 106.84 64.7828 104.08 68.1828 104.08C69.7828 104.08 70.5828 104.74 71.1028 105.46V104.28H75.5428V104.32C75.4228 104.32 74.3028 104.5 74.3028 106.52V115.2C74.3028 116.9 73.6628 118.08 72.7628 118.88C71.5428 119.98 69.8228 120.34 68.6028 120.34C66.6028 120.34 65.3028 119.64 64.5628 119.64V116.56H64.6228C64.8028 117.6 65.2828 118.34 65.8428 118.86C66.6428 119.6 67.6028 119.86 68.1228 119.86ZM66.0428 110.36C66.0428 113.12 67.0228 115.36 68.7628 115.36C69.7828 115.36 70.5228 114.76 71.1028 113.38V106.52C70.5828 105.42 69.8428 105.16 69.2628 105.16C67.4228 105.16 66.0428 107.2 66.0428 110.36ZM81.1914 116.2C80.1914 116.2 79.2914 115.9 78.6314 115.32C77.9914 114.74 77.5914 113.88 77.5914 112.74V106.52C77.5914 104.5 76.4714 104.32 76.3514 104.32V104.28H80.7914V112.48C80.7914 112.98 80.8314 113.64 81.0914 114.18C81.3514 114.7 81.8114 115.08 82.5114 115.08C83.9314 115.08 84.9514 113.66 84.9514 111.7V106.52C84.9514 104.5 83.8314 104.32 83.7114 104.32V104.28H88.1514V105.08C88.4714 104.82 88.5714 104.54 88.5914 104.28C88.5914 104.06 88.5114 103.54 87.7114 103.34V103.32L89.3714 102.16C89.6114 102.34 89.9514 102.96 89.9114 103.5C89.8514 104.46 88.8314 105.1 88.1514 105.4V113.76C88.1514 115.78 89.2714 115.96 89.3914 115.96V116H84.9514V113.92C84.4714 115.04 83.3914 116.2 81.1914 116.2ZM96.8269 116.24C92.9469 116.24 91.0269 113.48 91.0269 110.16C91.0269 106.84 92.9469 104.08 96.8269 104.08C98.3069 104.08 99.5069 104.48 100.427 105.16C100.567 104.96 100.607 104.74 100.587 104.56C100.567 104.34 100.447 103.84 99.6269 103.7V103.68L101.187 102.38C101.447 102.54 101.827 103.14 101.847 103.68C101.867 104.42 101.287 105.02 100.727 105.42C101.987 106.54 102.627 108.26 102.627 110.16C102.627 113.48 100.707 116.24 96.8269 116.24ZM94.3069 110.16C94.3069 113.12 94.9869 115.76 96.8269 115.76C98.6669 115.76 99.3669 113.12 99.3669 110.16C99.3669 107.2 98.6669 104.56 96.8269 104.56C94.9869 104.56 94.3069 107.2 94.3069 110.16ZM94.7069 101.8V101.74L95.7669 100.26H95.8269C96.6469 101.4 98.1069 102.96 99.0669 103.34L99.0069 103.4C97.8269 103.24 95.7269 102.58 94.7069 101.8ZM105.064 106.52C105.064 104.5 103.944 104.32 103.824 104.32V104.28H108.264V113.76C108.264 115.78 109.384 115.96 109.504 115.96V116H103.824V115.96C103.944 115.96 105.064 115.78 105.064 113.76V106.52ZM104.864 101.44C104.864 100.5 105.644 99.72 106.584 99.72C107.524 99.72 108.304 100.5 108.304 101.44C108.304 102.38 107.524 103.16 106.584 103.16C105.644 103.16 104.864 102.38 104.864 101.44ZM115.341 116V115.96C115.461 115.96 116.581 115.78 116.581 113.76V102.24C116.581 100.22 115.461 100.04 115.341 100.04V100H119.781V113.76C119.781 115.78 120.901 115.96 121.021 115.96V116H115.341ZM130.6 106.48C131.46 104.64 130.48 104.32 130.44 104.32V104.28H133.44V104.32C133.24 104.32 131.98 104.64 131.14 106.48L126.28 117.18C125.66 118.52 124.9 120.12 123.48 120.12C123 120.12 122.76 120.06 122.64 120.04V117.84H122.7C122.94 118.08 123.24 118.18 123.64 118.18C124.52 118.18 125.54 117.74 126.12 116.34L126.42 115.62L122.44 106.62C121.56 104.66 120.32 104.32 120.14 104.32V104.28H125.86V104.32C125.84 104.32 124.88 104.64 125.7 106.48L128.1 111.94L130.6 106.48ZM125.94 103.34C126.9 102.96 128.36 101.4 129.18 100.26H129.24L130.3 101.74V101.8C129.28 102.58 127.18 103.24 126 103.4L125.94 103.34ZM141.96 112.92C141.96 114.1 142.12 115.16 143.3 115.16C144.18 115.16 145 114.62 145.4 114.22H145.46C145.32 114.68 143.86 116.14 141.82 116.14C140.08 116.14 138.76 115.64 138.76 113.28V104.76H137.76V104.28H138.76V101.2H141.96V104.28H145.28V104.76H141.96V112.92ZM150.547 116.2C149.547 116.2 148.647 115.9 147.987 115.32C147.347 114.74 146.947 113.88 146.947 112.74V106.52C146.947 104.5 145.827 104.32 145.707 104.32V104.28H150.147V112.48C150.147 112.98 150.187 113.64 150.447 114.18C150.707 114.7 151.167 115.08 151.867 115.08C153.287 115.08 154.307 113.66 154.307 111.7V106.52C154.307 104.5 153.187 104.32 153.067 104.32V104.28H157.507V105.08C157.827 104.82 157.927 104.54 157.947 104.28C157.947 104.06 157.867 103.54 157.067 103.34V103.32L158.727 102.16C158.967 102.34 159.307 102.96 159.267 103.5C159.207 104.46 158.187 105.1 157.507 105.4V113.76C157.507 115.78 158.627 115.96 158.747 115.96V116H154.307V113.92C153.827 115.04 152.747 116.2 150.547 116.2ZM166.182 116.24C162.302 116.24 160.382 113.48 160.382 110.16C160.382 106.84 162.302 104.08 166.182 104.08C167.662 104.08 168.862 104.48 169.782 105.16C169.922 104.96 169.962 104.74 169.942 104.56C169.922 104.34 169.802 103.84 168.982 103.7V103.68L170.542 102.38C170.802 102.54 171.182 103.14 171.202 103.68C171.222 104.42 170.642 105.02 170.082 105.42C171.342 106.54 171.982 108.26 171.982 110.16C171.982 113.48 170.062 116.24 166.182 116.24ZM163.662 110.16C163.662 113.12 164.342 115.76 166.182 115.76C168.022 115.76 168.722 113.12 168.722 110.16C168.722 107.2 168.022 104.56 166.182 104.56C164.342 104.56 163.662 107.2 163.662 110.16ZM164.442 99.72C164.862 99.46 165.462 99.22 166.182 99.22C166.942 99.22 167.882 99.52 167.882 100.44C167.882 101.76 165.782 101.78 165.782 103.02C165.742 103.02 165.662 102.98 165.662 102.88C165.662 101.36 166.342 101.32 166.342 100.38C166.342 99.94 166.122 99.78 165.882 99.78C165.222 99.78 164.842 100.68 164.842 101.68H164.722L164.442 99.72ZM174.419 106.52C174.419 104.5 173.299 104.32 173.179 104.32V104.28H177.619V106.36C178.099 105.24 179.179 104.08 181.379 104.08C182.379 104.08 183.279 104.38 183.939 104.96C184.579 105.54 184.979 106.4 184.979 107.54V113.76C184.979 115.78 186.099 115.96 186.219 115.96V116H180.539V115.96C180.659 115.96 181.779 115.78 181.779 113.76V107.8C181.779 107.3 181.739 106.64 181.479 106.1C181.219 105.58 180.759 105.2 180.059 105.2C178.639 105.2 177.619 106.62 177.619 108.58V113.76C177.619 115.78 178.739 115.96 178.859 115.96V116H173.179V115.96C173.299 115.96 174.419 115.78 174.419 113.76V106.52ZM192.439 119.86C193.499 119.86 194.179 119.44 194.619 118.84C195.299 117.9 195.419 116.52 195.419 115.52V114.4C194.799 115.54 193.539 116.24 192.179 116.24C189.099 116.24 187.179 113.88 187.179 110.56C187.179 106.84 189.099 104.08 192.499 104.08C194.099 104.08 194.899 104.74 195.419 105.46V104.28H199.859V104.32C199.739 104.32 198.619 104.5 198.619 106.52V115.2C198.619 116.9 197.979 118.08 197.079 118.88C195.859 119.98 194.139 120.34 192.919 120.34C190.919 120.34 189.619 119.64 188.879 119.64V116.56H188.939C189.119 117.6 189.599 118.34 190.159 118.86C190.959 119.6 191.919 119.86 192.439 119.86ZM190.359 110.36C190.359 113.12 191.339 115.36 193.079 115.36C194.099 115.36 194.839 114.76 195.419 113.38V106.52C194.899 105.42 194.159 105.16 193.579 105.16C191.739 105.16 190.359 107.2 190.359 110.36ZM206.953 102.24C206.953 100.22 205.833 100.04 205.713 100.04V100H210.153V106.36C210.633 105.24 211.713 104.08 213.913 104.08C214.913 104.08 215.813 104.38 216.473 104.96C217.113 105.54 217.513 106.4 217.513 107.54V113.76C217.513 115.78 218.633 115.96 218.753 115.96V116H213.073V115.96C213.193 115.96 214.313 115.78 214.313 113.76V107.8C214.313 107.3 214.273 106.64 214.013 106.1C213.753 105.58 213.293 105.2 212.593 105.2C211.173 105.2 210.153 106.62 210.153 108.58V113.76C210.153 115.78 211.273 115.96 211.393 115.96V116H205.713V115.96C205.833 115.96 206.953 115.78 206.953 113.76V102.24ZM225.518 116.24C221.638 116.24 219.718 113.48 219.718 110.16C219.718 106.84 221.638 104.08 225.518 104.08C229.398 104.08 231.318 106.84 231.318 110.16C231.318 113.48 229.398 116.24 225.518 116.24ZM222.998 110.16C222.998 113.12 223.678 115.76 225.518 115.76C227.358 115.76 228.058 113.12 228.058 110.16C228.058 107.2 227.358 104.56 225.518 104.56C223.678 104.56 222.998 107.2 222.998 110.16ZM236.837 104.92C234.597 104.92 233.197 106.78 233.017 107.94H232.957C233.137 105.84 234.837 104.08 237.977 104.08C239.057 104.08 240.597 104.24 241.637 105.12C242.277 105.68 242.717 106.52 242.717 107.8V113.76C242.717 115.78 243.837 115.96 243.957 115.96V116H239.517V114.18C238.957 115.12 237.777 116.12 235.657 116.12C233.737 116.12 232.277 115.2 232.277 113.24C232.277 110.64 234.837 108.9 239.517 108.78V107.88C239.517 106.74 239.237 105.98 238.737 105.52C238.277 105.1 237.617 104.92 236.837 104.92ZM235.477 113.24C235.477 114.2 236.017 115.18 237.117 115.18C238.457 115.18 239.397 113.82 239.517 113.42V109.26C236.437 109.3 235.477 111.78 235.477 113.24ZM235.757 103.34C236.717 102.96 238.177 101.4 238.997 100.26H239.057L240.117 101.74V101.8C239.097 102.58 236.997 103.24 235.817 103.4L235.757 103.34Z" fill="#821FBE"/>
<path d="M146 389C215.588 389 272 332.588 272 263C272 193.412 215.588 137 146 137C76.4121 137 20 193.412 20 263C20 332.588 76.4121 389 146 389Z" fill="#E064D9"/>
<path d="M135.765 353.949V330.085H176.675V306.22H214.177V278.946H264.381V306.936H226.879V334.21H185.968V358.074H145.057V381.939H94.8538V353.949H135.765Z" fill="#FFEDFB"/>
<path d="M137.926 374.137H87.7219C87.6458 374.137 87.5842 374.076 87.5842 373.999V346.01C87.5842 345.934 87.6458 345.872 87.7219 345.872H128.495V322.145C128.495 322.069 128.557 322.007 128.633 322.007H169.406V298.28C169.406 298.204 169.468 298.143 169.544 298.143H206.908V271.007C206.908 270.93 206.969 270.869 207.045 270.869H257.249C257.325 270.869 257.387 270.93 257.387 271.007V298.996C257.387 299.072 257.325 299.134 257.249 299.134H219.885V326.27C219.885 326.346 219.824 326.408 219.747 326.408H178.974V350.135C178.974 350.211 178.913 350.273 178.836 350.273H138.063V373.999C138.063 374.076 138.002 374.137 137.926 374.137ZM87.8596 373.862H137.788V350.135C137.788 350.059 137.85 349.997 137.926 349.997H178.699V326.27C178.699 326.194 178.76 326.132 178.836 326.132H219.61V298.996C219.61 298.92 219.671 298.858 219.747 298.858H257.111V271.144H207.183V298.28C207.183 298.357 207.121 298.418 207.045 298.418H169.681V322.145C169.681 322.221 169.62 322.283 169.544 322.283H128.771V346.01C128.771 346.086 128.709 346.148 128.633 346.148H87.8596V373.862Z" fill="#D3BBA3"/>
<path d="M151.102 140.516C158.371 141.581 163.822 147.267 164.912 154.16C167.064 153.635 169.35 153.503 171.677 153.843C181.363 155.262 188.064 164.264 186.646 173.949C186.531 174.736 186.36 175.501 186.148 176.246C187.176 176.266 188.214 176.35 189.257 176.503C202.612 178.459 211.852 190.87 209.896 204.224C208.306 215.079 199.808 223.215 189.512 224.83C189.654 226.248 189.629 227.706 189.413 229.18C187.994 238.865 178.992 245.567 169.307 244.148C169.127 244.122 168.949 244.088 168.771 244.056C167.084 254.632 157.204 261.917 146.576 260.361C140.73 259.505 135.871 256.147 132.914 251.535C130.819 252.456 128.45 252.821 126.02 252.465C122.347 251.927 119.278 249.858 117.363 247C113.798 249.026 109.56 249.928 105.189 249.288C94.7699 247.762 87.5605 238.078 89.0866 227.659C90.1916 220.115 95.5742 214.257 102.415 212.176C98.3422 208.063 96.1837 202.154 97.0872 195.986C98.24 188.114 104.05 182.078 111.314 180.253C107.317 176.2 105.2 170.388 106.089 164.321C107.594 154.049 117.141 146.941 127.413 148.446C129.637 148.771 131.711 149.475 133.582 150.48C136.375 143.691 143.51 139.404 151.102 140.516Z" fill="#FFEDFB"/>
<path d="M86.7204 188.245C90.805 184.16 90.805 177.538 86.7204 173.453C82.6358 169.369 76.0134 169.369 71.9288 173.453C67.8442 177.538 67.8442 184.16 71.9288 188.245C76.0134 192.33 82.6358 192.33 86.7204 188.245Z" fill="#FFEDFB"/>
<path d="M60.9015 205.927C63.7897 203.039 63.7897 198.356 60.9015 195.468C58.0132 192.58 53.3305 192.58 50.4423 195.468C47.554 198.356 47.554 203.039 50.4423 205.927C53.3305 208.816 58.0132 208.816 60.9015 205.927Z" fill="#FFEDFB"/>
<path d="M56.3451 225.255C58.4616 224.083 59.2268 221.416 58.0542 219.3C56.8817 217.183 54.2154 216.418 52.0989 217.591C49.9824 218.763 49.2172 221.43 50.3897 223.546C51.5623 225.663 54.2286 226.428 56.3451 225.255Z" fill="#FFEDFB"/>
<path d="M149.72 229.918C151.037 228.192 151.897 225.35 151.897 222.133C151.897 221.094 151.806 220.095 151.64 219.159C153.149 218.433 154.1 217.377 154.1 216.201C154.1 215.366 153.62 214.592 152.802 213.953C161.165 209.524 167.242 196.149 167.242 180.336C167.242 179.688 167.231 179.044 167.21 178.404H126.301C126.28 179.044 126.269 179.688 126.269 180.336C126.269 196.149 132.346 209.523 140.709 213.953C139.891 214.592 139.411 215.366 139.411 216.201C139.411 217.377 140.362 218.433 141.871 219.159C141.705 220.095 141.614 221.094 141.614 222.133C141.614 225.35 142.475 228.192 143.791 229.918C137.46 230.48 132.685 232.806 132.525 235.611H160.986C160.827 232.806 156.051 230.48 149.72 229.918Z" fill="#F5CD1B"/>
<path d="M139.344 207.918C127.226 207.918 117.368 198.06 117.368 185.941V180.337C117.368 180.261 117.429 180.199 117.505 180.199H139.344C139.421 180.199 139.482 180.261 139.482 180.337V207.781C139.482 207.857 139.421 207.918 139.344 207.918ZM117.643 180.474V185.941C117.643 197.862 127.304 207.568 139.207 207.642V180.474H117.643Z" fill="#F5CD1B"/>
<path d="M153.989 207.918C153.912 207.918 153.851 207.857 153.851 207.781V180.337C153.851 180.261 153.912 180.199 153.989 180.199H175.828C175.904 180.199 175.965 180.261 175.965 180.337V185.941C175.965 198.06 166.107 207.918 153.989 207.918ZM154.126 180.474V207.642C166.029 207.568 175.69 197.862 175.69 185.941V180.474H154.126Z" fill="#F5CD1B"/>
<path d="M152.93 209.775C152.894 209.775 152.858 209.761 152.831 209.732C152.778 209.677 152.78 209.59 152.835 209.538C154.794 207.664 158.455 203.523 160.972 196.839C163.162 191.021 163.219 187.916 163.304 183.217C163.311 182.867 163.317 182.509 163.325 182.14C163.327 182.064 163.387 182.005 163.465 182.005C163.541 182.006 163.602 182.069 163.6 182.145C163.593 182.515 163.586 182.873 163.58 183.222C163.494 187.95 163.437 191.073 161.23 196.936C158.694 203.671 155.001 207.847 153.026 209.737C152.999 209.762 152.965 209.775 152.93 209.775Z" fill="#F7F1EB"/>
<path d="M139.812 186.364L139.798 186.361C137.572 185.909 135.83 184.172 135.372 181.947L135.369 181.962C134.918 184.188 133.181 185.93 130.956 186.387L130.971 186.39C133.197 186.842 134.938 188.578 135.396 190.803L135.399 190.789C135.85 188.562 137.587 186.821 139.812 186.364Z" fill="#FFEDFB"/>
<path d="M151.224 213.958H142.193C142.117 213.958 142.056 213.896 142.056 213.82C142.056 213.744 142.117 213.683 142.193 213.683H151.224C151.301 213.683 151.362 213.744 151.362 213.82C151.362 213.896 151.301 213.958 151.224 213.958Z" fill="#F7F1EB"/>
<path d="M150.56 219.272H142.857C142.781 219.272 142.72 219.21 142.72 219.134C142.72 219.058 142.781 218.997 142.857 218.997H150.56C150.636 218.997 150.698 219.058 150.698 219.134C150.698 219.21 150.636 219.272 150.56 219.272Z" fill="#F7F1EB"/>
<path d="M148.568 230.341H144.629C144.553 230.341 144.491 230.28 144.491 230.204C144.491 230.128 144.553 230.066 144.629 230.066H148.568C148.644 230.066 148.706 230.128 148.706 230.204C148.706 230.28 148.644 230.341 148.568 230.341Z" fill="#F7F1EB"/>
<path d="M93.793 280.216C99.3247 290.58 120.181 333.901 134.544 326.964C145.167 321.834 140.097 309.071 121.669 275.192C113.895 278.516 101.567 276.892 93.793 280.216Z" fill="#FDFFFF"/>
<path d="M177.796 294.598C177.397 293.488 175.919 292.933 175.558 292.862C176.313 292.082 176.791 291.01 176.258 289.735C175.785 288.602 174.137 288.238 173.991 288.214C174.078 288.095 175.41 287.374 175.002 285.613C174.727 284.423 173.527 283.788 173.105 283.682C178.322 280.551 180.188 279.256 179.693 278.054C178.826 275.944 164.338 281.957 154.55 286.96C133.982 297.472 122.767 304.442 122.563 304.545C118.897 306.371 132.829 319.771 134.435 326.849C134.884 326.581 140.844 324.759 165.554 303.735C168.133 301.541 174.056 299.026 176.11 297.94C177.229 297.347 178.315 296.042 177.796 294.598Z" fill="#FDFFFF"/>
<path d="M160.196 298.096C160.163 298.096 160.13 298.084 160.104 298.061C160.047 298.01 160.043 297.923 160.094 297.866C161.69 296.092 162.192 294.223 162.597 292.721C163.002 291.213 163.323 290.021 164.632 289.887C165.553 289.792 166.574 289.24 167.667 288.248C167.991 287.953 167.991 287.562 167.884 287.294C167.777 287.028 167.511 286.748 167.082 286.748C167.073 286.748 167.065 286.748 167.056 286.748L159.912 286.932C159.838 286.935 159.773 286.874 159.771 286.798C159.769 286.722 159.829 286.658 159.905 286.656L167.049 286.473C167.059 286.472 167.069 286.472 167.079 286.472C167.549 286.472 167.963 286.752 168.14 287.191C168.321 287.643 168.211 288.126 167.852 288.451C166.715 289.485 165.641 290.06 164.661 290.161C163.539 290.276 163.27 291.277 162.862 292.792C162.451 294.323 161.938 296.227 160.298 298.05C160.271 298.081 160.234 298.096 160.196 298.096Z" fill="#CE51D7"/>
<path d="M171.942 298.724C171.893 298.724 171.845 298.698 171.821 298.651C170.909 296.94 171.482 294.793 173.126 293.764L173.238 293.694L171.818 294.208C170.718 294.607 169.492 294.162 168.901 293.152C168.569 292.583 168.483 291.92 168.658 291.285C168.833 290.65 169.248 290.125 169.825 289.808L171.169 289.068C170.29 289.238 169.371 288.783 168.997 287.936C168.592 287.021 168.938 285.95 169.802 285.446L172.062 284.126C172.128 284.088 172.212 284.11 172.25 284.176C172.289 284.241 172.267 284.326 172.201 284.364L169.941 285.684C169.198 286.117 168.901 287.038 169.249 287.824C169.618 288.659 170.603 289.051 171.445 288.699L173.109 288.001C173.177 287.973 173.255 288.003 173.286 288.068C173.318 288.134 173.293 288.214 173.229 288.249L169.958 290.049C169.447 290.33 169.079 290.795 168.924 291.358C168.768 291.921 168.845 292.509 169.139 293.013C169.662 293.908 170.75 294.302 171.725 293.949L174.361 292.994C174.428 292.97 174.501 293 174.532 293.063C174.563 293.126 174.541 293.203 174.481 293.24L173.272 293.997C171.75 294.95 171.22 296.937 172.064 298.522C172.099 298.589 172.074 298.672 172.007 298.708C171.986 298.719 171.964 298.724 171.942 298.724Z" fill="#CE51D7"/>
<path d="M109.108 298.978C109.108 298.978 121.885 275.567 121.669 275.192C114.537 254.728 73.2442 265.327 48.0764 269.895C47.8809 269.931 47.688 269.968 47.4977 270.006C37.1527 272.071 31.573 283.402 36.0713 292.944L43.278 308.23L36.4654 348.448H123.276L109.108 298.978Z" fill="#CE51D7"/>
<path d="M38.0007 386.386L50.3363 327.948L58.1521 348.448H111.359L124.077 386.386H38.0007Z" fill="#F8D9B8"/>
<path d="M50.3552 262.216C63.9894 264.782 79.5177 266.149 94.9658 262.216C94.9658 262.216 93.2876 236.839 75.8607 237.361C61.3309 237.796 52.1637 251.31 50.3552 262.216Z" fill="#6D21A5"/>
<path d="M69.239 240.801C69.239 240.801 75.6583 237.559 78.3715 234.585C81.0845 231.611 86.9293 229.233 90.2823 233.697C93.6352 238.16 83.3164 241.058 83.3164 241.058L69.239 240.801Z" fill="#6D21A5"/>
<path d="M74.0362 239.75C74.0362 239.75 75.3087 224.04 67.1739 229.081C59.039 234.122 69.756 242.103 74.0362 239.75Z" fill="#6D21A5"/>
<path d="M70.0101 240.732C67.8298 240.732 65.3434 239.918 63.706 238.411C61.5139 236.394 61.5718 233.731 63.8652 231.105C65.248 229.521 66.6138 228.888 67.9235 229.223C71.735 230.197 73.7148 238.974 73.7971 239.347C73.807 239.392 73.7938 239.44 73.7615 239.473C72.9341 240.326 71.5481 240.732 70.0101 240.732ZM67.2413 229.412C66.2235 229.412 65.1607 230.04 64.0724 231.286C61.0861 234.705 62.6779 237.091 63.8923 238.208C65.1278 239.345 67.03 240.162 68.9806 240.393C70.9404 240.625 72.5866 240.239 73.5111 239.334C73.3103 238.476 71.3267 230.377 67.8549 229.49C67.6526 229.438 67.4478 229.412 67.2413 229.412Z" fill="#6D21A5"/>
<path d="M68.3459 269.817L71.2766 257.024L79.5177 260.176L80.3995 270.497L68.3459 269.817Z" fill="#FDFFFF"/>
<path d="M82.92 272.315C82.7246 273.744 78.621 274.363 73.7545 273.697C68.888 273.031 65.1014 271.333 65.2968 269.904C65.4922 268.475 69.5958 267.857 74.4623 268.522C79.3288 269.188 83.1154 270.886 82.92 272.315Z" fill="#FDFFFF"/>
<path d="M84.3324 240.801C84.3324 240.801 88.0971 259.405 80.6565 262.355C76.1548 264.14 70.2784 260.154 68.4785 257.985C66.6786 255.816 66.4365 251.429 66.4365 251.429C66.4365 251.429 68.4363 252.397 69.3819 251.052C70.3275 249.707 67.0154 244.133 72.5625 242.675C78.1094 241.217 79.4232 243.346 84.3324 240.801Z" fill="#FDFFFF"/>
<path d="M78.4789 263.219C75.7861 263.219 72.8202 261.81 71.0284 260.373C70.969 260.326 70.9595 260.239 71.0072 260.18C71.0548 260.121 71.1414 260.111 71.2008 260.158C73.0109 261.61 76.0436 263.035 78.7314 262.939C78.807 262.937 78.8712 262.996 78.8738 263.072C78.8766 263.148 78.8171 263.212 78.7411 263.214C78.654 263.217 78.5665 263.219 78.4789 263.219Z" fill="#CE51D7"/>
<path d="M69.5662 252.466C70.4858 253.776 70.8597 256.565 69.5501 257.485C68.2405 258.404 65.7437 257.106 64.8241 255.796C63.9045 254.487 64.2207 252.68 65.5301 251.76C66.8395 250.84 68.6466 251.157 69.5662 252.466Z" fill="#FDFFFF"/>
<path d="M73.7758 248.325C73.7902 248.36 73.7748 248.397 73.7893 248.432C73.7897 248.434 73.7908 248.435 73.7915 248.436C73.8278 248.978 73.8649 249.548 73.8018 250.087C73.7738 250.325 73.6618 250.486 73.61 250.707C73.5721 250.87 73.5363 251.026 73.4924 251.184C71.9388 250.28 71.0576 248.826 71.0576 248.826C71.0576 248.826 72.2831 248.328 73.7758 248.325Z" fill="#FFEDFB"/>
<path d="M75.5297 248.592C77.534 249.246 78.771 251.06 78.9703 251.369C78.9569 251.396 78.943 251.422 78.9289 251.448C78.5366 251.597 76.5019 252.298 74.53 251.654C74.1602 251.533 73.819 251.371 73.5031 251.188C73.4457 251.052 73.3942 250.912 73.3563 250.765C73.132 249.895 73.3132 249.018 73.7784 248.327C74.3375 248.328 74.9359 248.398 75.5297 248.592Z" fill="#CE51D7"/>
<path d="M84.5077 249.302C84.6787 249.919 84.6934 250.417 84.4819 250.994C82.9829 251.286 81.6738 251.005 81.6738 251.005C81.6738 251.005 82.4024 249.136 83.9984 247.955C84.2708 248.341 84.3863 248.863 84.5077 249.302Z" fill="#FFEDFB"/>
<path d="M84.5136 250.987C83.8146 250.16 83.6 249 84.001 247.958C84.1809 247.827 84.3692 247.702 84.572 247.592C86.5985 246.487 89.0119 247.007 89.0119 247.007C89.0119 247.007 88.14 249.316 86.1136 250.421C85.5898 250.706 85.0406 250.882 84.5136 250.987Z" fill="#CE51D7"/>
<path d="M66.3321 255.608C66.2884 255.608 66.2453 255.587 66.2186 255.548C66.1592 255.462 66.1066 255.37 66.0617 255.273C65.6945 254.477 65.9516 253.573 66.6347 253.258C66.8048 253.18 66.988 253.143 67.178 253.149C67.2541 253.151 67.3136 253.215 67.3113 253.291C67.3089 253.367 67.2417 253.429 67.1694 253.424C67.022 253.419 66.8809 253.448 66.7501 253.508C66.205 253.76 66.0082 254.5 66.3117 255.157C66.3498 255.24 66.3948 255.319 66.4452 255.392C66.4884 255.455 66.4727 255.54 66.41 255.584C66.3863 255.6 66.3589 255.608 66.3321 255.608Z" fill="#CE51D7"/>
<path d="M81.4638 254.118C81.4372 254.118 81.4102 254.111 81.3864 254.094C81.3236 254.052 81.3072 253.966 81.3499 253.903C81.5136 253.662 81.5786 253.439 81.5434 253.24C81.5067 253.032 81.369 252.904 81.1784 252.728C81.0256 252.586 80.8524 252.425 80.6861 252.183C80.4745 251.873 80.3324 251.511 80.2637 251.104C80.251 251.029 80.3015 250.958 80.3764 250.945C80.4519 250.932 80.5225 250.983 80.5352 251.058C80.5972 251.425 80.7244 251.751 80.9134 252.027C81.0621 252.244 81.2233 252.394 81.3657 252.526C81.5782 252.723 81.7618 252.893 81.8144 253.192C81.8627 253.464 81.7828 253.756 81.5775 254.058C81.5512 254.097 81.5078 254.118 81.4638 254.118Z" fill="#CE51D7"/>
<path d="M79.629 257.141C79.5215 257.141 79.4152 257.127 79.3105 257.098C78.6153 256.906 78.2607 256.144 78.2458 256.112C78.2144 256.043 78.2447 255.961 78.3138 255.929C78.3832 255.898 78.4647 255.928 78.4963 255.997C78.4993 256.004 78.8142 256.676 79.3849 256.833C79.6929 256.917 80.0288 256.836 80.3826 256.592C80.4449 256.549 80.5307 256.564 80.5742 256.627C80.6173 256.689 80.6016 256.775 80.5391 256.818C80.2286 257.033 79.9236 257.141 79.629 257.141Z" fill="#CE51D7"/>
<path d="M37.5744 291.034L55.4916 325.434C59.4765 334.074 67.9679 340.298 77.4825 340.298H83.0709L82.8076 313.905L59.8374 279.377C56.6377 273.948 49.9146 271.724 44.1081 274.173C37.557 276.938 34.5964 284.577 37.5744 291.034Z" fill="#FDFFFF"/>
<path d="M72.0135 333.71L79.4557 278.378C79.4557 278.378 79.5248 276.257 79.1131 274.134C77.9617 268.199 75.636 257.539 77.4501 256.898C79.913 256.027 83.7503 269.785 83.7503 269.785C83.7503 269.785 87.0479 265.614 89.8363 268.956C89.8363 268.956 94.2957 267.111 95.5655 271.115C95.5655 271.115 97.4255 270.225 99.3513 273.24C101.277 276.256 99.6931 278.174 99.6931 278.174L98.11 278.442C98.11 278.442 99.8683 286.019 99.5538 286.976C99.2393 287.932 106.571 337.484 87.6863 339.899C68.8018 342.314 72.0135 333.71 72.0135 333.71Z" fill="#FDFFFF"/>
<path d="M78.0335 268.109C77.9662 268.109 77.9073 268.059 77.8973 267.991C77.8144 267.415 77.7271 266.826 77.6391 266.233C76.8016 260.588 76.3679 257.134 77.4045 256.768C78.2916 256.454 79.3441 257.662 80.6185 260.463C80.6501 260.532 80.6195 260.614 80.5502 260.645C80.4811 260.677 80.3994 260.646 80.3679 260.577C78.889 257.327 77.9903 256.852 77.4962 257.027C76.5988 257.345 77.3268 262.251 77.9117 266.193C77.9997 266.786 78.0871 267.375 78.1701 267.952C78.1809 268.027 78.1287 268.097 78.0534 268.108C78.0465 268.108 78.0399 268.109 78.0335 268.109Z" fill="#CE51D7"/>
<path d="M73.7153 321.196C73.7092 321.196 73.703 321.195 73.6967 321.194C73.6213 321.184 73.5685 321.115 73.5786 321.039L75.706 305.222C75.7161 305.147 75.7837 305.094 75.861 305.104C75.9363 305.114 75.9892 305.184 75.979 305.259L73.8516 321.076C73.8424 321.145 73.7831 321.196 73.7153 321.196Z" fill="#CE51D7"/>
<path d="M228.192 268.302C227.19 268.302 226.184 268.263 225.175 268.184C215.008 267.394 205.757 262.691 199.127 254.941C192.496 247.191 189.28 237.321 190.07 227.151C190.859 216.98 195.561 207.726 203.308 201.093C211.056 194.46 220.923 191.243 231.088 192.033C241.255 192.823 250.505 197.526 257.136 205.276C263.766 213.027 266.983 222.896 266.193 233.066C265.403 243.237 260.702 252.491 252.954 259.124C245.976 265.098 237.279 268.302 228.192 268.302ZM228.071 192.191C219.048 192.191 210.415 195.371 203.487 201.303C195.796 207.888 191.128 217.075 190.344 227.172C188.726 248.016 204.36 266.291 225.196 267.91C226.198 267.988 227.198 268.026 228.192 268.026C237.214 268.027 245.847 264.846 252.775 258.914C260.467 252.329 265.135 243.142 265.919 233.045C267.537 212.201 251.903 193.926 231.067 192.307C230.065 192.229 229.065 192.191 228.071 192.191Z" fill="#6D21A5"/>
<path d="M230.326 201.849C214.724 200.636 201.094 212.306 199.882 227.913C198.67 243.521 210.335 257.156 225.937 258.368C241.539 259.581 255.169 247.911 256.381 232.304C257.593 216.696 245.928 203.061 230.326 201.849ZM226.815 247.064C217.454 246.337 210.455 238.156 211.182 228.791C211.909 219.427 220.087 212.425 229.448 213.152C238.809 213.88 245.808 222.061 245.081 231.425C244.354 240.79 236.176 247.792 226.815 247.064Z" fill="#EDBAB0"/>
<path d="M235.754 230.14C235.771 225.933 232.375 222.508 228.168 222.491C223.962 222.474 220.539 225.872 220.522 230.079C220.505 234.287 223.901 237.712 228.108 237.729C232.314 237.746 235.737 234.348 235.754 230.14Z" fill="#FAE99C"/>
<path d="M208.49 237.812L179.928 251.516L181.548 254.894L210.111 241.189L208.49 237.812Z" fill="#FAE99C"/>
<path d="M212.717 239.157L229.895 229.63L211.714 237.067L212.717 239.157Z" fill="#EDBAB0"/>
<path d="M168.753 259.038L179.512 253.877L174.082 250.262L163.324 255.424L168.753 259.038Z" fill="#FAE99C"/>
<path d="M169.226 260.023L179.984 254.862L179.409 261.357L168.651 266.518L169.226 260.023Z" fill="#FAE99C"/>
<path d="M211.052 235.713L209.592 236.413L211.9 241.225L213.36 240.524L211.052 235.713Z" fill="#FAE99C"/>
<path d="M209.605 236.399L208.145 237.1L210.454 241.911L211.914 241.211L209.605 236.399Z" fill="#FFEDFB"/>
<path d="M236.742 347.151C236.729 347.151 236.716 347.151 236.703 347.151L226.458 347.071C225.117 347.061 223.86 346.529 222.92 345.573C221.979 344.617 221.467 343.352 221.478 342.011L221.514 337.482C221.537 334.727 223.786 332.5 226.536 332.5C226.549 332.5 226.562 332.5 226.576 332.5L236.821 332.579C238.162 332.59 239.418 333.122 240.359 334.078C241.299 335.034 241.811 336.299 241.8 337.64L241.764 342.169C241.742 344.924 239.493 347.151 236.742 347.151ZM236.705 346.876C236.717 346.876 236.73 346.876 236.742 346.876C239.342 346.876 241.467 344.771 241.488 342.166L241.525 337.638C241.535 336.37 241.051 335.174 240.162 334.271C239.273 333.368 238.086 332.865 236.818 332.855L226.573 332.775C226.561 332.775 226.548 332.775 226.536 332.775C223.936 332.775 221.811 334.88 221.79 337.484L221.753 342.013C221.743 343.281 222.227 344.476 223.116 345.38C224.005 346.283 225.192 346.786 226.46 346.796L236.705 346.876Z" fill="#621DA3"/>
<path d="M202.007 342.08L201.672 384.939L261.664 385.407L261.998 342.547L202.007 342.08Z" fill="#621DA3"/>
<path d="M231.692 366.611C231.662 366.611 231.632 366.602 231.607 366.582L205.403 346.117C205.343 346.07 205.332 345.983 205.379 345.923C205.426 345.863 205.512 345.852 205.572 345.9L231.693 366.3L257.863 346.289C257.923 346.243 258.01 346.255 258.056 346.315C258.102 346.375 258.09 346.462 258.03 346.508L231.776 366.583C231.751 366.602 231.721 366.611 231.692 366.611Z" fill="#F7F1EB"/>
<path d="M227.607 363.728L227.573 368.19L236.027 368.256L236.062 363.794L227.607 363.728Z" fill="#F7F1EB"/>
</svg>
