<svg width="292" height="408" viewBox="0 0 292 408" fill="none" xmlns="http://www.w3.org/2000/svg">
<rect width="292" height="408" rx="24" fill="#E1E7FF"/>
<path d="M103.005 28.08V38.192H102.877C102.877 37.424 102.173 29.744 94.9413 29.744H83.9333V51.568H94.3013C99.9333 51.568 100.509 45.936 100.509 45.36H100.573V59.44H100.509C100.509 58.864 99.9333 53.232 94.3013 53.232H83.9333V76.336H96.2213C103.453 76.336 104.157 68.656 104.157 67.888H104.285V78H69.5973V77.872C69.9813 77.872 73.5653 77.296 73.5653 70.832V35.248C73.5653 28.784 69.9813 28.208 69.5973 28.208V28.08H103.005ZM111.386 78V77.872C111.77 77.872 115.354 77.296 115.354 70.832V35.248C115.354 28.784 111.77 28.208 111.386 28.208V28.08H123.29L150.938 61.68V35.248C150.938 28.784 147.354 28.208 146.97 28.208V28.08H156.698V28.208C156.314 28.208 152.73 28.784 152.73 35.248V78.384L117.146 35.248V70.832C117.146 77.296 120.73 77.872 121.114 77.872V78H111.386ZM197.723 28.08V38.192H197.595C197.595 37.424 196.891 29.744 189.659 29.744H177.371V53.488H189.019C194.651 53.488 195.227 47.856 195.227 47.28H195.291V61.36H195.227C195.227 60.784 194.651 55.152 189.019 55.152H177.371V70.832C177.371 77.296 180.955 77.872 181.339 77.872V78H163.035V77.872C163.419 77.872 167.003 77.296 167.003 70.832V35.248C167.003 28.784 163.419 28.208 163.035 28.208V28.08H197.723ZM203.817 91.44C208.041 91.44 208.553 83.952 208.553 78.192V35.248C208.553 28.784 204.969 28.208 204.585 28.208V28.08H222.889V28.208C222.505 28.208 218.921 28.784 218.921 35.248V78.064C218.921 86.704 212.905 91.568 203.817 91.568V91.44Z" fill="#1D42C6"/>
<path d="M81.06 116V115.96C81.18 115.96 82.3 115.78 82.3 113.76V102.64C82.3 100.62 81.18 100.44 81.06 100.44V100.4H84.78L93.42 110.9V102.64C93.42 100.62 92.3 100.44 92.18 100.44V100.4H95.22V100.44C95.1 100.44 93.98 100.62 93.98 102.64V116.12L82.86 102.64V113.76C82.86 115.78 83.98 115.96 84.1 115.96V116H81.06ZM101.123 119.86C102.183 119.86 102.863 119.44 103.303 118.84C103.983 117.9 104.103 116.52 104.103 115.52V114.4C103.483 115.54 102.223 116.24 100.863 116.24C97.7828 116.24 95.8628 113.88 95.8628 110.56C95.8628 106.84 97.7828 104.08 101.183 104.08C102.783 104.08 103.583 104.74 104.103 105.46V104.28H108.543V104.32C108.423 104.32 107.303 104.5 107.303 106.52V115.2C107.303 116.9 106.663 118.08 105.763 118.88C104.543 119.98 102.823 120.34 101.603 120.34C99.6028 120.34 98.3028 119.64 97.5628 119.64V116.56H97.6228C97.8028 117.6 98.2828 118.34 98.8428 118.86C99.6428 119.6 100.603 119.86 101.123 119.86ZM99.0428 110.36C99.0428 113.12 100.023 115.36 101.763 115.36C102.783 115.36 103.523 114.76 104.103 113.38V106.52C103.583 105.42 102.843 105.16 102.263 105.16C100.423 105.16 99.0428 107.2 99.0428 110.36ZM114.191 116.2C113.191 116.2 112.291 115.9 111.631 115.32C110.991 114.74 110.591 113.88 110.591 112.74V106.52C110.591 104.5 109.471 104.32 109.351 104.32V104.28H113.791V112.48C113.791 112.98 113.831 113.64 114.091 114.18C114.351 114.7 114.811 115.08 115.511 115.08C116.931 115.08 117.951 113.66 117.951 111.7V106.52C117.951 104.5 116.831 104.32 116.711 104.32V104.28H121.151V105.08C121.471 104.82 121.571 104.54 121.591 104.28C121.591 104.06 121.511 103.54 120.711 103.34V103.32L122.371 102.16C122.611 102.34 122.951 102.96 122.911 103.5C122.851 104.46 121.831 105.1 121.151 105.4V113.76C121.151 115.78 122.271 115.96 122.391 115.96V116H117.951V113.92C117.471 115.04 116.391 116.2 114.191 116.2ZM129.827 116.24C125.947 116.24 124.027 113.48 124.027 110.16C124.027 106.84 125.947 104.08 129.827 104.08C131.307 104.08 132.507 104.48 133.427 105.16C133.567 104.96 133.607 104.74 133.587 104.56C133.567 104.34 133.447 103.84 132.627 103.7V103.68L134.187 102.38C134.447 102.54 134.827 103.14 134.847 103.68C134.867 104.42 134.287 105.02 133.727 105.42C134.987 106.54 135.627 108.26 135.627 110.16C135.627 113.48 133.707 116.24 129.827 116.24ZM127.307 110.16C127.307 113.12 127.987 115.76 129.827 115.76C131.667 115.76 132.367 113.12 132.367 110.16C132.367 107.2 131.667 104.56 129.827 104.56C127.987 104.56 127.307 107.2 127.307 110.16ZM127.707 101.8V101.74L128.767 100.26H128.827C129.647 101.4 131.107 102.96 132.067 103.34L132.007 103.4C130.827 103.24 128.727 102.58 127.707 101.8ZM138.064 106.52C138.064 104.5 136.944 104.32 136.824 104.32V104.28H141.264V113.76C141.264 115.78 142.384 115.96 142.504 115.96V116H136.824V115.96C136.944 115.96 138.064 115.78 138.064 113.76V106.52ZM137.864 101.44C137.864 100.5 138.644 99.72 139.584 99.72C140.524 99.72 141.304 100.5 141.304 101.44C141.304 102.38 140.524 103.16 139.584 103.16C138.644 103.16 137.864 102.38 137.864 101.44ZM154.301 116.24C150.421 116.24 148.421 113.68 148.421 110.16C148.421 106.84 150.621 104.08 154.701 104.08C156.421 104.08 157.741 104.68 158.321 104.68V107.88H158.261C158.181 107.32 158.021 106.26 157.381 105.48C156.961 104.96 156.301 104.56 155.301 104.56C152.461 104.56 151.701 107.2 151.701 110.16C151.701 113.12 152.861 115.36 155.521 115.36C157.061 115.36 158.001 114.54 158.561 113.6L158.621 113.64C158.501 114.02 157.621 116.24 154.301 116.24ZM160.499 102.24C160.499 100.22 159.379 100.04 159.259 100.04V100H163.699V106.36C164.179 105.24 165.259 104.08 167.459 104.08C168.459 104.08 169.359 104.38 170.019 104.96C170.659 105.54 171.059 106.4 171.059 107.54V113.76C171.059 115.78 172.179 115.96 172.299 115.96V116H166.619V115.96C166.739 115.96 167.859 115.78 167.859 113.76V107.8C167.859 107.3 167.819 106.64 167.559 106.1C167.299 105.58 166.839 105.2 166.139 105.2C164.719 105.2 163.699 106.62 163.699 108.58V113.76C163.699 115.78 164.819 115.96 164.939 115.96V116H159.259V115.96C159.379 115.96 160.499 115.78 160.499 113.76V102.24ZM179.065 116.24C175.185 116.24 173.265 113.48 173.265 110.16C173.265 106.84 175.185 104.08 179.065 104.08C182.945 104.08 184.865 106.84 184.865 110.16C184.865 113.48 182.945 116.24 179.065 116.24ZM176.545 110.16C176.545 113.12 177.225 115.76 179.065 115.76C180.905 115.76 181.605 113.12 181.605 110.16C181.605 107.2 180.905 104.56 179.065 104.56C177.225 104.56 176.545 107.2 176.545 110.16ZM190.628 110.56C190.628 106.84 192.548 104.08 195.948 104.08C197.548 104.08 198.348 104.74 198.868 105.46V102.5H196.068V101.94H198.868C198.748 100.2 197.748 100.04 197.628 100.04V100H202.068V101.94H202.468V102.5H202.068V113.76C202.068 115.78 203.188 115.96 203.308 115.96V116H198.868V114.4C198.248 115.54 196.988 116.24 195.628 116.24C192.548 116.24 190.628 113.88 190.628 110.56ZM193.808 110.36C193.808 113.12 194.788 115.36 196.528 115.36C197.548 115.36 198.288 114.76 198.868 113.38V106.52C198.348 105.42 197.608 105.16 197.028 105.16C195.188 105.16 193.808 107.2 193.808 110.36ZM205.837 106.52C205.837 104.5 204.717 104.32 204.597 104.32V104.28H209.037V113.76C209.037 115.78 210.157 115.96 210.277 115.96V116H204.597V115.96C204.717 115.96 205.837 115.78 205.837 113.76V106.52ZM205.637 101.44C205.637 100.5 206.417 99.72 207.357 99.72C208.297 99.72 209.077 100.5 209.077 101.44C209.077 102.38 208.297 103.16 207.357 103.16C206.417 103.16 205.637 102.38 205.637 101.44Z" fill="#1D42C6"/>
<path d="M146.5 389C215.812 389 272 332.812 272 263.5C272 194.188 215.812 138 146.5 138C77.1883 138 21 194.188 21 263.5C21 332.812 77.1883 389 146.5 389Z" fill="#1D42C6"/>
<path d="M265.402 286H142.692C142.616 286 142.555 285.938 142.555 285.863V165.697C142.555 165.621 142.616 165.56 142.692 165.56H265.402C265.477 165.56 265.539 165.621 265.539 165.697V285.863C265.539 285.938 265.477 286 265.402 286ZM142.829 285.725H265.264V165.834H142.829V285.725Z" fill="white"/>
<path d="M265.401 285.863H176.984V249.756C176.984 249.756 177.659 246.792 178.403 243.016C167.343 240.779 157.66 237.089 152.509 232.124C152.509 232.124 162.326 182.833 212.217 182.904C262.107 182.975 271.513 213.04 270.873 235.152C270.597 244.66 268.474 266.577 265.401 285.863Z" fill="#A6BAFF"/>
<path d="M147.924 215.371C147.924 215.371 132.198 242.441 149.83 253.59C160.555 260.372 170.595 254.304 176.986 249.756C183.495 245.124 187.049 239.058 187.049 239.058L147.924 215.371Z" fill="#A6BAFF"/>
<path d="M215.444 286.493L195.936 286.172C194.622 265.236 190.682 247.661 189.213 226.17C188.204 211.402 198.423 194.524 203.666 186.454C207.447 184.933 211.056 183.268 215.099 183.455C219.718 183.668 224.13 185.359 227.858 187.32C223.581 197.644 220.842 206.766 218.324 217.913C212.819 242.28 213.802 267.39 215.444 286.493Z" fill="#9B9AB0"/>
<path d="M160.481 235.222H204.047L182.037 183.848H138.471L160.481 235.222Z" fill="#5D5D5D"/>
<path d="M165.414 206.618C165.063 204.003 159.187 203.652 153.487 203.751C149.301 203.824 144.542 204.221 144.542 207.629C144.542 211.591 150.439 211.585 154.276 211.256C159.971 210.766 165.757 209.174 165.414 206.618Z" fill="white"/>
<path d="M167.302 212.577C166.919 209.816 160.512 209.446 154.296 209.55C149.732 209.627 144.542 210.046 144.542 213.644C144.542 217.827 150.972 217.821 155.157 217.473C161.367 216.956 167.676 215.276 167.302 212.577Z" fill="white"/>
<path d="M167.523 219.732C167.305 216.859 161.671 216.231 156.185 216.103C152.156 216.009 147.561 216.245 147.404 219.97C147.222 224.301 152.893 224.54 156.599 224.339C162.098 224.04 167.735 222.54 167.523 219.732Z" fill="white"/>
<path d="M166.111 225.728C165.946 223.348 161.524 222.839 157.218 222.743C154.056 222.673 150.449 222.877 150.319 225.963C150.168 229.55 154.619 229.738 157.528 229.564C161.845 229.307 166.273 228.054 166.111 225.728Z" fill="white"/>
<path d="M156.463 229.722C153.847 229.722 152.024 229.231 151.034 228.259C150.429 227.664 150.143 226.89 150.182 225.957C150.213 225.212 150.447 224.586 150.877 224.09C148.394 223.437 147.179 222.05 147.267 219.964C147.311 218.915 147.708 218.065 148.447 217.432C147.938 217.327 147.472 217.196 147.06 217.04C146.989 217.013 146.954 216.934 146.98 216.863C147.007 216.792 147.086 216.756 147.157 216.783C147.632 216.963 148.183 217.11 148.792 217.22L149.11 217.276L148.849 217.465C148.014 218.07 147.587 218.891 147.541 219.976C147.457 221.974 148.678 223.288 151.17 223.88L151.413 223.938L151.233 224.112C150.743 224.588 150.488 225.195 150.456 225.968C150.42 226.821 150.679 227.525 151.226 228.063C152.333 229.15 154.578 229.6 157.9 229.402C157.977 229.398 158.041 229.455 158.045 229.531C158.05 229.606 157.992 229.671 157.917 229.676C157.408 229.706 156.923 229.722 156.463 229.722Z" fill="#363E44"/>
<path d="M146.712 210.784C146.64 210.784 146.579 210.728 146.576 210.654C146.572 210.579 146.63 210.514 146.705 210.51L158.807 209.883C158.881 209.879 158.947 209.937 158.951 210.013C158.955 210.088 158.897 210.153 158.821 210.157L146.72 210.784C146.717 210.784 146.715 210.784 146.712 210.784Z" fill="#363E44"/>
<path d="M148.429 217.452C148.357 217.452 148.297 217.397 148.292 217.324C148.287 217.248 148.345 217.183 148.42 217.178L160.183 216.423C160.26 216.419 160.323 216.476 160.328 216.551C160.333 216.627 160.276 216.692 160.2 216.697L148.438 217.452C148.435 217.452 148.432 217.452 148.429 217.452Z" fill="#363E44"/>
<path d="M151.004 224.121C150.931 224.121 150.87 224.063 150.867 223.99C150.863 223.914 150.922 223.85 150.998 223.846L163.002 223.292C163.076 223.288 163.141 223.347 163.145 223.423C163.148 223.498 163.09 223.562 163.014 223.566L151.01 224.12C151.008 224.121 151.006 224.121 151.004 224.121Z" fill="#363E44"/>
<path d="M225.391 249.803C217.964 236.275 214.371 228.718 205.735 214.934C202.408 209.623 197.362 205.522 197.128 199.5C197.025 196.83 197.397 194.082 199.363 194.204C202.432 194.395 201.978 202.757 204.484 202.844C207.003 202.931 210.567 194.752 207.4 192.612C205.415 191.271 203.013 195.474 200.625 193.257C199.202 191.936 201.492 189.315 203.253 187.914C203.813 187.469 206.159 185.603 209.272 186.317C212.566 187.071 213.577 190.061 213.705 190.368C214.645 188.694 216.655 187.805 217.999 188.124C219.793 188.549 221.246 191.2 220.101 193.905C220.302 193.599 222.719 191.397 224.01 191.94C225.74 192.666 225.923 194.686 224.622 198.266C225.907 196.52 227.94 195.8 228.693 196.083C230.805 196.876 232.212 198.273 230.343 207.783C235.071 213.75 247.482 233.55 247.482 233.55C247.482 233.55 247.079 244.187 225.391 249.803Z" fill="white"/>
<path d="M223.953 207.811C223.747 207.811 223.544 207.772 223.346 207.688C221.399 206.863 222.954 202.004 223.597 200.231C222.547 201.27 219.956 203.488 217.781 202.529C217.318 202.325 217.01 201.973 216.866 201.484C216.442 200.044 217.532 197.704 218.314 196.292C216.953 197.701 214.424 199.957 212.923 199.073C210.839 197.847 213.138 191.622 213.237 191.357C213.263 191.287 213.342 191.251 213.413 191.277C213.484 191.304 213.52 191.383 213.494 191.453C213.47 191.516 211.176 197.726 213.062 198.837C213.257 198.952 213.476 199.003 213.71 199.004C215.742 199.004 218.997 195.136 219.033 195.093C219.08 195.037 219.162 195.027 219.22 195.07C219.279 195.114 219.293 195.195 219.253 195.256C219.226 195.297 216.54 199.404 217.129 201.406C217.251 201.82 217.5 202.106 217.891 202.278C220.45 203.406 223.829 199.593 223.863 199.554C223.907 199.504 223.981 199.493 224.038 199.528C224.095 199.563 224.118 199.634 224.093 199.696C224.066 199.765 221.36 206.548 223.453 207.435C225.556 208.327 228.546 203.079 228.576 203.026C228.613 202.96 228.696 202.936 228.762 202.974C228.828 203.011 228.852 203.095 228.815 203.161C228.698 203.367 226.166 207.81 223.953 207.811Z" fill="#363E44"/>
<path d="M253.024 265.553L265.859 256.248L236.276 212.226L207.514 230.225L224.422 258.239C229.568 269.089 243.302 272.601 253.024 265.553Z" fill="#A6BAFF"/>
<path d="M255.423 240.855C255.379 240.855 255.336 240.834 255.309 240.795L236.238 212.414L234.32 213.663C234.257 213.704 234.172 213.686 234.13 213.622C234.089 213.559 234.107 213.474 234.17 213.433L236.201 212.11C236.264 212.07 236.348 212.087 236.39 212.149L255.537 240.642C255.579 240.704 255.563 240.79 255.5 240.832C255.476 240.848 255.449 240.855 255.423 240.855Z" fill="#363E44"/>
<path d="M245.85 226.609C245.847 226.609 245.844 226.609 245.842 226.609C245.766 226.604 245.708 226.54 245.713 226.464C246.168 218.596 248.066 210.644 249.637 207.501C249.671 207.433 249.754 207.406 249.822 207.439C249.889 207.473 249.917 207.556 249.883 207.623C248.357 210.674 246.434 218.751 245.986 226.48C245.982 226.553 245.922 226.609 245.85 226.609Z" fill="#363E44"/>
<path d="M234.245 320.882C251.549 320.882 265.576 306.855 265.576 289.552C265.576 272.249 251.549 258.222 234.245 258.222C216.942 258.222 202.915 272.249 202.915 289.552C202.915 306.855 216.942 320.882 234.245 320.882Z" fill="#FF9D1B"/>
<path d="M215.109 321.073C215.084 321.073 215.06 321.066 215.037 321.053C209.739 317.815 205.307 313.258 202.221 307.874C199.038 302.324 197.356 295.988 197.356 289.552C197.356 284.387 198.403 279.39 200.468 274.701C202.462 270.171 205.306 266.144 208.919 262.731C208.974 262.679 209.061 262.681 209.113 262.736C209.165 262.791 209.162 262.878 209.107 262.93C201.706 269.921 197.631 279.375 197.631 289.552C197.631 302.415 204.191 314.103 215.18 320.818C215.245 320.858 215.265 320.942 215.226 321.007C215.2 321.049 215.155 321.073 215.109 321.073Z" fill="#363E44"/>
<path d="M264.116 310.238C264.089 310.238 264.063 310.23 264.039 310.214C263.976 310.172 263.96 310.087 264.002 310.024C268.093 303.969 270.255 296.89 270.255 289.552C270.255 278.262 265.163 267.774 256.285 260.778C256.225 260.731 256.215 260.645 256.262 260.585C256.309 260.525 256.395 260.515 256.455 260.562C265.399 267.611 270.53 278.178 270.53 289.552C270.53 296.945 268.351 304.077 264.229 310.178C264.203 310.217 264.16 310.238 264.116 310.238Z" fill="#363E44"/>
<path d="M252.847 308.157C263.122 297.882 263.122 281.223 252.847 270.948C242.572 260.673 225.913 260.673 215.638 270.948C205.363 281.223 205.363 297.882 215.638 308.157C225.913 318.432 242.572 318.432 252.847 308.157Z" fill="#CB7300"/>
<path d="M234.245 318.45C218.311 318.45 205.347 305.487 205.347 289.552C205.347 273.618 218.311 260.655 234.245 260.655C250.179 260.655 263.143 273.618 263.143 289.552C263.143 305.487 250.179 318.45 234.245 318.45ZM234.245 260.929C218.462 260.929 205.622 273.769 205.622 289.552C205.622 305.336 218.462 318.176 234.245 318.176C250.028 318.176 262.869 305.335 262.869 289.552C262.869 273.77 250.028 260.929 234.245 260.929Z" fill="#FF9D1B"/>
<path d="M223.049 260.188C222.271 260.188 221.499 260.005 220.785 259.643C219.589 259.036 218.701 258.001 218.284 256.726C217.868 255.452 217.972 254.092 218.578 252.896C219.185 251.701 220.22 250.813 221.495 250.396C222.769 249.979 224.129 250.083 225.325 250.69C226.52 251.296 227.408 252.332 227.825 253.606C228.242 254.88 228.138 256.24 227.531 257.436C226.925 258.632 225.889 259.52 224.615 259.936C224.102 260.104 223.574 260.188 223.049 260.188ZM223.06 250.419C222.564 250.419 222.065 250.498 221.58 250.657C220.375 251.051 219.396 251.89 218.823 253.021C218.25 254.151 218.151 255.437 218.545 256.641C218.939 257.846 219.779 258.825 220.909 259.398C222.039 259.971 223.325 260.07 224.53 259.676C225.734 259.282 226.713 258.442 227.287 257.312C227.86 256.181 227.958 254.896 227.564 253.691C227.17 252.486 226.331 251.507 225.2 250.934C224.525 250.592 223.795 250.419 223.06 250.419Z" fill="#FF9D1B"/>
<path d="M220.858 252.584C220.219 252.584 219.585 252.434 218.999 252.137C218.018 251.639 217.289 250.789 216.946 249.743C216.604 248.697 216.69 247.581 217.188 246.599C217.685 245.618 218.535 244.889 219.581 244.547C220.627 244.205 221.744 244.29 222.725 244.788C223.706 245.286 224.435 246.136 224.777 247.181C225.484 249.34 224.302 251.672 222.143 252.378C221.721 252.516 221.289 252.584 220.858 252.584ZM220.866 244.615C220.464 244.615 220.06 244.679 219.666 244.808C218.69 245.127 217.897 245.807 217.432 246.723C216.968 247.639 216.888 248.682 217.207 249.658C217.526 250.634 218.207 251.427 219.123 251.892C220.039 252.356 221.081 252.437 222.058 252.117C224.073 251.458 225.176 249.282 224.517 247.267C224.197 246.291 223.517 245.497 222.601 245.033C222.054 244.755 221.462 244.615 220.866 244.615Z" fill="#FF9D1B"/>
<path d="M218.951 246.755C218.312 246.755 217.678 246.604 217.092 246.307C216.111 245.809 215.382 244.959 215.039 243.914C214.333 241.755 215.515 239.424 217.674 238.717C218.72 238.375 219.837 238.461 220.818 238.959C221.799 239.456 222.528 240.306 222.87 241.352C223.577 243.511 222.395 245.842 220.236 246.548C219.814 246.686 219.382 246.755 218.951 246.755ZM218.959 238.786C218.557 238.786 218.153 238.849 217.759 238.978C215.744 239.637 214.641 241.813 215.3 243.828C215.959 245.844 218.135 246.947 220.15 246.288C222.166 245.628 223.269 243.453 222.61 241.437C222.29 240.461 221.61 239.668 220.694 239.203C220.147 238.926 219.555 238.786 218.959 238.786Z" fill="#FF9D1B"/>
<path d="M217.044 240.925C216.405 240.925 215.771 240.775 215.185 240.478C214.204 239.98 213.475 239.13 213.133 238.084C212.791 237.038 212.876 235.922 213.374 234.94C213.871 233.959 214.721 233.23 215.767 232.888C216.813 232.546 217.93 232.631 218.911 233.129C219.893 233.627 220.622 234.477 220.964 235.523C221.306 236.568 221.22 237.685 220.723 238.666C220.225 239.648 219.375 240.377 218.329 240.719C217.908 240.857 217.475 240.925 217.044 240.925ZM217.052 232.956C216.65 232.956 216.246 233.02 215.853 233.149C213.838 233.808 212.734 235.984 213.393 237.999C213.713 238.975 214.393 239.769 215.309 240.233C216.226 240.698 217.268 240.778 218.244 240.458C220.259 239.799 221.362 237.623 220.703 235.608C220.384 234.632 219.703 233.838 218.787 233.374C218.24 233.096 217.648 232.956 217.052 232.956Z" fill="#FF9D1B"/>
<path d="M215.137 235.096C214.499 235.096 213.865 234.945 213.278 234.648C212.297 234.151 211.568 233.3 211.226 232.255C210.52 230.096 211.702 227.765 213.861 227.058C214.906 226.716 216.023 226.802 217.004 227.3C217.986 227.797 218.715 228.647 219.057 229.693C219.763 231.852 218.581 234.183 216.422 234.889C216.001 235.027 215.568 235.096 215.137 235.096ZM215.139 227.128C214.743 227.128 214.342 227.19 213.946 227.319C211.931 227.978 210.828 230.154 211.487 232.169C211.806 233.146 212.486 233.939 213.403 234.404C214.319 234.868 215.361 234.948 216.337 234.629C218.352 233.97 219.456 231.794 218.796 229.778C218.266 228.159 216.757 227.128 215.139 227.128Z" fill="#FF9D1B"/>
<path d="M213.23 229.266C212.592 229.266 211.958 229.116 211.372 228.819C210.39 228.321 209.661 227.471 209.319 226.425C208.977 225.379 209.063 224.263 209.56 223.281C210.058 222.3 210.908 221.571 211.954 221.229C214.112 220.522 216.443 221.705 217.15 223.864C217.856 226.023 216.674 228.354 214.515 229.06C214.094 229.198 213.661 229.266 213.23 229.266ZM213.232 221.299C212.836 221.299 212.434 221.36 212.039 221.49C211.063 221.809 210.269 222.489 209.805 223.405C209.34 224.322 209.26 225.364 209.58 226.34C209.899 227.316 210.579 228.11 211.495 228.574C212.412 229.039 213.453 229.119 214.43 228.799C216.445 228.14 217.548 225.964 216.889 223.949C216.359 222.329 214.85 221.299 213.232 221.299Z" fill="#FF9D1B"/>
<path d="M211.331 223.435C209.597 223.435 207.98 222.331 207.412 220.596C206.706 218.437 207.888 216.106 210.047 215.4C211.093 215.057 212.21 215.143 213.191 215.641C214.172 216.138 214.901 216.988 215.243 218.034C215.585 219.08 215.5 220.197 215.002 221.178C214.504 222.16 213.654 222.888 212.609 223.23C212.185 223.369 211.754 223.435 211.331 223.435ZM211.332 215.468C210.93 215.468 210.526 215.531 210.132 215.66C208.117 216.319 207.014 218.495 207.673 220.51C208.332 222.526 210.508 223.629 212.523 222.97C213.499 222.65 214.293 221.97 214.757 221.054C215.222 220.138 215.302 219.096 214.982 218.119C214.663 217.143 213.983 216.35 213.067 215.885C212.52 215.608 211.928 215.468 211.332 215.468Z" fill="#FF9D1B"/>
<path d="M209.417 217.607C208.778 217.607 208.144 217.457 207.558 217.16C206.576 216.662 205.847 215.812 205.505 214.766C205.163 213.72 205.249 212.604 205.747 211.622C206.244 210.641 207.094 209.912 208.14 209.57C209.186 209.228 210.303 209.314 211.284 209.811C212.265 210.309 212.994 211.159 213.336 212.205C214.042 214.364 212.861 216.695 210.702 217.401C210.28 217.539 209.847 217.607 209.417 217.607ZM209.425 209.638C209.023 209.638 208.619 209.702 208.225 209.831C207.249 210.15 206.456 210.831 205.991 211.747C205.527 212.663 205.447 213.705 205.766 214.681C206.085 215.658 206.766 216.451 207.682 216.915C208.598 217.38 209.64 217.46 210.616 217.14C212.631 216.481 213.735 214.305 213.076 212.29C212.756 211.314 212.076 210.521 211.16 210.056C210.613 209.778 210.021 209.638 209.425 209.638Z" fill="#FF9D1B"/>
<path d="M207.51 211.778C206.871 211.778 206.237 211.628 205.651 211.33C204.67 210.833 203.941 209.983 203.599 208.937C202.892 206.778 204.074 204.447 206.233 203.741C207.279 203.398 208.396 203.484 209.377 203.982C210.358 204.479 211.087 205.329 211.429 206.375C212.136 208.534 210.954 210.865 208.795 211.572C208.373 211.709 207.941 211.778 207.51 211.778ZM207.518 203.809C207.116 203.809 206.712 203.873 206.318 204.001C204.303 204.661 203.2 206.836 203.859 208.852C204.178 209.828 204.859 210.621 205.775 211.086C206.691 211.55 207.733 211.63 208.71 211.311C210.725 210.652 211.828 208.476 211.169 206.461C210.85 205.484 210.169 204.691 209.253 204.226C208.706 203.949 208.114 203.809 207.518 203.809Z" fill="#FF9D1B"/>
<path d="M205.603 205.948C204.964 205.948 204.33 205.798 203.744 205.501C202.763 205.003 202.034 204.153 201.692 203.107C200.985 200.948 202.167 198.617 204.326 197.911C205.372 197.569 206.489 197.655 207.47 198.152C208.451 198.65 209.18 199.5 209.523 200.546C210.229 202.705 209.047 205.036 206.888 205.742C206.467 205.88 206.034 205.948 205.603 205.948ZM205.611 197.979C205.209 197.979 204.805 198.043 204.412 198.172C202.396 198.831 201.293 201.007 201.952 203.022C202.612 205.037 204.787 206.14 206.803 205.481C208.818 204.822 209.921 202.646 209.262 200.631C208.943 199.655 208.262 198.861 207.346 198.397C206.799 198.12 206.207 197.979 205.611 197.979Z" fill="#FF9D1B"/>
<path d="M203.696 200.119C203.057 200.119 202.423 199.969 201.837 199.671C200.856 199.174 200.127 198.324 199.785 197.278C199.443 196.232 199.528 195.116 200.026 194.134C200.524 193.153 201.374 192.424 202.42 192.082C203.465 191.74 204.582 191.825 205.563 192.323C206.545 192.82 207.274 193.67 207.616 194.716C207.958 195.762 207.872 196.879 207.375 197.86C206.877 198.842 206.027 199.57 204.981 199.913C204.56 200.051 204.127 200.119 203.696 200.119ZM203.704 192.15C203.302 192.15 202.898 192.214 202.505 192.343C200.49 193.002 199.386 195.177 200.045 197.193C200.365 198.169 201.045 198.962 201.961 199.427C202.877 199.891 203.919 199.972 204.896 199.652C205.872 199.333 206.665 198.652 207.13 197.736C207.594 196.82 207.674 195.778 207.355 194.802C207.036 193.826 206.355 193.032 205.439 192.568C204.892 192.29 204.3 192.15 203.704 192.15Z" fill="#FF9D1B"/>
<path d="M203.254 187.914C201.492 189.315 199.486 191.684 200.626 193.257C202.228 195.469 205.561 191.517 207.4 192.612C207.029 190.555 206.041 188.552 205.25 186.706C204.235 187.136 203.528 187.695 203.254 187.914Z" fill="white"/>
<path d="M191.907 158.321C185.532 159.442 187.428 154.013 187.428 154.013C183.214 148.741 185.311 143.454 193.338 142.642C200 141.967 200.98 142.448 210.544 144.567C214.906 146.308 216.77 148 217.661 154.138C217.663 155.788 218.361 169.591 216.957 170.451C208.077 167.723 192.631 158.194 191.907 158.321Z" fill="black"/>
<path d="M221.827 182.038L216.415 163.329L202.585 173.404L205.029 183.655L221.827 182.038Z" fill="white"/>
<path d="M191.907 158.321C191.907 158.321 193.884 178.419 202.029 179.043C206.956 179.421 211.472 173.107 212.568 170.412C213.663 167.716 212.568 163.311 212.568 163.311C212.568 163.311 210.913 164.881 209.584 163.844C208.254 162.807 209.79 156.285 203.943 156.552C198.096 156.818 197.462 159.323 191.907 158.321Z" fill="white"/>
<path d="M209.753 161.435C209.753 161.435 208.806 170.198 199.966 171.548C195.46 172.236 194.63 170.636 194.63 170.636C194.63 170.636 194.515 182.141 199.572 182.47C204.63 182.798 212.633 178.529 213.295 175.31C213.956 172.092 209.753 161.435 209.753 161.435Z" fill="black"/>
<path d="M210.556 160.188C209.929 162.169 210.536 165.777 212.491 166.412C214.446 167.048 217.01 164.47 217.637 162.488C218.264 160.507 217.187 158.386 215.232 157.75C213.276 157.115 211.183 158.206 210.556 160.188Z" fill="white"/>
<path d="M192.336 165.026C192.353 165.062 192.339 165.1 192.356 165.136C192.357 165.138 192.358 165.139 192.359 165.14C192.428 165.697 192.5 166.284 192.468 166.843C192.454 167.091 192.349 167.264 192.31 167.496C192.281 167.666 192.254 167.829 192.219 167.995C190.582 167.156 189.597 165.709 189.597 165.709C189.597 165.709 190.815 165.119 192.336 165.026Z" fill="#A6BAFF"/>
<path d="M194.139 165.195C196.22 165.749 197.588 167.547 197.81 167.854C197.798 167.882 197.785 167.91 197.772 167.937C197.382 168.115 195.351 168.962 193.304 168.417C192.92 168.315 192.562 168.168 192.229 167.998C192.163 167.862 192.102 167.72 192.055 167.571C191.774 166.686 191.906 165.77 192.339 165.028C192.908 164.996 193.522 165.031 194.139 165.195Z" fill="#363E44"/>
<path d="M203.327 165.383C203.538 166.01 203.583 166.524 203.402 167.131C201.892 167.524 200.542 167.314 200.542 167.314C200.542 167.314 201.172 165.34 202.728 164.024C203.028 164.406 203.177 164.938 203.327 165.383Z" fill="#A6BAFF"/>
<path d="M203.434 167.122C202.673 166.311 202.384 165.126 202.731 164.027C202.906 163.881 203.09 163.74 203.29 163.614C205.289 162.351 207.778 162.74 207.778 162.74C207.778 162.74 207.028 165.178 205.03 166.44C204.514 166.767 203.965 166.981 203.434 167.122Z" fill="#363E44"/>
<path d="M215.665 162.804C215.651 162.804 215.638 162.802 215.624 162.798C215.552 162.775 215.511 162.699 215.534 162.626C215.569 162.513 215.594 162.395 215.609 162.276C215.733 161.319 215.195 160.455 214.409 160.351C214.22 160.325 214.03 160.345 213.846 160.41C213.774 160.436 213.696 160.398 213.671 160.326C213.646 160.255 213.683 160.176 213.755 160.151C213.981 160.072 214.213 160.048 214.445 160.079C215.38 160.203 216.025 161.204 215.882 162.311C215.864 162.445 215.835 162.578 215.796 162.706C215.778 162.766 215.723 162.804 215.665 162.804Z" fill="#363E44"/>
<path d="M198.701 170.588C198.67 170.588 198.64 170.578 198.615 170.557C198.324 170.323 198.158 170.061 198.123 169.779C198.084 169.47 198.211 169.246 198.357 168.987C198.456 168.813 198.568 168.615 198.647 168.355C198.748 168.023 198.773 167.661 198.722 167.279C198.712 167.204 198.765 167.135 198.84 167.125C198.915 167.115 198.984 167.167 198.994 167.242C199.05 167.664 199.022 168.065 198.91 168.434C198.821 168.724 198.702 168.936 198.596 169.123C198.463 169.357 198.367 169.526 198.395 169.744C198.421 169.954 198.553 170.155 198.787 170.344C198.846 170.391 198.855 170.478 198.807 170.537C198.78 170.57 198.741 170.588 198.701 170.588Z" fill="#363E44"/>
<path d="M201.046 173.061C200.864 173.061 200.67 173.029 200.463 172.963C200.391 172.941 200.351 172.864 200.374 172.791C200.397 172.719 200.474 172.679 200.546 172.702C200.963 172.834 201.313 172.811 201.587 172.636C202.103 172.307 202.207 171.538 202.207 171.53C202.217 171.455 202.288 171.402 202.361 171.412C202.436 171.421 202.489 171.49 202.48 171.565C202.475 171.601 202.36 172.466 201.736 172.866C201.533 172.996 201.303 173.061 201.046 173.061Z" fill="#363E44"/>
<path d="M227.858 187.32L215.066 184.308L203.666 186.454L204.334 182.904L224.754 179.059L227.858 187.32Z" fill="#0038FF"/>
<path d="M118.642 166.918H118.506C119.247 165.53 119.668 163.946 119.668 162.263C119.668 156.792 115.233 152.357 109.762 152.357C109.274 152.357 108.795 152.394 108.326 152.462C108.358 152.164 108.377 151.861 108.377 151.554C108.377 146.982 104.67 143.275 100.098 143.275C97.6937 143.275 95.5298 144.301 94.0174 145.937C92.8573 142.767 89.8132 140.504 86.2405 140.504C83.0772 140.504 80.3294 142.279 78.9357 144.886C77.532 143.874 75.8099 143.275 73.9468 143.275C69.2309 143.275 65.4076 147.098 65.4076 151.814C65.4076 152.006 65.4163 152.196 65.4288 152.385C65.1963 152.368 64.9627 152.357 64.7262 152.357C59.2555 152.357 54.8207 156.792 54.8207 162.263C54.8207 163.949 55.2431 165.536 55.9864 166.926C51.4741 167.103 47.8699 170.815 47.8699 175.371C47.8699 178.993 50.1485 182.081 53.3502 183.285C54.4222 189.01 59.4436 193.345 65.4802 193.345C70.1506 193.345 74.2143 190.75 76.3115 186.925C77.6866 188.117 79.4794 188.84 81.442 188.84C84.7759 188.84 87.6218 186.758 88.7554 183.824H118.642C123.311 183.824 127.095 180.039 127.095 175.371C127.095 170.702 123.31 166.918 118.642 166.918Z" fill="#9B9AB0"/>
<path d="M88.2075 169.387H76.2965C76.2206 169.387 76.1593 169.326 76.1593 169.25C76.1593 169.174 76.2206 169.113 76.2965 169.113H88.2075C90.6158 169.113 92.575 167.154 92.575 164.745C92.575 162.453 90.71 160.588 88.4177 160.588H74.6662C72.2227 160.588 70.2346 158.6 70.2346 156.157C70.2346 153.713 72.2226 151.725 74.6662 151.725H79.044C81.6986 151.725 84.1611 150.181 85.3179 147.792L86.0602 146.259C86.0934 146.191 86.1753 146.162 86.2435 146.195C86.3117 146.228 86.3402 146.31 86.3073 146.379L85.565 147.912C84.3626 150.395 81.803 152 79.044 152H74.6662C72.3739 152 70.5089 153.865 70.5089 156.157C70.5089 158.449 72.3739 160.314 74.6662 160.314H88.4177C90.8612 160.314 92.8493 162.302 92.8493 164.745C92.8493 167.305 90.767 169.387 88.2075 169.387Z" fill="#363E44"/>
<path d="M64.0358 189.9C63.96 189.9 63.8987 189.839 63.8987 189.763V186.562C63.8987 184.122 65.8835 182.137 68.3231 182.137H75.378C77.6664 182.137 79.528 180.276 79.528 177.987C79.528 175.699 77.6664 173.837 75.378 173.837H68.3231C65.8886 173.837 63.907 171.861 63.8987 169.428V169.413C63.9069 166.98 65.8886 165.004 68.3231 165.004H84.4408C84.5166 165.004 84.5779 165.065 84.5779 165.141C84.5779 165.217 84.5166 165.278 84.4408 165.278H68.323C66.0371 165.278 64.177 167.136 64.1729 169.42C64.177 171.705 66.0371 173.563 68.323 173.563H75.3779C77.8174 173.563 79.8022 175.548 79.8022 177.987C79.8022 180.427 77.8174 182.412 75.3779 182.412H68.323C66.0345 182.412 64.1729 184.273 64.1729 186.562V189.763C64.173 189.839 64.1116 189.9 64.0358 189.9Z" fill="#363E44"/>
<path d="M70.836 178.287H59.5179C56.2506 178.287 53.5923 175.629 53.5923 172.361H53.8666C53.8666 175.478 56.4017 178.013 59.5179 178.013H70.836C70.9118 178.013 70.9731 178.074 70.9731 178.15C70.9731 178.226 70.9117 178.287 70.836 178.287Z" fill="#363E44"/>
<path d="M65.9893 161.066H65.4104C62.7015 161.066 60.4978 158.862 60.4978 156.153C60.4978 156.078 60.5591 156.016 60.635 156.016C60.7108 156.016 60.7721 156.078 60.7721 156.153C60.7721 158.711 62.8529 160.792 65.4104 160.792H65.9893C66.0652 160.792 66.1265 160.853 66.1265 160.929C66.1265 161.005 66.0651 161.066 65.9893 161.066Z" fill="#363E44"/>
<path d="M94.5539 155.567H81.5419C81.4661 155.567 81.4048 155.506 81.4048 155.43C81.4048 155.354 81.4661 155.293 81.5419 155.293H94.5539C97.0579 155.293 99.354 153.925 100.547 151.723L102.337 148.418C102.373 148.352 102.456 148.327 102.523 148.363C102.589 148.399 102.614 148.482 102.578 148.549L100.788 151.854C99.5474 154.144 97.1587 155.567 94.5539 155.567Z" fill="#363E44"/>
<path d="M118.955 177.589H98.8887C96.5518 177.589 94.6506 175.688 94.6506 173.351C94.6506 171.014 96.5518 169.113 98.8887 169.113H108.487C110.672 169.113 112.451 167.335 112.451 165.149V164.972C112.451 162.787 110.672 161.009 108.487 161.009H97.5374C97.4616 161.009 97.4003 160.947 97.4003 160.871C97.4003 160.796 97.4616 160.734 97.5374 160.734H108.487C110.824 160.734 112.725 162.635 112.725 164.972V165.149C112.725 167.486 110.824 169.387 108.487 169.387H98.8887C96.7031 169.387 94.925 171.165 94.925 173.351C94.925 175.537 96.7031 177.315 98.8887 177.315H118.955C119.031 177.315 119.092 177.376 119.092 177.452C119.092 177.528 119.031 177.589 118.955 177.589Z" fill="#363E44"/>
<path d="M82.3784 183.714C82.3618 183.714 82.3448 183.711 82.3284 183.704C82.2578 183.677 82.2231 183.597 82.2507 183.527L83.7582 179.674C84.8412 176.907 87.4609 175.119 90.4326 175.119H91.9998C92.0756 175.119 92.1369 175.18 92.1369 175.256C92.1369 175.331 92.0756 175.393 91.9998 175.393H90.4326C87.5746 175.393 85.0552 177.113 84.0137 179.774L82.5062 183.627C82.4848 183.681 82.4331 183.714 82.3784 183.714Z" fill="#363E44"/>
<path d="M106.473 165.278H98.7673C98.6914 165.278 98.6301 165.217 98.6301 165.141C98.6301 165.065 98.6914 165.004 98.7673 165.004H106.473C106.549 165.004 106.611 165.065 106.611 165.141C106.611 165.217 106.549 165.278 106.473 165.278Z" fill="#363E44"/>
<path d="M118.955 173.077H103.543C103.467 173.077 103.406 173.016 103.406 172.94C103.406 172.865 103.467 172.803 103.543 172.803H118.955C119.031 172.803 119.092 172.865 119.092 172.94C119.092 173.016 119.031 173.077 118.955 173.077Z" fill="#363E44"/>
<path d="M97.9038 169.068H102.548V173.03H97.9038V176.199H112.622V164.777H97.9038V169.068Z" fill="#FF9D1B"/>
<path d="M101.492 178.189H105.004V181.32H101.492V183.824H112.622V174.798H101.492V178.189Z" fill="#FF9D1B"/>
<path d="M90.928 225.347C90.928 237.31 100.626 247.008 112.589 247.008C124.553 247.008 134.251 237.31 134.251 225.347C134.251 213.383 124.553 203.685 112.589 203.685C100.626 203.685 90.928 213.384 90.928 225.347ZM118.931 234.324C118.931 237.827 116.092 240.666 112.589 240.666C109.087 240.666 106.247 237.827 106.247 234.324C106.247 230.822 109.087 227.982 112.589 227.982C116.092 227.982 118.931 230.822 118.931 234.324Z" fill="#FF9D1B"/>
<path d="M108.892 164.57V215.282H116.287V164.57C116.287 162.527 114.632 160.872 112.589 160.872C110.547 160.872 108.892 162.527 108.892 164.57Z" fill="#FF9D1B"/>
<path d="M112.589 243.531C102.563 243.531 94.4053 235.373 94.4053 225.347C94.4053 215.32 102.563 207.163 112.589 207.163C122.616 207.163 130.773 215.32 130.773 225.347C130.773 235.373 122.616 243.531 112.589 243.531ZM112.589 207.437C102.714 207.437 94.6796 215.471 94.6796 225.347C94.6796 235.222 102.714 243.257 112.589 243.257C122.465 243.257 130.499 235.222 130.499 225.347C130.499 215.471 122.465 207.437 112.589 207.437Z" fill="#1D42C6"/>
<path d="M162.319 323.605L72.1495 332.006L31.8242 230.534H57.6834L87.7221 306.121L153.498 301.407L162.319 323.605Z" fill="#F7F1EB"/>
<path d="M173.674 323.72L169.011 346.884L210.451 358.404C210.451 358.404 206.55 323.755 173.674 323.72Z" fill="#F7F1EB"/>
<path d="M183.979 338.817L200.511 348.308L209.711 339.703L194.931 326.566L183.979 338.817Z" fill="#E2A18D"/>
<path d="M190.746 363.805L244.078 351.948C244.078 351.948 228.104 337.515 205.103 334.344L192.314 344.755C192.314 344.755 190.684 354.654 190.746 363.805Z" fill="white"/>
<path d="M207.384 344.108C207.363 344.108 207.341 344.103 207.321 344.093C207.253 344.058 207.227 343.975 207.262 343.908L211.297 336.116C211.332 336.049 211.414 336.022 211.482 336.057C211.549 336.092 211.576 336.175 211.541 336.242L207.506 344.034C207.481 344.081 207.433 344.108 207.384 344.108Z" fill="#363E44"/>
<path d="M212.379 345.176C212.358 345.176 212.336 345.171 212.316 345.16C212.249 345.125 212.222 345.043 212.257 344.975L216.292 337.183C216.327 337.116 216.41 337.089 216.477 337.124C216.544 337.159 216.571 337.242 216.536 337.309L212.501 345.101C212.476 345.149 212.429 345.176 212.379 345.176Z" fill="#363E44"/>
<path d="M129.635 303.296L186.057 342.673L199.185 326.592L164.711 290.968C164.711 290.968 153.844 280.879 144.121 288.847C134.397 296.816 129.635 303.296 129.635 303.296Z" fill="#C46F00"/>
<path d="M185.681 281.769C185.207 279.049 184.261 276.515 182.945 274.237C178.783 267.036 170.88 262.427 162.16 262.852C128.903 264.473 100.088 282.034 74.6055 311.551C74.6055 311.551 76.9908 319.733 93.3404 326.531C104.756 331.277 150.194 293.01 158.418 287.051L170.886 325.87C171.003 325.829 194.96 332.895 194.585 331.912C194.337 331.262 189.163 301.726 185.681 281.769Z" fill="#C46F00"/>
<path d="M133.58 306.258C133.538 306.258 133.498 306.239 133.471 306.204C133.425 306.144 133.436 306.058 133.497 306.012L166.088 281.174C166.149 281.129 166.235 281.14 166.28 281.2C166.326 281.261 166.315 281.347 166.254 281.393L133.663 306.23C133.638 306.249 133.609 306.258 133.58 306.258Z" fill="#363E44"/>
<path d="M191.173 318.45C191.137 318.45 191.102 318.436 191.075 318.408L163.31 289.647C163.257 289.593 163.259 289.506 163.313 289.454C163.368 289.401 163.455 289.402 163.507 289.457L191.272 318.218C191.325 318.272 191.323 318.359 191.269 318.411C191.242 318.437 191.208 318.45 191.173 318.45Z" fill="#363E44"/>
<path d="M69.3661 235.44C66.9263 238.084 57.6509 234.261 57.6509 234.261L50.9643 225.538C49.919 220.586 53.0862 215.724 58.0383 214.679C62.9905 213.633 67.8522 216.8 68.8975 221.752C68.8975 221.752 71.8511 232.747 69.3661 235.44Z" fill="#E2A18D"/>
<path d="M55.728 248.106L71.3025 252.779L66.3019 244.431L61.8084 223.144L50.9431 225.437L55.728 248.106Z" fill="#E2A18D"/>
<path d="M68.3647 224.328C68.3647 224.328 71.436 226.432 71.449 227.156C71.4645 228.02 68.7699 229.118 68.7699 229.118C68.7699 229.118 68.4329 224.32 68.3647 224.328Z" fill="#E2A18D"/>
<path d="M64.5994 236.517C64.593 236.517 64.5863 236.517 64.5797 236.516C61.2932 236.042 57.6674 234.558 57.6314 234.543C57.5613 234.514 57.5279 234.434 57.5567 234.364C57.5857 234.294 57.6659 234.26 57.7359 234.289C57.7718 234.304 61.367 235.775 64.6189 236.245C64.6939 236.255 64.7459 236.325 64.7351 236.4C64.7252 236.468 64.6665 236.517 64.5994 236.517Z" fill="#363E44"/>
<path d="M68.2839 231.567C67.7633 231.567 67.3396 231.144 67.3396 230.623C67.3396 230.242 67.5659 229.901 67.9164 229.753C67.9863 229.723 68.0667 229.756 68.0962 229.826C68.1257 229.896 68.093 229.976 68.0233 230.006C67.7747 230.111 67.6141 230.353 67.6141 230.623C67.6141 230.993 67.9146 231.293 68.2841 231.293C68.4185 231.293 68.548 231.254 68.6588 231.179C68.7218 231.136 68.8068 231.153 68.8493 231.216C68.8916 231.278 68.8751 231.364 68.8123 231.406C68.6558 231.512 68.4732 231.567 68.2839 231.567Z" fill="#363E44"/>
<path d="M64.2156 225.706C63.2994 225.706 62.3933 225.562 61.5136 225.276C61.4416 225.253 61.4021 225.175 61.4254 225.103C61.4489 225.031 61.5264 224.992 61.5982 225.015C62.6445 225.355 63.7301 225.488 64.8232 225.41C65.8205 225.338 66.7898 225.094 67.7041 224.682C67.7736 224.65 67.8546 224.681 67.8856 224.75C67.9167 224.819 67.8858 224.901 67.8168 224.932C66.8729 225.357 65.8724 225.61 64.8427 225.683C64.6334 225.698 64.4242 225.706 64.2156 225.706Z" fill="#363E44"/>
<path d="M48.6357 229.503C46.8283 226.191 45.7973 221.549 47.7222 217.742C50.2038 212.834 54.2836 211.238 59.1581 211.208C66.7186 211.161 70.5735 218.702 70.5735 218.702C70.5735 218.702 63.5973 220.301 61.2624 220.903C57.9795 221.751 62.642 231.154 56.2477 228.469C55.5441 228.174 54.3278 233.048 52.5495 233.048C51.8881 233.048 49.168 230.478 48.6357 229.503Z" fill="#363E44"/>
<path d="M59.4104 226.2C60.4198 227.607 60.0976 229.566 58.6906 230.575C57.2836 231.585 55.3247 231.263 54.3154 229.856C53.306 228.449 53.1661 226.172 54.5731 225.162C55.9801 224.153 58.4009 224.793 59.4104 226.2Z" fill="#E2A18D"/>
<path d="M56.8033 230.035C56.14 230.035 55.5069 229.719 55.1088 229.164C54.4429 228.235 54.3579 226.73 55.3006 226.053C56.0315 225.529 57.0584 225.688 57.752 226.078C57.818 226.115 57.8415 226.198 57.8044 226.264C57.7671 226.33 57.6837 226.354 57.6176 226.317C56.8871 225.906 55.9998 225.889 55.4605 226.276C54.6491 226.858 54.7414 228.181 55.3316 229.004C55.7573 229.597 56.4925 229.876 57.205 229.716C57.2788 229.699 57.3523 229.745 57.3691 229.819C57.3857 229.893 57.3393 229.966 57.2655 229.983C57.1116 230.018 56.9565 230.035 56.8033 230.035Z" fill="#363E44"/>
<path d="M71.1505 326.747L109.908 279.7L70.2492 243.547L54.1592 241.149L50.5092 249.581C50.5092 249.581 42.2472 276.839 71.1505 326.747Z" fill="#9B9AB0"/>
<path d="M166.77 300.407H69.2807L64.0237 288.126H166.77V300.407Z" fill="#F7F1EB"/>
<path d="M156.546 285.162C154.548 284.066 146.973 278.186 142.923 280.068C138.843 281.964 136.714 286.44 136.188 290.893C136.199 290.908 136.211 290.924 136.222 290.938C136.61 292.119 137.372 293.825 138.977 295.119C140.807 296.594 141.98 296.119 144.154 297.377C147.823 299.499 148.043 303.043 149.478 302.6C150.462 302.297 150.424 300.227 149.896 298.347C149.353 296.417 148.186 295.395 148.421 295.166C148.68 294.914 149.73 296.104 151.173 297.466C151.844 298.098 152.611 300.961 154.018 300.745C155.14 300.572 155.091 297.397 153.588 295.064C152.525 293.413 150.695 292.862 150.866 292.547C150.993 292.311 152.075 292.666 152.917 293.248C154.305 294.21 155.122 297.131 156.414 296.906C157.679 296.686 157.586 293.914 156.341 291.681C155.291 289.798 153.221 289.28 153.43 288.888C153.577 288.612 154.552 288.652 156.477 289.335C158.084 289.906 160.841 292.046 161.69 290.463C162.403 289.131 159.562 286.815 156.546 285.162Z" fill="#E2A18D"/>
<path d="M101.848 280.273C96.9266 281.312 93.1707 285.42 92.7917 290.413C92.5433 293.686 93.7681 297.229 98.6405 299.825C110.504 306.144 140.235 291.492 140.235 291.492L145.117 279.711C130.894 277.408 115.393 277.411 101.848 280.273Z" fill="#E2A18D"/>
<path d="M78.0514 257.35L85.8179 277.474C85.8179 277.474 110.467 277.145 125.728 276.183L121.409 303.777C121.409 303.777 81.2931 312.738 68.915 308.238C57.7419 304.176 52.5322 272.663 57.7419 257.35C58.7732 254.318 78.0514 257.35 78.0514 257.35Z" fill="#9B9AB0"/>
<path d="M85.8177 277.611C85.7611 277.611 85.7102 277.577 85.6898 277.524L77.9233 257.399C77.896 257.329 77.9313 257.249 78.0018 257.222C78.0725 257.195 78.1518 257.23 78.1791 257.3L85.9113 277.336C86.9623 277.321 96.4734 277.183 106.94 276.861C106.941 276.861 106.942 276.861 106.944 276.861C107.018 276.861 107.078 276.919 107.081 276.994C107.083 277.069 107.024 277.132 106.948 277.135C95.9018 277.475 85.9191 277.61 85.8195 277.612C85.819 277.611 85.8183 277.611 85.8177 277.611Z" fill="#363E44"/>
<path d="M79.1811 309.639C74.6515 309.639 71.1981 309.214 68.8681 308.367C64.5086 306.782 60.7274 300.96 58.2207 291.972C55.9447 283.811 55.0639 274.09 55.8647 265.968C55.8721 265.893 55.9385 265.837 56.0147 265.845C56.0901 265.853 56.1452 265.92 56.1377 265.995C55.3401 274.085 56.2175 283.768 58.4847 291.898C60.967 300.798 64.6879 306.556 68.9617 308.109C72.4701 309.385 78.5796 309.691 87.121 309.018C87.1953 309.013 87.2624 309.069 87.2684 309.144C87.2743 309.22 87.2179 309.286 87.1424 309.292C84.2006 309.523 81.5441 309.639 79.1811 309.639Z" fill="#363E44"/>
<path d="M184.706 363.041L160.154 319.024L72.8243 330.843L31.8243 230.534L21.2449 230.655L67.5673 343.986L154.897 332.167L172.118 363.041H184.706Z" fill="#E6D0BE"/>
<path d="M36.5186 229.503C35.7679 229.503 35.2527 229.309 34.9869 228.926C34.8539 228.734 34.7864 228.498 34.7864 228.223C34.7864 228.108 34.7984 227.984 34.8222 227.854C34.8358 227.78 34.9076 227.73 34.9817 227.744C35.0563 227.757 35.1055 227.829 35.092 227.903C35.0713 228.017 35.0607 228.124 35.0607 228.223C35.0607 228.441 35.1117 228.624 35.2123 228.769C35.4236 229.074 35.8631 229.229 36.5184 229.229L36.5918 229.228C36.5925 229.228 36.5933 229.228 36.5941 229.228C36.6689 229.228 36.7299 229.288 36.7313 229.363C36.7325 229.439 36.6722 229.501 36.5965 229.503L36.5186 229.503ZM38.2204 229.272C38.1581 229.272 38.1016 229.229 38.087 229.166C38.0698 229.092 38.1156 229.018 38.1894 229.001C38.6638 228.891 39.192 228.739 39.7592 228.551C39.8307 228.527 39.9087 228.566 39.9327 228.637C39.9566 228.709 39.9177 228.787 39.8457 228.811C39.2705 229.002 38.7342 229.156 38.2515 229.268C38.2411 229.271 38.2307 229.272 38.2204 229.272ZM41.3486 228.252C41.2941 228.252 41.2424 228.219 41.221 228.165C41.1932 228.095 41.2276 228.015 41.2981 227.987C41.7798 227.797 42.2888 227.583 42.8111 227.352C42.8811 227.322 42.9617 227.353 42.992 227.422C43.0226 227.492 42.9912 227.572 42.9219 227.603C42.3963 227.835 41.8839 228.05 41.3989 228.242C41.3825 228.249 41.3655 228.252 41.3486 228.252ZM44.3621 226.926C44.3109 226.926 44.2617 226.897 44.2382 226.848C44.2056 226.78 44.2345 226.698 44.3028 226.665C44.7795 226.438 45.2753 226.193 45.7763 225.938C45.844 225.904 45.9264 225.931 45.9608 225.998C45.9951 226.066 45.9682 226.148 45.9006 226.183C45.3975 226.439 44.8998 226.684 44.4212 226.913C44.402 226.922 44.382 226.926 44.3621 226.926ZM35.5857 226.505C35.5621 226.505 35.5384 226.499 35.5166 226.486C35.4512 226.448 35.4292 226.364 35.4675 226.299C35.7132 225.879 36.0274 225.416 36.4016 224.924C36.4472 224.864 36.5332 224.852 36.5937 224.898C36.6539 224.944 36.6656 225.03 36.6198 225.09C36.2522 225.574 35.9441 226.027 35.7041 226.437C35.6787 226.481 35.6328 226.505 35.5857 226.505ZM47.2982 225.436C47.2493 225.436 47.2018 225.41 47.1771 225.364C47.1413 225.297 47.1666 225.214 47.2334 225.178C47.7063 224.925 48.1916 224.66 48.676 224.39C48.7418 224.353 48.8256 224.377 48.8625 224.443C48.8996 224.509 48.8758 224.592 48.8096 224.629C48.3239 224.9 47.837 225.167 47.3627 225.42C47.3423 225.431 47.3201 225.436 47.2982 225.436ZM37.5534 223.87C37.5215 223.87 37.4894 223.859 37.4634 223.837C37.4062 223.787 37.4002 223.7 37.45 223.643C37.7893 223.253 38.164 222.843 38.564 222.423C38.6167 222.368 38.7033 222.366 38.7579 222.418C38.8128 222.47 38.815 222.557 38.7627 222.612C38.3657 223.029 37.9936 223.437 37.6568 223.823C37.6297 223.854 37.5915 223.87 37.5534 223.87ZM50.174 223.832C50.1267 223.832 50.0806 223.808 50.0553 223.764C50.0173 223.698 50.0396 223.614 50.1051 223.576C50.571 223.306 51.0475 223.025 51.5215 222.741C51.5865 222.702 51.6706 222.723 51.7097 222.788C51.7486 222.853 51.7276 222.937 51.6626 222.976C51.1874 223.261 50.7096 223.543 50.2426 223.814C50.2211 223.826 50.1974 223.832 50.174 223.832ZM52.998 222.139C52.9521 222.139 52.9072 222.116 52.8811 222.074C52.8414 222.009 52.8611 221.925 52.9256 221.885C53.3851 221.601 53.8537 221.306 54.3183 221.01C54.3819 220.969 54.4667 220.988 54.5077 221.052C54.5483 221.116 54.5295 221.201 54.4656 221.242C54.0001 221.538 53.5305 221.833 53.0699 222.118C53.0475 222.132 53.0227 222.139 52.998 222.139ZM39.819 221.481C39.7835 221.481 39.7481 221.468 39.7212 221.44C39.668 221.386 39.6688 221.299 39.7228 221.246C40.0991 220.876 40.5001 220.492 40.9148 220.105C40.9703 220.054 41.057 220.057 41.1087 220.112C41.1604 220.167 41.1572 220.254 41.102 220.306C40.6889 220.691 40.2896 221.073 39.9151 221.442C39.8885 221.468 39.8537 221.481 39.819 221.481ZM55.7748 220.369C55.7301 220.369 55.6862 220.347 55.66 220.307C55.6184 220.244 55.6361 220.159 55.6995 220.117C56.1528 219.82 56.6138 219.514 57.0694 219.207C57.1322 219.165 57.2174 219.182 57.2599 219.245C57.3022 219.307 57.2854 219.393 57.2228 219.435C56.766 219.742 56.3042 220.049 55.8498 220.347C55.8266 220.362 55.8006 220.369 55.7748 220.369ZM42.2248 219.233C42.1872 219.233 42.1496 219.217 42.1224 219.187C42.0721 219.131 42.0769 219.044 42.1334 218.993C42.5321 218.637 42.9496 218.272 43.3743 217.907C43.4317 217.858 43.5182 217.864 43.5677 217.922C43.6169 217.979 43.6105 218.066 43.553 218.115C43.1299 218.479 42.7137 218.843 42.3161 219.198C42.29 219.221 42.2573 219.233 42.2248 219.233ZM58.5066 218.531C58.4631 218.531 58.4201 218.511 58.3935 218.472C58.3505 218.41 58.3662 218.324 58.4285 218.281L58.6352 218.138C59.0195 217.872 59.4 217.605 59.7765 217.339C59.8384 217.295 59.9241 217.31 59.9677 217.371C60.0115 217.433 59.9968 217.519 59.9351 217.562C59.5577 217.83 59.1764 218.097 58.7913 218.364L58.5843 218.507C58.5606 218.523 58.5334 218.531 58.5066 218.531ZM44.7217 217.086C44.6822 217.086 44.6433 217.069 44.6161 217.036C44.5677 216.978 44.5758 216.892 44.6341 216.843C45.0513 216.497 45.4808 216.146 45.9107 215.8C45.9697 215.753 46.0563 215.762 46.1036 215.821C46.151 215.88 46.1417 215.966 46.0827 216.014C45.6539 216.359 45.2255 216.709 44.8094 217.054C44.7836 217.076 44.7526 217.086 44.7217 217.086ZM61.1939 216.628C61.1514 216.628 61.1097 216.609 61.0828 216.572C61.0382 216.51 61.0518 216.425 61.1131 216.38C61.5574 216.057 62.003 215.729 62.4378 215.405C62.4987 215.36 62.5844 215.372 62.6297 215.433C62.6749 215.494 62.6625 215.58 62.6017 215.625C62.1661 215.95 61.7195 216.279 61.2743 216.602C61.25 216.62 61.2217 216.628 61.1939 216.628ZM47.2873 215.021C47.2464 215.021 47.2061 215.003 47.1791 214.969C47.1324 214.909 47.143 214.823 47.2028 214.776C47.6304 214.442 48.0698 214.103 48.5087 213.77C48.5687 213.724 48.655 213.736 48.7007 213.796C48.7466 213.857 48.7348 213.943 48.6745 213.989C48.2368 214.321 47.7985 214.659 47.3716 214.992C47.3465 215.012 47.3168 215.021 47.2873 215.021ZM63.8334 214.66C63.7921 214.66 63.7514 214.641 63.7243 214.606C63.6783 214.546 63.6896 214.46 63.7499 214.413C64.1875 214.078 64.6245 213.739 65.0486 213.404C65.1083 213.358 65.1944 213.368 65.2412 213.427C65.2881 213.487 65.2778 213.573 65.2184 213.62C64.7934 213.955 64.3554 214.295 63.9168 214.631C63.8918 214.65 63.8625 214.66 63.8334 214.66ZM49.9089 213.029C49.8668 213.029 49.8255 213.01 49.7985 212.973C49.7534 212.912 49.7663 212.827 49.8272 212.782C50.2662 212.457 50.7142 212.13 51.1583 211.81C51.2197 211.765 51.3056 211.779 51.3498 211.841C51.3939 211.902 51.3802 211.988 51.3186 212.032C50.8753 212.352 50.4283 212.678 49.9901 213.002C49.966 213.02 49.9372 213.029 49.9089 213.029ZM66.4194 212.621C66.3795 212.621 66.3398 212.603 66.3128 212.57C66.2651 212.511 66.274 212.425 66.3328 212.377C66.7602 212.03 67.187 211.678 67.6014 211.33C67.6597 211.282 67.7461 211.29 67.7947 211.347C67.8432 211.405 67.8357 211.492 67.7777 211.541C67.3622 211.889 66.9343 212.242 66.5059 212.59C66.4804 212.611 66.4497 212.621 66.4194 212.621ZM52.5802 211.103C52.5372 211.103 52.4945 211.083 52.4679 211.045C52.4244 210.983 52.4394 210.897 52.5012 210.854C52.7436 210.684 52.9874 210.514 53.2328 210.344C53.4406 210.2 53.648 210.057 53.8551 209.915C53.9179 209.872 54.0028 209.888 54.0459 209.95C54.0885 210.013 54.0726 210.098 54.0102 210.141C53.8034 210.283 53.5964 210.425 53.389 210.569C53.1442 210.739 52.9008 210.909 52.6591 211.078C52.6349 211.095 52.6074 211.103 52.5802 211.103ZM68.9417 210.504C68.9035 210.504 68.8653 210.488 68.8382 210.457C68.7885 210.4 68.7945 210.313 68.8517 210.263C69.2735 209.897 69.6874 209.53 70.0822 209.173C70.1384 209.122 70.2248 209.126 70.276 209.183C70.3267 209.239 70.3223 209.326 70.2663 209.376C69.8701 209.734 69.4548 210.102 69.0318 210.47C69.0058 210.493 68.9737 210.504 68.9417 210.504ZM55.2965 209.243C55.2522 209.243 55.2087 209.221 55.1823 209.182C55.1401 209.119 55.1572 209.034 55.2202 208.991C55.6773 208.686 56.1403 208.381 56.5965 208.085C56.6601 208.044 56.7449 208.062 56.7863 208.125C56.8276 208.189 56.8095 208.274 56.746 208.315C56.2908 208.611 55.8287 208.915 55.3724 209.22C55.3492 209.235 55.3226 209.243 55.2965 209.243ZM71.3829 208.294C71.3465 208.294 71.3103 208.279 71.2833 208.251C71.2312 208.196 71.2335 208.109 71.2885 208.057C71.6971 207.67 72.0933 207.284 72.4657 206.911C72.5194 206.858 72.6063 206.858 72.6597 206.911C72.7134 206.965 72.7134 207.051 72.6599 207.105C72.2856 207.48 71.8877 207.867 71.4771 208.256C71.4506 208.281 71.4167 208.294 71.3829 208.294ZM58.0578 207.449C58.0122 207.449 57.9678 207.426 57.9416 207.385C57.9011 207.321 57.9203 207.236 57.9844 207.195C58.4491 206.902 58.9197 206.609 59.3836 206.324C59.4477 206.285 59.5326 206.305 59.5721 206.37C59.6118 206.434 59.5915 206.519 59.5269 206.558C59.0642 206.842 58.5945 207.134 58.1309 207.427C58.1081 207.442 58.0827 207.449 58.0578 207.449ZM73.7062 205.96C73.6727 205.96 73.6393 205.948 73.6128 205.924C73.5574 205.872 73.5541 205.785 73.6056 205.73C73.9983 205.307 74.3644 204.894 74.6936 204.503C74.7424 204.445 74.829 204.438 74.8868 204.486C74.9449 204.535 74.9523 204.622 74.9036 204.68C74.5714 205.074 74.2024 205.491 73.8066 205.916C73.7796 205.946 73.7428 205.96 73.7062 205.96ZM60.8647 205.728C60.8178 205.728 60.7723 205.704 60.7466 205.66C60.7081 205.595 60.7295 205.511 60.7946 205.473C61.2715 205.189 61.7505 204.91 62.2186 204.642C62.284 204.604 62.3681 204.627 62.4057 204.692C62.4434 204.758 62.4207 204.842 62.355 204.88C61.8882 205.147 61.4102 205.426 60.9348 205.708C60.9127 205.721 60.8886 205.728 60.8647 205.728ZM63.7219 204.091C63.6736 204.091 63.6267 204.065 63.6016 204.02C63.565 203.953 63.5891 203.87 63.6556 203.833C64.1439 203.564 64.6323 203.301 65.107 203.051C65.174 203.016 65.257 203.041 65.2923 203.108C65.3277 203.175 65.3019 203.258 65.2349 203.294C64.7618 203.543 64.2749 203.805 63.788 204.074C63.7671 204.085 63.7444 204.091 63.7219 204.091ZM75.8127 203.432C75.7851 203.432 75.7571 203.424 75.733 203.406C75.6714 203.362 75.6571 203.277 75.7013 203.215C76.0615 202.712 76.3492 202.248 76.5565 201.836C76.5905 201.768 76.6725 201.741 76.7407 201.775C76.8083 201.809 76.8356 201.891 76.8016 201.959C76.5879 202.384 76.2927 202.86 75.924 203.375C75.8976 203.412 75.8553 203.432 75.8127 203.432ZM66.6358 202.557C66.5855 202.557 66.5369 202.529 66.513 202.481C66.4792 202.413 66.5066 202.331 66.5744 202.297C67.0807 202.044 67.5804 201.803 68.0595 201.578C68.1285 201.546 68.21 201.576 68.2419 201.645C68.2739 201.713 68.2444 201.795 68.1758 201.827C67.6988 202.05 67.2013 202.291 66.6971 202.543C66.6772 202.553 66.6564 202.557 66.6358 202.557ZM69.6194 201.166C69.5662 201.166 69.5156 201.135 69.4934 201.083C69.4635 201.013 69.4958 200.932 69.5652 200.903C70.0964 200.675 70.6116 200.466 71.0966 200.282C71.1675 200.256 71.2469 200.291 71.2735 200.362C71.3003 200.433 71.2646 200.512 71.1939 200.539C70.7124 200.721 70.201 200.928 69.6735 201.155C69.6559 201.162 69.6375 201.166 69.6194 201.166ZM77.0922 200.466C77.0232 200.466 76.9637 200.414 76.956 200.344C76.9387 200.188 76.8903 200.051 76.8119 199.938C76.6488 199.702 76.3472 199.556 75.9157 199.502C75.8405 199.492 75.7873 199.424 75.7966 199.349C75.8059 199.273 75.8747 199.22 75.9497 199.23C76.462 199.294 76.8279 199.479 77.0375 199.782C77.142 199.933 77.2063 200.112 77.2288 200.314C77.2372 200.389 77.1829 200.457 77.1076 200.465C77.1024 200.466 77.0972 200.466 77.0922 200.466ZM72.7014 200.01C72.6427 200.01 72.5885 199.972 72.5702 199.913C72.548 199.841 72.5886 199.764 72.661 199.742C73.2497 199.561 73.7915 199.424 74.2713 199.334C74.3467 199.32 74.4174 199.369 74.4313 199.444C74.4452 199.518 74.3961 199.59 74.3216 199.604C73.8519 199.692 73.3204 199.826 72.7417 200.004C72.7284 200.008 72.7147 200.01 72.7014 200.01Z" fill="#EFBC73"/>
<path d="M37.7586 221.624C37.57 221.624 37.3849 221.622 37.203 221.62C37.1273 221.619 37.0668 221.556 37.0679 221.481C37.069 221.406 37.1302 221.345 37.2051 221.345C37.2057 221.345 37.2064 221.345 37.2071 221.345C37.7243 221.353 38.275 221.35 38.8478 221.336C38.8489 221.336 38.8501 221.336 38.8512 221.336C38.9253 221.336 38.9863 221.395 38.9883 221.469C38.9902 221.545 38.9301 221.608 38.8544 221.61C38.4794 221.619 38.1106 221.624 37.7586 221.624ZM35.5608 221.553C35.5576 221.553 35.5544 221.553 35.5511 221.553C34.9463 221.51 34.3919 221.448 33.9032 221.367C33.8285 221.355 33.7779 221.284 33.7902 221.21C33.8024 221.135 33.8725 221.084 33.9477 221.097C34.428 221.176 34.9739 221.237 35.5703 221.279C35.6458 221.284 35.7028 221.35 35.6974 221.425C35.6923 221.498 35.6323 221.553 35.5608 221.553ZM40.4959 221.544C40.4236 221.544 40.363 221.487 40.3592 221.414C40.355 221.338 40.4129 221.274 40.4885 221.27C41.017 221.241 41.5683 221.204 42.1275 221.159C42.205 221.154 42.2691 221.21 42.2751 221.285C42.281 221.361 42.2248 221.427 42.1492 221.433C41.5877 221.477 41.034 221.515 40.5034 221.544C40.501 221.544 40.4984 221.544 40.4959 221.544ZM43.7777 221.286C43.708 221.286 43.6485 221.233 43.6414 221.163C43.6338 221.087 43.6888 221.02 43.7642 221.013C44.2977 220.959 44.8472 220.899 45.3982 220.834C45.4715 220.825 45.5415 220.879 45.5505 220.954C45.5594 221.029 45.5056 221.098 45.4303 221.106C44.878 221.172 44.3265 221.232 43.7915 221.286C43.7869 221.286 43.7824 221.286 43.7777 221.286ZM32.3341 220.962C32.3174 220.962 32.3004 220.959 32.2839 220.952C31.547 220.662 31.1213 220.277 31.0185 219.806C31.0026 219.733 30.9944 219.657 30.9944 219.581C30.9944 219.315 31.0923 219.031 31.2853 218.737C31.3269 218.673 31.412 218.655 31.4753 218.697C31.5386 218.739 31.5563 218.824 31.5148 218.887C31.3515 219.136 31.2687 219.369 31.2687 219.581C31.2687 219.637 31.2747 219.693 31.2865 219.748C31.3685 220.123 31.7378 220.443 32.3843 220.697C32.4548 220.725 32.4895 220.804 32.4617 220.875C32.4404 220.929 32.3887 220.962 32.3341 220.962ZM47.0471 220.9C46.9795 220.9 46.9207 220.851 46.9114 220.782C46.9013 220.707 46.954 220.638 47.0289 220.627C47.5619 220.555 48.1096 220.477 48.6564 220.395C48.7335 220.384 48.8011 220.436 48.8125 220.511C48.8237 220.586 48.772 220.655 48.6971 220.667C48.1489 220.749 47.5999 220.827 47.0655 220.899C47.0593 220.9 47.0532 220.9 47.0471 220.9ZM50.3029 220.412C50.2368 220.412 50.1787 220.365 50.1678 220.297C50.1554 220.223 50.206 220.152 50.2808 220.14C50.8143 220.052 51.3595 219.959 51.9013 219.862C51.9759 219.849 52.0472 219.899 52.0603 219.973C52.0736 220.048 52.0238 220.119 51.9492 220.132C51.4063 220.229 50.86 220.323 50.3251 220.411C50.3177 220.412 50.3101 220.412 50.3029 220.412ZM53.5441 219.836C53.4795 219.836 53.422 219.79 53.4095 219.724C53.3952 219.65 53.4441 219.578 53.5185 219.564C54.0506 219.462 54.5933 219.355 55.1319 219.245C55.2066 219.23 55.2786 219.278 55.2937 219.352C55.3087 219.426 55.261 219.499 55.1867 219.514C54.6471 219.624 54.1033 219.731 53.5701 219.833C53.5612 219.835 53.5527 219.836 53.5441 219.836ZM56.7698 219.179C56.7065 219.179 56.6497 219.135 56.6357 219.07C56.6198 218.996 56.6669 218.923 56.7409 218.907L56.9935 218.853C57.4479 218.753 57.899 218.653 58.3464 218.55C58.4195 218.534 58.4937 218.58 58.5106 218.654C58.5274 218.727 58.4814 218.801 58.4074 218.818C57.9592 218.92 57.5073 219.021 57.0519 219.121L56.7987 219.176C56.7891 219.178 56.7794 219.179 56.7698 219.179ZM59.9795 218.444C59.9177 218.444 59.8616 218.402 59.8464 218.339C59.8285 218.266 59.8738 218.192 59.9474 218.174C60.4825 218.045 61.0196 217.911 61.544 217.778C61.6172 217.759 61.692 217.804 61.7107 217.877C61.7295 217.95 61.6851 218.025 61.6117 218.044C61.0864 218.178 60.5481 218.311 60.0118 218.441C60.0012 218.443 59.9904 218.444 59.9795 218.444ZM32.5621 217.797C32.5205 217.797 32.4795 217.778 32.4527 217.742C32.4068 217.682 32.4188 217.596 32.479 217.55C32.8666 217.256 33.3339 216.949 33.8679 216.637C33.9334 216.599 34.0172 216.621 34.0553 216.687C34.0935 216.752 34.0715 216.836 34.0061 216.874C33.4818 217.181 33.0238 217.482 32.6448 217.769C32.6201 217.788 32.5909 217.797 32.5621 217.797ZM63.1709 217.631C63.1104 217.631 63.055 217.591 63.0386 217.53C63.0188 217.457 63.0623 217.381 63.1354 217.362C63.6687 217.219 64.202 217.071 64.7211 216.924C64.7934 216.904 64.8696 216.946 64.8904 217.019C64.9109 217.092 64.8687 217.168 64.7959 217.188C64.2758 217.336 63.7411 217.483 63.2067 217.627C63.1948 217.63 63.1827 217.631 63.1709 217.631ZM66.3393 216.733C66.2802 216.733 66.2257 216.695 66.2079 216.635C66.1862 216.563 66.2275 216.486 66.2999 216.464C66.832 216.305 67.3607 216.142 67.8718 215.981C67.9447 215.958 68.021 215.998 68.0439 216.07C68.0668 216.142 68.0268 216.219 67.9546 216.242C67.4423 216.404 66.9119 216.568 66.3788 216.727C66.3655 216.731 66.3522 216.733 66.3393 216.733ZM35.3874 216.114C35.3371 216.114 35.2885 216.086 35.2647 216.038C35.2308 215.97 35.2584 215.888 35.3261 215.854C35.7899 215.623 36.2931 215.386 36.8218 215.151C36.8914 215.121 36.9722 215.152 37.0029 215.221C37.0336 215.29 37.0025 215.371 36.9332 215.402C36.4082 215.635 35.9085 215.87 35.4485 216.1C35.4289 216.109 35.408 216.114 35.3874 216.114ZM69.4786 215.738C69.4212 215.738 69.3678 215.702 69.3486 215.645C69.3244 215.573 69.3631 215.495 69.435 215.471C69.9625 215.294 70.485 215.113 70.9883 214.933C71.0589 214.907 71.1379 214.944 71.1636 215.016C71.1891 215.087 71.1521 215.165 71.0807 215.191C70.5758 215.372 70.0515 215.553 69.5223 215.731C69.5078 215.736 69.4931 215.738 69.4786 215.738ZM38.3935 214.771C38.3394 214.771 38.2881 214.738 38.2664 214.685C38.2379 214.615 38.2717 214.535 38.342 214.507C38.8322 214.308 39.3495 214.106 39.8794 213.907C39.9501 213.88 40.0293 213.916 40.056 213.987C40.0825 214.058 40.0467 214.137 39.9758 214.164C39.448 214.362 38.933 214.563 38.4451 214.761C38.4281 214.767 38.4108 214.771 38.3935 214.771ZM72.5784 214.626C72.5234 214.626 72.4714 214.593 72.4503 214.538C72.4231 214.468 72.4585 214.388 72.5291 214.361C73.0572 214.158 73.5703 213.953 74.0543 213.751C74.1245 213.722 74.2045 213.755 74.2337 213.825C74.2629 213.895 74.2299 213.975 74.1599 214.004C73.6736 214.207 73.158 214.413 72.6275 214.617C72.6114 214.623 72.5947 214.626 72.5784 214.626ZM41.4755 213.61C41.4188 213.61 41.3659 213.575 41.3461 213.519C41.321 213.447 41.3586 213.369 41.4301 213.344C41.9367 213.166 42.4622 212.988 42.9916 212.813C43.0638 212.789 43.1413 212.828 43.165 212.9C43.1887 212.972 43.1496 213.05 43.0776 213.074C42.5497 213.248 42.026 213.426 41.5209 213.603C41.5059 213.608 41.4906 213.61 41.4755 213.61ZM75.6164 213.356C75.5644 213.356 75.5148 213.326 75.4917 213.276C75.4601 213.207 75.4902 213.125 75.559 213.094C76.0843 212.852 76.5801 212.61 77.0327 212.375C77.0999 212.34 77.1828 212.366 77.2177 212.433C77.2527 212.5 77.2267 212.583 77.1595 212.618C76.7029 212.856 76.2029 213.1 75.6736 213.343C75.655 213.352 75.6356 213.356 75.6164 213.356ZM44.6028 212.579C44.5443 212.579 44.4902 212.541 44.4718 212.482C44.4494 212.41 44.4898 212.333 44.5621 212.31C45.0786 212.15 45.6096 211.989 46.1402 211.833C46.2136 211.812 46.2892 211.854 46.3105 211.926C46.3319 211.999 46.2902 212.075 46.2176 212.097C45.6883 212.252 45.1586 212.412 44.6434 212.572C44.63 212.577 44.6163 212.579 44.6028 212.579ZM78.5287 211.822C78.4829 211.822 78.4382 211.8 78.4121 211.758C78.3721 211.694 78.3917 211.609 78.4559 211.569C78.9806 211.242 79.4239 210.923 79.7731 210.621C79.8305 210.571 79.9169 210.577 79.9667 210.635C80.0162 210.692 80.0099 210.779 79.9526 210.828C79.5924 211.14 79.1377 211.467 78.6008 211.802C78.5785 211.816 78.5534 211.822 78.5287 211.822ZM47.762 211.649C47.7019 211.649 47.6469 211.609 47.6301 211.548C47.6098 211.475 47.6523 211.4 47.7252 211.379C48.2481 211.234 48.7833 211.088 49.3161 210.948C49.3888 210.928 49.4646 210.972 49.4839 211.045C49.5032 211.118 49.4595 211.193 49.3864 211.213C48.8546 211.353 48.3207 211.498 47.799 211.643C47.7867 211.647 47.7742 211.649 47.762 211.649ZM50.9457 210.807C50.8844 210.807 50.8285 210.766 50.8128 210.703C50.7943 210.63 50.839 210.555 50.9125 210.537C51.4405 210.405 51.9791 210.273 52.5139 210.146C52.5882 210.129 52.6616 210.175 52.679 210.248C52.6966 210.322 52.651 210.396 52.5774 210.413C52.0435 210.54 51.506 210.671 50.9793 210.803C50.9679 210.806 50.9568 210.807 50.9457 210.807ZM54.1497 210.046C54.0871 210.046 54.0304 210.003 54.016 209.939C53.9994 209.865 54.0459 209.792 54.1198 209.775C54.4028 209.712 54.6869 209.649 54.9723 209.587C55.2256 209.531 55.4779 209.477 55.7295 209.424C55.8046 209.408 55.8766 209.455 55.8922 209.529C55.9078 209.603 55.8607 209.676 55.7866 209.692C55.5353 209.745 55.2834 209.8 55.0306 209.855C54.7457 209.917 54.4621 209.98 54.1798 210.043C54.1698 210.045 54.1596 210.046 54.1497 210.046ZM80.8453 209.574C80.8324 209.574 80.8194 209.572 80.8065 209.568C80.7338 209.547 80.6924 209.47 80.7138 209.398C80.7415 209.304 80.7555 209.213 80.7553 209.127C80.7553 209.07 80.7493 209.014 80.7375 208.959C80.6773 208.682 80.4581 208.434 80.0866 208.221C80.0209 208.183 79.998 208.099 80.0358 208.034C80.0733 207.968 80.1573 207.945 80.2229 207.983C80.6647 208.236 80.928 208.545 81.0057 208.901C81.0216 208.975 81.0297 209.05 81.0297 209.126C81.0298 209.239 81.0121 209.357 80.9768 209.475C80.9592 209.535 80.9046 209.574 80.8453 209.574ZM57.3691 209.363C57.3051 209.363 57.2477 209.318 57.2349 209.252C57.22 209.178 57.2682 209.106 57.3424 209.091C57.8825 208.983 58.4269 208.878 58.9603 208.778C59.0349 208.764 59.1062 208.813 59.1204 208.888C59.1344 208.962 59.0851 209.034 59.0106 209.048C58.4785 209.147 57.9352 209.252 57.3962 209.36C57.3871 209.362 57.378 209.363 57.3691 209.363ZM60.6054 208.758C60.54 208.758 60.4821 208.711 60.4704 208.644C60.4574 208.57 60.5073 208.499 60.5821 208.486C61.1266 208.391 61.6733 208.3 62.2074 208.214C62.2824 208.202 62.3528 208.253 62.3644 208.328C62.3764 208.403 62.3255 208.473 62.2507 208.485C61.7179 208.57 61.1723 208.662 60.629 208.756C60.621 208.757 60.6131 208.758 60.6054 208.758ZM63.856 208.238C63.789 208.238 63.7304 208.189 63.7205 208.121C63.7096 208.046 63.7615 207.976 63.8366 207.965C64.3857 207.885 64.9351 207.81 65.4693 207.74C65.5434 207.73 65.6132 207.784 65.6229 207.859C65.6327 207.934 65.5797 208.003 65.5047 208.012C64.9717 208.081 64.4237 208.157 63.8759 208.237C63.8692 208.238 63.8626 208.238 63.856 208.238ZM67.121 207.815C67.0521 207.815 66.9927 207.763 66.9848 207.693C66.9764 207.618 67.0304 207.55 67.1057 207.542C67.6604 207.479 68.2121 207.422 68.7456 207.372C68.8228 207.365 68.888 207.42 68.8951 207.496C68.9021 207.571 68.8467 207.638 68.7714 207.645C68.2395 207.695 67.6894 207.752 67.1366 207.814C67.1313 207.815 67.126 207.815 67.121 207.815ZM78.6046 207.707C78.5952 207.707 78.5856 207.706 78.576 207.704C78.1091 207.605 77.5667 207.527 76.9636 207.47C76.8882 207.463 76.8329 207.396 76.8399 207.321C76.847 207.245 76.9115 207.19 76.9894 207.197C77.6028 207.254 78.1556 207.335 78.6328 207.435C78.7069 207.451 78.7543 207.524 78.7387 207.598C78.725 207.663 78.6681 207.707 78.6046 207.707ZM70.3988 207.509C70.3275 207.509 70.2672 207.454 70.2622 207.382C70.2567 207.307 70.3135 207.241 70.3892 207.235C70.9532 207.195 71.5071 207.162 72.0359 207.138C72.1097 207.134 72.1758 207.193 72.1792 207.269C72.1827 207.344 72.1242 207.408 72.0485 207.412C71.5222 207.436 70.9706 207.469 70.4088 207.509C70.4054 207.509 70.4022 207.509 70.3988 207.509ZM75.3335 207.373C75.332 207.373 75.3306 207.373 75.3293 207.373C74.8151 207.358 74.2639 207.354 73.6895 207.362C73.6888 207.362 73.6881 207.362 73.6876 207.362C73.6127 207.362 73.5515 207.302 73.5504 207.226C73.5493 207.151 73.6101 207.088 73.6856 207.087C74.2636 207.08 74.8191 207.083 75.3373 207.099C75.4132 207.101 75.4725 207.164 75.4705 207.24C75.4682 207.314 75.4073 207.373 75.3335 207.373Z" fill="#EFBC73"/>
</svg>
