<svg width="94" height="120" viewBox="0 0 94 120" fill="none" xmlns="http://www.w3.org/2000/svg">
<rect width="94" height="120" fill="#CB7300"/>
<g clip-path="url(#clip0_177_9264)">
<path d="M47.1823 105.908C72.4354 105.908 92.9071 85.436 92.9071 60.1828C92.9071 34.9297 72.4354 14.458 47.1823 14.458C21.9292 14.458 1.45752 34.9297 1.45752 60.1828C1.45752 85.436 21.9292 105.908 47.1823 105.908Z" fill="#1D42C6"/>
<path d="M90.5032 68.3807H45.7951C45.7675 68.3807 45.7451 68.3583 45.7451 68.3307V24.5495C45.7451 24.5219 45.7675 24.4995 45.7951 24.4995H90.5032C90.5308 24.4995 90.5532 24.5219 90.5532 24.5495V68.3307C90.5532 68.3583 90.5308 68.3807 90.5032 68.3807ZM45.845 68.2807H90.4532V24.5994H45.845V68.2807Z" fill="white"/>
<path d="M90.5031 68.3297H58.2889V55.1745C58.2889 55.1745 58.5348 54.0945 58.806 52.7188C54.7765 51.904 51.2486 50.5593 49.3716 48.7504C49.3716 48.7504 52.9487 30.7916 71.1257 30.8175C89.3028 30.8436 92.7298 41.7975 92.4965 49.8537C92.3962 53.3177 91.6226 61.303 90.5031 68.3297Z" fill="#A6BAFF"/>
<path d="M47.7012 42.6465C47.7012 42.6465 41.9716 52.5091 48.3957 56.5714C52.303 59.0422 55.9612 56.8313 58.2895 55.1744C60.6613 53.4865 61.9559 51.2764 61.9559 51.2764L47.7012 42.6465Z" fill="#A6BAFF"/>
<path d="M72.3016 68.5599L65.1942 68.4432C64.7152 60.8153 63.2797 54.4119 62.7446 46.582C62.3768 41.2012 66.1003 35.0521 68.0106 32.1117C69.3881 31.5574 70.7029 30.9508 72.176 31.019C73.8587 31.0968 75.4664 31.7129 76.8245 32.4273C75.2664 36.1887 74.2683 39.512 73.3508 43.5736C71.3454 52.4514 71.7034 61.5999 72.3016 68.5599Z" fill="#9B9AB0"/>
<path d="M52.2765 49.88H68.1492L60.13 31.1624H44.2573L52.2765 49.88Z" fill="#5D5D5D"/>
<path d="M54.0732 39.4588C53.9453 38.5061 51.8046 38.3783 49.7278 38.4144C48.2027 38.4409 46.4688 38.5855 46.4688 39.8271C46.4688 41.2706 48.6173 41.2687 50.0153 41.1486C52.0903 40.9703 54.1981 40.3902 54.0732 39.4588Z" fill="white"/>
<path d="M54.7611 41.6299C54.6217 40.6241 52.2873 40.4892 50.0226 40.5273C48.3597 40.5553 46.4688 40.708 46.4688 42.0188C46.4688 43.5427 48.8117 43.5406 50.3362 43.4138C52.5989 43.2256 54.8974 42.6133 54.7611 41.6299Z" fill="white"/>
<path d="M54.8419 44.2368C54.7628 43.19 52.7099 42.9615 50.711 42.9147C49.2432 42.8803 47.5689 42.9665 47.5118 44.3237C47.4455 45.9016 49.5118 45.9887 50.8618 45.9154C52.8656 45.8066 54.9193 45.2601 54.8419 44.2368Z" fill="white"/>
<path d="M54.3274 46.4211C54.2671 45.5542 52.6562 45.3688 51.0873 45.3338C49.9353 45.3081 48.6209 45.3825 48.5736 46.5068C48.5187 47.8139 50.1404 47.8822 51.2002 47.8189C52.7732 47.7251 54.3862 47.2686 54.3274 46.4211Z" fill="white"/>
<path d="M50.8122 47.8762C49.859 47.8762 49.1948 47.6975 48.8342 47.3431C48.6139 47.1267 48.5094 46.8446 48.5237 46.5047C48.5352 46.2333 48.6203 46.0049 48.777 45.8244C47.8722 45.5864 47.4297 45.081 47.4616 44.3212C47.4777 43.9389 47.6223 43.6291 47.8918 43.3987C47.7061 43.3605 47.5365 43.3125 47.3863 43.2556C47.3604 43.2458 47.3475 43.217 47.3572 43.1912C47.3671 43.1653 47.3958 43.1524 47.4217 43.1621C47.5948 43.2277 47.7953 43.2812 48.0174 43.3212L48.133 43.3419L48.038 43.4108C47.734 43.631 47.5781 43.9301 47.5615 44.3253C47.5309 45.0535 47.9757 45.5321 48.8837 45.748L48.9723 45.7691L48.9068 45.8325C48.7281 46.0058 48.6354 46.227 48.6236 46.5088C48.6105 46.8192 48.705 47.0759 48.9042 47.2718C49.3073 47.6678 50.1254 47.8319 51.3359 47.7597C51.3637 47.7582 51.3871 47.7791 51.3887 47.8066C51.3904 47.8342 51.3694 47.8579 51.3419 47.8595C51.1564 47.8707 50.9798 47.8762 50.8122 47.8762Z" fill="#363E44"/>
<path d="M47.2599 40.977C47.2335 40.977 47.2114 40.9563 47.21 40.9296C47.2086 40.902 47.2298 40.8785 47.2573 40.8771L51.6664 40.6484C51.6935 40.647 51.7174 40.6682 51.7189 40.6958C51.7203 40.7234 51.6992 40.7468 51.6716 40.7482L47.2625 40.9769C47.2616 40.977 47.2607 40.977 47.2599 40.977Z" fill="#363E44"/>
<path d="M47.8849 43.4059C47.8587 43.4059 47.8368 43.3857 47.8351 43.3592C47.8333 43.3316 47.8542 43.3079 47.8817 43.3061L52.1672 43.0309C52.1953 43.0294 52.2184 43.05 52.2203 43.0776C52.222 43.1051 52.2012 43.1289 52.1736 43.1307L47.8882 43.4058C47.887 43.4059 47.886 43.4059 47.8849 43.4059Z" fill="#363E44"/>
<path d="M48.8234 45.8355C48.7968 45.8355 48.7747 45.8146 48.7735 45.7878C48.7722 45.7602 48.7935 45.7368 48.8211 45.7356L53.1947 45.5336C53.2219 45.5323 53.2456 45.5536 53.2469 45.5812C53.2481 45.6088 53.2268 45.6321 53.1992 45.6334L48.8257 45.8354C48.8249 45.8355 48.8242 45.8355 48.8234 45.8355Z" fill="#363E44"/>
<path d="M75.9262 55.1935C73.2202 50.2649 71.911 47.5115 68.7645 42.4893C67.5524 40.5544 65.7139 39.0603 65.6288 36.8663C65.591 35.8935 65.7267 34.892 66.4429 34.9366C67.5613 35.0062 67.3959 38.0529 68.3089 38.0845C69.2264 38.1161 70.525 35.1362 69.3711 34.3566C68.648 33.868 67.773 35.3994 66.9029 34.5915C66.3845 34.1101 67.2186 33.1554 67.8604 32.6449C68.0641 32.4828 68.9189 31.8029 70.0534 32.0629C71.2535 32.3378 71.6216 33.4273 71.6684 33.5391C72.0107 32.9292 72.743 32.6053 73.2328 32.7213C73.8866 32.8763 74.4158 33.842 73.9986 34.8278C74.0721 34.7161 74.9524 33.914 75.4229 34.1116C76.0531 34.3763 76.1198 35.1123 75.6459 36.4166C76.1141 35.7803 76.8548 35.5182 77.1292 35.6213C77.8986 35.9101 78.4113 36.4192 77.7301 39.8839C79.4527 42.0581 83.9749 49.272 83.9749 49.272C83.9749 49.272 83.8279 53.1473 75.9262 55.1935Z" fill="white"/>
<path d="M75.4023 39.8944C75.3273 39.8944 75.2533 39.8803 75.181 39.8497C74.4718 39.5491 75.0383 37.7785 75.2726 37.1327C74.8902 37.5114 73.9461 38.3195 73.1534 37.97C72.9847 37.8957 72.8726 37.7675 72.8201 37.5891C72.6656 37.0646 73.0629 36.212 73.3478 35.6976C72.8518 36.2109 71.9305 37.033 71.3834 36.711C70.6245 36.2641 71.4619 33.9961 71.4979 33.8997C71.5076 33.8739 71.5363 33.8608 71.5622 33.8704C71.5881 33.8801 71.6012 33.9089 71.5915 33.9347C71.583 33.9575 70.7469 36.2201 71.4342 36.6248C71.5053 36.6667 71.5849 36.6854 71.6703 36.6855C72.4107 36.6856 73.5965 35.2765 73.6098 35.2606C73.6267 35.2403 73.6565 35.2366 73.6779 35.2525C73.6992 35.2683 73.7044 35.298 73.6898 35.3201C73.6799 35.3351 72.7013 36.8316 72.916 37.5609C72.9604 37.7118 73.0513 37.8157 73.1938 37.8785C74.1261 38.2895 75.3571 36.9003 75.3694 36.8862C75.3855 36.8679 75.4125 36.8638 75.4332 36.8766C75.454 36.8893 75.4624 36.9152 75.4534 36.9379C75.4433 36.9628 74.4577 39.4344 75.2201 39.7576C75.9863 40.0824 77.0756 38.1703 77.0865 38.151C77.1 38.1269 77.1304 38.1184 77.1545 38.132C77.1785 38.1455 77.187 38.176 77.1735 38.2001C77.1311 38.2754 76.2084 39.8942 75.4023 39.8944Z" fill="#363E44"/>
<path d="M85.9944 60.9313L90.6704 57.5411L79.8924 41.502L69.4131 48.06L75.5734 58.2667C77.4482 62.2199 82.4521 63.4993 85.9944 60.9313Z" fill="#A6BAFF"/>
<path d="M86.8684 51.9333C86.8523 51.9333 86.8366 51.9256 86.8269 51.9112L79.8784 41.571L79.1798 42.0258C79.1567 42.0409 79.1258 42.0343 79.1107 42.0112C79.0956 41.988 79.1021 41.9571 79.1253 41.942L79.8652 41.4603C79.8882 41.4454 79.9187 41.4517 79.934 41.4743L86.9099 51.8554C86.9253 51.8783 86.9193 51.9094 86.8963 51.9248C86.8877 51.9306 86.878 51.9333 86.8684 51.9333Z" fill="#363E44"/>
<path d="M83.3806 46.7425C83.3796 46.7425 83.3786 46.7425 83.3776 46.7424C83.35 46.7408 83.329 46.7172 83.3307 46.6897C83.4966 43.8231 84.1881 40.9257 84.7606 39.7806C84.773 39.7559 84.803 39.7459 84.8277 39.7582C84.8524 39.7706 84.8624 39.8006 84.85 39.8253C84.2943 40.9368 83.5935 43.8795 83.4304 46.6954C83.4289 46.722 83.4068 46.7425 83.3806 46.7425Z" fill="#363E44"/>
<path d="M79.1522 81.0907C85.4564 81.0907 90.567 75.9801 90.567 69.6759C90.567 63.3716 85.4564 58.261 79.1522 58.261C72.8479 58.261 67.7373 63.3716 67.7373 69.6759C67.7373 75.9801 72.8479 81.0907 79.1522 81.0907Z" fill="#FF9D1B"/>
<path d="M72.1799 81.1599C72.171 81.1599 72.1621 81.1575 72.1539 81.1526C70.2235 79.973 68.6088 78.3127 67.4842 76.3511C66.3248 74.3288 65.7119 72.0206 65.7119 69.6757C65.7119 67.7937 66.0933 65.9731 66.8456 64.2647C67.5722 62.6144 68.6082 61.1471 69.9247 59.9035C69.9448 59.8846 69.9764 59.8855 69.9954 59.9055C70.0143 59.9256 70.0134 59.9572 69.9934 59.9762C67.2969 62.5232 65.8119 65.9679 65.8119 69.6757C65.8119 74.3621 68.2022 78.6206 72.206 81.0672C72.2296 81.0816 72.237 81.1124 72.2226 81.1359C72.2132 81.1514 72.1967 81.1599 72.1799 81.1599Z" fill="#363E44"/>
<path d="M90.0352 77.2125C90.0256 77.2125 90.0159 77.2097 90.0073 77.2039C89.9844 77.1885 89.9784 77.1574 89.9938 77.1345C91.4842 74.9284 92.2721 72.3492 92.2721 69.6759C92.2721 65.5624 90.4169 61.7412 87.1821 59.1921C87.1604 59.175 87.1567 59.1436 87.1738 59.1219C87.191 59.1002 87.2224 59.0965 87.244 59.1135C90.5029 61.6818 92.3721 65.5316 92.3721 69.6759C92.3721 72.3692 91.5783 74.9678 90.0766 77.1905C90.067 77.2048 90.0512 77.2125 90.0352 77.2125Z" fill="#363E44"/>
<path d="M85.9294 76.4542C89.673 72.7106 89.673 66.6411 85.9294 62.8975C82.1858 59.1539 76.1162 59.1539 72.3726 62.8975C68.629 66.6411 68.629 72.7106 72.3726 76.4542C76.1162 80.1978 82.1858 80.1978 85.9294 76.4542Z" fill="#CB7300"/>
<path d="M79.1522 80.2042C73.3466 80.2042 68.6235 75.481 68.6235 69.6755C68.6235 63.87 73.3467 59.1469 79.1522 59.1469C84.9577 59.1469 89.6808 63.87 89.6808 69.6755C89.6808 75.4811 84.9577 80.2042 79.1522 80.2042ZM79.1522 59.2469C73.4018 59.2469 68.7235 63.9251 68.7235 69.6756C68.7235 75.426 73.4018 80.1043 79.1522 80.1043C84.9026 80.1043 89.5808 75.426 89.5808 69.6756C89.5808 63.9252 84.9026 59.2469 79.1522 59.2469Z" fill="#FF9D1B"/>
<path d="M75.0732 58.9779C74.7897 58.9779 74.5083 58.9113 74.2481 58.7794C73.8125 58.5585 73.489 58.1811 73.3372 57.7169C73.1853 57.2526 73.2233 56.7571 73.4442 56.3214C73.6651 55.8857 74.0425 55.5622 74.5067 55.4104C74.971 55.2585 75.4666 55.2965 75.9021 55.5174C76.3378 55.7383 76.6614 56.1156 76.8132 56.5799C76.9651 57.0441 76.927 57.5397 76.7061 57.9754C76.4852 58.411 76.1079 58.7345 75.6436 58.8864C75.4566 58.9476 75.2645 58.9779 75.0732 58.9779ZM75.0769 55.4189C74.8962 55.4189 74.7145 55.4475 74.5377 55.5054C74.0989 55.649 73.7422 55.9548 73.5333 56.3667C73.3245 56.7786 73.2886 57.247 73.4321 57.6859C73.5757 58.1248 73.8816 58.4815 74.2934 58.6903C74.7051 58.8991 75.1736 58.935 75.6126 58.7915C76.0515 58.6479 76.4082 58.3421 76.617 57.9302C76.8258 57.5183 76.8617 57.0499 76.7182 56.611C76.5746 56.1721 76.2687 55.8154 75.8569 55.6066C75.611 55.4819 75.3449 55.4189 75.0769 55.4189Z" fill="#FF9D1B"/>
<path d="M74.2746 56.2075C74.0419 56.2075 73.8109 56.1527 73.5973 56.0444C73.2398 55.8631 72.9742 55.5534 72.8496 55.1724C72.7249 54.7913 72.7561 54.3846 72.9374 54.027C73.1187 53.6694 73.4284 53.4038 73.8095 53.2792C74.1906 53.1545 74.5973 53.1857 74.9549 53.367C75.3124 53.5483 75.578 53.8581 75.7027 54.2391C75.96 55.0257 75.5294 55.875 74.7428 56.1323C74.5893 56.1825 74.4316 56.2075 74.2746 56.2075ZM74.2776 53.304C74.131 53.304 73.9839 53.3273 73.8406 53.3742C73.4849 53.4905 73.1958 53.7384 73.0266 54.0722C72.8573 54.4059 72.8282 54.7856 72.9445 55.1413C73.0608 55.497 73.3087 55.7861 73.6425 55.9553C73.9763 56.1246 74.3559 56.1537 74.7117 56.0374C75.4459 55.7972 75.8478 55.0045 75.6077 54.2702C75.4914 53.9145 75.2435 53.6254 74.9097 53.4562C74.7104 53.3551 74.4947 53.304 74.2776 53.304Z" fill="#FF9D1B"/>
<path d="M73.5802 54.0832C73.3475 54.0832 73.1165 54.0285 72.9029 53.9202C72.5453 53.7389 72.2797 53.4292 72.1551 53.0481C71.8978 52.2615 72.3284 51.4122 73.115 51.1549C73.496 51.0303 73.9029 51.0615 74.2604 51.2428C74.618 51.4242 74.8836 51.7339 75.0082 52.1149C75.2655 52.9015 74.8349 53.7508 74.0483 54.0081C73.8948 54.0583 73.7371 54.0832 73.5802 54.0832ZM73.583 51.1798C73.4365 51.1798 73.2894 51.2031 73.146 51.2499C72.4118 51.4901 72.0099 52.2829 72.25 53.0171C72.4901 53.7514 73.2828 54.1533 74.0172 53.9131C74.7514 53.6729 75.1533 52.8802 74.9132 52.1459C74.7969 51.7903 74.549 51.5012 74.2152 51.3319C74.0159 51.2309 73.8002 51.1798 73.583 51.1798Z" fill="#FF9D1B"/>
<path d="M72.8855 51.9598C72.6528 51.9598 72.4218 51.9051 72.2082 51.7968C71.8506 51.6155 71.585 51.3058 71.4604 50.9247C71.3358 50.5437 71.3669 50.1369 71.5482 49.7793C71.7295 49.4217 72.0392 49.1561 72.4203 49.0315C72.8014 48.9068 73.2081 48.9381 73.5657 49.1194C73.9233 49.3007 74.1889 49.6104 74.3135 49.9914C74.4381 50.3725 74.407 50.7793 74.2257 51.1369C74.0444 51.4945 73.7347 51.76 73.3536 51.8846C73.2001 51.9349 73.0424 51.9598 72.8855 51.9598ZM72.8884 49.0564C72.7419 49.0564 72.5947 49.0796 72.4514 49.1265C71.7172 49.3667 71.3153 50.1594 71.5554 50.8937C71.6717 51.2493 71.9196 51.5384 72.2534 51.7077C72.5872 51.8769 72.9669 51.9061 73.3226 51.7897C74.0568 51.5495 74.4587 50.7568 74.2186 50.0225C74.1023 49.6669 73.8544 49.3778 73.5206 49.2085C73.3213 49.1075 73.1056 49.0564 72.8884 49.0564Z" fill="#FF9D1B"/>
<path d="M72.1904 49.8357C71.9578 49.8357 71.7268 49.781 71.5132 49.6727C71.1557 49.4914 70.8901 49.1817 70.7654 48.8006C70.5081 48.014 70.9387 47.1647 71.7254 46.9074C72.1063 46.7828 72.5132 46.814 72.8708 46.9953C73.2283 47.1766 73.4939 47.4863 73.6186 47.8673C73.8759 48.6539 73.4452 49.5032 72.6586 49.7605C72.5051 49.8108 72.3474 49.8357 72.1904 49.8357ZM72.191 46.9328C72.0469 46.9328 71.9006 46.9552 71.7564 47.0024C71.0222 47.2426 70.6203 48.0353 70.8604 48.7696C70.9768 49.1252 71.2247 49.4143 71.5584 49.5836C71.8923 49.7528 72.2718 49.782 72.6276 49.6656C73.3618 49.4254 73.7638 48.6327 73.5237 47.8984C73.3306 47.3083 72.7806 46.9328 72.191 46.9328Z" fill="#FF9D1B"/>
<path d="M71.4958 47.7116C71.2631 47.7116 71.0321 47.6569 70.8186 47.5486C70.461 47.3673 70.1954 47.0576 70.0708 46.6766C69.9461 46.2955 69.9773 45.8887 70.1586 45.5311C70.3399 45.1735 70.6496 44.908 71.0307 44.7833C71.8172 44.5259 72.6665 44.9567 72.9239 45.7433C73.1812 46.5299 72.7505 47.3792 71.9639 47.6365C71.8104 47.6867 71.6527 47.7116 71.4958 47.7116ZM71.4963 44.8088C71.3522 44.8088 71.2058 44.8312 71.0617 44.8784C70.7061 44.9947 70.417 45.2426 70.2477 45.5764C70.0785 45.9101 70.0494 46.2898 70.1657 46.6455C70.282 47.0012 70.53 47.2903 70.8637 47.4595C71.1975 47.6287 71.5771 47.6579 71.9329 47.5415C72.6671 47.3014 73.0691 46.5086 72.8289 45.7744C72.6358 45.1843 72.0859 44.8088 71.4963 44.8088Z" fill="#FF9D1B"/>
<path d="M70.8039 45.5875C70.1722 45.5875 69.5831 45.1852 69.3763 44.553C69.119 43.7664 69.5496 42.9171 70.3362 42.6598C70.7173 42.5352 71.1242 42.5664 71.4816 42.7477C71.8392 42.929 72.1048 43.2387 72.2294 43.6197C72.3541 44.0008 72.3228 44.4076 72.1415 44.7652C71.9602 45.1228 71.6506 45.3883 71.2695 45.5129C71.1151 45.5635 70.9582 45.5875 70.8039 45.5875ZM70.8043 42.6847C70.6578 42.6847 70.5106 42.7079 70.3673 42.7548C69.6331 42.9949 69.2311 43.7877 69.4712 44.5219C69.7115 45.2561 70.5043 45.658 71.2384 45.4179C71.594 45.3016 71.8831 45.0537 72.0524 44.7199C72.2216 44.3861 72.2507 44.0064 72.1344 43.6508C72.0181 43.2951 71.7701 43.006 71.4364 42.8368C71.2371 42.7358 71.0214 42.6847 70.8043 42.6847Z" fill="#FF9D1B"/>
<path d="M70.1066 43.464C69.874 43.464 69.6429 43.4093 69.4294 43.301C69.0718 43.1197 68.8062 42.8099 68.6816 42.4289C68.5569 42.0479 68.5881 41.6411 68.7695 41.2835C68.9508 40.9259 69.2605 40.6603 69.6415 40.5357C70.0225 40.411 70.4294 40.4422 70.7869 40.6235C71.1445 40.8048 71.4101 41.1146 71.5347 41.4956C71.792 42.2822 71.3614 43.1315 70.5748 43.3888C70.4213 43.439 70.2636 43.464 70.1066 43.464ZM70.1096 40.5606C69.9631 40.5606 69.8159 40.5839 69.6726 40.6307C69.3169 40.7471 69.0278 40.995 68.8586 41.3288C68.6893 41.6625 68.6602 42.0422 68.7765 42.3979C68.8929 42.7536 69.1408 43.0427 69.4745 43.2119C69.8084 43.3812 70.188 43.4103 70.5438 43.2939C71.2779 43.0538 71.6799 42.261 71.4398 41.5268C71.3234 41.1711 71.0755 40.882 70.7417 40.7128C70.5424 40.6117 70.3268 40.5606 70.1096 40.5606Z" fill="#FF9D1B"/>
<path d="M69.4117 41.3398C69.179 41.3398 68.948 41.2851 68.7344 41.1768C68.3769 40.9955 68.1113 40.6858 67.9866 40.3048C67.7293 39.5181 68.1599 38.6689 68.9465 38.4116C69.3276 38.2869 69.7344 38.3181 70.092 38.4994C70.4495 38.6807 70.7151 38.9904 70.8398 39.3715C71.0971 40.1581 70.6664 41.0074 69.8798 41.2647C69.7263 41.3149 69.5686 41.3398 69.4117 41.3398ZM69.4146 38.4364C69.2681 38.4364 69.1209 38.4597 68.9776 38.5065C68.2434 38.7467 67.8414 39.5395 68.0816 40.2737C68.1979 40.6294 68.4458 40.9185 68.7796 41.0877C69.1134 41.2569 69.493 41.2861 69.8488 41.1697C70.583 40.9296 70.9849 40.1369 70.7448 39.4026C70.6285 39.0469 70.3806 38.7578 70.0468 38.5886C69.8474 38.4875 69.6318 38.4364 69.4146 38.4364Z" fill="#FF9D1B"/>
<path d="M68.7169 39.2164C68.4842 39.2164 68.2532 39.1617 68.0396 39.0534C67.682 38.8721 67.4164 38.5624 67.2918 38.1813C67.0345 37.3947 67.4651 36.5454 68.2517 36.2881C68.6327 36.1635 69.0396 36.1947 69.3971 36.376C69.7547 36.5573 70.0203 36.867 70.1449 37.2481C70.4022 38.0347 69.9716 38.884 69.185 39.1413C69.0315 39.1915 68.8738 39.2164 68.7169 39.2164ZM68.7198 36.313C68.5733 36.313 68.4261 36.3362 68.2828 36.3831C67.5486 36.6233 67.1467 37.416 67.3868 38.1502C67.627 38.8845 68.4197 39.2864 69.154 39.0462C69.8882 38.8061 70.2901 38.0133 70.05 37.2791C69.9336 36.9235 69.6857 36.6344 69.352 36.4651C69.1527 36.3641 68.9369 36.313 68.7198 36.313Z" fill="#FF9D1B"/>
<path d="M68.0221 37.0922C67.7894 37.0922 67.5584 37.0375 67.3449 36.9292C66.9873 36.7479 66.7217 36.4382 66.5971 36.0571C66.4725 35.6761 66.5037 35.2693 66.685 34.9117C66.8663 34.5541 67.1759 34.2886 67.557 34.1639C67.9381 34.0393 68.3449 34.0705 68.7024 34.2518C69.06 34.4331 69.3256 34.7428 69.4502 35.1239C69.5749 35.5049 69.5437 35.9117 69.3624 36.2693C69.181 36.6269 68.8714 36.8924 68.4903 37.0171C68.3368 37.0673 68.179 37.0922 68.0221 37.0922ZM68.0251 34.1888C67.8785 34.1888 67.7314 34.2121 67.5881 34.259C66.8539 34.4992 66.4519 35.2919 66.6921 36.0262C66.8084 36.3818 67.0563 36.6709 67.3901 36.8402C67.7238 37.0094 68.1034 37.0386 68.4592 36.9222C68.8149 36.8058 69.104 36.5579 69.2732 36.2242C69.4425 35.8904 69.4716 35.5107 69.3553 35.155C69.2389 34.7993 68.991 34.5103 68.6573 34.341C68.458 34.24 68.2422 34.1888 68.0251 34.1888Z" fill="#FF9D1B"/>
<path d="M67.8607 32.6444C67.2189 33.155 66.4881 34.0181 66.9032 34.5911C67.4869 35.397 68.7013 33.9571 69.3713 34.3562C69.2362 33.6068 68.8761 32.8771 68.5879 32.2042C68.2181 32.3609 67.9607 32.5649 67.8607 32.6444Z" fill="white"/>
<path d="M63.7264 21.8617C61.4037 22.2701 62.0945 20.2923 62.0945 20.2923C60.5591 18.3714 61.3232 16.4453 64.2476 16.1491C66.6749 15.9034 67.032 16.0785 70.5168 16.8508C72.1058 17.4848 72.7851 18.1013 73.1098 20.3379C73.1103 20.9389 73.3646 25.9679 72.8532 26.2811C69.6177 25.2873 63.9901 21.8154 63.7264 21.8617Z" fill="black"/>
<path d="M74.6273 30.5021L72.6555 23.6858L67.6167 27.3564L68.507 31.0912L74.6273 30.5021Z" fill="white"/>
<path d="M63.7261 21.8605C63.7261 21.8605 64.4465 29.1829 67.4139 29.4105C69.2093 29.5481 70.8546 27.2476 71.2537 26.2657C71.6528 25.2837 71.2537 23.6785 71.2537 23.6785C71.2537 23.6785 70.6509 24.2507 70.1665 23.8729C69.6821 23.495 70.2415 21.1189 68.1113 21.216C65.9811 21.313 65.75 22.2258 63.7261 21.8605Z" fill="white"/>
<path d="M70.2279 22.9949C70.2279 22.9949 69.8829 26.1876 66.6622 26.6795C65.0205 26.9302 64.7179 26.3472 64.7179 26.3472C64.7179 26.3472 64.676 30.5391 66.5187 30.6588C68.3613 30.7784 71.2774 29.223 71.5184 28.0503C71.7594 26.8777 70.2279 22.9949 70.2279 22.9949Z" fill="black"/>
<path d="M70.5205 22.5407C70.2921 23.2626 70.513 24.5771 71.2254 24.8086C71.9379 25.0401 72.8719 24.1008 73.1004 23.3789C73.3288 22.657 72.9365 21.8841 72.224 21.6526C71.5116 21.4211 70.7489 21.8187 70.5205 22.5407Z" fill="white"/>
<path d="M63.8822 24.3045C63.8884 24.3176 63.8834 24.3316 63.8896 24.3448C63.8898 24.3453 63.8902 24.3456 63.8905 24.3462C63.9159 24.5489 63.942 24.7628 63.9304 24.9667C63.9252 25.057 63.8871 25.1198 63.8727 25.2043C63.8621 25.2663 63.8523 25.3257 63.8395 25.3864C63.2431 25.0807 62.8843 24.5533 62.8843 24.5533C62.8843 24.5533 63.3282 24.3386 63.8822 24.3045Z" fill="#A6BAFF"/>
<path d="M64.5392 24.3664C65.2974 24.5682 65.7961 25.2233 65.8768 25.3352C65.8724 25.3454 65.8679 25.3555 65.8632 25.3655C65.7208 25.4301 64.9809 25.7389 64.235 25.5404C64.0951 25.5031 63.9649 25.4496 63.8437 25.3878C63.8194 25.3379 63.7972 25.2865 63.7799 25.232C63.6777 24.9098 63.7258 24.5758 63.8834 24.3056C64.091 24.2938 64.3146 24.3067 64.5392 24.3664Z" fill="#363E44"/>
<path d="M67.8867 24.4335C67.9637 24.662 67.9801 24.8491 67.914 25.0705C67.364 25.2137 66.8721 25.137 66.8721 25.137C66.8721 25.137 67.1017 24.4177 67.6683 23.9385C67.7779 24.0775 67.8321 24.2714 67.8867 24.4335Z" fill="#A6BAFF"/>
<path d="M67.9259 25.0675C67.6484 24.7721 67.5435 24.3403 67.6696 23.9398C67.7335 23.8865 67.8007 23.8353 67.8735 23.7892C68.6016 23.329 69.5086 23.471 69.5086 23.471C69.5086 23.471 69.2354 24.359 68.5074 24.8191C68.3192 24.9381 68.1192 25.0162 67.9259 25.0675Z" fill="#363E44"/>
<path d="M72.3816 23.4929C72.3768 23.4929 72.3719 23.4922 72.367 23.4907C72.3406 23.4826 72.3258 23.4546 72.3339 23.4282C72.3466 23.3869 72.3558 23.344 72.3615 23.3006C72.4066 22.9519 72.2104 22.6372 71.924 22.5991C71.8552 22.59 71.7862 22.5973 71.7189 22.6209C71.6929 22.6301 71.6643 22.6163 71.6552 22.5903C71.646 22.5642 71.6598 22.5357 71.6858 22.5266C71.768 22.4977 71.8526 22.4887 71.9372 22.5C72.278 22.5453 72.5128 22.9102 72.4607 23.3134C72.4543 23.3623 72.4438 23.4108 72.4295 23.4575C72.4228 23.4791 72.403 23.4929 72.3816 23.4929Z" fill="#363E44"/>
<path d="M66.2014 26.33C66.1904 26.33 66.1793 26.3264 66.17 26.3189C66.0641 26.2335 66.0038 26.138 65.9909 26.0353C65.9767 25.9227 66.0228 25.8413 66.0762 25.747C66.1123 25.6834 66.1531 25.6114 66.1819 25.5164C66.2186 25.3956 66.2277 25.2637 66.2091 25.1245C66.2055 25.0971 66.2247 25.0719 66.252 25.0683C66.2795 25.0646 66.3045 25.0839 66.3082 25.1112C66.3287 25.2647 66.3184 25.4108 66.2775 25.5454C66.2454 25.6511 66.2017 25.7282 66.1632 25.7962C66.1149 25.8815 66.08 25.9432 66.09 26.0228C66.0996 26.0991 66.1477 26.1725 66.2328 26.2412C66.2542 26.2585 66.2576 26.29 66.2403 26.3114C66.2305 26.3237 66.216 26.33 66.2014 26.33Z" fill="#363E44"/>
<path d="M67.0558 27.2312C66.9896 27.2312 66.9187 27.2193 66.8435 27.1956C66.8172 27.1872 66.8026 27.1592 66.8109 27.1328C66.8193 27.1066 66.8472 27.092 66.8737 27.1003C67.0254 27.1483 67.153 27.1401 67.2529 27.0763C67.4407 26.9562 67.4786 26.6762 67.4789 26.6734C67.4824 26.6461 67.5082 26.6268 67.5347 26.6302C67.5621 26.6336 67.5815 26.6586 67.578 26.6859C67.5764 26.6992 67.5345 27.0145 67.3072 27.1601C67.2333 27.2075 67.1493 27.2312 67.0558 27.2312Z" fill="#363E44"/>
<path d="M76.8246 32.4271L72.1642 31.3298L68.0107 32.1114L68.2541 30.818L75.6939 29.4173L76.8246 32.4271Z" fill="#0038FF"/>
<path d="M37.0328 24.9944H36.9834C37.2531 24.4887 37.4065 23.9116 37.4065 23.2985C37.4065 21.3053 35.7907 19.6895 33.7975 19.6895C33.6197 19.6895 33.4451 19.7029 33.2742 19.7277C33.286 19.619 33.2926 19.5087 33.2926 19.3968C33.2926 17.731 31.9422 16.3805 30.2763 16.3805C29.4004 16.3805 28.612 16.7542 28.061 17.3505C27.6383 16.1953 26.5292 15.3708 25.2276 15.3708C24.075 15.3708 23.0739 16.0174 22.5661 16.9674C22.0547 16.5985 21.4272 16.3805 20.7485 16.3805C19.0303 16.3805 17.6373 17.7734 17.6373 19.4917C17.6373 19.5616 17.6404 19.6307 17.645 19.6995C17.5603 19.6935 17.4752 19.6894 17.389 19.6894C15.3958 19.6894 13.78 21.3052 13.78 23.2984C13.78 23.9128 13.9339 24.491 14.2047 24.9975C12.5607 25.062 11.2476 26.4144 11.2476 28.0742C11.2476 29.3939 12.0778 30.5192 13.2443 30.9576C13.6348 33.0437 15.4643 34.6228 17.6637 34.6228C19.3653 34.6228 20.8459 33.6777 21.61 32.2839C22.111 32.7181 22.7642 32.9815 23.4793 32.9815C24.6939 32.9815 25.7308 32.223 26.1439 31.1541H37.0328C38.7337 31.1541 40.1126 29.7752 40.1126 28.0742C40.1126 26.3733 38.7337 24.9944 37.0328 24.9944Z" fill="#9B9AB0"/>
<path d="M25.9442 25.8942H21.6046C21.5769 25.8942 21.5546 25.8718 21.5546 25.8442C21.5546 25.8166 21.5769 25.7942 21.6046 25.7942H25.9442C26.8217 25.7942 27.5355 25.0804 27.5355 24.203C27.5355 23.3678 26.856 22.6883 26.0208 22.6883H21.0106C20.1203 22.6883 19.396 21.964 19.396 21.0738C19.396 20.1835 20.1203 19.4592 21.0106 19.4592H22.6056C23.5728 19.4592 24.47 18.8967 24.8915 18.0262L25.1619 17.4676C25.174 17.4428 25.2038 17.4324 25.2287 17.4444C25.2535 17.4565 25.2639 17.4864 25.2519 17.5112L24.9815 18.0698C24.5434 18.9745 23.6108 19.5592 22.6056 19.5592H21.0106C20.1754 19.5592 19.4959 20.2387 19.4959 21.0738C19.4959 21.909 20.1754 22.5884 21.0106 22.5884H26.0208C26.9111 22.5884 27.6355 23.3127 27.6355 24.203C27.6355 25.1355 26.8768 25.8942 25.9442 25.8942Z" fill="#363E44"/>
<path d="M17.1374 33.3681C17.1097 33.3681 17.0874 33.3457 17.0874 33.3181V32.1516C17.0874 31.2627 17.8106 30.5396 18.6994 30.5396H21.2698C22.1035 30.5396 22.7818 29.8613 22.7818 29.0276C22.7818 28.1939 22.1035 27.5156 21.2698 27.5156H18.6994C17.8124 27.5156 17.0905 26.7954 17.0874 25.9091V25.9036C17.0904 25.0173 17.8124 24.2971 18.6994 24.2971H24.5717C24.5994 24.2971 24.6217 24.3195 24.6217 24.3471C24.6217 24.3747 24.5994 24.3971 24.5717 24.3971H18.6994C17.8665 24.3971 17.1888 25.0739 17.1873 25.9064C17.1888 26.7389 17.8665 27.4156 18.6994 27.4156H21.2697C22.1586 27.4156 22.8817 28.1388 22.8817 29.0276C22.8817 29.9165 22.1586 30.6396 21.2697 30.6396H18.6994C17.8656 30.6396 17.1873 31.3178 17.1873 32.1516V33.3181C17.1873 33.3457 17.165 33.3681 17.1374 33.3681Z" fill="#363E44"/>
<path d="M19.6151 29.1368H15.4915C14.301 29.1368 13.3325 28.1683 13.3325 26.9778H13.4325C13.4325 28.1132 14.3561 29.0368 15.4915 29.0368H19.6151C19.6427 29.0368 19.6651 29.0592 19.6651 29.0868C19.6651 29.1144 19.6427 29.1368 19.6151 29.1368Z" fill="#363E44"/>
<path d="M17.8494 22.8622H17.6385C16.6515 22.8622 15.8486 22.0593 15.8486 21.0723C15.8486 21.0447 15.871 21.0223 15.8986 21.0223C15.9262 21.0223 15.9486 21.0447 15.9486 21.0723C15.9486 22.0041 16.7067 22.7623 17.6385 22.7623H17.8494C17.8771 22.7623 17.8994 22.7847 17.8994 22.8123C17.8994 22.8399 17.877 22.8622 17.8494 22.8622Z" fill="#363E44"/>
<path d="M28.2566 20.8586H23.5158C23.4882 20.8586 23.4658 20.8363 23.4658 20.8087C23.4658 20.7811 23.4882 20.7587 23.5158 20.7587H28.2566C29.1689 20.7587 30.0055 20.2604 30.44 19.4583L31.0923 18.2541C31.1054 18.2298 31.1357 18.2207 31.16 18.2339C31.1843 18.2471 31.1933 18.2774 31.1801 18.3017L30.5278 19.5059C30.0759 20.3403 29.2056 20.8586 28.2566 20.8586Z" fill="#363E44"/>
<path d="M37.1471 28.8825H29.8361C28.9847 28.8825 28.292 28.1898 28.292 27.3383C28.292 26.4869 28.9847 25.7942 29.8361 25.7942H33.3331C34.1294 25.7942 34.7772 25.1464 34.7772 24.35V24.2857C34.7772 23.4894 34.1294 22.8415 33.3331 22.8415H29.3438C29.3161 22.8415 29.2938 22.8191 29.2938 22.7915C29.2938 22.764 29.3161 22.7416 29.3438 22.7416H33.3331C34.1845 22.7416 34.8772 23.4342 34.8772 24.2857V24.35C34.8772 25.2014 34.1845 25.8941 33.3331 25.8941H29.8361C29.0398 25.8941 28.3919 26.542 28.3919 27.3383C28.3919 28.1347 29.0398 28.7825 29.8361 28.7825H37.1471C37.1747 28.7825 37.1971 28.8049 37.1971 28.8325C37.1971 28.8602 37.1747 28.8825 37.1471 28.8825Z" fill="#363E44"/>
<path d="M23.8205 31.1142C23.8144 31.1142 23.8082 31.1131 23.8023 31.1108C23.7766 31.1007 23.7639 31.0717 23.774 31.0461L24.3232 29.6423C24.7178 28.634 25.6723 27.9825 26.755 27.9825H27.326C27.3536 27.9825 27.3759 28.0049 27.3759 28.0325C27.3759 28.0601 27.3536 28.0825 27.326 28.0825H26.755C25.7137 28.0825 24.7957 28.709 24.4163 29.6787L23.8671 31.0825C23.8593 31.1022 23.8404 31.1142 23.8205 31.1142Z" fill="#363E44"/>
<path d="M32.5993 24.3971H29.7917C29.764 24.3971 29.7417 24.3747 29.7417 24.3471C29.7417 24.3195 29.764 24.2971 29.7917 24.2971H32.5993C32.627 24.2971 32.6493 24.3195 32.6493 24.3471C32.6493 24.3747 32.627 24.3971 32.5993 24.3971Z" fill="#363E44"/>
<path d="M37.1467 27.2385H31.5314C31.5038 27.2385 31.4814 27.2161 31.4814 27.1886C31.4814 27.161 31.5038 27.1386 31.5314 27.1386H37.1467C37.1743 27.1386 37.1966 27.161 37.1966 27.1886C37.1966 27.2161 37.1743 27.2385 37.1467 27.2385Z" fill="#363E44"/>
<path d="M29.4766 25.7759H31.1687V27.2194H29.4766V28.3742H34.8391V24.2126H29.4766V25.7759Z" fill="#FF9D1B"/>
<path d="M30.7837 29.0992H32.0634V30.2399H30.7837V31.1524H34.839V27.8639H30.7837V29.0992Z" fill="#FF9D1B"/>
<path d="M26.9351 46.2813C26.9351 50.64 30.4685 54.1734 34.8272 54.1734C39.1859 54.1734 42.7193 50.64 42.7193 46.2813C42.7193 41.9226 39.1859 38.3892 34.8272 38.3892C30.4685 38.3892 26.9351 41.9227 26.9351 46.2813ZM37.1377 49.5522C37.1377 50.8283 36.1033 51.8628 34.8271 51.8628C33.551 51.8628 32.5165 50.8283 32.5165 49.5522C32.5165 48.2761 33.551 47.2415 34.8271 47.2415C36.1033 47.2415 37.1377 48.2761 37.1377 49.5522Z" fill="#FF9D1B"/>
<path d="M33.48 24.1374V42.614H36.1745V24.1374C36.1745 23.3933 35.5713 22.7902 34.8272 22.7902C34.0831 22.7902 33.48 23.3933 33.48 24.1374Z" fill="#FF9D1B"/>
<path d="M34.8273 52.9062C31.1742 52.9062 28.2021 49.9342 28.2021 46.281C28.2021 42.6279 31.1742 39.6558 34.8273 39.6558C38.4805 39.6558 41.4525 42.6279 41.4525 46.281C41.4525 49.9342 38.4804 52.9062 34.8273 52.9062ZM34.8273 39.7558C31.2293 39.7558 28.3021 42.683 28.3021 46.2811C28.3021 49.8791 31.2293 52.8063 34.8273 52.8063C38.4254 52.8063 41.3526 49.8791 41.3526 46.2811C41.3526 42.683 38.4254 39.7558 34.8273 39.7558Z" fill="#1D42C6"/>
<path d="M52.946 82.0815L20.0935 85.1421L5.40137 48.1717H14.8229L25.7672 75.7112L49.732 73.9938L52.946 82.0815Z" fill="#F7F1EB"/>
<path d="M57.0833 82.1222L55.3843 90.5619L70.4827 94.759C70.4827 94.759 69.0614 82.1352 57.0833 82.1222Z" fill="#F7F1EB"/>
<path d="M60.8374 87.6237L66.8608 91.0817L70.2126 87.9463L64.8277 83.16L60.8374 87.6237Z" fill="#E2A18D"/>
<path d="M63.3029 96.7273L82.7341 92.4074C82.7341 92.4074 76.914 87.149 68.5336 85.9936L63.8742 89.7869C63.8742 89.7869 63.2804 93.3932 63.3029 96.7273Z" fill="white"/>
<path d="M69.3649 89.5517C69.3572 89.5517 69.3493 89.5499 69.3419 89.5461C69.3174 89.5335 69.3079 89.5033 69.3205 89.4788L70.7907 86.6397C70.8034 86.6153 70.8334 86.6055 70.8581 86.6183C70.8826 86.631 70.8922 86.6611 70.8795 86.6857L69.4093 89.5248C69.4004 89.5419 69.383 89.5517 69.3649 89.5517Z" fill="#363E44"/>
<path d="M71.1847 89.9403C71.177 89.9403 71.1691 89.9385 71.1618 89.9347C71.1373 89.922 71.1277 89.8919 71.1404 89.8673L72.6105 87.0283C72.6232 87.0038 72.6532 86.9941 72.6779 87.0069C72.7024 87.0196 72.712 87.0497 72.6993 87.0742L71.2291 89.9133C71.2202 89.9305 71.2028 89.9403 71.1847 89.9403Z" fill="#363E44"/>
<path d="M41.0381 74.681L61.5949 89.0275L66.378 83.1685L53.8177 70.1892C53.8177 70.1892 49.8586 66.5133 46.3159 69.4167C42.7732 72.32 41.0381 74.681 41.0381 74.681Z" fill="#C46F00"/>
<path d="M61.4578 66.8377C61.285 65.8468 60.9404 64.9234 60.4608 64.0937C58.9444 61.4699 56.065 59.7909 52.8882 59.9457C40.771 60.5362 30.2726 66.9344 20.9883 77.6885C20.9883 77.6885 21.8574 80.6699 27.8142 83.1465C31.9732 84.8756 48.5283 70.9335 51.5248 68.7625L56.0672 82.9057C56.11 82.8908 64.8384 85.4651 64.7017 85.107C64.6115 84.8702 62.7262 74.1089 61.4578 66.8377Z" fill="#C46F00"/>
<path d="M42.4753 75.7598C42.4602 75.7598 42.4453 75.753 42.4355 75.7401C42.4188 75.7182 42.423 75.6869 42.4449 75.6701L54.3194 66.6209C54.3414 66.6042 54.3728 66.6084 54.3894 66.6303C54.4061 66.6523 54.4019 66.6836 54.38 66.7004L42.5055 75.7496C42.4965 75.7565 42.4859 75.7598 42.4753 75.7598Z" fill="#363E44"/>
<path d="M63.4588 80.2023C63.4458 80.2023 63.4327 80.1972 63.4229 80.187L53.307 69.7083C53.2878 69.6885 53.2884 69.6568 53.3082 69.6376C53.3281 69.6185 53.3598 69.619 53.3789 69.6389L63.4948 80.1176C63.514 80.1374 63.5134 80.169 63.4935 80.1882C63.4838 80.1976 63.4713 80.2023 63.4588 80.2023Z" fill="#363E44"/>
<path d="M19.0789 49.9589C18.19 50.9222 14.8106 49.5296 14.8106 49.5296L12.3744 46.3513C11.9936 44.547 13.1475 42.7756 14.9517 42.3948C16.7561 42.014 18.5274 43.1679 18.9082 44.9721C18.9082 44.9721 19.9843 48.9777 19.0789 49.9589Z" fill="#E2A18D"/>
<path d="M14.11 54.5735L19.7845 56.2763L17.9625 53.2348L16.3254 45.4788L12.3667 46.3144L14.11 54.5735Z" fill="#E2A18D"/>
<path d="M18.7144 45.91C18.7144 45.91 19.8333 46.6766 19.8381 46.9404C19.8437 47.2552 18.862 47.6552 18.862 47.6552C18.862 47.6552 18.7392 45.9072 18.7144 45.91Z" fill="#E2A18D"/>
<path d="M17.3422 50.3513C17.3398 50.3513 17.3374 50.3512 17.335 50.3508C16.1376 50.178 14.8166 49.6373 14.8034 49.6318C14.7779 49.6213 14.7657 49.5921 14.7762 49.5666C14.7868 49.5411 14.816 49.5289 14.8415 49.5394C14.8546 49.5448 16.1645 50.0808 17.3493 50.2519C17.3766 50.2558 17.3955 50.2812 17.3916 50.3085C17.388 50.3334 17.3666 50.3513 17.3422 50.3513Z" fill="#363E44"/>
<path d="M18.6849 48.5483C18.4952 48.5483 18.3408 48.394 18.3408 48.2043C18.3408 48.0656 18.4233 47.9412 18.551 47.8872C18.5764 47.8765 18.6057 47.8884 18.6165 47.9138C18.6272 47.9393 18.6153 47.9685 18.5899 47.9793C18.4993 48.0176 18.4408 48.1059 18.4408 48.2043C18.4408 48.3389 18.5503 48.4484 18.6849 48.4484C18.7339 48.4484 18.7811 48.434 18.8215 48.4067C18.8444 48.3913 18.8754 48.3974 18.8909 48.4202C18.9063 48.4431 18.9003 48.4741 18.8774 48.4896C18.8204 48.528 18.7538 48.5483 18.6849 48.5483Z" fill="#363E44"/>
<path d="M17.2026 46.4127C16.8688 46.4127 16.5387 46.3603 16.2182 46.2563C16.1919 46.2477 16.1775 46.2195 16.186 46.1933C16.1946 46.1671 16.2228 46.1527 16.249 46.1612C16.6302 46.285 17.0257 46.3334 17.424 46.3049C17.7874 46.279 18.1405 46.1898 18.4736 46.0397C18.499 46.0283 18.5284 46.0396 18.5397 46.0647C18.5511 46.0899 18.5398 46.1194 18.5147 46.1308C18.1708 46.2858 17.8062 46.3779 17.4311 46.4046C17.3548 46.41 17.2786 46.4127 17.2026 46.4127Z" fill="#363E44"/>
<path d="M11.5263 47.7973C10.8678 46.5908 10.4921 44.8995 11.1934 43.5124C12.0976 41.7241 13.584 41.1426 15.36 41.1316C18.1146 41.1146 19.5191 43.862 19.5191 43.862C19.5191 43.862 16.9774 44.4445 16.1267 44.6642C14.9306 44.9731 16.6293 48.3987 14.2996 47.4207C14.0433 47.3131 13.6001 49.0891 12.9522 49.0888C12.7112 49.0888 11.7202 48.1525 11.5263 47.7973Z" fill="#363E44"/>
<path d="M15.4517 46.5924C15.8195 47.1051 15.7021 47.8188 15.1895 48.1865C14.6769 48.5543 13.9631 48.4369 13.5954 47.9243C13.2276 47.4116 13.1767 46.5821 13.6893 46.2143C14.2019 45.8466 15.0839 46.0798 15.4517 46.5924Z" fill="#E2A18D"/>
<path d="M14.5022 47.9895C14.2605 47.9895 14.0298 47.8743 13.8848 47.6721C13.6422 47.3339 13.6112 46.7853 13.9547 46.5388C14.221 46.3478 14.5951 46.4057 14.8478 46.5477C14.8719 46.5613 14.8804 46.5917 14.8669 46.6158C14.8533 46.6398 14.8229 46.6483 14.7988 46.6349C14.5327 46.4852 14.2094 46.4791 14.0129 46.62C13.7173 46.8322 13.7509 47.314 13.966 47.6139C14.1211 47.83 14.3889 47.9318 14.6485 47.8732C14.6754 47.8671 14.7022 47.884 14.7083 47.9109C14.7143 47.9379 14.6974 47.9646 14.6706 47.9707C14.6145 47.9834 14.558 47.9895 14.5022 47.9895Z" fill="#363E44"/>
<path d="M19.7293 83.2245L33.8501 66.0832L19.4009 52.9112L13.5387 52.0376L12.2089 55.1097C12.2089 55.1097 9.19866 65.0409 19.7293 83.2245Z" fill="#9B9AB0"/>
<path d="M54.5673 73.6276H19.0482L17.1328 69.1531H54.5673V73.6276Z" fill="#F7F1EB"/>
<path d="M50.843 68.0731C50.1151 67.6739 47.3553 65.5315 45.8794 66.2173C44.3929 66.908 43.6172 68.539 43.4258 70.1612C43.4297 70.1665 43.4342 70.1724 43.4381 70.1777C43.5794 70.6077 43.8569 71.2295 44.4418 71.7009C45.1085 72.2382 45.5358 72.0653 46.3279 72.5235C47.6648 73.2967 47.7449 74.5878 48.2677 74.4267C48.6265 74.3162 48.6125 73.562 48.4199 72.8771C48.2222 72.1739 47.7971 71.8016 47.8828 71.7179C47.9769 71.6262 48.3597 72.0599 48.8854 72.5559C49.1296 72.7863 49.4093 73.8296 49.922 73.7505C50.3308 73.6875 50.3127 72.5309 49.7653 71.6808C49.3781 71.0794 48.7114 70.8786 48.7733 70.7638C48.8198 70.6777 49.2141 70.8072 49.5207 71.0194C50.0266 71.3696 50.3242 72.4338 50.7947 72.3519C51.2557 72.2717 51.2219 71.2618 50.7682 70.4483C50.3856 69.7623 49.6315 69.5737 49.7077 69.4306C49.7612 69.33 50.1163 69.3446 50.8179 69.5936C51.4033 69.8015 52.4078 70.5813 52.717 70.0044C52.9771 69.5191 51.9416 68.6754 50.843 68.0731Z" fill="#E2A18D"/>
<path d="M30.914 66.2918C29.121 66.6705 27.7526 68.1671 27.6145 69.9863C27.524 71.1789 27.9703 72.4696 29.7455 73.4153C34.0678 75.7178 44.8999 70.3793 44.8999 70.3793L46.6787 66.0871C41.4968 65.248 35.8491 65.2492 30.914 66.2918Z" fill="#E2A18D"/>
<path d="M22.244 57.9395L25.0736 65.2717C25.0736 65.2717 34.0544 65.1518 39.6145 64.8011L38.041 74.8549C38.041 74.8549 23.4251 78.1198 18.9152 76.4802C14.8444 75.0003 12.9463 63.5185 14.8444 57.9394C15.2202 56.8348 22.244 57.9395 22.244 57.9395Z" fill="#9B9AB0"/>
<path d="M25.0735 65.3218C25.0528 65.3218 25.0343 65.3091 25.0269 65.2898L22.1972 57.9576C22.1873 57.9319 22.2001 57.903 22.2258 57.893C22.2516 57.8831 22.2805 57.8959 22.2904 57.9217L25.1076 65.2214C25.4905 65.216 28.9558 65.1656 32.769 65.0482C32.7695 65.0482 32.7701 65.0482 32.7706 65.0482C32.7975 65.0482 32.8196 65.0696 32.8205 65.0967C32.8214 65.1242 32.7997 65.1473 32.7721 65.1481C28.7475 65.272 25.1104 65.3213 25.0741 65.3218C25.0739 65.3218 25.0737 65.3218 25.0735 65.3218Z" fill="#363E44"/>
<path d="M22.6555 76.9904C21.0051 76.9904 19.7469 76.8356 18.898 76.5271C17.3097 75.9496 15.932 73.8282 15.0187 70.5536C14.1895 67.5802 13.8686 64.0384 14.1604 61.0794C14.1631 61.0519 14.1872 61.0316 14.215 61.0346C14.2425 61.0373 14.2626 61.0617 14.2598 61.0892C13.9692 64.0366 14.2889 67.5647 15.1149 70.5267C16.0193 73.7694 17.375 75.867 18.9321 76.4331C20.2104 76.8979 22.4363 77.0093 25.5483 76.7642C25.5754 76.7621 25.5998 76.7826 25.602 76.8101C25.6042 76.8376 25.5836 76.8617 25.5561 76.8639C24.4843 76.9483 23.5164 76.9904 22.6555 76.9904Z" fill="#363E44"/>
<path d="M61.1024 96.4488L52.1572 80.4116L20.3394 84.7176L5.4014 48.1708L1.54688 48.2149L18.424 89.506L50.2418 85.2L56.5161 96.4488H61.1024Z" fill="#E6D0BE"/>
<path d="M7.11108 47.7965C6.83758 47.7965 6.64989 47.7257 6.55304 47.586C6.50457 47.5162 6.47998 47.43 6.47998 47.3301C6.47998 47.288 6.48438 47.2428 6.49302 47.1955C6.49797 47.1684 6.52416 47.1504 6.55114 47.1554C6.57833 47.1603 6.59627 47.1863 6.59132 47.2135C6.58377 47.2548 6.57993 47.294 6.57993 47.3301C6.57993 47.4093 6.59851 47.4762 6.63514 47.5291C6.71215 47.6402 6.87226 47.6965 7.11103 47.6965L7.13777 47.6963C7.13802 47.6963 7.13832 47.6963 7.13862 47.6963C7.16585 47.6963 7.18809 47.7181 7.18859 47.7454C7.18904 47.773 7.16705 47.7958 7.13947 47.7962L7.11108 47.7965ZM7.73114 47.7121C7.70845 47.7121 7.68786 47.6965 7.68252 47.6734C7.67627 47.6465 7.69296 47.6197 7.71985 47.6135C7.8927 47.5733 8.08515 47.5181 8.29178 47.4494C8.31782 47.4407 8.34625 47.4549 8.355 47.481C8.36369 47.5072 8.34955 47.5355 8.32331 47.5442C8.11373 47.6139 7.91834 47.67 7.74248 47.7109C7.73869 47.7117 7.73489 47.7121 7.73114 47.7121ZM8.87086 47.3406C8.85102 47.3406 8.83218 47.3286 8.82439 47.309C8.81424 47.2833 8.82679 47.2543 8.85247 47.2441C9.02798 47.1747 9.21342 47.0968 9.40372 47.0127C9.4292 47.0016 9.45859 47.013 9.46963 47.0382C9.48078 47.0635 9.46933 47.0929 9.4441 47.1041C9.2526 47.1887 9.06591 47.2671 8.8892 47.3371C8.88321 47.3394 8.87701 47.3406 8.87086 47.3406ZM9.96881 46.8575C9.95017 46.8575 9.93223 46.847 9.92368 46.8291C9.91179 46.8042 9.92233 46.7744 9.94722 46.7625C10.1209 46.6795 10.3015 46.5904 10.4841 46.4976C10.5087 46.485 10.5387 46.4949 10.5513 46.5195C10.5638 46.5441 10.554 46.5741 10.5293 46.5867C10.346 46.6799 10.1647 46.7693 9.99035 46.8527C9.98335 46.856 9.97605 46.8575 9.96881 46.8575ZM6.77122 46.7041C6.76262 46.7041 6.75398 46.7019 6.74603 46.6973C6.7222 46.6833 6.7142 46.6527 6.72814 46.6289C6.81764 46.4759 6.93213 46.3074 7.06845 46.1281C7.0851 46.1061 7.11643 46.1018 7.13847 46.1185C7.1604 46.1352 7.16465 46.1666 7.14796 46.1885C7.01403 46.3647 6.9018 46.5298 6.81435 46.6793C6.8051 46.6953 6.78836 46.7041 6.77122 46.7041ZM11.0386 46.3146C11.0207 46.3146 11.0034 46.305 10.9944 46.2882C10.9814 46.2639 10.9906 46.2336 11.0149 46.2206C11.1872 46.1285 11.364 46.0318 11.5405 45.9333C11.5645 45.9199 11.5951 45.9285 11.6085 45.9526C11.622 45.9767 11.6134 46.0071 11.5892 46.0206C11.4123 46.1194 11.2349 46.2164 11.0621 46.3087C11.0546 46.3127 11.0465 46.3146 11.0386 46.3146ZM7.48812 45.7441C7.47648 45.7441 7.46479 45.74 7.45534 45.7318C7.4345 45.7137 7.4323 45.6821 7.45044 45.6613C7.57408 45.5193 7.7106 45.3697 7.85632 45.2166C7.87551 45.1966 7.90709 45.1959 7.92698 45.2149C7.94697 45.2339 7.94777 45.2656 7.92873 45.2855C7.78406 45.4376 7.64849 45.5861 7.5258 45.727C7.51591 45.7383 7.50202 45.7441 7.48812 45.7441ZM12.0863 45.7303C12.0691 45.7303 12.0523 45.7213 12.0431 45.7053C12.0292 45.6814 12.0374 45.6508 12.0612 45.637C12.231 45.5386 12.4046 45.4362 12.5773 45.3326C12.601 45.3184 12.6316 45.3261 12.6458 45.3498C12.66 45.3734 12.6524 45.4041 12.6287 45.4183C12.4555 45.5222 12.2815 45.6249 12.1113 45.7235C12.1035 45.7281 12.0948 45.7303 12.0863 45.7303ZM13.1152 45.1133C13.0985 45.1133 13.0821 45.1049 13.0726 45.0896C13.0582 45.0661 13.0654 45.0353 13.0888 45.0208C13.2562 44.9171 13.427 44.8099 13.5963 44.7021C13.6194 44.6872 13.6503 44.6941 13.6653 44.7174C13.6801 44.7406 13.6732 44.7715 13.6499 44.7864C13.4803 44.8945 13.3092 45.002 13.1414 45.1058C13.1333 45.1108 13.1242 45.1133 13.1152 45.1133ZM8.31357 44.8737C8.30063 44.8737 8.28773 44.8687 8.27794 44.8587C8.25855 44.8391 8.25885 44.8074 8.27854 44.7881C8.41561 44.6532 8.56173 44.5134 8.7128 44.3724C8.73304 44.3536 8.76462 44.3546 8.78346 44.3748C8.8023 44.3949 8.80115 44.4266 8.78101 44.4454C8.6305 44.5858 8.48502 44.7251 8.3486 44.8593C8.3389 44.8689 8.32621 44.8737 8.31357 44.8737ZM14.1269 44.4685C14.1106 44.4685 14.0946 44.4606 14.0851 44.446C14.0699 44.4229 14.0764 44.3919 14.0995 44.3767C14.2646 44.2685 14.4326 44.157 14.5986 44.0452C14.6215 44.0298 14.6525 44.0359 14.668 44.0588C14.6834 44.0817 14.6773 44.1127 14.6545 44.1281C14.4881 44.2401 14.3198 44.3519 14.1543 44.4604C14.1458 44.4659 14.1363 44.4685 14.1269 44.4685ZM9.19009 44.0545C9.17639 44.0545 9.1627 44.0489 9.15281 44.0378C9.13447 44.0172 9.13622 43.9857 9.1568 43.9673C9.30207 43.8375 9.45419 43.7043 9.60891 43.5714C9.62984 43.5535 9.66133 43.5558 9.67937 43.5768C9.69731 43.5977 9.69496 43.6293 9.67402 43.6472C9.51985 43.7797 9.36824 43.9125 9.22337 44.0418C9.21387 44.0503 9.20193 44.0545 9.19009 44.0545ZM15.1222 43.7989C15.1064 43.7989 15.0907 43.7913 15.081 43.7773C15.0653 43.7545 15.0711 43.7235 15.0938 43.7078L15.1691 43.6557C15.3091 43.5586 15.4477 43.4615 15.5849 43.3644C15.6075 43.3484 15.6387 43.3538 15.6546 43.3762C15.6705 43.3988 15.6652 43.43 15.6427 43.4459C15.5052 43.5433 15.3663 43.6406 15.226 43.7378L15.1506 43.79C15.1419 43.796 15.132 43.7989 15.1222 43.7989ZM10.0998 43.2723C10.0854 43.2723 10.0713 43.2662 10.0614 43.2543C10.0437 43.233 10.0467 43.2015 10.0679 43.1839C10.2199 43.0577 10.3764 42.9299 10.533 42.8039C10.5545 42.7865 10.5861 42.79 10.6033 42.8115C10.6206 42.8329 10.6172 42.8644 10.5957 42.8817C10.4394 43.0075 10.2834 43.135 10.1318 43.2608C10.1224 43.2685 10.1111 43.2723 10.0998 43.2723ZM16.1013 43.1055C16.0858 43.1055 16.0706 43.0984 16.0609 43.0849C16.0446 43.0626 16.0496 43.0313 16.0719 43.0151C16.2338 42.8975 16.3961 42.778 16.5545 42.6599C16.5767 42.6434 16.6079 42.6479 16.6244 42.6701C16.6409 42.6922 16.6364 42.7235 16.6142 42.74C16.4555 42.8584 16.2928 42.9781 16.1306 43.096C16.1218 43.1024 16.1115 43.1055 16.1013 43.1055ZM11.0346 42.5201C11.0197 42.5201 11.005 42.5135 10.9951 42.5009C10.9782 42.4791 10.982 42.4477 11.0038 42.4307C11.1596 42.3089 11.3197 42.1857 11.4796 42.0642C11.5015 42.0475 11.5329 42.0518 11.5495 42.0738C11.5663 42.0958 11.562 42.1271 11.54 42.1438C11.3805 42.265 11.2208 42.3879 11.0653 42.5095C11.0562 42.5166 11.0453 42.5201 11.0346 42.5201ZM17.063 42.3882C17.048 42.3882 17.0331 42.3815 17.0233 42.3687C17.0065 42.3468 17.0106 42.3154 17.0326 42.2986C17.192 42.1764 17.3512 42.0527 17.5058 41.9309C17.5275 41.9139 17.5589 41.9176 17.5759 41.9393C17.593 41.961 17.5893 41.9924 17.5676 42.0094C17.4128 42.1315 17.2532 42.2555 17.0934 42.3779C17.0843 42.3849 17.0736 42.3882 17.063 42.3882ZM11.9897 41.7941C11.9744 41.7941 11.9594 41.7871 11.9495 41.7739C11.9331 41.7517 11.9378 41.7204 11.96 41.704C12.1199 41.5857 12.2831 41.4666 12.4449 41.3499C12.4673 41.3338 12.4986 41.3389 12.5147 41.3613C12.5308 41.3836 12.5258 41.4149 12.5034 41.431C12.3419 41.5475 12.179 41.6663 12.0193 41.7844C12.0105 41.791 12 41.7941 11.9897 41.7941ZM18.0052 41.6454C17.9906 41.6454 17.9762 41.6391 17.9664 41.6269C17.949 41.6055 17.9522 41.574 17.9736 41.5566C18.1294 41.4302 18.2849 41.3019 18.4358 41.1753C18.4571 41.1576 18.4886 41.1604 18.5063 41.1815C18.5239 41.2026 18.5212 41.2342 18.5001 41.2519C18.3487 41.3788 18.1928 41.5075 18.0367 41.6342C18.0274 41.6418 18.0162 41.6454 18.0052 41.6454ZM12.963 41.0926C12.9473 41.0926 12.9318 41.0852 12.9221 41.0713C12.9062 41.0487 12.9117 41.0175 12.9342 41.0017C13.0225 40.9397 13.1114 40.8777 13.2008 40.8158C13.2765 40.7633 13.352 40.7112 13.4275 40.6595C13.4504 40.6439 13.4813 40.6498 13.497 40.6725C13.5126 40.6953 13.5068 40.7264 13.484 40.742C13.4087 40.7935 13.3333 40.8455 13.2577 40.8979C13.1685 40.9597 13.0798 41.0216 12.9917 41.0835C12.9829 41.0897 12.9729 41.0926 12.963 41.0926ZM18.9242 40.8742C18.9102 40.8742 18.8963 40.8684 18.8864 40.857C18.8684 40.8361 18.8706 40.8046 18.8914 40.7865C19.0451 40.6529 19.1959 40.5193 19.3397 40.3892C19.3602 40.3708 19.3917 40.3723 19.4103 40.3928C19.4288 40.4133 19.4272 40.4449 19.4068 40.4634C19.2624 40.5938 19.1111 40.7279 18.957 40.8619C18.9475 40.8701 18.9358 40.8742 18.9242 40.8742ZM13.9527 40.4147C13.9365 40.4147 13.9207 40.4069 13.911 40.3924C13.8957 40.3695 13.9019 40.3385 13.9249 40.3231C14.0914 40.212 14.2601 40.1009 14.4263 39.9928C14.4495 39.9778 14.4804 39.9844 14.4955 40.0075C14.5105 40.0306 14.5039 40.0616 14.4808 40.0766C14.3149 40.1844 14.1466 40.2953 13.9803 40.4062C13.9719 40.4119 13.9622 40.4147 13.9527 40.4147ZM19.8136 40.0689C19.8003 40.0689 19.7871 40.0637 19.7773 40.0533C19.7583 40.0333 19.7592 40.0017 19.7792 39.9827C19.9281 39.8416 20.0724 39.7012 20.2081 39.5652C20.2277 39.5457 20.2593 39.5457 20.2788 39.5652C20.2984 39.5847 20.2984 39.6163 20.2789 39.6359C20.1425 39.7724 19.9975 39.9136 19.8479 40.0552C19.8383 40.0644 19.8259 40.0689 19.8136 40.0689ZM14.9587 39.761C14.9421 39.761 14.9259 39.7528 14.9164 39.7378C14.9016 39.7144 14.9086 39.6836 14.932 39.6688C15.1013 39.5618 15.2727 39.455 15.4417 39.3514C15.4651 39.337 15.4961 39.3443 15.5105 39.3679C15.5249 39.3914 15.5175 39.4222 15.494 39.4366C15.3254 39.54 15.1543 39.6466 14.9853 39.7533C14.977 39.7585 14.9678 39.761 14.9587 39.761ZM20.6601 39.2187C20.6479 39.2187 20.6357 39.2143 20.626 39.2054C20.6058 39.1866 20.6046 39.155 20.6234 39.1348C20.7665 38.9808 20.8999 38.8304 21.0198 38.6878C21.0376 38.6667 21.0691 38.664 21.0902 38.6818C21.1114 38.6995 21.1141 38.7311 21.0963 38.7522C20.9753 38.896 20.8409 39.0476 20.6966 39.2028C20.6868 39.2134 20.6734 39.2187 20.6601 39.2187ZM15.9814 39.134C15.9643 39.134 15.9477 39.1252 15.9384 39.1095C15.9243 39.0858 15.9321 39.0551 15.9559 39.041C16.1296 38.9379 16.3041 38.836 16.4747 38.7383C16.4985 38.7246 16.5291 38.7329 16.5428 38.7568C16.5566 38.7807 16.5483 38.8113 16.5243 38.825C16.3543 38.9225 16.1801 39.0241 16.0069 39.127C15.9989 39.1317 15.9901 39.134 15.9814 39.134ZM17.0224 38.5376C17.0048 38.5376 16.9877 38.5283 16.9785 38.5117C16.9652 38.4875 16.974 38.4572 16.9982 38.4439C17.1761 38.3458 17.3541 38.2498 17.527 38.1587C17.5514 38.1459 17.5817 38.1552 17.5946 38.1797C17.6074 38.2041 17.5981 38.2343 17.5736 38.2472C17.4013 38.338 17.2239 38.4336 17.0465 38.5314C17.0389 38.5356 17.0306 38.5376 17.0224 38.5376ZM21.4275 38.2976C21.4175 38.2976 21.4073 38.2945 21.3985 38.2883C21.3761 38.2722 21.3709 38.241 21.387 38.2185C21.5182 38.0353 21.623 37.8662 21.6985 37.716C21.7109 37.6913 21.7408 37.6814 21.7657 37.6938C21.7903 37.7062 21.8002 37.7362 21.7878 37.7609C21.71 37.9158 21.6024 38.0894 21.4681 38.2768C21.4585 38.2904 21.4431 38.2976 21.4275 38.2976ZM18.084 37.9789C18.0657 37.9789 18.048 37.9687 18.0393 37.9512C18.027 37.9265 18.037 37.8965 18.0616 37.8842C18.2461 37.792 18.4282 37.7039 18.6028 37.6223C18.6279 37.6105 18.6576 37.6214 18.6692 37.6464C18.6809 37.6713 18.6701 37.7011 18.6451 37.7128C18.4713 37.794 18.2901 37.8818 18.1064 37.9735C18.0991 37.9772 18.0915 37.9789 18.084 37.9789ZM19.1711 37.4719C19.1517 37.4719 19.1333 37.4606 19.1252 37.4416C19.1143 37.4162 19.1261 37.3868 19.1513 37.376C19.3449 37.293 19.5326 37.2169 19.7093 37.15C19.7351 37.1403 19.7641 37.1532 19.7738 37.1791C19.7835 37.2049 19.7705 37.2337 19.7447 37.2435C19.5693 37.3099 19.383 37.3854 19.1908 37.4679C19.1844 37.4706 19.1777 37.4719 19.1711 37.4719ZM21.8937 37.2169C21.8686 37.2169 21.8469 37.1981 21.8441 37.1725C21.8378 37.1155 21.8202 37.0657 21.7916 37.0244C21.7322 36.9387 21.6223 36.8853 21.4651 36.8656C21.4377 36.8622 21.4183 36.8373 21.4217 36.8099C21.4251 36.7825 21.4501 36.763 21.4775 36.7665C21.6641 36.7898 21.7974 36.8574 21.8738 36.9676C21.9119 37.0226 21.9353 37.0878 21.9435 37.1615C21.9466 37.1889 21.9268 37.2136 21.8993 37.2166C21.8974 37.2168 21.8955 37.2169 21.8937 37.2169ZM20.294 37.0508C20.2726 37.0508 20.2528 37.037 20.2462 37.0156C20.2381 36.9892 20.2529 36.9612 20.2793 36.9531C20.4938 36.8871 20.6912 36.8372 20.866 36.8046C20.8934 36.7994 20.9192 36.8174 20.9243 36.8445C20.9293 36.8717 20.9114 36.8978 20.8843 36.9029C20.7131 36.9348 20.5195 36.9838 20.3087 37.0487C20.3038 37.0501 20.2988 37.0508 20.294 37.0508Z" fill="#EFBC73"/>
<path d="M7.56312 44.9258C7.49441 44.9258 7.42695 44.9253 7.36069 44.9243C7.3331 44.9239 7.31106 44.9012 7.31146 44.8736C7.31186 44.8463 7.33415 44.8244 7.36143 44.8244C7.36168 44.8244 7.36194 44.8244 7.36219 44.8244C7.55063 44.8271 7.75127 44.8259 7.95996 44.8208C7.96036 44.8208 7.96081 44.8208 7.96121 44.8208C7.98819 44.8208 8.01043 44.8424 8.01113 44.8695C8.01183 44.8971 7.98994 44.92 7.96235 44.9207C7.82573 44.9241 7.69135 44.9258 7.56312 44.9258ZM6.76237 44.9C6.76122 44.9 6.76002 44.9 6.75882 44.8999C6.53849 44.8843 6.3365 44.8616 6.15845 44.8323C6.13121 44.8278 6.11277 44.8021 6.11727 44.7749C6.12172 44.7477 6.14725 44.7291 6.17464 44.7337C6.34964 44.7625 6.54853 44.7849 6.76581 44.8002C6.79335 44.8021 6.81409 44.826 6.81214 44.8535C6.81029 44.8799 6.7884 44.9 6.76237 44.9ZM8.56042 44.8966C8.53409 44.8966 8.512 44.876 8.5106 44.8493C8.5091 44.8218 8.53019 44.7982 8.55773 44.7967C8.75027 44.7862 8.95116 44.7727 9.1549 44.7566C9.18313 44.7544 9.20647 44.775 9.20867 44.8025C9.21082 44.83 9.19033 44.854 9.16279 44.8562C8.95821 44.8724 8.75647 44.886 8.56317 44.8966C8.56227 44.8966 8.56132 44.8966 8.56042 44.8966ZM9.75612 44.8028C9.73073 44.8028 9.70904 44.7835 9.70644 44.7577C9.7037 44.7303 9.72373 44.7058 9.75122 44.7031C9.94556 44.6837 10.1458 44.6617 10.3465 44.638C10.3732 44.6349 10.3988 44.6544 10.402 44.6818C10.4053 44.7092 10.3857 44.7341 10.3582 44.7373C10.157 44.7611 9.95606 44.7831 9.76116 44.8026C9.75946 44.8027 9.75781 44.8028 9.75612 44.8028ZM5.58676 44.6846C5.58067 44.6846 5.57447 44.6834 5.56847 44.6811C5.29997 44.5755 5.14486 44.435 5.10743 44.2635C5.10163 44.2368 5.09863 44.2092 5.09863 44.1814C5.09863 44.0847 5.13431 43.9812 5.20462 43.8738C5.21977 43.8508 5.2508 43.8443 5.27384 43.8594C5.29692 43.8746 5.30337 43.9056 5.28823 43.9286C5.22876 44.0194 5.19858 44.1045 5.19858 44.1814C5.19858 44.2021 5.20078 44.2224 5.20507 44.2422C5.23496 44.3791 5.36948 44.4955 5.60505 44.5881C5.63074 44.5982 5.64338 44.6272 5.63324 44.6529C5.62549 44.6726 5.60665 44.6846 5.58676 44.6846ZM10.9473 44.6622C10.9227 44.6622 10.9012 44.6441 10.8978 44.619C10.8942 44.5916 10.9134 44.5665 10.9407 44.5628C11.1349 44.5366 11.3344 44.5081 11.5336 44.4782C11.5617 44.4742 11.5864 44.4929 11.5905 44.5202C11.5946 44.5475 11.5758 44.5729 11.5485 44.577C11.3487 44.607 11.1487 44.6355 10.954 44.6618C10.9518 44.6621 10.9495 44.6622 10.9473 44.6622ZM12.1335 44.4844C12.1094 44.4844 12.0883 44.467 12.0843 44.4425C12.0798 44.4153 12.0982 44.3895 12.1255 44.3851C12.3199 44.3531 12.5185 44.3191 12.7159 44.284C12.7431 44.2792 12.7691 44.2973 12.7738 44.3244C12.7786 44.3516 12.7605 44.3776 12.7333 44.3824C12.5355 44.4176 12.3365 44.4517 12.1416 44.4837C12.1389 44.4842 12.1362 44.4844 12.1335 44.4844ZM13.3144 44.2743C13.2909 44.2743 13.2699 44.2577 13.2654 44.2337C13.2602 44.2066 13.278 44.1804 13.3051 44.1752C13.499 44.1382 13.6967 44.0992 13.8929 44.0592C13.9201 44.0537 13.9464 44.0711 13.9519 44.0982C13.9574 44.1252 13.94 44.1516 13.9129 44.1571C13.7163 44.1971 13.5181 44.2362 13.3239 44.2734C13.3207 44.2741 13.3176 44.2743 13.3144 44.2743ZM14.4897 44.0349C14.4666 44.0349 14.4459 44.019 14.4408 43.9955C14.435 43.9685 14.4522 43.9419 14.4792 43.9361L14.5712 43.9161C14.7367 43.88 14.9011 43.8433 15.0641 43.806C15.0907 43.7999 15.1178 43.8167 15.1239 43.8436C15.1301 43.8705 15.1133 43.8973 15.0863 43.9035C14.923 43.9408 14.7584 43.9776 14.5925 44.0138L14.5002 44.0338C14.4967 44.0346 14.4932 44.0349 14.4897 44.0349ZM15.6591 43.7674C15.6366 43.7674 15.6161 43.7521 15.6106 43.7292C15.6041 43.7023 15.6206 43.6753 15.6474 43.6688C15.8424 43.6218 16.0381 43.5732 16.2291 43.5246C16.2558 43.5177 16.283 43.5339 16.2899 43.5607C16.2967 43.5874 16.2805 43.6146 16.2538 43.6214C16.0624 43.6702 15.8663 43.7188 15.6709 43.766C15.667 43.767 15.6631 43.7674 15.6591 43.7674ZM5.66982 43.5314C5.65468 43.5314 5.63973 43.5246 5.62994 43.5116C5.61325 43.4896 5.6176 43.4583 5.63953 43.4416C5.78076 43.3345 5.95101 43.2226 6.14556 43.1091C6.16944 43.0952 6.19998 43.1032 6.21387 43.127C6.22776 43.1508 6.21976 43.1814 6.19593 43.1954C6.00488 43.3069 5.83802 43.4166 5.69995 43.5212C5.69096 43.5281 5.68031 43.5314 5.66982 43.5314ZM16.8219 43.4712C16.7998 43.4712 16.7796 43.4565 16.7736 43.4342C16.7665 43.4075 16.7823 43.3801 16.8089 43.373C17.0032 43.3208 17.1975 43.2672 17.3867 43.2136C17.413 43.2061 17.4408 43.2214 17.4483 43.248C17.4558 43.2746 17.4404 43.3022 17.4139 43.3097C17.2244 43.3635 17.0296 43.4172 16.8349 43.4695C16.8306 43.4706 16.8262 43.4712 16.8219 43.4712ZM17.9762 43.1439C17.9547 43.1439 17.9349 43.1299 17.9284 43.1082C17.9205 43.0818 17.9355 43.0539 17.9619 43.046C18.1557 42.988 18.3484 42.9287 18.5346 42.8698C18.5612 42.8614 18.5889 42.876 18.5973 42.9024C18.6056 42.9287 18.591 42.9567 18.5648 42.9651C18.3781 43.0242 18.1849 43.0836 17.9906 43.1418C17.9858 43.1432 17.9809 43.1439 17.9762 43.1439ZM6.6992 42.9183C6.68086 42.9183 6.66317 42.9082 6.65448 42.8906C6.64213 42.8659 6.65218 42.8359 6.67686 42.8236C6.84582 42.7394 7.02917 42.6533 7.22181 42.5676C7.24715 42.5564 7.27658 42.5678 7.28778 42.593C7.29897 42.6182 7.28763 42.6478 7.26239 42.659C7.07109 42.744 6.88905 42.8295 6.72144 42.9131C6.71429 42.9166 6.7067 42.9183 6.6992 42.9183ZM19.12 42.7815C19.0991 42.7815 19.0796 42.7683 19.0726 42.7474C19.0638 42.7213 19.0779 42.6929 19.1041 42.6841C19.2963 42.6196 19.4867 42.5536 19.6701 42.4879C19.6958 42.4786 19.7246 42.4921 19.7339 42.5181C19.7432 42.5441 19.7297 42.5727 19.7037 42.582C19.5198 42.6479 19.3287 42.7141 19.1359 42.7789C19.1306 42.7806 19.1253 42.7815 19.12 42.7815ZM7.79445 42.4289C7.77471 42.4289 7.75602 42.4171 7.74812 42.3977C7.73773 42.3722 7.75007 42.343 7.77566 42.3327C7.95426 42.2602 8.14276 42.1867 8.3358 42.1142C8.36158 42.1045 8.39042 42.1175 8.40016 42.1434C8.40981 42.1692 8.39677 42.1981 8.37093 42.2078C8.17864 42.28 7.99099 42.3532 7.81324 42.4253C7.80704 42.4277 7.80074 42.4289 7.79445 42.4289ZM20.2494 42.3763C20.2293 42.3763 20.2104 42.3641 20.2027 42.3442C20.1928 42.3185 20.2057 42.2896 20.2314 42.2797C20.4238 42.2057 20.6108 42.1309 20.7871 42.0574C20.8127 42.0468 20.8419 42.0588 20.8525 42.0843C20.8631 42.1098 20.8511 42.139 20.8256 42.1496C20.6484 42.2235 20.4606 42.2987 20.2673 42.373C20.2614 42.3753 20.2553 42.3763 20.2494 42.3763ZM8.91733 42.0062C8.89669 42.0062 8.8774 41.9933 8.8702 41.9728C8.86106 41.9467 8.87475 41.9182 8.90079 41.9091C9.08539 41.8443 9.27683 41.7792 9.46972 41.7157C9.49601 41.707 9.52424 41.7213 9.53289 41.7475C9.54153 41.7737 9.52729 41.802 9.50106 41.8106C9.30871 41.874 9.11792 41.9388 8.93387 42.0034C8.92842 42.0053 8.92282 42.0062 8.91733 42.0062ZM21.3563 41.9133C21.3373 41.9133 21.3192 41.9025 21.3109 41.8842C21.2993 41.8591 21.3103 41.8295 21.3353 41.8179C21.5267 41.73 21.7074 41.6419 21.8723 41.556C21.8968 41.5432 21.927 41.5528 21.9397 41.5772C21.9524 41.6017 21.943 41.6319 21.9185 41.6447C21.7521 41.7313 21.57 41.8201 21.3771 41.9087C21.3703 41.9119 21.3633 41.9133 21.3563 41.9133ZM10.0567 41.6303C10.0354 41.6303 10.0157 41.6165 10.009 41.5951C10.0008 41.5688 10.0156 41.5408 10.0419 41.5326C10.2301 41.4741 10.4235 41.4155 10.6169 41.3587C10.6436 41.3509 10.6712 41.3661 10.6789 41.3926C10.6867 41.419 10.6715 41.4468 10.6451 41.4546C10.4522 41.5113 10.2592 41.5697 10.0715 41.628C10.0666 41.6295 10.0616 41.6303 10.0567 41.6303ZM22.4173 41.3548C22.4006 41.3548 22.3844 41.3464 22.3749 41.3312C22.3603 41.3078 22.3674 41.277 22.3908 41.2624C22.582 41.1432 22.7435 41.027 22.8707 40.9169C22.8916 40.8989 22.9231 40.9011 22.9412 40.922C22.9593 40.9429 22.957 40.9744 22.9361 40.9925C22.8049 41.106 22.6392 41.2253 22.4436 41.3472C22.4355 41.3523 22.4263 41.3548 22.4173 41.3548ZM11.2078 41.2915C11.1859 41.2915 11.1658 41.277 11.1597 41.2549C11.1523 41.2283 11.1678 41.2008 11.1944 41.1933C11.3849 41.1402 11.5799 41.0873 11.774 41.036C11.8005 41.029 11.8281 41.0449 11.8351 41.0716C11.8422 41.0983 11.8262 41.1256 11.7996 41.1326C11.6058 41.1838 11.4113 41.2366 11.2213 41.2896C11.2168 41.2909 11.2122 41.2915 11.2078 41.2915ZM12.3677 40.9849C12.3454 40.9849 12.325 40.9697 12.3193 40.947C12.3126 40.9203 12.3288 40.8931 12.3556 40.8864C12.548 40.8383 12.7442 40.7904 12.9391 40.7441C12.9661 40.7376 12.9929 40.7544 12.9992 40.7812C13.0056 40.808 12.989 40.835 12.9622 40.8414C12.7677 40.8875 12.5719 40.9353 12.38 40.9834C12.3758 40.9844 12.3718 40.9849 12.3677 40.9849ZM13.5351 40.7077C13.5122 40.7077 13.4916 40.6919 13.4864 40.6686C13.4803 40.6417 13.4973 40.615 13.5242 40.6089C13.6273 40.5858 13.7308 40.5629 13.8348 40.5402C13.9271 40.52 14.019 40.5002 14.1107 40.4808C14.138 40.475 14.1642 40.4923 14.1699 40.5193C14.1756 40.5463 14.1584 40.5728 14.1315 40.5785C14.0399 40.598 13.9481 40.6177 13.856 40.6378C13.7522 40.6605 13.6489 40.6833 13.546 40.7064C13.5424 40.7073 13.5387 40.7077 13.5351 40.7077ZM23.2614 40.5355C23.2567 40.5355 23.2519 40.5348 23.2472 40.5334C23.2207 40.5256 23.2057 40.4978 23.2135 40.4713C23.2235 40.4372 23.2286 40.404 23.2286 40.3725C23.2286 40.3519 23.2264 40.3314 23.2221 40.3116C23.2002 40.2107 23.1203 40.1202 22.9849 40.0426C22.961 40.0289 22.9526 39.9983 22.9664 39.9744C22.9801 39.9504 23.0107 39.9421 23.0346 39.9559C23.1956 40.0481 23.2915 40.1607 23.3198 40.2904C23.3256 40.3171 23.3285 40.3447 23.3285 40.3724C23.3286 40.4135 23.3221 40.4563 23.3093 40.4996C23.3029 40.5214 23.283 40.5355 23.2614 40.5355ZM14.708 40.4586C14.6847 40.4586 14.6638 40.4422 14.6591 40.4184C14.6537 40.3913 14.6713 40.365 14.6983 40.3596C14.8951 40.3202 15.0934 40.2819 15.2878 40.2456C15.315 40.2404 15.3409 40.2584 15.3461 40.2855C15.3512 40.3126 15.3332 40.3387 15.3061 40.3438C15.1122 40.3801 14.9143 40.4183 14.7179 40.4576C14.7146 40.4583 14.7113 40.4586 14.708 40.4586ZM15.8871 40.2382C15.8633 40.2382 15.8422 40.2211 15.838 40.1968C15.8332 40.1696 15.8514 40.1437 15.8786 40.139C16.077 40.1046 16.2762 40.0713 16.4708 40.0401C16.4982 40.0358 16.5238 40.0543 16.528 40.0816C16.5324 40.1089 16.5138 40.1345 16.4866 40.1389C16.2925 40.1699 16.0937 40.2032 15.8957 40.2375C15.8928 40.238 15.8899 40.2382 15.8871 40.2382ZM17.0715 40.0488C17.047 40.0488 17.0257 40.031 17.0221 40.0061C17.0181 39.9788 17.0371 39.9534 17.0644 39.9494C17.2645 39.9204 17.4646 39.8928 17.6593 39.8675C17.6862 39.8639 17.7117 39.8832 17.7152 39.9106C17.7188 39.938 17.6995 39.963 17.6722 39.9666C17.478 39.9918 17.2783 40.0193 17.0787 40.0483C17.0763 40.0487 17.0739 40.0488 17.0715 40.0488ZM18.261 39.8947C18.2359 39.8947 18.2143 39.8759 18.2114 39.8503C18.2084 39.8229 18.228 39.7982 18.2555 39.7951C18.4576 39.7723 18.6586 39.7515 18.853 39.7333C18.8811 39.7307 18.9048 39.7509 18.9074 39.7783C18.91 39.8058 18.8898 39.8302 18.8623 39.8328C18.6686 39.8509 18.4681 39.8716 18.2667 39.8944C18.2648 39.8946 18.2629 39.8947 18.261 39.8947ZM22.445 39.8553C22.4416 39.8553 22.4381 39.8549 22.4346 39.8542C22.2645 39.8183 22.0668 39.7896 21.8471 39.7689C21.8196 39.7663 21.7995 39.742 21.802 39.7145C21.8046 39.687 21.8281 39.6668 21.8565 39.6694C22.08 39.6904 22.2814 39.7197 22.4553 39.7564C22.4823 39.7621 22.4995 39.7886 22.4938 39.8156C22.4888 39.8392 22.4681 39.8553 22.445 39.8553ZM19.4553 39.7833C19.4293 39.7833 19.4073 39.7632 19.4055 39.737C19.4035 39.7094 19.4242 39.6855 19.4518 39.6835C19.6573 39.6688 19.8591 39.6568 20.0517 39.648C20.0786 39.6467 20.1027 39.668 20.104 39.6956C20.1052 39.7232 20.0839 39.7466 20.0563 39.7478C19.8646 39.7566 19.6636 39.7685 19.4589 39.7832C19.4577 39.7833 19.4565 39.7833 19.4553 39.7833ZM21.2532 39.7337C21.2526 39.7337 21.2521 39.7337 21.2517 39.7336C21.0643 39.7281 20.8635 39.7267 20.6542 39.7296C20.654 39.7296 20.6537 39.7296 20.6535 39.7296C20.6262 39.7296 20.6039 39.7076 20.6035 39.6802C20.6031 39.6527 20.6253 39.63 20.6528 39.6296C20.8634 39.6268 21.0658 39.6281 21.2546 39.6337C21.2822 39.6345 21.3039 39.6576 21.3031 39.6851C21.3023 39.7123 21.2801 39.7337 21.2532 39.7337Z" fill="#EFBC73"/>
</g>
<defs>
<clipPath id="clip0_177_9264">
<rect x="1.09326" y="13" width="91.814" height="94" rx="7.28682" fill="white"/>
</clipPath>
</defs>
</svg>
