<svg width="292" height="408" viewBox="0 0 292 408" fill="none" xmlns="http://www.w3.org/2000/svg">
<rect width="292" height="408" rx="24" fill="#EFFFDD"/>
<path d="M84.4723 78V77.872C84.8563 77.872 88.4403 77.296 88.4403 70.832V35.248C88.4403 28.784 84.8563 28.208 84.4723 28.208V28.08H102.776V28.208C102.392 28.208 98.8083 28.784 98.8083 35.248V70.832C98.8083 77.296 102.392 77.872 102.776 77.872V78H84.4723ZM109.386 40.688C109.386 31.92 116.938 27.184 126.666 27.184C132.49 27.184 136.01 28.08 140.554 28.08V38.576H140.426C140.042 36.528 139.338 33.904 137.098 31.856C135.114 30.128 131.978 28.848 126.794 28.848C121.546 28.848 116.682 30.96 116.682 35.888C116.682 40.304 120.778 42.672 124.362 44.72L133.386 49.84C140.618 53.936 143.562 58.736 143.562 64.24C143.562 72.816 136.458 78.384 124.682 78.384C120.586 78.384 114.634 78 110.538 78V64.688H110.666C110.986 67.504 111.626 70.576 113.866 73.008C115.85 75.184 119.178 76.72 124.106 76.72C132.554 76.72 135.242 72.752 135.242 68.656C135.242 65.328 133.578 62.448 127.37 58.928L117.898 53.552C112.458 50.48 109.386 46.64 109.386 40.688ZM153.384 29.744C146.152 29.744 145.448 37.424 145.448 38.192H145.32V28.08H186.408V38.192H186.28C186.28 37.424 185.576 29.744 178.344 29.744H171.048V70.832C171.048 77.296 174.632 77.872 175.016 77.872V78H156.712V77.872C157.096 77.872 160.68 77.296 160.68 70.832V29.744H153.384ZM188.942 91.44C193.166 91.44 193.678 83.952 193.678 78.192V35.248C193.678 28.784 190.094 28.208 189.71 28.208V28.08H208.014V28.208C207.63 28.208 204.046 28.784 204.046 35.248V78.064C204.046 86.704 198.03 91.568 188.942 91.568V91.44Z" fill="#4B8A00"/>
<path d="M48.56 116V115.96C48.68 115.96 49.8 115.78 49.8 113.76V102.64C49.8 100.62 48.68 100.44 48.56 100.44V100.4H52.28L60.92 110.9V102.64C60.92 100.62 59.8 100.44 59.68 100.44V100.4H62.72V100.44C62.6 100.44 61.48 100.62 61.48 102.64V116.12L50.36 102.64V113.76C50.36 115.78 51.48 115.96 51.6 115.96V116H48.56ZM68.6228 119.86C69.6828 119.86 70.3628 119.44 70.8028 118.84C71.4828 117.9 71.6028 116.52 71.6028 115.52V114.4C70.9828 115.54 69.7228 116.24 68.3628 116.24C65.2828 116.24 63.3628 113.88 63.3628 110.56C63.3628 106.84 65.2828 104.08 68.6828 104.08C70.2828 104.08 71.0828 104.74 71.6028 105.46V104.28H76.0428V104.32C75.9228 104.32 74.8028 104.5 74.8028 106.52V115.2C74.8028 116.9 74.1628 118.08 73.2628 118.88C72.0428 119.98 70.3228 120.34 69.1028 120.34C67.1028 120.34 65.8028 119.64 65.0628 119.64V116.56H65.1228C65.3028 117.6 65.7828 118.34 66.3428 118.86C67.1428 119.6 68.1028 119.86 68.6228 119.86ZM66.5428 110.36C66.5428 113.12 67.5228 115.36 69.2628 115.36C70.2828 115.36 71.0228 114.76 71.6028 113.38V106.52C71.0828 105.42 70.3428 105.16 69.7628 105.16C67.9228 105.16 66.5428 107.2 66.5428 110.36ZM81.6914 116.2C80.6914 116.2 79.7914 115.9 79.1314 115.32C78.4914 114.74 78.0914 113.88 78.0914 112.74V106.52C78.0914 104.5 76.9714 104.32 76.8514 104.32V104.28H81.2914V112.48C81.2914 112.98 81.3314 113.64 81.5914 114.18C81.8514 114.7 82.3114 115.08 83.0114 115.08C84.4314 115.08 85.4514 113.66 85.4514 111.7V106.52C85.4514 104.5 84.3314 104.32 84.2114 104.32V104.28H88.6514V105.08C88.9714 104.82 89.0714 104.54 89.0914 104.28C89.0914 104.06 89.0114 103.54 88.2114 103.34V103.32L89.8714 102.16C90.1114 102.34 90.4514 102.96 90.4114 103.5C90.3514 104.46 89.3314 105.1 88.6514 105.4V113.76C88.6514 115.78 89.7714 115.96 89.8914 115.96V116H85.4514V113.92C84.9714 115.04 83.8914 116.2 81.6914 116.2ZM97.3269 116.24C93.4469 116.24 91.5269 113.48 91.5269 110.16C91.5269 106.84 93.4469 104.08 97.3269 104.08C98.8069 104.08 100.007 104.48 100.927 105.16C101.067 104.96 101.107 104.74 101.087 104.56C101.067 104.34 100.947 103.84 100.127 103.7V103.68L101.687 102.38C101.947 102.54 102.327 103.14 102.347 103.68C102.367 104.42 101.787 105.02 101.227 105.42C102.487 106.54 103.127 108.26 103.127 110.16C103.127 113.48 101.207 116.24 97.3269 116.24ZM94.8069 110.16C94.8069 113.12 95.4869 115.76 97.3269 115.76C99.1669 115.76 99.8669 113.12 99.8669 110.16C99.8669 107.2 99.1669 104.56 97.3269 104.56C95.4869 104.56 94.8069 107.2 94.8069 110.16ZM95.2069 101.8V101.74L96.2669 100.26H96.3269C97.1469 101.4 98.6069 102.96 99.5669 103.34L99.5069 103.4C98.3269 103.24 96.2269 102.58 95.2069 101.8ZM105.564 106.52C105.564 104.5 104.444 104.32 104.324 104.32V104.28H108.764V113.76C108.764 115.78 109.884 115.96 110.004 115.96V116H104.324V115.96C104.444 115.96 105.564 115.78 105.564 113.76V106.52ZM105.364 101.44C105.364 100.5 106.144 99.72 107.084 99.72C108.024 99.72 108.804 100.5 108.804 101.44C108.804 102.38 108.024 103.16 107.084 103.16C106.144 103.16 105.364 102.38 105.364 101.44ZM119.881 112.92C119.881 114.1 120.041 115.16 121.221 115.16C122.101 115.16 122.921 114.62 123.321 114.22H123.381C123.241 114.68 121.781 116.14 119.741 116.14C118.001 116.14 116.681 115.64 116.681 113.28V104.76H115.681V104.28H116.681V101.2H119.881V104.28H123.201V104.76H119.881V112.92ZM125.349 106.52C125.349 104.5 124.229 104.32 124.109 104.32V104.28H128.549V106.36C129.029 105.24 129.789 104.08 131.509 104.08C132.589 104.08 132.889 104.28 133.049 104.28V108.2H133.009C133.009 107.32 132.649 106.56 132.069 106.1C131.669 105.78 131.169 105.6 130.609 105.6C129.249 105.6 128.549 106.62 128.549 108.58V113.76C128.549 115.78 129.669 115.96 129.789 115.96V116H124.109V115.96C124.229 115.96 125.349 115.78 125.349 113.76V106.52ZM137.845 104.92C135.605 104.92 134.205 106.78 134.025 107.94H133.965C134.145 105.84 135.845 104.08 138.985 104.08C140.065 104.08 141.605 104.24 142.645 105.12C143.285 105.68 143.725 106.52 143.725 107.8V113.76C143.725 115.78 144.845 115.96 144.965 115.96V116H140.525V114.18C139.965 115.12 138.785 116.12 136.665 116.12C134.745 116.12 133.285 115.2 133.285 113.24C133.285 110.64 135.845 108.9 140.525 108.78V107.88C140.525 106.74 140.245 105.98 139.745 105.52C139.285 105.1 138.625 104.92 137.845 104.92ZM136.485 113.24C136.485 114.2 137.025 115.18 138.125 115.18C139.465 115.18 140.405 113.82 140.525 113.42V109.26C137.445 109.3 136.485 111.78 136.485 113.24ZM136.765 103.34C137.725 102.96 139.185 101.4 140.005 100.26H140.065L141.125 101.74V101.8C140.105 102.58 138.005 103.24 136.825 103.4L136.765 103.34ZM151.801 116.24C147.921 116.24 145.921 113.68 145.921 110.16C145.921 106.84 148.121 104.08 152.201 104.08C153.921 104.08 155.241 104.68 155.821 104.68V107.88H155.761C155.681 107.32 155.521 106.26 154.881 105.48C154.461 104.96 153.801 104.56 152.801 104.56C149.961 104.56 149.201 107.2 149.201 110.16C149.201 113.12 150.361 115.36 153.021 115.36C154.561 115.36 155.501 114.54 156.061 113.6L156.121 113.64C156.001 114.02 155.121 116.24 151.801 116.24ZM157.999 102.24C157.999 100.22 156.879 100.04 156.759 100.04V100H161.199V106.36C161.679 105.24 162.759 104.08 164.959 104.08C165.959 104.08 166.859 104.38 167.519 104.96C168.159 105.54 168.559 106.4 168.559 107.54V113.76C168.559 115.78 169.679 115.96 169.799 115.96V116H164.119V115.96C164.239 115.96 165.359 115.78 165.359 113.76V107.8C165.359 107.3 165.319 106.64 165.059 106.1C164.799 105.58 164.339 105.2 163.639 105.2C162.219 105.2 161.199 106.62 161.199 108.58V113.76C161.199 115.78 162.319 115.96 162.439 115.96V116H156.759V115.96C156.879 115.96 157.999 115.78 157.999 113.76V102.24ZM176.97 106.52C176.97 104.5 175.85 104.32 175.73 104.32V104.28H180.17V106.36C180.65 105.24 181.73 104.08 183.93 104.08C184.93 104.08 185.83 104.38 186.49 104.96C187.13 105.54 187.53 106.4 187.53 107.54V113.76C187.53 115.78 188.65 115.96 188.77 115.96V116H183.09V115.96C183.21 115.96 184.33 115.78 184.33 113.76V107.8C184.33 107.3 184.29 106.64 184.03 106.1C183.77 105.58 183.31 105.2 182.61 105.2C181.19 105.2 180.17 106.62 180.17 108.58V113.76C180.17 115.78 181.29 115.96 181.41 115.96V116H175.73V115.96C175.85 115.96 176.97 115.78 176.97 113.76V106.52ZM190.89 102.24C190.89 100.22 189.77 100.04 189.65 100.04V100H194.09V106.36C194.57 105.24 195.65 104.08 197.85 104.08C198.85 104.08 199.75 104.38 200.41 104.96C201.05 105.54 201.45 106.4 201.45 107.54V113.76C201.45 115.78 202.57 115.96 202.69 115.96V116H197.01V115.96C197.13 115.96 198.25 115.78 198.25 113.76V107.8C198.25 107.3 198.21 106.64 197.95 106.1C197.69 105.58 197.23 105.2 196.53 105.2C195.11 105.2 194.09 106.62 194.09 108.58V113.76C194.09 115.78 195.21 115.96 195.33 115.96V116H189.65V115.96C189.77 115.96 190.89 115.78 190.89 113.76V102.24ZM205.056 106.52C205.056 104.5 203.936 104.32 203.816 104.32V104.28H208.256V113.76C208.256 115.78 209.376 115.96 209.496 115.96V116H203.816V115.96C203.936 115.96 205.056 115.78 205.056 113.76V106.52ZM204.856 101.44C204.856 100.5 205.636 99.72 206.576 99.72C207.516 99.72 208.296 100.5 208.296 101.44C208.296 102.38 207.516 103.16 206.576 103.16C205.636 103.16 204.856 102.38 204.856 101.44ZM216.489 116.24C212.609 116.24 210.609 113.68 210.609 110.36C210.609 106.84 213.009 104.08 216.829 104.08C219.969 104.08 221.209 105.72 221.209 107.52C221.209 110.26 217.629 111.08 213.909 111.1C214.089 113.5 215.109 115.36 217.629 115.36C219.249 115.36 220.189 114.42 220.749 113.6L220.809 113.64C220.689 114.02 219.809 116.24 216.489 116.24ZM213.449 103.46L213.489 103.48C214.649 103.46 216.089 102.82 216.789 102.36H216.829C217.529 102.82 218.969 103.46 220.129 103.48L220.169 103.46C219.109 102.98 217.389 101.48 216.829 100.56H216.789C216.229 101.48 214.509 102.98 213.449 103.46ZM213.889 110.62C217.429 110.6 218.809 109.06 218.809 107C218.809 105.74 218.129 104.56 216.889 104.56C214.849 104.56 213.909 107.2 213.889 110.62ZM215.089 118.4C215.089 117.72 215.609 117.2 216.289 117.2C216.969 117.2 217.489 117.72 217.489 118.4C217.489 119.08 216.969 119.6 216.289 119.6C215.609 119.6 215.089 119.08 215.089 118.4ZM237.05 116V115.96C237.17 115.96 238.29 115.78 238.29 113.76V107.8C238.29 107.3 238.25 106.64 237.99 106.1C237.73 105.58 237.27 105.2 236.57 105.2C235.15 105.2 234.17 106.62 234.17 108.58V113.76C234.17 115.78 235.29 115.96 235.41 115.96V116H229.73V115.96C229.85 115.96 230.97 115.78 230.97 113.76V107.8C230.97 107.3 230.93 106.64 230.67 106.1C230.41 105.58 229.95 105.2 229.25 105.2C227.83 105.2 226.85 106.62 226.85 108.58V113.76C226.85 115.78 227.97 115.96 228.09 115.96V116H222.41V115.96C222.53 115.96 223.65 115.78 223.65 113.76V106.52C223.65 104.5 222.53 104.32 222.41 104.32V104.28H226.85V106.36C227.33 105.24 228.37 104.08 230.57 104.08C231.57 104.08 232.47 104.38 233.13 104.96C233.57 105.36 233.91 105.92 234.07 106.6C234.67 105.24 235.69 104.08 237.89 104.08C238.89 104.08 239.79 104.38 240.45 104.96C241.09 105.54 241.49 106.4 241.49 107.54V113.76C241.49 115.78 242.61 115.96 242.73 115.96V116H237.05Z" fill="#4B8A00"/>
<g clip-path="url(#clip0_1_799)">
<g clip-path="url(#clip1_1_799)">
<path d="M146.5 389C215.812 389 272 332.812 272 263.5C272 194.188 215.812 138 146.5 138C77.1883 138 21 194.188 21 263.5C21 332.812 77.1883 389 146.5 389Z" fill="#96C85B"/>
<path d="M223.458 219.059H246.856V214.651H223.458V219.059Z" fill="#2C4F02"/>
<path d="M226.997 266.594H243.317V216.856H226.997V266.594Z" fill="#2C4F02"/>
<path d="M195.585 219.059H218.982V214.651H195.585V219.059Z" fill="#2C4F02"/>
<path d="M199.124 278.968H215.443V216.855H199.124V278.968Z" fill="#2C4F02"/>
<path d="M167.761 219.059H191.159V214.651H167.761V219.059Z" fill="#2C4F02"/>
<path d="M167.761 283.405H191.158V278.997H167.761V283.405Z" fill="#2C4F02"/>
<path d="M171.3 281.443H187.619V216.855H171.3V281.443Z" fill="#2C4F02"/>
<path d="M139.887 294.191H244.666V286.1H139.887V294.191Z" fill="#2C4F02"/>
<path d="M136.946 307.495H244.665V296.742H136.946V307.495Z" fill="#2C4F02"/>
<path d="M133 321.252H244.665V310.106H133V321.252Z" fill="#2C4F02"/>
<path d="M139.888 219.059H163.285V214.651H139.888V219.059Z" fill="#2C4F02"/>
<path d="M139.888 283.405H163.285V278.997H139.888V283.405Z" fill="#2C4F02"/>
<path d="M143.426 281.443H159.746V216.855H143.426V281.443Z" fill="#2C4F02"/>
<path d="M193.825 161L248 197.6H139.65L193.825 161Z" fill="#2C4F02"/>
<path d="M248 202.115H139.65V211.265H248V202.115Z" fill="#2C4F02"/>
<path d="M106.883 400.523C108.683 393.874 110.24 387.963 110.837 385.277C111.637 389.858 112.612 395.216 113.594 400.523H162.212C155.988 372.07 145.62 324.895 143.379 316.119C123.814 314.584 97.7114 313.724 78.1455 312.189C74.7117 326.147 63.5109 372.061 56.5703 400.523H106.883Z" fill="#3B6A03"/>
<path d="M144.558 354.668C137.502 354.668 131.762 348.928 131.762 341.873C131.762 341.637 131.953 341.446 132.189 341.446C132.424 341.446 132.615 341.637 132.615 341.873C132.615 348.458 137.973 353.815 144.558 353.815C144.794 353.815 144.985 354.006 144.985 354.242C144.985 354.477 144.794 354.668 144.558 354.668Z" fill="white"/>
<path d="M148.914 340.214H71.2866L73.4169 331.496H146.955L148.914 340.214Z" fill="#4F2704"/>
<path d="M118.886 342.299H108.182C107.946 342.299 107.755 342.108 107.755 341.872V330.034C107.755 329.798 107.946 329.607 108.182 329.607H118.886C119.121 329.607 119.312 329.798 119.312 330.034V341.872C119.312 342.108 119.121 342.299 118.886 342.299ZM108.608 341.446H118.459V330.461H108.608V341.446Z" fill="#EFBC73"/>
<path d="M233.295 277.39C236.169 275.794 240.78 272.931 239.887 270.964C239.025 269.307 234.872 271.257 231.878 272.825C231.877 272.825 231.877 272.824 231.877 272.824C235.533 270.34 236.764 268.526 236.049 267.507C235.021 266.042 230.741 269.647 223.761 269.029C217.609 268.485 214.425 265.233 209.387 267.014C208.028 267.495 207.121 268.135 206.606 268.494C201.865 271.806 178.433 290.279 176.779 291.527C169.839 296.765 197.228 307.765 202.227 303.736C213.824 294.392 215.257 292.63 219.747 288.55C219.748 288.55 219.749 288.55 219.749 288.55C222.059 288.892 225.733 289.348 229.899 288.072C233.6 286.939 237.498 285.059 237.505 283.276C237.508 282.3 236.501 281.926 232.8 282.66V282.659C237.497 280.285 239.846 278.159 239.452 276.516C239.202 275.472 236.774 275.459 233.295 277.39Z" fill="#FDFFFD"/>
<path d="M218.001 269.846C223.367 265.454 224.371 262.733 223.648 261.905C222.432 260.513 216.316 262.387 207.666 267.818C210.495 268.641 215.173 269.023 218.001 269.846Z" fill="#FDFFFD"/>
<path d="M220.061 268.508C220.031 268.508 220.001 268.505 219.97 268.498C217.463 267.957 214.521 267.577 212.849 267.453C212.614 267.436 212.438 267.232 212.455 266.997C212.473 266.762 212.681 266.587 212.912 266.603C214.612 266.729 217.603 267.114 220.15 267.664C220.381 267.714 220.527 267.941 220.477 268.171C220.434 268.371 220.257 268.508 220.061 268.508Z" fill="#3B6A03"/>
<path d="M226.607 274.278C226.255 274.278 225.926 274.262 225.627 274.248C225.392 274.237 225.21 274.037 225.221 273.802C225.233 273.566 225.435 273.387 225.667 273.396C226.386 273.431 227.2 273.47 228.09 273.292C229.191 273.072 230.879 272.469 232.494 271.72C232.71 271.621 232.962 271.714 233.06 271.928C233.159 272.141 233.066 272.395 232.853 272.494C231.156 273.282 229.438 273.892 228.257 274.128C227.671 274.245 227.115 274.278 226.607 274.278Z" fill="#3B6A03"/>
<path d="M227.721 278.552C227.635 278.552 227.556 278.55 227.485 278.547C227.25 278.536 227.069 278.336 227.08 278.1C227.091 277.865 227.294 277.68 227.526 277.695C228.174 277.725 229.882 277.568 230.822 277.359C231.548 277.198 232.467 276.892 233.633 276.425C233.852 276.338 234.099 276.444 234.188 276.663C234.275 276.881 234.169 277.13 233.95 277.217C232.741 277.702 231.778 278.021 231.007 278.192C230.135 278.386 228.585 278.552 227.721 278.552Z" fill="#3B6A03"/>
<path d="M227.302 284.196C227.076 284.196 226.85 284.191 226.624 284.18C226.388 284.169 226.207 283.969 226.218 283.734C226.229 283.498 226.437 283.318 226.665 283.328C227.483 283.369 228.306 283.331 229.113 283.22C229.887 283.113 231.36 282.859 232.53 282.35C232.746 282.255 232.998 282.355 233.092 282.57C233.186 282.786 233.087 283.037 232.871 283.131C231.607 283.681 230.047 283.952 229.229 284.064C228.593 284.152 227.947 284.196 227.302 284.196Z" fill="#3B6A03"/>
<path d="M49.4113 278.694C42.4298 290.828 15.5931 329.884 30.3805 339.552C42.1468 347.244 66.1836 310.119 73.8976 298.519C65.6291 292.761 57.6798 284.451 49.4113 278.694Z" fill="#FDFFFD"/>
<path d="M28.9248 315.283C28.9248 315.283 48.0096 271.083 60.9102 260.018C71.1463 251.239 93.208 247.78 114.016 248.161C142.188 248.676 155 260.54 155 260.54L178.444 288.762L201.639 272.027L215.761 292.302C215.761 292.302 191.233 319.407 180.201 321.343C164.199 324.15 143.888 308.489 143.888 308.489L146.167 328.017L68.9324 329.594L72.3668 306.955L63.1492 317.566L28.9248 315.283Z" fill="#3B6A03"/>
<path d="M141.597 256.698C141.573 256.698 141.55 256.696 141.526 256.692L124.966 253.915C124.829 253.892 124.712 253.803 124.652 253.678C124.592 253.552 124.597 253.405 124.666 253.284L126.928 249.298C127.017 249.141 127.195 249.058 127.371 249.088L144.082 251.96C144.221 251.984 144.34 252.076 144.399 252.205C144.457 252.334 144.447 252.484 144.372 252.605L141.959 256.496C141.88 256.623 141.743 256.698 141.597 256.698ZM125.709 253.175L141.385 255.804L143.314 252.693L127.522 249.979L125.709 253.175Z" fill="white"/>
<path d="M72.9603 258.052C72.8143 258.052 72.6766 257.977 72.5979 257.851L70.185 253.959C70.1104 253.838 70.1005 253.688 70.1585 253.559C70.2167 253.43 70.3355 253.338 70.4751 253.314L87.1859 250.442C87.3619 250.412 87.5404 250.496 87.629 250.652L89.891 254.638C89.9596 254.759 89.9651 254.906 89.9051 255.032C89.8453 255.158 89.728 255.246 89.5906 255.269L73.0309 258.046C73.0073 258.05 72.9837 258.052 72.9603 258.052ZM71.2433 254.047L73.1719 257.158L88.8484 254.529L87.035 251.333L71.2433 254.047Z" fill="white"/>
<path d="M203.646 295.775C203.516 295.775 203.386 295.715 203.303 295.602L191.37 279.442C191.231 279.252 191.271 278.985 191.46 278.845C191.65 278.705 191.917 278.746 192.057 278.935L203.989 295.096C204.129 295.285 204.089 295.552 203.899 295.692C203.823 295.748 203.734 295.775 203.646 295.775Z" fill="white"/>
<path d="M83.4369 288.313L67.229 340.851L107.705 353.337L123.913 300.799L83.4369 288.313Z" fill="#FFDA48"/>
<path d="M95.8386 289.83L93.9678 295.894L110.94 301.13L112.811 295.066L95.8386 289.83Z" fill="#EFBC73"/>
<path d="M79.5905 320.241C92.5307 323.516 86.7788 321.605 89.7666 322.331C95.352 323.687 107.335 326.246 107.214 330.188C107.174 331.499 106.241 332.738 104.853 333.469C105.956 334.739 106.204 336.521 105.488 337.964C104.546 339.86 102.451 340.14 102.296 340.158C103.273 341.021 103.75 342.288 103.483 343.445C103.115 345.04 101.375 346.229 99.4115 345.967C99.5331 346.316 99.9234 347.573 99.3367 348.883C98.6866 350.333 97.0998 351.262 95.3182 351.225C90.3547 350.024 82.1567 349.255 72.6012 347.804C50.4802 344.444 71.0338 324.25 79.5905 320.241Z" fill="#FDFFFD"/>
<path d="M98.9058 330.462C98.8633 330.462 98.8205 330.456 98.778 330.443C98.5532 330.372 98.4281 330.133 98.4987 329.908L99.2553 327.495C99.3255 327.27 99.5651 327.145 99.7897 327.216C100.014 327.286 100.14 327.526 100.069 327.75L99.3123 330.164C99.2553 330.346 99.0872 330.462 98.9058 330.462Z" fill="#3B6A03"/>
<path d="M96.9947 336.59C96.9523 336.59 96.9094 336.583 96.867 336.57C96.6421 336.5 96.517 336.26 96.5876 336.036L97.3441 333.622C97.4144 333.397 97.6538 333.272 97.8787 333.343C98.1034 333.413 98.2286 333.652 98.158 333.877L97.4014 336.29C97.3443 336.473 97.1761 336.59 96.9947 336.59Z" fill="#3B6A03"/>
<path d="M95.1172 342.849C95.0749 342.849 95.032 342.843 94.9894 342.829C94.7647 342.759 94.6395 342.52 94.7101 342.295L95.4667 339.882C95.5369 339.657 95.7767 339.531 96.0009 339.602C96.2258 339.673 96.3509 339.912 96.2804 340.136L95.5238 342.55C95.4669 342.732 95.2986 342.849 95.1172 342.849Z" fill="#3B6A03"/>
<path d="M93.2979 348.491C93.2554 348.491 93.2126 348.485 93.1701 348.472C92.9453 348.401 92.8202 348.162 92.8908 347.937L93.6474 345.524C93.7178 345.299 93.957 345.174 94.1817 345.245C94.4065 345.315 94.5316 345.554 94.461 345.779L93.7044 348.192C93.6472 348.374 93.4791 348.491 93.2979 348.491Z" fill="#3B6A03"/>
<path d="M63.6601 316.977L82.8882 320.976L75.0965 348.446L34.8113 342.001C29.7353 341.189 26.0012 336.815 26.0002 331.68L26 330.725C25.999 325.174 27.0933 319.677 29.2201 314.548L63.6601 316.977Z" fill="#3B6A03"/>
<path d="M63.1156 346.561C63.0808 346.561 63.0458 346.557 63.0108 346.548C62.7824 346.49 62.6439 346.259 62.7015 346.03L67.3766 327.519C67.4344 327.291 67.6683 327.153 67.8945 327.21C68.1229 327.268 68.2614 327.499 68.2038 327.728L63.5287 346.239C63.4798 346.432 63.3061 346.561 63.1156 346.561Z" fill="white"/>
<path d="M80.0339 221.977C84.0512 218.946 85.7493 218.828 89.5202 216.556C91.607 215.299 94.156 211.101 96.6549 213.94C98.3802 215.9 98.0174 219.911 95.4259 221.768C91.2962 224.727 88.1859 222.452 84.6233 225.88C81.9377 228.463 80.9098 233.863 83.501 237.112C85.4356 239.538 88.6199 239.804 89.4856 239.848C88.5102 241.645 87.5349 243.442 86.5596 245.239C83.8122 244.022 82.2495 242.72 80.3992 240.725C81.2073 243.25 82.5216 244.696 85.2619 246.505C83.705 247.44 82.1481 248.375 80.5915 249.31C76.6523 245.744 75.4182 242.1 74.9778 240.363C73.1409 233.118 75.3795 225.488 80.0339 221.977Z" fill="#EFBC73"/>
<path d="M85.2249 227.217C85.006 227.217 84.8198 227.05 84.8006 226.827L83.9572 217.099C83.9473 216.987 83.9827 216.874 84.0554 216.788C84.1283 216.701 84.2324 216.647 84.345 216.638L88.5143 216.276C88.7506 216.253 88.9556 216.429 88.9759 216.664L89.8194 226.393C89.8292 226.505 89.7938 226.617 89.7211 226.704C89.6482 226.79 89.5441 226.845 89.4314 226.854L85.2621 227.215C85.2497 227.217 85.2371 227.217 85.2249 227.217ZM84.8435 217.45L85.6133 226.329L88.9332 226.041L88.1635 217.163L84.8435 217.45Z" fill="#3B6A03"/>
<path d="M100.475 208.93C101.019 208.649 106.267 206.039 111.016 208.444C114.55 210.233 116.257 213.66 118.25 219.84C120.598 227.117 120.985 231.796 119.504 234.009C117.164 237.506 105.533 236.42 99.4315 231.683C95.027 228.264 93.0292 222.393 94.0355 216.869C95.039 211.361 100.128 209.11 100.475 208.93Z" fill="#FDFFFD"/>
<path d="M106.423 255.861H105.925C102.326 255.861 99.4077 252.943 99.4077 249.344V229.26C99.4077 225.66 102.326 222.743 105.925 222.743H106.423C110.022 222.743 112.94 225.66 112.94 229.26V249.344C112.94 252.943 110.022 255.861 106.423 255.861Z" fill="#FDFFFD"/>
<path d="M112.94 236.718C112.937 236.718 112.935 236.718 112.932 236.718C107.99 236.629 102.611 234.875 99.2289 232.249C99.043 232.105 99.0092 231.837 99.1534 231.651C99.2979 231.465 99.5658 231.431 99.7518 231.576C102.998 234.096 108.178 235.779 112.948 235.865C113.183 235.869 113.37 236.063 113.366 236.299C113.362 236.532 113.172 236.718 112.94 236.718Z" fill="#3B6A03"/>
<path d="M105.883 221.24C105.883 221.24 107.359 223.058 109.652 224.011C110.135 224.212 110.84 219.934 110.289 219.961C107.85 220.08 105.883 221.24 105.883 221.24Z" fill="white"/>
<path d="M117.319 223.299C117.319 223.299 114.362 225.043 111.204 224.474C110.652 224.375 110.131 224.21 109.646 224.008C109.123 222.598 109.405 221.075 110.278 219.962C110.833 219.934 111.412 219.96 111.998 220.065C115.156 220.634 117.319 223.299 117.319 223.299Z" fill="#3B6A03"/>
<path d="M112.215 240.433C112.065 240.433 111.92 240.354 111.842 240.213C110.414 237.63 108.105 232.278 108.691 225.448C109.225 219.234 111.838 214.66 113.936 211.917C114.079 211.73 114.348 211.695 114.533 211.838C114.721 211.98 114.756 212.248 114.613 212.435C112.584 215.088 110.057 219.512 109.541 225.522C108.974 232.126 111.207 237.303 112.588 239.8C112.702 240.006 112.628 240.266 112.422 240.38C112.356 240.416 112.285 240.433 112.215 240.433Z" fill="#EFBC73"/>
<path d="M115.737 229.244C115.481 229.244 115.224 229.194 114.983 229.088C114.186 228.738 113.887 227.92 113.836 227.492C113.808 227.258 113.975 227.046 114.208 227.018C114.442 226.989 114.654 227.157 114.682 227.391C114.686 227.417 114.775 228.065 115.325 228.307C115.768 228.501 116.313 228.356 116.65 227.955C116.801 227.774 117.07 227.75 117.251 227.901C117.431 228.052 117.455 228.321 117.304 228.502C116.903 228.982 116.32 229.244 115.737 229.244Z" fill="#3B6A03"/>
<path d="M118.481 222.343C118.598 222.696 118.82 223.196 119.269 223.626C119.81 224.146 120.28 224.181 120.43 224.585C120.531 224.857 120.496 225.315 119.796 226.121L118.481 222.343Z" fill="#FDFFFD"/>
<path d="M119.796 226.547C119.697 226.547 119.597 226.513 119.516 226.443C119.339 226.288 119.32 226.019 119.474 225.841C120.103 225.118 120.059 224.81 120.031 224.733C120.002 224.655 119.917 224.599 119.702 224.47C119.499 224.348 119.247 224.197 118.974 223.934C118.571 223.548 118.269 223.057 118.076 222.477C118.002 222.253 118.123 222.012 118.347 221.938C118.571 221.864 118.812 221.985 118.886 222.209C119.034 222.656 119.262 223.029 119.564 223.319C119.768 223.515 119.958 223.629 120.141 223.739C120.413 223.902 120.694 224.071 120.83 224.437C121.03 224.977 120.797 225.62 120.118 226.401C120.034 226.498 119.915 226.547 119.796 226.547Z" fill="#3B6A03"/>
<path d="M102.501 230.911C101.611 230.911 100.691 230.672 99.8508 230.209C99.6444 230.095 99.5692 229.836 99.6829 229.63C99.7966 229.423 100.056 229.349 100.262 229.462C101.325 230.047 102.526 230.212 103.558 229.913C103.783 229.846 104.02 229.977 104.086 230.203C104.151 230.429 104.021 230.666 103.795 230.731C103.38 230.852 102.945 230.911 102.501 230.911Z" fill="#3B6A03"/>
<path d="M90.9297 209.376C99.1935 199.31 114.775 205.154 116.079 214.099C116.079 214.099 110.508 210.243 110.481 210.141C110.096 211.874 109.289 214.464 107.473 217.148C104.668 221.294 101.034 223.331 99.2254 224.191C99.935 227.132 100.87 233.095 101.677 236.887C101.677 236.887 77.3081 225.969 90.9297 209.376Z" fill="#EFBC73"/>
<path d="M105.396 229.163C106.924 227.516 106.584 224.715 104.635 222.906C102.686 221.098 99.8673 220.967 98.3389 222.614C96.8104 224.262 97.151 227.063 99.0998 228.871C101.048 230.68 103.867 230.81 105.396 229.163Z" fill="#FDFFFD"/>
<path d="M100.858 228.126C100.778 228.126 100.698 228.104 100.626 228.057C100.467 227.954 100.316 227.836 100.178 227.707C99.6258 227.195 99.2743 226.526 99.1891 225.826C99.1005 225.099 99.3065 224.423 99.7691 223.925C100.005 223.672 100.291 223.481 100.62 223.357C100.839 223.273 101.086 223.385 101.169 223.605C101.252 223.826 101.141 224.072 100.92 224.155C100.716 224.232 100.539 224.35 100.394 224.505C100.105 224.816 99.9779 225.249 100.036 225.723C100.096 226.224 100.353 226.706 100.758 227.082C100.861 227.178 100.973 227.265 101.091 227.342C101.288 227.471 101.344 227.735 101.216 227.932C101.134 228.058 100.997 228.126 100.858 228.126Z" fill="#3B6A03"/>
<path d="M112.846 208.537L112.874 203.09C112.874 203.09 102.162 207.686 98.9263 209.514C95.765 211.299 87.0283 217.538 87.0283 217.538L89.6044 221.448L112.846 208.537Z" fill="#FFDA48"/>
<path d="M81.1253 214.243L87.0279 217.538C87.0279 217.538 101.398 206.859 112.876 203.774L114.397 195.187C114.511 194.504 113.812 193.891 113.001 194.017C106.984 194.955 91.736 200.497 80.4606 212.526C79.962 213.059 80.4565 213.869 81.1253 214.243Z" fill="#3B6A03"/>
<path d="M112.831 208.531C112.831 208.531 116.196 208.526 117.254 208.518C118.909 208.505 121.097 208.857 121.471 209.816C121.749 210.527 122.294 211.176 117.135 212.728C109.31 215.083 89.5435 221.445 89.5435 221.445C89.5435 221.445 98.6188 216.062 101.728 214.338C104.441 212.834 112.831 208.531 112.831 208.531Z" fill="#3B6A03"/>
<path d="M139.811 174.485C139.793 174.485 139.775 174.484 139.758 174.481C139.679 174.467 139.609 174.422 139.563 174.356L123.026 150.675C122.93 150.538 122.964 150.35 123.101 150.254L133.407 143.055C133.472 143.009 133.555 142.99 133.633 143.005C133.711 143.019 133.782 143.064 133.828 143.13L150.365 166.811C150.46 166.948 150.427 167.136 150.29 167.232L139.984 174.431C139.933 174.467 139.872 174.485 139.811 174.485ZM123.695 150.577L139.885 173.762L149.696 166.909L133.505 143.724L123.695 150.577Z" fill="#FFDA48"/>
<path d="M139.811 174.183L136.866 173.398L125.134 156.598L125.524 153.724L126.224 150.838L129.658 148.439L132.608 148.775L135.44 149.399L147.172 166.199L146.895 169.234L146.195 172.12L142.761 174.519L139.811 174.183Z" fill="#FFDA48"/>
<path d="M137.536 165.468C139.736 164.736 140.926 162.36 140.194 160.159C139.462 157.959 137.086 156.769 134.886 157.5C132.686 158.232 131.497 160.608 132.228 162.809C132.96 165.009 135.337 166.199 137.536 165.468Z" fill="#EFBC73"/>
<path d="M129.659 148.439C131.003 150.271 133.568 150.706 135.441 149.399L133.094 146.039L129.659 148.439Z" fill="#EFBC73"/>
<path d="M126.224 150.838L122.788 153.238L125.134 156.598C127.006 155.289 127.48 152.731 126.224 150.838Z" fill="#EFBC73"/>
<path d="M146.137 172.044C146.155 172.07 146.177 172.094 146.196 172.12L149.631 169.72L147.173 166.199C145.273 167.527 144.809 170.143 146.137 172.044Z" fill="#EFBC73"/>
<path d="M139.326 176.92L142.761 174.52C142.744 174.493 142.729 174.465 142.71 174.438C141.383 172.537 138.767 172.072 136.867 173.399L139.326 176.92Z" fill="#EFBC73"/>
<path d="M138.84 179.958C138.822 179.958 138.804 179.957 138.787 179.953C138.708 179.939 138.638 179.895 138.592 179.829L122.054 156.148C121.959 156.011 121.992 155.822 122.129 155.727L132.435 148.528C132.501 148.481 132.582 148.463 132.661 148.478C132.74 148.491 132.81 148.536 132.856 148.602L149.394 172.284C149.489 172.42 149.456 172.609 149.319 172.704L139.013 179.903C138.962 179.939 138.901 179.958 138.84 179.958ZM122.724 156.049L138.914 179.234L148.725 172.382L132.534 149.196L122.724 156.049Z" fill="white"/>
<path d="M70.1636 188.515C70.0387 188.515 69.9218 188.438 69.8781 188.313L66.0168 177.27C65.9905 177.195 65.9952 177.112 66.0301 177.039C66.0647 176.967 66.1269 176.912 66.2026 176.885L91.5743 168.017C91.7329 167.962 91.9045 168.045 91.9598 168.203L95.8211 179.245C95.8474 179.32 95.8426 179.404 95.8077 179.476C95.7732 179.548 95.7109 179.604 95.6352 179.63L70.2635 188.499C70.2303 188.51 70.1967 188.515 70.1636 188.515ZM66.6876 177.356L70.3494 187.828L95.1499 179.159L91.4882 168.688L66.6876 177.356Z" fill="#FFDA48"/>
<path d="M95.5349 179.344L94.0923 181.785L76.0929 188.077L73.6158 187.006L71.2059 185.654L69.9189 181.974L70.9613 179.415L72.2314 177.035L90.2309 170.743L92.8805 171.754L95.2905 173.106L96.5773 176.786L95.5349 179.344Z" fill="#FFDA48"/>
<path d="M83.4346 183.27C85.5896 183.166 87.2521 181.335 87.1479 179.18C87.0437 177.026 85.2123 175.364 83.0573 175.468C80.9022 175.572 79.2397 177.403 79.3439 179.557C79.4481 181.712 81.2795 183.374 83.4346 183.27Z" fill="#EFBC73"/>
<path d="M69.9191 181.974C71.8977 181.229 72.9323 179.04 72.2316 177.034L68.6318 178.293L69.9191 181.974Z" fill="#EFBC73"/>
<path d="M71.2061 185.654L72.4933 189.336L76.093 188.077C75.3908 186.071 73.2178 185.004 71.2061 185.654Z" fill="#EFBC73"/>
<path d="M95.2075 173.14C95.236 173.13 95.2625 173.116 95.2906 173.106L94.0032 169.425L90.231 170.743C90.9435 172.779 93.1712 173.851 95.2075 173.14Z" fill="#EFBC73"/>
<path d="M97.8648 180.467L96.5775 176.785C96.5489 176.795 96.52 176.801 96.4915 176.811C94.4552 177.522 93.3814 179.749 94.0925 181.785L97.8648 180.467Z" fill="#EFBC73"/>
<path d="M74.8232 190.76C74.6983 190.76 74.5814 190.682 74.5377 190.558L70.676 179.516C70.6496 179.44 70.6544 179.357 70.6893 179.284C70.7238 179.212 70.7861 179.157 70.8617 179.13L96.2334 170.262C96.3914 170.207 96.5635 170.29 96.6188 170.447L100.48 181.49C100.506 181.565 100.502 181.649 100.467 181.721C100.432 181.793 100.37 181.848 100.294 181.875L74.9229 190.743C74.89 190.755 74.8563 190.76 74.8232 190.76ZM71.3469 179.601L75.0089 190.073L99.8092 181.404L96.1475 170.932L71.3469 179.601Z" fill="white"/>
</g>
</g>
<defs>
<clipPath id="clip0_1_799">
<rect x="20" y="134" width="252" height="258" rx="20" fill="white"/>
</clipPath>
<clipPath id="clip1_1_799">
<rect x="20" y="134" width="252" height="258" rx="20" fill="white"/>
</clipPath>
</defs>
</svg>
