<svg width="47" height="46" viewBox="0 0 47 46" fill="none" xmlns="http://www.w3.org/2000/svg">
<mask id="mask0_31_2641" style="mask-type:luminance" maskUnits="userSpaceOnUse" x="0" y="0" width="47" height="46">
<path d="M0.317688 0.145752H46.2708V45.9999H0.317688V0.145752Z" fill="white"/>
</mask>
<g mask="url(#mask0_31_2641)">
<path d="M46.0208 22.9947C46.0208 23.7447 45.9844 24.4895 45.9114 25.2343C45.8385 25.9791 45.7291 26.7187 45.5833 27.453C45.4375 28.1874 45.2552 28.9114 45.0364 29.6301C44.8177 30.3437 44.5677 31.0468 44.2812 31.7395C43.9948 32.4322 43.6771 33.1093 43.3229 33.7655C42.9687 34.427 42.5833 35.0676 42.1719 35.6926C41.7552 36.3124 41.3073 36.9166 40.8333 37.4947C40.3594 38.0728 39.8594 38.6249 39.3281 39.1562C38.7969 39.6822 38.2448 40.1874 37.6666 40.6614C37.0885 41.1353 36.4896 41.578 35.8646 41.9947C35.2448 42.4114 34.5989 42.7968 33.9427 43.151C33.2812 43.4999 32.6041 43.8228 31.9166 44.1093C31.2239 44.3958 30.5208 44.6458 29.8021 44.8645C29.0885 45.078 28.3594 45.2603 27.625 45.4062C26.8958 45.552 26.1562 45.6614 25.4114 45.7395C24.6666 45.8124 23.9166 45.8489 23.1666 45.8489C22.4219 45.8489 21.6719 45.8124 20.9271 45.7395C20.1823 45.6614 19.4427 45.552 18.7135 45.4062C17.9791 45.2603 17.25 45.078 16.5364 44.8645C15.8177 44.6458 15.1146 44.3958 14.4219 44.1093C13.7344 43.8228 13.0573 43.4999 12.3958 43.151C11.7396 42.7968 11.0937 42.4114 10.4739 41.9947C9.84894 41.578 9.24998 41.1353 8.67185 40.6614C8.09373 40.1874 7.54165 39.6822 7.0104 39.1562C6.47915 38.6249 5.97915 38.0728 5.50519 37.4947C5.03123 36.9166 4.58331 36.3124 4.16665 35.6926C3.75519 35.0676 3.36977 34.427 3.0156 33.7655C2.66144 33.1093 2.34373 32.4322 2.05727 31.7395C1.77081 31.0468 1.52081 30.3437 1.30206 29.6301C1.08331 28.9114 0.901021 28.1874 0.755188 27.453C0.609355 26.7187 0.49998 25.9791 0.427063 25.2343C0.354147 24.4895 0.317688 23.7447 0.317688 22.9947C0.317688 22.2499 0.354147 21.4999 0.427063 20.7551C0.49998 20.0103 0.609355 19.2708 0.755188 18.5364C0.901021 17.802 1.08331 17.078 1.30206 16.3645C1.52081 15.6458 1.77081 14.9426 2.05727 14.2499C2.34373 13.5572 2.66144 12.8853 3.0156 12.2239C3.36977 11.5624 3.75519 10.9218 4.16665 10.302C4.58331 9.677 5.03123 9.07804 5.50519 8.49992C5.97915 7.92179 6.47915 7.3645 7.0104 6.83846C7.54165 6.30721 8.09373 5.80721 8.67185 5.33325C9.24998 4.85409 9.84894 4.41138 10.4739 3.99471C11.0937 3.57804 11.7396 3.19784 12.3958 2.84367C13.0573 2.4895 13.7344 2.17179 14.4219 1.88534C15.1146 1.59888 15.8177 1.34367 16.5364 1.13013C17.25 0.911378 17.9791 0.729085 18.7135 0.583252C19.4427 0.437419 20.1823 0.328044 20.9271 0.255127C21.6719 0.182211 22.4219 0.145752 23.1666 0.145752C23.9166 0.145752 24.6666 0.182211 25.4114 0.255127C26.1562 0.328044 26.8958 0.437419 27.625 0.583252C28.3594 0.729085 29.0885 0.911378 29.8021 1.13013C30.5208 1.34367 31.2239 1.59888 31.9166 1.88534C32.6041 2.17179 33.2812 2.4895 33.9427 2.84367C34.5989 3.19784 35.2448 3.57804 35.8646 3.99471C36.4896 4.41138 37.0885 4.85409 37.6666 5.33325C38.2448 5.80721 38.7969 6.30721 39.3281 6.83846C39.8594 7.3645 40.3594 7.92179 40.8333 8.49992C41.3073 9.07804 41.7552 9.677 42.1719 10.302C42.5833 10.9218 42.9687 11.5624 43.3229 12.2239C43.6771 12.8853 43.9948 13.5572 44.2812 14.2499C44.5677 14.9426 44.8177 15.6458 45.0364 16.3645C45.2552 17.078 45.4375 17.802 45.5833 18.5364C45.7291 19.2708 45.8385 20.0103 45.9114 20.7551C45.9844 21.4999 46.0208 22.2499 46.0208 22.9947Z" fill="white"/>
</g>
<mask id="mask1_31_2641" style="mask-type:luminance" maskUnits="userSpaceOnUse" x="10" y="6" width="27" height="33">
<path d="M10.1354 6.2605H36.1093V38.2292H10.1354V6.2605Z" fill="white"/>
</mask>
<g mask="url(#mask1_31_2641)">
<path d="M35.5208 33.4531L31.9218 27.151C32.1979 27.0573 32.4583 26.9271 32.7083 26.7708C32.9531 26.6146 33.177 26.4271 33.3802 26.2188C33.5833 26.0052 33.7604 25.776 33.9114 25.526C34.0625 25.2708 34.1823 25.0052 34.2656 24.724C34.3541 24.4479 34.4062 24.1615 34.427 23.8698C34.4479 23.5729 34.4375 23.2865 34.3854 22.9948C34.3385 22.7083 34.2604 22.4271 34.1458 22.1563C34.0312 21.8854 33.8906 21.6302 33.7187 21.3958C33.4739 21.0625 33.2864 20.7031 33.1562 20.3073C33.026 19.9167 32.9635 19.5156 32.9635 19.1042C32.9635 18.6927 33.026 18.2865 33.1562 17.8958C33.2864 17.5052 33.4739 17.1406 33.7187 16.8073C34.1562 16.2135 34.3958 15.5417 34.4323 14.8021C34.4739 14.0625 34.3073 13.3698 33.9375 12.7292C33.5677 12.0885 33.052 11.599 32.3906 11.2604C31.7291 10.9271 31.0312 10.7969 30.2916 10.8802C29.8802 10.9271 29.4739 10.9063 29.0729 10.8229C28.6666 10.7396 28.2864 10.5937 27.9323 10.3906C27.5729 10.1823 27.2552 9.92708 26.9843 9.61979C26.7083 9.3125 26.4895 8.96875 26.3229 8.59375C26.0208 7.91146 25.5625 7.36979 24.9427 6.96354C24.3229 6.5625 23.6406 6.35938 22.8958 6.35938C22.1562 6.35938 21.4739 6.5625 20.8541 6.96354C20.2343 7.36979 19.7708 7.91146 19.4739 8.59375C19.3073 8.96875 19.0885 9.3125 18.8125 9.61979C18.5364 9.92708 18.2239 10.1823 17.8645 10.3906C17.5104 10.599 17.1302 10.7396 16.7239 10.8281C16.3229 10.9115 15.9114 10.9323 15.5052 10.8854C14.7656 10.8021 14.0677 10.9323 13.4062 11.2656C12.7448 11.599 12.2291 12.0885 11.8541 12.7344C11.4843 13.375 11.3229 14.0677 11.3593 14.8073C11.401 15.5469 11.6406 16.2187 12.0781 16.8177C12.3229 17.1458 12.5104 17.5104 12.6406 17.901C12.7656 18.2917 12.8333 18.6927 12.8333 19.1094C12.8333 19.5208 12.7656 19.9219 12.6406 20.3125C12.5104 20.7031 12.3229 21.0677 12.0781 21.401C11.9062 21.6354 11.7656 21.8906 11.651 22.1615C11.5364 22.4323 11.4583 22.7083 11.4062 23C11.3593 23.2865 11.3489 23.5781 11.3645 23.8698C11.3854 24.1667 11.4427 24.4479 11.526 24.7292C11.6145 25.0104 11.7343 25.276 11.8854 25.526C12.0312 25.7813 12.2083 26.0104 12.4114 26.224C12.6198 26.4323 12.8437 26.6146 13.0885 26.776C13.3385 26.9323 13.5989 27.0573 13.875 27.1563L10.276 33.4531C10.0729 33.8073 10.0729 34.1615 10.276 34.5156C10.4843 34.8698 10.7916 35.0469 11.1979 35.0469H14.8854L16.6927 37.7656C16.9062 38.0781 17.1979 38.2396 17.5781 38.2344H17.6145C18.0104 38.224 18.3073 38.0469 18.5052 37.7031L21.9218 31.7292C22.5729 31.9063 23.2239 31.9063 23.875 31.7292L27.2916 37.7031C27.4895 38.0469 27.7864 38.224 28.177 38.2344H28.2135C28.5937 38.2344 28.8906 38.0781 29.0989 37.7656L30.9114 35.0469H34.5937C35.0052 35.0469 35.3125 34.8698 35.5208 34.5156C35.7239 34.1615 35.7239 33.8073 35.5208 33.4531ZM17.5104 35.151L16.3437 33.3958C16.1302 33.0781 15.8333 32.9167 15.4531 32.9219H13.0312L16.2239 27.3281C16.9375 27.3802 17.5833 27.6094 18.1666 28.0208C18.75 28.4323 19.1875 28.9687 19.4739 29.625C19.6354 29.9844 19.8489 30.3125 20.1093 30.6094L17.5104 35.151ZM21.4218 28.7708C21.1614 28.1875 20.8229 27.6563 20.3958 27.1823C19.9687 26.7083 19.4791 26.3073 18.927 25.9896C18.375 25.6719 17.7864 25.4479 17.1614 25.3125C16.5364 25.1823 15.9062 25.151 15.2708 25.224C14.9531 25.2604 14.651 25.2083 14.3645 25.0625C14.0781 24.9167 13.8593 24.7031 13.6979 24.4219C13.5312 24.1458 13.4583 23.849 13.4739 23.526C13.4948 23.2031 13.5989 22.9115 13.7968 22.6563C14.1718 22.1406 14.4635 21.5833 14.6614 20.974C14.8593 20.3698 14.9583 19.7448 14.9583 19.1094C14.9583 18.4688 14.8593 17.8437 14.6614 17.2396C14.4635 16.6302 14.1718 16.0729 13.7968 15.5573C13.6041 15.3021 13.5 15.0104 13.4843 14.6927C13.4687 14.3698 13.5416 14.0729 13.6979 13.7969C13.8593 13.5208 14.0833 13.3073 14.3698 13.1615C14.651 13.0208 14.9531 12.9635 15.2708 13C15.9062 13.0729 16.5364 13.0417 17.1614 12.9115C17.7864 12.7813 18.3802 12.5573 18.9323 12.2344C19.4843 11.9167 19.9739 11.5208 20.401 11.0417C20.8229 10.5677 21.1666 10.0365 21.4218 9.44792C21.5468 9.15625 21.75 8.92187 22.0156 8.75C22.2812 8.57292 22.5781 8.48438 22.8958 8.48438C23.2187 8.48438 23.5104 8.57292 23.7812 8.75C24.0468 8.92187 24.2448 9.15625 24.375 9.44792C24.6302 10.0365 24.9739 10.5625 25.401 11.0417C25.8229 11.5156 26.3125 11.9115 26.8698 12.2344C27.4218 12.5521 28.0104 12.776 28.6354 12.9063C29.2604 13.0365 29.8906 13.0677 30.5208 13C30.8437 12.9635 31.1406 13.0208 31.427 13.1615C31.7135 13.3073 31.9375 13.5208 32.0989 13.7969C32.2552 14.0729 32.3281 14.3698 32.3125 14.6927C32.2916 15.0104 32.1927 15.3021 32 15.5573C31.625 16.0729 31.3333 16.6302 31.1354 17.2396C30.9375 17.8437 30.8333 18.4688 30.8333 19.1094C30.8333 19.7448 30.9375 20.3698 31.1354 20.974C31.3333 21.5833 31.625 22.1406 32 22.6563C32.1927 22.9167 32.2916 23.2031 32.3125 23.526C32.3281 23.8438 32.2552 24.1406 32.0989 24.4167C31.9375 24.6979 31.7135 24.9063 31.427 25.0521C31.1406 25.1979 30.8437 25.25 30.5208 25.2188C29.8906 25.1458 29.2604 25.1771 28.6354 25.3073C28.0104 25.4375 27.4218 25.6615 26.8645 25.9844C26.3125 26.3021 25.8229 26.6979 25.401 27.1771C24.9739 27.651 24.6302 28.1823 24.375 28.7656C24.2448 29.0573 24.0468 29.2917 23.7812 29.4688C23.5104 29.6406 23.2187 29.7292 22.8958 29.7292C22.5781 29.7292 22.2812 29.6406 22.0156 29.4688C21.75 29.2917 21.5468 29.0573 21.4218 28.7656V28.7708ZM30.3437 32.9219C29.9635 32.9219 29.6666 33.0781 29.4583 33.3906L28.2864 35.151L25.6927 30.6094C25.9531 30.3125 26.1666 29.9844 26.3281 29.625C26.6198 28.9687 27.052 28.4375 27.6354 28.026C28.2187 27.6146 28.8645 27.3802 29.5781 27.3281L32.7656 32.9219H30.3437Z" fill="#FFBD59"/>
</g>
<path d="M26.3281 22.6874L25.8177 19.6926L27.9896 17.5728C28.1458 17.427 28.1875 17.2499 28.1198 17.0468C28.0573 16.8437 27.9166 16.7291 27.7083 16.6978L24.7031 16.2655L23.3593 13.5416C23.2656 13.3489 23.1093 13.2551 22.8958 13.2551C22.6875 13.2551 22.5312 13.3489 22.4375 13.5416L21.0885 16.2655L18.0833 16.6978C17.875 16.7291 17.7343 16.8437 17.6718 17.0468C17.6041 17.2499 17.6458 17.427 17.8021 17.5728L19.9739 19.6926L19.4635 22.6874C19.4271 22.8958 19.4948 23.0624 19.6666 23.1874C19.8385 23.3124 20.0156 23.328 20.2083 23.2291L22.8958 21.8176L25.5833 23.2291C25.7708 23.328 25.9531 23.3124 26.125 23.1874C26.2968 23.0624 26.3646 22.8958 26.3281 22.6874Z" fill="#FFBD59"/>
</svg>
