<svg width="47" height="47" viewBox="0 0 47 47" fill="none" xmlns="http://www.w3.org/2000/svg">
<mask id="mask0_31_2644" style="mask-type:luminance" maskUnits="userSpaceOnUse" x="0" y="0" width="47" height="47">
<path d="M0.317688 0.151123H46.2708V46.1042H0.317688V0.151123Z" fill="white"/>
</mask>
<g mask="url(#mask0_31_2644)">
<path d="M46.0208 23.0053C46.0208 23.7553 45.9844 24.5001 45.9114 25.2449C45.8385 25.9897 45.7291 26.7292 45.5833 27.4636C45.4375 28.198 45.2552 28.922 45.0364 29.6355C44.8177 30.3542 44.5677 31.0574 44.2812 31.7501C43.9948 32.4428 43.6771 33.1147 43.3229 33.7761C42.9687 34.4376 42.5833 35.0782 42.1719 35.698C41.7552 36.323 41.3073 36.922 40.8333 37.5001C40.3594 38.0782 39.8594 38.6355 39.3281 39.1615C38.7969 39.6928 38.2448 40.1928 37.6666 40.6667C37.0885 41.1459 36.4896 41.5886 35.8646 42.0053C35.2448 42.422 34.5989 42.8074 33.9427 43.1563C33.2812 43.5105 32.6041 43.8282 31.9166 44.1147C31.2239 44.4011 30.5208 44.6563 29.8021 44.8699C29.0885 45.0886 28.3594 45.2709 27.625 45.4167C26.8958 45.5626 26.1562 45.672 25.4114 45.7449C24.6666 45.8178 23.9166 45.8542 23.1666 45.8542C22.4219 45.8542 21.6719 45.8178 20.9271 45.7449C20.1823 45.672 19.4427 45.5626 18.7135 45.4167C17.9791 45.2709 17.25 45.0886 16.5364 44.8699C15.8177 44.6563 15.1146 44.4011 14.4219 44.1147C13.7344 43.8282 13.0573 43.5105 12.3958 43.1563C11.7396 42.8074 11.0937 42.422 10.4739 42.0053C9.84894 41.5886 9.24998 41.1459 8.67185 40.6667C8.09373 40.1928 7.54165 39.6928 7.0104 39.1615C6.47915 38.6355 5.97915 38.0782 5.50519 37.5001C5.03123 36.922 4.58331 36.323 4.16665 35.698C3.75519 35.0782 3.36977 34.4376 3.0156 33.7761C2.66144 33.1147 2.34373 32.4428 2.05727 31.7501C1.77081 31.0574 1.52081 30.3542 1.30206 29.6355C1.08331 28.922 0.901021 28.198 0.755188 27.4636C0.609355 26.7292 0.49998 25.9897 0.427063 25.2449C0.354147 24.5001 0.317688 23.7553 0.317688 23.0053C0.317688 22.2553 0.354147 21.5105 0.427063 20.7657C0.49998 20.0209 0.609355 19.2813 0.755188 18.547C0.901021 17.8126 1.08331 17.0886 1.30206 16.3699C1.52081 15.6563 1.77081 14.9532 2.05727 14.2605C2.34373 13.5678 2.66144 12.8907 3.0156 12.2345C3.36977 11.573 3.75519 10.9324 4.16665 10.3074C4.58331 9.68758 5.03123 9.08862 5.50519 8.50529C5.97915 7.92716 6.47915 7.37508 7.0104 6.84383C7.54165 6.31779 8.09373 5.81258 8.67185 5.33862C9.24998 4.86467 9.84894 4.42196 10.4739 4.00529C11.0937 3.58862 11.7396 3.20321 12.3958 2.84904C13.0573 2.50008 13.7344 2.17716 14.4219 1.89071C15.1146 1.60425 15.8177 1.35425 16.5364 1.1355C17.25 0.921957 17.9791 0.739666 18.7135 0.593831C19.4427 0.447999 20.1823 0.338623 20.9271 0.260498C21.6719 0.187582 22.4219 0.151123 23.1666 0.151123C23.9166 0.151123 24.6666 0.187582 25.4114 0.260498C26.1562 0.338623 26.8958 0.447999 27.625 0.593831C28.3594 0.739666 29.0885 0.921957 29.8021 1.1355C30.5208 1.35425 31.2239 1.60425 31.9166 1.89071C32.6041 2.17716 33.2812 2.50008 33.9427 2.84904C34.5989 3.20321 35.2448 3.58862 35.8646 4.00529C36.4896 4.42196 37.0885 4.86467 37.6666 5.33862C38.2448 5.81258 38.7969 6.31779 39.3281 6.84383C39.8594 7.37508 40.3594 7.92716 40.8333 8.50529C41.3073 9.08862 41.7552 9.68758 42.1719 10.3074C42.5833 10.9324 42.9687 11.573 43.3229 12.2345C43.6771 12.8907 43.9948 13.5678 44.2812 14.2605C44.5677 14.9532 44.8177 15.6563 45.0364 16.3699C45.2552 17.0886 45.4375 17.8126 45.5833 18.547C45.7291 19.2813 45.8385 20.0209 45.9114 20.7657C45.9844 21.5105 46.0208 22.2553 46.0208 23.0053Z" fill="white"/>
</g>
<mask id="mask1_31_2644" style="mask-type:luminance" maskUnits="userSpaceOnUse" x="8" y="8" width="30" height="28">
<path d="M8.46875 8.32812H37.4375V36H8.46875V8.32812Z" fill="white"/>
</mask>
<g mask="url(#mask1_31_2644)">
<path d="M37.427 18.2396V11.1667C37.427 10.7865 37.3541 10.4271 37.2083 10.0781C37.0625 9.73437 36.8593 9.42708 36.5937 9.16146C36.3281 8.89583 36.0208 8.6875 35.6718 8.54688C35.3229 8.40104 34.9635 8.32812 34.5885 8.32812H23.7239C23.3489 8.32812 22.9843 8.40104 22.6406 8.54688C22.2916 8.6875 21.9843 8.89583 21.7187 9.16146C21.4531 9.42708 21.2448 9.73437 21.1041 10.0781C20.9583 10.4271 20.8854 10.7865 20.8854 11.1667V15.2188H12.7448C12.4531 15.2188 12.1718 15.276 11.9062 15.3854C11.6354 15.5 11.3958 15.6563 11.1927 15.8646C10.9843 16.0677 10.8281 16.3073 10.7187 16.5729C10.6041 16.8437 10.5468 17.125 10.5468 17.4115V31.7604H9.17183C8.97913 31.7604 8.81767 31.8281 8.68225 31.9583C8.54683 32.0938 8.47913 32.2552 8.47913 32.4479C8.47913 32.9063 8.56767 33.3437 8.74475 33.7656C8.91663 34.1875 9.16663 34.5625 9.48954 34.8854C9.81246 35.2083 10.1875 35.4583 10.6093 35.6302C11.0312 35.8073 11.4687 35.8958 11.927 35.8958H33.9791C34.4375 35.8958 34.875 35.8073 35.2968 35.6302C35.7187 35.4583 36.0937 35.2083 36.4166 34.8854C36.7395 34.5625 36.9895 34.1875 37.1614 33.7656C37.3385 33.3437 37.427 32.9063 37.427 32.4479C37.427 32.2552 37.3593 32.0938 37.2239 31.9583C37.0885 31.8281 36.927 31.7604 36.7343 31.7604H35.3593V20.9583C35.9687 20.7865 36.4635 20.4479 36.8489 19.9427C37.2291 19.4427 37.4218 18.875 37.427 18.2396ZM22.2656 11.1667C22.2656 10.9687 22.302 10.7865 22.375 10.6042C22.4479 10.4271 22.5573 10.2708 22.6927 10.1354C22.8281 9.99479 22.9895 9.89063 23.1666 9.81771C23.3437 9.74479 23.5312 9.70833 23.7239 9.70833H34.5885C34.7812 9.70833 34.9687 9.74479 35.1458 9.81771C35.3229 9.89063 35.4791 9.99479 35.6198 10.1354C35.7552 10.2708 35.8593 10.4271 35.9375 10.6042C36.0104 10.7865 36.0468 10.9687 36.0468 11.1667V18.2396C36.0468 18.4323 36.0104 18.6198 35.9375 18.7969C35.8593 18.9792 35.7552 19.1354 35.6198 19.2708C35.4791 19.4063 35.3229 19.5156 35.1458 19.5885C34.9687 19.6615 34.7812 19.6979 34.5885 19.6979H28.651C28.4843 19.6979 28.3385 19.75 28.2083 19.8594L24.7916 22.7083V20.3854C24.7916 20.1979 24.7239 20.0365 24.5885 19.901C24.4531 19.7656 24.2916 19.6979 24.0989 19.6979H23.7239C23.5312 19.6979 23.3437 19.6615 23.1666 19.5885C22.9895 19.5156 22.8281 19.4063 22.6927 19.2708C22.5573 19.1354 22.4479 18.9792 22.375 18.7969C22.302 18.6198 22.2656 18.4323 22.2656 18.2396V11.1667ZM33.9791 34.5156H11.927C11.4895 34.5156 11.0937 34.3906 10.7343 34.1354C10.375 33.8802 10.125 33.5521 9.97913 33.1354H35.927C35.7812 33.5521 35.5312 33.8802 35.1718 34.1354C34.8177 34.3906 34.4166 34.5156 33.9791 34.5156ZM20.6093 31.7604H15.375V29.5417C15.375 29.3125 15.4531 29.125 15.6093 28.9635C15.7708 28.8073 15.9635 28.724 16.1875 28.724H19.7968C20.0208 28.724 20.2135 28.8073 20.3698 28.9635C20.5312 29.125 20.6093 29.3125 20.6093 29.5417V31.7604ZM21.9895 31.7604V29.5417C21.9895 29.25 21.9323 28.9687 21.8229 28.7031C21.7083 28.4323 21.552 28.1979 21.3437 27.9896C21.1406 27.7865 20.9062 27.625 20.6354 27.5156C20.3645 27.4063 20.0885 27.349 19.7968 27.349H16.1875C15.8958 27.349 15.6198 27.4063 15.3489 27.5156C15.0781 27.625 14.8437 27.7865 14.6354 27.9896C14.4323 28.1979 14.276 28.4323 14.1614 28.7031C14.052 28.9687 13.9948 29.25 13.9948 29.5417V31.7604H11.927V17.4115C11.927 17.1875 12.0052 16.9948 12.1666 16.8385C12.3281 16.6771 12.5156 16.599 12.7448 16.599H20.8854V18.2396C20.8854 18.5885 20.9479 18.9271 21.0729 19.2552C21.1979 19.5781 21.3802 19.8698 21.6093 20.1302C21.8437 20.3906 22.1145 20.6042 22.427 20.7604C22.7343 20.9219 23.0677 21.0208 23.4114 21.0625V24.1771C23.4114 24.4688 23.5468 24.6771 23.8073 24.8021C23.901 24.8438 24 24.8646 24.0989 24.8698C24.2656 24.8646 24.4166 24.8125 24.5416 24.7083L28.901 21.0781H33.9791V31.7604H21.9895Z" fill="#FFBD59"/>
</g>
<path d="M25.3646 13.4949H32.9479C33.1354 13.4949 33.2969 13.4272 33.4323 13.297C33.5677 13.1615 33.6354 13.0001 33.6354 12.8074C33.6354 12.6147 33.5677 12.4532 33.4323 12.3178C33.2969 12.1876 33.1354 12.1199 32.9479 12.1199H25.3646C25.1771 12.1199 25.0104 12.1876 24.8802 12.3178C24.7448 12.4532 24.6771 12.6147 24.6771 12.8074C24.6771 13.0001 24.7448 13.1615 24.8802 13.297C25.0104 13.4272 25.1771 13.4949 25.3646 13.4949Z" fill="#FFBD59"/>
<path d="M25.3646 17.2865H29.1562C29.3437 17.2865 29.5104 17.2187 29.6406 17.0833C29.776 16.9479 29.8437 16.7865 29.8437 16.599C29.8437 16.4063 29.776 16.2448 29.6406 16.1094C29.5104 15.974 29.3437 15.9062 29.1562 15.9062H25.3646C25.1771 15.9062 25.0104 15.974 24.8802 16.1094C24.7448 16.2448 24.6771 16.4063 24.6771 16.599C24.6771 16.7865 24.7448 16.9479 24.8802 17.0833C25.0104 17.2187 25.1771 17.2865 25.3646 17.2865Z" fill="#FFBD59"/>
<path d="M17.9896 20.7344C17.6094 20.7344 17.2396 20.8073 16.8854 20.9531C16.5312 21.099 16.2187 21.3073 15.9427 21.5781C15.6719 21.849 15.4635 22.1667 15.3177 22.5208C15.1719 22.875 15.0989 23.2448 15.0989 23.625C15.0989 24.0104 15.1719 24.3802 15.3177 24.7344C15.4635 25.0885 15.6719 25.401 15.9427 25.6719C16.2187 25.9427 16.5312 26.1563 16.8854 26.3021C17.2396 26.4479 17.6094 26.5208 17.9896 26.5208C18.375 26.5208 18.7448 26.4479 19.0989 26.3021C19.4531 26.1563 19.7656 25.9427 20.0364 25.6719C20.3073 25.401 20.5208 25.0885 20.6666 24.7344C20.8125 24.3802 20.8854 24.0104 20.8854 23.625C20.8854 23.2448 20.8125 22.875 20.6666 22.5208C20.5208 22.1667 20.3073 21.849 20.0364 21.5781C19.7656 21.3073 19.4531 21.099 19.0989 20.9531C18.7448 20.8073 18.375 20.7344 17.9896 20.7344ZM17.9896 25.1406C17.7916 25.1406 17.5989 25.1042 17.4114 25.026C17.2239 24.9479 17.0625 24.8385 16.9219 24.6979C16.776 24.5573 16.6666 24.3906 16.5885 24.2083C16.5156 24.0208 16.4739 23.8281 16.4739 23.625C16.4739 23.4271 16.5156 23.2344 16.5885 23.0469C16.6666 22.8594 16.776 22.6979 16.9219 22.5573C17.0625 22.4115 17.2239 22.3021 17.4114 22.224C17.5989 22.151 17.7916 22.1094 17.9896 22.1094C18.1927 22.1094 18.3854 22.151 18.5729 22.224C18.7552 22.3021 18.9219 22.4115 19.0625 22.5573C19.2083 22.6979 19.3177 22.8594 19.3906 23.0469C19.4687 23.2344 19.5052 23.4271 19.5052 23.625C19.5052 23.8281 19.4687 24.0208 19.3906 24.2083C19.3177 24.3906 19.2083 24.5573 19.0625 24.6979C18.9219 24.8385 18.7552 24.9479 18.5729 25.026C18.3854 25.1042 18.1927 25.1406 17.9896 25.1406Z" fill="#FFBD59"/>
</svg>
