<svg width="47" height="47" viewBox="0 0 47 47" fill="none" xmlns="http://www.w3.org/2000/svg">
<mask id="mask0_31_2639" style="mask-type:luminance" maskUnits="userSpaceOnUse" x="0" y="0" width="47" height="47">
<path d="M0.317688 0.244873H46.2708V46.198H0.317688V0.244873Z" fill="white"/>
</mask>
<g mask="url(#mask0_31_2639)">
<path d="M46.0208 23.0938C46.0208 23.8438 45.9844 24.5886 45.9114 25.3334C45.8385 26.0782 45.7291 26.8178 45.5833 27.5522C45.4375 28.2865 45.2552 29.0105 45.0364 29.7292C44.8177 30.4428 44.5677 31.1459 44.2812 31.8386C43.9948 32.5313 43.6771 33.2084 43.3229 33.8647C42.9687 34.5261 42.5833 35.1667 42.1719 35.7917C41.7552 36.4115 41.3073 37.0105 40.8333 37.5886C40.3594 38.172 39.8594 38.724 39.3281 39.2501C38.7969 39.7813 38.2448 40.2813 37.6666 40.7605C37.0885 41.2345 36.4896 41.6772 35.8646 42.0938C35.2448 42.5105 34.5989 42.8959 33.9427 43.2449C33.2812 43.599 32.6041 43.922 31.9166 44.2084C31.2239 44.4949 30.5208 44.7449 29.8021 44.9636C29.0885 45.1772 28.3594 45.3595 27.625 45.5053C26.8958 45.6511 26.1562 45.7605 25.4114 45.8334C24.6666 45.9115 23.9166 45.948 23.1666 45.948C22.4219 45.948 21.6719 45.9115 20.9271 45.8334C20.1823 45.7605 19.4427 45.6511 18.7135 45.5053C17.9791 45.3595 17.25 45.1772 16.5364 44.9636C15.8177 44.7449 15.1146 44.4949 14.4219 44.2084C13.7344 43.922 13.0573 43.599 12.3958 43.2449C11.7396 42.8959 11.0937 42.5105 10.4739 42.0938C9.84894 41.6772 9.24998 41.2345 8.67185 40.7605C8.09373 40.2813 7.54165 39.7813 7.0104 39.2501C6.47915 38.724 5.97915 38.172 5.50519 37.5886C5.03123 37.0105 4.58331 36.4115 4.16665 35.7917C3.75519 35.1667 3.36977 34.5261 3.0156 33.8647C2.66144 33.2084 2.34373 32.5313 2.05727 31.8386C1.77081 31.1459 1.52081 30.4428 1.30206 29.7292C1.08331 29.0105 0.901021 28.2865 0.755188 27.5522C0.609355 26.8178 0.49998 26.0782 0.427063 25.3334C0.354147 24.5886 0.317688 23.8438 0.317688 23.0938C0.317688 22.3438 0.354147 21.599 0.427063 20.8542C0.49998 20.1095 0.609355 19.3699 0.755188 18.6355C0.901021 17.9011 1.08331 17.1772 1.30206 16.4584C1.52081 15.7449 1.77081 15.0417 2.05727 14.349C2.34373 13.6563 2.66144 12.9845 3.0156 12.323C3.36977 11.6615 3.75519 11.0209 4.16665 10.3959C4.58331 9.77612 5.03123 9.17716 5.50519 8.59904C5.97915 8.02091 6.47915 7.46362 7.0104 6.93758C7.54165 6.40633 8.09373 5.90633 8.67185 5.42716C9.24998 4.95321 9.84894 4.5105 10.4739 4.09383C11.0937 3.67716 11.7396 3.29175 12.3958 2.94279C13.0573 2.58862 13.7344 2.27092 14.4219 1.98446C15.1146 1.698 15.8177 1.44279 16.5364 1.22404C17.25 1.0105 17.9791 0.828206 18.7135 0.682373C19.4427 0.53654 20.1823 0.427164 20.9271 0.354248C21.6719 0.281332 22.4219 0.244873 23.1666 0.244873C23.9166 0.244873 24.6666 0.281332 25.4114 0.354248C26.1562 0.427164 26.8958 0.53654 27.625 0.682373C28.3594 0.828206 29.0885 1.0105 29.8021 1.22404C30.5208 1.44279 31.2239 1.698 31.9166 1.98446C32.6041 2.27092 33.2812 2.58862 33.9427 2.94279C34.5989 3.29175 35.2448 3.67716 35.8646 4.09383C36.4896 4.5105 37.0885 4.95321 37.6666 5.42716C38.2448 5.90633 38.7969 6.40633 39.3281 6.93758C39.8594 7.46362 40.3594 8.02091 40.8333 8.59904C41.3073 9.17716 41.7552 9.77612 42.1719 10.3959C42.5833 11.0209 42.9687 11.6615 43.3229 12.323C43.6771 12.9845 43.9948 13.6563 44.2812 14.349C44.5677 15.0417 44.8177 15.7449 45.0364 16.4584C45.2552 17.1772 45.4375 17.9011 45.5833 18.6355C45.7291 19.3699 45.8385 20.1095 45.9114 20.8542C45.9844 21.599 46.0208 22.3438 46.0208 23.0938Z" fill="white"/>
</g>
<mask id="mask1_31_2639" style="mask-type:luminance" maskUnits="userSpaceOnUse" x="9" y="10" width="28" height="31">
<path d="M9.48438 10.6667H36.4583V40.6407H9.48438V10.6667Z" fill="white"/>
</mask>
<g mask="url(#mask1_31_2639)">
<path d="M35.7708 10.6667H10.5625C10.2708 10.6667 10.0208 10.7709 9.81767 10.9792C9.61454 11.1824 9.51038 11.4272 9.51038 11.7188C9.51038 12.0105 9.61454 12.2553 9.81767 12.4636C10.0208 12.6667 10.2708 12.7709 10.5625 12.7709H11.6093V31.6772C11.6093 32.0417 11.7604 32.3282 12.0573 32.5365L22.5625 39.8907C22.7448 40.0157 22.9427 40.0782 23.1666 40.0782C23.3854 40.0782 23.5885 40.0157 23.7656 39.8907L34.2708 32.5365C34.5677 32.3282 34.7187 32.0417 34.7187 31.6772V12.7709H35.7708C36.0625 12.7709 36.3073 12.6667 36.5156 12.4636C36.7187 12.2553 36.8229 12.0105 36.8229 11.7188C36.8229 11.4272 36.7187 11.1824 36.5156 10.9792C36.3073 10.7709 36.0625 10.6667 35.7708 10.6667ZM32.6198 31.1303L23.1666 37.7501L13.7135 31.1303V12.7709H32.6198V31.1303Z" fill="#FFBD59"/>
</g>
<path d="M20.1979 24.6407L19.6511 27.8282C19.6094 28.0522 19.6823 28.2292 19.8646 28.3595C20.0521 28.4949 20.2396 28.5105 20.4427 28.4011L23.3073 26.9011L26.1667 28.4011C26.3646 28.5105 26.5573 28.4949 26.7448 28.3595C26.9271 28.2292 27 28.0522 26.9584 27.8282L26.4167 24.6407L28.724 22.3855C28.8854 22.224 28.9323 22.0365 28.8646 21.823C28.7917 21.6095 28.6459 21.4845 28.4219 21.448L25.224 20.9845L23.7969 18.0834C23.6927 17.8803 23.5313 17.7761 23.3073 17.7761C23.0782 17.7761 22.9167 17.8803 22.8125 18.0834L21.3802 20.9845L18.1823 21.448C17.9532 21.4792 17.8073 21.6042 17.7396 21.8178C17.6667 22.0365 17.7136 22.224 17.875 22.3803L20.1979 24.6407Z" fill="#FFBD59"/>
</svg>
