<svg xmlns="http://www.w3.org/2000/svg" viewBox="0 0 23.75 25.07" width="23.75" height="25.07" fill="#ffffff"><path d="M22.65,9.44H12.47v5.63h10.17c0.61,0,1.1-0.49,1.1-1.1v-3.43C23.75,9.93,23.25,9.44,22.65,9.44z"></path><path d="M11.01,9.44H1.1c-0.61,0-1.1,0.49-1.1,1.1v3.43c0,0.61,0.49,1.1,1.1,1.1h9.91V9.44z"></path><path d="M11.01,16.41H1.44v7.61c0,0.58,0.47,1.06,1.06,1.06h8.51V16.41z"></path><path d="M12.47,16.41v8.66h8.51c0.58,0,1.06-0.47,1.06-1.06v-7.61H12.47z"></path><path d="M11.9,5.66c0.08-0.22,0.17-0.45,0.25-0.67c0.43-1.16,0.88-2.3,1.48-3.39c0.65-1.18,2.05-1.82,3.37-1.53&#xA;&#x9;&#x9;c1.2,0.26,1.99,0.97,2.4,2.13c0.44,1.26-0.02,2.71-1.04,3.45c-0.42,0.31-0.91,0.55-1.39,0.77c-0.75,0.34-1.52,0.66-2.3,0.95&#xA;&#x9;&#x9;c-0.83,0.31-1.68,0.59-2.52,0.87c-0.34,0.11-0.67-0.02-0.99-0.13c-0.99-0.35-1.98-0.69-2.96-1.07C7.27,6.68,6.33,6.3,5.49,5.73&#xA;&#x9;&#x9;c-0.53-0.36-0.88-0.86-1.1-1.45C4.17,3.71,4.15,3.11,4.27,2.52c0.18-0.89,0.67-1.58,1.44-2.05C6.63-0.08,7.6-0.14,8.59,0.25&#xA;&#x9;&#x9;C9.25,0.5,9.75,0.96,10.1,1.58c0.49,0.87,0.88,1.79,1.24,2.72c0.17,0.45,0.34,0.9,0.51,1.35C11.87,5.66,11.89,5.66,11.9,5.66z&#xA;&#x9;&#x9; M10.68,6.51c-0.05-0.17-0.07-0.29-0.12-0.4C10.13,5.02,9.7,3.93,9.24,2.85C9.1,2.53,8.92,2.2,8.69,1.94&#xA;&#x9;&#x9;C8.08,1.25,7.08,1.17,6.3,1.72C5.49,2.29,5.32,3.49,5.92,4.28C6.24,4.69,6.68,4.9,7.13,5.09c0.85,0.37,1.71,0.72,2.58,1.06&#xA;&#x9;&#x9;C10.01,6.28,10.32,6.38,10.68,6.51z M13.07,6.5c0.17-0.05,0.28-0.08,0.39-0.12c0.48-0.18,0.97-0.34,1.43-0.54&#xA;&#x9;&#x9;c0.83-0.36,1.66-0.7,2.45-1.12c0.81-0.43,1.02-1.31,0.77-2.1c-0.21-0.65-0.69-1.05-1.37-1.21c-0.6-0.14-1.43,0.12-1.74,0.64&#xA;&#x9;&#x9;c-0.32,0.54-0.6,1.1-0.86,1.67c-0.25,0.56-0.47,1.14-0.69,1.72C13.32,5.76,13.21,6.11,13.07,6.5z"></path></svg>