<svg width="240" height="331" viewBox="0 0 240 331" fill="none" xmlns="http://www.w3.org/2000/svg">
<g filter="url(#filter0_d_569_9256)">
<rect x="4.81641" y="2.31445" width="230" height="321.37" rx="18.9041" fill="#DDE8FF"/>
<path d="M82.7747 24.5974V32.5623H82.6738C82.6738 31.9574 82.1193 25.9081 76.4229 25.9081H67.7522V43.0982H75.9188C80.3549 43.0982 80.8086 38.6621 80.8086 38.2084H80.859V49.2988H80.8086C80.8086 48.8451 80.3549 44.4089 75.9188 44.4089H67.7522V62.6073H77.4311C83.1275 62.6073 83.682 56.558 83.682 55.953H83.7829V63.918H56.4601V63.8171C56.7626 63.8171 59.5856 63.3634 59.5856 58.2719V30.2434C59.5856 25.1519 56.7626 24.6982 56.4601 24.6982V24.5974H82.7747ZM89.3757 34.5284C89.3757 27.6221 95.3242 23.8916 102.987 23.8916C107.574 23.8916 110.347 24.5974 113.926 24.5974V32.8648H113.825C113.523 31.2517 112.968 29.1848 111.204 27.5717C109.641 26.2106 107.171 25.2023 103.088 25.2023C98.9538 25.2023 95.1226 26.8659 95.1226 30.7475C95.1226 34.2259 98.3489 36.0911 101.172 37.7043L108.28 41.7371C113.976 44.9634 116.295 48.7443 116.295 53.0796C116.295 59.8347 110.7 64.2204 101.424 64.2204C98.1977 64.2204 93.5094 63.918 90.2831 63.918V53.4325H90.384C90.636 55.6506 91.1401 58.0703 92.9045 59.9859C94.4672 61.6999 97.0886 62.9097 100.97 62.9097C107.625 62.9097 109.742 59.7843 109.742 56.558C109.742 53.9366 108.431 51.6681 103.541 48.8955L96.0804 44.661C91.7955 42.2412 89.3757 39.2166 89.3757 34.5284ZM149.012 24.5974V32.5623H148.911C148.911 31.9574 148.357 25.9081 142.66 25.9081H132.981V44.6106H142.156C146.592 44.6106 147.046 40.1744 147.046 39.7207H147.096V50.8111H147.046C147.046 50.3574 146.592 45.9212 142.156 45.9212H132.981V58.2719C132.981 63.3634 135.804 63.8171 136.107 63.8171V63.918H121.689V63.8171C121.992 63.8171 124.815 63.3634 124.815 58.2719V30.2434C124.815 25.1519 121.992 24.6982 121.689 24.6982V24.5974H149.012ZM154.821 63.918V63.8171C155.123 63.8171 157.946 63.3634 157.946 58.2719V30.2434C157.946 25.1519 155.123 24.6982 154.821 24.6982V24.5974H169.289C174.834 24.5974 178.867 25.6056 181.387 27.8741C183.353 29.6385 184.361 32.3103 184.361 35.8895C184.361 40.5777 182.295 44.0056 178.967 46.2237C176.044 48.1897 172.112 49.1476 167.776 49.1476H166.113V58.2719C166.113 63.3634 168.936 63.8171 169.238 63.8171V63.918H154.821ZM166.113 47.8369H167.272C169.641 47.8369 171.607 47.0807 173.019 45.6692C175.035 43.7032 176.094 40.4265 176.094 36.1415C176.094 32.3103 175.338 29.6889 173.876 28.0254C172.565 26.5634 170.65 25.9081 168.28 25.9081H166.113V47.8369Z" fill="#344E81"/>
<path d="M52.2575 93.6445V93.613C52.352 93.613 53.2342 93.4712 53.2342 91.8801V83.1212C53.2342 81.5301 52.352 81.3884 52.2575 81.3884V81.3569H55.1876L61.9931 89.6274V83.1212C61.9931 81.5301 61.1109 81.3884 61.0164 81.3884V81.3569H63.4109V81.3884C63.3164 81.3884 62.4342 81.5301 62.4342 83.1212V93.7391L53.6753 83.1212V91.8801C53.6753 93.4712 54.5575 93.613 54.652 93.613V93.6445H52.2575ZM68.0604 96.6849C68.8953 96.6849 69.431 96.3541 69.7775 95.8815C70.3131 95.1411 70.4077 94.0541 70.4077 93.2664V92.3843C69.9193 93.2822 68.9268 93.8336 67.8556 93.8336C65.4296 93.8336 63.9173 91.9747 63.9173 89.3596C63.9173 86.4295 65.4296 84.2555 68.1077 84.2555C69.3679 84.2555 69.9981 84.7753 70.4077 85.3425V84.413H73.9049V84.4445C73.8104 84.4445 72.9282 84.5863 72.9282 86.1774V93.0144C72.9282 94.3534 72.4241 95.2829 71.7152 95.913C70.7542 96.7795 69.3995 97.063 68.4385 97.063C66.8631 97.063 65.8392 96.5117 65.2563 96.5117V94.0856H65.3036C65.4453 94.9048 65.8234 95.4877 66.2645 95.8973C66.8947 96.4801 67.6508 96.6849 68.0604 96.6849ZM66.4221 89.2021C66.4221 91.376 67.194 93.1404 68.5645 93.1404C69.3679 93.1404 69.9508 92.6678 70.4077 91.5808V86.1774C69.9981 85.311 69.4152 85.1062 68.9584 85.1062C67.509 85.1062 66.4221 86.713 66.4221 89.2021ZM78.3542 93.8021C77.5665 93.8021 76.8576 93.5658 76.3377 93.1089C75.8336 92.6521 75.5185 91.9747 75.5185 91.0767V86.1774C75.5185 84.5863 74.6364 84.4445 74.5418 84.4445V84.413H78.0391V90.8719C78.0391 91.2658 78.0706 91.7856 78.2754 92.211C78.4802 92.6206 78.8425 92.9199 79.3939 92.9199C80.5124 92.9199 81.3158 91.8014 81.3158 90.2575V86.1774C81.3158 84.5863 80.4336 84.4445 80.3391 84.4445V84.413H83.8364V85.0432C84.0884 84.8384 84.1672 84.6178 84.1829 84.413C84.1829 84.2397 84.1199 83.8301 83.4898 83.6726V83.6569L84.7973 82.7432C84.9864 82.8849 85.2542 83.3733 85.2227 83.7986C85.1754 84.5548 84.372 85.0589 83.8364 85.2952V91.8801C83.8364 93.4712 84.7186 93.613 84.8131 93.613V93.6445H81.3158V92.0062C80.9377 92.8884 80.087 93.8021 78.3542 93.8021ZM90.6698 93.8336C87.6136 93.8336 86.1013 91.6596 86.1013 89.0445C86.1013 86.4295 87.6136 84.2555 90.6698 84.2555C91.8355 84.2555 92.7807 84.5706 93.5054 85.1062C93.6157 84.9486 93.6472 84.7753 93.6314 84.6336C93.6157 84.4603 93.5212 84.0664 92.8753 83.9562V83.9404L94.104 82.9164C94.3088 83.0425 94.6081 83.5151 94.6239 83.9404C94.6396 84.5233 94.1828 84.9959 93.7417 85.311C94.7342 86.1932 95.2383 87.548 95.2383 89.0445C95.2383 91.6596 93.7259 93.8336 90.6698 93.8336ZM88.6849 89.0445C88.6849 91.376 89.2205 93.4555 90.6698 93.4555C92.1191 93.4555 92.6705 91.376 92.6705 89.0445C92.6705 86.713 92.1191 84.6336 90.6698 84.6336C89.2205 84.6336 88.6849 86.713 88.6849 89.0445ZM88.9999 82.4596V82.4123L89.8349 81.2466H89.8821C90.528 82.1445 91.678 83.3733 92.4342 83.6726L92.3869 83.7199C91.4575 83.5938 89.8033 83.074 88.9999 82.4596ZM97.1576 86.1774C97.1576 84.5863 96.2754 84.4445 96.1809 84.4445V84.413H99.6782V91.8801C99.6782 93.4712 100.56 93.613 100.655 93.613V93.6445H96.1809V93.613C96.2754 93.613 97.1576 93.4712 97.1576 91.8801V86.1774ZM97.0001 82.176C97.0001 81.4356 97.6145 80.8212 98.3549 80.8212C99.0953 80.8212 99.7097 81.4356 99.7097 82.176C99.7097 82.9164 99.0953 83.5308 98.3549 83.5308C97.6145 83.5308 97.0001 82.9164 97.0001 82.176ZM108.435 91.2185C108.435 92.148 108.561 92.9829 109.491 92.9829C110.184 92.9829 110.83 92.5575 111.145 92.2425H111.192C111.082 92.6048 109.932 93.7548 108.325 93.7548C106.955 93.7548 105.915 93.361 105.915 91.5021V84.7911H105.127V84.413H105.915V81.987H108.435V84.413H111.05V84.7911H108.435V91.2185ZM112.742 86.1774C112.742 84.5863 111.86 84.4445 111.765 84.4445V84.413H115.262V86.0514C115.64 85.1692 116.239 84.2555 117.594 84.2555C118.445 84.2555 118.681 84.413 118.807 84.413V87.5007H118.775C118.775 86.8075 118.492 86.2089 118.035 85.8466C117.72 85.5945 117.326 85.4527 116.885 85.4527C115.814 85.4527 115.262 86.2562 115.262 87.8V91.8801C115.262 93.4712 116.145 93.613 116.239 93.613V93.6445H111.765V93.613C111.86 93.613 112.742 93.4712 112.742 91.8801V86.1774ZM120.726 86.1774C120.726 84.5863 119.844 84.4445 119.75 84.4445V84.413H123.247V91.8801C123.247 93.4712 124.129 93.613 124.223 93.613V93.6445H119.75V93.613C119.844 93.613 120.726 93.4712 120.726 91.8801V86.1774ZM120.254 82.05V82.0027L121.089 80.837H121.136C121.782 81.7349 122.932 82.9637 123.688 83.263L123.641 83.3103C122.711 83.1843 121.057 82.6644 120.254 82.05ZM126.203 86.1774C126.203 84.5863 125.321 84.4445 125.226 84.4445V84.413H128.724V86.0514C129.102 85.1692 129.952 84.2555 131.685 84.2555C132.473 84.2555 133.182 84.4918 133.702 84.9486C134.206 85.4055 134.521 86.0829 134.521 86.9808V91.8801C134.521 93.4712 135.403 93.613 135.498 93.613V93.6445H131.024V93.613C131.118 93.613 132 93.4712 132 91.8801V87.1856C132 86.7918 131.969 86.2719 131.764 85.8466C131.559 85.437 131.197 85.1377 130.645 85.1377C129.527 85.1377 128.724 86.2562 128.724 87.8V91.8801C128.724 93.4712 129.606 93.613 129.7 93.613V93.6445H125.226V93.613C125.321 93.613 126.203 93.4712 126.203 91.8801V86.1774ZM137.168 82.8062C137.168 81.2151 136.285 81.0733 136.191 81.0733V81.0418H139.688V86.0514C140.066 85.1692 140.917 84.2555 142.65 84.2555C143.437 84.2555 144.146 84.4918 144.666 84.9486C145.17 85.4055 145.485 86.0829 145.485 86.9808V91.8801C145.485 93.4712 146.368 93.613 146.462 93.613V93.6445H141.988V93.613C142.083 93.613 142.965 93.4712 142.965 91.8801V87.1856C142.965 86.7918 142.933 86.2719 142.728 85.8466C142.524 85.437 142.161 85.1377 141.61 85.1377C140.491 85.1377 139.688 86.2562 139.688 87.8V91.8801C139.688 93.4712 140.57 93.613 140.665 93.613V93.6445H136.191V93.613C136.285 93.613 137.168 93.4712 137.168 91.8801V82.8062ZM157.498 82.8062C157.498 81.2151 156.615 81.0733 156.521 81.0733V81.0418H160.018V91.8801C160.018 93.4712 160.9 93.613 160.995 93.613V93.6445H157.498V92.3843C157.009 93.2822 156.017 93.8336 154.946 93.8336C152.52 93.8336 151.007 91.9747 151.007 89.3596C151.007 86.4295 152.52 84.2555 155.198 84.2555C156.458 84.2555 157.088 84.7753 157.498 85.3425V82.8062ZM153.512 89.2021C153.512 91.376 154.284 93.1404 155.655 93.1404C156.458 93.1404 157.041 92.6678 157.498 91.5808V86.1774C157.088 85.311 156.505 85.1062 156.048 85.1062C154.599 85.1062 153.512 86.713 153.512 89.2021ZM162.987 86.1774C162.987 84.5863 162.104 84.4445 162.01 84.4445V84.413H165.507V91.8801C165.507 93.4712 166.389 93.613 166.484 93.613V93.6445H162.01V93.613C162.104 93.613 162.987 93.4712 162.987 91.8801V86.1774ZM162.829 82.176C162.829 81.4356 163.443 80.8212 164.184 80.8212C164.924 80.8212 165.539 81.4356 165.539 82.176C165.539 82.9164 164.924 83.5308 164.184 83.5308C163.443 83.5308 162.829 82.9164 162.829 82.176ZM171.992 93.8336C168.936 93.8336 167.361 91.8171 167.361 89.2021C167.361 86.4295 169.251 84.2555 172.26 84.2555C174.733 84.2555 175.71 85.5473 175.71 86.9651C175.71 89.1233 172.89 89.7692 169.96 89.7849C170.102 91.6754 170.905 93.1404 172.89 93.1404C174.166 93.1404 174.907 92.4 175.348 91.7541L175.395 91.7856C175.3 92.0849 174.607 93.8336 171.992 93.8336ZM169.598 83.7671L169.629 83.7829C170.543 83.7671 171.677 83.263 172.228 82.9007H172.26C172.811 83.263 173.946 83.7671 174.859 83.7829L174.891 83.7671C174.056 83.389 172.701 82.2075 172.26 81.4829H172.228C171.787 82.2075 170.433 83.389 169.598 83.7671ZM169.944 89.4069C172.733 89.3911 173.82 88.1781 173.82 86.5555C173.82 85.563 173.284 84.6336 172.307 84.6336C170.7 84.6336 169.96 86.713 169.944 89.4069ZM171.173 81.6877C171.567 80.3801 172.071 79.7343 172.591 79.7343C173.189 79.7343 174.276 80.6164 174.812 80.6164C175.111 80.6164 175.332 80.5377 175.584 79.7815H175.647C175.348 81.1363 174.907 81.6719 174.387 81.6719C173.631 81.6719 172.78 80.837 172.118 80.837C171.819 80.837 171.52 81.0733 171.22 81.6877H171.173ZM177.632 86.1774C177.632 84.5863 176.75 84.4445 176.656 84.4445V84.413H180.153V86.0514C180.531 85.1692 181.382 84.2555 183.115 84.2555C183.902 84.2555 184.611 84.4918 185.131 84.9486C185.635 85.4055 185.95 86.0829 185.95 86.9808V91.8801C185.95 93.4712 186.832 93.613 186.927 93.613V93.6445H182.453V93.613C182.547 93.613 183.43 93.4712 183.43 91.8801V87.1856C183.43 86.7918 183.398 86.2719 183.193 85.8466C182.989 85.437 182.626 85.1377 182.075 85.1377C180.956 85.1377 180.153 86.2562 180.153 87.8V91.8801C180.153 93.4712 181.035 93.613 181.13 93.613V93.6445H176.656V93.613C176.75 93.613 177.632 93.4712 177.632 91.8801V86.1774Z" fill="#344E81"/>
<g clip-path="url(#clip0_569_9256)">
<g clip-path="url(#clip1_569_9256)">
<path d="M120.107 308.547C174.645 308.547 218.857 264.328 218.857 209.781C218.857 155.234 174.645 111.016 120.107 111.016C65.5692 111.016 21.3574 155.234 21.3574 209.781C21.3574 264.328 65.5692 308.547 120.107 308.547Z" fill="#344E81"/>
<path d="M180.799 133.391H172.764V143.861H180.799V133.391Z" fill="white"/>
<path d="M171.803 133.134C172.805 132.661 173.164 131.316 172.604 130.13C172.044 128.944 170.777 128.367 169.775 128.84C168.773 129.314 168.415 130.658 168.975 131.844C169.535 133.03 170.801 133.607 171.803 133.134Z" fill="white"/>
<path d="M169.992 131.739C169.958 131.739 169.924 131.723 169.903 131.693C169.853 131.622 169.809 131.545 169.771 131.466C169.462 130.811 169.667 130.061 170.229 129.796C170.369 129.729 170.52 129.699 170.677 129.701C170.736 129.703 170.784 129.752 170.782 129.812C170.781 129.87 170.733 129.917 170.674 129.917C170.674 129.917 170.673 129.917 170.672 129.917C170.546 129.912 170.43 129.939 170.321 129.991C169.867 130.206 169.708 130.826 169.967 131.374C169.999 131.442 170.037 131.508 170.08 131.569C170.114 131.618 170.102 131.685 170.054 131.719C170.035 131.733 170.013 131.739 169.992 131.739Z" fill="#363E44"/>
<path d="M184.549 131.843C185.109 130.657 184.751 129.312 183.749 128.839C182.747 128.365 181.48 128.943 180.92 130.129C180.36 131.314 180.719 132.659 181.721 133.132C182.723 133.606 183.989 133.028 184.549 131.843Z" fill="white"/>
<path d="M183.533 131.741C183.512 131.741 183.49 131.735 183.471 131.721C183.422 131.687 183.41 131.62 183.445 131.571C183.488 131.51 183.526 131.444 183.558 131.376C183.817 130.828 183.658 130.208 183.203 129.993C183.094 129.941 182.976 129.915 182.853 129.919C182.852 129.919 182.851 129.919 182.85 129.919C182.792 129.919 182.744 129.872 182.742 129.814C182.741 129.754 182.788 129.705 182.848 129.703C183.003 129.701 183.156 129.731 183.296 129.798C183.858 130.063 184.063 130.813 183.753 131.468C183.716 131.547 183.671 131.624 183.621 131.695C183.6 131.725 183.567 131.741 183.533 131.741Z" fill="#363E44"/>
<path d="M181.665 130.588C181.665 133.844 179.41 137.278 176.629 137.278C173.848 137.278 171.594 133.844 171.594 130.588C171.594 127.333 173.848 124.693 176.629 124.693C179.41 124.693 181.665 127.333 181.665 130.588Z" fill="white"/>
<path d="M176.63 137.385C175.613 137.385 174.614 136.939 173.74 136.096C173.697 136.055 173.696 135.986 173.737 135.944C173.779 135.901 173.847 135.9 173.89 135.941C174.723 136.744 175.671 137.169 176.631 137.169C177.675 137.169 178.692 136.674 179.572 135.737C179.613 135.694 179.681 135.692 179.725 135.732C179.768 135.773 179.77 135.842 179.729 135.885C178.808 136.866 177.736 137.385 176.63 137.385Z" fill="#363E44"/>
<path d="M176.731 133.493C176.695 133.493 176.661 133.475 176.64 133.443C176.608 133.393 176.623 133.326 176.673 133.294C176.832 133.193 176.927 133.079 176.957 132.953C176.988 132.823 176.939 132.712 176.871 132.558C176.815 132.432 176.752 132.288 176.714 132.096C176.666 131.851 176.675 131.591 176.741 131.324C176.755 131.267 176.814 131.231 176.871 131.245C176.929 131.26 176.965 131.318 176.95 131.376C176.892 131.612 176.884 131.84 176.926 132.054C176.959 132.223 177.017 132.355 177.068 132.471C177.143 132.642 177.214 132.803 177.167 133.003C177.123 133.185 176.996 133.344 176.789 133.476C176.771 133.488 176.751 133.493 176.731 133.493Z" fill="#363E44"/>
<path d="M176.25 134.632C176 134.632 175.765 134.521 175.626 134.328C175.5 134.154 175.459 133.925 175.515 133.699C175.529 133.642 175.588 133.606 175.645 133.621C175.703 133.635 175.738 133.693 175.724 133.751C175.684 133.915 175.712 134.079 175.801 134.202C175.919 134.365 176.138 134.446 176.359 134.406C176.418 134.396 176.474 134.435 176.484 134.494C176.495 134.553 176.455 134.609 176.397 134.619C176.348 134.628 176.298 134.632 176.25 134.632Z" fill="#363E44"/>
<path d="M173.915 131.767C172.87 131.767 172.044 130.832 172.009 130.792C171.97 130.747 171.975 130.679 172.019 130.64C172.064 130.601 172.132 130.605 172.172 130.65C172.179 130.659 172.97 131.551 173.915 131.551C174.861 131.551 175.651 130.659 175.659 130.65C175.698 130.605 175.767 130.601 175.811 130.64C175.856 130.679 175.861 130.747 175.822 130.792C175.787 130.832 174.961 131.767 173.915 131.767Z" fill="#363E44"/>
<path d="M179.425 131.767C178.38 131.767 177.553 130.832 177.519 130.792C177.48 130.747 177.484 130.679 177.529 130.64C177.574 130.601 177.642 130.605 177.681 130.65C177.689 130.659 178.479 131.551 179.425 131.551C180.371 131.551 181.161 130.659 181.169 130.65C181.208 130.605 181.276 130.601 181.321 130.64C181.366 130.679 181.371 130.747 181.332 130.792C181.297 130.832 180.47 131.767 179.425 131.767Z" fill="#363E44"/>
<path d="M176.519 122.928C179.027 122.923 181.056 120.886 181.051 118.378C181.046 115.87 179.01 113.84 176.502 113.845C173.994 113.85 171.965 115.887 171.97 118.395C171.974 120.903 174.011 122.933 176.519 122.928Z" fill="black"/>
<path d="M177.741 123.041C175.177 123.041 173.092 120.955 173.092 118.392C173.092 115.828 175.177 113.742 177.741 113.742C180.304 113.742 182.389 115.828 182.389 118.392C182.389 120.955 180.304 123.041 177.741 123.041ZM177.741 113.958C175.296 113.958 173.308 115.947 173.308 118.392C173.308 120.836 175.296 122.825 177.741 122.825C180.185 122.825 182.173 120.836 182.173 118.392C182.173 115.947 180.185 113.958 177.741 113.958Z" fill="#BD0054"/>
<path d="M177.248 121.809C174.685 121.809 172.6 119.723 172.6 117.159C172.6 114.595 174.685 112.51 177.248 112.51C179.812 112.51 181.897 114.595 181.897 117.159C181.897 119.723 179.812 121.809 177.248 121.809ZM177.248 112.726C174.804 112.726 172.815 114.715 172.815 117.159C172.815 119.604 174.804 121.593 177.248 121.593C179.693 121.593 181.681 119.604 181.681 117.159C181.681 114.715 179.693 112.726 177.248 112.726Z" fill="#BD0054"/>
<path d="M176.593 125.326C177.568 125.869 178.851 126.8 179.763 128.336C181.58 131.394 180.408 135.812 178.84 139.13C179.866 137.97 181.79 135.447 182.29 131.787C182.478 130.416 182.568 129.743 182.436 128.76C182.495 128.597 183.668 125.888 181.666 123.585C180.2 121.897 178.336 122.052 176.379 122.77C175.588 122.395 173.639 121.936 172.095 123.039C170.56 124.136 169.853 126.129 170.673 128.68C170.537 129.873 170.179 131.513 170.937 133.967C171.69 136.405 173.716 138.221 174.498 139.129C172.762 134.941 171.388 131.658 173.264 128.416C174.331 126.572 175.595 125.679 176.593 125.326Z" fill="black"/>
<path d="M182.436 128.867C182.385 128.867 182.34 128.831 182.33 128.78C182.322 128.737 182.316 128.673 182.307 128.583C182.25 127.97 182.074 126.103 180.37 124.905C178.881 123.859 177.498 124.449 176.907 124.701C176.788 124.752 176.709 124.786 176.652 124.797C176.627 124.802 176.602 124.799 176.58 124.787C176.567 124.78 176.548 124.769 176.522 124.754C175.187 123.983 173.882 123.831 172.85 124.325C171.476 124.983 170.606 126.809 170.781 128.668C170.787 128.727 170.743 128.78 170.684 128.786C170.623 128.792 170.572 128.747 170.566 128.688C170.383 126.743 171.304 124.826 172.756 124.13C173.856 123.605 175.231 123.759 176.63 124.567C176.635 124.57 176.64 124.573 176.645 124.575C176.687 124.56 176.751 124.533 176.823 124.503C177.393 124.259 178.907 123.613 180.494 124.728C182.28 125.983 182.463 127.925 182.523 128.563C182.53 128.643 182.536 128.706 182.542 128.738C182.554 128.796 182.516 128.853 182.457 128.865C182.45 128.866 182.443 128.867 182.436 128.867Z" fill="#BD0054"/>
<path d="M162.18 168.141C162.732 169.314 163.718 171.056 165.424 172.727C166.755 174.03 169.874 177.084 174.195 176.922C178.209 176.772 180.945 173.933 182.497 172.322C183.972 170.791 184.893 169.252 185.453 168.141C185.987 168.53 186.014 169.353 186.63 169.983C187.287 170.655 187.501 171.384 187.89 171.957C185.942 174.173 184.316 176.921 181.886 180.991C177.146 188.926 176.602 193.792 174.305 193.862C172.021 193.931 171.014 189.166 165.551 180.228C163.329 176.592 161.232 173.677 159.645 171.597C159.908 171.088 160.241 170.524 160.659 169.936C161.175 169.21 161.703 168.616 162.18 168.141Z" fill="#0E0600"/>
<path d="M189.271 158.876L185.453 168.142C185.453 168.142 200.764 182.259 194.847 210.393H176.185L174.497 192.262L167.645 210.393H147.272C147.272 210.393 151.517 180.713 162.179 168.142L160.936 159.279C160.936 159.279 159.391 158.522 159.127 158.175C157.241 154.956 159.525 149.89 159.525 149.89C159.525 149.89 136.176 135.607 142.731 129.812C146.946 126.085 169.388 140.258 169.388 140.258L178.747 141.167C178.747 141.167 185.975 143.126 193.857 146.224L189.271 158.876Z" fill="white"/>
<path d="M180.078 163.805C179.298 163.805 178.505 163.683 177.72 163.43C175.341 162.663 173.856 160.222 173.426 156.372C173.416 156.284 173.406 156.2 173.402 156.181C173.387 156.123 173.422 156.065 173.48 156.05C173.537 156.036 173.597 156.071 173.611 156.129C173.619 156.16 173.626 156.219 173.64 156.348C174.06 160.107 175.494 162.485 177.786 163.224C181.168 164.314 184.72 162.903 186.626 159.711C186.656 159.66 186.722 159.643 186.774 159.674C186.825 159.704 186.841 159.771 186.811 159.822C185.295 162.362 182.761 163.805 180.078 163.805Z" fill="#363E44"/>
<path d="M169.01 160.267C168.977 160.267 168.944 160.252 168.923 160.222C168.888 160.174 168.899 160.107 168.947 160.072C169.914 159.37 172.115 156.804 172.478 155.834C172.499 155.778 172.562 155.75 172.617 155.77C172.673 155.791 172.701 155.853 172.681 155.909C172.274 156.996 169.997 159.577 169.074 160.247C169.055 160.26 169.032 160.267 169.01 160.267Z" fill="#363E44"/>
<path d="M172.513 169.572C172.459 169.572 172.412 169.531 172.406 169.476C172.4 169.416 172.443 169.363 172.502 169.357C172.649 169.341 172.759 169.214 172.753 169.067C172.748 168.921 172.629 168.802 172.483 168.796C172.423 168.794 172.377 168.744 172.379 168.684C172.381 168.625 172.431 168.575 172.491 168.58C172.75 168.59 172.96 168.8 172.969 169.059C172.979 169.318 172.784 169.544 172.525 169.571C172.521 169.572 172.517 169.572 172.513 169.572Z" fill="#363E44"/>
<path d="M153.547 135.944C153.547 135.945 153.548 135.945 153.548 135.945C162.286 132.238 168.557 129.775 170.463 128.939C170.662 128.852 171.015 128.699 171.403 128.383C172.84 127.213 172.452 125.683 173.401 123.764C174.479 121.585 175.816 121.187 175.568 120.618C175.395 120.223 175.139 120.042 173.743 120.675L173.743 120.675C174.748 120.072 175.691 119.223 175.356 118.669C174.935 118.049 173.639 118.868 172.647 119.431C173.847 118.75 174.708 117.992 174.406 117.468C174.114 116.96 172.469 117.455 170.998 118.626L170.998 118.626C171.884 117.663 171.955 117.297 171.665 117.122C171.136 116.802 169.876 117.617 168.872 118.508C167.742 119.511 167.214 120.681 166.898 121.426C166.898 121.427 166.898 121.427 166.898 121.427C160.509 123.388 147.164 126.728 142.731 129.81C141.46 130.694 148.502 134.66 153.547 135.944Z" fill="white"/>
<path d="M165.596 122.009C165.895 119.624 166.168 117.954 166.739 117.857C167.868 117.664 168.364 120.042 168.365 123.584C167.602 122.906 166.359 122.688 165.596 122.009Z" fill="white"/>
<path d="M166.899 121.534C166.839 121.534 166.791 121.485 166.791 121.426C166.791 121.407 166.796 121.39 166.804 121.375C167.073 120.737 167.401 120.044 167.95 119.337C167.987 119.29 168.055 119.281 168.102 119.318C168.149 119.354 168.157 119.422 168.121 119.469C167.586 120.158 167.266 120.836 166.999 121.467C166.982 121.507 166.942 121.534 166.899 121.534Z" fill="#363E44"/>
<path d="M172.323 122.447C172.305 122.447 172.288 122.443 172.271 122.434C172.219 122.406 172.199 122.34 172.228 122.288C172.371 122.025 172.54 121.775 172.729 121.543C173.002 121.208 173.321 120.91 173.676 120.657C173.724 120.622 173.791 120.633 173.826 120.682C173.861 120.73 173.849 120.798 173.801 120.833C173.462 121.074 173.158 121.359 172.896 121.68C172.716 121.901 172.555 122.14 172.418 122.391C172.398 122.427 172.361 122.447 172.323 122.447Z" fill="#363E44"/>
<path d="M171.387 121.121C171.37 121.121 171.352 121.117 171.335 121.108C171.283 121.079 171.264 121.014 171.293 120.962C171.436 120.699 171.604 120.448 171.793 120.217C172.067 119.882 172.385 119.583 172.74 119.331C172.788 119.296 172.856 119.307 172.891 119.356C172.925 119.404 172.914 119.472 172.865 119.506C172.526 119.748 172.222 120.033 171.96 120.354C171.78 120.575 171.619 120.814 171.482 121.065C171.462 121.101 171.426 121.121 171.387 121.121Z" fill="#363E44"/>
<path d="M169.563 120.358C169.545 120.358 169.528 120.353 169.511 120.344C169.459 120.316 169.44 120.25 169.468 120.198C169.612 119.935 169.78 119.685 169.969 119.454C170.243 119.118 170.561 118.82 170.916 118.567C170.964 118.532 171.032 118.543 171.066 118.592C171.101 118.641 171.09 118.708 171.041 118.743C170.702 118.984 170.398 119.269 170.136 119.59C169.956 119.811 169.795 120.05 169.658 120.301C169.638 120.337 169.601 120.358 169.563 120.358Z" fill="#363E44"/>
<path d="M153.547 136.053C153.506 136.053 153.466 136.028 153.448 135.987C153.425 135.932 153.45 135.869 153.505 135.845C155.626 134.946 157.75 134.056 160 133.125C160.055 133.103 160.118 133.129 160.141 133.184C160.164 133.239 160.137 133.302 160.082 133.325C157.833 134.256 155.709 135.145 153.59 136.044C153.576 136.05 153.562 136.053 153.547 136.053Z" fill="#363E44"/>
<path d="M185.453 168.098C185.453 168.098 191.367 173.064 195.775 186.936C201.157 203.876 204.884 232.994 200.219 268.793H138.756C138.756 268.793 142.832 238.894 144.36 227.782C146.759 210.337 151.19 185.625 158.125 173.823C161.597 167.914 162.686 167.379 162.686 167.379L185.453 168.098Z" fill="#EFBC73"/>
<path d="M167.468 138.951L159.526 149.889C159.526 149.889 155.07 149.737 154.436 146.923C153.801 144.109 161.054 134.842 161.054 134.842C161.054 134.842 166.861 134.981 167.468 138.951Z" fill="#BD0054"/>
<path d="M159.525 149.889C159.525 149.889 162.753 154.724 168.035 156.911C172.761 158.867 179.746 159.316 185.453 158.688C187.755 158.435 188.661 157.735 188.661 157.735C188.661 157.735 189.14 158.983 189.031 159.457L185.453 168.141L172.046 179.643L162.18 168.141L160.936 159.278C160.936 159.278 158.389 158.454 158.038 156.063C157.786 154.35 158.186 151.733 159.525 149.889Z" fill="#BD0054"/>
<path d="M194.56 257.655C190.077 257.655 187.98 253.613 187.516 252.575C187.316 253.015 186.806 253.991 185.851 254.979C184.686 256.183 182.613 257.618 179.355 257.618C175.504 257.618 172.744 253.431 172.147 252.444C171.982 252.887 171.533 253.907 170.599 254.939C169.476 256.178 167.414 257.655 163.962 257.655C159.44 257.655 157.101 253.225 156.601 252.154C156.387 252.63 155.816 253.765 154.813 254.867C153.603 256.198 151.498 257.757 148.345 257.625C143.056 257.403 141.013 251.975 140.993 251.92C140.972 251.864 141.001 251.802 141.057 251.782C141.113 251.762 141.175 251.79 141.196 251.846C141.215 251.9 143.211 257.194 148.354 257.409C154.231 257.655 156.476 251.903 156.498 251.845C156.514 251.803 156.554 251.776 156.598 251.775C156.599 251.775 156.599 251.775 156.599 251.775C156.643 251.775 156.683 251.802 156.7 251.843C156.722 251.899 158.992 257.439 163.963 257.439C167.33 257.439 169.339 256.005 170.432 254.801C171.619 253.495 172.014 252.169 172.018 252.156C172.03 252.114 172.066 252.083 172.11 252.079C172.154 252.074 172.195 252.096 172.216 252.134C172.245 252.187 175.14 257.403 179.356 257.403C182.534 257.403 184.554 256.007 185.69 254.836C186.923 253.563 187.41 252.273 187.415 252.26C187.431 252.218 187.471 252.19 187.517 252.19C187.562 252.19 187.602 252.218 187.618 252.26C187.637 252.312 189.595 257.439 194.561 257.439C194.565 257.439 194.568 257.439 194.573 257.439C199.562 257.431 201.561 252.413 201.58 252.362C201.602 252.307 201.665 252.279 201.72 252.301C201.776 252.322 201.803 252.385 201.782 252.44C201.762 252.492 199.712 257.647 194.573 257.655C194.569 257.655 194.564 257.655 194.56 257.655Z" fill="#BD0054"/>
<path d="M193.805 267.139C189.304 267.14 187.2 263.095 186.735 262.059C186.535 262.498 186.023 263.475 185.063 264.464C183.894 265.668 181.814 267.103 178.544 267.103C174.678 267.103 171.907 262.913 171.309 261.928C171.143 262.37 170.693 263.391 169.755 264.424C168.628 265.663 166.558 267.139 163.094 267.139C158.554 267.139 156.206 262.707 155.706 261.638C155.491 262.113 154.917 263.248 153.91 264.352C152.696 265.683 150.588 267.24 147.418 267.109C142.111 266.888 140.06 261.46 140.04 261.405C140.019 261.349 140.048 261.287 140.104 261.266C140.16 261.246 140.222 261.275 140.242 261.331C140.262 261.384 142.265 266.678 147.427 266.893C153.326 267.14 155.581 261.388 155.603 261.329C155.618 261.288 155.658 261.26 155.703 261.26C155.749 261.262 155.787 261.286 155.804 261.328C155.826 261.384 158.105 266.924 163.094 266.924C166.479 266.924 168.498 265.485 169.595 264.278C170.783 262.971 171.176 261.653 171.18 261.64C171.192 261.598 171.228 261.568 171.272 261.563C171.315 261.558 171.357 261.58 171.378 261.618C171.407 261.671 174.313 266.887 178.544 266.887C184.655 266.887 186.615 261.796 186.634 261.744C186.65 261.702 186.69 261.674 186.736 261.674C186.781 261.674 186.821 261.702 186.837 261.744C186.856 261.796 188.822 266.924 193.806 266.924C193.81 266.924 193.814 266.924 193.818 266.924C198.826 266.915 200.832 261.897 200.852 261.847C200.874 261.791 200.936 261.763 200.992 261.785C201.047 261.806 201.075 261.869 201.053 261.925C201.033 261.977 198.975 267.131 193.818 267.139C193.814 267.139 193.809 267.139 193.805 267.139Z" fill="#BD0054"/>
<path d="M195.21 247.784C190.79 247.784 188.721 243.751 188.26 242.707C188.062 243.148 187.559 244.122 186.619 245.107C185.469 246.312 183.424 247.747 180.209 247.747C176.412 247.747 173.69 243.569 173.097 242.576C172.933 243.02 172.49 244.038 171.571 245.067C170.463 246.307 168.428 247.784 165.022 247.784C160.564 247.784 158.255 243.363 157.759 242.286C157.546 242.764 156.983 243.896 155.996 244.996C154.802 246.327 152.722 247.886 149.613 247.754C144.394 247.532 142.378 242.104 142.358 242.049C142.338 241.993 142.367 241.931 142.423 241.911C142.479 241.89 142.541 241.92 142.561 241.976C142.58 242.029 144.549 247.323 149.622 247.538C155.424 247.784 157.634 242.033 157.656 241.975C157.672 241.933 157.711 241.905 157.756 241.904C157.756 241.904 157.757 241.904 157.757 241.904C157.801 241.904 157.841 241.932 157.858 241.973C157.88 242.029 160.119 247.568 165.022 247.568C168.348 247.568 170.332 246.13 171.41 244.924C172.578 243.617 172.964 242.298 172.967 242.285C172.98 242.243 173.016 242.212 173.06 242.208C173.104 242.202 173.145 242.225 173.166 242.264C173.195 242.316 176.051 247.532 180.209 247.532C183.343 247.532 185.336 246.136 186.456 244.965C187.673 243.693 188.154 242.402 188.159 242.39C188.174 242.347 188.215 242.319 188.26 242.319C188.305 242.319 188.346 242.347 188.361 242.39C188.38 242.441 190.312 247.568 195.21 247.568C195.214 247.568 195.218 247.568 195.222 247.568C200.143 247.56 202.115 242.543 202.134 242.492C202.155 242.436 202.218 242.409 202.274 242.43C202.329 242.451 202.357 242.513 202.336 242.569C202.316 242.621 200.293 247.776 195.222 247.784C195.218 247.784 195.214 247.784 195.21 247.784Z" fill="#BD0054"/>
<path d="M193.858 146.223C203.476 150.003 213.916 155.479 211.497 161.163C208.545 168.097 189.271 158.875 189.271 158.875L193.858 146.223Z" fill="white"/>
<path d="M210.914 162.112C204.029 169.323 197.489 175.511 195.96 177.074C195.8 177.237 195.518 177.527 195.064 177.791C193.382 178.769 192.023 177.82 189.785 178.04C187.245 178.291 186.358 179.457 185.891 179.002C185.566 178.685 185.484 178.366 186.624 177.23L186.624 177.23C185.658 177.993 184.475 178.604 184.055 178.07C183.602 177.426 184.888 176.456 185.809 175.691C184.694 176.617 183.63 177.181 183.227 176.691C182.837 176.215 183.933 174.782 185.63 173.772V173.772C184.355 174.284 183.969 174.218 183.905 173.869C183.787 173.23 185.055 172.294 186.303 171.639C187.708 170.901 189.053 170.816 189.903 170.782C189.903 170.782 189.903 170.782 189.903 170.782C194.202 165.232 199.762 157.723 203.671 153.615C206.298 150.855 210.914 162.112 210.914 162.112Z" fill="white"/>
<path d="M187.737 178.615C187.693 178.615 187.652 178.588 187.636 178.544C187.615 178.488 187.644 178.426 187.7 178.405C188.365 178.16 189.043 178.005 189.773 177.933C190.668 177.845 191.433 177.943 192.109 178.028C192.384 178.063 192.644 178.097 192.9 178.116C192.959 178.121 193.003 178.173 192.999 178.232C192.994 178.292 192.943 178.336 192.883 178.332C192.622 178.311 192.36 178.278 192.082 178.243C191.418 178.158 190.665 178.062 189.794 178.148C189.083 178.218 188.423 178.368 187.774 178.608C187.762 178.613 187.749 178.615 187.737 178.615Z" fill="#363E44"/>
<path d="M196.778 161.965C196.755 161.965 196.731 161.958 196.711 161.942C196.664 161.906 196.656 161.838 196.693 161.791C199.681 157.97 201.874 155.348 203.594 153.541C203.635 153.498 203.704 153.497 203.746 153.537C203.79 153.579 203.791 153.647 203.75 153.69C202.035 155.492 199.847 158.108 196.863 161.924C196.842 161.951 196.81 161.965 196.778 161.965Z" fill="#363E44"/>
<path d="M190.96 169.718C188.505 169.126 186.764 168.775 186.456 169.299C185.847 170.338 188 171.707 191.479 173.024C191.096 172.021 191.343 170.72 190.96 169.718Z" fill="white"/>
<path d="M187.495 171.256C187.449 171.256 187.406 171.226 187.392 171.18C187.374 171.123 187.406 171.062 187.463 171.045C188.359 170.769 189.159 170.704 189.891 170.675C189.923 170.671 189.956 170.681 189.98 170.706C190.022 170.748 190.022 170.816 189.98 170.858C189.96 170.878 189.932 170.89 189.903 170.89C189.188 170.918 188.402 170.982 187.526 171.251C187.516 171.255 187.505 171.256 187.495 171.256Z" fill="#363E44"/>
<path d="M186.694 177.358C186.659 177.358 186.625 177.342 186.604 177.311C186.571 177.261 186.584 177.194 186.634 177.161C187.013 176.907 187.424 176.705 187.855 176.56C188.151 176.461 188.46 176.388 188.771 176.345C188.829 176.336 188.884 176.378 188.893 176.437C188.901 176.496 188.86 176.551 188.801 176.559C188.502 176.6 188.207 176.67 187.923 176.765C187.511 176.903 187.117 177.097 186.754 177.34C186.736 177.353 186.715 177.358 186.694 177.358Z" fill="#363E44"/>
<path d="M185.739 175.946C185.704 175.946 185.67 175.93 185.649 175.899C185.616 175.849 185.629 175.782 185.679 175.749C186.058 175.495 186.469 175.292 186.9 175.148C187.196 175.049 187.505 174.976 187.816 174.933C187.873 174.924 187.929 174.966 187.938 175.025C187.946 175.084 187.905 175.139 187.845 175.147C187.547 175.188 187.252 175.258 186.968 175.353C186.556 175.491 186.162 175.685 185.799 175.928C185.78 175.941 185.76 175.946 185.739 175.946Z" fill="#363E44"/>
<path d="M185.667 173.87C185.632 173.87 185.598 173.853 185.577 173.822C185.544 173.773 185.557 173.706 185.606 173.672C185.986 173.418 186.397 173.216 186.828 173.072C187.125 172.972 187.433 172.9 187.744 172.857C187.802 172.848 187.857 172.89 187.865 172.949C187.874 173.008 187.832 173.062 187.773 173.07C187.476 173.112 187.181 173.181 186.896 173.276C186.484 173.415 186.09 173.608 185.727 173.852C185.708 173.864 185.687 173.87 185.667 173.87Z" fill="#363E44"/>
<path d="M200.224 148.839L194.21 160.945C194.21 160.945 189.791 161.536 188.698 158.866C187.605 156.197 193.216 145.853 193.216 145.853C193.216 145.853 198.965 145.025 200.224 148.839Z" fill="#BD0054"/>
<path d="M172.762 143.254C172.703 143.254 172.654 143.205 172.654 143.146V140.585C172.654 140.525 172.703 140.477 172.762 140.477C172.822 140.477 172.87 140.525 172.87 140.585V143.146C172.87 143.205 172.822 143.254 172.762 143.254Z" fill="#363E44"/>
<path d="M180.797 143.97C180.738 143.97 180.689 143.922 180.689 143.862V141.731C180.689 141.671 180.738 141.623 180.797 141.623C180.857 141.623 180.905 141.671 180.905 141.731V143.862C180.905 143.922 180.857 143.97 180.797 143.97Z" fill="#363E44"/>
<path d="M215.526 279.774H130.739C130.679 279.774 130.631 279.725 130.631 279.666V268.79C130.631 268.73 130.679 268.682 130.739 268.682H215.526C215.585 268.682 215.634 268.73 215.634 268.79V279.666C215.634 279.725 215.585 279.774 215.526 279.774ZM130.847 279.558H215.418V268.898H130.847V279.558Z" fill="#363E44"/>
<path d="M218.955 290.653H116.09C116.031 290.653 115.982 290.604 115.982 290.545V279.668C115.982 279.609 116.031 279.561 116.09 279.561H218.955C219.015 279.561 219.063 279.609 219.063 279.668V290.545C219.063 290.604 219.015 290.653 218.955 290.653ZM116.198 290.437H218.847V279.776H116.198V290.437Z" fill="#363E44"/>
<path d="M71.6486 275.839C71.6486 275.839 66.8188 290.659 61.5332 291.593C51.6265 293.344 35.2578 273.417 35.2578 273.417L41.0451 259.373L54.7448 269.134L59.1043 254.191L71.6486 275.839Z" fill="white"/>
<path d="M21.6992 290.383L26.1672 258.209L41.1684 259.342L36.773 275.837L33.9673 283.467C31.7829 288.385 26.7619 291.215 21.6992 290.383Z" fill="#0E0600"/>
<path d="M110.668 250.891C110.668 250.891 123.56 252.404 125.196 257.517C128.264 267.099 106.094 288.242 106.094 288.242L95.4973 279.913L102.764 269.026L90.9082 266.236L110.668 250.891Z" fill="white"/>
<path d="M102.788 269.049C102.769 269.049 102.749 269.044 102.732 269.033C102.681 269.002 102.664 268.936 102.695 268.885L104.43 266.025C104.461 265.973 104.527 265.958 104.578 265.988C104.629 266.019 104.645 266.085 104.615 266.137L102.88 268.997C102.86 269.03 102.824 269.049 102.788 269.049Z" fill="black"/>
<path d="M129.867 293.116H87.1133L96.2187 278.621L113.189 280.442L121.158 282.048C126.351 283.455 129.915 287.985 129.867 293.116Z" fill="#0E0600"/>
<path d="M64.4872 238.295L61.1581 245.907C61.1581 245.907 54.6864 250.425 52.3348 254.793C48.1301 262.603 49.702 269.343 49.702 269.343L47.6387 272.62L71.2389 277.363L72.0708 275.722C72.0708 275.722 76.9296 274.966 78.7894 272.222C81.025 268.924 81.3766 264.837 81.3766 264.837C81.3766 264.837 85.4241 268.274 88.8674 269.213C92.3345 270.157 98.5253 268.064 98.5253 268.064L100.985 268.604L117.4 252.126L114.203 251.497C114.203 251.497 115.182 248.367 108.379 245.259C106.641 244.465 103.032 243.104 100.709 242.604C96.2693 241.649 92.7515 242.761 92.7515 242.761L64.4872 238.295Z" fill="black"/>
<path d="M133.342 201.891C134.769 201.097 137.059 199.673 136.616 198.695C136.188 197.872 134.125 198.841 132.638 199.621C132.638 199.621 132.638 199.62 132.638 199.62C134.453 198.385 135.065 197.483 134.71 196.976C134.199 196.248 132.074 198.04 128.608 197.733C125.553 197.463 123.972 195.846 121.47 196.731C120.795 196.97 120.345 197.288 120.089 197.467C117.735 199.114 105.71 207.814 104.889 208.435C101.442 211.039 99.1146 215.277 101.613 219.687C103.384 222.814 105.943 224.587 108.666 222.926C114.22 219.541 124.385 209.468 126.615 207.439C126.615 207.439 126.615 207.439 126.616 207.439C127.763 207.609 129.587 207.836 131.656 207.201C133.494 206.638 135.429 205.703 135.433 204.817C135.434 204.331 134.934 204.146 133.096 204.51V204.51C135.429 203.33 136.595 202.272 136.399 201.456C136.275 200.937 135.07 200.93 133.342 201.891Z" fill="white"/>
<path d="M125.748 198.141C128.412 195.957 128.911 194.604 128.552 194.193C127.948 193.5 124.911 194.432 120.615 197.133C122.02 197.542 124.343 197.732 125.748 198.141Z" fill="white"/>
<path d="M126.771 197.37C126.764 197.37 126.756 197.37 126.748 197.368C125.498 197.098 124.031 196.908 123.198 196.846C123.138 196.842 123.094 196.79 123.098 196.731C123.102 196.671 123.152 196.626 123.214 196.631C124.054 196.693 125.533 196.884 126.794 197.157C126.852 197.17 126.889 197.227 126.877 197.285C126.866 197.336 126.821 197.37 126.771 197.37Z" fill="black"/>
<path d="M130.021 200.24C129.848 200.24 129.687 200.232 129.54 200.225C129.481 200.222 129.435 200.171 129.438 200.112C129.441 200.052 129.496 200.006 129.551 200.009C129.913 200.027 130.324 200.046 130.779 199.955C131.333 199.845 132.18 199.542 132.989 199.166C133.043 199.141 133.107 199.165 133.133 199.219C133.158 199.273 133.134 199.337 133.08 199.362C132.244 199.751 131.4 200.051 130.821 200.167C130.538 200.224 130.268 200.24 130.021 200.24Z" fill="black"/>
<path d="M130.574 202.364C130.534 202.364 130.497 202.364 130.464 202.362C130.405 202.359 130.359 202.309 130.361 202.249C130.364 202.19 130.417 202.145 130.474 202.147C130.837 202.164 131.692 202.077 132.139 201.977C132.505 201.896 132.966 201.742 133.551 201.508C133.606 201.485 133.669 201.513 133.691 201.568C133.713 201.623 133.686 201.686 133.631 201.708C133.036 201.947 132.563 202.104 132.186 202.188C131.765 202.282 130.991 202.364 130.574 202.364Z" fill="black"/>
<path d="M130.368 205.171C130.257 205.171 130.147 205.169 130.036 205.163C129.977 205.16 129.931 205.11 129.934 205.05C129.937 204.991 129.99 204.944 130.047 204.948C130.459 204.967 130.874 204.949 131.281 204.893C131.672 204.839 132.414 204.71 133.006 204.452C133.061 204.429 133.124 204.454 133.148 204.508C133.172 204.563 133.147 204.627 133.092 204.65C132.477 204.918 131.712 205.051 131.311 205.107C131 205.15 130.684 205.171 130.368 205.171Z" fill="black"/>
<path d="M103.364 207.763C106.986 205.196 111.288 202.207 112.727 201.156L121.269 212.615C121.269 212.615 110.255 224.565 104.133 223.565C102.22 223.252 100.955 221.935 100.12 220.272C97.9297 215.908 99.3813 210.586 103.364 207.763Z" fill="#BD0054"/>
<path d="M97.409 221.282C97.409 221.282 102.675 226.515 109.519 222.727C113.156 220.714 111.938 213.389 111.294 210.07C110.041 203.613 94.3857 188.83 84.6016 196.576C84.6016 196.576 92.3133 214.138 97.409 221.282Z" fill="#BD0054"/>
<path d="M106.338 206.144C106.307 206.144 106.275 206.13 106.254 206.104C102.972 202.027 99.0626 200.407 96.3612 199.766C93.4355 199.071 91.2628 199.344 91.2411 199.346C91.1812 199.354 91.1276 199.312 91.1201 199.253C91.1123 199.194 91.1539 199.14 91.213 199.132C91.2349 199.13 93.4473 198.852 96.4109 199.556C99.1453 200.205 103.102 201.844 106.422 205.968C106.46 206.015 106.452 206.083 106.406 206.12C106.386 206.136 106.362 206.144 106.338 206.144Z" fill="#F7F1EB"/>
<path d="M108.556 215.97C108.515 215.97 108.477 215.948 108.458 215.909C106.292 211.417 103.117 209.463 100.834 208.614C98.3633 207.695 96.3841 207.838 96.3644 207.84C96.305 207.844 96.253 207.8 96.2484 207.74C96.2437 207.681 96.2881 207.629 96.3476 207.624C96.3675 207.623 98.3944 207.476 100.91 208.412C103.229 209.274 106.456 211.259 108.653 215.815C108.679 215.869 108.656 215.934 108.602 215.959C108.587 215.966 108.571 215.97 108.556 215.97Z" fill="#F7F1EB"/>
<path d="M107.639 220.24C103.544 220.24 101.204 217.23 101.18 217.199C101.144 217.151 101.153 217.084 101.201 217.047C101.248 217.011 101.316 217.02 101.352 217.068C101.375 217.099 103.739 220.134 107.858 220.021C107.859 220.021 107.86 220.021 107.861 220.021C107.919 220.021 107.967 220.068 107.969 220.126C107.97 220.186 107.923 220.235 107.863 220.237C107.788 220.239 107.713 220.24 107.639 220.24Z" fill="#F7F1EB"/>
<path d="M84.5991 196.579C79.1201 197.169 68.0309 199.99 64.4585 202.12C56.4721 206.882 53.3027 211.002 53.3027 211.002L65.745 230.979C63.7737 236.707 61.378 245.718 61.378 245.718L101.263 242.38C101.263 242.38 99.6051 223.25 97.9429 215.895C96.4408 209.247 89.2998 196.072 84.5991 196.579Z" fill="#EFBC73"/>
<path d="M62.9276 232.686C55.4899 233.835 39.884 240.731 39.2569 229.793C38.9274 224.044 39.389 216.701 45.9819 209.248C50.4972 204.144 58.6073 201.907 63.4606 202.729L64.5588 221.231L62.9276 232.686Z" fill="#BD0054"/>
<path d="M43.28 222.918C43.2735 222.918 43.267 222.918 43.2604 222.916C43.2018 222.906 43.163 222.85 43.1736 222.791C43.7797 219.472 45.0022 216.465 46.8068 213.851C48.2505 211.761 50.0678 209.917 52.2079 208.371C55.8516 205.74 59.2186 204.873 59.2521 204.864C59.3099 204.85 59.3686 204.885 59.3832 204.943C59.3977 205.001 59.3626 205.059 59.3048 205.074C59.2715 205.082 55.9382 205.941 52.3273 208.551C48.9987 210.958 44.7454 215.388 43.3859 222.83C43.3765 222.882 43.331 222.918 43.28 222.918Z" fill="#F7F1EB"/>
<path d="M56.8014 220.952C56.7683 220.952 56.7358 220.937 56.7145 220.909C56.6791 220.861 56.6892 220.793 56.737 220.758C61.1833 217.464 62.1031 212.683 62.112 212.636C62.1228 212.577 62.1789 212.538 62.2375 212.549C62.2961 212.56 62.335 212.616 62.3243 212.674C62.3154 212.723 61.3826 217.585 56.8656 220.931C56.8462 220.946 56.8238 220.952 56.8014 220.952Z" fill="#F7F1EB"/>
<path d="M50.2096 220.491C50.2014 220.491 50.1931 220.49 50.1847 220.488C50.1268 220.474 50.0908 220.416 50.1044 220.358C51.1076 216.101 53.5368 213.316 55.3979 211.729C57.4148 210.01 59.2221 209.286 59.2401 209.279C59.2953 209.257 59.3582 209.284 59.3801 209.34C59.402 209.395 59.3748 209.458 59.3193 209.48C59.3016 209.487 57.5219 210.201 55.5316 211.899C53.6974 213.464 51.3034 216.211 50.3146 220.408C50.3029 220.457 50.2586 220.491 50.2096 220.491Z" fill="#F7F1EB"/>
<path d="M78.1684 206.99C78.304 207.537 77.9713 208.09 77.4251 208.225C76.8789 208.361 76.3261 208.028 76.1905 207.482C76.0548 206.936 76.3876 206.383 76.9337 206.247C77.4799 206.111 78.0327 206.444 78.1684 206.99Z" fill="black"/>
<path d="M79.3598 210.641C79.4954 211.187 79.1627 211.74 78.6165 211.876C78.0703 212.011 77.5175 211.679 77.3819 211.132C77.2462 210.586 77.579 210.033 78.1251 209.897C78.6713 209.762 79.2241 210.095 79.3598 210.641Z" fill="black"/>
<path d="M90.9986 221.469C89.4711 221.699 82.97 221.641 81.5599 224.318C80.1398 227.015 80.8322 230.301 82.3794 232.915C82.3913 232.919 82.4045 232.923 82.4163 232.926C83.1106 233.403 84.2231 234.009 85.6202 234.047C87.213 234.091 87.6503 233.353 89.3392 233.138C92.19 232.775 93.7652 234.594 94.357 233.767C94.7632 233.199 93.8916 232.1 92.8338 231.304C91.7478 230.487 90.6986 230.415 90.7311 230.195C90.7668 229.953 91.8227 230.163 93.1602 230.304C93.7816 230.37 95.3726 231.597 96.0421 230.903C96.5759 230.349 95.2439 228.659 93.4747 228.019C92.2232 227.566 91.01 228.02 90.9722 227.781C90.9439 227.601 91.6733 227.348 92.3665 227.316C93.5102 227.264 95.1515 228.502 95.7553 227.851C96.3468 227.213 95.1574 225.757 93.568 225.066C92.2279 224.483 90.8993 225.054 90.8505 224.756C90.8162 224.547 91.3582 224.168 92.6772 223.746C93.778 223.394 96.1443 223.415 95.9508 222.213C95.7881 221.203 93.3041 221.122 90.9986 221.469Z" fill="white"/>
<path d="M58.7506 223.357C55.3851 223.905 54.4587 235.959 57.5595 238.055C58.064 238.396 84.3955 232.162 84.3955 232.162L88.2927 221.705C77.157 221.925 68.0141 221.849 58.7506 223.357Z" fill="white"/>
<path d="M63.039 237.558C63.039 237.558 41.7513 241.968 39.6685 233.042C37.0234 221.706 53.7788 222.974 62.6741 222.809L63.039 237.558Z" fill="#BD0054"/>
<path d="M82.2764 198.907C83.4031 202.312 80.4358 207.117 74.9418 203.1C74.9418 203.1 74.9639 205.397 73.0243 206.425C70.5186 207.751 67.1376 206.691 66.0902 203.995C65.759 203.142 65.6708 202.145 66.0959 201.308L69.9939 199.887L76.6075 198.025L81.1555 197.109C81.1555 197.109 82.0188 198.128 82.2764 198.907Z" fill="#BD0054"/>
<path d="M73.684 202.831L73.0755 202.821C71.275 202.792 69.8388 201.309 69.8676 199.509L70.0507 188.064C70.0795 186.263 71.5623 184.827 73.3626 184.856L73.9711 184.866C75.7715 184.894 77.2078 186.377 77.179 188.178L76.9959 199.623C76.9671 201.423 75.4843 202.859 73.684 202.831Z" fill="white"/>
<path d="M82.0534 191.924C81.6002 194.139 75.1781 194.451 75.1781 194.451L68.9261 192.58C66.7523 190.256 66.8756 186.612 69.2012 184.44C71.527 182.268 75.1745 182.392 77.3482 184.715C77.3482 184.715 82.5149 189.668 82.0534 191.924Z" fill="white"/>
<path d="M77.9004 186.274C77.9004 186.274 80.2382 186.407 80.4807 186.792C80.7702 187.252 79.6768 188.718 79.6768 188.718C79.6768 188.718 77.9346 186.247 77.9004 186.274Z" fill="white"/>
<path d="M73.4316 188.587C73.4316 188.587 73.907 187.756 74.7696 187.218C74.9531 187.104 75.5232 188.787 75.2972 188.813C74.303 188.925 73.4316 188.587 73.4316 188.587Z" fill="#BD0054"/>
<mask id="mask0_569_9256" style="mask-type:luminance" maskUnits="userSpaceOnUse" x="73" y="186" width="5" height="3">
<path d="M73.4316 188.589C73.4316 188.589 74.1308 187.368 75.3719 186.929C76.613 186.489 77.926 186.999 77.926 186.999C77.926 186.999 77.2268 188.22 75.9857 188.66C74.7446 189.099 73.4316 188.589 73.4316 188.589Z" fill="white"/>
</mask>
<g mask="url(#mask0_569_9256)">
<path d="M74.783 187.161C74.9975 186.235 75.9224 185.659 76.8489 185.873C77.7754 186.087 78.3525 187.011 78.138 187.937C77.9236 188.862 76.9986 189.439 76.0722 189.225C75.1457 189.01 74.5686 188.086 74.783 187.161Z" fill="black"/>
</g>
<path d="M64.0352 188.511C64.0352 188.511 66.1863 194.833 70.776 193.833L71.0252 192.423L73.6829 191.635L70.9438 189.926C69.9871 189.182 69.9503 187.751 70.8674 186.959L75.1751 183.26C75.1751 183.26 74.8715 179.741 73.9664 179.185C70.4443 177.02 65.717 184.333 64.0352 188.511Z" fill="black"/>
<path d="M68.1247 193.359C68.5008 194.389 69.6419 194.92 70.6736 194.544C71.7052 194.169 72.2367 193.029 71.8605 191.998C71.4844 190.967 70.3433 190.436 69.3117 190.812C68.28 191.188 67.7486 192.328 68.1247 193.359Z" fill="white"/>
<path d="M78.768 190.744C78.4794 190.744 78.1993 190.606 78.0249 190.368C77.9896 190.32 77.9999 190.253 78.0479 190.217C78.096 190.182 78.1635 190.192 78.1988 190.24C78.3565 190.455 78.6268 190.564 78.8869 190.517C79.1571 190.469 79.3754 190.265 79.4432 189.997C79.4579 189.94 79.5166 189.905 79.5744 189.919C79.6322 189.934 79.6671 189.993 79.6526 190.05C79.564 190.4 79.2782 190.667 78.9247 190.73C78.8726 190.739 78.8201 190.744 78.768 190.744Z" fill="black"/>
<path d="M69.6062 179.015C68.3911 179.152 66.7054 181.587 65.8086 183.663C64.8826 185.805 64.5586 186.11 63.2822 186.746C60.8189 187.975 60.2869 190.025 61.2107 192.118C62.3883 194.787 66.8334 194.347 69.3129 189.1C71.7925 183.854 71.5685 178.794 69.6062 179.015Z" fill="#1C0300"/>
<path d="M63.6183 187.496C63.6183 187.496 62.6212 187.361 61.2317 187.496C60.4512 187.573 59.4614 187.832 58.4454 188.053L57.879 187.33V188.172C57.1652 188.313 56.4585 188.412 55.816 188.401C55.2427 188.391 54.6525 188.322 54.0718 188.213V187.204L53.358 188.063C50.8239 187.461 48.6133 186.273 48.6133 186.273C50.2314 186.18 52.2159 185.8 55.5876 184.529L56.2611 185.783L56.3373 184.25C59.9609 183.079 63.6183 187.496 63.6183 187.496Z" fill="#BD0054"/>
<path d="M182.809 196.612L182.748 196.599C176.297 195.291 171.25 190.257 169.924 183.809L169.92 183.789L169.911 183.833C168.601 190.296 163.559 195.352 157.1 196.68L157.16 196.692C163.612 198.001 168.659 203.035 169.984 209.483L169.988 209.503L169.997 209.458C171.308 202.996 176.35 197.94 182.809 196.612Z" fill="#BE0054"/>
<path d="M161.99 209.847L161.96 209.841C158.8 209.2 156.328 206.735 155.678 203.576L155.676 203.566L155.672 203.588C155.03 206.754 152.56 209.23 149.396 209.881L149.426 209.887C152.586 210.528 155.059 212.994 155.708 216.152L155.71 216.162L155.714 216.14C156.356 212.974 158.826 210.498 161.99 209.847Z" fill="#BE0054"/>
<path d="M136.052 237.316L136.01 237.307C131.636 236.42 128.214 233.007 127.315 228.635L127.312 228.621L127.306 228.651C126.418 233.033 122.999 236.461 118.619 237.362L118.66 237.37C123.035 238.257 126.457 241.671 127.356 246.043L127.358 246.056L127.364 246.026C128.253 241.645 131.672 238.216 136.052 237.316Z" fill="#BE0054"/>
<path d="M128.356 138.779L130.657 130.396L122.248 132.595L128.356 138.779Z" fill="#F7F1EB"/>
<path d="M141.818 134.079L142.849 125.447L134.859 128.871L141.818 134.079Z" fill="#BE0054"/>
<path d="M154.152 127.545L153.891 118.855L146.498 123.426L154.152 127.545Z" fill="#BE0054"/>
<path d="M99.4592 141.301L104.348 134.113L95.6797 133.473L99.4592 141.301Z" fill="#F7F1EB"/>
<path d="M113.414 141.181L117.183 133.348L108.516 134L113.414 141.181Z" fill="#BE0054"/>
<path d="M105.988 134C100.329 134 94.6674 133.423 89.1389 132.28C89.0805 132.268 89.0429 132.211 89.055 132.153C89.067 132.094 89.1242 132.057 89.1826 132.069C113.565 137.107 138.611 131.068 157.897 115.501C157.944 115.463 158.012 115.47 158.049 115.517C158.086 115.563 158.079 115.631 158.033 115.668C153.188 119.579 147.898 122.94 142.308 125.658C136.84 128.317 131.058 130.375 125.122 131.775C119.25 133.16 113.209 133.906 107.168 133.992C106.775 133.998 106.381 134 105.988 134Z" fill="#BE0054"/>
<path d="M67.9529 171.364L74.209 165.329L65.8555 162.928L67.9529 171.364Z" fill="#F7F1EB"/>
<path d="M82.6153 173.616L87.5763 166.506L78.9473 165.979L82.6153 173.616Z" fill="#BE0054"/>
<path d="M97.878 172.594L100.93 164.691L92.418 166.147L97.878 172.594Z" fill="#F7F1EB"/>
<path d="M42.6113 158.87L50.6911 155.666L43.8766 150.27L42.6113 158.87Z" fill="#F7F1EB"/>
<path d="M54.6422 166.369L61.8954 161.579L54.1211 157.691L54.6422 166.369Z" fill="#BE0054"/>
<path d="M86.5171 166.56C81.6513 166.56 76.6893 165.957 71.7251 164.747C60.7418 162.07 50.2964 156.451 42.3132 148.925C42.2698 148.884 42.2678 148.816 42.3087 148.772C42.3495 148.729 42.4181 148.727 42.4612 148.768C59.5195 164.85 84.7976 170.6 105.363 163.076C105.419 163.055 105.481 163.084 105.501 163.14C105.522 163.196 105.493 163.258 105.437 163.278C99.468 165.462 93.0807 166.56 86.5171 166.56Z" fill="#BE0054"/>
<path d="M122.55 128.445C125.822 146.948 120.921 163.283 111.605 164.93C102.289 166.578 92.0841 152.915 88.8125 134.413L122.55 128.445Z" fill="#EFBC73"/>
<path d="M111.126 164.329C107.038 164.329 102.763 161.584 98.9263 156.447C94.6114 150.67 91.3622 142.551 89.7771 133.586C89.7666 133.527 89.8059 133.471 89.8646 133.461L123.602 127.494C123.631 127.489 123.66 127.495 123.683 127.512C123.706 127.528 123.722 127.553 123.727 127.581C125.313 136.546 125.044 145.287 122.972 152.194C120.893 159.127 117.243 163.387 112.695 164.192C112.176 164.283 111.652 164.329 111.126 164.329ZM90.0085 133.655C91.5947 142.545 94.8212 150.59 99.0994 156.318C103.379 162.048 108.194 164.768 112.657 163.979C121.882 162.347 126.751 146.095 123.533 127.725L90.0085 133.655Z" fill="black"/>
<path d="M118.781 138.854C118.896 140.996 117.397 142.936 115.231 143.319C113.057 143.704 110.976 142.384 110.357 140.32L118.781 138.854Z" fill="#363E44"/>
<path d="M105.394 141.221C105.509 143.363 104.01 145.303 101.844 145.686C99.6702 146.071 97.5892 144.752 96.9707 142.687L105.394 141.221Z" fill="#363E44"/>
<path d="M103.348 156.126C103.31 156.126 103.272 156.118 103.236 156.102C103.1 156.04 103.041 155.879 103.103 155.744C104.283 153.167 106.651 151.334 109.438 150.841C112.256 150.342 115.13 151.273 117.126 153.33C117.23 153.437 117.228 153.608 117.121 153.712C117.014 153.816 116.843 153.813 116.739 153.706C114.868 151.778 112.175 150.906 109.532 151.373C106.92 151.835 104.7 153.553 103.593 155.968C103.548 156.068 103.45 156.126 103.348 156.126Z" fill="#363E44"/>
<path d="M98.6394 128.407C94.5215 146.74 83.7003 159.92 74.4694 157.846C65.2385 155.772 61.0935 139.229 65.2113 120.896L98.6394 128.407Z" fill="#BE0054"/>
<path d="M77.7434 157.803C77.0736 157.803 76.4116 157.731 75.76 157.585C71.2536 156.572 67.8032 152.148 66.0441 145.128C64.2916 138.133 64.4251 129.389 66.4203 120.506C66.4265 120.478 66.4437 120.454 66.4678 120.439C66.492 120.423 66.5213 120.418 66.5492 120.425L99.9771 127.935C100.035 127.949 100.072 128.006 100.059 128.064C98.0637 136.947 94.4448 144.908 89.8694 150.481C85.9411 155.266 81.7065 157.803 77.7434 157.803ZM66.6073 120.659C62.5491 138.862 66.6671 155.32 75.8072 157.374C80.23 158.367 85.1646 155.871 89.7026 150.344C94.2391 144.819 97.8317 136.93 99.8246 128.122L66.6073 120.659Z" fill="black"/>
<path d="M90.3745 139.601C90.5835 137.465 89.171 135.461 87.0242 134.983C84.8695 134.503 82.7323 135.729 82.0234 137.765L90.3745 139.601Z" fill="#363E44"/>
<path d="M77.1049 136.646C77.314 134.51 75.9016 132.506 73.7547 132.028C71.6 131.548 69.4628 132.774 68.7539 134.809L77.1049 136.646Z" fill="#363E44"/>
<path d="M78.797 149.275C78.173 149.275 77.5448 149.207 76.9221 149.068C74.1596 148.453 71.8743 146.517 70.8089 143.891C70.7529 143.753 70.8195 143.595 70.9576 143.539C71.0956 143.483 71.253 143.55 71.309 143.688C72.3078 146.15 74.4501 147.964 77.0396 148.541C79.6581 149.124 82.3882 148.372 84.3423 146.528C84.4508 146.426 84.6213 146.431 84.7237 146.539C84.826 146.647 84.821 146.818 84.7127 146.92C83.0929 148.449 80.9726 149.275 78.797 149.275Z" fill="#363E44"/>
</g>
</g>
</g>
<defs>
<filter id="filter0_d_569_9256" x="0.531475" y="0.171987" width="238.57" height="329.939" filterUnits="userSpaceOnUse" color-interpolation-filters="sRGB">
<feFlood flood-opacity="0" result="BackgroundImageFix"/>
<feColorMatrix in="SourceAlpha" type="matrix" values="0 0 0 0 0 0 0 0 0 0 0 0 0 0 0 0 0 0 127 0" result="hardAlpha"/>
<feOffset dy="2.14247"/>
<feGaussianBlur stdDeviation="2.14247"/>
<feComposite in2="hardAlpha" operator="out"/>
<feColorMatrix type="matrix" values="0 0 0 0 0 0 0 0 0 0 0 0 0 0 0 0 0 0 0.1 0"/>
<feBlend mode="normal" in2="BackgroundImageFix" result="effect1_dropShadow_569_9256"/>
<feBlend mode="normal" in="SourceGraphic" in2="effect1_dropShadow_569_9256" result="shape"/>
</filter>
<clipPath id="clip0_569_9256">
<rect x="20.5703" y="107.863" width="198.493" height="203.219" rx="15.7534" fill="white"/>
</clipPath>
<clipPath id="clip1_569_9256">
<rect x="20.5703" y="107.863" width="198.493" height="203.219" rx="15.7534" fill="white"/>
</clipPath>
</defs>
</svg>
