<svg width="310" height="105" viewBox="0 0 310 105" fill="none" xmlns="http://www.w3.org/2000/svg">
<g clip-path="url(#clip0_535_10945)">
<rect y="0.917969" width="310" height="103.333" rx="6.2" fill="#EFBC73"/>
<path d="M155.129 168.835C219.404 168.835 271.508 116.73 271.508 52.4553C271.508 -11.8191 219.404 -63.9238 155.129 -63.9238C90.8547 -63.9238 38.75 -11.8191 38.75 52.4553C38.75 116.73 90.8547 168.835 155.129 168.835Z" fill="#402A83"/>
<path d="M155.102 123.575C194.679 123.575 226.762 91.4914 226.762 51.9144C226.762 12.3374 194.679 -19.7461 155.102 -19.7461C115.525 -19.7461 83.4415 12.3374 83.4415 51.9144C83.4415 91.4914 115.525 123.575 155.102 123.575Z" fill="#402A83"/>
<path d="M241.577 73.8597C241.569 73.8597 241.56 73.8595 241.552 73.8595L235.052 73.8089C234.189 73.8022 233.38 73.4596 232.774 72.8439C232.168 72.2284 231.839 71.4139 231.846 70.5502L231.869 67.6772C231.883 65.9028 233.331 64.4688 235.102 64.4688C235.111 64.4688 235.119 64.4689 235.128 64.4689L241.627 64.5195C242.491 64.5262 243.3 64.8688 243.906 65.4843C244.511 66.0999 244.841 66.9144 244.834 67.7781L244.811 70.6511C244.796 72.4255 243.348 73.8595 241.577 73.8597ZM235.102 64.7393C233.479 64.7393 232.153 66.0532 232.139 67.6793L232.116 70.5522C232.11 71.3437 232.412 72.0902 232.967 72.6542C233.522 73.2182 234.263 73.5322 235.054 73.5384L241.554 73.589C241.562 73.589 241.57 73.5891 241.577 73.5891C243.2 73.5891 244.527 72.275 244.54 70.649L244.563 67.776C244.57 66.9846 244.268 66.238 243.713 65.6741C243.158 65.1102 242.417 64.7962 241.625 64.79L235.126 64.7394C235.118 64.7394 235.11 64.7393 235.102 64.7393Z" fill="#84524D"/>
<path d="M219.537 70.5949L219.325 97.7852L257.383 98.082L257.595 70.8917L219.537 70.5949Z" fill="#D3BBA3"/>
<path d="M238.373 86.205C238.344 86.205 238.315 86.1955 238.29 86.1764L221.666 73.193C221.608 73.147 221.597 73.062 221.643 73.0032C221.689 72.9441 221.774 72.934 221.833 72.9798L238.374 85.8988L254.947 73.2266C255.007 73.1813 255.092 73.1925 255.137 73.2518C255.182 73.3111 255.171 73.3961 255.111 73.4413L238.456 86.1771C238.431 86.1958 238.402 86.205 238.373 86.205Z" fill="#F7F1EB"/>
<path d="M235.778 84.3279L235.755 87.1582L241.119 87.2L241.141 84.3698L235.778 84.3279Z" fill="#F7F1EB"/>
<path d="M117.66 78.9165C117.585 78.9165 117.524 78.8555 117.524 78.7801V59.1813C117.524 59.1059 117.585 59.0449 117.66 59.0449C117.736 59.0449 117.797 59.1059 117.797 59.1813V78.7801C117.797 78.8555 117.736 78.9165 117.66 78.9165Z" fill="#D3BBA3"/>
<path d="M105.394 91.4603H52.836C52.7606 91.4603 52.6996 91.3993 52.6996 91.3239V13.9352C52.6996 13.8598 52.7607 13.7988 52.836 13.7988H67.4408C67.5161 13.7988 67.5771 13.8599 67.5771 13.9352C67.5771 14.0106 67.5161 14.0716 67.4408 14.0716H52.9724V91.1875H105.394C105.47 91.1875 105.531 91.2485 105.531 91.3239C105.531 91.3994 105.47 91.4603 105.394 91.4603Z" fill="#D3BBA3"/>
<path d="M117.66 23.5399C117.585 23.5399 117.524 23.4789 117.524 23.4035V14.0716H102.098C102.023 14.0716 101.962 14.0106 101.962 13.9352C101.962 13.8599 102.023 13.7988 102.098 13.7988H117.66C117.736 13.7988 117.797 13.8599 117.797 13.9352V23.4035C117.797 23.4789 117.736 23.5399 117.66 23.5399Z" fill="#D3BBA3"/>
<path d="M59.4366 85.7715H111.06L111.06 16.3042H59.4366L59.4366 85.7715Z" fill="#35674E"/>
<path d="M91.6503 9.85356C91.6503 5.65637 88.2479 2.25391 84.0507 2.25391C79.8534 2.25391 76.451 5.65644 76.451 9.85356H68.1177V19.8686H99.9837V9.85356H91.6503ZM78.4509 9.85356C78.4509 6.76089 80.9579 4.2538 84.0506 4.2538C87.1432 4.2538 89.6504 6.76089 89.6504 9.85356H78.4509Z" fill="#F7F1EB"/>
<path d="M101.182 18.8074H69.3156C69.2402 18.8074 69.1792 18.7463 69.1792 18.671V8.65596C69.1792 8.58055 69.2403 8.51958 69.3156 8.51958H77.5137C77.5867 4.31656 81.0284 0.919922 85.2486 0.919922C89.4688 0.919922 92.9105 4.3165 92.9835 8.51958H101.182C101.257 8.51958 101.318 8.58061 101.318 8.65596V18.671C101.318 18.7463 101.257 18.8074 101.182 18.8074ZM69.452 18.5345H101.045V8.79234H92.8482C92.7729 8.79234 92.7119 8.73132 92.7119 8.65596C92.7119 4.5407 89.3639 1.19275 85.2486 1.19275C81.1333 1.19275 77.7853 4.5407 77.7853 8.65596C77.7853 8.73138 77.7242 8.79234 77.6489 8.79234H69.452V18.5345ZM90.8483 8.79234H79.6488C79.5734 8.79234 79.5124 8.73132 79.5124 8.65596C79.5124 5.49301 82.0856 2.91981 85.2485 2.91981C88.4115 2.91981 90.9847 5.49301 90.9847 8.65596C90.9847 8.73132 90.9237 8.79234 90.8483 8.79234ZM79.7869 8.51952H90.7102C90.6376 5.56986 88.2155 3.19258 85.2485 3.19258C82.2816 3.19258 79.8595 5.56986 79.7869 8.51952Z" fill="#D3BBA3"/>
<path d="M102.768 37.8135H65.6769C65.6016 37.8135 65.5405 37.7524 65.5405 37.6771V28.0133C65.5405 27.9379 65.6016 27.877 65.6769 27.877H102.768C102.844 27.877 102.905 27.938 102.905 28.0133V37.6771C102.905 37.7525 102.844 37.8135 102.768 37.8135ZM65.8133 37.5407H102.632V28.1497H65.8133V37.5407Z" fill="#9E9569"/>
<path d="M94.3335 68.3594H77.5212V69.3918H94.3335V68.3594Z" fill="white"/>
<path d="M100.799 70.9375H80.1302V71.9699H100.799V70.9375Z" fill="white"/>
<path d="M97.4077 73.5176H77.5212V74.55H97.4077V73.5176Z" fill="white"/>
<path d="M102.768 57.002H81.9703V58.0343H102.768V57.002Z" fill="white"/>
<path d="M96.8451 59.5801H76.9586V60.6125H96.8451V59.5801Z" fill="white"/>
<path d="M100.31 62.1602H76.9586V63.1925H100.31V62.1602Z" fill="white"/>
<path d="M100.311 46.334H82.0446V47.3664H100.311V46.334Z" fill="white"/>
<path d="M96.8454 48.9121H77.0327V49.9445H96.8454V48.9121Z" fill="white"/>
<path d="M102.769 51.4922H77.0327V52.5246H102.769V51.4922Z" fill="white"/>
<path d="M74.3378 75.76H65.9914C65.916 75.76 65.855 75.6989 65.855 75.6236V67.2809C65.855 67.2055 65.9161 67.1445 65.9914 67.1445H74.3378C74.4132 67.1445 74.4742 67.2056 74.4742 67.2809V75.6236C74.4742 75.699 74.4131 75.76 74.3378 75.76ZM66.1277 75.4871H74.2014V67.4172H66.1277V75.4871Z" fill="white"/>
<path d="M69.7168 74.3632L67.1038 71.9874L67.911 70.9924L69.5679 72.3164L72.1677 68.543L73.2254 69.271L69.7168 74.3632Z" fill="#F7F1EB"/>
<path d="M74.3376 64.4024H65.9911C65.9158 64.4024 65.8547 64.3414 65.8547 64.266V55.9235C65.8547 55.8481 65.9158 55.7871 65.9911 55.7871H74.3376C74.4129 55.7871 74.4739 55.8481 74.4739 55.9235V64.266C74.4739 64.3414 74.4128 64.4024 74.3376 64.4024ZM66.1275 64.1296H74.2011V56.0599H66.1275V64.1296Z" fill="white"/>
<path d="M69.7166 63.0038L67.1035 60.628L67.9108 59.633L69.5676 60.957L72.1674 57.1836L73.2252 57.9116L69.7166 63.0038Z" fill="#F7F1EB"/>
<path d="M74.3378 53.7346H65.9914C65.916 53.7346 65.855 53.6735 65.855 53.5982V45.2555C65.855 45.1801 65.9161 45.1191 65.9914 45.1191H74.3378C74.4132 45.1191 74.4742 45.1802 74.4742 45.2555V53.5982C74.4742 53.6735 74.4131 53.7346 74.3378 53.7346ZM66.1277 53.4617H74.2014V45.3918H66.1277V53.4617Z" fill="white"/>
<path d="M69.7168 52.3378L67.1038 49.962L67.911 48.967L69.5679 50.291L72.1677 46.5176L73.2254 47.2456L69.7168 52.3378Z" fill="#F7F1EB"/>
<path d="M136.322 98.0979H94.4322C94.3545 98.0979 94.2915 98.0349 94.2915 97.9572V87.1779C94.2915 87.1 94.3545 87.0371 94.4322 87.0371H136.322C136.4 87.0371 136.463 87.1001 136.463 87.1779V97.9572C136.463 98.035 136.4 98.0979 136.322 98.0979ZM94.573 97.8164H136.181V87.3186H94.573V97.8164Z" fill="#E6D0BE"/>
<path d="M131.144 83.6308C129.357 83.0893 129.146 80.4492 127.656 80.4867C123.966 80.5798 122.291 92.0963 119.493 91.9443C117.183 91.8187 116.804 83.8882 114.129 83.6308C111.274 83.356 109.261 92.1559 106.177 91.9443C103.469 91.7584 103.577 84.8742 98.7793 82.5695C97.9732 82.1822 97.1286 81.9728 96.2815 81.8897V95.7285H134.473V82.6993C133.031 83.6894 131.959 83.8778 131.144 83.6308Z" fill="#8B865C"/>
<path d="M203.129 61.6516H197.441L200.285 48.7754L203.129 61.6516Z" fill="#EFBC73"/>
<path d="M208.816 61.6521H203.129L205.972 52.5098L208.816 61.6521Z" fill="#8B865C"/>
<path d="M214.504 61.652H208.816L211.66 44.9355L214.504 61.652Z" fill="#35674E"/>
<path d="M220.192 61.6512H214.504L217.348 53.293L220.192 61.6512Z" fill="#D3BBA3"/>
<path d="M221.259 63.3064H195.87C195.775 63.3064 195.698 63.2291 195.698 63.1337V52.5086C195.698 52.4131 195.775 52.3359 195.87 52.3359C195.966 52.3359 196.043 52.4132 196.043 52.5086V62.961H221.259C221.354 62.961 221.431 63.0382 221.431 63.1336C221.431 63.229 221.354 63.3064 221.259 63.3064Z" fill="#E6D0BE"/>
<path d="M208.615 103.709V97.4595L192.772 60.3934C191.466 56.9189 188.387 54.423 184.718 53.8591C175.998 52.5188 158.921 50.8276 141.066 54.2364C137.821 54.8557 135.028 56.9035 133.453 59.807L122.924 79.2242L119.358 103.709H208.615Z" fill="#35674E"/>
<path d="M172.772 78.5896C172.73 78.5896 172.687 78.5768 172.651 78.55L167.275 74.6122C167.185 74.5463 167.165 74.4204 167.228 74.3289L177.81 59.2279C177.876 59.1354 178.003 59.1128 178.096 59.1777C178.189 59.2428 178.211 59.3706 178.146 59.4635L167.68 74.3998L172.893 78.2191C172.984 78.2859 173.004 78.4144 172.937 78.5058C172.897 78.5605 172.835 78.5896 172.772 78.5896Z" fill="#363E44"/>
<path d="M190.73 90.173C190.685 90.173 190.64 90.1584 190.602 90.1283C190.513 90.0576 190.499 89.9286 190.57 89.84L195.421 83.7568C195.491 83.6683 195.621 83.654 195.709 83.7242C195.798 83.7949 195.812 83.9238 195.741 84.0125L190.891 90.0957C190.85 90.1466 190.79 90.173 190.73 90.173Z" fill="#363E44"/>
<path d="M163.009 54.8418H156.055L159.393 60.9665L163.009 54.8418Z" fill="#363E44"/>
<path d="M158.245 58.0176H159.428H160.61L163.223 91.188L159.428 95.0312L155.633 91.188L158.245 58.0176Z" fill="#363E44"/>
<path d="M127.539 77.4336L136.192 97.2649C138.022 101.458 136.238 106.35 132.139 108.382L131.395 108.752C125.666 111.592 118.956 107.393 119.005 101L119.172 79.061L127.539 77.4336Z" fill="white"/>
<path d="M124.073 92.2022H148.8L137.619 58.3887H112.892L124.073 92.2022Z" fill="#EFBC73"/>
<path d="M143.008 74.8992L141.479 70.2754L164.623 85.3435L170.068 77.4048L188.968 91.333L175.773 106.356C171.953 110.706 165.199 110.764 161.304 106.482L146.758 90.4888C145.538 89.1471 143.856 88.3133 142.048 88.1623C139.223 87.9265 135.215 87.4302 135.012 86.5043C134.697 85.0675 142.177 84.7064 142.177 84.7064C142.177 84.7064 133.253 84.6042 133.236 83.0962C133.219 81.5882 141.301 81.3074 141.301 81.3074C141.301 81.3074 132.485 80.9623 132.401 79.6414C132.317 78.3206 140.753 77.9384 140.753 77.9384C140.753 77.9384 132.91 77.6411 132.923 75.8944C132.936 74.1477 143.008 74.8992 143.008 74.8992Z" fill="white"/>
<path d="M170.532 90.1728C170.487 90.1728 170.442 90.158 170.404 90.1276L164.649 85.5017C164.561 85.4308 164.547 85.3015 164.618 85.2132C164.688 85.1254 164.817 85.1108 164.906 85.1819L170.661 89.8079C170.749 89.8788 170.763 90.008 170.692 90.0964C170.652 90.1466 170.592 90.1728 170.532 90.1728Z" fill="#363E44"/>
<path d="M119.038 79.536C117.186 80.0587 116.667 80.9973 116.89 81.9114C117.112 82.8257 117.993 83.3692 119.845 82.8466C121.697 82.3239 123.819 80.9329 123.596 80.0187C123.373 79.1045 120.89 79.0133 119.038 79.536Z" fill="white"/>
<path d="M118.673 76.2606C116.526 76.8664 115.925 77.9542 116.183 79.0138C116.441 80.0734 117.462 80.7034 119.608 80.0976C121.755 79.4918 124.214 77.8796 123.956 76.82C123.698 75.7604 120.819 75.6548 118.673 76.2606Z" fill="white"/>
<path d="M117.745 74.2333C115.893 74.756 115.013 74.2124 114.79 73.2982C114.567 72.384 115.086 71.4453 116.938 70.9227C118.79 70.4 121.273 70.4912 121.496 71.4055C121.719 72.3195 119.597 73.7106 117.745 74.2333Z" fill="white"/>
<path d="M118.921 77.2812C116.775 77.887 115.755 77.257 115.496 76.1974C115.238 75.1378 115.84 74.05 117.986 73.4442C120.133 72.8384 123.011 72.944 123.269 74.0036C123.527 75.0632 121.068 76.6754 118.921 77.2812Z" fill="white"/>
<path d="M165.654 59.556C165.611 59.556 165.569 59.5424 165.533 59.5166L162.992 57.6636C162.901 57.5969 162.881 57.4687 162.947 57.3772C163.014 57.2856 163.142 57.2654 163.234 57.3323L165.602 59.059L167.707 55.9019C167.77 55.8075 167.897 55.7823 167.992 55.845C168.086 55.9078 168.111 56.0351 168.048 56.1295L165.825 59.4647C165.794 59.5111 165.745 59.5431 165.69 59.5528C165.678 59.555 165.666 59.556 165.654 59.556Z" fill="#363E44"/>
<path d="M153.743 58.6546C153.667 58.6546 153.595 58.6128 153.559 58.5412L152.024 55.4707C151.973 55.3693 152.014 55.2461 152.116 55.1954C152.217 55.145 152.34 55.1858 152.391 55.2872L153.841 58.1873L156.365 57.1479C156.47 57.1055 156.589 57.1549 156.632 57.2595C156.676 57.3642 156.626 57.4843 156.521 57.5273L153.821 58.6392C153.795 58.6496 153.769 58.6546 153.743 58.6546Z" fill="#363E44"/>
<path d="M156.088 54.8951L154.801 52.8106L151.6 39.893C151.61 37.9887 156.5 37.0131 158.404 37.0237C160.309 37.0343 160.665 35.7235 160.655 37.628L164.577 52.8105L162.975 54.895L156.088 54.8951Z" fill="white"/>
<path d="M149.915 50.127C152.214 51.5449 157.735 46.2133 157.735 46.2133L161.215 39.2431C160.969 35.451 157.695 32.5768 153.903 32.8233C150.111 33.07 147.236 36.3439 147.483 40.136C147.483 40.136 147.573 48.6828 149.915 50.127Z" fill="white"/>
<path d="M148.39 41.8887C148.39 41.8887 146.595 44.0316 146.732 44.5577C146.896 45.1856 149.066 45.4339 149.066 45.4339C149.066 45.4339 148.339 41.8969 148.39 41.8887Z" fill="white"/>
<path d="M154.054 39.8951C154.054 39.8951 152.942 39.6292 151.769 39.9397C151.52 40.0057 152.519 41.8787 152.726 41.7029C153.636 40.9298 154.054 39.8951 154.054 39.8951Z" fill="#35674E"/>
<mask id="mask0_535_10945" style="mask-type:luminance" maskUnits="userSpaceOnUse" x="148" y="39" width="7" height="4">
<path d="M154.055 39.897C154.055 39.897 152.42 39.5059 151.023 40.2262C149.626 40.9466 148.996 42.5055 148.996 42.5055C148.996 42.5055 150.631 42.8967 152.028 42.1763C153.425 41.456 154.055 39.897 154.055 39.897Z" fill="white"/>
</mask>
<g mask="url(#mask0_535_10945)">
<path d="M151.706 39.902C150.725 39.3313 149.467 39.6642 148.896 40.6455C148.326 41.6269 148.658 42.885 149.64 43.4557C150.621 44.0263 151.879 43.6934 152.45 42.7121C153.021 41.7308 152.688 40.4726 151.706 39.902Z" fill="#363E44"/>
</g>
<path d="M161.67 31.6605C161.67 31.6605 165.417 38.7039 160.795 41.8791L159.363 40.9418L156.505 42.6098L157.256 38.8282C157.39 37.3878 156.173 36.1842 154.735 36.3344L148.454 36.9902L148.301 33.612C152.27 30.6803 156.658 29.7055 161.67 31.6605Z" fill="#363E44"/>
<path d="M154.601 31.3182C155.318 31.4212 155.983 30.9235 156.086 30.2065C156.189 29.4894 155.745 28.4493 155.028 28.3462C154.311 28.2432 153.593 29.1162 153.489 29.8333C153.386 30.5503 153.884 31.2151 154.601 31.3182Z" fill="#363E44"/>
<path d="M153.654 31.7725C154.331 31.5141 154.67 30.7561 154.412 30.0793C154.153 29.4025 153.26 28.7091 152.583 28.9674C151.907 29.2258 151.703 30.3381 151.961 31.0148C152.219 31.6916 152.977 32.0309 153.654 31.7725Z" fill="#363E44"/>
<path d="M151.63 32.7718C152.472 32.2671 152.745 31.1753 152.241 30.3331C151.736 29.491 150.38 28.7766 149.538 29.2814C148.696 29.7861 148.686 31.3187 149.191 32.1609C149.696 33.003 150.788 33.2765 151.63 32.7718Z" fill="#363E44"/>
<path d="M156.683 31.2817C157.396 31.4078 158.076 30.9318 158.203 30.2185C158.329 29.5051 157.919 28.4512 157.205 28.325C156.492 28.1989 155.746 29.0483 155.619 29.7616C155.493 30.475 155.969 31.1555 156.683 31.2817Z" fill="#363E44"/>
<path d="M150.031 33.2438C150.318 32.4181 149.88 31.5167 149.054 31.2306C148.229 30.9445 146.895 31.2322 146.609 32.0579C146.323 32.8837 147.193 33.9348 148.018 34.2209C148.844 34.507 149.745 34.0696 150.031 33.2438Z" fill="#363E44"/>
<path d="M158.369 31.6132C159.214 31.9311 160.156 31.504 160.474 30.6592C160.792 29.8144 160.531 28.4299 159.687 28.112C158.842 27.7941 157.733 28.6634 157.415 29.5081C157.098 30.3529 157.525 31.2954 158.369 31.6132Z" fill="#363E44"/>
<path d="M160.013 31.7096C160.494 32.2242 161.301 32.2513 161.816 31.7702C162.33 31.2891 162.627 30.2301 162.146 29.7154C161.664 29.2008 160.588 29.4255 160.073 29.9066C159.559 30.3877 159.532 31.1949 160.013 31.7096Z" fill="#363E44"/>
<path d="M149.808 35.2418C149.823 34.1766 148.972 33.3006 147.907 33.2854C146.841 33.2701 145.408 34.1132 145.393 35.1785C145.377 36.2438 146.786 37.1277 147.851 37.143C148.917 37.1582 149.792 36.3071 149.808 35.2418Z" fill="#363E44"/>
<path d="M162.549 39.1842C163.139 40.3546 162.669 41.7818 161.498 42.3718C160.328 42.962 158.901 42.4915 158.311 41.3211C157.721 40.1507 158.191 38.7236 159.362 38.1335C160.532 37.5435 161.959 38.0138 162.549 39.1842Z" fill="white"/>
<path d="M147.914 45.22L149.02 50.8909C149.174 51.6805 149.954 52.181 150.737 51.9935C150.933 51.9464 151.146 51.8931 151.371 51.8333C155.266 50.7993 158.352 47.8268 159.526 43.972C159.92 42.6806 159.475 41.2803 158.409 40.4525L158.057 40.1797L156.983 40.8826C156.983 40.8826 156.384 44.0665 155.231 44.3912C154.078 44.7158 151.834 43.9443 147.914 45.22Z" fill="#363E44"/>
<path d="M150.78 46.7203C150.584 46.7203 150.387 46.6714 150.209 46.5724C150.11 46.5175 150.074 46.3927 150.129 46.2935C150.184 46.1944 150.308 46.1583 150.408 46.2138C150.67 46.3592 150.994 46.3382 151.233 46.1607C151.463 45.9892 151.577 45.6947 151.525 45.4104C151.504 45.2991 151.578 45.1921 151.689 45.1715C151.8 45.1507 151.907 45.2245 151.928 45.3359C152.009 45.7724 151.832 46.2254 151.478 46.4897C151.273 46.6426 151.027 46.7203 150.78 46.7203Z" fill="white"/>
<path d="M156.445 36.588C156.391 36.588 156.336 36.5664 156.296 36.5235C156.218 36.441 156.222 36.3111 156.305 36.2334L158.84 33.8468C158.922 33.7693 159.052 33.7729 159.13 33.8556C159.208 33.9382 159.204 34.068 159.121 34.1457L156.586 36.5324C156.546 36.5697 156.496 36.588 156.445 36.588Z" fill="white"/>
<path d="M258.425 17.8223H223.859V43.897H258.425V17.8223Z" fill="#35674E"/>
<path d="M258.425 44.0387H223.859C223.78 44.0387 223.716 43.9752 223.716 43.8966V17.8218C223.716 17.7432 223.78 17.6797 223.859 17.6797H258.425C258.504 17.6797 258.567 17.7433 258.567 17.8218V43.8966C258.567 43.9752 258.504 44.0387 258.425 44.0387ZM224.001 43.7545H258.283V17.9639H224.001V43.7545Z" fill="#D3BBA3"/>
<path d="M256.65 23.8535H252.786V27.7169H256.65V23.8535Z" fill="white"/>
<path d="M252.089 27.8585H248.225C248.147 27.8585 248.083 27.7949 248.083 27.7164V23.853C248.083 23.7745 248.147 23.7109 248.225 23.7109H252.089C252.167 23.7109 252.231 23.7745 252.231 23.853V27.7164C252.231 27.7949 252.167 27.8585 252.089 27.8585ZM248.367 27.5742H251.946V23.9951H248.367V27.5742Z" fill="#E6D0BE"/>
<path d="M247.528 27.8585H243.664C243.585 27.8585 243.522 27.7949 243.522 27.7164V23.853C243.522 23.7745 243.586 23.7109 243.664 23.7109H247.528C247.606 23.7109 247.67 23.7745 247.67 23.853V27.7164C247.67 27.7949 247.606 27.8585 247.528 27.8585ZM243.806 27.5742H247.385V23.9951H243.806V27.5742Z" fill="#E6D0BE"/>
<path d="M242.967 27.8585H239.103C239.025 27.8585 238.961 27.7949 238.961 27.7164V23.853C238.961 23.7745 239.025 23.7109 239.103 23.7109H242.967C243.045 23.7109 243.109 23.7745 243.109 23.853V27.7164C243.109 27.7949 243.045 27.8585 242.967 27.8585ZM239.245 27.5742H242.824V23.9951H239.245V27.5742Z" fill="#E6D0BE"/>
<path d="M238.406 27.8585H234.542C234.464 27.8585 234.4 27.7949 234.4 27.7164V23.853C234.4 23.7745 234.464 23.7109 234.542 23.7109H238.406C238.484 23.7109 238.548 23.7745 238.548 23.853V27.7164C238.548 27.7949 238.484 27.8585 238.406 27.8585ZM234.684 27.5742H238.263V23.9951H234.684V27.5742Z" fill="#E6D0BE"/>
<path d="M233.845 27.8585H229.981C229.903 27.8585 229.839 27.7949 229.839 27.7164V23.853C229.839 23.7745 229.903 23.7109 229.981 23.7109H233.845C233.923 23.7109 233.987 23.7745 233.987 23.853V27.7164C233.987 27.7949 233.923 27.8585 233.845 27.8585ZM230.123 27.5742H233.702V23.9951H230.123V27.5742Z" fill="#E6D0BE"/>
<path d="M229.287 27.8585H225.423C225.345 27.8585 225.281 27.7949 225.281 27.7164V23.853C225.281 23.7745 225.345 23.7109 225.423 23.7109H229.287C229.365 23.7109 229.429 23.7745 229.429 23.853V27.7164C229.429 27.7949 229.365 27.8585 229.287 27.8585ZM225.565 27.5742H229.144V23.9951H225.565V27.5742Z" fill="#E6D0BE"/>
<path d="M256.649 32.3878H252.786C252.708 32.3878 252.644 32.3242 252.644 32.2456V28.3823C252.644 28.3038 252.708 28.2402 252.786 28.2402H256.649C256.728 28.2402 256.792 28.3038 256.792 28.3823V32.2457C256.792 32.3242 256.728 32.3878 256.649 32.3878ZM252.928 32.1035H256.507V28.5244H252.928V32.1035Z" fill="#E6D0BE"/>
<path d="M252.089 32.3878H248.225C248.147 32.3878 248.083 32.3242 248.083 32.2456V28.3823C248.083 28.3038 248.147 28.2402 248.225 28.2402H252.089C252.167 28.2402 252.231 28.3038 252.231 28.3823V32.2457C252.231 32.3242 252.167 32.3878 252.089 32.3878ZM248.367 32.1035H251.946V28.5244H248.367V32.1035Z" fill="#E6D0BE"/>
<path d="M247.528 32.3878H243.664C243.585 32.3878 243.522 32.3242 243.522 32.2456V28.3823C243.522 28.3038 243.586 28.2402 243.664 28.2402H247.528C247.606 28.2402 247.67 28.3038 247.67 28.3823V32.2457C247.67 32.3242 247.606 32.3878 247.528 32.3878ZM243.806 32.1035H247.385V28.5244H243.806V32.1035Z" fill="#E6D0BE"/>
<path d="M242.967 32.3878H239.103C239.025 32.3878 238.961 32.3242 238.961 32.2456V28.3823C238.961 28.3038 239.025 28.2402 239.103 28.2402H242.967C243.045 28.2402 243.109 28.3038 243.109 28.3823V32.2457C243.109 32.3242 243.045 32.3878 242.967 32.3878ZM239.245 32.1035H242.824V28.5244H239.245V32.1035Z" fill="#E6D0BE"/>
<path d="M238.406 28.3828H234.542V32.2462H238.406V28.3828Z" fill="white"/>
<path d="M233.845 32.3878H229.981C229.903 32.3878 229.839 32.3242 229.839 32.2456V28.3823C229.839 28.3038 229.903 28.2402 229.981 28.2402H233.845C233.923 28.2402 233.987 28.3038 233.987 28.3823V32.2457C233.987 32.3242 233.923 32.3878 233.845 32.3878ZM230.123 32.1035H233.702V28.5244H230.123V32.1035Z" fill="#E6D0BE"/>
<path d="M229.284 28.3828H225.42V32.2462H229.284V28.3828Z" fill="#EFBC73"/>
<path d="M256.649 36.9191H252.786C252.708 36.9191 252.644 36.8555 252.644 36.777V32.9136C252.644 32.835 252.708 32.7715 252.786 32.7715H256.649C256.728 32.7715 256.792 32.8351 256.792 32.9136V36.777C256.792 36.8555 256.728 36.9191 256.649 36.9191ZM252.928 36.6349H256.507V33.0557H252.928V36.6349Z" fill="#E6D0BE"/>
<path d="M252.089 36.9191H248.225C248.147 36.9191 248.083 36.8555 248.083 36.777V32.9136C248.083 32.835 248.147 32.7715 248.225 32.7715H252.089C252.167 32.7715 252.231 32.8351 252.231 32.9136V36.777C252.231 36.8555 252.167 36.9191 252.089 36.9191ZM248.367 36.6349H251.946V33.0557H248.367V36.6349Z" fill="#E6D0BE"/>
<path d="M247.528 32.9121H243.664V36.7755H247.528V32.9121Z" fill="white"/>
<path d="M242.967 36.9191H239.103C239.025 36.9191 238.961 36.8555 238.961 36.777V32.9136C238.961 32.835 239.025 32.7715 239.103 32.7715H242.967C243.045 32.7715 243.109 32.8351 243.109 32.9136V36.777C243.109 36.8555 243.045 36.9191 242.967 36.9191ZM239.245 36.6349H242.824V33.0557H239.245V36.6349Z" fill="#E6D0BE"/>
<path d="M238.406 36.9191H234.542C234.464 36.9191 234.4 36.8555 234.4 36.777V32.9136C234.4 32.835 234.464 32.7715 234.542 32.7715H238.406C238.484 32.7715 238.548 32.8351 238.548 32.9136V36.777C238.548 36.8555 238.484 36.9191 238.406 36.9191ZM234.684 36.6349H238.263V33.0557H234.684V36.6349Z" fill="#E6D0BE"/>
<path d="M233.845 36.9191H229.981C229.903 36.9191 229.839 36.8555 229.839 36.777V32.9136C229.839 32.835 229.903 32.7715 229.981 32.7715H233.845C233.923 32.7715 233.987 32.8351 233.987 32.9136V36.777C233.987 36.8555 233.923 36.9191 233.845 36.9191ZM230.123 36.6349H233.702V33.0557H230.123V36.6349Z" fill="#E6D0BE"/>
<path d="M229.284 36.9191H225.42C225.342 36.9191 225.278 36.8555 225.278 36.777V32.9136C225.278 32.835 225.342 32.7715 225.42 32.7715H229.284C229.362 32.7715 229.426 32.8351 229.426 32.9136V36.777C229.426 36.8555 229.362 36.9191 229.284 36.9191ZM225.562 36.6349H229.142V33.0557H225.562V36.6349Z" fill="#E6D0BE"/>
<path d="M256.65 37.4434H252.786V41.3067H256.65V37.4434Z" fill="#EFBC73"/>
<path d="M252.089 41.4485H248.225C248.147 41.4485 248.083 41.3849 248.083 41.3064V37.4429C248.083 37.3644 248.147 37.3008 248.225 37.3008H252.089C252.167 37.3008 252.231 37.3644 252.231 37.4429V41.3064C252.231 41.3849 252.167 41.4485 252.089 41.4485ZM248.367 41.1642H251.946V37.585H248.367V41.1642Z" fill="#E6D0BE"/>
<path d="M247.528 41.4485H243.664C243.585 41.4485 243.522 41.3849 243.522 41.3064V37.4429C243.522 37.3644 243.586 37.3008 243.664 37.3008H247.528C247.606 37.3008 247.67 37.3644 247.67 37.4429V41.3064C247.67 41.3849 247.606 41.4485 247.528 41.4485ZM243.806 41.1642H247.385V37.585H243.806V41.1642Z" fill="#E6D0BE"/>
<path d="M242.967 41.4485H239.103C239.025 41.4485 238.961 41.3849 238.961 41.3064V37.4429C238.961 37.3644 239.025 37.3008 239.103 37.3008H242.967C243.045 37.3008 243.109 37.3644 243.109 37.4429V41.3064C243.109 41.3849 243.045 41.4485 242.967 41.4485ZM239.245 41.1642H242.824V37.585H239.245V41.1642Z" fill="#E6D0BE"/>
<path d="M238.406 41.4485H234.542C234.464 41.4485 234.4 41.3849 234.4 41.3064V37.4429C234.4 37.3644 234.464 37.3008 234.542 37.3008H238.406C238.484 37.3008 238.548 37.3644 238.548 37.4429V41.3064C238.548 41.3849 238.484 41.4485 238.406 41.4485ZM234.684 41.1642H238.263V37.585H234.684V41.1642Z" fill="#E6D0BE"/>
<path d="M233.845 41.4485H229.981C229.903 41.4485 229.839 41.3849 229.839 41.3064V37.4429C229.839 37.3644 229.903 37.3008 229.981 37.3008H233.845C233.923 37.3008 233.987 37.3644 233.987 37.4429V41.3064C233.987 41.3849 233.923 41.4485 233.845 41.4485ZM230.123 41.1642H233.702V37.585H230.123V41.1642Z" fill="#E6D0BE"/>
<path d="M229.284 41.4485H225.42C225.342 41.4485 225.278 41.3849 225.278 41.3064V37.4429C225.278 37.3644 225.342 37.3008 225.42 37.3008H229.284C229.362 37.3008 229.426 37.3644 229.426 37.4429V41.3064C229.426 41.3849 229.362 41.4485 229.284 41.4485ZM225.562 41.1642H229.142V37.585H225.562V41.1642Z" fill="#E6D0BE"/>
<path d="M256.895 19.5045C256.94 19.2271 256.752 18.9657 256.475 18.9206C256.197 18.8756 255.936 19.064 255.891 19.3414C255.846 19.6189 256.034 19.8802 256.312 19.9253C256.589 19.9703 256.85 19.7819 256.895 19.5045Z" fill="#402A83"/>
<path d="M253.831 19.5045C253.876 19.2271 253.688 18.9657 253.41 18.9206C253.133 18.8756 252.872 19.064 252.827 19.3414C252.781 19.6189 252.97 19.8802 253.247 19.9253C253.525 19.9703 253.786 19.7819 253.831 19.5045Z" fill="#402A83"/>
<path d="M250.767 19.5045C250.812 19.2271 250.623 18.9657 250.346 18.9206C250.068 18.8756 249.807 19.064 249.762 19.3414C249.717 19.6189 249.905 19.8802 250.183 19.9253C250.46 19.9703 250.722 19.7819 250.767 19.5045Z" fill="#402A83"/>
<path d="M247.702 19.5045C247.747 19.2271 247.559 18.9657 247.281 18.9206C247.004 18.8756 246.743 19.064 246.698 19.3414C246.653 19.6189 246.841 19.8802 247.118 19.9253C247.396 19.9703 247.657 19.7819 247.702 19.5045Z" fill="#402A83"/>
<path d="M244.633 19.5472C244.698 19.2737 244.528 18.9996 244.255 18.9351C243.981 18.8705 243.707 19.0398 243.642 19.3134C243.578 19.5869 243.747 19.8609 244.021 19.9255C244.294 19.9901 244.568 19.8207 244.633 19.5472Z" fill="#402A83"/>
<path d="M241.573 19.5045C241.618 19.2271 241.43 18.9657 241.153 18.9206C240.875 18.8756 240.614 19.064 240.569 19.3414C240.524 19.6189 240.712 19.8802 240.99 19.9253C241.267 19.9703 241.528 19.7819 241.573 19.5045Z" fill="#402A83"/>
<path d="M238.504 19.5472C238.568 19.2737 238.399 18.9996 238.126 18.9351C237.852 18.8705 237.578 19.0398 237.513 19.3134C237.449 19.5869 237.618 19.8609 237.892 19.9255C238.165 19.9901 238.439 19.8207 238.504 19.5472Z" fill="#402A83"/>
<path d="M235.445 19.5045C235.49 19.2271 235.301 18.9657 235.024 18.9206C234.746 18.8756 234.485 19.064 234.44 19.3414C234.395 19.6189 234.583 19.8802 234.861 19.9253C235.138 19.9703 235.4 19.7819 235.445 19.5045Z" fill="#402A83"/>
<path d="M232.375 19.5472C232.439 19.2737 232.27 18.9996 231.997 18.9351C231.723 18.8705 231.449 19.0398 231.384 19.3134C231.32 19.5869 231.489 19.8609 231.763 19.9255C232.036 19.9901 232.31 19.8207 232.375 19.5472Z" fill="#402A83"/>
<path d="M229.316 19.5045C229.361 19.2271 229.172 18.9657 228.895 18.9206C228.617 18.8756 228.356 19.064 228.311 19.3414C228.266 19.6189 228.454 19.8802 228.732 19.9253C229.009 19.9703 229.271 19.7819 229.316 19.5045Z" fill="#402A83"/>
<path d="M226.106 19.7837C226.304 19.5849 226.304 19.2627 226.106 19.064C225.907 18.8653 225.585 18.8653 225.386 19.064C225.187 19.2627 225.187 19.5849 225.386 19.7837C225.585 19.9824 225.907 19.9824 226.106 19.7837Z" fill="#402A83"/>
<path d="M225.81 19.5347C225.732 19.5347 225.668 19.4711 225.668 19.3926V16.562C225.668 16.4834 225.732 16.4199 225.81 16.4199C225.889 16.4199 225.952 16.4835 225.952 16.562V19.3926C225.952 19.4712 225.889 19.5347 225.81 19.5347Z" fill="#D3BBA3"/>
<path d="M228.868 19.5347C228.789 19.5347 228.726 19.4711 228.726 19.3926V16.562C228.726 16.4834 228.789 16.4199 228.868 16.4199C228.946 16.4199 229.01 16.4835 229.01 16.562V19.3926C229.01 19.4712 228.947 19.5347 228.868 19.5347Z" fill="#D3BBA3"/>
<path d="M231.925 19.5347C231.847 19.5347 231.783 19.4711 231.783 19.3926V16.562C231.783 16.4834 231.847 16.4199 231.925 16.4199C232.004 16.4199 232.068 16.4835 232.068 16.562V19.3926C232.068 19.4712 232.004 19.5347 231.925 19.5347Z" fill="#D3BBA3"/>
<path d="M234.983 19.5347C234.904 19.5347 234.841 19.4711 234.841 19.3926V16.562C234.841 16.4834 234.905 16.4199 234.983 16.4199C235.062 16.4199 235.125 16.4835 235.125 16.562V19.3926C235.125 19.4712 235.062 19.5347 234.983 19.5347Z" fill="#D3BBA3"/>
<path d="M238.041 19.5347C237.962 19.5347 237.899 19.4711 237.899 19.3926V16.562C237.899 16.4834 237.962 16.4199 238.041 16.4199C238.119 16.4199 238.183 16.4835 238.183 16.562V19.3926C238.183 19.4712 238.119 19.5347 238.041 19.5347Z" fill="#D3BBA3"/>
<path d="M241.098 19.5347C241.02 19.5347 240.956 19.4711 240.956 19.3926V16.562C240.956 16.4834 241.02 16.4199 241.098 16.4199C241.177 16.4199 241.24 16.4835 241.24 16.562V19.3926C241.24 19.4712 241.177 19.5347 241.098 19.5347Z" fill="#D3BBA3"/>
<path d="M244.156 19.5347C244.077 19.5347 244.014 19.4711 244.014 19.3926V16.562C244.014 16.4834 244.077 16.4199 244.156 16.4199C244.234 16.4199 244.298 16.4835 244.298 16.562V19.3926C244.298 19.4712 244.234 19.5347 244.156 19.5347Z" fill="#D3BBA3"/>
<path d="M247.213 19.5347C247.135 19.5347 247.071 19.4711 247.071 19.3926V16.562C247.071 16.4834 247.135 16.4199 247.213 16.4199C247.292 16.4199 247.355 16.4835 247.355 16.562V19.3926C247.356 19.4712 247.292 19.5347 247.213 19.5347Z" fill="#D3BBA3"/>
<path d="M250.271 19.5347C250.192 19.5347 250.129 19.4711 250.129 19.3926V16.562C250.129 16.4834 250.192 16.4199 250.271 16.4199C250.35 16.4199 250.413 16.4835 250.413 16.562V19.3926C250.413 19.4712 250.35 19.5347 250.271 19.5347Z" fill="#D3BBA3"/>
<path d="M253.328 19.5347C253.25 19.5347 253.186 19.4711 253.186 19.3926V16.562C253.186 16.4834 253.25 16.4199 253.328 16.4199C253.407 16.4199 253.47 16.4835 253.47 16.562V19.3926C253.471 19.4712 253.407 19.5347 253.328 19.5347Z" fill="#D3BBA3"/>
<path d="M256.386 19.5347C256.308 19.5347 256.244 19.4711 256.244 19.3926V16.562C256.244 16.4834 256.308 16.4199 256.386 16.4199C256.465 16.4199 256.528 16.4835 256.528 16.562V19.3926C256.528 19.4712 256.465 19.5347 256.386 19.5347Z" fill="#D3BBA3"/>
<path d="M210.842 40.1338H191.598C191.502 40.1338 191.425 40.0566 191.425 39.9612V20.7254C191.425 20.6299 191.502 20.5527 191.598 20.5527H210.842C210.938 20.5527 211.015 20.63 211.015 20.7254V39.9612C211.015 40.0566 210.938 40.1338 210.842 40.1338ZM191.77 39.7884H210.669V20.898H191.77V39.7884Z" fill="#35674E"/>
<path d="M200.188 37.0526L194.162 31.5747L196.024 29.2804L199.844 32.3332L205.838 23.6328L208.277 25.3114L200.188 37.0526Z" fill="white"/>
<path d="M172.6 31.7535C172.598 31.7535 172.597 31.7535 172.595 31.7535C171.603 31.7521 170.671 31.3648 169.971 30.6626C169.27 29.9602 168.885 29.0274 168.886 28.0355L168.891 24.3223L176.318 24.3318L176.313 28.0449C176.311 29.0368 175.924 29.9688 175.222 30.6692C174.521 31.3685 173.59 31.7535 172.6 31.7535ZM169.236 24.6679L169.232 28.0358C169.231 28.9354 169.58 29.7816 170.215 30.4185C170.85 31.0554 171.696 31.4068 172.595 31.408C172.597 31.408 172.598 31.408 172.6 31.408C174.455 31.408 175.965 29.9002 175.967 28.0446L175.972 24.6769L169.236 24.6679Z" fill="#363E44"/>
<path d="M179.095 23.464C182.674 19.8843 182.674 14.0805 179.095 10.5008C175.515 6.92108 169.711 6.92108 166.131 10.5008C162.552 14.0805 162.552 19.8843 166.131 23.4641C169.711 27.0438 175.515 27.0438 179.095 23.464Z" fill="#EFBC73"/>
<path d="M172.626 29.4247C172.616 29.4247 172.607 29.4247 172.598 29.4247C171.761 29.4235 169.03 29.3724 169.031 28.7623C169.031 28.667 169.108 28.5898 169.204 28.5898H169.204C169.284 28.59 169.352 28.6451 169.371 28.7197C169.534 28.8494 170.603 29.0767 172.598 29.0794C172.609 29.0794 172.62 29.0794 172.631 29.0794C174.605 29.0794 175.664 28.8566 175.826 28.7281C175.846 28.6537 175.913 28.5987 175.994 28.5987H175.994C176.089 28.5989 176.167 28.6763 176.166 28.7716C176.166 29.375 173.495 29.4247 172.626 29.4247Z" fill="#363E44"/>
<path d="M172.628 27.8738C172.619 27.8738 172.609 27.8738 172.6 27.8738C171.763 27.8726 169.032 27.8215 169.033 27.2115C169.033 27.1162 169.11 27.0391 169.206 27.0391H169.206C169.286 27.0392 169.354 27.0944 169.373 27.1689C169.536 27.2984 170.605 27.5257 172.6 27.5284C172.611 27.5284 172.622 27.5284 172.633 27.5284C174.607 27.5284 175.666 27.3057 175.829 27.1772C175.848 27.1028 175.915 27.0479 175.996 27.0479C175.996 27.0479 175.996 27.0479 175.996 27.0479C176.091 27.048 176.168 27.1254 176.168 27.2209C176.167 27.8242 173.497 27.8738 172.628 27.8738Z" fill="#363E44"/>
<path d="M173.829 24.0914C173.806 24.0914 173.784 24.087 173.761 24.0775C173.674 24.0401 173.633 23.9386 173.67 23.8509L176.56 17.0854C176.597 16.9975 176.699 16.9571 176.787 16.9943C176.874 17.0317 176.915 17.1333 176.878 17.221L173.988 23.9865C173.96 24.0521 173.896 24.0914 173.829 24.0914Z" fill="#363E44"/>
<path d="M171.381 24.0893C171.314 24.0893 171.25 24.0498 171.222 23.984L168.35 17.2109C168.313 17.1231 168.354 17.0217 168.442 16.9844C168.529 16.9473 168.631 16.9881 168.668 17.076L171.54 23.8491C171.577 23.9369 171.536 24.0383 171.448 24.0756C171.426 24.0849 171.403 24.0893 171.381 24.0893Z" fill="#363E44"/>
<path d="M174.261 18.1427C173.78 18.1427 173.297 17.993 172.913 17.7038C172.538 17.8638 172.128 17.9355 171.72 17.8949C170.588 17.7804 169.61 16.8038 169.494 15.6719C169.484 15.5769 169.553 15.4921 169.648 15.4823C169.743 15.4744 169.828 15.5417 169.837 15.6364C169.938 16.6116 170.78 17.4528 171.755 17.5512C172.051 17.5811 172.35 17.5416 172.63 17.4455C172.072 16.83 171.894 15.8856 172.212 15.1142C172.372 14.7265 172.722 14.2945 173.223 14.2449C173.66 14.2003 174.105 14.4776 174.31 14.9156C174.475 15.269 174.488 15.7118 174.347 16.1629C174.168 16.7322 173.766 17.2121 173.261 17.5234C173.827 17.8698 174.585 17.8966 175.165 17.5666C175.247 17.5194 175.353 17.5482 175.4 17.6314C175.447 17.7142 175.418 17.8196 175.335 17.8668C175.009 18.0524 174.636 18.1427 174.261 18.1427ZM173.313 14.5858C173.294 14.5858 173.276 14.5867 173.257 14.5885C172.908 14.623 172.653 14.9507 172.531 15.246C172.247 15.9334 172.432 16.7839 172.967 17.2976C173.456 17.0342 173.85 16.5922 174.017 16.0593C174.133 15.691 174.126 15.3367 173.997 15.0618C173.865 14.7784 173.584 14.5858 173.313 14.5858Z" fill="#35674E"/>
</g>
<defs>
<clipPath id="clip0_535_10945">
<rect y="0.917969" width="310" height="103.333" rx="6.2" fill="white"/>
</clipPath>
</defs>
</svg>
