<svg width="239" height="331" viewBox="0 0 239 331" fill="none" xmlns="http://www.w3.org/2000/svg">
<g filter="url(#filter0_d_569_8834)">
<rect x="4.55469" y="2.31445" width="230" height="321.37" rx="18.9041" fill="#E7F2FF"/>
<path d="M78.3294 24.5974V32.5623H78.2286C78.2286 31.9574 77.6741 25.9081 71.9776 25.9081H63.3069V43.0982H71.4735C75.9097 43.0982 76.3634 38.6621 76.3634 38.2084H76.4138V49.2988H76.3634C76.3634 48.8451 75.9097 44.4089 71.4735 44.4089H63.3069V62.6073H72.9858C78.6823 62.6073 79.2368 56.558 79.2368 55.953H79.3376V63.918H52.0149V63.8171C52.3173 63.8171 55.1403 63.3634 55.1403 58.2719V30.2434C55.1403 25.1519 52.3173 24.6982 52.0149 24.6982V24.5974H78.3294ZM84.9305 63.918V63.8171C85.2329 63.8171 88.056 63.3634 88.056 58.2719V30.2434C88.056 25.1519 85.2329 24.6982 84.9305 24.6982V24.5974H94.3069L116.084 51.0632V30.2434C116.084 25.1519 113.261 24.6982 112.959 24.6982V24.5974H120.621V24.6982C120.319 24.6982 117.496 25.1519 117.496 30.2434V64.2204L89.4675 30.2434V58.2719C89.4675 63.3634 92.2905 63.8171 92.593 63.8171V63.918H84.9305ZM152.936 24.5974V32.5623H152.835C152.835 31.9574 152.28 25.9081 146.584 25.9081H136.905V44.6106H146.08C150.516 44.6106 150.97 40.1744 150.97 39.7207H151.02V50.8111H150.97C150.97 50.3574 150.516 45.9212 146.08 45.9212H136.905V58.2719C136.905 63.3634 139.728 63.8171 140.03 63.8171V63.918H125.613V63.8171C125.915 63.8171 128.738 63.3634 128.738 58.2719V30.2434C128.738 25.1519 125.915 24.6982 125.613 24.6982V24.5974H152.936ZM158.744 63.918V63.8171C159.047 63.8171 161.87 63.3634 161.87 58.2719V30.2434C161.87 25.1519 159.047 24.6982 158.744 24.6982V24.5974H173.212C178.758 24.5974 182.79 25.6056 185.311 27.8741C187.277 29.6385 188.285 32.3103 188.285 35.8895C188.285 40.5777 186.218 44.0056 182.891 46.2237C179.967 48.1897 176.035 49.1476 171.7 49.1476H170.036V58.2719C170.036 63.3634 172.859 63.8171 173.162 63.8171V63.918H158.744ZM170.036 47.8369H171.196C173.565 47.8369 175.531 47.0807 176.943 45.6692C178.959 43.7032 180.018 40.4265 180.018 36.1415C180.018 32.3103 179.262 29.6889 177.8 28.0254C176.489 26.5634 174.573 25.9081 172.204 25.9081H170.036V47.8369Z" fill="#3C77BE"/>
<path d="M22.4958 93.6445V93.613C22.5903 93.613 23.4725 93.4712 23.4725 91.8801V83.1212C23.4725 81.5301 22.5903 81.3884 22.4958 81.3884V81.3569H25.4259L32.2314 89.6274V83.1212C32.2314 81.5301 31.3492 81.3884 31.2547 81.3884V81.3569H33.6492V81.3884C33.5547 81.3884 32.6725 81.5301 32.6725 83.1212V93.7391L23.9136 83.1212V91.8801C23.9136 93.4712 24.7958 93.613 24.8903 93.613V93.6445H22.4958ZM38.2987 96.6849C39.1336 96.6849 39.6692 96.3541 40.0158 95.8815C40.5514 95.1411 40.646 94.0541 40.646 93.2664V92.3843C40.1576 93.2822 39.1651 93.8336 38.0939 93.8336C35.6679 93.8336 34.1555 91.9747 34.1555 89.3596C34.1555 86.4295 35.6679 84.2555 38.346 84.2555C39.6062 84.2555 40.2364 84.7753 40.646 85.3425V84.413H44.1432V84.4445C44.0487 84.4445 43.1665 84.5863 43.1665 86.1774V93.0144C43.1665 94.3534 42.6624 95.2829 41.9535 95.913C40.9925 96.7795 39.6377 97.063 38.6768 97.063C37.1014 97.063 36.0775 96.5117 35.4946 96.5117V94.0856H35.5418C35.6836 94.9048 36.0617 95.4877 36.5028 95.8973C37.1329 96.4801 37.8891 96.6849 38.2987 96.6849ZM36.6603 89.2021C36.6603 91.376 37.4323 93.1404 38.8028 93.1404C39.6062 93.1404 40.1891 92.6678 40.646 91.5808V86.1774C40.2364 85.311 39.6535 85.1062 39.1966 85.1062C37.7473 85.1062 36.6603 86.713 36.6603 89.2021ZM48.5924 93.8021C47.8048 93.8021 47.0959 93.5658 46.576 93.1089C46.0719 92.6521 45.7568 91.9747 45.7568 91.0767V86.1774C45.7568 84.5863 44.8746 84.4445 44.7801 84.4445V84.413H48.2774V90.8719C48.2774 91.2658 48.3089 91.7856 48.5137 92.211C48.7185 92.6206 49.0808 92.9199 49.6322 92.9199C50.7507 92.9199 51.5541 91.8014 51.5541 90.2575V86.1774C51.5541 84.5863 50.6719 84.4445 50.5774 84.4445V84.413H54.0746V85.0432C54.3267 84.8384 54.4055 84.6178 54.4212 84.413C54.4212 84.2397 54.3582 83.8301 53.7281 83.6726V83.6569L55.0356 82.7432C55.2246 82.8849 55.4925 83.3733 55.4609 83.7986C55.4137 84.5548 54.6103 85.0589 54.0746 85.2952V91.8801C54.0746 93.4712 54.9568 93.613 55.0514 93.613V93.6445H51.5541V92.0062C51.176 92.8884 50.3253 93.8021 48.5924 93.8021ZM60.9081 93.8336C57.8519 93.8336 56.3396 91.6596 56.3396 89.0445C56.3396 86.4295 57.8519 84.2555 60.9081 84.2555C62.0738 84.2555 63.019 84.5706 63.7437 85.1062C63.854 84.9486 63.8855 84.7753 63.8697 84.6336C63.854 84.4603 63.7594 84.0664 63.1135 83.9562V83.9404L64.3423 82.9164C64.5471 83.0425 64.8464 83.5151 64.8622 83.9404C64.8779 84.5233 64.4211 84.9959 63.98 85.311C64.9724 86.1932 65.4766 87.548 65.4766 89.0445C65.4766 91.6596 63.9642 93.8336 60.9081 93.8336ZM58.9231 89.0445C58.9231 91.376 59.4587 93.4555 60.9081 93.4555C62.3574 93.4555 62.9088 91.376 62.9088 89.0445C62.9088 86.713 62.3574 84.6336 60.9081 84.6336C59.4587 84.6336 58.9231 86.713 58.9231 89.0445ZM59.2382 82.4596V82.4123L60.0731 81.2466H60.1204C60.7663 82.1445 61.9163 83.3733 62.6724 83.6726L62.6252 83.7199C61.6957 83.5938 60.0416 83.074 59.2382 82.4596ZM67.3959 86.1774C67.3959 84.5863 66.5137 84.4445 66.4192 84.4445V84.413H69.9164V91.8801C69.9164 93.4712 70.7986 93.613 70.8932 93.613V93.6445H66.4192V93.613C66.5137 93.613 67.3959 93.4712 67.3959 91.8801V86.1774ZM67.2384 82.176C67.2384 81.4356 67.8527 80.8212 68.5932 80.8212C69.3336 80.8212 69.9479 81.4356 69.9479 82.176C69.9479 82.9164 69.3336 83.5308 68.5932 83.5308C67.8527 83.5308 67.2384 82.9164 67.2384 82.176ZM78.6736 91.2185C78.6736 92.148 78.7997 92.9829 79.7291 92.9829C80.4223 92.9829 81.0681 92.5575 81.3832 92.2425H81.4305C81.3202 92.6048 80.1702 93.7548 78.5634 93.7548C77.1928 93.7548 76.1531 93.361 76.1531 91.5021V84.7911H75.3654V84.413H76.1531V81.987H78.6736V84.413H81.2887V84.7911H78.6736V91.2185ZM82.9801 86.1774C82.9801 84.5863 82.0979 84.4445 82.0034 84.4445V84.413H85.5006V86.0514C85.8787 85.1692 86.4774 84.2555 87.8322 84.2555C88.6828 84.2555 88.9191 84.413 89.0452 84.413V87.5007H89.0137C89.0137 86.8075 88.7301 86.2089 88.2733 85.8466C87.9582 85.5945 87.5643 85.4527 87.1233 85.4527C86.052 85.4527 85.5006 86.2562 85.5006 87.8V91.8801C85.5006 93.4712 86.3828 93.613 86.4774 93.613V93.6445H82.0034V93.613C82.0979 93.613 82.9801 93.4712 82.9801 91.8801V86.1774ZM93.422 93.8021C92.6344 93.8021 91.9255 93.5658 91.4056 93.1089C90.9015 92.6521 90.5864 91.9747 90.5864 91.0767V86.1774C90.5864 84.5863 89.7042 84.4445 89.6097 84.4445V84.413H93.107V90.8719C93.107 91.2658 93.1385 91.7856 93.3433 92.211C93.5481 92.6206 93.9104 92.9199 94.4618 92.9199C95.5803 92.9199 96.3837 91.8014 96.3837 90.2575V86.1774C96.3837 84.5863 95.5015 84.4445 95.407 84.4445V84.413H98.9042V91.8801C98.9042 93.4712 99.7864 93.613 99.8809 93.613V93.6445H96.3837V92.0062C96.0056 92.8884 95.1549 93.8021 93.422 93.8021ZM107.679 86.1459C108.356 84.6966 107.584 84.4445 107.553 84.4445V84.413H109.916V84.4445C109.758 84.4445 108.766 84.6966 108.104 86.1459L104.276 94.574C103.788 95.6295 103.189 96.8897 102.071 96.8897C101.693 96.8897 101.504 96.8425 101.409 96.8267V95.0938H101.456C101.645 95.2829 101.882 95.3617 102.197 95.3617C102.89 95.3617 103.693 95.0151 104.15 93.9123L104.387 93.3452L101.252 86.2562C100.558 84.7123 99.5817 84.4445 99.44 84.4445V84.413H103.945V84.4445C103.93 84.4445 103.174 84.6966 103.819 86.1459L105.71 90.4466L107.679 86.1459ZM114.354 93.8336C111.298 93.8336 109.723 91.8171 109.723 89.2021C109.723 86.4295 111.613 84.2555 114.622 84.2555C117.095 84.2555 118.072 85.5473 118.072 86.9651C118.072 89.1233 115.252 89.7692 112.322 89.7849C112.464 91.6754 113.267 93.1404 115.252 93.1404C116.528 93.1404 117.269 92.4 117.71 91.7541L117.757 91.7856C117.663 92.0849 116.969 93.8336 114.354 93.8336ZM111.96 83.7671L111.991 83.7829C112.905 83.7671 114.039 83.263 114.591 82.9007H114.622C115.173 83.263 116.308 83.7671 117.221 83.7829L117.253 83.7671C116.418 83.389 115.063 82.2075 114.622 81.4829H114.591C114.149 82.2075 112.795 83.389 111.96 83.7671ZM112.306 89.4069C115.095 89.3911 116.182 88.1781 116.182 86.5555C116.182 85.563 115.646 84.6336 114.669 84.6336C113.063 84.6336 112.322 86.713 112.306 89.4069ZM115.284 81.4199V81.3726L116.119 80.2069H116.166C116.812 81.1048 117.962 82.3336 118.718 82.6329L118.671 82.6801C117.741 82.5541 116.087 82.0343 115.284 81.4199ZM119.995 86.1774C119.995 84.5863 119.112 84.4445 119.018 84.4445V84.413H122.515V86.0514C122.893 85.1692 123.744 84.2555 125.477 84.2555C126.264 84.2555 126.973 84.4918 127.493 84.9486C127.997 85.4055 128.312 86.0829 128.312 86.9808V91.8801C128.312 93.4712 129.195 93.613 129.289 93.613V93.6445H124.815V93.613C124.91 93.613 125.792 93.4712 125.792 91.8801V87.1856C125.792 86.7918 125.76 86.2719 125.555 85.8466C125.351 85.437 124.988 85.1377 124.437 85.1377C123.318 85.1377 122.515 86.2562 122.515 87.8V91.8801C122.515 93.4712 123.397 93.613 123.492 93.613V93.6445H119.018V93.613C119.112 93.613 119.995 93.4712 119.995 91.8801V86.1774ZM138.461 93.8336C135.405 93.8336 133.83 91.8171 133.83 89.0445C133.83 86.4295 135.563 84.2555 138.776 84.2555C140.131 84.2555 141.171 84.7281 141.628 84.7281V87.2486H141.581C141.518 86.8075 141.391 85.9726 140.887 85.3582C140.557 84.9486 140.037 84.6336 139.249 84.6336C137.012 84.6336 136.413 86.713 136.413 89.0445C136.413 91.376 137.327 93.1404 139.422 93.1404C140.635 93.1404 141.376 92.4945 141.817 91.7541L141.864 91.7856C141.77 92.0849 141.076 93.8336 138.461 93.8336ZM146.021 84.9171C144.257 84.9171 143.154 86.3822 143.012 87.2959H142.965C143.107 85.6418 144.446 84.2555 146.919 84.2555C147.77 84.2555 148.983 84.3815 149.802 85.0747C150.306 85.5158 150.653 86.1774 150.653 87.1856V91.8801C150.653 93.4712 151.535 93.613 151.63 93.613V93.6445H148.132V92.211C147.691 92.9514 146.762 93.7391 145.092 93.7391C143.58 93.7391 142.43 93.0144 142.43 91.4706C142.43 89.4226 144.446 88.0521 148.132 87.9575V87.2486C148.132 86.3507 147.912 85.7521 147.518 85.3897C147.156 85.0589 146.636 84.9171 146.021 84.9171ZM144.95 91.4706C144.95 92.2267 145.376 92.9986 146.242 92.9986C147.297 92.9986 148.038 91.9274 148.132 91.6123V88.3356C145.706 88.3671 144.95 90.3206 144.95 91.4706ZM145.565 80.8212C145.895 80.6164 146.368 80.4274 146.935 80.4274C147.534 80.4274 148.274 80.6637 148.274 81.3884C148.274 82.4281 146.62 82.4438 146.62 83.4206C146.589 83.4206 146.526 83.389 146.526 83.3103C146.526 82.113 147.061 82.0815 147.061 81.3411C147.061 80.9945 146.888 80.8685 146.699 80.8685C146.179 80.8685 145.88 81.5774 145.88 82.3651H145.785L145.565 80.8212ZM164.041 93.6445V93.613C164.135 93.613 165.017 93.4712 165.017 91.8801V87.1856C165.017 86.7918 164.986 86.2719 164.781 85.8466C164.576 85.437 164.214 85.1377 163.663 85.1377C162.544 85.1377 161.772 86.2562 161.772 87.8V91.8801C161.772 93.4712 162.654 93.613 162.749 93.613V93.6445H158.275V93.613C158.369 93.613 159.252 93.4712 159.252 91.8801V87.1856C159.252 86.7918 159.22 86.2719 159.015 85.8466C158.811 85.437 158.448 85.1377 157.897 85.1377C156.778 85.1377 156.006 86.2562 156.006 87.8V91.8801C156.006 93.4712 156.889 93.613 156.983 93.613V93.6445H152.509V93.613C152.604 93.613 153.486 93.4712 153.486 91.8801V86.1774C153.486 84.5863 152.604 84.4445 152.509 84.4445V84.413H156.006V86.0514C156.385 85.1692 157.204 84.2555 158.937 84.2555C159.724 84.2555 160.433 84.4918 160.953 84.9486C161.3 85.2637 161.567 85.7048 161.693 86.2404C162.166 85.1692 162.97 84.2555 164.702 84.2555C165.49 84.2555 166.199 84.4918 166.719 84.9486C167.223 85.4055 167.538 86.0829 167.538 86.9808V91.8801C167.538 93.4712 168.42 93.613 168.515 93.613V93.6445H164.041ZM173.973 82.8062C173.973 81.2151 173.091 81.0733 172.997 81.0733V81.0418H176.494V86.0514C176.872 85.1692 177.723 84.2555 179.455 84.2555C180.243 84.2555 180.952 84.4918 181.472 84.9486C181.976 85.4055 182.291 86.0829 182.291 86.9808V91.8801C182.291 93.4712 183.173 93.613 183.268 93.613V93.6445H178.794V93.613C178.888 93.613 179.771 93.4712 179.771 91.8801V87.1856C179.771 86.7918 179.739 86.2719 179.534 85.8466C179.329 85.437 178.967 85.1377 178.416 85.1377C177.297 85.1377 176.494 86.2562 176.494 87.8V91.8801C176.494 93.4712 177.376 93.613 177.471 93.613V93.6445H172.997V93.613C173.091 93.613 173.973 93.4712 173.973 91.8801V82.8062ZM187.589 93.8021C186.801 93.8021 186.092 93.5658 185.572 93.1089C185.068 92.6521 184.753 91.9747 184.753 91.0767V86.1774C184.753 84.5863 183.871 84.4445 183.776 84.4445V84.413H187.274V90.8719C187.274 91.2658 187.305 91.7856 187.51 92.211C187.715 92.6206 188.077 92.9199 188.629 92.9199C189.747 92.9199 190.55 91.8014 190.55 90.2575V86.1774C190.55 84.5863 189.668 84.4445 189.574 84.4445V84.413H193.071V85.0432C193.323 84.8384 193.402 84.6178 193.418 84.413C193.418 84.2397 193.355 83.8301 192.724 83.6726V83.6569L194.032 82.7432C194.221 82.8849 194.489 83.3733 194.457 83.7986C194.41 84.5548 193.607 85.0589 193.071 85.2952V91.8801C193.071 93.4712 193.953 93.613 194.048 93.613V93.6445H190.55V92.0062C190.172 92.8884 189.322 93.8021 187.589 93.8021ZM186.943 83.6726C187.699 83.3733 188.849 82.1445 189.495 81.2466H189.542L190.377 82.4123V82.4596C189.574 83.074 187.92 83.5938 186.99 83.7199L186.943 83.6726ZM196.316 86.1774C196.316 84.5863 195.433 84.4445 195.339 84.4445V84.413H198.836V86.0514C199.214 85.1692 200.065 84.2555 201.798 84.2555C202.585 84.2555 203.294 84.4918 203.814 84.9486C204.318 85.4055 204.633 86.0829 204.633 86.9808V91.8801C204.633 93.4712 205.516 93.613 205.61 93.613V93.6445H201.136V93.613C201.231 93.613 202.113 93.4712 202.113 91.8801V87.1856C202.113 86.7918 202.081 86.2719 201.877 85.8466C201.672 85.437 201.309 85.1377 200.758 85.1377C199.64 85.1377 198.836 86.2562 198.836 87.8V91.8801C198.836 93.4712 199.718 93.613 199.813 93.613V93.6445H195.339V93.613C195.433 93.613 196.316 93.4712 196.316 91.8801V86.1774ZM210.51 96.6849C211.344 96.6849 211.88 96.3541 212.227 95.8815C212.762 95.1411 212.857 94.0541 212.857 93.2664V92.3843C212.368 93.2822 211.376 93.8336 210.305 93.8336C207.879 93.8336 206.366 91.9747 206.366 89.3596C206.366 86.4295 207.879 84.2555 210.557 84.2555C211.817 84.2555 212.447 84.7753 212.857 85.3425V84.413H216.354V84.4445C216.26 84.4445 215.377 84.5863 215.377 86.1774V93.0144C215.377 94.3534 214.873 95.2829 214.164 95.913C213.203 96.7795 211.849 97.063 210.888 97.063C209.312 97.063 208.288 96.5117 207.705 96.5117V94.0856H207.753C207.894 94.9048 208.273 95.4877 208.714 95.8973C209.344 96.4801 210.1 96.6849 210.51 96.6849ZM208.871 89.2021C208.871 91.376 209.643 93.1404 211.014 93.1404C211.817 93.1404 212.4 92.6678 212.857 91.5808V86.1774C212.447 85.311 211.864 85.1062 211.407 85.1062C209.958 85.1062 208.871 86.713 208.871 89.2021Z" fill="#3C77BE"/>
<g clip-path="url(#clip0_569_8834)">
<g clip-path="url(#clip1_569_8834)">
<path d="M114.418 303.96C166.394 303.96 208.528 261.825 208.528 209.85C208.528 157.875 166.394 115.74 114.418 115.74C62.443 115.74 20.3086 157.875 20.3086 209.85C20.3086 261.825 62.443 303.96 114.418 303.96Z" fill="#3C77BE"/>
<path d="M45.1214 171.712L46.6166 171.068C47.0647 171.739 47.5614 172.365 48.0991 172.945L47.1273 174.25L51.547 177.541L52.521 176.233C53.2372 176.585 53.9801 176.88 54.7424 177.116L54.553 178.736L60.0261 179.376L60.2152 177.76C61.0041 177.708 61.7953 177.593 62.5818 177.413L63.2266 178.908L68.2867 176.726L67.6419 175.23C68.313 174.782 68.9394 174.286 69.5191 173.748L70.8241 174.72L74.1152 170.3L72.8072 169.326C73.1591 168.61 73.4543 167.867 73.6899 167.104L75.3098 167.294L75.9501 161.821L74.334 161.632C74.2815 160.843 74.1669 160.052 73.9865 159.265L75.4816 158.62L73.2996 153.56L71.8045 154.205C71.3562 153.534 70.8597 152.907 70.3218 152.328L71.2937 151.023L66.8739 147.731L65.9 149.039C65.1839 148.687 64.441 148.392 63.6785 148.157L63.868 146.537L58.3948 145.896L58.2057 147.513C57.4167 147.565 56.6256 147.68 55.839 147.86L55.1942 146.365L50.1342 148.547L50.779 150.042C50.1079 150.49 49.4814 150.987 48.9018 151.525L47.5968 150.553L44.3056 154.973L45.6136 155.947C45.2616 156.663 44.9664 157.406 44.7308 158.168L43.111 157.979L42.4707 163.452L44.0868 163.641C44.1393 164.43 44.254 165.221 44.4344 166.008L42.9392 166.652L45.1214 171.712ZM56.0181 154.511C60.273 152.836 65.1654 154.78 67.1092 158.919C69.2557 163.49 67.1014 168.911 62.403 170.761C58.1483 172.437 53.2557 170.493 51.3119 166.354C49.1654 161.783 51.3197 156.362 56.0181 154.511Z" fill="#F7F1EB"/>
<path d="M59.2104 174.921C55.5083 174.921 51.9003 173.247 49.5205 170.187C49.4435 170.088 49.4613 169.946 49.5603 169.869C49.6587 169.792 49.8016 169.81 49.8784 169.909C53.1827 174.156 58.9466 175.633 63.8947 173.499C66.7957 172.248 69.0359 169.942 70.2027 167.006C71.3695 164.07 71.323 160.856 70.0719 157.955C67.7725 152.623 61.8114 149.717 56.2067 151.197C56.0855 151.229 55.9614 151.157 55.9295 151.036C55.8975 150.915 55.9698 150.791 56.0909 150.759C61.9117 149.222 68.101 152.239 70.4884 157.775C71.7873 160.787 71.8356 164.125 70.6241 167.174C69.4126 170.222 67.0865 172.616 64.0743 173.915C62.5 174.594 60.8458 174.921 59.2104 174.921Z" fill="white"/>
<path d="M177.368 203.246C177.359 203.246 177.35 203.245 177.342 203.244L171.868 202.604C171.744 202.589 171.655 202.477 171.67 202.352L171.837 200.919C171.188 200.709 170.549 200.455 169.933 200.162L169.071 201.319C169.035 201.368 168.981 201.4 168.922 201.408C168.862 201.417 168.802 201.402 168.753 201.366L164.334 198.075C164.233 198 164.213 197.858 164.287 197.757L165.147 196.603C164.688 196.096 164.262 195.556 163.876 194.993L162.553 195.563C162.438 195.613 162.304 195.56 162.255 195.445L160.073 190.385C160.049 190.33 160.048 190.267 160.07 190.211C160.093 190.156 160.136 190.111 160.191 190.087L161.514 189.517C161.37 188.85 161.27 188.169 161.216 187.487L159.786 187.32C159.662 187.305 159.573 187.193 159.588 187.068L160.228 181.595C160.235 181.535 160.265 181.481 160.312 181.444C160.36 181.406 160.42 181.389 160.479 181.396L161.913 181.564C162.122 180.915 162.376 180.276 162.67 179.66L161.512 178.797C161.464 178.762 161.432 178.708 161.423 178.648C161.414 178.589 161.43 178.528 161.466 178.48L164.757 174.06C164.793 174.012 164.846 173.98 164.906 173.971C164.965 173.963 165.026 173.978 165.074 174.014L166.229 174.874C166.736 174.415 167.276 173.988 167.838 173.602L167.268 172.28C167.218 172.165 167.271 172.031 167.386 171.982L172.446 169.8C172.561 169.75 172.695 169.803 172.744 169.918L173.315 171.241C173.982 171.097 174.663 170.997 175.344 170.943L175.511 169.513C175.518 169.453 175.549 169.399 175.596 169.361C175.643 169.324 175.704 169.307 175.763 169.314L181.236 169.954C181.36 169.969 181.45 170.082 181.435 170.206L181.267 171.64C181.916 171.849 182.556 172.103 183.172 172.397L184.034 171.239C184.07 171.191 184.123 171.159 184.183 171.15C184.242 171.141 184.303 171.156 184.351 171.192L188.771 174.483C188.871 174.558 188.892 174.7 188.817 174.801L187.957 175.955C188.416 176.462 188.842 177.002 189.229 177.565L190.551 176.995C190.607 176.971 190.669 176.97 190.725 176.992C190.781 177.014 190.826 177.058 190.85 177.113L193.032 182.173C193.081 182.288 193.028 182.422 192.913 182.471L191.59 183.042C191.734 183.708 191.834 184.389 191.888 185.071L193.318 185.238C193.378 185.245 193.432 185.276 193.47 185.323C193.507 185.37 193.524 185.43 193.517 185.49L192.877 190.963C192.862 191.087 192.749 191.176 192.625 191.162L191.191 190.994C190.982 191.644 190.728 192.283 190.435 192.899L191.592 193.761C191.641 193.797 191.673 193.85 191.681 193.91C191.69 193.969 191.675 194.03 191.639 194.078L188.348 198.498C188.312 198.546 188.258 198.578 188.199 198.587C188.139 198.595 188.079 198.58 188.031 198.544L186.876 197.685C186.369 198.143 185.829 198.57 185.266 198.956L185.837 200.279C185.886 200.394 185.833 200.527 185.718 200.577L180.658 202.759C180.603 202.783 180.541 202.784 180.485 202.761C180.429 202.739 180.384 202.696 180.36 202.64L179.79 201.317C179.123 201.462 178.442 201.562 177.76 201.615L177.593 203.045C177.586 203.105 177.556 203.159 177.509 203.197C177.468 203.229 177.419 203.246 177.368 203.246ZM172.146 202.18L177.169 202.767L177.332 201.377C177.345 201.268 177.433 201.184 177.542 201.177C178.325 201.125 179.109 201.009 179.873 200.834C179.979 200.81 180.088 200.865 180.132 200.966L180.687 202.253L185.33 200.25L184.775 198.963C184.732 198.863 184.767 198.746 184.858 198.685C185.509 198.25 186.131 197.759 186.707 197.225C186.787 197.15 186.909 197.144 186.996 197.209L188.12 198.045L191.14 193.989L190.014 193.151C189.926 193.085 189.898 192.967 189.946 192.869C190.291 192.165 190.584 191.429 190.815 190.681C190.847 190.576 190.949 190.509 191.058 190.522L192.453 190.685L193.04 185.663L191.65 185.5C191.541 185.487 191.457 185.399 191.45 185.29C191.398 184.506 191.282 183.721 191.107 182.959C191.083 182.852 191.138 182.743 191.239 182.7L192.526 182.145L190.523 177.501L189.236 178.056C189.136 178.099 189.019 178.065 188.958 177.974C188.523 177.322 188.031 176.7 187.498 176.125C187.423 176.045 187.417 175.923 187.482 175.835L188.318 174.712L184.262 171.692L183.424 172.818C183.359 172.905 183.24 172.934 183.142 172.886C182.438 172.54 181.702 172.248 180.953 172.016C180.849 171.984 180.782 171.882 180.795 171.773L180.958 170.379L175.936 169.791L175.773 171.182C175.76 171.291 175.672 171.375 175.563 171.382C174.78 171.434 173.996 171.549 173.232 171.724C173.126 171.749 173.016 171.693 172.973 171.593L172.418 170.306L167.774 172.308L168.329 173.595C168.373 173.696 168.338 173.813 168.247 173.874C167.596 174.309 166.974 174.8 166.398 175.334C166.318 175.409 166.196 175.415 166.108 175.35L164.985 174.513L161.965 178.569L163.091 179.408C163.179 179.473 163.207 179.592 163.159 179.69C162.813 180.394 162.521 181.13 162.289 181.878C162.257 181.983 162.155 182.049 162.046 182.037L160.652 181.873L160.064 186.896L161.455 187.059C161.564 187.072 161.648 187.16 161.655 187.269C161.707 188.052 161.822 188.837 161.997 189.6C162.022 189.707 161.967 189.816 161.866 189.859L160.579 190.414L162.582 195.057L163.869 194.503C163.969 194.459 164.086 194.494 164.147 194.585C164.582 195.236 165.073 195.858 165.607 196.434C165.682 196.514 165.688 196.636 165.623 196.723L164.787 197.847L168.843 200.867L169.681 199.741C169.747 199.653 169.865 199.625 169.963 199.673C170.666 200.018 171.403 200.311 172.151 200.542C172.256 200.575 172.322 200.677 172.31 200.785L172.146 202.18ZM176.565 195.236C173.188 195.236 169.961 193.315 168.448 190.093C167.383 187.825 167.306 185.296 168.229 182.972C169.153 180.647 170.945 178.862 173.277 177.943C177.657 176.218 182.655 178.205 184.656 182.466C185.721 184.734 185.799 187.263 184.875 189.587C183.952 191.911 182.159 193.697 179.828 194.615C178.76 195.036 177.654 195.236 176.565 195.236ZM173.443 178.365C171.229 179.237 169.528 180.932 168.651 183.139C167.774 185.346 167.848 187.747 168.859 189.9C170.759 193.945 175.504 195.831 179.662 194.193C181.875 193.321 183.577 191.626 184.454 189.42C185.331 187.213 185.257 184.812 184.246 182.658C182.346 178.613 177.601 176.727 173.443 178.365Z" fill="#DE7E88"/>
<path d="M104.943 233.329L109.731 201.738L119.807 233.125H140.703L123.546 173.082L93.6639 178.29L86.2979 229.349L104.943 233.329Z" fill="#363E44"/>
<path d="M78.5202 158.433C78.5203 158.432 75.373 139.964 74.7579 137.033C74.6935 136.726 74.5822 136.184 74.252 135.545C73.0287 133.176 70.7603 133.272 68.3375 131.368C65.5885 129.208 65.2634 126.436 64.3892 126.617C63.7812 126.743 63.6093 127.824 64.0899 129.976C64.0899 129.976 64.0896 129.976 64.0896 129.976C63.5366 128.383 62.6923 126.255 61.8128 126.563C60.8163 126.973 61.5148 129.59 62.0147 131.152C61.4096 129.261 60.5222 128.437 60.0747 128.731C59.3702 129.193 59.498 130.769 60.3947 133.237L60.3946 133.237C59.2995 131.706 58.8056 131.498 58.4734 131.854C57.8669 132.505 58.6422 134.52 59.6006 136.196C60.6797 138.083 62.1711 139.172 63.1278 139.837C63.1281 139.837 63.1283 139.837 63.1283 139.837C64.0052 149.414 64.529 155.575 65.1072 163.322C65.4047 167.308 77.5031 166.335 78.5202 158.433Z" fill="#ECD0C8"/>
<path d="M70.1522 133.631C69.7015 130.201 70.2658 128.869 70.8116 128.815C71.7294 128.724 73.3128 131.494 74.6029 136.424C73.2932 135.757 71.462 134.298 70.1522 133.631Z" fill="#ECD0C8"/>
<path d="M68.669 139.429C68.5568 139.429 68.4593 139.345 68.4445 139.231C68.3693 138.653 68.1378 137.799 67.4621 137.016C66.5053 135.908 65.2441 135.647 64.7463 135.587C64.622 135.572 64.5334 135.458 64.5486 135.334C64.5636 135.21 64.6766 135.121 64.8011 135.136C65.3513 135.203 66.7454 135.492 67.8054 136.72C68.5547 137.588 68.8113 138.533 68.8944 139.173C68.9105 139.297 68.823 139.411 68.6987 139.427C68.6886 139.428 68.6787 139.429 68.669 139.429Z" fill="#363E44"/>
<path d="M73.0685 134.464C73.0183 134.464 72.968 134.448 72.926 134.414C72.3596 133.955 71.6789 133.634 70.958 133.293C70.6098 133.129 70.2499 132.959 69.878 132.763C69.7671 132.705 69.7247 132.568 69.783 132.457C69.841 132.346 69.9783 132.304 70.0893 132.362C70.4524 132.553 70.8079 132.721 71.1516 132.883C71.8978 133.236 72.6026 133.569 73.2113 134.061C73.3087 134.14 73.3238 134.283 73.2449 134.38C73.2001 134.435 73.1346 134.464 73.0685 134.464Z" fill="#363E44"/>
<path d="M66.0146 132.692C65.9626 132.692 65.9104 132.675 65.8676 132.638C65.5365 132.356 65.2304 132.042 64.9578 131.704C64.5625 131.215 64.2331 130.673 63.9791 130.093C63.9288 129.978 63.9811 129.845 64.0958 129.794C64.211 129.744 64.3443 129.797 64.3946 129.911C64.6325 130.454 64.9407 130.962 65.3106 131.419C65.5656 131.735 65.852 132.029 66.1619 132.293C66.2573 132.374 66.2686 132.518 66.1873 132.613C66.1424 132.665 66.0787 132.692 66.0146 132.692Z" fill="#363E44"/>
<path d="M63.8701 133.62C63.8181 133.62 63.7658 133.602 63.723 133.566C63.392 133.284 63.0859 132.97 62.8133 132.632C62.4179 132.143 62.0886 131.601 61.8346 131.021C61.7843 130.906 61.8365 130.772 61.9513 130.722C62.0664 130.672 62.1998 130.724 62.2501 130.839C62.4878 131.382 62.7961 131.889 63.1661 132.347C63.4211 132.663 63.7075 132.957 64.0174 133.221C64.1127 133.302 64.1241 133.445 64.0428 133.541C63.998 133.593 63.9343 133.62 63.8701 133.62Z" fill="#363E44"/>
<path d="M62.2588 135.964C62.2067 135.964 62.1545 135.946 62.1117 135.91C61.7806 135.627 61.4745 135.313 61.202 134.976C60.8066 134.487 60.4773 133.945 60.2232 133.365C60.1729 133.25 60.2252 133.116 60.34 133.066C60.4549 133.016 60.5885 133.068 60.6388 133.183C60.8765 133.726 61.1848 134.233 61.5548 134.691C61.8097 135.006 62.0962 135.3 62.4061 135.565C62.5014 135.646 62.5127 135.789 62.4315 135.884C62.3865 135.937 62.3229 135.964 62.2588 135.964Z" fill="#363E44"/>
<path d="M143.595 174.095C148.101 163.816 132.96 145.997 118.094 144.37C113.796 143.899 109.47 143.433 109.47 143.433C107.29 143.03 95.2228 143.244 90.6036 144.993C76.4931 150.333 63.9453 157.273 63.9027 163.313C63.7858 179.918 91.3831 163.391 91.3831 163.391L91.1044 191.985L130.617 197.017L126.235 167.875C126.235 167.875 140.107 182.053 143.595 174.095Z" fill="#363E44"/>
<path d="M116.657 145.125H105.25V181.349H116.657V145.125Z" fill="#F7F1EB"/>
<path d="M110.701 181.35L107.536 178.185L109.22 151.626L111.802 151.57L113.866 178.185L110.701 181.35Z" fill="#363E44"/>
<path d="M110.563 153.722L114.823 147.572H106.304L110.563 153.722Z" fill="#363E44"/>
<path d="M118.094 198.357C118.04 198.357 117.988 198.338 117.946 198.303C117.9 198.263 117.872 198.206 117.868 198.146L117.139 187.228C117.138 187.203 117.14 187.178 117.146 187.154L123.73 162.649L118.701 162.074C118.618 162.064 118.548 162.011 118.516 161.934C118.485 161.857 118.498 161.769 118.551 161.705L123.244 155.969L120.869 144.895C120.843 144.773 120.921 144.652 121.043 144.626C121.166 144.6 121.286 144.678 121.312 144.8L123.71 155.981C123.725 156.048 123.708 156.118 123.664 156.172L119.165 161.67L124.044 162.228C124.109 162.235 124.168 162.271 124.205 162.326C124.242 162.38 124.254 162.448 124.237 162.512L117.594 187.236L118.305 197.884L130.597 196.791C130.722 196.781 130.832 196.873 130.843 196.997C130.854 197.122 130.762 197.232 130.637 197.243L118.114 198.356C118.107 198.357 118.101 198.357 118.094 198.357Z" fill="white"/>
<path d="M103.837 143.2L110.43 140.703L118.094 144.37L113.864 150.628L110.495 148.188L107.494 150.994L103.837 143.2Z" fill="white"/>
<path d="M75.7825 139.983L62.0029 142.775L63.2228 148.796L77.0024 146.003L75.7825 139.983Z" fill="white"/>
<path d="M63.9014 163.664L62.0303 147.994L77.5831 144.369L80.3145 164.057L63.9014 163.664Z" fill="#363E44"/>
<path d="M80.1952 164.551C80.0827 164.551 79.9851 164.467 79.9705 164.352L78.411 151.997C78.3953 151.873 78.4833 151.76 78.6077 151.744C78.732 151.728 78.8452 151.816 78.861 151.941L80.4206 164.295C80.4364 164.42 80.3483 164.533 80.2241 164.549C80.2142 164.55 80.2046 164.551 80.1952 164.551Z" fill="white"/>
<path d="M116.786 181.352H105.25V185.791H116.786V181.352Z" fill="#84524D"/>
<path d="M104.938 197.658C104.933 197.658 104.929 197.658 104.924 197.658L90.2876 196.801C90.1626 196.794 90.0672 196.687 90.0746 196.562C90.0818 196.437 90.1882 196.341 90.3143 196.349L104.711 197.191V191.043L97.0394 161.678C97.021 161.607 97.0376 161.532 97.084 161.476C97.1303 161.42 97.2007 161.39 97.2737 161.394L102.426 161.731L98.1478 156.934C98.0991 156.879 98.0798 156.805 98.0959 156.733L101.102 143.382C101.129 143.26 101.25 143.183 101.373 143.211C101.495 143.238 101.572 143.359 101.544 143.482L98.5639 156.719L103.133 161.843C103.194 161.912 103.208 162.011 103.168 162.093C103.127 162.176 103.041 162.226 102.949 162.22L97.5578 161.867L105.157 190.956C105.162 190.975 105.165 190.994 105.165 191.014V197.432C105.165 197.494 105.139 197.554 105.093 197.597C105.051 197.636 104.995 197.658 104.938 197.658Z" fill="white"/>
<path d="M120.81 188.079L133.569 194.765C133.569 194.765 149.736 170.099 142.386 165.778C134.387 161.076 120.81 188.079 120.81 188.079Z" fill="#363E44"/>
<path d="M113.861 136.368C116.538 135.006 117.699 131.89 117.891 128.648C118.035 126.23 116.786 124.587 114.961 124.602C113.706 122.54 108.993 122.137 107.009 123.625C103.363 126.36 103.582 134.224 107.66 136.554C110.353 138.093 113.617 136.492 113.861 136.368Z" fill="white"/>
<path d="M105.938 136.753C106.718 136.45 106.982 135.255 106.528 134.085C106.073 132.914 105.072 132.211 104.292 132.514C103.511 132.817 103.247 134.011 103.702 135.182C104.156 136.352 105.158 137.056 105.938 136.753Z" fill="#ECD0C8"/>
<path d="M117.626 135.836C118.189 134.713 118.038 133.499 117.29 133.124C116.542 132.749 115.479 133.355 114.916 134.477C114.354 135.6 114.504 136.814 115.253 137.189C116.001 137.564 117.064 136.958 117.626 135.836Z" fill="#ECD0C8"/>
<path d="M116.393 136.412C116.314 136.412 116.238 136.371 116.196 136.298C116.134 136.189 116.172 136.051 116.281 135.989C116.48 135.875 116.666 135.667 116.791 135.418C117.033 134.935 116.997 134.406 116.711 134.263C116.688 134.252 116.663 134.243 116.637 134.237C116.515 134.209 116.439 134.088 116.466 133.966C116.494 133.843 116.616 133.767 116.738 133.795C116.799 133.809 116.859 133.83 116.915 133.858C117.437 134.12 117.561 134.894 117.197 135.621C117.03 135.953 116.785 136.223 116.505 136.383C116.47 136.403 116.431 136.412 116.393 136.412Z" fill="#363E44"/>
<path d="M104.935 135.872C104.89 135.872 104.845 135.859 104.805 135.831C104.542 135.646 104.323 135.353 104.188 135.008C103.894 134.25 104.09 133.49 104.635 133.279C104.693 133.256 104.754 133.241 104.817 133.232C104.939 133.216 105.055 133.304 105.071 133.428C105.087 133.552 105 133.666 104.876 133.682C104.849 133.686 104.824 133.692 104.799 133.702C104.502 133.817 104.416 134.34 104.611 134.844C104.712 135.103 104.877 135.328 105.066 135.46C105.168 135.532 105.193 135.673 105.121 135.776C105.077 135.838 105.007 135.872 104.935 135.872Z" fill="#363E44"/>
<path d="M110.494 148.187L106.903 144.219L106.604 137.708L114.257 137.379L114.553 143.898L110.494 148.187Z" fill="#ECD0C8"/>
<path d="M116.074 132.89C115.934 135.85 114.186 140.463 110.392 140.284C106.597 140.105 105.29 135.349 105.43 132.389C105.505 130.791 105.875 128.117 107.029 127.396C108.013 126.781 109.778 128.447 111.13 128.51C112.6 128.58 113.965 127.006 114.877 127.827C115.788 128.648 116.143 131.41 116.074 132.89Z" fill="#ECD0C8"/>
<path d="M110.368 141.985C116.521 142.03 116.218 131.777 116.218 131.777L105.331 131.972C105.331 131.972 104.403 141.942 110.368 141.985Z" fill="white"/>
<path d="M105.402 132.537C105.405 135.954 107.606 134.262 110.514 134.259C113.422 134.256 116.139 136.029 116.136 132.612C116.133 129.195 113.885 129.228 110.977 129.231C108.069 129.233 105.399 129.12 105.402 132.537Z" fill="#ECD0C8"/>
<path d="M115.75 131.441C115.75 131.441 115.487 131.838 115.02 132.228C114.709 132.487 113.732 132.474 113.732 132.474C113.732 132.474 112.646 132.989 112.198 132.892C111.75 132.795 111.451 132.656 111.451 132.656C111.451 132.656 111.595 132.438 111.86 132.166C112.19 131.828 113.569 131.776 113.569 131.776C113.569 131.776 114.471 131.101 114.906 131.185C115.407 131.282 115.75 131.441 115.75 131.441Z" fill="white"/>
<path d="M113.367 131.22C112.71 131.406 112.195 131.825 111.865 132.163C111.914 132.431 112.028 132.682 112.199 132.893C112.646 132.99 113.242 133.045 113.835 132.877C114.313 132.743 114.714 132.484 115.026 132.223C115.105 131.863 115.057 131.5 114.908 131.186C114.472 131.102 113.92 131.064 113.367 131.22Z" fill="#363E44"/>
<path d="M105.941 130.979C105.941 130.979 106.199 131.462 106.689 131.924C106.961 132.18 107.878 132.102 107.878 132.102C107.878 132.102 108.814 132.811 109.256 132.767C109.757 132.717 110.107 132.592 110.107 132.592C110.107 132.592 109.986 132.367 109.753 132.076C109.457 131.706 108.168 131.451 108.168 131.451C108.168 131.451 107.233 130.76 106.791 130.805C106.291 130.855 105.941 130.979 105.941 130.979Z" fill="white"/>
<path d="M109.755 132.079C109.459 131.709 108.98 131.233 108.335 130.983C107.796 130.775 107.239 130.762 106.797 130.806C106.65 131.111 106.595 131.464 106.667 131.823C106.675 131.858 106.685 131.893 106.694 131.928C106.965 132.183 107.305 132.431 107.713 132.589C108.251 132.798 108.809 132.811 109.251 132.767C109.478 132.587 109.652 132.348 109.755 132.079Z" fill="#363E44"/>
<path d="M110.849 134.985C110.764 134.985 110.683 134.937 110.644 134.856C110.59 134.742 110.638 134.607 110.751 134.553C110.934 134.466 111.044 134.37 111.062 134.283C111.073 134.23 111.048 134.177 110.98 134.049C110.923 133.941 110.851 133.806 110.802 133.626C110.73 133.361 110.729 133.079 110.797 132.787C110.825 132.664 110.948 132.589 111.069 132.617C111.191 132.646 111.267 132.768 111.238 132.89C111.187 133.108 111.188 133.315 111.24 133.507C111.276 133.639 111.329 133.739 111.38 133.836C111.464 133.993 111.55 134.156 111.506 134.373C111.458 134.61 111.27 134.808 110.946 134.962C110.915 134.978 110.882 134.985 110.849 134.985Z" fill="#363E44"/>
<path d="M110.489 136.157C110.151 136.157 109.8 135.98 109.583 135.697C109.443 135.513 109.363 135.292 109.359 135.074C109.357 134.949 109.457 134.846 109.582 134.844C109.705 134.842 109.811 134.941 109.813 135.067C109.815 135.188 109.862 135.314 109.944 135.421C110.082 135.602 110.314 135.715 110.519 135.702C110.641 135.695 110.751 135.79 110.759 135.915C110.766 136.041 110.671 136.148 110.546 136.155C110.527 136.156 110.508 136.157 110.489 136.157Z" fill="#BC8271"/>
<path d="M114.721 127.097C114.649 127.097 114.577 127.063 114.533 126.998C114.249 126.578 113.91 126.215 113.525 125.919C111.39 124.273 108.47 125.072 107.626 125.356C107.507 125.396 107.379 125.332 107.339 125.214C107.299 125.095 107.363 124.967 107.482 124.927C108.379 124.624 111.488 123.776 113.802 125.56C114.225 125.886 114.597 126.284 114.909 126.744C114.979 126.847 114.952 126.988 114.848 127.058C114.809 127.085 114.765 127.097 114.721 127.097Z" fill="#D3BBA3"/>
<path d="M106.457 127.403C106.378 127.403 106.302 127.363 106.26 127.29C106.197 127.182 106.234 127.043 106.342 126.98C107.246 126.455 110.425 124.828 113.401 125.938C113.947 126.142 114.456 126.429 114.914 126.791C115.012 126.868 115.029 127.011 114.951 127.109C114.874 127.208 114.731 127.224 114.633 127.147C114.212 126.814 113.744 126.551 113.243 126.363C110.453 125.322 107.43 126.872 106.57 127.372C106.534 127.393 106.495 127.403 106.457 127.403Z" fill="#D3BBA3"/>
<path d="M109.574 161.439L106.446 164.525C105.403 165.555 103.722 165.544 102.692 164.5C101.662 163.457 101.673 161.776 102.717 160.746L105.845 157.66C106.888 156.63 108.569 156.641 109.599 157.685L109.599 157.685C110.629 158.728 110.618 160.409 109.574 161.439Z" fill="#E96C79"/>
<path d="M95.1516 207.222C95.0322 207.222 94.9323 207.128 94.9255 207.008L93.0463 173.76C93.0425 173.693 93.0685 173.628 93.1172 173.582L106.139 161.316C106.23 161.23 106.373 161.234 106.459 161.325C106.545 161.416 106.541 161.56 106.449 161.646L93.5052 173.84L95.3783 206.982C95.3854 207.107 95.2898 207.214 95.1647 207.221C95.1602 207.222 95.156 207.222 95.1516 207.222Z" fill="#E96C79"/>
<path d="M118.441 161.425L121.569 164.512C122.613 165.542 124.294 165.53 125.324 164.487C126.354 163.443 126.342 161.762 125.299 160.732L122.171 157.646C121.127 156.616 119.446 156.627 118.417 157.671L118.416 157.671C117.387 158.715 117.398 160.396 118.441 161.425Z" fill="#E96C79"/>
<path d="M132.864 207.208C132.86 207.208 132.856 207.208 132.851 207.208C132.726 207.201 132.631 207.093 132.638 206.968L134.511 173.826L121.566 161.632C121.475 161.546 121.471 161.403 121.557 161.311C121.643 161.22 121.786 161.216 121.877 161.302L134.899 173.568C134.948 173.614 134.974 173.679 134.97 173.746L133.091 206.994C133.084 207.115 132.984 207.208 132.864 207.208Z" fill="#E96C79"/>
<path d="M144.522 183.811H85.1172V286.95H144.522V183.811Z" fill="#DE7E88"/>
<path d="M146.861 181.449H82.0771V189.19H146.861V181.449Z" fill="#D3BBA3"/>
<path d="M145.16 190.099H80.3762C80.2509 190.099 80.1494 189.997 80.1494 189.872V182.131C80.1494 182.006 80.2509 181.904 80.3762 181.904H145.16C145.285 181.904 145.387 182.006 145.387 182.131V189.872C145.387 189.997 145.285 190.099 145.16 190.099ZM80.603 189.645H144.933V182.358H80.603V189.645Z" fill="#363E44"/>
<path d="M84.9377 219.6C84.8124 219.6 84.7109 219.498 84.7109 219.373V189.893C84.7109 189.768 84.8124 189.666 84.9377 189.666C85.063 189.666 85.1645 189.768 85.1645 189.893V219.373C85.1645 219.498 85.063 219.6 84.9377 219.6Z" fill="#363E44"/>
<path d="M144.578 223.115C144.454 223.115 144.352 223.014 144.352 222.889L144.238 189.894C144.238 189.768 144.339 189.666 144.464 189.666C144.593 189.665 144.691 189.767 144.692 189.892L144.805 222.887C144.806 223.012 144.704 223.114 144.579 223.115C144.579 223.115 144.579 223.115 144.578 223.115Z" fill="#363E44"/>
<path d="M127.868 276.481L152.431 275.094L151.433 257.514L126.122 261.566L127.868 276.481Z" fill="#ECD0C8"/>
<path d="M194.229 267.571C190.602 264.349 181.342 256.147 167.571 254.769C156.795 253.69 145.199 256.308 140.087 257.929C140.212 264.413 140.461 271.271 140.586 277.754C143.079 278.128 144.388 278.315 146.998 278.708V303.396L186.393 303.425L186.427 284.667L190.812 286.295L194.229 267.571Z" fill="#003C84"/>
<path d="M146.97 278.892C146.845 278.892 146.743 278.791 146.743 278.667C146.734 276.747 146.718 275.78 146.697 274.556C146.688 273.97 146.677 273.333 146.666 272.513C146.664 272.388 146.764 272.285 146.89 272.283C147.011 272.285 147.118 272.382 147.12 272.507C147.131 273.327 147.141 273.963 147.151 274.548C147.171 275.774 147.187 276.742 147.197 278.664C147.197 278.79 147.096 278.892 146.971 278.892C146.97 278.892 146.97 278.892 146.97 278.892Z" fill="#363E44"/>
<path d="M130.687 276.133C131.978 260.322 132.293 249.037 133.22 242.069C133.636 238.942 134.649 235.89 133.3 233.172C132.701 231.967 131.807 230.784 130.968 231.312C129.657 232.137 131.44 235.643 130.354 236.286C129.262 236.932 127.766 234.378 127.099 232.606C126.649 231.413 125.931 230.064 124.752 230.276C123.078 230.577 123.62 233.042 123.637 233.209C122.818 232.696 121.849 232.715 121.332 233.18C120.642 233.801 120.639 235.323 121.798 236.242C121.635 236.155 120.419 235.522 119.871 235.965C119.333 236.4 119.468 237.847 120.585 239.406C119.595 238.944 118.791 238.971 118.526 239.278C117.784 240.137 118.364 242.174 121.485 245.926C121.101 248.159 119.233 257.024 117.771 263.902C116.191 271.327 122.841 277.962 130.235 276.242C130.384 276.207 130.535 276.171 130.687 276.133Z" fill="#ECD0C8"/>
<path d="M131.147 270.386C131.141 270.386 131.136 270.385 131.13 270.385C131.005 270.376 130.911 270.267 130.921 270.142C131.04 268.495 131.148 266.381 131.253 264.337C131.327 262.879 131.397 261.503 131.465 260.449C131.473 260.324 131.582 260.229 131.706 260.237C131.831 260.245 131.926 260.353 131.918 260.477C131.85 261.529 131.78 262.904 131.706 264.36C131.601 266.407 131.493 268.523 131.373 270.175C131.364 270.295 131.265 270.386 131.147 270.386Z" fill="#363E44"/>
<path d="M126.432 247.238C126.421 247.238 126.411 247.237 126.401 247.236C126.277 247.219 126.19 247.105 126.206 246.981C126.275 246.472 126.307 245.463 125.755 244.419C125.107 243.194 124.032 242.648 123.599 242.47C123.484 242.422 123.428 242.289 123.476 242.174C123.524 242.058 123.657 242.003 123.772 242.05C124.366 242.295 125.465 242.9 126.156 244.207C126.767 245.363 126.731 246.479 126.656 247.041C126.641 247.155 126.543 247.238 126.432 247.238Z" fill="#363E44"/>
<path d="M120.603 245.807C122.094 247.011 124.388 246.644 125.725 244.988L136.386 231.455L131.142 227.223L120.323 240.628C118.986 242.285 119.111 244.603 120.603 245.807Z" fill="#84524D"/>
<path d="M106.474 209.686C106.411 209.686 106.348 209.66 106.304 209.609C104.509 207.572 104.419 204.621 106.089 202.591C107.699 200.634 110.54 200.114 112.844 201.353C112.954 201.412 112.995 201.55 112.936 201.66C112.876 201.77 112.739 201.812 112.629 201.753C110.515 200.615 107.912 201.089 106.439 202.879C104.911 204.736 104.997 207.441 106.644 209.309C106.727 209.403 106.718 209.547 106.624 209.629C106.581 209.667 106.527 209.686 106.474 209.686Z" fill="#363E44"/>
<path d="M136.593 220.626L129.664 229.049L101.767 216.574L118.976 195.656L136.593 220.626Z" fill="#E96C79"/>
<path d="M129.675 229.048L135.29 233.668L142.201 225.268L136.585 220.648L129.675 229.048Z" fill="#BD3644"/>
<path d="M131.555 228.624L135.549 231.91L136.766 230.43L132.772 227.144L131.555 228.624Z" fill="#E96C79"/>
<path d="M133.436 226.339L137.43 229.625L138.647 228.145L134.653 224.859L133.436 226.339Z" fill="#E96C79"/>
<path d="M135.316 224.052L139.311 227.338L140.528 225.858L136.534 222.572L135.316 224.052Z" fill="#E96C79"/>
<path d="M124.667 233.988C126.269 235.226 126.797 236.76 126.385 237.312C126.008 237.818 124.63 237.78 123.17 236.96C123.149 236.948 123.132 236.974 123.15 236.989C124.689 238.274 125.318 239.665 124.957 240.18C124.629 240.649 123.35 240.572 121.889 239.912C121.868 239.902 121.853 239.931 121.872 239.944C123.189 240.777 123.817 241.801 123.594 242.257C123.358 242.74 121.721 243.21 119.291 241.51L124.667 233.988Z" fill="#ECD0C8"/>
<path d="M133.219 242.068C133.855 238.532 134.553 235.753 133.299 233.171C132.916 232.382 132.271 231.39 131.487 231.414C129.928 231.463 130.611 233.849 130.4 235.542C130.202 237.12 129.092 237.865 128.325 239.289C127.721 240.409 127.135 242.219 127.553 245.074C129.442 244.072 131.33 243.07 133.219 242.068Z" fill="#ECD0C8"/>
<path d="M182.477 289.105H186.872V217.416H182.477V289.105Z" fill="#84524D"/>
<path d="M201.325 221.544C210.542 212.327 210.542 197.384 201.325 188.167C192.109 178.951 177.166 178.951 167.949 188.167C158.732 197.384 158.732 212.327 167.949 221.544C177.166 230.76 192.109 230.76 201.325 221.544Z" fill="#E96C79"/>
<path d="M198.521 218.625C206.157 210.989 206.157 198.608 198.521 190.972C190.885 183.336 178.504 183.336 170.868 190.972C163.231 198.608 163.231 210.989 170.868 218.625C178.504 226.262 190.885 226.262 198.521 218.625Z" fill="#F7F1EB"/>
<path d="M189.18 205.73C191.852 203.058 191.852 198.727 189.18 196.055C186.508 193.383 182.176 193.383 179.505 196.055C176.833 198.727 176.833 203.058 179.505 205.73C182.176 208.402 186.508 208.402 189.18 205.73Z" fill="#363E44"/>
<path d="M169.539 217.148C173.125 221.543 178.582 224.351 184.696 224.351C190.883 224.351 196.394 221.475 199.977 216.991C200.025 216.888 200.073 216.786 200.117 216.681C194.53 210.846 181.608 205.145 169.539 217.148Z" fill="#363E44"/>
<path d="M200.184 190.257L197.115 187.766L170.213 220.904L173.281 223.396L200.184 190.257Z" fill="#E96C79"/>
<path d="M178.563 260.164C181.666 262.046 185.383 262.813 188.956 262.69C190.387 262.641 191.836 262.4 193.241 262.088C193.899 261.755 193.843 260.77 193.808 260.198C193.784 259.811 192.366 256.25 191.919 255.426C190.349 252.527 188.863 253.411 186.239 250.648C183.262 247.513 183.361 244.062 182.259 244.127C181.492 244.173 181.089 245.464 181.291 248.183L181.291 248.184C180.899 246.135 180.988 243.555 179.857 243.775C178.564 244.098 178.209 247.25 178.541 249.251C178.139 246.829 177.94 245.875 177.293 246.018C176.309 246.235 175.863 248.273 176.186 251.512L176.185 251.512C175.84 249.371 174.649 251.523 174.649 252.851C174.649 253.857 175.502 255.941 175.794 256.421C177.168 258.686 177.511 259.176 178.563 260.164Z" fill="#ECD0C8"/>
<path d="M186.769 253.503C186.53 249.65 186.426 247.666 186.769 247.632C187.904 247.518 190.493 251.06 192.549 257.016C190.871 256.317 188.447 254.201 186.769 253.503Z" fill="#ECD0C8"/>
<path d="M183.2 251.803C183.137 251.803 183.074 251.777 183.029 251.726C182.677 251.324 182.361 250.887 182.089 250.428C181.696 249.763 181.392 249.045 181.186 248.295C181.153 248.174 181.224 248.049 181.345 248.016C181.465 247.983 181.59 248.054 181.623 248.175C181.818 248.886 182.106 249.567 182.48 250.197C182.737 250.632 183.037 251.046 183.371 251.427C183.453 251.521 183.444 251.665 183.349 251.747C183.306 251.785 183.253 251.803 183.2 251.803Z" fill="#363E44"/>
<path d="M180.409 252.555C180.346 252.555 180.283 252.529 180.238 252.478C179.886 252.075 179.57 251.639 179.298 251.18C178.904 250.515 178.6 249.797 178.395 249.047C178.362 248.926 178.433 248.801 178.554 248.768C178.674 248.735 178.799 248.806 178.832 248.927C179.027 249.638 179.315 250.318 179.689 250.949C179.946 251.384 180.246 251.798 180.58 252.179C180.662 252.273 180.653 252.417 180.558 252.499C180.515 252.537 180.462 252.555 180.409 252.555Z" fill="#363E44"/>
<path d="M178.018 255.133C177.955 255.133 177.893 255.107 177.848 255.056C177.495 254.654 177.179 254.217 176.908 253.759C176.514 253.093 176.21 252.375 176.004 251.625C175.971 251.504 176.042 251.379 176.163 251.346C176.284 251.313 176.409 251.384 176.442 251.505C176.637 252.216 176.925 252.897 177.298 253.528C177.555 253.962 177.855 254.376 178.189 254.757C178.272 254.851 178.262 254.995 178.168 255.077C178.125 255.115 178.072 255.133 178.018 255.133Z" fill="#363E44"/>
<path d="M201.864 276.622L190.83 253.852L177.785 258.266L186.939 283.547C191.357 292.266 199.231 289.336 199.231 289.336C203.351 287.371 203.854 280.729 201.864 276.622Z" fill="#ECD0C8"/>
<path d="M165.842 260.926L165.839 260.926C163.144 261.106 160.81 259.073 160.618 256.379L159.847 245.549C159.654 242.846 161.689 240.499 164.392 240.306C167.094 240.113 169.442 242.147 169.635 244.85L170.41 255.68C170.604 258.392 168.555 260.745 165.842 260.926Z" fill="#ECD0C8"/>
<path d="M169.553 232.847C169.212 232.642 165.913 230.73 162.73 232.095C160.362 233.11 159.112 235.264 157.561 239.193C155.736 243.821 155.291 246.842 156.161 248.34C157.535 250.707 165.131 250.484 169.288 247.662C172.289 245.624 173.829 241.896 173.405 238.268C172.981 234.65 169.771 232.978 169.553 232.847Z" fill="#ECD0C8"/>
<path d="M161.025 250.187C160.778 250.187 160.533 250.181 160.291 250.169C160.166 250.162 160.07 250.056 160.076 249.931C160.083 249.806 160.191 249.71 160.315 249.716C162.369 249.821 164.688 249.46 166.676 248.723C166.793 248.68 166.924 248.74 166.967 248.857C167.011 248.975 166.951 249.105 166.833 249.149C165.023 249.819 162.945 250.187 161.025 250.187Z" fill="#363E44"/>
<path d="M166.309 240.746C166.309 240.746 165.326 241.661 163.949 242.019C163.659 242.094 163.351 242.145 163.032 242.158C161.195 242.229 161.096 239.664 162.933 239.593C163.39 239.575 163.828 239.638 164.229 239.741C164.309 239.762 164.388 239.785 164.465 239.808C164.548 239.834 164.629 239.861 164.708 239.889C165.663 240.232 166.309 240.746 166.309 240.746Z" fill="white"/>
<path d="M159.656 241.004C159.656 241.004 161.096 239.664 162.933 239.593C163.391 239.575 163.831 239.638 164.233 239.742C164.489 240.403 164.455 241.169 164.069 241.828C164.031 241.894 163.989 241.957 163.945 242.018C163.656 242.093 163.351 242.145 163.032 242.158C161.195 242.229 159.656 241.004 159.656 241.004Z" fill="#363E44"/>
<path d="M157.108 242.505C157.007 242.505 156.914 242.436 156.888 242.332C156.775 241.876 156.816 241.55 157.013 241.335C157.158 241.177 157.33 241.143 157.496 241.111C157.597 241.091 157.702 241.071 157.821 241.02C158.035 240.928 158.222 240.768 158.379 240.543C158.45 240.44 158.592 240.414 158.695 240.486C158.798 240.557 158.823 240.699 158.751 240.802C158.546 241.097 158.293 241.311 158 241.437C157.836 241.507 157.695 241.534 157.582 241.556C157.441 241.584 157.388 241.597 157.348 241.641C157.265 241.732 157.258 241.939 157.329 242.223C157.359 242.345 157.285 242.468 157.163 242.498C157.145 242.502 157.126 242.505 157.108 242.505Z" fill="#363E44"/>
<path d="M158.675 246.729C158.577 246.729 158.486 246.664 158.457 246.565C158.422 246.445 158.492 246.319 158.612 246.284C158.845 246.216 159.173 246.068 159.406 245.746C159.677 245.371 159.736 244.91 159.687 244.772C159.641 244.79 159.569 244.831 159.513 244.863C159.289 244.988 158.95 245.179 158.491 245.162C158.128 245.149 157.763 245.05 157.437 244.877C157.326 244.818 157.284 244.681 157.343 244.57C157.402 244.46 157.539 244.418 157.65 244.476C157.916 244.618 158.212 244.698 158.508 244.708C158.842 244.719 159.09 244.58 159.29 244.467C159.49 244.355 159.718 244.227 159.935 244.377C160.01 244.428 160.105 244.531 160.14 244.733C160.203 245.094 160.048 245.632 159.773 246.012C159.465 246.438 159.04 246.632 158.739 246.72C158.717 246.726 158.696 246.729 158.675 246.729Z" fill="#363E44"/>
<path d="M171.674 246.624C173.114 245.768 173.678 244.058 172.933 242.806C172.189 241.553 170.418 241.232 168.977 242.088C167.537 242.945 166.973 244.654 167.717 245.907C168.462 247.159 170.233 247.48 171.674 246.624Z" fill="#ECD0C8"/>
<path d="M169.79 247.331C169.786 247.331 169.782 247.331 169.777 247.331C168.8 247.276 167.976 246.801 167.517 246.028C167.453 245.921 167.489 245.781 167.596 245.717C167.704 245.653 167.843 245.689 167.907 245.796C168.288 246.437 168.979 246.832 169.803 246.878C169.928 246.885 170.024 246.992 170.017 247.117C170.01 247.238 169.91 247.331 169.79 247.331Z" fill="#363E44"/>
<path d="M172.796 242.84C172.727 242.84 172.658 242.808 172.614 242.748C171.876 241.754 170.327 241.552 169.088 242.289C168.98 242.353 168.841 242.317 168.777 242.21C168.713 242.102 168.748 241.963 168.856 241.899C170.316 241.031 172.088 241.28 172.978 242.478C173.053 242.579 173.032 242.721 172.931 242.795C172.89 242.825 172.843 242.84 172.796 242.84Z" fill="#363E44"/>
<path d="M171.145 245.528C171.068 245.528 170.992 245.488 170.95 245.417C170.886 245.309 170.922 245.17 171.029 245.106C171.298 244.946 171.495 244.707 171.586 244.433C171.672 244.17 171.649 243.906 171.52 243.689C171.36 243.419 171.052 243.258 170.696 243.258C170.695 243.258 170.693 243.258 170.692 243.258C170.567 243.258 170.465 243.157 170.465 243.032C170.464 242.907 170.566 242.805 170.691 242.805C171.208 242.807 171.666 243.047 171.91 243.457C172.107 243.789 172.145 244.186 172.016 244.575C171.891 244.954 171.623 245.281 171.261 245.496C171.225 245.517 171.185 245.528 171.145 245.528Z" fill="#363E44"/>
<path d="M169.613 238.356C165.914 234.491 161.424 234.349 160.125 234.157C159.405 232.421 159.738 231.278 159.89 230.87C160.757 228.539 164.393 226.834 168.612 227.783C168.282 227.823 166.71 228.464 166.487 228.922C168.016 228.164 169.293 228.329 169.938 228.405C172.9 228.755 175.446 231.468 176.277 235.425C176.165 235.191 175.491 234.193 174.739 233.864C175.147 234.352 175.553 234.947 175.89 235.66C177.355 238.762 176.461 241.889 176.089 242.985C175.609 242.184 173.637 238.984 169.613 238.356Z" fill="#84524D"/>
<path d="M164.296 234.746C164.231 234.746 164.168 234.718 164.124 234.667C164.066 234.599 164.053 234.504 164.09 234.423C164.347 233.872 164.848 233.092 165.777 232.513C166.627 231.982 167.468 231.853 168.025 231.838C168.155 231.833 168.254 231.934 168.257 232.059C168.261 232.184 168.162 232.288 168.037 232.292C167.537 232.305 166.781 232.421 166.017 232.897C165.406 233.279 165.004 233.763 164.752 234.16C165.542 233.96 166.35 233.825 167.159 233.759C167.948 233.695 168.751 233.695 169.543 233.759C169.668 233.769 169.761 233.879 169.751 234.004C169.741 234.129 169.632 234.221 169.507 234.211C168.738 234.149 167.961 234.149 167.196 234.211C166.239 234.289 165.285 234.466 164.36 234.736C164.339 234.743 164.317 234.746 164.296 234.746Z" fill="#363E44"/>
<path d="M192.91 150.188H146.652C146.526 150.188 146.425 150.087 146.425 149.961V127.172C146.425 127.047 146.526 126.945 146.652 126.945H192.91C193.036 126.945 193.137 127.047 193.137 127.172V149.961C193.137 150.087 193.036 150.188 192.91 150.188ZM146.878 149.735H192.684V127.399H146.878V149.735Z" fill="#DE7E88"/>
<path d="M187.967 131.815H178.662C178.537 131.815 178.436 131.713 178.436 131.588C178.436 131.463 178.537 131.361 178.662 131.361H187.967C188.092 131.361 188.194 131.463 188.194 131.588C188.194 131.713 188.092 131.815 187.967 131.815Z" fill="#DE7E88"/>
<path d="M173.217 131.815H152.489C152.363 131.815 152.262 131.713 152.262 131.588C152.262 131.463 152.363 131.361 152.489 131.361H173.217C173.343 131.361 173.444 131.463 173.444 131.588C173.444 131.713 173.343 131.815 173.217 131.815Z" fill="#DE7E88"/>
<path d="M187.967 134.557H163.614C163.488 134.557 163.387 134.456 163.387 134.33C163.387 134.205 163.488 134.104 163.614 134.104H187.967C188.093 134.104 188.194 134.205 188.194 134.33C188.194 134.455 188.093 134.557 187.967 134.557Z" fill="#DE7E88"/>
<path d="M160.717 134.557H152.489C152.363 134.557 152.262 134.456 152.262 134.33C152.262 134.205 152.363 134.104 152.489 134.104H160.717C160.842 134.104 160.944 134.205 160.944 134.33C160.944 134.455 160.842 134.557 160.717 134.557Z" fill="#DE7E88"/>
<path d="M187.967 137.129H178.662C178.537 137.129 178.436 137.028 178.436 136.903C178.436 136.777 178.537 136.676 178.662 136.676H187.967C188.092 136.676 188.194 136.777 188.194 136.903C188.194 137.028 188.092 137.129 187.967 137.129Z" fill="#DE7E88"/>
<path d="M173.217 137.129H152.489C152.363 137.129 152.262 137.028 152.262 136.903C152.262 136.777 152.363 136.676 152.489 136.676H173.217C173.343 136.676 173.444 136.777 173.444 136.903C173.444 137.028 173.343 137.129 173.217 137.129Z" fill="#DE7E88"/>
<path d="M187.967 139.87H170.42C170.295 139.87 170.193 139.768 170.193 139.643C170.193 139.518 170.295 139.416 170.42 139.416H187.967C188.092 139.416 188.194 139.518 188.194 139.643C188.194 139.768 188.092 139.87 187.967 139.87Z" fill="#DE7E88"/>
<path d="M166.162 139.87H152.489C152.363 139.87 152.262 139.768 152.262 139.643C152.262 139.518 152.363 139.416 152.489 139.416H166.162C166.288 139.416 166.389 139.518 166.389 139.643C166.389 139.768 166.288 139.87 166.162 139.87Z" fill="#DE7E88"/>
<path d="M173.217 143.813H152.489C152.363 143.813 152.262 143.711 152.262 143.586C152.262 143.461 152.363 143.359 152.489 143.359H173.217C173.343 143.359 173.444 143.461 173.444 143.586C173.444 143.711 173.343 143.813 173.217 143.813Z" fill="#DE7E88"/>
<path d="M164.801 146.555H152.489C152.363 146.555 152.262 146.454 152.262 146.328C152.262 146.203 152.363 146.102 152.489 146.102H164.801C164.926 146.102 165.028 146.203 165.028 146.328C165.028 146.454 164.926 146.555 164.801 146.555Z" fill="#DE7E88"/>
<path d="M177.375 120.666H133.508V140.13H177.375V120.666Z" fill="#DE7E88"/>
<path d="M172.406 125.997H163.575C163.45 125.997 163.349 125.895 163.349 125.77C163.349 125.644 163.45 125.543 163.575 125.543H172.406C172.532 125.543 172.633 125.644 172.633 125.77C172.633 125.895 172.532 125.997 172.406 125.997Z" fill="white"/>
<path d="M158.407 125.997H138.733C138.607 125.997 138.506 125.895 138.506 125.77C138.506 125.644 138.607 125.543 138.733 125.543H158.407C158.532 125.543 158.633 125.644 158.633 125.77C158.633 125.895 158.532 125.997 158.407 125.997Z" fill="white"/>
<path d="M172.406 128.065H149.291C149.166 128.065 149.064 127.963 149.064 127.838C149.064 127.713 149.166 127.611 149.291 127.611H172.406C172.531 127.611 172.632 127.713 172.632 127.838C172.632 127.963 172.531 128.065 172.406 128.065Z" fill="white"/>
<path d="M146.542 128.065H138.733C138.607 128.065 138.506 127.963 138.506 127.838C138.506 127.713 138.607 127.611 138.733 127.611H146.542C146.668 127.611 146.769 127.713 146.769 127.838C146.769 127.963 146.668 128.065 146.542 128.065Z" fill="white"/>
<path d="M172.405 130.002H163.574C163.449 130.002 163.348 129.901 163.348 129.776C163.348 129.65 163.449 129.549 163.574 129.549H172.405C172.531 129.549 172.632 129.65 172.632 129.776C172.632 129.901 172.531 130.002 172.405 130.002Z" fill="white"/>
<path d="M158.407 130.002H138.733C138.607 130.002 138.506 129.901 138.506 129.776C138.506 129.65 138.607 129.549 138.733 129.549H158.407C158.532 129.549 158.633 129.65 158.633 129.776C158.633 129.901 158.532 130.002 158.407 130.002Z" fill="white"/>
<path d="M172.405 132.069H155.751C155.626 132.069 155.524 131.967 155.524 131.842C155.524 131.717 155.626 131.615 155.751 131.615H172.405C172.531 131.615 172.632 131.717 172.632 131.842C172.632 131.967 172.531 132.069 172.405 132.069Z" fill="white"/>
<path d="M151.711 132.069H138.733C138.607 132.069 138.506 131.967 138.506 131.842C138.506 131.717 138.607 131.615 138.733 131.615H151.711C151.836 131.615 151.937 131.717 151.937 131.842C151.937 131.967 151.836 132.069 151.711 132.069Z" fill="white"/>
<path d="M158.407 135.041H138.733C138.607 135.041 138.506 134.94 138.506 134.815C138.506 134.689 138.607 134.588 138.733 134.588H158.407C158.532 134.588 158.633 134.689 158.633 134.815C158.633 134.94 158.532 135.041 158.407 135.041Z" fill="white"/>
<path d="M150.419 137.108H138.733C138.607 137.108 138.506 137.006 138.506 136.881C138.506 136.756 138.607 136.654 138.733 136.654H150.419C150.544 136.654 150.645 136.756 150.645 136.881C150.645 137.006 150.544 137.108 150.419 137.108Z" fill="white"/>
<path d="M133.507 140.132L128.177 140.612L133.808 134.225L133.507 140.132Z" fill="#DE7E88"/>
<path d="M178.441 141.479H134.574L128.931 141.442C128.843 141.441 128.764 141.39 128.727 141.31C128.69 141.229 128.703 141.135 128.76 141.068L134.347 134.48V121.957C134.347 121.832 134.449 121.73 134.574 121.73H178.441C178.567 121.73 178.668 121.832 178.668 121.957V141.253C178.668 141.378 178.567 141.479 178.441 141.479ZM129.42 140.991L134.575 141.026H178.215V122.184H134.801V134.563C134.801 134.617 134.782 134.669 134.747 134.71L129.42 140.991Z" fill="white"/>
<path d="M43.4815 258.315L46.2969 257.912L41.6544 225.434L38.839 225.837L43.4815 258.315Z" fill="#DE7E88"/>
<path d="M25.4175 228.651L55.1543 224.4L52.8181 208.057L23.0812 212.307L25.4175 228.651Z" fill="#DE7E88"/>
<path d="M79.3811 251.03L81.9658 249.844L62.6151 207.681L60.0304 208.868L79.3811 251.03Z" fill="#DE7E88"/>
<path d="M46.993 218.197C46.9073 218.197 46.825 218.148 46.7868 218.064L38.4084 199.809C38.3833 199.755 38.3809 199.692 38.4019 199.636C38.4228 199.579 38.4652 199.534 38.52 199.509L69.376 185.347C69.4893 185.295 69.6245 185.345 69.6767 185.458L78.0551 203.714C78.0802 203.768 78.0826 203.831 78.0616 203.887C78.0407 203.944 77.9982 203.989 77.9435 204.014L47.0875 218.176C47.0569 218.19 47.0247 218.197 46.993 218.197ZM38.9152 199.826L47.1044 217.669L77.5483 203.697L69.3591 185.854L38.9152 199.826Z" fill="#D3BBA3"/>
<path d="M47.9611 215.379L75.2617 202.85L68.3752 187.845L41.0746 200.375L47.9611 215.379Z" fill="#D3BBA3"/>
<path d="M66.1811 203.524C66.0951 203.524 66.013 203.475 65.9748 203.392C65.9226 203.278 65.9725 203.143 66.0863 203.091L71.3838 200.659C71.4969 200.607 71.6322 200.657 71.6845 200.771C71.7367 200.885 71.6868 201.019 71.573 201.072L66.2755 203.503C66.2449 203.517 66.2127 203.524 66.1811 203.524Z" fill="white"/>
<path d="M49.2904 211.274C49.2044 211.274 49.1224 211.225 49.0842 211.142C49.032 211.028 49.0818 210.894 49.1957 210.841L64.2269 203.943C64.3404 203.89 64.4754 203.94 64.5276 204.054C64.5798 204.168 64.5299 204.303 64.4161 204.355L49.385 211.254C49.3543 211.268 49.3221 211.274 49.2904 211.274Z" fill="white"/>
<path d="M45.1693 202.507C45.0836 202.507 45.0013 202.457 44.9631 202.374C44.9109 202.26 44.9608 202.126 45.0746 202.074L50.5603 199.556C50.6736 199.504 50.8088 199.554 50.861 199.667C50.9132 199.781 50.8633 199.916 50.7495 199.968L45.2638 202.486C45.2332 202.5 45.201 202.507 45.1693 202.507Z" fill="white"/>
<path d="M52.4477 199.167C52.3619 199.167 52.2796 199.118 52.2414 199.035C52.1892 198.921 52.2391 198.786 52.3529 198.734L63.1075 193.798C63.2205 193.746 63.3559 193.796 63.4081 193.91C63.4604 194.023 63.4105 194.158 63.2966 194.21L52.5421 199.146C52.5115 199.16 52.4793 199.167 52.4477 199.167Z" fill="white"/>
<path d="M46.3793 205.57C46.294 205.57 46.2122 205.521 46.1738 205.439C46.1207 205.326 46.1696 205.191 46.2831 205.138L61.0422 198.234C61.1556 198.181 61.2908 198.23 61.3437 198.344C61.3968 198.457 61.3479 198.592 61.2344 198.645L46.4753 205.548C46.4442 205.563 46.4115 205.57 46.3793 205.57Z" fill="white"/>
<path d="M62.6615 197.956C62.5762 197.956 62.4946 197.908 62.456 197.826C62.4029 197.712 62.4519 197.577 62.5653 197.524L68.5845 194.709C68.6982 194.656 68.8331 194.705 68.8861 194.818C68.9392 194.932 68.8902 195.067 68.7768 195.12L62.7576 197.935C62.7264 197.95 62.6937 197.956 62.6615 197.956Z" fill="white"/>
<path d="M47.8695 208.602C47.7842 208.602 47.7026 208.554 47.664 208.472C47.6109 208.358 47.6599 208.223 47.7733 208.17L57.0266 203.842C57.1404 203.789 57.2751 203.838 57.3282 203.951C57.3813 204.065 57.3323 204.199 57.2189 204.253L47.9656 208.581C47.9344 208.595 47.9017 208.602 47.8695 208.602Z" fill="white"/>
<path d="M58.975 203.408C58.8897 203.408 58.8079 203.36 58.7695 203.278C58.7164 203.164 58.7653 203.029 58.8788 202.976L69.993 197.777C70.1068 197.724 70.2415 197.773 70.2945 197.887C70.3475 198 70.2986 198.135 70.1851 198.188L59.0709 203.387C59.0399 203.401 59.0072 203.408 58.975 203.408Z" fill="white"/>
<path d="M98.0076 303.734L88.7438 250.322L84.4307 251.049L93.565 303.734H98.0076Z" fill="#D3BBA3"/>
<path d="M61.4589 259.762C61.3505 259.762 61.2548 259.684 61.2357 259.574L55.9565 229.112C55.9462 229.053 55.9599 228.992 55.9945 228.943C56.0292 228.894 56.0818 228.861 56.1411 228.85L107.629 219.927C107.689 219.917 107.749 219.931 107.798 219.965C107.847 220 107.88 220.052 107.891 220.112L113.17 250.573C113.191 250.696 113.108 250.814 112.985 250.835L61.4977 259.758C61.4847 259.761 61.4717 259.762 61.4589 259.762ZM56.4421 229.258L61.6438 259.273L112.684 250.427L107.483 220.413L56.4421 229.258Z" fill="#D3BBA3"/>
<path d="M63.9065 256.063L109.463 248.166L105.123 223.128L59.5661 231.025L63.9065 256.063Z" fill="#BD3644"/>
<path d="M69.6699 250.012C69.5616 250.012 69.4659 249.934 69.4467 249.824C69.4253 249.7 69.508 249.583 69.6315 249.561L104.587 243.503C104.711 243.482 104.828 243.565 104.849 243.688C104.871 243.811 104.788 243.929 104.665 243.95L69.7089 250.008C69.6957 250.01 69.6828 250.012 69.6699 250.012Z" fill="white"/>
<path d="M64.9219 235.701C64.8136 235.701 64.7178 235.623 64.6987 235.513C64.6773 235.39 64.76 235.272 64.8834 235.251L75.8009 233.359C75.9252 233.337 76.0416 233.42 76.063 233.544C76.0844 233.667 76.0017 233.784 75.8783 233.806L64.9609 235.698C64.9477 235.7 64.9347 235.701 64.9219 235.701Z" fill="white"/>
<path d="M77.9062 233.451C77.7979 233.451 77.7022 233.373 77.6831 233.263C77.6617 233.14 77.7444 233.022 77.8678 233.001L98.6245 229.404C98.7491 229.383 98.8652 229.465 98.8867 229.588C98.908 229.712 98.8253 229.829 98.7019 229.851L77.9452 233.448C77.9321 233.45 77.9191 233.451 77.9062 233.451Z" fill="white"/>
<path d="M65.5166 240.736C65.4089 240.736 65.3136 240.659 65.2937 240.549C65.2714 240.426 65.3533 240.308 65.4765 240.286L84.099 236.92C84.2216 236.898 84.3401 236.979 84.3624 237.102C84.3847 237.226 84.3028 237.344 84.1796 237.366L65.5571 240.732C65.5435 240.734 65.53 240.736 65.5166 240.736Z" fill="white"/>
<path d="M87.0098 236.85C86.9022 236.85 86.8067 236.773 86.7869 236.663C86.7645 236.54 86.8464 236.422 86.9697 236.4L102.765 233.545C102.889 233.522 103.006 233.604 103.029 233.727C103.051 233.851 102.969 233.969 102.846 233.991L87.0503 236.846C87.0367 236.849 87.023 236.85 87.0098 236.85Z" fill="white"/>
<path d="M66.539 245.833C66.4314 245.833 66.336 245.757 66.3162 245.647C66.2938 245.524 66.3757 245.406 66.4989 245.384L78.0757 243.291C78.1985 243.269 78.3168 243.35 78.3391 243.473C78.3614 243.597 78.2795 243.715 78.1563 243.737L66.5796 245.83C66.566 245.832 66.5524 245.833 66.539 245.833Z" fill="white"/>
<path d="M80.1787 243.368C80.071 243.368 79.9757 243.291 79.9558 243.182C79.9335 243.059 80.0154 242.941 80.1386 242.918L103.652 238.668C103.775 238.646 103.893 238.727 103.915 238.85C103.937 238.974 103.856 239.092 103.732 239.114L80.2192 243.365C80.2056 243.367 80.1921 243.368 80.1787 243.368Z" fill="white"/>
<path d="M87.8601 293.73C91.2251 295.049 95.0037 295.17 98.4892 294.441C99.8853 294.149 101.266 293.667 102.592 293.122C103.182 292.682 102.959 291.725 102.827 291.17C102.738 290.795 100.74 287.541 100.162 286.808C98.128 284.23 96.8196 285.351 93.7748 283.085C90.3199 280.514 89.8299 277.111 88.7594 277.363C88.0149 277.538 87.8383 278.874 88.4996 281.508L88.4993 281.508C87.7667 279.565 87.415 277.017 86.342 277.425C85.1283 277.963 85.3162 281.116 85.9824 283.023C85.1761 280.715 84.8179 279.813 84.2076 280.063C83.2786 280.444 83.1871 282.519 84.0552 285.643L84.055 285.643C83.3515 283.601 82.5494 285.915 82.7752 287.218C82.9463 288.206 84.1375 290.105 84.5058 290.528C86.2397 292.516 86.6589 292.939 87.8601 293.73Z" fill="#BC8271"/>
<path d="M94.7805 285.797C93.8906 282.057 93.4509 280.127 93.7819 280.035C94.8766 279.73 98.0195 282.765 101.05 288.262C99.2847 287.861 96.5461 286.197 94.7805 285.797Z" fill="#BC8271"/>
<path d="M90.9498 284.74C90.8997 284.74 90.8493 284.724 90.8074 284.69C90.3933 284.355 90.0087 283.98 89.664 283.576C89.164 282.99 88.7435 282.337 88.4141 281.636C88.3609 281.522 88.4097 281.387 88.523 281.334C88.6363 281.281 88.7715 281.329 88.8247 281.443C89.137 282.108 89.5353 282.727 90.0091 283.282C90.3356 283.665 90.7001 284.02 91.0924 284.337C91.1898 284.416 91.205 284.559 91.1263 284.656C91.0814 284.711 91.0159 284.74 90.9498 284.74Z" fill="#363E44"/>
<path d="M88.3384 285.953C88.2882 285.953 88.2378 285.937 88.1959 285.903C87.7814 285.568 87.3967 285.193 87.0526 284.789C86.5527 284.203 86.1324 283.55 85.8028 282.849C85.7495 282.735 85.7984 282.6 85.9116 282.547C86.025 282.494 86.1601 282.542 86.2134 282.656C86.5257 283.321 86.9242 283.94 87.3976 284.495C87.7239 284.878 88.0884 285.232 88.4811 285.55C88.5784 285.629 88.5936 285.772 88.5147 285.869C88.4701 285.924 88.4046 285.953 88.3384 285.953Z" fill="#363E44"/>
<path d="M86.4312 288.889C86.3811 288.889 86.3307 288.872 86.2888 288.838C85.8747 288.504 85.49 288.129 85.1455 287.725C84.6454 287.138 84.2249 286.486 83.8956 285.784C83.8423 285.671 83.8912 285.536 84.0044 285.482C84.1181 285.429 84.2528 285.478 84.3062 285.591C84.6183 286.256 85.0168 286.875 85.4905 287.431C85.817 287.813 86.1815 288.168 86.574 288.486C86.6713 288.564 86.6865 288.707 86.6077 288.805C86.5629 288.86 86.4973 288.889 86.4312 288.889Z" fill="#363E44"/>
<path d="M112.016 303.732L98.8247 285.406L86.7734 291.936L93.5234 303.732H112.016Z" fill="#BC8271"/>
<path d="M48.2907 303.734L52.902 262.424L48.339 261.895L43.6709 303.734H48.2907Z" fill="#D3BBA3"/>
<path d="M71.0106 269.332C71.0022 269.332 70.9937 269.331 70.9852 269.331L29.1264 264.663C29.0666 264.656 29.0119 264.626 28.9744 264.579C28.9368 264.532 28.9195 264.472 28.9262 264.412L32.5199 232.186C32.5336 232.062 32.6446 231.972 32.7703 231.986L74.6291 236.654C74.6889 236.66 74.7436 236.691 74.7811 236.738C74.8187 236.785 74.8361 236.844 74.8293 236.904L71.2356 269.13C71.2229 269.246 71.1246 269.332 71.0106 269.332ZM29.4021 264.237L70.8102 268.855L74.3536 237.079L32.9455 232.462L29.4021 264.237Z" fill="#E0AA63"/>
<path d="M31.9115 261.578L68.9473 265.707L71.9005 239.219L34.8647 235.089L31.9115 261.578Z" fill="#E96C79"/>
<path d="M48.6063 256.733C48.6724 256.14 48.9412 255.677 49.4127 255.344C49.884 255.011 50.4404 254.88 51.0821 254.951C51.7234 255.023 52.2375 255.273 52.624 255.702C53.0102 256.13 53.1706 256.642 53.1044 257.235C53.0383 257.828 52.7692 258.292 52.2981 258.624C51.8266 258.957 51.27 259.088 50.6287 259.017C49.987 258.945 49.4731 258.695 49.0867 258.266C48.7002 257.838 48.5402 257.327 48.6063 256.733ZM52.943 253.442L49.6594 253.076L50.4769 241.051L54.7947 241.532L52.943 253.442Z" fill="white"/>
<path d="M50.8867 300.601C47.7741 300.773 44.3938 299.845 41.7351 298.308C40.6702 297.692 39.6692 296.924 38.7305 296.12C39.4289 294.936 39.9514 294.058 40.2092 293.639C40.3838 293.355 40.6896 292.852 41.2492 292.332C43.3225 290.402 45.9429 292.1 48.6623 290.278C49.3421 289.822 49.7492 289.302 49.9895 288.786C50.7178 287.219 49.7292 286.396 50.3552 286.054C50.7947 285.815 53.5106 286.076 52.7979 289.877L52.646 290.314C53.3255 288.058 52.5081 287.558 54.1284 287.941C55.3846 288.521 55.8783 290.791 55.0625 292.331C55.978 290.603 54.8702 289.717 55.421 289.86C56.9189 290.247 57.7164 292.851 55.9341 294.997L55.9343 294.997C56.7356 293.804 57.1064 293.723 57.3107 294.198C57.6837 295.066 57.2262 296.909 55.6662 298.241C53.9356 299.719 52.0839 300.278 50.8867 300.601Z" fill="#ECD0C8"/>
<path d="M45.0237 291.754C45.6109 288.126 45.9691 286.958 45.3913 286.883C44.4194 286.758 41.7351 289.385 40.209 294.579C41.6209 293.912 43.6117 292.421 45.0237 291.754Z" fill="#ECD0C8"/>
<path d="M51.3579 291.878C51.28 291.878 51.2041 291.838 51.1618 291.766C51.0987 291.658 51.1353 291.519 51.2433 291.456C51.2792 291.435 51.3152 291.413 51.3514 291.391C51.9666 291.017 52.9346 289.663 52.673 288.299C52.6495 288.176 52.73 288.057 52.8529 288.033C52.977 288.01 53.0947 288.09 53.1184 288.213C53.434 289.86 52.2571 291.371 51.587 291.778C51.5485 291.802 51.5102 291.825 51.4721 291.847C51.4361 291.868 51.3968 291.878 51.3579 291.878Z" fill="#363E44"/>
<path d="M53.0141 293.905C52.9412 293.905 52.8695 293.87 52.8257 293.804C52.7558 293.7 52.7835 293.56 52.8874 293.49C52.916 293.471 52.9387 293.463 52.9799 293.449C53.6603 293.224 55.2229 292.456 55.0364 290.191C55.0261 290.066 55.119 289.956 55.2437 289.946C55.3688 289.935 55.4781 290.029 55.4883 290.154C55.7073 292.813 53.7327 293.678 53.1223 293.88L53.1034 293.886C53.0746 293.899 53.0442 293.905 53.0141 293.905Z" fill="#363E44"/>
<path d="M53.9244 296.719C53.8421 296.719 53.7627 296.674 53.7225 296.596C53.6651 296.484 53.709 296.348 53.8204 296.29C53.969 296.214 54.1166 296.131 54.259 296.045C54.7051 295.773 55.3311 295.217 56.0695 294.436C56.1557 294.345 56.299 294.341 56.3901 294.427C56.4811 294.513 56.4851 294.657 56.399 294.748C55.6333 295.558 54.9748 296.14 54.4946 296.432C54.343 296.524 54.186 296.612 54.0278 296.694C53.9947 296.711 53.9592 296.719 53.9244 296.719Z" fill="#363E44"/>
<path d="M47.1685 303.733L51.9909 299.428L43.8871 290.83L26.3181 303.599C26.2447 303.653 26.1741 303.733 26.1035 303.733H47.1685Z" fill="#ECD0C8"/>
</g>
</g>
</g>
<defs>
<filter id="filter0_d_569_8834" x="0.269756" y="0.171987" width="238.57" height="329.939" filterUnits="userSpaceOnUse" color-interpolation-filters="sRGB">
<feFlood flood-opacity="0" result="BackgroundImageFix"/>
<feColorMatrix in="SourceAlpha" type="matrix" values="0 0 0 0 0 0 0 0 0 0 0 0 0 0 0 0 0 0 127 0" result="hardAlpha"/>
<feOffset dy="2.14247"/>
<feGaussianBlur stdDeviation="2.14247"/>
<feComposite in2="hardAlpha" operator="out"/>
<feColorMatrix type="matrix" values="0 0 0 0 0 0 0 0 0 0 0 0 0 0 0 0 0 0 0.1 0"/>
<feBlend mode="normal" in2="BackgroundImageFix" result="effect1_dropShadow_569_8834"/>
<feBlend mode="normal" in="SourceGraphic" in2="effect1_dropShadow_569_8834" result="shape"/>
</filter>
<clipPath id="clip0_569_8834">
<rect x="20.3076" y="107.863" width="198.493" height="203.219" rx="15.7534" fill="white"/>
</clipPath>
<clipPath id="clip1_569_8834">
<rect x="20.3076" y="107.863" width="198.493" height="203.219" rx="15.7534" fill="white"/>
</clipPath>
</defs>
</svg>
