<svg width="310" height="105" viewBox="0 0 310 105" fill="none" xmlns="http://www.w3.org/2000/svg">
<g clip-path="url(#clip0_535_11141)">
<rect y="0.75" width="310" height="103.333" rx="6.2" fill="#BE0054" fill-opacity="0.91"/>
<path d="M155.129 168.669C219.404 168.669 271.508 116.564 271.508 52.2893C271.508 -11.9851 219.404 -64.0898 155.129 -64.0898C90.8547 -64.0898 38.75 -11.9851 38.75 52.2893C38.75 116.564 90.8547 168.669 155.129 168.669Z" fill="#344E81"/>
<path d="M162.051 123.95C201.429 123.95 233.352 92.0224 233.352 52.6373C233.352 13.2522 201.429 -18.6758 162.051 -18.6758C122.672 -18.6758 90.7488 13.2522 90.7488 52.6373C90.7488 92.0224 122.672 123.95 162.051 123.95Z" fill="#344E81"/>
<path d="M206.945 19.1387H202.057V25.508H206.945V19.1387Z" fill="white"/>
<path d="M201.474 18.9811C202.083 18.6932 202.301 17.8751 201.96 17.1539C201.62 16.4326 200.849 16.0814 200.24 16.3693C199.63 16.6572 199.412 17.4753 199.753 18.1965C200.094 18.9177 200.864 19.269 201.474 18.9811Z" fill="white"/>
<path d="M200.371 18.1341C200.35 18.1341 200.33 18.1243 200.317 18.1061C200.287 18.0628 200.26 18.0164 200.237 17.9681C200.049 17.5695 200.173 17.1137 200.515 16.952C200.6 16.9117 200.692 16.8933 200.788 16.8946C200.824 16.8955 200.853 16.9255 200.852 16.9617C200.851 16.9975 200.822 17.0259 200.786 17.0259C200.786 17.0259 200.785 17.0259 200.785 17.0259C200.708 17.0229 200.638 17.0393 200.572 17.0708C200.295 17.2015 200.198 17.5788 200.356 17.9119C200.375 17.9535 200.399 17.9934 200.425 18.0306C200.446 18.0603 200.438 18.1013 200.409 18.1222C200.397 18.1302 200.384 18.1341 200.371 18.1341Z" fill="#363E44"/>
<path d="M209.227 18.1957C209.568 17.4745 209.35 16.6565 208.74 16.3685C208.131 16.0806 207.36 16.4319 207.02 17.1531C206.679 17.8743 206.897 18.6924 207.507 18.9803C208.116 19.2682 208.886 18.917 209.227 18.1957Z" fill="white"/>
<path d="M208.609 18.1341C208.596 18.1341 208.583 18.1303 208.572 18.1222C208.542 18.1014 208.535 18.0604 208.556 18.0307C208.582 17.9934 208.605 17.9534 208.625 17.9119C208.782 17.5788 208.685 17.2015 208.409 17.0708C208.342 17.0393 208.271 17.0232 208.196 17.0259C208.195 17.0259 208.194 17.0259 208.194 17.0259C208.159 17.0259 208.129 16.9975 208.128 16.9617C208.128 16.9255 208.156 16.8954 208.193 16.8946C208.287 16.8932 208.38 16.9117 208.465 16.952C208.807 17.1137 208.932 17.5695 208.743 17.9681C208.721 18.0163 208.694 18.0627 208.663 18.1062C208.65 18.1244 208.63 18.1341 208.609 18.1341Z" fill="#363E44"/>
<path d="M207.473 17.4316C207.473 19.412 206.102 21.5011 204.41 21.5011C202.718 21.5011 201.347 19.412 201.347 17.4316C201.347 15.4511 202.718 13.8457 204.41 13.8457C206.102 13.8457 207.473 15.4511 207.473 17.4316Z" fill="white"/>
<path d="M204.41 21.5659C203.791 21.5659 203.183 21.2949 202.652 20.7821C202.626 20.7569 202.625 20.7153 202.65 20.6893C202.675 20.6633 202.717 20.6625 202.743 20.6876C203.25 21.1763 203.826 21.4346 204.41 21.4346C205.045 21.4346 205.664 21.1335 206.199 20.5637C206.224 20.5372 206.266 20.5359 206.292 20.5608C206.319 20.5857 206.32 20.6272 206.295 20.6536C205.734 21.2505 205.083 21.5659 204.41 21.5659Z" fill="#363E44"/>
<path d="M204.471 19.1992C204.449 19.1992 204.428 19.1885 204.416 19.1688C204.396 19.1382 204.405 19.0976 204.436 19.0782C204.532 19.0169 204.59 18.9472 204.608 18.8708C204.627 18.792 204.597 18.7243 204.556 18.6308C204.522 18.5536 204.484 18.4663 204.461 18.3493C204.432 18.2003 204.437 18.0425 204.477 17.8801C204.486 17.8449 204.522 17.8234 204.556 17.8319C204.592 17.8406 204.613 17.8761 204.605 17.9114C204.569 18.0551 204.564 18.194 204.59 18.3241C204.61 18.4268 204.645 18.507 204.676 18.5778C204.722 18.6815 204.765 18.7793 204.736 18.9012C204.71 19.012 204.632 19.1088 204.506 19.189C204.495 19.1959 204.483 19.1992 204.471 19.1992Z" fill="#363E44"/>
<path d="M204.179 19.8926C204.027 19.8926 203.884 19.825 203.8 19.7079C203.723 19.602 203.698 19.4626 203.732 19.3254C203.741 19.2902 203.776 19.2684 203.811 19.2774C203.847 19.2861 203.868 19.3217 203.859 19.3569C203.835 19.4564 203.852 19.5563 203.906 19.6309C203.978 19.7303 204.111 19.7795 204.246 19.7555C204.281 19.7494 204.316 19.7731 204.322 19.8089C204.328 19.8446 204.304 19.8787 204.269 19.8849C204.239 19.8901 204.209 19.8926 204.179 19.8926Z" fill="#363E44"/>
<path d="M202.759 18.1488C202.123 18.1488 201.62 17.5802 201.599 17.5561C201.575 17.5288 201.578 17.4873 201.606 17.4635C201.633 17.4396 201.674 17.4424 201.698 17.4698C201.703 17.4752 202.184 18.0175 202.759 18.0175C203.334 18.0175 203.815 17.4752 203.82 17.4698C203.843 17.4425 203.885 17.4397 203.912 17.4635C203.94 17.4873 203.942 17.5288 203.919 17.5561C203.897 17.5802 203.395 18.1488 202.759 18.1488Z" fill="#363E44"/>
<path d="M206.11 18.1488C205.474 18.1488 204.972 17.5802 204.95 17.5561C204.927 17.5288 204.93 17.4873 204.957 17.4635C204.984 17.4396 205.026 17.4424 205.049 17.4698C205.054 17.4752 205.535 18.0175 206.11 18.0175C206.686 18.0175 207.166 17.4752 207.171 17.4698C207.195 17.4425 207.236 17.4397 207.264 17.4635C207.291 17.4873 207.294 17.5288 207.27 17.5561C207.249 17.5802 206.746 18.1488 206.11 18.1488Z" fill="#363E44"/>
<path d="M204.342 12.7739C205.868 12.771 207.102 11.5318 207.099 10.006C207.096 8.48028 205.857 7.24576 204.332 7.24866C202.806 7.25156 201.572 8.49078 201.575 10.0165C201.578 11.5423 202.817 12.7768 204.342 12.7739Z" fill="black"/>
<path d="M205.086 12.842C203.526 12.842 202.258 11.5732 202.258 10.0138C202.258 8.45429 203.526 7.18555 205.086 7.18555C206.645 7.18555 207.913 8.45429 207.913 10.0138C207.913 11.5732 206.645 12.842 205.086 12.842ZM205.086 7.3168C203.599 7.3168 202.389 8.52664 202.389 10.0137C202.389 11.5008 203.599 12.7106 205.086 12.7106C206.572 12.7106 207.782 11.5008 207.782 10.0137C207.782 8.52664 206.572 7.3168 205.086 7.3168Z" fill="#BD0054"/>
<path d="M204.786 12.092C203.227 12.092 201.958 10.8233 201.958 9.26383C201.958 7.70429 203.227 6.43555 204.786 6.43555C206.345 6.43555 207.614 7.70429 207.614 9.26383C207.614 10.8233 206.345 12.092 204.786 12.092ZM204.786 6.56687C203.299 6.56687 202.089 7.77671 202.089 9.26383C202.089 10.7509 203.299 11.9607 204.786 11.9607C206.273 11.9607 207.482 10.7509 207.482 9.26383C207.482 7.77671 206.273 6.56687 204.786 6.56687Z" fill="#BD0054"/>
<path d="M204.388 14.2317C204.98 14.5619 205.761 15.1284 206.316 16.0624C207.421 17.9228 206.708 20.6102 205.754 22.6282C206.378 21.9229 207.549 20.3879 207.853 18.1615C207.967 17.3277 208.022 16.9184 207.942 16.3205C207.978 16.2216 208.691 14.5734 207.473 13.1723C206.581 12.146 205.448 12.2399 204.257 12.6768C203.776 12.4489 202.59 12.1694 201.651 12.8404C200.718 13.5075 200.288 14.7198 200.786 16.2715C200.703 16.9972 200.486 17.9949 200.947 19.4876C201.405 20.9711 202.637 22.0757 203.113 22.6282C202.057 20.0803 201.221 18.083 202.362 16.1111C203.011 14.9895 203.78 14.4466 204.388 14.2317Z" fill="black"/>
<path d="M207.941 16.3857C207.911 16.3857 207.883 16.364 207.877 16.3327C207.872 16.3069 207.868 16.2676 207.863 16.2132C207.828 15.84 207.721 14.7043 206.685 13.9757C205.779 13.3395 204.938 13.6986 204.578 13.8519C204.506 13.8828 204.458 13.9032 204.423 13.9103C204.408 13.9133 204.393 13.911 204.379 13.9038C204.371 13.8997 204.36 13.893 204.344 13.884C203.532 13.415 202.738 13.3224 202.11 13.6232C201.274 14.0232 200.745 15.1343 200.852 16.2648C200.855 16.3009 200.829 16.3329 200.793 16.3363C200.756 16.3405 200.725 16.3131 200.721 16.2771C200.61 15.0938 201.17 13.9278 202.054 13.5047C202.722 13.1848 203.559 13.279 204.41 13.7703C204.413 13.772 204.416 13.7737 204.419 13.7752C204.445 13.7662 204.484 13.7495 204.527 13.731C204.874 13.583 205.795 13.1899 206.76 13.8681C207.847 14.6316 207.958 15.8127 207.994 16.2008C207.999 16.2495 208.002 16.288 208.006 16.3072C208.013 16.3428 207.99 16.3773 207.954 16.3844C207.95 16.3853 207.946 16.3857 207.941 16.3857Z" fill="#BD0054"/>
<path d="M195.621 40.2735C195.956 40.9874 196.556 42.047 197.594 43.0632C198.403 43.8556 200.301 45.7139 202.93 45.6154C205.371 45.5238 207.035 43.7968 207.979 42.8172C208.877 41.8858 209.437 40.9493 209.777 40.2734C210.103 40.5102 210.119 41.0107 210.494 41.3942C210.893 41.8026 211.023 42.2466 211.26 42.595C210.075 43.9428 209.086 45.6147 207.608 48.0901C204.725 52.9172 204.394 55.877 202.997 55.9195C201.607 55.9618 200.994 53.0628 197.671 47.6261C196.32 45.4141 195.044 43.6414 194.078 42.3757C194.239 42.0662 194.441 41.7231 194.696 41.3654C195.009 40.9241 195.33 40.5627 195.621 40.2735Z" fill="#0E0600"/>
<path d="M212.1 34.6374L209.778 40.274C209.778 40.274 219.092 48.8615 215.492 65.975H204.14L203.113 54.9462L198.946 65.975H186.553C186.553 65.975 189.135 47.9205 195.621 40.274L194.864 34.8829C194.864 34.8829 193.924 34.4223 193.764 34.2113C192.617 32.2527 194.006 29.1713 194.006 29.1713C194.006 29.1713 179.803 20.4833 183.79 16.9579C186.354 14.6911 200.006 23.3123 200.006 23.3123L205.699 23.8653C205.699 23.8653 210.095 25.0567 214.89 26.9411L212.1 34.6374Z" fill="white"/>
<path d="M206.508 37.6371C206.033 37.6371 205.551 37.5628 205.074 37.409C203.626 36.9423 202.723 35.4578 202.461 33.1159C202.455 33.062 202.45 33.011 202.447 32.9996C202.438 32.9644 202.459 32.9287 202.495 32.9199C202.529 32.9112 202.565 32.9324 202.574 32.9676C202.579 32.9868 202.583 33.0225 202.592 33.1013C202.847 35.388 203.719 36.8343 205.114 37.2839C207.171 37.947 209.332 37.0884 210.491 35.1469C210.509 35.1158 210.55 35.1056 210.581 35.1242C210.612 35.1428 210.622 35.1831 210.604 35.2142C209.681 36.7596 208.14 37.6371 206.508 37.6371Z" fill="#363E44"/>
<path d="M199.776 35.4835C199.756 35.4835 199.736 35.4741 199.723 35.4564C199.702 35.4271 199.708 35.386 199.737 35.3647C200.326 34.938 201.665 33.3772 201.886 32.7868C201.898 32.7528 201.936 32.7357 201.97 32.7483C202.004 32.761 202.021 32.7988 202.009 32.8328C201.761 33.4938 200.376 35.0636 199.815 35.471C199.803 35.4794 199.789 35.4835 199.776 35.4835Z" fill="#363E44"/>
<path d="M201.907 41.1464C201.873 41.1464 201.845 41.1214 201.841 41.0877C201.837 41.0517 201.864 41.0193 201.9 41.0154C201.989 41.0059 202.056 40.9284 202.053 40.8391C202.049 40.7502 201.977 40.6778 201.888 40.6744C201.852 40.673 201.823 40.6426 201.825 40.6063C201.826 40.5701 201.856 40.5399 201.893 40.5432C202.05 40.5492 202.178 40.677 202.184 40.8343C202.19 40.9921 202.071 41.1292 201.914 41.146C201.911 41.1463 201.909 41.1464 201.907 41.1464Z" fill="#363E44"/>
<path d="M190.37 20.6902C190.37 20.6903 190.37 20.6904 190.37 20.6903C195.685 18.4355 199.5 16.9376 200.659 16.4289C200.781 16.3756 200.995 16.2826 201.231 16.0905C202.105 15.3789 201.869 14.4483 202.447 13.2806C203.102 11.9556 203.915 11.7134 203.765 11.3674C203.66 11.1267 203.504 11.0165 202.655 11.402L202.655 11.4019C203.266 11.0349 203.839 10.5188 203.636 10.1815C203.38 9.80471 202.591 10.3028 201.988 10.6452C202.718 10.2308 203.241 9.76965 203.058 9.451C202.88 9.1422 201.88 9.44286 200.985 10.1555L200.985 10.1554C201.524 9.56945 201.567 9.347 201.391 9.24043C201.069 9.04582 200.302 9.54142 199.692 10.0834C199.004 10.6936 198.683 11.4053 198.491 11.8589C198.491 11.859 198.491 11.8591 198.491 11.8591C194.604 13.0524 186.486 15.0837 183.79 16.9588C183.017 17.4961 187.301 19.9091 190.37 20.6902Z" fill="white"/>
<path d="M197.699 12.2125C197.881 10.7612 198.047 9.74562 198.394 9.68633C199.081 9.569 199.382 11.0159 199.383 13.1706C198.919 12.7578 198.163 12.6253 197.699 12.2125Z" fill="white"/>
<path d="M198.491 11.9243C198.455 11.9243 198.425 11.8949 198.425 11.8586C198.425 11.8474 198.428 11.8368 198.433 11.8275C198.597 11.4398 198.796 11.0182 199.13 10.5879C199.153 10.5593 199.194 10.5541 199.222 10.5763C199.251 10.5985 199.256 10.6398 199.234 10.6684C198.909 11.0873 198.714 11.5002 198.551 11.8839C198.541 11.9082 198.517 11.9243 198.491 11.9243Z" fill="#363E44"/>
<path d="M201.791 12.4803C201.78 12.4803 201.769 12.4777 201.759 12.4723C201.728 12.4549 201.716 12.415 201.733 12.3832C201.82 12.2234 201.923 12.0711 202.038 11.9304C202.204 11.7263 202.398 11.5449 202.614 11.3911C202.643 11.3701 202.684 11.3768 202.705 11.4064C202.726 11.4359 202.72 11.477 202.69 11.498C202.484 11.645 202.299 11.8184 202.139 12.0134C202.03 12.1479 201.932 12.2935 201.849 12.4462C201.837 12.468 201.814 12.4803 201.791 12.4803Z" fill="#363E44"/>
<path d="M201.221 11.6737C201.21 11.6737 201.199 11.6711 201.189 11.6657C201.158 11.6483 201.146 11.6084 201.163 11.5766C201.25 11.4168 201.353 11.2645 201.468 11.1238C201.634 10.9197 201.828 10.7382 202.044 10.5844C202.073 10.5635 202.114 10.5702 202.135 10.5998C202.156 10.6293 202.149 10.6703 202.12 10.6914C201.914 10.8383 201.729 11.0118 201.569 11.2068C201.46 11.3412 201.362 11.4869 201.279 11.6395C201.267 11.6613 201.244 11.6737 201.221 11.6737Z" fill="#363E44"/>
<path d="M200.112 11.2088C200.101 11.2088 200.09 11.2063 200.08 11.2008C200.049 11.1834 200.037 11.1436 200.054 11.1117C200.142 10.9518 200.244 10.7994 200.359 10.6589C200.525 10.4549 200.719 10.2734 200.935 10.1196C200.964 10.0986 201.005 10.1053 201.026 10.135C201.047 10.1644 201.04 10.2055 201.011 10.2266C200.805 10.3735 200.62 10.5469 200.46 10.7419C200.351 10.8762 200.253 11.0218 200.169 11.1747C200.158 11.1964 200.135 11.2088 200.112 11.2088Z" fill="#363E44"/>
<path d="M190.37 20.7564C190.344 20.7564 190.32 20.7413 190.31 20.7164C190.295 20.683 190.311 20.6444 190.344 20.6303C191.634 20.0832 192.926 19.5419 194.295 18.9757C194.329 18.9619 194.367 18.9777 194.381 19.0112C194.395 19.0448 194.379 19.0832 194.345 19.097C192.977 19.6631 191.685 20.2042 190.396 20.7512C190.387 20.7547 190.379 20.7564 190.37 20.7564Z" fill="#363E44"/>
<path d="M209.777 40.2498C209.777 40.2498 213.375 43.2705 216.056 51.7089C219.33 62.0135 221.597 79.726 218.759 101.502H181.371C181.371 101.502 183.851 83.3146 184.781 76.5551C186.24 65.9434 188.935 50.9113 193.154 43.7323C195.265 40.1382 195.928 39.8125 195.928 39.8125L209.777 40.2498Z" fill="#EFBC73"/>
<path d="M198.837 22.5192L194.006 29.1728C194.006 29.1728 191.295 29.0803 190.909 27.3684C190.523 25.6565 194.935 20.0195 194.935 20.0195C194.935 20.0195 198.467 20.1043 198.837 22.5192Z" fill="#BD0054"/>
<path d="M194.006 29.1719C194.006 29.1719 195.969 32.1133 199.182 33.4433C202.057 34.6334 206.306 34.9062 209.777 34.5246C211.178 34.3707 211.729 33.9446 211.729 33.9446C211.729 33.9446 212.02 34.7041 211.954 34.9922L209.777 40.2745L201.622 47.2712L195.62 40.2745L194.864 34.8833C194.864 34.8833 193.315 34.382 193.101 32.9277C192.948 31.8854 193.191 30.2939 194.006 29.1719Z" fill="#BD0054"/>
<path d="M215.318 94.727C212.591 94.7271 211.316 92.2683 211.033 91.6368C210.911 91.9044 210.601 92.4984 210.02 93.0991C209.312 93.8316 208.051 94.7047 206.069 94.7047C203.726 94.7046 202.048 92.1578 201.684 91.557C201.584 91.8266 201.311 92.4473 200.742 93.0747C200.06 93.8284 198.805 94.727 196.706 94.727C193.955 94.727 192.532 92.0324 192.228 91.3807C192.097 91.6704 191.75 92.3604 191.14 93.0311C190.404 93.8406 189.124 94.7889 187.205 94.7084C183.988 94.5739 182.746 91.2719 182.733 91.2385C182.721 91.2045 182.738 91.1668 182.773 91.1544C182.807 91.142 182.844 91.1594 182.857 91.1935C182.869 91.226 184.083 94.4464 187.211 94.5773C190.786 94.7272 192.152 91.2282 192.165 91.1928C192.175 91.1675 192.199 91.1506 192.226 91.1504C192.226 91.1504 192.226 91.1504 192.227 91.1504C192.254 91.1504 192.278 91.1668 192.288 91.1917C192.301 91.2258 193.682 94.5957 196.706 94.5957C198.754 94.5957 199.976 93.7231 200.641 92.9911C201.363 92.1962 201.603 91.3898 201.606 91.3817C201.613 91.3562 201.635 91.3377 201.661 91.3348C201.688 91.3318 201.714 91.3453 201.726 91.3687C201.744 91.4006 203.505 94.5734 206.069 94.5735C208.002 94.5735 209.231 93.7243 209.922 93.012C210.673 92.2381 210.969 91.4531 210.972 91.4453C210.981 91.4195 211.006 91.4024 211.033 91.4024C211.061 91.4024 211.085 91.4196 211.095 91.4452C211.107 91.4767 212.298 94.5958 215.318 94.5958C215.321 94.5958 215.323 94.5958 215.326 94.5958C218.36 94.5906 219.576 91.5383 219.588 91.5075C219.601 91.4737 219.64 91.4568 219.673 91.4699C219.707 91.483 219.724 91.5209 219.711 91.5548C219.699 91.5865 218.452 94.7218 215.326 94.7271C215.323 94.727 215.321 94.727 215.318 94.727Z" fill="#BD0054"/>
<path d="M214.859 100.495C212.121 100.495 210.841 98.0344 210.558 97.404C210.436 97.6712 210.125 98.2657 209.541 98.8668C208.83 99.5992 207.564 100.472 205.575 100.472C203.224 100.472 201.538 97.9238 201.174 97.3242C201.073 97.5935 200.8 98.2146 200.229 98.8425C199.543 99.5962 198.284 100.495 196.177 100.495C193.416 100.495 191.987 97.7985 191.683 97.1478C191.552 97.4372 191.203 98.1277 190.591 98.7988C189.852 99.6083 188.57 100.556 186.642 100.476C183.413 100.342 182.166 97.0396 182.153 97.0063C182.141 96.9722 182.158 96.9345 182.192 96.922C182.227 96.9096 182.264 96.927 182.277 96.961C182.289 96.9935 183.507 100.214 186.647 100.345C190.235 100.495 191.607 96.9957 191.62 96.9604C191.63 96.935 191.654 96.9182 191.681 96.918C191.71 96.9193 191.733 96.9342 191.743 96.9592C191.756 96.9933 193.142 100.363 196.177 100.363C198.236 100.363 199.464 99.4882 200.132 98.7541C200.854 97.9592 201.093 97.1573 201.096 97.1493C201.103 97.1238 201.125 97.1052 201.151 97.1023C201.178 97.0996 201.203 97.1127 201.216 97.1361C201.234 97.1681 203.002 100.341 205.576 100.341C209.293 100.341 210.485 97.244 210.497 97.2127C210.506 97.187 210.531 97.1699 210.558 97.1699C210.586 97.1699 210.61 97.187 210.62 97.2127C210.631 97.2442 211.827 100.363 214.859 100.363C214.862 100.363 214.864 100.363 214.866 100.363C217.912 100.358 219.133 97.3057 219.145 97.2749C219.158 97.241 219.196 97.2241 219.23 97.2375C219.264 97.2505 219.281 97.2886 219.268 97.3224C219.255 97.354 218.004 100.489 214.867 100.495C214.864 100.495 214.861 100.495 214.859 100.495Z" fill="#BD0054"/>
<path d="M215.713 88.7212C213.024 88.7213 211.766 86.2676 211.485 85.6328C211.365 85.9013 211.059 86.4938 210.487 87.093C209.788 87.8256 208.543 88.6988 206.588 88.6988C204.278 88.6988 202.623 86.157 202.262 85.5528C202.162 85.8233 201.893 86.4425 201.333 87.0686C200.66 87.8225 199.422 88.7212 197.35 88.7212C194.638 88.7212 193.233 86.0319 192.932 85.3767C192.802 85.6675 192.46 86.3558 191.859 87.025C191.133 87.8346 189.868 88.7832 187.976 88.7026C184.802 88.568 183.575 85.2658 183.563 85.2325C183.551 85.1983 183.569 85.1608 183.603 85.1485C183.637 85.1361 183.675 85.1538 183.687 85.188C183.699 85.2205 184.896 88.4407 187.982 88.5715C191.511 88.721 192.856 85.2227 192.869 85.1873C192.878 85.1618 192.903 85.1449 192.93 85.1446C192.93 85.1446 192.93 85.1446 192.93 85.1446C192.957 85.1446 192.982 85.1611 192.992 85.1862C193.005 85.2203 194.367 88.5899 197.35 88.5899C199.373 88.5899 200.579 87.7151 201.235 86.9812C201.946 86.1863 202.181 85.3842 202.183 85.3763C202.19 85.3505 202.212 85.3319 202.239 85.329C202.266 85.3258 202.291 85.3397 202.304 85.3632C202.321 85.3952 204.059 88.5676 206.588 88.5676C208.494 88.5676 209.707 87.7186 210.388 87.0065C211.128 86.2325 211.421 85.4476 211.424 85.4398C211.433 85.4138 211.458 85.3966 211.485 85.3966C211.513 85.3966 211.538 85.4139 211.547 85.4398C211.559 85.4712 212.734 88.59 215.713 88.59C215.715 88.59 215.718 88.59 215.72 88.59C218.713 88.5849 219.913 85.5328 219.925 85.502C219.938 85.4681 219.976 85.4515 220.01 85.4641C220.044 85.477 220.06 85.5149 220.048 85.5488C220.036 85.5805 218.805 88.7161 215.72 88.7213C215.718 88.7212 215.715 88.7212 215.713 88.7212Z" fill="#BD0054"/>
<path d="M214.89 26.9414C220.74 29.2408 227.091 32.572 225.62 36.0297C223.824 40.2476 212.1 34.6377 212.1 34.6377L214.89 26.9414Z" fill="white"/>
<path d="M225.265 36.6055C221.077 40.9917 217.099 44.7559 216.169 45.7064C216.071 45.8059 215.9 45.9823 215.624 46.1429C214.6 46.7376 213.774 46.1602 212.412 46.2944C210.868 46.4467 210.328 47.1559 210.044 46.8792C209.846 46.6868 209.796 46.4924 210.49 45.8014L210.49 45.8013C209.902 46.2657 209.182 46.6376 208.927 46.3122C208.652 45.9207 209.434 45.331 209.994 44.8655C209.316 45.4289 208.669 45.772 208.424 45.4734C208.186 45.184 208.853 44.3125 209.885 43.6979V43.6978C209.11 44.0096 208.875 43.9696 208.836 43.7569C208.764 43.3684 209.535 42.7991 210.294 42.4003C211.149 41.9514 211.967 41.8998 212.484 41.8795C212.484 41.8795 212.484 41.8795 212.484 41.8793C215.099 38.5031 218.482 33.9357 220.86 31.4368C222.457 29.7581 225.265 36.6054 225.265 36.6055Z" fill="white"/>
<path d="M211.167 46.6446C211.141 46.6446 211.116 46.6282 211.106 46.6017C211.093 46.5677 211.111 46.5299 211.145 46.5174C211.55 46.3679 211.962 46.2738 212.406 46.2302C212.95 46.1764 213.416 46.2358 213.827 46.2881C213.994 46.3094 214.152 46.3295 214.308 46.3415C214.344 46.3444 214.371 46.3759 214.368 46.4121C214.365 46.4482 214.334 46.4753 214.298 46.4725C214.139 46.4601 213.979 46.4398 213.81 46.4184C213.406 46.3669 212.948 46.3084 212.419 46.3608C211.987 46.4034 211.585 46.4949 211.19 46.6406C211.183 46.6434 211.175 46.6446 211.167 46.6446Z" fill="#363E44"/>
<path d="M216.666 36.5157C216.652 36.5157 216.637 36.5112 216.625 36.5018C216.597 36.4794 216.592 36.4382 216.614 36.4096C218.432 34.0853 219.766 32.4907 220.812 31.3914C220.837 31.3652 220.879 31.3643 220.905 31.3891C220.931 31.4141 220.932 31.4557 220.907 31.4819C219.864 32.5781 218.533 34.1696 216.718 36.4905C216.705 36.5071 216.685 36.5157 216.666 36.5157Z" fill="#363E44"/>
<path d="M213.127 41.2326C211.633 40.8729 210.574 40.659 210.387 40.9782C210.017 41.6098 211.326 42.443 213.443 43.2437C213.21 42.634 213.36 41.8422 213.127 41.2326Z" fill="white"/>
<path d="M211.019 42.1666C210.991 42.1666 210.965 42.1486 210.956 42.1203C210.946 42.0857 210.965 42.0489 211 42.0382C211.545 41.8703 212.032 41.8306 212.477 41.813C212.496 41.8106 212.516 41.8171 212.531 41.8318C212.557 41.8574 212.557 41.8989 212.531 41.9246C212.519 41.937 212.502 41.9441 212.484 41.9441C212.049 41.9612 211.571 41.9997 211.038 42.1637C211.032 42.1658 211.026 42.1666 211.019 42.1666Z" fill="#363E44"/>
<path d="M210.533 45.8809C210.512 45.8809 210.491 45.8708 210.478 45.8518C210.458 45.8217 210.466 45.7809 210.496 45.7607C210.727 45.606 210.977 45.4832 211.239 45.3953C211.419 45.3348 211.607 45.2908 211.796 45.2644C211.831 45.259 211.865 45.2844 211.87 45.3204C211.875 45.3563 211.85 45.3895 211.814 45.3945C211.633 45.4198 211.453 45.462 211.281 45.5199C211.03 45.6039 210.79 45.7217 210.569 45.8699C210.558 45.8773 210.545 45.8809 210.533 45.8809Z" fill="#363E44"/>
<path d="M209.951 45.0197C209.93 45.0197 209.91 45.0095 209.897 44.9906C209.877 44.9604 209.885 44.9197 209.915 44.8994C210.146 44.7447 210.396 44.6218 210.658 44.534C210.838 44.4736 211.025 44.4295 211.215 44.4031C211.25 44.3975 211.284 44.4231 211.289 44.4591C211.294 44.495 211.269 44.5282 211.233 44.5332C211.051 44.5585 210.872 44.6007 210.699 44.6586C210.448 44.7426 210.209 44.8604 209.988 45.0086C209.977 45.016 209.964 45.0197 209.951 45.0197Z" fill="#363E44"/>
<path d="M209.908 43.7578C209.887 43.7578 209.866 43.7477 209.853 43.7287C209.833 43.6986 209.841 43.6578 209.871 43.6376C210.102 43.4828 210.352 43.3599 210.614 43.2721C210.795 43.2115 210.982 43.1675 211.171 43.1413C211.207 43.1362 211.24 43.1614 211.245 43.1973C211.25 43.2332 211.225 43.2664 211.189 43.2714C211.008 43.2966 210.829 43.3387 210.656 43.3967C210.405 43.4807 210.166 43.5985 209.944 43.7468C209.933 43.7542 209.92 43.7578 209.908 43.7578Z" fill="#363E44"/>
<path d="M218.763 28.5344L215.105 35.8985C215.105 35.8985 212.417 36.2578 211.752 34.6339C211.087 33.01 214.5 26.718 214.5 26.718C214.5 26.718 217.997 26.2144 218.763 28.5344Z" fill="#BD0054"/>
<path d="M202.057 25.1365C202.021 25.1365 201.992 25.1071 201.992 25.0708V23.5129C201.992 23.4766 202.021 23.4473 202.057 23.4473C202.094 23.4473 202.123 23.4766 202.123 23.5129V25.0708C202.123 25.1071 202.094 25.1365 202.057 25.1365Z" fill="#363E44"/>
<path d="M206.945 25.5724C206.909 25.5724 206.88 25.543 206.88 25.5067V24.2102C206.88 24.1739 206.909 24.1445 206.945 24.1445C206.982 24.1445 207.011 24.1739 207.011 24.2102V25.5067C207.011 25.543 206.982 25.5724 206.945 25.5724Z" fill="#363E44"/>
<path d="M233.872 102.917H172.652C172.609 102.917 172.574 102.882 172.574 102.839V94.9861C172.574 94.9431 172.609 94.9082 172.652 94.9082H233.872C233.915 94.9082 233.949 94.9431 233.949 94.9861V102.839C233.949 102.882 233.915 102.917 233.872 102.917ZM172.73 102.761H233.794V95.0641H172.73V102.761Z" fill="#363E44"/>
<path d="M236.348 110.773H162.075C162.031 110.773 161.997 110.738 161.997 110.695V102.842C161.997 102.799 162.031 102.764 162.075 102.764H236.348C236.391 102.764 236.426 102.799 236.426 102.842V110.695C236.426 110.738 236.391 110.773 236.348 110.773ZM162.152 110.617H236.27V102.92H162.152V110.617Z" fill="#363E44"/>
<path d="M104.804 91.2831C104.804 91.2831 101.764 100.611 98.4375 101.199C92.2023 102.301 81.8998 89.7586 81.8998 89.7586L85.5423 80.9192L94.1649 87.0629L96.9088 77.6582L104.804 91.2831Z" fill="white"/>
<path d="M73.3662 100.438L76.1784 80.1875L85.6201 80.9008L82.8536 91.2823L81.0877 96.0851C79.7129 99.1802 76.5527 100.962 73.3662 100.438Z" fill="#0E0600"/>
<path d="M129.363 75.5801C129.363 75.5801 137.477 76.5327 138.507 79.7506C140.438 85.7819 126.484 99.0892 126.484 99.0892L119.815 93.8465L124.388 86.9942L116.926 85.2382L129.363 75.5801Z" fill="white"/>
<path d="M124.404 87.0103C124.392 87.0103 124.38 87.0071 124.368 87.0005C124.336 86.981 124.326 86.9393 124.346 86.9071L125.437 85.1069C125.457 85.0747 125.499 85.0647 125.531 85.084C125.563 85.1035 125.573 85.1452 125.554 85.1774L124.462 86.9776C124.449 86.9987 124.427 87.0103 124.404 87.0103Z" fill="black"/>
<path d="M141.447 102.158H114.538L120.269 93.0352L130.949 94.1815L135.965 95.1922C139.234 96.0775 141.477 98.9285 141.447 102.158Z" fill="#0E0600"/>
<path d="M100.297 67.6523L98.202 72.4435C98.202 72.4435 94.1287 75.287 92.6486 78.0361C90.0022 82.9518 90.9915 87.194 90.9915 87.194L89.6929 89.2565L104.547 92.2415L105.07 91.2089C105.07 91.2089 108.129 90.7331 109.299 89.0061C110.706 86.9302 110.928 84.358 110.928 84.358C110.928 84.358 113.475 86.5213 115.642 87.1119C117.824 87.7065 121.721 86.3892 121.721 86.3892L123.269 86.7286L133.601 76.3577L131.588 75.9617C131.588 75.9617 132.205 73.9919 127.923 72.0358C126.829 71.536 124.558 70.6789 123.095 70.3643C120.301 69.7632 118.087 70.4631 118.087 70.4631L100.297 67.6523Z" fill="black"/>
<path d="M143.634 44.7406C144.532 44.2412 145.973 43.3451 145.694 42.7296C145.425 42.2111 144.127 42.8212 143.191 43.3119C143.191 43.3119 143.191 43.3117 143.191 43.3117C144.333 42.5342 144.718 41.9666 144.495 41.6477C144.174 41.1893 142.836 42.3172 140.654 42.124C138.731 41.9537 137.736 40.9359 136.162 41.4934C135.737 41.6438 135.454 41.8439 135.292 41.9566C133.811 42.9928 126.242 48.4689 125.725 48.8594C123.556 50.4986 122.091 53.1662 123.664 55.9415C124.779 57.9097 126.389 59.0256 128.103 57.9806C131.598 55.8497 137.997 49.5097 139.4 48.233C139.4 48.2329 139.4 48.2328 139.4 48.2328C140.122 48.34 141.271 48.4826 142.573 48.0833C143.729 47.7286 144.948 47.1404 144.95 46.5825C144.951 46.2769 144.636 46.16 143.479 46.3896V46.3894C144.947 45.6463 145.681 44.981 145.558 44.4669C145.48 44.1403 144.721 44.1361 143.634 44.7406Z" fill="white"/>
<path d="M138.854 42.3794C140.531 41.005 140.845 40.1534 140.619 39.8943C140.239 39.4585 138.327 40.0451 135.624 41.7447C136.508 42.0024 137.97 42.1219 138.854 42.3794Z" fill="white"/>
<path d="M139.498 41.8951C139.493 41.8951 139.488 41.8946 139.483 41.8936C138.696 41.7234 137.773 41.6042 137.249 41.5654C137.211 41.5627 137.183 41.53 137.186 41.4926C137.189 41.4553 137.22 41.4268 137.259 41.4299C137.788 41.4691 138.719 41.5893 139.512 41.7608C139.549 41.7687 139.572 41.8049 139.564 41.8415C139.557 41.8733 139.529 41.8951 139.498 41.8951Z" fill="black"/>
<path d="M141.543 43.7014C141.434 43.7014 141.333 43.6966 141.241 43.6921C141.203 43.6903 141.174 43.6584 141.176 43.6209C141.178 43.5835 141.213 43.5544 141.247 43.5563C141.475 43.5673 141.734 43.5798 142.02 43.5226C142.369 43.4529 142.902 43.2626 143.411 43.0259C143.445 43.01 143.486 43.0249 143.502 43.0589C143.517 43.0929 143.503 43.1333 143.469 43.1491C142.942 43.3936 142.411 43.583 142.047 43.6557C141.869 43.6914 141.699 43.7014 141.543 43.7014Z" fill="black"/>
<path d="M141.891 45.0382C141.865 45.0382 141.842 45.0377 141.822 45.0368C141.784 45.035 141.755 45.0032 141.757 44.9657C141.759 44.9282 141.792 44.9 141.828 44.9011C142.056 44.9119 142.594 44.8572 142.876 44.7947C143.106 44.7434 143.397 44.6467 143.764 44.4991C143.799 44.4849 143.839 44.5021 143.853 44.5369C143.867 44.5717 143.85 44.6113 143.815 44.6252C143.44 44.7756 143.143 44.8744 142.905 44.9273C142.641 44.9862 142.153 45.0382 141.891 45.0382Z" fill="black"/>
<path d="M141.761 46.8038C141.691 46.8038 141.622 46.8021 141.552 46.7988C141.515 46.797 141.486 46.7652 141.488 46.7277C141.49 46.6902 141.523 46.6607 141.559 46.6631C141.818 46.6756 142.08 46.664 142.336 46.6286C142.582 46.5947 143.049 46.5136 143.421 46.3514C143.456 46.3364 143.496 46.3522 143.511 46.3866C143.526 46.4209 143.51 46.461 143.476 46.476C143.088 46.6447 142.607 46.7284 142.355 46.7632C142.159 46.7903 141.96 46.8038 141.761 46.8038Z" fill="black"/>
<path d="M124.766 48.4359C127.046 46.82 129.753 44.939 130.659 44.2773L136.035 51.4896C136.035 51.4896 129.103 59.0106 125.25 58.3812C124.046 58.1845 123.25 57.3555 122.724 56.3086C121.345 53.5624 122.259 50.2127 124.766 48.4359Z" fill="#BD0054"/>
<path d="M121.017 56.9466C121.017 56.9466 124.331 60.2401 128.639 57.8563C130.928 56.5895 130.162 51.979 129.756 49.8902C128.968 45.8258 119.114 36.5213 112.956 41.3965C112.956 41.3965 117.81 52.4504 121.017 56.9466Z" fill="#BD0054"/>
<path d="M126.637 47.4172C126.617 47.4172 126.597 47.4085 126.584 47.3919C124.518 44.8258 122.058 43.8063 120.357 43.4028C118.516 42.9658 117.149 43.1371 117.135 43.1387C117.097 43.1436 117.063 43.1173 117.059 43.0802C117.054 43.043 117.08 43.0089 117.117 43.004C117.131 43.0023 118.523 42.8279 120.389 43.2705C122.11 43.679 124.6 44.7107 126.69 47.3067C126.713 47.3359 126.709 47.3787 126.68 47.4022C126.667 47.4122 126.652 47.4172 126.637 47.4172Z" fill="#F7F1EB"/>
<path d="M128.032 53.6023C128.007 53.6023 127.982 53.5881 127.971 53.5639C126.607 50.7367 124.609 49.5064 123.172 48.9723C121.617 48.394 120.371 48.4838 120.359 48.485C120.321 48.4874 120.289 48.4601 120.286 48.4226C120.283 48.3852 120.311 48.3525 120.348 48.3495C120.361 48.3486 121.636 48.2563 123.22 48.8449C124.68 49.3878 126.71 50.6369 128.093 53.5048C128.109 53.5387 128.095 53.5793 128.061 53.5955C128.052 53.6 128.042 53.6023 128.032 53.6023Z" fill="#F7F1EB"/>
<path d="M127.455 56.2889C124.878 56.2889 123.405 54.3941 123.39 54.3746C123.368 54.3449 123.373 54.3022 123.403 54.2795C123.433 54.2568 123.476 54.2625 123.498 54.2923C123.513 54.3116 125.001 56.2222 127.593 56.1511C127.594 56.1511 127.594 56.1511 127.595 56.1511C127.632 56.1511 127.662 56.1804 127.663 56.2173C127.664 56.2548 127.634 56.286 127.597 56.287C127.549 56.2884 127.502 56.2889 127.455 56.2889Z" fill="#F7F1EB"/>
<path d="M112.956 41.3956C109.507 41.7671 102.528 43.5429 100.279 44.8834C95.2526 47.8804 93.2578 50.474 93.2578 50.474L101.089 63.0472C99.8482 66.6522 98.3404 72.3238 98.3404 72.3238L123.444 70.2229C123.444 70.2229 122.4 58.1826 121.354 53.5531C120.409 49.369 115.914 41.077 112.956 41.3956Z" fill="#EFBC73"/>
<path d="M99.3155 64.1217C94.6341 64.8449 84.8118 69.1856 84.4171 62.3012C84.2097 58.6827 84.5003 54.0606 88.6499 49.3698C91.4918 46.1573 96.5963 44.7493 99.6509 45.2667L100.342 56.9118L99.3155 64.1217Z" fill="#BD0054"/>
<path d="M86.9496 57.9744C86.9455 57.9744 86.9415 57.9741 86.9373 57.9733C86.9004 57.9665 86.876 57.9311 86.8827 57.8942C87.2642 55.8056 88.0336 53.9126 89.1694 52.2678C90.0781 50.952 91.2219 49.7915 92.5689 48.8185C94.8622 47.1621 96.9814 46.6167 97.0025 46.6114C97.0388 46.6025 97.0758 46.6243 97.085 46.6607C97.0941 46.697 97.0721 46.734 97.0356 46.7432C97.0147 46.7484 94.9167 47.2892 92.644 48.9319C90.549 50.4463 87.8719 53.2347 87.0163 57.9187C87.0104 57.9514 86.9818 57.9744 86.9496 57.9744Z" fill="#F7F1EB"/>
<path d="M95.46 56.7377C95.4391 56.7377 95.4187 56.7282 95.4053 56.7103C95.383 56.6801 95.3893 56.6376 95.4194 56.6152C98.2179 54.542 98.7969 51.5332 98.8024 51.5031C98.8092 51.4662 98.8446 51.4415 98.8815 51.4485C98.9183 51.4552 98.9428 51.4906 98.9361 51.5275C98.9305 51.5581 98.3434 54.6181 95.5004 56.7244C95.4882 56.7335 95.474 56.7377 95.46 56.7377Z" fill="#F7F1EB"/>
<path d="M91.3104 56.4461C91.3052 56.4461 91.3 56.4455 91.2948 56.4444C91.2583 56.4357 91.2357 56.3992 91.2442 56.3626C91.8757 53.6834 93.4046 51.9305 94.576 50.9318C95.8454 49.8495 96.9829 49.3939 96.9942 49.3895C97.029 49.3759 97.0685 49.3928 97.0823 49.4277C97.0961 49.4626 97.079 49.5021 97.0441 49.5158C97.0329 49.5202 95.9128 49.9696 94.6601 51.0386C93.5057 52.0238 91.9989 53.7526 91.3765 56.3938C91.3692 56.425 91.3413 56.4461 91.3104 56.4461Z" fill="#F7F1EB"/>
<path d="M108.909 47.9518C108.994 48.2956 108.785 48.6436 108.441 48.729C108.097 48.8144 107.749 48.605 107.664 48.2611C107.578 47.9173 107.788 47.5693 108.132 47.4839C108.475 47.3985 108.823 47.608 108.909 47.9518Z" fill="black"/>
<path d="M109.659 50.2487C109.744 50.5925 109.535 50.9405 109.191 51.0259C108.847 51.1113 108.499 50.9018 108.414 50.558C108.328 50.2142 108.538 49.8662 108.882 49.7808C109.225 49.6954 109.573 49.9048 109.659 50.2487Z" fill="black"/>
<path d="M116.983 57.0624C116.022 57.2072 111.93 57.1706 111.043 58.8557C110.149 60.5528 110.585 62.621 111.559 64.2666C111.566 64.2688 111.574 64.2711 111.582 64.2733C112.019 64.5732 112.719 64.9551 113.598 64.9791C114.601 65.0064 114.876 64.5423 115.939 64.4069C117.733 64.1784 118.725 65.3232 119.097 64.8025C119.353 64.4452 118.804 63.7531 118.139 63.2522C117.455 62.7379 116.795 62.6929 116.815 62.5543C116.838 62.4021 117.502 62.5344 118.344 62.6231C118.735 62.6643 119.737 63.4369 120.158 62.9997C120.494 62.6512 119.655 61.5876 118.542 61.1846C117.754 60.8995 116.991 61.1854 116.967 61.0347C116.949 60.9216 117.408 60.7624 117.844 60.7425C118.564 60.7096 119.597 61.489 119.977 61.0791C120.35 60.6774 119.601 59.7614 118.601 59.3261C117.757 58.959 116.921 59.3183 116.89 59.1312C116.869 58.9995 117.21 58.7613 118.04 58.4955C118.733 58.2737 120.222 58.2871 120.1 57.5308C119.998 56.8947 118.435 56.8439 116.983 57.0624Z" fill="white"/>
<path d="M96.6862 58.2507C94.568 58.5955 93.9848 66.1825 95.9365 67.5015C96.254 67.7161 112.827 63.7927 112.827 63.7927L115.28 57.2109C108.271 57.3491 102.517 57.3017 96.6862 58.2507Z" fill="white"/>
<path d="M99.3856 67.1875C99.3856 67.1875 85.9872 69.9634 84.6762 64.3451C83.0114 57.2102 93.5572 58.0084 99.156 57.9043L99.3856 67.1875Z" fill="#BD0054"/>
<path d="M111.494 42.8598C112.203 45.0032 110.335 48.0275 106.877 45.4988C106.877 45.4988 106.891 46.945 105.67 47.5915C104.093 48.4266 101.965 47.7591 101.306 46.0623C101.098 45.5258 101.042 44.8979 101.31 44.3712L103.763 43.4765L107.926 42.3048L110.788 41.7285C110.788 41.7285 111.332 42.3698 111.494 42.8598Z" fill="#BD0054"/>
<path d="M106.085 45.3291L105.702 45.323C104.569 45.305 103.665 44.3716 103.683 43.2384L103.798 36.0349C103.816 34.9017 104.749 33.9978 105.883 34.0159L106.265 34.022C107.399 34.0401 108.303 34.9734 108.285 36.1066L108.169 43.3102C108.151 44.4434 107.218 45.3473 106.085 45.3291Z" fill="white"/>
<path d="M111.354 38.4641C111.069 39.8582 107.027 40.0547 107.027 40.0547L103.092 38.8768C101.724 37.4144 101.801 35.1208 103.265 33.7539C104.729 32.387 107.025 32.4645 108.393 33.9269C108.393 33.9269 111.645 37.0442 111.354 38.4641Z" fill="white"/>
<path d="M108.74 34.9064C108.74 34.9064 110.211 34.9903 110.364 35.2328C110.546 35.522 109.858 36.4449 109.858 36.4449C109.858 36.4449 108.761 34.8898 108.74 34.9064Z" fill="white"/>
<path d="M105.927 36.3627C105.927 36.3627 106.227 35.84 106.769 35.5016C106.885 35.4295 107.244 36.4888 107.102 36.5049C106.476 36.5755 105.927 36.3627 105.927 36.3627Z" fill="#BD0054"/>
<mask id="mask0_535_11141" style="mask-type:luminance" maskUnits="userSpaceOnUse" x="105" y="35" width="4" height="2">
<path d="M105.927 36.3648C105.927 36.3648 106.367 35.596 107.148 35.3194C107.929 35.0429 108.756 35.3635 108.756 35.3635C108.756 35.3635 108.316 36.1324 107.535 36.4089C106.753 36.6854 105.927 36.3648 105.927 36.3648Z" fill="white"/>
</mask>
<g mask="url(#mask0_535_11141)">
<path d="M106.777 35.4657C106.912 34.8832 107.495 34.5202 108.078 34.6551C108.661 34.7899 109.024 35.3716 108.889 35.9541C108.754 36.5367 108.172 36.8996 107.589 36.7648C107.006 36.6299 106.642 36.0483 106.777 35.4657Z" fill="black"/>
</g>
<path d="M100.013 36.3157C100.013 36.3157 101.367 40.2946 104.256 39.6655L104.413 38.7777L106.086 38.2821L104.362 37.2062C103.759 36.7383 103.736 35.8371 104.313 35.3389L107.025 33.0105C107.025 33.0105 106.834 30.7962 106.264 30.4461C104.047 29.0836 101.072 33.6861 100.013 36.3157Z" fill="black"/>
<path d="M102.587 39.3662C102.824 40.0148 103.542 40.349 104.192 40.1125C104.841 39.876 105.176 39.1585 104.939 38.5098C104.702 37.8612 103.984 37.527 103.335 37.7635C102.685 37.9999 102.351 38.7174 102.587 39.3662Z" fill="white"/>
<path d="M109.286 37.7221C109.105 37.7221 108.928 37.6352 108.819 37.4859C108.796 37.4557 108.803 37.4131 108.833 37.3909C108.863 37.3686 108.906 37.3752 108.928 37.4054C109.027 37.5404 109.197 37.6089 109.361 37.5796C109.531 37.5495 109.669 37.421 109.711 37.2525C109.721 37.2161 109.758 37.1942 109.794 37.2032C109.83 37.2124 109.852 37.2494 109.843 37.2857C109.787 37.5061 109.607 37.6739 109.385 37.7134C109.352 37.7193 109.319 37.7221 109.286 37.7221Z" fill="black"/>
<path d="M103.519 30.3403C102.754 30.4266 101.693 31.9596 101.129 33.2657C100.546 34.6144 100.342 34.8057 99.539 35.2064C97.9885 35.9797 97.6537 37.2701 98.2351 38.5876C98.9763 40.2673 101.774 39.9903 103.335 36.6882C104.895 33.386 104.754 30.2011 103.519 30.3403Z" fill="#1C0300"/>
<path d="M99.7499 35.6791C99.7499 35.6791 99.1224 35.5937 98.2478 35.6791C97.7566 35.7271 97.1336 35.8904 96.4941 36.0296L96.1376 35.5742V36.1045C95.6884 36.1929 95.2436 36.2557 94.8392 36.2483C94.4783 36.2423 94.1069 36.1989 93.7414 36.13V35.495L93.2921 36.0356C91.6971 35.6566 90.3058 34.9093 90.3058 34.9093C91.3242 34.8508 92.5733 34.6112 94.6954 33.8113L95.1193 34.6006L95.1673 33.6361C97.448 32.8991 99.7499 35.6791 99.7499 35.6791Z" fill="#BD0054"/>
<path d="M208.861 61.1588L208.817 61.1499C204.159 60.205 200.515 56.5703 199.558 51.9147L199.555 51.9004L199.548 51.9322C198.602 56.5984 194.961 60.2491 190.298 61.2082L190.342 61.2171C195 62.162 198.644 65.7965 199.601 70.4522L199.604 70.4666L199.611 70.4348C200.557 65.7686 204.197 62.1179 208.861 61.1588Z" fill="#BE0054"/>
<path d="M193.829 70.7148L193.807 70.7104C191.526 70.2476 189.74 68.4672 189.272 66.1867L189.27 66.1797L189.267 66.1953C188.804 68.481 187.02 70.2692 184.736 70.739L184.757 70.7433C187.039 71.2062 188.824 72.9865 189.293 75.2671L189.294 75.2741L189.298 75.2585C189.761 72.9727 191.544 71.1845 193.829 70.7148Z" fill="#BE0054"/>
<path d="M175.1 90.5473L175.07 90.5413C171.912 89.9005 169.441 87.4361 168.792 84.2793L168.79 84.2695L168.786 84.291C168.144 87.455 165.675 89.9304 162.513 90.5806L162.543 90.5867C165.701 91.2274 168.172 93.6919 168.821 96.8487L168.823 96.8584L168.828 96.8369C169.469 93.673 171.938 91.1976 175.1 90.5473Z" fill="#BE0054"/>
<path d="M73.2948 21.7524L73.2651 21.7463C70.1066 21.1056 67.6356 18.6411 66.9866 15.4844L66.9846 15.4746L66.9802 15.4961C66.3387 18.6601 63.8701 21.1355 60.7079 21.7857L60.7377 21.7918C63.8962 22.4325 66.367 24.897 67.016 28.0538L67.018 28.0635L67.0224 28.042C67.6641 24.8781 70.1327 22.4027 73.2948 21.7524Z" fill="#BE0054"/>
<path d="M167.483 10.5432L168.935 5.25391L163.629 6.64123L167.483 10.5432Z" fill="#F7F1EB"/>
<path d="M175.978 7.57725L176.628 2.13086L171.587 4.29085L175.978 7.57725Z" fill="#BE0054"/>
<path d="M183.759 3.45521L183.594 -2.02734L178.929 0.856412L183.759 3.45521Z" fill="#BE0054"/>
<path d="M149.25 12.1347L152.334 7.59939L146.865 7.19531L149.25 12.1347Z" fill="#F7F1EB"/>
<path d="M158.055 12.0578L160.433 7.11523L154.964 7.52687L158.055 12.0578Z" fill="#BE0054"/>
<path d="M153.37 7.52757C149.799 7.52757 146.227 7.16306 142.739 6.44236C142.702 6.43473 142.678 6.39871 142.686 6.36186C142.693 6.32495 142.729 6.30159 142.766 6.30894C158.151 9.48773 173.953 5.67733 186.122 -4.14503C186.152 -4.16873 186.195 -4.16403 186.218 -4.13481C186.242 -4.10553 186.237 -4.06262 186.208 -4.03905C183.151 -1.5717 179.813 0.548925 176.286 2.26384C172.836 3.9415 169.188 5.24009 165.443 6.12349C161.737 6.9975 157.926 7.46804 154.114 7.52225C153.866 7.52586 153.618 7.52757 153.37 7.52757Z" fill="#BE0054"/>
<path d="M129.371 31.1042L133.319 27.2965L128.048 25.7812L129.371 31.1042Z" fill="#F7F1EB"/>
<path d="M138.622 32.5243L141.752 28.0382L136.307 27.7051L138.622 32.5243Z" fill="#BE0054"/>
<path d="M148.252 31.8809L150.178 26.8945L144.807 27.8129L148.252 31.8809Z" fill="#F7F1EB"/>
<path d="M113.381 23.2195L118.479 21.1977L114.18 17.793L113.381 23.2195Z" fill="#F7F1EB"/>
<path d="M120.972 27.9536L125.549 24.9312L120.644 22.4785L120.972 27.9536Z" fill="#BE0054"/>
<path d="M141.084 28.0727C138.014 28.0727 134.883 27.6925 131.751 26.9291C124.821 25.2402 118.23 21.6947 113.193 16.9458C113.166 16.92 113.164 16.8769 113.19 16.8496C113.216 16.8222 113.259 16.8208 113.286 16.8467C124.05 26.9938 139.999 30.6218 152.975 25.8745C153.01 25.8617 153.049 25.8797 153.062 25.915C153.075 25.9504 153.057 25.9895 153.022 26.0024C149.256 27.3803 145.225 28.0727 141.084 28.0727Z" fill="#BE0054"/>
<path d="M163.819 4.02148C165.883 15.6957 162.791 26.0024 156.913 27.0421C151.034 28.0819 144.596 19.4609 142.531 7.7866L163.819 4.02148Z" fill="#EFBC73"/>
<path d="M156.611 26.6624C154.031 26.6624 151.334 24.9306 148.913 21.6894C146.191 18.0442 144.14 12.9215 143.14 7.26502C143.134 7.22797 143.158 7.19262 143.195 7.18615L164.483 3.42103C164.501 3.4177 164.519 3.42199 164.534 3.43227C164.548 3.44262 164.558 3.45843 164.562 3.47627C165.562 9.1327 165.393 14.6479 164.085 19.006C162.773 23.38 160.47 26.0683 157.6 26.5758C157.273 26.6337 156.943 26.6624 156.611 26.6624ZM143.286 7.3084C144.287 12.9177 146.323 17.9939 149.022 21.6079C151.722 25.2232 154.76 26.9395 157.577 26.4417C163.397 25.4122 166.47 15.1577 164.439 3.56706L143.286 7.3084Z" fill="black"/>
<path d="M161.442 10.5898C161.514 11.9415 160.568 13.1658 159.201 13.4075C157.83 13.6501 156.517 12.8177 156.126 11.5149L161.442 10.5898Z" fill="#363E44"/>
<path d="M152.995 12.084C153.067 13.4357 152.121 14.6599 150.755 14.9016C149.383 15.1442 148.07 14.3118 147.68 13.0091L152.995 12.084Z" fill="#363E44"/>
<path d="M151.703 21.4883C151.68 21.4883 151.656 21.4833 151.632 21.4728C151.547 21.4337 151.509 21.3326 151.549 21.2471C152.293 19.6211 153.788 18.4648 155.546 18.1537C157.324 17.839 159.138 18.4262 160.397 19.7241C160.463 19.7916 160.461 19.8994 160.393 19.9649C160.326 20.0305 160.218 20.0288 160.153 19.9613C158.972 18.7446 157.273 18.1943 155.605 18.489C153.957 18.7805 152.556 19.8645 151.858 21.3888C151.83 21.4514 151.768 21.4883 151.703 21.4883Z" fill="#363E44"/>
<path d="M148.732 3.99692C146.134 15.564 139.306 23.8801 133.482 22.5715C127.658 21.2628 125.042 10.8249 127.64 -0.742188L148.732 3.99692Z" fill="#BE0054"/>
<path d="M135.548 22.5453C135.125 22.5453 134.707 22.4996 134.296 22.4072C131.453 21.7684 129.276 18.977 128.166 14.5474C127.06 10.1339 127.144 4.61683 128.403 -0.987767C128.407 -1.00541 128.418 -1.02073 128.433 -1.0304C128.448 -1.04014 128.467 -1.04334 128.484 -1.03932L149.576 3.69978C149.613 3.70802 149.636 3.74446 149.628 3.7811C148.369 9.3857 146.086 14.4088 143.199 17.9251C140.72 20.9441 138.048 22.5453 135.548 22.5453ZM128.521 -0.891465C125.961 10.5938 128.559 20.9785 134.326 22.2743C137.116 22.9011 140.23 21.3262 143.093 17.8387C145.956 14.3524 148.222 9.37514 149.48 3.81774L128.521 -0.891465Z" fill="black"/>
<path d="M143.517 11.0612C143.649 9.71402 142.758 8.44929 141.403 8.14758C140.044 7.84478 138.695 8.61847 138.248 9.90275L143.517 11.0612Z" fill="#363E44"/>
<path d="M135.144 9.196C135.276 7.84879 134.385 6.58406 133.03 6.28235C131.671 5.97955 130.322 6.75323 129.875 8.03751L135.144 9.196Z" fill="#363E44"/>
<path d="M136.212 17.1645C135.818 17.1645 135.421 17.1216 135.029 17.0342C133.285 16.6459 131.844 15.4247 131.171 13.7675C131.136 13.6804 131.178 13.5811 131.265 13.5458C131.352 13.5103 131.452 13.5525 131.487 13.6396C132.117 15.1931 133.469 16.3378 135.103 16.7018C136.755 17.0697 138.477 16.5948 139.71 15.4314C139.779 15.3669 139.886 15.3699 139.951 15.4384C140.016 15.5068 140.012 15.6146 139.944 15.6791C138.922 16.6435 137.584 17.1645 136.212 17.1645Z" fill="#363E44"/>
<path d="M260.07 42.4204L260.041 42.4143C256.882 41.7736 254.411 39.3091 253.762 36.1523L253.76 36.1426L253.756 36.1641C253.114 39.3281 250.646 41.8034 247.483 42.4537L247.513 42.4597C250.672 43.1005 253.143 45.5649 253.792 48.7217L253.794 48.7315L253.798 48.71C254.44 45.5461 256.908 43.0707 260.07 42.4204Z" fill="#BE0054"/>
</g>
<defs>
<clipPath id="clip0_535_11141">
<rect y="0.75" width="310" height="103.333" rx="6.2" fill="white"/>
</clipPath>
</defs>
</svg>
