<svg width="310" height="104" viewBox="0 0 310 104" fill="none" xmlns="http://www.w3.org/2000/svg">
<g clip-path="url(#clip0_535_8692)">
<rect width="310" height="103.333" rx="6.2" fill="#3B6A03"/>
<path d="M155.129 167.917C219.404 167.917 271.508 115.812 271.508 51.5374C271.508 -12.7371 219.404 -64.8418 155.129 -64.8418C90.8547 -64.8418 38.75 -12.7371 38.75 51.5374C38.75 115.812 90.8547 167.917 155.129 167.917Z" fill="#96C85B"/>
<path d="M101.339 119.094H84.4749V31.8605L102.362 13.9731L119.179 30.7902V39.4498H135.146V17.8806H160.255V28.4535H168.252V5.68555H216.866V119.016L101.339 119.094Z" fill="#2C4F02"/>
<path d="M183.694 26.2695H175.912V36.7778H183.694V26.2695Z" fill="#96C85B"/>
<path d="M196.269 26.2695H188.487V36.7778H196.269V26.2695Z" fill="#96C85B"/>
<path d="M208.845 26.2695H201.062V36.7778H208.845V26.2695Z" fill="#96C85B"/>
<path d="M182.129 41.7637H174.346V52.2719H182.129V41.7637Z" fill="#96C85B"/>
<path d="M194.704 41.7637H186.921V52.2719H194.704V41.7637Z" fill="#96C85B"/>
<path d="M207.279 41.7637H199.497V52.2719H207.279V41.7637Z" fill="#96C85B"/>
<path d="M182.129 57.4668H174.346V67.9751H182.129V57.4668Z" fill="#96C85B"/>
<path d="M194.704 57.4668H186.921V67.9751H194.704V57.4668Z" fill="#96C85B"/>
<path d="M207.279 57.4668H199.497V67.9751H207.279V57.4668Z" fill="#96C85B"/>
<path d="M208.844 88.877H201.062V99.3852H208.844V88.877Z" fill="#96C85B"/>
<path d="M208.844 72.2402H201.062V82.7485H208.844V72.2402Z" fill="#96C85B"/>
<path d="M135.146 17.8809H160.255V119.094L135.146 119.016V17.8809Z" fill="#60A410"/>
<path d="M141.505 36.5566H138.716V40.254H141.505V36.5566Z" fill="#2C4F02"/>
<path d="M146.565 36.5566H143.776V40.254H146.565V36.5566Z" fill="#2C4F02"/>
<path d="M151.624 36.5566H148.835V40.254H151.624V36.5566Z" fill="#2C4F02"/>
<path d="M156.684 36.5566H153.895V40.254H156.684V36.5566Z" fill="#2C4F02"/>
<path d="M141.505 42.0703H138.716V45.7677H141.505V42.0703Z" fill="#2C4F02"/>
<path d="M146.565 42.0703H143.776V45.7677H146.565V42.0703Z" fill="#2C4F02"/>
<path d="M151.624 42.0703H148.835V45.7677H151.624V42.0703Z" fill="#2C4F02"/>
<path d="M156.684 42.0703H153.895V45.7677H156.684V42.0703Z" fill="#2C4F02"/>
<path d="M141.505 47.5801H138.716V51.2774H141.505V47.5801Z" fill="#2C4F02"/>
<path d="M146.565 47.5801H143.776V51.2774H146.565V47.5801Z" fill="#2C4F02"/>
<path d="M151.624 47.5801H148.835V51.2774H151.624V47.5801Z" fill="#2C4F02"/>
<path d="M156.684 47.5801H153.895V51.2774H156.684V47.5801Z" fill="#2C4F02"/>
<path d="M141.505 53.0938H138.716V56.7911H141.505V53.0938Z" fill="#2C4F02"/>
<path d="M146.565 53.0938H143.776V56.7911H146.565V53.0938Z" fill="#2C4F02"/>
<path d="M151.624 53.0938H148.835V56.7911H151.624V53.0938Z" fill="#2C4F02"/>
<path d="M156.684 53.0938H153.895V56.7911H156.684V53.0938Z" fill="#2C4F02"/>
<path d="M141.505 58.6035H138.716V62.3009H141.505V58.6035Z" fill="#2C4F02"/>
<path d="M146.565 58.6035H143.776V62.3009H146.565V58.6035Z" fill="#2C4F02"/>
<path d="M151.624 58.6035H148.835V62.3009H151.624V58.6035Z" fill="#2C4F02"/>
<path d="M156.684 58.6035H153.895V62.3009H156.684V58.6035Z" fill="#2C4F02"/>
<path d="M141.505 64.1152H138.716V67.8126H141.505V64.1152Z" fill="#2C4F02"/>
<path d="M146.565 64.1152H143.776V67.8126H146.565V64.1152Z" fill="#2C4F02"/>
<path d="M151.624 64.1152H148.835V67.8126H151.624V64.1152Z" fill="#2C4F02"/>
<path d="M156.684 64.1152H153.895V67.8126H156.684V64.1152Z" fill="#2C4F02"/>
<path d="M141.505 69.627H138.716V73.3243H141.505V69.627Z" fill="#2C4F02"/>
<path d="M146.565 69.627H143.776V73.3243H146.565V69.627Z" fill="#2C4F02"/>
<path d="M151.624 69.627H148.835V73.3243H151.624V69.627Z" fill="#2C4F02"/>
<path d="M156.684 69.627H153.895V73.3243H156.684V69.627Z" fill="#2C4F02"/>
<path d="M141.505 75.1406H138.716V78.838H141.505V75.1406Z" fill="#2C4F02"/>
<path d="M146.565 75.1406H143.776V78.838H146.565V75.1406Z" fill="#2C4F02"/>
<path d="M151.624 75.1406H148.835V78.838H151.624V75.1406Z" fill="#2C4F02"/>
<path d="M156.684 75.1406H153.895V78.838H156.684V75.1406Z" fill="#2C4F02"/>
<path d="M141.505 80.6523H138.716V84.3497H141.505V80.6523Z" fill="#2C4F02"/>
<path d="M146.565 80.6523H143.776V84.3497H146.565V80.6523Z" fill="#2C4F02"/>
<path d="M151.624 80.6523H148.835V84.3497H151.624V80.6523Z" fill="#2C4F02"/>
<path d="M156.684 80.6523H153.895V84.3497H156.684V80.6523Z" fill="#2C4F02"/>
<path d="M189.969 76.0476C203.918 76.0476 215.226 64.7396 215.226 50.7904C215.226 36.8412 203.918 25.5332 189.969 25.5332C176.02 25.5332 164.712 36.8412 164.712 50.7904C164.712 64.7396 176.02 76.0476 189.969 76.0476Z" fill="#96C85B"/>
<path d="M173.048 57.9043C173.21 61.8686 175.136 65.0958 179.711 67.0932C180.884 67.5431 182.044 68.0343 183.187 68.5558C184.081 68.9629 184.969 69.3902 185.823 69.8759C186.487 70.2527 187.15 70.6567 187.654 71.2381C188.007 71.6437 188.432 72.1255 188.953 72.3162C189.068 72.3582 189.227 72.4003 189.343 72.3333C189.432 72.3855 189.552 72.3676 189.647 72.3434C190.05 72.2391 190.396 71.9036 190.68 71.618C190.983 71.3121 191.237 70.9774 191.577 70.7104C191.889 70.4644 192.226 70.2503 192.567 70.0472C194.187 69.0835 195.939 68.3308 197.678 67.6132C198.109 67.4357 198.541 67.2605 198.975 67.094C203.55 65.0966 205.471 61.8686 205.633 57.9051L173.048 57.9043Z" fill="#DDB040"/>
<path d="M189.343 57.9043V72.3333C189.433 72.3855 189.553 72.3676 189.647 72.3434C190.051 72.2391 190.397 71.9036 190.68 71.618C190.983 71.3121 191.238 70.9774 191.577 70.7104C191.89 70.4644 192.226 70.2503 192.568 70.0472C194.188 69.0835 195.939 68.3301 197.679 67.6132C198.109 67.4357 198.541 67.2605 198.976 67.094C203.55 65.0966 205.471 61.8686 205.633 57.9051L189.343 57.9043Z" fill="#BA8B24"/>
<path d="M203.585 47.4132C199.921 39.3763 204.53 36.9532 204.53 36.9532L198.975 32.1077C192.534 34.7667 189.342 31.8594 189.342 31.8594C189.342 31.8594 186.151 34.7674 179.71 32.1077L174.155 36.9532C174.799 37.305 175.322 37.9324 175.689 38.5535C176.723 40.3026 176.657 42.4572 176.186 44.3704C175.992 45.1574 175.728 45.9264 175.421 46.676C175.109 47.435 174.753 48.1752 174.451 48.9388C173.93 50.2558 173.499 51.6134 173.223 53.0043C172.754 55.3598 172.738 57.8724 173.68 60.1181C174.646 62.4236 176.542 64.133 178.732 65.2679C179.053 65.4337 179.38 65.5886 179.711 65.7334C180.884 66.1833 182.043 66.6744 183.187 67.1952C184.081 67.6023 184.969 68.0296 185.823 68.5153C186.487 68.8921 187.15 69.2961 187.654 69.8767C188.007 70.2823 188.432 70.7641 188.952 70.9548C189.068 70.9968 189.227 71.0389 189.342 70.9719C189.432 71.0241 189.552 71.0062 189.647 70.982C190.05 70.8777 190.396 70.5423 190.68 70.2566C190.982 69.9507 191.237 69.616 191.576 69.349C191.889 69.103 192.226 68.889 192.567 68.6858C194.187 67.7221 195.938 66.9694 197.678 66.2518C198.109 66.0743 198.541 65.8992 198.975 65.7326C206.717 62.352 207.248 55.45 203.585 47.4132Z" fill="#EFC54D"/>
<path d="M191.115 69.7779C192.415 68.2413 198.975 65.7326 198.975 65.7326C201.3 64.7176 203.438 63.146 204.649 60.8692C205.774 58.7543 205.959 56.3016 205.626 53.9618C205.43 52.584 205.066 51.2335 204.603 49.9227C204.068 48.4064 203.312 46.978 202.811 45.4508C202.138 43.4029 201.808 41.0304 202.755 39.0104C203.127 38.2149 203.721 37.4241 204.493 36.9742C204.505 36.9672 204.517 36.9602 204.529 36.9532L198.974 32.1077C192.533 34.7667 189.341 31.8594 189.341 31.8594V70.9727C189.343 70.9719 189.815 71.3144 191.115 69.7779Z" fill="#D3A83D"/>
<path d="M191.461 58.5082V53.4043H192.054V58.5082H191.461Z" fill="#A07215"/>
<path d="M195.639 53.8628C195.159 53.8628 194.694 54.0169 194.358 54.3703C194.025 54.7221 193.874 55.1962 193.835 55.6718C193.759 56.6012 194.035 57.694 195.042 57.9766C195.629 58.1416 196.276 58.0209 196.85 57.8598V58.3798C196.204 58.6219 195.384 58.6662 194.721 58.4693C194.109 58.2871 193.64 57.8365 193.405 57.2464C192.896 55.9675 193.19 54.1305 194.565 53.5374C195.324 53.2097 196.311 53.2642 197.049 53.6254L196.798 54.1352C196.412 53.9539 196.026 53.8628 195.639 53.8628Z" fill="#A07215"/>
<path d="M200.81 58.5082H197.965V53.4043H200.81V53.9313H198.558V55.5752H200.674V56.0991H198.558V57.9773H200.81V58.5082Z" fill="#A07215"/>
<path d="M181.113 54.891C181.113 55.3837 180.928 55.8438 180.518 56.1326C180.101 56.426 179.567 56.5007 179.07 56.5007H178.47V58.5082H177.877V53.4043H179.2C180.474 53.4043 181.113 53.9001 181.113 54.891ZM178.469 55.9909H179.004C179.353 55.9909 179.743 55.9675 180.055 55.7932C180.349 55.6289 180.48 55.3277 180.496 55.0008C180.512 54.6707 180.421 54.3376 180.137 54.143C179.851 53.9468 179.469 53.9165 179.133 53.9165H178.47V55.9909H178.469Z" fill="#C6992A"/>
<path d="M186.611 55.9496C186.611 56.9802 186.208 58.0637 185.163 58.4365C184.211 58.7767 182.978 58.5603 182.378 57.6986C182.075 57.2627 181.952 56.7295 181.923 56.2057C181.893 55.6483 181.945 55.0638 182.179 54.5516C182.634 53.5545 183.723 53.1933 184.757 53.3622C185.327 53.4556 185.829 53.7553 186.157 54.234C186.5 54.7337 186.611 55.3526 186.611 55.9496ZM182.543 55.9496C182.543 56.742 182.765 57.648 183.592 57.95C184.322 58.2163 185.265 58.0388 185.678 57.3382C185.886 56.9841 185.959 56.5637 185.978 56.1582C185.998 55.713 185.967 55.2436 185.802 54.8248C185.488 54.0301 184.67 53.7397 183.864 53.89C182.866 54.0776 182.543 55.0435 182.543 55.9496Z" fill="#C6992A"/>
<path d="M189.343 57.9703H188.342V53.4043H187.749V58.5082H189.343V57.9703Z" fill="#C6992A"/>
<path d="M190.595 57.9707H189.343V58.5086H190.595V57.9707Z" fill="#A07215"/>
<path d="M182.834 62.0014L177.876 60.7949V63.9941C178.863 64.2346 179.85 64.4744 180.837 64.7149C182.123 65.0278 183.407 65.3672 184.713 65.5898C187.435 66.0545 190.225 66.1067 192.964 65.7431C194.451 65.5462 195.899 65.1905 197.354 64.8363C198.483 64.5615 199.613 64.2868 200.742 64.0112C200.765 64.0058 200.788 64.0003 200.81 63.9949V60.7957C199.437 61.1304 198.063 61.4643 196.69 61.799C195.893 61.9929 195.096 62.1882 194.288 62.3354C192.512 62.6599 190.704 62.8086 188.898 62.7798C186.855 62.7456 184.818 62.484 182.834 62.0014Z" fill="#BA8B24"/>
<path d="M189.342 45.9277H177.876V50.9445H189.342V45.9277Z" fill="#F9D478"/>
<path d="M182.834 61.5354L177.876 60.3281V63.5273C178.863 63.7678 179.85 64.0076 180.837 64.2481C182.123 64.561 183.407 64.9004 184.713 65.123C187.435 65.5877 190.225 65.6399 192.964 65.2764C194.451 65.0786 195.899 64.7229 197.354 64.3687C198.483 64.094 199.613 63.8192 200.742 63.5437C200.765 63.5382 200.788 63.5328 200.81 63.5273V60.3281C199.437 60.6628 198.063 60.9968 196.69 61.3315C195.893 61.5253 195.096 61.7207 194.288 61.8678C192.512 62.1924 190.704 62.341 188.898 62.3122C186.855 62.2796 184.818 62.0188 182.834 61.5354Z" fill="#E0B658"/>
<path d="M200.81 45.9277H189.343V50.9445H200.81V45.9277Z" fill="#E0B658"/>
<path d="M200.81 50.9453H189.343V51.431H200.81V50.9453Z" fill="#BA8B24"/>
<path d="M189.342 50.9453H177.876V51.431H189.342V50.9453Z" fill="#DDB040"/>
<path d="M182.834 62.0014L177.876 60.7949V63.9941L182.834 65.2006C184.972 65.7214 187.157 65.9813 189.343 65.9813V62.7821C187.157 62.7821 184.972 62.5222 182.834 62.0014Z" fill="#DDB040"/>
<path d="M182.834 61.5354L177.876 60.3281V63.5273L182.834 64.7346C184.972 65.2553 187.157 65.5153 189.343 65.5153V62.3161C187.157 62.3161 184.972 62.0562 182.834 61.5354Z" fill="#F9D478"/>
<path d="M177.876 50.9455C178.071 49.8791 178.266 48.8127 178.461 47.7455C178.505 47.505 178.549 47.2637 178.592 47.0232C178.6 46.9819 178.604 46.8418 178.636 46.8177C178.669 46.7944 178.801 46.8177 178.84 46.8177C178.988 46.8177 179.138 46.8177 179.286 46.8177C180.444 46.8177 181.602 46.8177 182.76 46.8177C184.158 46.8177 185.555 46.8177 186.952 46.8177C187.476 46.8177 188 46.8177 188.524 46.8177C188.693 46.8177 188.862 46.8177 189.031 46.8177C189.102 46.8177 189.24 46.8457 189.307 46.8177C189.316 46.8138 189.332 46.8177 189.342 46.8177C189.342 46.6807 189.342 46.5429 189.342 46.4059C189.342 46.3063 189.342 46.2059 189.342 46.1063C189.342 46.0798 189.36 45.9552 189.342 45.9342C189.323 45.9124 189.21 45.928 189.177 45.928C188.761 45.928 188.345 45.928 187.928 45.928C186.405 45.928 184.882 45.928 183.358 45.928C181.889 45.928 180.421 45.928 178.953 45.928C178.735 45.928 178.517 45.928 178.299 45.928C178.184 45.928 178.043 45.9054 177.93 45.928C177.86 45.942 177.874 45.9179 177.874 46.009C177.874 46.2308 177.874 46.4526 177.874 46.6753C177.874 48.0655 177.874 49.4549 177.874 50.8451C177.876 50.8786 177.876 50.912 177.876 50.9455Z" fill="#FCE2A9"/>
<path d="M182.834 61.5354L177.876 60.3281V63.5273L178.246 61.0186C178.246 61.0186 185.753 63.2665 189.343 62.9217V62.3161C187.157 62.3161 184.972 62.0562 182.834 61.5354Z" fill="#FCE2A9"/>
<path d="M178.97 43.6816C178.798 44.3549 178.457 44.9481 177.899 45.3754C177.463 45.7086 176.963 45.851 176.446 45.9997C176.963 46.118 177.451 46.2527 177.886 46.5726C178.419 46.9641 178.803 47.5339 178.97 48.1729C179.11 47.6141 179.357 47.1104 179.771 46.7018C180.171 46.3056 180.656 46.0744 181.194 45.9281C180.671 45.7677 180.196 45.5576 179.796 45.173C179.37 44.7605 179.118 44.2491 178.97 43.6816Z" fill="#FCEBD2"/>
<path d="M178.061 59.2559C177.955 59.6809 177.737 60.0576 177.389 60.3293C177.108 60.5488 176.782 60.6422 176.447 60.7387C176.777 60.8142 177.088 60.9006 177.366 61.1038C177.707 61.3536 177.955 61.7195 178.061 62.1281C178.241 61.3918 178.757 60.8897 179.483 60.692C178.756 60.4686 178.254 60.0031 178.061 59.2559Z" fill="#FCEBD2"/>
<path d="M181.181 43.1035C181.105 43.4086 180.948 43.678 180.697 43.8726C180.497 44.0275 180.267 44.0929 180.029 44.1621C180.576 44.2867 181.03 44.5817 181.181 45.1538C181.308 44.6307 181.679 44.2664 182.195 44.1287C181.679 43.9699 181.316 43.6367 181.181 43.1035Z" fill="#FCEBD2"/>
<path d="M191.391 75.1641H188.546V111.799H191.391V75.1641Z" fill="#96C85B"/>
<path d="M210.224 23.2344L209.096 26.9551C208.478 28.9929 206.822 30.5481 204.75 31.0377L201.788 31.7367L204.584 32.354C206.711 32.8234 208.413 34.4136 209.028 36.5036L209.877 39.3922L210.446 36.8585C210.959 34.5779 212.754 32.8055 215.04 32.3221L216.867 31.936L214.886 31.3436C212.652 30.6758 211.011 28.7679 210.682 26.4592L210.224 23.2344Z" fill="#FFDA48"/>
<path d="M166.743 39.4492L166.09 41.6038C165.732 42.7838 164.774 43.6852 163.573 43.9678L161.857 44.3725L163.476 44.7298C164.708 45.0023 165.695 45.9231 166.05 47.1327L166.542 48.8055L166.871 47.3382C167.168 46.0173 168.208 44.9906 169.532 44.7111L170.59 44.4877L169.443 44.1445C168.15 43.7576 167.198 42.6531 167.008 41.3158L166.743 39.4492Z" fill="#FFDA48"/>
<path d="M200.079 68.9336L199.21 71.8035C198.733 73.3751 197.457 74.5746 195.858 74.9521L193.573 75.4915L195.729 75.9679C197.369 76.3299 198.683 77.5566 199.157 79.1679L199.811 81.3956L200.25 79.4419C200.645 77.6827 202.03 76.3158 203.793 75.943L205.202 75.6457L203.674 75.1887C201.951 74.6734 200.685 73.2023 200.432 71.4221L200.079 68.9336Z" fill="#FFDA48"/>
<path d="M92.2261 33.5137H87.3612V38.9624H92.2261V33.5137Z" fill="#96C85B"/>
<path d="M100.156 33.5137H95.2913V38.9624H100.156V33.5137Z" fill="#96C85B"/>
<path d="M108.086 33.5137H103.221V38.9624H108.086V33.5137Z" fill="#96C85B"/>
<path d="M116.016 33.5137H111.151V38.9624H116.016V33.5137Z" fill="#96C85B"/>
<path d="M92.2261 41.1094H87.3612V46.5581H92.2261V41.1094Z" fill="#96C85B"/>
<path d="M100.156 41.1094H95.2913V46.5581H100.156V41.1094Z" fill="#96C85B"/>
<path d="M108.086 41.1094H103.221V46.5581H108.086V41.1094Z" fill="#96C85B"/>
<path d="M116.016 41.1094H111.151V46.5581H116.016V41.1094Z" fill="#96C85B"/>
<path d="M92.2261 48.7031H87.3612V54.1519H92.2261V48.7031Z" fill="#96C85B"/>
<path d="M100.156 48.7031H95.2913V54.1519H100.156V48.7031Z" fill="#96C85B"/>
<path d="M108.086 48.7031H103.221V54.1519H108.086V48.7031Z" fill="#96C85B"/>
<path d="M116.016 48.7031H111.151V54.1519H116.016V48.7031Z" fill="#96C85B"/>
<path d="M92.2261 56.2988H87.3612V61.7476H92.2261V56.2988Z" fill="#96C85B"/>
<path d="M100.156 56.2988H95.2913V61.7476H100.156V56.2988Z" fill="#96C85B"/>
<path d="M108.086 56.2988H103.221V61.7476H108.086V56.2988Z" fill="#96C85B"/>
<path d="M116.016 56.2988H111.151V61.7476H116.016V56.2988Z" fill="#96C85B"/>
<path d="M92.2261 63.8926H87.3612V69.3413H92.2261V63.8926Z" fill="#96C85B"/>
<path d="M100.156 63.8926H95.2913V69.3413H100.156V63.8926Z" fill="#96C85B"/>
<path d="M108.086 63.8926H103.221V69.3413H108.086V63.8926Z" fill="#96C85B"/>
<path d="M116.016 63.8926H111.151V69.3413H116.016V63.8926Z" fill="#96C85B"/>
<path d="M92.2261 71.4902H87.3612V76.939H92.2261V71.4902Z" fill="#96C85B"/>
<path d="M100.156 71.4902H95.2913V76.939H100.156V71.4902Z" fill="#96C85B"/>
<path d="M108.086 71.4902H103.221V76.939H108.086V71.4902Z" fill="#96C85B"/>
<path d="M116.016 71.4902H111.151V76.939H116.016V71.4902Z" fill="#96C85B"/>
<path d="M92.226 79.084H87.3611V84.5327H92.226V79.084Z" fill="#96C85B"/>
<path d="M92.226 86.6797H87.3611V92.1284H92.226V86.6797Z" fill="#96C85B"/>
<path d="M92.2261 94.2754H87.3612V99.7241H92.2261V94.2754Z" fill="#96C85B"/>
<path d="M92.2261 101.869H87.3612V107.318H92.2261V101.869Z" fill="#96C85B"/>
<path d="M100.156 79.084H95.2914V84.5327H100.156V79.084Z" fill="#96C85B"/>
<path d="M100.156 86.6797H95.2914V92.1284H100.156V86.6797Z" fill="#96C85B"/>
<path d="M100.156 94.2754H95.2913V99.7241H100.156V94.2754Z" fill="#96C85B"/>
<path d="M100.156 101.869H95.2913V107.318H100.156V101.869Z" fill="#96C85B"/>
<path d="M108.086 79.084H103.221V84.5327H108.086V79.084Z" fill="#96C85B"/>
<path d="M108.086 86.6797H103.221V92.1284H108.086V86.6797Z" fill="#96C85B"/>
<path d="M108.086 94.2754H103.221V99.7241H108.086V94.2754Z" fill="#96C85B"/>
<path d="M116.016 79.084H111.151V84.5327H116.016V79.084Z" fill="#96C85B"/>
<path d="M141.505 20.0215H138.716V23.7188H141.505V20.0215Z" fill="#2C4F02"/>
<path d="M146.565 20.0215H143.776V23.7188H146.565V20.0215Z" fill="#2C4F02"/>
<path d="M151.624 20.0215H148.835V23.7188H151.624V20.0215Z" fill="#2C4F02"/>
<path d="M156.684 20.0215H153.895V23.7188H156.684V20.0215Z" fill="#2C4F02"/>
<path d="M141.505 25.5332H138.716V29.2306H141.505V25.5332Z" fill="#2C4F02"/>
<path d="M146.565 25.5332H143.776V29.2306H146.565V25.5332Z" fill="#2C4F02"/>
<path d="M151.624 25.5332H148.835V29.2306H151.624V25.5332Z" fill="#2C4F02"/>
<path d="M156.684 25.5332H153.895V29.2306H156.684V25.5332Z" fill="#2C4F02"/>
<path d="M141.505 31.0449H138.716V34.7423H141.505V31.0449Z" fill="#2C4F02"/>
<path d="M146.565 31.0449H143.776V34.7423H146.565V31.0449Z" fill="#2C4F02"/>
<path d="M151.624 31.0449H148.835V34.7423H151.624V31.0449Z" fill="#2C4F02"/>
<path d="M156.684 31.0449H153.895V34.7423H156.684V31.0449Z" fill="#2C4F02"/>
<path d="M183.694 10.5664H175.912V21.0747H183.694V10.5664Z" fill="#96C85B"/>
<path d="M196.269 10.5664H188.487V21.0747H196.269V10.5664Z" fill="#96C85B"/>
<path d="M208.845 10.5664H201.062V21.0747H208.845V10.5664Z" fill="#96C85B"/>
<g clip-path="url(#clip1_535_8692)">
<g clip-path="url(#clip2_535_8692)">
<path d="M94.154 111.128C94.9273 108.272 95.5962 105.733 95.8527 104.579C96.1964 106.547 96.615 108.848 97.0368 111.128H117.921C115.248 98.906 110.794 78.6415 109.831 74.8719C101.427 74.2124 90.2145 73.8431 81.8098 73.1836C80.3348 79.1795 75.5235 98.9019 72.5421 111.128H94.154Z" fill="#3B6A03"/>
<path d="M110.338 91.4315C107.307 91.4315 104.841 88.9658 104.841 85.9351C104.841 85.8339 104.923 85.752 105.024 85.752C105.126 85.752 105.208 85.8339 105.208 85.9351C105.208 88.7639 107.509 91.0651 110.338 91.0651C110.439 91.0651 110.521 91.147 110.521 91.2483C110.521 91.3495 110.439 91.4315 110.338 91.4315Z" fill="white"/>
<path d="M112.208 85.2216H78.8633L79.7784 81.4766H111.367L112.208 85.2216Z" fill="#4F2704"/>
<path d="M99.3097 86.1176H94.7119C94.6107 86.1176 94.5287 86.0357 94.5287 85.9344V80.8492C94.5287 80.7479 94.6107 80.666 94.7119 80.666H99.3097C99.4109 80.666 99.4929 80.7479 99.4929 80.8492V85.9344C99.4929 86.0357 99.4108 86.1176 99.3097 86.1176ZM94.895 85.7513H99.1265V81.0325H94.895V85.7513Z" fill="#EFBC73"/>
<path d="M148.455 58.2346C149.69 57.5491 151.67 56.3191 151.287 55.4743C150.917 54.7625 149.133 55.6 147.846 56.2735C147.846 56.2736 147.846 56.2734 147.846 56.2733C149.416 55.2062 149.946 54.4269 149.638 53.9893C149.197 53.3601 147.358 54.9083 144.36 54.6432C141.717 54.4095 140.35 53.0124 138.186 53.7776C137.602 53.984 137.212 54.2588 136.991 54.4134C134.954 55.8358 124.889 63.7709 124.179 64.3069C121.198 66.5569 132.962 71.2821 135.11 69.5517C140.091 65.5376 140.707 64.781 142.636 63.0285C142.636 63.0283 142.636 63.0283 142.637 63.0283C143.629 63.1754 145.207 63.3711 146.996 62.823C148.586 62.3362 150.261 61.5288 150.264 60.763C150.265 60.3435 149.832 60.183 148.243 60.4982V60.498C150.26 59.478 151.269 58.5648 151.1 57.859C150.992 57.4107 149.95 57.4049 148.455 58.2346Z" fill="#FDFFFD"/>
<path d="M141.886 54.9937C144.191 53.1071 144.622 51.9383 144.311 51.5826C143.789 50.9845 141.162 51.7896 137.446 54.1226C138.661 54.4762 140.671 54.6401 141.886 54.9937Z" fill="#FDFFFD"/>
<path d="M142.77 54.4183C142.758 54.4183 142.745 54.417 142.732 54.4141C141.654 54.1816 140.391 54.0184 139.673 53.9653C139.572 53.958 139.496 53.8701 139.503 53.7693C139.511 53.6684 139.6 53.5932 139.699 53.6C140.43 53.654 141.715 53.8197 142.809 54.056C142.908 54.0772 142.971 54.1748 142.949 54.2736C142.931 54.3595 142.855 54.4183 142.77 54.4183Z" fill="#3B6A03"/>
<path d="M145.583 56.8969C145.431 56.8969 145.29 56.8901 145.162 56.884C145.061 56.8792 144.982 56.7933 144.987 56.6923C144.992 56.5912 145.079 56.5143 145.179 56.518C145.488 56.5333 145.837 56.5499 146.219 56.4735C146.693 56.3789 147.418 56.12 148.111 55.7983C148.204 55.7557 148.312 55.7956 148.354 55.8873C148.397 55.9791 148.357 56.0881 148.265 56.1306C147.536 56.4689 146.798 56.7312 146.291 56.8327C146.039 56.8829 145.8 56.8969 145.583 56.8969Z" fill="#3B6A03"/>
<path d="M146.061 58.7332C146.024 58.7332 145.99 58.7325 145.96 58.7311C145.859 58.7262 145.781 58.6403 145.786 58.5393C145.791 58.4382 145.878 58.3586 145.977 58.3651C146.256 58.378 146.989 58.3108 147.393 58.221C147.705 58.1518 148.1 58.0204 148.601 57.8198C148.694 57.7822 148.801 57.8279 148.839 57.9217C148.876 58.0156 148.831 58.1223 148.737 58.16C148.217 58.368 147.804 58.505 147.473 58.5787C147.098 58.662 146.432 58.7332 146.061 58.7332Z" fill="#3B6A03"/>
<path d="M145.881 61.1563C145.784 61.1563 145.687 61.154 145.59 61.1493C145.489 61.1445 145.411 61.0586 145.415 60.9576C145.42 60.8565 145.509 60.779 145.607 60.7834C145.959 60.8007 146.312 60.7844 146.659 60.7368C146.991 60.6911 147.624 60.5817 148.127 60.363C148.22 60.3224 148.328 60.3653 148.368 60.4578C148.408 60.5507 148.366 60.6585 148.273 60.6989C147.73 60.9351 147.06 61.0514 146.709 61.0995C146.436 61.1373 146.158 61.1563 145.881 61.1563Z" fill="#3B6A03"/>
<path d="M69.4671 58.7949C66.4681 64.0072 54.9403 80.7841 61.2923 84.9367C66.3466 88.241 76.6717 72.2938 79.9853 67.311C76.4335 64.8378 73.0188 61.2681 69.4671 58.7949Z" fill="#FDFFFD"/>
<path d="M60.6671 74.5128C60.6671 74.5128 68.8651 55.5261 74.4066 50.7734C78.8035 47.0021 88.2803 45.5166 97.2186 45.68C109.32 45.9013 114.823 50.9977 114.823 50.9977L124.894 63.1203L134.857 55.932L140.923 64.641C140.923 64.641 130.387 76.2842 125.648 77.1156C118.775 78.3215 110.05 71.5942 110.05 71.5942L111.029 79.9827L77.8526 80.6599L79.3278 70.9351L75.3683 75.4931L60.6671 74.5128Z" fill="#3B6A03"/>
<path d="M109.066 49.3476C109.056 49.3476 109.046 49.3467 109.035 49.3452L101.922 48.1523C101.863 48.1425 101.813 48.1043 101.787 48.0503C101.761 47.9963 101.764 47.9332 101.793 47.8813L102.765 46.1689C102.803 46.1016 102.88 46.0659 102.955 46.0788L110.133 47.3125C110.193 47.3227 110.244 47.3622 110.269 47.4178C110.294 47.4732 110.29 47.5377 110.258 47.5895L109.222 49.2611C109.188 49.3155 109.129 49.3476 109.066 49.3476ZM102.241 47.8342L108.975 48.9635L109.803 47.6275L103.02 46.4616L102.241 47.8342Z" fill="white"/>
<path d="M79.5829 49.9297C79.5202 49.9297 79.461 49.8974 79.4272 49.8431L78.3907 48.1715C78.3587 48.1197 78.3544 48.0552 78.3794 47.9998C78.4044 47.9442 78.4554 47.9046 78.5154 47.8945L85.6935 46.6608C85.7691 46.6479 85.8458 46.6837 85.8839 46.7509L86.8555 48.4633C86.885 48.5151 86.8873 48.5784 86.8616 48.6324C86.8359 48.6864 86.7855 48.7245 86.7265 48.7343L79.6132 49.9272C79.6031 49.9288 79.5929 49.9297 79.5829 49.9297ZM78.8453 48.2094L79.6738 49.5454L86.4077 48.4162L85.6287 47.0435L78.8453 48.2094Z" fill="white"/>
<path d="M135.72 66.1324C135.663 66.1324 135.608 66.1066 135.572 66.0579L130.446 59.1162C130.386 59.0348 130.404 58.9201 130.485 58.8601C130.566 58.7999 130.681 58.8173 130.741 58.8987L135.867 65.8404C135.927 65.9218 135.91 66.0365 135.828 66.0965C135.795 66.1207 135.757 66.1324 135.72 66.1324Z" fill="white"/>
<path d="M84.0833 62.9261L77.1211 85.4941L94.5076 90.8578L101.47 68.2898L84.0833 62.9261Z" fill="#FFDA48"/>
<path d="M89.4103 63.5786L88.6067 66.1836L95.8971 68.4327L96.7007 65.8276L89.4103 63.5786Z" fill="#EFBC73"/>
<path d="M82.4307 76.6426C87.9893 78.0491 85.5185 77.2285 86.8019 77.5401C89.2012 78.1227 94.3487 79.2218 94.2966 80.9152C94.2794 81.4784 93.8784 82.0108 93.2822 82.3246C93.7562 82.8701 93.8629 83.6356 93.5551 84.2555C93.1507 85.0701 92.2504 85.1902 92.1841 85.1979C92.6036 85.5686 92.8085 86.113 92.6939 86.6097C92.5358 87.295 91.7884 87.8058 90.9449 87.6933C90.9972 87.8431 91.1649 88.3831 90.9128 88.9456C90.6336 89.5687 89.9519 89.9676 89.1866 89.9517C87.0546 89.4358 83.5331 89.1055 79.4285 88.4822C69.9263 87.039 78.7552 78.3647 82.4307 76.6426Z" fill="#FDFFFD"/>
<path d="M90.7276 81.0319C90.7094 81.0319 90.691 81.0292 90.6727 81.0235C90.5762 80.9933 90.5225 80.8904 90.5528 80.7938L90.8778 79.7574C90.9079 79.6608 91.0109 79.607 91.1073 79.6374C91.2038 79.6676 91.2576 79.7705 91.2273 79.8669L90.9023 80.9036C90.8778 80.9819 90.8056 81.0319 90.7276 81.0319Z" fill="#3B6A03"/>
<path d="M89.9067 83.6649C89.8885 83.6649 89.8701 83.6623 89.8519 83.6565C89.7553 83.6263 89.7015 83.5234 89.7319 83.427L90.0568 82.3902C90.087 82.2934 90.1898 82.2399 90.2865 82.2702C90.383 82.3004 90.4367 82.4032 90.4064 82.4996L90.0814 83.5364C90.0569 83.6148 89.9846 83.6649 89.9067 83.6649Z" fill="#3B6A03"/>
<path d="M89.1003 86.3524C89.0821 86.3524 89.0637 86.3497 89.0454 86.344C88.9489 86.3138 88.8951 86.2109 88.9255 86.1145L89.2504 85.0778C89.2806 84.9811 89.3836 84.9273 89.4799 84.9577C89.5765 84.988 89.6303 85.0908 89.5999 85.1872L89.275 86.224C89.2505 86.3023 89.1783 86.3524 89.1003 86.3524Z" fill="#3B6A03"/>
<path d="M88.3187 88.7761C88.3004 88.7761 88.2821 88.7734 88.2638 88.7677C88.1673 88.7374 88.1135 88.6346 88.1438 88.538L88.4688 87.5016C88.4991 87.405 88.6018 87.3511 88.6984 87.3815C88.7949 87.4118 88.8487 87.5146 88.8183 87.6111L88.4933 88.6478C88.4687 88.726 88.3966 88.7761 88.3187 88.7761Z" fill="#3B6A03"/>
<path d="M75.5877 75.2408L83.8472 76.9586L80.5002 88.7584L63.1956 85.9899C61.0152 85.6411 59.4111 83.7621 59.4107 81.5564L59.4106 81.1461C59.4102 78.7615 59.8803 76.4003 60.7939 74.1973L75.5877 75.2408Z" fill="#3B6A03"/>
<path d="M75.3538 87.9488C75.3388 87.9488 75.3238 87.947 75.3087 87.9433C75.2106 87.9184 75.1511 87.819 75.1759 87.7208L77.1841 79.7691C77.2089 79.6711 77.3094 79.612 77.4066 79.6363C77.5047 79.6612 77.5642 79.7606 77.5394 79.8588L75.5312 87.8105C75.5102 87.8935 75.4356 87.9488 75.3538 87.9488Z" fill="white"/>
<path d="M82.6205 34.4336C84.3461 33.1318 85.0755 33.0811 86.6953 32.1052C87.5917 31.5651 88.6867 29.7619 89.7601 30.9815C90.5012 31.8235 90.3454 33.5464 89.2321 34.344C87.4582 35.615 86.1222 34.6378 84.5919 36.1101C83.4383 37.2199 82.9967 39.5392 84.1098 40.9351C84.9408 41.9773 86.3086 42.0912 86.6805 42.1104C86.2615 42.8821 85.8426 43.654 85.4236 44.4258C84.2434 43.903 83.5722 43.344 82.7774 42.4869C83.1245 43.5717 83.6891 44.1929 84.8662 44.9699C84.1974 45.3715 83.5286 45.773 82.86 46.1746C81.1679 44.6431 80.6378 43.0778 80.4486 42.3317C79.6596 39.2193 80.6212 35.9417 82.6205 34.4336Z" fill="#EFBC73"/>
<path d="M84.8502 36.685C84.7561 36.685 84.6761 36.613 84.6679 36.5176L84.3056 32.3387C84.3014 32.2904 84.3166 32.2422 84.3478 32.2051C84.3792 32.1679 84.4238 32.1446 84.4722 32.1405L86.2631 31.9853C86.3647 31.9753 86.4527 32.051 86.4615 32.152L86.8237 36.3309C86.828 36.3791 86.8128 36.4273 86.7815 36.4645C86.7502 36.5017 86.7055 36.5249 86.6571 36.529L84.8661 36.6843C84.8608 36.6848 84.8554 36.685 84.8502 36.685ZM84.6864 32.4896L85.017 36.3034L86.4431 36.1798L86.1125 32.366L84.6864 32.4896Z" fill="#3B6A03"/>
<path d="M91.4013 28.83C91.6349 28.7094 93.8892 27.5881 95.9292 28.621C97.4473 29.3896 98.1804 30.8615 99.0368 33.5162C100.045 36.6423 100.212 38.652 99.5753 39.6027C98.5701 41.1047 93.5742 40.6382 90.9531 38.6036C89.0611 37.135 88.203 34.6131 88.6352 32.2402C89.0663 29.8741 91.2523 28.9071 91.4013 28.83Z" fill="#FDFFFD"/>
<path d="M93.9562 48.9899H93.7422C92.1961 48.9899 90.9427 47.7365 90.9427 46.1904V37.5632C90.9427 36.017 92.1961 34.7637 93.7422 34.7637H93.9562C95.5023 34.7637 96.7557 36.017 96.7557 37.5632V46.1904C96.7557 47.7365 95.5023 48.9899 93.9562 48.9899Z" fill="#FDFFFD"/>
<path d="M96.7556 40.7668C96.7545 40.7668 96.7534 40.7668 96.7522 40.7668C94.6295 40.7287 92.3189 39.9752 90.8659 38.8475C90.786 38.7854 90.7715 38.6703 90.8335 38.5904C90.8955 38.5105 91.0106 38.496 91.0905 38.558C92.485 39.6406 94.71 40.3638 96.7588 40.4004C96.86 40.4021 96.9405 40.4857 96.9386 40.5868C96.9369 40.687 96.8552 40.7668 96.7556 40.7668Z" fill="#3B6A03"/>
<path d="M93.7241 34.1179C93.7241 34.1179 94.3582 34.899 95.3433 35.3084C95.5508 35.3948 95.8537 33.5568 95.6168 33.5684C94.5692 33.6197 93.7241 34.1179 93.7241 34.1179Z" fill="white"/>
<path d="M98.6368 35.0024C98.6368 35.0024 97.3665 35.7514 96.0099 35.5072C95.7727 35.4645 95.549 35.3939 95.3406 35.3071C95.1159 34.7013 95.2372 34.0473 95.6121 33.5689C95.8504 33.557 96.0991 33.568 96.3509 33.6133C97.7076 33.8575 98.6368 35.0024 98.6368 35.0024Z" fill="#3B6A03"/>
<path d="M96.4441 42.362C96.3797 42.362 96.3171 42.3278 96.2837 42.2675C95.6702 41.1581 94.6784 38.8591 94.9303 35.9251C95.1595 33.2558 96.2819 31.2911 97.1831 30.1128C97.2448 30.0323 97.3601 30.0174 97.4399 30.0787C97.5203 30.14 97.5356 30.2551 97.4741 30.3354C96.6025 31.475 95.5169 33.3752 95.2954 35.9567C95.0517 38.7938 96.0109 41.0173 96.6043 42.0901C96.6533 42.1787 96.6212 42.2901 96.5327 42.3391C96.5045 42.3546 96.4741 42.362 96.4441 42.362Z" fill="#EFBC73"/>
<path d="M97.9574 37.5555C97.8471 37.5555 97.7368 37.5336 97.6333 37.4882C97.291 37.3381 97.1625 36.9867 97.1405 36.8026C97.1285 36.7022 97.2002 36.611 97.3006 36.599C97.4012 36.5867 97.4922 36.6588 97.5043 36.7593C97.5057 36.7705 97.5439 37.0491 97.7803 37.1527C97.9706 37.2361 98.2048 37.1739 98.3494 37.0015C98.4143 36.9237 98.53 36.9136 98.6074 36.9786C98.6851 37.0433 98.6953 37.1589 98.6304 37.2366C98.458 37.4426 98.2077 37.5555 97.9574 37.5555Z" fill="#3B6A03"/>
<path d="M99.1356 34.5918C99.186 34.7437 99.2814 34.9582 99.4741 35.1433C99.7064 35.3665 99.9084 35.3813 99.9729 35.5551C100.016 35.6717 100.001 35.8688 99.7005 36.2147L99.1356 34.5918Z" fill="#FDFFFD"/>
<path d="M99.7006 36.3973C99.6581 36.3973 99.6152 36.3825 99.5805 36.3525C99.5042 36.2861 99.4961 36.1704 99.5625 36.094C99.8326 35.7833 99.8137 35.6513 99.8015 35.6183C99.7889 35.5846 99.7528 35.5604 99.6604 35.505C99.5732 35.4528 99.4647 35.3877 99.3474 35.2748C99.1743 35.1088 99.0446 34.8983 98.962 34.6489C98.9302 34.5529 98.9822 34.4493 99.0781 34.4175C99.1743 34.3858 99.2778 34.4378 99.3097 34.5338C99.3733 34.7257 99.4713 34.8862 99.6011 35.0106C99.6887 35.0947 99.7702 35.1437 99.8488 35.1909C99.9656 35.261 100.086 35.3335 100.145 35.4907C100.231 35.7229 100.131 35.9989 99.8389 36.3345C99.8027 36.3761 99.7518 36.3973 99.7006 36.3973Z" fill="#3B6A03"/>
<path d="M92.2715 38.2721C91.8893 38.2721 91.494 38.1694 91.133 37.9706C91.0443 37.9217 91.012 37.8103 91.0609 37.7217C91.1097 37.633 91.2211 37.601 91.3097 37.6496C91.7661 37.9011 92.2819 37.9716 92.7253 37.8432C92.8219 37.8148 92.9239 37.871 92.9522 37.9681C92.9803 38.0652 92.9244 38.1668 92.8272 38.1949C92.6491 38.2465 92.4619 38.2721 92.2715 38.2721Z" fill="#3B6A03"/>
<path d="M87.301 29.0216C90.8508 24.6977 97.5438 27.2076 98.1041 31.0502C98.1041 31.0502 95.7108 29.3939 95.6995 29.3498C95.5341 30.0943 95.1873 31.2069 94.4073 32.3598C93.2024 34.1407 91.6413 35.016 90.8645 35.3852C91.1693 36.6486 91.571 39.21 91.9176 40.839C91.9176 40.839 81.4498 36.1489 87.301 29.0216Z" fill="#EFBC73"/>
<path d="M93.515 37.5202C94.1715 36.8126 94.0252 35.6094 93.1881 34.8326C92.351 34.0558 91.1402 33.9996 90.4836 34.7072C89.8271 35.4147 89.9734 36.618 90.8105 37.3948C91.6476 38.1716 92.8584 38.2277 93.515 37.5202Z" fill="#FDFFFD"/>
<path d="M91.5658 37.0761C91.5316 37.0761 91.4968 37.0665 91.466 37.0464C91.3977 37.002 91.3331 36.9514 91.2738 36.8963C91.0364 36.676 90.8855 36.389 90.8488 36.0881C90.8108 35.7757 90.8993 35.4856 91.098 35.2716C91.1992 35.1628 91.322 35.0807 91.4634 35.0276C91.5577 34.9916 91.6637 35.0397 91.6994 35.1343C91.735 35.2291 91.6872 35.3346 91.5924 35.3703C91.5046 35.4033 91.4286 35.454 91.3664 35.5209C91.2425 35.6545 91.1877 35.8402 91.2125 36.0438C91.2386 36.2589 91.349 36.4663 91.523 36.6278C91.5671 36.6689 91.6152 36.7063 91.6659 36.7394C91.7506 36.7947 91.7746 36.9082 91.7194 36.9929C91.6844 37.0467 91.6256 37.0761 91.5658 37.0761Z" fill="#3B6A03"/>
<path d="M96.7156 28.6579L96.7277 26.3184C96.7277 26.3184 92.1261 28.2927 90.7363 29.0776C89.3784 29.8445 85.6255 32.5245 85.6255 32.5245L86.7321 34.2041L96.7156 28.6579Z" fill="#FFDA48"/>
<path d="M83.0899 31.1091L85.6254 32.5246C85.6254 32.5246 91.7982 27.9374 96.7286 26.6123L97.382 22.9236C97.431 22.6305 97.1305 22.367 96.7822 22.4212C94.1976 22.824 87.6478 25.2047 82.8043 30.3718C82.5902 30.6005 82.8026 30.9488 83.0899 31.1091Z" fill="#3B6A03"/>
<path d="M96.7089 28.6563C96.7089 28.6563 98.1543 28.6539 98.609 28.6505C99.32 28.6451 100.26 28.7963 100.421 29.2081C100.54 29.5133 100.774 29.7922 98.5579 30.459C95.1967 31.4705 86.7058 34.2032 86.7058 34.2032C86.7058 34.2032 90.6041 31.8912 91.9398 31.1507C93.1049 30.5045 96.7089 28.6563 96.7089 28.6563Z" fill="#3B6A03"/>
<path d="M108.299 14.0345C108.291 14.0345 108.283 14.0338 108.276 14.0324C108.242 14.0265 108.212 14.0072 108.192 13.9789L101.088 3.80661C101.047 3.74787 101.062 3.66679 101.121 3.62585L105.548 0.533353C105.576 0.513557 105.611 0.505544 105.645 0.511907C105.679 0.517857 105.709 0.537182 105.729 0.565462L112.832 10.7378C112.873 10.7966 112.859 10.8776 112.8 10.9186L108.373 14.011C108.351 14.0264 108.325 14.0345 108.299 14.0345ZM101.376 3.76442L108.331 13.7237L112.545 10.7801L105.59 0.820689L101.376 3.76442Z" fill="#FFDA48"/>
<path d="M108.298 13.9041L107.034 13.5671L101.994 6.35044L102.161 5.11601L102.462 3.87634L103.937 2.8457L105.205 2.99017L106.421 3.258L111.461 10.4747L111.342 11.7783L111.041 13.0181L109.566 14.0486L108.298 13.9041Z" fill="#FFDA48"/>
<path d="M107.322 10.1602C108.266 9.84595 108.778 8.82501 108.463 7.87989C108.149 6.93477 107.128 6.42336 106.183 6.73762C105.238 7.05188 104.727 8.07281 105.042 9.01793C105.356 9.96305 106.377 10.4745 107.322 10.1602Z" fill="#EFBC73"/>
<path d="M103.938 2.84532C104.515 3.63204 105.617 3.81916 106.421 3.25768L105.413 1.81445L103.938 2.84532Z" fill="#EFBC73"/>
<path d="M102.462 3.87695L100.986 4.90788L101.994 6.35111C102.798 5.78905 103.002 4.69013 102.462 3.87695Z" fill="#EFBC73"/>
<path d="M111.016 12.9852C111.024 12.9967 111.033 13.0068 111.041 13.0179L112.517 11.987L111.461 10.4746C110.645 11.0449 110.446 12.1688 111.016 12.9852Z" fill="#EFBC73"/>
<path d="M108.09 15.0792L109.566 14.0483C109.558 14.0367 109.552 14.0247 109.544 14.0132C108.974 13.1968 107.85 12.997 107.034 13.5668L108.09 15.0792Z" fill="#EFBC73"/>
<path d="M107.881 16.386C107.874 16.386 107.866 16.3853 107.859 16.3839C107.825 16.378 107.795 16.3587 107.775 16.3304L100.671 6.1581C100.63 6.09936 100.645 6.01829 100.704 5.97734L105.13 2.88484C105.159 2.86505 105.193 2.85721 105.227 2.8634C105.261 2.86935 105.292 2.88868 105.311 2.91696L112.415 13.0893C112.456 13.1481 112.442 13.2291 112.383 13.2701L107.956 16.3625C107.934 16.3778 107.908 16.386 107.881 16.386ZM100.959 6.11585L107.914 16.0751L112.128 13.1315L105.173 3.17213L100.959 6.11585Z" fill="white"/>
<path d="M78.3814 20.0586C78.3277 20.0586 78.2775 20.0251 78.2587 19.9716L76.6001 15.2283C76.5888 15.1958 76.5909 15.16 76.6058 15.1289C76.6207 15.098 76.6474 15.0741 76.6799 15.0627L87.5785 11.2533C87.6466 11.2299 87.7203 11.2654 87.744 11.3331L89.4027 16.0764C89.414 16.1088 89.4119 16.1446 89.3969 16.1757C89.3821 16.2066 89.3553 16.2305 89.3228 16.2419L78.4243 20.0513C78.41 20.0563 78.3956 20.0586 78.3814 20.0586ZM76.8883 15.2652L78.4612 19.7632L89.1144 16.0395L87.5415 11.5414L76.8883 15.2652Z" fill="#FFDA48"/>
<path d="M89.2799 16.1186L88.6603 17.1671L80.9285 19.8696L79.8645 19.4097L78.8293 18.8289L78.2765 17.2481L78.7243 16.149L79.2698 15.1264L87.0016 12.4238L88.1397 12.8579L89.175 13.4388L89.7277 15.0194L89.2799 16.1186Z" fill="#FFDA48"/>
<path d="M84.0822 17.8036C85.0079 17.7588 85.722 16.9723 85.6773 16.0468C85.6325 15.1213 84.8458 14.4074 83.9201 14.4521C82.9944 14.4969 82.2803 15.2834 82.3251 16.2089C82.3698 17.1344 83.1565 17.8483 84.0822 17.8036Z" fill="#EFBC73"/>
<path d="M78.2766 17.2467C79.1265 16.9269 79.5709 15.9867 79.2699 15.125L77.7236 15.6655L78.2766 17.2467Z" fill="#EFBC73"/>
<path d="M78.8293 18.8298L79.3823 20.4111L80.9286 19.8706C80.6269 19.009 79.6935 18.5505 78.8293 18.8298Z" fill="#EFBC73"/>
<path d="M89.1391 13.4532C89.1514 13.4489 89.1628 13.4432 89.1749 13.4388L88.6219 11.8574L87.0015 12.4238C87.3075 13.2981 88.2645 13.759 89.1391 13.4532Z" fill="#EFBC73"/>
<path d="M90.2806 16.6009L89.7276 15.0195C89.7154 15.0235 89.7029 15.0261 89.6907 15.0304C88.816 15.3361 88.3547 16.2927 88.6602 17.1672L90.2806 16.6009Z" fill="#EFBC73"/>
<path d="M80.3829 21.0235C80.3292 21.0235 80.2791 20.99 80.2603 20.9365L78.6014 16.1933C78.5901 16.1608 78.5922 16.1251 78.6072 16.094C78.622 16.063 78.6488 16.0392 78.6812 16.0277L89.5797 12.2182C89.6476 12.1946 89.7216 12.2304 89.7453 12.298L91.4039 17.0413C91.4153 17.0737 91.4132 17.1095 91.3982 17.1406C91.3834 17.1715 91.3566 17.1954 91.3242 17.2068L80.4258 21.0162C80.4116 21.0212 80.3971 21.0235 80.3829 21.0235ZM78.8897 16.2302L80.4627 20.7281L91.1158 17.0044L89.5429 12.5063L78.8897 16.2302Z" fill="white"/>
</g>
</g>
</g>
<defs>
<clipPath id="clip0_535_8692">
<rect width="310" height="103.333" rx="6.2" fill="white"/>
</clipPath>
<clipPath id="clip1_535_8692">
<rect x="56.8334" y="-3.35742" width="108.248" height="110.825" rx="8.59108" fill="white"/>
</clipPath>
<clipPath id="clip2_535_8692">
<rect x="56.8334" y="-3.35742" width="108.248" height="110.825" rx="8.59108" fill="white"/>
</clipPath>
</defs>
</svg>
