<svg width="310" height="104" viewBox="0 0 310 104" fill="none" xmlns="http://www.w3.org/2000/svg">
<g clip-path="url(#clip0_535_10188)">
<rect y="0.583984" width="310" height="103.333" rx="6.2" fill="#FFDCEB"/>
<path d="M155.129 168.501C219.404 168.501 271.508 116.396 271.508 52.1214C271.508 -12.1531 219.404 -64.2578 155.129 -64.2578C90.8547 -64.2578 38.75 -12.1531 38.75 52.1214C38.75 116.396 90.8547 168.501 155.129 168.501Z" fill="#B5346D"/>
<path d="M223.869 55.841C223.869 59.4786 223.597 63.0526 223.071 66.5423C223.072 66.544 223.071 66.5457 223.071 66.5474C223.071 66.5509 223.069 66.5594 223.067 66.5715C222.954 67.33 222.827 68.085 222.687 68.8349C220.408 81.2388 214.92 92.518 207.117 101.785C205.872 103.266 204.566 104.695 203.202 106.069C192.155 117.224 177.454 124.752 161.041 126.71C158.239 127.045 155.386 127.217 152.493 127.217C113.072 127.217 81.1166 95.2612 81.1166 55.8409C81.1166 16.4207 113.072 -15.5352 152.493 -15.5352C191.913 -15.5352 223.869 16.4207 223.869 55.841Z" fill="#B5346D"/>
<path d="M177.698 43.3691H114.183V97.2532H177.698V43.3691Z" fill="#FFDCEB"/>
<path d="M125.483 97.2523C125.483 97.2523 133.992 71.2261 136.948 58.8329C136.948 58.8329 149.177 54.4699 162.365 57.2785C162.365 57.2785 166.664 79.9158 164.414 97.2523H148.799L150.781 67.6644L144.847 97.2523H125.483Z" fill="#363E44"/>
<path d="M150.414 18H145.964V27.1013H150.414V18Z" fill="white"/>
<path d="M150.41 20.1446C152.447 18.1081 152.447 14.8062 150.41 12.7696C148.374 10.7331 145.072 10.733 143.035 12.7696C140.999 14.8061 140.999 18.108 143.035 20.1445C145.072 22.1811 148.374 22.1811 150.41 20.1446Z" fill="#363E44"/>
<path d="M152.753 21.2141C151.91 22.3485 148.127 21.2412 148.127 21.2412L145.152 18.1118C144.538 16.2209 145.573 14.19 147.464 13.5756C149.355 12.9612 151.386 13.9961 152 15.887C152 15.887 153.611 20.0587 152.753 21.2141Z" fill="white"/>
<path d="M151.899 16.916C151.899 16.916 153.186 17.6102 153.221 17.8924C153.264 18.2293 152.257 18.7703 152.257 18.7703C152.257 18.7703 151.925 16.9102 151.899 16.916Z" fill="white"/>
<path d="M151.159 21.8633C149.808 21.8633 148.202 21.3984 148.124 21.3756C148.083 21.3635 148.059 21.3202 148.072 21.2788C148.084 21.2374 148.127 21.2137 148.168 21.2258C148.19 21.2322 150.367 21.8624 151.753 21.6701C151.795 21.6641 151.835 21.6939 151.841 21.7366C151.846 21.7793 151.817 21.8187 151.774 21.8246C151.58 21.8517 151.372 21.8633 151.159 21.8633Z" fill="#363E44"/>
<path d="M148.344 17.6449C148.344 17.6449 148.863 17.1029 149.62 16.8569C149.781 16.8046 149.896 18.1926 149.719 18.1693C148.943 18.0669 148.344 17.6449 148.344 17.6449Z" fill="white"/>
<mask id="mask0_535_10188" style="mask-type:luminance" maskUnits="userSpaceOnUse" x="148" y="16" width="5" height="3">
<path d="M148.344 17.6456C148.344 17.6456 149.107 16.8485 150.133 16.7489C151.16 16.6493 152.061 17.2849 152.061 17.2849C152.061 17.2849 151.299 18.0821 150.272 18.1817C149.246 18.2813 148.344 17.6456 148.344 17.6456Z" fill="white"/>
</mask>
<g mask="url(#mask0_535_10188)">
<path d="M149.641 16.8147C149.979 16.1511 150.791 15.8873 151.455 16.2254C152.119 16.5635 152.382 17.3756 152.044 18.0392C151.706 18.7028 150.894 18.9666 150.231 18.6285C149.567 18.2904 149.303 17.4783 149.641 16.8147Z" fill="#363E44"/>
</g>
<path d="M151.286 19.7944C151.232 19.7944 151.177 19.7875 151.124 19.7731C150.894 19.7115 150.715 19.5198 150.668 19.2847C150.659 19.2424 150.687 19.2013 150.729 19.1929C150.772 19.1845 150.812 19.212 150.821 19.2542C150.856 19.4315 150.991 19.576 151.164 19.6224C151.344 19.6706 151.537 19.6078 151.656 19.4625C151.683 19.4292 151.732 19.4242 151.766 19.4515C151.799 19.4788 151.804 19.528 151.777 19.5613C151.654 19.7108 151.473 19.7944 151.286 19.7944Z" fill="#363E44"/>
<path d="M144.612 19.2834C144.612 19.2834 145.561 18.4905 147.064 19.2811L147.664 18.6438C147.664 18.6438 145.727 14.1223 151.429 14.2945C151.429 14.2945 148.406 10.9511 145.457 13.4977C142.508 16.0442 144.612 19.2834 144.612 19.2834Z" fill="#363E44"/>
<path d="M144.834 20.1163C145.251 20.7204 146.015 20.9161 146.541 20.5534C147.066 20.1907 147.154 19.4069 146.737 18.8028C146.32 18.1988 145.556 18.0031 145.03 18.3658C144.505 18.7285 144.417 19.5122 144.834 20.1163Z" fill="white"/>
<path d="M145.083 19.4786C145.042 19.4786 145.008 19.4472 145.005 19.4061C144.986 19.1361 145.096 18.8909 145.299 18.7504C145.635 18.5188 146.121 18.64 146.384 19.0203C146.408 19.0558 146.399 19.1044 146.364 19.1289C146.328 19.1533 146.28 19.1445 146.255 19.109C146.042 18.7994 145.653 18.6961 145.388 18.8788C145.23 18.9877 145.145 19.1806 145.161 19.395C145.164 19.438 145.131 19.4753 145.088 19.4784C145.087 19.4785 145.085 19.4786 145.083 19.4786Z" fill="#363E44"/>
<path d="M146.444 22.4685C145.959 22.4685 145.506 22.1589 145.348 21.673C145.152 21.0693 145.484 20.4186 146.087 20.2225C146.691 20.0263 147.342 20.358 147.538 20.9616C147.734 21.5653 147.403 22.216 146.799 22.4121C146.681 22.4503 146.562 22.4685 146.444 22.4685ZM145.497 21.6248C145.666 22.1467 146.229 22.4332 146.751 22.2637C147.272 22.0942 147.559 21.5316 147.39 21.0098C147.22 20.4879 146.657 20.2013 146.135 20.3708C145.614 20.5404 145.327 21.1029 145.497 21.6248Z" fill="#4424DD"/>
<path d="M147.946 13.7431C147.946 13.7431 146.092 4.84223 143.323 5.74157C140.554 6.64091 145.933 14.6187 147.946 13.7431Z" fill="#363E44"/>
<path d="M146.13 14.5597C146.13 14.5597 142.157 4.07995 138.789 5.70912C135.421 7.33829 143.721 16.014 146.13 14.5597Z" fill="#363E44"/>
<path d="M145.35 14.5466C145.35 14.5466 136.421 5.01858 133.698 8.19221C130.975 11.3658 143.537 17.1256 145.35 14.5466Z" fill="#363E44"/>
<path d="M143.752 15.8149C143.752 15.8149 135.765 9.60554 133.934 12.4443C132.104 15.283 142.579 18.0679 143.752 15.8149Z" fill="#363E44"/>
<path d="M138.685 16.2836C136.844 16.2836 135.09 15.9387 134.323 15.1965C133.933 14.8197 133.809 14.3683 133.955 13.8549C134.086 13.3923 134.39 13.0381 134.861 12.8019C137.427 11.5132 144.147 14.0482 144.431 14.1567L144.492 14.1799L144.48 14.2438C144.367 14.8534 143.683 15.3752 142.501 15.7531C141.416 16.1001 140.028 16.2836 138.685 16.2836ZM136.812 12.5972C136.074 12.5972 135.419 12.696 134.931 12.9414C134.501 13.1571 134.223 13.4788 134.105 13.8975C133.976 14.3513 134.086 14.7507 134.431 15.0844C135.722 16.3331 139.922 16.4141 142.454 15.6046C143.518 15.2643 144.174 14.7956 144.313 14.2789C143.755 14.0728 139.663 12.5972 136.812 12.5972Z" fill="#363E44"/>
<path d="M144.552 13.973C144.026 13.973 143.371 13.6522 142.628 13.0261C140.563 11.286 138.366 7.61235 138.747 5.80556C138.859 5.27512 139.175 4.93009 139.687 4.77993C140.148 4.64467 140.61 4.71433 141.061 4.9868C143.517 6.474 144.947 13.512 145.006 13.8108L145.019 13.8746L144.959 13.8987C144.834 13.9484 144.698 13.973 144.552 13.973ZM140.143 4.8694C140.005 4.8694 139.868 4.88953 139.731 4.9297C139.278 5.06239 138.998 5.36786 138.9 5.8377C138.529 7.59527 140.695 11.1937 142.728 12.9067C143.583 13.6268 144.329 13.9326 144.84 13.7753C144.686 13.0427 143.255 6.49725 140.98 5.12027C140.704 4.95326 140.424 4.8694 140.143 4.8694Z" fill="#363E44"/>
<path d="M147 12.6513C147 12.6513 145.581 8.48493 147.656 8.63275C149.732 8.78049 147 12.6513 147 12.6513Z" fill="#363E44"/>
<path d="M142.357 15.7885C142.357 15.7885 136.7 14.5285 137.335 17.4627C137.971 20.3969 142.357 15.7885 142.357 15.7885Z" fill="#363E44"/>
<path d="M135.236 56.8066L132.709 70.3474C132.709 70.3474 146.476 69.1371 150.562 57.2389L135.236 56.8066Z" fill="white"/>
<path d="M148.412 56.2928C148.569 57.1762 155.315 67.2177 165.432 68.4773L162.619 54.9395L148.412 56.2928Z" fill="white"/>
<path d="M133.049 26.2806L128.356 59.5013C128.356 59.5013 149.825 62.8706 166.416 57.6988L165.158 32.2705C164.956 30.2135 163.398 28.5494 161.359 28.212C156.526 27.4125 145.631 25.7489 133.049 26.2806Z" fill="#4424DD"/>
<path d="M185.311 33.8914L179.546 30.3147C178.507 29.6703 177.179 29.7875 176.246 30.5773C170.147 35.741 162.788 28.7012 162.788 28.7012L159.203 29.6298L164.174 47.0318C178.932 54.3704 184.872 43.2811 186.735 37.8876C187.253 36.387 186.66 34.7284 185.311 33.8914Z" fill="#4424DD"/>
<path d="M132.559 56.2934C132.559 56.2934 115.867 60.7954 118.314 45.7508C120.183 34.268 126.769 29.5781 129.774 27.3282C131.315 26.1737 133.049 26.2799 133.049 26.2799L132.559 56.2934Z" fill="#4424DD"/>
<path d="M131.808 43.3404C131.804 43.3404 131.799 43.34 131.794 43.3391C131.752 43.3315 131.724 43.291 131.731 43.2485L133.15 35.3455C133.158 35.303 133.199 35.2749 133.241 35.2825C133.283 35.2901 133.312 35.3306 133.304 35.3731L131.885 43.2762C131.878 43.3139 131.845 43.3404 131.808 43.3404Z" fill="#363E44"/>
<path d="M165.066 46.6749C165.029 46.6749 164.997 46.6491 164.989 46.6119L164.142 42.3098C164.133 42.2676 164.161 42.2265 164.203 42.2183C164.245 42.21 164.287 42.2375 164.295 42.2797L165.143 46.5818C165.151 46.6241 165.123 46.6651 165.081 46.6734C165.076 46.6743 165.071 46.6749 165.066 46.6749Z" fill="#363E44"/>
<path d="M195.668 21.6642C195.542 21.3444 195.163 21.3539 194.049 22.0779C195.274 20.6871 195.765 19.6844 195.421 19.1986C195.202 18.89 194.407 19.203 193.522 20.2897C194.253 19.3919 195.386 17.8524 194.837 17.3259C194.339 16.8967 193.235 18.0774 192.461 18.9819L192.461 18.9817C193.331 17.6912 193.497 16.9368 193.13 16.6971C192.602 16.3524 191.674 18.091 189.31 18.8018C187.227 19.4284 185.76 18.7809 184.346 20.0223C183.964 20.3574 183.751 20.6851 183.629 20.8702C182.76 22.1948 180.562 25.82 177.331 30.9732C178.058 32.5073 179.424 33.5982 180.909 34.4928C181.823 35.0428 182.787 35.5343 183.803 35.8631C184.248 36.0068 184.724 36.1299 185.202 36.1702C186.744 32.9892 188.452 29.8923 190.55 25.7114C190.551 25.7113 190.551 25.7111 190.551 25.711C191.351 25.521 192.612 25.1896 193.808 24.2275C194.87 23.3728 195.899 22.2482 195.668 21.6642Z" fill="white"/>
<path d="M187.533 19.8217C188.714 17.6836 188.686 16.6623 188.342 16.486C187.762 16.1895 186.007 17.6024 183.888 20.5099C184.921 20.4092 186.501 19.9223 187.533 19.8217Z" fill="white"/>
<path d="M187.073 23.9401C187.06 23.9401 187.047 23.9369 187.035 23.9304C186.997 23.9096 186.984 23.8622 187.004 23.8245C187.219 23.435 187.621 22.8938 188.319 22.526C189.307 22.0056 190.273 22.1713 190.643 22.2668C190.684 22.2776 190.71 22.3201 190.699 22.3618C190.688 22.4036 190.645 22.4286 190.604 22.4178C190.252 22.327 189.331 22.1689 188.392 22.664C187.728 23.0138 187.345 23.529 187.141 23.8997C187.127 23.9255 187.1 23.9401 187.073 23.9401Z" fill="#363E44"/>
<path d="M185.461 19.5434C185.428 19.5434 185.397 19.5222 185.387 19.4889C185.374 19.4479 185.397 19.404 185.438 19.391C185.955 19.2271 186.5 19.1904 187.076 19.1516C187.344 19.1335 187.622 19.1147 187.912 19.0825C187.955 19.0778 187.993 19.1086 187.998 19.1515C188.003 19.1943 187.972 19.2328 187.929 19.2376C187.636 19.2701 187.357 19.289 187.086 19.3072C186.52 19.3454 185.984 19.3815 185.485 19.5398C185.477 19.5422 185.469 19.5434 185.461 19.5434Z" fill="#363E44"/>
<path d="M190.554 20.1985C190.522 20.1985 190.491 20.1782 190.48 20.1459C190.466 20.1052 190.488 20.0608 190.529 20.0468C190.805 19.9514 191.074 19.8298 191.327 19.6857C191.695 19.4765 192.034 19.218 192.335 18.9173C192.366 18.8869 192.415 18.887 192.446 18.9175C192.476 18.948 192.476 18.9973 192.446 19.0278C192.134 19.3383 191.784 19.6052 191.404 19.8212C191.142 19.9702 190.865 20.0957 190.579 20.1942C190.571 20.1972 190.562 20.1985 190.554 20.1985Z" fill="#363E44"/>
<path d="M191.724 21.3607C191.692 21.3607 191.662 21.3404 191.651 21.3081C191.637 21.2674 191.658 21.223 191.699 21.2089C191.975 21.1134 192.244 20.992 192.497 20.8478C192.865 20.6386 193.204 20.3801 193.506 20.0794C193.536 20.049 193.586 20.049 193.616 20.0796C193.646 20.1101 193.646 20.1595 193.616 20.1899C193.305 20.5004 192.954 20.7673 192.575 20.9834C192.313 21.1322 192.035 21.2577 191.75 21.3563C191.741 21.3593 191.733 21.3607 191.724 21.3607Z" fill="#363E44"/>
<path d="M192.179 23.3157C192.147 23.3157 192.116 23.2955 192.105 23.2632C192.091 23.2225 192.113 23.1781 192.154 23.1639C192.43 23.0685 192.699 22.947 192.952 22.8029C193.32 22.5936 193.659 22.335 193.961 22.0345C193.991 22.0041 194.04 22.0041 194.071 22.0346C194.101 22.0651 194.101 22.1145 194.071 22.1449C193.76 22.4553 193.409 22.7223 193.029 22.9385C192.768 23.0874 192.49 23.2129 192.205 23.3115C192.196 23.3144 192.187 23.3157 192.179 23.3157Z" fill="#363E44"/>
<path d="M175.552 31.7164L178.687 28.4609L187.072 33.0228L185.461 37.2461C185.461 37.2461 181.021 37.9146 178.772 33.408C178.772 33.408 175.992 32.9183 175.552 31.7164Z" fill="white"/>
<path d="M139.24 53.2766C139.231 53.2766 139.222 53.2751 139.214 53.2721C139.173 53.2577 139.152 53.213 139.166 53.1724L145.263 36.0547H158.643C158.687 36.0547 158.721 36.0896 158.721 36.1327C158.721 36.1758 158.687 36.2107 158.643 36.2107H145.373L139.313 53.2247C139.302 53.2566 139.272 53.2766 139.24 53.2766Z" fill="#B5346D"/>
<path d="M153.206 54.0248H139.881L145.959 36.959H159.285L153.206 54.0248Z" fill="#B5346D"/>
<path d="M143.326 27.1014L145.701 24.9316L148.194 26.2911L147.481 31.6337L143.326 27.1014Z" fill="white"/>
<path d="M153.072 27.1014L150.745 24.9316L148.053 26.3605L148.917 31.4902L153.072 27.1014Z" fill="white"/>
<path d="M149.067 47.5695C149.029 46.037 138.503 45.1606 136.539 45.0483C136.086 45.0224 133.82 44.9728 131.025 44.9004C131.016 44.9117 131.008 44.9232 131 44.9344C130.694 45.3442 130.389 45.7461 130.136 46.1917C129.179 47.8783 128.931 49.7571 128.787 51.6594C128.716 52.6015 128.669 53.5633 128.707 54.5185C135.53 54.646 143.205 54.6863 144.247 54.7451C145.219 54.8334 147.458 55.0438 147.568 54.35C147.716 53.4051 145.364 52.8323 145.301 52.7224C146.029 52.8238 148.47 53.0493 148.628 52.2634C148.75 51.6594 146.409 50.715 145.832 50.4545C145.883 50.439 148.67 51.1961 148.897 50.2584C149.09 49.4603 146.9 48.4895 146.363 48.1785C147.05 48.2246 149.086 48.3018 149.067 47.5695Z" fill="white"/>
<path d="M146.391 48.1866C146.381 48.1866 146.37 48.1846 146.36 48.1802C145.985 48.0188 145.596 47.8822 145.203 47.7741C144.498 47.58 143.766 47.4733 143.028 47.4568C142.985 47.4559 142.951 47.4201 142.952 47.3771C142.953 47.3346 142.988 47.3008 143.03 47.3008C143.03 47.3008 143.031 47.3008 143.032 47.3008C143.782 47.3176 144.527 47.4261 145.245 47.6236C145.644 47.7336 146.04 47.8726 146.422 48.0369C146.462 48.0539 146.48 48.0998 146.463 48.1394C146.45 48.169 146.421 48.1866 146.391 48.1866Z" fill="#363E44"/>
<path d="M145.874 50.4854C145.866 50.4854 145.859 50.4843 145.851 50.482C145.769 50.4568 145.685 50.4325 145.6 50.4089C144.894 50.2147 144.162 50.108 143.425 50.0916C143.382 50.0906 143.347 50.0549 143.348 50.0118C143.349 49.9694 143.384 49.9355 143.426 49.9355C143.427 49.9355 143.427 49.9355 143.428 49.9355C144.179 49.9522 144.923 50.0609 145.641 50.2584C145.728 50.2824 145.813 50.3072 145.897 50.3328C145.938 50.3454 145.961 50.3891 145.948 50.4303C145.938 50.4639 145.907 50.4854 145.874 50.4854Z" fill="#363E44"/>
<path d="M145.255 52.7772C145.25 52.7772 145.246 52.7768 145.241 52.7759C144.771 52.6889 144.288 52.6394 143.806 52.6286C143.763 52.6277 143.729 52.5919 143.73 52.5489C143.731 52.5059 143.763 52.4719 143.81 52.4727C144.3 52.4836 144.791 52.534 145.269 52.6225C145.311 52.6303 145.339 52.671 145.332 52.7134C145.325 52.7509 145.292 52.7772 145.255 52.7772Z" fill="#363E44"/>
<path d="M126.971 43.8805C127.101 43.6494 132.851 44.6453 132.851 44.6453C132.851 44.6453 131.108 51.2479 130.876 55.2233H125.961C125.961 55.2233 124.118 50.723 127.292 46.5242C127.292 46.5242 126.295 45.0864 126.971 43.8805Z" fill="white"/>
<path d="M203.202 106.068C192.155 117.224 177.454 124.752 161.041 126.709C161.034 126.707 161.027 126.707 161.02 126.706C163.092 123.675 165.235 120.691 167.416 117.738C168.159 116.732 168.907 115.729 169.657 114.728C170.318 113.849 170.971 112.979 171.747 112.198C173.138 110.8 174.765 109.656 176.484 108.7C179.961 106.767 183.802 105.566 187.639 104.582C191.301 103.645 195.205 103.265 198.904 104.225C200.444 104.625 201.88 105.257 203.202 106.068Z" fill="white"/>
<path d="M226.679 39.7896C222.309 41.3792 217.581 41.1717 213.367 39.2054C209.152 37.2392 205.956 33.7493 204.366 29.3788C202.777 25.0084 202.984 20.2805 204.95 16.0661C206.917 11.8518 210.406 8.65536 214.777 7.06574C219.147 5.47612 223.875 5.68354 228.09 7.64986C232.304 9.61625 235.5 13.106 237.09 17.4764C238.68 21.8469 238.472 26.5747 236.506 30.7891C234.54 35.0035 231.05 38.1999 226.679 39.7896ZM216.656 12.2323C210.483 14.4775 207.288 21.3264 209.533 27.4996C211.778 33.6727 218.627 36.8683 224.8 34.6229C230.973 32.3777 234.169 25.5287 231.923 19.3556C229.678 13.1825 222.829 9.98701 216.656 12.2323Z" fill="#F2E6DC"/>
<path d="M226.444 39.1437C222.247 40.6705 217.705 40.4713 213.657 38.5826C209.609 36.6939 206.539 33.3418 205.012 29.1439C203.485 24.946 203.684 20.4047 205.573 16.3566C207.462 12.3086 210.814 9.2383 215.012 7.71148C219.21 6.18457 223.751 6.38388 227.799 8.27258C231.847 10.1613 234.917 13.5134 236.444 17.7113C237.971 21.9092 237.772 26.4505 235.883 30.4985C233.994 34.5466 230.642 37.6169 226.444 39.1437ZM216.421 11.5865C209.892 13.9613 206.512 21.2052 208.887 27.7345C211.262 34.2637 218.506 37.6436 225.035 35.2687C231.564 32.8939 234.944 25.6499 232.569 19.1207C230.194 12.5915 222.95 9.21162 216.421 11.5865Z" fill="white"/>
<path d="M208.887 27.7335C208.499 26.6673 208.266 25.582 208.173 24.502L204.034 24.5279C204.139 26.0847 204.464 27.636 205.012 29.143C206.273 32.6095 208.587 35.4983 211.634 37.4635L213.674 33.8608C211.543 32.4244 209.831 30.328 208.887 27.7335Z" fill="white"/>
<path d="M221.833 10.8759C226.554 11.2989 230.845 14.3784 232.569 19.1189C233.887 22.7413 233.432 26.5832 231.652 29.692L235.07 32.0301C235.365 31.5363 235.637 31.0251 235.883 30.4968C237.772 26.4488 237.971 21.9075 236.444 17.7096C234.917 13.5117 231.847 10.1596 227.799 8.27087C225.902 7.38573 223.897 6.87174 221.869 6.73242L221.833 10.8759Z" fill="#4424DD"/>
<path d="M208.162 22.5085C208.519 17.7143 211.618 13.3321 216.421 11.585C217.549 11.1747 218.699 10.9364 219.84 10.8562L219.876 6.7168C218.236 6.80253 216.599 7.13265 215.012 7.70998C210.814 9.2368 207.462 12.3071 205.573 16.3551C204.652 18.3299 204.134 20.4221 204.021 22.5344L208.162 22.5085Z" fill="white"/>
<path d="M230.53 31.3379C229.137 33.0687 227.271 34.4529 225.035 35.2661C221.773 36.4528 218.332 36.2026 215.409 34.8406L213.37 38.4416C213.465 38.4882 213.561 38.5349 213.657 38.58C217.705 40.4687 222.247 40.668 226.444 39.1411C229.458 38.0451 232.035 36.1538 233.948 33.6766L230.53 31.3379Z" fill="#917AFF"/>
<path d="M65.9554 39.2527C72.5721 39.1493 77.9049 33.7566 77.9049 27.1153C77.9049 26.9214 77.8993 26.7288 77.8902 26.5371H65.9554V39.2527Z" fill="white"/>
<path d="M64.7577 25.3394H72.1753C71.9876 21.3386 68.6852 18.1523 64.638 18.1523C60.4703 18.1523 57.0916 21.531 57.0916 25.6988C57.0916 29.8666 60.4702 33.2452 64.638 33.2452C64.6782 33.2452 64.7177 33.2428 64.7578 33.2422V25.3394H64.7577Z" fill="#4424DD"/>
<path d="M239.48 58.4161C239.421 58.4161 239.363 58.4109 239.304 58.4003C238.941 58.3342 238.637 58.0688 238.451 57.653C238.269 57.2472 238.22 56.7439 238.312 56.236C238.404 55.7282 238.627 55.2744 238.94 54.9584C239.261 54.6347 239.638 54.4927 240.002 54.5588C240.741 54.6931 241.187 55.6639 240.994 56.723C240.902 57.2309 240.679 57.6846 240.366 58.0006C240.097 58.2725 239.788 58.4161 239.48 58.4161ZM239.827 54.6992C239.561 54.6992 239.29 54.8268 239.051 55.0683C238.76 55.3621 238.552 55.7867 238.466 56.264C238.379 56.7411 238.424 57.2118 238.594 57.5892C238.758 57.9567 239.021 58.1902 239.332 58.2468C239.644 58.3034 239.972 58.177 240.255 57.891C240.546 57.5971 240.754 57.1725 240.841 56.6953C241.018 55.7208 240.629 54.8313 239.974 54.7124C239.925 54.7035 239.876 54.6992 239.827 54.6992Z" fill="#363E44"/>
<path d="M240.134 56.2255C240.653 53.3494 241.21 51.7187 242.679 50.7091C244.654 49.3522 247.151 50.2025 247.41 50.2953C247.576 50.3544 249.98 51.054 250.758 53.4513C251.525 55.8187 251.013 58.5099 249.316 60.2995L250.212 65.724C250.5 67.4655 249.322 69.1106 247.58 69.3985L247.186 69.4638C245.444 69.7517 243.799 68.5733 243.511 66.8318L242.912 63.2082C241.792 63.2984 240.865 63.1227 240.423 62.621C239.63 61.7225 239.522 59.6124 240.134 56.2255Z" fill="white"/>
<path d="M243.719 56.717C243.718 56.717 243.716 56.717 243.715 56.7169L238.426 56.4606C238.383 56.4585 238.35 56.4219 238.352 56.3789C238.354 56.3358 238.392 56.3026 238.434 56.3048L243.723 56.5611C243.766 56.5632 243.799 56.5998 243.797 56.6428C243.795 56.6845 243.76 56.717 243.719 56.717Z" fill="#363E44"/>
<path d="M242.848 63.2091C242.81 63.2091 242.776 63.1808 242.771 63.1418L242.587 61.8094C242.581 61.7667 242.611 61.7273 242.654 61.7215C242.697 61.7155 242.736 61.7454 242.742 61.7881L242.926 63.1205C242.932 63.1632 242.902 63.2026 242.859 63.2084C242.856 63.2089 242.852 63.2091 242.848 63.2091Z" fill="#363E44"/>
<path d="M244.318 58.6755C244.304 58.6755 244.289 58.6714 244.276 58.6629C244.24 58.6394 244.23 58.591 244.253 58.5549C244.497 58.1798 244.647 57.9383 244.757 57.762C244.811 57.6745 244.856 57.6026 244.897 57.5378C244.92 57.5016 244.969 57.491 245.005 57.5144C245.041 57.5376 245.052 57.5859 245.029 57.6222C244.987 57.6864 244.943 57.7576 244.889 57.8442C244.78 58.0212 244.629 58.2636 244.384 58.6402C244.369 58.663 244.344 58.6755 244.318 58.6755Z" fill="#363E44"/>
<path d="M241.927 50.6125C243.465 48.4965 248.306 48.7687 250.506 50.8585C253.482 53.6847 253.081 58.7787 250.552 60.9095C249.703 61.6243 248.245 62.5693 246.45 62.0701C245.402 61.7785 245.357 60.3135 245.353 59.9598C246.234 59.6439 246.756 58.7476 246.6 57.8722C246.443 56.9905 245.639 56.3589 244.83 56.3557C244.293 56.3537 243.896 56.6286 243.738 56.7534C241.783 54.4515 240.83 52.1203 241.927 50.6125Z" fill="#363E44"/>
<path d="M261.612 64.3653C261.612 64.3653 261.612 64.367 261.61 64.3704C261.61 64.3738 261.608 64.3824 261.607 64.3945C261.562 64.6061 261.297 65.9097 261.226 66.6579C258.948 79.0618 253.459 90.341 245.656 99.6078L237.12 101.25L235.574 89.5739L229.441 90.3462L225.796 74.8945C225.796 74.8945 240.073 67.3218 250.001 65.2596C253.755 64.4788 257.971 64.2638 261.61 64.3653H261.612Z" fill="#917AFF"/>
<path d="M250.506 50.8574C250.506 50.8574 249.644 58.7832 245.353 59.9587L242.848 69.6814C242.848 69.6814 243.468 69.8002 244.48 69.8793C244.989 67.7555 245.732 64.9052 245.732 64.9052V69.9421C247.742 69.9885 250.528 69.7891 253.183 68.7125C253.341 67.3343 253.425 65.7355 253.244 64.3074C252.954 62.0357 254.357 64.8457 255.009 67.8081C257.606 66.2557 259.844 63.6347 260.755 59.2718L250.506 50.8574Z" fill="#363E44"/>
<path d="M217.859 64.2164C219.173 61.53 220.175 60.0799 221.903 59.4958C224.226 58.7107 226.447 60.2443 226.676 60.4079C226.823 60.5123 228.995 61.8717 229.091 64.4483C229.187 66.9929 227.931 69.4992 225.762 70.7877L225.132 76.3777C224.929 78.1723 223.311 79.4632 221.516 79.2609L221.11 79.2151C219.315 79.0129 218.024 77.3941 218.226 75.5994L218.647 71.8652C217.52 71.6416 216.656 71.2102 216.36 70.5928C215.83 69.4871 216.313 67.3799 217.859 64.2164Z" fill="white"/>
<path d="M218.606 71.8492C218.602 71.8492 218.599 71.8489 218.595 71.8484C218.552 71.8425 218.523 71.803 218.529 71.7603L218.719 70.3973C218.725 70.3546 218.764 70.3248 218.807 70.3308C218.85 70.3368 218.88 70.3762 218.874 70.4189L218.683 71.7819C218.678 71.821 218.644 71.8492 218.606 71.8492Z" fill="#363E44"/>
<path d="M220.93 67.9702C220.909 67.9702 220.887 67.9612 220.872 67.9435C220.843 67.911 220.847 67.8617 220.879 67.8334C221.053 67.6821 221.207 67.5428 221.37 67.3952C221.503 67.2741 221.641 67.1494 221.797 67.0118C221.829 66.9832 221.879 66.9863 221.907 67.0185C221.936 67.0508 221.932 67.1001 221.9 67.1286C221.745 67.2658 221.608 67.3902 221.474 67.5108C221.311 67.6589 221.156 67.7987 220.982 67.951C220.967 67.9639 220.949 67.9702 220.93 67.9702Z" fill="#363E44"/>
<path d="M232.446 66.0675C232.934 64.6501 232.181 63.1054 230.763 62.6173C230.761 62.6165 230.759 62.616 230.756 62.6152C230.982 62.379 231.163 62.0932 231.277 61.7641C231.697 60.5434 231.048 59.2132 229.827 58.7928C229.572 58.705 229.313 58.6664 229.058 58.6674C229.392 57.4832 228.749 56.2304 227.571 55.8248C226.906 55.5956 226.209 55.6861 225.643 56.0121C225.431 55.1419 224.795 54.3939 223.885 54.0807C222.509 53.6068 221.013 54.3002 220.476 55.6351C220.412 55.6066 220.347 55.5797 220.28 55.5566C219.06 55.1362 217.729 55.785 217.309 57.0056C216.889 58.2263 217.537 59.5565 218.758 59.9769C218.793 59.989 218.829 59.9972 218.864 60.0075C218.291 62.2179 220.49 63.2441 220.615 63.3234C220.023 64.2246 219.432 65.1259 218.84 66.0271C219.181 66.2615 219.58 66.5669 219.922 66.8014C220.49 65.8363 221.035 65.5711 221.649 65.6636C222.615 65.8094 223.187 66.9305 222.971 67.8527C222.774 68.6944 222.194 69.4499 221.262 69.6449C222.179 69.9766 223.148 70.297 224.169 70.5973C224.701 70.754 225.224 70.8984 225.737 71.0314C226.109 70.9343 228.512 70.2625 229.743 67.8946C230.92 67.9544 232.043 67.2377 232.446 66.0675Z" fill="black"/>
<path d="M249.605 103.398C238.076 105.963 231.248 107.59 228.713 108.121C228.448 108.177 227.98 108.277 227.359 108.238C225.058 108.092 224.345 106.263 221.995 105.006C219.329 103.58 217.021 104.286 216.861 103.53C216.749 103.005 217.545 102.494 219.416 102.126C219.417 102.126 219.417 102.126 219.416 102.126C217.963 102.242 215.984 102.312 215.923 101.509C215.901 100.577 218.216 100.221 219.627 100.074C217.919 100.252 216.958 99.8357 217.035 99.3791C217.157 98.6605 218.449 98.2141 220.715 98.0664L220.715 98.0663C219.122 97.7312 218.785 97.4124 218.952 97.0255C219.256 96.319 221.121 96.2327 222.782 96.4092C224.651 96.6078 226.032 97.4103 226.891 97.9371C226.891 97.9372 226.891 97.9373 226.892 97.9372C234.78 95.3033 240.009 93.6093 246.336 91.3523C247.631 90.8905 249.605 103.398 249.605 103.398Z" fill="white"/>
<path d="M241.28 79.2793C251.767 91.4607 255.016 100.691 250.281 103.182C247.598 104.594 239.616 98.9458 232.07 88.6813C235.344 85.69 237.228 82.7958 241.28 79.2793Z" fill="white"/>
<path d="M202.428 80.5645C189.331 83.3498 179.046 86.172 180.169 90.3742C182.547 99.2693 192.427 94.6974 201.21 94.6193C201.54 91.0122 202.122 84.9374 202.428 80.5645Z" fill="white"/>
<path d="M191.381 88.885C191.381 88.885 194.688 79.9898 196.108 75.1508C197.6 70.069 199.062 62.3489 197.98 62.1582C197.363 62.0496 196.946 63.0613 196.011 65.8394C195.917 65.6517 195.544 65.161 194.956 65.1541C194.085 65.1438 193.834 65.837 193.787 65.8901C193.76 65.8239 193.456 65.1184 192.874 65.0129C192.219 64.894 191.727 65.1967 191.438 65.6322C191.367 65.47 191.045 64.8978 190.483 64.8129C189.905 64.7255 189.238 65.054 189.075 65.6419C188.775 66.7206 187.947 69.9432 187.353 71.4625C186.184 74.452 180.606 84.5113 180.058 89.2787C184.109 88.3602 191.381 88.885 191.381 88.885Z" fill="white"/>
<path d="M190.267 67.1984C190.263 67.1984 190.26 67.1981 190.256 67.1976L189.319 67.0615C189.277 67.0553 189.247 67.0157 189.253 66.9731C189.259 66.9304 189.298 66.9008 189.342 66.9071L190.278 67.0432C190.321 67.0494 190.35 67.089 190.344 67.1316C190.339 67.1704 190.305 67.1984 190.267 67.1984Z" fill="#363E44"/>
<path d="M192.646 67.5517C192.643 67.5517 192.64 67.5516 192.637 67.5513L191.574 67.4309C191.531 67.4261 191.501 67.3875 191.505 67.3446C191.51 67.3019 191.548 67.271 191.592 67.2759L192.655 67.3963C192.698 67.4011 192.728 67.4397 192.724 67.4825C192.719 67.5223 192.685 67.5517 192.646 67.5517Z" fill="#363E44"/>
<path d="M194.956 67.7966C194.952 67.7966 194.949 67.7963 194.945 67.7957C194.771 67.7703 194.613 67.7485 194.456 67.7267C194.298 67.7048 194.139 67.6828 193.964 67.6572C193.921 67.6509 193.892 67.6113 193.898 67.5687C193.904 67.5261 193.944 67.4965 193.987 67.5028C194.162 67.5284 194.32 67.5503 194.478 67.5722C194.635 67.594 194.793 67.6158 194.967 67.6413C195.01 67.6476 195.039 67.6872 195.033 67.7298C195.028 67.7687 194.994 67.7966 194.956 67.7966Z" fill="#363E44"/>
<path d="M196.841 68.2364C196.835 68.2364 196.829 68.2358 196.824 68.2345L195.907 68.0312C195.865 68.0218 195.838 67.9802 195.847 67.9381C195.857 67.8961 195.898 67.8695 195.94 67.8788L196.857 68.0822C196.9 68.0916 196.926 68.1332 196.917 68.1753C196.909 68.2116 196.877 68.2364 196.841 68.2364Z" fill="#363E44"/>
<path d="M245.796 81.9556C244.386 79.3036 241.995 77.3014 239.127 76.4075C235.476 75.2691 229.932 74.1671 223.292 74.8722C210.911 76.1871 196.892 80.5651 196.892 80.5651V98.6742L205.919 96.7923L207.893 111.584L244.81 105.298L243.235 94.875L249.605 89.1204L245.796 81.9556Z" fill="#1A0094"/>
<path d="M108.149 112.253C109.301 108.701 102.089 103.179 92.0396 99.92C81.9907 96.6608 72.9104 96.8985 71.7583 100.451C70.6062 104.003 77.8185 109.525 87.8675 112.784C97.9164 116.043 106.997 115.806 108.149 112.253Z" fill="#363E44"/>
<path d="M117.655 91.4353H80.4583C80.4151 91.4353 80.3802 91.4004 80.3802 91.3573C80.3802 91.3142 80.4151 91.2793 80.4583 91.2793H117.655C117.698 91.2793 117.733 91.3142 117.733 91.3573C117.733 91.4004 117.698 91.4353 117.655 91.4353Z" fill="#363E44"/>
<path d="M87.4051 54.8825C86.6176 54.8826 85.7426 54.2222 85.2681 53.1892C84.6812 51.911 84.9266 50.5392 85.8153 50.1309C86.2507 49.9308 86.771 49.9883 87.2797 50.2926C87.779 50.5913 88.2094 51.0942 88.4916 51.7085C88.7738 52.3229 88.8748 52.9771 88.7761 53.5506C88.6756 54.1348 88.3802 54.5667 87.9446 54.7668C87.774 54.8453 87.5919 54.8825 87.4051 54.8825ZM86.3601 50.1701C86.1914 50.1701 86.0299 50.2041 85.8804 50.2728C85.0699 50.6451 84.8588 51.9242 85.41 53.1242C85.9611 54.3242 87.0687 54.9975 87.8795 54.6252C88.267 54.4472 88.5309 54.0562 88.6224 53.5243C88.7158 52.9816 88.619 52.3599 88.3498 51.7739C88.0807 51.1879 87.6722 50.7094 87.1996 50.4267C86.9151 50.2564 86.6286 50.1701 86.3601 50.1701Z" fill="#363E44"/>
<path d="M86.1829 52.2841C84.5766 48.7783 83.3313 46.8765 81.1226 46.0675C78.1542 44.9802 75.2411 46.8853 74.94 47.0887C74.7478 47.2186 71.9035 48.9007 71.6954 52.2193C71.4899 55.4966 73.0272 58.7683 75.7824 60.4997L76.4136 67.7266C76.6163 70.0468 78.6614 71.7633 80.9815 71.5607L81.5071 71.5148C83.8272 71.3121 85.5438 69.267 85.3412 66.9469L84.9196 62.1192C86.3806 61.8675 87.5078 61.3392 87.9094 60.553C88.6286 59.1447 88.0746 56.4125 86.1829 52.2841Z" fill="white"/>
<path d="M81.7356 54.0642C81.7022 54.0642 81.6714 54.0427 81.6611 54.0092C81.6484 53.968 81.6715 53.9243 81.7126 53.9117L88.3881 51.8511C88.4294 51.8384 88.4731 51.8615 88.4857 51.9027C88.4984 51.9439 88.4753 51.9876 88.4342 52.0002L81.7586 54.0608C81.7509 54.063 81.7432 54.0642 81.7356 54.0642Z" fill="#363E44"/>
<path d="M84.9756 62.0775C84.9364 62.0775 84.9026 62.0482 84.8982 62.0084L84.6969 60.2451C84.692 60.2023 84.7227 60.1636 84.7656 60.1587C84.8083 60.1537 84.8471 60.1846 84.8519 60.2274L85.0532 61.9906C85.0582 62.0335 85.0274 62.0721 84.9845 62.077C84.9815 62.0773 84.9785 62.0775 84.9756 62.0775Z" fill="#363E44"/>
<path d="M81.6108 56.763C81.592 56.763 81.5731 56.7562 81.5581 56.7425C81.1209 56.3413 80.8493 56.0809 80.651 55.8906C80.5541 55.7976 80.4743 55.7212 80.4007 55.6527C80.3692 55.6234 80.3674 55.574 80.3967 55.5425C80.4262 55.5109 80.4755 55.5092 80.507 55.5385C80.5811 55.6074 80.6614 55.6844 80.759 55.778C80.9567 55.9677 81.2277 56.2275 81.6636 56.6275C81.6953 56.6566 81.6974 56.706 81.6682 56.7378C81.653 56.7545 81.632 56.763 81.6108 56.763Z" fill="#363E44"/>
<path d="M82.0517 45.6965C79.3921 43.4961 73.2946 45.4299 71.1667 48.8221C68.2892 53.4092 70.4715 59.7885 74.4018 61.6833C75.7204 62.3189 77.8936 63.0489 80.0245 61.8226C81.2688 61.1066 80.8456 59.2195 80.7347 58.7662C79.5052 58.6511 78.5444 57.6765 78.457 56.5066C78.3689 55.3282 79.1894 54.2576 80.2228 53.9884C80.9084 53.8098 81.5052 54.0313 81.749 54.1387C83.493 50.5561 83.9469 47.2643 82.0517 45.6965Z" fill="#363E44"/>
<path d="M57.917 88.65C67.4973 93.0119 73.6512 96.0315 75.7634 96.9618C75.9846 97.0592 76.3742 97.2329 76.9223 97.3116C78.9529 97.6031 79.904 96.122 82.1775 95.4435C84.7572 94.6737 86.6409 95.7166 86.9167 95.0807C87.1085 94.6383 86.5075 94.0426 84.9437 93.3778C84.9436 93.3777 84.9436 93.3775 84.9438 93.3775C86.1892 93.7446 87.8999 94.1677 88.0985 93.4714C88.2854 92.6549 86.3333 91.919 85.1309 91.5323C86.5863 92.0005 87.4987 91.8092 87.5138 91.3931C87.5374 90.738 86.4925 90.1092 84.5453 89.5659V89.5657C85.9935 89.5612 86.3441 89.3419 86.2687 88.9707C86.1309 88.2931 84.5217 87.8768 83.0433 87.7293C81.379 87.5632 80.0312 88.0182 79.1882 88.3254C79.188 88.3255 79.1878 88.3255 79.1875 88.3254C72.791 84.5671 68.542 82.1216 63.4371 78.98C62.3926 78.3374 57.9167 88.6499 57.917 88.65Z" fill="white"/>
<path d="M65.8256 70.7383C57.0682 76.3414 53.7376 85.8202 57.6781 88.5186C59.9109 90.0477 67.5249 85.7952 75.2087 77.373C72.6087 74.3732 69.0612 74.2851 65.8256 70.7383Z" fill="white"/>
<path d="M107.503 94.3113C97.0084 94.8268 90.1928 95.3514 87.8903 95.4359C87.6491 95.4448 87.2236 95.4623 86.6851 95.3328C84.6898 94.8529 84.3408 93.1227 82.4705 91.6503C80.3483 89.9796 78.2178 90.2535 78.1914 89.5596C78.173 89.077 78.9479 88.7449 80.6438 88.7047C80.644 88.7047 80.644 88.7044 80.6438 88.7044C79.3519 88.5853 77.6066 88.3463 77.6739 87.6248C77.7956 86.7958 79.8786 86.8331 81.1375 86.9179C79.6136 86.8152 78.8336 86.2997 78.9703 85.9068C79.1853 85.2884 80.3855 85.0898 82.3943 85.3045L82.3944 85.3043C81.0482 84.7643 80.8013 84.4306 81.0059 84.1131C81.3794 83.5333 83.0276 83.7412 84.4569 84.1508C86.0659 84.6119 87.1555 85.5338 87.8289 86.1316C87.829 86.1318 87.8293 86.1319 87.8296 86.1318C95.1428 85.0003 99.9824 84.2962 105.87 83.2608C107.075 83.0491 107.504 94.3113 107.503 94.3113Z" fill="white"/>
<path d="M101.798 76.5488C109.463 85.3677 112.76 91.6123 108.841 93.9367C106.318 95.4334 100.503 92.4641 94.0811 85.8417C96.504 82.9043 98.7904 80.0393 101.798 76.5488Z" fill="white"/>
<path d="M102.492 92.773C102.479 92.773 102.465 92.7697 102.453 92.7627C99.8675 91.29 96.9531 88.9155 94.0251 85.896C93.995 85.8651 93.9958 85.8156 94.0268 85.7857C94.0577 85.7557 94.107 85.7564 94.1371 85.7874C97.055 88.7965 99.9573 91.1617 102.53 92.6272C102.568 92.6485 102.581 92.6961 102.56 92.7336C102.545 92.7588 102.519 92.773 102.492 92.773Z" fill="#363E44"/>
<path d="M57.0684 78.134C57.0684 78.134 64.1712 64.985 80.7143 65.986C94.4258 66.8156 107.396 80.0391 107.396 80.0391L98.8599 91.0212L95.8668 89.2283L94.4257 100.547L59.3962 99.6501L62.9737 83.9748L57.0684 78.134Z" fill="#453D6E"/>
<path d="M84.0056 117.244H54.9621L49.8583 82.168H78.9017L84.0056 117.244Z" fill="#B5346D"/>
<path d="M96.4895 20.8051H90.5768L93.5332 7.41992L96.4895 20.8051Z" fill="#917AFF"/>
<path d="M102.402 20.8045H96.4894L99.4458 11.3008L102.402 20.8045Z" fill="#FFDCEB"/>
<path d="M108.315 20.805H102.402L105.359 3.42773L108.315 20.805Z" fill="#4424DD"/>
<path d="M114.228 20.8039H108.315L111.271 12.1152L114.228 20.8039Z" fill="#FFFBF8"/>
<path d="M115.337 22.4239H88.9447C88.9016 22.4239 88.8667 22.3889 88.8667 22.3459V11.3007C88.8667 11.2576 88.9016 11.2227 88.9447 11.2227C88.9878 11.2227 89.0227 11.2576 89.0227 11.3007V22.2679H115.337C115.38 22.2679 115.415 22.3028 115.415 22.3459C115.415 22.3889 115.38 22.4239 115.337 22.4239Z" fill="#E6D0BE"/>
</g>
<defs>
<clipPath id="clip0_535_10188">
<rect y="0.583984" width="310" height="103.333" rx="6.2" fill="white"/>
</clipPath>
</defs>
</svg>
