<svg width="310" height="104" viewBox="0 0 310 104" fill="none" xmlns="http://www.w3.org/2000/svg">
<g clip-path="url(#clip0_535_10450)">
<rect y="0.25" width="310" height="103.333" rx="6.2" fill="#FFB244"/>
<path d="M155.129 168.169C219.404 168.169 271.508 116.064 271.508 51.7893C271.508 -12.4851 219.404 -64.5898 155.129 -64.5898C90.8547 -64.5898 38.75 -12.4851 38.75 51.7893C38.75 116.064 90.8547 168.169 155.129 168.169Z" fill="#51691C"/>
<path d="M155 125.284C195.519 125.284 228.367 92.4367 228.367 51.9174C228.367 11.3982 195.519 -21.4492 155 -21.4492C114.481 -21.4492 81.6332 11.3982 81.6332 51.9174C81.6332 92.4367 114.481 125.284 155 125.284Z" fill="#51691C"/>
<path d="M187.519 92.6705L191.252 68.0426L199.107 92.5119H215.397L202.022 45.7031L178.726 49.7628L172.984 89.5678L187.519 92.6705Z" fill="black"/>
<path d="M166.92 34.2805C166.92 34.2802 164.467 19.8826 163.987 17.5978C163.937 17.3586 163.85 16.9359 163.593 16.4375C162.639 14.591 160.871 14.6653 158.982 13.1813C156.839 11.4975 156.586 9.33595 155.904 9.47748C155.43 9.57586 155.296 10.4182 155.671 12.0957C155.671 12.0959 155.671 12.096 155.671 12.0958C155.239 10.854 154.581 9.19523 153.896 9.43554C153.119 9.75531 153.663 11.7949 154.053 13.0126C153.581 11.5386 152.889 10.896 152.541 11.1252C151.991 11.486 152.091 12.7142 152.79 14.6381L152.79 14.6382C151.936 13.4446 151.551 13.2823 151.292 13.5601C150.819 14.0673 151.424 15.6382 152.171 16.945C153.012 18.4161 154.175 19.2652 154.921 19.7832C154.921 19.7834 154.921 19.7836 154.921 19.7838C155.605 27.2494 156.013 32.0528 156.464 38.0919C156.696 41.1992 166.127 40.441 166.92 34.2805Z" fill="#FFC3B1"/>
<path d="M160.397 14.946C160.046 12.2722 160.486 11.2333 160.911 11.1911C161.627 11.1203 162.861 13.2801 163.867 17.1233C162.846 16.6034 161.418 15.4659 160.397 14.946Z" fill="#FFC3B1"/>
<path d="M159.241 19.4647C159.154 19.4647 159.078 19.3998 159.066 19.3107C159.007 18.8597 158.827 18.1941 158.3 17.5837C157.554 16.7199 156.571 16.5167 156.183 16.4695C156.086 16.4576 156.017 16.3695 156.029 16.2727C156.04 16.1756 156.129 16.1068 156.226 16.1185C156.655 16.1707 157.741 16.3955 158.568 17.3527C159.152 18.0294 159.352 18.7662 159.417 19.2651C159.429 19.3619 159.361 19.4505 159.264 19.4632C159.256 19.4643 159.249 19.4647 159.241 19.4647Z" fill="black"/>
<path d="M162.67 15.5948C162.631 15.5948 162.592 15.582 162.559 15.5554C162.117 15.1981 161.587 14.9475 161.025 14.6821C160.753 14.554 160.473 14.4215 160.183 14.2688C160.096 14.2234 160.063 14.1165 160.109 14.03C160.154 13.9437 160.261 13.9104 160.347 13.956C160.631 14.1049 160.908 14.2357 161.176 14.3622C161.757 14.6369 162.307 14.8963 162.781 15.2805C162.857 15.3419 162.869 15.4532 162.807 15.5292C162.773 15.5723 162.722 15.5948 162.67 15.5948Z" fill="black"/>
<path d="M157.171 14.2138C157.131 14.2138 157.09 14.1999 157.056 14.1714C156.799 13.9515 156.56 13.7066 156.347 13.4434C156.039 13.062 155.782 12.6394 155.584 12.1873C155.545 12.0979 155.586 11.9936 155.675 11.9544C155.765 11.9151 155.869 11.9561 155.908 12.0454C156.093 12.4687 156.334 12.8642 156.622 13.2213C156.821 13.4673 157.045 13.6966 157.286 13.9024C157.36 13.9657 157.369 14.0773 157.306 14.1516C157.271 14.1927 157.221 14.2138 157.171 14.2138Z" fill="black"/>
<path d="M155.499 14.9382C155.458 14.9382 155.418 14.9243 155.384 14.8959C155.126 14.6758 154.888 14.4309 154.675 14.1679C154.367 13.7866 154.11 13.3639 153.912 12.9119C153.873 12.8225 153.914 12.7181 154.003 12.6789C154.093 12.6398 154.197 12.6806 154.236 12.7699C154.421 13.1932 154.662 13.5888 154.95 13.9457C155.149 14.1916 155.372 14.4209 155.614 14.6269C155.688 14.6902 155.697 14.8017 155.634 14.8761C155.599 14.9171 155.549 14.9382 155.499 14.9382Z" fill="black"/>
<path d="M154.243 16.7645C154.203 16.7645 154.162 16.7506 154.129 16.7221C153.871 16.502 153.632 16.2571 153.419 15.9941C153.111 15.6128 152.854 15.1902 152.656 14.7381C152.617 14.6487 152.658 14.5444 152.747 14.5052C152.837 14.4659 152.941 14.5068 152.98 14.5962C153.166 15.0195 153.406 15.415 153.694 15.772C153.893 16.0179 154.116 16.247 154.358 16.4531C154.432 16.5165 154.441 16.628 154.378 16.7023C154.343 16.7434 154.293 16.7645 154.243 16.7645Z" fill="black"/>
<path d="M217.652 46.4895C221.164 38.4762 209.361 24.5849 197.771 23.3163C194.421 22.9496 191.048 22.5865 191.048 22.5865C189.349 22.2721 179.941 22.4391 176.34 23.802C165.34 27.9651 155.558 33.376 155.525 38.0842C155.434 51.0294 176.948 38.145 176.948 38.145L176.731 60.4364L207.534 64.36L204.118 41.6412C204.118 41.6412 214.933 52.6936 217.652 46.4895Z" fill="black"/>
<path d="M196.652 23.9062H187.759V52.1462H196.652V23.9062Z" fill="#F7F1EB"/>
<path d="M192.008 52.1456L189.541 49.6785L190.854 28.9729L192.866 28.9297L194.475 49.6785L192.008 52.1456Z" fill="black"/>
<path d="M191.9 30.6067L195.221 25.8125H188.58L191.9 30.6067Z" fill="black"/>
<path d="M197.771 65.4036C197.73 65.4036 197.689 65.3887 197.657 65.3611C197.62 65.3302 197.598 65.286 197.595 65.2385L197.027 56.7277C197.026 56.7083 197.028 56.6889 197.033 56.6701L202.166 37.5658L198.244 37.1177C198.18 37.1103 198.125 37.0684 198.101 37.0085C198.077 36.9486 198.087 36.8801 198.128 36.8301L201.786 32.3583L199.935 23.7255C199.914 23.6301 199.975 23.5361 200.07 23.5157C200.166 23.4953 200.26 23.556 200.28 23.6513L202.15 32.3674C202.161 32.4199 202.148 32.4747 202.114 32.5163L198.606 36.8031L202.41 37.2378C202.461 37.2436 202.507 37.2715 202.536 37.314C202.565 37.3566 202.574 37.4097 202.56 37.4593L197.382 56.7335L197.936 65.0348L207.518 64.1828C207.616 64.1754 207.702 64.2462 207.71 64.3433C207.719 64.4405 207.647 64.5263 207.55 64.535L197.787 65.4029C197.782 65.4034 197.777 65.4036 197.771 65.4036Z" fill="white"/>
<path d="M186.657 22.4052L191.797 20.459L197.771 23.3173L194.474 28.1962L191.848 26.2942L189.508 28.4814L186.657 22.4052Z" fill="white"/>
<path d="M164.787 19.8955L154.045 22.0723L154.996 26.7656L165.738 24.5889L164.787 19.8955Z" fill="white"/>
<path d="M155.525 38.3583L154.066 26.1424L166.191 23.3164L168.32 38.6647L155.525 38.3583Z" fill="black"/>
<path d="M168.227 39.0515C168.139 39.0515 168.063 38.9863 168.052 38.8969L166.836 29.2652C166.824 29.1684 166.892 29.08 166.989 29.0677C167.087 29.0559 167.175 29.1241 167.187 29.221L168.403 38.8527C168.415 38.9495 168.346 39.0379 168.249 39.0502C168.242 39.0511 168.234 39.0515 168.227 39.0515Z" fill="white"/>
<path d="M196.753 52.1465H187.759V55.6078H196.753V52.1465Z" fill="#84524D"/>
<path d="M187.515 64.8613C187.511 64.8613 187.508 64.8612 187.505 64.861L176.094 64.1932C175.997 64.1875 175.922 64.1039 175.928 64.0064C175.934 63.909 176.015 63.8335 176.115 63.8403L187.338 64.4972V59.7041L181.358 36.8116C181.343 36.7566 181.356 36.698 181.392 36.6543C181.428 36.6106 181.483 36.5869 181.54 36.5904L185.557 36.8533L182.222 33.113C182.184 33.0704 182.169 33.0122 182.181 32.9565L184.524 22.5482C184.546 22.453 184.64 22.393 184.736 22.4145C184.831 22.436 184.891 22.5306 184.869 22.6258L182.546 32.9454L186.108 36.94C186.156 36.9937 186.166 37.0707 186.135 37.1352C186.103 37.1997 186.036 37.2393 185.964 37.2341L181.762 36.9591L187.686 59.6365C187.69 59.6511 187.692 59.666 187.692 59.6812V64.6844C187.692 64.7331 187.672 64.7797 187.636 64.813C187.603 64.8441 187.56 64.8613 187.515 64.8613Z" fill="white"/>
<path d="M199.889 57.3918L209.836 62.6042C209.836 62.6042 222.439 43.3752 216.709 40.0068C210.473 36.3409 199.889 57.3918 199.889 57.3918Z" fill="black"/>
<path d="M194.472 17.0814C196.559 16.0193 197.464 13.5903 197.614 11.063C197.726 9.17766 196.753 7.89667 195.33 7.9087C194.351 6.30137 190.677 5.98713 189.13 7.14737C186.288 9.27901 186.459 15.4095 189.638 17.2264C191.738 18.4263 194.282 17.1778 194.472 17.0814Z" fill="white"/>
<path d="M188.297 17.3846C188.905 17.1483 189.111 16.2171 188.757 15.3046C188.402 14.392 187.622 13.8438 187.013 14.0801C186.405 14.3163 186.199 15.2476 186.553 16.1601C186.908 17.0726 187.688 17.6208 188.297 17.3846Z" fill="#FFC3B1"/>
<path d="M197.409 16.6698C197.848 15.7946 197.731 14.8481 197.147 14.5557C196.564 14.2633 195.735 14.7356 195.297 15.6108C194.858 16.4859 194.975 17.4324 195.559 17.7248C196.142 18.0172 196.971 17.5449 197.409 16.6698Z" fill="#FFC3B1"/>
<path d="M196.447 17.1175C196.386 17.1175 196.326 17.0855 196.293 17.0283C196.245 16.9435 196.274 16.8355 196.359 16.7872C196.515 16.6983 196.66 16.5361 196.757 16.3421C196.855 16.1481 196.898 15.9349 196.876 15.7569C196.865 15.6676 196.826 15.5079 196.695 15.4422C196.677 15.4331 196.657 15.4261 196.637 15.4215C196.542 15.3999 196.483 15.3051 196.504 15.2098C196.526 15.1148 196.621 15.055 196.716 15.0767C196.763 15.0875 196.81 15.1041 196.853 15.126C197.06 15.2296 197.192 15.4381 197.227 15.7134C197.257 15.9625 197.203 16.2421 197.074 16.5006C196.944 16.7592 196.752 16.97 196.534 17.0943C196.507 17.1101 196.477 17.1175 196.447 17.1175Z" fill="black"/>
<path d="M187.515 16.6958C187.48 16.6958 187.444 16.6855 187.413 16.6637C187.208 16.5196 187.037 16.2917 186.932 16.022C186.703 15.4313 186.856 14.8393 187.281 14.6743C187.326 14.6567 187.374 14.6446 187.422 14.6382C187.519 14.6258 187.608 14.6937 187.621 14.7905C187.633 14.8874 187.565 14.9762 187.468 14.9888C187.448 14.9915 187.428 14.9966 187.409 15.0039C187.177 15.0939 187.11 15.5016 187.262 15.8942C187.341 16.0964 187.47 16.2715 187.616 16.3744C187.696 16.4306 187.716 16.5408 187.66 16.6207C187.625 16.6696 187.57 16.6958 187.515 16.6958Z" fill="black"/>
<path d="M191.847 26.2966H191.847L189.048 23.2038L188.815 18.1274L194.781 17.8711L195.011 22.953L191.847 26.2966Z" fill="#FFC3B1"/>
<path d="M196.197 14.372C196.088 16.6796 194.725 20.2754 191.767 20.1361C188.809 19.9967 187.791 16.2887 187.899 13.9811C187.958 12.7351 188.246 10.651 189.146 10.0884C189.913 9.6091 191.289 10.9078 192.343 10.9574C193.489 11.0114 194.553 9.7847 195.264 10.4248C195.974 11.0649 196.251 13.2182 196.197 14.372Z" fill="#FFC3B1"/>
<path d="M191.749 21.462C196.546 21.4969 196.31 13.5039 196.31 13.5039L187.822 13.656C187.822 13.656 187.099 21.4281 191.749 21.462Z" fill="white"/>
<path d="M187.878 14.0971C187.881 16.761 189.596 15.4418 191.863 15.4397C194.13 15.4377 196.248 16.8199 196.246 14.156C196.244 11.4921 194.491 11.5177 192.224 11.5197C189.957 11.5217 187.876 11.4331 187.878 14.0971Z" fill="#FFC3B1"/>
<path d="M195.945 13.2447C195.945 13.2447 195.74 13.5543 195.376 13.8581C195.134 14.0601 194.372 14.0496 194.372 14.0496C194.372 14.0496 193.525 14.4515 193.176 14.3757C192.827 14.2999 192.594 14.1913 192.594 14.1913C192.594 14.1913 192.706 14.0214 192.913 13.8097C193.17 13.5458 194.245 13.5058 194.245 13.5058C194.245 13.5058 194.948 12.9792 195.287 13.0447C195.678 13.1202 195.945 13.2447 195.945 13.2447Z" fill="white"/>
<path d="M194.087 13.0718C193.575 13.2164 193.174 13.543 192.916 13.8064C192.954 14.0153 193.043 14.2114 193.176 14.3754C193.525 14.4512 193.989 14.4943 194.452 14.3636C194.824 14.2585 195.137 14.0568 195.38 13.8533C195.442 13.5724 195.404 13.2902 195.288 13.0454C194.949 12.9796 194.518 12.9501 194.087 13.0718Z" fill="black"/>
<path d="M188.298 12.8818C188.298 12.8818 188.499 13.2578 188.881 13.6184C189.093 13.818 189.808 13.7569 189.808 13.7569C189.808 13.7569 190.538 14.3101 190.883 14.2754C191.273 14.2363 191.546 14.1392 191.546 14.1392C191.546 14.1392 191.452 13.9632 191.27 13.7366C191.039 13.4487 190.035 13.2493 190.035 13.2493C190.035 13.2493 189.306 12.711 188.96 12.7458C188.571 12.785 188.298 12.8818 188.298 12.8818Z" fill="white"/>
<path d="M191.271 13.739C191.041 13.4507 190.667 13.0798 190.165 12.885C189.745 12.7225 189.31 12.7121 188.966 12.7464C188.851 12.9845 188.808 13.26 188.865 13.5392C188.87 13.5672 188.878 13.5942 188.886 13.6213C189.097 13.8199 189.362 14.0137 189.68 14.1368C190.1 14.2994 190.534 14.3098 190.879 14.2755C191.056 14.1348 191.191 13.949 191.271 13.739Z" fill="black"/>
<path d="M192.124 16.0045C192.058 16.0045 191.995 15.9673 191.964 15.9038C191.922 15.8157 191.96 15.7102 192.048 15.6682C192.19 15.6002 192.276 15.5254 192.29 15.4575C192.298 15.4161 192.279 15.3746 192.226 15.2748C192.181 15.1907 192.126 15.0861 192.088 14.9452C192.032 14.7387 192.03 14.5186 192.083 14.291C192.106 14.1958 192.201 14.1365 192.296 14.1591C192.391 14.1813 192.45 14.2764 192.428 14.3714C192.388 14.5415 192.388 14.7033 192.429 14.8527C192.457 14.9552 192.498 15.0334 192.538 15.109C192.603 15.2315 192.671 15.3582 192.636 15.5276C192.599 15.7122 192.452 15.8669 192.2 15.9872C192.176 15.9989 192.15 16.0045 192.124 16.0045Z" fill="black"/>
<path d="M191.844 16.9181C191.58 16.9181 191.307 16.7806 191.138 16.5595C191.028 16.4162 190.966 16.2439 190.963 16.0745C190.962 15.9768 191.039 15.8963 191.137 15.8945C191.23 15.8936 191.315 15.9705 191.317 16.0682C191.319 16.1628 191.355 16.2609 191.419 16.3447C191.526 16.4852 191.708 16.5718 191.867 16.5638C191.962 16.5557 192.048 16.6323 192.054 16.7298C192.06 16.8273 191.986 16.911 191.888 16.9167C191.873 16.9177 191.859 16.9181 191.844 16.9181Z" fill="white"/>
<path d="M195.143 9.85397C195.086 9.85397 195.031 9.82679 194.996 9.77636C194.775 9.44929 194.51 9.16625 194.21 8.93508C192.545 7.65177 190.269 8.27494 189.612 8.49657C189.519 8.52792 189.419 8.47789 189.388 8.38544C189.357 8.29291 189.406 8.1926 189.499 8.16141C190.199 7.92575 192.622 7.26465 194.426 8.65501C194.756 8.90927 195.046 9.21973 195.289 9.57798C195.344 9.65881 195.323 9.76874 195.242 9.8235C195.212 9.84419 195.177 9.85397 195.143 9.85397Z" fill="#D3BBA3"/>
<path d="M188.7 10.0922C188.639 10.0922 188.579 10.0607 188.547 10.0042C188.498 9.91978 188.526 9.81161 188.611 9.76254C189.315 9.35313 191.793 8.08441 194.114 8.95045C194.539 9.10913 194.936 9.3326 195.293 9.61484C195.37 9.67538 195.383 9.78652 195.322 9.86309C195.262 9.93982 195.15 9.95273 195.074 9.89227C194.745 9.63288 194.381 9.42746 193.99 9.28169C191.815 8.47 189.459 9.67851 188.788 10.0683C188.76 10.0846 188.73 10.0922 188.7 10.0922Z" fill="#D3BBA3"/>
<path d="M191.129 36.6229L188.69 39.029C187.877 39.8319 186.566 39.8232 185.763 39.0096C184.96 38.1959 184.969 36.8855 185.783 36.0827L188.221 33.6766C189.035 32.8737 190.345 32.8824 191.148 33.696L191.148 33.6961C191.951 34.5097 191.942 35.82 191.129 36.6229Z" fill="#D87355"/>
<path d="M179.885 72.3142C179.792 72.3142 179.714 72.2416 179.709 72.1475L178.244 46.2281C178.241 46.176 178.261 46.1252 178.299 46.0894L188.45 36.5265C188.521 36.4598 188.633 36.4629 188.7 36.5341C188.767 36.6051 188.764 36.717 188.693 36.784L178.602 46.2904L180.062 72.1275C180.067 72.2251 179.993 72.3085 179.895 72.3141C179.892 72.3142 179.888 72.3142 179.885 72.3142Z" fill="#D87355"/>
<path d="M198.041 36.6131L200.48 39.0193C201.294 39.8221 202.604 39.8134 203.407 38.9998C204.21 38.1862 204.201 36.8758 203.387 36.0729L200.949 33.6668C200.135 32.8639 198.825 32.8727 198.022 33.6863L198.022 33.6864C197.219 34.5 197.228 35.8103 198.041 36.6131Z" fill="#D87355"/>
<path d="M209.285 72.3046C209.281 72.3046 209.278 72.3045 209.275 72.3043C209.177 72.2988 209.103 72.2153 209.108 72.1178L210.568 46.2807L200.477 36.7743C200.406 36.7073 200.403 36.5954 200.47 36.5243C200.537 36.4531 200.649 36.45 200.72 36.5168L210.871 46.0796C210.909 46.1155 210.929 46.1662 210.926 46.2184L209.461 72.1377C209.456 72.2319 209.378 72.3046 209.285 72.3046Z" fill="#D87355"/>
<path d="M218.373 54.0645H172.062V134.47H218.373V54.0645Z" fill="#E6D0BE"/>
<path d="M220.197 52.2246H169.693V58.2594H220.197V52.2246Z" fill="#D3BBA3"/>
<path d="M218.871 58.9665H168.367C168.269 58.9665 168.19 58.8873 168.19 58.7897V52.7549C168.19 52.6573 168.269 52.5781 168.367 52.5781H218.871C218.969 52.5781 219.048 52.6573 219.048 52.7549V58.7897C219.048 58.8873 218.969 58.9665 218.871 58.9665ZM168.544 58.613H218.695V52.9318H168.544V58.613Z" fill="black"/>
<path d="M171.923 81.9648C171.825 81.9648 171.746 81.8857 171.746 81.788V58.8057C171.746 58.708 171.825 58.6289 171.923 58.6289C172.021 58.6289 172.1 58.708 172.1 58.8057V81.788C172.1 81.8856 172.021 81.9648 171.923 81.9648Z" fill="black"/>
<path d="M218.418 84.7049C218.321 84.7049 218.242 84.6262 218.241 84.5288L218.153 58.8063C218.153 58.7086 218.232 58.6292 218.329 58.6289C218.421 58.6326 218.506 58.7074 218.506 58.8051L218.595 84.5276C218.595 84.6252 218.516 84.7046 218.419 84.7049C218.419 84.7049 218.418 84.7049 218.418 84.7049Z" fill="black"/>
<path d="M66.5879 49.2867C65.6076 51.8633 64.9507 114.808 64.9507 114.808L79.612 115.351C79.612 115.351 79.2381 83.2451 79.3743 70.2067C81.1741 80.8989 85.9765 111.82 86.8522 114.446C91.5221 114.301 96.6626 115.135 101.333 114.989C96.3664 93.0138 92.0345 62.2525 88.3491 46.0762C82.5117 47.1464 72.4253 48.2166 66.5879 49.2867Z" fill="black"/>
<path d="M90.5516 62.0216C88.3539 62.0216 86.5659 60.2337 86.5659 58.0362C86.5659 57.9385 86.6451 57.8594 86.7427 57.8594C86.8404 57.8594 86.9195 57.9385 86.9195 58.0362C86.9195 60.0389 88.5489 61.6681 90.5517 61.6681C90.6494 61.6681 90.7285 61.7473 90.7285 61.8449C90.7284 61.9425 90.6493 62.0216 90.5516 62.0216Z" fill="white"/>
<path d="M90.6256 56.9644L65.9917 57.067L66.1728 54.0352L89.9998 54.1781L90.6256 56.9644Z" fill="#40484C"/>
<path d="M81.0291 57.6722H77.6083C77.5107 57.6722 77.4315 57.593 77.4315 57.4954V53.712C77.4315 53.6143 77.5107 53.5352 77.6083 53.5352H81.0291C81.1267 53.5352 81.2058 53.6143 81.2058 53.712V57.4954C81.2058 57.5929 81.1267 57.6722 81.0291 57.6722ZM77.7851 57.3186H80.8523V53.8888H77.7851V57.3186Z" fill="#FFB244"/>
<path d="M116.789 32.5667C117.674 32.0753 119.094 31.1936 118.819 30.588C118.554 30.0777 117.275 30.6781 116.353 31.1609C116.353 31.161 116.353 31.1607 116.353 31.1607C117.478 30.3957 117.858 29.8371 117.637 29.5234C117.321 29.0723 116.003 30.1821 113.853 29.9921C111.959 29.8246 110.979 28.823 109.428 29.3716C109.009 29.5196 108.73 29.7165 108.571 29.8273C107.111 30.847 99.8958 36.5353 99.3867 36.9195C97.2495 38.5325 105.683 41.9198 107.223 40.6793C110.794 37.8018 111.235 37.2595 112.618 36.0032C112.618 36.003 112.618 36.003 112.618 36.003C113.329 36.1085 114.461 36.2488 115.744 35.8559C116.883 35.5069 118.083 34.9281 118.086 34.3791C118.087 34.0784 117.777 33.9634 116.637 34.1893C118.083 33.4581 118.806 32.8034 118.685 32.2975C118.608 31.9761 117.861 31.972 116.789 32.5667Z" fill="white"/>
<path d="M112.08 30.2436C113.732 28.8912 114.041 28.0533 113.819 27.7983C113.444 27.3695 111.561 27.9468 108.897 29.6191C109.768 29.8726 111.209 29.9901 112.08 30.2436Z" fill="white"/>
<path d="M112.714 29.8772C112.702 29.8772 112.689 29.876 112.677 29.8732C111.907 29.7071 111.004 29.5904 110.49 29.5524C110.393 29.5453 110.319 29.4605 110.327 29.3631C110.334 29.2657 110.42 29.1915 110.516 29.1999C111.041 29.2387 111.965 29.3578 112.751 29.5276C112.847 29.5482 112.907 29.6423 112.887 29.7376C112.869 29.8206 112.795 29.8772 112.714 29.8772Z" fill="black"/>
<path d="M114.73 31.6544C114.62 31.6544 114.518 31.6495 114.425 31.6451C114.328 31.6403 114.253 31.5574 114.257 31.4599C114.262 31.3623 114.345 31.2896 114.443 31.2919C114.661 31.3024 114.909 31.3144 115.177 31.2607C115.513 31.1936 116.029 31.0094 116.523 30.7801C116.612 30.7392 116.717 30.7774 116.758 30.866C116.799 30.9545 116.761 31.0597 116.672 31.1008C116.146 31.3447 115.614 31.5341 115.247 31.6073C115.062 31.6441 114.888 31.6544 114.73 31.6544Z" fill="black"/>
<path d="M115.072 32.97C115.045 32.97 115.02 32.9695 114.998 32.9685C114.9 32.9638 114.825 32.8809 114.83 32.7834C114.835 32.686 114.919 32.6125 115.015 32.6153C115.211 32.6247 115.732 32.5769 116.018 32.513C116.239 32.4639 116.52 32.3706 116.876 32.2276C116.967 32.1912 117.07 32.2354 117.106 32.3259C117.143 32.4165 117.099 32.5195 117.008 32.5558C116.633 32.706 116.334 32.8049 116.095 32.8581C115.823 32.9184 115.341 32.97 115.072 32.97Z" fill="black"/>
<path d="M114.943 34.7078C114.873 34.7078 114.803 34.7061 114.733 34.7027C114.635 34.6981 114.56 34.6152 114.565 34.5177C114.569 34.4202 114.653 34.3479 114.75 34.3495C114.999 34.3615 115.249 34.3504 115.495 34.3165C115.731 34.2839 116.181 34.2062 116.535 34.0519C116.625 34.0128 116.729 34.054 116.768 34.1434C116.807 34.2329 116.766 34.3372 116.677 34.3761C116.283 34.5472 115.798 34.6317 115.543 34.6667C115.345 34.6941 115.144 34.7078 114.943 34.7078Z" fill="black"/>
<path d="M60.167 32.9668C58.0171 36.7032 49.7535 48.7297 54.3069 51.7066C57.93 54.0752 65.3316 42.6435 67.7069 39.0715C65.1609 37.2986 62.7131 34.7397 60.167 32.9668Z" fill="white"/>
<path d="M53.8589 44.2342C53.8589 44.2342 59.7356 30.6236 63.708 27.2165C66.8599 24.513 73.6534 23.4481 80.0608 23.5653C88.7357 23.7239 92.6806 27.3773 92.6806 27.3773L99.8998 36.0674L107.042 30.9144L111.391 37.1575C111.391 37.1575 103.838 45.5039 100.441 46.1C95.5133 46.9645 89.2589 42.142 89.2589 42.142L90.7296 53.6326C90.8094 54.2562 90.3273 54.8098 89.6985 54.8164L66.3737 55.058C65.4976 55.0671 64.8325 54.2717 64.9967 53.411L67.2357 41.6695L64.3973 44.937L53.8589 44.2342Z" fill="black"/>
<path d="M88.5537 26.2408C88.544 26.2408 88.5343 26.24 88.5245 26.2384L83.4253 25.3832C83.3683 25.3736 83.3197 25.3369 83.2949 25.2848C83.27 25.2328 83.2723 25.1718 83.3007 25.1215L83.9973 23.894C84.0342 23.8292 84.1084 23.7949 84.181 23.8071L89.3268 24.6914C89.3846 24.7014 89.4339 24.7396 89.458 24.7931C89.4821 24.8467 89.478 24.9088 89.447 24.9588L88.704 26.1571C88.6713 26.2098 88.6142 26.2408 88.5537 26.2408ZM83.733 25.0762L88.466 25.87L89.0083 24.9955L84.2434 24.1766L83.733 25.0762Z" fill="white"/>
<path d="M67.4186 26.6568C67.3581 26.6568 67.301 26.6257 67.2684 26.5732L66.5253 25.3748C66.4943 25.3248 66.4903 25.2627 66.5143 25.2091C66.5385 25.1555 66.5877 25.1174 66.6456 25.1074L71.7913 24.2232C71.8642 24.2108 71.9381 24.2453 71.975 24.3101L72.6715 25.5376C72.7 25.5879 72.7022 25.6488 72.6774 25.7009C72.6526 25.753 72.6039 25.7897 72.547 25.7992L67.4478 26.6545C67.438 26.656 67.4283 26.6568 67.4186 26.6568ZM66.9641 25.4114L67.5063 26.286L72.2393 25.4922L71.7288 24.5926L66.9641 25.4114Z" fill="white"/>
<path d="M107.66 38.2732C107.606 38.2732 107.553 38.2483 107.518 38.2014L103.844 33.2251C103.786 33.1466 103.802 33.0358 103.881 32.9779C103.96 32.9199 104.07 32.9367 104.128 33.0151L107.803 37.9913C107.86 38.0699 107.844 38.1806 107.765 38.2386C107.734 38.262 107.697 38.2732 107.66 38.2732Z" fill="white"/>
<path d="M69.5132 57.9194L69.0528 57.7008C68.313 57.3493 67.9981 56.4648 68.3494 55.7249L80.9151 29.269C81.2665 28.5291 82.1511 28.2143 82.8909 28.5656L83.3514 28.7843C84.0912 29.1357 84.4061 30.0203 84.0547 30.7601L71.4891 57.2161C71.1377 57.956 70.253 58.2709 69.5132 57.9194Z" fill="#84524D"/>
<path d="M82.6019 46.7285L75.7792 46.6413C75.169 46.6336 74.6807 46.1326 74.6884 45.5224L74.6891 45.4697C74.6969 44.8595 75.1978 44.3712 75.808 44.379L82.6307 44.4662C83.2409 44.4739 83.7292 44.9749 83.7214 45.5851L83.7208 45.6378C83.713 46.248 83.212 46.7364 82.6019 46.7285Z" fill="#84524D"/>
<path d="M69.4599 45.7598C73.4445 46.7681 71.6734 46.1798 72.5934 46.4032C74.3133 46.8208 78.0033 47.6088 77.966 48.8226C77.9536 49.2264 77.6662 49.608 77.2388 49.8329C77.5785 50.2241 77.6551 50.7727 77.4344 51.2171C77.1445 51.8011 76.4991 51.8872 76.4516 51.8927C76.7523 52.1584 76.8993 52.5486 76.8171 52.9047C76.7037 53.396 76.1679 53.7622 75.5633 53.6814C75.6008 53.7889 75.721 54.176 75.5403 54.5792C75.3402 55.0259 74.8515 55.3118 74.303 55.3004C72.7746 54.9306 70.2502 54.6938 67.3078 54.247C60.4961 53.2125 66.8251 46.9943 69.4599 45.7598Z" fill="white"/>
<path d="M75.4078 48.9542C75.3902 48.9542 75.3724 48.9515 75.3548 48.946C75.2616 48.9168 75.2097 48.8176 75.239 48.7244L75.472 47.9813C75.5012 47.8882 75.6003 47.8364 75.6936 47.8656C75.7867 47.8947 75.8386 47.994 75.8093 48.0872L75.5763 48.8302C75.5528 48.9058 75.483 48.9542 75.4078 48.9542Z" fill="black"/>
<path d="M74.8192 50.841C74.8016 50.841 74.7838 50.8384 74.7662 50.8328C74.673 50.8036 74.6211 50.7044 74.6504 50.6112L74.8834 49.8681C74.9126 49.7747 75.0118 49.7231 75.105 49.7523C75.1982 49.7815 75.2501 49.8807 75.2208 49.9739L74.9878 50.717C74.9641 50.7926 74.8944 50.841 74.8192 50.841Z" fill="black"/>
<path d="M74.2413 52.7686C74.2237 52.7686 74.2059 52.766 74.1884 52.7605C74.0951 52.7313 74.0432 52.6321 74.0725 52.539L74.3054 51.7959C74.3345 51.7025 74.4338 51.6508 74.527 51.68C74.6202 51.7092 74.672 51.8084 74.6428 51.9015L74.4099 52.6446C74.3863 52.7202 74.3165 52.7686 74.2413 52.7686Z" fill="black"/>
<path d="M73.681 54.505C73.6634 54.505 73.6456 54.5024 73.628 54.4968C73.5348 54.4676 73.4829 54.3684 73.5122 54.2753L73.7452 53.5322C73.7744 53.4389 73.8735 53.3871 73.9668 53.4164C74.06 53.4456 74.1119 53.5448 74.0826 53.6379L73.8496 54.381C73.8259 54.4566 73.7562 54.505 73.681 54.505Z" fill="black"/>
<path d="M64.5546 44.7558L70.4754 45.9873L68.0761 54.446L55.6713 52.4614C54.1082 52.2113 52.9584 50.8644 52.9581 49.2832L52.958 48.9891C52.9577 47.2797 53.2947 45.5871 53.9496 44.0078L64.5546 44.7558Z" fill="black"/>
<path d="M64.3869 53.911C64.3725 53.911 64.358 53.9093 64.3435 53.9056C64.2488 53.8818 64.1914 53.7856 64.2153 53.691L65.6548 47.9908C65.6788 47.8961 65.7756 47.8394 65.8695 47.8626C65.9642 47.8865 66.0216 47.9827 65.9977 48.0773L64.5581 53.7774C64.5379 53.8577 64.4659 53.911 64.3869 53.911Z" fill="white"/>
<path d="M123.092 32.783C123.394 31.465 120.263 29.6253 116.101 28.674C111.938 27.7227 108.32 28.0201 108.019 29.3381C107.717 30.6561 110.848 32.4958 115.01 33.4471C119.173 34.3983 122.791 34.101 123.092 32.783Z" fill="#D67A00"/>
<path d="M123.644 30.4117L108.57 26.9668L108.008 29.4256L123.082 32.8705L123.644 30.4117Z" fill="#D67A00"/>
<path d="M123.625 30.4529C123.926 29.1349 120.796 27.2952 116.634 26.3439C112.471 25.3927 108.852 25.69 108.551 27.008C108.25 28.326 111.38 30.1657 115.543 31.117C119.705 32.0683 123.324 31.7709 123.625 30.4529Z" fill="#FFB244"/>
<path d="M120.912 32.0594C119.604 32.0594 118.048 31.8772 116.391 31.4985C112.069 30.5105 108.939 28.6124 109.267 27.1777C109.596 25.7429 113.239 25.393 117.561 26.381C121.884 27.3691 125.013 29.2671 124.685 30.702C124.483 31.5871 123.019 32.0594 120.912 32.0594ZM113.021 26.169C111.037 26.169 109.762 26.5991 109.612 27.2565C109.368 28.3257 112.065 30.147 116.47 31.1539C120.875 32.1611 124.096 31.6926 124.34 30.6233C124.585 29.554 121.887 27.7327 117.482 26.7258C115.786 26.3379 114.264 26.169 113.021 26.169Z" fill="white"/>
<path d="M74.1705 20.521C75.2388 21.5212 78.8881 19.695 78.8881 19.695L81.3415 15.9577C81.6184 13.9179 80.1892 12.0397 78.1492 11.7628C76.1092 11.486 74.2309 12.915 73.954 14.955C73.954 14.955 73.0825 19.5024 74.1705 20.521Z" fill="white"/>
<path d="M80.16 24.8553C78.1799 25.9354 76.4489 25.8131 74.9523 24.5584L76.22 15.2207L81.3471 15.9167L80.16 24.8553Z" fill="white"/>
<path d="M74.2466 15.9844C74.2466 15.9844 73.0632 16.9292 73.0794 17.2232C73.0988 17.5741 74.2245 17.9395 74.2245 17.9395C74.2245 17.9395 74.2187 15.9833 74.2466 15.9844Z" fill="white"/>
<path d="M75.4585 21.002C75.3664 21.002 75.2889 20.9308 75.2823 20.8376C75.2755 20.7402 75.3488 20.6557 75.4463 20.6489C77.1063 20.5325 78.7544 19.562 78.7709 19.5522C78.855 19.5024 78.9633 19.5299 79.0132 19.6136C79.0631 19.6975 79.0357 19.806 78.9518 19.8559C78.8818 19.8977 77.2167 20.8792 75.471 21.0015C75.4669 21.0019 75.4626 21.002 75.4585 21.002Z" fill="black"/>
<path d="M74.9121 18.771C74.8635 18.771 74.8152 18.7511 74.7802 18.7121C74.7151 18.6392 74.7214 18.5275 74.7942 18.4624C75.2222 18.0798 75.5125 18.0569 75.8981 18.1483C75.9931 18.1708 76.0519 18.2662 76.0294 18.3611C76.0068 18.4561 75.9111 18.5142 75.8166 18.4923C75.5587 18.4311 75.3829 18.4099 75.0297 18.7259C74.9961 18.7561 74.9541 18.771 74.9121 18.771Z" fill="black"/>
<path d="M78.0028 16.0716C78.0028 16.0716 77.3746 15.6151 76.5576 15.5042C76.3838 15.4806 76.5229 16.916 76.6986 16.8596C77.471 16.6119 78.0028 16.0716 78.0028 16.0716Z" fill="white"/>
<path d="M76.0148 15.4883C76.2008 15.4729 76.3824 15.4811 76.5556 15.5045C76.8446 15.9131 76.8844 16.4266 76.6993 16.8594C76.5233 16.9159 76.3351 16.9573 76.1376 16.9737C75.0735 17.0617 74.1495 16.3903 74.1495 16.3903C74.1495 16.3903 74.9507 15.5763 76.0148 15.4883Z" fill="black"/>
<path d="M79.0791 18.4217C78.9966 18.4217 78.9226 18.3635 78.9059 18.2794C78.8869 18.1837 78.949 18.0907 79.0448 18.0716C79.5964 17.962 80.0586 17.5551 80.2221 17.0352C80.3489 16.6321 80.2517 16.1158 79.8738 15.9844C79.596 15.8877 79.1899 16.0426 78.9492 16.3366C78.8874 16.4122 78.7761 16.4232 78.7004 16.3614C78.6249 16.2996 78.6138 16.1882 78.6756 16.1126C79.0095 15.7048 79.5744 15.5061 79.9899 15.6504C80.5759 15.8542 80.7396 16.5684 80.5594 17.1413C80.3576 17.7827 79.7902 18.2839 79.1136 18.4184C79.1022 18.4206 79.0905 18.4217 79.0791 18.4217Z" fill="black"/>
<path d="M79.161 17.5611C79.0807 17.5611 79.0079 17.5059 78.989 17.4243C78.9668 17.3292 79.0261 17.2341 79.1212 17.2121C79.2445 17.1836 79.3453 17.0896 79.3779 16.9729C79.3975 16.9025 79.3803 16.8192 79.3438 16.8078C79.3188 16.7997 79.2463 16.822 79.2009 16.8811C79.1415 16.9587 79.0305 16.9733 78.953 16.9138C78.8755 16.8544 78.8609 16.7435 78.9203 16.666C79.0496 16.4972 79.2718 16.4149 79.4492 16.4703C79.7004 16.5489 79.7832 16.8358 79.7184 17.068C79.6515 17.3074 79.4485 17.4991 79.2011 17.5565C79.1877 17.5596 79.1742 17.5611 79.161 17.5611Z" fill="black"/>
<path d="M73.9363 12.7237L73.8486 11.0488C73.8486 11.0488 77.2103 12.3073 78.232 12.8224C79.2302 13.3257 82.008 15.118 82.008 15.118L81.2723 16.358L73.9363 12.7237Z" fill="#D87355"/>
<path d="M83.7758 14.0192L82.008 15.1184C82.008 15.1184 77.433 12.042 73.8579 11.2596L73.2655 8.64028C73.2205 8.43205 73.4268 8.2332 73.678 8.2603C75.5422 8.4614 80.3128 9.94517 83.9553 13.4816C84.1164 13.6381 83.976 13.8946 83.7758 14.0192Z" fill="black"/>
<path d="M73.941 12.7227C73.941 12.7227 72.9059 12.7698 72.5802 12.7826C72.0709 12.8028 71.4032 12.9428 71.3019 13.243C71.2268 13.4656 71.0685 13.6732 72.6778 14.0759C75.1188 14.6867 81.291 16.3568 81.291 16.3568C81.291 16.3568 78.4215 14.833 77.4402 14.3477C76.584 13.9244 73.941 12.7227 73.941 12.7227Z" fill="black"/>
<path d="M78.1642 25.6337L80.4569 22.5566L82.1463 23.8237L81.9049 26.6594L78.1642 25.6337Z" fill="black"/>
<path d="M77.8625 25.6328L75.0267 22.8574L73.458 24.5468L74.7854 26.7791L77.8625 25.6328Z" fill="black"/>
<path d="M258.203 64.0993C255.339 61.6922 253.031 59.771 252.041 58.99C251.646 58.6787 250.952 58.126 249.889 57.679C245.95 56.0226 243.259 58.6673 238.32 58.6197C237.16 58.6085 229.734 55.1752 228.58 56.8331C228.012 57.6502 228.861 59.119 231.664 61.2723C231.664 61.2724 231.664 61.273 231.664 61.2727C229.346 59.8815 226.121 58.1319 225.356 59.4149C224.551 60.9436 226.667 62.6756 228.783 64.0233C226.37 62.4866 225.693 63.0459 225.445 63.8675C225.054 65.1609 226.831 66.9675 230.47 69.0818C230.47 69.0818 230.47 69.0821 230.47 69.0821C227.549 68.3242 226.727 68.5757 226.685 69.3554C226.608 70.7792 229.632 72.4611 232.534 73.5381C235.801 74.7505 238.755 74.5575 240.615 74.3914C240.616 74.3914 240.616 74.3915 240.616 74.3919C247.6 81.3483 252.97 86.7353 258.202 92.0518L258.203 64.0993Z" fill="#D38C79"/>
<path d="M242.88 59.539C238.801 55.783 238.126 53.5638 238.741 52.9363C239.777 51.881 244.572 53.662 251.226 58.4003C248.929 58.926 245.177 59.0132 242.88 59.539Z" fill="#D38C79"/>
<path d="M245.825 66.3136C243.806 66.3136 241.741 62.6349 241.397 58.4119C241.389 58.3147 241.462 58.2293 241.559 58.2214C241.657 58.2127 241.742 58.286 241.75 58.3832C242.104 62.7333 244.189 65.96 245.826 65.96C245.834 65.96 245.841 65.9595 245.848 65.9599C245.945 65.9599 246.024 66.0372 246.025 66.1339C246.027 66.2315 245.949 66.3119 245.851 66.3134C245.843 66.3136 245.834 66.3136 245.825 66.3136Z" fill="black"/>
<path d="M236.592 62.5349C236.591 62.5349 236.591 62.5349 236.59 62.5349C235.904 62.5279 235.216 62.4571 234.546 62.3246C233.572 62.1324 232.626 61.8093 231.733 61.3643C231.645 61.3208 231.61 61.2146 231.653 61.1273C231.697 61.04 231.803 61.0042 231.89 61.0479C232.755 61.4788 233.672 61.7916 234.614 61.9778C235.264 62.1061 235.93 62.1747 236.594 62.1814C236.691 62.1824 236.77 62.2624 236.769 62.36C236.768 62.457 236.689 62.5349 236.592 62.5349Z" fill="black"/>
<path d="M234.908 65.8805C234.907 65.8805 234.906 65.8805 234.906 65.8805C234.22 65.8735 233.532 65.8028 232.861 65.6703C231.888 65.478 230.942 65.155 230.048 64.7101C229.961 64.6665 229.925 64.5605 229.969 64.4731C230.012 64.3858 230.118 64.3499 230.206 64.3937C231.071 64.8245 231.988 65.1374 232.93 65.3235C233.579 65.4518 234.245 65.5202 234.909 65.527C235.007 65.5281 235.085 65.608 235.084 65.7056C235.083 65.8025 235.004 65.8805 234.908 65.8805Z" fill="black"/>
<path d="M235.334 70.4176C235.333 70.4176 235.333 70.4176 235.332 70.4176C234.646 70.4106 233.958 70.3399 233.287 70.2074C232.314 70.0151 231.368 69.6921 230.474 69.2472C230.387 69.2036 230.352 69.0975 230.395 69.0101C230.439 68.9228 230.545 68.8871 230.632 68.9308C231.497 69.3615 232.414 69.6744 233.356 69.8606C234.005 69.9889 234.671 70.0574 235.336 70.0641C235.433 70.0651 235.511 70.145 235.511 70.2427C235.51 70.3396 235.431 70.4176 235.334 70.4176Z" fill="black"/>
<path d="M257.166 106.915L258.118 86.2758C254.565 79.5485 251.253 73.3232 250.139 71.3813C249.889 70.9453 249.45 70.1737 248.631 69.3625C245.593 66.357 242.181 67.6254 237.545 65.9227C232.285 63.9906 231.37 59.6771 230.127 60.3866C229.263 60.8801 228.582 62.8596 230.38 65.9026C230.38 65.9029 230.38 65.9032 230.379 65.903C228.748 63.7481 226.407 60.9222 225.219 61.8275C223.903 62.9461 226.263 66.5892 227.798 68.7232C225.939 66.1401 224.178 65.3226 223.642 65.9924C222.797 67.0468 223.772 69.3855 226.36 72.704C226.361 72.7042 226.36 72.7043 226.36 72.7043C223.933 70.9122 223.077 70.8393 222.747 71.5471C222.144 72.8394 224.324 75.5276 226.615 77.6088C229.194 79.9516 232.007 80.8738 233.795 81.4131C233.795 81.4132 233.796 81.4136 233.796 81.414C238.585 92.5766 241.361 99.0944 244.897 107.64L257.166 106.915Z" fill="#FFC3B1"/>
<path d="M241.433 68.4756C239.048 63.4697 239.249 61.1586 240.054 60.8059C241.409 60.2128 245.194 63.6531 249.602 70.5302C247.275 70.1619 243.76 68.844 241.433 68.4756Z" fill="#FFC3B1"/>
<path d="M246.179 68.1335C246.158 68.1335 246.136 68.1298 246.115 68.1217C245.004 67.6952 243.796 67.5408 242.517 67.3773C241.907 67.2993 241.276 67.2187 240.616 67.105C240.52 67.0884 240.455 66.997 240.472 66.9009C240.489 66.8045 240.579 66.7396 240.676 66.7566C241.329 66.8689 241.955 66.9491 242.562 67.0266C243.863 67.1928 245.091 67.3499 246.242 67.7917C246.333 67.8267 246.379 67.929 246.344 68.0201C246.317 68.0903 246.25 68.1335 246.179 68.1335Z" fill="black"/>
<path d="M234.548 68.9234C234.525 68.9234 234.502 68.919 234.48 68.9099C233.846 68.6476 233.234 68.3256 232.661 67.9526C231.83 67.4114 231.072 66.7588 230.409 66.013C230.344 65.94 230.351 65.8283 230.424 65.7633C230.497 65.6986 230.608 65.7051 230.673 65.778C231.315 66.5003 232.049 67.1322 232.854 67.6564C233.409 68.0173 234.001 68.3292 234.615 68.5831C234.705 68.6205 234.748 68.7239 234.711 68.8141C234.683 68.8823 234.617 68.9234 234.548 68.9234Z" fill="black"/>
<path d="M231.737 71.4018C231.715 71.4018 231.692 71.3974 231.67 71.3884C231.036 71.1262 230.424 70.8042 229.851 70.4312C229.019 69.8898 228.262 69.2372 227.599 68.4915C227.534 68.4184 227.54 68.3067 227.613 68.2419C227.686 68.1772 227.798 68.1836 227.863 68.2565C228.505 68.9787 229.239 69.6106 230.044 70.1349C230.599 70.4959 231.191 70.8078 231.805 71.0615C231.895 71.0989 231.938 71.2023 231.901 71.2925C231.872 71.3607 231.807 71.4018 231.737 71.4018Z" fill="black"/>
<path d="M230.441 75.7711C230.419 75.7711 230.396 75.7666 230.374 75.7575C229.739 75.4951 229.128 75.173 228.555 74.8003C227.723 74.2591 226.966 73.6064 226.303 72.8606C226.238 72.7876 226.244 72.6759 226.317 72.611C226.39 72.5462 226.502 72.5528 226.567 72.6257C227.209 73.348 227.943 73.9799 228.748 74.504C229.302 74.8648 229.895 75.1768 230.509 75.4308C230.599 75.4681 230.642 75.5716 230.605 75.6618C230.576 75.7299 230.51 75.7711 230.441 75.7711Z" fill="black"/>
<path d="M258.256 108.931V81.2727L256.757 77.8867L236.592 92.0515L243.888 108.931H258.256Z" fill="#776E42"/>
<path d="M234.907 53.0447C234.828 53.0447 234.756 52.9907 234.736 52.91L233.092 46.1935C233.069 46.0986 233.127 46.003 233.221 45.9797C233.316 45.9565 233.412 46.0145 233.435 46.1094L235.079 52.8258C235.103 52.9207 235.044 53.0164 234.95 53.0396C234.935 53.0431 234.921 53.0447 234.907 53.0447Z" fill="white"/>
<path d="M229.846 54.3304C229.789 54.3304 229.733 54.3029 229.699 54.252L225.034 47.287C224.98 47.2059 225.001 47.0961 225.083 47.0416C225.163 46.9874 225.273 47.0089 225.328 47.0902L229.993 54.0552C230.047 54.1363 230.026 54.2461 229.945 54.3005C229.914 54.3207 229.88 54.3304 229.846 54.3304Z" fill="white"/>
<path d="M225.488 57.3287C225.451 57.3287 225.414 57.3173 225.382 57.2937L220.429 53.6076C220.351 53.5493 220.335 53.4385 220.393 53.3602C220.451 53.282 220.562 53.2658 220.64 53.324L225.594 57.0101C225.672 57.0684 225.688 57.1791 225.63 57.2576C225.595 57.3041 225.542 57.3287 225.488 57.3287Z" fill="white"/>
<path d="M141.667 107.664C147.575 107.664 152.365 106.147 152.365 104.276C152.365 102.405 147.575 100.889 141.667 100.889C135.758 100.889 130.969 102.405 130.969 104.276C130.969 106.147 135.758 107.664 141.667 107.664Z" fill="#FFB244"/>
<path d="M142.927 107.84C136.829 107.84 132.052 106.274 132.052 104.275C132.052 102.277 136.829 100.711 142.927 100.711C149.025 100.711 153.802 102.277 153.802 104.275C153.802 106.274 149.025 107.84 142.927 107.84ZM142.927 101.065C137.224 101.065 132.406 102.535 132.406 104.275C132.406 106.016 137.224 107.486 142.927 107.486C148.63 107.486 153.448 106.016 153.448 104.275C153.448 102.535 148.63 101.065 142.927 101.065Z" fill="white"/>
<path d="M143.77 105.457C149.678 105.457 154.468 103.94 154.468 102.069C154.468 100.198 149.678 98.6816 143.77 98.6816C137.861 98.6816 133.072 100.198 133.072 102.069C133.072 103.94 137.861 105.457 143.77 105.457Z" fill="#D67A00"/>
<path d="M154.468 98.6953H133.072V102.185H154.468V98.6953Z" fill="#D67A00"/>
<path d="M143.77 102.148C149.678 102.148 154.468 100.631 154.468 98.7606C154.468 96.8897 149.678 95.373 143.77 95.373C137.861 95.373 133.072 96.8897 133.072 98.7606C133.072 100.631 137.861 102.148 143.77 102.148Z" fill="#FFB244"/>
<path d="M145.03 102.326C138.932 102.326 134.155 100.76 134.155 98.7616C134.155 96.7629 138.932 95.1973 145.03 95.1973C151.128 95.1973 155.905 96.7629 155.905 98.7616C155.905 100.76 151.128 102.326 145.03 102.326ZM145.03 95.5509C139.327 95.5509 134.509 97.0212 134.509 98.7616C134.509 100.502 139.327 101.972 145.03 101.972C150.733 101.972 155.551 100.502 155.551 98.7616C155.551 97.0212 150.733 95.5509 145.03 95.5509Z" fill="white"/>
<path d="M163.838 110.312C169.89 110.312 174.796 108.759 174.796 106.843C174.796 104.926 169.89 103.373 163.838 103.373C157.787 103.373 152.881 104.926 152.881 106.843C152.881 108.759 157.787 110.312 163.838 110.312Z" fill="#FFB244"/>
<path d="M165.129 110.488C158.886 110.488 153.995 108.886 153.995 106.842C153.995 104.797 158.886 103.195 165.129 103.195C171.373 103.195 176.264 104.797 176.264 106.842C176.264 108.886 171.373 110.488 165.129 110.488ZM165.129 103.549C159.286 103.549 154.349 105.057 154.349 106.842C154.349 108.627 159.286 110.135 165.129 110.135C170.973 110.135 175.91 108.627 175.91 106.842C175.91 105.057 170.973 103.549 165.129 103.549Z" fill="white"/>
<path d="M161.579 108.05C167.631 108.05 172.537 106.497 172.537 104.581C172.537 102.665 167.631 101.111 161.579 101.111C155.528 101.111 150.622 102.665 150.622 104.581C150.622 106.497 155.528 108.05 161.579 108.05Z" fill="#D67A00"/>
<path d="M172.536 101.125H150.622V104.7H172.536V101.125Z" fill="#D67A00"/>
<path d="M161.579 104.664C167.631 104.664 172.537 103.11 172.537 101.194C172.537 99.278 167.631 97.7246 161.579 97.7246C155.528 97.7246 150.622 99.278 150.622 101.194C150.622 103.11 155.528 104.664 161.579 104.664Z" fill="#FFB244"/>
<path d="M162.87 104.84C156.627 104.84 151.736 103.238 151.736 101.193C151.736 99.1485 156.627 97.5469 162.87 97.5469C169.114 97.5469 174.004 99.1485 174.004 101.193C174.004 103.238 169.114 104.84 162.87 104.84ZM162.87 97.9005C157.027 97.9005 152.09 99.4083 152.09 101.193C152.09 102.978 157.027 104.486 162.87 104.486C168.714 104.486 173.651 102.978 173.651 101.193C173.651 99.4084 168.714 97.9005 162.87 97.9005Z" fill="white"/>
<path d="M165.129 103.029C171.181 103.029 176.087 101.476 176.087 99.5594C176.087 97.6432 171.181 96.0898 165.129 96.0898C159.078 96.0898 154.172 97.6432 154.172 99.5594C154.172 101.476 159.078 103.029 165.129 103.029Z" fill="#D67A00"/>
<path d="M176.087 96.1035H154.172V99.6783H176.087V96.1035Z" fill="#D67A00"/>
<path d="M165.129 99.6403C171.181 99.6403 176.087 98.0869 176.087 96.1707C176.087 94.2545 171.181 92.7012 165.129 92.7012C159.078 92.7012 154.172 94.2545 154.172 96.1707C154.172 98.0869 159.078 99.6403 165.129 99.6403Z" fill="#FFB244"/>
<path d="M166.42 99.8181C160.177 99.8181 155.286 98.2164 155.286 96.1717C155.286 94.127 160.177 92.5254 166.42 92.5254C172.664 92.5254 177.555 94.127 177.555 96.1717C177.555 98.2163 172.664 99.8181 166.42 99.8181ZM166.42 92.8789C160.577 92.8789 155.64 94.3867 155.64 96.1717C155.64 97.9565 160.577 99.4645 166.42 99.4645C172.264 99.4645 177.201 97.9565 177.201 96.1717C177.201 94.3868 172.264 92.8789 166.42 92.8789Z" fill="white"/>
<path d="M141.492 100.556C147.4 100.556 152.19 99.0397 152.19 97.1688C152.19 95.2979 147.4 93.7812 141.492 93.7812C135.583 93.7812 130.794 95.2979 130.794 97.1688C130.794 99.0397 135.583 100.556 141.492 100.556Z" fill="#D67A00"/>
<path d="M152.19 93.793H130.794V97.2831H152.19V93.793Z" fill="#D67A00"/>
<path d="M141.492 97.2477C147.4 97.2477 152.19 95.7311 152.19 93.8602C152.19 91.9893 147.4 90.4727 141.492 90.4727C135.583 90.4727 130.794 91.9893 130.794 93.8602C130.794 95.7311 135.583 97.2477 141.492 97.2477Z" fill="#FFB244"/>
<path d="M142.752 97.4235C136.654 97.4235 131.877 95.8579 131.877 93.8592C131.877 91.8606 136.654 90.2949 142.752 90.2949C148.85 90.2949 153.627 91.8606 153.627 93.8592C153.627 95.858 148.85 97.4235 142.752 97.4235ZM142.752 90.6486C137.049 90.6486 132.231 92.1189 132.231 93.8593C132.231 95.5997 137.049 97.07 142.752 97.07C148.455 97.07 153.273 95.5997 153.273 93.8593C153.273 92.1189 148.455 90.6486 142.752 90.6486Z" fill="white"/>
<path d="M143.795 94.9157C149.703 94.9157 154.493 93.399 154.493 91.5282C154.493 89.6573 149.703 88.1406 143.795 88.1406C137.887 88.1406 133.097 89.6573 133.097 91.5282C133.097 93.399 137.887 94.9157 143.795 94.9157Z" fill="#D67A00"/>
<path d="M154.493 88.1543H133.097V91.6445H154.493V88.1543Z" fill="#D67A00"/>
<path d="M143.795 91.6071C149.703 91.6071 154.493 90.0905 154.493 88.2196C154.493 86.3487 149.703 84.832 143.795 84.832C137.887 84.832 133.097 86.3487 133.097 88.2196C133.097 90.0905 137.887 91.6071 143.795 91.6071Z" fill="#FFB244"/>
<path d="M145.055 91.7849C138.957 91.7849 134.18 90.2193 134.18 88.2206C134.18 86.2219 138.957 84.6562 145.055 84.6562C151.153 84.6562 155.93 86.2219 155.93 88.2206C155.93 90.2193 151.153 91.7849 145.055 91.7849ZM145.055 85.0098C139.352 85.0098 134.534 86.4802 134.534 88.2206C134.534 89.961 139.352 91.4313 145.055 91.4313C150.758 91.4313 155.577 89.961 155.577 88.2206C155.577 86.4802 150.758 85.0098 145.055 85.0098Z" fill="white"/>
<path d="M147.261 90.0153C153.169 90.0153 157.959 88.4987 157.959 86.6278C157.959 84.7569 153.169 83.2402 147.261 83.2402C141.352 83.2402 136.563 84.7569 136.563 86.6278C136.563 88.4987 141.352 90.0153 147.261 90.0153Z" fill="#D67A00"/>
<path d="M157.959 83.252H136.563V86.7421H157.959V83.252Z" fill="#D67A00"/>
<path d="M147.261 86.7067C153.169 86.7067 157.959 85.1901 157.959 83.3192C157.959 81.4483 153.169 79.9316 147.261 79.9316C141.352 79.9316 136.563 81.4483 136.563 83.3192C136.563 85.1901 141.352 86.7067 147.261 86.7067Z" fill="#FFB244"/>
<path d="M148.521 86.8825C142.423 86.8825 137.646 85.3169 137.646 83.3182C137.646 81.3195 142.423 79.7539 148.521 79.7539C154.619 79.7539 159.396 81.3195 159.396 83.3182C159.396 85.3169 154.619 86.8825 148.521 86.8825ZM148.521 80.1075C142.818 80.1075 138 81.5778 138 83.3182C138 85.0586 142.818 86.5289 148.521 86.5289C154.224 86.5289 159.043 85.0586 159.043 83.3182C159.043 81.5779 154.224 80.1075 148.521 80.1075Z" fill="white"/>
<path d="M143.973 85.5641C149.881 85.5641 154.671 84.0475 154.671 82.1766C154.671 80.3057 149.881 78.7891 143.973 78.7891C138.064 78.7891 133.275 80.3057 133.275 82.1766C133.275 84.0475 138.064 85.5641 143.973 85.5641Z" fill="#D67A00"/>
<path d="M154.671 78.8027H133.275V82.2929H154.671V78.8027Z" fill="#D67A00"/>
<path d="M143.973 82.2575C149.881 82.2575 154.671 80.7408 154.671 78.87C154.671 76.9991 149.881 75.4824 143.973 75.4824C138.064 75.4824 133.275 76.9991 133.275 78.87C133.275 80.7408 138.064 82.2575 143.973 82.2575Z" fill="#FFB244"/>
<path d="M145.233 82.4333C139.135 82.4333 134.358 80.8676 134.358 78.869C134.358 76.8703 139.135 75.3047 145.233 75.3047C151.331 75.3047 156.108 76.8703 156.108 78.869C156.108 80.8676 151.331 82.4333 145.233 82.4333ZM145.233 75.6583C139.53 75.6583 134.712 77.1286 134.712 78.869C134.712 80.6094 139.53 82.0797 145.233 82.0797C150.936 82.0797 155.754 80.6094 155.754 78.869C155.754 77.1286 150.936 75.6583 145.233 75.6583Z" fill="white"/>
<path d="M172.716 99.4563C174.045 98.1396 171.751 93.6695 167.593 89.4722C163.435 85.2749 158.986 82.9397 157.657 84.2565C156.328 85.5732 158.622 90.0432 162.78 94.2405C166.938 98.4378 171.387 100.773 172.716 99.4563Z" fill="#D67A00"/>
<path d="M175.121 97.0904L160.063 81.8906L157.583 84.347L172.642 99.5468L175.121 97.0904Z" fill="#D67A00"/>
<path d="M175.066 97.1262C176.395 95.8095 174.101 91.3395 169.943 87.1421C165.785 82.9448 161.336 80.6097 160.007 81.9264C158.678 83.2431 160.972 87.7131 165.13 91.9104C169.288 96.1078 173.737 98.4429 175.066 97.1262Z" fill="#FFB244"/>
<path d="M174.891 98.5714C172.882 98.5714 169.328 96.4105 165.891 92.9406C161.599 88.6084 159.35 84.1129 160.769 82.7064C162.19 81.2998 166.663 83.5917 170.955 87.9238C175.247 92.2561 177.496 96.7515 176.076 98.158C175.794 98.438 175.39 98.5714 174.891 98.5714ZM161.963 82.636C161.56 82.636 161.238 82.7395 161.018 82.9576C159.782 84.1824 162.128 88.6402 166.142 92.6918C170.155 96.7435 174.591 99.1318 175.827 97.9069C177.064 96.682 174.717 92.2243 170.704 88.1726C167.405 84.8426 163.821 82.636 161.963 82.636Z" fill="white"/>
<path d="M142.52 81.3473C148.428 81.3473 153.218 79.8307 153.218 77.9598C153.218 76.0889 148.428 74.5723 142.52 74.5723C136.611 74.5723 131.822 76.0889 131.822 77.9598C131.822 79.8307 136.611 81.3473 142.52 81.3473Z" fill="#D67A00"/>
<path d="M153.218 74.5859H131.822V78.0761H153.218V74.5859Z" fill="#D67A00"/>
<path d="M142.52 78.0387C148.428 78.0387 153.218 76.5221 153.218 74.6512C153.218 72.7803 148.428 71.2637 142.52 71.2637C136.611 71.2637 131.822 72.7803 131.822 74.6512C131.822 76.5221 136.611 78.0387 142.52 78.0387Z" fill="#FFB244"/>
<path d="M143.78 78.2165C137.682 78.2165 132.905 76.6508 132.905 74.6522C132.905 72.6535 137.682 71.0879 143.78 71.0879C149.878 71.0879 154.655 72.6535 154.655 74.6522C154.655 76.6508 149.878 78.2165 143.78 78.2165ZM143.78 71.4415C138.077 71.4415 133.259 72.9118 133.259 74.6522C133.259 76.3926 138.077 77.8629 143.78 77.8629C149.483 77.8629 154.301 76.3926 154.301 74.6522C154.301 72.9119 149.483 71.4415 143.78 71.4415Z" fill="white"/>
<path d="M145.985 76.445C151.894 76.445 156.683 74.9283 156.683 73.0575C156.683 71.1866 151.894 69.6699 145.985 69.6699C140.077 69.6699 135.287 71.1866 135.287 73.0575C135.287 74.9283 140.077 76.445 145.985 76.445Z" fill="#D67A00"/>
<path d="M156.683 69.6816H135.287V73.1718H156.683V69.6816Z" fill="#D67A00"/>
<path d="M145.985 73.1364C151.894 73.1364 156.683 71.6198 156.683 69.7489C156.683 67.878 151.894 66.3613 145.985 66.3613C140.077 66.3613 135.287 67.878 135.287 69.7489C135.287 71.6198 140.077 73.1364 145.985 73.1364Z" fill="#FFB244"/>
<path d="M147.246 73.3123C141.148 73.3123 136.371 71.7466 136.371 69.7479C136.371 67.7492 141.148 66.1836 147.246 66.1836C153.344 66.1836 158.121 67.7492 158.121 69.7479C158.121 71.7467 153.344 73.3123 147.246 73.3123ZM147.246 66.5373C141.543 66.5373 136.724 68.0076 136.724 69.748C136.724 71.4885 141.543 72.9588 147.246 72.9588C152.949 72.9588 157.767 71.4885 157.767 69.748C157.767 68.0076 152.949 66.5373 147.246 66.5373Z" fill="white"/>
<path d="M142.698 71.9958C148.606 71.9958 153.396 70.4791 153.396 68.6082C153.396 66.7373 148.606 65.2207 142.698 65.2207C136.789 65.2207 132 66.7373 132 68.6082C132 70.4791 136.789 71.9958 142.698 71.9958Z" fill="#D67A00"/>
<path d="M153.396 65.2324H132V68.7226H153.396V65.2324Z" fill="#D67A00"/>
<path d="M142.698 68.6872C148.606 68.6872 153.396 67.1705 153.396 65.2996C153.396 63.4288 148.606 61.9121 142.698 61.9121C136.789 61.9121 132 63.4288 132 65.2996C132 67.1705 136.789 68.6872 142.698 68.6872Z" fill="#FFB244"/>
<path d="M143.958 68.863C137.86 68.863 133.083 67.2973 133.083 65.2986C133.083 63.3 137.86 61.7344 143.958 61.7344C150.056 61.7344 154.833 63.3 154.833 65.2986C154.833 67.2973 150.056 68.863 143.958 68.863ZM143.958 62.088C138.255 62.088 133.437 63.5583 133.437 65.2986C133.437 67.0391 138.255 68.5094 143.958 68.5094C149.661 68.5094 154.48 67.0391 154.48 65.2986C154.48 63.5584 149.661 62.088 143.958 62.088Z" fill="white"/>
<path d="M135.293 29.8964C135.234 29.8964 135.18 29.859 135.161 29.8004L133.392 24.3097C133.38 24.2748 133.384 24.2368 133.4 24.2042C133.417 24.1715 133.446 24.1469 133.481 24.1357L146.094 20.0713C146.167 20.0476 146.244 20.0878 146.268 20.1605L148.037 25.6511C148.048 25.6861 148.045 25.724 148.028 25.7566C148.012 25.7893 147.983 25.814 147.948 25.8252L135.335 29.8896C135.321 29.8942 135.307 29.8964 135.293 29.8964ZM133.697 24.3566L135.382 29.5841L147.731 25.6045L146.047 20.377L133.697 24.3566Z" fill="#8B865C"/>
<path d="M133.523 24.2685L134.264 23.0826L143.212 20.1992L144.42 20.7572L145.591 21.4529L146.181 23.2828L145.636 24.5316L144.981 25.6899L136.033 28.5733L134.74 28.043L133.568 27.3472L132.979 25.5174L133.523 24.2685Z" fill="#D3BBA3"/>
<path d="M141.291 25.2773C141.776 24.3307 141.402 23.17 140.455 22.6848C139.509 22.1996 138.348 22.5737 137.863 23.5203C137.378 24.467 137.752 25.6277 138.698 26.1129C139.645 26.5981 140.806 26.224 141.291 25.2773Z" fill="#E6D0BE"/>
<path d="M146.181 23.2832C145.196 23.6264 144.66 24.6928 144.981 25.6903L146.771 25.1136L146.181 23.2832Z" fill="#E6D0BE"/>
<path d="M145.591 21.4534L145.001 19.623L143.212 20.1997C143.534 21.197 144.592 21.7496 145.591 21.4534Z" fill="#E6D0BE"/>
<path d="M133.61 27.3316C133.595 27.3362 133.582 27.3424 133.568 27.3473L134.158 29.1778L136.033 28.5735C135.707 27.5614 134.622 27.0054 133.61 27.3316Z" fill="#E6D0BE"/>
<path d="M132.389 23.6883L132.979 25.5188C132.993 25.5146 133.007 25.5119 133.021 25.5074C134.034 25.1811 134.59 24.0963 134.264 23.084L132.389 23.6883Z" fill="#E6D0BE"/>
<path d="M133.023 28.734C133.002 28.734 132.98 28.7289 132.96 28.7189C132.928 28.7021 132.903 28.6731 132.892 28.6382L131.122 23.1475C131.111 23.1125 131.114 23.0746 131.131 23.042C131.148 23.0093 131.177 22.9846 131.212 22.9734L143.824 18.909C143.859 18.8977 143.897 18.9009 143.93 18.9175C143.962 18.9343 143.987 18.9633 143.998 18.9982L145.768 24.4889C145.791 24.5615 145.751 24.6395 145.678 24.6629L133.066 28.7273C133.052 28.7318 133.038 28.734 133.023 28.734ZM131.428 23.1942L133.113 28.4217L145.462 24.4421L143.778 19.2146L131.428 23.1942Z" fill="white"/>
<path d="M134.246 37.8653C136.868 36.9144 138.75 35.4704 138.449 34.64C138.148 33.8096 135.778 33.9074 133.156 34.8583C130.533 35.8092 128.651 37.2532 128.953 38.0836C129.254 38.914 131.624 38.8162 134.246 37.8653Z" fill="#D67A00"/>
<path d="M137.906 33.1424L128.409 36.5859L128.971 38.135L138.467 34.6914L137.906 33.1424Z" fill="#D67A00"/>
<path d="M133.713 36.3966C136.336 35.4457 138.218 34.0016 137.916 33.1713C137.615 32.3409 135.245 32.4386 132.623 33.3895C130.001 34.3405 128.119 35.7845 128.42 36.6148C128.721 37.4452 131.091 37.3475 133.713 36.3966Z" fill="#FFB244"/>
<path d="M130.501 37.1144C129.575 37.1144 129.006 36.8897 128.85 36.4591C128.679 35.9893 129.043 35.3931 129.901 34.7348C130.706 34.1172 131.854 33.5212 133.136 33.0566C134.417 32.592 135.681 32.3131 136.694 32.2712C137.775 32.2264 138.436 32.4514 138.606 32.9211C138.977 33.9436 136.718 35.454 134.32 36.3235C133.039 36.7882 131.775 37.0671 130.762 37.1089C130.672 37.1126 130.585 37.1144 130.501 37.1144ZM136.941 32.5426C136.865 32.5426 136.787 32.5442 136.706 32.5476C135.72 32.5882 134.485 32.8614 133.23 33.3166C131.975 33.7717 130.852 34.3534 130.069 34.9541C129.349 35.507 128.99 36.0344 129.11 36.3648C129.23 36.6951 129.843 36.8703 130.75 36.8325C131.736 36.7919 132.971 36.5187 134.226 36.0635C136.948 35.0766 138.582 33.665 138.346 33.0154C138.237 32.7145 137.718 32.5426 136.941 32.5426Z" fill="white"/>
<path d="M138.266 25.1912C138.629 24.4344 136.985 22.8921 134.595 21.7463C132.205 20.6005 129.974 20.2851 129.611 21.0419C129.248 21.7986 130.892 23.341 133.282 24.4868C135.671 25.6325 137.903 25.9479 138.266 25.1912Z" fill="#D67A00"/>
<path d="M138.919 23.8251L130.264 19.6758L129.587 21.0875L138.242 25.2368L138.919 23.8251Z" fill="#D67A00"/>
<path d="M138.908 23.8533C139.27 23.0965 137.627 21.5542 135.237 20.4084C132.847 19.2626 130.616 18.9472 130.253 19.704C129.89 20.4608 131.533 22.0031 133.923 23.1489C136.313 24.2947 138.545 24.61 138.908 23.8533Z" fill="#FFB244"/>
<path d="M138.351 24.6414C137.305 24.6414 135.77 24.185 134.374 23.5159C132.185 22.4667 130.19 20.8223 130.638 19.8865C131.087 18.9507 133.619 19.4768 135.807 20.5259C137.996 21.5751 139.991 23.2195 139.543 24.1553C139.38 24.4942 138.944 24.6414 138.351 24.6414ZM131.836 19.6772C131.328 19.6772 130.991 19.791 130.888 20.006C130.605 20.5952 132.017 22.0791 134.493 23.2664C136.97 24.4539 139.011 24.6248 139.293 24.0357C139.576 23.4466 138.164 21.9627 135.688 20.7753C134.115 20.0214 132.718 19.6772 131.836 19.6772Z" fill="white"/>
<path d="M137.638 50.3669C137.613 50.3669 137.589 50.3602 137.567 50.3474L132.612 47.394C132.546 47.3549 132.525 47.27 132.564 47.2045L139.348 35.8214C139.387 35.7559 139.472 35.7343 139.538 35.7735L144.493 38.7268C144.525 38.7456 144.547 38.7761 144.556 38.8116C144.565 38.8472 144.56 38.8849 144.541 38.9165L137.757 50.2994C137.738 50.331 137.707 50.3537 137.672 50.3627C137.661 50.3655 137.649 50.3669 137.638 50.3669ZM132.872 47.2272L137.59 50.039L144.233 38.8936L139.515 36.0819L132.872 47.2272Z" fill="#8B865C"/>
<path d="M144.422 38.8461L144.649 40.2257L139.836 48.3012L138.561 48.6802L137.222 48.9317L135.571 47.9474L135.155 46.65L134.881 45.3478L139.694 37.2723L141.016 36.8159L142.355 36.5645L144.006 37.5486L144.422 38.8461Z" fill="#D3BBA3"/>
<path d="M140.591 44.5039C141.558 44.0612 141.983 42.9181 141.541 41.9509C141.098 40.9836 139.955 40.5584 138.988 41.0011C138.02 41.4438 137.595 42.5869 138.038 43.5541C138.481 44.5214 139.624 44.9466 140.591 44.5039Z" fill="#E6D0BE"/>
<path d="M135.571 47.9472C136.083 47.0394 135.781 45.8844 134.881 45.3477L133.919 46.9627L135.571 47.9472Z" fill="#E6D0BE"/>
<path d="M137.222 48.9329L138.874 49.9175L139.836 48.3025C138.936 47.7662 137.777 48.0503 137.222 48.9329Z" fill="#E6D0BE"/>
<path d="M142.334 36.6038C142.342 36.591 142.348 36.5776 142.355 36.5647L140.703 35.5801L139.694 37.2725C140.608 37.8167 141.79 37.5173 142.334 36.6038Z" fill="#E6D0BE"/>
<path d="M145.658 38.5335L144.006 37.5488C143.998 37.5614 143.989 37.5728 143.981 37.5856C143.437 38.4991 143.736 39.6811 144.649 40.2259L145.658 38.5335Z" fill="#E6D0BE"/>
<path d="M140.11 49.7419C140.085 49.7419 140.061 49.7353 140.039 49.7224L135.084 46.769C135.018 46.7299 134.997 46.645 135.036 46.5794L141.82 35.1965C141.859 35.1308 141.944 35.1093 142.01 35.1484L146.965 38.1018C146.997 38.1206 147.019 38.1511 147.028 38.1866C147.037 38.2222 147.032 38.2599 147.013 38.2914L140.229 49.6744C140.21 49.7059 140.18 49.7287 140.144 49.7376C140.133 49.7405 140.121 49.7419 140.11 49.7419ZM135.344 46.6022L140.062 49.4139L146.705 38.2686L141.987 35.4568L135.344 46.6022Z" fill="white"/>
<path d="M220.761 24.667C226.975 24.667 232.013 19.6291 232.013 13.4146C232.013 7.2 226.975 2.16211 220.761 2.16211C214.546 2.16211 209.508 7.2 209.508 13.4146C209.508 19.6291 214.546 24.667 220.761 24.667Z" fill="#F7F1EB"/>
<path d="M221.195 24.6591C214.893 24.6591 209.766 19.532 209.766 13.2299C209.766 6.92787 214.893 1.80078 221.195 1.80078C227.497 1.80078 232.624 6.92787 232.624 13.2299C232.624 19.532 227.497 24.6591 221.195 24.6591ZM221.195 2.1543C215.088 2.1543 210.119 7.1228 210.119 13.2299C210.119 19.3371 215.088 24.3056 221.195 24.3056C227.302 24.3056 232.27 19.3371 232.27 13.2299C232.27 7.1228 227.302 2.1543 221.195 2.1543Z" fill="black"/>
<path d="M218.824 10.985L214.15 10.5781L213.941 12.9784L218.615 13.3852L218.824 10.985Z" fill="#D87355"/>
<path d="M216.476 12.2311C214.377 12.0484 212.524 13.6411 212.337 15.7887C212.15 17.9362 213.7 19.8251 215.799 20.0078C217.899 20.1906 219.752 18.5978 219.939 16.4502C220.126 14.3027 218.575 12.4138 216.476 12.2311ZM215.814 19.0517C214.252 18.9158 213.099 17.5101 213.238 15.9121C213.377 14.3142 214.756 13.129 216.318 13.2649C217.88 13.4008 219.034 14.8065 218.895 16.4045C218.756 18.0024 217.376 19.1876 215.814 19.0517Z" fill="#D87355"/>
<path d="M216.319 20.1489C216.705 19.8279 216.757 19.2551 216.436 18.8695C216.115 18.484 215.542 18.4317 215.156 18.7527C214.771 19.0737 214.719 19.6465 215.04 20.0321C215.361 20.4176 215.933 20.4699 216.319 20.1489Z" fill="#D87355"/>
<path d="M216.255 19.4895C216.229 19.7957 215.959 20.0223 215.653 19.9956C215.347 19.969 215.12 19.6991 215.147 19.393C215.173 19.0869 215.443 18.8603 215.749 18.8869C216.055 18.9137 216.282 19.1834 216.255 19.4895Z" fill="#F7F1EB"/>
<path d="M216.781 11.7068C216.764 11.9005 216.593 12.0439 216.399 12.027C216.206 12.0102 216.062 11.8395 216.079 11.6457C216.096 11.452 216.267 11.3087 216.46 11.3256C216.654 11.3425 216.797 11.5132 216.781 11.7068Z" fill="white"/>
<path d="M216.349 12.7753C216.281 12.7693 216.23 12.7088 216.236 12.6401L216.324 11.6219C216.33 11.5532 216.391 11.5023 216.46 11.5083C216.528 11.5143 216.579 11.5748 216.573 11.6436L216.485 12.6617C216.479 12.7304 216.418 12.7813 216.349 12.7753Z" fill="white"/>
<path d="M226.022 7.35675L222.05 9.85547L223.31 11.8581L227.282 9.35941L226.022 7.35675Z" fill="#D87355"/>
<path d="M224.879 9.73349C223.095 10.8556 222.58 13.2443 223.728 15.0688C224.876 16.8934 227.252 17.4628 229.036 16.3407C230.819 15.2186 231.334 12.83 230.186 11.0054C229.039 9.18087 226.662 8.61142 224.879 9.73349ZM228.47 15.5696C227.143 16.4046 225.375 15.9808 224.521 14.6232C223.666 13.2655 224.05 11.488 225.377 10.6531C226.704 9.81816 228.472 10.2418 229.327 11.5995C230.181 12.9572 229.797 14.7346 228.47 15.5696Z" fill="#D87355"/>
<path d="M229.418 15.456C229.685 15.8806 229.558 16.4415 229.133 16.7087C228.709 16.9758 228.148 16.8482 227.88 16.4236C227.613 15.9989 227.741 15.438 228.166 15.1709C228.59 14.9037 229.151 15.0314 229.418 15.456Z" fill="#D87355"/>
<path d="M229.086 15.6528C229.249 15.9129 229.171 16.2564 228.911 16.42C228.651 16.5837 228.307 16.5055 228.144 16.2454C227.98 15.9853 228.058 15.6418 228.318 15.4781C228.578 15.3145 228.922 15.3926 229.086 15.6528Z" fill="#F7F1EB"/>
<path d="M224.805 9.13144C224.909 9.29606 224.859 9.51335 224.695 9.61686C224.53 9.72038 224.313 9.67091 224.209 9.50637C224.106 9.34184 224.155 9.12447 224.32 9.02095C224.485 8.91736 224.702 8.96683 224.805 9.13144Z" fill="white"/>
<path d="M225.107 10.2421C225.048 10.2788 224.971 10.2613 224.934 10.2029L224.39 9.33791C224.354 9.27953 224.371 9.2024 224.429 9.16567C224.488 9.12895 224.565 9.14651 224.602 9.20488L225.146 10.0699C225.183 10.1283 225.165 10.2054 225.107 10.2421Z" fill="white"/>
<path d="M216.413 10.2807C216.349 10.2807 216.284 10.27 216.221 10.2475C216.078 10.1962 215.963 10.0922 215.898 9.95442C215.832 9.81675 215.825 9.66192 215.876 9.51839L216.222 8.54883C216.273 8.40538 216.378 8.2904 216.515 8.22513C216.653 8.15994 216.808 8.15217 216.951 8.20348C217.248 8.3094 217.402 8.63647 217.297 8.93266L216.95 9.90222C216.867 10.1352 216.647 10.2807 216.413 10.2807ZM216.76 8.52381C216.671 8.52381 216.587 8.57914 216.555 8.66782L216.209 9.63738C216.19 9.6919 216.192 9.75068 216.217 9.80312C216.242 9.8554 216.286 9.89509 216.34 9.91449C216.453 9.9549 216.577 9.89573 216.617 9.78331L216.964 8.81375C217.004 8.70117 216.945 8.57681 216.832 8.53648C216.808 8.52782 216.784 8.52381 216.76 8.52381Z" fill="#D87355"/>
<path d="M217.356 8.17491C217.292 8.17491 217.228 8.16424 217.164 8.14171C217.021 8.09048 216.906 7.98632 216.841 7.84865C216.775 7.71089 216.768 7.55598 216.819 7.41253L217.165 6.44305C217.271 6.14686 217.598 5.99195 217.894 6.09771C218.038 6.14894 218.153 6.2531 218.218 6.39077C218.283 6.52853 218.291 6.68344 218.24 6.82688L217.894 7.79637C217.81 8.02922 217.59 8.17491 217.356 8.17491ZM217.703 6.41795C217.614 6.41795 217.53 6.47336 217.498 6.56196L217.152 7.53144C217.133 7.58597 217.135 7.6449 217.16 7.69726C217.185 7.74954 217.229 7.78915 217.283 7.80863C217.396 7.84905 217.52 7.78987 217.561 7.6773L217.907 6.70781C217.926 6.65329 217.923 6.59436 217.899 6.542C217.874 6.48972 217.83 6.45003 217.776 6.43062C217.752 6.42204 217.727 6.41795 217.703 6.41795Z" fill="#D87355"/>
<path d="M216.798 8.88952C216.772 8.88952 216.745 8.88367 216.72 8.87132C216.632 8.8281 216.596 8.7221 216.64 8.63454L217.193 7.51255C217.236 7.425 217.343 7.38931 217.43 7.43221C217.518 7.47543 217.554 7.58143 217.51 7.66899L216.957 8.79098C216.926 8.85336 216.863 8.88952 216.798 8.88952Z" fill="#D87355"/>
<path d="M216.417 11.1656C216.321 11.1656 216.243 11.0887 216.241 10.9923L216.215 9.71353C216.213 9.61587 216.291 9.53521 216.388 9.5332C216.49 9.53384 216.567 9.60881 216.569 9.70648L216.594 10.9852C216.596 11.0829 216.519 11.1635 216.421 11.1656C216.42 11.1656 216.419 11.1656 216.417 11.1656Z" fill="#D87355"/>
<path d="M218.915 6.44131C218.622 6.44131 218.372 6.21632 218.347 5.91932C218.334 5.76746 218.381 5.61968 218.479 5.50318C218.577 5.38667 218.715 5.31547 218.867 5.30248L219.893 5.21501C220.207 5.18806 220.483 5.42172 220.51 5.73499C220.522 5.88685 220.476 6.03463 220.377 6.15113C220.279 6.26756 220.141 6.33892 219.99 6.35183L218.964 6.43923C218.947 6.44059 218.931 6.44131 218.915 6.44131ZM218.699 5.88926C218.709 6.00849 218.815 6.09885 218.934 6.08683L219.959 5.99951C220.017 5.99462 220.07 5.96751 220.107 5.92317C220.144 5.87891 220.162 5.82279 220.157 5.76506C220.147 5.64591 220.043 5.55779 219.923 5.56741L218.897 5.65489C218.839 5.6597 218.787 5.6868 218.75 5.73114C218.712 5.77532 218.694 5.83153 218.699 5.88926Z" fill="#D87355"/>
<path d="M221.222 6.42563C221.088 6.42563 220.959 6.37889 220.856 6.29133C220.739 6.1931 220.668 6.05543 220.655 5.90357C220.642 5.7517 220.689 5.60401 220.787 5.4875C220.885 5.371 221.023 5.29963 221.175 5.28672L222.201 5.19932C222.353 5.18658 222.5 5.23332 222.617 5.33155C222.733 5.42977 222.804 5.56752 222.817 5.71939C222.844 6.03266 222.611 6.30937 222.297 6.33615L221.272 6.42347C221.255 6.42499 221.239 6.42563 221.222 6.42563ZM222.249 5.55084C222.243 5.55084 222.237 5.55109 222.231 5.55173L221.205 5.63904C221.147 5.64394 221.095 5.67104 221.057 5.71538C221.02 5.75964 221.002 5.81585 221.007 5.8735C221.012 5.93123 221.039 5.98367 221.083 6.02095C221.128 6.0584 221.184 6.07708 221.242 6.07115L222.267 5.98375C222.387 5.97365 222.475 5.86845 222.465 5.74929C222.46 5.69156 222.433 5.63913 222.389 5.60184C222.349 5.56865 222.3 5.55084 222.249 5.55084Z" fill="#D87355"/>
<path d="M221.234 6.02261C221.232 6.02261 221.231 6.02261 221.229 6.02253L219.978 5.9846C219.881 5.98163 219.804 5.90017 219.807 5.80259C219.81 5.70493 219.889 5.62466 219.989 5.63124L221.239 5.66916C221.337 5.67213 221.414 5.7536 221.411 5.85118C221.408 5.94691 221.329 6.02261 221.234 6.02261Z" fill="#D87355"/>
<path d="M217.754 6.58324C217.688 6.58324 217.625 6.54635 217.595 6.48301C217.552 6.39505 217.589 6.28937 217.677 6.24711L218.83 5.69314C218.918 5.6512 219.024 5.68776 219.066 5.77588C219.109 5.86384 219.072 5.96952 218.984 6.01178L217.831 6.56576C217.806 6.57762 217.78 6.58324 217.754 6.58324Z" fill="#D87355"/>
<path d="M223.791 8.13045C223.587 8.13045 223.389 8.02036 223.286 7.82768L222.803 6.9185C222.656 6.64082 222.761 6.29476 223.039 6.14714C223.174 6.07554 223.328 6.06071 223.474 6.10537C223.62 6.15003 223.739 6.24865 223.811 6.38328L224.294 7.29246C224.441 7.57014 224.335 7.9162 224.058 8.06382C223.973 8.10904 223.881 8.13045 223.791 8.13045ZM223.307 6.43387C223.272 6.43387 223.237 6.44254 223.205 6.45937C223.1 6.51558 223.059 6.64708 223.115 6.75268L223.599 7.66179C223.655 7.76747 223.787 7.80772 223.892 7.75159C223.997 7.69546 224.038 7.56396 223.982 7.45836L223.498 6.54926C223.471 6.4981 223.426 6.46049 223.37 6.44358C223.349 6.43708 223.328 6.43387 223.307 6.43387Z" fill="#D87355"/>
<path d="M224.241 8.95052C224.171 8.95052 224.104 8.90786 224.077 8.8381L223.621 7.67297C223.585 7.58197 223.63 7.47942 223.721 7.44389C223.812 7.40821 223.914 7.45311 223.95 7.54404L224.406 8.70917C224.441 8.80018 224.397 8.90273 224.306 8.93825C224.285 8.94659 224.263 8.95052 224.241 8.95052Z" fill="#D87355"/>
<path d="M223.321 6.81173C223.28 6.81173 223.238 6.79729 223.205 6.76787L222.243 5.92499C222.169 5.86069 222.162 5.74899 222.226 5.67555C222.29 5.6021 222.402 5.59464 222.476 5.65919L223.438 6.50206C223.511 6.56637 223.518 6.67806 223.454 6.75151C223.419 6.79136 223.37 6.81173 223.321 6.81173Z" fill="#D87355"/>
</g>
<defs>
<clipPath id="clip0_535_10450">
<rect y="0.25" width="310" height="103.333" rx="6.2" fill="white"/>
</clipPath>
</defs>
</svg>
