<svg width="240" height="331" viewBox="0 0 240 331" fill="none" xmlns="http://www.w3.org/2000/svg">
<g filter="url(#filter0_d_569_9051)">
<rect x="5.18359" y="2.31445" width="230" height="321.37" rx="18.9041" fill="#EDE7FF"/>
<path d="M79.3512 24.5974V32.5623H79.2503C79.2503 31.9574 78.6958 25.9081 72.9994 25.9081H64.3287V43.0982H72.4953C76.9314 43.0982 77.3851 38.6621 77.3851 38.2084H77.4355V49.2988H77.3851C77.3851 48.8451 76.9314 44.4089 72.4953 44.4089H64.3287V62.6073H74.0076C79.704 62.6073 80.2586 56.558 80.2586 55.953H80.3594V63.918H53.0366V63.8171C53.3391 63.8171 56.1621 63.3634 56.1621 58.2719V30.2434C56.1621 25.1519 53.3391 24.6982 53.0366 24.6982V24.5974H79.3512ZM85.9522 63.918V63.8171C86.2547 63.8171 89.0777 63.3634 89.0777 58.2719V30.2434C89.0777 25.1519 86.2547 24.6982 85.9522 24.6982V24.5974H95.3287L117.106 51.0632V30.2434C117.106 25.1519 114.283 24.6982 113.981 24.6982V24.5974H121.643V24.6982C121.341 24.6982 118.518 25.1519 118.518 30.2434V64.2204L90.4892 30.2434V58.2719C90.4892 63.3634 93.3123 63.8171 93.6147 63.8171V63.918H85.9522ZM129.962 25.9081C124.265 25.9081 123.711 31.9574 123.711 32.5623H123.61V24.5974H155.974V32.5623H155.873C155.873 31.9574 155.319 25.9081 149.622 25.9081H143.875V58.2719C143.875 63.3634 146.698 63.8171 147.001 63.8171V63.918H132.583V63.8171C132.886 63.8171 135.709 63.3634 135.709 58.2719V25.9081H129.962ZM158.978 63.918V63.8171C159.281 63.8171 162.104 63.3634 162.104 58.2719V30.2434C162.104 25.1519 159.281 24.6982 158.978 24.6982V24.5974H173.446C178.992 24.5974 183.024 25.6056 185.545 27.8741C187.511 29.6385 188.519 32.3103 188.519 35.8895C188.519 40.5777 186.452 44.0056 183.125 46.2237C180.201 48.1897 176.269 49.1476 171.934 49.1476H170.271V58.2719C170.271 63.3634 173.094 63.8171 173.396 63.8171V63.918H158.978ZM170.271 47.8369H171.43C173.799 47.8369 175.765 47.0807 177.177 45.6692C179.193 43.7032 180.252 40.4265 180.252 36.1415C180.252 32.3103 179.496 29.6889 178.034 28.0254C176.723 26.5634 174.808 25.9081 172.438 25.9081H170.271V47.8369Z" fill="#402A83"/>
<path d="M63.1247 93.6445V93.613C63.2192 93.613 64.1014 93.4712 64.1014 91.8801V83.1212C64.1014 81.5301 63.2192 81.3884 63.1247 81.3884V81.3569H66.0548L72.8603 89.6274V83.1212C72.8603 81.5301 71.9781 81.3884 71.8836 81.3884V81.3569H74.2781V81.3884C74.1836 81.3884 73.3014 81.5301 73.3014 83.1212V93.7391L64.5425 83.1212V91.8801C64.5425 93.4712 65.4247 93.613 65.5192 93.613V93.6445H63.1247ZM78.9276 96.6849C79.7625 96.6849 80.2981 96.3541 80.6447 95.8815C81.1803 95.1411 81.2749 94.0541 81.2749 93.2664V92.3843C80.7865 93.2822 79.794 93.8336 78.7228 93.8336C76.2968 93.8336 74.7844 91.9747 74.7844 89.3596C74.7844 86.4295 76.2968 84.2555 78.9749 84.2555C80.2351 84.2555 80.8653 84.7753 81.2749 85.3425V84.413H84.7721V84.4445C84.6776 84.4445 83.7954 84.5863 83.7954 86.1774V93.0144C83.7954 94.3534 83.2913 95.2829 82.5824 95.913C81.6214 96.7795 80.2666 97.063 79.3057 97.063C77.7303 97.063 76.7064 96.5117 76.1235 96.5117V94.0856H76.1707C76.3125 94.9048 76.6906 95.4877 77.1317 95.8973C77.7618 96.4801 78.518 96.6849 78.9276 96.6849ZM77.2892 89.2021C77.2892 91.376 78.0612 93.1404 79.4317 93.1404C80.2351 93.1404 80.818 92.6678 81.2749 91.5808V86.1774C80.8653 85.311 80.2824 85.1062 79.8255 85.1062C78.3762 85.1062 77.2892 86.713 77.2892 89.2021ZM89.2214 93.8021C88.4337 93.8021 87.7248 93.5658 87.2049 93.1089C86.7008 92.6521 86.3857 91.9747 86.3857 91.0767V86.1774C86.3857 84.5863 85.5035 84.4445 85.409 84.4445V84.413H88.9063V90.8719C88.9063 91.2658 88.9378 91.7856 89.1426 92.211C89.3474 92.6206 89.7097 92.9199 90.2611 92.9199C91.3796 92.9199 92.183 91.8014 92.183 90.2575V86.1774C92.183 84.5863 91.3008 84.4445 91.2063 84.4445V84.413H94.7035V85.0432C94.9556 84.8384 95.0344 84.6178 95.0501 84.413C95.0501 84.2397 94.9871 83.8301 94.357 83.6726V83.6569L95.6645 82.7432C95.8535 82.8849 96.1214 83.3733 96.0899 83.7986C96.0426 84.5548 95.2392 85.0589 94.7035 85.2952V91.8801C94.7035 93.4712 95.5857 93.613 95.6803 93.613V93.6445H92.183V92.0062C91.8049 92.8884 90.9542 93.8021 89.2214 93.8021ZM101.537 93.8336C98.4808 93.8336 96.9685 91.6596 96.9685 89.0445C96.9685 86.4295 98.4808 84.2555 101.537 84.2555C102.703 84.2555 103.648 84.5706 104.373 85.1062C104.483 84.9486 104.514 84.7753 104.499 84.6336C104.483 84.4603 104.388 84.0664 103.742 83.9562V83.9404L104.971 82.9164C105.176 83.0425 105.475 83.5151 105.491 83.9404C105.507 84.5233 105.05 84.9959 104.609 85.311C105.601 86.1932 106.105 87.548 106.105 89.0445C106.105 91.6596 104.593 93.8336 101.537 93.8336ZM99.552 89.0445C99.552 91.376 100.088 93.4555 101.537 93.4555C102.986 93.4555 103.538 91.376 103.538 89.0445C103.538 86.713 102.986 84.6336 101.537 84.6336C100.088 84.6336 99.552 86.713 99.552 89.0445ZM99.8671 82.4596V82.4123L100.702 81.2466H100.749C101.395 82.1445 102.545 83.3733 103.301 83.6726L103.254 83.7199C102.325 83.5938 100.671 83.074 99.8671 82.4596ZM108.025 86.1774C108.025 84.5863 107.143 84.4445 107.048 84.4445V84.413H110.545V91.8801C110.545 93.4712 111.428 93.613 111.522 93.613V93.6445H107.048V93.613C107.143 93.613 108.025 93.4712 108.025 91.8801V86.1774ZM107.867 82.176C107.867 81.4356 108.482 80.8212 109.222 80.8212C109.962 80.8212 110.577 81.4356 110.577 82.176C110.577 82.9164 109.962 83.5308 109.222 83.5308C108.482 83.5308 107.867 82.9164 107.867 82.176ZM117.286 86.1774C117.286 84.5863 116.404 84.4445 116.309 84.4445V84.413H119.807V86.0514C120.185 85.1692 121.035 84.2555 122.768 84.2555C123.556 84.2555 124.265 84.4918 124.785 84.9486C125.289 85.4055 125.604 86.0829 125.604 86.9808V91.8801C125.604 93.4712 126.486 93.613 126.581 93.613V93.6445H122.107V93.613C122.201 93.613 123.083 93.4712 123.083 91.8801V87.1856C123.083 86.7918 123.052 86.2719 122.847 85.8466C122.642 85.437 122.28 85.1377 121.729 85.1377C120.61 85.1377 119.807 86.2562 119.807 87.8V91.8801C119.807 93.4712 120.689 93.613 120.783 93.613V93.6445H116.309V93.613C116.404 93.613 117.286 93.4712 117.286 91.8801V86.1774ZM128.251 82.8062C128.251 81.2151 127.368 81.0733 127.274 81.0733V81.0418H130.771V86.0514C131.149 85.1692 132 84.2555 133.733 84.2555C134.52 84.2555 135.229 84.4918 135.749 84.9486C136.253 85.4055 136.568 86.0829 136.568 86.9808V91.8801C136.568 93.4712 137.451 93.613 137.545 93.613V93.6445H133.071V93.613C133.166 93.613 134.048 93.4712 134.048 91.8801V87.1856C134.048 86.7918 134.016 86.2719 133.812 85.8466C133.607 85.437 133.244 85.1377 132.693 85.1377C131.575 85.1377 130.771 86.2562 130.771 87.8V91.8801C130.771 93.4712 131.653 93.613 131.748 93.613V93.6445H127.274V93.613C127.368 93.613 128.251 93.4712 128.251 91.8801V82.8062ZM139.409 86.1774C139.409 84.5863 138.526 84.4445 138.432 84.4445V84.413H141.929V91.8801C141.929 93.4712 142.811 93.613 142.906 93.613V93.6445H138.432V93.613C138.526 93.613 139.409 93.4712 139.409 91.8801V86.1774ZM138.936 82.05V82.0027L139.771 80.837H139.818C140.464 81.7349 141.614 82.9637 142.37 83.263L142.323 83.3103C141.394 83.1843 139.739 82.6644 138.936 82.05ZM144.885 86.1774C144.885 84.5863 144.003 84.4445 143.909 84.4445V84.413H147.406V86.0514C147.784 85.1692 148.635 84.2555 150.368 84.2555C151.155 84.2555 151.864 84.4918 152.384 84.9486C152.888 85.4055 153.203 86.0829 153.203 86.9808V91.8801C153.203 93.4712 154.085 93.613 154.18 93.613V93.6445H149.706V93.613C149.8 93.613 150.683 93.4712 150.683 91.8801V87.1856C150.683 86.7918 150.651 86.2719 150.446 85.8466C150.242 85.437 149.879 85.1377 149.328 85.1377C148.209 85.1377 147.406 86.2562 147.406 87.8V91.8801C147.406 93.4712 148.288 93.613 148.383 93.613V93.6445H143.909V93.613C144.003 93.613 144.885 93.4712 144.885 91.8801V86.1774ZM163.415 93.6445V93.6288C163.431 93.6288 164.171 93.3295 163.462 92.148L162.171 90.0055L160.485 92.1637C159.619 93.2664 160.422 93.6288 160.422 93.6288V93.6445H157.902V93.6288C158.059 93.6288 159.099 93.3767 159.713 92.5891L161.982 89.6904L160.107 86.5555C159.083 84.8541 158.106 84.4445 157.933 84.4445V84.413H162.47V84.4288C162.454 84.4288 161.714 84.7281 162.423 85.9096L163.604 87.8788L165.085 85.8938C165.904 84.7753 165.132 84.4288 165.117 84.4288V84.413H167.495V84.4288C167.354 84.4288 166.393 84.7281 165.684 85.689L163.793 88.1938L165.778 91.5021C166.802 93.2034 167.779 93.613 167.952 93.613V93.6445H163.415ZM171.297 84.9171C169.532 84.9171 168.43 86.3822 168.288 87.2959H168.241C168.382 85.6418 169.722 84.2555 172.195 84.2555C173.045 84.2555 174.258 84.3815 175.078 85.0747C175.582 85.5158 175.928 86.1774 175.928 87.1856V91.8801C175.928 93.4712 176.811 93.613 176.905 93.613V93.6445H173.408V92.211C172.967 92.9514 172.037 93.7391 170.367 93.7391C168.855 93.7391 167.705 93.0144 167.705 91.4706C167.705 89.4226 169.722 88.0521 173.408 87.9575V87.2486C173.408 86.3507 173.187 85.7521 172.793 85.3897C172.431 85.0589 171.911 84.9171 171.297 84.9171ZM170.226 91.4706C170.226 92.2267 170.651 92.9986 171.517 92.9986C172.573 92.9986 173.313 91.9274 173.408 91.6123V88.3356C170.982 88.3671 170.226 90.3206 170.226 91.4706Z" fill="#402A83"/>
<g clip-path="url(#clip0_569_9051)">
<path d="M120.184 307.79C174.997 307.79 219.431 263.356 219.431 208.543C219.431 153.731 174.997 109.297 120.184 109.297C65.3717 109.297 20.9375 153.731 20.9375 208.543C20.9375 263.356 65.3717 307.79 120.184 307.79Z" fill="#402A83"/>
<path d="M146.874 163.345C146.858 163.345 146.843 163.344 146.828 163.344L135.336 163.255C133.809 163.243 132.379 162.637 131.308 161.549C130.237 160.46 129.654 159.02 129.666 157.493L129.707 152.413C129.733 149.276 132.293 146.74 135.424 146.74C135.44 146.74 135.455 146.74 135.47 146.74L146.962 146.83C148.489 146.842 149.919 147.448 150.99 148.536C152.061 149.624 152.644 151.065 152.632 152.592L152.591 157.671C152.565 160.809 150.005 163.344 146.874 163.345ZM135.424 147.219C132.555 147.219 130.209 149.542 130.186 152.417L130.145 157.497C130.133 158.896 130.667 160.216 131.649 161.213C132.63 162.211 133.941 162.766 135.34 162.777L146.832 162.866C146.846 162.866 146.86 162.866 146.873 162.866C149.743 162.866 152.089 160.543 152.112 157.668L152.153 152.588C152.165 151.189 151.63 149.869 150.649 148.871C149.668 147.874 148.357 147.319 146.958 147.308L135.466 147.219C135.452 147.219 135.438 147.219 135.424 147.219Z" fill="#84524D"/>
<path d="M107.902 157.572L107.527 205.648L174.82 206.173L175.195 158.097L107.902 157.572Z" fill="#D3BBA3"/>
<path d="M141.209 185.173C141.157 185.173 141.105 185.156 141.061 185.122L111.668 162.166C111.564 162.085 111.546 161.934 111.627 161.83C111.708 161.726 111.858 161.708 111.963 161.789L141.21 184.632L170.513 162.225C170.618 162.145 170.769 162.165 170.848 162.27C170.929 162.375 170.909 162.525 170.804 162.605L141.354 185.124C141.311 185.157 141.26 185.173 141.209 185.173Z" fill="#F7F1EB"/>
<path d="M136.619 181.855L136.58 186.859L146.063 186.933L146.102 181.929L136.619 181.855Z" fill="#F7F1EB"/>
<path d="M136.436 247.972C136.304 247.972 136.197 247.865 136.197 247.732V213.372C136.197 213.24 136.304 213.133 136.436 213.133C136.568 213.133 136.675 213.24 136.675 213.372V247.732C136.676 247.865 136.569 247.972 136.436 247.972Z" fill="#D3BBA3"/>
<path d="M114.931 269.964H22.786C22.6539 269.964 22.5469 269.857 22.5469 269.725V134.048C22.5469 133.915 22.654 133.809 22.786 133.809H48.391C48.5231 133.809 48.6301 133.916 48.6301 134.048C48.6301 134.18 48.523 134.287 48.391 134.287H23.0252V269.486H114.931C115.063 269.486 115.17 269.593 115.17 269.725C115.17 269.857 115.063 269.964 114.931 269.964Z" fill="#D3BBA3"/>
<path d="M136.435 150.887C136.303 150.887 136.196 150.78 136.196 150.647V134.287H109.151C109.019 134.287 108.912 134.18 108.912 134.048C108.912 133.916 109.019 133.809 109.151 133.809H136.435C136.567 133.809 136.674 133.916 136.674 134.048V150.647C136.674 150.78 136.567 150.887 136.435 150.887Z" fill="#D3BBA3"/>
<path d="M34.3569 259.986H124.863L124.863 138.197H34.3569L34.3569 259.986Z" fill="#35674E"/>
<path d="M90.8355 126.888C90.8355 119.53 84.8703 113.564 77.5118 113.564C70.1532 113.564 64.188 119.53 64.188 126.888H49.5781V144.446H105.445V126.888H90.8355ZM67.6942 126.888C67.6942 121.466 72.0896 117.071 77.5117 117.071C82.9337 117.071 87.3292 121.466 87.3292 126.888H67.6942Z" fill="#F7F1EB"/>
<path d="M107.544 142.587H51.6766C51.5445 142.587 51.4375 142.48 51.4375 142.348V124.789C51.4375 124.657 51.5446 124.55 51.6766 124.55H66.0495C66.1774 117.182 72.2114 111.227 79.6103 111.227C87.0091 111.227 93.0431 117.181 93.1711 124.55H107.544C107.676 124.55 107.783 124.657 107.783 124.789V142.348C107.783 142.48 107.676 142.587 107.544 142.587ZM51.9157 142.108H107.305V125.028H92.934C92.8018 125.028 92.6949 124.921 92.6949 124.789C92.6949 117.574 86.8251 111.705 79.6103 111.705C72.3954 111.705 66.5256 117.574 66.5256 124.789C66.5256 124.922 66.4185 125.028 66.2865 125.028H51.9157V142.108ZM89.4277 125.028H69.7927C69.6606 125.028 69.5536 124.921 69.5536 124.789C69.5536 119.244 74.0649 114.733 79.6102 114.733C85.1554 114.733 89.6668 119.244 89.6668 124.789C89.6669 124.921 89.5598 125.028 89.4277 125.028ZM70.0348 124.55H89.1856C89.0582 119.379 84.8118 115.211 79.6102 115.211C74.4086 115.211 70.1622 119.379 70.0348 124.55Z" fill="#D3BBA3"/>
<path d="M110.326 175.907H45.2977C45.1656 175.907 45.0586 175.8 45.0586 175.668V158.725C45.0586 158.593 45.1657 158.486 45.2977 158.486H110.326C110.459 158.486 110.566 158.593 110.566 158.725V175.668C110.566 175.8 110.459 175.907 110.326 175.907ZM45.5368 175.429H110.087V158.965H45.5368V175.429Z" fill="#9E9569"/>
<path d="M95.5396 229.461H66.0645V231.271H95.5396V229.461Z" fill="white"/>
<path d="M106.875 233.982H70.6387V235.792H106.875V233.982Z" fill="white"/>
<path d="M100.929 238.504H66.0645V240.314H100.929V238.504Z" fill="white"/>
<path d="M110.328 209.551H73.8652V211.361H110.328V209.551Z" fill="white"/>
<path d="M99.943 214.072H65.0781V215.882H99.943V214.072Z" fill="white"/>
<path d="M106.018 218.594H65.0781V220.404H106.018V218.594Z" fill="white"/>
<path d="M106.018 190.846H73.9941V192.656H106.018V190.846Z" fill="white"/>
<path d="M99.9425 195.367H65.207V197.177H99.9425V195.367Z" fill="white"/>
<path d="M110.327 199.889H65.207V201.699H110.327V199.889Z" fill="white"/>
<path d="M60.4834 242.438H45.8504C45.7183 242.438 45.6113 242.332 45.6113 242.199V227.573C45.6113 227.441 45.7184 227.334 45.8504 227.334H60.4834C60.6155 227.334 60.7225 227.441 60.7225 227.573V242.199C60.7225 242.332 60.6154 242.438 60.4834 242.438ZM46.0895 241.96H60.2442V227.812H46.0895V241.96Z" fill="white"/>
<path d="M52.382 239.989L47.8008 235.824L49.216 234.079L52.1208 236.401L56.6788 229.785L58.5333 231.062L52.382 239.989Z" fill="#F7F1EB"/>
<path d="M60.4834 222.528H45.8504C45.7183 222.528 45.6113 222.421 45.6113 222.289V207.663C45.6113 207.531 45.7184 207.424 45.8504 207.424H60.4834C60.6155 207.424 60.7225 207.531 60.7225 207.663V222.289C60.7225 222.421 60.6154 222.528 60.4834 222.528ZM46.0895 222.05H60.2442V207.902H46.0895V222.05Z" fill="white"/>
<path d="M52.382 220.079L47.8008 215.914L49.216 214.169L52.1208 216.491L56.6788 209.875L58.5333 211.151L52.382 220.079Z" fill="#F7F1EB"/>
<path d="M60.4834 203.821H45.8504C45.7183 203.821 45.6113 203.714 45.6113 203.582V188.956C45.6113 188.824 45.7184 188.717 45.8504 188.717H60.4834C60.6155 188.717 60.7225 188.824 60.7225 188.956V203.582C60.7225 203.714 60.6154 203.821 60.4834 203.821ZM46.0895 203.343H60.2442V189.195H46.0895V203.343Z" fill="white"/>
<path d="M52.382 201.372L47.8008 197.207L49.216 195.462L52.1208 197.783L56.6788 191.168L58.5333 192.444L52.382 201.372Z" fill="#F7F1EB"/>
<path d="M94.7462 304.242H23.5809C23.4488 304.242 23.3418 304.135 23.3418 304.003V285.69C23.3418 285.558 23.4489 285.451 23.5809 285.451H94.7462C94.8783 285.451 94.9853 285.558 94.9853 285.69V304.003C94.9853 304.135 94.8783 304.242 94.7462 304.242ZM23.82 303.764H94.5071V285.929H23.82V303.764Z" fill="#E6D0BE"/>
<path d="M85.949 279.664C82.914 278.744 82.5548 274.259 80.0231 274.323C73.7549 274.481 70.9089 294.046 66.1551 293.788C62.2308 293.574 61.5883 280.102 57.0437 279.664C52.1929 279.197 48.7725 294.147 43.5336 293.788C38.9333 293.472 39.1169 281.777 30.9661 277.861C29.5967 277.203 28.1617 276.848 26.7227 276.706V300.217H91.6043V278.082C89.1557 279.764 87.3334 280.084 85.949 279.664Z" fill="#8B865C"/>
<path d="M186.698 222.028H178.82L182.759 204.195L186.698 222.028Z" fill="#EFBC73"/>
<path d="M194.575 222.029H186.697L190.636 209.367L194.575 222.029Z" fill="#8B865C"/>
<path d="M202.454 222.029H194.576L198.515 198.877L202.454 222.029Z" fill="#35674E"/>
<path d="M210.331 222.027H202.453L206.392 210.451L210.331 222.027Z" fill="#D3BBA3"/>
<path d="M211.807 224.322H176.645C176.513 224.322 176.406 224.215 176.406 224.083V209.368C176.406 209.236 176.513 209.129 176.645 209.129C176.777 209.129 176.885 209.236 176.885 209.368V223.844H211.807C211.939 223.844 212.046 223.951 212.046 224.083C212.046 224.215 211.939 224.322 211.807 224.322Z" fill="#E6D0BE"/>
<path d="M219.431 300.565V293.28L200.962 250.07C199.44 246.02 195.85 243.11 191.573 242.453C181.408 240.89 161.5 238.919 140.685 242.892C136.903 243.614 133.646 246.002 131.811 249.386L119.537 272.022L115.379 300.565H219.431Z" fill="#35674E"/>
<path d="M177.646 271.282C177.597 271.282 177.547 271.267 177.505 271.236L171.239 266.645C171.133 266.569 171.109 266.422 171.184 266.315L183.52 248.711C183.596 248.603 183.744 248.577 183.853 248.653C183.961 248.728 183.987 248.877 183.911 248.986L171.71 266.398L177.787 270.85C177.894 270.928 177.917 271.078 177.839 271.184C177.792 271.248 177.719 271.282 177.646 271.282Z" fill="#363E44"/>
<path d="M198.581 284.786C198.528 284.786 198.476 284.769 198.432 284.734C198.328 284.652 198.312 284.502 198.394 284.398L204.049 277.307C204.132 277.204 204.282 277.187 204.385 277.269C204.489 277.351 204.505 277.501 204.423 277.605L198.768 284.696C198.721 284.756 198.651 284.786 198.581 284.786Z" fill="#363E44"/>
<path d="M166.265 243.6H158.158L162.049 250.74L166.265 243.6Z" fill="#363E44"/>
<path d="M160.712 247.301H162.09H163.469L166.515 285.969L162.09 290.45L157.666 285.969L160.712 247.301Z" fill="#363E44"/>
<path d="M124.914 269.936L135.001 293.054C137.134 297.943 135.056 303.645 130.277 306.014L129.409 306.445C122.731 309.755 114.908 304.861 114.965 297.408L115.16 271.833L124.914 269.936Z" fill="white"/>
<path d="M120.874 287.151H149.701L136.666 247.732H107.84L120.874 287.151Z" fill="#EFBC73"/>
<path d="M142.948 266.98L141.165 261.59L168.145 279.156L174.494 269.901L196.526 286.138L181.144 303.651C176.691 308.722 168.817 308.79 164.276 303.798L147.319 285.154C145.897 283.59 143.936 282.618 141.829 282.442C138.535 282.167 133.863 281.588 133.626 280.509C133.259 278.834 141.979 278.413 141.979 278.413C141.979 278.413 131.576 278.294 131.556 276.536C131.536 274.778 140.957 274.45 140.957 274.45C140.957 274.45 130.681 274.048 130.583 272.508C130.485 270.969 140.319 270.523 140.319 270.523C140.319 270.523 131.176 270.176 131.191 268.14C131.206 266.104 142.948 266.98 142.948 266.98Z" fill="white"/>
<path d="M175.034 284.785C174.981 284.785 174.928 284.768 174.884 284.732L168.175 279.34C168.072 279.257 168.056 279.106 168.139 279.003C168.221 278.901 168.371 278.884 168.475 278.967L175.184 284.359C175.286 284.442 175.303 284.593 175.22 284.696C175.173 284.754 175.104 284.785 175.034 284.785Z" fill="#363E44"/>
<path d="M115.004 272.382C112.845 272.991 112.24 274.085 112.5 275.151C112.76 276.217 113.786 276.85 115.945 276.241C118.104 275.632 120.578 274.01 120.318 272.945C120.058 271.879 117.163 271.773 115.004 272.382Z" fill="white"/>
<path d="M114.579 268.564C112.077 269.27 111.376 270.538 111.677 271.774C111.978 273.009 113.167 273.743 115.67 273.037C118.172 272.331 121.039 270.451 120.738 269.216C120.437 267.981 117.081 267.858 114.579 268.564Z" fill="white"/>
<path d="M113.498 266.202C111.339 266.811 110.312 266.178 110.052 265.112C109.793 264.046 110.398 262.952 112.557 262.343C114.716 261.733 117.611 261.84 117.871 262.906C118.13 263.971 115.657 265.593 113.498 266.202Z" fill="white"/>
<path d="M114.869 269.754C112.367 270.46 111.177 269.726 110.876 268.49C110.575 267.255 111.276 265.987 113.778 265.281C116.281 264.575 119.636 264.698 119.937 265.933C120.238 267.168 117.371 269.048 114.869 269.754Z" fill="white"/>
<path d="M169.348 249.093C169.298 249.093 169.248 249.077 169.207 249.047L166.245 246.887C166.138 246.809 166.115 246.66 166.193 246.553C166.27 246.446 166.42 246.423 166.526 246.501L169.287 248.513L171.741 244.833C171.814 244.723 171.962 244.694 172.073 244.767C172.183 244.84 172.212 244.988 172.139 245.098L169.547 248.986C169.511 249.041 169.454 249.078 169.39 249.089C169.376 249.092 169.362 249.093 169.348 249.093Z" fill="#363E44"/>
<path d="M155.462 248.044C155.374 248.044 155.29 247.995 155.249 247.912L153.459 244.332C153.4 244.214 153.448 244.071 153.566 244.012C153.684 243.953 153.827 244 153.887 244.119L155.577 247.499L158.519 246.288C158.642 246.238 158.781 246.296 158.831 246.418C158.882 246.54 158.823 246.68 158.701 246.73L155.554 248.026C155.524 248.038 155.493 248.044 155.462 248.044Z" fill="#363E44"/>
<path d="M158.197 243.661L156.697 241.231L152.965 226.172C152.977 223.952 158.677 222.815 160.897 222.827C163.118 222.84 163.533 221.312 163.521 223.532L168.093 241.231L166.226 243.661L158.197 243.661Z" fill="white"/>
<path d="M151 238.101C153.681 239.754 160.117 233.539 160.117 233.539L164.174 225.413C163.887 220.993 160.07 217.642 155.649 217.929C151.229 218.217 147.878 222.033 148.166 226.454C148.166 226.454 148.27 236.418 151 238.101Z" fill="white"/>
<path d="M149.222 228.5C149.222 228.5 147.13 230.998 147.29 231.611C147.481 232.343 150.011 232.633 150.011 232.633C150.011 232.633 149.163 228.51 149.222 228.5Z" fill="white"/>
<path d="M155.825 226.17C155.825 226.17 154.529 225.86 153.162 226.222C152.871 226.299 154.036 228.483 154.277 228.278C155.338 227.377 155.825 226.17 155.825 226.17Z" fill="#35674E"/>
<mask id="mask0_569_9051" style="mask-type:luminance" maskUnits="userSpaceOnUse" x="149" y="226" width="7" height="4">
<path d="M155.825 226.174C155.825 226.174 153.919 225.718 152.29 226.558C150.662 227.398 149.928 229.215 149.928 229.215C149.928 229.215 151.834 229.671 153.463 228.831C155.091 227.992 155.825 226.174 155.825 226.174Z" fill="white"/>
</mask>
<g mask="url(#mask0_569_9051)">
<path d="M153.087 226.181C151.943 225.515 150.477 225.903 149.811 227.047C149.146 228.191 149.534 229.658 150.678 230.323C151.822 230.989 153.289 230.601 153.954 229.457C154.62 228.313 154.231 226.846 153.087 226.181Z" fill="#363E44"/>
</g>
<path d="M164.705 216.571C164.705 216.571 169.073 224.782 163.685 228.484L162.015 227.391L158.684 229.336L159.559 224.927C159.715 223.248 158.297 221.845 156.62 222.02L149.298 222.785L149.119 218.846C153.747 215.429 158.861 214.292 164.705 216.571Z" fill="#363E44"/>
<path d="M156.464 216.175C157.3 216.296 158.075 215.715 158.195 214.879C158.315 214.044 157.798 212.831 156.962 212.711C156.126 212.591 155.288 213.608 155.168 214.444C155.048 215.28 155.628 216.055 156.464 216.175Z" fill="#363E44"/>
<path d="M155.36 216.706C156.149 216.404 156.544 215.521 156.243 214.732C155.942 213.943 154.9 213.134 154.111 213.436C153.322 213.737 153.085 215.033 153.386 215.822C153.687 216.611 154.571 217.007 155.36 216.706Z" fill="#363E44"/>
<path d="M153 217.868C153.982 217.28 154.3 216.007 153.712 215.026C153.124 214.044 151.543 213.211 150.561 213.799C149.579 214.388 149.568 216.175 150.157 217.156C150.745 218.138 152.018 218.457 153 217.868Z" fill="#363E44"/>
<path d="M158.89 216.131C159.722 216.278 160.515 215.723 160.662 214.892C160.809 214.06 160.331 212.832 159.5 212.685C158.668 212.538 157.798 213.528 157.651 214.359C157.503 215.191 158.058 215.984 158.89 216.131Z" fill="#363E44"/>
<path d="M151.137 218.422C151.47 217.459 150.96 216.408 149.998 216.075C149.035 215.741 147.481 216.076 147.147 217.039C146.813 218.002 147.827 219.227 148.79 219.561C149.752 219.894 150.803 219.384 151.137 218.422Z" fill="#363E44"/>
<path d="M160.856 216.519C161.84 216.89 162.939 216.392 163.31 215.407C163.68 214.422 163.376 212.808 162.391 212.438C161.407 212.067 160.114 213.08 159.744 214.065C159.373 215.05 159.871 216.149 160.856 216.519Z" fill="#363E44"/>
<path d="M162.772 216.632C163.333 217.232 164.274 217.263 164.874 216.702C165.474 216.142 165.819 214.907 165.258 214.307C164.697 213.707 163.443 213.969 162.843 214.53C162.243 215.091 162.211 216.032 162.772 216.632Z" fill="#363E44"/>
<path d="M150.876 220.75C150.893 219.508 149.901 218.487 148.659 218.469C147.417 218.451 145.746 219.434 145.729 220.676C145.711 221.918 147.353 222.948 148.595 222.966C149.837 222.984 150.858 221.992 150.876 220.75Z" fill="#363E44"/>
<path d="M165.728 225.344C166.416 226.708 165.867 228.372 164.503 229.06C163.139 229.748 161.475 229.199 160.787 227.835C160.099 226.471 160.648 224.807 162.012 224.119C163.376 223.431 165.04 223.98 165.728 225.344Z" fill="white"/>
<path d="M148.668 232.382L149.957 238.993C150.136 239.913 151.046 240.496 151.958 240.278C152.187 240.223 152.435 240.161 152.697 240.091C157.238 238.886 160.835 235.421 162.205 230.927C162.663 229.421 162.145 227.789 160.902 226.824L160.492 226.506L159.24 227.325C159.24 227.325 158.541 231.037 157.197 231.415C155.853 231.794 153.237 230.894 148.668 232.382Z" fill="#363E44"/>
<path d="M152.008 234.13C151.779 234.13 151.55 234.073 151.342 233.958C151.226 233.894 151.185 233.748 151.249 233.632C151.313 233.517 151.458 233.475 151.574 233.539C151.88 233.709 152.258 233.685 152.536 233.478C152.804 233.278 152.937 232.934 152.876 232.603C152.852 232.473 152.938 232.348 153.067 232.324C153.197 232.3 153.322 232.386 153.346 232.516C153.44 233.025 153.234 233.553 152.822 233.861C152.582 234.039 152.296 234.13 152.008 234.13Z" fill="white"/>
<path d="M158.614 222.319C158.551 222.319 158.487 222.294 158.44 222.244C158.35 222.148 158.354 221.996 158.45 221.906L161.406 219.124C161.502 219.033 161.653 219.037 161.744 219.134C161.834 219.23 161.83 219.382 161.733 219.472L158.778 222.254C158.732 222.298 158.673 222.319 158.614 222.319Z" fill="white"/>
<path d="M218.989 111.166H160.824V155.041H218.989V111.166Z" fill="#35674E"/>
<path d="M218.989 155.281H160.825C160.693 155.281 160.586 155.174 160.586 155.042V111.167C160.586 111.035 160.693 110.928 160.825 110.928H218.989C219.122 110.928 219.229 111.035 219.229 111.167V155.042C219.229 155.174 219.122 155.281 218.989 155.281ZM161.064 154.803H218.75V111.406H161.064V154.803Z" fill="#D3BBA3"/>
<path d="M216.001 121.316H209.5V127.817H216.001V121.316Z" fill="white"/>
<path d="M208.326 128.057H201.825C201.693 128.057 201.586 127.95 201.586 127.818V121.317C201.586 121.185 201.693 121.078 201.825 121.078H208.326C208.458 121.078 208.565 121.185 208.565 121.317V127.818C208.565 127.95 208.458 128.057 208.326 128.057ZM202.064 127.579H208.087V121.556H202.064V127.579Z" fill="#E6D0BE"/>
<path d="M200.652 128.057H194.151C194.019 128.057 193.912 127.95 193.912 127.818V121.317C193.912 121.185 194.019 121.078 194.151 121.078H200.652C200.784 121.078 200.891 121.185 200.891 121.317V127.818C200.891 127.95 200.784 128.057 200.652 128.057ZM194.39 127.579H200.413V121.556H194.39V127.579Z" fill="#E6D0BE"/>
<path d="M192.976 128.057H186.475C186.343 128.057 186.236 127.95 186.236 127.818V121.317C186.236 121.185 186.343 121.078 186.475 121.078H192.976C193.109 121.078 193.215 121.185 193.215 121.317V127.818C193.215 127.95 193.108 128.057 192.976 128.057ZM186.715 127.579H192.737V121.556H186.715V127.579Z" fill="#E6D0BE"/>
<path d="M185.303 128.057H178.802C178.669 128.057 178.562 127.95 178.562 127.818V121.317C178.562 121.185 178.669 121.078 178.802 121.078H185.303C185.435 121.078 185.542 121.185 185.542 121.317V127.818C185.542 127.95 185.435 128.057 185.303 128.057ZM179.041 127.579H185.063V121.556H179.041V127.579Z" fill="#E6D0BE"/>
<path d="M177.627 128.057H171.126C170.994 128.057 170.887 127.95 170.887 127.818V121.317C170.887 121.185 170.994 121.078 171.126 121.078H177.627C177.759 121.078 177.866 121.185 177.866 121.317V127.818C177.866 127.95 177.759 128.057 177.627 128.057ZM171.365 127.579H177.387V121.556H171.365V127.579Z" fill="#E6D0BE"/>
<path d="M169.957 128.057H163.456C163.324 128.057 163.217 127.95 163.217 127.818V121.317C163.217 121.185 163.324 121.078 163.456 121.078H169.957C170.089 121.078 170.196 121.185 170.196 121.317V127.818C170.196 127.95 170.089 128.057 169.957 128.057ZM163.695 127.579H169.718V121.556H163.695V127.579Z" fill="#E6D0BE"/>
<path d="M216.002 135.68H209.501C209.369 135.68 209.262 135.573 209.262 135.441V128.94C209.262 128.808 209.369 128.701 209.501 128.701H216.002C216.134 128.701 216.241 128.808 216.241 128.94V135.441C216.241 135.573 216.134 135.68 216.002 135.68ZM209.74 135.202H215.762V129.179H209.74V135.202Z" fill="#E6D0BE"/>
<path d="M208.326 135.68H201.825C201.693 135.68 201.586 135.573 201.586 135.441V128.94C201.586 128.808 201.693 128.701 201.825 128.701H208.326C208.458 128.701 208.565 128.808 208.565 128.94V135.441C208.565 135.573 208.458 135.68 208.326 135.68ZM202.064 135.202H208.087V129.179H202.064V135.202Z" fill="#E6D0BE"/>
<path d="M200.652 135.68H194.151C194.019 135.68 193.912 135.573 193.912 135.441V128.94C193.912 128.808 194.019 128.701 194.151 128.701H200.652C200.784 128.701 200.891 128.808 200.891 128.94V135.441C200.891 135.573 200.784 135.68 200.652 135.68ZM194.39 135.202H200.413V129.179H194.39V135.202Z" fill="#E6D0BE"/>
<path d="M192.976 135.68H186.475C186.343 135.68 186.236 135.573 186.236 135.441V128.94C186.236 128.808 186.343 128.701 186.475 128.701H192.976C193.109 128.701 193.215 128.808 193.215 128.94V135.441C193.215 135.573 193.108 135.68 192.976 135.68ZM186.715 135.202H192.737V129.179H186.715V135.202Z" fill="#E6D0BE"/>
<path d="M185.302 128.939H178.801V135.44H185.302V128.939Z" fill="white"/>
<path d="M177.627 135.68H171.126C170.994 135.68 170.887 135.573 170.887 135.441V128.94C170.887 128.808 170.994 128.701 171.126 128.701H177.627C177.759 128.701 177.866 128.808 177.866 128.94V135.441C177.866 135.573 177.759 135.68 177.627 135.68ZM171.365 135.202H177.387V129.179H171.365V135.202Z" fill="#E6D0BE"/>
<path d="M169.952 128.939H163.451V135.44H169.952V128.939Z" fill="#EFBC73"/>
<path d="M216.002 143.301H209.501C209.369 143.301 209.262 143.194 209.262 143.062V136.561C209.262 136.429 209.369 136.322 209.501 136.322H216.002C216.134 136.322 216.241 136.429 216.241 136.561V143.062C216.241 143.194 216.134 143.301 216.002 143.301ZM209.74 142.823H215.762V136.8H209.74V142.823Z" fill="#E6D0BE"/>
<path d="M208.326 143.301H201.825C201.693 143.301 201.586 143.194 201.586 143.062V136.561C201.586 136.429 201.693 136.322 201.825 136.322H208.326C208.458 136.322 208.565 136.429 208.565 136.561V143.062C208.565 143.194 208.458 143.301 208.326 143.301ZM202.064 142.823H208.087V136.8H202.064V142.823Z" fill="#E6D0BE"/>
<path d="M200.651 136.561H194.15V143.061H200.651V136.561Z" fill="white"/>
<path d="M192.976 143.301H186.475C186.343 143.301 186.236 143.194 186.236 143.062V136.561C186.236 136.429 186.343 136.322 186.475 136.322H192.976C193.109 136.322 193.215 136.429 193.215 136.561V143.062C193.215 143.194 193.108 143.301 192.976 143.301ZM186.715 142.823H192.737V136.8H186.715V142.823Z" fill="#E6D0BE"/>
<path d="M185.303 143.301H178.802C178.669 143.301 178.562 143.194 178.562 143.062V136.561C178.562 136.429 178.669 136.322 178.802 136.322H185.303C185.435 136.322 185.542 136.429 185.542 136.561V143.062C185.542 143.194 185.435 143.301 185.303 143.301ZM179.041 142.823H185.063V136.8H179.041V142.823Z" fill="#E6D0BE"/>
<path d="M177.627 143.301H171.126C170.994 143.301 170.887 143.194 170.887 143.062V136.561C170.887 136.429 170.994 136.322 171.126 136.322H177.627C177.759 136.322 177.866 136.429 177.866 136.561V143.062C177.866 143.194 177.759 143.301 177.627 143.301ZM171.365 142.823H177.387V136.8H171.365V142.823Z" fill="#E6D0BE"/>
<path d="M169.953 143.301H163.452C163.32 143.301 163.213 143.194 163.213 143.062V136.561C163.213 136.429 163.32 136.322 163.452 136.322H169.953C170.085 136.322 170.192 136.429 170.192 136.561V143.062C170.192 143.194 170.085 143.301 169.953 143.301ZM163.691 142.823H169.714V136.8H163.691V142.823Z" fill="#E6D0BE"/>
<path d="M216.001 144.184H209.5V150.684H216.001V144.184Z" fill="#EFBC73"/>
<path d="M208.326 150.925H201.825C201.693 150.925 201.586 150.818 201.586 150.685V144.185C201.586 144.052 201.693 143.945 201.825 143.945H208.326C208.458 143.945 208.565 144.052 208.565 144.185V150.685C208.565 150.818 208.458 150.925 208.326 150.925ZM202.064 150.446H208.087V144.424H202.064V150.446Z" fill="#E6D0BE"/>
<path d="M200.652 150.925H194.151C194.019 150.925 193.912 150.818 193.912 150.685V144.185C193.912 144.052 194.019 143.945 194.151 143.945H200.652C200.784 143.945 200.891 144.052 200.891 144.185V150.685C200.891 150.818 200.784 150.925 200.652 150.925ZM194.39 150.446H200.413V144.424H194.39V150.446Z" fill="#E6D0BE"/>
<path d="M192.976 150.925H186.475C186.343 150.925 186.236 150.818 186.236 150.685V144.185C186.236 144.052 186.343 143.945 186.475 143.945H192.976C193.109 143.945 193.215 144.052 193.215 144.185V150.685C193.215 150.818 193.108 150.925 192.976 150.925ZM186.715 150.446H192.737V144.424H186.715V150.446Z" fill="#E6D0BE"/>
<path d="M185.303 150.925H178.802C178.669 150.925 178.562 150.818 178.562 150.685V144.185C178.562 144.052 178.669 143.945 178.802 143.945H185.303C185.435 143.945 185.542 144.052 185.542 144.185V150.685C185.542 150.818 185.435 150.925 185.303 150.925ZM179.041 150.446H185.063V144.424H179.041V150.446Z" fill="#E6D0BE"/>
<path d="M177.627 150.925H171.126C170.994 150.925 170.887 150.818 170.887 150.685V144.185C170.887 144.052 170.994 143.945 171.126 143.945H177.627C177.759 143.945 177.866 144.052 177.866 144.185V150.685C177.866 150.818 177.759 150.925 177.627 150.925ZM171.365 150.446H177.387V144.424H171.365V150.446Z" fill="#E6D0BE"/>
<path d="M169.953 150.925H163.452C163.32 150.925 163.213 150.818 163.213 150.685V144.185C163.213 144.052 163.32 143.945 163.452 143.945H169.953C170.085 143.945 170.192 144.052 170.192 144.185V150.685C170.192 150.818 170.085 150.925 169.953 150.925ZM163.691 150.446H169.714V144.424H163.691V150.446Z" fill="#E6D0BE"/>
<path d="M216.416 113.997C216.491 113.531 216.174 113.091 215.707 113.015C215.241 112.939 214.801 113.256 214.725 113.723C214.649 114.19 214.966 114.63 215.433 114.706C215.9 114.781 216.34 114.464 216.416 113.997Z" fill="#402A83"/>
<path d="M211.259 113.997C211.335 113.531 211.018 113.091 210.551 113.015C210.084 112.939 209.645 113.256 209.569 113.723C209.493 114.19 209.81 114.63 210.277 114.706C210.744 114.781 211.184 114.464 211.259 113.997Z" fill="#402A83"/>
<path d="M206.101 113.997C206.177 113.531 205.86 113.091 205.393 113.015C204.926 112.939 204.486 113.256 204.411 113.723C204.335 114.19 204.652 114.63 205.119 114.706C205.585 114.781 206.025 114.464 206.101 113.997Z" fill="#402A83"/>
<path d="M200.947 113.997C201.023 113.531 200.706 113.091 200.239 113.015C199.772 112.939 199.332 113.256 199.256 113.723C199.181 114.19 199.498 114.63 199.964 114.706C200.431 114.781 200.871 114.464 200.947 113.997Z" fill="#402A83"/>
<path d="M195.781 114.07C195.89 113.61 195.605 113.149 195.145 113.04C194.685 112.931 194.223 113.216 194.115 113.676C194.006 114.137 194.291 114.598 194.751 114.707C195.212 114.815 195.673 114.53 195.781 114.07Z" fill="#402A83"/>
<path d="M190.632 113.997C190.708 113.531 190.391 113.091 189.924 113.015C189.457 112.939 189.018 113.256 188.942 113.723C188.866 114.19 189.183 114.63 189.65 114.706C190.117 114.781 190.557 114.464 190.632 113.997Z" fill="#402A83"/>
<path d="M185.469 114.07C185.578 113.61 185.293 113.149 184.832 113.04C184.372 112.931 183.911 113.216 183.802 113.676C183.694 114.137 183.979 114.598 184.439 114.707C184.899 114.815 185.36 114.53 185.469 114.07Z" fill="#402A83"/>
<path d="M180.32 113.997C180.396 113.531 180.079 113.091 179.612 113.015C179.145 112.939 178.705 113.256 178.629 113.723C178.554 114.19 178.871 114.63 179.337 114.706C179.804 114.781 180.244 114.464 180.32 113.997Z" fill="#402A83"/>
<path d="M175.154 114.07C175.263 113.61 174.978 113.149 174.518 113.04C174.058 112.931 173.596 113.216 173.488 113.676C173.379 114.137 173.664 114.598 174.124 114.707C174.585 114.815 175.046 114.53 175.154 114.07Z" fill="#402A83"/>
<path d="M170.007 113.997C170.083 113.531 169.766 113.091 169.299 113.015C168.832 112.939 168.393 113.256 168.317 113.723C168.241 114.19 168.558 114.63 169.025 114.706C169.492 114.781 169.932 114.464 170.007 113.997Z" fill="#402A83"/>
<path d="M164.605 114.469C164.94 114.134 164.94 113.592 164.605 113.258C164.271 112.923 163.729 112.923 163.395 113.258C163.06 113.592 163.06 114.134 163.395 114.469C163.729 114.803 164.271 114.803 164.605 114.469Z" fill="#402A83"/>
<path d="M164.108 114.048C163.976 114.048 163.869 113.941 163.869 113.809V109.046C163.869 108.914 163.976 108.807 164.108 108.807C164.24 108.807 164.347 108.914 164.347 109.046V113.809C164.347 113.941 164.24 114.048 164.108 114.048Z" fill="#D3BBA3"/>
<path d="M169.255 114.048C169.123 114.048 169.016 113.941 169.016 113.809V109.046C169.016 108.914 169.123 108.807 169.255 108.807C169.387 108.807 169.494 108.914 169.494 109.046V113.809C169.494 113.941 169.387 114.048 169.255 114.048Z" fill="#D3BBA3"/>
<path d="M174.399 114.048C174.267 114.048 174.16 113.941 174.16 113.809V109.046C174.16 108.914 174.267 108.807 174.399 108.807C174.531 108.807 174.638 108.914 174.638 109.046V113.809C174.638 113.941 174.531 114.048 174.399 114.048Z" fill="#D3BBA3"/>
<path d="M179.544 114.048C179.412 114.048 179.305 113.941 179.305 113.809V109.046C179.305 108.914 179.412 108.807 179.544 108.807C179.676 108.807 179.783 108.914 179.783 109.046V113.809C179.783 113.941 179.676 114.048 179.544 114.048Z" fill="#D3BBA3"/>
<path d="M184.688 114.048C184.556 114.048 184.449 113.941 184.449 113.809V109.046C184.449 108.914 184.556 108.807 184.688 108.807C184.82 108.807 184.927 108.914 184.927 109.046V113.809C184.928 113.941 184.821 114.048 184.688 114.048Z" fill="#D3BBA3"/>
<path d="M189.833 114.048C189.701 114.048 189.594 113.941 189.594 113.809V109.046C189.594 108.914 189.701 108.807 189.833 108.807C189.965 108.807 190.072 108.914 190.072 109.046V113.809C190.072 113.941 189.965 114.048 189.833 114.048Z" fill="#D3BBA3"/>
<path d="M194.977 114.048C194.845 114.048 194.738 113.941 194.738 113.809V109.046C194.738 108.914 194.845 108.807 194.977 108.807C195.11 108.807 195.216 108.914 195.216 109.046V113.809C195.216 113.941 195.11 114.048 194.977 114.048Z" fill="#D3BBA3"/>
<path d="M200.124 114.048C199.992 114.048 199.885 113.941 199.885 113.809V109.046C199.885 108.914 199.992 108.807 200.124 108.807C200.256 108.807 200.363 108.914 200.363 109.046V113.809C200.363 113.941 200.256 114.048 200.124 114.048Z" fill="#D3BBA3"/>
<path d="M205.268 114.048C205.136 114.048 205.029 113.941 205.029 113.809V109.046C205.029 108.914 205.136 108.807 205.268 108.807C205.401 108.807 205.507 108.914 205.507 109.046V113.809C205.507 113.941 205.401 114.048 205.268 114.048Z" fill="#D3BBA3"/>
<path d="M210.413 114.048C210.281 114.048 210.174 113.941 210.174 113.809V109.046C210.174 108.914 210.281 108.807 210.413 108.807C210.545 108.807 210.652 108.914 210.652 109.046V113.809C210.652 113.941 210.545 114.048 210.413 114.048Z" fill="#D3BBA3"/>
<path d="M215.557 114.048C215.425 114.048 215.318 113.941 215.318 113.809V109.046C215.318 108.914 215.425 108.807 215.557 108.807C215.69 108.807 215.797 108.914 215.797 109.046V113.809C215.797 113.941 215.69 114.048 215.557 114.048Z" fill="#D3BBA3"/>
<path d="M204.546 191.89H177.893C177.761 191.89 177.654 191.783 177.654 191.651V165.011C177.654 164.878 177.761 164.771 177.893 164.771H204.546C204.678 164.771 204.785 164.878 204.785 165.011V191.651C204.785 191.784 204.678 191.89 204.546 191.89ZM178.133 191.412H204.307V165.25H178.133V191.412Z" fill="#35674E"/>
<path d="M189.79 187.623L181.445 180.036L184.023 176.859L189.314 181.087L197.616 169.037L200.994 171.362L189.79 187.623Z" fill="white"/>
<path d="M123.986 146.341C123.984 146.341 123.982 146.341 123.98 146.341C122.606 146.339 121.315 145.802 120.345 144.83C119.375 143.857 118.842 142.565 118.844 141.191L118.85 136.049L129.135 136.062L129.129 141.205C129.127 142.578 128.591 143.869 127.618 144.839C126.647 145.807 125.358 146.341 123.986 146.341ZM119.328 136.528L119.322 141.192C119.32 142.438 119.804 143.61 120.684 144.492C121.564 145.374 122.734 145.861 123.98 145.862C123.982 145.862 123.984 145.862 123.986 145.862C126.555 145.862 128.647 143.774 128.651 141.204L128.657 136.54L119.328 136.528Z" fill="#363E44"/>
<path d="M132.983 134.86C137.941 129.902 137.941 121.864 132.983 116.906C128.025 111.948 119.987 111.948 115.03 116.906C110.072 121.864 110.072 129.902 115.03 134.86C119.987 139.817 128.025 139.817 132.983 134.86Z" fill="#EFBC73"/>
<path d="M124.024 143.115C124.011 143.115 123.998 143.115 123.985 143.115C122.826 143.114 119.044 143.043 119.045 142.198C119.045 142.066 119.152 141.959 119.284 141.959H119.284C119.396 141.959 119.489 142.036 119.516 142.139C119.742 142.318 121.222 142.633 123.985 142.637C124.001 142.637 124.016 142.637 124.031 142.637C126.765 142.637 128.231 142.328 128.456 142.15C128.483 142.047 128.577 141.971 128.688 141.971H128.688C128.82 141.971 128.927 142.079 128.927 142.211C128.926 143.046 125.227 143.115 124.024 143.115Z" fill="#363E44"/>
<path d="M124.026 140.967C124.013 140.967 124 140.967 123.987 140.967C122.828 140.965 119.046 140.894 119.047 140.049C119.047 139.917 119.154 139.811 119.286 139.811H119.286C119.398 139.811 119.491 139.887 119.518 139.99C119.744 140.17 121.224 140.485 123.987 140.488C124.003 140.488 124.018 140.488 124.033 140.488C126.767 140.488 128.233 140.18 128.458 140.002C128.485 139.899 128.578 139.823 128.69 139.823C128.69 139.823 128.69 139.823 128.69 139.823C128.822 139.823 128.929 139.93 128.929 140.062C128.927 140.898 125.229 140.967 124.026 140.967Z" fill="#363E44"/>
<path d="M125.692 135.729C125.661 135.729 125.629 135.723 125.599 135.71C125.477 135.658 125.421 135.518 125.472 135.396L129.474 126.026C129.526 125.904 129.668 125.848 129.788 125.9C129.91 125.952 129.966 126.092 129.914 126.214L125.912 135.584C125.874 135.675 125.785 135.729 125.692 135.729Z" fill="#363E44"/>
<path d="M122.301 135.724C122.208 135.724 122.119 135.669 122.08 135.578L118.103 126.198C118.051 126.076 118.108 125.936 118.23 125.884C118.351 125.833 118.492 125.889 118.543 126.011L122.521 135.391C122.572 135.513 122.515 135.654 122.394 135.705C122.363 135.718 122.332 135.724 122.301 135.724Z" fill="#363E44"/>
<path d="M126.29 127.489C125.623 127.489 124.954 127.281 124.421 126.881C123.903 127.102 123.334 127.202 122.77 127.145C121.202 126.987 119.848 125.634 119.687 124.067C119.673 123.935 119.769 123.818 119.9 123.804C120.032 123.793 120.149 123.886 120.163 124.018C120.301 125.368 121.468 126.533 122.818 126.67C123.229 126.711 123.642 126.656 124.03 126.523C123.257 125.671 123.01 124.363 123.451 123.294C123.673 122.757 124.157 122.159 124.852 122.09C125.457 122.029 126.073 122.413 126.357 123.019C126.586 123.509 126.604 124.122 126.408 124.747C126.16 125.535 125.603 126.2 124.903 126.631C125.688 127.111 126.737 127.148 127.54 126.691C127.654 126.626 127.801 126.665 127.866 126.781C127.932 126.895 127.891 127.041 127.777 127.107C127.325 127.364 126.808 127.489 126.29 127.489ZM124.975 122.563C124.95 122.563 124.924 122.564 124.899 122.566C124.415 122.614 124.062 123.068 123.893 123.477C123.5 124.429 123.755 125.607 124.497 126.318C125.174 125.953 125.72 125.341 125.952 124.603C126.112 124.093 126.102 123.603 125.924 123.222C125.74 122.829 125.351 122.563 124.975 122.563Z" fill="#35674E"/>
</g>
</g>
<defs>
<filter id="filter0_d_569_9051" x="0.898662" y="0.171987" width="238.57" height="329.939" filterUnits="userSpaceOnUse" color-interpolation-filters="sRGB">
<feFlood flood-opacity="0" result="BackgroundImageFix"/>
<feColorMatrix in="SourceAlpha" type="matrix" values="0 0 0 0 0 0 0 0 0 0 0 0 0 0 0 0 0 0 127 0" result="hardAlpha"/>
<feOffset dy="2.14247"/>
<feGaussianBlur stdDeviation="2.14247"/>
<feComposite in2="hardAlpha" operator="out"/>
<feColorMatrix type="matrix" values="0 0 0 0 0 0 0 0 0 0 0 0 0 0 0 0 0 0 0.1 0"/>
<feBlend mode="normal" in2="BackgroundImageFix" result="effect1_dropShadow_569_9051"/>
<feBlend mode="normal" in="SourceGraphic" in2="effect1_dropShadow_569_9051" result="shape"/>
</filter>
<clipPath id="clip0_569_9051">
<rect x="20.9375" y="107.863" width="198.493" height="203.219" rx="15.7534" fill="white"/>
</clipPath>
</defs>
</svg>
