<svg width="239" height="331" viewBox="0 0 239 331" fill="none" xmlns="http://www.w3.org/2000/svg">
<g filter="url(#filter0_d_569_9655)">
<rect x="4.44531" y="2.31445" width="230" height="321.37" rx="18.9041" fill="#E2E3FF"/>
<path d="M83.2897 24.5974V32.5623H83.1889C83.1889 31.9574 82.6343 25.9081 76.9379 25.9081H68.2672V43.0982H76.4338C80.87 43.0982 81.3237 38.6621 81.3237 38.2084H81.3741V49.2988H81.3237C81.3237 48.8451 80.87 44.4089 76.4338 44.4089H68.2672V62.6073H77.9461C83.6426 62.6073 84.1971 56.558 84.1971 55.953H84.2979V63.918H56.9751V63.8171C57.2776 63.8171 60.1006 63.3634 60.1006 58.2719V30.2434C60.1006 25.1519 57.2776 24.6982 56.9751 24.6982V24.5974H83.2897ZM89.8908 34.5284C89.8908 27.6221 95.8393 23.8916 103.502 23.8916C108.089 23.8916 110.862 24.5974 114.441 24.5974V32.8648H114.34C114.038 31.2517 113.483 29.1848 111.719 27.5717C110.156 26.2106 107.686 25.2023 103.603 25.2023C99.4688 25.2023 95.6376 26.8659 95.6376 30.7475C95.6376 34.2259 98.8639 36.0911 101.687 37.7043L108.795 41.7371C114.491 44.9634 116.81 48.7443 116.81 53.0796C116.81 59.8347 111.215 64.2204 101.939 64.2204C98.7127 64.2204 94.0245 63.918 90.7982 63.918V53.4325H90.899C91.151 55.6506 91.6551 58.0703 93.4195 59.9859C94.9823 61.6999 97.6036 62.9097 101.485 62.9097C108.14 62.9097 110.257 59.7843 110.257 56.558C110.257 53.9366 108.946 51.6681 104.056 48.8955L96.5954 44.661C92.3105 42.2412 89.8908 39.2166 89.8908 34.5284ZM124.547 25.9081C118.85 25.9081 118.296 31.9574 118.296 32.5623H118.195V24.5974H150.559V32.5623H150.458C150.458 31.9574 149.903 25.9081 144.207 25.9081H138.46V58.2719C138.46 63.3634 141.283 63.8171 141.586 63.8171V63.918H127.168V63.8171C127.471 63.8171 130.294 63.3634 130.294 58.2719V25.9081H124.547ZM153.563 63.918V63.8171C153.866 63.8171 156.689 63.3634 156.689 58.2719V30.2434C156.689 25.1519 153.866 24.6982 153.563 24.6982V24.5974H168.031C173.577 24.5974 177.609 25.6056 180.13 27.8741C182.096 29.6385 183.104 32.3103 183.104 35.8895C183.104 40.5777 181.037 44.0056 177.71 46.2237C174.786 48.1897 170.854 49.1476 166.519 49.1476H164.855V58.2719C164.855 63.3634 167.678 63.8171 167.981 63.8171V63.918H153.563ZM164.855 47.8369H166.015C168.384 47.8369 170.35 47.0807 171.762 45.6692C173.778 43.7032 174.837 40.4265 174.837 36.1415C174.837 32.3103 174.081 29.6889 172.619 28.0254C171.308 26.5634 169.392 25.9081 167.023 25.9081H164.855V47.8369Z" fill="#3E41B5"/>
<path d="M61.3864 93.6445V93.613C61.4809 93.613 62.3631 93.4712 62.3631 91.8801V83.1212C62.3631 81.5301 61.4809 81.3884 61.3864 81.3884V81.3569H64.3165L71.122 89.6274V83.1212C71.122 81.5301 70.2398 81.3884 70.1453 81.3884V81.3569H72.5398V81.3884C72.4453 81.3884 71.5631 81.5301 71.5631 83.1212V93.7391L62.8042 83.1212V91.8801C62.8042 93.4712 63.6864 93.613 63.7809 93.613V93.6445H61.3864ZM77.1893 96.6849C78.0242 96.6849 78.5599 96.3541 78.9064 95.8815C79.4421 95.1411 79.5366 94.0541 79.5366 93.2664V92.3843C79.0482 93.2822 78.0558 93.8336 76.9845 93.8336C74.5585 93.8336 73.0462 91.9747 73.0462 89.3596C73.0462 86.4295 74.5585 84.2555 77.2366 84.2555C78.4968 84.2555 79.127 84.7753 79.5366 85.3425V84.413H83.0338V84.4445C82.9393 84.4445 82.0571 84.5863 82.0571 86.1774V93.0144C82.0571 94.3534 81.553 95.2829 80.8441 95.913C79.8832 96.7795 78.5284 97.063 77.5674 97.063C75.9921 97.063 74.9681 96.5117 74.3852 96.5117V94.0856H74.4325C74.5742 94.9048 74.9523 95.4877 75.3934 95.8973C76.0236 96.4801 76.7797 96.6849 77.1893 96.6849ZM75.551 89.2021C75.551 91.376 76.3229 93.1404 77.6934 93.1404C78.4968 93.1404 79.0797 92.6678 79.5366 91.5808V86.1774C79.127 85.311 78.5441 85.1062 78.0873 85.1062C76.6379 85.1062 75.551 86.713 75.551 89.2021ZM87.4831 93.8021C86.6954 93.8021 85.9865 93.5658 85.4666 93.1089C84.9625 92.6521 84.6475 91.9747 84.6475 91.0767V86.1774C84.6475 84.5863 83.7653 84.4445 83.6707 84.4445V84.413H87.168V90.8719C87.168 91.2658 87.1995 91.7856 87.4043 92.211C87.6091 92.6206 87.9714 92.9199 88.5228 92.9199C89.6413 92.9199 90.4447 91.8014 90.4447 90.2575V86.1774C90.4447 84.5863 89.5625 84.4445 89.468 84.4445V84.413H92.9653V85.0432C93.2173 84.8384 93.2961 84.6178 93.3118 84.413C93.3118 84.2397 93.2488 83.8301 92.6187 83.6726V83.6569L93.9262 82.7432C94.1153 82.8849 94.3831 83.3733 94.3516 83.7986C94.3043 84.5548 93.5009 85.0589 92.9653 85.2952V91.8801C92.9653 93.4712 93.8475 93.613 93.942 93.613V93.6445H90.4447V92.0062C90.0666 92.8884 89.216 93.8021 87.4831 93.8021ZM99.7987 93.8336C96.7425 93.8336 95.2302 91.6596 95.2302 89.0445C95.2302 86.4295 96.7425 84.2555 99.7987 84.2555C100.964 84.2555 101.91 84.5706 102.634 85.1062C102.745 84.9486 102.776 84.7753 102.76 84.6336C102.745 84.4603 102.65 84.0664 102.004 83.9562V83.9404L103.233 82.9164C103.438 83.0425 103.737 83.5151 103.753 83.9404C103.769 84.5233 103.312 84.9959 102.871 85.311C103.863 86.1932 104.367 87.548 104.367 89.0445C104.367 91.6596 102.855 93.8336 99.7987 93.8336ZM97.8138 89.0445C97.8138 91.376 98.3494 93.4555 99.7987 93.4555C101.248 93.4555 101.799 91.376 101.799 89.0445C101.799 86.713 101.248 84.6336 99.7987 84.6336C98.3494 84.6336 97.8138 86.713 97.8138 89.0445ZM98.1288 82.4596V82.4123L98.9638 81.2466H99.011C99.6569 82.1445 100.807 83.3733 101.563 83.6726L101.516 83.7199C100.586 83.5938 98.9323 83.074 98.1288 82.4596ZM106.287 86.1774C106.287 84.5863 105.404 84.4445 105.31 84.4445V84.413H108.807V91.8801C108.807 93.4712 109.689 93.613 109.784 93.613V93.6445H105.31V93.613C105.404 93.613 106.287 93.4712 106.287 91.8801V86.1774ZM106.129 82.176C106.129 81.4356 106.743 80.8212 107.484 80.8212C108.224 80.8212 108.839 81.4356 108.839 82.176C108.839 82.9164 108.224 83.5308 107.484 83.5308C106.743 83.5308 106.129 82.9164 106.129 82.176ZM117.564 91.2185C117.564 92.148 117.69 92.9829 118.62 92.9829C119.313 92.9829 119.959 92.5575 120.274 92.2425H120.321C120.211 92.6048 119.061 93.7548 117.454 93.7548C116.083 93.7548 115.044 93.361 115.044 91.5021V84.7911H114.256V84.413H115.044V81.987H117.564V84.413H120.179V84.7911H117.564V91.2185ZM121.236 82.8062C121.236 81.2151 120.353 81.0733 120.259 81.0733V81.0418H123.756V86.0514C124.134 85.1692 124.985 84.2555 126.718 84.2555C127.505 84.2555 128.214 84.4918 128.734 84.9486C129.238 85.4055 129.553 86.0829 129.553 86.9808V91.8801C129.553 93.4712 130.436 93.613 130.53 93.613V93.6445H126.056V93.613C126.151 93.613 127.033 93.4712 127.033 91.8801V87.1856C127.033 86.7918 127.001 86.2719 126.797 85.8466C126.592 85.437 126.229 85.1377 125.678 85.1377C124.56 85.1377 123.756 86.2562 123.756 87.8V91.8801C123.756 93.4712 124.638 93.613 124.733 93.613V93.6445H120.259V93.613C120.353 93.613 121.236 93.4712 121.236 91.8801V82.8062ZM134.851 93.8021C134.063 93.8021 133.354 93.5658 132.835 93.1089C132.331 92.6521 132.015 91.9747 132.015 91.0767V86.1774C132.015 84.5863 131.133 84.4445 131.039 84.4445V84.413H134.536V90.8719C134.536 91.2658 134.567 91.7856 134.772 92.211C134.977 92.6206 135.339 92.9199 135.891 92.9199C137.009 92.9199 137.813 91.8014 137.813 90.2575V86.1774C137.813 84.5863 136.931 84.4445 136.836 84.4445V84.413H140.333V85.0432C140.585 84.8384 140.664 84.6178 140.68 84.413C140.68 84.2397 140.617 83.8301 139.987 83.6726V83.6569L141.294 82.7432C141.483 82.8849 141.751 83.3733 141.72 83.7986C141.672 84.5548 140.869 85.0589 140.333 85.2952V91.8801C140.333 93.4712 141.215 93.613 141.31 93.613V93.6445H137.813V92.0062C137.435 92.8884 136.584 93.8021 134.851 93.8021ZM134.678 95.5349C134.678 94.9993 135.087 94.5897 135.623 94.5897C136.159 94.5897 136.568 94.9993 136.568 95.5349C136.568 96.0706 136.159 96.4801 135.623 96.4801C135.087 96.4801 134.678 96.0706 134.678 95.5349ZM147.23 93.8336C144.174 93.8336 142.598 91.8171 142.598 89.0445C142.598 86.4295 144.331 84.2555 147.545 84.2555C148.9 84.2555 149.939 84.7281 150.396 84.7281V87.2486H150.349C150.286 86.8075 150.16 85.9726 149.656 85.3582C149.325 84.9486 148.805 84.6336 148.017 84.6336C145.78 84.6336 145.182 86.713 145.182 89.0445C145.182 91.376 146.095 93.1404 148.191 93.1404C149.404 93.1404 150.144 92.4945 150.585 91.7541L150.632 91.7856C150.538 92.0849 149.845 93.8336 147.23 93.8336ZM158.225 91.2185C158.225 92.148 158.351 92.9829 159.28 92.9829C159.973 92.9829 160.619 92.5575 160.934 92.2425H160.982C160.871 92.6048 159.721 93.7548 158.114 93.7548C156.744 93.7548 155.704 93.361 155.704 91.5021V84.7911H154.916V84.413H155.704V81.987H158.225V84.413H160.84V84.7911H158.225V91.2185ZM161.896 82.8062C161.896 81.2151 161.014 81.0733 160.919 81.0733V81.0418H164.417V86.0514C164.795 85.1692 165.645 84.2555 167.378 84.2555C168.166 84.2555 168.875 84.4918 169.395 84.9486C169.899 85.4055 170.214 86.0829 170.214 86.9808V91.8801C170.214 93.4712 171.096 93.613 171.191 93.613V93.6445H166.717V93.613C166.811 93.613 167.693 93.4712 167.693 91.8801V87.1856C167.693 86.7918 167.662 86.2719 167.457 85.8466C167.252 85.437 166.89 85.1377 166.338 85.1377C165.22 85.1377 164.417 86.2562 164.417 87.8V91.8801C164.417 93.4712 165.299 93.613 165.393 93.613V93.6445H160.919V93.613C161.014 93.613 161.896 93.4712 161.896 91.8801V82.8062ZM173.054 86.1774C173.054 84.5863 172.172 84.4445 172.077 84.4445V84.413H175.575V91.8801C175.575 93.4712 176.457 93.613 176.551 93.613V93.6445H172.077V93.613C172.172 93.613 173.054 93.4712 173.054 91.8801V86.1774ZM172.896 82.176C172.896 81.4356 173.511 80.8212 174.251 80.8212C174.992 80.8212 175.606 81.4356 175.606 82.176C175.606 82.9164 174.992 83.5308 174.251 83.5308C173.511 83.5308 172.896 82.9164 172.896 82.176Z" fill="#3E41B5"/>
<g clip-path="url(#clip0_569_9655)">
<path d="M119.841 308.721C174.436 308.721 218.694 264.463 218.694 209.868C218.694 155.274 174.436 111.016 119.841 111.016C65.2462 111.016 20.9883 155.274 20.9883 209.868C20.9883 264.463 65.2462 308.721 119.841 308.721Z" fill="#3E41B5"/>
<path d="M68.3189 255.933L64.8008 247.895L60.9799 249.567C60.1004 248.479 59.0966 247.519 57.9983 246.702L59.5179 242.817L51.3464 239.621L49.8268 243.506C48.4656 243.361 47.0774 243.385 45.693 243.587L44.0207 239.767L35.9825 243.285L37.6548 247.105C36.5664 247.985 35.6073 248.989 34.7901 250.087L30.9052 248.568L27.709 256.739L31.5938 258.259C31.449 259.62 31.4725 261.008 31.6753 262.392L27.8544 264.065L31.3725 272.103L35.1934 270.431C36.0729 271.519 37.0767 272.478 38.175 273.295L36.6554 277.18L44.8269 280.376L46.3465 276.492C47.7077 276.636 49.0959 276.613 50.4803 276.41L52.1526 280.231L60.1908 276.713L58.5185 272.892C59.6069 272.012 60.566 271.009 61.3832 269.91L65.2681 271.43L68.4643 263.258L64.5795 261.739C64.7243 260.378 64.7008 258.99 64.498 257.605L68.3189 255.933ZM51.7484 268.365C47.1278 270.387 41.7427 268.281 39.7204 263.661C37.6981 259.04 39.8045 253.655 44.4249 251.633C49.0455 249.61 54.4306 251.717 56.4528 256.337C58.4752 260.958 56.3689 266.343 51.7484 268.365Z" fill="#D3BBA3"/>
<path d="M214.42 195.027L211.784 188.362L208.547 189.642C207.855 188.73 207.055 187.921 206.171 187.226L207.575 184.08L200.896 181.271L199.492 184.417C198.366 184.267 197.211 184.253 196.052 184.387L194.799 181.219L187.989 183.912L189.242 187.08C188.305 187.775 187.472 188.574 186.753 189.455L183.577 188.119L180.625 194.737L183.801 196.072C183.631 197.183 183.601 198.321 183.72 199.459L180.482 200.739L183.118 207.404L186.355 206.124C187.047 207.036 187.847 207.845 188.731 208.54L187.328 211.686L194.007 214.495L195.41 211.349C196.537 211.5 197.692 211.513 198.851 211.379L200.103 214.547L206.913 211.854L205.661 208.686C206.597 207.991 207.431 207.192 208.15 206.311L211.325 207.647L214.277 201.029L211.102 199.694C211.271 198.583 211.302 197.445 211.183 196.307L214.42 195.027ZM200.195 204.82C196.28 206.368 191.878 204.517 190.363 200.686C188.848 196.855 190.794 192.494 194.708 190.946C198.623 189.398 203.025 191.249 204.54 195.08C206.054 198.911 204.109 203.272 200.195 204.82Z" fill="#E2E3FF"/>
<path d="M158.332 275.94L156.855 276.679C156.362 276.025 155.822 275.418 155.244 274.862L156.153 273.483L151.485 270.401L150.573 271.782C149.827 271.466 149.058 271.209 148.272 271.014L148.37 269.362L142.787 269.025L142.689 270.674C141.892 270.772 141.097 270.934 140.311 271.161L139.571 269.683L134.57 272.183L135.309 273.662C134.655 274.154 134.049 274.693 133.493 275.271L132.114 274.361L129.034 279.028L130.416 279.94C130.1 280.686 129.844 281.456 129.649 282.242L127.997 282.143L127.664 287.726L129.313 287.825C129.411 288.622 129.573 289.417 129.801 290.204L128.324 290.943L130.827 295.946L132.304 295.207C132.797 295.861 133.337 296.468 133.915 297.025L133.006 298.403L137.674 301.486L138.586 300.104C139.332 300.42 140.101 300.677 140.887 300.872L140.789 302.525L146.372 302.861L146.47 301.212C147.267 301.114 148.062 300.953 148.848 300.725L149.588 302.203L154.589 299.703L153.85 298.225C154.504 297.732 155.11 297.193 155.666 296.615L157.045 297.525L160.125 292.858L158.743 291.946C159.058 291.2 159.315 290.43 159.509 289.644L161.162 289.744L161.495 284.161L159.846 284.061C159.748 283.265 159.586 282.469 159.357 281.683L160.835 280.944L158.332 275.94ZM155.322 285.208C155.614 288.044 154.667 290.888 152.734 292.981C146.166 300.095 134.829 296.313 133.837 286.678C133.545 283.843 134.492 280.998 136.425 278.905C142.994 271.792 154.331 275.573 155.322 285.208Z" fill="#E2E3FF"/>
<path d="M144.607 298.284C140.075 298.284 135.704 295.782 133.542 291.46C132.211 288.8 131.885 285.75 132.622 282.874C133.353 280.026 135.072 277.531 137.464 275.85C137.513 275.815 137.58 275.827 137.615 275.876C137.649 275.925 137.638 275.992 137.589 276.027C132.728 279.444 131.071 286.037 133.735 291.363C135.86 295.609 140.155 298.068 144.606 298.068C146.426 298.068 148.272 297.657 150.007 296.79C154.947 294.32 157.594 288.825 156.444 283.428C156.432 283.37 156.469 283.312 156.527 283.3C156.584 283.287 156.643 283.324 156.655 283.383C157.826 288.877 155.132 294.469 150.103 296.983C148.338 297.866 146.459 298.284 144.607 298.284Z" fill="#3E41B5"/>
<path d="M31.1406 245.844L206.758 245.844L206.758 121.312L31.1406 121.312L31.1406 245.844Z" fill="#DABD00"/>
<path d="M201.248 229.66L201.248 126.822L36.6504 126.822L36.6504 229.66L201.248 229.66Z" fill="#E2E3FF"/>
<path d="M100.463 248.482H105.662C105.662 252.383 108.824 255.544 112.724 255.544H125.174C129.074 255.544 132.236 252.383 132.236 248.482H137.435L142.634 276.113V278.424H95.2637V276.113L100.463 248.482Z" fill="#DABD00"/>
<path d="M142.635 281.419H95.2643C95.2045 281.419 95.1562 281.371 95.1562 281.311C95.1562 281.251 95.2045 281.203 95.2643 281.203H142.635C142.695 281.203 142.743 281.251 142.743 281.311C142.743 281.371 142.695 281.419 142.635 281.419Z" fill="#DABD00"/>
<path d="M179.815 201.757C180.389 199.325 178.883 196.887 176.45 196.312C174.017 195.738 171.579 197.244 171.005 199.677C170.431 202.11 171.937 204.548 174.37 205.122C176.803 205.697 179.24 204.19 179.815 201.757Z" fill="#E2E3FF"/>
<path d="M94.5775 219.477H44.36C44.3002 219.477 44.252 219.429 44.252 219.369V181.503C44.252 181.443 44.3002 181.395 44.36 181.395C44.4197 181.395 44.468 181.443 44.468 181.503V219.261H94.5775C94.6373 219.261 94.6856 219.309 94.6856 219.369C94.6856 219.429 94.6373 219.477 94.5775 219.477Z" fill="#DABD00"/>
<path d="M81.3855 193.933C81.3486 193.933 81.3129 193.915 81.2926 193.881C81.2621 193.829 81.2787 193.763 81.33 193.733L88.1838 189.636C88.2349 189.606 88.3013 189.622 88.3319 189.674C88.3625 189.725 88.3459 189.791 88.2946 189.822L81.4408 193.918C81.4234 193.928 81.4044 193.933 81.3855 193.933Z" fill="#DABD00"/>
<path d="M77.0446 192.838C77.0095 192.838 76.9749 192.821 76.9541 192.789L67.6681 178.652C67.6354 178.602 67.6492 178.535 67.6991 178.502C67.7489 178.469 67.816 178.483 67.8488 178.533L77.1348 192.67C77.1675 192.72 77.1537 192.787 77.1038 192.82C77.0855 192.832 77.065 192.838 77.0446 192.838Z" fill="#DABD00"/>
<path d="M56.5007 183.661C56.4683 183.661 56.4363 183.646 56.4152 183.619C56.3787 183.571 56.3873 183.503 56.4346 183.467L63.6487 177.894C63.696 177.857 63.7639 177.866 63.8002 177.913C63.8367 177.96 63.8281 178.028 63.7807 178.065L56.5666 183.638C56.5471 183.653 56.5237 183.661 56.5007 183.661Z" fill="#DABD00"/>
<path d="M54.1609 188.5C52.4611 188.5 51.0781 187.117 51.0781 185.417C51.0781 183.717 52.4611 182.334 54.1609 182.334C55.8608 182.334 57.2437 183.717 57.2437 185.417C57.2437 187.117 55.8608 188.5 54.1609 188.5ZM54.1609 182.55C52.5801 182.55 51.2942 183.836 51.2942 185.417C51.2942 186.998 52.5801 188.284 54.1609 188.284C55.7417 188.284 57.0277 186.998 57.0277 185.417C57.0277 183.836 55.7417 182.55 54.1609 182.55Z" fill="#DABD00"/>
<path d="M66.1551 179.244C64.4552 179.244 63.0723 177.861 63.0723 176.161C63.0723 174.461 64.4552 173.078 66.1551 173.078C67.8549 173.078 69.2379 174.461 69.2379 176.161C69.2379 177.861 67.8549 179.244 66.1551 179.244ZM66.1551 173.294C64.5743 173.294 63.2883 174.58 63.2883 176.161C63.2883 177.742 64.5743 179.028 66.1551 179.028C67.7358 179.028 69.0218 177.742 69.0218 176.161C69.0218 174.58 67.7357 173.294 66.1551 173.294Z" fill="#DABD00"/>
<path d="M78.7644 198.332C77.0646 198.332 75.6816 196.949 75.6816 195.249C75.6816 193.549 77.0646 192.166 78.7644 192.166C80.4643 192.166 81.8472 193.549 81.8472 195.249C81.8472 196.949 80.4644 198.332 78.7644 198.332ZM78.7644 192.382C77.1837 192.382 75.8977 193.668 75.8977 195.249C75.8977 196.83 77.1837 198.116 78.7644 198.116C80.3452 198.116 81.6312 196.83 81.6312 195.249C81.6312 193.668 80.3452 192.382 78.7644 192.382Z" fill="#DABD00"/>
<path d="M90.8542 191.392C89.1545 191.392 87.7715 190.009 87.7715 188.309C87.7715 186.61 89.1545 185.227 90.8542 185.227C92.554 185.227 93.937 186.61 93.937 188.309C93.937 190.009 92.5541 191.392 90.8542 191.392ZM90.8542 185.443C89.2735 185.443 87.9876 186.729 87.9876 188.309C87.9876 189.89 89.2735 191.176 90.8542 191.176C92.435 191.176 93.7209 189.89 93.7209 188.309C93.7209 186.729 92.435 185.443 90.8542 185.443Z" fill="#DABD00"/>
<path d="M58.0427 193.117H50.6445V213.403H58.0427V193.117Z" fill="#DABD00"/>
<path d="M70.2517 189.074H62.8535V213.401H70.2517V189.074Z" fill="#DABD00"/>
<path d="M82.4607 200.293H75.0625V213.402H82.4607V200.293Z" fill="#DABD00"/>
<path d="M94.6697 196.529H87.2715V213.403H94.6697V196.529Z" fill="#DABD00"/>
<path d="M174.165 169.951C169.385 170.739 164.584 169.619 160.646 166.796C156.709 163.974 154.106 159.787 153.318 155.007C152.53 150.226 153.65 145.425 156.473 141.488C159.296 137.551 163.483 134.948 168.263 134.16C173.043 133.372 177.844 134.492 181.781 137.315C185.719 140.138 188.321 144.325 189.109 149.105C189.898 153.885 188.777 158.686 185.954 162.623C183.132 166.56 178.945 169.163 174.165 169.951ZM169.195 139.811C162.443 140.924 157.856 147.323 158.969 154.075C160.082 160.826 166.481 165.414 173.233 164.3C179.985 163.187 184.572 156.788 183.458 150.036C182.345 143.285 175.946 138.698 169.195 139.811Z" fill="#3E41B5"/>
<path d="M174.047 169.244C169.456 170.001 164.844 168.924 161.062 166.213C157.28 163.502 154.781 159.48 154.023 154.889C153.266 150.297 154.342 145.686 157.054 141.904C159.765 138.122 163.787 135.622 168.378 134.865C172.97 134.108 177.581 135.184 181.363 137.895C185.145 140.607 187.645 144.628 188.402 149.22C189.159 153.811 188.083 158.423 185.372 162.205C182.66 165.987 178.639 168.486 174.047 169.244ZM169.077 139.103C161.936 140.281 157.084 147.049 158.262 154.19C159.439 161.331 166.207 166.183 173.348 165.005C180.489 163.828 185.341 157.06 184.164 149.919C182.986 142.778 176.218 137.926 169.077 139.103Z" fill="#E2E3FF"/>
<path d="M172.459 138.988C177.911 139.508 182.606 143.431 183.956 148.902L188.203 148.202C187.264 144.036 184.864 140.405 181.364 137.896C178.726 136.005 175.684 134.911 172.527 134.678L172.459 138.988Z" fill="#D87355"/>
<path d="M184.293 150.951C184.868 157.701 180.145 163.886 173.349 165.006C169.78 165.595 166.305 164.678 163.574 162.722L160.795 166.017C160.884 166.083 160.973 166.149 161.063 166.214C164.845 168.925 169.456 170.001 174.047 169.244C178.639 168.487 182.661 165.987 185.372 162.205C187.88 158.706 188.988 154.497 188.54 150.25L184.293 150.951Z" fill="#3E41B5"/>
<path d="M162.698 142.071C164.456 140.566 166.633 139.507 169.078 139.104C169.515 139.032 169.95 138.983 170.383 138.955L170.451 134.648C169.762 134.68 169.07 134.752 168.379 134.866C165.083 135.409 162.081 136.85 159.646 139.019L162.698 142.071Z" fill="#EFBC73"/>
<path d="M157.054 141.906C154.342 145.688 153.266 150.299 154.023 154.891C154.649 158.682 156.463 162.084 159.206 164.682L161.987 161.385C160.081 159.505 158.73 157.029 158.262 154.192C157.608 150.23 158.812 146.384 161.231 143.542L158.181 140.492C157.784 140.941 157.408 141.412 157.054 141.906Z" fill="#F7F1EB"/>
<path d="M171.16 156.416C168.755 156.416 166.799 154.459 166.799 152.054C166.799 149.65 168.755 147.693 171.16 147.693C173.565 147.693 175.521 149.65 175.521 152.054C175.521 154.459 173.565 156.416 171.16 156.416ZM171.16 147.909C168.874 147.909 167.015 149.769 167.015 152.054C167.015 154.34 168.874 156.2 171.16 156.2C173.445 156.2 175.305 154.34 175.305 152.054C175.305 149.769 173.446 147.909 171.16 147.909Z" fill="#3E41B5"/>
<path d="M188.865 177.844H152.613V221.556H188.865V177.844Z" fill="#F7F1EB"/>
<path d="M173.386 196.762C173.356 196.762 173.325 196.748 173.304 196.724L171.111 194.146H167.616L164.568 196.736C164.527 196.771 164.466 196.77 164.425 196.733L158.781 191.548L155.306 192.981C155.251 193.004 155.187 192.978 155.164 192.923C155.142 192.867 155.168 192.804 155.223 192.781L158.762 191.322C158.801 191.306 158.846 191.314 158.877 191.342L164.501 196.509L167.507 193.955C167.526 193.939 167.551 193.93 167.577 193.93H171.161C171.192 193.93 171.222 193.944 171.243 193.968L173.411 196.516L175.308 195.435L176.248 189.14C176.252 189.112 176.267 189.087 176.29 189.07L179.368 186.753C179.393 186.734 179.426 186.727 179.458 186.734L183.578 187.704L187.209 182.333C187.243 182.283 187.31 182.27 187.359 182.304C187.409 182.337 187.422 182.404 187.388 182.454L183.715 187.887C183.691 187.924 183.646 187.942 183.601 187.931L179.457 186.956L176.455 189.216L175.515 195.519C175.51 195.552 175.49 195.581 175.461 195.597L173.44 196.748C173.423 196.757 173.405 196.762 173.386 196.762Z" fill="#D87355"/>
<path d="M158.626 218.922C158.566 218.922 158.518 218.873 158.518 218.814V193.049C158.518 192.99 158.566 192.941 158.626 192.941C158.685 192.941 158.734 192.99 158.734 193.049V218.814C158.734 218.873 158.685 218.922 158.626 218.922Z" fill="#E2E3FF"/>
<path d="M164.497 218.924C164.437 218.924 164.389 218.876 164.389 218.816V199.208C164.389 199.148 164.437 199.1 164.497 199.1C164.556 199.1 164.605 199.148 164.605 199.208V218.816C164.605 218.876 164.556 218.924 164.497 218.924Z" fill="#E2E3FF"/>
<path d="M173.217 218.924C173.158 218.924 173.109 218.876 173.109 218.816V199.208C173.109 199.148 173.158 199.1 173.217 199.1C173.277 199.1 173.325 199.148 173.325 199.208V218.816C173.325 218.876 173.277 218.924 173.217 218.924Z" fill="#E2E3FF"/>
<path d="M179.546 218.923C179.486 218.923 179.438 218.875 179.438 218.815V188.206C179.438 188.146 179.486 188.098 179.546 188.098C179.605 188.098 179.654 188.146 179.654 188.206V218.815C179.654 218.875 179.605 218.923 179.546 218.923Z" fill="#E2E3FF"/>
<path d="M183.592 218.922C183.533 218.922 183.484 218.873 183.484 218.814V189.971C183.484 189.912 183.533 189.863 183.592 189.863C183.652 189.863 183.7 189.912 183.7 189.971V218.814C183.7 218.873 183.652 218.922 183.592 218.922Z" fill="#E2E3FF"/>
<path d="M146.404 150.341C146.861 155.164 145.413 159.876 142.326 163.61C139.239 167.344 134.883 169.652 130.06 170.109C125.237 170.567 120.525 169.118 116.791 166.031C113.057 162.945 110.749 158.588 110.292 153.765C109.834 148.942 111.283 144.23 114.37 140.496C117.457 136.762 121.813 134.454 126.636 133.997C131.459 133.54 136.171 134.988 139.905 138.075C143.639 141.161 145.947 145.518 146.404 150.341ZM115.993 153.224C116.639 160.037 122.707 165.053 129.519 164.407C136.332 163.761 141.348 157.694 140.702 150.881C140.057 144.069 133.989 139.052 127.176 139.698C120.364 140.344 115.347 146.412 115.993 153.224Z" fill="#3E41B5"/>
<path d="M145.69 150.407C146.13 155.04 144.739 159.566 141.774 163.153C138.808 166.739 134.624 168.956 129.992 169.395C125.359 169.835 120.832 168.444 117.246 165.479C113.66 162.513 111.443 158.329 111.003 153.697C110.564 149.064 111.955 144.538 114.92 140.951C117.885 137.365 122.07 135.148 126.702 134.708C131.335 134.269 135.861 135.66 139.448 138.625C143.034 141.59 145.251 145.775 145.69 150.407ZM115.28 153.291C115.963 160.496 122.381 165.803 129.586 165.119C136.791 164.436 142.097 158.018 141.414 150.813C140.731 143.608 134.313 138.301 127.108 138.985C119.902 139.668 114.596 146.086 115.28 153.291Z" fill="#E2E3FF"/>
<path d="M115.397 149.911C116.291 144.507 120.528 140.094 126.079 139.124L125.672 134.838C121.452 135.488 117.664 137.633 114.921 140.951C112.852 143.453 111.551 146.412 111.102 149.546L115.397 149.911Z" fill="#D87355"/>
<path d="M128.147 138.928C134.921 138.819 140.766 143.956 141.416 150.813C141.757 154.414 140.603 157.817 138.464 160.407L141.56 163.407C141.632 163.323 141.705 163.239 141.775 163.153C144.74 159.567 146.131 155.041 145.692 150.408C145.253 145.775 143.036 141.591 139.449 138.626C136.131 135.882 132.008 134.488 127.74 134.642L128.147 138.928Z" fill="#EFBC73"/>
<path d="M117.801 159.861C116.421 158.003 115.515 155.759 115.281 153.292C115.239 152.851 115.22 152.413 115.222 151.98L110.931 151.615C110.915 152.305 110.938 153 111.005 153.697C111.32 157.022 112.551 160.117 114.547 162.695L117.801 159.861Z" fill="#3E41B5"/>
<path d="M117.247 165.479C120.833 168.444 125.36 169.835 129.992 169.395C133.818 169.033 137.337 167.457 140.117 164.899L137.019 161.898C135.012 163.67 132.45 164.848 129.587 165.119C125.589 165.498 121.835 164.033 119.167 161.424L115.914 164.257C116.335 164.683 116.779 165.092 117.247 165.479Z" fill="#DABD00"/>
<path d="M128.347 156.467C128.246 156.467 128.145 156.463 128.044 156.456C126.881 156.376 125.82 155.848 125.055 154.97C124.29 154.091 123.913 152.968 123.993 151.805C124.073 150.643 124.601 149.582 125.48 148.817C126.358 148.052 127.482 147.675 128.644 147.755C129.806 147.835 130.868 148.363 131.633 149.241C132.398 150.12 132.775 151.243 132.695 152.406C132.536 154.703 130.616 156.467 128.347 156.467ZM128.338 147.96C127.338 147.96 126.383 148.317 125.621 148.98C124.787 149.707 124.285 150.716 124.209 151.82C124.132 152.925 124.491 153.993 125.218 154.828C125.945 155.663 126.954 156.165 128.058 156.241C130.338 156.399 132.322 154.671 132.479 152.391C132.555 151.286 132.197 150.218 131.47 149.383C130.743 148.548 129.734 148.046 128.629 147.97C128.629 147.97 128.629 147.97 128.629 147.97C128.532 147.964 128.434 147.96 128.338 147.96Z" fill="#3E41B5"/>
<path d="M145.999 177.844H109.748V221.556H145.999V177.844Z" fill="#F7F1EB"/>
<path d="M121.633 196.762H115.762C115.731 196.762 115.702 196.748 115.682 196.725L112.318 192.953C112.279 192.909 112.283 192.84 112.327 192.801C112.372 192.761 112.44 192.765 112.48 192.809L115.81 196.546H121.594L124.641 193.955C124.661 193.939 124.686 193.93 124.711 193.93H128.231L130.658 189.472L132.136 186.055C132.156 186.008 132.206 185.982 132.257 185.992L134.195 186.391L136.583 186.732L140.785 187.721C140.798 187.724 140.81 187.729 140.821 187.736L144.494 190.199C144.543 190.232 144.556 190.3 144.523 190.349C144.49 190.399 144.423 190.412 144.373 190.379L140.716 187.927L136.542 186.944L134.158 186.604L132.299 186.222L130.852 189.566L128.39 194.089C128.371 194.124 128.335 194.146 128.295 194.146H124.751L121.703 196.736C121.684 196.753 121.659 196.762 121.633 196.762Z" fill="#EFBC73"/>
<path d="M115.762 218.924C115.703 218.924 115.654 218.876 115.654 218.816V199.208C115.654 199.148 115.703 199.1 115.762 199.1C115.822 199.1 115.87 199.148 115.87 199.208V218.816C115.87 218.876 115.822 218.924 115.762 218.924Z" fill="#E2E3FF"/>
<path d="M121.633 218.924C121.574 218.924 121.525 218.876 121.525 218.816V199.208C121.525 199.148 121.574 199.1 121.633 199.1C121.693 199.1 121.741 199.148 121.741 199.208V218.816C121.741 218.876 121.693 218.924 121.633 218.924Z" fill="#E2E3FF"/>
<path d="M128.417 218.923C128.357 218.923 128.309 218.874 128.309 218.815V195.672C128.309 195.613 128.357 195.564 128.417 195.564C128.476 195.564 128.525 195.613 128.525 195.672V218.815C128.525 218.874 128.476 218.923 128.417 218.923Z" fill="#E2E3FF"/>
<path d="M136.682 218.923C136.623 218.923 136.574 218.875 136.574 218.815V188.206C136.574 188.146 136.623 188.098 136.682 188.098C136.742 188.098 136.79 188.146 136.79 188.206V218.815C136.79 218.875 136.742 218.923 136.682 218.923Z" fill="#E2E3FF"/>
<path d="M140.729 218.922C140.669 218.922 140.621 218.873 140.621 218.814V189.971C140.621 189.912 140.669 189.863 140.729 189.863C140.789 189.863 140.837 189.912 140.837 189.971V218.814C140.837 218.873 140.789 218.922 140.729 218.922Z" fill="#E2E3FF"/>
<path d="M99.8066 160.149H43.7272C43.6674 160.149 43.6191 160.1 43.6191 160.041V145.61C43.6191 145.55 43.6674 145.502 43.7272 145.502H99.8066C99.8664 145.502 99.9147 145.55 99.9147 145.61V160.041C99.9147 160.1 99.8663 160.149 99.8066 160.149ZM43.8352 159.933H99.6986V145.718H43.8352V159.933Z" fill="#DABD00"/>
<path d="M92.8744 140.862C90.4828 140.137 90.1996 136.603 88.2048 136.653C83.2653 136.778 81.0226 152.195 77.2765 151.991C74.1841 151.823 73.6777 141.207 70.0966 140.862C66.274 140.494 63.5787 152.275 59.4504 151.991C55.8253 151.743 55.9699 142.526 49.5469 139.441C48.4678 138.923 47.3371 138.642 46.2031 138.531V157.058H97.3309V139.615C95.4015 140.94 93.9653 141.193 92.8744 140.862Z" fill="#DABD00"/>
<path d="M67.667 173.899C67.0592 173.899 66.4108 173.348 66.1158 172.523C65.7678 171.55 66.0419 170.559 66.7268 170.314C67.066 170.193 67.4497 170.269 67.8071 170.527C68.1523 170.777 68.434 171.17 68.6 171.635C68.7662 172.099 68.7979 172.582 68.6894 172.994C68.5769 173.421 68.3282 173.723 67.9892 173.844C67.8846 173.881 67.7764 173.899 67.667 173.899ZM67.0537 170.474C66.9661 170.474 66.8808 170.489 66.7995 170.518C66.2268 170.722 66.0113 171.59 66.3192 172.45C66.6272 173.312 67.3442 173.844 67.9162 173.64C68.1863 173.544 68.3866 173.295 68.4803 172.939C68.5779 172.569 68.5481 172.132 68.3966 171.708C68.245 171.284 67.9907 170.927 67.6804 170.702C67.4722 170.552 67.2567 170.474 67.0537 170.474Z" fill="#363E44"/>
<path d="M66.8717 171.918C65.9466 169.323 65.1787 167.893 63.6573 167.18C61.6127 166.222 59.4214 167.396 59.1946 167.522C59.0497 167.603 56.9213 168.623 56.567 170.971C56.2171 173.291 57.1077 175.714 58.9605 177.117V184.8C58.9605 186.464 60.309 187.813 61.9726 187.813H62.3494C64.013 187.813 65.3615 186.464 65.3615 184.8V178.838C66.4168 178.749 67.2516 178.444 67.5862 177.909C68.1856 176.952 67.9611 174.973 66.8717 171.918Z" fill="white"/>
<path d="M67.0656 162.742C66.4497 162.843 65.8338 162.944 65.2178 163.045C65.2545 163.266 65.2872 164.093 64.8853 164.825C64.7513 163.959 64.4217 163.506 64.1657 163.217C61.9138 163.586 59.6619 163.955 57.41 164.323C57.5604 164.537 57.9303 165.124 57.9147 165.938C57.8911 167.167 57.0088 167.912 56.8718 168.024C55.3705 169.644 54.8583 171.915 55.5597 173.911C56.4045 176.317 58.6204 177.213 58.9576 177.343C59.4406 177.274 59.9343 177.196 60.4378 177.107C61.4028 176.938 62.323 176.745 63.1965 176.536C62.3638 176.261 61.911 175.51 61.8171 174.719C61.7144 173.852 62.3536 172.885 63.2535 172.852C63.825 172.83 64.2965 173.129 64.717 174.071C65.0534 173.892 65.4506 173.653 65.787 173.474L64.4413 170.816C64.5815 170.748 67.7808 169.115 67.94 165.904C68.0142 164.411 67.3966 163.264 67.0656 162.742Z" fill="#363E44"/>
<path d="M64.7839 173.359C64.7472 173.359 64.7113 173.34 64.6911 173.306C64.6605 173.255 64.6772 173.189 64.7284 173.158L68.1665 171.101C68.2177 171.071 68.2841 171.087 68.3147 171.138C68.3453 171.19 68.3287 171.256 68.2774 171.287L64.8393 173.343C64.8219 173.354 64.8028 173.359 64.7839 173.359Z" fill="#363E44"/>
<path d="M65.4091 178.864C65.3508 178.864 65.3028 178.818 65.3012 178.759L65.2676 177.492C65.266 177.432 65.3131 177.382 65.3728 177.381C65.3738 177.381 65.3748 177.381 65.3758 177.381C65.434 177.381 65.4821 177.427 65.4837 177.486L65.5173 178.753C65.5189 178.813 65.4717 178.863 65.4121 178.864C65.4111 178.864 65.4101 178.864 65.4091 178.864Z" fill="#363E44"/>
<path d="M63.6819 175.075C63.6526 175.075 63.6234 175.063 63.6021 175.04C63.4583 174.882 63.3301 174.737 63.1969 174.586C63.0871 174.462 62.9742 174.334 62.8462 174.192C62.8062 174.148 62.8097 174.08 62.854 174.04C62.8982 174 62.9666 174.003 63.0065 174.047C63.1351 174.19 63.2486 174.318 63.3589 174.443C63.4913 174.593 63.6187 174.738 63.7617 174.894C63.8019 174.938 63.7989 175.006 63.7549 175.047C63.7342 175.065 63.708 175.075 63.6819 175.075Z" fill="#363E44"/>
<path d="M55.8376 297.852L43.7695 298.313L45.2816 282.451L57.4488 283.851L55.8376 297.852Z" fill="white"/>
<path d="M72.0934 305.722L41.418 305.873L44.184 293.905L56.2975 293.846L64.905 296.506C69.1697 297.661 72.1117 301.433 72.0934 305.722Z" fill="#363E44"/>
<path d="M89.3587 295.888L78.0055 300.005L74.6113 284.437L86.6264 282.062L89.3587 295.888Z" fill="white"/>
<path d="M104.613 305.723L73.9375 305.873L76.7035 293.906L88.9553 293.846L97.4246 296.507C101.689 297.662 104.631 301.434 104.613 305.723Z" fill="#363E44"/>
<path d="M76.6526 208.585C77.8878 211.728 88.2484 284.984 89.4599 289.264C83.6065 289.264 77.7533 289.264 71.8999 289.264C71.1566 288.052 64.3427 243.14 63.901 240.666C63.5294 242.102 59.1349 287.778 58.7633 289.214C53.3457 289.214 47.7143 289.214 42.2969 289.214C42.5948 284.49 48.9526 209.965 49.9364 207.172C58.008 207.643 68.581 208.114 76.6526 208.585Z" fill="#363E44"/>
<path d="M81.4681 185.477C93.228 187.968 99.2731 190.819 97.9667 195.193C97.2088 197.731 90.1526 198.981 80.7695 197.507C80.977 193.714 81.1155 190.06 81.4681 185.477Z" fill="white"/>
<path d="M43.4041 187.002C29.1763 191.213 22.6233 194.675 24.5672 199.203C25.6949 201.83 33.9739 202.893 45.3661 200.084C44.8155 196.037 44.1946 191.88 43.4041 187.002Z" fill="white"/>
<path d="M35.3281 188.546C35.3281 188.546 48.8528 183.155 60.0558 182.751C69.6041 182.407 84.3626 184.924 84.3626 184.924L84.514 201.086L78.7275 200.508L80.4389 224.801L45.9889 226.55L44.8157 204.857L42.2984 206.094L35.3281 188.546Z" fill="#3E41B5"/>
<path d="M87.2056 190.822C87.0242 187.87 86.9028 181.133 87.1047 175.985C87.3166 170.58 88.4168 162.629 89.5269 162.798C90.1593 162.893 90.2334 164.009 90.2335 167.003C90.3849 166.851 90.9063 166.498 91.4783 166.683C92.3247 166.957 92.3417 167.71 92.3698 167.777C92.417 167.721 92.9417 167.137 93.5393 167.225C94.2125 167.323 94.5902 167.777 94.728 168.293C94.8493 168.158 95.3472 167.709 95.9191 167.81C96.5074 167.914 97.0461 168.45 97.0125 169.072C96.9508 170.214 96.7025 173.604 96.7826 175.268C96.9404 178.543 99.0618 190.099 98.0387 194.893C94.4163 192.683 90.8278 193.031 87.2056 190.822Z" fill="white"/>
<path d="M93.8161 189.419C93.8001 189.419 93.7837 189.415 93.7685 189.408C92.048 188.562 89.8225 187.773 86.9645 186.998C86.9069 186.982 86.8729 186.923 86.8886 186.865C86.9041 186.807 86.9636 186.773 87.0211 186.789C89.8925 187.568 92.1308 188.362 93.8639 189.214C93.9174 189.24 93.9394 189.305 93.9132 189.358C93.8943 189.397 93.8559 189.419 93.8161 189.419Z" fill="#363E44"/>
<path d="M89.2047 168.807C89.1976 168.807 89.1902 168.806 89.183 168.805L88.2954 168.624C88.2369 168.612 88.1992 168.555 88.2112 168.497C88.2231 168.438 88.2807 168.4 88.3387 168.412L89.2263 168.593C89.2848 168.605 89.3225 168.662 89.3105 168.721C89.3 168.772 89.255 168.807 89.2047 168.807Z" fill="#363E44"/>
<path d="M91.4567 169.264C91.4495 169.264 91.4423 169.263 91.435 169.262L90.5473 169.081C90.4889 169.069 90.4512 169.012 90.4632 168.954C90.475 168.895 90.5323 168.857 90.5906 168.869L91.4782 169.05C91.5366 169.062 91.5744 169.119 91.5624 169.178C91.5521 169.229 91.507 169.264 91.4567 169.264Z" fill="#363E44"/>
<path d="M93.7555 169.704C93.7484 169.704 93.741 169.703 93.7338 169.701L92.8461 169.521C92.7877 169.509 92.75 169.452 92.762 169.393C92.7739 169.335 92.8311 169.297 92.8895 169.309L93.7771 169.49C93.8355 169.502 93.8732 169.559 93.8613 169.617C93.8508 169.669 93.8058 169.704 93.7555 169.704Z" fill="#363E44"/>
<path d="M95.8336 170.143C95.8265 170.143 95.8192 170.142 95.812 170.141L94.9244 169.96C94.8659 169.948 94.8281 169.891 94.8401 169.833C94.8518 169.774 94.9091 169.736 94.9675 169.748L95.8551 169.929C95.9135 169.941 95.9514 169.998 95.9394 170.057C95.9289 170.108 95.8838 170.143 95.8336 170.143Z" fill="#363E44"/>
<path d="M35.881 195.715C35.8813 195.715 35.8816 195.715 35.8817 195.715C37.4153 184.944 38.71 177.332 39.0174 174.966C39.0496 174.718 39.1084 174.281 39.028 173.714C38.7302 171.611 36.9993 171.087 35.6774 169.019C34.1774 166.672 34.6613 164.502 33.9562 164.409C33.4658 164.344 33.0527 165.111 32.8488 166.856H32.8484C32.851 165.513 32.775 163.691 32.0327 163.691C31.1756 163.738 31.0136 165.889 30.9791 167.195C31.0208 165.614 30.57 164.761 30.1562 164.865C29.5048 165.028 29.1871 166.246 29.213 168.337H29.2129C28.7916 166.898 28.4749 166.612 28.1315 166.793C27.5043 167.123 27.5581 168.842 27.8386 170.354C28.1543 172.057 28.9898 173.268 29.5348 174.019C29.5349 174.019 29.535 174.019 29.5349 174.019C27.6786 181.451 23.5849 194.363 24.2574 198.113C24.3036 198.371 31.8291 195.785 35.881 195.715Z" fill="white"/>
<path d="M39.0171 174.966C39.8501 170.795 39.7394 168.29 39.2405 168.044C38.279 167.571 37.5516 169.993 36.8105 172.289C37.6252 173.077 38.2024 174.177 39.0171 174.966Z" fill="white"/>
<path d="M35.9872 194.498C35.9821 194.498 35.9769 194.498 35.9716 194.497C35.9125 194.489 35.8716 194.434 35.88 194.375C36.1384 192.58 36.4119 190.723 36.6927 188.854C36.7016 188.795 36.7574 188.755 36.8156 188.763C36.8746 188.772 36.9153 188.827 36.9065 188.886C36.6256 190.754 36.3522 192.611 36.0939 194.406C36.0862 194.46 36.04 194.498 35.9872 194.498Z" fill="#363E44"/>
<path d="M33.473 169.095C33.4367 169.095 33.4014 169.077 33.3808 169.044C33.1872 168.729 33.0348 168.391 32.9277 168.038C32.817 167.673 32.7551 167.295 32.7442 166.914C32.7425 166.854 32.7895 166.804 32.8492 166.803C32.9098 166.804 32.9585 166.848 32.9603 166.908C32.9706 167.27 33.0293 167.629 33.1345 167.976C33.2362 168.311 33.381 168.632 33.5648 168.93C33.5961 168.981 33.5803 169.048 33.5295 169.079C33.512 169.09 33.4923 169.095 33.473 169.095Z" fill="#363E44"/>
<path d="M31.5163 169.726C31.4761 169.726 31.4375 169.704 31.4189 169.665C31.2344 169.283 31.1002 168.878 31.02 168.461C30.9372 168.03 30.9124 167.589 30.9464 167.149C30.9509 167.089 31.0001 167.044 31.0624 167.049C31.1219 167.054 31.1663 167.106 31.1618 167.165C31.1293 167.586 31.153 168.008 31.2322 168.42C31.3088 168.819 31.4371 169.206 31.6134 169.571C31.6393 169.625 31.6168 169.689 31.563 169.715C31.548 169.723 31.5319 169.726 31.5163 169.726Z" fill="#363E44"/>
<path d="M30.0973 171.015C30.0623 171.015 30.0279 170.998 30.0072 170.967C29.7567 170.589 29.556 170.181 29.4105 169.752C29.26 169.309 29.1693 168.846 29.1408 168.378C29.1373 168.319 29.1825 168.267 29.2422 168.264C29.3029 168.262 29.3529 168.306 29.3566 168.365C29.3839 168.814 29.471 169.257 29.6153 169.682C29.7548 170.093 29.9473 170.485 30.1874 170.847C30.2204 170.897 30.2068 170.964 30.1571 170.997C30.1385 171.009 30.1177 171.015 30.0973 171.015Z" fill="#363E44"/>
<path d="M187.497 261.555H154.055V290.194H187.497V261.555Z" fill="#DABD00"/>
<path d="M183.501 257.559H150.059V286.198H183.501V257.559Z" fill="#E2E3FF"/>
<path d="M217.371 261.593H191.266C191.206 261.593 191.158 261.545 191.158 261.485C191.158 261.425 191.206 261.377 191.266 261.377H217.371C217.43 261.377 217.479 261.425 217.479 261.485C217.479 261.545 217.43 261.593 217.371 261.593Z" fill="#3E41B5"/>
<path d="M211.826 267.726H191.266C191.206 267.726 191.158 267.678 191.158 267.618C191.158 267.558 191.206 267.51 191.266 267.51H211.826C211.886 267.51 211.934 267.558 211.934 267.618C211.934 267.678 211.886 267.726 211.826 267.726Z" fill="#3E41B5"/>
<path d="M215.292 273.284H191.266C191.206 273.284 191.158 273.236 191.158 273.176C191.158 273.117 191.206 273.068 191.266 273.068H215.292C215.351 273.068 215.4 273.117 215.4 273.176C215.4 273.236 215.351 273.284 215.292 273.284Z" fill="#3E41B5"/>
<path d="M207.794 279.128H191.266C191.206 279.128 191.158 279.08 191.158 279.02C191.158 278.96 191.206 278.912 191.266 278.912H207.794C207.854 278.912 207.902 278.96 207.902 279.02C207.902 279.08 207.854 279.128 207.794 279.128Z" fill="#3E41B5"/>
<path d="M162.843 266.206C163.368 265.943 163.912 265.761 164.462 265.654L164.254 262.676C163.324 262.819 162.4 263.107 161.514 263.55C159.363 264.626 157.81 266.427 157.002 268.511L159.865 269.354C160.437 268.033 161.458 266.899 162.843 266.206Z" fill="#EFBC73"/>
<path d="M159.7 273.997C159.333 272.964 159.252 271.883 159.423 270.851L156.56 270.008C156.202 271.744 156.334 273.593 157.03 275.332L159.7 273.997Z" fill="#EFBC73"/>
<path d="M174.329 268.426L171.659 269.761C172.714 272.734 171.409 276.106 168.517 277.552C165.625 278.999 162.144 278.02 160.398 275.393L157.729 276.728C160.219 280.817 165.487 282.388 169.845 280.209C174.203 278.029 176.107 272.871 174.329 268.426Z" fill="#D87355"/>
<path d="M166.017 265.546C167.972 265.654 169.83 266.664 170.96 268.365L173.629 267.03C171.928 264.235 168.928 262.617 165.809 262.568L166.017 265.546Z" fill="#EFBC73"/>
<path d="M124.207 244.935L122.079 239.551L119.52 240.563C118.966 239.825 118.327 239.169 117.622 238.604L118.716 236.078L113.405 233.777L112.311 236.302C111.417 236.175 110.501 236.157 109.583 236.258L108.571 233.699L103.188 235.828L104.2 238.387C103.461 238.941 102.805 239.58 102.24 240.284L99.7151 239.19L97.4138 244.502L99.9392 245.596C99.8114 246.49 99.7939 247.406 99.8948 248.324L97.3359 249.336L99.4646 254.719L102.023 253.707C102.577 254.445 103.216 255.102 103.921 255.666L102.827 258.192L108.139 260.493L109.233 257.968C110.127 258.096 111.043 258.113 111.96 258.012L112.972 260.571L118.355 258.442L117.344 255.883C118.082 255.329 118.738 254.69 119.303 253.986L121.828 255.08L124.13 249.768L121.604 248.674C121.732 247.78 121.75 246.864 121.649 245.946L124.207 244.935ZM112.987 252.738C109.893 253.961 106.392 252.445 105.169 249.35C103.945 246.256 105.462 242.756 108.556 241.532C111.65 240.308 115.151 241.825 116.374 244.919C117.598 248.014 116.082 251.514 112.987 252.738Z" fill="#E2E3FF"/>
</g>
</g>
<defs>
<filter id="filter0_d_569_9655" x="0.160381" y="0.171987" width="238.57" height="329.939" filterUnits="userSpaceOnUse" color-interpolation-filters="sRGB">
<feFlood flood-opacity="0" result="BackgroundImageFix"/>
<feColorMatrix in="SourceAlpha" type="matrix" values="0 0 0 0 0 0 0 0 0 0 0 0 0 0 0 0 0 0 127 0" result="hardAlpha"/>
<feOffset dy="2.14247"/>
<feGaussianBlur stdDeviation="2.14247"/>
<feComposite in2="hardAlpha" operator="out"/>
<feColorMatrix type="matrix" values="0 0 0 0 0 0 0 0 0 0 0 0 0 0 0 0 0 0 0.1 0"/>
<feBlend mode="normal" in2="BackgroundImageFix" result="effect1_dropShadow_569_9655"/>
<feBlend mode="normal" in="SourceGraphic" in2="effect1_dropShadow_569_9655" result="shape"/>
</filter>
<clipPath id="clip0_569_9655">
<rect x="20.1992" y="107.863" width="198.493" height="203.219" rx="15.7534" fill="white"/>
</clipPath>
</defs>
</svg>
