<svg width="240" height="331" viewBox="0 0 240 331" fill="none" xmlns="http://www.w3.org/2000/svg">
<g filter="url(#filter0_d_569_8108)">
<rect x="5.18457" y="2.31445" width="230" height="321.37" rx="18.9041" fill="#FFE0D4"/>
<path d="M64.3614 63.918V63.8171C64.6638 63.8171 67.4868 63.3634 67.4868 58.2719V30.2434C67.4868 25.1519 64.6638 24.6982 64.3614 24.6982V24.5974H78.7789V24.6982C78.4764 24.6982 75.6534 25.1519 75.6534 30.2434V58.2719C75.6534 63.3634 78.4764 63.8171 78.7789 63.8171V63.918H64.3614ZM83.985 34.5284C83.985 27.6221 89.9335 23.8916 97.596 23.8916C102.183 23.8916 104.956 24.5974 108.535 24.5974V32.8648H108.434C108.132 31.2517 107.577 29.1848 105.813 27.5717C104.25 26.2106 101.78 25.2023 97.6968 25.2023C93.5631 25.2023 89.7319 26.8659 89.7319 30.7475C89.7319 34.2259 92.9582 36.0911 95.7812 37.7043L102.889 41.7371C108.586 44.9634 110.904 48.7443 110.904 53.0796C110.904 59.8347 105.309 64.2204 96.0332 64.2204C92.8069 64.2204 88.1187 63.918 84.8924 63.918V53.4325H84.9932C85.2453 55.6506 85.7494 58.0703 87.5138 59.9859C89.0765 61.6999 91.6979 62.9097 95.5795 62.9097C102.234 62.9097 104.351 59.7843 104.351 56.558C104.351 53.9366 103.04 51.6681 98.1505 48.8955L90.6897 44.661C86.4047 42.2412 83.985 39.2166 83.985 34.5284ZM118.641 25.9081C112.945 25.9081 112.39 31.9574 112.39 32.5623H112.289V24.5974H144.653V32.5623H144.552C144.552 31.9574 143.998 25.9081 138.301 25.9081H132.554V58.2719C132.554 63.3634 135.377 63.8171 135.68 63.8171V63.918H121.262V63.8171C121.565 63.8171 124.388 63.3634 124.388 58.2719V25.9081H118.641ZM147.658 63.918V63.8171C147.96 63.8171 150.783 63.3634 150.783 58.2719V30.2434C150.783 25.1519 147.96 24.6982 147.658 24.6982V24.5974H162.126C167.671 24.5974 171.704 25.6056 174.224 27.8741C176.19 29.6385 177.198 32.3103 177.198 35.8895C177.198 40.5777 175.132 44.0056 171.804 46.2237C168.881 48.1897 164.949 49.1476 160.613 49.1476H158.95V58.2719C158.95 63.3634 161.773 63.8171 162.075 63.8171V63.918H147.658ZM158.95 47.8369H160.109C162.478 47.8369 164.444 47.0807 165.856 45.6692C167.872 43.7032 168.931 40.4265 168.931 36.1415C168.931 32.3103 168.175 29.6889 166.713 28.0254C165.402 26.5634 163.487 25.9081 161.117 25.9081H158.95V47.8369Z" fill="#A64928"/>
<path d="M60.6257 93.6445V93.613C60.7202 93.613 61.6024 93.4712 61.6024 91.8801V83.1212C61.6024 81.5301 60.7202 81.3884 60.6257 81.3884V81.3569H63.5558L70.3613 89.6274V83.1212C70.3613 81.5301 69.4791 81.3884 69.3846 81.3884V81.3569H71.7791V81.3884C71.6846 81.3884 70.8024 81.5301 70.8024 83.1212V93.7391L62.0435 83.1212V91.8801C62.0435 93.4712 62.9257 93.613 63.0202 93.613V93.6445H60.6257ZM76.4286 96.6849C77.2635 96.6849 77.7991 96.3541 78.1457 95.8815C78.6813 95.1411 78.7758 94.0541 78.7758 93.2664V92.3843C78.2875 93.2822 77.295 93.8336 76.2238 93.8336C73.7977 93.8336 72.2854 91.9747 72.2854 89.3596C72.2854 86.4295 73.7977 84.2555 76.4758 84.2555C77.7361 84.2555 78.3662 84.7753 78.7758 85.3425V84.413H82.2731V84.4445C82.1786 84.4445 81.2964 84.5863 81.2964 86.1774V93.0144C81.2964 94.3534 80.7923 95.2829 80.0834 95.913C79.1224 96.7795 77.7676 97.063 76.8067 97.063C75.2313 97.063 74.2073 96.5117 73.6245 96.5117V94.0856H73.6717C73.8135 94.9048 74.1916 95.4877 74.6327 95.8973C75.2628 96.4801 76.019 96.6849 76.4286 96.6849ZM74.7902 89.2021C74.7902 91.376 75.5621 93.1404 76.9327 93.1404C77.7361 93.1404 78.319 92.6678 78.7758 91.5808V86.1774C78.3662 85.311 77.7834 85.1062 77.3265 85.1062C75.8772 85.1062 74.7902 86.713 74.7902 89.2021ZM86.7223 93.8021C85.9347 93.8021 85.2258 93.5658 84.7059 93.1089C84.2018 92.6521 83.8867 91.9747 83.8867 91.0767V86.1774C83.8867 84.5863 83.0045 84.4445 82.91 84.4445V84.413H86.4073V90.8719C86.4073 91.2658 86.4388 91.7856 86.6436 92.211C86.8484 92.6206 87.2107 92.9199 87.7621 92.9199C88.8806 92.9199 89.684 91.8014 89.684 90.2575V86.1774C89.684 84.5863 88.8018 84.4445 88.7073 84.4445V84.413H92.2045V85.0432C92.4566 84.8384 92.5353 84.6178 92.5511 84.413C92.5511 84.2397 92.4881 83.8301 91.858 83.6726V83.6569L93.1655 82.7432C93.3545 82.8849 93.6223 83.3733 93.5908 83.7986C93.5436 84.5548 92.7401 85.0589 92.2045 85.2952V91.8801C92.2045 93.4712 93.0867 93.613 93.1812 93.613V93.6445H89.684V92.0062C89.3059 92.8884 88.4552 93.8021 86.7223 93.8021ZM99.0379 93.8336C95.9818 93.8336 94.4695 91.6596 94.4695 89.0445C94.4695 86.4295 95.9818 84.2555 99.0379 84.2555C100.204 84.2555 101.149 84.5706 101.874 85.1062C101.984 84.9486 102.015 84.7753 102 84.6336C101.984 84.4603 101.889 84.0664 101.243 83.9562V83.9404L102.472 82.9164C102.677 83.0425 102.976 83.5151 102.992 83.9404C103.008 84.5233 102.551 84.9959 102.11 85.311C103.102 86.1932 103.606 87.548 103.606 89.0445C103.606 91.6596 102.094 93.8336 99.0379 93.8336ZM97.053 89.0445C97.053 91.376 97.5886 93.4555 99.0379 93.4555C100.487 93.4555 101.039 91.376 101.039 89.0445C101.039 86.713 100.487 84.6336 99.0379 84.6336C97.5886 84.6336 97.053 86.713 97.053 89.0445ZM97.3681 82.4596V82.4123L98.203 81.2466H98.2503C98.8962 82.1445 100.046 83.3733 100.802 83.6726L100.755 83.7199C99.8256 83.5938 98.1715 83.074 97.3681 82.4596ZM105.526 86.1774C105.526 84.5863 104.644 84.4445 104.549 84.4445V84.413H108.046V91.8801C108.046 93.4712 108.929 93.613 109.023 93.613V93.6445H104.549V93.613C104.644 93.613 105.526 93.4712 105.526 91.8801V86.1774ZM105.368 82.176C105.368 81.4356 105.983 80.8212 106.723 80.8212C107.463 80.8212 108.078 81.4356 108.078 82.176C108.078 82.9164 107.463 83.5308 106.723 83.5308C105.983 83.5308 105.368 82.9164 105.368 82.176ZM113.621 93.6445V93.613C113.716 93.613 114.598 93.4712 114.598 91.8801V82.8062C114.598 81.2151 113.716 81.0733 113.621 81.0733V81.0418H117.119V91.8801C117.119 93.4712 118.001 93.613 118.095 93.613V93.6445H113.621ZM117.119 88.6664L119.434 85.5788C120.096 84.7123 119.529 84.4288 119.513 84.4288V84.413H122.963V84.4288C122.758 84.4288 121.34 84.8226 120.49 85.6575L117.875 88.2884H119.135C120.427 88.2884 120.978 88.6507 121.419 89.9582L122.018 91.6911C122.443 92.9514 122.947 93.3767 123.704 93.0144L123.735 93.0459C122.932 93.5815 122.27 93.8021 121.293 93.8021C120.427 93.8021 119.844 93.5343 119.545 92.6206L118.725 90.163C118.363 89.0918 118.032 88.6664 117.434 88.6664H117.119ZM130.655 86.1459C131.333 84.6966 130.561 84.4445 130.529 84.4445V84.413H132.892V84.4445C132.735 84.4445 131.742 84.6966 131.081 86.1459L127.253 94.574C126.764 95.6295 126.166 96.8897 125.047 96.8897C124.669 96.8897 124.48 96.8425 124.386 96.8267V95.0938H124.433C124.622 95.2829 124.858 95.3617 125.173 95.3617C125.866 95.3617 126.67 95.0151 127.127 93.9123L127.363 93.3452L124.228 86.2562C123.535 84.7123 122.558 84.4445 122.416 84.4445V84.413H126.922V84.4445C126.906 84.4445 126.15 84.6966 126.796 86.1459L128.686 90.4466L130.655 86.1459ZM126.544 83.2788C126.938 81.9712 127.442 81.3253 127.962 81.3253C128.56 81.3253 129.647 82.2075 130.183 82.2075C130.482 82.2075 130.703 82.1288 130.955 81.3726H131.018C130.718 82.7274 130.277 83.263 129.758 83.263C129.001 83.263 128.151 82.4281 127.489 82.4281C127.19 82.4281 126.89 82.6644 126.591 83.2788H126.544ZM139.603 91.2185C139.603 92.148 139.729 92.9829 140.658 92.9829C141.352 92.9829 141.997 92.5575 142.312 92.2425H142.36C142.249 92.6048 141.099 93.7548 139.493 93.7548C138.122 93.7548 137.082 93.361 137.082 91.5021V84.7911H136.295V84.413H137.082V81.987H139.603V84.413H142.218V84.7911H139.603V91.2185ZM143.274 82.8062C143.274 81.2151 142.392 81.0733 142.297 81.0733V81.0418H145.795V86.0514C146.173 85.1692 147.024 84.2555 148.756 84.2555C149.544 84.2555 150.253 84.4918 150.773 84.9486C151.277 85.4055 151.592 86.0829 151.592 86.9808V91.8801C151.592 93.4712 152.474 93.613 152.569 93.613V93.6445H148.095V93.613C148.189 93.613 149.071 93.4712 149.071 91.8801V87.1856C149.071 86.7918 149.04 86.2719 148.835 85.8466C148.63 85.437 148.268 85.1377 147.717 85.1377C146.598 85.1377 145.795 86.2562 145.795 87.8V91.8801C145.795 93.4712 146.677 93.613 146.771 93.613V93.6445H142.297V93.613C142.392 93.613 143.274 93.4712 143.274 91.8801V82.8062ZM156.89 93.8021C156.102 93.8021 155.393 93.5658 154.873 93.1089C154.369 92.6521 154.054 91.9747 154.054 91.0767V86.1774C154.054 84.5863 153.172 84.4445 153.077 84.4445V84.413H156.575V90.8719C156.575 91.2658 156.606 91.7856 156.811 92.211C157.016 92.6206 157.378 92.9199 157.929 92.9199C159.048 92.9199 159.851 91.8014 159.851 90.2575V86.1774C159.851 84.5863 158.969 84.4445 158.875 84.4445V84.413H162.372V91.8801C162.372 93.4712 163.254 93.613 163.349 93.613V93.6445H159.851V92.0062C159.473 92.8884 158.623 93.8021 156.89 93.8021ZM167.767 84.9171C166.003 84.9171 164.9 86.3822 164.758 87.2959H164.711C164.853 85.6418 166.192 84.2555 168.665 84.2555C169.516 84.2555 170.729 84.3815 171.548 85.0747C172.052 85.5158 172.399 86.1774 172.399 87.1856V91.8801C172.399 93.4712 173.281 93.613 173.375 93.613V93.6445H169.878V92.211C169.437 92.9514 168.508 93.7391 166.838 93.7391C165.325 93.7391 164.175 93.0144 164.175 91.4706C164.175 89.4226 166.192 88.0521 169.878 87.9575V87.2486C169.878 86.3507 169.658 85.7521 169.264 85.3897C168.901 85.0589 168.381 84.9171 167.767 84.9171ZM166.034 83.7671L166.066 83.7829C166.979 83.7671 168.114 83.263 168.665 82.9007H168.697C169.248 83.263 170.382 83.7671 171.296 83.7829L171.327 83.7671C170.492 83.389 169.138 82.2075 168.697 81.4829H168.665C168.224 82.2075 166.869 83.389 166.034 83.7671ZM166.696 91.4706C166.696 92.2267 167.121 92.9986 167.988 92.9986C169.043 92.9986 169.784 91.9274 169.878 91.6123V88.3356C167.452 88.3671 166.696 90.3206 166.696 91.4706ZM167.31 95.5349C167.31 94.9993 167.72 94.5897 168.255 94.5897C168.791 94.5897 169.201 94.9993 169.201 95.5349C169.201 96.0706 168.791 96.4801 168.255 96.4801C167.72 96.4801 167.31 96.0706 167.31 95.5349ZM177.248 91.2185C177.248 92.148 177.374 92.9829 178.304 92.9829C178.997 92.9829 179.643 92.5575 179.958 92.2425H180.005C179.895 92.6048 178.745 93.7548 177.138 93.7548C175.767 93.7548 174.728 93.361 174.728 91.5021V84.7911H173.94V84.413H174.728V81.987H177.248V84.413H179.863V84.7911H177.248V91.2185Z" fill="#A64928"/>
<g clip-path="url(#clip0_569_8108)">
<g clip-path="url(#clip1_569_8108)">
<path d="M119.004 311.084C173.599 311.084 217.857 266.827 217.857 212.232C217.857 157.637 173.599 113.379 119.004 113.379C64.4093 113.379 20.1514 157.637 20.1514 212.232C20.1514 266.827 64.4093 311.084 119.004 311.084Z" fill="#A64928"/>
<path d="M114.815 243.755C114.71 243.755 114.614 243.684 114.585 243.578L113.082 237.95C113.048 237.823 113.124 237.692 113.251 237.658C113.377 237.625 113.509 237.7 113.542 237.827L114.984 243.225L126.292 240.204C126.418 240.171 126.55 240.246 126.584 240.373C126.618 240.5 126.542 240.631 126.415 240.665L114.877 243.746C114.856 243.752 114.835 243.755 114.815 243.755Z" fill="#F8E69E"/>
<path d="M106.93 214.232C106.825 214.232 106.729 214.162 106.701 214.055L83.9993 129.054C83.9654 128.926 84.0407 128.796 84.168 128.762L126.131 117.555C126.257 117.521 126.389 117.596 126.423 117.724L131.174 135.514C131.208 135.641 131.133 135.771 131.005 135.805C130.88 135.839 130.748 135.764 130.714 135.636L126.024 118.077L84.521 129.161L107.161 213.933C107.195 214.06 107.119 214.19 106.992 214.224C106.972 214.23 106.951 214.232 106.93 214.232Z" fill="#F8E69E"/>
<path d="M122.371 125.338L91.2969 133.637L96.9317 154.737L128.006 146.438L122.371 125.338Z" fill="#C35D2D"/>
<path d="M128.755 149.248L97.6807 157.547L103.315 178.647L134.389 170.349L128.755 149.248Z" fill="#2F52B6"/>
<path d="M135.14 173.157L104.066 181.455L109.701 202.555L140.775 194.257L135.14 173.157Z" fill="white"/>
<path d="M128.621 235.542C128.613 235.542 128.605 235.542 128.596 235.541L115.885 234.232C115.822 234.226 115.764 234.195 115.724 234.146C115.684 234.097 115.666 234.034 115.672 233.971L116.584 225.108C116.598 224.978 116.714 224.882 116.846 224.896C116.977 224.909 117.072 225.026 117.059 225.157L116.17 233.783L128.645 235.067C128.776 235.08 128.871 235.197 128.858 235.328C128.845 235.451 128.742 235.542 128.621 235.542Z" fill="#F8E69E"/>
<path d="M159.114 238.682C159.106 238.682 159.098 238.682 159.09 238.681L156.997 238.465C156.866 238.452 156.771 238.335 156.784 238.204C156.798 238.073 156.913 237.978 157.046 237.992L158.902 238.183L159.374 233.589C159.388 233.458 159.505 233.363 159.636 233.376C159.767 233.39 159.862 233.507 159.848 233.638L159.351 238.468C159.338 238.591 159.235 238.682 159.114 238.682Z" fill="#F8E69E"/>
<path d="M118.268 211.325C118.26 211.325 118.252 211.325 118.243 211.324C118.112 211.311 118.017 211.194 118.031 211.063L127.81 116.058C127.823 115.927 127.94 115.831 128.071 115.845L171.277 120.292C171.408 120.306 171.503 120.423 171.49 120.554L169.593 138.986C169.579 139.117 169.466 139.214 169.331 139.198C169.2 139.185 169.105 139.068 169.119 138.937L170.992 120.742L128.26 116.343L118.505 211.112C118.492 211.234 118.388 211.325 118.268 211.325Z" fill="#F8E69E"/>
<path d="M164.993 126.227L132.999 122.934L130.763 144.658L162.757 147.952L164.993 126.227Z" fill="#DA6623"/>
<path d="M162.459 150.846L130.465 147.553L128.228 169.277L160.222 172.571L162.459 150.846Z" fill="#DA6623"/>
<path d="M159.925 175.462L127.931 172.168L125.694 193.893L157.688 197.186L159.925 175.462Z" fill="#DA6623"/>
<path d="M181.108 124.061L113.284 221.277L148.906 246.129L216.73 148.912L181.108 124.061Z" fill="white"/>
<path d="M202.741 169.2C202.694 169.2 202.647 169.186 202.605 169.157C202.497 169.082 202.471 168.933 202.546 168.826L216.397 148.971L181.167 124.392L175.093 133.098C175.018 133.206 174.869 133.232 174.761 133.157C174.653 133.082 174.627 132.933 174.702 132.826L180.912 123.924C180.987 123.817 181.135 123.79 181.244 123.865L216.865 148.717C216.973 148.792 216.999 148.941 216.924 149.048L202.937 169.098C202.891 169.164 202.817 169.2 202.741 169.2Z" fill="#F8E69E"/>
<path d="M208.488 150.867L182.11 132.463L169.613 150.374L195.991 168.779L208.488 150.867Z" fill="#EEC107"/>
<path d="M194.328 171.162L167.95 152.758L155.453 170.669L181.831 189.074L194.328 171.162Z" fill="#F2CD36"/>
<path d="M180.168 191.459L153.79 173.055L141.293 190.966L167.671 209.371L180.168 191.459Z" fill="#FFD092"/>
<path d="M75.0547 128.43L80.5921 140.175L74.6943 142.957L69.1569 131.212L66.2329 132.592L65.1562 145.534L75.8252 152.936L77.6146 152.092L91.3011 181.121L91.3022 181.121L101.887 204.294C102.925 206.561 105.603 207.557 107.87 206.518C110.136 205.48 111.132 202.802 110.095 200.535L99.4672 177.269L99.4678 177.269L99.4415 177.213L99.439 177.208L85.7814 148.24L87.5709 147.396L88.6476 134.453L77.9787 127.051L75.0547 128.43Z" fill="#F8E69E"/>
<path d="M100.143 127.971L97.8955 128.467L110.323 184.804L112.57 184.308L100.143 127.971Z" fill="#363E44"/>
<path d="M107.102 152.768L102.013 153.891L103.135 158.98L108.225 157.857L107.102 152.768Z" fill="#363E44"/>
<path d="M98.4489 120.238L96.1831 120.738L95.9502 125.068L97.9829 128.898L100.249 128.398L100.482 124.068L98.4489 120.238Z" fill="#363E44"/>
<path d="M108.617 156.262L102.113 157.696L103.895 181.233L112.18 203.336L118.683 201.902L116.902 178.364L108.617 156.262Z" fill="#F2CD36"/>
<path d="M114.928 200.547C114.819 200.547 114.72 200.472 114.696 200.361L108.528 172.438C108.5 172.31 108.581 172.183 108.709 172.154C108.839 172.125 108.965 172.207 108.993 172.335L115.161 200.258C115.189 200.386 115.108 200.513 114.98 200.542C114.962 200.546 114.945 200.547 114.928 200.547Z" fill="#363E44"/>
<path d="M108.424 171.102C108.315 171.102 108.216 171.026 108.192 170.915L105.639 159.36C105.611 159.232 105.692 159.105 105.821 159.076C105.95 159.047 106.076 159.129 106.105 159.257L108.657 170.812C108.685 170.941 108.604 171.068 108.476 171.096C108.458 171.1 108.441 171.102 108.424 171.102Z" fill="#363E44"/>
<path d="M171.251 208.391H61.1885V286.593H171.251V208.391Z" fill="#E6D0BE"/>
<path d="M170.82 193.902H60.1006V219.599H170.82V193.902Z" fill="#F7F1EB"/>
<path d="M170.384 220H170.384L60.7341 219.894C60.6024 219.894 60.4959 219.788 60.4961 219.656C60.4963 219.525 60.6028 219.418 60.7343 219.418H60.7345L170.384 219.524C170.516 219.524 170.622 219.631 170.622 219.762C170.622 219.894 170.515 220 170.384 220Z" fill="#D3BBA3"/>
<path d="M169.87 215.981H169.869L60.2194 215.875C60.0878 215.875 59.9812 215.768 59.9814 215.636C59.9817 215.505 60.0882 215.398 60.2197 215.398H60.2199L169.87 215.504C170.001 215.504 170.108 215.611 170.108 215.743C170.108 215.874 170.001 215.981 169.87 215.981Z" fill="#D3BBA3"/>
<path d="M169.612 211.115H169.611L59.9616 211.01C59.8299 211.01 59.7234 210.903 59.7236 210.771C59.7238 210.64 59.8304 210.533 59.9618 210.533H59.9621L169.612 210.639C169.743 210.639 169.85 210.746 169.85 210.877C169.85 211.009 169.743 211.115 169.612 211.115Z" fill="#D3BBA3"/>
<path d="M170.384 206.25H170.384L60.7341 206.144C60.6024 206.144 60.4959 206.038 60.4961 205.906C60.4963 205.774 60.6028 205.668 60.7343 205.668H60.7345L170.384 205.774C170.516 205.774 170.622 205.881 170.622 206.012C170.622 206.144 170.515 206.25 170.384 206.25Z" fill="#D3BBA3"/>
<path d="M170.899 202.233H170.898L61.2487 202.127C61.1171 202.127 61.0105 202.02 61.0107 201.888C61.011 201.757 61.1175 201.65 61.249 201.65H61.2492L170.899 201.756C171.031 201.756 171.137 201.863 171.137 201.995C171.137 202.126 171.03 202.233 170.899 202.233Z" fill="#D3BBA3"/>
<path d="M65.0073 188.041H56.3662V294.856H65.0073V188.041Z" fill="#D3BBA3"/>
<path d="M65.9458 295.095H56.8281V187.803H65.9458V295.095ZM57.3046 294.618H65.4694V188.279H57.3046V294.618Z" fill="#363E44"/>
<path d="M177.108 188.041H168.467V294.856H177.108V188.041Z" fill="#D3BBA3"/>
<path d="M178.045 295.354H168.928V188.062H178.045V295.354ZM169.404 294.878H177.569V188.539H169.404V294.878Z" fill="#363E44"/>
<path d="M180.751 185.807H51.8398V197.991H180.751V185.807Z" fill="#D3BBA3"/>
<path d="M182.037 198.503H52.6494V186.268H182.037V198.503ZM53.1257 198.027H181.56V186.744H53.1257V198.027Z" fill="#363E44"/>
<path d="M145.871 251.396H142.592C142.298 249.796 141.879 248.241 141.347 246.739L144.185 245.1L138.636 235.484L135.791 237.127C134.747 235.905 133.609 234.766 132.387 233.721L134.029 230.875L124.417 225.324L122.779 228.163C121.278 227.63 119.723 227.212 118.124 226.918V223.637H107.026V226.918C105.427 227.211 103.872 227.63 102.371 228.163L100.733 225.324L91.1208 230.875L92.763 233.721C91.5409 234.766 90.4024 235.905 89.3586 237.127L86.5139 235.484L80.9644 245.1L83.8026 246.739C83.2704 248.241 82.8515 249.796 82.5579 251.396H79.2783V262.499H82.5579C82.8515 264.098 83.2704 265.654 83.8026 267.155L80.9644 268.795L86.5138 278.411L89.3585 276.767C90.4024 277.99 91.5409 279.129 92.7629 280.173L91.1207 283.019L100.733 288.571L102.371 285.731C103.872 286.264 105.427 286.683 107.025 286.977V290.258H118.124V286.977C119.723 286.683 121.278 286.264 122.779 285.731L124.417 288.571L134.029 283.019L132.387 280.173C133.609 279.129 134.747 277.99 135.791 276.767L138.636 278.411L144.185 268.795L141.347 267.155C141.879 265.654 142.298 264.098 142.592 262.499H145.871L145.871 251.396ZM130.724 257.542C130.42 267.054 122.677 274.8 113.169 275.104C102.67 275.439 94.0905 266.856 94.4256 256.353C94.7291 246.841 102.473 239.094 111.98 238.791C122.479 238.455 131.059 247.039 130.724 257.542Z" fill="white"/>
<path d="M112.575 281.475C99.056 281.475 88.0576 270.472 88.0576 256.948C88.0576 251.039 90.188 245.33 94.0559 240.874C97.8854 236.462 103.158 233.557 108.904 232.694C109.033 232.674 109.155 232.764 109.175 232.894C109.194 233.024 109.104 233.146 108.974 233.165C97.3213 234.916 88.5339 245.14 88.5339 256.948C88.5339 270.21 99.3185 280.999 112.575 280.999C123.528 280.999 133.097 273.601 135.846 263.009C135.878 262.881 136.009 262.805 136.136 262.838C136.263 262.871 136.34 263.001 136.307 263.128C133.504 273.931 123.745 281.475 112.575 281.475Z" fill="#F2E6DC"/>
<path d="M66.9385 281.316L70.1694 294.936L80.5637 294.932L78.0486 281.312L66.9385 281.316Z" fill="white"/>
<path d="M70.168 294.478L71.3171 309.873L100.056 309.863C96.1657 303.903 89.8381 297.023 80.5295 294.475L70.168 294.478Z" fill="#4446A0"/>
<path d="M34.9961 282.94L37.8643 295.883H46.9302V282.113L34.9961 282.94Z" fill="white"/>
<path d="M37.7466 295.352C37.7466 295.915 34.1035 310.141 34.1035 310.141H54.962L46.7567 295.352H37.7466Z" fill="#4446A0"/>
<path d="M44.7993 212.577C44.7993 212.577 41.9607 230.929 64.5175 285.927H79.2291C79.2291 285.927 67.5919 218.775 66.3486 210.305L44.7993 212.577Z" fill="#4446A0"/>
<path d="M32.3025 215.264C32.3025 215.264 26.5992 244.195 34.2658 285.928H47.9414C47.9414 285.928 50.3941 225.387 53.9166 216.297L32.3025 215.264Z" fill="#4446A0"/>
<path d="M48.8155 266.981C48.8096 266.981 48.8038 266.981 48.7981 266.981C48.6669 266.971 48.5683 266.857 48.5778 266.726L51.3077 229.089L55.9577 227.492C56.0834 227.449 56.2178 227.515 56.2603 227.64C56.3031 227.764 56.2371 227.899 56.1126 227.942L51.7599 229.437L49.0527 266.76C49.0436 266.886 48.9393 266.981 48.8155 266.981Z" fill="#363E44"/>
<path d="M37.6895 172.643C37.6895 172.643 47.0586 168.691 61.4943 172.731L63.056 218.76L42.2932 218.976L37.6895 172.643Z" fill="#1F44DC"/>
<path d="M43.2562 171.285C43.4027 171.274 43.2165 215.844 43.2165 215.844L32.2703 215.507L29.334 174.127C29.334 174.127 34.5736 171.958 43.2562 171.285Z" fill="#1F44DC"/>
<path d="M36.2712 199.804L28.904 202.408C26.1331 203.388 23.087 201.976 22.0432 199.229C20.13 194.194 20.1374 188.615 22.1413 183.615C23.6472 179.858 27.3472 174.909 29.4307 174.078L36.2712 199.804Z" fill="#1F44DC"/>
<path d="M31.7668 189.366C31.7563 189.366 31.7456 189.365 31.7349 189.364C31.6047 189.346 31.513 189.226 31.5304 189.096L32.2453 183.754C32.2627 183.623 32.3817 183.531 32.513 183.549C32.6433 183.566 32.7349 183.686 32.7175 183.817L32.0027 189.159C31.9867 189.279 31.8843 189.366 31.7668 189.366Z" fill="#363E44"/>
<path d="M55.5771 171.438L62.8357 215.548L67.1721 215.506L69.5229 174.548C69.5229 174.548 62.7127 172.091 55.5771 171.438Z" fill="#1F44DC"/>
<path d="M69.5224 174.551L67.0186 190.716L76.7446 196.141C80.5191 198.247 85.2875 196.761 87.1981 192.884L88.458 187.683L69.5224 174.551Z" fill="#1F44DC"/>
<path d="M78.5322 183.732C80.9272 179.813 83.2382 175.001 84.6034 172.756C87.4181 168.128 92.2478 161.703 93.1377 162.391C93.6446 162.782 93.1671 163.794 91.7109 166.415C91.917 166.356 92.5854 166.333 92.9962 166.773C93.6039 167.424 93.2123 168.06 93.2045 168.132C93.2727 168.106 94.066 167.856 94.5467 168.223C95.0881 168.636 95.148 169.212 95.0177 169.73C95.1892 169.672 95.9567 169.545 96.4005 169.92C96.9774 170.409 96.8354 171.234 96.5033 171.762C95.894 172.732 94.1631 175.339 93.4238 176.835C92.5041 178.696 89.4775 185.752 86.8431 191.046C84.8791 194.993 74.9741 189.556 78.5322 183.732Z" fill="white"/>
<path d="M89.7151 175.925C89.6985 175.925 89.682 175.923 89.6653 175.919C89.5366 175.892 89.4545 175.766 89.4817 175.637C89.7181 174.527 89.4782 173.627 89.2856 172.903C89.0793 172.128 88.9009 171.459 89.5217 171.01C89.8569 170.768 90.1437 170.298 90.3514 169.65C90.4007 169.496 90.2986 169.401 90.2663 169.375C90.2328 169.349 90.1134 169.271 89.9723 169.357L86.968 171.194C86.8555 171.263 86.7089 171.228 86.6405 171.115C86.5719 171.003 86.6072 170.856 86.7195 170.788L89.7238 168.951C89.9881 168.789 90.3165 168.809 90.5605 169C90.8027 169.191 90.8988 169.503 90.805 169.795C90.5626 170.552 90.2247 171.09 89.8008 171.396C89.4607 171.642 89.5431 172.019 89.746 172.781C89.9409 173.512 90.2077 174.514 89.9479 175.736C89.9239 175.848 89.825 175.925 89.7151 175.925Z" fill="#363E44"/>
<path d="M94.8829 173.302C94.8399 173.302 94.7962 173.29 94.7571 173.266C94.1051 172.858 93.7648 172.125 93.8259 171.398C93.3958 171.849 92.7098 171.953 92.1627 171.64C91.8405 171.456 91.6118 171.157 91.5188 170.797C91.4258 170.438 91.4805 170.066 91.6725 169.749L91.7758 169.578C91.4801 169.632 91.1626 169.569 90.903 169.379C90.4352 169.037 90.2991 168.399 90.5869 167.896L91.2266 166.776C91.2917 166.662 91.4371 166.622 91.5515 166.688C91.6657 166.753 91.7055 166.899 91.6401 167.013L91.0005 168.132C90.8332 168.425 90.9123 168.796 91.1842 168.995C91.4729 169.206 91.8842 169.146 92.1012 168.862L92.6402 168.154C92.7167 168.054 92.8589 168.03 92.9636 168.102C93.0683 168.173 93.0989 168.314 93.0334 168.422L92.0801 169.996C91.9549 170.202 91.9195 170.445 91.98 170.678C92.0405 170.912 92.1894 171.107 92.399 171.226C92.7714 171.439 93.2422 171.355 93.5183 171.028L94.4088 169.971C94.4874 169.878 94.6234 169.859 94.7242 169.927C94.8252 169.995 94.8584 170.128 94.8013 170.236L94.4714 170.857C94.0983 171.56 94.3347 172.44 95.0092 172.862C95.1208 172.931 95.1549 173.078 95.0853 173.19C95.04 173.262 94.9626 173.302 94.8829 173.302Z" fill="#363E44"/>
<path d="M39.3549 219.555H63.249V190.554H39.3549V219.555Z" fill="#4446A0"/>
<path d="M63.248 190.552C63.248 190.07 63.7297 172.535 63.7297 172.535L57.9488 171.596L57.5635 191.323L63.248 190.552Z" fill="#4446A0"/>
<path d="M39.3543 190.554L37.4756 171.645L43.1832 171.107L44.7497 191.228L39.3543 190.554Z" fill="#4446A0"/>
<path d="M47.5068 194.389C47.4804 194.389 47.4534 194.385 47.4268 194.375C47.303 194.331 47.2384 194.195 47.2824 194.071L53.4977 176.621H67.1673C67.299 176.621 67.4055 176.728 67.4055 176.859C67.4055 176.991 67.299 177.098 67.1673 177.098H53.8335L47.7313 194.231C47.6963 194.328 47.6047 194.389 47.5068 194.389Z" fill="#363E44"/>
<path d="M61.6581 194.989H48.1562L54.3151 177.697H67.8168L61.6581 194.989Z" fill="#363E44"/>
<path d="M27.2517 191.745C31.5381 189.996 41.4285 185.377 42.4119 184.964C44.2503 184.193 54.2234 180.312 54.9396 181.69C55.2817 182.349 53.3942 183.183 52.748 183.447C53.3749 183.491 55.801 183.401 55.9801 184.214C56.1903 185.168 53.3158 185.718 53.2764 185.755C53.9177 185.736 56.4688 185.555 56.6268 186.159C56.8321 186.945 54.5093 187.825 53.8016 188.056C53.9074 188.128 56.3038 187.604 56.5885 188.53C56.7976 189.211 54.6652 190.015 53.7411 190.366C52.1083 191.053 33.5504 200.062 29.8876 201.296C28.4537 201.779 26.063 193.935 27.2517 191.745Z" fill="white"/>
<path d="M27.1954 191.901C27.1026 191.901 27.0142 191.846 26.9757 191.755C26.9247 191.634 26.9816 191.494 27.103 191.443C28.4778 190.864 34.0996 188.423 36.2413 187.462C36.3616 187.408 36.5023 187.462 36.556 187.582C36.61 187.702 36.5562 187.843 36.4362 187.897C34.2922 188.858 28.6642 191.303 27.2876 191.882C27.2577 191.895 27.2263 191.901 27.1954 191.901Z" fill="#363E44"/>
<path d="M49.3577 184.439C49.2675 184.439 49.1814 184.388 49.1411 184.301C49.086 184.181 49.1383 184.04 49.2577 183.985C49.9609 183.661 50.6996 183.424 51.4536 183.283C51.8734 183.204 52.3033 183.153 52.7311 183.133C52.8623 183.13 52.9742 183.228 52.9805 183.36C52.9867 183.491 52.8853 183.603 52.7539 183.609C52.3478 183.628 51.94 183.676 51.5415 183.751C50.826 183.885 50.1246 184.11 49.4573 184.417C49.4249 184.432 49.391 184.439 49.3577 184.439Z" fill="#363E44"/>
<path d="M50.8909 186.661C50.8007 186.661 50.7146 186.61 50.6743 186.523C50.6192 186.403 50.6715 186.262 50.7908 186.207C51.4936 185.883 52.2324 185.647 52.9868 185.505C53.0782 185.488 53.1682 185.472 53.2571 185.458C53.387 185.437 53.5088 185.526 53.5294 185.657C53.5497 185.786 53.4611 185.908 53.331 185.929C53.2468 185.942 53.1614 185.957 53.0746 185.973C52.3587 186.107 51.6575 186.332 50.9904 186.639C50.9581 186.654 50.9242 186.661 50.8909 186.661Z" fill="#363E44"/>
<path d="M52.3665 188.803C52.2763 188.803 52.1902 188.751 52.1499 188.664C52.0948 188.545 52.1471 188.403 52.2664 188.348C52.7252 188.137 53.2027 187.961 53.6858 187.827C53.8109 187.792 53.9436 187.866 53.9791 187.993C54.0142 188.119 53.94 188.251 53.8133 188.286C53.3548 188.414 52.9015 188.58 52.466 188.781C52.4337 188.796 52.3998 188.803 52.3665 188.803Z" fill="#363E44"/>
<path d="M59.025 208.521L43.8789 208.289V196.408C43.8789 196.277 43.9854 196.17 44.1171 196.17C44.2488 196.17 44.3553 196.277 44.3553 196.408V207.82L58.545 208.037L58.4798 199.16C58.4789 199.028 58.5847 198.921 58.7162 198.92C58.717 198.92 58.7176 198.92 58.7181 198.92C58.8488 198.92 58.9553 199.025 58.9563 199.156L59.025 208.521Z" fill="#363E44"/>
<path d="M32.6494 215.955C32.5184 215.955 32.4119 215.85 32.4111 215.718C32.4105 215.587 32.5165 215.48 32.648 215.479L62.8341 215.311C62.8346 215.311 62.8351 215.311 62.8355 215.311C62.9665 215.311 63.073 215.416 63.0738 215.547C63.0744 215.679 62.9684 215.786 62.8369 215.787L32.6508 215.955C32.6502 215.955 32.6498 215.955 32.6494 215.955Z" fill="#363E44"/>
<path d="M53.3278 171.963H46.3555L49.3484 160.089C49.3407 158.731 49.5951 159.666 50.9536 159.658C52.312 159.651 55.7995 160.347 55.8071 161.705L53.3278 171.963Z" fill="white"/>
<path d="M57.0086 169.005C55.3687 170.016 51.4307 166.213 51.4307 166.213L48.9482 161.242C49.1241 158.537 51.4593 156.487 54.1641 156.663C56.8689 156.839 58.9189 159.174 58.743 161.879C58.743 161.879 58.6789 167.975 57.0086 169.005Z" fill="white"/>
<path d="M58.0969 163.129C58.0969 163.129 59.3769 164.657 59.2791 165.033C59.1624 165.48 57.6143 165.658 57.6143 165.658C57.6143 165.658 58.1332 163.135 58.0969 163.129Z" fill="white"/>
<path d="M54.0547 161.705C54.0547 161.705 54.8477 161.515 55.6845 161.736C55.8626 161.783 55.1496 163.119 55.0019 162.994C54.3528 162.443 54.0547 161.705 54.0547 161.705Z" fill="#1F44DC"/>
<mask id="mask0_569_8108" style="mask-type:luminance" maskUnits="userSpaceOnUse" x="54" y="161" width="4" height="3">
<path d="M54.0537 161.705C54.0537 161.705 55.2201 161.426 56.2165 161.939C57.2129 162.453 57.662 163.565 57.662 163.565C57.662 163.565 56.4956 163.844 55.4992 163.33C54.5028 162.817 54.0537 161.705 54.0537 161.705Z" fill="white"/>
</mask>
<g mask="url(#mask0_569_8108)">
<path d="M55.7283 161.709C56.4282 161.302 57.3256 161.539 57.7326 162.239C58.1396 162.939 57.9021 163.836 57.2023 164.243C56.5023 164.651 55.605 164.413 55.198 163.713C54.7909 163.013 55.0284 162.116 55.7283 161.709Z" fill="#363E44"/>
</g>
<path d="M48.6238 155.831C48.6238 155.831 45.9515 160.855 49.2482 163.12L50.2695 162.451L52.3079 163.641L51.7728 160.944C51.6768 159.917 52.5446 159.058 53.571 159.165L58.051 159.633L58.1601 157.224C55.3286 155.132 52.1993 154.437 48.6238 155.831Z" fill="#363E44"/>
<path d="M53.6654 155.587C53.154 155.66 52.6798 155.305 52.6063 154.794C52.5328 154.282 52.8493 153.54 53.3608 153.467C53.8722 153.393 54.3848 154.016 54.4584 154.527C54.5319 155.039 54.1769 155.513 53.6654 155.587Z" fill="#363E44"/>
<path d="M54.3414 155.913C53.8587 155.729 53.6167 155.188 53.801 154.706C53.9854 154.223 54.6224 153.728 55.1051 153.912C55.5878 154.097 55.7334 154.89 55.5492 155.373C55.3649 155.856 54.8241 156.098 54.3414 155.913Z" fill="#363E44"/>
<path d="M55.7853 156.623C55.1846 156.263 54.9895 155.484 55.3495 154.884C55.7095 154.283 56.6767 153.774 57.2774 154.134C57.8781 154.494 57.8848 155.587 57.5248 156.187C57.1647 156.788 56.3859 156.983 55.7853 156.623Z" fill="#363E44"/>
<path d="M52.1814 155.561C51.6725 155.651 51.1871 155.312 51.0972 154.803C51.0072 154.294 51.2997 153.542 51.8085 153.452C52.3173 153.362 52.8498 153.968 52.9398 154.477C53.0297 154.986 52.6901 155.471 52.1814 155.561Z" fill="#363E44"/>
<path d="M56.9258 156.962C56.7217 156.373 57.0337 155.73 57.6227 155.526C58.2117 155.322 59.1629 155.527 59.367 156.116C59.5711 156.705 58.9508 157.455 58.3618 157.659C57.7727 157.863 57.1299 157.551 56.9258 156.962Z" fill="#363E44"/>
<path d="M47.9971 161.199C47.5761 162.033 47.9117 163.051 48.7465 163.472C49.5813 163.893 50.5992 163.558 51.0201 162.723C51.441 161.888 51.1055 160.87 50.2707 160.449C49.4359 160.028 48.418 160.364 47.9971 161.199Z" fill="white"/>
<path d="M58.435 165.505L57.6465 169.55C57.5367 170.113 56.9801 170.47 56.4221 170.337C56.2818 170.303 56.1303 170.265 55.9698 170.222C53.1916 169.485 50.9904 167.365 50.1527 164.615C49.872 163.694 50.1892 162.695 50.9498 162.105L51.2004 161.91L51.9664 162.411C51.9664 162.411 52.394 164.682 53.2163 164.914C54.0386 165.146 55.6395 164.595 58.435 165.505Z" fill="#363E44"/>
<path d="M56.3914 166.666C56.1956 166.666 56.0009 166.604 55.8385 166.483C55.5579 166.274 55.4181 165.916 55.4821 165.57C55.5061 165.441 55.6305 165.355 55.7596 165.379C55.8892 165.403 55.9746 165.527 55.9507 165.657C55.9194 165.825 55.9872 166 56.1233 166.101C56.2645 166.207 56.4566 166.219 56.6125 166.133C56.7272 166.069 56.8725 166.11 56.9363 166.225C57 166.34 56.9583 166.485 56.8432 166.549C56.7022 166.627 56.5464 166.666 56.3914 166.666Z" fill="white"/>
<path d="M52.3503 159.44C52.2916 159.44 52.2331 159.419 52.187 159.376L50.3786 157.673C50.2828 157.583 50.2784 157.433 50.3684 157.337C50.4589 157.241 50.6094 157.236 50.7052 157.327L52.5136 159.029C52.6095 159.119 52.6139 159.27 52.5239 159.366C52.4769 159.415 52.4136 159.44 52.3503 159.44Z" fill="#84524D"/>
<path d="M60.1823 159.282C60.1464 155.784 57.6215 152.741 54.3944 152.585C50.9176 152.417 47.8027 155.415 47.4369 159.282C47.4075 159.593 47.3986 159.9 47.4055 160.202L60.1823 159.282Z" fill="#4446A0"/>
<path d="M54.2695 159.563L64.0861 160.945L64.4239 160.263L59.2721 158.918C57.2337 159.03 55.4818 159.221 54.2695 159.563Z" fill="#4446A0"/>
<path d="M118.753 290.604H104.196V309.313H118.753V290.604Z" fill="#363E44"/>
<path d="M208.982 290.604H194.426V309.313H208.982V290.604Z" fill="#363E44"/>
<path d="M209.69 293.263H103.384V263.359L112.597 255.232H200.477L209.69 263.359V293.263Z" fill="#A74929"/>
<path d="M200.478 255.233H112.598L128.855 226.201H184.22L200.478 255.233Z" fill="#F2CD36"/>
<path d="M180.734 229.266H132.343L118.949 253.183H194.127L180.734 229.266Z" fill="#363E44"/>
<path d="M200.835 255.866C200.752 255.866 200.672 255.823 200.628 255.746L183.943 226.394H128.994L112.736 255.334C112.671 255.449 112.527 255.49 112.412 255.425C112.297 255.361 112.256 255.216 112.321 255.101L128.716 225.918H184.221L184.289 226.038L201.042 255.51C201.107 255.625 201.067 255.77 200.952 255.835C200.915 255.856 200.875 255.866 200.835 255.866Z" fill="#363E44"/>
<path d="M117.875 253.182H98.9141V246.442L110.559 244.004V251.417H118.688L117.875 253.182Z" fill="#A74929"/>
<path d="M195.646 253.182H214.607V246.442L202.962 244.004V251.417H194.833L195.646 253.182Z" fill="#A74929"/>
<path d="M109.321 272.251L127.051 280.262C127.197 280.328 127.362 280.221 127.362 280.061V272.46C127.362 271.744 126.893 271.113 126.208 270.906L111.207 266.387C110.268 266.104 109.321 266.808 109.321 267.789V272.251Z" fill="#F2CD36"/>
<path d="M203.939 271.983L185.898 280.135V272.534C185.898 271.615 186.501 270.805 187.38 270.54L202.054 266.12C202.993 265.837 203.94 266.54 203.94 267.521L203.939 271.983Z" fill="#F2CD36"/>
<path d="M136.154 242.884C136.108 242.884 136.062 242.871 136.022 242.844C135.912 242.771 135.883 242.623 135.956 242.514L141.864 233.699C141.938 233.59 142.086 233.561 142.195 233.634C142.304 233.707 142.333 233.855 142.26 233.965L136.352 242.779C136.306 242.847 136.231 242.884 136.154 242.884Z" fill="white"/>
<path d="M144.594 241.289C144.549 241.289 144.503 241.276 144.462 241.249C144.353 241.176 144.323 241.028 144.397 240.918L151.037 230.985C151.11 230.875 151.258 230.846 151.367 230.919C151.477 230.992 151.506 231.14 151.433 231.249L144.793 241.183C144.747 241.252 144.671 241.289 144.594 241.289Z" fill="white"/>
<path d="M163.335 246.912C163.289 246.912 163.243 246.899 163.203 246.872C163.093 246.799 163.064 246.651 163.137 246.541L169.777 236.608C169.85 236.498 169.998 236.469 170.108 236.542C170.217 236.615 170.246 236.763 170.173 236.872L163.533 246.806C163.487 246.875 163.412 246.912 163.335 246.912Z" fill="white"/>
<path d="M147.371 251.948C147.328 251.948 147.286 251.937 147.247 251.913C147.135 251.845 147.099 251.698 147.168 251.586L150.806 245.624C150.874 245.512 151.021 245.476 151.133 245.545C151.246 245.613 151.281 245.76 151.213 245.872L147.574 251.834C147.529 251.908 147.451 251.948 147.371 251.948Z" fill="white"/>
<path d="M151.817 244.662C151.775 244.662 151.732 244.65 151.693 244.627C151.581 244.558 151.545 244.412 151.614 244.299L155.269 238.309C155.338 238.197 155.485 238.162 155.597 238.23C155.709 238.299 155.745 238.445 155.676 238.558L152.021 244.548C151.976 244.621 151.897 244.662 151.817 244.662Z" fill="white"/>
<path d="M128.001 250.508C127.955 250.508 127.909 250.494 127.869 250.467C127.759 250.394 127.73 250.246 127.803 250.137L130.018 246.824C130.091 246.715 130.239 246.686 130.348 246.759C130.457 246.832 130.487 246.98 130.413 247.089L128.199 250.402C128.153 250.47 128.077 250.508 128.001 250.508Z" fill="white"/>
<path d="M178.376 239.764C178.333 239.764 178.291 239.753 178.252 239.729C178.14 239.66 178.104 239.514 178.173 239.401L180.424 235.712C180.493 235.599 180.64 235.564 180.752 235.633C180.864 235.701 180.9 235.848 180.831 235.96L178.579 239.65C178.534 239.723 178.456 239.764 178.376 239.764Z" fill="white"/>
<path d="M210.677 288.535H101.983V296.299H210.677V288.535Z" fill="#F2CD36"/>
<path d="M177.569 276.354H137.545V285.991H177.569V276.354Z" fill="white"/>
<path d="M184.574 273.914C184.57 273.914 184.565 273.913 184.56 273.913C184.429 273.905 184.328 273.792 184.336 273.661L184.614 269.077L205.121 263.006C205.247 262.969 205.38 263.041 205.417 263.167C205.454 263.293 205.382 263.425 205.256 263.463L185.07 269.439L184.812 273.69C184.804 273.816 184.699 273.914 184.574 273.914Z" fill="#363E44"/>
<path d="M129.424 274.718C129.299 274.718 129.194 274.621 129.186 274.494L128.928 270.244L108.742 264.267C108.616 264.23 108.544 264.097 108.581 263.971C108.619 263.845 108.751 263.773 108.877 263.811L129.384 269.882L129.662 274.466C129.669 274.597 129.569 274.71 129.438 274.718C129.433 274.718 129.428 274.718 129.424 274.718Z" fill="#363E44"/>
<path d="M213.842 207.829H212.283C212.144 207.069 211.944 206.33 211.691 205.616L213.041 204.837L210.403 200.268L209.05 201.049C208.554 200.468 208.013 199.927 207.432 199.431L208.213 198.078L203.643 195.44L202.864 196.789C202.151 196.536 201.412 196.337 200.652 196.198V194.639H195.376V196.198C194.616 196.337 193.877 196.536 193.163 196.789L192.384 195.44L187.815 198.078L188.596 199.431C188.015 199.927 187.474 200.468 186.977 201.049L185.625 200.268L182.987 204.837L184.336 205.616C184.083 206.33 183.884 207.069 183.745 207.829H182.186V213.105H183.745C183.884 213.865 184.083 214.604 184.336 215.318L182.987 216.097L185.625 220.666L186.977 219.885C187.474 220.466 188.015 221.007 188.596 221.503L187.815 222.856L192.384 225.494L193.163 224.145C193.877 224.398 194.616 224.597 195.376 224.736V226.295H200.652V224.736C201.412 224.597 202.151 224.398 202.864 224.145L203.643 225.494L208.213 222.856L207.432 221.503C208.013 221.007 208.554 220.466 209.05 219.885L210.403 220.666L213.041 216.097L211.691 215.318C211.944 214.604 212.144 213.865 212.283 213.105H213.842V207.829ZM205.578 213.622C204.811 215.651 203.198 217.265 201.168 218.032C194.273 220.638 187.843 214.207 190.449 207.312C191.216 205.283 192.83 203.669 194.859 202.902C201.754 200.296 208.185 206.727 205.578 213.622Z" fill="#E6D0BE"/>
<path d="M198.013 222.248C191.518 222.248 186.233 216.963 186.233 210.468C186.233 204.685 190.539 199.677 196.249 198.819C196.38 198.799 196.501 198.889 196.52 199.019C196.54 199.15 196.45 199.271 196.32 199.29C190.841 200.113 186.71 204.918 186.71 210.468C186.71 216.701 191.78 221.771 198.013 221.771C203.163 221.771 207.662 218.295 208.955 213.316C208.988 213.189 209.118 213.113 209.245 213.146C209.372 213.179 209.449 213.309 209.416 213.436C208.069 218.624 203.38 222.248 198.013 222.248Z" fill="#F2E6DC"/>
</g>
</g>
</g>
<defs>
<filter id="filter0_d_569_8108" x="0.899639" y="0.171987" width="238.57" height="329.939" filterUnits="userSpaceOnUse" color-interpolation-filters="sRGB">
<feFlood flood-opacity="0" result="BackgroundImageFix"/>
<feColorMatrix in="SourceAlpha" type="matrix" values="0 0 0 0 0 0 0 0 0 0 0 0 0 0 0 0 0 0 127 0" result="hardAlpha"/>
<feOffset dy="2.14247"/>
<feGaussianBlur stdDeviation="2.14247"/>
<feComposite in2="hardAlpha" operator="out"/>
<feColorMatrix type="matrix" values="0 0 0 0 0 0 0 0 0 0 0 0 0 0 0 0 0 0 0.1 0"/>
<feBlend mode="normal" in2="BackgroundImageFix" result="effect1_dropShadow_569_8108"/>
<feBlend mode="normal" in="SourceGraphic" in2="effect1_dropShadow_569_8108" result="shape"/>
</filter>
<clipPath id="clip0_569_8108">
<rect x="20.9385" y="107.863" width="198.493" height="203.219" rx="15.7534" fill="white"/>
</clipPath>
<clipPath id="clip1_569_8108">
<rect x="20.9385" y="107.863" width="198.493" height="203.219" rx="15.7534" fill="white"/>
</clipPath>
</defs>
</svg>
