<svg width="310" height="104" viewBox="0 0 310 104" fill="none" xmlns="http://www.w3.org/2000/svg">
<g clip-path="url(#clip0_535_10334)">
<rect y="0.417969" width="310" height="103.333" rx="6.2" fill="#F9DD65"/>
<path d="M155.129 168.335C219.404 168.335 271.508 116.23 271.508 51.9553C271.508 -12.3191 219.404 -64.4238 155.129 -64.4238C90.8547 -64.4238 38.75 -12.3191 38.75 51.9553C38.75 116.23 90.8547 168.335 155.129 168.335Z" fill="#B8381A"/>
<path d="M154.166 125.45C194.685 125.45 227.532 92.6028 227.532 52.0835C227.532 11.5642 194.685 -21.2832 154.166 -21.2832C113.646 -21.2832 80.7991 11.5642 80.7991 52.0835C80.7991 92.6028 113.646 125.45 154.166 125.45Z" fill="#B8381A"/>
<path d="M164.795 5.45071C164.812 5.23726 164.823 5.02205 164.823 4.80412C164.823 0.456324 161.299 -3.06816 156.951 -3.06816C155.847 -3.06816 154.797 -2.84013 153.844 -2.43015C153.201 -4.81686 151.022 -6.57364 148.432 -6.57364C147.429 -6.57364 146.487 -6.30865 145.673 -5.84688C143.704 -10.0011 139.474 -12.875 134.572 -12.875C129.197 -12.875 124.632 -9.42035 122.968 -4.61159C122.55 -4.66387 122.126 -4.69394 121.695 -4.69394C116.091 -4.69394 111.548 -0.152342 111.546 5.45071H164.795Z" fill="white"/>
<path d="M127.261 1.53169L118.876 4.16602L133.337 50.1997L141.723 47.5653L127.261 1.53169Z" fill="#F7F1EB"/>
<path d="M119.978 4.35521L111.196 3.95703L109.011 52.1621L117.792 52.5603L119.978 4.35521Z" fill="#F7F1EB"/>
<path d="M108.812 5.34663L100.171 3.73633L91.331 51.1741L99.9724 52.7845L108.812 5.34663Z" fill="#F7F1EB"/>
<path d="M92.9504 4.50631L84.1833 3.87695L80.7284 52.0048L89.4954 52.6341L92.9504 4.50631Z" fill="#F7F1EB"/>
<path d="M114.133 22.326L88.6216 14.2324L87.4542 17.912L112.966 26.0056L114.133 22.326Z" fill="#F7F1EB"/>
<path d="M131.28 28.078L106.158 37.3145L107.491 40.9377L132.612 31.7013L131.28 28.078Z" fill="#F7F1EB"/>
<path d="M169.193 53.2611H159.058V6.98838L164.126 -0.902344L169.193 6.98838V53.2611Z" fill="#F7F1EB"/>
<path d="M183.776 53.2611H173.641V6.98838L178.709 -0.902344L183.776 6.98838V53.2611Z" fill="#F7F1EB"/>
<path d="M198.36 53.2611H188.224V6.98838L193.292 -0.902344L198.36 6.98838V53.2611Z" fill="#F7F1EB"/>
<path d="M212.943 53.2611H202.807V6.98838L207.875 -0.902344L212.943 6.98838V53.2611Z" fill="#F7F1EB"/>
<path d="M227.526 53.2611H217.39V6.98838L222.458 -0.902344L227.526 6.98838V53.2611Z" fill="#F7F1EB"/>
<path d="M222.058 15.4707H162.2V19.7123H222.058V15.4707Z" fill="#F7F1EB"/>
<path d="M222.058 41.1172H161.151V45.3588H222.058V41.1172Z" fill="#F7F1EB"/>
<path d="M115.138 82.4885L91.6669 79.0508L91.1785 104.273L111.609 104.94C111.609 104.94 109.845 98.1244 102.629 94.5161L115.138 82.4885Z" fill="#F9DD65"/>
<path d="M131.138 51.9006C131.138 51.9006 166.595 40.7444 176.315 49.7401C185.259 58.0183 174.553 90.2279 174.553 90.2279L158.589 88.9187L157.251 72.31C157.251 72.31 138.339 78.5786 133.719 74.8801C129.206 71.2674 131.138 51.9006 131.138 51.9006Z" fill="#8B865C"/>
<path d="M148.067 58.5124C148.067 58.5124 152.788 95.3825 142.217 103.361C132.49 110.703 102.677 94.4781 102.677 94.4781L107.443 75.737L123.368 80.6118C123.368 80.6118 120.537 60.8901 124.993 56.9959C129.346 53.1915 148.067 58.5124 148.067 58.5124Z" fill="#8B865C"/>
<path d="M149.107 74.6219C149.063 74.6219 149.028 74.5867 149.027 74.5428C149.004 72.719 148.943 70.8208 148.847 68.9008C148.845 68.8565 148.879 68.8189 148.923 68.8167C148.967 68.8131 149.005 68.8485 149.007 68.8927C149.104 70.8147 149.164 72.715 149.187 74.5407C149.188 74.585 149.152 74.6214 149.108 74.6219C149.108 74.6219 149.107 74.6219 149.107 74.6219Z" fill="#9E9569"/>
<path d="M138.341 89.8845C138.314 89.8845 138.287 89.8704 138.272 89.8449C136.129 86.1947 132.258 83.799 129.389 82.4322C126.277 80.9496 123.641 80.3246 123.615 80.3185C123.572 80.3085 123.545 80.2652 123.555 80.2222C123.565 80.179 123.608 80.152 123.651 80.1624C123.678 80.1685 126.331 80.7975 129.458 82.2874C132.348 83.664 136.246 86.0785 138.41 89.7638C138.433 89.8019 138.42 89.8511 138.382 89.8735C138.369 89.8809 138.355 89.8845 138.341 89.8845Z" fill="#9E9569"/>
<path d="M191.144 102.949H157.701L160.83 89.0938L173.882 90.1647L183.357 93.0548C188 94.3124 191.187 98.3619 191.144 102.949Z" fill="#F9DD65"/>
<path d="M162.715 25.8145C179.95 39.4062 186.394 52.464 182.623 55.3558C180.436 57.0333 172.666 52.8216 165.652 45.8533C164.362 40.5179 159.621 29.465 162.715 25.8145Z" fill="white"/>
<path d="M134.785 29.1153C139.806 24.0266 149.189 19.4665 159.52 23.4099C170.167 27.4738 178.008 36.4817 178.008 36.4817L166.324 46.6682L160.777 61.9379L119.793 64.0353C119.793 64.0353 126.66 37.3485 134.785 29.1153Z" fill="#F9DD65"/>
<path d="M135.769 36.9766C135.318 56.7385 154.082 72.9094 160.197 68.5081C165.255 64.8676 152.107 46.0126 148.38 40.599C142.629 37.3435 139.997 38.9895 135.769 36.9766Z" fill="white"/>
<path d="M149.384 31.8096L131.435 37.7793L135.502 50.0049L153.45 44.0352L149.384 31.8096Z" fill="#F9DD65"/>
<path d="M135.448 50.1101L132.913 42.4871C132.899 42.4451 132.921 42.3997 132.963 42.3858C133.005 42.3718 133.051 42.3945 133.065 42.4365L135.549 49.9073L153.346 43.989L150.457 35.3028C150.443 35.2608 150.466 35.2154 150.508 35.2015C150.55 35.1873 150.596 35.2102 150.61 35.2522L153.549 44.0905L153.473 44.1157L135.448 50.1101Z" fill="#363E44"/>
<path d="M173.515 47.6933C173.515 47.6931 173.515 47.6927 173.515 47.6925C181.762 39.931 187.464 34.2662 189.293 32.5867C189.484 32.4107 189.821 32.0988 190.352 31.827C192.32 30.82 193.804 31.9789 196.356 31.8642C199.252 31.7342 200.809 30.0212 201.311 30.5654C201.66 30.944 201.255 31.7555 199.892 32.9747C199.892 32.9747 199.892 32.9751 199.892 32.975C201.034 32.1676 202.63 31.1402 203.075 31.7724C203.549 32.5298 201.815 33.9571 200.724 34.7693C202.045 33.7863 203.041 33.6585 203.201 34.0728C203.452 34.7247 202.606 35.7256 200.811 36.9571L200.811 36.9572C202.288 36.4532 202.722 36.5511 202.774 36.9517C202.869 37.6831 201.374 38.6678 199.918 39.3358C198.28 40.0877 196.749 40.1025 195.783 40.0889C195.783 40.0889 195.783 40.089 195.782 40.0892C190.57 46.1241 187.226 50.0117 183.116 54.9713C182.275 55.9859 180.745 56.0624 179.807 55.1375C177.268 52.6368 175.884 51.1835 173.515 47.6933Z" fill="white"/>
<path d="M173.609 47.6848C173.587 47.6848 173.566 47.6764 173.55 47.6596C173.52 47.6274 173.521 47.5766 173.554 47.5462C175.374 45.8328 177.178 44.1204 179.068 42.3112C179.1 42.2808 179.151 42.2818 179.182 42.3137C179.212 42.3457 179.211 42.3965 179.179 42.4271C177.288 44.2365 175.484 45.9492 173.663 47.663C173.648 47.6776 173.628 47.6848 173.609 47.6848Z" fill="#363E44"/>
<path d="M194.039 32.5149C195.998 30.4195 196.261 29.2485 195.919 28.9487C195.344 28.4444 192.939 29.5488 189.69 32.2507C190.895 32.4329 192.834 32.3326 194.039 32.5149Z" fill="white"/>
<path d="M190.914 47.2749C190.89 47.2749 190.868 47.2646 190.853 47.2468L183.132 38.2248C183.104 38.1923 183.107 38.1437 183.138 38.1143C183.404 37.8644 189.64 31.9907 189.862 31.8252C193.267 29.0047 195.536 28.3932 196.273 29.0397C196.662 29.3805 196.813 29.7341 195.43 31.4182C195.948 31.4704 196.716 31.4538 197.333 31.2949C198.165 31.0809 198.974 30.7001 199.688 30.364C200.684 29.8954 201.47 29.5251 201.889 29.815C202.048 29.9245 202.141 30.0923 202.159 30.3C202.189 30.6441 202.018 31.07 201.691 31.491C202.297 31.1725 203.345 30.7344 203.724 31.2733C203.875 31.5145 203.908 31.7881 203.823 32.0901C203.693 32.5545 203.303 33.0072 202.92 33.3265C203.161 33.2779 203.375 33.2878 203.555 33.3573C203.771 33.4404 203.931 33.6055 204.02 33.8345C204.302 34.5643 203.246 35.4942 202.242 36.3343C202.595 36.3327 203.197 36.3798 203.374 36.7076C203.475 36.8952 203.485 37.1129 203.404 37.3546C203.173 38.0449 202.209 38.8644 200.95 39.4422C199.329 40.1863 197.954 40.5427 196.757 40.5345C194.6 43.0311 191.011 47.205 190.974 47.247C190.959 47.2647 190.937 47.2749 190.914 47.2749ZM183.304 38.1787L190.914 47.0716C191.399 46.5074 194.66 42.717 196.659 40.402C196.67 40.3894 196.685 40.3802 196.701 40.3761C196.708 40.3744 196.716 40.3738 196.722 40.3737C197.908 40.3915 199.268 40.0381 200.883 39.2965C202.086 38.7447 203.037 37.9439 203.252 37.3036C203.318 37.1056 203.312 36.9307 203.232 36.7836C203.08 36.501 202.371 36.4767 202.018 36.5032C201.984 36.5056 201.952 36.4873 201.938 36.4568C201.922 36.4239 201.931 36.385 201.959 36.3618L201.981 36.3437C202.936 35.5461 204.126 34.5534 203.87 33.8921C203.799 33.7065 203.67 33.5732 203.498 33.5067C203.221 33.3997 202.836 33.4628 202.385 33.6893C202.345 33.7092 202.297 33.6932 202.277 33.6536C202.257 33.6141 202.273 33.5659 202.313 33.546C202.752 33.3254 203.487 32.6962 203.669 32.0467C203.741 31.79 203.714 31.5596 203.59 31.3618C203.243 30.8681 201.971 31.4797 201.347 31.8725C201.316 31.8916 201.276 31.8886 201.25 31.8644C201.233 31.8495 201.224 31.8287 201.223 31.8066C201.223 31.7846 201.232 31.7633 201.247 31.7479C201.746 31.2564 202.034 30.7069 202 30.3138C201.986 30.153 201.918 30.0295 201.798 29.9468C201.455 29.7096 200.668 30.08 199.756 30.509C199.036 30.8481 198.219 31.2324 197.373 31.4501C196.675 31.63 195.79 31.6331 195.264 31.5598C195.235 31.5558 195.21 31.5364 195.2 31.5093C195.189 31.4822 195.194 31.4514 195.213 31.4291C196.707 29.6338 196.445 29.4037 196.167 29.1602C195.69 28.7421 193.78 28.7876 189.961 31.9511C189.787 32.0809 185.564 36.0501 183.304 38.1787Z" fill="#F9DD65"/>
<path d="M191.781 31.5968C191.739 31.5968 191.703 31.564 191.701 31.5214C191.698 31.4772 191.732 31.4393 191.776 31.4366L191.907 31.4288C192.846 31.3725 194.417 31.2783 195.451 31.4204C195.495 31.4265 195.525 31.467 195.519 31.5108C195.513 31.5547 195.473 31.5852 195.429 31.5793C194.411 31.4393 192.849 31.5329 191.916 31.5889L191.786 31.5967C191.784 31.5968 191.783 31.5968 191.781 31.5968Z" fill="#F9DD65"/>
<path d="M197.393 33.8048C197.351 33.8048 197.316 33.7732 197.313 33.7315C197.309 33.6874 197.342 33.6485 197.386 33.6447C197.688 33.619 198.03 33.5898 198.396 33.4642C199.097 33.2241 200.375 32.5129 201.364 31.6677C201.397 31.639 201.448 31.6428 201.477 31.6765C201.505 31.7102 201.502 31.7608 201.468 31.7895C200.464 32.6476 199.163 33.371 198.448 33.6158C198.063 33.7479 197.695 33.7793 197.4 33.8044C197.397 33.8048 197.395 33.8048 197.393 33.8048Z" fill="#F9DD65"/>
<path d="M198.391 35.4668C198.35 35.4668 198.314 35.4352 198.311 35.3934C198.307 35.3493 198.34 35.3104 198.384 35.3066C198.685 35.281 199.383 35.1144 199.742 34.9826C200.444 34.7248 201.457 34.0967 202.352 33.5281C202.389 33.5044 202.439 33.5155 202.463 33.5528C202.486 33.5902 202.475 33.6397 202.438 33.6635C201.536 34.2365 200.514 34.8699 199.797 35.1331C199.429 35.2685 198.709 35.4398 198.398 35.4664C198.395 35.4667 198.393 35.4668 198.391 35.4668Z" fill="#F9DD65"/>
<path d="M198.347 37.8227C198.305 37.8227 198.27 37.7911 198.267 37.7493C198.263 37.7052 198.296 37.6664 198.34 37.6626C198.683 37.6333 199.025 37.5721 199.355 37.4806C199.937 37.3196 201.777 36.4669 202.09 36.2808C202.128 36.2582 202.177 36.2707 202.2 36.3087C202.223 36.3468 202.21 36.3959 202.172 36.4186C201.847 36.6122 200.005 37.4671 199.398 37.6351C199.058 37.7293 198.706 37.7922 198.353 37.8224C198.351 37.8226 198.349 37.8227 198.347 37.8227Z" fill="#F9DD65"/>
<path d="M158.038 56.5469C162.624 60.0753 173.835 67.8499 174.899 68.6525C176.888 70.1527 187.355 78.4806 186.317 80.1212C185.821 80.9052 183.732 79.3919 183.041 78.8598C183.387 79.5648 185.011 82.1283 184.246 82.8328C183.348 83.6605 180.945 80.9022 180.881 80.8828C181.305 81.5631 183.106 84.2044 182.553 84.7549C181.833 85.4711 179.421 83.5162 178.726 82.8976C178.715 83.0573 180.426 85.7857 179.968 86.2058C179.46 86.6713 177.167 84.9022 176.194 84.2858C174.425 82.9543 167.275 78.1488 163.69 75.9797C155.272 70.8853 153.019 68.5816 149.382 65.4024C147.958 64.1581 154.924 56.6412 158.038 56.5469Z" fill="white"/>
<path d="M180.288 87.2232C179.372 87.2232 177.707 86.2262 176.918 85.5156C175.012 84.0813 163.363 76.5101 163.245 76.4338C163.224 76.4203 163.211 76.3979 163.209 76.3732C163.207 76.3485 163.216 76.3242 163.235 76.3075L174.011 66.4157C174.041 66.3883 174.086 66.3874 174.117 66.4135C174.152 66.4436 177.726 69.4692 181.114 72.6752C183.105 74.5593 184.644 76.1365 185.689 77.363C187.036 78.9452 187.553 79.9326 187.269 80.3815C187.122 80.6129 186.886 80.759 186.565 80.8158C185.896 80.9344 184.955 80.6357 184.317 80.2492C184.373 80.3459 184.437 80.4524 184.505 80.5662C185.114 81.5878 186.034 83.1317 185.317 83.7927C184.599 84.4535 183.296 83.4995 182.486 82.7923C183.18 83.7108 183.974 84.9036 183.434 85.5951C183.303 85.7627 183.118 85.8585 182.886 85.8796C181.978 85.9617 180.534 84.8835 179.884 84.3534C179.902 84.383 179.921 84.413 179.94 84.4429C180.45 85.2452 181.302 86.5881 180.749 87.0806C180.638 87.1796 180.479 87.2232 180.288 87.2232ZM163.419 76.3558C164.497 77.0564 175.192 84.016 177.02 85.392C178.056 86.3247 180.13 87.4174 180.643 86.9609C181.094 86.559 180.223 85.1878 179.805 84.5288C179.569 84.1565 179.518 84.0705 179.523 84.0056C179.525 83.9751 179.545 83.9486 179.573 83.9371C179.601 83.9256 179.633 83.9312 179.656 83.9516C180.436 84.6459 181.989 85.7996 182.871 85.7198C183.061 85.7027 183.204 85.6296 183.307 85.4964C183.842 84.8119 182.748 83.392 182.094 82.5436C181.993 82.4117 181.897 82.2872 181.819 82.1812C181.799 82.1534 181.798 82.1157 181.818 82.0876C181.838 82.0594 181.873 82.0472 181.907 82.0571C181.934 82.0652 181.947 82.0773 182.083 82.2061C183.629 83.6664 184.681 84.1602 185.208 83.6747C185.83 83.102 184.914 81.5661 184.367 80.6483C184.22 80.4019 184.093 80.189 184.015 80.0319C183.999 79.9984 184.008 79.9581 184.037 79.9345C184.065 79.9109 184.107 79.9102 184.136 79.9329C184.646 80.3249 185.763 80.7948 186.537 80.6579C186.811 80.6093 187.012 80.4875 187.133 80.2958C188.03 78.8778 178.059 69.9611 174.067 66.5815L163.419 76.3558Z" fill="#F9DD65"/>
<path d="M183.121 78.8856C183.095 78.8856 183.069 78.8727 183.054 78.849C182.772 78.4141 182.457 77.9956 182.12 77.6053C181.512 76.9036 180.816 76.2752 180.049 75.7377C180.013 75.7123 180.004 75.6623 180.029 75.626C180.055 75.5897 180.105 75.5809 180.141 75.6064C180.918 76.1514 181.625 76.7886 182.241 77.5004C182.583 77.8963 182.902 78.3206 183.188 78.7616C183.212 78.7987 183.202 78.8485 183.165 78.8725C183.151 78.8814 183.136 78.8856 183.121 78.8856Z" fill="#363E44"/>
<path d="M180.959 80.9416C180.936 80.9416 180.913 80.9315 180.897 80.912C180.828 80.8278 180.757 80.7431 180.683 80.658C180.076 79.9562 179.379 79.3278 178.613 78.7904C178.577 78.765 178.568 78.7151 178.593 78.6787C178.619 78.6425 178.669 78.6336 178.705 78.6591C179.482 79.204 180.189 79.8412 180.805 80.5531C180.879 80.6393 180.952 80.7253 181.021 80.8107C181.049 80.845 181.044 80.8955 181.01 80.9235C180.995 80.9357 180.977 80.9416 180.959 80.9416Z" fill="#363E44"/>
<path d="M178.694 82.9205C178.674 82.9205 178.654 82.913 178.639 82.8978C178.204 82.4746 177.73 82.0823 177.229 81.7318C177.193 81.7064 177.184 81.6565 177.21 81.6201C177.235 81.5839 177.285 81.575 177.322 81.6005C177.829 81.9559 178.309 82.3537 178.75 82.7829C178.782 82.8138 178.783 82.8646 178.752 82.8963C178.736 82.9124 178.715 82.9205 178.694 82.9205Z" fill="#363E44"/>
<path d="M167.047 7.31368C167.342 7.37863 170.155 8.0427 171.198 10.4514C171.974 12.2436 171.542 14.0809 170.35 17.0528C168.946 20.5526 167.619 22.4485 166.359 22.821C164.37 23.4094 160.302 19.332 159.481 15.6129C158.888 12.9283 159.981 10.0723 162.103 8.29471C164.22 6.52212 166.859 7.27231 167.047 7.31368Z" fill="white"/>
<path d="M157.43 28.5819L156.868 28.3162C155.175 27.516 154.452 25.4953 155.252 23.8026L159.333 15.1686C160.133 13.476 162.154 12.7524 163.847 13.5525L164.409 13.8183C166.101 14.6184 166.825 16.6392 166.025 18.3318L161.944 26.9658C161.144 28.6584 159.123 29.382 157.43 28.5819Z" fill="white"/>
<path d="M164.189 22.3313C164.175 22.3313 164.16 22.3274 164.147 22.3191C162.308 21.1634 160.02 18.4265 159.403 15.6308C159.393 15.5875 159.42 15.5447 159.464 15.5352C159.507 15.5254 159.55 15.553 159.559 15.5962C160.145 18.2495 162.395 21.0289 164.232 22.1832C164.27 22.2068 164.281 22.2563 164.257 22.2938C164.242 22.318 164.216 22.3313 164.189 22.3313Z" fill="#363E44"/>
<path d="M163.556 11.8171C162.214 12.0472 161.347 12.8058 160.763 14.2073C160.283 15.3592 161.044 17.4037 160.101 19.1605C158.987 21.2339 156.206 21.6065 154.456 20.706C153.062 19.9886 152.726 18.3078 152.671 18.0086C152.728 18.0722 153.261 18.6413 154.053 18.5557C154.592 18.4974 154.932 18.1704 155.032 18.0662C154.842 18.0422 154.296 17.9471 153.88 17.4902C153.387 16.9479 153.276 16.1147 153.592 15.3592C154.232 16.3177 154.961 16.2323 155.301 16.2519C155.521 16.2647 156.837 15.9831 158.027 14.0633C159.188 12.1906 159.513 11.7651 160.302 11.4139C161.026 11.0916 162.054 11.076 163.556 11.8171Z" fill="#363E44"/>
<path d="M162.539 16.5305C163.637 16.3875 164.391 15.2179 164.222 13.918C164.053 12.6182 163.025 11.6803 161.926 11.8232C160.827 11.9662 160.074 13.1358 160.243 14.4356C160.412 15.7355 161.44 16.6734 162.539 16.5305Z" fill="white"/>
<path d="M161.277 14.6322C161.243 14.6322 161.212 14.6102 161.201 14.5757C161.176 14.4943 161.157 14.4096 161.146 14.3239C161.102 13.9856 161.172 13.6525 161.344 13.3859C161.519 13.1149 161.777 12.9446 162.071 12.9065C162.22 12.8871 162.369 12.9028 162.513 12.9531C162.555 12.9677 162.577 13.0133 162.563 13.0552C162.548 13.097 162.503 13.1192 162.46 13.1046C162.34 13.0626 162.216 13.0494 162.091 13.0655C161.845 13.0975 161.628 13.2422 161.479 13.4728C161.328 13.7076 161.266 14.0026 161.305 14.3033C161.315 14.38 161.332 14.4557 161.354 14.5283C161.367 14.5706 161.343 14.6155 161.301 14.6286C161.293 14.631 161.285 14.6322 161.277 14.6322Z" fill="#363E44"/>
<path d="M164.74 13.7129C164.74 13.7129 165.811 13.7365 166.801 14.2977C167.011 14.4171 165.659 15.8772 165.513 15.6685C164.872 14.7507 164.74 13.7129 164.74 13.7129Z" fill="#F9DD65"/>
<path d="M167.41 14.7346C167.219 14.562 167.012 14.4201 166.802 14.3008C166.144 14.5081 165.671 15.0387 165.513 15.6684C165.659 15.8774 165.831 16.0804 166.034 16.2634C167.129 17.2493 168.705 17.2842 168.705 17.2842C168.705 17.2842 168.506 15.7206 167.41 14.7346Z" fill="#373E44"/>
<path d="M166.849 19.9236C166.54 19.9236 166.254 19.758 166.119 19.4887C165.919 19.0895 166.167 18.7029 166.177 18.6866C166.202 18.6496 166.251 18.6393 166.288 18.6634C166.325 18.6876 166.336 18.7373 166.312 18.7744C166.31 18.7776 166.104 19.0999 166.262 19.4169C166.388 19.6679 166.682 19.8057 166.976 19.7516C167.019 19.744 167.061 19.7726 167.069 19.8161C167.077 19.8597 167.048 19.9014 167.004 19.9094C166.952 19.919 166.9 19.9236 166.849 19.9236Z" fill="#363E44"/>
<path d="M168.972 19.2944C168.933 19.2944 168.899 19.2664 168.893 19.2272C168.886 19.1835 168.915 19.1422 168.959 19.1351C169.318 19.0766 169.535 18.9688 169.586 18.8235C169.613 18.7467 169.591 18.677 169.547 18.55C169.512 18.4508 169.469 18.3274 169.45 18.1643C169.423 17.9232 169.459 17.6748 169.556 17.4259C169.572 17.3847 169.619 17.3644 169.66 17.3806C169.701 17.3967 169.722 17.4432 169.705 17.4845C169.618 17.7088 169.585 17.9314 169.61 18.1463C169.626 18.2916 169.664 18.4007 169.698 18.4971C169.744 18.6292 169.784 18.7432 169.737 18.8767C169.664 19.0866 169.417 19.2228 168.985 19.2934C168.98 19.2941 168.976 19.2944 168.972 19.2944Z" fill="#363E44"/>
<path d="M172.196 12.218C171.686 8.64924 169.066 5.98143 166.083 5.73374C162.538 5.4394 159.099 8.61565 158.834 12.99C160.853 12.9003 162.89 12.7976 164.946 12.6811C167.39 12.5428 169.807 12.388 172.196 12.218Z" fill="#F9DD65"/>
<path d="M152.92 13.3013C152.878 13.3013 152.843 13.2686 152.84 13.2261C152.837 13.182 152.871 13.1439 152.915 13.1411L165.279 12.3732C165.324 12.3708 165.361 12.404 165.364 12.4482C165.367 12.4924 165.333 12.5305 165.289 12.5332L152.925 13.3012C152.923 13.3013 152.922 13.3013 152.92 13.3013Z" fill="#F9DD65"/>
<path d="M168.222 11.3002C169.325 11.2234 170.429 11.1466 171.533 11.0698C172.558 10.751 173.132 10.3429 173.06 9.57235C173.002 8.95799 172.125 8.65867 171.591 8.70846C169.738 8.88118 168.317 11.1212 168.222 11.3002Z" fill="#363E44"/>
<path d="M200.532 73.2718C200.847 76.5421 200.953 80.4375 200.532 84.791C199.807 92.304 197.782 98.4179 195.925 102.761C200.225 103.375 204.526 103.99 208.826 104.604C207.43 101.23 206.068 97.1364 205.14 92.3936C203.263 82.8053 203.937 74.5534 204.91 68.8945C203.451 70.3536 201.991 71.8128 200.532 73.2718Z" fill="#E6D0BE"/>
<path d="M218.804 58.6058C218.183 57.8878 217.294 57.8271 216.073 58.1831C216.078 57.7263 216.078 57.2616 216.071 56.7887C217.061 55.4132 217.998 53.6916 217.321 52.6535C217.215 52.4908 216.8 51.912 215.81 52.0096C215.665 50.4258 215.473 48.8815 215.238 47.3841C216.621 42.4629 216.799 40.0297 215.682 39.3828C215.222 39.1167 214.566 39.0812 213.587 39.7578C213.503 39.4586 213.418 39.1629 213.331 38.8696C214.128 36.7086 215.061 33.6038 213.769 32.5521C213.486 32.3217 212.599 31.8181 211.178 32.8717C211.035 32.5386 210.89 32.2126 210.743 31.8925C211.581 28.7262 211.228 27.0767 210.491 26.6974C210.036 26.4634 209.205 26.3832 208.246 27.2978C206.004 23.8538 203.638 21.8965 201.671 21.8965C199.501 21.8965 197.173 24.0108 195.007 27.7729C194.506 27.2505 193.997 26.9864 193.512 27.1658C192.396 27.578 192.339 30.7049 192.472 33.1341C192.239 33.7242 192.011 34.3346 191.787 34.9642C190.8 33.9936 190.289 34.0229 189.843 34.2305C189.107 34.5728 189.161 37.483 189.99 40.8131C189.907 41.1277 189.825 41.4458 189.744 41.7666C188.512 40.2306 188.131 40.5639 187.735 40.7097C186.535 41.1517 187.227 46.1084 188.003 50.2888C187.894 50.9693 187.789 51.6576 187.69 52.3557C186.848 58.2881 187.059 62.9943 187.975 66.6854C186.828 66.4644 186.307 66.5821 186.135 66.8611C185.65 67.6478 187.485 70.4483 190.603 72.7133C193.572 76.9895 198.005 78.5706 202.045 78.5706C207.747 78.5706 212.394 75.2574 214.633 68.2463C218.234 64.4524 220.013 60.0038 218.804 58.6058Z" fill="#00AB4C"/>
<path d="M189.974 59.9471C189.934 59.9471 189.9 59.9178 189.895 59.8774C189.404 56.1774 189.755 54.1308 190.911 53.9592C192.104 53.7809 193.316 56.0377 193.833 57.1467C193.591 55.4601 193.807 54.5271 194.49 54.3014C195.446 53.9857 197.007 55.2727 198.042 57.2319C198.063 57.271 198.048 57.3195 198.009 57.3403C197.97 57.361 197.921 57.346 197.901 57.3069C196.9 55.4148 195.424 54.1615 194.54 54.4538C193.866 54.6767 193.721 55.7554 194.097 57.7513C194.104 57.7918 194.08 57.8315 194.041 57.8431C194.001 57.8548 193.959 57.8344 193.944 57.7961C193.507 56.7136 192.118 53.9428 190.935 54.1178C189.896 54.272 189.583 56.31 190.054 59.8564C190.059 59.9002 190.029 59.9405 189.985 59.9464C189.981 59.9469 189.978 59.9471 189.974 59.9471Z" fill="#E6D0BE"/>
<path d="M210.791 70.2517C210.787 70.2517 210.784 70.2515 210.78 70.251C210.736 70.2451 210.705 70.2049 210.711 70.1609C211.107 67.179 210.847 65.4659 209.979 65.337C208.988 65.1883 207.823 67.5203 207.456 68.4304C207.44 68.4685 207.399 68.4888 207.359 68.4773C207.319 68.4657 207.295 68.426 207.303 68.3855C207.614 66.7333 207.491 65.8027 206.937 65.6197C206.209 65.379 204.946 66.4558 204.119 68.019C204.099 68.0582 204.05 68.0731 204.011 68.0525C203.972 68.0318 203.957 67.9833 203.977 67.9441C204.853 66.287 206.176 65.1993 206.987 65.4674C207.558 65.6561 207.748 66.4206 207.561 67.798C208.016 66.8381 209.011 65.0317 210.002 65.1783C210.985 65.3243 211.285 67.0544 210.87 70.1819C210.865 70.2224 210.83 70.2517 210.791 70.2517Z" fill="#E6D0BE"/>
<path d="M208.846 45.5016C208.843 45.5016 208.839 45.5014 208.835 45.5009C208.792 45.4951 208.761 45.4548 208.767 45.4108C209.162 42.4289 208.902 40.7158 208.034 40.5869C207.048 40.4409 205.878 42.7701 205.511 43.6803C205.496 43.7184 205.454 43.7387 205.414 43.7273C205.375 43.7156 205.35 43.6759 205.358 43.6354C205.669 41.9832 205.546 41.0526 204.992 40.8696C204.265 40.6293 203.001 41.7055 202.175 43.2689C202.154 43.3081 202.106 43.3231 202.066 43.3024C202.027 43.2817 202.012 43.2332 202.033 43.194C202.909 41.5369 204.231 40.4492 205.043 40.7173C205.614 40.906 205.803 41.6705 205.616 43.0479C206.072 42.0879 207.069 40.2825 208.057 40.4282C209.04 40.5741 209.34 42.3043 208.925 45.4318C208.92 45.4723 208.886 45.5016 208.846 45.5016Z" fill="#E6D0BE"/>
<path d="M216.156 106.146C216.347 105.689 216.474 105.196 216.514 104.674C216.712 102.064 214.757 99.7876 212.147 99.5891C210.407 99.4568 208.817 100.282 207.89 101.619C207.219 99.3471 205.204 97.6145 202.701 97.4242C201.933 97.3658 201.189 97.4595 200.497 97.6772C199.806 96.9783 198.873 96.5133 197.816 96.433C197.135 96.3812 196.481 96.498 195.89 96.7419C195.52 94.5533 193.701 92.8133 191.388 92.6375C188.665 92.4305 186.289 94.4706 186.082 97.1943C186.081 97.2061 186.081 97.2176 186.08 97.2295C185.545 97.0018 184.966 96.855 184.354 96.8085C181.629 96.6012 179.218 98.4321 178.621 101.016C178.434 100.973 178.244 100.939 178.048 100.924C175.948 100.764 174.117 102.337 173.957 104.436C173.911 105.04 174.013 105.62 174.225 106.146L216.156 106.146Z" fill="#716D4F"/>
<path d="M101.013 69.0837C101.007 69.0837 101.001 69.0831 100.995 69.0818C100.952 69.072 100.925 69.0291 100.934 68.9859L104.642 52.5639L100.936 40.6502C100.932 40.639 100.931 40.6272 100.933 40.6157L103.32 22.8468C103.326 22.803 103.366 22.7723 103.41 22.778C103.454 22.784 103.485 22.8243 103.479 22.8682L101.094 40.6195L104.802 52.5369C104.806 52.5503 104.807 52.5647 104.804 52.5784L101.091 69.0212C101.082 69.0585 101.049 69.0837 101.013 69.0837Z" fill="#D3BBA3"/>
<path d="M104.666 52.6569C104.655 52.6569 104.643 52.6545 104.632 52.6492L93.4931 47.345C93.4684 47.3332 93.4513 47.3097 93.448 47.2824L91.3326 30.0947L81.5685 26.9279C81.5264 26.9143 81.5033 26.8691 81.517 26.8269C81.5306 26.7849 81.5757 26.7617 81.618 26.7754L91.4307 29.9579C91.4604 29.9676 91.4818 29.9935 91.4855 30.0244L93.6018 47.2192L104.701 52.5044C104.741 52.5234 104.758 52.5713 104.739 52.6113C104.725 52.6401 104.696 52.6569 104.666 52.6569Z" fill="#D3BBA3"/>
<path d="M103.76 49.3057C103.746 49.3057 103.731 49.3018 103.718 49.2936C103.68 49.2702 103.669 49.2207 103.692 49.1831L109.594 39.7178C109.598 39.7109 109.604 39.7045 109.61 39.6992L117.544 32.9578L116.552 14.9889C116.549 14.9448 116.583 14.9069 116.627 14.9044C116.673 14.9019 116.709 14.9359 116.712 14.98L117.707 32.9886C117.708 33.0137 117.698 33.0379 117.678 33.0541L109.723 39.8132L103.828 49.2679C103.813 49.2923 103.787 49.3057 103.76 49.3057Z" fill="#D3BBA3"/>
<path d="M80.68 41.8262C80.6529 41.8262 80.6264 41.8125 80.6114 41.7877C80.5884 41.7498 80.6004 41.7005 80.6384 41.6775L85.5889 38.6718C85.6043 38.6624 85.6228 38.6585 85.6407 38.6608L92.536 39.5448C92.58 39.5504 92.6111 39.5906 92.6054 39.6345C92.5998 39.6785 92.5601 39.7102 92.5157 39.7039L85.6481 38.8234L80.7216 41.8146C80.7084 41.8225 80.6942 41.8262 80.68 41.8262Z" fill="#D3BBA3"/>
<path d="M83.0964 40.2343C83.0662 40.2343 83.0373 40.2173 83.0237 40.1881L81.7861 37.536C81.7674 37.4959 81.7847 37.4481 81.8248 37.4294C81.865 37.4107 81.9127 37.428 81.9314 37.4681L83.169 40.1202C83.1877 40.1603 83.1704 40.2081 83.1303 40.2268C83.1193 40.2319 83.1077 40.2343 83.0964 40.2343Z" fill="#D3BBA3"/>
<path d="M88.4005 29.0529C88.3991 29.0529 88.3979 29.0529 88.3965 29.0528C88.3523 29.0507 88.3181 29.0131 88.3203 28.9689L88.4971 25.256C88.4992 25.2118 88.5389 25.1789 88.581 25.1797C88.6253 25.1818 88.6595 25.2194 88.6573 25.2636L88.4805 28.9765C88.4785 29.0195 88.443 29.0529 88.4005 29.0529Z" fill="#D3BBA3"/>
<path d="M93.6308 47.2478C93.6225 47.2478 93.6139 47.2464 93.6055 47.2436C93.5635 47.2296 93.5408 47.1842 93.5548 47.1422L95.3228 41.838C95.3368 41.7961 95.3819 41.7733 95.4243 41.7874C95.4662 41.8014 95.489 41.8468 95.4749 41.8888L93.7069 47.1929C93.6957 47.2265 93.6644 47.2478 93.6308 47.2478Z" fill="#D3BBA3"/>
<path d="M101.631 35.5348C101.597 35.5348 101.565 35.5124 101.554 35.4777L100.494 31.9415L99.2547 26.4552C99.245 26.4121 99.2721 26.3691 99.3152 26.3593C99.3583 26.3498 99.4013 26.3767 99.4111 26.4199L100.649 31.9009L101.708 35.4316C101.721 35.4741 101.697 35.5187 101.654 35.5315C101.647 35.5337 101.639 35.5348 101.631 35.5348Z" fill="#D3BBA3"/>
<path d="M117.627 33.0743C117.599 33.0743 117.573 33.0603 117.558 33.035L112.436 24.4024C112.413 24.3643 112.426 24.3152 112.464 24.2925C112.502 24.2699 112.551 24.2824 112.574 24.3206L117.696 32.9533C117.718 32.9913 117.706 33.0405 117.668 33.0631C117.655 33.0707 117.641 33.0743 117.627 33.0743Z" fill="#D3BBA3"/>
<path d="M115.157 41.5908C115.149 41.5908 115.141 41.5895 115.133 41.5871L109.68 39.8657C109.638 39.8523 109.614 39.8073 109.628 39.765C109.641 39.7228 109.686 39.6994 109.728 39.7127L115.167 41.4299L122.225 41.077C122.268 41.0737 122.307 41.1089 122.309 41.1531C122.311 41.1973 122.277 41.235 122.233 41.2372L115.161 41.5908C115.16 41.5908 115.158 41.5908 115.157 41.5908Z" fill="#D3BBA3"/>
<path d="M120.284 44.7736C120.253 44.7736 120.223 44.7552 120.21 44.7245L118.796 41.3652C118.779 41.3244 118.798 41.2773 118.839 41.2602C118.879 41.2431 118.926 41.262 118.944 41.303L120.358 44.6623C120.375 44.7031 120.356 44.7502 120.315 44.7674C120.305 44.7715 120.295 44.7736 120.284 44.7736Z" fill="#D3BBA3"/>
<path d="M117.422 28.2162C117.395 28.2162 117.368 28.2024 117.353 28.1774C117.33 28.1395 117.343 28.0901 117.381 28.0673L120.391 26.2541L121.091 23.4574C121.101 23.4144 121.145 23.3879 121.188 23.399C121.231 23.4097 121.257 23.4533 121.246 23.4963L120.539 26.3252C120.534 26.3458 120.521 26.3635 120.502 26.3744L117.463 28.2046C117.45 28.2125 117.436 28.2162 117.422 28.2162Z" fill="#D3BBA3"/>
<path d="M114.312 27.5431C114.308 27.5431 114.305 27.5428 114.301 27.5424L110.903 27.0913C110.859 27.0854 110.828 27.0452 110.834 27.0013C110.84 26.9574 110.879 26.9266 110.924 26.9323L114.322 27.3834C114.366 27.3892 114.397 27.4295 114.391 27.4734C114.386 27.5137 114.351 27.5431 114.312 27.5431Z" fill="#D3BBA3"/>
<path d="M116.748 18.2527C116.733 18.2527 116.717 18.2484 116.704 18.2393L113.521 16.1177C113.484 16.0931 113.474 16.0433 113.499 16.0064C113.523 15.9696 113.573 15.9595 113.61 15.9842L116.793 18.1059C116.829 18.1304 116.839 18.1802 116.815 18.2171C116.799 18.2402 116.774 18.2527 116.748 18.2527Z" fill="#D3BBA3"/>
<path d="M95.6448 33.4522C95.6448 33.4522 97.5115 33.3148 98.6689 32.0757C99.8264 30.8365 99.8362 28.9648 99.8362 28.9648C99.8362 28.9648 97.9695 29.1022 96.8121 30.3413C95.6546 31.5804 95.6448 33.4522 95.6448 33.4522Z" fill="#D3BBA3"/>
<path d="M124.768 29.8449C124.768 29.8449 124.497 28.1655 123.283 27.2152C122.07 26.2648 120.374 26.4036 120.374 26.4036C120.374 26.4036 120.646 28.083 121.859 29.0333C123.073 29.9837 124.768 29.8449 124.768 29.8449Z" fill="#D3BBA3"/>
<path d="M94.0501 64.1784C92.2468 64.1489 90.8098 62.6064 90.8098 62.6064C90.8098 62.6064 92.2965 61.1116 94.0998 61.1411C95.9031 61.1705 97.3401 62.713 97.3401 62.713C97.3401 62.713 95.8534 64.2079 94.0501 64.1784Z" fill="#E6D0BE"/>
<path d="M94.7747 69.7033C94.7556 69.7033 94.7364 69.6965 94.7211 69.6828C94.6562 69.6243 93.1274 68.2294 93.0659 66.4137C93.0042 64.598 94.4349 63.1027 94.4958 63.0399C94.5259 63.009 94.5749 63.0075 94.607 63.0362C94.672 63.0946 96.2006 64.4895 96.2622 66.3053C96.3238 68.1209 94.8933 69.6162 94.8324 69.679C94.8165 69.6951 94.7957 69.7033 94.7747 69.7033ZM94.5572 63.2101C94.2959 63.5032 93.1734 64.8566 93.226 66.4081C93.2787 67.9597 94.4903 69.2339 94.7708 69.5086C95.0321 69.2155 96.1545 67.8622 96.1019 66.3106C96.0492 64.7576 94.8378 63.4846 94.5572 63.2101Z" fill="#E6D0BE"/>
<path d="M96.178 65.2828C96.151 65.2828 96.1247 65.2692 96.1096 65.2446C96.0639 65.17 94.9942 63.3986 95.4506 61.6402C95.9069 59.8817 97.7031 58.854 97.7794 58.8111C97.8168 58.7899 97.8645 58.8024 97.8871 58.8391C97.9328 58.9136 99.0026 60.6851 98.5462 62.4436C98.0898 64.2021 96.2935 65.2298 96.2173 65.2726C96.2049 65.2795 96.1913 65.2828 96.178 65.2828ZM97.79 58.9918C97.4563 59.1987 95.9958 60.1777 95.6058 61.6803C95.2155 63.1844 96.0156 64.7489 96.2067 65.0918C96.5404 64.8849 98.0009 63.9059 98.3909 62.4032C98.7809 60.9006 97.9809 59.3348 97.79 58.9918Z" fill="#E6D0BE"/>
<path d="M101.101 70.7278C100.416 70.7278 99.0078 70.609 97.9769 69.7301C96.5944 68.5513 96.4547 66.4867 96.4494 66.3994C96.4468 66.3564 96.4786 66.319 96.5214 66.3148C96.6087 66.3063 98.6694 66.1178 100.052 67.2965C101.434 68.4752 101.574 70.5399 101.579 70.6272C101.582 70.6702 101.55 70.7076 101.507 70.7118C101.485 70.7139 101.335 70.7278 101.101 70.7278ZM96.6166 66.4687C96.657 66.8593 96.8996 68.6007 98.081 69.608C99.2623 70.6151 101.02 70.5795 101.412 70.5576C101.372 70.1671 101.129 68.4257 99.9479 67.4184C98.7664 66.4111 97.0085 66.4471 96.6166 66.4687Z" fill="#D3BBA3"/>
<path d="M98.7752 67.1627C96.9719 67.1333 95.5349 65.5908 95.5349 65.5908C95.5349 65.5908 97.0216 64.096 98.8249 64.1254C100.628 64.1549 102.065 65.6974 102.065 65.6974C102.065 65.6974 100.579 67.1922 98.7752 67.1627Z" fill="#E6D0BE"/>
<path d="M90.4503 65.7551C90.1937 63.9699 91.4891 62.3066 91.4891 62.3066C91.4891 62.3066 93.2005 63.5378 93.4571 65.3229C93.7137 67.1081 92.4183 68.7714 92.4183 68.7714C92.4183 68.7714 90.7068 67.5403 90.4503 65.7551Z" fill="#D3BBA3"/>
<path d="M100.096 66.4461C101.522 65.3421 103.608 65.6484 103.608 65.6484C103.608 65.6484 103.381 67.7444 101.955 68.8483C100.529 69.9522 98.4429 69.646 98.4429 69.646C98.4429 69.646 98.6693 67.55 100.096 66.4461Z" fill="#D3BBA3"/>
<path d="M106.33 70.8103C106.322 70.8103 106.314 70.8092 106.307 70.8069C106.223 70.7817 104.246 70.1703 103.417 68.5536C102.588 66.9368 103.246 64.9748 103.275 64.892C103.289 64.8513 103.332 64.8289 103.373 64.8413C103.457 64.8665 105.434 65.4779 106.263 67.0946C107.092 68.7114 106.434 70.6734 106.405 70.7562C106.394 70.7894 106.363 70.8103 106.33 70.8103ZM103.56 68.4804C104.269 69.8632 105.906 70.4993 106.277 70.6283C106.389 70.2519 106.828 68.5494 106.12 67.1678C105.411 65.785 103.773 65.1489 103.402 65.0199C103.291 65.3964 102.852 67.0988 103.56 68.4804Z" fill="#E6D0BE"/>
<path d="M102.258 69.8654C104.012 69.4437 105.789 70.5784 105.789 70.5784C105.789 70.5784 104.722 72.3971 102.969 72.8189C101.215 73.2406 99.4385 72.1058 99.4385 72.1058C99.4385 72.1058 100.505 70.2872 102.258 69.8654Z" fill="#E6D0BE"/>
<path d="M95.6651 72.0647C94.258 70.9366 94.0674 68.837 94.0674 68.837C94.0674 68.837 96.1581 68.5665 97.5653 69.6947C98.9724 70.8229 99.163 72.9224 99.163 72.9224C99.163 72.9224 97.0722 73.1929 95.6651 72.0647Z" fill="#D3BBA3"/>
<path d="M101.747 65.8222C101.74 65.8222 101.734 65.8214 101.727 65.8196C101.642 65.7973 99.6451 65.255 98.7606 63.6682C97.8761 62.0812 98.4653 60.0975 98.4909 60.0138C98.5034 59.9726 98.5465 59.9487 98.588 59.9597C98.6726 59.982 100.67 60.5243 101.554 62.1112C102.439 63.6981 101.849 65.6819 101.824 65.7655C101.813 65.7999 101.782 65.8222 101.747 65.8222ZM98.9006 63.5901C99.6572 64.9474 101.316 65.5261 101.691 65.6421C101.79 65.2619 102.17 63.5452 101.414 62.1892C100.658 60.8332 98.9983 60.2534 98.6232 60.1372C98.5249 60.5173 98.1448 62.2339 98.9006 63.5901Z" fill="#D3BBA3"/>
<path d="M107.926 71.6389C106.185 72.1114 104.376 71.0287 104.376 71.0287C104.376 71.0287 105.389 69.1798 107.13 68.7073C108.87 68.2347 110.679 69.3175 110.679 69.3175C110.679 69.3175 109.666 71.1663 107.926 71.6389Z" fill="#D3BBA3"/>
<path d="M107.918 68.4202C106.511 67.292 106.32 65.1925 106.32 65.1925C106.32 65.1925 108.411 64.922 109.818 66.0501C111.225 67.1783 111.416 69.2778 111.416 69.2778C111.416 69.2778 109.325 69.5483 107.918 68.4202Z" fill="#E6D0BE"/>
<path d="M220.545 21.4271L220.52 21.4221C216.809 20.6694 213.906 17.7738 213.143 14.0645L213.138 14.0888C212.385 17.8001 209.49 20.7035 205.78 21.4662L205.805 21.4712C209.516 22.224 212.419 25.1196 213.182 28.8289L213.187 28.8045C213.94 25.0933 216.835 22.1898 220.545 21.4271Z" fill="white"/>
<path d="M207.379 30.0635L207.367 30.0611C205.549 29.6924 204.127 28.274 203.754 26.457L203.751 26.469C203.382 28.2869 201.964 29.7091 200.147 30.0827L200.159 30.0851C201.977 30.4538 203.399 31.8722 203.773 33.6891L203.775 33.6772C204.144 31.8593 205.562 30.437 207.379 30.0635Z" fill="white"/>
<path d="M194.933 67.9003L194.914 67.8963C191.931 67.2913 189.597 64.9638 188.984 61.9824L188.98 62.002C188.375 64.985 186.048 67.3187 183.066 67.9317L183.086 67.9357C186.069 68.5407 188.402 70.8681 189.015 73.8495L189.019 73.83C189.624 70.847 191.952 68.5133 194.933 67.9003Z" fill="white"/>
<path d="M188.454 16.9645L188.438 16.9614C186.086 16.4844 184.247 14.6494 183.763 12.2988L183.76 12.3143C183.283 14.6662 181.448 16.5061 179.098 16.9894L179.113 16.9925C181.465 17.4695 183.305 19.3045 183.788 21.6551L183.791 21.6396C184.268 19.2877 186.103 17.4478 188.454 16.9645Z" fill="white"/>
<path d="M169.419 118.726C169.443 118.717 169.468 118.709 169.492 118.7C176.092 116.287 179.571 109.213 179.039 107.759C178.493 106.266 171.286 103.142 164.687 105.555C164.662 105.564 164.638 105.574 164.614 105.583L169.419 118.726Z" fill="#F9DD65"/>
</g>
<defs>
<clipPath id="clip0_535_10334">
<rect y="0.417969" width="310" height="103.333" rx="6.2" fill="white"/>
</clipPath>
</defs>
</svg>
