<svg width="240" height="331" viewBox="0 0 240 331" fill="none" xmlns="http://www.w3.org/2000/svg">
<g filter="url(#filter0_d_528_2236)">
<rect x="5" y="3" width="230" height="321.37" rx="18.9041" fill="#EFFFDD"/>
<path d="M71.5366 64.6016V64.5007C71.839 64.5007 74.6621 64.047 74.6621 58.9555V30.927C74.6621 25.8355 71.839 25.3818 71.5366 25.3818V25.281H85.9541V25.3818C85.6516 25.3818 82.8286 25.8355 82.8286 30.927V58.9555C82.8286 64.047 85.6516 64.5007 85.9541 64.5007V64.6016H71.5366ZM91.1602 35.212C91.1602 28.3057 97.1087 24.5753 104.771 24.5753C109.359 24.5753 112.131 25.281 115.71 25.281V33.5484H115.61C115.307 31.9353 114.753 29.8684 112.988 28.2553C111.425 26.8942 108.955 25.8859 104.872 25.8859C100.738 25.8859 96.9071 27.5495 96.9071 31.4311C96.9071 34.9095 100.133 36.7747 102.956 38.3879L110.064 42.4207C115.761 45.647 118.08 49.4279 118.08 53.7632C118.08 60.5183 112.484 64.904 103.208 64.904C99.9821 64.904 95.2939 64.6016 92.0676 64.6016V54.1161H92.1684C92.4205 56.3342 92.9246 58.7539 94.689 60.6695C96.2517 62.3835 98.8731 63.5933 102.755 63.5933C109.409 63.5933 111.526 60.4679 111.526 57.2416C111.526 54.6202 110.216 52.3517 105.326 49.5791L97.8649 45.3446C93.58 42.9248 91.1602 39.9002 91.1602 35.212ZM125.816 26.5917C120.12 26.5917 119.565 32.641 119.565 33.2459H119.464V25.281H151.828V33.2459H151.727C151.727 32.641 151.173 26.5917 145.476 26.5917H139.73V58.9555C139.73 64.047 142.553 64.5007 142.855 64.5007V64.6016H128.438V64.5007C128.74 64.5007 131.563 64.047 131.563 58.9555V26.5917H125.816ZM153.825 75.1879C157.152 75.1879 157.555 69.2898 157.555 64.7528V30.927C157.555 25.8355 154.732 25.3818 154.43 25.3818V25.281H168.847V25.3818C168.545 25.3818 165.722 25.8355 165.722 30.927V64.652C165.722 71.4575 160.983 75.2887 153.825 75.2887V75.1879Z" fill="#4B8A00"/>
<path d="M43.4411 94.3281V94.2966C43.5356 94.2966 44.4178 94.1548 44.4178 92.5637V83.8048C44.4178 82.2137 43.5356 82.072 43.4411 82.072V82.0405H46.3712L53.1767 90.311V83.8048C53.1767 82.2137 52.2945 82.072 52.2 82.072V82.0405H54.5945V82.072C54.5 82.072 53.6178 82.2137 53.6178 83.8048V94.4226L44.8589 83.8048V92.5637C44.8589 94.1548 45.7411 94.2966 45.8356 94.2966V94.3281H43.4411ZM59.244 97.3685C60.0789 97.3685 60.6145 97.0377 60.9611 96.5651C61.4967 95.8247 61.5913 94.7377 61.5913 93.95V93.0679C61.1029 93.9658 60.1104 94.5172 59.0392 94.5172C56.6132 94.5172 55.1008 92.6583 55.1008 90.0432C55.1008 87.1131 56.6132 84.9391 59.2913 84.9391C60.5515 84.9391 61.1817 85.4589 61.5913 86.0261V85.0966H65.0885V85.1281C64.994 85.1281 64.1118 85.2699 64.1118 86.861V93.698C64.1118 95.037 63.6077 95.9665 62.8988 96.5966C61.9378 97.4631 60.583 97.7466 59.6221 97.7466C58.0467 97.7466 57.0228 97.1952 56.4399 97.1952V94.7692H56.4871C56.6289 95.5884 57.007 96.1713 57.4481 96.5809C58.0782 97.1637 58.8344 97.3685 59.244 97.3685ZM57.6056 89.8857C57.6056 92.0596 58.3776 93.824 59.7481 93.824C60.5515 93.824 61.1344 93.3514 61.5913 92.2644V86.861C61.1817 85.9946 60.5988 85.7898 60.1419 85.7898C58.6926 85.7898 57.6056 87.3966 57.6056 89.8857ZM69.5378 94.4857C68.7501 94.4857 68.0412 94.2494 67.5213 93.7925C67.0172 93.3357 66.7021 92.6583 66.7021 91.7603V86.861C66.7021 85.2699 65.8199 85.1281 65.7254 85.1281V85.0966H69.2227V91.5555C69.2227 91.9494 69.2542 92.4692 69.459 92.8946C69.6638 93.3042 70.0261 93.6035 70.5775 93.6035C71.696 93.6035 72.4994 92.485 72.4994 90.9411V86.861C72.4994 85.2699 71.6172 85.1281 71.5227 85.1281V85.0966H75.0199V85.7268C75.272 85.522 75.3508 85.3014 75.3665 85.0966C75.3665 84.9233 75.3035 84.5137 74.6734 84.3562V84.3405L75.9809 83.4268C76.1699 83.5685 76.4378 84.0569 76.4062 84.4822C76.359 85.2384 75.5556 85.7425 75.0199 85.9788V92.5637C75.0199 94.1548 75.9021 94.2966 75.9967 94.2966V94.3281H72.4994V92.6898C72.1213 93.572 71.2706 94.4857 69.5378 94.4857ZM81.8534 94.5172C78.7972 94.5172 77.2849 92.3432 77.2849 89.7281C77.2849 87.1131 78.7972 84.9391 81.8534 84.9391C83.0191 84.9391 83.9643 85.2542 84.689 85.7898C84.7993 85.6322 84.8308 85.4589 84.815 85.3172C84.7993 85.1439 84.7047 84.75 84.0588 84.6398V84.624L85.2876 83.6C85.4924 83.7261 85.7917 84.1987 85.8075 84.624C85.8232 85.2069 85.3664 85.6795 84.9253 85.9946C85.9177 86.8768 86.4219 88.2315 86.4219 89.7281C86.4219 92.3432 84.9095 94.5172 81.8534 94.5172ZM79.8684 89.7281C79.8684 92.0596 80.404 94.1391 81.8534 94.1391C83.3027 94.1391 83.854 92.0596 83.854 89.7281C83.854 87.3966 83.3027 85.3172 81.8534 85.3172C80.404 85.3172 79.8684 87.3966 79.8684 89.7281ZM80.1835 83.1432V83.0959L81.0184 81.9302H81.0657C81.7116 82.8281 82.8616 84.0569 83.6177 84.3562L83.5705 84.4035C82.641 84.2774 80.9869 83.7576 80.1835 83.1432ZM88.3412 86.861C88.3412 85.2699 87.459 85.1281 87.3645 85.1281V85.0966H90.8617V92.5637C90.8617 94.1548 91.7439 94.2966 91.8384 94.2966V94.3281H87.3645V94.2966C87.459 94.2966 88.3412 94.1548 88.3412 92.5637V86.861ZM88.1837 82.8596C88.1837 82.1192 88.798 81.5048 89.5384 81.5048C90.2789 81.5048 90.8932 82.1192 90.8932 82.8596C90.8932 83.6 90.2789 84.2144 89.5384 84.2144C88.798 84.2144 88.1837 83.6 88.1837 82.8596ZM99.6189 91.9021C99.6189 92.8315 99.7449 93.6665 100.674 93.6665C101.368 93.6665 102.013 93.2411 102.329 92.9261H102.376C102.265 93.2884 101.115 94.4384 99.5086 94.4384C98.1381 94.4384 97.0984 94.0446 97.0984 92.1857V85.4747H96.3107V85.0966H97.0984V82.6706H99.6189V85.0966H102.234V85.4747H99.6189V91.9021ZM103.925 86.861C103.925 85.2699 103.043 85.1281 102.949 85.1281V85.0966H106.446V86.735C106.824 85.8528 107.423 84.9391 108.777 84.9391C109.628 84.9391 109.864 85.0966 109.99 85.0966V88.1843H109.959C109.959 87.4911 109.675 86.8925 109.219 86.5302C108.903 86.2781 108.51 86.1363 108.069 86.1363C106.997 86.1363 106.446 86.9398 106.446 88.4836V92.5637C106.446 94.1548 107.328 94.2966 107.423 94.2966V94.3281H102.949V94.2966C103.043 94.2966 103.925 94.1548 103.925 92.5637V86.861ZM113.768 85.6007C112.004 85.6007 110.901 87.0658 110.759 87.9795H110.712C110.854 86.3254 112.193 84.9391 114.666 84.9391C115.517 84.9391 116.73 85.0651 117.549 85.7583C118.053 86.1994 118.4 86.861 118.4 87.8692V92.5637C118.4 94.1548 119.282 94.2966 119.376 94.2966V94.3281H115.879V92.8946C115.438 93.635 114.508 94.4226 112.839 94.4226C111.326 94.4226 110.176 93.698 110.176 92.1542C110.176 90.1062 112.193 88.7357 115.879 88.6411V87.9322C115.879 87.0343 115.658 86.4357 115.265 86.0733C114.902 85.7425 114.382 85.6007 113.768 85.6007ZM112.697 92.1542C112.697 92.9103 113.122 93.6822 113.989 93.6822C115.044 93.6822 115.785 92.611 115.879 92.2959V89.0192C113.453 89.0507 112.697 91.0042 112.697 92.1542ZM112.917 84.3562C113.674 84.0569 114.824 82.8281 115.469 81.9302H115.517L116.352 83.0959V83.1432C115.548 83.7576 113.894 84.2774 112.965 84.4035L112.917 84.3562ZM124.761 94.5172C121.705 94.5172 120.13 92.5007 120.13 89.7281C120.13 87.1131 121.863 84.9391 125.076 84.9391C126.431 84.9391 127.471 85.4117 127.928 85.4117V87.9322H127.881C127.818 87.4911 127.692 86.6562 127.187 86.0418C126.857 85.6322 126.337 85.3172 125.549 85.3172C123.312 85.3172 122.713 87.3966 122.713 89.7281C122.713 92.0596 123.627 93.824 125.722 93.824C126.935 93.824 127.676 93.1781 128.117 92.4377L128.164 92.4692C128.07 92.7685 127.376 94.5172 124.761 94.5172ZM129.643 83.4898C129.643 81.8987 128.761 81.7569 128.667 81.7569V81.7254H132.164V86.735C132.542 85.8528 133.393 84.9391 135.126 84.9391C135.913 84.9391 136.622 85.1754 137.142 85.6322C137.646 86.0891 137.961 86.7665 137.961 87.6644V92.5637C137.961 94.1548 138.843 94.2966 138.938 94.2966V94.3281H134.464V94.2966C134.558 94.2966 135.441 94.1548 135.441 92.5637V87.8692C135.441 87.4754 135.409 86.9555 135.204 86.5302C135 86.1206 134.637 85.8213 134.086 85.8213C132.967 85.8213 132.164 86.9398 132.164 88.4836V92.5637C132.164 94.1548 133.046 94.2966 133.141 94.2966V94.3281H128.667V94.2966C128.761 94.2966 129.643 94.1548 129.643 92.5637V83.4898ZM144.586 86.861C144.586 85.2699 143.704 85.1281 143.609 85.1281V85.0966H147.106V86.735C147.484 85.8528 148.335 84.9391 150.068 84.9391C150.856 84.9391 151.565 85.1754 152.084 85.6322C152.589 86.0891 152.904 86.7665 152.904 87.6644V92.5637C152.904 94.1548 153.786 94.2966 153.88 94.2966V94.3281H149.406V94.2966C149.501 94.2966 150.383 94.1548 150.383 92.5637V87.8692C150.383 87.4754 150.352 86.9555 150.147 86.5302C149.942 86.1206 149.58 85.8213 149.028 85.8213C147.91 85.8213 147.106 86.9398 147.106 88.4836V92.5637C147.106 94.1548 147.989 94.2966 148.083 94.2966V94.3281H143.609V94.2966C143.704 94.2966 144.586 94.1548 144.586 92.5637V86.861ZM155.55 83.4898C155.55 81.8987 154.668 81.7569 154.574 81.7569V81.7254H158.071V86.735C158.449 85.8528 159.3 84.9391 161.033 84.9391C161.82 84.9391 162.529 85.1754 163.049 85.6322C163.553 86.0891 163.868 86.7665 163.868 87.6644V92.5637C163.868 94.1548 164.75 94.2966 164.845 94.2966V94.3281H160.371V94.2966C160.465 94.2966 161.348 94.1548 161.348 92.5637V87.8692C161.348 87.4754 161.316 86.9555 161.111 86.5302C160.907 86.1206 160.544 85.8213 159.993 85.8213C158.874 85.8213 158.071 86.9398 158.071 88.4836V92.5637C158.071 94.1548 158.953 94.2966 159.048 94.2966V94.3281H154.574V94.2966C154.668 94.2966 155.55 94.1548 155.55 92.5637V83.4898ZM166.708 86.861C166.708 85.2699 165.826 85.1281 165.732 85.1281V85.0966H169.229V92.5637C169.229 94.1548 170.111 94.2966 170.206 94.2966V94.3281H165.732V94.2966C165.826 94.2966 166.708 94.1548 166.708 92.5637V86.861ZM166.551 82.8596C166.551 82.1192 167.165 81.5048 167.906 81.5048C168.646 81.5048 169.26 82.1192 169.26 82.8596C169.26 83.6 168.646 84.2144 167.906 84.2144C167.165 84.2144 166.551 83.6 166.551 82.8596ZM175.714 94.5172C172.658 94.5172 171.082 92.5007 171.082 89.8857C171.082 87.1131 172.973 84.9391 175.982 84.9391C178.455 84.9391 179.432 86.2309 179.432 87.6487C179.432 89.8069 176.612 90.4528 173.682 90.4685C173.823 92.3589 174.627 93.824 176.612 93.824C177.888 93.824 178.628 93.0836 179.069 92.4377L179.117 92.4692C179.022 92.7685 178.329 94.5172 175.714 94.5172ZM173.319 84.4507L173.351 84.4665C174.265 84.4507 175.399 83.9466 175.95 83.5843H175.982C176.533 83.9466 177.667 84.4507 178.581 84.4665L178.612 84.4507C177.778 84.0726 176.423 82.8911 175.982 82.1665H175.95C175.509 82.8911 174.154 84.0726 173.319 84.4507ZM173.666 90.0905C176.454 90.0747 177.541 88.8617 177.541 87.2391C177.541 86.2466 177.006 85.3172 176.029 85.3172C174.422 85.3172 173.682 87.3966 173.666 90.0905ZM174.611 96.2185C174.611 95.6829 175.021 95.2733 175.556 95.2733C176.092 95.2733 176.502 95.6829 176.502 96.2185C176.502 96.7542 176.092 97.1637 175.556 97.1637C175.021 97.1637 174.611 96.7542 174.611 96.2185ZM191.909 94.3281V94.2966C192.003 94.2966 192.886 94.1548 192.886 92.5637V87.8692C192.886 87.4754 192.854 86.9555 192.649 86.5302C192.444 86.1206 192.082 85.8213 191.531 85.8213C190.412 85.8213 189.64 86.9398 189.64 88.4836V92.5637C189.64 94.1548 190.523 94.2966 190.617 94.2966V94.3281H186.143V94.2966C186.238 94.2966 187.12 94.1548 187.12 92.5637V87.8692C187.12 87.4754 187.088 86.9555 186.884 86.5302C186.679 86.1206 186.316 85.8213 185.765 85.8213C184.647 85.8213 183.875 86.9398 183.875 88.4836V92.5637C183.875 94.1548 184.757 94.2966 184.851 94.2966V94.3281H180.377V94.2966C180.472 94.2966 181.354 94.1548 181.354 92.5637V86.861C181.354 85.2699 180.472 85.1281 180.377 85.1281V85.0966H183.875V86.735C184.253 85.8528 185.072 84.9391 186.805 84.9391C187.592 84.9391 188.301 85.1754 188.821 85.6322C189.168 85.9473 189.436 86.3884 189.562 86.924C190.034 85.8528 190.838 84.9391 192.571 84.9391C193.358 84.9391 194.067 85.1754 194.587 85.6322C195.091 86.0891 195.406 86.7665 195.406 87.6644V92.5637C195.406 94.1548 196.288 94.2966 196.383 94.2966V94.3281H191.909Z" fill="#4B8A00"/>
<g clip-path="url(#clip0_528_2236)">
<g clip-path="url(#clip1_528_2236)">
<path d="M120.394 309.401C174.989 309.401 219.246 265.143 219.246 210.548C219.246 155.953 174.989 111.695 120.394 111.695C65.7989 111.695 21.541 155.953 21.541 210.548C21.541 265.143 65.7989 309.401 120.394 309.401Z" fill="#96C85B"/>
<path d="M181.012 175.543H199.441V172.071H181.012V175.543Z" fill="#2C4F02"/>
<path d="M183.799 212.984H196.653V173.807H183.799V212.984Z" fill="#2C4F02"/>
<path d="M159.056 175.543H177.485V172.071H159.056V175.543Z" fill="#2C4F02"/>
<path d="M161.843 222.73H174.698V173.806H161.843V222.73Z" fill="#2C4F02"/>
<path d="M137.14 175.543H155.57V172.071H137.14V175.543Z" fill="#2C4F02"/>
<path d="M137.14 226.227H155.569V222.754H137.14V226.227Z" fill="#2C4F02"/>
<path d="M139.927 224.68H152.782V173.806H139.927V224.68Z" fill="#2C4F02"/>
<path d="M115.185 234.723H197.716V228.349H115.185V234.723Z" fill="#2C4F02"/>
<path d="M112.868 245.203H197.715V236.734H112.868V245.203Z" fill="#2C4F02"/>
<path d="M109.76 256.039H197.715V247.259H109.76V256.039Z" fill="#2C4F02"/>
<path d="M115.185 175.543H133.614V172.071H115.185V175.543Z" fill="#2C4F02"/>
<path d="M115.184 226.227H133.614V222.754H115.184V226.227Z" fill="#2C4F02"/>
<path d="M117.972 224.68H130.826V173.806H117.972V224.68Z" fill="#2C4F02"/>
<path d="M157.67 129.812L200.342 158.641H114.998L157.67 129.812Z" fill="#2C4F02"/>
<path d="M200.342 162.199H114.998V169.407H200.342V162.199Z" fill="#2C4F02"/>
<path d="M89.1882 318.477C90.6061 313.24 91.8327 308.584 92.3032 306.468C92.9334 310.076 93.701 314.297 94.4744 318.477H132.769C127.867 296.065 119.7 258.907 117.936 251.994C102.524 250.785 81.9643 250.108 66.5527 248.898C63.848 259.893 55.0255 296.058 49.5586 318.477H89.1882Z" fill="#3B6A03"/>
<path d="M118.864 282.36C113.306 282.36 108.785 277.839 108.785 272.281C108.785 272.096 108.936 271.945 109.121 271.945C109.307 271.945 109.457 272.096 109.457 272.281C109.457 277.468 113.677 281.688 118.864 281.688C119.05 281.688 119.2 281.838 119.2 282.024C119.2 282.21 119.05 282.36 118.864 282.36Z" fill="white"/>
<path d="M122.294 270.973H61.1494L62.8274 264.105H120.751L122.294 270.973Z" fill="#4F2704"/>
<path d="M98.6419 272.614H90.2109C90.0254 272.614 89.875 272.464 89.875 272.278V262.953C89.875 262.767 90.0254 262.617 90.2109 262.617H98.6419C98.8275 262.617 98.9778 262.767 98.9778 262.953V272.278C98.9778 272.464 98.8273 272.614 98.6419 272.614ZM90.5466 271.942H98.306V263.289H90.5466V271.942Z" fill="#EFBC73"/>
<path d="M188.76 221.491C191.024 220.234 194.656 217.979 193.952 216.43C193.274 215.124 190.002 216.66 187.644 217.895C187.643 217.895 187.643 217.895 187.643 217.895C190.522 215.938 191.493 214.509 190.929 213.706C190.12 212.553 186.748 215.392 181.25 214.905C176.404 214.477 173.897 211.915 169.929 213.318C168.858 213.697 168.144 214.201 167.738 214.484C164.003 217.092 145.547 231.643 144.244 232.626C138.778 236.752 160.351 245.416 164.288 242.243C173.423 234.882 174.552 233.495 178.089 230.282C178.089 230.281 178.09 230.281 178.09 230.281C179.91 230.551 182.803 230.91 186.085 229.905C189 229.012 192.07 227.532 192.076 226.127C192.079 225.358 191.285 225.064 188.37 225.642V225.641C192.07 223.771 193.92 222.096 193.609 220.802C193.412 219.98 191.5 219.97 188.76 221.491Z" fill="#FDFFFD"/>
<path d="M176.713 215.549C180.94 212.089 181.731 209.946 181.161 209.294C180.203 208.197 175.386 209.673 168.573 213.951C170.801 214.6 174.485 214.9 176.713 215.549Z" fill="#FDFFFD"/>
<path d="M178.336 214.493C178.312 214.493 178.289 214.491 178.265 214.486C176.289 214.059 173.972 213.76 172.655 213.663C172.471 213.649 172.331 213.488 172.345 213.303C172.359 213.118 172.523 212.98 172.705 212.993C174.044 213.092 176.4 213.396 178.406 213.829C178.588 213.868 178.703 214.047 178.664 214.228C178.63 214.386 178.491 214.493 178.336 214.493Z" fill="#3B6A03"/>
<path d="M183.492 219.038C183.215 219.038 182.956 219.025 182.721 219.014C182.535 219.005 182.392 218.848 182.401 218.663C182.41 218.477 182.569 218.336 182.752 218.343C183.318 218.371 183.96 218.402 184.66 218.262C185.528 218.088 186.857 217.613 188.129 217.023C188.299 216.945 188.497 217.019 188.575 217.187C188.653 217.355 188.58 217.555 188.412 217.633C187.075 218.253 185.722 218.734 184.792 218.92C184.33 219.012 183.892 219.038 183.492 219.038Z" fill="#3B6A03"/>
<path d="M184.37 222.406C184.302 222.406 184.24 222.405 184.184 222.402C183.999 222.393 183.856 222.236 183.865 222.051C183.874 221.865 184.033 221.719 184.216 221.731C184.727 221.755 186.072 221.631 186.812 221.467C187.384 221.34 188.108 221.099 189.026 220.731C189.199 220.662 189.394 220.746 189.463 220.918C189.532 221.09 189.449 221.286 189.276 221.355C188.324 221.736 187.565 221.988 186.958 222.123C186.271 222.276 185.05 222.406 184.37 222.406Z" fill="#3B6A03"/>
<path d="M184.039 226.85C183.861 226.85 183.683 226.846 183.505 226.837C183.32 226.828 183.177 226.671 183.186 226.486C183.195 226.3 183.358 226.158 183.538 226.166C184.182 226.198 184.831 226.168 185.466 226.081C186.076 225.997 187.236 225.796 188.158 225.395C188.328 225.321 188.526 225.4 188.6 225.569C188.674 225.739 188.596 225.937 188.426 226.011C187.43 226.444 186.201 226.658 185.557 226.746C185.056 226.815 184.548 226.85 184.039 226.85Z" fill="#3B6A03"/>
<path d="M43.9198 222.52C38.4207 232.077 17.2822 262.841 28.9298 270.456C38.1978 276.515 57.1309 247.272 63.2069 238.135C56.6941 233.6 50.4327 227.055 43.9198 222.52Z" fill="#FDFFFD"/>
<path d="M27.7832 251.338C27.7832 251.338 42.8157 216.522 52.9771 207.807C61.0398 200.892 78.4173 198.168 94.8074 198.467C116.998 198.873 127.089 208.218 127.089 208.218L145.555 230.448L163.825 217.266L174.949 233.236C174.949 233.236 155.629 254.586 146.939 256.111C134.335 258.322 118.336 245.986 118.336 245.986L120.131 261.368L59.296 262.61L62.0012 244.778L54.7407 253.136L27.7832 251.338Z" fill="#3B6A03"/>
<path d="M116.531 205.19C116.513 205.19 116.495 205.189 116.476 205.186L103.432 202.998C103.324 202.98 103.232 202.91 103.185 202.811C103.137 202.712 103.142 202.597 103.196 202.501L104.977 199.361C105.047 199.238 105.188 199.173 105.326 199.196L118.489 201.458C118.599 201.477 118.692 201.55 118.738 201.652C118.784 201.753 118.777 201.871 118.718 201.966L116.817 205.032C116.755 205.131 116.646 205.19 116.531 205.19ZM104.017 202.415L116.365 204.486L117.884 202.036L105.445 199.898L104.017 202.415Z" fill="white"/>
<path d="M62.4688 206.257C62.3538 206.257 62.2453 206.198 62.1833 206.098L60.2828 203.033C60.224 202.938 60.2162 202.82 60.2619 202.718C60.3078 202.616 60.4013 202.543 60.5113 202.525L73.6739 200.263C73.8125 200.239 73.9531 200.305 74.0229 200.428L75.8046 203.568C75.8587 203.663 75.8629 203.779 75.8157 203.878C75.7686 203.977 75.6762 204.047 75.568 204.065L62.5244 206.252C62.5058 206.255 62.4872 206.257 62.4688 206.257ZM61.1164 203.102L62.6355 205.552L74.9834 203.481L73.555 200.964L61.1164 203.102Z" fill="white"/>
<path d="M165.406 235.971C165.303 235.971 165.202 235.924 165.136 235.835L155.737 223.106C155.627 222.956 155.659 222.746 155.808 222.636C155.957 222.526 156.167 222.558 156.277 222.707L165.676 235.436C165.787 235.585 165.755 235.795 165.605 235.906C165.545 235.95 165.476 235.971 165.406 235.971Z" fill="white"/>
<path d="M70.7206 230.094L57.9541 271.477L89.8357 281.312L102.602 239.929L70.7206 230.094Z" fill="#FFDA48"/>
<path d="M80.4888 231.29L79.0151 236.066L92.3835 240.191L93.8571 235.414L80.4888 231.29Z" fill="#EFBC73"/>
<path d="M67.6914 255.242C77.884 257.821 73.3534 256.317 75.7069 256.888C80.1063 257.956 89.5452 259.972 89.4499 263.077C89.4182 264.11 88.683 265.086 87.5897 265.661C88.4588 266.662 88.6545 268.065 88.0901 269.202C87.3485 270.696 85.6977 270.916 85.5761 270.93C86.3452 271.61 86.7211 272.608 86.511 273.519C86.2209 274.775 84.8505 275.712 83.3039 275.506C83.3997 275.78 83.7071 276.771 83.2449 277.802C82.7329 278.945 81.483 279.676 80.0797 279.647C76.1701 278.701 69.7127 278.095 62.1861 276.952C44.7621 274.306 60.9516 258.4 67.6914 255.242Z" fill="#FDFFFD"/>
<path d="M82.9055 263.295C82.872 263.295 82.8383 263.29 82.8048 263.28C82.6278 263.224 82.5293 263.036 82.5849 262.859L83.1808 260.958C83.2361 260.781 83.4248 260.682 83.6017 260.738C83.7787 260.794 83.8773 260.982 83.8217 261.159L83.2257 263.06C83.1808 263.204 83.0484 263.295 82.9055 263.295Z" fill="#3B6A03"/>
<path d="M81.4001 268.12C81.3668 268.12 81.333 268.115 81.2996 268.105C81.1224 268.049 81.0239 267.86 81.0795 267.684L81.6754 265.782C81.7307 265.605 81.9193 265.507 82.0965 265.562C82.2735 265.618 82.3721 265.806 82.3164 265.983L81.7205 267.884C81.6756 268.028 81.543 268.12 81.4001 268.12Z" fill="#3B6A03"/>
<path d="M79.9211 273.05C79.8878 273.05 79.854 273.045 79.8205 273.034C79.6434 272.979 79.5449 272.79 79.6005 272.613L80.1964 270.712C80.2517 270.535 80.4406 270.436 80.6172 270.492C80.7943 270.548 80.8929 270.736 80.8373 270.913L80.2414 272.814C80.1966 272.958 80.064 273.05 79.9211 273.05Z" fill="#3B6A03"/>
<path d="M78.4885 277.495C78.455 277.495 78.4213 277.49 78.3878 277.479C78.2108 277.424 78.1123 277.235 78.1679 277.058L78.7638 275.158C78.8192 274.98 79.0077 274.882 79.1847 274.937C79.3617 274.993 79.4603 275.182 79.4047 275.358L78.8087 277.259C78.7636 277.403 78.6313 277.495 78.4885 277.495Z" fill="#3B6A03"/>
<path d="M55.1433 252.671L70.2887 255.821L64.1514 277.459L32.4199 272.382C28.4217 271.742 25.4804 268.297 25.4796 264.252L25.4795 263.5C25.4787 259.127 26.3406 254.797 28.0159 250.758L55.1433 252.671Z" fill="#3B6A03"/>
<path d="M54.7144 275.975C54.6869 275.975 54.6594 275.972 54.6318 275.965C54.4519 275.92 54.3428 275.737 54.3882 275.557L58.0706 260.976C58.1162 260.796 58.3004 260.688 58.4786 260.733C58.6585 260.778 58.7676 260.961 58.7222 261.141L55.0398 275.722C55.0012 275.874 54.8644 275.975 54.7144 275.975Z" fill="white"/>
<path d="M68.0405 177.841C71.2048 175.454 72.5423 175.361 75.5125 173.572C77.1562 172.581 79.164 169.275 81.1324 171.511C82.4914 173.055 82.2056 176.214 80.1643 177.677C76.9114 180.008 74.4616 178.216 71.6554 180.915C69.5401 182.951 68.7304 187.203 70.7714 189.763C72.2952 191.674 74.8034 191.883 75.4853 191.918C74.717 193.333 73.9488 194.749 73.1806 196.164C71.0165 195.205 69.7856 194.18 68.3282 192.608C68.9647 194.598 70 195.737 72.1584 197.162C70.9321 197.898 69.7058 198.634 68.4796 199.371C65.3769 196.562 64.4048 193.692 64.0579 192.324C62.6111 186.617 64.3743 180.607 68.0405 177.841Z" fill="#EFBC73"/>
<path d="M72.1292 181.967C71.9568 181.967 71.8101 181.835 71.795 181.66L71.1307 173.997C71.1229 173.909 71.1508 173.82 71.2081 173.752C71.2655 173.684 71.3474 173.641 71.4361 173.634L74.7202 173.349C74.9063 173.331 75.0678 173.47 75.0838 173.655L75.7481 181.318C75.7559 181.406 75.728 181.495 75.6707 181.563C75.6133 181.631 75.5314 181.674 75.4425 181.681L72.1585 181.966C72.1487 181.967 72.1388 181.967 72.1292 181.967ZM71.8288 174.274L72.4351 181.267L75.0501 181.041L74.4438 174.047L71.8288 174.274Z" fill="#3B6A03"/>
<path d="M84.1417 167.565C84.5701 167.344 88.7037 165.288 92.4445 167.182C95.2281 168.591 96.5725 171.29 98.1429 176.158C99.9923 181.89 100.297 185.575 99.1304 187.319C97.2871 190.073 88.1261 189.218 83.3199 185.487C79.8506 182.794 78.2769 178.169 79.0696 173.818C79.86 169.479 83.8684 167.706 84.1417 167.565Z" fill="#FDFFFD"/>
<path d="M88.8265 204.532H88.4342C85.5991 204.532 83.3008 202.233 83.3008 199.398V183.579C83.3008 180.744 85.5991 178.445 88.4342 178.445H88.8265C91.6616 178.445 93.9599 180.744 93.9599 183.579V199.398C93.9599 202.233 91.6616 204.532 88.8265 204.532Z" fill="#FDFFFD"/>
<path d="M93.9602 189.453C93.958 189.453 93.956 189.453 93.9539 189.453C90.0614 189.383 85.8245 188.001 83.1602 185.933C83.0138 185.82 82.9871 185.609 83.1007 185.462C83.2145 185.315 83.4255 185.289 83.5721 185.403C86.1292 187.388 90.209 188.714 93.9659 188.781C94.1515 188.784 94.2991 188.937 94.2958 189.123C94.2926 189.307 94.1428 189.453 93.9602 189.453Z" fill="#3B6A03"/>
<path d="M88.4014 177.262C88.4014 177.262 89.564 178.694 91.3704 179.445C91.7509 179.603 92.3063 176.233 91.872 176.254C89.9509 176.348 88.4014 177.262 88.4014 177.262Z" fill="white"/>
<path d="M97.4097 178.883C97.4097 178.883 95.0805 180.256 92.5929 179.808C92.158 179.73 91.7477 179.601 91.3655 179.441C90.9536 178.331 91.176 177.131 91.8635 176.254C92.3004 176.232 92.7565 176.253 93.2181 176.336C95.7059 176.784 97.4097 178.883 97.4097 178.883Z" fill="#3B6A03"/>
<path d="M93.3886 192.378C93.2704 192.378 93.1557 192.315 93.0945 192.205C91.9695 190.17 90.1509 185.955 90.6126 180.575C91.0329 175.68 93.0911 172.077 94.7437 169.917C94.8569 169.769 95.0682 169.742 95.2145 169.854C95.362 169.967 95.39 170.178 95.2773 170.325C93.679 172.415 91.6884 175.899 91.2821 180.633C90.8353 185.835 92.5942 189.912 93.6823 191.88C93.7722 192.042 93.7133 192.246 93.551 192.336C93.4994 192.364 93.4436 192.378 93.3886 192.378Z" fill="#EFBC73"/>
<path d="M96.1634 183.565C95.9612 183.565 95.7589 183.525 95.5691 183.442C94.9415 183.166 94.7058 182.522 94.6655 182.184C94.6435 182 94.775 181.833 94.9592 181.811C95.1435 181.788 95.3105 181.921 95.3326 182.105C95.3351 182.126 95.4052 182.636 95.8388 182.826C96.1876 182.979 96.6171 182.865 96.8823 182.549C97.0012 182.406 97.2134 182.388 97.3554 182.507C97.4979 182.626 97.5166 182.838 97.3976 182.98C97.0815 183.358 96.6225 183.565 96.1634 183.565Z" fill="#3B6A03"/>
<path d="M98.3242 178.129C98.4165 178.407 98.5916 178.801 98.9448 179.14C99.3709 179.549 99.7412 179.577 99.8596 179.895C99.9388 180.109 99.9116 180.47 99.3601 181.105L98.3242 178.129Z" fill="#FDFFFD"/>
<path d="M99.3598 181.44C99.2819 181.44 99.2032 181.413 99.1396 181.358C98.9997 181.236 98.9848 181.024 99.1065 180.884C99.6019 180.315 99.5672 180.072 99.5448 180.012C99.5218 179.95 99.4555 179.906 99.2861 179.804C99.1262 179.708 98.9272 179.589 98.7121 179.382C98.3948 179.078 98.157 178.692 98.0054 178.234C97.9471 178.058 98.0424 177.868 98.2184 177.81C98.3948 177.752 98.5846 177.847 98.643 178.023C98.7596 178.375 98.9394 178.669 99.1773 178.898C99.3379 179.052 99.4874 179.142 99.6316 179.228C99.8458 179.357 100.067 179.49 100.174 179.778C100.332 180.204 100.148 180.71 99.6135 181.325C99.5471 181.401 99.4537 181.44 99.3598 181.44Z" fill="#3B6A03"/>
<path d="M85.7378 184.878C85.0369 184.878 84.3121 184.69 83.6501 184.325C83.4875 184.236 83.4283 184.032 83.5178 183.869C83.6074 183.706 83.8117 183.648 83.9741 183.737C84.811 184.198 85.7569 184.327 86.5699 184.092C86.7471 184.04 86.9341 184.143 86.9859 184.321C87.0376 184.499 86.935 184.685 86.7568 184.737C86.4302 184.831 86.087 184.878 85.7378 184.878Z" fill="#3B6A03"/>
<path d="M76.6228 167.915C83.132 159.987 95.4049 164.589 96.4323 171.635C96.4323 171.635 92.0438 168.598 92.0231 168.517C91.7198 169.882 91.0838 171.923 89.6536 174.037C87.4442 177.302 84.5816 178.907 83.1571 179.584C83.716 181.901 84.4526 186.598 85.0883 189.585C85.0883 189.585 65.8935 180.985 76.6228 167.915Z" fill="#EFBC73"/>
<path d="M88.0178 183.5C89.2217 182.203 88.9534 179.997 87.4184 178.572C85.8835 177.148 83.6632 177.045 82.4592 178.342C81.2553 179.64 81.5236 181.846 83.0586 183.27C84.5935 184.695 86.8138 184.798 88.0178 183.5Z" fill="#FDFFFD"/>
<path d="M84.4433 182.685C84.3805 182.685 84.3169 182.667 84.2603 182.63C84.1351 182.549 84.0166 182.456 83.9078 182.355C83.4726 181.951 83.1958 181.425 83.1286 180.873C83.0589 180.3 83.2211 179.768 83.5855 179.376C83.771 179.176 83.9963 179.026 84.2556 178.928C84.4285 178.862 84.6227 178.95 84.6883 179.124C84.7536 179.298 84.6659 179.491 84.492 179.557C84.331 179.617 84.1916 179.71 84.0777 179.833C83.8504 180.078 83.75 180.418 83.7954 180.792C83.8434 181.186 84.0457 181.566 84.3648 181.862C84.4457 181.938 84.5339 182.006 84.6269 182.067C84.7822 182.168 84.8261 182.377 84.725 182.532C84.6608 182.631 84.553 182.685 84.4433 182.685Z" fill="#3B6A03"/>
<path d="M93.8857 167.255L93.9078 162.965C93.9078 162.965 85.4699 166.585 82.9215 168.025C80.4314 169.431 73.5498 174.345 73.5498 174.345L75.5789 177.425L93.8857 167.255Z" fill="#FFDA48"/>
<path d="M68.9 171.749L73.5493 174.344C73.5493 174.344 84.8685 165.933 93.9093 163.503L95.1074 156.739C95.1973 156.202 94.6461 155.718 94.0075 155.818C89.2682 156.556 77.2577 160.922 68.3764 170.397C67.9837 170.816 68.3732 171.455 68.9 171.749Z" fill="#3B6A03"/>
<path d="M93.8739 167.249C93.8739 167.249 96.5244 167.245 97.3581 167.239C98.6618 167.229 100.385 167.506 100.68 168.261C100.899 168.821 101.328 169.332 97.2644 170.555C91.1009 172.409 75.5312 177.42 75.5312 177.42C75.5312 177.42 82.6796 173.181 85.1287 171.823C87.2652 170.638 93.8739 167.249 93.8739 167.249Z" fill="#3B6A03"/>
<path d="M115.124 140.437C115.11 140.437 115.096 140.436 115.083 140.433C115.021 140.422 114.965 140.387 114.929 140.335L101.903 121.682C101.828 121.574 101.854 121.426 101.962 121.351L110.08 115.68C110.132 115.644 110.197 115.629 110.258 115.641C110.32 115.652 110.375 115.687 110.412 115.739L123.438 134.392C123.513 134.5 123.486 134.648 123.378 134.723L115.261 140.394C115.22 140.422 115.173 140.437 115.124 140.437ZM102.43 121.605L115.183 139.867L122.91 134.469L110.157 116.207L102.43 121.605Z" fill="#FFDA48"/>
<path d="M115.125 140.2L112.806 139.582L103.564 126.348L103.871 124.085L104.422 121.812L107.128 119.922L109.452 120.187L111.682 120.678L120.923 133.911L120.705 136.302L120.154 138.575L117.449 140.465L115.125 140.2Z" fill="#FFDA48"/>
<path d="M113.333 133.334C115.066 132.758 116.003 130.886 115.426 129.153C114.85 127.42 112.978 126.482 111.246 127.058C109.513 127.634 108.576 129.506 109.152 131.24C109.728 132.973 111.6 133.91 113.333 133.334Z" fill="#EFBC73"/>
<path d="M107.127 119.922C108.187 121.364 110.207 121.707 111.682 120.678L109.834 118.031L107.127 119.922Z" fill="#EFBC73"/>
<path d="M104.422 121.812L101.716 123.703L103.564 126.349C105.038 125.319 105.412 123.304 104.422 121.812Z" fill="#EFBC73"/>
<path d="M120.107 138.514C120.122 138.535 120.138 138.553 120.153 138.574L122.86 136.683L120.923 133.91C119.427 134.956 119.061 137.017 120.107 138.514Z" fill="#EFBC73"/>
<path d="M114.741 142.353L117.448 140.463C117.434 140.441 117.422 140.419 117.407 140.398C116.362 138.901 114.302 138.535 112.805 139.58L114.741 142.353Z" fill="#EFBC73"/>
<path d="M114.36 144.745C114.346 144.745 114.332 144.744 114.318 144.742C114.256 144.731 114.201 144.695 114.164 144.643L101.139 125.991C101.063 125.883 101.09 125.734 101.198 125.659L109.315 119.988C109.367 119.952 109.431 119.938 109.493 119.949C109.555 119.96 109.611 119.995 109.647 120.047L122.673 138.7C122.748 138.808 122.722 138.957 122.614 139.032L114.496 144.702C114.456 144.73 114.408 144.745 114.36 144.745ZM101.666 125.913L114.419 144.175L122.146 138.778L109.393 120.515L101.666 125.913Z" fill="white"/>
<path d="M60.2654 151.488C60.167 151.488 60.075 151.426 60.0405 151.328L56.9991 142.63C56.9783 142.571 56.9821 142.505 57.0095 142.448C57.0368 142.391 57.0858 142.348 57.1455 142.327L77.13 135.341C77.2549 135.298 77.3901 135.364 77.4336 135.488L80.475 144.185C80.4958 144.245 80.492 144.31 80.4645 144.368C80.4373 144.424 80.3883 144.468 80.3286 144.489L60.3441 151.474C60.3179 151.483 60.2915 151.488 60.2654 151.488ZM57.5275 142.698L60.4117 150.946L79.9464 144.118L77.0622 135.87L57.5275 142.698Z" fill="#FFDA48"/>
<path d="M80.2502 144.263L79.1139 146.186L64.9363 151.142L62.9851 150.298L61.0869 149.233L60.0732 146.335L60.8943 144.319L61.8947 142.444L76.0724 137.488L78.1594 138.284L80.0577 139.349L81.0713 142.248L80.2502 144.263Z" fill="#FFDA48"/>
<path d="M70.7188 147.356C72.4162 147.274 73.7258 145.832 73.6437 144.135C73.5616 142.438 72.1191 141.129 70.4216 141.211C68.7242 141.293 67.4147 142.735 67.4967 144.432C67.5788 146.129 69.0214 147.438 70.7188 147.356Z" fill="#EFBC73"/>
<path d="M60.073 146.332C61.6315 145.745 62.4464 144.022 61.8945 142.441L59.0591 143.433L60.073 146.332Z" fill="#EFBC73"/>
<path d="M61.0869 149.232L62.1008 152.131L64.9362 151.14C64.3831 149.56 62.6715 148.72 61.0869 149.232Z" fill="#EFBC73"/>
<path d="M79.9921 139.375C80.0146 139.368 80.0355 139.357 80.0576 139.349L79.0436 136.449L76.0723 137.488C76.6335 139.091 78.3882 139.936 79.9921 139.375Z" fill="#EFBC73"/>
<path d="M82.0846 145.146L81.0706 142.246C81.0481 142.253 81.0254 142.258 81.0029 142.266C79.399 142.827 78.5532 144.581 79.1133 146.184L82.0846 145.146Z" fill="#EFBC73"/>
<path d="M63.9357 153.257C63.8372 153.257 63.7452 153.196 63.7107 153.098L60.669 144.4C60.6482 144.341 60.652 144.275 60.6795 144.218C60.7067 144.161 60.7557 144.117 60.8153 144.096L80.7998 137.111C80.9243 137.068 81.0599 137.133 81.1034 137.257L84.1448 145.955C84.1656 146.015 84.1618 146.08 84.1343 146.137C84.1071 146.194 84.0581 146.238 83.9986 146.259L64.0142 153.244C63.9883 153.253 63.9617 153.257 63.9357 153.257ZM61.1975 144.468L64.0819 152.716L83.6164 145.887L80.7322 137.639L61.1975 144.468Z" fill="white"/>
</g>
</g>
</g>
<defs>
<filter id="filter0_d_528_2236" x="0.715068" y="0.857534" width="238.57" height="329.939" filterUnits="userSpaceOnUse" color-interpolation-filters="sRGB">
<feFlood flood-opacity="0" result="BackgroundImageFix"/>
<feColorMatrix in="SourceAlpha" type="matrix" values="0 0 0 0 0 0 0 0 0 0 0 0 0 0 0 0 0 0 127 0" result="hardAlpha"/>
<feOffset dy="2.14247"/>
<feGaussianBlur stdDeviation="2.14247"/>
<feComposite in2="hardAlpha" operator="out"/>
<feColorMatrix type="matrix" values="0 0 0 0 0 0 0 0 0 0 0 0 0 0 0 0 0 0 0.1 0"/>
<feBlend mode="normal" in2="BackgroundImageFix" result="effect1_dropShadow_528_2236"/>
<feBlend mode="normal" in="SourceGraphic" in2="effect1_dropShadow_528_2236" result="shape"/>
</filter>
<clipPath id="clip0_528_2236">
<rect x="20.7534" y="108.547" width="198.493" height="203.219" rx="15.7534" fill="white"/>
</clipPath>
<clipPath id="clip1_528_2236">
<rect x="20.7529" y="108.547" width="198.493" height="203.219" rx="15.7534" fill="white"/>
</clipPath>
</defs>
</svg>
