<svg width="240" height="331" viewBox="0 0 240 331" fill="none" xmlns="http://www.w3.org/2000/svg">
<g filter="url(#filter0_d_569_8276)">
<rect x="4.81543" y="2.31445" width="230" height="321.37" rx="18.9041" fill="#FFE5DC"/>
<path d="M66.2804 63.918V63.8171C66.5829 63.8171 69.4059 63.3634 69.4059 58.2719V30.2434C69.4059 25.1519 66.5829 24.6982 66.2804 24.6982V24.5974H80.698V24.6982C80.3955 24.6982 77.5725 25.1519 77.5725 30.2434V58.2719C77.5725 63.3634 80.3955 63.8171 80.698 63.8171V63.918H66.2804ZM85.9041 63.918V63.8171C86.2065 63.8171 89.0296 63.3634 89.0296 58.2719V30.2434C89.0296 25.1519 86.2065 24.6982 85.9041 24.6982V24.5974H95.2805L117.058 51.0632V30.2434C117.058 25.1519 114.235 24.6982 113.933 24.6982V24.5974H121.595V24.6982C121.293 24.6982 118.47 25.1519 118.47 30.2434V64.2204L90.4411 30.2434V58.2719C90.4411 63.3634 93.2641 63.8171 93.5665 63.8171V63.918H85.9041ZM153.909 24.5974V32.5623H153.808C153.808 31.9574 153.254 25.9081 147.557 25.9081H137.879V44.6106H147.053C151.49 44.6106 151.943 40.1744 151.943 39.7207H151.994V50.8111H151.943C151.943 50.3574 151.49 45.9212 147.053 45.9212H137.879V58.2719C137.879 63.3634 140.702 63.8171 141.004 63.8171V63.918H126.587V63.8171C126.889 63.8171 129.712 63.3634 129.712 58.2719V30.2434C129.712 25.1519 126.889 24.6982 126.587 24.6982V24.5974H153.909ZM158.71 74.5043C162.037 74.5043 162.44 68.6062 162.44 64.0692V30.2434C162.44 25.1519 159.617 24.6982 159.315 24.6982V24.5974H173.732V24.6982C173.43 24.6982 170.607 25.1519 170.607 30.2434V63.9684C170.607 70.7739 165.868 74.6051 158.71 74.6051V74.5043Z" fill="#7B2C12"/>
<path d="M62.2555 93.6445V93.613C62.3501 93.613 63.2323 93.4712 63.2323 91.8801V83.1212C63.2323 81.5301 62.3501 81.3884 62.2555 81.3884V81.3569H65.1857L71.9912 89.6274V83.1212C71.9912 81.5301 71.109 81.3884 71.0145 81.3884V81.3569H73.409V81.3884C73.3145 81.3884 72.4323 81.5301 72.4323 83.1212V93.7391L63.6734 83.1212V91.8801C63.6734 93.4712 64.5556 93.613 64.6501 93.613V93.6445H62.2555ZM78.0585 96.6849C78.8934 96.6849 79.429 96.3541 79.7756 95.8815C80.3112 95.1411 80.4057 94.0541 80.4057 93.2664V92.3843C79.9174 93.2822 78.9249 93.8336 77.8537 93.8336C75.4276 93.8336 73.9153 91.9747 73.9153 89.3596C73.9153 86.4295 75.4276 84.2555 78.1057 84.2555C79.366 84.2555 79.9961 84.7753 80.4057 85.3425V84.413H83.903V84.4445C83.8085 84.4445 82.9263 84.5863 82.9263 86.1774V93.0144C82.9263 94.3534 82.4222 95.2829 81.7133 95.913C80.7523 96.7795 79.3975 97.063 78.4365 97.063C76.8612 97.063 75.8372 96.5117 75.2543 96.5117V94.0856H75.3016C75.4434 94.9048 75.8215 95.4877 76.2626 95.8973C76.8927 96.4801 77.6489 96.6849 78.0585 96.6849ZM76.4201 89.2021C76.4201 91.376 77.192 93.1404 78.5626 93.1404C79.366 93.1404 79.9489 92.6678 80.4057 91.5808V86.1774C79.9961 85.311 79.4133 85.1062 78.9564 85.1062C77.5071 85.1062 76.4201 86.713 76.4201 89.2021ZM88.3522 93.8021C87.5645 93.8021 86.8556 93.5658 86.3358 93.1089C85.8317 92.6521 85.5166 91.9747 85.5166 91.0767V86.1774C85.5166 84.5863 84.6344 84.4445 84.5399 84.4445V84.413H88.0371V90.8719C88.0371 91.2658 88.0687 91.7856 88.2734 92.211C88.4782 92.6206 88.8406 92.9199 89.3919 92.9199C90.5104 92.9199 91.3139 91.8014 91.3139 90.2575V86.1774C91.3139 84.5863 90.4317 84.4445 90.3371 84.4445V84.413H93.8344V85.0432C94.0865 84.8384 94.1652 84.6178 94.181 84.413C94.181 84.2397 94.118 83.8301 93.4878 83.6726V83.6569L94.7954 82.7432C94.9844 82.8849 95.2522 83.3733 95.2207 83.7986C95.1735 84.5548 94.37 85.0589 93.8344 85.2952V91.8801C93.8344 93.4712 94.7166 93.613 94.8111 93.613V93.6445H91.3139V92.0062C90.9358 92.8884 90.0851 93.8021 88.3522 93.8021ZM100.668 93.8336C97.6117 93.8336 96.0993 91.6596 96.0993 89.0445C96.0993 86.4295 97.6117 84.2555 100.668 84.2555C101.834 84.2555 102.779 84.5706 103.503 85.1062C103.614 84.9486 103.645 84.7753 103.629 84.6336C103.614 84.4603 103.519 84.0664 102.873 83.9562V83.9404L104.102 82.9164C104.307 83.0425 104.606 83.5151 104.622 83.9404C104.638 84.5233 104.181 84.9959 103.74 85.311C104.732 86.1932 105.236 87.548 105.236 89.0445C105.236 91.6596 103.724 93.8336 100.668 93.8336ZM98.6829 89.0445C98.6829 91.376 99.2185 93.4555 100.668 93.4555C102.117 93.4555 102.669 91.376 102.669 89.0445C102.669 86.713 102.117 84.6336 100.668 84.6336C99.2185 84.6336 98.6829 86.713 98.6829 89.0445ZM98.998 82.4596V82.4123L99.8329 81.2466H99.8802C100.526 82.1445 101.676 83.3733 102.432 83.6726L102.385 83.7199C101.456 83.5938 99.8014 83.074 98.998 82.4596ZM107.156 86.1774C107.156 84.5863 106.273 84.4445 106.179 84.4445V84.413H109.676V91.8801C109.676 93.4712 110.558 93.613 110.653 93.613V93.6445H106.179V93.613C106.273 93.613 107.156 93.4712 107.156 91.8801V86.1774ZM106.998 82.176C106.998 81.4356 107.613 80.8212 108.353 80.8212C109.093 80.8212 109.708 81.4356 109.708 82.176C109.708 82.9164 109.093 83.5308 108.353 83.5308C107.613 83.5308 106.998 82.9164 106.998 82.176ZM119.946 93.8336C116.89 93.8336 115.314 91.8171 115.314 89.0445C115.314 86.4295 117.047 84.2555 120.261 84.2555C121.616 84.2555 122.655 84.7281 123.112 84.7281V87.2486H123.065C123.002 86.8075 122.876 85.9726 122.372 85.3582C122.041 84.9486 121.521 84.6336 120.733 84.6336C118.496 84.6336 117.898 86.713 117.898 89.0445C117.898 91.376 118.811 93.1404 120.907 93.1404C122.12 93.1404 122.86 92.4945 123.301 91.7541L123.348 91.7856C123.254 92.0849 122.561 93.8336 119.946 93.8336ZM124.828 82.8062C124.828 81.2151 123.945 81.0733 123.851 81.0733V81.0418H127.348V86.0514C127.726 85.1692 128.577 84.2555 130.31 84.2555C131.098 84.2555 131.806 84.4918 132.326 84.9486C132.83 85.4055 133.145 86.0829 133.145 86.9808V91.8801C133.145 93.4712 134.028 93.613 134.122 93.613V93.6445H129.648V93.613C129.743 93.613 130.625 93.4712 130.625 91.8801V87.1856C130.625 86.7918 130.593 86.2719 130.389 85.8466C130.184 85.437 129.822 85.1377 129.27 85.1377C128.152 85.1377 127.348 86.2562 127.348 87.8V91.8801C127.348 93.4712 128.23 93.613 128.325 93.613V93.6445H123.851V93.613C123.945 93.613 124.828 93.4712 124.828 91.8801V82.8062ZM139.514 93.8336C136.458 93.8336 134.883 91.8171 134.883 89.2021C134.883 86.4295 136.773 84.2555 139.782 84.2555C142.256 84.2555 143.232 85.5473 143.232 86.9651C143.232 89.1233 140.412 89.7692 137.482 89.7849C137.624 91.6754 138.427 93.1404 140.412 93.1404C141.688 93.1404 142.429 92.4 142.87 91.7541L142.917 91.7856C142.823 92.0849 142.13 93.8336 139.514 93.8336ZM137.466 89.4069C140.255 89.3911 141.342 88.1781 141.342 86.5555C141.342 85.563 140.806 84.6336 139.83 84.6336C138.223 84.6336 137.482 86.713 137.466 89.4069ZM152.468 93.8336C149.412 93.8336 147.836 91.8171 147.836 89.0445C147.836 86.4295 149.569 84.2555 152.783 84.2555C154.138 84.2555 155.178 84.7281 155.634 84.7281V87.2486H155.587C155.524 86.8075 155.398 85.9726 154.894 85.3582C154.563 84.9486 154.043 84.6336 153.256 84.6336C151.019 84.6336 150.42 86.713 150.42 89.0445C150.42 91.376 151.334 93.1404 153.429 93.1404C154.642 93.1404 155.382 92.4945 155.823 91.7541L155.871 91.7856C155.776 92.0849 155.083 93.8336 152.468 93.8336ZM157.35 82.8062C157.35 81.2151 156.468 81.0733 156.373 81.0733V81.0418H159.87V86.0514C160.249 85.1692 161.099 84.2555 162.832 84.2555C163.62 84.2555 164.329 84.4918 164.849 84.9486C165.353 85.4055 165.668 86.0829 165.668 86.9808V91.8801C165.668 93.4712 166.55 93.613 166.644 93.613V93.6445H162.17V93.613C162.265 93.613 163.147 93.4712 163.147 91.8801V87.1856C163.147 86.7918 163.116 86.2719 162.911 85.8466C162.706 85.437 162.344 85.1377 161.792 85.1377C160.674 85.1377 159.87 86.2562 159.87 87.8V91.8801C159.87 93.4712 160.753 93.613 160.847 93.613V93.6445H156.373V93.613C156.468 93.613 157.35 93.4712 157.35 91.8801V82.8062ZM171.974 93.8336C168.917 93.8336 167.405 91.6596 167.405 89.0445C167.405 86.4295 168.917 84.2555 171.974 84.2555C173.139 84.2555 174.085 84.5706 174.809 85.1062C174.92 84.9486 174.951 84.7753 174.935 84.6336C174.92 84.4603 174.825 84.0664 174.179 83.9562V83.9404L175.408 82.9164C175.613 83.0425 175.912 83.5151 175.928 83.9404C175.944 84.5233 175.487 84.9959 175.046 85.311C176.038 86.1932 176.542 87.548 176.542 89.0445C176.542 91.6596 175.03 93.8336 171.974 93.8336ZM169.989 89.0445C169.989 91.376 170.524 93.4555 171.974 93.4555C173.423 93.4555 173.974 91.376 173.974 89.0445C173.974 86.713 173.423 84.6336 171.974 84.6336C170.524 84.6336 169.989 86.713 169.989 89.0445ZM170.603 80.8212C170.934 80.6164 171.407 80.4274 171.974 80.4274C172.572 80.4274 173.313 80.6637 173.313 81.3884C173.313 82.4281 171.659 82.4438 171.659 83.4206C171.627 83.4206 171.564 83.389 171.564 83.3103C171.564 82.113 172.1 82.0815 172.1 81.3411C172.1 80.9945 171.926 80.8685 171.737 80.8685C171.217 80.8685 170.918 81.5774 170.918 82.3651H170.824L170.603 80.8212Z" fill="#7B2C12"/>
<g clip-path="url(#clip0_569_8276)">
<g clip-path="url(#clip1_569_8276)">
<path d="M120.208 308.721C174.803 308.721 219.061 264.463 219.061 209.868C219.061 155.274 174.803 111.016 120.208 111.016C65.6134 111.016 21.3555 155.274 21.3555 209.868C21.3555 264.463 65.6134 308.721 120.208 308.721Z" fill="#7B2C12"/>
<path d="M190.939 164.742H116.572V239.109H190.939V164.742Z" fill="#EFA231"/>
<path d="M140.107 208.948C140.107 208.948 136.301 188.167 134.598 181.374C132.81 174.241 129.13 163.969 127.7 164.502C126.885 164.806 127.098 166.311 127.932 170.295C127.688 170.135 126.831 169.836 126.122 170.241C125.072 170.841 125.324 171.823 125.305 171.919C125.227 171.859 124.299 171.215 123.528 171.498C122.66 171.817 122.351 172.538 122.311 173.263C122.112 173.118 121.168 172.645 120.442 172.954C119.497 173.355 119.35 174.482 119.568 175.301C119.968 176.803 121.164 180.88 121.521 183.116C122.224 187.518 122.621 203.485 125.319 209.578C129.523 205.629 140.107 208.948 140.107 208.948Z" fill="white"/>
<path d="M126.793 183.229C126.789 183.229 126.786 183.229 126.783 183.228C126.723 183.223 126.68 183.17 126.685 183.111C126.835 181.473 127.538 180.354 128.103 179.455C128.658 178.572 129.024 177.988 128.578 177.394C128.18 176.864 127.973 176.073 127.963 175.042C127.96 174.711 128.151 174.431 128.461 174.313C128.77 174.195 129.11 174.278 129.327 174.526L132.484 178.116C132.524 178.16 132.52 178.229 132.475 178.268C132.43 178.307 132.362 178.303 132.322 178.258L129.165 174.668C128.974 174.451 128.716 174.446 128.538 174.514C128.363 174.581 128.177 174.755 128.179 175.039C128.188 176.01 128.386 176.779 128.751 177.264C129.287 177.977 128.845 178.68 128.286 179.57C127.733 180.45 127.045 181.545 126.9 183.13C126.895 183.187 126.848 183.229 126.793 183.229Z" fill="#363E44"/>
<path d="M121.145 177.748C121.097 177.748 121.053 177.716 121.041 177.668C121.025 177.61 121.06 177.551 121.118 177.536C122.271 177.232 123 176.076 122.778 174.904L122.6 173.966C122.589 173.912 122.622 173.859 122.675 173.843C122.727 173.826 122.784 173.853 122.805 173.904L123.535 175.632C123.802 176.264 124.482 176.615 125.152 176.467C125.529 176.383 125.848 176.156 126.052 175.828C126.255 175.499 126.316 175.112 126.222 174.737L125.619 172.313C125.605 172.257 125.638 172.2 125.692 172.184C125.748 172.167 125.806 172.196 125.826 172.25L126.24 173.384C126.446 173.949 127.077 174.251 127.647 174.055C128.184 173.871 128.496 173.314 128.373 172.76L127.993 171.051C127.98 170.993 128.017 170.935 128.075 170.922C128.133 170.91 128.191 170.946 128.204 171.004L128.584 172.713C128.73 173.375 128.358 174.039 127.717 174.259C127.154 174.452 126.54 174.239 126.206 173.777L126.432 174.685C126.539 175.116 126.47 175.563 126.235 175.941C126.001 176.32 125.633 176.581 125.198 176.678C124.426 176.849 123.643 176.444 123.336 175.716L123 174.921C123.21 176.184 122.416 177.417 121.173 177.744C121.163 177.747 121.154 177.748 121.145 177.748Z" fill="#363E44"/>
<path d="M136.941 185.461L120.179 190.599C120.179 190.599 120.378 210.465 124.826 215.249C128.507 219.208 153.803 214.637 153.803 214.637L155.142 193.049L138.746 197.689L136.941 185.461Z" fill="#E98029"/>
<path d="M191.939 217.036L200.5 231.787L213.679 222.541C219.256 219.333 220.017 211.595 215.178 207.357C208.467 201.479 200.93 195.128 185.126 192.77L186.206 207.768L195.833 215.248L191.939 217.036Z" fill="#E98029"/>
<path d="M191.482 232.632C191.482 232.632 169.879 241.835 148.192 232.049L152.766 193.768C152.766 193.768 167.051 188.264 190.261 193.627L191.482 232.632Z" fill="#E98029"/>
<path d="M148.942 215.786C148.936 215.786 148.931 215.786 148.925 215.785C148.866 215.775 148.826 215.72 148.835 215.661L150.904 202.704C150.913 202.645 150.968 202.605 151.027 202.615C151.086 202.624 151.126 202.679 151.117 202.738L149.049 215.695C149.04 215.748 148.994 215.786 148.942 215.786Z" fill="#363E44"/>
<path d="M182.417 192.711C182.417 192.711 171.503 198.402 160.578 192.636C160.578 192.636 169.395 189.824 182.417 192.711Z" fill="white"/>
<path d="M181.176 186.804C181.176 188.9 179.477 190.599 177.381 190.599C175.286 190.599 173.587 188.9 173.587 186.804L177.381 183.01C179.477 183.01 181.176 184.709 181.176 186.804Z" fill="#363E44"/>
<path d="M181.992 194.794C183.46 193.325 183.46 190.944 181.992 189.475C180.523 188.007 178.142 188.007 176.673 189.475C175.204 190.944 175.204 193.325 176.673 194.794C178.142 196.263 180.523 196.263 181.992 194.794Z" fill="#363E44"/>
<path d="M179.334 200.657C181.279 200.657 182.855 199.081 182.855 197.136C182.855 195.192 181.279 193.615 179.334 193.615C177.39 193.615 175.813 195.192 175.813 197.136C175.813 199.081 177.39 200.657 179.334 200.657Z" fill="#363E44"/>
<path d="M180.917 201.424C180.917 203.087 179.568 204.435 177.905 204.435C176.242 204.435 174.894 203.087 174.894 201.424C174.894 199.76 176.242 198.412 177.905 198.412C179.568 198.412 180.917 199.76 180.917 201.424Z" fill="#363E44"/>
<path d="M176.493 202.42C174.781 203.658 172.429 205.714 170.518 208.861C166.417 215.612 167.278 222.556 167.647 224.77C170.001 224.666 172.355 224.563 174.708 224.459C174.463 222.91 174.303 220.956 174.476 218.717C174.754 215.103 175.783 212.23 176.649 210.335C176.3 212.152 176.02 214.293 175.95 216.699C175.862 219.725 176.129 222.378 176.493 224.537C177.554 224.459 178.615 224.382 179.675 224.304C179.266 221.604 178.936 218.673 178.744 215.535C178.474 211.124 178.522 207.063 178.744 203.429C177.994 203.092 177.244 202.756 176.493 202.42Z" fill="#363E44"/>
<path d="M166.72 224.665C166.667 224.665 166.62 224.626 166.613 224.571C166.207 221.447 166.058 215.329 169.627 209.452C171.158 206.932 173.178 204.754 175.631 202.979C175.68 202.944 175.747 202.955 175.782 203.004C175.817 203.052 175.806 203.12 175.758 203.155C173.328 204.912 171.327 207.069 169.811 209.564C166.276 215.385 166.424 221.447 166.827 224.543C166.835 224.603 166.793 224.657 166.734 224.664C166.73 224.665 166.725 224.665 166.72 224.665Z" fill="#363E44"/>
<path d="M194.878 198.943C194.878 198.943 177.157 201.958 172.273 217.743C172.273 217.743 154.996 209.507 144.217 208.089L174.354 228.04L194.878 198.943Z" fill="#F2E6DC"/>
<path d="M148.92 239.15L176.735 250.701C176.98 251.91 178.158 252.693 179.367 252.448C180.576 252.204 181.358 251.026 181.114 249.817L202.107 228.4L195.684 196.625L174.691 218.041C174.936 219.251 174.154 220.429 172.945 220.673C171.736 220.918 170.557 220.135 170.313 218.926L142.498 207.375L148.92 239.15Z" fill="#F3BD40"/>
<path d="M180.746 248.634C180.696 248.634 180.651 248.599 180.641 248.547L175.039 220.835C175.027 220.776 175.065 220.719 175.124 220.707C175.184 220.696 175.239 220.733 175.251 220.792L180.852 248.505C180.864 248.563 180.826 248.62 180.768 248.632C180.761 248.633 180.753 248.634 180.746 248.634Z" fill="#776E42"/>
<path d="M176.634 249.464C176.584 249.464 176.539 249.429 176.528 249.378L170.927 221.665C170.915 221.606 170.953 221.549 171.011 221.537C171.071 221.526 171.127 221.563 171.139 221.622L176.74 249.335C176.752 249.393 176.714 249.45 176.656 249.462C176.648 249.464 176.641 249.464 176.634 249.464Z" fill="#776E42"/>
<path d="M170.635 218.655C170.606 218.655 170.576 218.643 170.555 218.619C170.515 218.575 170.519 218.506 170.563 218.467C170.579 218.453 172.135 217.084 174.289 217.711C174.346 217.728 174.379 217.788 174.362 217.845C174.346 217.902 174.286 217.935 174.228 217.918C172.192 217.326 170.722 218.614 170.707 218.628C170.687 218.646 170.661 218.655 170.635 218.655Z" fill="#E6D0BE"/>
<path d="M190.938 217.138L200.501 231.787L216.511 218.546L209.268 207.98L190.938 217.138Z" fill="#E98029"/>
<path d="M199.015 212.973C198.975 212.973 198.936 212.95 198.918 212.912C198.892 212.858 198.915 212.793 198.969 212.768L209.222 207.884C209.276 207.858 209.34 207.881 209.366 207.935C209.391 207.989 209.369 208.053 209.315 208.079L199.062 212.963C199.047 212.97 199.031 212.973 199.015 212.973Z" fill="#363E44"/>
<path d="M188.169 220.288C188.687 219.96 190.737 218.949 193.4 217.613C196.252 216.183 199.714 216.727 201.954 218.999C202.015 219.06 202.075 219.122 202.136 219.184C205.579 222.725 204.657 228.581 200.29 230.889C193.129 234.672 186.214 238.226 185.073 238.947C183.841 239.786 181.008 241.727 180.348 240.882C179.449 239.731 182.164 237.222 182.166 237.029C181.269 237.704 178.178 239.816 177.385 238.884C176.774 238.168 179.198 235.171 179.775 234.396C179.696 234.413 176.537 237.491 175.539 236.407C174.689 235.485 176.893 232.565 177.379 231.752C176.496 232.323 173.836 233.935 173.317 232.945C172.232 230.871 185.631 221.895 188.169 220.288Z" fill="white"/>
<path d="M177.288 231.785C177.265 231.785 177.241 231.777 177.222 231.762C177.175 231.726 177.166 231.658 177.202 231.611C177.59 231.109 178.015 230.63 178.466 230.187C179.277 229.392 180.189 228.695 181.178 228.116C181.23 228.086 181.296 228.104 181.326 228.155C181.356 228.207 181.339 228.273 181.288 228.303C180.314 228.873 179.416 229.559 178.617 230.341C178.173 230.777 177.755 231.248 177.373 231.743C177.352 231.77 177.32 231.785 177.288 231.785Z" fill="#363E44"/>
<path d="M179.683 234.469C179.656 234.469 179.629 234.459 179.608 234.439C179.565 234.398 179.564 234.329 179.605 234.286C179.697 234.19 179.793 234.094 179.891 233.998C180.702 233.202 181.615 232.506 182.603 231.927C182.655 231.897 182.721 231.914 182.751 231.966C182.781 232.017 182.764 232.083 182.712 232.113C181.739 232.683 180.841 233.369 180.042 234.152C179.946 234.247 179.852 234.341 179.761 234.436C179.74 234.458 179.712 234.469 179.683 234.469Z" fill="#363E44"/>
<path d="M182.21 237.069C182.178 237.069 182.148 237.056 182.126 237.03C182.088 236.984 182.095 236.916 182.141 236.878C182.713 236.406 183.331 235.974 183.976 235.597C184.027 235.567 184.094 235.584 184.124 235.636C184.154 235.687 184.137 235.753 184.085 235.783C183.45 236.155 182.842 236.579 182.278 237.045C182.258 237.061 182.234 237.069 182.21 237.069Z" fill="#363E44"/>
<path d="M139.425 203.177C139.371 203.177 139.325 203.137 139.318 203.083L138.64 197.704C138.632 197.644 138.674 197.59 138.733 197.583C138.793 197.575 138.847 197.617 138.854 197.677L139.532 203.056C139.54 203.115 139.498 203.169 139.439 203.176C139.434 203.177 139.429 203.177 139.425 203.177Z" fill="#363E44"/>
<path d="M170.34 194.881L171.58 194.655C172.99 194.398 173.925 193.046 173.668 191.637L172.407 184.722C172.15 183.312 170.799 182.377 169.389 182.634L168.148 182.86C166.739 183.117 165.804 184.469 166.061 185.879L167.322 192.793C167.579 194.203 168.93 195.138 170.34 194.881Z" fill="white"/>
<path d="M173.075 175.131C172.837 174.958 170.527 173.339 168.094 174.142C166.284 174.74 165.226 176.248 163.833 179.046C162.193 182.34 161.673 184.539 162.219 185.698C163.081 187.531 168.694 187.849 171.938 186.033C174.279 184.723 175.652 182.072 175.57 179.371C175.488 176.678 173.228 175.241 173.075 175.131Z" fill="white"/>
<path d="M164.852 175.998C164.843 176.021 164.82 176.03 164.81 176.053C164.81 176.053 164.81 176.054 164.809 176.055C164.584 176.315 164.345 176.589 164.076 176.803C163.957 176.898 163.834 176.92 163.712 176.996C163.622 177.053 163.536 177.107 163.445 177.159C163.151 176.057 163.404 175.008 163.404 175.008C163.404 175.008 164.179 175.331 164.852 175.998Z" fill="white"/>
<path d="M165.829 179.693C165.812 179.699 165.793 179.704 165.775 179.71C165.526 179.598 164.3 179.002 163.703 177.835C163.591 177.616 163.509 177.391 163.448 177.167C163.483 177.08 163.523 176.993 163.572 176.909C163.86 176.417 164.335 176.103 164.854 176C165.105 176.251 165.343 176.551 165.523 176.903C166.13 178.088 165.88 179.454 165.829 179.693Z" fill="#363E44"/>
<path d="M169.247 181.238C169.048 181.593 168.831 181.824 168.478 181.988C167.673 181.449 167.209 180.738 167.209 180.738C167.209 180.738 168.373 180.222 169.62 180.404C169.57 180.7 169.388 180.987 169.247 181.238Z" fill="white"/>
<path d="M169.624 180.404C169.762 180.426 169.902 180.456 170.041 180.496C171.448 180.906 172.302 182.219 172.302 182.219C172.302 182.219 170.876 182.869 169.47 182.459C169.107 182.354 168.78 182.187 168.496 181.999C168.551 181.313 168.975 180.693 169.624 180.404Z" fill="#363E44"/>
<path d="M179.292 180.531C178.53 183.793 176.71 186.34 172.838 187.088C171.43 185.576 172.968 183.402 172.89 182.414C172.793 181.185 174.322 179.165 175.153 178.354C171.694 176.711 166.323 174.793 166.287 174.633C166.179 174.159 167.425 173.301 169.538 172.608C170.73 172.218 172.559 171.718 173.992 172.486C176.542 173.853 180.239 176.481 179.292 180.531Z" fill="#363E44"/>
<path d="M171.885 183.101C170.91 183.767 170.576 184.975 171.139 185.799C171.702 186.623 172.949 186.751 173.924 186.085C174.899 185.419 175.233 184.21 174.67 183.386C174.107 182.562 172.86 182.434 171.885 183.101Z" fill="white"/>
<path d="M173.231 185.568C173.19 185.568 173.151 185.544 173.133 185.504C173.108 185.45 173.132 185.386 173.186 185.361C173.246 185.334 173.305 185.301 173.361 185.262C173.807 184.958 173.964 184.41 173.712 184.041C173.652 183.953 173.573 183.881 173.477 183.827C173.425 183.798 173.406 183.733 173.435 183.681C173.464 183.629 173.529 183.609 173.582 183.639C173.707 183.708 173.811 183.803 173.89 183.919C174.21 184.386 174.027 185.069 173.483 185.441C173.417 185.486 173.347 185.525 173.276 185.558C173.261 185.565 173.246 185.568 173.231 185.568Z" fill="#363E44"/>
<path d="M164.627 181.38C164.571 181.38 164.523 181.336 164.52 181.278C164.506 181.041 164.559 180.852 164.678 180.715C164.808 180.564 164.975 180.529 165.151 180.492C165.27 180.466 165.405 180.438 165.555 180.369C165.745 180.281 165.918 180.147 166.07 179.97C166.108 179.924 166.177 179.919 166.222 179.958C166.267 179.996 166.273 180.064 166.234 180.11C166.062 180.311 165.864 180.464 165.646 180.565C165.474 180.644 165.326 180.675 165.195 180.703C165.038 180.736 164.924 180.76 164.841 180.856C164.761 180.949 164.725 181.087 164.735 181.266C164.739 181.326 164.693 181.377 164.634 181.38C164.632 181.38 164.63 181.38 164.627 181.38Z" fill="#363E44"/>
<path d="M165.192 183.606C165.112 183.606 165.028 183.598 164.94 183.58C164.504 183.488 164.257 183.191 164.171 183.068C164.137 183.019 164.149 182.952 164.197 182.918C164.246 182.884 164.314 182.896 164.348 182.944C164.419 183.046 164.624 183.292 164.985 183.368C165.388 183.454 165.701 183.266 165.788 183.206C165.837 183.172 165.904 183.185 165.938 183.234C165.972 183.283 165.96 183.35 165.91 183.384C165.825 183.443 165.555 183.606 165.192 183.606Z" fill="#363E44"/>
<path d="M167.054 187.406C166.821 187.406 166.57 187.397 166.299 187.377C166.24 187.373 166.195 187.321 166.2 187.262C166.204 187.202 166.254 187.156 166.315 187.162C168.363 187.314 169.303 186.791 169.312 186.786C169.363 186.756 169.43 186.774 169.459 186.825C169.489 186.877 169.471 186.943 169.42 186.973C169.385 186.993 168.651 187.406 167.054 187.406Z" fill="#363E44"/>
<path d="M64.0721 291.492H54.3263L52.7285 251.623H65.0827L64.0721 291.492Z" fill="white"/>
<path d="M73.5537 297.644H54.127V288.756H64.6656C69.5745 288.756 73.5537 292.735 73.5537 297.644Z" fill="#F3BD40"/>
<path d="M64.5241 290.633C64.4964 290.633 64.4688 290.623 64.4477 290.602C64.4055 290.559 64.4055 290.491 64.4477 290.449L66.1618 288.735C66.204 288.693 66.2723 288.693 66.3146 288.735C66.3568 288.777 66.3568 288.845 66.3146 288.888L64.6005 290.602C64.5794 290.623 64.5517 290.633 64.5241 290.633Z" fill="#363E44"/>
<path d="M66.4723 291.217C66.4447 291.217 66.417 291.207 66.3959 291.186C66.3537 291.143 66.3537 291.075 66.3959 291.033L68.11 289.319C68.1523 289.277 68.2206 289.277 68.2628 289.319C68.305 289.361 68.305 289.429 68.2628 289.472L66.5487 291.186C66.5276 291.207 66.5 291.217 66.4723 291.217Z" fill="#363E44"/>
<path d="M41.3678 291.541L31.793 289.724L36.6904 271.842L38.2359 250.365L50.5793 252.56L47.2882 273.208L41.3678 291.541Z" fill="white"/>
<path d="M47.3718 301.852L29.125 295.184L32.1754 286.836L42.074 290.453C46.6846 292.138 49.0565 297.241 47.3718 301.852Z" fill="#F3BD40"/>
<path d="M41.3328 292.175C41.292 292.175 41.253 292.152 41.2347 292.113C41.2096 292.059 41.233 291.995 41.2871 291.969L43.4854 290.948C43.5399 290.922 43.6039 290.946 43.6289 291C43.6541 291.054 43.6306 291.118 43.5765 291.144L41.3782 292.165C41.3634 292.172 41.348 292.175 41.3328 292.175Z" fill="#363E44"/>
<path d="M42.9626 293.394C42.9219 293.394 42.8829 293.371 42.8645 293.332C42.8395 293.277 42.8629 293.213 42.9169 293.188L45.1154 292.166C45.1696 292.141 45.2338 292.165 45.2589 292.219C45.284 292.273 45.2606 292.337 45.2065 292.362L43.0081 293.384C42.9933 293.391 42.9779 293.394 42.9626 293.394Z" fill="#363E44"/>
<path d="M70.0701 262.662H52.3787L51.4457 252.95L49.7959 262.662H32.8213L38.1559 237.02H64.8201L70.0701 262.662Z" fill="#E98029"/>
<path d="M66.8955 215.172C72.0175 215.002 86.8391 215.362 86.8782 209.513C86.9105 204.674 72.4651 204.922 67.3643 204.781C67.2081 208.245 67.0517 211.709 66.8955 215.172Z" fill="white"/>
<path d="M32.7197 211.693C29.2183 215.436 18.4833 225.662 22.5919 229.825C25.9904 233.27 36.0295 222.88 39.736 219.373C37.3972 216.813 35.0585 214.253 32.7197 211.693Z" fill="white"/>
<path d="M27.1133 215.173C27.1133 215.173 35.6306 203.753 52.0557 204.136C64.0558 204.417 71.6183 204.426 71.6183 204.426V218.149L64.8209 221.024V237.022H38.1566V222.655L35.9706 223.785L27.1133 215.173Z" fill="#F9DF51"/>
<path d="M66.8963 221.789L45.7854 246.53C45.154 247.27 44.0425 247.358 43.3026 246.726L42.3577 245.92C42.2591 245.238 41.9157 244.616 41.3917 244.169L40.687 243.567C40.2223 243.171 40.167 242.473 40.5635 242.008L41.6351 240.752C41.4097 236.161 42.9395 231.656 45.9141 228.152L47.2173 226.617C48.412 225.209 50.0568 224.259 51.8727 223.926L56.1184 223.148C56.5363 223.071 56.9257 222.883 57.2458 222.604L60.8595 219.529C62.4586 218.169 64.7624 218.023 66.52 219.172C67.4087 219.753 67.5853 220.982 66.8963 221.789Z" fill="#D87355"/>
<path d="M65.9875 225.3C65.9908 223.702 64.6981 222.404 63.1 222.401C61.502 222.397 60.2038 223.69 60.2004 225.288C60.1971 226.886 61.4898 228.184 63.0879 228.188C64.6859 228.191 65.9841 226.898 65.9875 225.3Z" fill="#363E44"/>
<path d="M63.113 227.343C64.2428 227.329 65.1472 226.401 65.133 225.272C65.1187 224.142 64.1913 223.237 63.0614 223.252C61.9315 223.266 61.0272 224.193 61.0414 225.323C61.0556 226.453 61.9831 227.357 63.113 227.343Z" fill="#D3BBA3"/>
<path d="M50.9043 244.021C52.0618 242.919 52.1069 241.087 51.005 239.93C49.9031 238.772 48.0716 238.727 46.9141 239.829C45.7567 240.931 45.7116 242.763 46.8134 243.92C47.9153 245.077 49.7468 245.123 50.9043 244.021Z" fill="#363E44"/>
<path d="M48.9054 243.973C50.0353 243.973 50.9513 243.057 50.9513 241.927C50.9513 240.797 50.0353 239.881 48.9054 239.881C47.7754 239.881 46.8594 240.797 46.8594 241.927C46.8594 243.057 47.7754 243.973 48.9054 243.973Z" fill="#D3BBA3"/>
<path d="M44.0027 238.188L56.0492 224.07L49.9803 225.407C49.5719 225.497 49.1973 225.7 48.9001 225.995C45.5931 229.268 43.4297 233.497 42.7148 238.016L44.0027 238.188Z" fill="#363E44"/>
<path d="M63.3591 220.186C64.3622 219.632 65.0299 218.92 64.8503 218.594C64.6708 218.269 63.712 218.454 62.7089 219.008C61.7058 219.561 61.0381 220.274 61.2177 220.599C61.3972 220.924 62.356 220.739 63.3591 220.186Z" fill="#F9DF51"/>
<path d="M66.6178 220.35L66.1868 220.855C66.0708 220.991 65.8624 220.996 65.7401 220.865L65.2804 220.375C65.1758 220.264 65.1718 220.092 65.271 219.976L65.702 219.47C65.818 219.335 66.0264 219.33 66.1487 219.46L66.6084 219.95C66.7129 220.061 66.7169 220.233 66.6178 220.35Z" fill="#FFD092"/>
<path d="M26.4138 222.219C30.3719 223.08 39.7934 224.647 40.7071 224.836C42.4149 225.19 51.531 227.33 51.3648 228.679C51.2854 229.323 49.5106 228.991 48.9139 228.861C49.3441 229.203 51.1387 230.34 50.8654 231.014C50.5443 231.807 48.1985 230.78 48.1518 230.787C48.624 231.091 50.5537 232.224 50.3685 232.738C50.1275 233.406 48.0161 232.89 47.3911 232.707C47.4317 232.811 49.4198 233.62 49.1664 234.429C48.9802 235.023 47.0439 234.547 46.2034 234.343C44.6857 234.03 26.8381 231.337 23.585 230.413C22.3115 230.051 24.4716 223.21 26.4138 222.219Z" fill="white"/>
<path d="M34.9817 223.895C34.9752 223.895 34.9688 223.894 34.9621 223.893C32.9361 223.524 27.6685 222.5 26.3919 222.237C26.3334 222.225 26.2958 222.168 26.3079 222.11C26.3199 222.051 26.3763 222.014 26.4356 222.026C27.7114 222.289 32.976 223.312 35.001 223.681C35.0597 223.691 35.0986 223.747 35.0879 223.806C35.0783 223.858 35.0328 223.895 34.9817 223.895Z" fill="#363E44"/>
<path d="M48.9478 228.911C48.9283 228.911 48.9088 228.906 48.8912 228.895C48.5843 228.705 48.2624 228.535 47.9342 228.39C47.3437 228.13 46.7189 227.942 46.0771 227.831C46.0183 227.821 45.9787 227.766 45.9889 227.707C45.9989 227.648 46.0536 227.609 46.1136 227.619C46.7729 227.732 47.4148 227.925 48.0215 228.193C48.3587 228.342 48.6896 228.516 49.0047 228.711C49.0555 228.742 49.0712 228.809 49.0398 228.86C49.0193 228.893 48.984 228.911 48.9478 228.911Z" fill="#363E44"/>
<path d="M48.195 230.859C48.1795 230.859 48.1636 230.855 48.1484 230.848C48.0803 230.815 48.0105 230.783 47.9389 230.752C47.3484 230.491 46.7237 230.303 46.0819 230.193C46.0232 230.183 45.9836 230.127 45.9938 230.068C46.0038 230.009 46.0589 229.97 46.1185 229.98C46.7777 230.093 47.4195 230.286 48.0263 230.554C48.0998 230.587 48.1718 230.62 48.2418 230.653C48.2956 230.679 48.3184 230.743 48.2927 230.797C48.274 230.836 48.2353 230.859 48.195 230.859Z" fill="#363E44"/>
<path d="M47.3534 232.789C47.3418 232.789 47.33 232.787 47.3184 232.783C46.9192 232.646 46.5046 232.54 46.0858 232.468C46.0271 232.458 45.9875 232.402 45.9977 232.344C46.0077 232.285 46.0625 232.246 46.1224 232.255C46.5523 232.329 46.9784 232.438 47.3885 232.578C47.4449 232.598 47.4751 232.659 47.4557 232.716C47.4402 232.76 47.3983 232.789 47.3534 232.789Z" fill="#363E44"/>
<path d="M76.6836 208.521C80.0697 198.364 82.8628 191.274 84.1328 186.703C84.7028 184.651 84.8817 182.489 86.4393 181.159C87.1299 180.569 87.9417 180.09 88.3227 180.64C88.9178 181.5 86.591 183.138 87.0953 183.825C87.6021 184.515 90.3874 183.457 90.4389 182.45C90.4806 181.637 88.5783 181.706 88.8412 180.778C89.0211 180.143 90.0753 180.179 90.8199 180.355C91.0563 180.41 92.0479 180.643 92.5128 181.624C93.0047 182.662 92.4831 183.642 92.4283 183.74C93.0726 183.639 93.6693 183.907 93.8671 184.333C94.1313 184.901 93.7297 185.847 92.7668 186.111C92.891 186.1 93.8136 186.029 94.0365 186.449C94.255 186.862 93.7882 187.724 92.6822 188.396C93.4187 188.371 93.9111 188.601 93.9941 188.862C94.227 189.592 93.3275 190.703 90.3966 192.205C89.7994 194.723 86.8096 210.151 86.8096 210.151C86.8096 210.151 82.7463 213.126 76.6836 208.521Z" fill="white"/>
<path d="M76.6843 208.629C76.673 208.629 76.6615 208.627 76.65 208.623C76.5935 208.604 76.5628 208.543 76.5818 208.487C76.9314 207.437 77.2955 206.359 77.6637 205.282C77.6831 205.226 77.7444 205.196 77.8008 205.215C77.8573 205.234 77.8875 205.295 77.8681 205.352C77.5001 206.429 77.1363 207.506 76.7866 208.555C76.7716 208.6 76.7295 208.629 76.6843 208.629Z" fill="#363E44"/>
<path d="M91.9847 190.303C91.9832 190.303 91.9818 190.303 91.9802 190.303C90.8852 190.259 89.9748 189.842 89.9508 189.375C89.9332 189.032 90.3865 188.67 91.0571 188.445C90.2777 188.361 89.7321 188.098 89.6568 187.741C89.5626 187.294 90.1765 186.719 91.1174 186.322C90.2926 186.288 89.6306 185.999 89.5305 185.586C89.3997 185.047 90.1991 184.2 91.5552 183.847C91.6128 183.832 91.6719 183.867 91.687 183.925C91.7021 183.983 91.6674 184.042 91.6097 184.057C90.3304 184.389 89.6482 185.154 89.7404 185.535C89.8259 185.888 90.6572 186.201 91.7134 186.086C91.7758 186.079 91.8325 186.12 91.8448 186.182C91.857 186.243 91.8207 186.303 91.7602 186.321C90.4393 186.718 89.803 187.387 89.8683 187.697C89.9288 187.984 90.657 188.279 91.736 188.257C91.795 188.256 91.8528 188.303 91.8586 188.366C91.8644 188.43 91.8209 188.486 91.7576 188.496C90.7132 188.666 90.1539 189.117 90.1667 189.364C90.1806 189.636 90.8806 190.042 91.9889 190.087C92.0485 190.089 92.0949 190.139 92.0925 190.199C92.0901 190.257 92.0423 190.303 91.9847 190.303Z" fill="#363E44"/>
<path d="M86.91 191.679C86.9004 191.679 86.8906 191.677 86.881 191.675C86.8235 191.659 86.7897 191.599 86.8057 191.542C86.9064 191.178 87.1761 190.486 87.8519 189.938C88.616 189.319 89.4473 189.238 89.8739 189.24C89.9336 189.241 89.9813 189.29 89.9806 189.35C89.9797 189.409 89.9271 189.456 89.8711 189.456C89.5507 189.452 88.7257 189.508 87.988 190.106C87.3589 190.616 87.1077 191.261 87.0139 191.599C87.0007 191.647 86.9573 191.679 86.91 191.679Z" fill="#363E44"/>
<path d="M111.979 188.879L113.873 188.815L110.887 184.322L110.998 183.71L113.885 177.524L112.38 177.25L107.433 182.902C102.74 181.956 94.1874 180.257 86.3966 178.844L90.5023 172.526L89.2241 172.293L81.2496 177.935C77.8234 177.35 74.8073 176.883 72.6989 176.646C71.2393 176.482 67.1574 177.231 66.9834 178.243C66.7038 179.869 70.2538 180.757 71.8735 181.175C74.4498 181.839 78.2978 182.506 82.5819 183.131L99.1493 197.993L102.267 197.94L91.0715 184.257C98.1174 185.118 104.931 185.801 108.312 186.126L111.979 188.879Z" fill="#F3BD40"/>
<path d="M75.614 179.438C75.6247 179.708 75.4148 179.935 75.145 179.946C74.8752 179.957 74.6478 179.747 74.6371 179.477C74.6264 179.207 74.8363 178.98 75.1061 178.969C75.3758 178.958 75.6032 179.168 75.614 179.438Z" fill="#776E42"/>
<path d="M77.5858 179.753C77.5964 180.022 77.3865 180.25 77.1168 180.261C76.847 180.271 76.6196 180.061 76.6088 179.792C76.5981 179.522 76.808 179.294 77.0778 179.284C77.3476 179.273 77.5751 179.483 77.5858 179.753Z" fill="#776E42"/>
<path d="M79.5565 180.065C79.5673 180.335 79.3572 180.562 79.0875 180.573C78.8177 180.584 78.5903 180.374 78.5795 180.104C78.5688 179.834 78.7787 179.607 79.0485 179.596C79.3184 179.585 79.5458 179.795 79.5565 180.065Z" fill="#776E42"/>
<path d="M81.5282 180.378C81.5388 180.647 81.3289 180.875 81.0592 180.886C80.7894 180.896 80.562 180.686 80.5512 180.417C80.5404 180.147 80.7504 179.919 81.0202 179.909C81.2899 179.898 81.5173 180.108 81.5282 180.378Z" fill="#776E42"/>
<path d="M83.4988 180.69C83.5095 180.96 83.2996 181.187 83.0299 181.198C82.7601 181.209 82.5327 180.999 82.5219 180.729C82.5112 180.459 82.7211 180.232 82.9909 180.221C83.2607 180.21 83.4881 180.42 83.4988 180.69Z" fill="#776E42"/>
<path d="M85.4695 181.005C85.4802 181.274 85.2703 181.502 85.0006 181.513C84.7308 181.523 84.5034 181.313 84.4926 181.044C84.4819 180.774 84.6918 180.546 84.9616 180.536C85.2314 180.525 85.4589 180.735 85.4695 181.005Z" fill="#776E42"/>
<path d="M87.4412 181.319C87.4519 181.589 87.242 181.816 86.9722 181.827C86.7025 181.838 86.4751 181.628 86.4643 181.358C86.4536 181.088 86.6635 180.861 86.9332 180.85C87.203 180.839 87.4304 181.049 87.4412 181.319Z" fill="#776E42"/>
<path d="M89.4129 181.63C89.4236 181.899 89.2137 182.127 88.9439 182.138C88.6742 182.148 88.4467 181.938 88.4359 181.669C88.4252 181.399 88.6351 181.171 88.9049 181.161C89.1748 181.15 89.4022 181.36 89.4129 181.63Z" fill="#776E42"/>
<path d="M91.3836 181.944C91.3943 182.214 91.1844 182.441 90.9146 182.452C90.6449 182.463 90.4174 182.253 90.4066 181.983C90.3959 181.713 90.6059 181.486 90.8756 181.475C91.1454 181.464 91.3728 181.674 91.3836 181.944Z" fill="#776E42"/>
<path d="M93.3552 182.256C93.3659 182.526 93.156 182.754 92.8862 182.764C92.6164 182.775 92.389 182.565 92.3783 182.295C92.3676 182.026 92.5775 181.798 92.8473 181.788C93.117 181.777 93.3444 181.987 93.3552 182.256Z" fill="#776E42"/>
<path d="M95.327 182.571C95.3378 182.841 95.1278 183.068 94.858 183.079C94.5882 183.09 94.3608 182.88 94.35 182.61C94.3393 182.34 94.5492 182.113 94.819 182.102C95.0889 182.091 95.3163 182.301 95.327 182.571Z" fill="#776E42"/>
<path d="M97.2976 182.883C97.3083 183.153 97.0984 183.381 96.8286 183.391C96.5588 183.402 96.3314 183.192 96.3207 182.922C96.31 182.653 96.5199 182.425 96.7897 182.414C97.0595 182.404 97.2869 182.614 97.2976 182.883Z" fill="#776E42"/>
<path d="M52.0293 196.126C57.8185 196.126 62.5117 191.819 62.5117 186.506C62.5117 181.194 57.8185 176.887 52.0293 176.887C46.24 176.887 41.5469 181.194 41.5469 186.506C41.5469 191.819 46.24 196.126 52.0293 196.126Z" fill="#363E44"/>
<path d="M56.1853 194.869H48.1904V207.068H56.1853V194.869Z" fill="white"/>
<path d="M52.1877 200.012C56.816 200.012 60.5679 195.62 60.5679 190.203C60.5679 184.786 56.816 180.395 52.1877 180.395C47.5595 180.395 43.8076 184.786 43.8076 190.203C43.8076 195.62 47.5595 200.012 52.1877 200.012Z" fill="white"/>
<path d="M55.4389 182.34L56.5946 185.841H60.5054C60.494 181.246 56.7664 177.525 52.1693 177.525C47.572 177.525 43.8444 181.247 43.833 185.841H54.4096L55.4389 182.34Z" fill="#363E44"/>
<path d="M44.6685 193.94C45.785 193.431 46.0765 191.673 45.3197 190.014C44.5629 188.355 43.0443 187.424 41.9278 187.933C40.8113 188.443 40.5198 190.2 41.2766 191.859C42.0334 193.518 43.552 194.449 44.6685 193.94Z" fill="white"/>
<path d="M42.7439 192.334C42.7192 192.334 42.6941 192.325 42.6739 192.308C42.4102 192.083 42.1869 191.78 42.0282 191.433C41.821 190.979 41.7454 190.495 41.8156 190.073C41.8883 189.634 42.1081 189.311 42.4345 189.162C42.6808 189.049 42.9651 189.048 43.2568 189.157C43.3126 189.178 43.3408 189.24 43.32 189.296C43.2989 189.352 43.2364 189.38 43.1808 189.36C42.9441 189.27 42.7171 189.27 42.5242 189.358C42.2653 189.476 42.0893 189.743 42.0286 190.108C41.9654 190.489 42.0351 190.927 42.2247 191.343C42.3703 191.662 42.574 191.939 42.8138 192.143C42.8593 192.182 42.8647 192.25 42.8259 192.296C42.8048 192.321 42.7745 192.334 42.7439 192.334Z" fill="#363E44"/>
<path d="M52.2039 200.26C50.7883 200.26 49.3799 199.862 48.1313 199.107C48.0802 199.076 48.0638 199.01 48.0947 198.958C48.1254 198.907 48.1916 198.891 48.2431 198.922C49.4753 199.667 50.8079 200.044 52.2039 200.044C53.5922 200.044 54.9182 199.671 56.1451 198.934C56.1963 198.903 56.2628 198.919 56.2934 198.971C56.324 199.022 56.3075 199.088 56.2563 199.119C54.9954 199.876 53.6319 200.26 52.2039 200.26Z" fill="#363E44"/>
<path d="M63.2504 191.855C64.0072 190.196 63.7156 188.438 62.5992 187.929C61.4827 187.42 59.9641 188.351 59.2073 190.01C58.4504 191.669 58.742 193.427 59.8585 193.936C60.9749 194.445 62.4935 193.514 63.2504 191.855Z" fill="white"/>
<path d="M61.6661 192.336C61.6357 192.336 61.6053 192.323 61.5839 192.298C61.5452 192.252 61.5505 192.184 61.5959 192.145C61.8359 191.941 62.0396 191.664 62.1851 191.345C62.5701 190.501 62.4357 189.611 61.8858 189.36C61.6928 189.272 61.4658 189.272 61.229 189.361C61.173 189.382 61.1109 189.354 61.0899 189.298C61.069 189.242 61.0972 189.18 61.1531 189.159C61.4448 189.05 61.7293 189.051 61.9754 189.163C62.6338 189.464 62.8161 190.483 62.3819 191.435C62.2232 191.782 62 192.085 61.7363 192.31C61.7159 192.327 61.691 192.336 61.6661 192.336Z" fill="#363E44"/>
<path d="M60.0074 193.897C59.9964 193.897 59.985 193.896 59.9738 193.892C59.9172 193.873 59.8862 193.812 59.9048 193.755C60.279 192.613 60.4688 191.407 60.4688 190.172C60.4688 189.645 60.4335 189.117 60.3641 188.601C60.3562 188.542 60.3977 188.488 60.4567 188.48C60.5172 188.471 60.5703 188.513 60.5782 188.572C60.6488 189.097 60.6847 189.636 60.6847 190.172C60.6847 191.43 60.4913 192.658 60.1101 193.823C60.0953 193.868 60.0529 193.897 60.0074 193.897Z" fill="#363E44"/>
<path d="M44.3726 193.856C44.3272 193.856 44.285 193.827 44.2701 193.782C43.8919 192.641 43.7002 191.436 43.7002 190.202C43.7002 189.589 43.7484 188.976 43.8435 188.378C43.8529 188.319 43.9077 188.279 43.9672 188.289C44.026 188.298 44.0662 188.353 44.0568 188.412C43.9636 188.998 43.9163 189.601 43.9163 190.202C43.9163 191.413 44.1044 192.595 44.4752 193.714C44.494 193.771 44.4634 193.832 44.4066 193.851C44.3953 193.854 44.3839 193.856 44.3726 193.856Z" fill="#363E44"/>
<path d="M50.4 190.794C50.4 190.794 48.6782 191.738 47.187 191.187C45.6959 190.637 45 188.801 45 188.801C45 188.801 45.5906 188.478 46.3821 188.321C46.9392 188.21 47.6814 189.647 47.6814 189.647C47.6814 189.647 49.4022 189.178 49.7603 189.663C50.1962 190.254 50.4 190.794 50.4 190.794Z" fill="#F9DF51"/>
<path d="M49.6668 190.02C49.7105 189.901 49.7413 189.781 49.7601 189.66C49.4018 189.172 48.8892 188.658 48.2125 188.408C47.595 188.18 46.9395 188.21 46.3814 188.321C46.2964 188.445 46.2232 188.581 46.1687 188.729C45.8119 189.695 46.306 190.767 47.2719 191.123C48.238 191.48 49.31 190.986 49.6668 190.02Z" fill="#363E44"/>
<path d="M52.3553 193.834C52.3195 193.834 52.2846 193.817 52.264 193.784C52.2319 193.734 52.2468 193.667 52.2973 193.635C52.5769 193.457 52.746 193.252 52.8002 193.024C52.857 192.785 52.7714 192.591 52.6531 192.322C52.5616 192.114 52.458 191.879 52.3972 191.567C52.3196 191.17 52.3343 190.748 52.4406 190.315C52.455 190.257 52.514 190.221 52.5714 190.236C52.6293 190.25 52.6647 190.308 52.6505 190.366C52.5516 190.769 52.5378 191.16 52.6092 191.526C52.6654 191.814 52.7639 192.038 52.8507 192.235C52.9758 192.519 53.084 192.764 53.0103 193.074C52.9428 193.358 52.7419 193.609 52.4131 193.818C52.3951 193.829 52.3752 193.834 52.3553 193.834Z" fill="#363E44"/>
<path d="M51.3487 195.597C51.0193 195.597 50.6822 195.494 50.4212 195.29C50.151 195.08 49.989 194.78 49.9766 194.468C49.9743 194.408 50.0206 194.358 50.0803 194.356C50.1411 194.352 50.1902 194.4 50.1925 194.459C50.2023 194.708 50.3343 194.948 50.5541 195.12C50.9625 195.438 51.6139 195.468 52.006 195.187C52.0547 195.152 52.122 195.163 52.1568 195.212C52.1916 195.26 52.1805 195.328 52.1321 195.362C51.9127 195.52 51.6336 195.597 51.3487 195.597Z" fill="#363E44"/>
<path d="M52.1054 209.766C55.6818 209.766 58.581 208.421 58.581 206.761C58.581 205.101 55.6818 203.756 52.1054 203.756C48.5291 203.756 45.6299 205.101 45.6299 206.761C45.6299 208.421 48.5291 209.766 52.1054 209.766Z" fill="white"/>
<path d="M53.7568 190.762C53.7568 190.762 55.4662 191.727 56.9644 191.196C58.4626 190.665 59.1823 188.839 59.1823 188.839C59.1823 188.839 58.7362 188.587 58.1001 188.411C57.491 188.243 56.5477 189.609 56.5477 189.609C56.5477 189.609 54.944 188.998 54.5957 189.405C54.0318 190.063 53.7568 190.762 53.7568 190.762Z" fill="#F9DF51"/>
<path d="M58.2091 188.64C58.181 188.561 58.1467 188.486 58.1095 188.414C57.4989 188.244 56.7119 188.142 55.9748 188.403C55.4015 188.607 54.9434 188.999 54.5947 189.407C54.6073 189.567 54.6385 189.728 54.6946 189.886C55.0385 190.857 56.1041 191.364 57.0747 191.02C58.0453 190.676 58.5531 189.611 58.2091 188.64Z" fill="#363E44"/>
<path d="M41.5192 182.254C41.5067 182.254 41.4938 182.252 41.4813 182.247C41.4254 182.227 41.3971 182.164 41.418 182.108C42.5741 179.017 45.0782 176.898 47.9533 176.577C49.8683 176.363 51.4641 177.006 52.4648 177.582C52.5165 177.612 52.5343 177.678 52.5044 177.729C52.4748 177.781 52.4086 177.799 52.3569 177.769C51.3844 177.209 49.8355 176.585 47.9772 176.792C45.1837 177.103 42.7478 179.17 41.6203 182.184C41.6041 182.228 41.563 182.254 41.5192 182.254Z" fill="#363E44"/>
<path d="M47.6265 180.397C47.6083 180.397 47.5898 180.392 47.573 180.383C47.5212 180.353 47.5032 180.287 47.5328 180.235C48.106 179.233 49.1592 177.874 50.9206 177.091C53.5648 175.917 56.7961 176.483 59.354 178.568C59.4002 178.606 59.4071 178.674 59.3695 178.72C59.3318 178.766 59.264 178.774 59.2175 178.736C56.723 176.702 53.5775 176.148 51.0084 177.289C49.3003 178.047 48.2776 179.368 47.7203 180.343C47.7004 180.377 47.6638 180.397 47.6265 180.397Z" fill="#363E44"/>
<path d="M88.9206 269.562H74.8242V283.659H88.9206V269.562Z" fill="#FFD092"/>
<path d="M79.9167 283.656H65.8203V297.753H79.9167V283.656Z" fill="#D87355"/>
<path d="M97.9235 283.656H83.8271V297.753H97.9235V283.656Z" fill="#F3BD40"/>
<path d="M62.1553 276.612C62.1553 276.612 62.2155 260.316 67.7542 260.316C73.2929 260.316 73.8881 275.974 73.8881 275.974C73.8881 275.974 68.8719 279.305 62.1553 276.612Z" fill="black"/>
<path d="M69.8217 265.065C69.8217 266.892 68.8961 268.373 67.7541 268.373C66.6122 268.373 65.6865 266.892 65.6865 265.065C65.6865 263.238 67.5115 262.4 67.5115 262.4C67.5115 262.4 69.8217 263.238 69.8217 265.065Z" fill="#DC8929"/>
<path d="M49.7059 305.295C51.4738 304.817 52.7729 303.934 52.6076 303.322C52.4423 302.71 50.8751 302.601 49.1073 303.079C47.3394 303.556 46.0403 304.439 46.2056 305.051C46.3709 305.663 47.9381 305.772 49.7059 305.295Z" fill="#D87355"/>
<path d="M62.7084 289.141L58.5756 294.195C58.5756 294.195 58.3427 298.923 52.6038 303.323L48.7227 304.188L51.2307 302.743L56.013 293.345L58.6911 286.99L62.7084 289.141Z" fill="#DC8929"/>
<path d="M43.8872 296.196C43.9904 295.571 42.6092 294.822 40.8023 294.524C38.9955 294.227 37.4471 294.492 37.344 295.117C37.2408 295.743 38.622 296.492 40.4288 296.789C42.2357 297.087 43.7841 296.822 43.8872 296.196Z" fill="#D87355"/>
<path d="M58.9558 287.486L53.1002 290.373C53.1002 290.373 50.9289 294.579 43.8828 296.205L39.9922 295.384L42.8737 295.108L51.1206 288.537L56.1913 283.863L58.9558 287.486Z" fill="#DC8929"/>
<path d="M71.1884 272.336C71.1884 272.336 72.3043 272.495 72.5275 273.356C72.7507 274.217 73.2608 280.147 73.2608 280.147L71.5391 287.544L70.0088 287.257L71.6348 279.94L70.2001 274.536L71.1884 272.336Z" fill="#DC8929"/>
<path d="M66.0935 271.469C66.0935 271.469 65.9918 272.592 65.1436 272.859C64.2954 273.127 58.3995 273.942 58.3995 273.942L50.9238 272.603L51.1315 271.06L58.5225 272.307L63.8455 270.596L66.0935 271.469Z" fill="#DC8929"/>
<path d="M63.0909 269.967L71.8906 271.942L68.1284 279.721C68.1284 279.721 73.6338 283.725 65.8966 292.853C65.8966 292.853 54.929 291.014 50.9756 283.725C50.9756 283.725 55.0565 278.701 63.7286 278.573L63.0909 269.967Z" fill="#DC8929"/>
<path d="M69.942 272.364C69.8296 272.845 68.5203 272.95 67.0176 272.598C65.5148 272.247 64.3876 271.573 64.4999 271.092C64.6123 270.612 65.9215 270.507 67.4243 270.858C68.9271 271.209 70.0543 271.884 69.942 272.364Z" fill="#DC8929"/>
<path d="M66.0449 271.199L67.2206 267.586L68.9781 267.033L68.5105 271.728L66.0449 271.199Z" fill="#DC8929"/>
<path d="M53.0977 272.407C53.3339 271.817 52.3857 270.882 50.9798 270.32C49.574 269.757 48.2429 269.779 48.0067 270.369C47.7705 270.959 48.7188 271.894 50.1246 272.456C51.5305 273.019 52.8616 272.997 53.0977 272.407Z" fill="#DC8929"/>
<path d="M67.4305 290.124C67.0129 289.645 67.5996 288.45 68.7411 287.455C69.8827 286.46 71.1466 286.042 71.5641 286.521C71.9817 287 71.3949 288.195 70.2534 289.19C69.1119 290.185 67.848 290.603 67.4305 290.124Z" fill="#DC8929"/>
<path d="M156.577 300.833L152.451 284.119L144.804 286.007L147.042 295.074C148.085 299.297 152.354 301.876 156.577 300.833Z" fill="#D87355"/>
<path d="M147.424 296.524C147.405 296.524 147.386 296.519 147.369 296.508C147.317 296.477 147.301 296.411 147.332 296.36L148.443 294.521C148.473 294.47 148.54 294.453 148.591 294.484C148.642 294.515 148.659 294.582 148.628 294.633L147.517 296.472C147.497 296.505 147.461 296.524 147.424 296.524Z" fill="white"/>
<path d="M148.341 298.077C148.322 298.077 148.303 298.072 148.286 298.061C148.234 298.03 148.218 297.964 148.249 297.913L149.36 296.074C149.39 296.023 149.457 296.006 149.508 296.037C149.559 296.068 149.575 296.134 149.545 296.185L148.434 298.024C148.414 298.058 148.378 298.077 148.341 298.077Z" fill="white"/>
<path d="M127.92 296.697L140.736 293.782L138.434 283.322L125.505 286.168L127.92 296.697Z" fill="white"/>
<path d="M139.47 288.848C144.997 282.457 147.175 275.284 144.334 272.828C141.494 270.371 134.71 273.561 129.183 279.953C123.656 286.344 121.479 293.517 124.319 295.973C127.16 298.43 133.943 295.24 139.47 288.848Z" fill="white"/>
<path d="M138.783 292.756C138.783 292.756 151.39 280.194 150.529 271.104C149.885 264.307 141.795 259.193 141.795 259.193L123.205 281.561L138.783 292.756Z" fill="white"/>
<path d="M136.369 297.154L158.107 292.276L155.805 281.816L133.89 286.64L136.369 297.154Z" fill="white"/>
<path d="M147.231 286.842C151.388 279.485 152.108 272.024 148.838 270.176C145.569 268.329 139.548 272.794 135.391 280.151C131.233 287.507 130.514 294.969 133.783 296.816C137.053 298.664 143.073 294.198 147.231 286.842Z" fill="white"/>
<path d="M132.537 295.675C132.499 295.675 132.463 295.656 132.443 295.621C130.944 293.06 131.551 287.974 133.99 282.665C134.015 282.61 134.079 282.587 134.133 282.611C134.188 282.636 134.212 282.701 134.187 282.755C131.776 288.002 131.165 293.01 132.63 295.512C132.66 295.564 132.642 295.63 132.591 295.66C132.574 295.67 132.555 295.675 132.537 295.675Z" fill="#363E44"/>
<path d="M134.088 282.817C134.073 282.817 134.058 282.814 134.043 282.807C133.989 282.782 133.965 282.718 133.99 282.664C134.384 281.808 134.823 280.949 135.297 280.11C137.316 276.539 139.832 273.53 142.384 271.638C144.961 269.727 147.272 269.179 148.893 270.095C151.325 271.47 151.68 275.924 149.798 281.442C149.779 281.498 149.718 281.529 149.661 281.509C149.605 281.49 149.575 281.429 149.594 281.372C151.441 275.957 151.123 271.604 148.786 270.283C147.245 269.412 145.016 269.954 142.513 271.811C139.985 273.686 137.489 276.671 135.485 280.216C135.014 281.05 134.578 281.903 134.187 282.754C134.169 282.793 134.129 282.817 134.088 282.817Z" fill="#363E44"/>
<path d="M141.85 293.993C141.821 293.993 141.793 293.981 141.771 293.959C141.731 293.915 141.733 293.847 141.776 293.806C143.735 291.964 145.588 289.543 147.137 286.803C148.15 285.011 148.977 283.184 149.594 281.374C149.613 281.318 149.675 281.287 149.731 281.307C149.787 281.326 149.818 281.387 149.798 281.444C149.177 283.267 148.345 285.106 147.325 286.91C145.766 289.668 143.898 292.107 141.924 293.964C141.903 293.983 141.877 293.993 141.85 293.993Z" fill="#363E44"/>
<path d="M147.327 290.837C147.327 290.837 157.21 276.036 154.573 267.294C152.601 260.758 143.661 257.34 143.661 257.34L131.813 283.823L147.327 290.837Z" fill="white"/>
<path d="M166.576 296.869L162.45 280.154L154.803 282.042L157.041 291.109C158.084 295.333 162.353 297.911 166.576 296.869Z" fill="#D87355"/>
<path d="M157.423 292.559C157.404 292.559 157.385 292.554 157.368 292.543C157.317 292.513 157.3 292.446 157.331 292.395L158.442 290.556C158.473 290.505 158.539 290.489 158.59 290.52C158.641 290.55 158.658 290.617 158.627 290.668L157.516 292.507C157.496 292.54 157.46 292.559 157.423 292.559Z" fill="white"/>
<path d="M158.34 294.11C158.321 294.11 158.302 294.105 158.285 294.094C158.234 294.063 158.217 293.997 158.248 293.946L159.359 292.107C159.389 292.056 159.456 292.039 159.507 292.07C159.558 292.101 159.574 292.168 159.544 292.219L158.433 294.058C158.413 294.091 158.377 294.11 158.34 294.11Z" fill="white"/>
<path d="M106.307 273.805C96.7301 275.129 91.4669 276.004 89.3635 276.269C89.1433 276.297 88.7548 276.347 88.2508 276.274C86.3833 276.002 85.9236 274.462 84.0905 273.28C82.0106 271.939 80.08 272.361 79.9997 271.734C79.9439 271.298 80.6272 270.934 82.1783 270.759C82.1784 270.759 82.1784 270.759 82.1783 270.759C80.9846 270.756 79.3658 270.682 79.3691 270.022C79.4137 269.261 81.3257 269.125 82.4864 269.098C81.0814 269.13 80.3249 268.726 80.4185 268.359C80.5656 267.781 81.6495 267.503 83.5079 267.533C83.508 267.533 83.508 267.533 83.5079 267.533C82.2306 267.154 81.9772 266.871 82.1391 266.567C82.4344 266.01 83.962 266.064 85.3049 266.319C86.8167 266.605 87.8899 267.352 88.5553 267.839C88.5555 267.839 88.5558 267.839 88.556 267.839C95.1671 266.216 102.794 265.208 102.794 265.208C104.316 263.912 112.629 256.754 113.308 256.825C116.815 257.191 118.171 264.061 118.447 265.831C118.605 266.838 106.307 273.805 106.307 273.805Z" fill="white"/>
<path d="M86.0243 273.971C83.625 274.461 82.8635 275.146 82.9533 275.524C83.1043 276.159 85.3239 276.579 88.9206 276.305C88.1719 275.582 86.7729 274.693 86.0243 273.971Z" fill="white"/>
<path d="M87.1027 275.892C87.0831 275.892 87.0634 275.887 87.0456 275.876C86.5806 275.585 86.1972 275.193 85.7915 274.777C85.6033 274.584 85.4086 274.384 85.1962 274.185C85.1528 274.144 85.1505 274.076 85.1914 274.032C85.2323 273.989 85.3008 273.986 85.3441 274.027C85.5599 274.23 85.7562 274.431 85.9461 274.626C86.3425 275.032 86.7171 275.416 87.1599 275.692C87.2106 275.724 87.226 275.791 87.1944 275.841C87.174 275.874 87.1388 275.892 87.1027 275.892Z" fill="#363E44"/>
<path d="M112.845 253.558L104.997 261.352L114.695 270.939L115.966 269.653C120.411 275.725 127.548 277.664 127.548 277.664L143.661 257.342C118.776 240.235 114.742 251.182 112.845 253.558Z" fill="#D87355"/>
<path d="M111.695 296.832C110.467 298.951 109.575 299.455 109.245 299.249C108.691 298.904 108.999 296.666 110.404 293.344C110.85 294.283 111.248 295.892 111.695 296.832Z" fill="white"/>
<path d="M118.611 278.07C114.308 286.728 111.499 291.026 110.579 292.936C110.483 293.136 110.311 293.488 110.22 293.99C109.884 295.846 111.198 296.772 111.735 298.886C112.345 301.285 111.33 302.981 111.899 303.256C112.295 303.448 112.857 302.916 113.517 301.501C113.517 301.501 113.517 301.501 113.517 301.501C113.14 302.634 112.695 304.192 113.321 304.399C114.057 304.599 114.795 302.83 115.189 301.738C114.712 303.059 114.854 303.905 115.232 303.933C115.827 303.978 116.435 303.039 116.998 301.267C116.951 302.599 117.138 302.929 117.479 302.873C118.1 302.769 118.535 301.304 118.721 299.95C118.93 298.426 118.564 297.171 118.314 296.385C118.314 296.385 118.314 296.384 118.314 296.384C121.957 290.633 128.175 280.843 128.175 280.843L129.613 269.564H119.546C119.546 269.564 118.611 278.07 118.611 278.07Z" fill="white"/>
<path d="M111.328 297.612C111.287 297.612 111.248 297.589 111.229 297.549C111.108 297.284 110.98 297.036 110.857 296.796C110.592 296.279 110.342 295.791 110.215 295.258C110.201 295.2 110.237 295.142 110.295 295.128C110.353 295.114 110.411 295.15 110.425 295.208C110.546 295.716 110.791 296.193 111.05 296.698C111.174 296.94 111.302 297.19 111.426 297.459C111.451 297.514 111.427 297.578 111.373 297.603C111.358 297.609 111.343 297.612 111.328 297.612Z" fill="#363E44"/>
<path d="M107.612 252.472C111.245 254.45 119.443 249.662 119.443 249.662L122.199 241.536C124.46 234.868 119.241 227.889 112.221 228.441C112.078 228.452 111.934 228.467 111.789 228.484C106.011 229.175 101.888 234.418 102.578 240.196C102.578 240.196 103.912 250.458 107.612 252.472Z" fill="white"/>
<path d="M121.417 255.38L121.3 255.458C119.39 256.722 116.808 256.12 115.655 254.14L108.321 241.545C107.232 239.674 107.835 237.276 109.68 236.143C111.574 234.979 114.054 235.59 115.191 237.501L122.642 250.018C123.73 251.846 123.191 254.206 121.417 255.38Z" fill="white"/>
<path d="M114.272 251.99C114.231 251.99 114.193 251.967 114.174 251.928C114.149 251.874 114.172 251.81 114.226 251.785C115.675 251.109 116.691 250.515 116.701 250.509C116.752 250.479 116.818 250.496 116.849 250.547C116.879 250.599 116.862 250.665 116.81 250.695C116.8 250.701 115.777 251.301 114.318 251.98C114.303 251.987 114.287 251.99 114.272 251.99Z" fill="#363E44"/>
<path d="M103.961 243.312C103.961 243.312 101.829 246.158 102.039 246.817C102.29 247.604 105.064 247.77 105.064 247.77C105.064 247.77 103.897 243.326 103.961 243.312Z" fill="white"/>
<path d="M112.974 241.409C112.974 241.409 111.317 240.758 109.44 240.983C109.041 241.03 110.177 244.136 110.534 243.91C112.105 242.915 112.974 241.409 112.974 241.409Z" fill="white"/>
<path d="M108.227 241.26C108.631 241.119 109.038 241.032 109.436 240.984C110.313 241.725 110.697 242.842 110.535 243.909C110.178 244.135 109.784 244.336 109.355 244.486C107.044 245.294 104.606 244.336 104.606 244.336C104.606 244.336 105.916 242.068 108.227 241.26Z" fill="black"/>
<path d="M107.346 249.224C107.173 249.224 106.998 249.185 106.836 249.107C106.783 249.081 106.76 249.016 106.786 248.962C106.812 248.909 106.877 248.886 106.931 248.912C107.265 249.075 107.665 249.027 107.949 248.791C108.222 248.563 108.344 248.191 108.26 247.842C108.246 247.784 108.282 247.726 108.34 247.712C108.397 247.698 108.456 247.734 108.47 247.792C108.573 248.219 108.423 248.677 108.087 248.957C107.876 249.133 107.612 249.224 107.346 249.224Z" fill="#363E44"/>
<path d="M119.937 241.831C120.424 240.07 119.596 238.305 118.088 237.888C116.581 237.472 114.965 238.562 114.478 240.323C113.992 242.084 114.82 243.849 116.327 244.266C117.835 244.682 119.451 243.592 119.937 241.831Z" fill="white"/>
<path d="M118.477 241.878C118.462 241.878 118.446 241.875 118.431 241.868C118.377 241.842 118.354 241.778 118.38 241.724C118.425 241.628 118.463 241.527 118.491 241.423C118.604 241.015 118.574 240.595 118.408 240.24C118.244 239.89 117.967 239.646 117.627 239.552C117.456 239.505 117.279 239.498 117.101 239.533C117.042 239.543 116.986 239.505 116.975 239.447C116.963 239.388 117.002 239.332 117.06 239.32C117.271 239.28 117.481 239.288 117.685 239.344C118.086 239.455 118.412 239.74 118.603 240.148C118.792 240.549 118.826 241.023 118.7 241.48C118.668 241.596 118.626 241.709 118.575 241.817C118.556 241.856 118.518 241.878 118.477 241.878Z" fill="#363E44"/>
<path d="M125.123 229.273C121.509 224.952 115.94 225.163 115.116 225.208C110.943 223.675 106.453 224.548 103.37 227.509C98.8766 231.824 99.8418 238.205 99.929 238.724C102.287 237.911 105.628 237.267 108.009 237.359L109.509 232.985L109.738 237.57C111.621 237.933 113.947 238.722 114.997 239.616C115.086 239.437 115.942 238.211 117.207 238.119C118.741 238.009 120.21 239.383 120.28 240.966C120.388 243.394 120.397 245.163 120.511 246.497C128.389 242.877 129.232 234.186 125.123 229.273Z" fill="black"/>
<path d="M134.178 229.87C134.884 226.88 133.033 223.884 130.043 223.178C127.053 222.472 124.057 224.323 123.351 227.313C122.646 230.303 124.497 233.299 127.487 234.005C130.476 234.711 133.472 232.859 134.178 229.87Z" fill="black"/>
<path d="M128.766 235.616C125.639 235.616 123.096 233.072 123.096 229.946C123.096 226.819 125.639 224.275 128.766 224.275C131.893 224.275 134.437 226.819 134.437 229.946C134.437 233.072 131.893 235.616 128.766 235.616ZM128.766 224.491C125.759 224.491 123.312 226.938 123.312 229.946C123.312 232.953 125.759 235.4 128.766 235.4C131.774 235.4 134.22 232.953 134.22 229.946C134.22 226.938 131.774 224.491 128.766 224.491Z" fill="black"/>
<path d="M130.331 234.444C127.205 234.444 124.661 231.901 124.661 228.774C124.661 225.647 127.205 223.104 130.331 223.104C133.458 223.104 136.002 225.647 136.002 228.774C136.002 231.901 133.458 234.444 130.331 234.444ZM130.331 223.319C127.324 223.319 124.877 225.766 124.877 228.774C124.877 231.781 127.324 234.228 130.331 234.228C133.339 234.228 135.786 231.781 135.786 228.774C135.786 225.766 133.339 223.319 130.331 223.319Z" fill="black"/>
<path d="M113.108 227.484C116.18 227.484 118.671 224.994 118.671 221.922C118.671 218.85 116.18 216.359 113.108 216.359C110.036 216.359 107.546 218.85 107.546 221.922C107.546 224.994 110.036 227.484 113.108 227.484Z" fill="black"/>
<path d="M111.934 227.593C108.807 227.593 106.264 225.049 106.264 221.922C106.264 218.796 108.807 216.252 111.934 216.252C115.061 216.252 117.605 218.796 117.605 221.922C117.605 225.049 115.061 227.593 111.934 227.593ZM111.934 216.468C108.927 216.468 106.48 218.915 106.48 221.922C106.48 224.93 108.927 227.377 111.934 227.377C114.942 227.377 117.388 224.93 117.388 221.922C117.388 218.915 114.942 216.468 111.934 216.468Z" fill="black"/>
<path d="M151.883 128.695H121.286V159.292H151.883V128.695Z" fill="#D87355"/>
<path d="M142.606 145.7C142.417 147.313 141.822 148.557 140.821 149.433C139.819 150.309 138.487 150.747 136.826 150.747C135.025 150.747 133.582 150.101 132.497 148.81C131.412 147.519 130.869 145.791 130.869 143.627V142.162C130.869 140.745 131.122 139.499 131.628 138.424C132.134 137.349 132.851 136.524 133.78 135.948C134.708 135.372 135.783 135.084 137.004 135.084C138.624 135.084 139.922 135.536 140.899 136.44C141.876 137.344 142.445 138.595 142.606 140.193H140.585C140.411 138.975 140.032 138.093 139.449 137.547C138.866 137.001 138.051 136.728 137.004 136.728C135.72 136.728 134.713 137.203 133.984 138.153C133.254 139.103 132.89 140.455 132.89 142.208V143.685C132.89 145.341 133.235 146.658 133.926 147.636C134.617 148.614 135.584 149.103 136.826 149.103C137.943 149.103 138.8 148.85 139.397 148.344C139.993 147.838 140.389 146.957 140.585 145.7L142.606 145.7Z" fill="white"/>
<path d="M127.868 115.828H97.2715V146.425H127.868V115.828Z" fill="#E98029"/>
<path d="M107.377 137.672V122.428H112.361C114.015 122.428 115.259 122.77 116.093 123.454C116.927 124.138 117.344 125.15 117.344 126.49C117.344 127.202 117.142 127.832 116.737 128.38C116.332 128.928 115.78 129.352 115.083 129.652C115.906 129.882 116.557 130.32 117.035 130.966C117.513 131.612 117.752 132.381 117.752 133.274C117.752 134.642 117.309 135.717 116.423 136.499C115.536 137.281 114.283 137.672 112.664 137.672H107.377ZM109.387 128.929H112.423C113.303 128.929 114.006 128.709 114.533 128.269C115.06 127.828 115.323 127.23 115.323 126.474C115.323 125.635 115.079 125.025 114.591 124.643C114.102 124.262 113.358 124.072 112.36 124.072H109.387V128.929ZM109.387 130.542V136.028H112.706C113.641 136.028 114.379 135.785 114.92 135.3C115.461 134.815 115.732 134.147 115.732 133.295C115.732 131.46 114.734 130.542 112.737 130.542H109.387Z" fill="white"/>
<path d="M104.282 129.98H66.2373V168.025H104.282V129.98Z" fill="white"/>
<path d="M89.2689 152.178H81.3279L79.5443 157.138H76.9668L84.2049 138.184H86.3919L93.643 157.138H91.0784L89.2689 152.178ZM82.0828 150.134H88.527L85.2984 141.269L82.0828 150.134Z" fill="#E6D0BE"/>
</g>
</g>
</g>
<defs>
<filter id="filter0_d_569_8276" x="0.530498" y="0.171987" width="238.57" height="329.939" filterUnits="userSpaceOnUse" color-interpolation-filters="sRGB">
<feFlood flood-opacity="0" result="BackgroundImageFix"/>
<feColorMatrix in="SourceAlpha" type="matrix" values="0 0 0 0 0 0 0 0 0 0 0 0 0 0 0 0 0 0 127 0" result="hardAlpha"/>
<feOffset dy="2.14247"/>
<feGaussianBlur stdDeviation="2.14247"/>
<feComposite in2="hardAlpha" operator="out"/>
<feColorMatrix type="matrix" values="0 0 0 0 0 0 0 0 0 0 0 0 0 0 0 0 0 0 0.1 0"/>
<feBlend mode="normal" in2="BackgroundImageFix" result="effect1_dropShadow_569_8276"/>
<feBlend mode="normal" in="SourceGraphic" in2="effect1_dropShadow_569_8276" result="shape"/>
</filter>
<clipPath id="clip0_569_8276">
<rect x="20.5684" y="107.863" width="198.493" height="203.219" rx="15.7534" fill="white"/>
</clipPath>
<clipPath id="clip1_569_8276">
<rect x="20.5684" y="107.863" width="198.493" height="203.219" rx="15.7534" fill="white"/>
</clipPath>
</defs>
</svg>
