<svg width="310" height="104" viewBox="0 0 310 104" fill="none" xmlns="http://www.w3.org/2000/svg">
<g clip-path="url(#clip0_535_11307)">
<rect y="0.583984" width="310" height="103.333" rx="6.2" fill="#DABD00"/>
<path d="M155.129 168.501C219.404 168.501 271.508 116.396 271.508 52.1214C271.508 -12.1531 219.404 -64.2578 155.129 -64.2578C90.8547 -64.2578 38.75 -12.1531 38.75 52.1214C38.75 116.396 90.8547 168.501 155.129 168.501Z" fill="#3E41B5"/>
<path d="M155 125.618C195.519 125.618 228.367 92.7707 228.367 52.2514C228.367 11.7321 195.519 -21.1152 155 -21.1152C114.481 -21.1152 81.6334 11.7321 81.6334 52.2514C81.6334 92.7707 114.481 125.618 155 125.618Z" fill="#3E41B5"/>
<path d="M79.2232 23.282L76.6121 17.3162L73.7763 18.5573C73.1235 17.7496 72.3786 17.0377 71.5634 16.4312L72.6912 13.548L66.6265 11.1758L65.4987 14.059C64.4884 13.9515 63.4581 13.969 62.4306 14.1195L61.1895 11.2837L55.2237 13.8948L56.4648 16.7306C55.6571 17.3833 54.9452 18.1283 54.3387 18.9434L51.4554 17.8157L49.0833 23.8804L51.9665 25.0082C51.859 26.0185 51.8765 27.0487 52.027 28.0763L49.1912 29.3174L51.8022 35.2832L54.638 34.042C55.2908 34.8498 56.0358 35.5617 56.8509 36.1682L55.7231 39.0514L61.7879 41.4236L62.9156 38.5403C63.9259 38.6479 64.9562 38.6304 65.9837 38.4799L67.2249 41.3157L73.1907 38.7046L71.9495 35.8688C72.7573 35.2161 73.4691 34.4711 74.0756 33.656L76.9589 34.7837L79.3311 28.719L76.4478 27.5912C76.5553 26.5809 76.5379 25.5507 76.3874 24.5231L79.2232 23.282ZM66.9248 32.509C63.4955 34.01 59.4988 32.4467 57.9979 29.0174C56.497 25.5881 58.0603 21.5914 61.4895 20.0905C64.9188 18.5896 68.9155 20.1529 70.4164 23.5821C71.9174 27.0115 70.3541 31.0082 66.9248 32.509Z" fill="#D3BBA3"/>
<path d="M225.196 41.2363L223.239 36.2895L220.837 37.2396C220.323 36.5628 219.729 35.9624 219.073 35.4466L220.115 33.1118L215.158 31.0272L214.116 33.362C213.28 33.2503 212.423 33.2405 211.563 33.3397L210.633 30.9883L205.579 32.9869L206.509 35.3383C205.814 35.854 205.195 36.4474 204.661 37.1008L202.304 36.1098L200.114 41.0209L202.47 42.012C202.345 42.8368 202.322 43.681 202.41 44.526L200.008 45.4761L201.964 50.4228L204.366 49.4728C204.88 50.1496 205.474 50.75 206.13 51.2657L205.088 53.6005L210.045 55.6852L211.087 53.3504C211.923 53.4621 212.78 53.4718 213.64 53.3727L214.57 55.7241L219.624 53.7255L218.694 51.374C219.39 50.8584 220.008 50.265 220.542 49.6115L222.899 50.6026L225.089 45.6914L222.733 44.7004C222.859 43.8756 222.881 43.0314 222.793 42.1864L225.196 41.2363ZM214.638 48.5048C211.732 49.6536 208.465 48.2799 207.341 45.4364C206.217 42.5929 207.66 39.3564 210.566 38.2076C213.471 37.0587 216.738 38.4325 217.862 41.276C218.987 44.1195 217.543 47.3559 214.638 48.5048Z" fill="#E2E3FF"/>
<path d="M183.568 101.287L182.471 101.835C182.105 101.349 181.705 100.899 181.276 100.486L181.951 99.463L178.486 97.1749L177.809 98.2001C177.256 97.9657 176.684 97.7752 176.101 97.6302L176.174 96.4039L172.03 96.1543L171.957 97.3779C171.366 97.4508 170.776 97.5706 170.192 97.7396L169.643 96.6424L165.931 98.498L166.48 99.5952C165.995 99.9608 165.545 100.361 165.132 100.79L164.109 100.114L161.823 103.578L162.849 104.255C162.615 104.809 162.424 105.38 162.28 105.964L161.053 105.89L160.806 110.033L162.03 110.107C162.103 110.698 162.223 111.288 162.393 111.872L161.296 112.421L163.153 116.134L164.25 115.586C164.616 116.072 165.016 116.522 165.446 116.935L164.771 117.958L168.235 120.246L168.912 119.221C169.466 119.455 170.037 119.645 170.62 119.79L170.547 121.017L174.691 121.266L174.764 120.043C175.355 119.97 175.945 119.85 176.529 119.681L177.078 120.778L180.79 118.923L180.241 117.825C180.726 117.46 181.176 117.06 181.589 116.631L182.612 117.306L184.898 113.843L183.873 113.165C184.106 112.612 184.297 112.041 184.441 111.457L185.668 111.531L185.915 107.387L184.691 107.314C184.618 106.722 184.498 106.132 184.329 105.548L185.425 105L183.568 101.287ZM181.334 108.165C181.55 110.269 180.847 112.38 179.413 113.934C174.538 119.213 166.124 116.407 165.388 109.256C165.171 107.151 165.874 105.04 167.309 103.487C172.184 98.2074 180.598 101.014 181.334 108.165Z" fill="#E2E3FF"/>
<path d="M173.381 117.87C170.018 117.87 166.774 116.013 165.169 112.805C164.181 110.831 163.939 108.568 164.486 106.433C165.029 104.319 166.305 102.468 168.08 101.22C168.116 101.194 168.166 101.203 168.192 101.239C168.217 101.275 168.209 101.325 168.172 101.351C164.564 103.887 163.335 108.78 165.313 112.733C166.889 115.885 170.077 117.71 173.381 117.71C174.731 117.71 176.101 117.405 177.389 116.761C181.056 114.928 183.02 110.85 182.166 106.844C182.157 106.801 182.185 106.758 182.228 106.749C182.27 106.74 182.314 106.767 182.323 106.811C183.192 110.888 181.193 115.039 177.461 116.905C176.15 117.56 174.755 117.87 173.381 117.87Z" fill="#3E41B5"/>
<path d="M107.983 86.1387L220.617 86.1387V6.26926L107.983 6.26926L107.983 86.1387Z" fill="#DABD00"/>
<path d="M217.083 75.7587V9.80273L111.517 9.80273L111.517 75.7587L217.083 75.7587Z" fill="#E2E3FF"/>
<path d="M152.444 87.8301H155.778C155.778 90.3314 157.806 92.3593 160.308 92.3593H168.292C170.794 92.3593 172.822 90.3314 172.822 87.8301H176.156L179.491 105.551V107.033H149.109V105.551L152.444 87.8301Z" fill="#DABD00"/>
<path d="M203.337 57.8626C203.705 56.3023 202.739 54.7387 201.179 54.3703C199.619 54.0019 198.055 54.9681 197.687 56.5284C197.318 58.0887 198.284 59.6522 199.845 60.0206C201.405 60.389 202.969 59.4228 203.337 57.8626Z" fill="#E2E3FF"/>
<path d="M148.67 69.2253H116.462C116.424 69.2253 116.393 69.1943 116.393 69.156V44.8701C116.393 44.8318 116.424 44.8008 116.462 44.8008C116.501 44.8008 116.532 44.8318 116.532 44.8701V69.0867H148.67C148.708 69.0867 148.739 69.1177 148.739 69.156C148.739 69.1943 148.708 69.2253 148.67 69.2253Z" fill="#DABD00"/>
<path d="M140.208 52.8418C140.184 52.8418 140.161 52.8298 140.148 52.8081C140.129 52.7753 140.14 52.7327 140.172 52.7131L144.568 50.086C144.601 50.0664 144.644 50.0771 144.663 50.11C144.683 50.1428 144.672 50.1854 144.639 50.205L140.243 52.8321C140.232 52.8387 140.22 52.8418 140.208 52.8418Z" fill="#DABD00"/>
<path d="M137.425 52.1411C137.402 52.1411 137.38 52.1301 137.367 52.1098L131.411 43.0429C131.39 43.0109 131.399 42.968 131.431 42.9469C131.463 42.926 131.506 42.9347 131.527 42.9668L137.483 52.0337C137.504 52.0657 137.495 52.1086 137.463 52.1296C137.451 52.1374 137.438 52.1411 137.425 52.1411Z" fill="#DABD00"/>
<path d="M124.248 46.2541C124.227 46.2541 124.207 46.2448 124.193 46.2272C124.17 46.1968 124.175 46.1534 124.206 46.13L128.833 42.5555C128.863 42.532 128.906 42.5377 128.93 42.568C128.953 42.5983 128.948 42.6418 128.917 42.6651L124.29 46.2396C124.278 46.2493 124.263 46.2541 124.248 46.2541Z" fill="#DABD00"/>
<path d="M122.748 49.3567C121.657 49.3567 120.77 48.4697 120.77 47.3795C120.77 46.2893 121.657 45.4023 122.748 45.4023C123.838 45.4023 124.725 46.2893 124.725 47.3795C124.725 48.4697 123.838 49.3567 122.748 49.3567ZM122.748 45.5409C121.734 45.5409 120.909 46.3657 120.909 47.3795C120.909 48.3934 121.734 49.2181 122.748 49.2181C123.761 49.2181 124.586 48.3934 124.586 47.3795C124.586 46.3657 123.761 45.5409 122.748 45.5409Z" fill="#DABD00"/>
<path d="M130.44 43.4211C129.35 43.4211 128.463 42.5341 128.463 41.4439C128.463 40.3538 129.35 39.4668 130.44 39.4668C131.53 39.4668 132.417 40.3538 132.417 41.4439C132.417 42.5341 131.53 43.4211 130.44 43.4211ZM130.44 39.6054C129.426 39.6054 128.601 40.4301 128.601 41.4439C128.601 42.4577 129.426 43.2825 130.44 43.2825C131.454 43.2825 132.278 42.4577 132.278 41.4439C132.278 40.4301 131.454 39.6054 130.44 39.6054Z" fill="#DABD00"/>
<path d="M138.528 55.6633C137.437 55.6633 136.55 54.7764 136.55 53.6862C136.55 52.596 137.437 51.709 138.528 51.709C139.618 51.709 140.505 52.596 140.505 53.6862C140.505 54.7764 139.618 55.6633 138.528 55.6633ZM138.528 51.8476C137.514 51.8476 136.689 52.6723 136.689 53.6862C136.689 54.7 137.514 55.5248 138.528 55.5248C139.541 55.5248 140.366 54.7 140.366 53.6862C140.366 52.6723 139.541 51.8476 138.528 51.8476Z" fill="#DABD00"/>
<path d="M146.281 51.2122C145.191 51.2122 144.304 50.3252 144.304 49.235C144.304 48.1448 145.191 47.2578 146.281 47.2578C147.371 47.2578 148.258 48.1448 148.258 49.235C148.258 50.3252 147.371 51.2122 146.281 51.2122ZM146.281 47.3964C145.267 47.3964 144.442 48.2211 144.442 49.235C144.442 50.2488 145.267 51.0736 146.281 51.0736C147.295 51.0736 148.119 50.2488 148.119 49.235C148.119 48.2211 147.295 47.3964 146.281 47.3964Z" fill="#DABD00"/>
<path d="M125.238 52.3184H120.493V65.3286H125.238V52.3184Z" fill="#DABD00"/>
<path d="M133.068 49.7266H128.323V65.3288H133.068V49.7266Z" fill="#DABD00"/>
<path d="M140.898 56.9219H136.153V65.3295H140.898V56.9219Z" fill="#DABD00"/>
<path d="M148.729 54.5078H143.984V65.3298H148.729V54.5078Z" fill="#DABD00"/>
<path d="M199.714 37.4622C196.648 37.9678 193.569 37.2492 191.044 35.4388C188.518 33.6285 186.849 30.9431 186.344 27.8774C185.838 24.8117 186.557 21.7325 188.367 19.2073C190.178 16.682 192.863 15.0129 195.929 14.5074C198.994 14.0018 202.073 14.7204 204.599 16.5308C207.124 18.3411 208.793 21.0265 209.299 24.0922C209.804 27.1579 209.086 30.2371 207.275 32.7623C205.465 35.2876 202.78 36.9567 199.714 37.4622ZM196.526 18.1316C192.196 18.8456 189.254 22.9495 189.968 27.2797C190.682 31.61 194.786 34.552 199.116 33.838C203.446 33.1239 206.388 29.0201 205.674 24.6898C204.96 20.3596 200.856 17.4175 196.526 18.1316Z" fill="#3E41B5"/>
<path d="M199.639 37.009C196.694 37.4945 193.737 36.8043 191.311 35.0655C188.885 33.3266 187.282 30.7472 186.797 27.8025C186.311 24.8577 187.001 21.9002 188.74 19.4746C190.479 17.0489 193.058 15.4457 196.003 14.9601C198.948 14.4746 201.905 15.1647 204.331 16.9036C206.757 18.6425 208.36 21.2219 208.846 24.1666C209.331 27.1114 208.641 30.0689 206.902 32.4945C205.163 34.9201 202.584 36.5234 199.639 37.009ZM196.451 17.6783C191.871 18.4336 188.76 22.7741 189.515 27.3542C190.27 31.9343 194.611 35.046 199.191 34.2907C203.771 33.5355 206.883 29.1949 206.127 24.6149C205.372 20.0348 201.032 16.923 196.451 17.6783Z" fill="#E2E3FF"/>
<path d="M198.619 17.6021C202.116 17.936 205.127 20.4519 205.993 23.9608L208.717 23.5116C208.115 20.8399 206.575 18.5111 204.331 16.9022C202.639 15.6892 200.688 14.9872 198.663 14.8379L198.619 17.6021Z" fill="#D87355"/>
<path d="M206.21 25.2754C206.578 29.605 203.55 33.5714 199.191 34.2902C196.902 34.6675 194.673 34.0794 192.922 32.825L191.139 34.9385C191.196 34.981 191.253 35.0233 191.311 35.0648C193.736 36.8037 196.694 37.4939 199.639 37.0083C202.584 36.5227 205.163 34.9195 206.902 32.4939C208.511 30.2496 209.221 27.5498 208.934 24.8262L206.21 25.2754Z" fill="#3E41B5"/>
<path d="M192.359 19.5805C193.487 18.6155 194.883 17.9363 196.451 17.6777C196.731 17.6315 197.01 17.6 197.288 17.5823L197.332 14.8203C196.89 14.8405 196.446 14.8865 196.003 14.9596C193.889 15.3081 191.964 16.2326 190.402 17.6236L192.359 19.5805Z" fill="#EFBC73"/>
<path d="M188.74 19.4731C187.001 21.8987 186.311 24.8563 186.796 27.801C187.197 30.2328 188.361 32.4148 190.12 34.0806L191.904 31.966C190.681 30.7603 189.815 29.1726 189.515 27.3527C189.096 24.8118 189.867 22.3449 191.419 20.5227L189.463 18.5664C189.208 18.8544 188.967 19.1565 188.74 19.4731Z" fill="#F7F1EB"/>
<path d="M197.786 28.7816C196.244 28.7816 194.989 27.5268 194.989 25.9845C194.989 24.4422 196.244 23.1875 197.786 23.1875C199.329 23.1875 200.583 24.4422 200.583 25.9845C200.583 27.5268 199.329 28.7816 197.786 28.7816ZM197.786 23.3261C196.321 23.3261 195.128 24.5187 195.128 25.9845C195.128 27.4504 196.321 28.643 197.786 28.643C199.252 28.643 200.445 27.4504 200.445 25.9845C200.445 24.5187 199.252 23.3261 197.786 23.3261Z" fill="#3E41B5"/>
<path d="M209.141 42.5234H185.891V70.5587H209.141V42.5234Z" fill="#F7F1EB"/>
<path d="M199.214 54.6576C199.194 54.6576 199.175 54.6492 199.161 54.6332L197.754 52.9799H195.513L193.558 54.6411C193.532 54.6638 193.492 54.663 193.467 54.6394L189.847 51.3138L187.618 52.2331C187.582 52.2475 187.542 52.2309 187.527 52.1954C187.513 52.1601 187.529 52.1196 187.565 52.1049L189.835 51.1688C189.859 51.1586 189.888 51.1636 189.908 51.1819L193.515 54.4959L195.443 52.8578C195.455 52.8472 195.471 52.8413 195.488 52.8413H197.786C197.807 52.8413 197.826 52.8503 197.839 52.8657L199.229 54.4998L200.447 53.8071L201.049 49.7695C201.052 49.7515 201.061 49.7354 201.076 49.7244L203.05 48.2384C203.067 48.226 203.088 48.2217 203.108 48.2263L205.75 48.8483L208.079 45.4035C208.101 45.3719 208.144 45.3635 208.176 45.385C208.207 45.4064 208.216 45.4495 208.194 45.4812L205.839 48.9656C205.823 48.9895 205.794 49.0008 205.765 48.9942L203.108 48.3688L201.182 49.8181L200.579 53.8609C200.576 53.882 200.563 53.9004 200.545 53.911L199.248 54.6486C199.237 54.6546 199.226 54.6576 199.214 54.6576Z" fill="#D87355"/>
<path d="M189.748 68.8697C189.71 68.8697 189.679 68.8387 189.679 68.8004V52.2763C189.679 52.238 189.71 52.207 189.748 52.207C189.786 52.207 189.817 52.238 189.817 52.2763V68.8004C189.817 68.8387 189.786 68.8697 189.748 68.8697Z" fill="#E2E3FF"/>
<path d="M193.514 68.8707C193.475 68.8707 193.444 68.8397 193.444 68.8014V56.2255C193.444 56.1872 193.475 56.1562 193.514 56.1562C193.552 56.1562 193.583 56.1872 193.583 56.2255V68.8014C193.583 68.8397 193.552 68.8707 193.514 68.8707Z" fill="#E2E3FF"/>
<path d="M199.107 68.8707C199.069 68.8707 199.038 68.8397 199.038 68.8014V56.2255C199.038 56.1872 199.069 56.1562 199.107 56.1562C199.145 56.1562 199.176 56.1872 199.176 56.2255V68.8014C199.176 68.8397 199.145 68.8707 199.107 68.8707Z" fill="#E2E3FF"/>
<path d="M203.165 68.8697C203.126 68.8697 203.095 68.8387 203.095 68.8004V49.1689C203.095 49.1306 203.126 49.0996 203.165 49.0996C203.203 49.0996 203.234 49.1306 203.234 49.1689V68.8004C203.234 68.8387 203.203 68.8697 203.165 68.8697Z" fill="#E2E3FF"/>
<path d="M205.76 68.8693C205.722 68.8693 205.691 68.8383 205.691 68.8V50.3017C205.691 50.2634 205.722 50.2324 205.76 50.2324C205.799 50.2324 205.83 50.2634 205.83 50.3017V68.8C205.83 68.8383 205.799 68.8693 205.76 68.8693Z" fill="#E2E3FF"/>
<path d="M181.911 24.8869C182.204 27.9802 181.275 31.0025 179.295 33.3972C177.315 35.7918 174.522 37.2722 171.428 37.5656C168.335 37.8589 165.313 36.9301 162.918 34.9502C160.523 32.9704 159.043 30.1765 158.75 27.0833C158.456 23.99 159.385 20.9676 161.365 18.573C163.345 16.1783 166.139 14.698 169.232 14.4047C172.325 14.1114 175.348 15.0401 177.742 17.02C180.137 18.9997 181.617 21.7936 181.911 24.8869ZM162.406 26.7364C162.821 31.1055 166.712 34.323 171.081 33.9087C175.45 33.4944 178.668 29.6028 178.254 25.2336C177.839 20.8645 173.948 17.647 169.579 18.0613C165.209 18.4756 161.992 22.3673 162.406 26.7364Z" fill="#3E41B5"/>
<path d="M181.453 24.9301C181.735 27.9013 180.843 30.8044 178.941 33.1045C177.04 35.4046 174.356 36.8266 171.385 37.1083C168.414 37.3901 165.511 36.498 163.21 34.5962C160.91 32.6945 159.488 30.0109 159.207 27.0397C158.925 24.0685 159.817 21.1655 161.719 18.8654C163.62 16.5652 166.304 15.1433 169.275 14.8615C172.246 14.5798 175.149 15.4719 177.45 17.3736C179.75 19.2754 181.172 21.9589 181.453 24.9301ZM161.949 26.7797C162.387 31.4009 166.504 34.804 171.125 34.3658C175.746 33.9276 179.149 29.8115 178.711 25.1903C178.273 20.5691 174.156 17.166 169.535 17.6042C164.914 18.0424 161.511 22.1585 161.949 26.7797Z" fill="#E2E3FF"/>
<path d="M162.024 24.6104C162.598 21.1448 165.315 18.3142 168.875 17.6921L168.614 14.9434C165.907 15.3603 163.478 16.736 161.719 18.8642C160.392 20.4687 159.557 22.3668 159.269 24.3764L162.024 24.6104Z" fill="#D87355"/>
<path d="M170.2 17.5666C174.545 17.4967 178.294 20.7913 178.711 25.1894C178.93 27.4985 178.189 29.6814 176.818 31.3425L178.803 33.2663C178.85 33.2125 178.896 33.1586 178.941 33.1037C180.843 30.8036 181.735 27.9005 181.453 24.9293C181.171 21.9581 179.75 19.2746 177.449 17.3728C175.321 15.6132 172.677 14.7188 169.94 14.818L170.2 17.5666Z" fill="#EFBC73"/>
<path d="M163.566 30.9915C162.681 29.8001 162.099 28.3607 161.949 26.7783C161.922 26.4957 161.91 26.215 161.911 25.9368L159.159 25.7031C159.149 26.1455 159.164 26.5911 159.206 27.0384C159.409 29.1711 160.198 31.1555 161.479 32.8091L163.566 30.9915Z" fill="#3E41B5"/>
<path d="M163.21 34.5947C165.51 36.4964 168.413 37.3885 171.385 37.1068C173.838 36.8741 176.095 35.8633 177.878 34.2232L175.891 32.2984C174.604 33.4349 172.961 34.1901 171.125 34.3643C168.561 34.6074 166.153 33.6677 164.442 31.9941L162.355 33.811C162.625 34.0847 162.91 34.3465 163.21 34.5947Z" fill="#DABD00"/>
<path d="M170.329 28.817C170.265 28.817 170.2 28.8148 170.135 28.8103C169.39 28.7589 168.709 28.4202 168.218 27.8568C167.728 27.2934 167.486 26.5727 167.537 25.8274C167.588 25.0819 167.927 24.4012 168.49 23.9106C169.054 23.42 169.775 23.1781 170.52 23.2294C171.265 23.2808 171.946 23.6194 172.437 24.1828C172.927 24.7462 173.169 25.467 173.118 26.2123C173.016 27.6858 171.785 28.8169 170.329 28.817ZM170.323 23.3613C169.682 23.3613 169.07 23.5899 168.581 24.0151C168.046 24.4815 167.724 25.1284 167.675 25.8368C167.626 26.5453 167.856 27.2303 168.323 27.7659C168.789 28.3013 169.436 28.6231 170.144 28.672C171.606 28.7734 172.879 27.6653 172.98 26.2028C173.029 25.4943 172.799 24.8094 172.332 24.2738C171.866 23.7384 171.219 23.4166 170.51 23.3677C170.51 23.3677 170.51 23.3677 170.51 23.3677C170.448 23.3634 170.386 23.3613 170.323 23.3613Z" fill="#3E41B5"/>
<path d="M181.65 42.5234H158.4V70.5587H181.65V42.5234Z" fill="#F7F1EB"/>
<path d="M166.023 54.6564H162.257C162.237 54.6564 162.218 54.6479 162.205 54.6331L160.048 52.2138C160.023 52.1852 160.025 52.1414 160.054 52.116C160.082 52.0906 160.126 52.0929 160.152 52.1216L162.288 54.5178H165.997L167.952 52.8566C167.964 52.8459 167.98 52.8401 167.996 52.8401H170.254L171.811 49.9809L172.759 47.7898C172.772 47.7597 172.804 47.7429 172.836 47.7494L174.079 48.0053L175.61 48.2239L178.306 48.8579C178.314 48.8598 178.322 48.8632 178.328 48.8678L180.684 50.4474C180.716 50.4688 180.724 50.5119 180.703 50.5436C180.682 50.5754 180.639 50.584 180.607 50.5625L178.262 48.99L175.585 48.3599L174.055 48.1418L172.863 47.8965L171.935 50.0416L170.356 52.9425C170.344 52.9647 170.32 52.9786 170.295 52.9786H168.022L166.067 54.6398C166.055 54.6505 166.039 54.6564 166.023 54.6564Z" fill="#EFBC73"/>
<path d="M162.257 68.8707C162.219 68.8707 162.188 68.8397 162.188 68.8014V56.2255C162.188 56.1872 162.219 56.1562 162.257 56.1562C162.295 56.1562 162.326 56.1872 162.326 56.2255V68.8014C162.326 68.8397 162.295 68.8707 162.257 68.8707Z" fill="#E2E3FF"/>
<path d="M166.023 68.8707C165.984 68.8707 165.953 68.8397 165.953 68.8014V56.2255C165.953 56.1872 165.984 56.1562 166.023 56.1562C166.061 56.1562 166.092 56.1872 166.092 56.2255V68.8014C166.092 68.8397 166.061 68.8707 166.023 68.8707Z" fill="#E2E3FF"/>
<path d="M170.373 68.8697C170.335 68.8697 170.304 68.8387 170.304 68.8004V53.958C170.304 53.9196 170.335 53.8887 170.373 53.8887C170.411 53.8887 170.442 53.9196 170.442 53.958V68.8004C170.442 68.8387 170.411 68.8697 170.373 68.8697Z" fill="#E2E3FF"/>
<path d="M175.674 68.8697C175.635 68.8697 175.604 68.8387 175.604 68.8004V49.1689C175.604 49.1306 175.635 49.0996 175.674 49.0996C175.712 49.0996 175.743 49.1306 175.743 49.1689V68.8004C175.743 68.8387 175.712 68.8697 175.674 68.8697Z" fill="#E2E3FF"/>
<path d="M178.269 68.8693C178.231 68.8693 178.2 68.8383 178.2 68.8V50.3017C178.2 50.2634 178.231 50.2324 178.269 50.2324C178.308 50.2324 178.339 50.2634 178.339 50.3017V68.8C178.339 68.8383 178.308 68.8693 178.269 68.8693Z" fill="#E2E3FF"/>
<path d="M152.023 31.175H116.056C116.018 31.175 115.987 31.144 115.987 31.1057V21.8505C115.987 21.8122 116.018 21.7812 116.056 21.7812H152.023C152.062 21.7812 152.093 21.8122 152.093 21.8505V31.1057C152.093 31.144 152.062 31.175 152.023 31.175ZM116.126 31.0364H151.954V21.9198H116.126V31.0364Z" fill="#DABD00"/>
<path d="M147.577 18.8033C146.043 18.3384 145.862 16.0716 144.582 16.1039C141.414 16.1838 139.976 26.0719 137.573 25.9414C135.59 25.8336 135.265 19.0244 132.969 18.8034C130.517 18.5674 128.788 26.1231 126.141 25.9414C123.816 25.7818 123.908 19.8709 119.789 17.8922C119.097 17.5597 118.372 17.3798 117.644 17.3085V29.1906H150.435V18.0036C149.198 18.8537 148.277 19.0154 147.577 18.8033Z" fill="#DABD00"/>
<path d="M96.6834 34.1845C96.2745 34.1845 95.8381 33.8136 95.6397 33.2588C95.4055 32.6039 95.59 31.9371 96.0508 31.7724C96.279 31.6907 96.5373 31.7416 96.7777 31.9157C97.01 32.0837 97.1995 32.3484 97.3112 32.661C97.423 32.9736 97.4444 33.2984 97.3714 33.5757C97.2957 33.8627 97.1283 34.0658 96.9002 34.1474C96.8298 34.1725 96.7571 34.1845 96.6834 34.1845ZM96.2707 31.88C96.2118 31.88 96.1544 31.8896 96.0997 31.9092C95.7143 32.0469 95.5693 32.6305 95.7765 33.2098C95.9837 33.7892 96.4662 34.1478 96.8511 34.0105C97.0329 33.9455 97.1677 33.778 97.2307 33.5386C97.2963 33.2894 97.2763 32.9952 97.1744 32.71C97.0724 32.4247 96.9012 32.1845 96.6925 32.0334C96.5524 31.9321 96.4073 31.88 96.2707 31.88Z" fill="#363E44"/>
<path d="M96.1486 32.8513C95.5261 31.1056 95.0094 30.1429 93.9857 29.6632C92.6099 29.0185 91.1355 29.8088 90.9828 29.8937C90.8853 29.9478 89.4531 30.6343 89.2148 32.2145C88.9793 33.7751 89.5786 35.4058 90.8253 36.35V41.5198C90.8253 42.6392 91.7327 43.5466 92.8521 43.5466H93.1057C94.225 43.5466 95.1324 42.6392 95.1324 41.5198V37.5075C95.8425 37.4482 96.4043 37.2424 96.6294 36.8827C97.0327 36.2384 96.8817 34.9071 96.1486 32.8513Z" fill="white"/>
<path d="M96.2793 26.6777C95.8649 26.7456 95.4505 26.8135 95.036 26.8814C95.0607 27.0301 95.0827 27.5868 94.8123 28.079C94.7221 27.4966 94.5003 27.1916 94.3281 26.9973C92.8128 27.2454 91.2975 27.4936 89.7823 27.7417C89.8835 27.8853 90.1324 28.2802 90.1219 28.8283C90.106 29.6553 89.5124 30.1565 89.4201 30.2318C88.4099 31.3215 88.0653 32.8497 88.5372 34.1933C89.1057 35.812 90.5967 36.415 90.8236 36.5024C91.1487 36.4561 91.4809 36.4034 91.8196 36.3439C92.4689 36.2297 93.0882 36.0997 93.6759 35.959C93.1156 35.7743 92.8109 35.2687 92.7477 34.7366C92.6786 34.1536 93.1087 33.5029 93.7143 33.4802C94.0988 33.4658 94.4161 33.667 94.699 34.3008C94.9254 34.18 95.1926 34.0197 95.419 33.899L94.5135 32.1106C94.6079 32.0644 96.7606 30.9661 96.8677 28.8055C96.9177 27.8008 96.5021 27.0289 96.2793 26.6777Z" fill="#363E44"/>
<path d="M94.7438 33.8223C94.719 33.8223 94.6949 33.8096 94.6813 33.7869C94.6607 33.7524 94.6719 33.7078 94.7064 33.6872L97.0199 32.3032C97.0543 32.2827 97.099 32.2939 97.1196 32.3283C97.1402 32.3628 97.129 32.4074 97.0945 32.428L94.7811 33.812C94.7694 33.8189 94.7565 33.8223 94.7438 33.8223Z" fill="#363E44"/>
<path d="M95.1643 37.5254C95.1251 37.5254 95.0928 37.494 95.0917 37.4546L95.0691 36.6019C95.068 36.5618 95.0997 36.5284 95.1399 36.5273C95.1406 36.5273 95.1412 36.5273 95.1419 36.5273C95.1811 36.5273 95.2134 36.5587 95.2145 36.5981L95.2371 37.4508C95.2382 37.4909 95.2064 37.5244 95.1663 37.5254C95.1657 37.5254 95.165 37.5254 95.1643 37.5254Z" fill="#363E44"/>
<path d="M94.0019 34.9751C93.9822 34.9751 93.9626 34.9671 93.9483 34.9514C93.8515 34.8457 93.7652 34.7479 93.6756 34.6463C93.6017 34.5627 93.5258 34.4765 93.4396 34.3811C93.4127 34.3513 93.4151 34.3054 93.4449 34.2785C93.4746 34.2517 93.5206 34.2539 93.5475 34.2837C93.634 34.3795 93.7104 34.4661 93.7846 34.5502C93.8737 34.6511 93.9594 34.7483 94.0557 34.8534C94.0827 34.883 94.0807 34.929 94.0511 34.9561C94.0371 34.9687 94.0195 34.9751 94.0019 34.9751Z" fill="#363E44"/>
<path d="M102.732 57.525C103.563 59.6398 110.534 108.933 111.35 111.812C107.411 111.812 103.472 111.812 99.5337 111.812C99.0335 110.997 94.4486 80.7767 94.1514 79.112C93.9013 80.0778 90.9444 110.813 90.6943 111.779C87.0489 111.779 83.2597 111.779 79.6144 111.779C79.8149 108.6 84.0929 58.4539 84.7549 56.5742C90.1861 56.8912 97.3005 57.208 102.732 57.525Z" fill="#363E44"/>
<path d="M105.972 41.9746C113.885 43.6507 117.952 45.5695 117.073 48.5128C116.563 50.2201 111.815 51.0614 105.501 50.0697C105.641 47.5174 105.734 45.0589 105.972 41.9746Z" fill="white"/>
<path d="M80.3588 43C70.7852 45.8334 66.3758 48.163 67.6838 51.2101C68.4426 52.9777 74.0133 53.6925 81.679 51.803C81.3085 49.0793 80.8907 46.2823 80.3588 43Z" fill="white"/>
<path d="M74.9246 44.04C74.9246 44.04 84.0251 40.4125 91.5634 40.1409C97.9882 39.9094 107.919 41.6032 107.919 41.6032L108.021 52.4784L104.127 52.0895L105.279 68.4353L82.098 69.6125L81.3086 55.0157L79.6147 55.8477L74.9246 44.04Z" fill="#D87355"/>
<path d="M109.832 45.5717C109.71 43.5855 109.628 39.0521 109.764 35.5886C109.907 31.9511 110.647 26.6015 111.394 26.7147C111.82 26.7791 111.869 27.5296 111.869 29.5443C111.971 29.4425 112.322 29.2048 112.707 29.3293C113.277 29.5136 113.288 30.0201 113.307 30.065C113.339 30.0277 113.692 29.6349 114.094 29.6937C114.547 29.7599 114.801 30.065 114.894 30.4122C114.975 30.3219 115.31 30.0197 115.695 30.0877C116.091 30.1576 116.454 30.5179 116.431 30.9367C116.389 31.7049 116.222 33.9858 116.276 35.1057C116.382 37.3096 117.81 45.0852 117.121 48.3109C114.684 46.8244 112.269 47.0583 109.832 45.5717Z" fill="white"/>
<path d="M114.281 44.6277C114.27 44.6277 114.259 44.6253 114.249 44.6202C113.091 44.051 111.593 43.5204 109.67 42.9984C109.632 42.9879 109.609 42.948 109.619 42.9092C109.63 42.8705 109.67 42.8474 109.708 42.8581C111.64 43.3825 113.147 43.9163 114.313 44.4897C114.349 44.5074 114.364 44.551 114.346 44.587C114.333 44.6128 114.307 44.6277 114.281 44.6277Z" fill="#363E44"/>
<path d="M111.177 30.7594C111.172 30.7594 111.167 30.7589 111.162 30.7578L110.565 30.6361C110.526 30.6281 110.5 30.5897 110.508 30.5503C110.516 30.511 110.555 30.4857 110.594 30.4937L111.191 30.6154C111.231 30.6234 111.256 30.6619 111.248 30.7012C111.241 30.7356 111.211 30.7594 111.177 30.7594Z" fill="#363E44"/>
<path d="M112.693 31.066C112.688 31.066 112.683 31.0654 112.679 31.0644L112.081 30.9427C112.042 30.9347 112.016 30.8964 112.025 30.857C112.033 30.8176 112.071 30.7923 112.11 30.8003L112.708 30.922C112.747 30.9299 112.772 30.9684 112.764 31.0077C112.757 31.0423 112.727 31.066 112.693 31.066Z" fill="#363E44"/>
<path d="M114.24 31.3609C114.235 31.3609 114.23 31.3604 114.225 31.3594L113.628 31.2377C113.589 31.2297 113.563 31.1913 113.572 31.1519C113.58 31.1125 113.618 31.0872 113.657 31.0952L114.255 31.217C114.294 31.225 114.319 31.2635 114.311 31.3028C114.304 31.3372 114.274 31.3609 114.24 31.3609Z" fill="#363E44"/>
<path d="M115.638 31.6577C115.633 31.6577 115.628 31.6572 115.623 31.6562L115.026 31.5345C114.986 31.5266 114.961 31.4881 114.969 31.4488C114.977 31.4094 115.015 31.3841 115.055 31.3921L115.652 31.5138C115.691 31.5217 115.717 31.5602 115.709 31.5995C115.702 31.634 115.671 31.6577 115.638 31.6577Z" fill="#363E44"/>
<path d="M75.2965 48.8645C75.2967 48.8645 75.2969 48.8644 75.297 48.8642C76.3289 41.6169 77.2001 36.4948 77.4069 34.903C77.4286 34.7363 77.4681 34.4422 77.4141 34.0603C77.2137 32.6456 76.049 32.2928 75.1595 30.9012C74.1502 29.3223 74.4758 27.8618 74.0014 27.7991C73.6713 27.7555 73.3934 28.2718 73.2562 29.4457H73.256C73.2577 28.5418 73.2065 27.316 72.707 27.3164C72.1303 27.3478 72.0213 28.7952 71.9981 29.674C72.0262 28.6102 71.7228 28.0362 71.4444 28.1059C71.0061 28.2156 70.7923 29.0354 70.8098 30.4427H70.8097C70.5262 29.4744 70.3131 29.2816 70.082 29.4033C69.66 29.6253 69.6962 30.782 69.8849 31.7997C70.0973 32.9453 70.6596 33.7601 71.0262 34.2654C71.0263 34.2656 71.0264 34.2657 71.0263 34.2659C69.7773 39.2668 67.0227 47.9545 67.4752 50.4784C67.5063 50.6517 72.5701 48.9116 75.2965 48.8645Z" fill="white"/>
<path d="M77.4068 34.9027C77.9674 32.0963 77.8929 30.4107 77.5572 30.2453C76.9102 29.9267 76.4207 31.5566 75.9221 33.1013C76.4703 33.6317 76.8587 34.3721 77.4068 34.9027Z" fill="white"/>
<path d="M75.3675 48.0456C75.3641 48.0456 75.3606 48.0454 75.3571 48.0449C75.3173 48.0392 75.2897 48.0023 75.2954 47.9625C75.4693 46.7549 75.6533 45.5049 75.8422 44.2474C75.8483 44.2078 75.8858 44.1808 75.925 44.1862C75.9647 44.1922 75.9921 44.2293 75.9861 44.269C75.7971 45.5263 75.6132 46.7759 75.4394 47.9833C75.4342 48.0195 75.4031 48.0456 75.3675 48.0456Z" fill="#363E44"/>
<path d="M73.6755 30.9526C73.6511 30.9526 73.6273 30.9403 73.6135 30.918C73.4832 30.7066 73.3806 30.479 73.3086 30.2415C73.2341 29.996 73.1924 29.7414 73.1851 29.4849C73.1839 29.4448 73.2156 29.4113 73.2558 29.4102C73.2965 29.411 73.3293 29.4405 73.3305 29.4808C73.3375 29.7243 73.3769 29.9662 73.4477 30.1993C73.5161 30.4249 73.6136 30.641 73.7373 30.8418C73.7583 30.876 73.7477 30.9208 73.7135 30.9418C73.7017 30.9491 73.6885 30.9526 73.6755 30.9526Z" fill="#363E44"/>
<path d="M72.3597 31.3777C72.3326 31.3777 72.3067 31.3626 72.2942 31.3367C72.17 31.0796 72.0797 30.807 72.0258 30.5264C71.97 30.2365 71.9534 29.9395 71.9762 29.6434C71.9793 29.6033 72.0123 29.5726 72.0543 29.5765C72.0943 29.5796 72.1242 29.6145 72.1212 29.6546C72.0993 29.9377 72.1153 30.2217 72.1686 30.4989C72.2201 30.767 72.3064 31.0276 72.425 31.2734C72.4425 31.3095 72.4274 31.353 72.3912 31.3704C72.3811 31.3753 72.3702 31.3777 72.3597 31.3777Z" fill="#363E44"/>
<path d="M71.4052 32.2439C71.3816 32.2439 71.3585 32.2325 71.3445 32.2114C71.176 31.9575 71.041 31.6825 70.9431 31.394C70.8418 31.0957 70.7808 30.7846 70.7616 30.4696C70.7592 30.4296 70.7897 30.3951 70.8298 30.3926C70.8706 30.3912 70.9043 30.4208 70.9068 30.4608C70.9252 30.7629 70.9838 31.0611 71.0809 31.3473C71.1747 31.6238 71.3043 31.8875 71.4658 32.131C71.488 32.1644 71.4789 32.2096 71.4455 32.2317C71.4329 32.24 71.4189 32.2439 71.4052 32.2439Z" fill="#363E44"/>
<path d="M253.053 74.8496H228.232V96.1051H253.053V74.8496Z" fill="#DABD00"/>
<path d="M250.087 71.8848H225.267V93.1402H250.087V71.8848Z" fill="#E2E3FF"/>
<path d="M275.224 74.8791H255.85C255.806 74.8791 255.77 74.8433 255.77 74.7989C255.77 74.7546 255.806 74.7188 255.85 74.7188H275.224C275.269 74.7188 275.305 74.7546 275.305 74.7989C275.305 74.8433 275.269 74.8791 275.224 74.8791Z" fill="#3E41B5"/>
<path d="M271.109 79.4318H255.85C255.806 79.4318 255.77 79.396 255.77 79.3517C255.77 79.3073 255.806 79.2715 255.85 79.2715H271.109C271.154 79.2715 271.19 79.3073 271.19 79.3517C271.19 79.396 271.154 79.4318 271.109 79.4318Z" fill="#3E41B5"/>
<path d="M273.681 83.5549H255.85C255.806 83.5549 255.77 83.5191 255.77 83.4747C255.77 83.4304 255.806 83.3945 255.85 83.3945H273.681C273.726 83.3945 273.761 83.4304 273.761 83.4747C273.761 83.5191 273.725 83.5549 273.681 83.5549Z" fill="#3E41B5"/>
<path d="M268.117 87.8928H255.85C255.806 87.8928 255.77 87.8569 255.77 87.8126C255.77 87.7683 255.806 87.7324 255.85 87.7324H268.117C268.161 87.7324 268.197 87.7683 268.197 87.8126C268.197 87.8569 268.161 87.8928 268.117 87.8928Z" fill="#3E41B5"/>
<path d="M234.755 78.3036C235.144 78.1088 235.548 77.9734 235.956 77.8937L235.802 75.6836C235.111 75.7901 234.426 76.0034 233.769 76.3322C232.172 77.1307 231.019 78.468 230.42 80.0144L232.544 80.6399C232.969 79.6598 233.727 78.8177 234.755 78.3036Z" fill="#EFBC73"/>
<path d="M232.423 84.086C232.15 83.3191 232.09 82.5166 232.217 81.7506L230.092 81.125C229.826 82.4138 229.925 83.7858 230.441 85.0769L232.423 84.086Z" fill="#EFBC73"/>
<path d="M243.279 79.9512L241.298 80.9421C242.081 83.1484 241.113 85.6512 238.966 86.7247C236.82 87.7982 234.236 87.0721 232.94 85.1218L230.959 86.1128C232.807 89.1481 236.718 90.3137 239.952 88.6962C243.186 87.0786 244.6 83.2505 243.279 79.9512Z" fill="#D87355"/>
<path d="M237.112 77.8136C238.562 77.8936 239.941 78.6431 240.78 79.9059L242.761 78.915C241.499 76.8406 239.273 75.6398 236.957 75.6035L237.112 77.8136Z" fill="#EFBC73"/>
<path d="M253.735 17.1902L252.155 13.1949L250.256 13.9459C249.845 13.3978 249.371 12.9108 248.848 12.4916L249.66 10.6173L245.718 8.90937L244.906 10.7836C244.242 10.6887 243.562 10.6759 242.881 10.7507L242.13 8.85156L238.135 10.4314L238.886 12.3305C238.338 12.7417 237.851 13.216 237.432 13.739L235.558 12.927L233.85 16.8693L235.724 17.6813C235.629 18.3448 235.616 19.0245 235.691 19.7056L233.792 20.4566L235.372 24.4519L237.271 23.7009C237.682 24.2489 238.156 24.736 238.679 25.1552L237.867 27.0294L241.809 28.7374L242.621 26.8631C243.285 26.9581 243.965 26.9709 244.646 26.8961L245.397 28.7952L249.392 27.2154L248.641 25.3162C249.189 24.9051 249.676 24.4308 250.095 23.9078L251.97 24.7198L253.677 20.7775L251.803 19.9655C251.898 19.302 251.911 18.6223 251.836 17.9413L253.735 17.1902ZM245.408 22.9817C243.111 23.8898 240.513 22.7642 239.605 20.4676C238.697 18.1711 239.822 15.5731 242.119 14.6649C244.416 13.7568 247.014 14.8824 247.922 17.179C248.83 19.4755 247.704 22.0735 245.408 22.9817Z" fill="#E2E3FF"/>
</g>
<defs>
<clipPath id="clip0_535_11307">
<rect y="0.583984" width="310" height="103.333" rx="6.2" fill="white"/>
</clipPath>
</defs>
</svg>
