<svg width="310" height="104" viewBox="0 0 310 104" fill="none" xmlns="http://www.w3.org/2000/svg">
<g clip-path="url(#clip0_535_10737)">
<rect y="0.0839844" width="310" height="103.333" rx="6.2" fill="#DE7E88"/>
<path d="M155.129 168.001C219.404 168.001 271.508 115.896 271.508 51.6214C271.508 -12.6531 219.404 -64.7578 155.129 -64.7578C90.8547 -64.7578 38.75 -12.6531 38.75 51.6214C38.75 115.896 90.8547 168.001 155.129 168.001Z" fill="#3C77BE"/>
<path d="M141.973 114.3C179.436 114.3 209.805 83.9309 209.805 46.4685C209.805 9.00604 179.436 -21.3633 141.973 -21.3633C104.511 -21.3633 74.1417 9.00604 74.1417 46.4685C74.1417 83.9309 104.511 114.3 141.973 114.3Z" fill="#3C77BE"/>
<path d="M90.4096 18.723L91.2796 18.3478C91.5404 18.7384 91.8294 19.1029 92.1422 19.4402L91.5768 20.1996L94.1485 22.1147L94.7153 21.3535C95.132 21.5583 95.5643 21.7301 96.0079 21.8672L95.8976 22.8097L99.0824 23.1824L99.1924 22.242C99.6515 22.2115 100.112 22.1448 100.569 22.0398L100.945 22.9098L103.889 21.6401L103.514 20.7701C103.904 20.5093 104.269 20.2204 104.606 19.9074L105.365 20.4729L107.281 17.9011L106.519 17.3343C106.724 16.9176 106.896 16.4853 107.033 16.0417L107.976 16.152L108.348 12.9672L107.408 12.8572C107.377 12.3981 107.311 11.9378 107.206 11.4801L108.076 11.1049L106.806 8.16049L105.936 8.53568C105.675 8.14517 105.386 7.7807 105.073 7.4434L105.639 6.68399L103.067 4.76886L102.5 5.53C102.084 5.3252 101.651 5.15344 101.208 5.01633L101.318 4.07379L98.1331 3.70117L98.0231 4.64156C97.564 4.67202 97.1037 4.73881 96.646 4.84379L96.2708 3.97378L93.3264 5.24345L93.7016 6.11346C93.3111 6.37422 92.9466 6.66316 92.6094 6.97616L91.8499 6.41066L89.9349 8.98244L90.696 9.5492C90.4912 9.96598 90.3194 10.3982 90.1823 10.8419L89.2397 10.7316L88.8672 13.9164L89.8076 14.0264C89.8381 14.4855 89.9048 14.9458 90.0098 15.4036L89.1398 15.7787L90.4096 18.723ZM96.7502 8.71403C99.226 7.73887 102.073 8.87023 103.204 11.2788C104.453 13.9385 103.199 17.0928 100.465 18.1696C97.9897 19.1447 95.1428 18.0134 94.0117 15.6048C92.7627 12.9451 94.0163 9.79087 96.7502 8.71403Z" fill="#F7F1EB"/>
<path d="M98.6074 20.5891C96.4532 20.5891 94.3537 19.6145 92.969 17.8343C92.9242 17.7768 92.9346 17.6939 92.9921 17.6492C93.0494 17.6045 93.1325 17.6147 93.1773 17.6723C95.1 20.1439 98.4539 21.003 101.333 19.7614C103.021 19.0335 104.325 17.6918 105.004 15.9834C105.683 14.2751 105.655 12.4046 104.927 10.7166C103.59 7.61389 100.121 5.92337 96.8596 6.78434C96.7891 6.80295 96.7168 6.76088 96.6983 6.69044C96.6797 6.62 96.7217 6.54776 96.7922 6.52915C100.179 5.6352 103.781 7.39042 105.17 10.612C105.926 12.3648 105.954 14.307 105.249 16.0809C104.544 17.8548 103.19 19.2479 101.438 20.0037C100.522 20.3988 99.559 20.5891 98.6074 20.5891Z" fill="white"/>
<path d="M238.601 14.9855C238.594 14.9855 238.588 14.9851 238.582 14.9843L234.637 14.5229C234.547 14.5124 234.483 14.4312 234.493 14.3415L234.614 13.3082C234.146 13.1572 233.685 12.9741 233.241 12.7626L232.62 13.5971C232.594 13.6319 232.556 13.6549 232.513 13.6612C232.47 13.6674 232.426 13.6565 232.391 13.6306L229.206 11.2584C229.133 11.2045 229.118 11.1021 229.172 11.0297L229.792 10.1974C229.461 9.83194 229.154 9.44267 228.876 9.03723L227.922 9.44831C227.839 9.48404 227.743 9.44586 227.707 9.36298L226.135 5.71585C226.118 5.67604 226.117 5.63104 226.133 5.59071C226.149 5.55046 226.18 5.51814 226.22 5.50102L227.174 5.08987C227.07 4.60912 226.998 4.11829 226.959 3.62723L225.928 3.50654C225.839 3.49601 225.774 3.41491 225.785 3.32521L226.246 -0.619637C226.251 -0.662709 226.273 -0.701922 226.307 -0.728832C226.341 -0.755743 226.385 -0.768125 226.428 -0.762936L227.461 -0.642098C227.612 -1.10988 227.795 -1.57039 228.006 -2.01475L227.172 -2.63613C227.137 -2.662 227.114 -2.70062 227.108 -2.74355C227.102 -2.78647 227.113 -2.83006 227.138 -2.86483L229.511 -6.05048C229.537 -6.08525 229.575 -6.1083 229.618 -6.1146C229.661 -6.12083 229.705 -6.10986 229.739 -6.08398L230.572 -5.46423C230.937 -5.79501 231.326 -6.10245 231.732 -6.38059L231.321 -7.33402C231.285 -7.4169 231.323 -7.51305 231.406 -7.54885L235.053 -9.12159C235.136 -9.1574 235.232 -9.11922 235.268 -9.03626L235.679 -8.08284C236.16 -8.18677 236.651 -8.25883 237.142 -8.2976L237.262 -9.3282C237.267 -9.37127 237.289 -9.41049 237.323 -9.4374C237.357 -9.46431 237.401 -9.47669 237.444 -9.4715L241.389 -9.00995C241.478 -8.99942 241.542 -8.91832 241.532 -8.82861L241.411 -7.79528C241.879 -7.64434 242.34 -7.46131 242.784 -7.24973L243.405 -8.08425C243.431 -8.11902 243.469 -8.14207 243.512 -8.14837C243.555 -8.15475 243.599 -8.1437 243.634 -8.11775L246.819 -5.74557C246.892 -5.69167 246.907 -5.5893 246.853 -5.51687L246.233 -4.68458C246.564 -4.3194 246.871 -3.93012 247.149 -3.52447L248.103 -3.93561C248.143 -3.95281 248.188 -3.95347 248.228 -3.93739C248.268 -3.92137 248.301 -3.89002 248.318 -3.85021L249.89 -0.20301C249.926 -0.120129 249.888 -0.0239773 249.805 0.0118284L248.852 0.423044C248.955 0.903278 249.027 1.39411 249.066 1.88569L250.097 2.0063C250.14 2.01135 250.179 2.03329 250.206 2.06724C250.233 2.10127 250.245 2.14456 250.24 2.18756L249.779 6.13248C249.768 6.22218 249.687 6.28623 249.597 6.27585L248.564 6.15502C248.413 6.62302 248.23 7.08361 248.019 7.52767L248.853 8.14905C248.888 8.17492 248.911 8.21354 248.917 8.25647C248.924 8.29939 248.912 8.34298 248.887 8.37775L246.515 11.5634C246.489 11.5982 246.45 11.6213 246.407 11.6275C246.364 11.6337 246.321 11.6229 246.286 11.5969L245.454 10.9772C245.088 11.3079 244.699 11.6154 244.293 11.8934L244.705 12.8469C244.74 12.9297 244.702 13.0259 244.619 13.0617L240.972 14.6345C240.932 14.6517 240.887 14.6524 240.847 14.6363C240.807 14.6203 240.774 14.5889 240.757 14.5491L240.346 13.5957C239.865 13.6996 239.375 13.7717 238.883 13.8104L238.763 14.841C238.758 14.884 238.736 14.9233 238.702 14.9502C238.673 14.9731 238.637 14.9855 238.601 14.9855ZM234.837 14.2172L238.457 14.6407L238.574 13.6383C238.584 13.56 238.647 13.4995 238.726 13.4942C239.29 13.4567 239.856 13.3737 240.406 13.2475C240.482 13.2297 240.561 13.2696 240.593 13.3421L240.993 14.2697L244.34 12.8263L243.94 11.8988C243.908 11.8263 243.933 11.7419 243.999 11.6981C244.468 11.3848 244.916 11.0308 245.332 10.6456C245.39 10.592 245.477 10.5874 245.54 10.6344L246.35 11.2371L248.527 8.31369L247.715 7.70929C247.652 7.66222 247.631 7.57689 247.666 7.50617C247.915 6.99917 248.126 6.46845 248.293 5.92884C248.316 5.85359 248.389 5.80548 248.468 5.81474L249.473 5.93232L249.897 2.31203L248.894 2.19475C248.816 2.18563 248.755 2.12188 248.75 2.0433C248.713 1.47811 248.63 0.912843 248.503 0.363147C248.486 0.28627 248.526 0.207763 248.598 0.176478L249.526 -0.223543L248.082 -3.57058L247.155 -3.17056C247.082 -3.13927 246.998 -3.16418 246.954 -3.22986C246.64 -3.69957 246.286 -4.14785 245.902 -4.56248C245.848 -4.62023 245.843 -4.70808 245.89 -4.77124L246.493 -5.58084L243.57 -7.75776L242.965 -6.94608C242.918 -6.88292 242.833 -6.86216 242.762 -6.89701C242.255 -7.14624 241.724 -7.35707 241.185 -7.52387C241.11 -7.54715 241.062 -7.62077 241.071 -7.69898L241.188 -8.70415L237.568 -9.12774L237.451 -8.12524C237.442 -8.04696 237.378 -7.98639 237.299 -7.98112C236.735 -7.94369 236.17 -7.86066 235.619 -7.73441C235.543 -7.71654 235.464 -7.7565 235.433 -7.829L235.033 -8.75656L231.686 -7.31326L232.086 -6.38563C232.117 -6.31321 232.092 -6.22877 232.026 -6.18495C231.557 -5.87159 231.109 -5.51753 230.694 -5.13241C230.636 -5.07874 230.548 -5.07415 230.485 -5.12115L229.675 -5.72392L227.498 -2.80048L228.31 -2.19608C228.373 -2.149 228.394 -2.06367 228.359 -1.99295C228.11 -1.48551 227.899 -0.954866 227.732 -0.415622C227.709 -0.340377 227.635 -0.292338 227.557 -0.301531L226.552 -0.419106L226.129 3.20111L227.131 3.31846C227.209 3.32758 227.27 3.39133 227.275 3.46999C227.313 4.03451 227.396 4.59978 227.522 5.15014C227.539 5.22702 227.5 5.30552 227.427 5.33673L226.5 5.73668L227.943 9.08364L228.871 8.6837C228.943 8.65241 229.027 8.67732 229.071 8.743C229.385 9.21234 229.739 9.6607 230.124 10.0756C230.177 10.1334 230.182 10.2212 230.135 10.2844L229.532 11.094L232.456 13.2709L233.06 12.4592C233.107 12.396 233.193 12.3755 233.263 12.4101C233.77 12.6592 234.301 12.8701 234.841 13.037C234.916 13.0603 234.964 13.1339 234.955 13.2122L234.837 14.2172ZM238.022 9.21227C235.588 9.21227 233.262 7.82746 232.172 5.50524C231.404 3.87061 231.348 2.04774 232.013 0.372485C232.679 -1.30285 233.971 -2.58995 235.652 -3.25181C238.809 -4.49539 242.412 -3.06343 243.854 0.00775146C244.621 1.64254 244.677 3.4654 244.012 5.14073C243.346 6.81599 242.054 8.10301 240.374 8.76487C239.604 9.06808 238.807 9.21227 238.022 9.21227ZM235.772 -2.94771C234.176 -2.31936 232.949 -1.09735 232.317 0.493174C231.685 2.08362 231.739 3.81427 232.467 5.36632C233.837 8.28197 237.257 9.64127 240.254 8.4607C241.849 7.83235 243.076 6.61042 243.708 5.01997C244.34 3.42944 244.287 1.69873 243.558 0.146679C242.189 -2.7689 238.768 -4.12828 235.772 -2.94771Z" fill="#DE7E88"/>
<path d="M144.215 90.9065L147.666 68.1366L154.929 90.7599H169.99L157.624 47.4824L136.086 51.2359L130.777 88.0379L144.215 90.9065Z" fill="#363E44"/>
<path d="M125.17 36.924C125.17 36.9237 122.902 23.6123 122.458 21.4998C122.412 21.2786 122.332 20.8878 122.094 20.4271C121.212 18.7198 119.577 18.7886 117.831 17.4165C115.849 15.8597 115.615 13.8612 114.985 13.9921C114.547 14.083 114.423 14.8618 114.769 16.4128C114.769 16.413 114.769 16.413 114.769 16.4129C114.37 15.2647 113.762 13.7311 113.128 13.9533C112.41 14.2489 112.913 16.1347 113.273 17.2605C112.837 15.8977 112.198 15.3036 111.875 15.5155C111.367 15.8491 111.459 16.9846 112.106 18.7634L112.106 18.7634C111.316 17.6599 110.96 17.5098 110.721 17.7667C110.284 18.2357 110.843 19.688 111.533 20.8962C112.311 22.2564 113.386 23.0414 114.076 23.5203C114.076 23.5205 114.076 23.5207 114.076 23.5209C114.708 30.4233 115.086 34.8643 115.502 40.4478C115.717 43.3207 124.437 42.6197 125.17 36.924Z" fill="#ECD0C8"/>
<path d="M119.139 19.0493C118.814 16.5773 119.221 15.6167 119.614 15.5777C120.276 15.5122 121.417 17.5091 122.347 21.0623C121.403 20.5816 120.083 19.53 119.139 19.0493Z" fill="#ECD0C8"/>
<path d="M118.07 23.2257C117.989 23.2257 117.919 23.1657 117.908 23.0833C117.854 22.6664 117.687 22.0509 117.2 21.4867C116.511 20.6881 115.602 20.5002 115.243 20.4566C115.153 20.4457 115.089 20.3642 115.1 20.2746C115.111 20.1849 115.193 20.1212 115.282 20.1321C115.679 20.1803 116.684 20.3881 117.448 21.2731C117.988 21.8987 118.173 22.5799 118.233 23.0412C118.244 23.1308 118.181 23.2127 118.092 23.2244C118.084 23.2253 118.077 23.2257 118.07 23.2257Z" fill="#363E44"/>
<path d="M121.24 19.6492C121.204 19.6492 121.168 19.6373 121.138 19.6128C120.73 19.2824 120.239 19.0507 119.719 18.8054C119.468 18.6869 119.209 18.5645 118.941 18.4234C118.861 18.3814 118.83 18.2825 118.872 18.2026C118.914 18.1228 119.013 18.092 119.093 18.1341C119.355 18.2719 119.611 18.3929 119.859 18.5098C120.397 18.7637 120.905 19.0036 121.343 19.3587C121.414 19.4155 121.424 19.5185 121.368 19.5886C121.335 19.6284 121.288 19.6492 121.24 19.6492Z" fill="#363E44"/>
<path d="M116.156 18.3721C116.119 18.3721 116.081 18.3593 116.05 18.333C115.812 18.1295 115.591 17.9031 115.395 17.66C115.11 17.3073 114.872 16.9165 114.689 16.4986C114.653 16.4159 114.691 16.3195 114.773 16.2833C114.856 16.2471 114.952 16.2849 114.989 16.3674C115.16 16.7588 115.382 17.1245 115.649 17.4545C115.833 17.682 116.039 17.8938 116.263 18.0843C116.331 18.1429 116.339 18.2461 116.281 18.3147C116.248 18.3526 116.203 18.3721 116.156 18.3721Z" fill="#363E44"/>
<path d="M114.61 19.0401C114.573 19.0401 114.535 19.0273 114.504 19.001C114.266 18.7975 114.045 18.5711 113.849 18.328C113.564 17.9753 113.326 17.5846 113.143 17.1665C113.107 17.0839 113.145 16.9875 113.227 16.9513C113.31 16.9151 113.407 16.9527 113.443 17.0354C113.614 17.4267 113.836 17.7924 114.103 18.1225C114.287 18.3499 114.493 18.5618 114.717 18.7522C114.785 18.8108 114.794 18.914 114.735 18.9826C114.703 19.0206 114.657 19.0401 114.61 19.0401Z" fill="#363E44"/>
<path d="M113.449 20.7296C113.412 20.7296 113.374 20.7167 113.343 20.6905C113.105 20.487 112.884 20.2606 112.688 20.0174C112.403 19.6647 112.165 19.2739 111.982 18.856C111.946 18.7733 111.984 18.6769 112.066 18.6407C112.149 18.6045 112.246 18.6422 112.282 18.7248C112.453 19.1161 112.675 19.4818 112.942 19.8119C113.126 20.0394 113.332 20.2512 113.556 20.4417C113.624 20.5003 113.633 20.6035 113.574 20.6721C113.542 20.7101 113.496 20.7296 113.449 20.7296Z" fill="#363E44"/>
<path d="M172.075 48.2112C175.322 40.8024 164.409 27.9591 153.694 26.7862C150.596 26.4471 147.478 26.1115 147.478 26.1115C145.907 25.8207 137.209 25.9752 133.88 27.2353C123.709 31.0843 114.665 36.087 114.635 40.44C114.55 52.4086 134.442 40.4962 134.442 40.4962L134.241 61.1058L162.72 64.7334L159.562 43.7286C159.562 43.7286 169.561 53.9472 172.075 48.2112Z" fill="#363E44"/>
<path d="M152.659 27.332H144.437V53.4415H152.659V27.332Z" fill="#F7F1EB"/>
<path d="M148.365 53.4411L146.084 51.1601L147.298 32.0165L149.159 31.9766L150.647 51.1601L148.365 53.4411Z" fill="#363E44"/>
<path d="M148.266 33.5281L151.336 29.0957H145.196L148.266 33.5281Z" fill="#363E44"/>
<path d="M153.694 65.7003C153.655 65.7003 153.617 65.6865 153.588 65.661C153.554 65.6324 153.534 65.5915 153.531 65.5477L153.006 57.6789C153.005 57.661 153.006 57.643 153.011 57.6256L157.757 39.9626L154.131 39.5483C154.072 39.5415 154.021 39.5028 153.998 39.4474C153.976 39.3919 153.986 39.3287 154.023 39.2824L157.406 35.148L155.694 27.1665C155.675 27.0782 155.731 26.9913 155.82 26.9724C155.908 26.9535 155.995 27.0097 156.014 27.0979L157.742 35.1563C157.753 35.205 157.74 35.2557 157.709 35.2941L154.466 39.2574L157.982 39.6593C158.03 39.6647 158.072 39.6905 158.099 39.7298C158.126 39.7692 158.134 39.8182 158.122 39.8642L153.334 57.6843L153.846 65.3593L162.706 64.5717C162.796 64.564 162.875 64.6302 162.883 64.72C162.891 64.8099 162.825 64.8893 162.735 64.8973L153.708 65.6998C153.704 65.7001 153.699 65.7003 153.694 65.7003Z" fill="white"/>
<path d="M143.418 25.9439L148.17 24.1445L153.694 26.7872L150.645 31.2981L148.217 29.5396L146.054 31.5618L143.418 25.9439Z" fill="white"/>
<path d="M123.198 23.6242L113.266 25.6367L114.145 29.976L124.077 27.9635L123.198 23.6242Z" fill="white"/>
<path d="M114.634 40.6923L113.286 29.398L124.496 26.7852L126.464 40.9756L114.634 40.6923Z" fill="#363E44"/>
<path d="M126.378 41.3335C126.297 41.3335 126.227 41.2732 126.216 41.1905L125.092 32.2855C125.081 32.196 125.144 32.1142 125.234 32.1028C125.324 32.0917 125.405 32.155 125.417 32.2445L126.541 41.1495C126.552 41.2391 126.489 41.3209 126.399 41.3322C126.392 41.3332 126.385 41.3335 126.378 41.3335Z" fill="white"/>
<path d="M152.752 53.4414H144.437V56.6416H152.752V53.4414Z" fill="#84524D"/>
<path d="M144.211 65.1977C144.208 65.1977 144.205 65.1976 144.202 65.1974L133.652 64.58C133.562 64.5747 133.493 64.4974 133.498 64.4073C133.504 64.3172 133.58 64.2484 133.671 64.2537L144.048 64.861V60.4294L138.518 39.2639C138.505 39.2131 138.517 39.159 138.551 39.1185C138.584 39.0781 138.635 39.0561 138.687 39.0595L142.401 39.3025L139.317 35.8445C139.282 35.8052 139.268 35.7513 139.28 35.6998L141.446 26.0768C141.466 25.9887 141.554 25.9334 141.642 25.9532C141.73 25.973 141.785 26.0605 141.765 26.1486L139.617 35.6897L142.911 39.3829C142.955 39.4324 142.965 39.5037 142.935 39.5633C142.906 39.623 142.844 39.6592 142.778 39.6547L138.892 39.4005L144.37 60.3672C144.373 60.3806 144.375 60.3945 144.375 60.4084V65.0343C144.375 65.0793 144.356 65.1223 144.324 65.1532C144.293 65.1818 144.253 65.1977 144.211 65.1977Z" fill="white"/>
<path d="M155.652 58.2921L164.848 63.1112C164.848 63.1112 176.501 45.3328 171.203 42.2186C165.438 38.8293 155.652 58.2921 155.652 58.2921Z" fill="#363E44"/>
<path d="M150.644 21.0197C152.574 20.0378 153.411 17.792 153.549 15.4553C153.652 13.7122 152.753 12.5279 151.437 12.539C150.532 11.0529 147.136 10.7624 145.705 11.8351C143.078 13.8059 143.235 19.4739 146.175 21.1538C148.116 22.2632 150.469 21.1088 150.644 21.0197Z" fill="white"/>
<path d="M144.934 21.2984C145.496 21.08 145.686 20.219 145.359 19.3754C145.031 18.5317 144.31 18.0248 143.747 18.2432C143.185 18.4616 142.994 19.3226 143.322 20.1663C143.65 21.01 144.371 21.5168 144.934 21.2984Z" fill="#ECD0C8"/>
<path d="M153.358 20.6371C153.764 19.828 153.655 18.9529 153.116 18.6826C152.576 18.4122 151.81 18.8489 151.405 19.658C150.999 20.4671 151.108 21.3422 151.647 21.6126C152.187 21.883 152.953 21.4462 153.358 20.6371Z" fill="#ECD0C8"/>
<path d="M152.47 21.051C152.413 21.051 152.358 21.0213 152.328 20.9684C152.283 20.89 152.31 20.7902 152.389 20.7455C152.533 20.6635 152.667 20.5135 152.757 20.3342C152.931 19.9862 152.905 19.6051 152.699 19.5021C152.682 19.4935 152.665 19.4872 152.646 19.483C152.558 19.463 152.503 19.3753 152.523 19.2873C152.543 19.1993 152.631 19.1444 152.719 19.1642C152.763 19.1742 152.805 19.1895 152.846 19.2098C153.222 19.3985 153.312 19.9567 153.049 20.4806C152.929 20.7197 152.752 20.9146 152.551 21.0295C152.525 21.0441 152.497 21.051 152.47 21.051Z" fill="#363E44"/>
<path d="M144.212 20.6637C144.179 20.6637 144.146 20.6541 144.118 20.634C143.928 20.5006 143.77 20.29 143.673 20.0406C143.461 19.4944 143.603 18.9471 143.995 18.7946C144.037 18.7783 144.081 18.767 144.126 18.7612C144.214 18.7494 144.298 18.8125 144.309 18.902C144.321 18.9915 144.258 19.0736 144.169 19.0854C144.15 19.0878 144.131 19.0926 144.114 19.0994C143.899 19.1826 143.837 19.5595 143.978 19.9224C144.051 20.1094 144.17 20.2713 144.306 20.3665C144.38 20.4184 144.397 20.5204 144.345 20.5943C144.314 20.6395 144.263 20.6637 144.212 20.6637Z" fill="#363E44"/>
<path d="M148.217 29.5379L145.629 26.6784L145.413 21.985L150.93 21.748L151.143 26.4465L148.217 29.5379Z" fill="#ECD0C8"/>
<path d="M152.239 18.5135C152.138 20.647 150.878 23.9715 148.143 23.8427C145.409 23.7139 144.467 20.2856 144.567 18.1521C144.621 17.0001 144.888 15.0732 145.72 14.5531C146.429 14.1099 147.701 15.3107 148.676 15.3565C149.735 15.4064 150.719 14.2723 151.376 14.8641C152.033 15.4558 152.289 17.4467 152.239 18.5135Z" fill="#ECD0C8"/>
<path d="M148.127 25.0686C152.561 25.101 152.343 17.7109 152.343 17.7109L144.496 17.8516C144.496 17.8516 143.827 25.0373 148.127 25.0686Z" fill="white"/>
<path d="M144.547 18.2581C144.55 20.721 146.135 19.5014 148.232 19.4995C150.328 19.4976 152.286 20.7755 152.284 18.3126C152.282 15.8497 150.662 15.8733 148.566 15.8752C146.47 15.877 144.545 15.7951 144.547 18.2581Z" fill="#ECD0C8"/>
<path d="M152.006 17.4694C152.006 17.4694 151.817 17.7555 151.48 18.0365C151.256 18.2233 150.551 18.2136 150.551 18.2136C150.551 18.2136 149.769 18.5852 149.446 18.5151C149.123 18.445 148.908 18.3446 148.908 18.3446C148.908 18.3446 149.012 18.1875 149.202 17.9918C149.44 17.7478 150.434 17.7108 150.434 17.7108C150.434 17.7108 151.084 17.224 151.397 17.2845C151.759 17.3543 152.006 17.4694 152.006 17.4694Z" fill="white"/>
<path d="M150.288 17.3097C149.815 17.4433 149.444 17.7453 149.206 17.9888C149.241 18.182 149.323 18.3633 149.446 18.5149C149.768 18.585 150.198 18.6248 150.626 18.504C150.97 18.4068 151.259 18.2203 151.484 18.0322C151.541 17.7725 151.506 17.5115 151.399 17.2852C151.085 17.2244 150.686 17.1971 150.288 17.3097Z" fill="#363E44"/>
<path d="M144.936 17.1371C144.936 17.1371 145.122 17.4847 145.475 17.8181C145.671 18.0026 146.332 17.9462 146.332 17.9462C146.332 17.9462 147.006 18.4576 147.325 18.4255C147.686 18.3893 147.938 18.2996 147.938 18.2996C147.938 18.2996 147.851 18.1369 147.683 17.9274C147.47 17.6611 146.541 17.4768 146.541 17.4768C146.541 17.4768 145.867 16.9791 145.548 17.0113C145.188 17.0476 144.936 17.1371 144.936 17.1371Z" fill="white"/>
<path d="M147.685 17.9285C147.471 17.662 147.126 17.3191 146.661 17.139C146.273 16.9887 145.872 16.9792 145.553 17.0108C145.447 17.231 145.408 17.4857 145.46 17.7438C145.465 17.7697 145.472 17.7946 145.479 17.8197C145.674 18.0034 145.919 18.1825 146.213 18.2964C146.601 18.4467 147.003 18.4563 147.322 18.4245C147.485 18.2945 147.611 18.1227 147.685 17.9285Z" fill="#363E44"/>
<path d="M148.473 20.0231C148.412 20.0231 148.353 19.9888 148.325 19.93C148.287 19.8486 148.321 19.751 148.403 19.7122C148.534 19.6493 148.614 19.5801 148.626 19.5175C148.634 19.4792 148.616 19.4408 148.567 19.3485C148.526 19.2708 148.475 19.1739 148.439 19.0436C148.388 18.8527 148.386 18.6492 148.435 18.4388C148.456 18.3508 148.544 18.2963 148.632 18.3168C148.72 18.3374 148.774 18.4253 148.754 18.5132C148.717 18.6704 148.717 18.82 148.755 18.9581C148.781 19.0529 148.819 19.1252 148.856 19.1952C148.916 19.3084 148.978 19.4256 148.947 19.5822C148.912 19.7529 148.777 19.8959 148.543 20.0071C148.521 20.018 148.497 20.0231 148.473 20.0231Z" fill="#363E44"/>
<path d="M148.214 20.8682C147.97 20.8682 147.718 20.7411 147.561 20.5367C147.46 20.4041 147.403 20.2448 147.4 20.0882C147.398 19.9979 147.47 19.9234 147.56 19.9219C147.649 19.9208 147.725 19.9922 147.727 20.0825C147.728 20.1699 147.762 20.2606 147.821 20.3381C147.92 20.4681 148.088 20.5499 148.236 20.5408C148.324 20.5356 148.403 20.6041 148.408 20.6944C148.414 20.7845 148.345 20.8618 148.255 20.8672C148.241 20.8678 148.228 20.8682 148.214 20.8682Z" fill="#BC8271"/>
<path d="M151.264 14.3373C151.212 14.3373 151.161 14.3122 151.129 14.2655C150.924 13.9631 150.679 13.7013 150.402 13.4878C148.863 12.3013 146.759 12.8775 146.151 13.0824C146.065 13.1112 145.972 13.0651 145.943 12.9797C145.915 12.8941 145.961 12.8014 146.046 12.7726C146.693 12.5547 148.934 11.9435 150.602 13.2289C150.907 13.4638 151.175 13.7508 151.399 14.0822C151.45 14.1569 151.431 14.2586 151.356 14.3092C151.328 14.3282 151.296 14.3373 151.264 14.3373Z" fill="#D3BBA3"/>
<path d="M145.307 14.5579C145.251 14.5579 145.196 14.5288 145.166 14.4766C145.12 14.3985 145.147 14.2985 145.225 14.2532C145.876 13.8746 148.167 12.7016 150.313 13.5023C150.706 13.649 151.073 13.8557 151.403 14.1166C151.474 14.1726 151.486 14.2753 151.43 14.3462C151.374 14.4171 151.271 14.4291 151.2 14.3732C150.897 14.1334 150.56 13.9435 150.199 13.8086C148.188 13.0582 146.009 14.1755 145.389 14.5358C145.363 14.5508 145.335 14.5579 145.307 14.5579Z" fill="#D3BBA3"/>
<path d="M147.553 39.09L145.299 41.3146C144.546 42.0569 143.335 42.0488 142.593 41.2966C141.85 40.5444 141.858 39.3328 142.611 38.5905L144.865 36.3659C145.617 35.6236 146.829 35.6317 147.571 36.384L147.571 36.384C148.313 37.1362 148.305 38.3477 147.553 39.09Z" fill="#E96C79"/>
<path d="M137.158 72.0894C137.072 72.0894 137 72.0221 136.995 71.9351L135.641 47.9711C135.638 47.9229 135.657 47.876 135.692 47.8429L145.077 39.0015C145.143 38.9396 145.246 38.9427 145.308 39.0084C145.37 39.0742 145.367 39.1776 145.301 39.2395L135.971 48.0287L137.322 71.9167C137.327 72.0068 137.258 72.084 137.168 72.0891C137.164 72.0893 137.161 72.0894 137.158 72.0894Z" fill="#E96C79"/>
<path d="M153.944 39.0802L156.199 41.3049C156.951 42.0471 158.163 42.0391 158.905 41.2868C159.647 40.5346 159.639 39.323 158.887 38.5808L156.632 36.3562C155.88 35.6139 154.669 35.622 153.926 36.3742L153.926 36.3743C153.184 37.1265 153.192 38.338 153.944 39.0802Z" fill="#E96C79"/>
<path d="M164.34 72.0796C164.337 72.0796 164.333 72.0795 164.33 72.0793C164.24 72.0742 164.171 71.997 164.176 71.9069L165.526 48.0189L156.196 39.2297C156.131 39.1678 156.128 39.0644 156.189 38.9986C156.252 38.9329 156.355 38.9299 156.421 38.9917L165.806 47.8331C165.841 47.8662 165.86 47.9131 165.857 47.9613L164.503 71.9253C164.498 72.0123 164.426 72.0796 164.34 72.0796Z" fill="#E96C79"/>
<path d="M172.742 55.2148H129.925V129.555H172.742V55.2148Z" fill="#DE7E88"/>
<path d="M174.429 53.5137H127.734V59.0932H174.429V53.5137Z" fill="#D3BBA3"/>
<path d="M173.203 59.7463H126.508C126.418 59.7463 126.345 59.6731 126.345 59.5828V54.0033C126.345 53.913 126.418 53.8398 126.508 53.8398H173.203C173.293 53.8398 173.366 53.913 173.366 54.0033V59.5828C173.366 59.673 173.293 59.7463 173.203 59.7463ZM126.672 59.4193H173.039V54.1668H126.672V59.4193Z" fill="#363E44"/>
<path d="M129.796 81.0109C129.706 81.0109 129.633 80.9378 129.633 80.8475V59.599C129.633 59.5087 129.706 59.4355 129.796 59.4355C129.886 59.4355 129.96 59.5087 129.96 59.599V80.8475C129.96 80.9377 129.886 81.0109 129.796 81.0109Z" fill="#363E44"/>
<path d="M172.783 83.5444C172.693 83.5444 172.62 83.4716 172.62 83.3815L172.538 59.5995C172.538 59.5092 172.611 59.4358 172.701 59.4355C172.794 59.435 172.865 59.5082 172.865 59.5984L172.947 83.3804C172.947 83.4707 172.874 83.5441 172.784 83.5444C172.784 83.5444 172.784 83.5444 172.783 83.5444Z" fill="#363E44"/>
<path d="M202.747 90.2377L220.452 89.238L219.733 76.5664L201.489 79.4871L202.747 90.2377Z" fill="#ECD0C8"/>
<path d="M250.578 83.8143C247.964 81.4919 241.29 75.5805 231.364 74.5868C223.597 73.8092 215.239 75.6964 211.554 76.8648C211.644 81.538 211.824 86.4808 211.914 91.154C213.711 91.4236 214.655 91.5584 216.536 91.8417V109.636L244.93 109.657L244.955 96.1364L248.115 97.3103L250.578 83.8143Z" fill="#003C84"/>
<path d="M216.516 91.9746C216.426 91.9746 216.352 91.9019 216.352 91.8119C216.346 90.4285 216.334 89.7314 216.319 88.8488C216.312 88.427 216.305 87.9679 216.297 87.3766C216.295 87.2863 216.368 87.2122 216.458 87.2109C216.545 87.2125 216.622 87.2819 216.624 87.3722C216.632 87.963 216.639 88.4218 216.646 88.8433C216.661 89.727 216.672 90.4251 216.679 91.8103C216.679 91.9006 216.607 91.9741 216.516 91.9746C216.516 91.9746 216.516 91.9746 216.516 91.9746Z" fill="#363E44"/>
<path d="M204.778 89.9823C205.709 78.5861 205.936 70.4522 206.604 65.4302C206.904 63.1759 207.634 60.9764 206.662 59.0176C206.23 58.1491 205.586 57.2958 204.981 57.6766C204.036 58.2712 205.321 60.7983 204.538 61.2618C203.751 61.7272 202.673 59.8864 202.192 58.6096C201.868 57.7495 201.35 56.7774 200.501 56.93C199.294 57.1469 199.685 58.9239 199.697 59.044C199.107 58.6741 198.408 58.6879 198.035 59.0232C197.538 59.4707 197.536 60.5676 198.371 61.2302C198.254 61.1676 197.377 60.711 196.982 61.0308C196.595 61.3443 196.692 62.387 197.497 63.5106C196.784 63.1777 196.204 63.197 196.013 63.4181C195.478 64.0377 195.896 65.5059 198.145 68.2099C197.869 69.8193 196.523 76.2093 195.468 81.1664C194.33 86.5186 199.123 91.301 204.452 90.0612C204.56 90.0361 204.668 90.0098 204.778 89.9823Z" fill="#ECD0C8"/>
<path d="M205.11 85.8387C205.106 85.8387 205.102 85.8386 205.098 85.8383C205.008 85.8318 204.94 85.7535 204.947 85.6634C205.033 84.4763 205.111 82.9526 205.186 81.4789C205.24 80.4285 205.29 79.4364 205.339 78.6764C205.345 78.5864 205.423 78.5185 205.513 78.5237C205.603 78.5295 205.671 78.6072 205.665 78.6973C205.617 79.4552 205.566 80.4463 205.512 81.4956C205.437 82.9709 205.359 84.4965 205.273 85.6871C205.266 85.7731 205.195 85.8387 205.11 85.8387Z" fill="#363E44"/>
<path d="M201.711 69.1556C201.704 69.1556 201.696 69.1551 201.689 69.1542C201.599 69.1422 201.537 69.0599 201.549 68.9704C201.598 68.6039 201.621 67.8766 201.223 67.1239C200.756 66.2411 199.981 65.8473 199.67 65.7189C199.586 65.6846 199.546 65.589 199.581 65.5055C199.615 65.4221 199.711 65.3823 199.794 65.4167C200.222 65.5929 201.014 66.0292 201.512 66.9711C201.953 67.8043 201.927 68.6086 201.873 69.0138C201.862 69.096 201.792 69.1556 201.711 69.1556Z" fill="#363E44"/>
<path d="M197.511 68.1258C198.586 68.9935 200.239 68.729 201.203 67.535L208.887 57.7811L205.107 54.7305L197.309 64.3927C196.345 65.5867 196.436 67.2581 197.511 68.1258Z" fill="#84524D"/>
<path d="M187.327 42.0903C187.281 42.0903 187.236 42.0716 187.204 42.0349C185.911 40.5669 185.846 38.4397 187.049 36.9766C188.21 35.566 190.257 35.1907 191.918 36.0841C191.997 36.1269 192.027 36.226 191.984 36.3055C191.941 36.3849 191.842 36.4148 191.763 36.372C190.239 35.5524 188.363 35.894 187.302 37.1843C186.2 38.5228 186.262 40.4718 187.449 41.8187C187.509 41.8865 187.502 41.9897 187.435 42.0494C187.404 42.0768 187.365 42.0903 187.327 42.0903Z" fill="#363E44"/>
<path d="M209.036 49.9763L204.041 56.0472L183.934 47.0556L196.338 31.9785L209.036 49.9763Z" fill="#E96C79"/>
<path d="M204.049 56.0471L208.097 59.377L213.078 53.3224L209.031 49.9925L204.049 56.0471Z" fill="#BD3644"/>
<path d="M205.404 55.7428L208.283 58.1113L209.16 57.0448L206.281 54.6763L205.404 55.7428Z" fill="#E96C79"/>
<path d="M206.76 54.0944L209.638 56.4629L210.516 55.3963L207.637 53.0279L206.76 54.0944Z" fill="#E96C79"/>
<path d="M208.115 52.4479L210.994 54.8164L211.872 53.7499L208.993 51.3814L208.115 52.4479Z" fill="#E96C79"/>
<path d="M200.44 59.6094C201.595 60.5013 201.975 61.6074 201.678 62.005C201.406 62.3695 200.413 62.3424 199.36 61.7512C199.346 61.743 199.333 61.7617 199.346 61.7724C200.455 62.6986 200.909 63.7009 200.649 64.0719C200.412 64.4101 199.491 64.3544 198.437 63.8791C198.422 63.8722 198.411 63.8927 198.425 63.9018C199.374 64.5028 199.827 65.2403 199.666 65.5692C199.496 65.9176 198.316 66.2564 196.565 65.0309L200.44 59.6094Z" fill="#ECD0C8"/>
<path d="M206.604 65.4328C207.062 62.8843 207.565 60.8815 206.661 59.0202C206.385 58.4517 205.92 57.7368 205.355 57.7542C204.232 57.789 204.724 59.5089 204.571 60.7293C204.429 61.8667 203.629 62.4038 203.076 63.43C202.641 64.2372 202.219 65.5417 202.52 67.5995C203.881 66.8773 205.242 66.1551 206.604 65.4328Z" fill="#ECD0C8"/>
<path d="M242.108 99.3359H245.276V47.6638H242.108V99.3359Z" fill="#84524D"/>
<path d="M255.694 50.6378C262.337 43.9947 262.337 33.2241 255.694 26.5809C249.051 19.9378 238.28 19.9378 231.637 26.5809C224.994 33.2241 224.994 43.9947 231.637 50.6378C238.28 57.2809 249.051 57.2809 255.694 50.6378Z" fill="#E96C79"/>
<path d="M253.673 48.5342C259.177 43.0302 259.177 34.1065 253.673 28.6025C248.169 23.0985 239.245 23.0985 233.741 28.6025C228.237 34.1065 228.237 43.0302 233.741 48.5342C239.245 54.0383 248.169 54.0383 253.673 48.5342Z" fill="#F7F1EB"/>
<path d="M246.94 39.2388C248.866 37.3131 248.866 34.1908 246.94 32.2651C245.014 30.3394 241.892 30.3394 239.966 32.2651C238.04 34.1908 238.04 37.3131 239.966 39.2388C241.892 41.1645 245.014 41.1645 246.94 39.2388Z" fill="#363E44"/>
<path d="M232.783 47.4718C235.368 50.6396 239.301 52.6635 243.709 52.6635C248.167 52.6635 252.14 50.5906 254.723 47.3585C254.757 47.2841 254.791 47.2104 254.823 47.1346C250.796 42.9296 241.482 38.8204 232.783 47.4718Z" fill="#363E44"/>
<path d="M254.871 28.0867L252.659 26.291L233.268 50.1765L235.48 51.9722L254.871 28.0867Z" fill="#E96C79"/>
<path d="M239.288 78.4745C241.524 79.831 244.203 80.3839 246.778 80.2953C247.81 80.2598 248.854 80.0865 249.867 79.8615C250.341 79.6211 250.301 78.9112 250.275 78.4992C250.258 78.2201 249.236 75.6533 248.914 75.0593C247.783 72.9699 246.711 73.6073 244.82 71.6157C242.674 69.3559 242.746 66.8687 241.951 66.9159C241.399 66.9488 241.108 67.8794 241.254 69.8394L241.253 69.8395C240.971 68.3632 241.035 66.5035 240.22 66.6618C239.288 66.8949 239.032 69.1667 239.272 70.6089C238.982 68.8633 238.838 68.1757 238.372 68.2786C237.663 68.4354 237.341 69.9037 237.574 72.2386L237.574 72.2387C237.324 70.6957 236.467 72.2465 236.467 73.2034C236.467 73.9288 237.081 75.4306 237.291 75.7771C238.282 77.4091 238.529 77.7626 239.288 78.4745Z" fill="#ECD0C8"/>
<path d="M245.202 73.6731C245.03 70.8965 244.955 69.466 245.202 69.4414C246.02 69.3595 247.886 71.9121 249.368 76.2056C248.159 75.7019 246.412 74.1768 245.202 73.6731Z" fill="#ECD0C8"/>
<path d="M242.63 72.4486C242.584 72.4486 242.539 72.4297 242.507 72.3928C242.253 72.1028 242.025 71.7882 241.829 71.4576C241.545 70.978 241.326 70.4606 241.178 69.9197C241.154 69.8326 241.205 69.7427 241.292 69.7188C241.379 69.6947 241.469 69.7462 241.493 69.8333C241.634 70.3461 241.841 70.8366 242.11 71.2911C242.296 71.6044 242.512 71.9026 242.753 72.1774C242.812 72.2453 242.805 72.3486 242.737 72.408C242.706 72.4353 242.668 72.4486 242.63 72.4486Z" fill="#363E44"/>
<path d="M240.618 72.9896C240.573 72.9896 240.528 72.9707 240.495 72.9338C240.241 72.6438 240.013 72.3291 239.818 71.9987C239.534 71.5188 239.315 71.0014 239.167 70.4606C239.143 70.3736 239.194 70.2837 239.281 70.2598C239.368 70.2358 239.458 70.2872 239.482 70.3743C239.622 70.8868 239.83 71.3773 240.099 71.8322C240.284 72.1453 240.5 72.4435 240.741 72.7184C240.801 72.7863 240.794 72.8896 240.726 72.949C240.695 72.9763 240.657 72.9896 240.618 72.9896Z" fill="#363E44"/>
<path d="M238.895 74.849C238.85 74.849 238.804 74.8301 238.772 74.7933C238.518 74.5034 238.29 74.1887 238.095 73.8581C237.811 73.3785 237.592 72.861 237.443 72.3201C237.419 72.233 237.471 72.1431 237.558 72.1192C237.645 72.0951 237.735 72.1466 237.759 72.2337C237.899 72.7465 238.107 73.2369 238.376 73.6916C238.561 74.005 238.777 74.3031 239.018 74.5779C239.078 74.6458 239.071 74.749 239.003 74.8085C238.972 74.8357 238.933 74.849 238.895 74.849Z" fill="#363E44"/>
<path d="M256.082 90.3361L248.129 73.9238L238.727 77.1055L245.325 95.3272C248.509 101.612 254.185 99.5003 254.185 99.5003C257.154 98.0841 257.517 93.2965 256.082 90.3361Z" fill="#ECD0C8"/>
<path d="M230.117 79.0222L230.115 79.0224C228.173 79.1518 226.491 77.6868 226.352 75.7449L225.796 67.9385C225.657 65.9904 227.124 64.2986 229.072 64.1595C231.02 64.0205 232.712 65.4868 232.852 67.4349L233.41 75.2411C233.55 77.196 232.073 78.892 230.117 79.0222Z" fill="#ECD0C8"/>
<path d="M232.792 58.7823C232.546 58.6347 230.169 57.2566 227.875 58.2399C226.167 58.9717 225.266 60.5241 224.149 63.3564C222.833 66.6918 222.513 68.8694 223.139 69.9492C224.13 71.6552 229.605 71.4943 232.601 69.4601C234.764 67.9918 235.875 65.3043 235.569 62.6894C235.263 60.0818 232.949 58.8765 232.792 58.7823Z" fill="#ECD0C8"/>
<path d="M226.645 71.2823C226.467 71.2823 226.29 71.278 226.116 71.269C226.026 71.2644 225.957 71.1875 225.962 71.0974C225.966 71.0071 226.044 70.9385 226.133 70.9425C227.614 71.0186 229.285 70.7578 230.718 70.227C230.803 70.1956 230.897 70.2389 230.928 70.3236C230.959 70.4082 230.916 70.5022 230.832 70.5336C229.527 71.0168 228.029 71.2823 226.645 71.2823Z" fill="#363E44"/>
<path d="M230.454 64.4761C230.454 64.4761 229.746 65.1354 228.753 65.3935C228.544 65.4479 228.323 65.4844 228.093 65.4933C226.768 65.5446 226.697 63.696 228.021 63.6447C228.35 63.632 228.667 63.677 228.956 63.7519C229.013 63.7668 229.07 63.7829 229.125 63.8C229.185 63.8185 229.244 63.8381 229.3 63.8585C229.989 64.1055 230.454 64.4761 230.454 64.4761Z" fill="white"/>
<path d="M225.659 64.6619C225.659 64.6619 226.697 63.696 228.021 63.6447C228.351 63.6319 228.668 63.6773 228.958 63.7525C229.143 64.2285 229.118 64.7808 228.84 65.2558C228.812 65.3035 228.782 65.3489 228.75 65.3929C228.542 65.4468 228.322 65.4844 228.093 65.4933C226.769 65.5446 225.659 64.6619 225.659 64.6619Z" fill="#363E44"/>
<path d="M223.822 65.744C223.749 65.744 223.682 65.6943 223.664 65.6199C223.582 65.2913 223.611 65.0562 223.753 64.9011C223.858 64.787 223.982 64.763 224.101 64.7396C224.174 64.7254 224.25 64.7106 224.336 64.6738C224.49 64.6079 224.625 64.4922 224.738 64.33C224.789 64.2559 224.891 64.2374 224.966 64.289C225.04 64.3406 225.058 64.4424 225.006 64.5165C224.858 64.7298 224.676 64.8838 224.465 64.9742C224.347 65.0248 224.245 65.0445 224.164 65.0605C224.062 65.0803 224.024 65.09 223.995 65.1218C223.935 65.1871 223.93 65.336 223.981 65.5411C224.003 65.6288 223.949 65.7174 223.862 65.7391C223.848 65.7425 223.835 65.744 223.822 65.744Z" fill="#363E44"/>
<path d="M224.952 68.7893C224.881 68.7893 224.816 68.7429 224.795 68.6715C224.77 68.5848 224.82 68.4941 224.906 68.4689C225.075 68.42 225.311 68.313 225.479 68.0807C225.674 67.8108 225.717 67.4783 225.681 67.379C225.648 67.3922 225.596 67.4215 225.556 67.4443C225.395 67.5349 225.15 67.6725 224.82 67.6597C224.557 67.6504 224.295 67.5795 224.06 67.4547C223.98 67.4123 223.949 67.3134 223.992 67.2337C224.034 67.1539 224.133 67.1235 224.213 67.1659C224.404 67.2677 224.618 67.3254 224.831 67.333C225.072 67.3409 225.251 67.2406 225.395 67.1594C225.54 67.0782 225.703 66.9861 225.86 67.0939C225.914 67.1307 225.983 67.205 226.008 67.3506C226.053 67.6109 225.942 67.9986 225.744 68.2724C225.521 68.5798 225.215 68.7197 224.998 68.7828C224.982 68.7872 224.967 68.7893 224.952 68.7893Z" fill="#363E44"/>
<path d="M234.321 68.7123C235.359 68.0951 235.765 66.863 235.229 65.9602C234.692 65.0574 233.415 64.8259 232.377 65.4431C231.339 66.0602 230.932 67.2924 231.469 68.1952C232.006 69.0979 233.282 69.3294 234.321 68.7123Z" fill="#ECD0C8"/>
<path d="M232.963 69.2234C232.96 69.2234 232.957 69.2233 232.954 69.2231C232.249 69.1832 231.656 68.8409 231.325 68.2841C231.279 68.2065 231.304 68.1062 231.382 68.0601C231.459 68.014 231.56 68.0395 231.606 68.1171C231.88 68.5789 232.378 68.8631 232.972 68.8967C233.062 68.9019 233.131 68.979 233.126 69.0692C233.121 69.1561 233.049 69.2234 232.963 69.2234Z" fill="#363E44"/>
<path d="M235.13 65.9859C235.08 65.9859 235.03 65.963 234.998 65.9199C234.466 65.2034 233.35 65.0578 232.457 65.5886C232.379 65.6348 232.279 65.6092 232.233 65.5316C232.187 65.454 232.212 65.3537 232.29 65.3076C233.342 64.682 234.619 64.8614 235.261 65.725C235.315 65.7974 235.299 65.8999 235.227 65.9536C235.198 65.9754 235.163 65.9859 235.13 65.9859Z" fill="#363E44"/>
<path d="M233.94 67.9235C233.885 67.9235 233.83 67.895 233.8 67.8435C233.754 67.7659 233.779 67.6656 233.857 67.6195C234.05 67.5046 234.192 67.3324 234.258 67.1346C234.32 66.9451 234.304 66.7545 234.211 66.5983C234.095 66.4037 233.873 66.2878 233.617 66.2878C233.616 66.2878 233.614 66.2877 233.613 66.2878C233.523 66.2878 233.45 66.215 233.45 66.1249C233.45 66.0346 233.523 65.9612 233.613 65.9609C233.986 65.9629 234.316 66.1354 234.492 66.4313C234.634 66.6702 234.661 66.9563 234.568 67.2372C234.478 67.5098 234.285 67.7455 234.024 67.9007C233.998 67.9161 233.969 67.9235 233.94 67.9235Z" fill="#363E44"/>
<path d="M232.836 62.7529C230.169 59.967 226.933 59.8649 225.997 59.7266C225.478 58.4754 225.718 57.6516 225.828 57.3576C226.453 55.6774 229.073 54.448 232.114 55.1324C231.876 55.1611 230.743 55.6231 230.583 55.9531C231.685 55.407 232.605 55.5258 233.07 55.5808C235.204 55.8329 237.04 57.7879 237.639 60.6404C237.558 60.4719 237.072 59.752 236.531 59.5151C236.824 59.8671 237.117 60.2957 237.36 60.8096C238.416 63.0453 237.772 65.2997 237.504 66.0892C237.157 65.512 235.736 63.2058 232.836 62.7529Z" fill="#84524D"/>
<path d="M229.003 60.1506C228.956 60.1506 228.911 60.1303 228.879 60.0936C228.837 60.0449 228.828 59.9764 228.855 59.9182C229.04 59.5206 229.401 58.959 230.07 58.5411C230.683 58.1586 231.29 58.0655 231.691 58.0548C231.785 58.0508 231.856 58.1237 231.858 58.2139C231.861 58.3042 231.79 58.3792 231.699 58.3817C231.339 58.3913 230.794 58.4749 230.243 58.8184C229.803 59.0931 229.513 59.4425 229.331 59.7283C229.901 59.5841 230.483 59.4872 231.067 59.4396C231.635 59.3931 232.214 59.3932 232.785 59.4396C232.875 59.4469 232.942 59.5258 232.935 59.6158C232.928 59.7057 232.849 59.7724 232.759 59.7655C232.205 59.7204 231.644 59.7204 231.093 59.7654C230.404 59.8217 229.716 59.949 229.049 60.1439C229.034 60.1484 229.019 60.1506 229.003 60.1506Z" fill="#363E44"/>
<path d="M207.084 24.2059H173.742C173.652 24.2059 173.578 24.1328 173.578 24.0425V7.61659C173.578 7.5263 173.652 7.45312 173.742 7.45312H207.084C207.174 7.45312 207.248 7.5263 207.248 7.61659V24.0425C207.247 24.1327 207.174 24.2059 207.084 24.2059ZM173.905 23.879H206.921V7.77998H173.905V23.879Z" fill="#DE7E88"/>
<path d="M203.521 10.9636H196.815C196.724 10.9636 196.651 10.8905 196.651 10.8002C196.651 10.7099 196.724 10.6367 196.815 10.6367H203.521C203.611 10.6367 203.685 10.7099 203.685 10.8002C203.685 10.8904 203.611 10.9636 203.521 10.9636Z" fill="#DE7E88"/>
<path d="M192.89 10.9636H177.949C177.859 10.9636 177.786 10.8905 177.786 10.8002C177.786 10.7099 177.859 10.6367 177.949 10.6367H192.89C192.98 10.6367 193.053 10.7099 193.053 10.8002C193.053 10.8904 192.98 10.9636 192.89 10.9636Z" fill="#DE7E88"/>
<path d="M203.521 12.9402H185.968C185.877 12.9402 185.804 12.867 185.804 12.7767C185.804 12.6865 185.877 12.6133 185.968 12.6133H203.521C203.611 12.6133 203.685 12.6865 203.685 12.7767C203.685 12.867 203.611 12.9402 203.521 12.9402Z" fill="#DE7E88"/>
<path d="M183.88 12.9402H177.949C177.859 12.9402 177.786 12.867 177.786 12.7767C177.786 12.6865 177.859 12.6133 177.949 12.6133H183.88C183.97 12.6133 184.043 12.6865 184.043 12.7767C184.043 12.867 183.97 12.9402 183.88 12.9402Z" fill="#DE7E88"/>
<path d="M203.521 14.7937H196.815C196.724 14.7937 196.651 14.7206 196.651 14.6303C196.651 14.54 196.724 14.4668 196.815 14.4668H203.521C203.611 14.4668 203.684 14.54 203.684 14.6303C203.684 14.7206 203.611 14.7937 203.521 14.7937Z" fill="#DE7E88"/>
<path d="M192.89 14.7937H177.949C177.859 14.7937 177.786 14.7206 177.786 14.6303C177.786 14.54 177.859 14.4668 177.949 14.4668H192.89C192.98 14.4668 193.053 14.54 193.053 14.6303C193.053 14.7206 192.98 14.7937 192.89 14.7937Z" fill="#DE7E88"/>
<path d="M203.521 16.7703H190.874C190.783 16.7703 190.71 16.6971 190.71 16.6068C190.71 16.5165 190.783 16.4434 190.874 16.4434H203.521C203.611 16.4434 203.685 16.5165 203.685 16.6068C203.685 16.6971 203.611 16.7703 203.521 16.7703Z" fill="#DE7E88"/>
<path d="M187.805 16.7703H177.949C177.859 16.7703 177.786 16.6971 177.786 16.6068C177.786 16.5165 177.859 16.4434 177.949 16.4434H187.805C187.895 16.4434 187.968 16.5165 187.968 16.6068C187.968 16.6971 187.895 16.7703 187.805 16.7703Z" fill="#DE7E88"/>
<path d="M192.89 19.6121H177.949C177.859 19.6121 177.786 19.5389 177.786 19.4486C177.786 19.3583 177.859 19.2852 177.949 19.2852H192.89C192.98 19.2852 193.053 19.3583 193.053 19.4486C193.053 19.5389 192.98 19.6121 192.89 19.6121Z" fill="#DE7E88"/>
<path d="M186.824 21.5886H177.949C177.859 21.5886 177.786 21.5155 177.786 21.4252C177.786 21.3349 177.859 21.2617 177.949 21.2617H186.824C186.914 21.2617 186.987 21.3349 186.987 21.4252C186.987 21.5155 186.914 21.5886 186.824 21.5886Z" fill="#DE7E88"/>
<path d="M195.886 2.92773H164.268V16.9572H195.886V2.92773Z" fill="#DE7E88"/>
<path d="M192.305 6.76833H185.939C185.849 6.76833 185.776 6.69516 185.776 6.60487C185.776 6.51457 185.849 6.44141 185.939 6.44141H192.305C192.395 6.44141 192.468 6.51457 192.468 6.60487C192.468 6.69516 192.395 6.76833 192.305 6.76833Z" fill="white"/>
<path d="M182.214 6.76833H168.034C167.944 6.76833 167.87 6.69516 167.87 6.60487C167.87 6.51457 167.944 6.44141 168.034 6.44141H182.214C182.305 6.44141 182.378 6.51457 182.378 6.60487C182.378 6.69516 182.305 6.76833 182.214 6.76833Z" fill="white"/>
<path d="M192.305 8.25857H175.644C175.554 8.25857 175.481 8.1854 175.481 8.0951C175.481 8.00481 175.554 7.93164 175.644 7.93164H192.305C192.395 7.93164 192.468 8.00481 192.468 8.0951C192.468 8.1854 192.395 8.25857 192.305 8.25857Z" fill="white"/>
<path d="M173.663 8.25857H168.034C167.944 8.25857 167.87 8.1854 167.87 8.0951C167.87 8.00481 167.944 7.93164 168.034 7.93164H173.663C173.753 7.93164 173.826 8.00481 173.826 8.0951C173.826 8.1854 173.753 8.25857 173.663 8.25857Z" fill="white"/>
<path d="M192.305 9.65505H185.939C185.849 9.65505 185.776 9.58188 185.776 9.49159C185.776 9.40129 185.849 9.32812 185.939 9.32812H192.305C192.395 9.32812 192.468 9.40129 192.468 9.49159C192.468 9.58188 192.395 9.65505 192.305 9.65505Z" fill="white"/>
<path d="M182.214 9.65505H168.034C167.944 9.65505 167.87 9.58188 167.87 9.49159C167.87 9.40129 167.944 9.32812 168.034 9.32812H182.214C182.305 9.32812 182.378 9.40129 182.378 9.49159C182.378 9.58188 182.305 9.65505 182.214 9.65505Z" fill="white"/>
<path d="M192.305 11.1453H180.301C180.21 11.1453 180.137 11.0721 180.137 10.9818C180.137 10.8915 180.21 10.8184 180.301 10.8184H192.305C192.395 10.8184 192.468 10.8915 192.468 10.9818C192.468 11.0721 192.395 11.1453 192.305 11.1453Z" fill="white"/>
<path d="M177.388 11.1453H168.034C167.944 11.1453 167.87 11.0721 167.87 10.9818C167.87 10.8915 167.944 10.8184 168.034 10.8184H177.388C177.478 10.8184 177.552 10.8915 177.552 10.9818C177.552 11.0721 177.478 11.1453 177.388 11.1453Z" fill="white"/>
<path d="M182.214 13.2879H168.034C167.944 13.2879 167.87 13.2147 167.87 13.1244C167.87 13.0341 167.944 12.9609 168.034 12.9609H182.214C182.305 12.9609 182.378 13.0341 182.378 13.1244C182.378 13.2147 182.305 13.2879 182.214 13.2879Z" fill="white"/>
<path d="M176.457 14.7781H168.034C167.944 14.7781 167.87 14.7049 167.87 14.6146C167.87 14.5243 167.944 14.4512 168.034 14.4512H176.457C176.547 14.4512 176.62 14.5243 176.62 14.6146C176.62 14.7049 176.547 14.7781 176.457 14.7781Z" fill="white"/>
<path d="M164.268 16.9568L160.425 17.303L164.484 12.6992L164.268 16.9568Z" fill="#DE7E88"/>
<path d="M196.655 17.9298H165.036L160.969 17.9026C160.906 17.9022 160.848 17.865 160.822 17.8074C160.795 17.7497 160.805 17.6819 160.846 17.6334L164.873 12.8846V3.85877C164.873 3.76848 164.946 3.69531 165.036 3.69531H196.655C196.745 3.69531 196.818 3.76848 196.818 3.85877V17.7664C196.818 17.8567 196.745 17.9298 196.655 17.9298ZM161.321 17.5781L165.037 17.603H196.491V4.02224H165.2V12.9446C165.2 12.9833 165.186 13.0208 165.161 13.0503L161.321 17.5781Z" fill="white"/>
<path d="M63.0125 74.3916L65.0417 74.1016L61.6956 50.6925L59.6663 50.9825L63.0125 74.3916Z" fill="#DE7E88"/>
<path d="M49.9923 53.0091L71.4258 49.9453L69.7419 38.1651L48.3084 41.2289L49.9923 53.0091Z" fill="#DE7E88"/>
<path d="M88.8886 69.1402L90.7516 68.2852L76.8041 37.8956L74.9411 38.7506L88.8886 69.1402Z" fill="#DE7E88"/>
<path d="M65.544 45.4754C65.4822 45.4754 65.4229 45.44 65.3954 45.3801L59.3565 32.2222C59.3384 32.1828 59.3367 32.1379 59.3518 32.0972C59.3668 32.0566 59.3975 32.0235 59.4369 32.0055L81.6771 21.7981C81.7587 21.7605 81.8562 21.7964 81.8938 21.8785L87.9328 35.0364C87.9508 35.0758 87.9526 35.1208 87.9374 35.1614C87.9224 35.2021 87.8918 35.2351 87.8523 35.2532L65.6121 45.4605C65.5901 45.4706 65.5669 45.4754 65.544 45.4754ZM59.7218 32.2344L65.6243 45.0951L87.5674 35.0241L81.6649 22.1633L59.7218 32.2344Z" fill="#D3BBA3"/>
<path d="M66.2422 43.4452L85.9197 34.4141L80.956 23.599L61.2785 32.6301L66.2422 43.4452Z" fill="#D3BBA3"/>
<path d="M79.374 34.8998C79.3121 34.8998 79.2529 34.8644 79.2254 34.8045C79.1877 34.7225 79.2237 34.6254 79.3058 34.5878L83.1241 32.8353C83.2055 32.7976 83.3031 32.8336 83.3407 32.9156C83.3784 32.9977 83.3425 33.0947 83.2604 33.1324L79.4421 34.8849C79.4201 34.895 79.3969 34.8998 79.374 34.8998Z" fill="white"/>
<path d="M67.2002 40.4869C67.1382 40.4869 67.0791 40.4516 67.0516 40.3916C67.0139 40.3095 67.0499 40.2125 67.1319 40.1748L77.966 35.2024C78.0478 35.1648 78.1451 35.2007 78.1827 35.2828C78.2204 35.3648 78.1844 35.4619 78.1024 35.4995L67.2683 40.4719C67.2462 40.4822 67.223 40.4869 67.2002 40.4869Z" fill="white"/>
<path d="M64.2295 34.1671C64.1677 34.1671 64.1084 34.1317 64.0809 34.0718C64.0432 33.9897 64.0792 33.8927 64.1612 33.855L68.1152 32.0403C68.1968 32.0027 68.2943 32.0386 68.3319 32.1207C68.3695 32.2028 68.3336 32.2998 68.2515 32.3375L64.2976 34.1522C64.2755 34.1623 64.2523 34.1671 64.2295 34.1671Z" fill="white"/>
<path d="M69.4755 31.7597C69.4136 31.7597 69.3543 31.7243 69.3268 31.6644C69.2892 31.5823 69.3251 31.4853 69.4072 31.4476L77.1588 27.8899C77.2402 27.8523 77.3378 27.8882 77.3755 27.9703C77.4131 28.0524 77.3772 28.1494 77.2951 28.1871L69.5435 31.7447C69.5215 31.7549 69.4983 31.7597 69.4755 31.7597Z" fill="white"/>
<path d="M65.1018 36.3749C65.0403 36.3749 64.9814 36.3401 64.9537 36.2807C64.9154 36.199 64.9507 36.1017 65.0325 36.0634L75.6704 31.0877C75.7522 31.0495 75.8496 31.0847 75.8878 31.1665C75.926 31.2483 75.8907 31.3455 75.809 31.3838L65.171 36.3595C65.1486 36.37 65.125 36.3749 65.1018 36.3749Z" fill="white"/>
<path d="M76.8369 30.8855C76.7754 30.8855 76.7166 30.8506 76.6888 30.7912C76.6505 30.7095 76.6858 30.6122 76.7676 30.574L81.1061 28.5447C81.188 28.5065 81.2853 28.5417 81.3234 28.6235C81.3617 28.7053 81.3264 28.8025 81.2446 28.8408L76.9061 30.8701C76.8837 30.8806 76.8601 30.8855 76.8369 30.8855Z" fill="white"/>
<path d="M66.1754 38.5619C66.1139 38.5619 66.0551 38.5271 66.0273 38.4677C65.989 38.3859 66.0243 38.2887 66.1061 38.2504L72.7756 35.1307C72.8576 35.0924 72.9547 35.1277 72.993 35.2095C73.0312 35.2912 72.9959 35.3885 72.9142 35.4268L66.2446 38.5465C66.2222 38.557 66.1986 38.5619 66.1754 38.5619Z" fill="white"/>
<path d="M74.1802 34.8163C74.1187 34.8163 74.0598 34.7815 74.032 34.7221C73.9938 34.6403 74.0291 34.5431 74.1108 34.5048L82.1217 30.7576C82.2037 30.7194 82.3008 30.7547 82.339 30.8364C82.3772 30.9182 82.3419 31.0155 82.2601 31.0537L74.2493 34.8009C74.2269 34.8114 74.2034 34.8163 74.1802 34.8163Z" fill="white"/>
<path d="M102.313 107.126L95.6357 68.6289L92.527 69.1527L99.1107 107.126H102.313Z" fill="#D3BBA3"/>
<path d="M75.969 75.4329C75.8909 75.4329 75.8219 75.3768 75.8081 75.2973L72.003 53.3416C71.9956 53.2989 72.0055 53.2551 72.0304 53.2196C72.0554 53.1842 72.0934 53.1601 72.1361 53.1527L109.247 46.7211C109.29 46.7138 109.334 46.7236 109.369 46.7485C109.404 46.7735 109.428 46.8115 109.436 46.8543L113.241 68.8099C113.256 68.8988 113.197 68.9834 113.108 68.9989L75.997 75.4304C75.9876 75.432 75.9783 75.4329 75.969 75.4329ZM72.3531 53.4468L76.1023 75.0804L112.891 68.7046L109.142 47.071L72.3531 53.4468Z" fill="#D3BBA3"/>
<path d="M77.7333 72.7663L110.569 67.0742L107.441 49.0272L74.6048 54.7192L77.7333 72.7663Z" fill="#BD3644"/>
<path d="M81.8869 68.4043C81.8089 68.4043 81.7399 68.3483 81.7261 68.2687C81.7106 68.1798 81.7702 68.0952 81.8592 68.0798L107.054 63.7133C107.144 63.698 107.228 63.7575 107.243 63.8465C107.259 63.9355 107.199 64.02 107.11 64.0355L81.915 68.4019C81.9055 68.4035 81.8962 68.4043 81.8869 68.4043Z" fill="white"/>
<path d="M78.4649 58.0911C78.3869 58.0911 78.3179 58.0351 78.3041 57.9555C78.2886 57.8666 78.3482 57.782 78.4372 57.7666L86.3062 56.4028C86.3958 56.3874 86.4798 56.447 86.4952 56.536C86.5106 56.6248 86.451 56.7095 86.362 56.7249L78.493 58.0887C78.4835 58.0904 78.4742 58.0911 78.4649 58.0911Z" fill="white"/>
<path d="M87.8236 56.4686C87.7455 56.4686 87.6765 56.4125 87.6627 56.333C87.6473 56.2441 87.7069 56.1594 87.7959 56.144L102.757 53.5512C102.847 53.5359 102.93 53.5954 102.946 53.6844C102.961 53.7732 102.902 53.8579 102.813 53.8733L87.8517 56.4661C87.8422 56.4678 87.8328 56.4686 87.8236 56.4686Z" fill="white"/>
<path d="M78.8935 61.7179C78.8159 61.7179 78.7472 61.6625 78.7329 61.5835C78.7168 61.4946 78.7758 61.4097 78.8646 61.3936L92.2872 58.9674C92.3756 58.9515 92.461 59.0104 92.4771 59.0992C92.4932 59.1881 92.4341 59.273 92.3453 59.2891L78.9227 61.7153C78.9129 61.717 78.9032 61.7179 78.8935 61.7179Z" fill="white"/>
<path d="M94.3851 58.9181C94.3076 58.9181 94.2388 58.8626 94.2245 58.7837C94.2083 58.6948 94.2674 58.6098 94.3562 58.5937L105.741 56.5359C105.831 56.5197 105.915 56.5789 105.931 56.6676C105.947 56.7565 105.888 56.8414 105.799 56.8575L94.4143 58.9154C94.4045 58.9172 94.3947 58.9181 94.3851 58.9181Z" fill="white"/>
<path d="M79.6305 65.394C79.5528 65.394 79.4841 65.3385 79.4698 65.2595C79.4537 65.1707 79.5127 65.0857 79.6015 65.0696L87.9457 63.5612C88.0343 63.5454 88.1195 63.6042 88.1356 63.6929C88.1517 63.7817 88.0927 63.8667 88.0039 63.8828L79.6597 65.3913C79.6499 65.3931 79.6401 65.394 79.6305 65.394Z" fill="white"/>
<path d="M89.4622 63.6153C89.3846 63.6153 89.3159 63.5599 89.3016 63.4809C89.2855 63.3921 89.3445 63.3071 89.4333 63.291L106.381 60.2272C106.47 60.2113 106.555 60.2701 106.571 60.3589C106.587 60.4478 106.528 60.5328 106.439 60.5489L89.4915 63.6126C89.4817 63.6144 89.4719 63.6153 89.4622 63.6153Z" fill="white"/>
<path d="M94.9993 99.9176C97.4247 100.869 100.148 100.955 102.661 100.431C103.667 100.22 104.662 99.8725 105.618 99.4795C106.043 99.1628 105.882 98.473 105.787 98.073C105.723 97.8021 104.283 95.4568 103.866 94.9286C102.4 93.0705 101.457 93.8783 99.2625 92.2454C96.7723 90.3925 96.4191 87.9394 95.6475 88.1208C95.1109 88.247 94.9836 89.2098 95.4603 91.1086L95.4601 91.1087C94.932 89.7078 94.6786 87.8719 93.9051 88.1658C93.0304 88.5531 93.1658 90.8261 93.646 92.2008C93.0648 90.5369 92.8066 89.8866 92.3667 90.0669C91.6971 90.3414 91.6312 91.8371 92.2569 94.089L92.2567 94.0891C91.7497 92.6171 91.1715 94.285 91.3343 95.2241C91.4576 95.936 92.3162 97.3054 92.5816 97.6097C93.8314 99.0429 94.1335 99.3479 94.9993 99.9176Z" fill="#BC8271"/>
<path d="M99.9873 94.1994C99.3459 91.5037 99.0289 90.1127 99.2676 90.0463C100.057 89.8269 102.322 92.0146 104.506 95.9763C103.234 95.6877 101.26 94.488 99.9873 94.1994Z" fill="#BC8271"/>
<path d="M97.2263 93.4394C97.1902 93.4394 97.1539 93.4275 97.1237 93.4031C96.8253 93.1618 96.548 92.8918 96.2996 92.6004C95.9392 92.1779 95.6361 91.7073 95.3987 91.2017C95.3603 91.12 95.3955 91.0226 95.4772 90.9843C95.5589 90.9459 95.6563 90.981 95.6947 91.0628C95.9197 91.542 96.2069 91.9879 96.5483 92.3883C96.7837 92.6644 97.0464 92.9202 97.3291 93.1488C97.3994 93.2055 97.4103 93.3085 97.3535 93.3787C97.3212 93.4186 97.274 93.4394 97.2263 93.4394Z" fill="#363E44"/>
<path d="M95.3445 94.3124C95.3083 94.3124 95.272 94.3006 95.2417 94.2761C94.943 94.0345 94.6657 93.7645 94.4177 93.4735C94.0574 93.0511 93.7544 92.5805 93.5169 92.0747C93.4785 91.993 93.5137 91.8957 93.5953 91.8574C93.677 91.819 93.7744 91.854 93.8128 91.9358C94.0379 92.4151 94.3252 92.8611 94.6664 93.2614C94.9015 93.5371 95.1643 93.793 95.4473 94.0219C95.5174 94.0787 95.5284 94.1816 95.4716 94.2518C95.4394 94.2917 95.3922 94.3124 95.3445 94.3124Z" fill="#363E44"/>
<path d="M93.9696 96.4297C93.9335 96.4297 93.8972 96.4178 93.8669 96.3934C93.5685 96.1521 93.2912 95.882 93.0429 95.5907C92.6824 95.1681 92.3794 94.6975 92.142 94.1919C92.1036 94.1102 92.1388 94.0129 92.2204 93.9745C92.3024 93.9362 92.3995 93.9712 92.438 94.053C92.6629 94.5322 92.9501 94.9782 93.2916 95.3786C93.5269 95.6546 93.7896 95.9105 94.0725 96.1392C94.1426 96.1959 94.1536 96.2988 94.0968 96.369C94.0645 96.4089 94.0173 96.4297 93.9696 96.4297Z" fill="#363E44"/>
<path d="M112.411 107.127L102.903 93.918L94.2164 98.6247L99.0816 107.127H112.411Z" fill="#BC8271"/>
<path d="M66.4791 107.129L69.8028 77.3544L66.514 76.9727L63.1493 107.129H66.4791Z" fill="#D3BBA3"/>
<path d="M82.8546 82.3331C82.8486 82.3331 82.8424 82.3328 82.8363 82.3322L52.6656 78.9677C52.6225 78.9629 52.5831 78.9412 52.556 78.9073C52.5289 78.8735 52.5164 78.8303 52.5213 78.7871L55.1115 55.5595C55.1214 55.4698 55.2014 55.4049 55.292 55.4151L85.4627 58.7796C85.5058 58.7844 85.5452 58.8061 85.5723 58.84C85.5993 58.8739 85.6119 58.917 85.607 58.9602L83.0168 82.1878C83.0076 82.2713 82.9368 82.3331 82.8546 82.3331ZM52.8643 78.6609L82.7102 81.9891L85.2641 59.0863L55.4183 55.7581L52.8643 78.6609Z" fill="#E0AA63"/>
<path d="M54.6728 76.7445L81.3672 79.7207L83.4958 60.6285L56.8014 57.6523L54.6728 76.7445Z" fill="#E96C79"/>
<path d="M66.7056 73.2527C66.7533 72.8251 66.947 72.4912 67.2868 72.251C67.6266 72.0112 68.0276 71.9169 68.4901 71.9685C68.9524 72.02 69.3229 72.2003 69.6015 72.5092C69.8799 72.8182 69.9954 73.1868 69.9478 73.6142C69.9001 74.042 69.7062 74.3759 69.3666 74.6158C69.0268 74.8557 68.6255 74.9502 68.1633 74.8986C67.7008 74.847 67.3304 74.6665 67.0519 74.3577C66.7733 74.0489 66.658 73.6803 66.7056 73.2527ZM69.8314 70.8805L67.4647 70.6166L68.0539 61.9492L71.1661 62.2963L69.8314 70.8805Z" fill="white"/>
<path d="M68.3498 104.873C66.1063 104.997 63.6699 104.328 61.7535 103.22C60.986 102.776 60.2645 102.223 59.5879 101.643C60.0913 100.79 60.4679 100.157 60.6537 99.8545C60.7796 99.65 61 99.2879 61.4033 98.9126C62.8977 97.522 64.7864 98.7456 66.7465 97.4323C67.2365 97.104 67.5299 96.7291 67.7031 96.3566C68.228 95.2271 67.5155 94.6344 67.9667 94.3881C68.2835 94.2151 70.241 94.4037 69.7273 97.1431L69.6178 97.4582C70.1076 95.832 69.5185 95.4717 70.6863 95.7475C71.5917 96.1659 71.9476 97.8021 71.3596 98.9119C72.0194 97.6665 71.221 97.0282 71.618 97.1308C72.6977 97.4099 73.2724 99.2869 71.9878 100.834L71.988 100.834C72.5655 99.9736 72.8328 99.9151 72.98 100.258C73.2488 100.884 72.9191 102.211 71.7947 103.172C70.5474 104.237 69.2127 104.64 68.3498 104.873Z" fill="#ECD0C8"/>
<path d="M64.1242 98.4962C64.5475 95.8814 64.8057 95.0393 64.3892 94.9855C63.6887 94.8949 61.7539 96.7886 60.6539 100.532C61.6716 100.052 63.1066 98.9767 64.1242 98.4962Z" fill="#ECD0C8"/>
<path d="M68.6893 98.5867C68.6331 98.5867 68.5784 98.5577 68.5479 98.5056C68.5024 98.4277 68.5288 98.3275 68.6067 98.282C68.6325 98.267 68.6585 98.2515 68.6846 98.2356C69.128 97.9658 69.8257 96.9903 69.6372 96.0068C69.6202 95.9181 69.6782 95.8325 69.7668 95.8155C69.8563 95.7984 69.9411 95.8565 69.9582 95.9452C70.1857 97.1319 69.3374 98.2211 68.8544 98.5148C68.8267 98.5317 68.799 98.5482 68.7716 98.5642C68.7457 98.5795 68.7173 98.5867 68.6893 98.5867Z" fill="#363E44"/>
<path d="M69.8831 100.047C69.8305 100.047 69.7789 100.022 69.7473 99.9749C69.6969 99.8999 69.7169 99.7984 69.7918 99.748C69.8124 99.7343 69.8287 99.7288 69.8585 99.7189C70.3489 99.5567 71.4752 99.0031 71.3407 97.3703C71.3333 97.2804 71.4002 97.2013 71.4901 97.194C71.5803 97.186 71.6591 97.2535 71.6664 97.3435C71.8243 99.26 70.4011 99.8838 69.9611 100.029L69.9474 100.034C69.9267 100.043 69.9048 100.047 69.8831 100.047Z" fill="#363E44"/>
<path d="M70.5394 102.077C70.4801 102.077 70.4229 102.045 70.3939 101.989C70.3525 101.908 70.3842 101.81 70.4645 101.768C70.5716 101.713 70.678 101.654 70.7806 101.591C71.1022 101.396 71.5533 100.995 72.0855 100.432C72.1477 100.366 72.251 100.364 72.3166 100.426C72.3822 100.488 72.3851 100.591 72.3231 100.657C71.7711 101.24 71.2965 101.66 70.9504 101.871C70.8411 101.937 70.728 102.001 70.614 102.059C70.5901 102.071 70.5646 102.077 70.5394 102.077Z" fill="#363E44"/>
<path d="M65.6699 107.13L69.1458 104.028L63.3047 97.8301L50.6415 107.034C50.5886 107.072 50.5377 107.13 50.4868 107.13H65.6699Z" fill="#ECD0C8"/>
</g>
<defs>
<clipPath id="clip0_535_10737">
<rect y="0.0839844" width="310" height="103.333" rx="6.2" fill="white"/>
</clipPath>
</defs>
</svg>
