<svg width="240" height="331" viewBox="0 0 240 331" fill="none" xmlns="http://www.w3.org/2000/svg">
<g filter="url(#filter0_d_569_3920)">
<rect x="5" y="2.31445" width="230" height="321.37" rx="18.9041" fill="#E1FCEA"/>
<path d="M63.2907 63.918V63.8171C63.5931 63.8171 66.4161 63.3634 66.4161 58.2719V30.2434C66.4161 25.1519 63.5931 24.6982 63.2907 24.6982V24.5974H77.7082V24.6982C77.4057 24.6982 74.5827 25.1519 74.5827 30.2434V58.2719C74.5827 63.3634 77.4057 63.8171 77.7082 63.8171V63.918H63.2907ZM82.9143 34.5284C82.9143 27.6221 88.8628 23.8917 96.5253 23.8917C101.113 23.8917 103.885 24.5974 107.464 24.5974V32.8648H107.364C107.061 31.2517 106.507 29.1848 104.742 27.5717C103.18 26.2106 100.709 25.2024 96.6261 25.2024C92.4924 25.2024 88.6611 26.8659 88.6611 30.7476C88.6611 34.2259 91.8875 36.0911 94.7105 37.7043L101.818 41.7371C107.515 44.9634 109.834 48.7443 109.834 53.0796C109.834 59.8347 104.238 64.2204 94.9625 64.2204C91.7362 64.2204 87.048 63.918 83.8217 63.918V53.4325H83.9225C84.1746 55.6506 84.6787 58.0703 86.4431 59.9859C88.0058 61.6999 90.6272 62.9097 94.5088 62.9097C101.163 62.9097 103.28 59.7843 103.28 56.558C103.28 53.9366 101.97 51.6681 97.0798 48.8955L89.619 44.661C85.334 42.2413 82.9143 39.2166 82.9143 34.5284ZM142.55 24.5974V32.5623H142.45C142.45 31.9574 141.895 25.9081 136.199 25.9081H126.52V44.6106H135.695C140.131 44.6106 140.584 40.1744 140.584 39.7207H140.635V50.8111H140.584C140.584 50.3574 140.131 45.9213 135.695 45.9213H126.52V58.2719C126.52 63.3634 129.343 63.8171 129.645 63.8171V63.918H115.228V63.8171C115.53 63.8171 118.353 63.3634 118.353 58.2719V30.2434C118.353 25.1519 115.53 24.6982 115.228 24.6982V24.5974H142.55ZM148.359 63.918V63.8171C148.662 63.8171 151.485 63.3634 151.485 58.2719V30.2434C151.485 25.1519 148.662 24.6982 148.359 24.6982V24.5974H162.827C168.372 24.5974 172.405 25.6056 174.926 27.8741C176.892 29.6385 177.9 32.3103 177.9 35.8895C177.9 40.5777 175.833 44.0056 172.506 46.2237C169.582 48.1897 165.65 49.1476 161.315 49.1476H159.651V58.2719C159.651 63.3634 162.474 63.8171 162.777 63.8171V63.918H148.359ZM159.651 47.8369H160.811C163.18 47.8369 165.146 47.0807 166.558 45.6692C168.574 43.7032 169.633 40.4265 169.633 36.1415C169.633 32.3103 168.876 29.6889 167.414 28.0254C166.104 26.5634 164.188 25.9081 161.819 25.9081H159.651V47.8369Z" fill="#1BA972"/>
<path d="M63.4411 93.6445V93.613C63.5356 93.613 64.4178 93.4712 64.4178 91.8801V83.1212C64.4178 81.5301 63.5356 81.3884 63.4411 81.3884V81.3569H66.3712L73.1767 89.6274V83.1212C73.1767 81.5301 72.2945 81.3884 72.2 81.3884V81.3569H74.5945V81.3884C74.5 81.3884 73.6178 81.5301 73.6178 83.1212V93.7391L64.8589 83.1212V91.8801C64.8589 93.4712 65.7411 93.613 65.8356 93.613V93.6445H63.4411ZM79.244 96.6849C80.0789 96.6849 80.6145 96.3541 80.9611 95.8815C81.4967 95.1411 81.5913 94.0541 81.5913 93.2664V92.3843C81.1029 93.2822 80.1104 93.8336 79.0392 93.8336C76.6132 93.8336 75.1008 91.9747 75.1008 89.3596C75.1008 86.4295 76.6132 84.2555 79.2913 84.2555C80.5515 84.2555 81.1817 84.7754 81.5913 85.3425V84.413H85.0885V84.4445C84.994 84.4445 84.1118 84.5863 84.1118 86.1774V93.0144C84.1118 94.3534 83.6077 95.2829 82.8988 95.913C81.9378 96.7795 80.583 97.063 79.6221 97.063C78.0467 97.063 77.0228 96.5117 76.4399 96.5117V94.0856H76.4871C76.6289 94.9048 77.007 95.4877 77.4481 95.8973C78.0782 96.4801 78.8344 96.6849 79.244 96.6849ZM77.6056 89.2021C77.6056 91.376 78.3776 93.1404 79.7481 93.1404C80.5515 93.1404 81.1344 92.6678 81.5913 91.5808V86.1774C81.1817 85.311 80.5988 85.1062 80.1419 85.1062C78.6926 85.1062 77.6056 86.713 77.6056 89.2021ZM89.5378 93.8021C88.7501 93.8021 88.0412 93.5658 87.5213 93.1089C87.0172 92.6521 86.7021 91.9747 86.7021 91.0767V86.1774C86.7021 84.5863 85.8199 84.4445 85.7254 84.4445V84.413H89.2227V90.8719C89.2227 91.2658 89.2542 91.7856 89.459 92.211C89.6638 92.6206 90.0261 92.9199 90.5775 92.9199C91.696 92.9199 92.4994 91.8014 92.4994 90.2575V86.1774C92.4994 84.5863 91.6172 84.4445 91.5227 84.4445V84.413H95.0199V85.0432C95.272 84.8384 95.3508 84.6178 95.3665 84.413C95.3665 84.2397 95.3035 83.8301 94.6734 83.6726V83.6569L95.9809 82.7432C96.1699 82.8849 96.4378 83.3733 96.4062 83.7986C96.359 84.5548 95.5556 85.0589 95.0199 85.2952V91.8801C95.0199 93.4712 95.9021 93.613 95.9967 93.613V93.6445H92.4994V92.0062C92.1213 92.8884 91.2706 93.8021 89.5378 93.8021ZM101.853 93.8336C98.7972 93.8336 97.2849 91.6596 97.2849 89.0445C97.2849 86.4295 98.7972 84.2555 101.853 84.2555C103.019 84.2555 103.964 84.5706 104.689 85.1062C104.799 84.9486 104.831 84.7754 104.815 84.6336C104.799 84.4603 104.705 84.0664 104.059 83.9562V83.9404L105.288 82.9164C105.492 83.0425 105.792 83.5151 105.807 83.9404C105.823 84.5233 105.366 84.9959 104.925 85.311C105.918 86.1932 106.422 87.548 106.422 89.0445C106.422 91.6596 104.91 93.8336 101.853 93.8336ZM99.8684 89.0445C99.8684 91.376 100.404 93.4555 101.853 93.4555C103.303 93.4555 103.854 91.376 103.854 89.0445C103.854 86.713 103.303 84.6336 101.853 84.6336C100.404 84.6336 99.8684 86.713 99.8684 89.0445ZM100.184 82.4596V82.4123L101.018 81.2466H101.066C101.712 82.1445 102.862 83.3733 103.618 83.6726L103.57 83.7199C102.641 83.5938 100.987 83.074 100.184 82.4596ZM108.341 86.1774C108.341 84.5863 107.459 84.4445 107.364 84.4445V84.413H110.862V91.8801C110.862 93.4712 111.744 93.613 111.838 93.613V93.6445H107.364V93.613C107.459 93.613 108.341 93.4712 108.341 91.8801V86.1774ZM108.184 82.176C108.184 81.4356 108.798 80.8212 109.538 80.8212C110.279 80.8212 110.893 81.4356 110.893 82.176C110.893 82.9164 110.279 83.5308 109.538 83.5308C108.798 83.5308 108.184 82.9164 108.184 82.176ZM117.602 86.1774C117.602 84.5863 116.72 84.4445 116.626 84.4445V84.413H120.123V86.0514C120.501 85.1692 121.352 84.2555 123.085 84.2555C123.872 84.2555 124.581 84.4918 125.101 84.9486C125.605 85.4055 125.92 86.0829 125.92 86.9808V91.8801C125.92 93.4712 126.802 93.613 126.897 93.613V93.6445H122.423V93.613C122.518 93.613 123.4 93.4712 123.4 91.8801V87.1856C123.4 86.7918 123.368 86.2719 123.163 85.8466C122.959 85.437 122.596 85.1377 122.045 85.1377C120.926 85.1377 120.123 86.2562 120.123 87.8V91.8801C120.123 93.4712 121.005 93.613 121.1 93.613V93.6445H116.626V93.613C116.72 93.613 117.602 93.4712 117.602 91.8801V86.1774ZM131.796 96.6849C132.631 96.6849 133.167 96.3541 133.514 95.8815C134.049 95.1411 134.144 94.0541 134.144 93.2664V92.3843C133.655 93.2822 132.663 93.8336 131.592 93.8336C129.166 93.8336 127.653 91.9747 127.653 89.3596C127.653 86.4295 129.166 84.2555 131.844 84.2555C133.104 84.2555 133.734 84.7754 134.144 85.3425V84.413H137.641V84.4445C137.546 84.4445 136.664 84.5863 136.664 86.1774V93.0144C136.664 94.3534 136.16 95.2829 135.451 95.913C134.49 96.7795 133.135 97.063 132.175 97.063C130.599 97.063 129.575 96.5117 128.992 96.5117V94.0856H129.04C129.181 94.9048 129.559 95.4877 130.001 95.8973C130.631 96.4801 131.387 96.6849 131.796 96.6849ZM130.158 89.2021C130.158 91.376 130.93 93.1404 132.301 93.1404C133.104 93.1404 133.687 92.6678 134.144 91.5808V86.1774C133.734 85.311 133.151 85.1062 132.694 85.1062C131.245 85.1062 130.158 86.713 130.158 89.2021ZM139.444 82.8062C139.444 81.2151 138.561 81.0733 138.467 81.0733V81.0418H141.964V86.0514C142.342 85.1692 143.193 84.2555 144.926 84.2555C145.713 84.2555 146.422 84.4918 146.942 84.9486C147.446 85.4055 147.761 86.0829 147.761 86.9808V91.8801C147.761 93.4712 148.644 93.613 148.738 93.613V93.6445H144.264V93.613C144.359 93.613 145.241 93.4712 145.241 91.8801V87.1856C145.241 86.7918 145.209 86.2719 145.005 85.8466C144.8 85.437 144.437 85.1377 143.886 85.1377C142.768 85.1377 141.964 86.2562 141.964 87.8V91.8801C141.964 93.4712 142.846 93.613 142.941 93.613V93.6445H138.467V93.613C138.561 93.613 139.444 93.4712 139.444 91.8801V82.8062ZM154.13 93.8336C151.074 93.8336 149.499 91.8171 149.499 89.2021C149.499 86.4295 151.389 84.2555 154.398 84.2555C156.871 84.2555 157.848 85.5473 157.848 86.9651C157.848 89.1233 155.028 89.7692 152.098 89.7849C152.24 91.6754 153.043 93.1404 155.028 93.1404C156.304 93.1404 157.045 92.4 157.486 91.7541L157.533 91.7856C157.439 92.0849 156.745 93.8336 154.13 93.8336ZM151.736 83.7671L151.767 83.7829C152.681 83.7671 153.815 83.263 154.367 82.9007H154.398C154.95 83.263 156.084 83.7671 156.997 83.7829L157.029 83.7671C156.194 83.3891 154.839 82.2075 154.398 81.4829H154.367C153.926 82.2075 152.571 83.3891 151.736 83.7671ZM152.082 89.4069C154.871 89.3911 155.958 88.1781 155.958 86.5555C155.958 85.563 155.422 84.6336 154.445 84.6336C152.839 84.6336 152.098 86.713 152.082 89.4069ZM153.028 95.5349C153.028 94.9993 153.437 94.5897 153.973 94.5897C154.508 94.5897 154.918 94.9993 154.918 95.5349C154.918 96.0706 154.508 96.4801 153.973 96.4801C153.437 96.4801 153.028 96.0706 153.028 95.5349ZM166.296 93.8021C164.831 93.8021 164.201 93.6445 162.988 93.6445V90.6829H163.051C163.161 91.2658 163.303 91.8801 163.65 92.3685C164.075 92.9829 164.831 93.424 166.217 93.424C167.541 93.424 168.124 92.7781 168.124 92.1322C168.124 91.3918 167.714 90.9664 166.391 90.3206L164.485 89.3911C163.319 88.824 162.862 88.0206 162.862 87.0596C162.862 85.7521 163.996 84.287 166.627 84.287C168.155 84.287 169.163 84.6021 169.573 84.6021V87.1226H169.541C169.384 86.461 169.132 85.9569 168.801 85.563C168.265 84.9486 167.525 84.6651 166.627 84.6651C165.367 84.6651 164.595 85.1219 164.595 85.8938C164.595 86.3664 165.036 86.8863 165.855 87.2801L168.202 88.4301C169.652 89.1391 170.109 90.0527 170.109 90.9822C170.109 92.9356 168.439 93.8021 166.296 93.8021ZM172.339 86.1774C172.339 84.5863 171.457 84.4445 171.363 84.4445V84.413H174.86V91.8801C174.86 93.4712 175.742 93.613 175.837 93.613V93.6445H171.363V93.613C171.457 93.613 172.339 93.4712 172.339 91.8801V86.1774ZM171.331 82.8692C171.725 81.5617 172.229 80.9158 172.749 80.9158C173.348 80.9158 174.435 81.798 174.97 81.798C175.27 81.798 175.49 81.7192 175.742 80.963H175.805C175.506 82.3178 175.065 82.8534 174.545 82.8534C173.789 82.8534 172.938 82.0185 172.276 82.0185C171.977 82.0185 171.678 82.2548 171.379 82.8692H171.331Z" fill="#1BA972"/>
<g clip-path="url(#clip0_569_3920)">
<path d="M120.001 304.781C172.638 304.781 215.309 262.11 215.309 209.472C215.309 156.835 172.638 114.164 120.001 114.164C67.3633 114.164 24.6924 156.835 24.6924 209.472C24.6924 262.11 67.3633 304.781 120.001 304.781Z" fill="#2CA677"/>
<path d="M64.6261 200.091L78.5933 200.065L62.2431 194.708C53.0319 172.513 52.2182 152.476 60.9364 148.234C70.559 143.552 88.1495 159.884 100.226 184.714C112.303 209.543 114.292 233.468 104.67 238.15C95.0469 242.832 77.4563 226.5 65.3797 201.67C65.1234 201.143 64.8734 200.617 64.6261 200.091Z" fill="#81D8B6"/>
<path d="M90.4905 171.296C89.9019 159.229 90.7523 148.018 92.6708 138.875L103.277 152.697L94.6675 131.264C97.7019 121.895 102.121 116.04 107.286 115.817C118.034 115.353 127.94 139.439 129.412 169.615C130.884 199.791 123.365 224.63 112.617 225.094C101.869 225.558 91.9626 201.472 90.4905 171.296Z" fill="#1BA972"/>
<path d="M127.05 290.069C126.949 290.069 126.857 290.003 126.829 289.902C112.481 239.215 108.118 197.613 106.983 171.638C105.754 143.488 107.948 127.109 107.97 126.946C107.987 126.821 108.101 126.732 108.229 126.75C108.355 126.768 108.443 126.883 108.425 127.009C108.403 127.171 106.214 143.52 107.443 171.634C108.577 197.581 112.938 239.14 127.271 289.777C127.305 289.899 127.234 290.026 127.112 290.061C127.091 290.067 127.07 290.069 127.05 290.069Z" fill="#F7F1EB"/>
<path d="M125.189 290.97C125.092 290.97 125.002 290.908 124.971 290.811C112.735 252.953 98.9325 221.15 89.508 201.137C79.2961 179.452 71.8827 166.554 71.8091 166.427C71.7457 166.317 71.7833 166.176 71.8932 166.113C72.0027 166.049 72.1434 166.087 72.2069 166.197C72.2806 166.325 79.7015 179.235 89.9208 200.935C99.3518 220.962 113.164 252.786 125.408 290.67C125.447 290.79 125.381 290.92 125.26 290.959C125.237 290.966 125.213 290.97 125.189 290.97Z" fill="#E6D0BE"/>
<path d="M146.527 197.151L136.551 200.356L146.997 192.955C148.494 175.796 144.49 162.037 137.296 161.175C129.356 160.224 120.536 175.345 117.597 194.949C114.657 214.553 118.711 231.216 126.651 232.168C134.591 233.119 143.411 217.998 146.351 198.394C146.413 197.978 146.471 197.564 146.527 197.151Z" fill="#E6D0BE"/>
<path d="M129.304 292.567C129.196 292.567 129.1 292.491 129.079 292.381C122.708 259.721 124.164 229.487 126.507 209.874C129.063 188.481 133.243 174.275 133.79 173.733C133.881 173.643 134.026 173.644 134.115 173.734C134.201 173.821 134.203 173.959 134.123 174.049C133.686 174.697 129.477 188.669 126.922 210.278C124.617 229.777 123.198 259.834 129.529 292.293C129.554 292.418 129.472 292.538 129.348 292.563C129.333 292.566 129.318 292.567 129.304 292.567Z" fill="#F7F1EB"/>
<path d="M180 242.471H105.438C105.311 242.471 105.208 242.368 105.208 242.241V239.797C105.208 239.744 105.226 239.693 105.26 239.652L187.13 139.333C187.169 139.284 187.227 139.254 187.289 139.249C187.353 139.244 187.413 139.264 187.46 139.306L189.928 141.501C189.983 141.55 190.011 141.622 190.004 141.695L180.228 242.263C180.217 242.381 180.118 242.471 180 242.471ZM105.667 242.011H179.791L189.536 141.767L187.334 139.809L105.667 239.879L105.667 242.011Z" fill="#D3BBA3"/>
<path d="M105.906 239.797H178.024L187.8 139.229H115.682L105.906 239.797Z" fill="#F7F1EB"/>
<path d="M205.006 281.806H200.707C200.596 281.806 200.501 281.727 200.481 281.618L184.623 194.525C184.619 194.505 184.618 194.485 184.62 194.464L186.019 177.953C186.029 177.838 186.122 177.748 186.237 177.743C186.343 177.736 186.453 177.817 186.474 177.931L205.232 281.536C205.244 281.603 205.226 281.672 205.183 281.724C205.139 281.776 205.074 281.806 205.006 281.806ZM200.898 281.347H204.731L186.33 179.717L185.08 194.473L200.898 281.347Z" fill="#D3BBA3"/>
<path d="M174.276 303.081H169.976C169.867 303.081 169.773 303.004 169.751 302.896L157.531 242.285C157.517 242.217 157.535 242.147 157.578 242.094C157.622 242.041 157.687 242.01 157.756 242.01H162.056C162.165 242.01 162.259 242.087 162.281 242.194L174.501 302.806C174.514 302.873 174.497 302.943 174.453 302.997C174.41 303.05 174.345 303.081 174.276 303.081ZM170.164 302.621H173.995L161.868 242.469H158.037L170.164 302.621Z" fill="#D3BBA3"/>
<path d="M120.996 303.081H116.696C116.628 303.081 116.562 303.05 116.519 302.997C116.475 302.943 116.458 302.873 116.471 302.806L128.691 242.194C128.713 242.087 128.807 242.01 128.917 242.01H133.216C133.285 242.01 133.35 242.041 133.394 242.094C133.438 242.147 133.455 242.217 133.441 242.285L121.221 302.896C121.199 303.003 121.105 303.081 120.996 303.081ZM116.977 302.621H120.808L132.936 242.469H129.104L116.977 302.621Z" fill="#D3BBA3"/>
<path d="M109.092 202.613L180.796 202.984L177.556 239.788H105.534L109.092 202.613Z" fill="#D3BBA3"/>
<path d="M177.948 233.97H106.002L106.433 230.072H178.378L177.948 233.97Z" fill="#B77250"/>
<path d="M172.413 138.742L174.324 202.383L156.628 228.279C155.666 229.688 155.231 231.391 155.401 233.089L156.074 239.819H145.779L144.375 230.226L164.731 138.508L172.413 138.742Z" fill="#E6D0BE"/>
<path d="M135.016 139.21L127.375 203.55L114.933 227.555C113.56 230.204 113.305 233.093 113.256 236.076L114.192 239.82H145.856L146.074 233.051C146.108 231.996 146.311 230.954 146.675 229.964L147.588 227.474L169.098 205.971L167.304 138.742L135.016 139.21Z" fill="#003A6B"/>
<path d="M126.007 227.829L135.711 207.646C137.416 204.168 138.462 200.405 138.797 196.547L143.672 140.381L140.63 202.15L129.838 228.093L128.832 230.55C128.601 231.112 128.526 231.727 128.613 232.328L129.692 239.762L123.17 239.821L123.683 233.755C123.823 232.088 124.358 230.479 125.242 229.059L126.007 227.829Z" fill="#EFBC73"/>
<path d="M151.862 152.078L144.842 203.553L134.666 226.622L132.814 230.82C132.777 230.905 132.749 230.993 132.729 231.083L130.882 239.78L139.597 239.838L139.329 231.041L140.445 227.048L146.948 203.787L151.862 152.078Z" fill="#EFBC73"/>
<path d="M166.882 206.528H152.341V173.82C152.341 171.985 153.279 170.277 154.829 169.293L156.925 167.962L156.907 157.912H161.986L162.001 167.962L164.266 169.313C165.889 170.28 166.882 172.03 166.882 173.919L166.882 206.528Z" fill="#FC8F47"/>
<path d="M164.236 180.291H152.276V190.407H164.236V180.291Z" fill="#E0AA63"/>
<path d="M160.278 160.873H156.906C156.779 160.873 156.677 160.771 156.677 160.644C156.677 160.517 156.779 160.414 156.906 160.414H160.278C160.405 160.414 160.508 160.517 160.508 160.644C160.508 160.771 160.405 160.873 160.278 160.873Z" fill="white"/>
<path d="M160.278 162.004H156.906C156.779 162.004 156.677 161.902 156.677 161.775C156.677 161.648 156.779 161.545 156.906 161.545H160.278C160.405 161.545 160.508 161.648 160.508 161.775C160.508 161.902 160.405 162.004 160.278 162.004Z" fill="white"/>
<path d="M139.643 180.244C139.121 181.748 138.827 183.423 138.824 185.193C138.814 191.679 142.7 196.949 147.504 196.962C152.308 196.976 156.211 191.729 156.221 185.242C156.224 183.473 155.935 181.795 155.418 180.289L139.643 180.244Z" fill="#E6D0BE"/>
<path d="M141.241 190.16C142.348 193.335 144.735 195.536 147.506 195.544C150.288 195.552 152.689 193.348 153.8 190.16H141.241Z" fill="#EB4130"/>
<path d="M147.522 197.192C147.516 197.192 147.509 197.192 147.503 197.192C142.58 197.178 138.583 191.795 138.594 185.192C138.596 183.442 138.876 181.752 139.425 180.169L139.479 180.014L155.581 180.06L155.634 180.214C156.178 181.8 156.452 183.492 156.45 185.243C156.444 189.064 155.128 192.562 152.84 194.839C151.294 196.379 149.456 197.192 147.522 197.192ZM139.806 180.474C139.309 181.964 139.056 183.551 139.053 185.193C139.043 191.543 142.834 196.719 147.504 196.733C147.51 196.733 147.516 196.733 147.522 196.733C149.332 196.733 151.058 195.966 152.516 194.514C154.686 192.354 155.985 188.888 155.99 185.242C155.993 183.599 155.745 182.01 155.252 180.518L139.806 180.474Z" fill="white"/>
<path d="M140.933 186.424C140.932 186.424 140.931 186.424 140.931 186.424C140.804 186.423 140.702 186.319 140.703 186.193C140.715 184.853 140.937 183.563 141.365 182.358L141.42 182.203L145.698 182.269C145.825 182.271 145.926 182.375 145.924 182.502C145.922 182.627 145.82 182.728 145.695 182.728C145.693 182.728 145.692 182.728 145.691 182.728L141.744 182.667C141.369 183.78 141.173 184.966 141.162 186.197C141.161 186.323 141.059 186.424 140.933 186.424Z" fill="white"/>
<path d="M147.675 209.874C147.548 209.874 147.445 209.771 147.445 209.644V196.999C147.445 196.872 147.548 196.77 147.675 196.77C147.802 196.77 147.905 196.872 147.905 196.999V209.644C147.905 209.771 147.802 209.874 147.675 209.874Z" fill="white"/>
<path d="M152.882 209.922H142.466C142.339 209.922 142.236 209.82 142.236 209.693C142.236 209.566 142.339 209.463 142.466 209.463H152.882C153.009 209.463 153.112 209.566 153.112 209.693C153.112 209.82 153.009 209.922 152.882 209.922Z" fill="white"/>
<path d="M136.445 198.125C134.162 195.086 130.626 193.878 128.468 195.432C126.314 196.983 126.333 200.707 128.476 203.831C127.92 205.965 128.283 208.321 129.672 210.251C132.146 213.687 136.937 214.467 140.373 211.993C143.81 209.519 144.59 204.728 142.116 201.292C140.735 199.373 138.631 198.283 136.445 198.125Z" fill="#EFBC73"/>
<path d="M136.856 213.666C134.4 213.667 131.978 212.527 130.437 210.386C129.078 208.499 128.622 206.132 129.18 203.876C127.004 200.637 127.043 196.861 129.285 195.247C131.534 193.628 135.134 194.797 137.517 197.905C139.818 198.103 141.904 199.284 143.254 201.159C145.798 204.693 144.993 209.637 141.459 212.181C140.066 213.184 138.454 213.666 136.856 213.666ZM131.614 194.994C130.852 194.994 130.143 195.195 129.553 195.62C127.53 197.077 127.559 200.703 129.617 203.703C129.655 203.758 129.667 203.826 129.65 203.891C129.088 206.044 129.511 208.314 130.81 210.118C133.206 213.446 137.863 214.204 141.191 211.808C144.519 209.412 145.277 204.755 142.881 201.427C141.591 199.635 139.586 198.515 137.38 198.355C137.313 198.35 137.252 198.317 137.213 198.264C135.657 196.193 133.476 194.994 131.614 194.994Z" fill="#FFD092"/>
<path d="M129.214 197.019C129.119 197.019 129.03 196.959 128.997 196.864C128.833 196.395 128.423 195.505 127.507 194.821C126.787 194.283 126.045 194.084 125.549 194.012C125.424 193.994 125.337 193.877 125.355 193.752C125.373 193.626 125.489 193.537 125.615 193.558C126.164 193.637 126.985 193.857 127.782 194.453C128.796 195.21 129.25 196.194 129.431 196.713C129.473 196.833 129.409 196.964 129.29 197.006C129.264 197.014 129.239 197.019 129.214 197.019Z" fill="#363E44"/>
<path d="M139.516 210.013C140.655 210.013 141.578 208.159 141.578 205.872C141.578 203.584 140.655 201.73 139.516 201.73C138.377 201.73 137.454 203.584 137.454 205.872C137.454 208.159 138.377 210.013 139.516 210.013Z" fill="#FFD092"/>
<path d="M165.008 212.697C165.001 212.697 164.994 212.697 164.986 212.696C164.86 212.685 164.767 212.573 164.779 212.446C164.991 210.175 165.096 207.869 165.091 205.592C165.086 202.809 164.916 199.991 164.588 197.218C164.573 197.092 164.663 196.978 164.788 196.963C164.916 196.946 165.029 197.038 165.044 197.164C165.374 199.954 165.545 202.79 165.551 205.592C165.555 207.883 165.45 210.203 165.236 212.489C165.225 212.608 165.125 212.697 165.008 212.697Z" fill="#363E44"/>
<path d="M168.842 198.184C167.263 198.029 165.977 198.634 165.068 199.766C164.159 198.634 162.873 198.029 161.294 198.184C157.92 198.517 156.635 202.341 157.445 205.918C158.337 209.86 160.208 213 162.73 212.751C163.687 212.657 164.466 212.143 165.068 211.307C165.67 212.143 166.45 212.657 167.406 212.751C169.929 213 171.799 209.86 172.692 205.918C173.501 202.341 172.216 198.517 168.842 198.184Z" fill="#E03300"/>
<path d="M168.333 199.702C168.166 199.918 169.541 200.938 170.002 203.06C170.529 205.479 170.279 207.492 170.52 207.621C170.806 207.774 171.681 204.558 171.131 202.101C170.627 199.85 168.538 199.436 168.333 199.702Z" fill="#F7F1EB"/>
<path d="M155.39 212.063C156.559 212.063 157.507 211.284 157.507 210.322C157.507 209.361 156.559 208.582 155.39 208.582C154.221 208.582 153.273 209.361 153.273 210.322C153.273 211.284 154.221 212.063 155.39 212.063Z" fill="#7664E3"/>
<path d="M162.077 215.785C163.074 215.785 163.883 215.12 163.883 214.3C163.883 213.479 163.074 212.814 162.077 212.814C161.079 212.814 160.271 213.479 160.271 214.3C160.271 215.12 161.079 215.785 162.077 215.785Z" fill="#7664E3"/>
<path d="M156.139 215.438C157.227 215.438 158.108 214.714 158.108 213.82C158.108 212.926 157.227 212.201 156.139 212.201C155.052 212.201 154.171 212.926 154.171 213.82C154.171 214.714 155.052 215.438 156.139 215.438Z" fill="#7664E3"/>
<path opacity="0.7" d="M155.759 213.752C156.427 213.752 156.969 213.498 156.969 213.185C156.969 212.871 156.427 212.617 155.759 212.617C155.091 212.617 154.549 212.871 154.549 213.185C154.549 213.498 155.091 213.752 155.759 213.752Z" fill="white"/>
<path d="M144.942 222.708C145.81 222.708 146.515 222.026 146.515 221.184C146.515 220.342 145.81 219.66 144.942 219.66C144.073 219.66 143.369 220.342 143.369 221.184C143.369 222.026 144.073 222.708 144.942 222.708Z" fill="#7664E3"/>
<path d="M142.335 224.472C143.204 224.472 143.908 223.789 143.908 222.948C143.908 222.106 143.204 221.424 142.335 221.424C141.467 221.424 140.763 222.106 140.763 222.948C140.763 223.789 141.467 224.472 142.335 224.472Z" fill="#7664E3"/>
<path d="M147.212 220.197C148.127 220.197 148.868 219.587 148.868 218.835C148.868 218.083 148.127 217.473 147.212 217.473C146.297 217.473 145.555 218.083 145.555 218.835C145.555 219.587 146.297 220.197 147.212 220.197Z" fill="#7664E3"/>
<path d="M153.459 223.229C154.374 223.229 155.116 222.619 155.116 221.866C155.116 221.114 154.374 220.504 153.459 220.504C152.544 220.504 151.802 221.114 151.802 221.866C151.802 222.619 152.544 223.229 153.459 223.229Z" fill="#7664E3"/>
<path d="M157.301 222.973C158.217 222.973 158.958 222.363 158.958 221.61C158.958 220.858 158.217 220.248 157.301 220.248C156.386 220.248 155.645 220.858 155.645 221.61C155.645 222.363 156.386 222.973 157.301 222.973Z" fill="#7664E3"/>
<path d="M159.715 220.697C160.63 220.697 161.371 220.087 161.371 219.335C161.371 218.583 160.63 217.973 159.715 217.973C158.799 217.973 158.058 218.583 158.058 219.335C158.058 220.087 158.799 220.697 159.715 220.697Z" fill="#7664E3"/>
<path d="M162.597 218.77C163.512 218.77 164.254 218.16 164.254 217.407C164.254 216.655 163.512 216.045 162.597 216.045C161.682 216.045 160.94 216.655 160.94 217.407C160.94 218.16 161.682 218.77 162.597 218.77Z" fill="#7664E3"/>
<path d="M149.482 223.309C150.397 223.309 151.139 222.699 151.139 221.946C151.139 221.194 150.397 220.584 149.482 220.584C148.567 220.584 147.825 221.194 147.825 221.946C147.825 222.699 148.567 223.309 149.482 223.309Z" fill="#7664E3"/>
<path d="M146.48 225.33C147.395 225.33 148.137 224.72 148.137 223.968C148.137 223.215 147.395 222.605 146.48 222.605C145.565 222.605 144.823 223.215 144.823 223.968C144.823 224.72 145.565 225.33 146.48 225.33Z" fill="#7664E3"/>
<path d="M158.802 217.915C159.889 217.915 160.77 217.19 160.77 216.296C160.77 215.402 159.889 214.678 158.802 214.678C157.714 214.678 156.833 215.402 156.833 216.296C156.833 217.19 157.714 217.915 158.802 217.915Z" fill="#7664E3"/>
<path d="M155.684 220.497C156.759 220.328 157.517 219.476 157.378 218.593C157.24 217.71 156.257 217.13 155.183 217.299C154.109 217.467 153.351 218.319 153.489 219.202C153.627 220.086 154.61 220.665 155.684 220.497Z" fill="#7664E3"/>
<path d="M151.427 220.52C152.354 220.374 153.008 219.639 152.889 218.877C152.769 218.115 151.921 217.615 150.994 217.76C150.068 217.906 149.413 218.641 149.533 219.403C149.652 220.165 150.5 220.665 151.427 220.52Z" fill="#7664E3"/>
<path d="M149.021 217.675C150.108 217.675 150.99 216.95 150.99 216.056C150.99 215.162 150.108 214.438 149.021 214.438C147.934 214.438 147.053 215.162 147.053 216.056C147.053 216.95 147.934 217.675 149.021 217.675Z" fill="#7664E3"/>
<path d="M153.127 217.684C154.214 217.684 155.095 216.96 155.095 216.066C155.095 215.172 154.214 214.447 153.127 214.447C152.04 214.447 151.158 215.172 151.158 216.066C151.158 216.96 152.04 217.684 153.127 217.684Z" fill="#7664E3"/>
<path d="M152.286 214.343C153.373 214.343 154.254 213.618 154.254 212.724C154.254 211.83 153.373 211.105 152.286 211.105C151.199 211.105 150.317 211.83 150.317 212.724C150.317 213.618 151.199 214.343 152.286 214.343Z" fill="#7664E3"/>
<path d="M159.764 212.596C159.657 212.596 159.561 212.521 159.539 212.412C159.514 212.287 159.594 212.166 159.718 212.141C162.695 211.54 163.819 209.314 164.59 206.997C164.63 206.877 164.76 206.812 164.881 206.851C165.001 206.892 165.066 207.022 165.026 207.142C164.211 209.59 163.015 211.944 159.809 212.591C159.794 212.595 159.779 212.596 159.764 212.596Z" fill="#7664E3"/>
<path d="M159.698 213.194C160.867 213.194 161.814 212.415 161.814 211.453C161.814 210.492 160.867 209.713 159.698 209.713C158.529 209.713 157.581 210.492 157.581 211.453C157.581 212.415 158.529 213.194 159.698 213.194Z" fill="#7664E3"/>
<path opacity="0.7" d="M161.457 211.014C161.367 211.314 160.775 211.4 160.135 211.207C159.495 211.014 159.05 210.614 159.141 210.314C159.231 210.014 159.823 209.927 160.463 210.121C161.103 210.314 161.548 210.714 161.457 211.014Z" fill="white"/>
<path opacity="0.7" d="M156.875 209.752C156.785 210.052 156.193 210.139 155.553 209.945C154.913 209.752 154.468 209.352 154.559 209.052C154.649 208.752 155.241 208.666 155.881 208.859C156.521 209.052 156.966 209.452 156.875 209.752Z" fill="white"/>
<path d="M83.6602 285.02L82.988 297.791L71.874 297.286L72.042 285.524L83.6602 285.02Z" fill="white"/>
<path d="M54.9248 284.504L54.1952 297.275L43.2529 296.771L43.4352 285.008L54.9248 284.504Z" fill="white"/>
<path d="M50.976 202.408C47.2607 206.256 42.3669 212.375 39.4059 220.92C36.4427 229.472 36.7827 236.507 38.0175 251.466C39.1874 265.636 40.4659 278.507 41.7199 289.878C47.0421 289.647 51.4388 289.647 56.7611 289.416C58.3037 270.672 58.4581 252.16 60.0007 233.416C61.7748 241.747 65.8629 249.614 67.637 257.945C68.0997 268.281 69.951 278.848 70.4138 289.184C75.9675 289.184 80.1327 288.953 85.6864 288.953C87.2858 278.867 88.4343 264.583 86.1492 247.763C83.6291 229.214 77.8888 214.617 73.1907 204.954C65.7858 204.105 58.3808 203.257 50.976 202.408Z" fill="#003A6B"/>
<path d="M40.6025 303.951L43.2313 295.799H54.624L60.0865 296.913C64.0501 297.715 66.7237 301.026 66.6871 303.951H40.6025Z" fill="#363E44"/>
<path d="M69.2295 303.951L71.8582 295.799H83.2509L88.7134 296.913C92.6771 297.715 95.3506 301.026 95.314 303.951H69.2295Z" fill="#363E44"/>
<path d="M95.1096 302.557H69.6887C69.5618 302.557 69.459 302.454 69.459 302.327C69.459 302.2 69.5618 302.098 69.6887 302.098H95.1095C95.2364 302.098 95.3392 302.2 95.3392 302.327C95.3392 302.454 95.2364 302.557 95.1096 302.557Z" fill="white"/>
<path d="M66.4835 302.557H41.0627C40.9358 302.557 40.833 302.454 40.833 302.327C40.833 302.2 40.9358 302.098 41.0627 302.098H66.4835C66.6104 302.098 66.7132 302.2 66.7132 302.327C66.7132 302.454 66.6104 302.557 66.4835 302.557Z" fill="white"/>
<path d="M57.7969 178H65.6973V163.487H57.7969V178Z" fill="#363E44"/>
<path d="M39.8263 180.266C35.1554 185.254 20.8354 198.886 26.3161 204.436C30.8496 209.027 44.2414 195.177 49.1856 190.502C46.0659 187.09 42.946 183.678 39.8263 180.266Z" fill="white"/>
<path d="M81.6358 182.479C94.1842 187.684 100.747 191.931 98.3871 196.517C97.0182 199.177 87.1139 198.406 76.9951 194.823C78.0131 190.655 79.501 187.305 81.6358 182.479Z" fill="white"/>
<path d="M85.8399 192.127C85.8399 192.126 85.8399 192.126 85.8398 192.126C92.8644 182.042 97.6547 174.753 99.2222 172.561C99.3863 172.332 99.6741 171.925 100.178 171.518C102.043 170.009 103.879 170.908 106.565 170.217C109.613 169.432 110.884 167.265 111.539 167.731C111.994 168.055 111.745 169.007 110.571 170.606C110.571 170.606 110.571 170.607 110.571 170.607C111.603 169.494 113.069 168.047 113.683 168.619C114.356 169.317 112.834 171.22 111.856 172.326C113.039 170.987 114.069 170.629 114.331 171.033C114.745 171.669 114.07 172.921 112.438 174.63L112.438 174.63C113.895 173.765 114.377 173.772 114.522 174.186C114.787 174.941 113.419 176.321 112.022 177.355C110.45 178.519 108.826 178.877 107.797 179.078C107.797 179.078 107.796 179.078 107.796 179.079C104.504 185.033 100.171 193.022 98.4699 196.164C98.0372 196.963 97.1046 197.348 96.2345 197.085C93.6183 196.296 88.2792 194.476 85.8399 192.127Z" fill="white"/>
<path d="M101.625 171.1C101.524 171.1 101.432 171.033 101.404 170.931C101.37 170.808 101.442 170.682 101.565 170.649C102.248 170.462 102.95 170.443 103.695 170.423C104.036 170.413 104.39 170.404 104.758 170.378C104.89 170.367 104.994 170.464 105.003 170.591C105.012 170.717 104.917 170.827 104.791 170.836C104.413 170.863 104.054 170.872 103.707 170.882C102.991 170.901 102.315 170.92 101.686 171.092C101.665 171.097 101.645 171.1 101.625 171.1Z" fill="#363E44"/>
<path d="M108.403 172.031C108.305 172.031 108.213 171.967 108.184 171.867C108.147 171.746 108.216 171.618 108.337 171.581C108.686 171.476 109.027 171.339 109.351 171.171C109.82 170.929 110.256 170.624 110.646 170.264C110.739 170.178 110.885 170.184 110.971 170.277C111.057 170.371 111.05 170.516 110.957 170.602C110.537 170.989 110.067 171.318 109.562 171.579C109.213 171.76 108.845 171.908 108.47 172.021C108.448 172.028 108.425 172.031 108.403 172.031Z" fill="#363E44"/>
<path d="M109.836 173.57C109.737 173.57 109.646 173.506 109.616 173.406C109.58 173.285 109.649 173.157 109.77 173.12C110.119 173.015 110.46 172.877 110.784 172.71C111.252 172.468 111.688 172.163 112.079 171.803C112.172 171.717 112.317 171.723 112.403 171.816C112.489 171.91 112.483 172.055 112.39 172.141C111.969 172.529 111.499 172.857 110.994 173.118C110.646 173.298 110.279 173.447 109.902 173.56C109.88 173.567 109.858 173.57 109.836 173.57Z" fill="#363E44"/>
<path d="M110.317 176.085C110.218 176.085 110.127 176.021 110.097 175.922C110.06 175.801 110.129 175.672 110.25 175.636C110.6 175.531 110.941 175.393 111.264 175.226C111.733 174.983 112.169 174.678 112.559 174.319C112.652 174.233 112.798 174.239 112.884 174.332C112.97 174.425 112.964 174.57 112.87 174.656C112.45 175.044 111.98 175.373 111.475 175.634C111.127 175.814 110.759 175.962 110.383 176.076C110.361 176.082 110.338 176.085 110.317 176.085Z" fill="#363E44"/>
<path d="M103.626 176.712C103.586 176.712 103.545 176.702 103.508 176.679C103.399 176.614 103.364 176.473 103.43 176.364C103.732 175.864 104.288 175.174 105.226 174.727C106.552 174.095 107.813 174.364 108.294 174.508C108.415 174.545 108.484 174.673 108.447 174.794C108.411 174.916 108.282 174.984 108.161 174.948C107.731 174.818 106.605 174.579 105.423 175.141C104.589 175.539 104.093 176.155 103.823 176.601C103.78 176.673 103.704 176.712 103.626 176.712Z" fill="#363E44"/>
<path d="M85.9189 192.241C85.8736 192.241 85.8279 192.227 85.788 192.2C85.6838 192.127 85.6582 191.984 85.7307 191.88C87.2836 189.65 88.8168 187.429 90.4176 185.09C90.4893 184.986 90.632 184.959 90.7369 185.03C90.8415 185.102 90.8684 185.245 90.7967 185.35C89.1951 187.69 87.6613 189.912 86.1076 192.142C86.063 192.207 85.9916 192.241 85.9189 192.241Z" fill="#363E44"/>
<path d="M36.0352 179.68C36.0352 179.68 48.5407 173.739 60.0213 174.763C71.5018 175.788 82.7261 180.295 82.7261 180.295L77.2421 194.226L77.8642 217.588L41.5151 219.366L41.3654 195.096L36.0352 179.68Z" fill="#003A6B"/>
<path d="M98.0277 167.996C94.786 167.797 86.9699 171.422 87.419 175.487C87.8091 179.019 95.2081 183.011 107.926 183.567C121.414 184.156 135.042 180.1 135.604 175.842C136.082 172.225 126.944 169.587 118.025 169.435C111.648 169.326 107.286 170.896 103.218 170.314C100.155 169.876 100.173 168.128 98.0277 167.996Z" fill="white"/>
<path d="M110.192 184.07C109.327 184.07 108.464 184.052 107.602 184.014C94.6726 183.449 87.2738 179.324 86.8768 175.73C86.7447 174.534 87.2565 173.319 88.3981 172.121C90.7838 169.616 95.3755 167.838 97.728 167.985C98.809 168.051 99.3844 168.507 99.9936 168.988C100.641 169.501 101.376 170.082 102.937 170.305C105.028 170.604 107.206 170.325 109.728 170.002C112.035 169.706 114.648 169.373 117.715 169.424C125.439 169.555 132.623 171.481 134.797 174.004C135.37 174.67 135.613 175.372 135.518 176.09C134.962 180.3 122.611 184.069 110.192 184.07ZM97.4499 168.436C95.1656 168.436 90.9134 170.146 88.7307 172.437C87.6868 173.533 87.2168 174.624 87.3334 175.679C87.7096 179.084 94.9482 183.001 107.622 183.555C113.945 183.831 120.73 183.09 126.235 181.519C131.507 180.016 134.807 177.964 135.063 176.03C135.14 175.447 134.933 174.866 134.449 174.304C132.353 171.871 125.312 170.012 117.707 169.883C114.676 169.831 112.078 170.164 109.786 170.457C107.232 170.785 105.026 171.068 102.872 170.76C101.188 170.519 100.402 169.897 99.7087 169.348C99.11 168.875 98.6371 168.501 97.6999 168.443C97.6196 168.438 97.5361 168.436 97.4499 168.436Z" fill="#D3BBA3"/>
<path d="M95.7615 176.419C98.6047 176.379 100.899 175.616 100.887 174.715C100.874 173.814 98.5587 173.116 95.7155 173.156C92.8723 173.196 90.5777 173.959 90.5904 174.86C90.6031 175.761 92.9183 176.459 95.7615 176.419Z" fill="#776E42"/>
<path d="M92.2161 173.644C94.2902 173.001 97.5481 172.993 99.4929 173.626C100.352 173.905 100.81 174.263 100.877 174.631C100.736 174.999 100.205 175.359 99.2885 175.643C97.2144 176.286 93.9564 176.294 92.0116 175.661C91.1525 175.382 90.6941 175.024 90.6279 174.656C90.7685 174.288 91.2998 173.928 92.2161 173.644Z" fill="#003A6B"/>
<path d="M102.032 180.692C104.875 180.652 107.17 179.889 107.157 178.988C107.144 178.087 104.829 177.389 101.986 177.429C99.1428 177.469 96.8482 178.232 96.8609 179.133C96.8736 180.035 99.1888 180.733 102.032 180.692Z" fill="#E0AA63"/>
<path d="M100.242 177.553C102.913 177.21 105.869 177.608 106.844 178.442C107.275 178.81 107.247 179.202 106.852 179.555C106.269 179.882 105.342 180.153 104.163 180.304C101.492 180.647 98.5362 180.249 97.5607 179.415C97.1298 179.047 97.1579 178.655 97.5532 178.302C98.1363 177.975 99.0624 177.704 100.242 177.553Z" fill="#EFBC73"/>
<path d="M114.979 182.339C117.823 182.299 120.117 181.536 120.104 180.635C120.092 179.734 117.776 179.036 114.933 179.076C112.09 179.116 109.795 179.879 109.808 180.78C109.821 181.681 112.136 182.379 114.979 182.339Z" fill="#D3BBA3"/>
<path d="M111.059 179.692C112.918 178.987 116.169 178.87 118.32 179.432C119.271 179.68 119.847 180.019 120.035 180.381C120.017 180.75 119.606 181.125 118.785 181.436C116.926 182.142 113.675 182.259 111.524 181.697C110.573 181.449 109.997 181.11 109.809 180.748C109.827 180.378 110.238 180.004 111.059 179.692Z" fill="#D3BBA3"/>
<path d="M125.638 179.171C128.482 179.131 130.776 178.368 130.764 177.467C130.751 176.566 128.436 175.868 125.592 175.908C122.749 175.948 120.455 176.711 120.467 177.612C120.48 178.513 122.795 179.211 125.638 179.171Z" fill="#D3BBA3"/>
<path d="M121.718 176.524C123.577 175.819 126.828 175.702 128.979 176.264C129.93 176.512 130.506 176.851 130.694 177.213C130.676 177.582 130.265 177.957 129.444 178.268C127.585 178.974 124.335 179.091 122.183 178.529C121.232 178.281 120.656 177.942 120.468 177.58C120.486 177.21 120.897 176.836 121.718 176.524Z" fill="#D87355"/>
<path d="M124.78 174.759C127.623 174.719 129.918 173.956 129.905 173.055C129.892 172.154 127.577 171.456 124.734 171.496C121.891 171.536 119.596 172.299 119.609 173.2C119.622 174.101 121.937 174.799 124.78 174.759Z" fill="#D3BBA3"/>
<path d="M120.86 172.112C122.718 171.406 125.969 171.29 128.121 171.852C129.072 172.1 129.648 172.439 129.836 172.801C129.817 173.17 129.406 173.545 128.585 173.856C126.727 174.562 123.476 174.679 121.324 174.117C120.374 173.869 119.797 173.53 119.609 173.168C119.628 172.798 120.039 172.424 120.86 172.112Z" fill="#E6D0BE"/>
<path d="M103.356 173.723C104.894 173.723 106.14 173.294 106.14 172.764C106.14 172.234 104.894 171.805 103.356 171.805C101.818 171.805 100.571 172.234 100.571 172.764C100.571 173.294 101.818 173.723 103.356 173.723Z" fill="#E6D0BE"/>
<path d="M104.377 173.104C104.823 173.034 105.468 172.684 105.725 172.312C107.172 170.224 107.263 169.121 106.894 168.861C106.254 168.412 104.031 169.689 101.11 172.585C100.9 172.794 101.057 173.109 101.352 173.143C102.613 173.29 103.387 173.259 104.377 173.104Z" fill="white"/>
<path d="M50.6826 190.024L71.765 189.055L75.925 207.896L78.5098 215.004C83.417 229.694 86.6556 243.609 87.3952 256.361L88.203 275.909L36.345 277.363C36.0502 254.242 35.7858 227.074 41.1915 214.681L48.7844 207.573L50.6826 190.024Z" fill="#77E5FE"/>
<path d="M50.8039 190.436C50.7012 190.436 50.6075 190.366 50.5814 190.262L46.9464 175.803C46.9155 175.68 46.9902 175.555 47.1132 175.524C47.2353 175.494 47.361 175.568 47.3918 175.691L51.0268 190.15C51.0577 190.273 50.983 190.398 50.86 190.429C50.8414 190.433 50.8225 190.436 50.8039 190.436Z" fill="#363E44"/>
<path d="M71.5228 189.77C71.51 189.77 71.4971 189.769 71.4841 189.767C71.3591 189.746 71.2749 189.627 71.2963 189.502L73.356 177.406C73.3773 177.281 73.4951 177.197 73.621 177.218C73.746 177.239 73.8301 177.358 73.8088 177.483L71.749 189.579C71.7299 189.691 71.6327 189.77 71.5228 189.77Z" fill="#363E44"/>
<path d="M65.3089 184.111L65.2169 181.092C65.1672 179.456 66.006 177.921 67.4096 177.08L72.344 174.123L72.1098 180.803C72.0667 182.03 71.4791 183.173 70.5068 183.922L68.1623 185.727L65.3089 184.111Z" fill="white"/>
<path d="M52.8061 214.935L50.6199 217.169L50.5107 213.889L65.1191 182.895L69.1882 184.999L52.8061 214.935Z" fill="#B77250"/>
<path d="M66.1968 183.946C66.0852 183.946 65.9873 183.865 65.97 183.751C65.4309 180.199 67.2611 177.267 71.4097 175.037C71.5217 174.977 71.6606 175.019 71.7207 175.131C71.7807 175.243 71.7388 175.382 71.6272 175.442C67.6676 177.57 65.9171 180.343 66.4241 183.682C66.4431 183.808 66.3569 183.925 66.2315 183.944C66.2199 183.945 66.2083 183.946 66.1968 183.946Z" fill="#E6D0BE"/>
<path d="M68.4867 185.059C68.4145 185.059 68.3434 185.025 68.2987 184.962C68.2257 184.858 68.2507 184.715 68.3544 184.641C70.5476 183.099 71.5194 180.447 71.4127 176.296C71.4095 176.169 71.5096 176.064 71.6363 176.061C71.7559 176.059 71.8685 176.157 71.8719 176.284C71.9829 180.603 70.9492 183.378 68.6187 185.017C68.5785 185.046 68.5323 185.059 68.4867 185.059Z" fill="#E6D0BE"/>
<path d="M67.4348 184.75C67.4047 184.75 67.3742 184.744 67.3446 184.732C67.2279 184.682 67.1737 184.547 67.2236 184.43L70.3176 177.191C70.3672 177.074 70.5019 177.019 70.619 177.069C70.7357 177.119 70.7898 177.254 70.7399 177.371L67.646 184.611C67.6088 184.698 67.5239 184.75 67.4348 184.75Z" fill="#E6D0BE"/>
<path d="M63.3604 186.626L65.1192 182.895L69.1883 184.999L67.2086 188.616L63.3604 186.626Z" fill="#84524D"/>
<path d="M31.4154 194.295C36.6954 195.443 49.2634 197.531 50.4821 197.784C52.7603 198.256 64.0116 200.123 63.7237 202.342C63.6123 203.201 62.2256 203.322 61.4296 203.149C62.0034 203.606 62.8956 204.237 62.5309 205.137C62.1025 206.194 60.4752 205.708 60.413 205.717C61.0428 206.122 61.6675 206.795 61.4204 207.48C61.099 208.371 60.2319 208.521 59.3982 208.276C59.4522 208.416 60.2688 209.082 59.9809 209.904C59.7683 210.511 58.8814 210.589 57.8137 210.458C55.7892 210.039 47.8346 208.837 43.9427 208.436C34.8019 207.495 27.5723 205.2 27.5723 205.2C27.5723 205.2 28.8246 195.616 31.4154 194.295Z" fill="white"/>
<path d="M41.0232 196.21C41.0096 196.21 40.9957 196.209 40.9818 196.206C38.4266 195.741 33.1292 194.766 31.3689 194.404C31.2447 194.378 31.1648 194.257 31.1903 194.133C31.2157 194.008 31.3377 193.928 31.4615 193.954C33.2176 194.316 38.5106 195.29 41.0641 195.755C41.1888 195.778 41.2716 195.897 41.2489 196.022C41.2287 196.133 41.132 196.21 41.0232 196.21Z" fill="#363E44"/>
<path d="M57.6088 220.476C58.9582 219.408 61.5062 221.245 62.1838 220.377C62.8709 219.498 60.7858 216.924 61.2983 216.491C61.6696 216.178 62.8741 217.479 63.4628 217.081C64.1076 216.646 63.2222 215.186 63.6596 212.949C63.817 212.144 64.1089 210.651 65.2338 209.998C66.964 208.993 69.9822 210.374 70.3499 211.965C70.4494 212.396 70.3139 212.663 68.9725 215.704C68.2993 217.23 67.9671 217.998 68.1854 218.262C68.5636 218.719 69.677 218.029 72.1209 217.672C73.933 217.407 75.1509 217.229 75.6628 217.868C76.358 218.737 75.6281 220.962 74.2853 221.607C73.5273 221.971 73.0915 221.583 70.7434 221.41C68.8409 221.27 67.8916 221.175 67.595 221.607C67.0235 222.439 69.1277 223.808 69.0708 226.477C69.0627 226.857 69.026 228.58 67.8315 229.391C67.2003 229.819 66.4984 229.821 66.2176 229.822C66.0977 229.823 64.762 229.808 63.8563 228.888C62.73 227.743 63.5797 226.531 62.7249 225.592C61.4707 224.214 58.8771 225.984 57.5105 224.657C56.4782 223.655 56.5697 221.298 57.6088 220.476Z" fill="#005592"/>
<path d="M48.0981 243.868C49.1071 242.274 45.7585 239.869 46.5239 236.784C46.9489 235.072 48.5273 233.612 49.4755 233.833C50.6192 234.1 49.8438 236.643 51.64 239.146C53.4285 241.637 55.6568 241.166 56.3626 243.278C56.8891 244.854 56.2551 246.93 54.9852 247.804C53.658 248.717 52.6992 247.586 50.853 248.296C48.3291 249.265 48.4075 252.036 46.3271 252.329C45.1044 252.502 43.9492 251.707 43.3755 250.952C42.2408 249.459 42.5724 246.77 43.9658 245.442C45.4843 243.996 47.3704 245.018 48.0981 243.868Z" fill="#FADB3F"/>
<path d="M58.3851 153.913C58.7046 153.84 61.7739 153.187 63.9155 155.066C65.5091 156.464 65.9369 158.467 66.146 161.935C66.3924 166.019 65.9687 168.495 64.9054 169.444C63.2254 170.944 57.34 168.83 54.8081 165.563C52.9806 163.204 52.7281 159.895 53.9869 157.167C55.2424 154.447 58.1813 153.959 58.3851 153.913Z" fill="white"/>
<path d="M59.061 179.237H58.6822C56.7861 179.237 55.249 177.699 55.249 175.803V164.951C55.249 163.055 56.7861 161.518 58.6822 161.518H59.061C60.9571 161.518 62.4942 163.055 62.4942 164.951V175.803C62.4942 177.699 60.9571 179.237 59.061 179.237Z" fill="white"/>
<path d="M62.5116 170.246C62.5024 170.246 62.4931 170.246 62.4839 170.245C60.1132 169.961 56.5541 168.316 54.6272 165.829C54.5495 165.729 54.5679 165.585 54.6682 165.507C54.7682 165.43 54.9125 165.447 54.9903 165.548C56.7736 167.85 60.2285 169.512 62.5385 169.789C62.6645 169.804 62.7543 169.918 62.7392 170.044C62.7253 170.161 62.6261 170.246 62.5116 170.246Z" fill="#363E44"/>
<path d="M53.3848 176.259C53.3848 178.004 55.3017 179.66 58.811 179.66C62.3203 179.66 63.9038 177.961 63.9038 176.217C63.9038 174.473 62.3203 173.344 58.811 173.344C55.3017 173.344 53.3848 174.515 53.3848 176.259Z" fill="white"/>
<path d="M59.5469 161.012C59.5469 161.012 60.0696 162.151 61.1315 162.95C61.3552 163.119 62.2918 160.996 62.0023 160.936C60.7216 160.673 59.5469 161.012 59.5469 161.012Z" fill="white"/>
<path d="M65.2026 163.602C65.2026 163.602 63.4368 164.111 61.875 163.395C61.602 163.27 61.3538 163.115 61.1293 162.946C61.0464 162.145 61.3958 161.394 61.9969 160.934C62.2883 160.993 62.585 161.084 62.8748 161.216C64.4365 161.932 65.2026 163.602 65.2026 163.602Z" fill="#363E44"/>
<path d="M63.8539 166.509C63.6258 166.509 63.4011 166.438 63.2181 166.294C62.7562 165.932 62.8324 165.337 62.8358 165.312C62.8532 165.186 62.9696 165.098 63.0947 165.116C63.2204 165.133 63.3082 165.249 63.2909 165.374C63.2906 165.377 63.2489 165.735 63.5015 165.932C63.7053 166.093 64.0066 166.09 64.2338 165.927C64.3368 165.852 64.4802 165.876 64.5543 165.979C64.6281 166.083 64.6046 166.226 64.5016 166.3C64.3068 166.44 64.0788 166.509 63.8539 166.509Z" fill="#363E44"/>
<path d="M65.9316 163.264C65.9452 163.463 65.9937 163.751 66.1689 164.034C66.3801 164.375 66.6191 164.456 66.6432 164.686C66.6592 164.84 66.5799 165.073 66.1094 165.397L65.9316 163.264Z" fill="white"/>
<path d="M66.1098 165.625C66.0367 165.625 65.9649 165.591 65.9204 165.526C65.8485 165.422 65.8749 165.278 65.9793 165.206C66.4012 164.916 66.4193 164.752 66.4149 164.708C66.4103 164.664 66.3742 164.624 66.2801 164.529C66.1911 164.438 66.0804 164.326 65.9737 164.154C65.8161 163.899 65.7249 163.604 65.7027 163.278C65.694 163.152 65.7896 163.042 65.9162 163.033C66.0404 163.028 66.1524 163.12 66.1609 163.247C66.1781 163.498 66.2464 163.722 66.3643 163.912C66.4438 164.041 66.5268 164.125 66.6071 164.206C66.7266 164.327 66.85 164.452 66.8718 164.661C66.9036 164.968 66.6968 165.27 66.2398 165.585C66.2001 165.612 66.1547 165.625 66.1098 165.625Z" fill="#363E44"/>
<path d="M53.3768 152.871C59.6859 149.904 66.3039 153.863 65.7866 158.672C65.7866 158.672 63.4123 155.931 63.4123 155.874C62.9814 156.721 62.2171 157.955 60.9176 159.104C58.91 160.878 56.7537 161.449 55.7014 161.653C55.7014 170.086 55.7014 178.519 55.7014 186.952H50.8107V180.658L49.3793 186.952H43.8775C43.8775 186.952 43.2562 157.631 53.3768 152.871Z" fill="#363E44"/>
<path d="M58.2477 165.048C59.2586 164.396 59.453 162.898 58.6819 161.702C57.9108 160.507 56.4662 160.066 55.4553 160.718C54.4445 161.37 54.2501 162.868 55.0212 164.063C55.7923 165.259 57.2369 165.7 58.2477 165.048Z" fill="white"/>
<path d="M56.0802 163.919C56.0181 163.919 55.9562 163.894 55.9109 163.844C55.843 163.77 55.7805 163.69 55.7252 163.604C55.5069 163.264 55.4137 162.87 55.4631 162.495C55.5144 162.106 55.7114 161.784 56.0181 161.587C56.1739 161.487 56.348 161.426 56.5356 161.406C56.6612 161.392 56.7749 161.483 56.7886 161.609C56.8022 161.735 56.7111 161.849 56.5849 161.862C56.4688 161.875 56.3615 161.912 56.2661 161.974C56.0753 162.096 55.9516 162.303 55.9185 162.555C55.8833 162.823 55.9518 163.107 56.1116 163.355C56.1527 163.419 56.1989 163.479 56.2491 163.534C56.335 163.627 56.3289 163.772 56.2355 163.858C56.1913 163.899 56.1357 163.919 56.0802 163.919Z" fill="#363E44"/>
<path d="M127.667 291.492H117.873V304.455H127.667V291.492Z" fill="#D3BBA3"/>
<path d="M128.388 290.34H117.153V293.364H128.388V290.34Z" fill="#9E460D"/>
<path d="M154.743 291.584H144.949V304.546H154.743V291.584Z" fill="#EFBC73"/>
<path d="M155.464 290.432H144.229V293.456H155.464V290.432Z" fill="#9E460D"/>
<path d="M141.205 291.643H131.411V304.605H141.205V291.643Z" fill="#D87355"/>
<path d="M141.926 290.49H130.691V293.515H141.926V290.49Z" fill="#9E460D"/>
<path d="M196.952 256.355C202.537 256.355 207.064 255.381 207.064 254.18C207.064 252.979 202.537 252.006 196.952 252.006C191.368 252.006 186.841 252.979 186.841 254.18C186.841 255.381 191.368 256.355 196.952 256.355Z" fill="#D3BBA3"/>
<path d="M193.274 233.988L194.761 232.275C195.052 233.445 195.623 234.48 196.462 235.388C196.831 235.789 197.118 236.264 197.243 236.794C197.357 237.28 197.389 237.785 197.334 238.287L196.986 241.48L193.114 241.724L192.405 238.841C192.085 237.541 192.185 236.18 192.682 234.949C192.824 234.598 193.026 234.274 193.274 233.988Z" fill="#BC8271"/>
<path d="M193.147 241.723L196.993 241.48L197.016 247.174L193.839 247.375L193.147 241.723Z" fill="#2D353A"/>
<path d="M195.866 274.523L198.374 274.365L197.016 247.174L193.84 247.374L195.866 274.523Z" fill="#EFBC73"/>
<path d="M193.114 241.723L194.518 241.635L195.209 247.286L193.806 247.375L193.114 241.723Z" fill="#40484C"/>
<path d="M186.83 227.867L186.326 235.253L189.667 234.705L186.83 227.867Z" fill="white"/>
<path d="M188.021 230.714L186.831 227.848L186.62 230.944L188.021 230.714Z" fill="#D87355"/>
<path d="M195.169 275.379L194.107 275.554C193.478 275.657 192.884 275.231 192.781 274.602L186.326 235.253L189.667 234.705L196.121 274.054C196.225 274.683 195.798 275.276 195.169 275.379Z" fill="#D87355"/>
<path d="M193.096 269.28C192.985 269.28 192.888 269.2 192.869 269.087L187.291 235.082C187.271 234.956 187.355 234.838 187.48 234.818C187.606 234.796 187.724 234.882 187.744 235.007L193.322 269.013C193.343 269.138 193.258 269.256 193.133 269.277C193.12 269.279 193.108 269.28 193.096 269.28Z" fill="#363E44"/>
<path d="M194.531 269.043C194.421 269.043 194.323 268.964 194.305 268.851L188.727 234.845C188.706 234.72 188.791 234.602 188.916 234.582C189.041 234.56 189.159 234.646 189.18 234.771L194.758 268.777C194.779 268.902 194.694 269.02 194.569 269.04C194.556 269.043 194.544 269.043 194.531 269.043Z" fill="#363E44"/>
<path d="M191.901 269.476C191.791 269.476 191.694 269.396 191.675 269.284C191.654 269.158 191.739 269.04 191.864 269.02L195.205 268.472C195.33 268.452 195.448 268.536 195.469 268.661C195.489 268.786 195.405 268.904 195.279 268.925L191.939 269.473C191.926 269.475 191.914 269.476 191.901 269.476Z" fill="#363E44"/>
<path d="M192.234 271.498C192.124 271.498 192.027 271.418 192.008 271.305C191.988 271.18 192.072 271.062 192.197 271.042L195.538 270.494C195.663 270.472 195.781 270.558 195.802 270.683C195.822 270.808 195.738 270.926 195.612 270.947L192.272 271.495C192.259 271.497 192.247 271.498 192.234 271.498Z" fill="#363E44"/>
<path d="M199.861 237.553L198.46 234.727C197.701 233.196 197.83 231.374 198.797 229.965L202.195 225.012L204.878 231.455C205.37 232.638 205.31 233.979 204.713 235.112L203.272 237.846L199.861 237.553Z" fill="white"/>
<path d="M201.4 272.253L200.296 275.324L198.766 272.259L199.151 236.482L203.929 236.71L201.4 272.253Z" fill="#B77250"/>
<path d="M200.532 237.02C200.457 237.02 200.384 236.984 200.34 236.916C198.285 233.783 198.748 230.208 201.713 226.29C201.789 226.189 201.933 226.169 202.035 226.246C202.136 226.322 202.156 226.466 202.079 226.568C199.243 230.314 198.788 233.711 200.724 236.665C200.793 236.771 200.764 236.913 200.658 236.983C200.619 237.008 200.575 237.02 200.532 237.02Z" fill="#E6D0BE"/>
<path d="M203.189 237.082C203.15 237.082 203.11 237.072 203.074 237.051C202.964 236.987 202.927 236.846 202.991 236.737C204.404 234.315 204.173 231.372 202.265 227.475C202.209 227.361 202.256 227.224 202.37 227.168C202.484 227.112 202.621 227.16 202.677 227.273C204.659 231.321 204.885 234.402 203.388 236.968C203.345 237.041 203.268 237.082 203.189 237.082Z" fill="#E6D0BE"/>
<path d="M202.056 237.246C201.932 237.246 201.83 237.147 201.827 237.022L201.614 228.804C201.611 228.677 201.711 228.572 201.838 228.568C201.84 228.568 201.842 228.568 201.844 228.568C201.968 228.568 202.07 228.667 202.074 228.792L202.286 237.01C202.289 237.137 202.189 237.243 202.062 237.246C202.06 237.246 202.058 237.246 202.056 237.246Z" fill="#E6D0BE"/>
<path d="M199.105 240.79L199.152 236.482L203.93 236.71L203.624 241.005L199.105 240.79Z" fill="#9E460D"/>
<path d="M207.064 284.807H186.785V253.891C188.576 256.521 202.077 257.381 207.064 253.891V284.807Z" fill="#003A6B"/>
<path d="M196.485 256.501C192.557 256.501 189.058 255.699 186.724 254.44C186.613 254.38 186.571 254.24 186.631 254.129C186.691 254.017 186.831 253.975 186.942 254.036C191.107 256.282 199.568 257.042 207.047 254.025C207.164 253.978 207.299 254.034 207.346 254.152C207.394 254.269 207.337 254.403 207.219 254.451C203.642 255.894 199.9 256.501 196.485 256.501Z" fill="white"/>
<path d="M194.923 292.814H214.404C213.141 292.814 212.116 290.811 212.116 288.341C212.116 285.87 213.141 283.867 214.404 283.867H194.923C193.659 283.867 192.635 285.87 192.635 288.341C192.635 290.811 193.659 292.814 194.923 292.814Z" fill="#F7F1EB"/>
<path d="M163.184 292.994H202.921C200.344 292.994 198.254 290.911 198.254 288.341C198.254 285.771 200.407 283.756 202.984 283.756L163.184 283.688C160.607 283.688 158.518 285.771 158.518 288.341C158.518 290.911 160.607 292.994 163.184 292.994Z" fill="#9E460D"/>
<path d="M214.81 293.045H202.922C200.176 293.045 198.025 290.979 198.025 288.342C198.025 285.704 200.176 283.639 202.922 283.639H214.81C214.937 283.639 215.039 283.741 215.039 283.868C215.039 283.995 214.937 284.098 214.81 284.098H202.922C200.434 284.098 198.485 285.962 198.485 288.342C198.485 290.721 200.434 292.586 202.922 292.586H214.81C214.937 292.586 215.039 292.688 215.039 292.815C215.039 292.942 214.937 293.045 214.81 293.045Z" fill="#9E460D"/>
<path d="M212.901 291.817H202.49C202.363 291.817 202.261 291.714 202.261 291.587C202.261 291.46 202.363 291.357 202.49 291.357H212.901C213.028 291.357 213.131 291.46 213.131 291.587C213.131 291.714 213.028 291.817 212.901 291.817Z" fill="#E6D0BE"/>
<path d="M212.36 290.014H201.949C201.822 290.014 201.72 289.911 201.72 289.784C201.72 289.657 201.822 289.555 201.949 289.555H212.36C212.487 289.555 212.59 289.657 212.59 289.784C212.59 289.911 212.487 290.014 212.36 290.014Z" fill="#E6D0BE"/>
<path d="M212.178 288.934H199.961C199.834 288.934 199.731 288.831 199.731 288.704C199.731 288.577 199.834 288.475 199.961 288.475H212.178C212.305 288.475 212.408 288.577 212.408 288.704C212.408 288.831 212.305 288.934 212.178 288.934Z" fill="#E6D0BE"/>
<path d="M212.359 286.594H201.045C200.918 286.594 200.815 286.491 200.815 286.364C200.815 286.237 200.918 286.135 201.045 286.135H212.359C212.486 286.135 212.589 286.237 212.589 286.364C212.589 286.491 212.486 286.594 212.359 286.594Z" fill="#E6D0BE"/>
<path d="M162.084 291.02H172.849V285.836H162.084V291.02Z" fill="#D3BBA3"/>
<path d="M174.728 291.02H193.953V285.836H174.728V291.02Z" fill="#D3BBA3"/>
<path d="M194.922 298.716H214.403C213.14 298.716 212.115 297.434 212.115 295.852C212.115 294.27 213.14 292.988 214.403 292.988H194.922C193.658 292.988 192.634 294.271 192.634 295.852C192.634 297.434 193.658 298.716 194.922 298.716Z" fill="#F7F1EB"/>
<path d="M163.183 298.831H202.92C200.343 298.831 199.157 297.498 199.157 295.852C199.157 294.207 200.343 292.873 202.92 292.873H163.183C160.606 292.873 159.42 294.207 159.42 295.852C159.42 297.498 160.606 298.831 163.183 298.831Z" fill="#EFBC73"/>
<path d="M214.808 298.947H202.92C200.42 298.947 198.927 297.79 198.927 295.853C198.927 293.916 200.42 292.76 202.92 292.76H214.808C214.935 292.76 215.037 292.862 215.037 292.989C215.037 293.116 214.935 293.219 214.808 293.219H202.92C200.674 293.219 199.386 294.179 199.386 295.853C199.386 297.527 200.674 298.487 202.92 298.487H214.808C214.935 298.487 215.037 298.59 215.037 298.717C215.037 298.844 214.935 298.947 214.808 298.947Z" fill="#9E460D"/>
<path d="M212.901 298.161H202.49C202.363 298.161 202.261 298.058 202.261 297.931C202.261 297.804 202.363 297.701 202.49 297.701H212.901C213.028 297.701 213.131 297.804 213.131 297.931C213.131 298.058 213.028 298.161 212.901 298.161Z" fill="#E6D0BE"/>
<path d="M212.358 297.008H201.947C201.82 297.008 201.718 296.905 201.718 296.779C201.718 296.652 201.82 296.549 201.947 296.549H212.358C212.485 296.549 212.588 296.652 212.588 296.779C212.588 296.905 212.485 297.008 212.358 297.008Z" fill="#E6D0BE"/>
<path d="M212.178 296.317H199.961C199.834 296.317 199.731 296.214 199.731 296.087C199.731 295.96 199.834 295.857 199.961 295.857H212.178C212.305 295.857 212.408 295.96 212.408 296.087C212.408 296.214 212.305 296.317 212.178 296.317Z" fill="#E6D0BE"/>
<path d="M212.359 294.817H201.045C200.918 294.817 200.815 294.714 200.815 294.587C200.815 294.46 200.918 294.357 201.045 294.357H212.359C212.486 294.357 212.589 294.46 212.589 294.587C212.589 294.714 212.486 294.817 212.359 294.817Z" fill="#E6D0BE"/>
<path d="M180.711 298.924H162.464C163.647 298.924 164.607 300.125 164.607 301.606C164.607 303.088 163.647 304.289 162.464 304.289H180.711C181.895 304.289 182.854 303.088 182.854 301.606C182.854 300.125 181.895 298.924 180.711 298.924Z" fill="#F7F1EB"/>
<path d="M210.438 298.816H173.219C175.633 298.816 176.744 300.066 176.744 301.607C176.744 303.148 175.633 304.397 173.219 304.397H210.438C212.852 304.397 213.963 303.148 213.963 301.607C213.963 300.066 212.852 298.816 210.438 298.816Z" fill="#30C981"/>
<path d="M173.219 304.52H162.084C161.957 304.52 161.854 304.417 161.854 304.29C161.854 304.163 161.957 304.06 162.084 304.06H173.219C175.313 304.06 176.514 303.166 176.514 301.607C176.514 300.049 175.313 299.155 173.219 299.155H162.084C161.957 299.155 161.854 299.052 161.854 298.925C161.854 298.798 161.957 298.695 162.084 298.695H173.219C175.57 298.695 176.974 299.784 176.974 301.607C176.974 303.431 175.57 304.52 173.219 304.52Z" fill="#9E460D"/>
<path d="M173.622 299.891H163.871C163.744 299.891 163.642 299.788 163.642 299.661C163.642 299.534 163.744 299.432 163.871 299.432H173.622C173.749 299.432 173.852 299.534 173.852 299.661C173.852 299.788 173.749 299.891 173.622 299.891Z" fill="#E6D0BE"/>
<path d="M174.129 300.971H164.378C164.251 300.971 164.148 300.868 164.148 300.741C164.148 300.614 164.251 300.512 164.378 300.512H174.129C174.256 300.512 174.359 300.614 174.359 300.741C174.359 300.868 174.256 300.971 174.129 300.971Z" fill="#E6D0BE"/>
<path d="M175.99 301.62H164.547C164.42 301.62 164.317 301.517 164.317 301.39C164.317 301.263 164.42 301.16 164.547 301.16H175.99C176.117 301.16 176.22 301.263 176.22 301.39C176.22 301.517 176.117 301.62 175.99 301.62Z" fill="#E6D0BE"/>
<path d="M174.976 303.024H164.379C164.252 303.024 164.149 302.921 164.149 302.794C164.149 302.667 164.252 302.564 164.379 302.564H174.976C175.103 302.564 175.206 302.667 175.206 302.794C175.206 302.921 175.103 303.024 174.976 303.024Z" fill="#E6D0BE"/>
</g>
</g>
<defs>
<filter id="filter0_d_569_3920" x="0.715068" y="0.171987" width="238.57" height="329.939" filterUnits="userSpaceOnUse" color-interpolation-filters="sRGB">
<feFlood flood-opacity="0" result="BackgroundImageFix"/>
<feColorMatrix in="SourceAlpha" type="matrix" values="0 0 0 0 0 0 0 0 0 0 0 0 0 0 0 0 0 0 127 0" result="hardAlpha"/>
<feOffset dy="2.14247"/>
<feGaussianBlur stdDeviation="2.14247"/>
<feComposite in2="hardAlpha" operator="out"/>
<feColorMatrix type="matrix" values="0 0 0 0 0 0 0 0 0 0 0 0 0 0 0 0 0 0 0.1 0"/>
<feBlend mode="normal" in2="BackgroundImageFix" result="effect1_dropShadow_569_3920"/>
<feBlend mode="normal" in="SourceGraphic" in2="effect1_dropShadow_569_3920" result="shape"/>
</filter>
<clipPath id="clip0_569_3920">
<rect x="20.7539" y="107.863" width="198.493" height="203.219" rx="15.7534" fill="white"/>
</clipPath>
</defs>
</svg>
