<svg width="310" height="105" viewBox="0 0 310 105" fill="none" xmlns="http://www.w3.org/2000/svg">
<g clip-path="url(#clip0_535_8929)">
<rect y="0.833984" width="310" height="103.333" rx="6.2" fill="#003A6B"/>
<path d="M155.129 168.751C219.404 168.751 271.508 116.646 271.508 52.3714C271.508 -11.9031 219.404 -64.0078 155.129 -64.0078C90.8547 -64.0078 38.75 -11.9031 38.75 52.3714C38.75 116.646 90.8547 168.751 155.129 168.751Z" fill="#2CA677"/>
<path d="M127.759 50.2082L137.182 50.1908L126.151 46.5765C119.936 31.6023 119.387 18.0839 125.269 15.2218C131.761 12.0628 143.629 23.0819 151.777 39.8338C159.925 56.5856 161.267 72.7265 154.775 75.8856C148.283 79.0446 136.415 68.0255 128.267 51.2737C128.094 50.9182 127.925 50.5631 127.759 50.2082Z" fill="#81D8B6"/>
<path d="M145.208 30.7806C144.811 22.6391 145.385 15.0751 146.679 8.90668L153.835 18.2318L148.027 3.77187C150.074 -2.54927 153.055 -6.49924 156.54 -6.64984C163.791 -6.9632 170.475 9.28701 171.468 29.6459C172.461 50.0049 167.388 66.7631 160.137 67.0764C152.885 67.3898 146.202 51.1395 145.208 30.7806Z" fill="#1BA972"/>
<path d="M169.874 110.913C169.806 110.913 169.744 110.869 169.725 110.801C160.045 76.6034 157.101 48.5352 156.335 31.0109C155.506 12.0186 156.986 0.968043 157.001 0.858483C157.013 0.773872 157.09 0.713857 157.176 0.726226C157.261 0.737891 157.32 0.815967 157.308 0.90072C157.293 1.01 155.817 12.0402 156.646 31.0079C157.411 48.5138 160.353 76.5527 170.023 110.716C170.046 110.798 169.998 110.884 169.916 110.907C169.902 110.911 169.888 110.913 169.874 110.913Z" fill="#F7F1EB"/>
<path d="M168.619 111.52C168.554 111.52 168.493 111.479 168.472 111.413C160.217 85.8715 150.904 64.4147 144.546 50.9124C137.656 36.2821 132.655 27.5804 132.605 27.4943C132.562 27.4201 132.588 27.3254 132.662 27.2826C132.736 27.2396 132.831 27.2652 132.873 27.3393C132.923 27.4255 137.93 36.1356 144.824 50.7764C151.187 64.2878 160.506 85.7589 168.767 111.318C168.793 111.399 168.748 111.487 168.667 111.513C168.651 111.518 168.635 111.52 168.619 111.52Z" fill="#E6D0BE"/>
<path d="M183.015 48.2241L176.285 50.3864L183.332 45.3932C184.342 33.8169 181.641 24.5341 176.787 23.9525C171.43 23.3107 165.48 33.5125 163.496 46.7388C161.513 59.9651 164.248 71.2074 169.605 71.8492C174.962 72.491 180.913 62.2893 182.896 49.0629C182.938 48.7823 182.977 48.503 183.015 48.2241Z" fill="#E6D0BE"/>
<path d="M171.395 112.598C171.322 112.598 171.257 112.547 171.243 112.473C166.945 90.438 167.927 70.0398 169.508 56.8078C171.233 42.3743 174.052 32.7895 174.422 32.4238C174.483 32.3635 174.581 32.3641 174.641 32.4247C174.699 32.4835 174.7 32.5767 174.646 32.6373C174.351 33.0748 171.511 42.5011 169.788 57.08C168.233 70.2356 167.275 90.5146 171.547 112.414C171.563 112.498 171.508 112.579 171.424 112.595C171.415 112.597 171.405 112.598 171.395 112.598Z" fill="#F7F1EB"/>
<path d="M205.598 78.8018H155.293C155.207 78.8018 155.138 78.7325 155.138 78.6468V76.9979C155.138 76.9622 155.15 76.9276 155.173 76.9L210.408 9.21721C210.435 9.18439 210.474 9.16394 210.516 9.16063C210.559 9.15733 210.6 9.17125 210.631 9.19936L212.297 10.6803C212.333 10.7131 212.353 10.7616 212.348 10.811L205.752 78.6618C205.744 78.7413 205.678 78.8018 205.598 78.8018ZM155.448 78.4919H205.457L212.032 10.8595L210.546 9.53836L155.448 77.0532L155.448 78.4919Z" fill="#D3BBA3"/>
<path d="M155.609 76.9973H204.265L210.861 9.14648H162.204L155.609 76.9973Z" fill="#F7F1EB"/>
<path d="M222.469 105.34H219.568C219.493 105.34 219.429 105.287 219.416 105.213L208.717 46.4536C208.714 46.4401 208.714 46.4265 208.715 46.4129L209.659 35.2729C209.665 35.1955 209.728 35.1347 209.806 35.1311C209.878 35.1269 209.952 35.1816 209.965 35.2584L222.621 105.158C222.63 105.203 222.617 105.249 222.588 105.285C222.558 105.32 222.515 105.34 222.469 105.34ZM219.697 105.03H222.283L209.869 36.4634L209.025 46.4184L219.697 105.03Z" fill="#D3BBA3"/>
<path d="M201.736 119.695H198.835C198.761 119.695 198.698 119.643 198.683 119.571L190.439 78.6776C190.43 78.6321 190.441 78.5849 190.471 78.5489C190.5 78.5131 190.544 78.4922 190.591 78.4922H193.492C193.566 78.4922 193.629 78.5443 193.644 78.6166L201.888 119.51C201.897 119.555 201.886 119.602 201.856 119.638C201.827 119.674 201.783 119.695 201.736 119.695ZM198.962 119.385H201.547L193.365 78.8021H190.78L198.962 119.385Z" fill="#D3BBA3"/>
<path d="M165.79 119.695H162.889C162.842 119.695 162.799 119.674 162.769 119.638C162.74 119.602 162.728 119.555 162.737 119.51L170.982 78.6166C170.996 78.5443 171.06 78.4922 171.134 78.4922H174.034C174.081 78.4922 174.125 78.5131 174.154 78.5489C174.184 78.5849 174.195 78.6321 174.186 78.6776L165.942 119.571C165.927 119.643 165.864 119.695 165.79 119.695ZM163.078 119.385H165.663L173.845 78.8021H171.26L163.078 119.385Z" fill="#D3BBA3"/>
<path d="M157.758 51.9102L206.135 52.1605L203.949 76.9912H155.358L157.758 51.9102Z" fill="#D3BBA3"/>
<path d="M204.214 73.0655H155.674L155.964 70.4355H204.504L204.214 73.0655Z" fill="#B77250"/>
<path d="M200.479 8.81799L201.768 51.7552L189.829 69.2267C189.18 70.1771 188.887 71.3261 189.001 72.4714L189.455 77.0124H182.51L181.562 70.5403L195.296 8.66016L200.479 8.81799Z" fill="#E6D0BE"/>
<path d="M175.248 9.13411L170.093 52.5425L161.699 68.7382C160.773 70.5253 160.601 72.4746 160.567 74.4871L161.199 77.0128H182.562L182.709 72.4459C182.732 71.7346 182.869 71.0315 183.114 70.3633L183.731 68.6836L198.243 54.1761L197.032 8.81836L175.248 9.13411Z" fill="#003A6B"/>
<path d="M169.171 68.9211L175.718 55.3038C176.868 52.9576 177.574 50.4187 177.8 47.8154L181.089 9.92188L179.037 51.5963L171.756 69.0987L171.077 70.7565C170.921 71.1361 170.87 71.5505 170.929 71.9565L171.657 76.9719L167.257 77.0114L167.603 72.919C167.698 71.7945 168.058 70.7086 168.654 69.7506L169.171 68.9211Z" fill="#EFBC73"/>
<path d="M186.614 17.8164L181.878 52.5451L175.013 68.1092L173.763 70.9415C173.738 70.9986 173.719 71.0581 173.706 71.1192L172.459 76.9866L178.34 77.0261L178.158 71.0903L178.911 68.3967L183.299 52.7028L186.614 17.8164Z" fill="#EFBC73"/>
<path d="M196.748 54.5521H186.938V32.4845C186.938 31.2463 187.571 30.0941 188.616 29.4304L190.03 28.5323L190.018 21.752H193.445L193.455 28.5323L194.983 29.4438C196.078 30.0965 196.748 31.2768 196.748 32.5512L196.748 54.5521Z" fill="#FC8F47"/>
<path d="M194.963 36.8496H186.894V43.6745H194.963V36.8496Z" fill="#E0AA63"/>
<path d="M192.293 23.7494H190.018C189.933 23.7494 189.863 23.6801 189.863 23.5944C189.863 23.5087 189.933 23.4395 190.018 23.4395H192.293C192.379 23.4395 192.448 23.5087 192.448 23.5944C192.448 23.6801 192.379 23.7494 192.293 23.7494Z" fill="white"/>
<path d="M192.293 24.513H190.018C189.933 24.513 189.863 24.4437 189.863 24.3581C189.863 24.2724 189.933 24.2031 190.018 24.2031H192.293C192.379 24.2031 192.448 24.2724 192.448 24.3581C192.448 24.4437 192.379 24.513 192.293 24.513Z" fill="white"/>
<path d="M178.37 36.8203C178.019 37.8346 177.82 38.9653 177.818 40.1591C177.811 44.5354 180.433 48.0905 183.674 48.0997C186.915 48.1089 189.548 44.5688 189.555 40.1926C189.557 38.9987 189.362 37.8669 189.013 36.8506L178.37 36.8203Z" fill="#E6D0BE"/>
<path d="M179.449 43.5098C180.196 45.6517 181.806 47.1368 183.676 47.1421C185.553 47.1474 187.173 45.6603 187.922 43.5098H179.449Z" fill="#EB4130"/>
<path d="M183.687 48.2537C183.682 48.2537 183.678 48.2537 183.674 48.2537C180.353 48.2442 177.656 44.6126 177.663 40.1579C177.665 38.977 177.854 37.8366 178.224 36.7686L178.26 36.6641L189.124 36.6951L189.16 36.7995C189.527 37.8691 189.712 39.0105 189.71 40.1919C189.706 42.7699 188.818 45.13 187.275 46.6664C186.232 47.705 184.991 48.2537 183.687 48.2537ZM178.481 36.9745C178.145 37.9798 177.975 39.0504 177.973 40.1584C177.966 44.4423 180.524 47.9349 183.675 47.9438C183.679 47.9438 183.683 47.9438 183.687 47.9438C184.908 47.9438 186.073 47.4265 187.056 46.4469C188.52 44.9897 189.396 42.6512 189.4 40.1913C189.402 39.0828 189.234 38.0112 188.902 37.0044L178.481 36.9745Z" fill="white"/>
<path d="M179.241 40.9885C179.24 40.9885 179.24 40.9885 179.239 40.9885C179.154 40.9877 179.085 40.9178 179.086 40.8322C179.094 39.9287 179.244 39.0584 179.532 38.2453L179.57 38.1406L182.456 38.1848C182.541 38.1862 182.61 38.2566 182.608 38.3422C182.607 38.4269 182.538 38.4947 182.453 38.4947C182.453 38.4947 182.452 38.4947 182.451 38.4947L179.788 38.4538C179.535 39.2042 179.403 40.0047 179.396 40.8349C179.395 40.9199 179.326 40.9885 179.241 40.9885Z" fill="white"/>
<path d="M183.79 56.8098C183.704 56.8098 183.635 56.7405 183.635 56.6549V48.1237C183.635 48.038 183.704 47.9688 183.79 47.9688C183.875 47.9688 183.945 48.038 183.945 48.1237V56.6549C183.945 56.7405 183.875 56.8098 183.79 56.8098Z" fill="white"/>
<path d="M187.304 56.8431H180.276C180.19 56.8431 180.121 56.7738 180.121 56.6882C180.121 56.6025 180.19 56.5332 180.276 56.5332H187.304C187.389 56.5332 187.459 56.6025 187.459 56.6882C187.459 56.7738 187.389 56.8431 187.304 56.8431Z" fill="white"/>
<path d="M176.212 48.8836C174.673 46.8335 172.287 46.0184 170.83 47.0669C169.377 48.1132 169.39 50.6257 170.836 52.7334C170.461 54.173 170.706 55.7629 171.643 57.0647C173.312 59.3831 176.545 59.9094 178.863 58.2403C181.181 56.5711 181.708 53.3386 180.039 51.0202C179.107 49.7258 177.688 48.9906 176.212 48.8836Z" fill="#EFBC73"/>
<path d="M176.49 59.3671C174.833 59.3673 173.199 58.5986 172.159 57.1541C171.243 55.8808 170.935 54.284 171.311 52.7619C169.843 50.5763 169.87 48.0292 171.382 46.9402C172.9 45.8476 175.329 46.6361 176.936 48.7336C178.489 48.8666 179.896 49.6637 180.807 50.9287C182.523 53.3127 181.98 56.6487 179.596 58.3651C178.656 59.0417 177.568 59.3671 176.49 59.3671ZM172.954 46.7695C172.44 46.7695 171.961 46.9051 171.563 47.1917C170.198 48.1745 170.218 50.6208 171.606 52.6449C171.632 52.6819 171.64 52.7281 171.629 52.7716C171.249 54.2245 171.535 55.7558 172.411 56.9731C174.027 59.2184 177.17 59.73 179.415 58.1135C181.66 56.4969 182.172 53.3549 180.555 51.1095C179.685 49.9004 178.332 49.1451 176.844 49.037C176.799 49.0338 176.758 49.0114 176.731 48.9756C175.681 47.5783 174.21 46.7695 172.954 46.7695Z" fill="#FFD092"/>
<path d="M171.334 48.1358C171.27 48.1358 171.21 48.0957 171.188 48.0319C171.077 47.715 170.8 47.1146 170.182 46.6531C169.697 46.2902 169.196 46.1561 168.861 46.1074C168.777 46.0952 168.718 46.0165 168.73 45.9319C168.743 45.8471 168.821 45.7869 168.906 45.8008C169.276 45.8545 169.83 46.003 170.368 46.4049C171.052 46.9157 171.358 47.5796 171.48 47.9298C171.508 48.0106 171.466 48.0989 171.385 48.1271C171.368 48.1331 171.351 48.1358 171.334 48.1358Z" fill="#363E44"/>
<path d="M178.284 56.9022C179.052 56.9022 179.675 55.6513 179.675 54.1083C179.675 52.5653 179.052 51.3145 178.284 51.3145C177.516 51.3145 176.893 52.5653 176.893 54.1083C176.893 55.6513 177.516 56.9022 178.284 56.9022Z" fill="#FFD092"/>
<path d="M195.484 58.7146C195.479 58.7146 195.474 58.7145 195.469 58.714C195.384 58.706 195.321 58.6305 195.329 58.5452C195.472 57.0127 195.543 55.4569 195.54 53.9211C195.536 52.0429 195.422 50.1418 195.2 48.2711C195.19 48.1861 195.251 48.1091 195.335 48.0989C195.421 48.0879 195.498 48.1496 195.508 48.2345C195.731 50.1173 195.846 52.0302 195.85 53.9206C195.853 55.4663 195.782 57.0319 195.638 58.574C195.63 58.6544 195.563 58.7146 195.484 58.7146Z" fill="#363E44"/>
<path d="M198.07 48.9225C197.005 48.8175 196.137 49.2259 195.524 49.9897C194.911 49.226 194.044 48.8175 192.978 48.9225C190.702 49.1469 189.835 51.7273 190.381 54.1403C190.983 56.8001 192.245 58.9182 193.947 58.7505C194.592 58.6869 195.118 58.3404 195.524 57.7763C195.93 58.3404 196.456 58.6869 197.102 58.7505C198.804 58.9182 200.066 56.8001 200.668 54.1403C201.214 51.7273 200.347 49.1469 198.07 48.9225Z" fill="#E03300"/>
<path d="M197.727 49.9463C197.614 50.0925 198.542 50.7804 198.853 52.212C199.208 53.8441 199.04 55.2019 199.202 55.2891C199.395 55.3925 199.986 53.2227 199.615 51.5651C199.275 50.0464 197.865 49.767 197.727 49.9463Z" fill="#F7F1EB"/>
<path d="M188.994 58.286C189.783 58.286 190.422 57.7603 190.422 57.1117C190.422 56.4632 189.783 55.9375 188.994 55.9375C188.206 55.9375 187.566 56.4632 187.566 57.1117C187.566 57.7603 188.206 58.286 188.994 58.286Z" fill="#7664E3"/>
<path d="M193.506 60.7969C194.179 60.7969 194.725 60.3483 194.725 59.795C194.725 59.2416 194.179 58.793 193.506 58.793C192.833 58.793 192.287 59.2416 192.287 59.795C192.287 60.3483 192.833 60.7969 193.506 60.7969Z" fill="#7664E3"/>
<path d="M189.5 60.5629C190.233 60.5629 190.828 60.074 190.828 59.4709C190.828 58.8678 190.233 58.3789 189.5 58.3789C188.766 58.3789 188.172 58.8678 188.172 59.4709C188.172 60.074 188.766 60.5629 189.5 60.5629Z" fill="#7664E3"/>
<path opacity="0.7" d="M189.243 59.4259C189.694 59.4259 190.06 59.2545 190.06 59.043C190.06 58.8316 189.694 58.6602 189.243 58.6602C188.792 58.6602 188.427 58.8316 188.427 59.043C188.427 59.2545 188.792 59.4259 189.243 59.4259Z" fill="white"/>
<path d="M181.945 65.4664C182.531 65.4664 183.006 65.0061 183.006 64.4383C183.006 63.8705 182.531 63.4102 181.945 63.4102C181.359 63.4102 180.884 63.8705 180.884 64.4383C180.884 65.0061 181.359 65.4664 181.945 65.4664Z" fill="#7664E3"/>
<path d="M180.187 66.6578C180.773 66.6578 181.248 66.1975 181.248 65.6297C181.248 65.0619 180.773 64.6016 180.187 64.6016C179.601 64.6016 179.126 65.0619 179.126 65.6297C179.126 66.1975 179.601 66.6578 180.187 66.6578Z" fill="#7664E3"/>
<path d="M183.477 63.7738C184.094 63.7738 184.595 63.3623 184.595 62.8547C184.595 62.3471 184.094 61.9355 183.477 61.9355C182.859 61.9355 182.359 62.3471 182.359 62.8547C182.359 63.3623 182.859 63.7738 183.477 63.7738Z" fill="#7664E3"/>
<path d="M187.691 65.8187C188.308 65.8187 188.809 65.4072 188.809 64.8996C188.809 64.392 188.308 63.9805 187.691 63.9805C187.073 63.9805 186.573 64.392 186.573 64.8996C186.573 65.4072 187.073 65.8187 187.691 65.8187Z" fill="#7664E3"/>
<path d="M190.284 65.6449C190.901 65.6449 191.402 65.2334 191.402 64.7258C191.402 64.2181 190.901 63.8066 190.284 63.8066C189.666 63.8066 189.166 64.2181 189.166 64.7258C189.166 65.2334 189.666 65.6449 190.284 65.6449Z" fill="#7664E3"/>
<path d="M191.912 64.1117C192.529 64.1117 193.03 63.7002 193.03 63.1926C193.03 62.6849 192.529 62.2734 191.912 62.2734C191.295 62.2734 190.794 62.6849 190.794 63.1926C190.794 63.7002 191.295 64.1117 191.912 64.1117Z" fill="#7664E3"/>
<path d="M193.857 62.8109C194.475 62.8109 194.975 62.3994 194.975 61.8918C194.975 61.3842 194.475 60.9727 193.857 60.9727C193.24 60.9727 192.739 61.3842 192.739 61.8918C192.739 62.3994 193.24 62.8109 193.857 62.8109Z" fill="#7664E3"/>
<path d="M185.008 65.8734C185.626 65.8734 186.126 65.4619 186.126 64.9543C186.126 64.4467 185.626 64.0352 185.008 64.0352C184.391 64.0352 183.891 64.4467 183.891 64.9543C183.891 65.4619 184.391 65.8734 185.008 65.8734Z" fill="#7664E3"/>
<path d="M182.983 67.2367C183.6 67.2367 184.101 66.8252 184.101 66.3176C184.101 65.8099 183.6 65.3984 182.983 65.3984C182.366 65.3984 181.865 65.8099 181.865 66.3176C181.865 66.8252 182.366 67.2367 182.983 67.2367Z" fill="#7664E3"/>
<path d="M191.296 62.2348C192.03 62.2348 192.624 61.7459 192.624 61.1428C192.624 60.5397 192.03 60.0508 191.296 60.0508C190.563 60.0508 189.968 60.5397 189.968 61.1428C189.968 61.7459 190.563 62.2348 191.296 62.2348Z" fill="#7664E3"/>
<path d="M189.193 63.9753C189.918 63.8617 190.43 63.2866 190.336 62.6908C190.243 62.095 189.58 61.7041 188.855 61.8177C188.13 61.9313 187.619 62.5064 187.712 63.1022C187.806 63.698 188.469 64.0889 189.193 63.9753Z" fill="#7664E3"/>
<path d="M186.32 63.9908C186.946 63.8928 187.387 63.3966 187.307 62.8825C187.226 62.3684 186.654 62.0311 186.028 62.1291C185.403 62.2272 184.962 62.7234 185.042 63.2375C185.123 63.7516 185.695 64.0889 186.32 63.9908Z" fill="#7664E3"/>
<path d="M184.697 62.0727C185.431 62.0727 186.025 61.5838 186.025 60.9807C186.025 60.3776 185.431 59.8887 184.697 59.8887C183.964 59.8887 183.369 60.3776 183.369 60.9807C183.369 61.5838 183.964 62.0727 184.697 62.0727Z" fill="#7664E3"/>
<path d="M187.467 62.0786C188.201 62.0786 188.795 61.5896 188.795 60.9865C188.795 60.3834 188.201 59.8945 187.467 59.8945C186.734 59.8945 186.139 60.3834 186.139 60.9865C186.139 61.5896 186.734 62.0786 187.467 62.0786Z" fill="#7664E3"/>
<path d="M186.9 59.8246C187.633 59.8246 188.228 59.3357 188.228 58.7326C188.228 58.1295 187.633 57.6406 186.9 57.6406C186.166 57.6406 185.572 58.1295 185.572 58.7326C185.572 59.3357 186.166 59.8246 186.9 59.8246Z" fill="#7664E3"/>
<path d="M191.945 58.6452C191.873 58.6452 191.808 58.5945 191.793 58.5209C191.776 58.4369 191.831 58.3552 191.915 58.3383C193.923 57.9329 194.681 56.4306 195.202 54.8677C195.229 54.7865 195.316 54.7429 195.398 54.7695C195.479 54.7966 195.523 54.8844 195.496 54.9655C194.946 56.6171 194.139 58.2054 191.976 58.6421C191.966 58.6442 191.955 58.6452 191.945 58.6452Z" fill="#7664E3"/>
<path d="M191.901 59.0477C192.69 59.0477 193.329 58.522 193.329 57.8734C193.329 57.2249 192.69 56.6992 191.901 56.6992C191.112 56.6992 190.473 57.2249 190.473 57.8734C190.473 58.522 191.112 59.0477 191.901 59.0477Z" fill="#7664E3"/>
<path opacity="0.7" d="M193.088 57.5785C193.027 57.7809 192.627 57.8393 192.196 57.7088C191.764 57.5784 191.464 57.3085 191.525 57.1062C191.586 56.9038 191.985 56.8454 192.417 56.9758C192.849 57.1062 193.149 57.3761 193.088 57.5785Z" fill="white"/>
<path opacity="0.7" d="M189.997 56.7269C189.935 56.9293 189.536 56.9877 189.104 56.8573C188.673 56.7268 188.372 56.457 188.434 56.2546C188.495 56.0522 188.894 55.9938 189.326 56.1242C189.757 56.2547 190.058 56.5244 189.997 56.7269Z" fill="white"/>
<path d="M89.3421 103.9L88.8378 112.728L81.274 112.38L81.4 104.249L89.3421 103.9Z" fill="white"/>
<path d="M86.6127 47.1523C84.0445 49.812 80.6618 54.0416 78.615 59.9487C76.5667 65.8602 76.8017 70.7229 77.6553 81.0629C78.4639 90.8583 79.3477 99.7551 80.2145 107.615C83.8935 107.455 86.9326 107.456 90.6116 107.296C91.6779 94.3392 91.7846 81.5427 92.851 68.5864C94.0773 74.3448 96.9031 79.7832 98.1295 85.5416C98.4494 92.6863 99.729 99.9909 100.049 107.136C103.888 107.136 106.767 106.976 110.606 106.976C111.712 100.004 112.506 90.13 110.926 78.5036C109.184 65.6817 105.216 55.5917 101.968 48.9118C96.8499 48.3252 91.7312 47.7389 86.6127 47.1523Z" fill="#003A6B"/>
<path d="M91.3285 30.2793H96.7896V20.2475H91.3285V30.2793Z" fill="#363E44"/>
<path d="M78.9059 31.8477C75.6772 35.2958 65.7786 44.7187 69.5671 48.5555C72.7008 51.729 81.9578 42.1551 85.3755 38.9236C83.219 36.565 81.0624 34.2063 78.9059 31.8477Z" fill="white"/>
<path d="M107.807 33.377C116.481 36.9754 121.017 39.9112 119.386 43.0808C118.44 44.9194 111.593 44.387 104.599 41.91C105.302 39.0286 106.331 36.7131 107.807 33.377Z" fill="white"/>
<path d="M110.712 40.0469C110.712 40.0466 110.712 40.0465 110.712 40.0462C115.568 33.0761 118.879 28.0378 119.963 26.5225C120.076 26.3638 120.275 26.0829 120.623 25.8014C121.913 24.7585 123.182 25.38 125.038 24.9018C127.145 24.3592 128.024 22.8616 128.477 23.1835C128.792 23.4075 128.619 24.0657 127.807 25.1711C127.807 25.1712 127.807 25.1713 127.808 25.1713C128.521 24.4024 129.534 23.4018 129.958 23.7973C130.424 24.28 129.372 25.5953 128.696 26.3598C129.514 25.4344 130.226 25.1868 130.407 25.4662C130.693 25.9059 130.226 26.7711 129.098 27.9522L129.098 27.9523C130.105 27.3543 130.438 27.3592 130.539 27.6452C130.722 28.1675 129.776 29.121 128.811 29.8359C127.724 30.6408 126.601 30.8881 125.89 31.0272C125.89 31.0273 125.89 31.0274 125.89 31.0276C123.614 35.1436 120.619 40.6659 119.443 42.8376C119.144 43.3901 118.499 43.656 117.898 43.4745C116.089 42.9292 112.399 41.6708 110.712 40.0469Z" fill="white"/>
<path d="M121.625 25.5114C121.555 25.5114 121.491 25.4651 121.472 25.3946C121.448 25.3099 121.498 25.2226 121.583 25.1995C122.055 25.0707 122.541 25.0574 123.055 25.0434C123.291 25.037 123.536 25.0303 123.79 25.0123C123.881 25.005 123.954 25.072 123.96 25.1594C123.966 25.2468 123.9 25.3227 123.813 25.3288C123.551 25.3474 123.304 25.3542 123.064 25.3607C122.569 25.3741 122.102 25.387 121.666 25.5058C121.653 25.5096 121.638 25.5114 121.625 25.5114Z" fill="#363E44"/>
<path d="M126.31 26.156C126.242 26.156 126.178 26.1116 126.158 26.043C126.133 25.9589 126.18 25.8704 126.264 25.8452C126.505 25.7727 126.741 25.6774 126.965 25.5618C127.289 25.3942 127.59 25.1832 127.86 24.9346C127.925 24.875 128.025 24.8795 128.084 24.9438C128.144 25.0084 128.14 25.1087 128.075 25.1681C127.784 25.4358 127.46 25.6633 127.111 25.8439C126.869 25.9685 126.615 26.0711 126.356 26.1493C126.34 26.1538 126.325 26.156 126.31 26.156Z" fill="#363E44"/>
<path d="M127.3 27.2205C127.232 27.2205 127.169 27.1761 127.148 27.1074C127.123 27.0235 127.17 26.9349 127.254 26.9096C127.496 26.837 127.732 26.7416 127.955 26.6261C128.279 26.4587 128.58 26.2476 128.85 25.9992C128.915 25.9395 129.015 25.9438 129.075 26.0083C129.134 26.073 129.13 26.1733 129.065 26.2327C128.774 26.5006 128.45 26.7278 128.101 26.9083C127.86 27.0326 127.606 27.1353 127.346 27.2138C127.331 27.2183 127.315 27.2205 127.3 27.2205Z" fill="#363E44"/>
<path d="M127.632 28.9586C127.564 28.9586 127.501 28.9143 127.48 28.8456C127.455 28.7617 127.503 28.673 127.587 28.6478C127.828 28.5751 128.064 28.4797 128.287 28.3643C128.611 28.1968 128.913 27.9858 129.183 27.7373C129.247 27.6779 129.347 27.682 129.407 27.7465C129.466 27.811 129.462 27.9114 129.398 27.9708C129.107 28.2388 128.782 28.466 128.433 28.6464C128.192 28.7708 127.938 28.8735 127.678 28.952C127.663 28.9565 127.648 28.9586 127.632 28.9586Z" fill="#363E44"/>
<path d="M123.007 29.3915C122.98 29.3915 122.951 29.3843 122.926 29.3688C122.851 29.3234 122.826 29.2259 122.872 29.1508C123.081 28.805 123.465 28.3279 124.113 28.0193C125.03 27.5824 125.902 27.7683 126.234 27.8679C126.318 27.8933 126.365 27.9819 126.34 28.0657C126.315 28.1497 126.226 28.197 126.142 28.1721C125.845 28.0824 125.067 27.9169 124.25 28.3057C123.673 28.5807 123.33 29.0063 123.144 29.3148C123.114 29.3643 123.061 29.3915 123.007 29.3915Z" fill="#363E44"/>
<path d="M110.767 40.1271C110.736 40.1271 110.704 40.1178 110.677 40.0986C110.605 40.0486 110.587 39.9496 110.637 39.8777C111.711 38.3362 112.77 36.801 113.877 35.1844C113.927 35.1122 114.025 35.0934 114.098 35.143C114.17 35.1924 114.189 35.2914 114.139 35.3636C113.032 36.9812 111.972 38.517 110.898 40.0591C110.867 40.1034 110.817 40.1271 110.767 40.1271Z" fill="#363E44"/>
<path d="M76.2848 31.4437C76.2848 31.4437 84.9292 27.3369 92.865 28.045C100.801 28.753 108.56 31.8685 108.56 31.8685L104.769 41.4981L105.199 57.6475L80.0728 58.8759L79.9693 42.1L76.2848 31.4437Z" fill="#003A6B"/>
<path d="M119.137 23.3667C116.896 23.2293 111.493 25.7347 111.803 28.5445C112.073 30.9861 117.188 33.7454 125.979 34.1297C135.302 34.5372 144.722 31.7337 145.111 28.7903C145.441 26.2902 139.125 24.4665 132.959 24.3614C128.551 24.2863 125.536 25.371 122.724 24.9692C120.607 24.6665 120.62 23.4577 119.137 23.3667Z" fill="white"/>
<path d="M127.545 34.4779C126.947 34.4779 126.351 34.4654 125.755 34.4393C116.817 34.0486 111.703 31.1974 111.429 28.7128C111.337 27.886 111.691 27.0467 112.48 26.2181C114.129 24.4864 117.303 23.2577 118.929 23.3594C119.677 23.4051 120.074 23.7198 120.495 24.053C120.943 24.4072 121.451 24.8089 122.53 24.963C123.976 25.1695 125.481 24.977 127.224 24.7534C128.819 24.5491 130.625 24.3189 132.745 24.3537C138.084 24.4446 143.05 25.7763 144.553 27.5199C144.949 27.9801 145.117 28.4653 145.051 28.9622C144.667 31.8723 136.129 34.4775 127.545 34.4779ZM118.737 23.6711C117.158 23.6711 114.219 24.8528 112.71 26.4371C111.989 27.1945 111.664 27.9486 111.744 28.6781C112.004 31.0312 117.008 33.7392 125.769 34.1221C130.14 34.3129 134.829 33.8004 138.635 32.7149C142.279 31.6755 144.56 30.2572 144.737 28.9205C144.79 28.5173 144.647 28.1158 144.312 27.7271C142.864 26.0458 137.997 24.7607 132.74 24.6712C130.645 24.6357 128.848 24.8653 127.265 25.0683C125.499 25.2947 123.974 25.4903 122.485 25.2773C121.321 25.111 120.778 24.681 120.299 24.3018C119.885 23.9744 119.558 23.7158 118.91 23.6761C118.855 23.6728 118.797 23.6711 118.737 23.6711Z" fill="#D3BBA3"/>
<path d="M117.57 29.1878C119.535 29.1601 121.121 28.6327 121.112 28.0098C121.104 27.387 119.503 26.9045 117.538 26.9322C115.572 26.96 113.986 27.4873 113.995 28.1102C114.004 28.7331 115.604 29.2155 117.57 29.1878Z" fill="#776E42"/>
<path d="M115.119 27.2705C116.553 26.8262 118.805 26.8206 120.149 27.258C120.743 27.4512 121.06 27.6986 121.106 27.9528C121.009 28.2074 120.641 28.4564 120.008 28.6527C118.574 29.097 116.322 29.1026 114.978 28.6652C114.384 28.4721 114.067 28.2247 114.022 27.9704C114.119 27.7158 114.486 27.4668 115.119 27.2705Z" fill="#003A6B"/>
<path d="M121.904 32.1448C123.869 32.1171 125.456 31.5897 125.447 30.9669C125.438 30.344 123.838 29.8616 121.872 29.8893C119.907 29.917 118.321 30.4444 118.33 31.0672C118.338 31.6901 119.939 32.1726 121.904 32.1448Z" fill="#E0AA63"/>
<path d="M120.667 29.9738C122.513 29.7367 124.556 30.0119 125.23 30.5884C125.528 30.8431 125.509 31.114 125.235 31.3576C124.832 31.5836 124.192 31.7709 123.377 31.8757C121.531 32.1128 119.488 31.8377 118.813 31.2611C118.515 31.0064 118.535 30.7355 118.808 30.492C119.211 30.2659 119.851 30.0786 120.667 29.9738Z" fill="#EFBC73"/>
<path d="M130.854 33.2816C132.819 33.2538 134.405 32.7265 134.397 32.1036C134.388 31.4807 132.787 30.9983 130.822 31.026C128.857 31.0537 127.271 31.5811 127.279 32.204C127.288 32.8268 128.889 33.3093 130.854 33.2816Z" fill="#D3BBA3"/>
<path d="M128.144 31.4531C129.429 30.9654 131.676 30.8848 133.164 31.2731C133.821 31.4446 134.219 31.6789 134.349 31.9292C134.336 32.1846 134.052 32.4434 133.485 32.6589C132.2 33.1467 129.953 33.2273 128.465 32.839C127.808 32.6674 127.41 32.4331 127.28 32.1828C127.293 31.9275 127.577 31.6686 128.144 31.4531Z" fill="#D3BBA3"/>
<path d="M138.222 31.0921C140.188 31.0644 141.774 30.537 141.765 29.9141C141.756 29.2913 140.156 28.8088 138.191 28.8365C136.225 28.8643 134.639 29.3916 134.648 30.0145C134.657 30.6374 136.257 31.1198 138.222 31.0921Z" fill="#D3BBA3"/>
<path d="M135.513 29.2617C136.797 28.774 139.045 28.6934 140.532 29.0817C141.189 29.2532 141.587 29.4875 141.717 29.7378C141.705 29.9932 141.42 30.252 140.853 30.4675C139.568 30.9553 137.321 31.0358 135.834 30.6475C135.177 30.476 134.778 30.2417 134.648 29.9914C134.661 29.7361 134.945 29.4772 135.513 29.2617Z" fill="#D87355"/>
<path d="M137.629 28.0413C139.594 28.0136 141.18 27.4862 141.172 26.8634C141.163 26.2405 139.563 25.758 137.597 25.7858C135.632 25.8135 134.046 26.3409 134.054 26.9637C134.063 27.5866 135.664 28.069 137.629 28.0413Z" fill="#D3BBA3"/>
<path d="M134.919 26.211C136.204 25.7232 138.451 25.6426 139.939 26.0309C140.596 26.2024 140.994 26.4368 141.124 26.687C141.111 26.9424 140.827 27.2013 140.26 27.4167C138.975 27.9045 136.728 27.9851 135.24 27.5968C134.583 27.4253 134.185 27.1909 134.055 26.9406C134.068 26.6853 134.352 26.4264 134.919 26.211Z" fill="#E6D0BE"/>
<path d="M122.819 27.326C123.882 27.326 124.744 27.0291 124.744 26.663C124.744 26.2968 123.882 26 122.819 26C121.756 26 120.895 26.2968 120.895 26.663C120.895 27.0291 121.756 27.326 122.819 27.326Z" fill="#E6D0BE"/>
<path d="M123.525 26.8978C123.833 26.8497 124.28 26.6072 124.457 26.3506C125.458 24.9071 125.52 24.1444 125.265 23.9651C124.823 23.6545 123.286 24.5369 121.267 26.5393C121.122 26.6837 121.231 26.9014 121.434 26.9251C122.306 27.0261 122.841 27.0048 123.525 26.8978Z" fill="white"/>
<path d="M86.41 38.5919L100.983 37.9219L103.859 50.9455L105.645 55.8591C109.037 66.0136 111.276 75.6318 111.787 84.4469L112.346 97.9591L76.4993 98.9641C76.2955 82.9822 76.1128 64.2025 79.8494 55.6357L85.0979 50.7222L86.41 38.5919Z" fill="#77E5FE"/>
<path d="M86.4938 38.8764C86.4228 38.8764 86.358 38.8284 86.34 38.7564L83.8273 28.7619C83.806 28.6768 83.8576 28.5906 83.9426 28.5692C84.027 28.5481 84.1139 28.5994 84.1352 28.6844L86.6478 38.6789C86.6692 38.764 86.6176 38.8502 86.5326 38.8716C86.5197 38.8749 86.5066 38.8764 86.4938 38.8764Z" fill="#363E44"/>
<path d="M100.816 38.417C100.807 38.417 100.798 38.4162 100.789 38.4147C100.703 38.4001 100.645 38.3181 100.659 38.2316L102.083 29.8702C102.098 29.7839 102.179 29.7261 102.266 29.7405C102.353 29.755 102.411 29.837 102.396 29.9236L100.972 38.2849C100.959 38.3623 100.892 38.417 100.816 38.417Z" fill="#363E44"/>
<path d="M96.5213 34.5055L96.4578 32.4185C96.4233 31.2879 97.0032 30.2271 97.9734 29.6457L101.384 27.6016L101.222 32.2193C101.193 33.067 100.786 33.8572 100.114 34.3747L98.4937 35.6226L96.5213 34.5055Z" fill="white"/>
<path d="M87.8786 55.814L86.3675 57.3578L86.292 55.0908L96.3899 33.666L99.2027 35.1204L87.8786 55.814Z" fill="#B77250"/>
<path d="M97.1347 34.3902C97.0576 34.3902 96.9899 34.3339 96.978 34.2554C96.6053 31.8 97.8704 29.7735 100.738 28.232C100.816 28.1902 100.912 28.2193 100.953 28.2967C100.995 28.3739 100.966 28.4701 100.888 28.5117C98.1514 29.9829 96.9414 31.8992 97.2918 34.2076C97.305 34.2943 97.2454 34.3754 97.1587 34.3883C97.1507 34.3896 97.1427 34.3902 97.1347 34.3902Z" fill="#E6D0BE"/>
<path d="M98.7176 35.1616C98.6677 35.1616 98.6185 35.1382 98.5876 35.0941C98.5372 35.0225 98.5545 34.9234 98.6262 34.8729C100.142 33.8064 100.814 31.9735 100.74 29.1042C100.738 29.0167 100.807 28.9438 100.895 28.9414C100.977 28.9405 101.055 29.0084 101.058 29.0961C101.134 32.0812 100.42 33.9994 98.8088 35.1326C98.781 35.1523 98.7491 35.1616 98.7176 35.1616Z" fill="#E6D0BE"/>
<path d="M97.9903 34.9471C97.9695 34.9471 97.9484 34.9431 97.928 34.9344C97.8473 34.8998 97.8099 34.8066 97.8444 34.726L99.983 29.7216C100.017 29.641 100.11 29.6032 100.191 29.6379C100.272 29.6725 100.309 29.7656 100.275 29.8463L98.1363 34.8506C98.1106 34.911 98.052 34.9471 97.9903 34.9471Z" fill="#E6D0BE"/>
<path d="M95.1741 36.2456L96.3899 33.666L99.2026 35.1204L97.8342 37.6211L95.1741 36.2456Z" fill="#84524D"/>
<path d="M73.0923 41.5469C76.7421 42.3404 85.4296 43.784 86.272 43.9587C87.8468 44.2852 95.6242 45.5753 95.4252 47.1095C95.3482 47.7029 94.3896 47.7869 93.8394 47.6671C94.2361 47.9828 94.8527 48.4196 94.6007 49.0413C94.3045 49.7718 93.1797 49.436 93.1367 49.4424C93.5721 49.7222 94.0039 50.1872 93.8331 50.6606C93.6109 51.2766 93.0115 51.3805 92.4352 51.2113C92.4725 51.3076 93.037 51.7687 92.838 52.3368C92.6911 52.7564 92.078 52.8103 91.34 52.7191C89.9405 52.4301 84.442 51.5987 81.7517 51.3219C75.4332 50.6716 70.4358 49.0849 70.4358 49.0849C70.4358 49.0849 71.3015 42.4601 73.0923 41.5469Z" fill="white"/>
<path d="M79.7337 42.8696C79.7243 42.8696 79.7147 42.8688 79.7051 42.8669C77.9388 42.5455 74.277 41.8715 73.0602 41.621C72.9743 41.6033 72.9191 41.5193 72.9368 41.4335C72.9543 41.3475 73.0386 41.2921 73.1242 41.31C74.3381 41.5599 77.9969 42.2335 79.762 42.5547C79.8481 42.5704 79.9054 42.653 79.8897 42.7392C79.8757 42.816 79.8089 42.8696 79.7337 42.8696Z" fill="#363E44"/>
<path d="M91.198 59.643C92.1308 58.9046 93.8921 60.1744 94.3604 59.5749C94.8354 58.9671 93.3941 57.1877 93.7484 56.8886C94.005 56.6719 94.8376 57.5714 95.2446 57.2966C95.6902 56.9957 95.0782 55.9866 95.3806 54.4403C95.4894 53.8838 95.6912 52.8514 96.4687 52.4C97.6647 51.7056 99.751 52.6599 100.005 53.7601C100.074 54.0576 99.9803 54.2427 99.0531 56.3445C98.5877 57.3994 98.3581 57.9304 98.509 58.1127C98.7705 58.4285 99.5401 57.9517 101.229 57.7046C102.482 57.5215 103.324 57.3983 103.678 57.8407C104.158 58.4414 103.654 59.9791 102.726 60.425C102.202 60.6767 101.9 60.4085 100.277 60.289C98.9621 60.1921 98.3059 60.1266 98.1009 60.425C97.7058 61.0002 99.1603 61.9461 99.121 63.7914C99.1154 64.0538 99.0901 65.2449 98.2644 65.8053C97.828 66.1015 97.3429 66.1031 97.1488 66.1036C97.0659 66.1039 96.1426 66.0939 95.5166 65.4576C94.738 64.6664 95.3253 63.8283 94.7345 63.1792C93.8675 62.2269 92.0747 63.4504 91.13 62.5332C90.4165 61.8407 90.4797 60.2115 91.198 59.643Z" fill="#005592"/>
<path d="M84.6236 75.8117C85.321 74.7094 83.0063 73.0474 83.5354 70.9151C83.8292 69.7311 84.9203 68.7218 85.5757 68.8748C86.3663 69.0592 85.8303 70.8175 87.0719 72.5473C88.3081 74.2697 89.8485 73.9436 90.3363 75.4036C90.7003 76.4928 90.262 77.9278 89.3842 78.532C88.4668 79.1634 87.8041 78.3818 86.5278 78.872C84.7832 79.5422 84.8375 81.4576 83.3994 81.6604C82.5542 81.7797 81.7557 81.2302 81.3591 80.7083C80.5748 79.6763 80.804 77.8172 81.7671 76.8998C82.8168 75.9 84.1206 76.6067 84.6236 75.8117Z" fill="#FADB3F"/>
<path d="M91.7351 13.6301C91.9559 13.5796 94.0776 13.1284 95.5579 14.4274C96.6595 15.394 96.9552 16.7785 97.0998 19.1757C97.27 21.9988 96.9771 23.71 96.2422 24.3662C95.0809 25.4028 91.0126 23.9419 89.2625 21.6831C87.9992 20.0526 87.8247 17.7657 88.6948 15.88C89.5627 13.9995 91.5942 13.6623 91.7351 13.6301Z" fill="white"/>
<path d="M92.2024 31.1348H91.9405C90.6299 31.1348 89.5674 30.0723 89.5674 28.7617V21.2599C89.5674 19.9492 90.6299 18.8867 91.9405 18.8867H92.2024C93.513 18.8867 94.5756 19.9492 94.5756 21.2599V28.7617C94.5756 30.0723 93.513 31.1348 92.2024 31.1348Z" fill="white"/>
<path d="M94.587 24.9206C94.5807 24.9206 94.5743 24.9203 94.5679 24.9195C92.9292 24.7231 90.469 23.5865 89.137 21.8673C89.0833 21.7979 89.096 21.6983 89.1653 21.6445C89.2344 21.5912 89.3342 21.6032 89.388 21.6729C90.6207 23.264 93.0089 24.4129 94.6057 24.6042C94.6927 24.6147 94.7548 24.6936 94.7443 24.7807C94.7348 24.8613 94.6662 24.9206 94.587 24.9206Z" fill="#363E44"/>
<path d="M88.278 29.076C88.278 30.2816 89.603 31.4263 92.0288 31.4263C94.4546 31.4263 95.5491 30.252 95.5491 29.0464C95.5491 27.8408 94.4546 27.0605 92.0288 27.0605C89.603 27.0605 88.278 27.8704 88.278 29.076Z" fill="white"/>
<path d="M92.5381 18.5374C92.5381 18.5374 92.8994 19.3247 93.6334 19.8775C93.7881 19.994 94.4355 18.5265 94.2354 18.4854C93.3501 18.3033 92.5381 18.5374 92.5381 18.5374Z" fill="white"/>
<path d="M96.4473 20.3287C96.4473 20.3287 95.2267 20.6806 94.1471 20.1859C93.9584 20.0994 93.7869 19.9925 93.6316 19.8754C93.5743 19.322 93.8159 18.8028 94.2314 18.4844C94.4328 18.5255 94.6379 18.5881 94.8382 18.6799C95.9178 19.1746 96.4473 20.3287 96.4473 20.3287Z" fill="#363E44"/>
<path d="M95.5148 22.3361C95.3571 22.3361 95.2018 22.2865 95.0753 22.1873C94.756 21.9369 94.8086 21.5256 94.811 21.5082C94.823 21.4212 94.9035 21.3602 94.99 21.3727C95.0769 21.3847 95.1375 21.4648 95.1256 21.5516C95.1254 21.5535 95.0966 21.8006 95.2712 21.9374C95.4121 22.048 95.6203 22.046 95.7774 21.9333C95.8486 21.8818 95.9477 21.8985 95.9989 21.9698C96.0499 22.0411 96.0337 22.1401 95.9625 22.1913C95.8278 22.2879 95.6702 22.3361 95.5148 22.3361Z" fill="#363E44"/>
<path d="M96.9517 20.0918C96.961 20.2292 96.9946 20.4286 97.1157 20.6242C97.2616 20.8602 97.4269 20.916 97.4435 21.0747C97.4546 21.1811 97.3998 21.3423 97.0746 21.5662L96.9517 20.0918Z" fill="white"/>
<path d="M97.0745 21.7254C97.024 21.7254 96.9743 21.7014 96.9436 21.6567C96.8939 21.5845 96.9121 21.4856 96.9843 21.4358C97.2759 21.2353 97.2885 21.1216 97.2854 21.0915C97.2822 21.0612 97.2573 21.0334 97.1922 20.9673C97.1307 20.905 97.0542 20.8274 96.9804 20.7081C96.8715 20.5322 96.8084 20.3285 96.7931 20.103C96.7871 20.0155 96.8531 19.9398 96.9407 19.9338C97.0265 19.9299 97.1039 19.9939 97.1098 20.0814C97.1217 20.2548 97.1689 20.4095 97.2505 20.5412C97.3054 20.63 97.3628 20.6881 97.4183 20.7444C97.5009 20.8282 97.5862 20.9146 97.6012 21.0588C97.6232 21.2713 97.4803 21.4801 97.1643 21.6976C97.1369 21.7164 97.1055 21.7254 97.0745 21.7254Z" fill="#363E44"/>
<path d="M88.273 12.9086C92.6341 10.8578 97.2087 13.594 96.8511 16.9181C96.8511 16.9181 95.2099 15.0235 95.2099 14.9844C94.912 15.5696 94.3838 16.4229 93.4855 17.2168C92.0977 18.4432 90.6072 18.8381 89.8798 18.9791C89.8798 24.8083 89.8798 30.6374 89.8798 36.4665H86.4991V32.1161L85.5097 36.4666H81.7067C81.7067 36.4666 81.2772 16.1985 88.273 12.9086Z" fill="#363E44"/>
<path d="M91.6401 21.3254C92.3389 20.8748 92.4732 19.8395 91.9402 19.013C91.4072 18.1865 90.4087 17.8818 89.7099 18.3325C89.0112 18.7831 88.8768 19.8184 89.4098 20.6449C89.9428 21.4714 90.9414 21.776 91.6401 21.3254Z" fill="white"/>
<path d="M90.1413 20.5447C90.0984 20.5447 90.0556 20.5275 90.0243 20.4934C89.9773 20.4422 89.9341 20.3863 89.8959 20.3269C89.745 20.092 89.6806 19.8199 89.7147 19.5609C89.7502 19.2919 89.8864 19.0689 90.0984 18.9329C90.2061 18.8637 90.3264 18.8215 90.4561 18.8076C90.5429 18.7981 90.6215 18.8611 90.631 18.9483C90.6404 19.0355 90.5774 19.1137 90.4902 19.1232C90.4099 19.1319 90.3358 19.1578 90.2698 19.2001C90.1379 19.2848 90.0524 19.4277 90.0295 19.6024C90.0052 19.787 90.0526 19.9833 90.163 20.1551C90.1914 20.1993 90.2234 20.2407 90.2581 20.2785C90.3174 20.3431 90.3132 20.4434 90.2486 20.5028C90.2181 20.531 90.1797 20.5447 90.1413 20.5447Z" fill="#363E44"/>
<path d="M217.036 88.1667C220.804 88.1667 223.858 87.5098 223.858 86.6996C223.858 85.8893 220.804 85.2324 217.036 85.2324C213.269 85.2324 210.214 85.8893 210.214 86.6996C210.214 87.5098 213.269 88.1667 217.036 88.1667Z" fill="#D3BBA3"/>
<path d="M214.555 73.0753L215.558 71.9199C215.754 72.7088 216.139 73.4073 216.705 74.02C216.954 74.2902 217.148 74.6108 217.232 74.9687C217.309 75.2967 217.331 75.6371 217.294 75.9755L217.059 78.1299L214.447 78.2945L213.968 76.3493C213.752 75.4726 213.82 74.5541 214.155 73.724C214.251 73.4869 214.387 73.2682 214.555 73.0753Z" fill="#BC8271"/>
<path d="M214.469 78.2924L217.064 78.1289L217.079 81.9704L214.936 82.1055L214.469 78.2924Z" fill="#2D353A"/>
<path d="M216.303 100.422L217.995 100.316L217.079 81.9707L214.936 82.1058L216.303 100.422Z" fill="#EFBC73"/>
<path d="M214.447 78.294L215.393 78.2344L215.86 82.0475L214.913 82.1071L214.447 78.294Z" fill="#40484C"/>
<path d="M210.207 68.9473L209.867 73.9302L212.121 73.5605L210.207 68.9473Z" fill="white"/>
<path d="M211.01 70.8675L210.207 68.9336L210.065 71.0225L211.01 70.8675Z" fill="#D87355"/>
<path d="M215.833 101.003L215.116 101.12C214.692 101.19 214.291 100.902 214.222 100.478L209.867 73.9303L212.121 73.5605L216.476 100.108C216.545 100.532 216.258 100.933 215.833 101.003Z" fill="#D87355"/>
<path d="M214.434 96.8857C214.359 96.8857 214.294 96.8319 214.281 96.7559L210.518 73.813C210.504 73.7286 210.561 73.6489 210.646 73.6351C210.73 73.6204 210.81 73.6784 210.824 73.7628L214.587 96.7056C214.601 96.7901 214.544 96.8698 214.459 96.8835C214.451 96.8851 214.442 96.8857 214.434 96.8857Z" fill="#363E44"/>
<path d="M215.403 96.7275C215.328 96.7275 215.262 96.6736 215.25 96.5977L211.487 73.6549C211.473 73.5705 211.53 73.4907 211.614 73.4769C211.699 73.4621 211.778 73.5202 211.792 73.6046L215.556 96.5474C215.57 96.6319 215.512 96.7116 215.428 96.7254C215.419 96.7269 215.411 96.7275 215.403 96.7275Z" fill="#363E44"/>
<path d="M213.629 97.0193C213.554 97.0193 213.488 96.9655 213.476 96.8895C213.462 96.8051 213.519 96.7254 213.604 96.7115L215.857 96.3418C215.942 96.3283 216.022 96.3853 216.035 96.4697C216.049 96.5541 215.992 96.6338 215.908 96.6476L213.654 97.0172C213.645 97.0187 213.637 97.0193 213.629 97.0193Z" fill="#363E44"/>
<path d="M213.853 98.3828C213.778 98.3828 213.713 98.3289 213.7 98.253C213.686 98.1686 213.743 98.0889 213.828 98.0751L216.082 97.7054C216.166 97.6906 216.246 97.7487 216.259 97.8331C216.273 97.9176 216.216 97.9973 216.132 98.0112L213.878 98.3809C213.87 98.3823 213.861 98.3828 213.853 98.3828Z" fill="#363E44"/>
<path d="M218.998 75.4825L218.054 73.5759C217.542 72.543 217.629 71.3141 218.281 70.3634L220.573 67.0215L222.383 71.3686C222.716 72.1666 222.675 73.0712 222.272 73.836L221.3 75.6802L218.998 75.4825Z" fill="white"/>
<path d="M220.037 98.8934L219.292 100.965L218.26 98.897L218.52 74.7598L221.744 74.9131L220.037 98.8934Z" fill="#B77250"/>
<path d="M219.451 75.1229C219.401 75.1229 219.351 75.0982 219.321 75.0528C217.936 72.939 218.247 70.5268 220.248 67.8837C220.299 67.8155 220.397 67.802 220.465 67.8538C220.533 67.9054 220.547 68.0025 220.495 68.0708C218.582 70.5983 218.274 72.8904 219.581 74.8831C219.627 74.9547 219.607 75.0506 219.536 75.0975C219.51 75.1147 219.48 75.1229 219.451 75.1229Z" fill="#E6D0BE"/>
<path d="M221.244 75.1657C221.217 75.1657 221.19 75.1589 221.166 75.1446C221.092 75.1014 221.067 75.0065 221.11 74.9327C222.063 73.2988 221.908 71.3134 220.62 68.6841C220.582 68.6073 220.614 68.5145 220.691 68.4768C220.768 68.439 220.861 68.4711 220.898 68.5479C222.236 71.2788 222.388 73.3573 221.378 75.0889C221.349 75.1382 221.297 75.1657 221.244 75.1657Z" fill="#E6D0BE"/>
<path d="M220.48 75.2764C220.396 75.2764 220.327 75.2096 220.325 75.1254L220.181 69.5808C220.179 69.4953 220.247 69.4242 220.332 69.4219C220.334 69.4219 220.335 69.4219 220.336 69.4219C220.42 69.4219 220.489 69.4886 220.491 69.5729L220.635 75.1175C220.637 75.203 220.569 75.2741 220.483 75.2764C220.482 75.2764 220.481 75.2764 220.48 75.2764Z" fill="#E6D0BE"/>
<path d="M218.489 77.6659L218.52 74.7598L221.744 74.9131L221.537 77.811L218.489 77.6659Z" fill="#9E460D"/>
<path d="M223.858 107.363H210.177V86.5039C211.385 88.2786 220.494 88.8589 223.858 86.5039V107.363Z" fill="#003A6B"/>
<path d="M216.72 88.2644C214.07 88.2644 211.709 87.7228 210.135 86.8735C210.06 86.8329 210.031 86.739 210.072 86.6636C210.113 86.5883 210.207 86.5598 210.282 86.6008C213.092 88.1163 218.8 88.6291 223.846 86.5934C223.925 86.5619 224.016 86.5996 224.048 86.6792C224.08 86.7585 224.042 86.8489 223.962 86.8809C221.549 87.8544 219.025 88.2644 216.72 88.2644Z" fill="white"/>
</g>
<defs>
<clipPath id="clip0_535_8929">
<rect y="0.833984" width="310" height="103.333" rx="6.2" fill="white"/>
</clipPath>
</defs>
</svg>
