<svg width="310" height="104" viewBox="0 0 310 104" fill="none" xmlns="http://www.w3.org/2000/svg">
<g clip-path="url(#clip0_535_9135)">
<rect y="0.667969" width="310" height="103.333" rx="6.2" fill="#821FBE"/>
<path d="M155.129 168.585C219.404 168.585 271.508 116.48 271.508 52.2053C271.508 -12.0691 219.404 -64.1738 155.129 -64.1738C90.8547 -64.1738 38.75 -12.0691 38.75 52.2053C38.75 116.48 90.8547 168.585 155.129 168.585Z" fill="#E064D9"/>
<path d="M163.008 127.251C201.673 127.251 233.017 95.9072 233.017 57.2427C233.017 18.5782 201.673 -12.7656 163.008 -12.7656C124.344 -12.7656 93.0001 18.5782 93.0001 57.2427C93.0001 95.9072 124.344 127.251 163.008 127.251Z" fill="#E064D9"/>
<path d="M176.862 97.1559V83.8962H199.593V70.6364H220.43V55.4824H248.324V71.0341H227.487V86.1881H204.756V99.4478H182.025V112.708H154.131V97.1559H176.862Z" fill="#FFEDFB"/>
<path d="M178.063 108.372H150.168C150.126 108.372 150.092 108.338 150.092 108.296V92.7441C150.092 92.7019 150.126 92.6676 150.168 92.6676H172.823V79.4844C172.823 79.4422 172.857 79.4079 172.899 79.4079H195.554V66.2247C195.554 66.1824 195.588 66.1482 195.63 66.1482H216.39V51.0707C216.39 51.0284 216.425 50.9941 216.467 50.9941H244.361C244.403 50.9941 244.438 51.0284 244.438 51.0707V66.6223C244.438 66.6645 244.403 66.6988 244.361 66.6988H223.601V81.7763C223.601 81.8185 223.567 81.8528 223.525 81.8528H200.87V95.036C200.87 95.0783 200.836 95.1126 200.794 95.1126H178.139V108.296C178.139 108.338 178.105 108.372 178.063 108.372ZM150.245 108.219H177.986V95.036C177.986 94.9938 178.02 94.9595 178.063 94.9595H200.717V81.7763C200.717 81.7341 200.751 81.6998 200.794 81.6998H223.448V66.6223C223.448 66.5801 223.482 66.5458 223.525 66.5458H244.285V51.1472H216.543V66.2247C216.543 66.2669 216.509 66.3012 216.467 66.3012H195.707V79.4844C195.707 79.5266 195.673 79.5609 195.63 79.5609H172.976V92.7441C172.976 92.7864 172.942 92.8206 172.899 92.8206H150.245V108.219Z" fill="#D3BBA3"/>
<path d="M165.843 -10.8109C169.882 -10.2193 172.91 -7.05995 173.516 -3.22992C174.712 -3.52181 175.982 -3.59526 177.275 -3.4059C182.657 -2.61767 186.38 2.38383 185.592 7.76522C185.528 8.20256 185.433 8.62758 185.316 9.04151C185.887 9.05238 186.463 9.0992 187.043 9.18413C194.463 10.2709 199.597 17.167 198.51 24.5869C197.627 30.6179 192.905 35.1385 187.184 36.036C187.263 36.8239 187.249 37.6337 187.129 38.4527C186.341 43.8341 181.34 47.5577 175.958 46.7694C175.858 46.7547 175.76 46.7358 175.66 46.7182C174.723 52.5944 169.234 56.6424 163.328 55.7775C160.08 55.3017 157.381 53.4363 155.738 50.8738C154.574 51.3852 153.257 51.5879 151.907 51.3901C149.867 51.0913 148.161 49.9418 147.097 48.3539C145.117 49.4798 142.761 49.9808 140.333 49.625C134.544 48.7771 130.538 43.3967 131.386 37.6075C132 33.416 134.991 30.1611 138.792 29.0047C136.529 26.7197 135.329 23.4363 135.831 20.0093C136.472 15.6358 139.7 12.282 143.736 11.268C141.515 9.01573 140.339 5.78647 140.833 2.41574C141.669 -3.29181 146.974 -7.24105 152.681 -6.40508C153.917 -6.22413 155.069 -5.83323 156.109 -5.27485C157.66 -9.04658 161.625 -11.4288 165.843 -10.8109Z" fill="#FFEDFB"/>
<path d="M130.071 15.7089C132.341 13.4394 132.341 9.75982 130.071 7.49033C127.802 5.22083 124.122 5.22083 121.853 7.49033C119.583 9.75982 119.583 13.4394 121.853 15.7089C124.122 17.9784 127.802 17.9784 130.071 15.7089Z" fill="#FFEDFB"/>
<path d="M115.726 25.5326C117.331 23.9279 117.331 21.326 115.726 19.7213C114.121 18.1165 111.519 18.1165 109.915 19.7213C108.31 21.326 108.31 23.9279 109.915 25.5326C111.519 27.1374 114.121 27.1374 115.726 25.5326Z" fill="#FFEDFB"/>
<path d="M113.194 36.2723C114.37 35.6208 114.795 34.1393 114.144 32.9633C113.492 31.7873 112.011 31.3622 110.835 32.0137C109.659 32.6652 109.234 34.1467 109.885 35.3226C110.537 36.4986 112.018 36.9238 113.194 36.2723Z" fill="#FFEDFB"/>
<path d="M165.075 38.8607C165.807 37.9017 166.285 36.3225 166.285 34.5352C166.285 33.9578 166.235 33.4026 166.143 32.8824C166.981 32.4792 167.509 31.8926 167.509 31.2391C167.509 30.7751 167.242 30.345 166.788 29.99C171.434 27.529 174.811 20.0978 174.811 11.312C174.811 10.9518 174.805 10.5938 174.794 10.2383H152.063C152.052 10.5938 152.046 10.9518 152.046 11.312C152.046 20.0978 155.422 27.529 160.069 29.99C159.615 30.345 159.348 30.7751 159.348 31.2391C159.348 31.8925 159.876 32.4792 160.714 32.8824C160.622 33.4026 160.572 33.9578 160.572 34.5352C160.572 36.3225 161.05 37.9017 161.781 38.8607C158.264 39.1731 155.61 40.465 155.521 42.0236H171.335C171.247 40.465 168.593 39.1731 165.075 38.8607Z" fill="#F5CD1B"/>
<path d="M159.311 26.6377C152.578 26.6377 147.1 21.16 147.1 14.4269V11.3128C147.1 11.2706 147.134 11.2363 147.176 11.2363H159.311C159.353 11.2363 159.387 11.2706 159.387 11.3128V26.5612C159.387 26.6035 159.353 26.6377 159.311 26.6377ZM147.253 11.3894V14.4269C147.253 21.05 152.621 26.4431 159.234 26.4845V11.3894H147.253Z" fill="#F5CD1B"/>
<path d="M167.447 26.6377C167.405 26.6377 167.371 26.6034 167.371 26.5612V11.3128C167.371 11.2706 167.405 11.2363 167.447 11.2363H179.581C179.624 11.2363 179.658 11.2706 179.658 11.3128V14.4269C179.658 21.16 174.18 26.6377 167.447 26.6377ZM167.524 11.3894V26.4845C174.137 26.4431 179.505 21.05 179.505 14.4269V11.3894H167.524Z" fill="#F5CD1B"/>
<path d="M166.859 27.668C166.839 27.668 166.819 27.66 166.804 27.6443C166.775 27.6138 166.776 27.5654 166.806 27.5361C167.895 26.4951 169.929 24.1943 171.327 20.4805C172.544 17.2477 172.576 15.5227 172.623 12.9117C172.627 12.7176 172.63 12.5185 172.635 12.3132C172.636 12.271 172.669 12.2383 172.713 12.2383C172.755 12.2392 172.788 12.2741 172.788 12.3164C172.783 12.5216 172.78 12.7206 172.776 12.9146C172.728 15.5415 172.697 17.277 171.471 20.5345C170.062 24.2767 168.01 26.5968 166.912 27.6468C166.897 27.6609 166.878 27.668 166.859 27.668Z" fill="#F7F1EB"/>
<path d="M159.57 14.6607L159.562 14.6591C158.325 14.4082 157.358 13.4432 157.104 12.207L157.102 12.2151C156.851 13.452 155.886 14.4196 154.65 14.6738L154.658 14.6755C155.895 14.9263 156.862 15.8913 157.117 17.1275L157.118 17.1194C157.369 15.8824 158.334 14.9149 159.57 14.6607Z" fill="#FFEDFB"/>
<path d="M165.911 29.9929H160.894C160.851 29.9929 160.817 29.9586 160.817 29.9164C160.817 29.8741 160.851 29.8398 160.894 29.8398H165.911C165.954 29.8398 165.988 29.8741 165.988 29.9164C165.988 29.9586 165.954 29.9929 165.911 29.9929Z" fill="#F7F1EB"/>
<path d="M165.542 32.946H161.263C161.22 32.946 161.186 32.9117 161.186 32.8695C161.186 32.8272 161.22 32.793 161.263 32.793H165.542C165.585 32.793 165.619 32.8272 165.619 32.8695C165.619 32.9118 165.585 32.946 165.542 32.946Z" fill="#F7F1EB"/>
<path d="M164.435 39.0964H162.247C162.205 39.0964 162.17 39.0621 162.17 39.0199C162.17 38.9776 162.205 38.9434 162.247 38.9434H164.435C164.478 38.9434 164.512 38.9776 164.512 39.0199C164.512 39.0621 164.478 39.0964 164.435 39.0964Z" fill="#F7F1EB"/>
<path d="M102.02 54.2392C105.32 60.4217 117.761 86.2632 126.329 82.1256C132.665 79.0654 129.641 71.4515 118.648 51.2422C114.011 53.2251 106.657 52.2563 102.02 54.2392Z" fill="#FDFFFF"/>
<path d="M152.13 62.819C151.892 62.1566 151.01 61.8257 150.795 61.7832C151.245 61.3182 151.53 60.6788 151.212 59.9178C150.93 59.2422 149.947 59.0249 149.86 59.0105C149.912 58.9396 150.707 58.5099 150.463 57.4595C150.299 56.7496 149.583 56.3705 149.332 56.3076C152.444 54.4399 153.556 53.6671 153.262 52.9501C152.744 51.6914 144.102 55.2783 138.263 58.2627C125.994 64.5336 119.304 68.6911 119.182 68.7523C116.995 69.8421 125.306 77.835 126.264 82.0575C126.531 81.8973 130.087 80.8105 144.827 68.2696C146.365 66.9608 149.899 65.4605 151.124 64.8124C151.792 64.4591 152.439 63.6801 152.13 62.819Z" fill="#FDFFFF"/>
<path d="M141.631 64.9046C141.611 64.9046 141.592 64.8977 141.576 64.8835C141.542 64.8532 141.54 64.8012 141.57 64.7675C142.522 63.7094 142.822 62.5943 143.063 61.6983C143.305 60.7986 143.496 60.088 144.277 60.0076C144.827 59.951 145.436 59.6221 146.087 59.0298C146.281 58.8541 146.281 58.6208 146.217 58.4609C146.153 58.3022 145.994 58.135 145.738 58.135C145.733 58.135 145.728 58.1351 145.723 58.1352L141.462 58.2449C141.417 58.247 141.378 58.2102 141.377 58.1649C141.376 58.1195 141.412 58.0818 141.457 58.0807L145.719 57.971C145.725 57.9708 145.731 57.9707 145.737 57.9707C146.017 57.9707 146.264 58.1375 146.369 58.3997C146.478 58.669 146.412 58.957 146.198 59.1514C145.52 59.7677 144.879 60.1107 144.294 60.1709C143.625 60.2397 143.465 60.837 143.222 61.741C142.976 62.6538 142.67 63.7899 141.692 64.8773C141.676 64.8955 141.653 64.9046 141.631 64.9046Z" fill="#CE51D7"/>
<path d="M148.638 65.2799C148.609 65.2799 148.58 65.2641 148.565 65.2364C148.022 64.2155 148.364 62.9348 149.344 62.321L149.411 62.2791L148.564 62.5858C147.908 62.8235 147.176 62.5585 146.824 61.9558C146.626 61.6165 146.574 61.221 146.679 60.8422C146.783 60.4634 147.031 60.1504 147.375 59.9609L148.177 59.5198C147.653 59.6209 147.104 59.3493 146.881 58.8441C146.639 58.2984 146.846 57.6599 147.361 57.359L148.709 56.5717C148.749 56.5489 148.799 56.5621 148.822 56.6012C148.844 56.6404 148.831 56.6907 148.792 56.7136L147.444 57.5008C147.001 57.7594 146.824 58.3084 147.031 58.7776C147.251 59.2756 147.839 59.5095 148.341 59.2992L149.334 58.8833C149.374 58.8666 149.421 58.8841 149.44 58.9233C149.459 58.9627 149.444 59.01 149.405 59.031L147.454 60.1046C147.149 60.2726 146.93 60.55 146.837 60.8858C146.744 61.2215 146.79 61.572 146.966 61.8728C147.278 62.407 147.927 62.6417 148.508 62.4311L150.081 61.8615C150.12 61.8473 150.164 61.865 150.183 61.9027C150.201 61.9404 150.188 61.986 150.152 62.0083L149.431 62.46C148.523 63.0283 148.207 64.2138 148.71 65.1589C148.732 65.199 148.716 65.2487 148.676 65.27C148.664 65.2768 148.651 65.2799 148.638 65.2799Z" fill="#CE51D7"/>
<path d="M111.155 65.4324C111.155 65.4324 118.777 51.4667 118.648 51.2433C114.394 39.0361 89.7617 45.3583 74.7485 48.0837C74.6319 48.1049 74.5168 48.1268 74.4032 48.1495C68.2323 49.3815 64.9039 56.1404 67.5872 61.8324L71.8861 70.9514L67.8223 94.9423H119.607L111.155 65.4324Z" fill="#CE51D7"/>
<path d="M68.7382 117.572L76.0966 82.7129L80.7589 94.9418H112.498L120.084 117.572H68.7382Z" fill="#F8D9B8"/>
<path d="M76.1078 43.5032C84.2409 45.0341 93.5039 45.8495 102.719 43.5032C102.719 43.5032 101.718 28.3655 91.3224 28.6766C82.655 28.936 77.1866 36.9977 76.1078 43.5032Z" fill="#6D21A5"/>
<path d="M87.3727 30.7282C87.3727 30.7282 91.2019 28.7942 92.8204 27.0202C94.4388 25.2462 97.9253 23.8277 99.9255 26.4901C101.926 29.1524 95.7702 30.8811 95.7702 30.8811L87.3727 30.7282Z" fill="#6D21A5"/>
<path d="M90.2343 30.1014C90.2343 30.1014 90.9933 20.7306 86.1408 23.7374C81.2881 26.7442 87.681 31.5055 90.2343 30.1014Z" fill="#6D21A5"/>
<path d="M87.8326 30.6867C86.5321 30.6867 85.0489 30.201 84.0721 29.3022C82.7644 28.0989 82.799 26.5104 84.167 24.9439C84.9919 23.9994 85.8066 23.6216 86.5879 23.8214C88.8616 24.4026 90.0426 29.6382 90.0917 29.8608C90.0976 29.8878 90.0897 29.9159 90.0704 29.9358C89.5769 30.4449 88.7501 30.6867 87.8326 30.6867ZM86.181 23.9343C85.5738 23.9343 84.9399 24.3088 84.2907 25.0521C82.5093 27.0918 83.4588 28.5147 84.1832 29.1814C84.9202 29.8595 86.055 30.3467 87.2185 30.4844C88.3876 30.623 89.3696 30.3928 89.9211 29.8529C89.8013 29.341 88.618 24.51 86.547 23.9807C86.4263 23.9498 86.3042 23.9343 86.181 23.9343Z" fill="#6D21A5"/>
<path d="M86.8396 48.0359L88.5878 40.4043L93.5038 42.2847L94.0298 48.441L86.8396 48.0359Z" fill="#FDFFFF"/>
<path d="M95.5334 49.5255C95.4169 50.3779 92.969 50.7471 90.066 50.35C87.163 49.953 84.9042 48.9401 85.0208 48.0876C85.1374 47.2352 87.5853 46.8661 90.4882 47.2632C93.3912 47.6602 95.65 48.6731 95.5334 49.5255Z" fill="#FDFFFF"/>
<path d="M96.376 30.7266C96.376 30.7266 98.6217 41.8241 94.1832 43.5838C91.4978 44.6484 87.9924 42.2711 86.9188 40.9772C85.8451 39.6832 85.7007 37.0663 85.7007 37.0663C85.7007 37.0663 86.8936 37.6436 87.4577 36.8413C88.0217 36.039 86.046 32.714 89.3549 31.8445C92.6638 30.9748 93.4475 32.2443 96.376 30.7266Z" fill="#FDFFFF"/>
<path d="M92.8845 44.0995C91.2781 44.0995 89.5089 43.2592 88.4401 42.4021C88.4046 42.3737 88.399 42.322 88.4274 42.2866C88.4558 42.2513 88.5075 42.2455 88.5429 42.2739C89.6227 43.1398 91.4317 43.9896 93.0351 43.9325C93.0802 43.9315 93.1185 43.9664 93.1201 44.0118C93.1217 44.0571 93.0862 44.0952 93.0409 44.0967C92.9889 44.0986 92.9367 44.0995 92.8845 44.0995Z" fill="#CE51D7"/>
<path d="M87.5678 37.6845C88.1163 38.4656 88.3394 40.1296 87.5582 40.6781C86.777 41.2267 85.2875 40.4521 84.739 39.6709C84.1904 38.8898 84.379 37.8118 85.1601 37.2632C85.9412 36.7148 87.0192 36.9033 87.5678 37.6845Z" fill="#FDFFFF"/>
<path d="M90.0788 35.2148C90.0875 35.2362 90.0783 35.2578 90.0869 35.2792C90.0871 35.2801 90.0878 35.2806 90.0882 35.2815C90.1099 35.6043 90.132 35.9448 90.0944 36.266C90.0777 36.4082 90.0108 36.5039 89.9799 36.6362C89.9573 36.7332 89.936 36.8261 89.9098 36.9207C88.983 36.3815 88.4574 35.5141 88.4574 35.5141C88.4574 35.5141 89.1884 35.2166 90.0788 35.2148Z" fill="#FFEDFB"/>
<path d="M91.125 35.3727C92.3206 35.763 93.0585 36.8454 93.1774 37.0298C93.1694 37.0456 93.1611 37.061 93.1527 37.0766C92.9187 37.1653 91.7049 37.5836 90.5286 37.1996C90.3081 37.1277 90.1045 37.0308 89.9161 36.9216C89.8818 36.8405 89.8511 36.7571 89.8285 36.6694C89.6947 36.1505 89.8028 35.627 90.0803 35.2148C90.4138 35.2157 90.7708 35.2571 91.125 35.3727Z" fill="#CE51D7"/>
<path d="M96.4807 35.7972C96.5827 36.1656 96.5915 36.4628 96.4654 36.8066C95.5711 36.981 94.7903 36.8135 94.7903 36.8135C94.7903 36.8135 95.2249 35.6983 96.177 34.9941C96.3394 35.2242 96.4084 35.5357 96.4807 35.7972Z" fill="#FFEDFB"/>
<path d="M96.4841 36.8026C96.0672 36.3095 95.9391 35.6171 96.1783 34.996C96.2857 34.9177 96.398 34.8431 96.5189 34.7771C97.7278 34.1184 99.1674 34.4283 99.1674 34.4283C99.1674 34.4283 98.6473 35.806 97.4386 36.4647C97.1261 36.635 96.7985 36.7396 96.4841 36.8026Z" fill="#CE51D7"/>
<path d="M85.6387 39.5589C85.6127 39.5589 85.587 39.5465 85.571 39.5233C85.5356 39.4721 85.5042 39.4168 85.4775 39.359C85.2584 38.8843 85.4117 38.3452 85.8193 38.1572C85.9207 38.1104 86.03 38.0888 86.1433 38.0921C86.1887 38.0936 86.2242 38.1315 86.2228 38.1768C86.2214 38.2222 86.1813 38.259 86.1382 38.2563C86.0502 38.2533 85.9661 38.2704 85.8881 38.3064C85.5629 38.4565 85.4455 38.8978 85.6265 39.2902C85.6493 39.3395 85.6762 39.3866 85.7062 39.4303C85.7319 39.4676 85.7226 39.5187 85.6852 39.5445C85.6711 39.5542 85.6547 39.5589 85.6387 39.5589Z" fill="#CE51D7"/>
<path d="M94.6649 38.6714C94.6491 38.6714 94.633 38.6668 94.6188 38.6572C94.5813 38.6316 94.5715 38.5805 94.597 38.5431C94.6947 38.3994 94.7334 38.2663 94.7124 38.1473C94.6905 38.0234 94.6084 37.9472 94.4947 37.8418C94.4035 37.7572 94.3002 37.6614 94.2011 37.5167C94.0748 37.3323 93.99 37.1158 93.949 36.8733C93.9415 36.8286 93.9716 36.7861 94.0163 36.7786C94.0613 36.7706 94.1035 36.8012 94.111 36.8459C94.148 37.0648 94.2239 37.2593 94.3366 37.4239C94.4253 37.5534 94.5215 37.6426 94.6064 37.7213C94.7332 37.8389 94.8427 37.9404 94.8741 38.1187C94.9029 38.2813 94.8552 38.4551 94.7328 38.6354C94.7171 38.6588 94.6912 38.6714 94.6649 38.6714Z" fill="#CE51D7"/>
<path d="M93.5704 40.4743C93.5063 40.4743 93.4429 40.4657 93.3804 40.4485C92.9657 40.3341 92.7542 39.8796 92.7453 39.8603C92.7266 39.8191 92.7446 39.7705 92.7859 39.7516C92.8273 39.7328 92.8759 39.7508 92.8947 39.792C92.8965 39.796 93.0844 40.1969 93.4248 40.2903C93.6086 40.3407 93.8089 40.2924 94.0199 40.1467C94.0571 40.121 94.1083 40.1302 94.1343 40.1676C94.16 40.2049 94.1506 40.256 94.1133 40.2818C93.9281 40.41 93.7461 40.4743 93.5704 40.4743Z" fill="#CE51D7"/>
<path d="M68.484 60.692L79.172 81.2122C81.5491 86.3662 86.6145 90.0792 92.2901 90.0792H95.6237L95.4666 74.3348L81.7644 53.7384C79.8557 50.4997 75.8452 49.1729 72.3815 50.6343C68.4737 52.283 66.7076 56.8404 68.484 60.692Z" fill="#FDFFFF"/>
<path d="M89.0277 86.1483L93.4671 53.1418C93.4671 53.1418 93.5083 51.8766 93.2627 50.6103C92.5759 47.0697 91.1886 40.711 92.2708 40.3283C93.7399 39.8089 96.0289 48.0156 96.0289 48.0156C96.0289 48.0156 97.996 45.5281 99.6594 47.5216C99.6594 47.5216 102.32 46.4206 103.077 48.8091C103.077 48.8091 104.187 48.2781 105.335 50.0769C106.484 51.8757 105.539 53.0203 105.539 53.0203L104.595 53.18C104.595 53.18 105.644 57.7 105.456 58.2704C105.269 58.8408 109.642 88.3998 98.3769 89.8403C87.1119 91.281 89.0277 86.1483 89.0277 86.1483Z" fill="#FDFFFF"/>
<path d="M92.6189 47.0168C92.5787 47.0168 92.5435 46.9873 92.5376 46.9464C92.4882 46.6028 92.4361 46.2513 92.3836 45.898C91.884 42.5305 91.6253 40.4701 92.2436 40.2515C92.7728 40.0645 93.4006 40.785 94.1609 42.4557C94.1797 42.4969 94.1615 42.5457 94.1201 42.5645C94.0789 42.5833 94.0302 42.5649 94.0114 42.5237C93.1292 40.5851 92.5931 40.302 92.2983 40.4064C91.763 40.5957 92.1973 43.5223 92.5462 45.874C92.5987 46.2275 92.6508 46.5792 92.7004 46.923C92.7068 46.9679 92.6756 47.0096 92.6307 47.016C92.6266 47.0166 92.6227 47.0168 92.6189 47.0168Z" fill="#CE51D7"/>
<path d="M90.0428 78.6836C90.0392 78.6836 90.0355 78.6833 90.0317 78.6828C89.9868 78.6767 89.9552 78.6354 89.9613 78.5904L91.2304 69.1552C91.2364 69.1102 91.2767 69.0788 91.3228 69.0847C91.3677 69.0908 91.3993 69.1321 91.3932 69.1771L90.1241 78.6124C90.1186 78.6536 90.0833 78.6836 90.0428 78.6836Z" fill="#CE51D7"/>
<path d="M228.216 49.569C227.66 49.569 227.101 49.5474 226.54 49.5038C220.891 49.0648 215.751 46.4515 212.067 42.1453C208.383 37.8392 206.596 32.3555 207.035 26.7046C207.473 21.0537 210.086 15.9119 214.39 12.2265C218.695 8.54111 224.178 6.75333 229.825 7.19213C235.474 7.63108 240.614 10.2444 244.298 14.5506C247.982 18.8568 249.769 24.3404 249.331 29.9914C248.892 35.6423 246.279 40.784 241.975 44.4695C238.098 47.7889 233.265 49.569 228.216 49.569ZM228.149 7.27996C223.136 7.27996 218.339 9.047 214.49 12.3428C210.216 16.0016 207.623 21.1063 207.187 26.7164C206.288 38.2976 214.975 48.4516 226.552 49.3512C227.108 49.3945 227.664 49.4159 228.216 49.4159C233.229 49.4161 238.026 47.6489 241.875 44.3532C246.149 40.6944 248.742 35.5896 249.178 29.9794C250.077 18.3982 241.39 8.24432 229.813 7.34469C229.257 7.30146 228.701 7.27996 228.149 7.27996Z" fill="#6D21A5"/>
<path d="M229.402 12.6457C220.733 11.9721 213.16 18.456 212.487 27.1278C211.813 35.7997 218.295 43.3757 226.963 44.0494C235.632 44.723 243.205 38.2392 243.878 29.5672C244.552 20.8955 238.07 13.3194 229.402 12.6457ZM227.451 37.7687C222.25 37.3645 218.361 32.8189 218.765 27.6157C219.169 22.4126 223.713 18.5223 228.914 18.9264C234.115 19.3307 238.004 23.8762 237.6 29.0793C237.196 34.2824 232.652 38.1729 227.451 37.7687Z" fill="#EDBAB0"/>
<path d="M232.418 28.3651C232.427 26.0271 230.54 24.1242 228.203 24.1149C225.866 24.1055 223.964 25.9932 223.955 28.3312C223.945 30.6692 225.832 32.572 228.169 32.5814C230.506 32.5907 232.408 30.703 232.418 28.3651Z" fill="#FAE99C"/>
<path d="M217.27 32.6277L201.4 40.2422L202.3 42.1189L218.17 34.5043L217.27 32.6277Z" fill="#FAE99C"/>
<path d="M219.618 33.3756L229.163 28.082L219.061 32.2141L219.618 33.3756Z" fill="#EDBAB0"/>
<path d="M195.191 44.4209L201.168 41.5532L198.152 39.5449L192.174 42.4127L195.191 44.4209Z" fill="#FAE99C"/>
<path d="M195.454 44.9673L201.431 42.0996L201.112 45.7084L195.134 48.5762L195.454 44.9673Z" fill="#FAE99C"/>
<path d="M218.693 31.4623L217.882 31.8516L219.164 34.5249L219.976 34.1357L218.693 31.4623Z" fill="#FAE99C"/>
<path d="M217.889 31.8431L217.078 32.2324L218.361 34.9058L219.172 34.5165L217.889 31.8431Z" fill="#FFEDFB"/>
<path d="M232.967 93.3791C232.96 93.3791 232.953 93.3791 232.945 93.379L227.253 93.3347C226.508 93.3289 225.81 93.0332 225.287 92.5022C224.764 91.9711 224.48 91.2682 224.486 90.5229L224.506 88.0067C224.519 86.4757 225.768 85.2383 227.296 85.2383C227.304 85.2383 227.311 85.2383 227.318 85.2384L233.011 85.2827C233.756 85.2885 234.454 85.5841 234.977 86.1152C235.499 86.6463 235.784 87.3492 235.778 88.0945L235.757 90.6106C235.745 92.1416 234.495 93.3791 232.967 93.3791ZM232.946 93.226C232.953 93.226 232.96 93.226 232.967 93.226C234.412 93.226 235.593 92.0566 235.604 90.6094L235.625 88.0933C235.63 87.3889 235.361 86.7245 234.868 86.2225C234.374 85.7206 233.714 85.4412 233.009 85.4357L227.317 85.3914C227.31 85.3913 227.303 85.3913 227.296 85.3913C225.852 85.3913 224.671 86.5607 224.659 88.0079L224.639 90.5241C224.633 91.2285 224.902 91.8928 225.396 92.3948C225.89 92.8967 226.55 93.1762 227.254 93.1817L232.946 93.226Z" fill="#621DA3"/>
<path d="M213.667 90.5611L213.482 114.375L246.814 114.635L247 90.8211L213.667 90.5611Z" fill="#621DA3"/>
<path d="M230.161 104.192C230.145 104.192 230.128 104.187 230.114 104.176L215.555 92.8048C215.521 92.7788 215.515 92.7308 215.541 92.6974C215.567 92.6641 215.615 92.6581 215.649 92.6843L230.162 104.019L244.702 92.9007C244.736 92.8752 244.784 92.8815 244.81 92.915C244.835 92.9485 244.829 92.9966 244.795 93.0223L230.208 104.177C230.194 104.187 230.178 104.192 230.161 104.192Z" fill="#F7F1EB"/>
<path d="M227.892 102.59L227.872 105.068L232.57 105.105L232.589 102.626L227.892 102.59Z" fill="#F7F1EB"/>
</g>
<defs>
<clipPath id="clip0_535_9135">
<rect y="0.667969" width="310" height="103.333" rx="6.2" fill="white"/>
</clipPath>
</defs>
</svg>
