<svg width="240" height="331" viewBox="0 0 240 331" fill="none" xmlns="http://www.w3.org/2000/svg">
<g filter="url(#filter0_d_569_4157)">
<rect x="5.18457" y="2.31445" width="230" height="321.37" rx="18.9041" fill="#FFF5F3"/>
<path d="M59.2907 63.918V63.8171C59.5932 63.8171 62.4162 63.3634 62.4162 58.2719V30.2434C62.4162 25.1519 59.5932 24.6982 59.2907 24.6982V24.5974H73.7083V24.6982C73.4058 24.6982 70.5828 25.1519 70.5828 30.2434V58.2719C70.5828 63.3634 73.4058 63.8171 73.7083 63.8171V63.918H59.2907ZM78.9144 63.918V63.8171C79.2169 63.8171 82.0399 63.3634 82.0399 58.2719V30.2434C82.0399 25.1519 79.2169 24.6982 78.9144 24.6982V24.5974H88.2908L110.068 51.0632V30.2434C110.068 25.1519 107.245 24.6982 106.943 24.6982V24.5974H114.605V24.6982C114.303 24.6982 111.48 25.1519 111.48 30.2434V64.2204L83.4514 30.2434V58.2719C83.4514 63.3634 86.2744 63.8171 86.5769 63.8171V63.918H78.9144ZM146.92 24.5974V32.5623H146.819C146.819 31.9574 146.264 25.9081 140.568 25.9081H130.889V44.6106H140.064C144.5 44.6106 144.954 40.1744 144.954 39.7207H145.004V50.8111H144.954C144.954 50.3574 144.5 45.9212 140.064 45.9212H130.889V58.2719C130.889 63.3634 133.712 63.8171 134.014 63.8171V63.918H119.597V63.8171C119.899 63.8171 122.722 63.3634 122.722 58.2719V30.2434C122.722 25.1519 119.899 24.6982 119.597 24.6982V24.5974H146.92ZM152.728 63.918V63.8171C153.031 63.8171 155.854 63.3634 155.854 58.2719V30.2434C155.854 25.1519 153.031 24.6982 152.728 24.6982V24.5974H167.196C172.741 24.5974 176.774 25.6056 179.295 27.8741C181.261 29.6385 182.269 32.3103 182.269 35.8895C182.269 40.5777 180.202 44.0056 176.875 46.2237C173.951 48.1897 170.019 49.1476 165.684 49.1476H164.02V58.2719C164.02 63.3634 166.843 63.8171 167.146 63.8171V63.918H152.728ZM164.02 47.8369H165.18C167.549 47.8369 169.515 47.0807 170.927 45.6692C172.943 43.7032 174.002 40.4265 174.002 36.1415C174.002 32.3103 173.246 29.6889 171.784 28.0254C170.473 26.5634 168.557 25.9081 166.188 25.9081H164.02V47.8369Z" fill="#821FBE"/>
<path d="M42.6257 93.6445V93.613C42.7202 93.613 43.6024 93.4712 43.6024 91.8801V83.1212C43.6024 81.5301 42.7202 81.3884 42.6257 81.3884V81.3569H45.5558L52.3613 89.6274V83.1212C52.3613 81.5301 51.4791 81.3884 51.3846 81.3884V81.3569H53.7791V81.3884C53.6846 81.3884 52.8024 81.5301 52.8024 83.1212V93.7391L44.0435 83.1212V91.8801C44.0435 93.4712 44.9257 93.613 45.0202 93.613V93.6445H42.6257ZM58.4286 96.6849C59.2635 96.6849 59.7991 96.3541 60.1457 95.8815C60.6813 95.1411 60.7758 94.0541 60.7758 93.2664V92.3843C60.2875 93.2822 59.295 93.8336 58.2238 93.8336C55.7977 93.8336 54.2854 91.9747 54.2854 89.3596C54.2854 86.4295 55.7977 84.2555 58.4758 84.2555C59.7361 84.2555 60.3662 84.7753 60.7758 85.3425V84.413H64.2731V84.4445C64.1786 84.4445 63.2964 84.5863 63.2964 86.1774V93.0144C63.2964 94.3534 62.7923 95.2829 62.0834 95.913C61.1224 96.7795 59.7676 97.063 58.8067 97.063C57.2313 97.063 56.2073 96.5117 55.6245 96.5117V94.0856H55.6717C55.8135 94.9048 56.1916 95.4877 56.6327 95.8973C57.2628 96.4801 58.019 96.6849 58.4286 96.6849ZM56.7902 89.2021C56.7902 91.376 57.5621 93.1404 58.9327 93.1404C59.7361 93.1404 60.319 92.6678 60.7758 91.5808V86.1774C60.3662 85.311 59.7834 85.1062 59.3265 85.1062C57.8772 85.1062 56.7902 86.713 56.7902 89.2021ZM68.7223 93.8021C67.9347 93.8021 67.2258 93.5658 66.7059 93.1089C66.2018 92.6521 65.8867 91.9747 65.8867 91.0767V86.1774C65.8867 84.5863 65.0045 84.4445 64.91 84.4445V84.413H68.4073V90.8719C68.4073 91.2658 68.4388 91.7856 68.6436 92.211C68.8484 92.6206 69.2107 92.9199 69.7621 92.9199C70.8806 92.9199 71.684 91.8014 71.684 90.2575V86.1774C71.684 84.5863 70.8018 84.4445 70.7073 84.4445V84.413H74.2045V85.0432C74.4566 84.8384 74.5353 84.6178 74.5511 84.413C74.5511 84.2397 74.4881 83.8301 73.858 83.6726V83.6569L75.1655 82.7432C75.3545 82.8849 75.6223 83.3733 75.5908 83.7986C75.5436 84.5548 74.7401 85.0589 74.2045 85.2952V91.8801C74.2045 93.4712 75.0867 93.613 75.1812 93.613V93.6445H71.684V92.0062C71.3059 92.8884 70.4552 93.8021 68.7223 93.8021ZM81.0379 93.8336C77.9818 93.8336 76.4695 91.6596 76.4695 89.0445C76.4695 86.4295 77.9818 84.2555 81.0379 84.2555C82.2037 84.2555 83.1489 84.5706 83.8736 85.1062C83.9838 84.9486 84.0153 84.7753 83.9996 84.6336C83.9838 84.4603 83.8893 84.0664 83.2434 83.9562V83.9404L84.4722 82.9164C84.677 83.0425 84.9763 83.5151 84.9921 83.9404C85.0078 84.5233 84.551 84.9959 84.1099 85.311C85.1023 86.1932 85.6064 87.548 85.6064 89.0445C85.6064 91.6596 84.0941 93.8336 81.0379 93.8336ZM79.053 89.0445C79.053 91.376 79.5886 93.4555 81.0379 93.4555C82.4873 93.4555 83.0386 91.376 83.0386 89.0445C83.0386 86.713 82.4873 84.6336 81.0379 84.6336C79.5886 84.6336 79.053 86.713 79.053 89.0445ZM79.3681 82.4596V82.4123L80.203 81.2466H80.2503C80.8962 82.1445 82.0462 83.3733 82.8023 83.6726L82.7551 83.7199C81.8256 83.5938 80.1715 83.074 79.3681 82.4596ZM87.5258 86.1774C87.5258 84.5863 86.6436 84.4445 86.5491 84.4445V84.413H90.0463V91.8801C90.0463 93.4712 90.9285 93.613 91.023 93.613V93.6445H86.5491V93.613C86.6436 93.613 87.5258 93.4712 87.5258 91.8801V86.1774ZM87.3682 82.176C87.3682 81.4356 87.9826 80.8212 88.723 80.8212C89.4634 80.8212 90.0778 81.4356 90.0778 82.176C90.0778 82.9164 89.4634 83.5308 88.723 83.5308C87.9826 83.5308 87.3682 82.9164 87.3682 82.176ZM95.6213 93.6445V93.613C95.7158 93.613 96.598 93.4712 96.598 91.8801V82.8062C96.598 81.2151 95.7158 81.0733 95.6213 81.0733V81.0418H99.1186V91.8801C99.1186 93.4712 100.001 93.613 100.095 93.613V93.6445H95.6213ZM107.64 86.1459C108.318 84.6966 107.546 84.4445 107.514 84.4445V84.413H109.877V84.4445C109.72 84.4445 108.727 84.6966 108.066 86.1459L104.237 94.574C103.749 95.6295 103.15 96.8897 102.032 96.8897C101.654 96.8897 101.465 96.8425 101.37 96.8267V95.0938H101.418C101.607 95.2829 101.843 95.3617 102.158 95.3617C102.851 95.3617 103.655 95.0151 104.111 93.9123L104.348 93.3452L101.213 86.2562C100.52 84.7123 99.5429 84.4445 99.4012 84.4445V84.413H103.907V84.4445C103.891 84.4445 103.135 84.6966 103.781 86.1459L105.671 90.4466L107.64 86.1459ZM103.97 83.6726C104.726 83.3733 105.876 82.1445 106.522 81.2466H106.569L107.404 82.4123V82.4596C106.6 83.074 104.946 83.5938 104.017 83.7199L103.97 83.6726ZM116.588 91.2185C116.588 92.148 116.714 92.9829 117.643 92.9829C118.336 92.9829 118.982 92.5575 119.297 92.2425H119.345C119.234 92.6048 118.084 93.7548 116.477 93.7548C115.107 93.7548 114.067 93.361 114.067 91.5021V84.7911H113.279V84.413H114.067V81.987H116.588V84.413H119.203V84.7911H116.588V91.2185ZM123.352 93.8021C122.564 93.8021 121.855 93.5658 121.335 93.1089C120.831 92.6521 120.516 91.9747 120.516 91.0767V86.1774C120.516 84.5863 119.634 84.4445 119.539 84.4445V84.413H123.037V90.8719C123.037 91.2658 123.068 91.7856 123.273 92.211C123.478 92.6206 123.84 92.9199 124.391 92.9199C125.51 92.9199 126.313 91.8014 126.313 90.2575V86.1774C126.313 84.5863 125.431 84.4445 125.337 84.4445V84.413H128.834V85.0432C129.086 84.8384 129.165 84.6178 129.18 84.413C129.18 84.2397 129.117 83.8301 128.487 83.6726V83.6569L129.795 82.7432C129.984 82.8849 130.252 83.3733 130.22 83.7986C130.173 84.5548 129.369 85.0589 128.834 85.2952V91.8801C128.834 93.4712 129.716 93.613 129.811 93.613V93.6445H126.313V92.0062C125.935 92.8884 125.085 93.8021 123.352 93.8021ZM135.667 93.8336C132.611 93.8336 131.099 91.6596 131.099 89.0445C131.099 86.4295 132.611 84.2555 135.667 84.2555C136.833 84.2555 137.778 84.5706 138.503 85.1062C138.613 84.9486 138.645 84.7753 138.629 84.6336C138.613 84.4603 138.519 84.0664 137.873 83.9562V83.9404L139.102 82.9164C139.306 83.0425 139.606 83.5151 139.621 83.9404C139.637 84.5233 139.18 84.9959 138.739 85.311C139.732 86.1932 140.236 87.548 140.236 89.0445C140.236 91.6596 138.723 93.8336 135.667 93.8336ZM133.682 89.0445C133.682 91.376 134.218 93.4555 135.667 93.4555C137.117 93.4555 137.668 91.376 137.668 89.0445C137.668 86.713 137.117 84.6336 135.667 84.6336C134.218 84.6336 133.682 86.713 133.682 89.0445ZM134.297 80.8212C134.628 80.6164 135.1 80.4274 135.667 80.4274C136.266 80.4274 137.006 80.6637 137.006 81.3884C137.006 82.4281 135.352 82.4438 135.352 83.4206C135.321 83.4206 135.258 83.389 135.258 83.3103C135.258 82.113 135.793 82.0815 135.793 81.3411C135.793 80.9945 135.62 80.8685 135.431 80.8685C134.911 80.8685 134.612 81.5774 134.612 82.3651H134.517L134.297 80.8212ZM142.155 86.1774C142.155 84.5863 141.273 84.4445 141.178 84.4445V84.413H144.676V86.0514C145.054 85.1692 145.904 84.2555 147.637 84.2555C148.425 84.2555 149.134 84.4918 149.654 84.9486C150.158 85.4055 150.473 86.0829 150.473 86.9808V91.8801C150.473 93.4712 151.355 93.613 151.45 93.613V93.6445H146.976V93.613C147.07 93.613 147.952 93.4712 147.952 91.8801V87.1856C147.952 86.7918 147.921 86.2719 147.716 85.8466C147.511 85.437 147.149 85.1377 146.598 85.1377C145.479 85.1377 144.676 86.2562 144.676 87.8V91.8801C144.676 93.4712 145.558 93.613 145.652 93.613V93.6445H141.178V93.613C141.273 93.613 142.155 93.4712 142.155 91.8801V86.1774ZM156.349 96.6849C157.184 96.6849 157.72 96.3541 158.066 95.8815C158.602 95.1411 158.696 94.0541 158.696 93.2664V92.3843C158.208 93.2822 157.216 93.8336 156.144 93.8336C153.718 93.8336 152.206 91.9747 152.206 89.3596C152.206 86.4295 153.718 84.2555 156.396 84.2555C157.657 84.2555 158.287 84.7753 158.696 85.3425V84.413H162.194V84.4445C162.099 84.4445 161.217 84.5863 161.217 86.1774V93.0144C161.217 94.3534 160.713 95.2829 160.004 95.913C159.043 96.7795 157.688 97.063 156.727 97.063C155.152 97.063 154.128 96.5117 153.545 96.5117V94.0856H153.592C153.734 94.9048 154.112 95.4877 154.553 95.8973C155.183 96.4801 155.939 96.6849 156.349 96.6849ZM154.711 89.2021C154.711 91.376 155.483 93.1404 156.853 93.1404C157.657 93.1404 158.239 92.6678 158.696 91.5808V86.1774C158.287 85.311 157.704 85.1062 157.247 85.1062C155.798 85.1062 154.711 86.713 154.711 89.2021ZM167.781 82.8062C167.781 81.2151 166.899 81.0733 166.804 81.0733V81.0418H170.301V86.0514C170.679 85.1692 171.53 84.2555 173.263 84.2555C174.051 84.2555 174.76 84.4918 175.279 84.9486C175.784 85.4055 176.099 86.0829 176.099 86.9808V91.8801C176.099 93.4712 176.981 93.613 177.075 93.613V93.6445H172.601V93.613C172.696 93.613 173.578 93.4712 173.578 91.8801V87.1856C173.578 86.7918 173.547 86.2719 173.342 85.8466C173.137 85.437 172.775 85.1377 172.223 85.1377C171.105 85.1377 170.301 86.2562 170.301 87.8V91.8801C170.301 93.4712 171.184 93.613 171.278 93.613V93.6445H166.804V93.613C166.899 93.613 167.781 93.4712 167.781 91.8801V82.8062ZM182.405 93.8336C179.348 93.8336 177.836 91.6596 177.836 89.0445C177.836 86.4295 179.348 84.2555 182.405 84.2555C185.461 84.2555 186.973 86.4295 186.973 89.0445C186.973 91.6596 185.461 93.8336 182.405 93.8336ZM180.42 89.0445C180.42 91.376 180.955 93.4555 182.405 93.4555C183.854 93.4555 184.405 91.376 184.405 89.0445C184.405 86.713 183.854 84.6336 182.405 84.6336C180.955 84.6336 180.42 86.713 180.42 89.0445ZM191.32 84.9171C189.555 84.9171 188.453 86.3822 188.311 87.2959H188.264C188.405 85.6418 189.744 84.2555 192.218 84.2555C193.068 84.2555 194.281 84.3815 195.101 85.0747C195.605 85.5158 195.951 86.1774 195.951 87.1856V91.8801C195.951 93.4712 196.834 93.613 196.928 93.613V93.6445H193.431V92.211C192.99 92.9514 192.06 93.7391 190.39 93.7391C188.878 93.7391 187.728 93.0144 187.728 91.4706C187.728 89.4226 189.744 88.0521 193.431 87.9575V87.2486C193.431 86.3507 193.21 85.7521 192.816 85.3897C192.454 85.0589 191.934 84.9171 191.32 84.9171ZM190.249 91.4706C190.249 92.2267 190.674 92.9986 191.54 92.9986C192.596 92.9986 193.336 91.9274 193.431 91.6123V88.3356C191.005 88.3671 190.249 90.3206 190.249 91.4706ZM190.469 83.6726C191.225 83.3733 192.375 82.1445 193.021 81.2466H193.068L193.903 82.4123V82.4596C193.1 83.074 191.446 83.5938 190.516 83.7199L190.469 83.6726Z" fill="#821FBE"/>
<g clip-path="url(#clip0_569_4157)">
<path d="M120.184 308.72C174.997 308.72 219.431 264.286 219.431 209.473C219.431 154.661 174.997 110.227 120.184 110.227C65.3717 110.227 20.9375 154.661 20.9375 209.473C20.9375 264.286 65.3717 308.72 120.184 308.72Z" fill="#E064D9"/>
<path d="M112.122 281.113V262.316H144.346V243.518H173.885V222.035H213.429V244.082H183.89V265.565H151.666V284.362H119.441V303.16H79.8975V281.113H112.122Z" fill="#FFEDFB"/>
<path d="M113.824 297.013H74.2803C74.2204 297.013 74.1719 296.965 74.1719 296.905V274.858C74.1719 274.798 74.2204 274.75 74.2803 274.75H106.396V256.061C106.396 256.001 106.445 255.952 106.505 255.952H138.621V237.263C138.621 237.203 138.669 237.155 138.729 237.155H168.16V215.78C168.16 215.72 168.208 215.672 168.268 215.672H207.812C207.872 215.672 207.92 215.72 207.92 215.78V237.827C207.92 237.887 207.872 237.935 207.812 237.935H178.381V259.31C178.381 259.37 178.333 259.418 178.273 259.418H146.157V278.107C146.157 278.167 146.109 278.216 146.049 278.216H113.933V296.905C113.933 296.965 113.884 297.013 113.824 297.013ZM74.3888 296.797H113.716V278.107C113.716 278.048 113.764 277.999 113.824 277.999H145.94V259.31C145.94 259.25 145.989 259.201 146.049 259.201H178.165V237.827C178.165 237.767 178.213 237.719 178.273 237.719H207.703V215.889H168.376V237.263C168.376 237.323 168.328 237.372 168.268 237.372H138.838V256.061C138.838 256.121 138.789 256.169 138.729 256.169H106.613V274.858C106.613 274.918 106.565 274.967 106.505 274.967H74.3888V296.797Z" fill="#D3BBA3"/>
<path d="M124.203 112.995C129.928 113.834 134.221 118.313 135.08 123.742C136.776 123.329 138.576 123.225 140.409 123.493C148.038 124.61 153.317 131.701 152.199 139.33C152.109 139.95 151.974 140.552 151.808 141.139C152.617 141.154 153.434 141.221 154.256 141.341C164.775 142.882 172.053 152.658 170.513 163.177C169.26 171.726 162.567 178.135 154.457 179.407C154.569 180.524 154.549 181.672 154.379 182.833C153.261 190.462 146.171 195.741 138.542 194.624C138.4 194.603 138.26 194.576 138.12 194.551C136.791 202.881 129.009 208.62 120.638 207.394C116.033 206.719 112.206 204.075 109.877 200.442C108.227 201.167 106.361 201.454 104.446 201.174C101.553 200.75 99.1359 199.121 97.627 196.87C94.8197 198.466 91.4811 199.176 88.0383 198.672C79.8314 197.47 74.1528 189.842 75.3549 181.635C76.2252 175.693 80.4649 171.079 85.8531 169.44C82.6452 166.2 80.945 161.546 81.6567 156.687C82.5647 150.487 87.1407 145.733 92.8624 144.295C89.7144 141.102 88.0473 136.524 88.7472 131.746C89.9323 123.655 97.4525 118.056 105.544 119.241C107.295 119.498 108.929 120.052 110.403 120.843C112.603 115.497 118.223 112.119 124.203 112.995Z" fill="#FFEDFB"/>
<path d="M73.4911 150.589C76.7084 147.372 76.7084 142.156 73.4911 138.938C70.2738 135.721 65.0575 135.721 61.8401 138.938C58.6228 142.156 58.6228 147.372 61.8401 150.589C65.0575 153.806 70.2738 153.806 73.4911 150.589Z" fill="#FFEDFB"/>
<path d="M53.1545 164.518C55.4295 162.243 55.4295 158.554 53.1545 156.279C50.8795 154.004 47.1911 154.004 44.9161 156.279C42.6411 158.554 42.6411 162.243 44.9161 164.518C47.1911 166.793 50.8795 166.793 53.1545 164.518Z" fill="#FFEDFB"/>
<path d="M49.5654 179.742C51.2325 178.818 51.8352 176.718 50.9116 175.051C49.988 173.384 47.8878 172.781 46.2207 173.705C44.5536 174.628 43.9509 176.728 44.8745 178.396C45.7981 180.063 47.8983 180.665 49.5654 179.742Z" fill="#FFEDFB"/>
<path d="M123.114 183.414C124.151 182.055 124.829 179.816 124.829 177.282C124.829 176.464 124.757 175.677 124.627 174.939C125.815 174.368 126.564 173.536 126.564 172.609C126.564 171.952 126.186 171.342 125.542 170.839C132.129 167.35 136.916 156.815 136.916 144.36C136.916 143.849 136.907 143.342 136.891 142.838H104.667C104.651 143.342 104.643 143.849 104.643 144.36C104.643 156.815 109.429 167.35 116.016 170.839C115.372 171.342 114.994 171.952 114.994 172.609C114.994 173.536 115.743 174.368 116.931 174.939C116.801 175.677 116.729 176.464 116.729 177.282C116.729 179.816 117.407 182.055 118.444 183.414C113.458 183.857 109.696 185.689 109.57 187.898H131.988C131.862 185.689 128.101 183.857 123.114 183.414Z" fill="#F5CD1B"/>
<path d="M114.941 166.086C105.396 166.086 97.6309 158.32 97.6309 148.775V144.36C97.6309 144.301 97.6793 144.252 97.7393 144.252H114.941C115.001 144.252 115.05 144.301 115.05 144.36V165.977C115.05 166.037 115.001 166.086 114.941 166.086ZM97.8478 144.469V148.775C97.8478 158.164 105.457 165.81 114.833 165.868V144.469H97.8478Z" fill="#F5CD1B"/>
<path d="M126.477 166.086C126.417 166.086 126.368 166.037 126.368 165.977V144.36C126.368 144.301 126.417 144.252 126.477 144.252H143.679C143.739 144.252 143.787 144.301 143.787 144.36V148.775C143.787 158.32 136.022 166.086 126.477 166.086ZM126.585 144.469V165.868C135.961 165.81 143.57 158.164 143.57 148.775V144.469H126.585Z" fill="#F5CD1B"/>
<path d="M125.643 167.548C125.614 167.548 125.586 167.536 125.564 167.514C125.523 167.471 125.524 167.402 125.568 167.361C127.111 165.885 129.995 162.623 131.977 157.358C133.702 152.775 133.747 150.33 133.814 146.628C133.819 146.353 133.824 146.071 133.83 145.78C133.832 145.72 133.879 145.674 133.941 145.674C134.001 145.675 134.048 145.725 134.047 145.785C134.041 146.075 134.036 146.358 134.031 146.633C133.963 150.357 133.919 152.817 132.18 157.435C130.183 162.74 127.274 166.029 125.718 167.518C125.697 167.538 125.67 167.548 125.643 167.548Z" fill="#F7F1EB"/>
<path d="M115.309 149.107L115.298 149.105C113.545 148.749 112.173 147.381 111.812 145.629L111.81 145.64C111.454 147.394 110.086 148.766 108.334 149.126L108.345 149.128C110.099 149.484 111.471 150.852 111.831 152.604L111.833 152.593C112.189 150.839 113.557 149.468 115.309 149.107Z" fill="#FFEDFB"/>
<path d="M124.299 170.844H117.186C117.126 170.844 117.077 170.795 117.077 170.735C117.077 170.676 117.126 170.627 117.186 170.627H124.299C124.359 170.627 124.408 170.676 124.408 170.735C124.408 170.795 124.359 170.844 124.299 170.844Z" fill="#F7F1EB"/>
<path d="M123.776 175.027H117.709C117.649 175.027 117.601 174.979 117.601 174.919C117.601 174.859 117.649 174.811 117.709 174.811H123.776C123.836 174.811 123.885 174.859 123.885 174.919C123.885 174.979 123.836 175.027 123.776 175.027Z" fill="#F7F1EB"/>
<path d="M122.206 183.748H119.104C119.044 183.748 118.995 183.7 118.995 183.64C118.995 183.58 119.044 183.531 119.104 183.531H122.206C122.266 183.531 122.315 183.58 122.315 183.64C122.315 183.7 122.266 183.748 122.206 183.748Z" fill="#F7F1EB"/>
<path d="M79.0625 223.034C83.4197 231.197 99.8476 265.319 111.161 259.856C119.528 255.815 115.535 245.761 101.02 219.076C94.896 221.694 85.186 220.415 79.0625 223.034Z" fill="#FDFFFF"/>
<path d="M145.23 234.361C144.916 233.486 143.751 233.05 143.467 232.993C144.062 232.379 144.438 231.535 144.019 230.53C143.646 229.638 142.348 229.351 142.233 229.332C142.301 229.239 143.351 228.671 143.029 227.284C142.812 226.347 141.868 225.846 141.535 225.763C145.644 223.297 147.114 222.277 146.724 221.33C146.041 219.668 134.63 224.404 126.919 228.345C110.719 236.625 101.885 242.115 101.724 242.196C98.8369 243.635 109.811 254.189 111.076 259.764C111.429 259.553 116.124 258.118 135.587 241.558C137.619 239.83 142.284 237.849 143.902 236.993C144.784 236.527 145.639 235.498 145.23 234.361Z" fill="#FDFFFF"/>
<path d="M131.367 237.117C131.341 237.117 131.315 237.108 131.295 237.089C131.25 237.049 131.246 236.98 131.287 236.936C132.544 235.539 132.94 234.066 133.258 232.883C133.578 231.695 133.83 230.757 134.862 230.65C135.587 230.576 136.391 230.141 137.252 229.359C137.507 229.127 137.507 228.819 137.423 228.608C137.339 228.399 137.129 228.178 136.791 228.178C136.784 228.178 136.777 228.178 136.77 228.178L131.143 228.323C131.085 228.326 131.034 228.277 131.032 228.217C131.031 228.157 131.078 228.108 131.138 228.106L136.765 227.961C136.773 227.961 136.781 227.961 136.789 227.961C137.159 227.961 137.485 228.181 137.624 228.527C137.767 228.883 137.68 229.263 137.398 229.52C136.502 230.334 135.656 230.787 134.884 230.866C134.001 230.957 133.789 231.746 133.467 232.939C133.143 234.145 132.74 235.645 131.448 237.081C131.426 237.105 131.397 237.117 131.367 237.117Z" fill="#CE51D7"/>
<path d="M140.62 237.611C140.581 237.611 140.543 237.59 140.524 237.554C139.806 236.206 140.257 234.515 141.552 233.704L141.64 233.649L140.522 234.054C139.656 234.367 138.689 234.018 138.224 233.222C137.963 232.774 137.895 232.251 138.033 231.751C138.171 231.251 138.497 230.838 138.952 230.588L140.011 230.005C139.319 230.139 138.594 229.78 138.299 229.113C137.981 228.392 138.254 227.549 138.934 227.152L140.714 226.112C140.766 226.082 140.832 226.1 140.862 226.151C140.892 226.203 140.875 226.269 140.823 226.3L139.043 227.339C138.458 227.681 138.224 228.406 138.498 229.025C138.789 229.683 139.565 229.992 140.228 229.714L141.539 229.165C141.592 229.143 141.653 229.166 141.678 229.218C141.703 229.27 141.684 229.332 141.633 229.36L139.057 230.777C138.654 230.999 138.365 231.366 138.242 231.809C138.119 232.252 138.18 232.715 138.412 233.112C138.824 233.818 139.68 234.128 140.448 233.849L142.525 233.097C142.577 233.078 142.635 233.102 142.659 233.152C142.684 233.201 142.666 233.262 142.619 233.291L141.667 233.888C140.469 234.638 140.051 236.203 140.715 237.451C140.743 237.504 140.723 237.57 140.67 237.598C140.654 237.607 140.637 237.611 140.62 237.611Z" fill="#CE51D7"/>
<path d="M91.1246 237.813C91.1246 237.813 101.189 219.372 101.019 219.077C95.4008 202.958 62.8757 211.306 43.0518 214.905C42.8978 214.933 42.7458 214.962 42.5959 214.992C34.4475 216.618 30.0525 225.543 33.5957 233.059L39.2722 245.1L33.9061 276.779H102.284L91.1246 237.813Z" fill="#CE51D7"/>
<path d="M35.1152 306.661L44.8316 260.631L50.9879 276.778H92.8972L102.915 306.661H35.1152Z" fill="#F8D9B8"/>
<path d="M44.8467 208.857C55.5859 210.879 67.8171 211.955 79.9852 208.857C79.9852 208.857 78.6633 188.869 64.9366 189.28C53.4919 189.622 46.2712 200.267 44.8467 208.857Z" fill="#6D21A5"/>
<path d="M59.7207 191.988C59.7207 191.988 64.777 189.435 66.9141 187.092C69.0511 184.75 73.6548 182.877 76.2959 186.392C78.9369 189.908 70.8091 192.19 70.8091 192.19L59.7207 191.988Z" fill="#6D21A5"/>
<path d="M63.4988 191.159C63.4988 191.159 64.5011 178.786 58.0936 182.756C51.6859 186.726 60.1274 193.013 63.4988 191.159Z" fill="#6D21A5"/>
<path d="M60.3282 191.935C58.6108 191.935 56.6524 191.293 55.3626 190.106C53.6359 188.517 53.6816 186.42 55.488 184.352C56.5772 183.104 57.653 182.605 58.6846 182.869C61.6868 183.637 63.2462 190.55 63.3111 190.844C63.3189 190.88 63.3085 190.917 63.283 190.943C62.6313 191.615 61.5396 191.935 60.3282 191.935ZM58.1472 183.018C57.3456 183.018 56.5084 183.513 55.6512 184.494C53.299 187.188 54.5528 189.066 55.5093 189.947C56.4825 190.842 57.9809 191.485 59.5173 191.667C61.061 191.85 62.3576 191.546 63.0858 190.833C62.9277 190.158 61.3652 183.779 58.6306 183.08C58.4712 183.039 58.3099 183.018 58.1472 183.018Z" fill="#6D21A5"/>
<path d="M59.0176 214.843L61.326 204.766L67.8172 207.249L68.5119 215.378L59.0176 214.843Z" fill="#FDFFFF"/>
<path d="M70.4973 216.809C70.3434 217.935 67.1111 218.422 63.2779 217.898C59.4447 217.374 56.4621 216.036 56.6161 214.911C56.77 213.785 60.0023 213.298 63.8355 213.822C67.6687 214.346 70.6513 215.684 70.4973 216.809Z" fill="#FDFFFF"/>
<path d="M71.6088 191.986C71.6088 191.986 74.5741 206.64 68.7134 208.963C65.1675 210.369 60.5388 207.23 59.1211 205.522C57.7034 203.813 57.5127 200.358 57.5127 200.358C57.5127 200.358 59.0878 201.12 59.8327 200.06C60.5775 199.001 57.9687 194.611 62.3379 193.462C66.7071 192.314 67.7419 193.99 71.6088 191.986Z" fill="#FDFFFF"/>
<path d="M66.999 209.645C64.878 209.645 62.5418 208.536 61.1304 207.404C61.0837 207.367 61.0762 207.298 61.1137 207.252C61.1513 207.205 61.2195 207.197 61.2662 207.235C62.692 208.378 65.0808 209.5 67.1979 209.425C67.2575 209.423 67.308 209.47 67.3101 209.53C67.3123 209.589 67.2654 209.64 67.2055 209.642C67.137 209.644 67.068 209.645 66.999 209.645Z" fill="#CE51D7"/>
<path d="M59.9781 201.174C60.7024 202.205 60.9969 204.403 59.9654 205.127C58.9339 205.851 56.9671 204.828 56.2428 203.797C55.5185 202.765 55.7675 201.342 56.7989 200.618C57.8303 199.894 59.2537 200.142 59.9781 201.174Z" fill="#FDFFFF"/>
<path d="M63.2934 197.912C63.3047 197.94 63.2926 197.969 63.304 197.997C63.3043 197.998 63.3052 197.999 63.3057 198C63.3344 198.426 63.3635 198.876 63.3139 199.3C63.2918 199.488 63.2035 199.614 63.1628 199.789C63.1329 199.917 63.1047 200.04 63.0701 200.165C61.8464 199.453 61.1523 198.307 61.1523 198.307C61.1523 198.307 62.1176 197.914 63.2934 197.912Z" fill="#FFEDFB"/>
<path d="M64.6751 198.123C66.2538 198.638 67.2282 200.067 67.3851 200.311C67.3746 200.331 67.3636 200.352 67.3526 200.372C67.0435 200.489 65.4409 201.042 63.8876 200.535C63.5964 200.44 63.3276 200.312 63.0788 200.168C63.0336 200.061 62.993 199.951 62.9632 199.835C62.7865 199.149 62.9292 198.458 63.2956 197.914C63.736 197.915 64.2074 197.97 64.6751 198.123Z" fill="#CE51D7"/>
<path d="M71.7468 198.683C71.8815 199.17 71.8931 199.562 71.7265 200.016C70.5457 200.247 69.5146 200.025 69.5146 200.025C69.5146 200.025 70.0885 198.553 71.3457 197.623C71.5602 197.927 71.6512 198.338 71.7468 198.683Z" fill="#FFEDFB"/>
<path d="M71.7513 200.011C71.2008 199.359 71.0317 198.445 71.3475 197.625C71.4893 197.522 71.6376 197.423 71.7973 197.336C73.3935 196.466 75.2945 196.875 75.2945 196.875C75.2945 196.875 74.6077 198.695 73.0116 199.564C72.599 199.789 72.1664 199.927 71.7513 200.011Z" fill="#CE51D7"/>
<path d="M57.4308 203.65C57.3964 203.65 57.3624 203.634 57.3414 203.603C57.2946 203.535 57.2532 203.462 57.2178 203.386C56.9286 202.759 57.1311 202.048 57.6692 201.799C57.8031 201.738 57.9474 201.709 58.0971 201.713C58.1571 201.715 58.2039 201.765 58.2021 201.825C58.2002 201.885 58.1473 201.934 58.0903 201.93C57.9742 201.926 57.8631 201.949 57.7601 201.996C57.3306 202.194 57.1756 202.777 57.4147 203.295C57.4448 203.36 57.4802 203.423 57.5199 203.48C57.5539 203.53 57.5415 203.597 57.4921 203.631C57.4735 203.644 57.4519 203.65 57.4308 203.65Z" fill="#CE51D7"/>
<path d="M69.3492 202.476C69.3282 202.476 69.307 202.47 69.2882 202.457C69.2387 202.423 69.2258 202.356 69.2595 202.306C69.3884 202.116 69.4396 201.941 69.4118 201.784C69.383 201.62 69.2745 201.519 69.1244 201.38C69.004 201.268 68.8676 201.142 68.7366 200.951C68.5699 200.707 68.458 200.422 68.4039 200.101C68.3939 200.042 68.4337 199.986 68.4927 199.976C68.5521 199.966 68.6078 200.006 68.6178 200.065C68.6666 200.354 68.7668 200.611 68.9156 200.828C69.0328 200.999 69.1598 201.117 69.2719 201.221C69.4393 201.376 69.5839 201.51 69.6253 201.746C69.6634 201.96 69.6005 202.19 69.4387 202.428C69.418 202.459 69.3839 202.476 69.3492 202.476Z" fill="#CE51D7"/>
<path d="M67.904 204.857C67.8193 204.857 67.7355 204.845 67.6531 204.823C67.1055 204.672 66.8262 204.072 66.8144 204.046C66.7897 203.992 66.8136 203.927 66.868 203.902C66.9227 203.878 66.9869 203.901 67.0117 203.956C67.0141 203.961 67.2622 204.49 67.7117 204.614C67.9543 204.68 68.2189 204.617 68.4975 204.424C68.5467 204.39 68.6142 204.402 68.6485 204.452C68.6825 204.501 68.6701 204.569 68.6208 204.603C68.3763 204.772 68.136 204.857 67.904 204.857Z" fill="#CE51D7"/>
<path d="M34.78 231.554L48.8929 258.649C52.0317 265.455 58.7201 270.358 66.2145 270.358H70.6163L70.4089 249.568L52.3159 222.372C49.7956 218.095 44.5 216.343 39.9264 218.273C34.7663 220.45 32.4343 226.468 34.78 231.554Z" fill="#FDFFFF"/>
<path d="M61.9071 265.168L67.7691 221.585C67.7691 221.585 67.8235 219.915 67.4992 218.243C66.5923 213.568 64.7604 205.171 66.1894 204.666C68.1293 203.98 71.1518 214.817 71.1518 214.817C71.1518 214.817 73.7492 211.532 75.9456 214.164C75.9456 214.164 79.4581 212.711 80.4583 215.864C80.4583 215.864 81.9234 215.163 83.4403 217.538C84.9572 219.914 83.7095 221.425 83.7095 221.425L82.4625 221.636C82.4625 221.636 83.8476 227.604 83.5998 228.357C83.3521 229.111 89.1268 268.141 74.2521 270.043C59.3774 271.946 61.9071 265.168 61.9071 265.168Z" fill="#FDFFFF"/>
<path d="M66.6485 213.497C66.5955 213.497 66.549 213.458 66.5412 213.404C66.4759 212.95 66.4072 212.486 66.3379 212.019C65.6782 207.573 65.3365 204.852 66.153 204.564C66.8518 204.317 67.6808 205.268 68.6846 207.474C68.7095 207.528 68.6854 207.593 68.6308 207.618C68.5764 207.643 68.5121 207.618 68.4872 207.564C67.3223 205.004 66.6144 204.63 66.2253 204.768C65.5184 205.018 66.0918 208.882 66.5525 211.988C66.6218 212.454 66.6907 212.919 66.7561 213.373C66.7646 213.432 66.7235 213.487 66.6641 213.496C66.6587 213.496 66.6535 213.497 66.6485 213.497Z" fill="#CE51D7"/>
<path d="M63.2473 255.31C63.2425 255.31 63.2376 255.31 63.2326 255.309C63.1733 255.301 63.1316 255.247 63.1397 255.187L64.8154 242.729C64.8233 242.669 64.8765 242.628 64.9374 242.636C64.9967 242.644 65.0384 242.698 65.0303 242.758L63.3546 255.216C63.3474 255.271 63.3007 255.31 63.2473 255.31Z" fill="#CE51D7"/>
<path d="M184.925 213.65C184.136 213.65 183.344 213.619 182.548 213.558C174.54 212.935 167.254 209.23 162.031 203.126C156.809 197.021 154.275 189.247 154.897 181.236C155.519 173.226 159.223 165.936 165.325 160.712C171.427 155.487 179.2 152.953 187.206 153.575C195.214 154.197 202.501 157.902 207.723 164.006C212.946 170.111 215.48 177.885 214.858 185.896C214.236 193.907 210.532 201.196 204.43 206.421C198.933 211.126 192.083 213.65 184.925 213.65ZM184.829 153.699C177.723 153.699 170.923 156.204 165.466 160.877C159.408 166.064 155.731 173.3 155.113 181.253C153.839 197.671 166.153 212.066 182.565 213.341C183.354 213.403 184.142 213.433 184.925 213.433C192.032 213.433 198.832 210.928 204.289 206.256C210.347 201.069 214.024 193.832 214.641 185.879C215.916 169.461 203.601 155.066 187.189 153.791C186.4 153.73 185.612 153.699 184.829 153.699Z" fill="#6D21A5"/>
<path d="M186.607 161.306C174.318 160.352 163.581 169.543 162.627 181.837C161.672 194.13 170.861 204.87 183.15 205.826C195.439 206.78 206.175 197.589 207.129 185.295C208.084 173.002 198.896 162.261 186.607 161.306ZM183.841 196.922C176.467 196.349 170.955 189.905 171.527 182.529C172.1 175.152 178.542 169.637 185.915 170.21C193.289 170.783 198.802 177.227 198.229 184.603C197.656 191.979 191.214 197.495 183.841 196.922Z" fill="#EDBAB0"/>
<path d="M190.881 183.592C190.895 180.277 188.219 177.58 184.906 177.566C181.593 177.553 178.897 180.229 178.883 183.544C178.87 186.858 181.545 189.556 184.858 189.569C188.171 189.582 190.868 186.906 190.881 183.592Z" fill="#FAE99C"/>
<path d="M169.405 189.635L146.907 200.43L148.184 203.09L170.681 192.295L169.405 189.635Z" fill="#FAE99C"/>
<path d="M172.736 190.694L186.267 183.189L171.945 189.047L172.736 190.694Z" fill="#EDBAB0"/>
<path d="M138.106 206.354L146.58 202.288L142.303 199.441L133.829 203.507L138.106 206.354Z" fill="#FAE99C"/>
<path d="M138.478 207.13L146.952 203.064L146.499 208.18L138.025 212.246L138.478 207.13Z" fill="#FAE99C"/>
<path d="M171.424 187.981L170.273 188.533L172.091 192.323L173.242 191.771L171.424 187.981Z" fill="#FAE99C"/>
<path d="M170.284 188.52L169.134 189.072L170.952 192.862L172.102 192.31L170.284 188.52Z" fill="#FFEDFB"/>
<path d="M191.658 275.758C191.648 275.758 191.638 275.758 191.627 275.757L183.557 275.695C182.501 275.686 181.511 275.267 180.771 274.514C180.03 273.762 179.626 272.765 179.635 271.708L179.664 268.141C179.681 265.971 181.453 264.217 183.619 264.217C183.63 264.217 183.64 264.217 183.65 264.217L191.72 264.28C192.776 264.288 193.766 264.707 194.507 265.46C195.248 266.213 195.651 267.209 195.643 268.266L195.614 271.833C195.596 274.003 193.825 275.758 191.658 275.758ZM191.629 275.54C191.639 275.541 191.649 275.541 191.658 275.541C193.706 275.541 195.38 273.883 195.397 271.831L195.426 268.264C195.434 267.266 195.053 266.324 194.352 265.612C193.652 264.901 192.716 264.504 191.718 264.497L183.649 264.434C183.639 264.434 183.629 264.434 183.619 264.434C181.571 264.434 179.897 266.092 179.881 268.143L179.852 271.71C179.844 272.709 180.225 273.651 180.925 274.362C181.625 275.074 182.561 275.47 183.559 275.478L191.629 275.54Z" fill="#621DA3"/>
<path d="M164.298 271.762L164.035 305.521L211.289 305.89L211.552 272.13L164.298 271.762Z" fill="#621DA3"/>
<path d="M187.68 291.085C187.657 291.085 187.633 291.078 187.614 291.062L166.973 274.942C166.926 274.905 166.918 274.837 166.955 274.79C166.991 274.743 167.059 274.734 167.107 274.771L187.681 290.84L208.294 275.078C208.342 275.042 208.41 275.051 208.446 275.098C208.483 275.146 208.474 275.214 208.426 275.25L187.746 291.063C187.727 291.078 187.704 291.085 187.68 291.085Z" fill="#F7F1EB"/>
<path d="M184.464 288.814L184.437 292.328L191.096 292.38L191.123 288.866L184.464 288.814Z" fill="#F7F1EB"/>
</g>
</g>
<defs>
<filter id="filter0_d_569_4157" x="0.899639" y="0.171987" width="238.57" height="329.939" filterUnits="userSpaceOnUse" color-interpolation-filters="sRGB">
<feFlood flood-opacity="0" result="BackgroundImageFix"/>
<feColorMatrix in="SourceAlpha" type="matrix" values="0 0 0 0 0 0 0 0 0 0 0 0 0 0 0 0 0 0 127 0" result="hardAlpha"/>
<feOffset dy="2.14247"/>
<feGaussianBlur stdDeviation="2.14247"/>
<feComposite in2="hardAlpha" operator="out"/>
<feColorMatrix type="matrix" values="0 0 0 0 0 0 0 0 0 0 0 0 0 0 0 0 0 0 0.1 0"/>
<feBlend mode="normal" in2="BackgroundImageFix" result="effect1_dropShadow_569_4157"/>
<feBlend mode="normal" in="SourceGraphic" in2="effect1_dropShadow_569_4157" result="shape"/>
</filter>
<clipPath id="clip0_569_4157">
<rect x="20.9385" y="107.863" width="198.493" height="203.219" rx="15.7534" fill="white"/>
</clipPath>
</defs>
</svg>
