<svg width="310" height="104" viewBox="0 0 310 104" fill="none" xmlns="http://www.w3.org/2000/svg">
<g clip-path="url(#clip0_535_9219)">
<rect y="0.5" width="310" height="103.333" rx="6.2" fill="#EFBC73"/>
<path d="M155.129 168.417C219.404 168.417 271.508 116.312 271.508 52.0374C271.508 -12.2371 219.404 -64.3418 155.129 -64.3418C90.8547 -64.3418 38.75 -12.2371 38.75 52.0374C38.75 116.312 90.8547 168.417 155.129 168.417Z" fill="#475DB4"/>
<path d="M158.229 112.877C189.261 112.877 214.417 87.7209 214.417 56.6894C214.417 25.6579 189.261 0.501953 158.229 0.501953C127.198 0.501953 102.042 25.6579 102.042 56.6894C102.042 87.7209 127.198 112.877 158.229 112.877Z" fill="#475DB4"/>
<path d="M62.8557 13.5329C63.1102 11.9643 62.045 10.4863 60.4764 10.2317C58.9078 9.97717 57.4299 11.0424 57.1753 12.611C56.9207 14.1796 57.9859 15.6575 59.5545 15.9121C61.1231 16.1667 62.6011 15.1015 62.8557 13.5329Z" fill="#E6D0BE"/>
<path d="M52.0469 29.4616C53.636 29.4616 54.9242 28.1734 54.9242 26.5843C54.9242 24.9952 53.636 23.707 52.0469 23.707C50.4578 23.707 49.1696 24.9952 49.1696 26.5843C49.1696 28.1734 50.4578 29.4616 52.0469 29.4616Z" fill="#E6D0BE"/>
<path d="M67.8968 29.5691C69.4859 29.5691 70.7741 28.2808 70.7741 26.6918C70.7741 25.1027 69.4859 23.8145 67.8968 23.8145C66.3077 23.8145 65.0195 25.1027 65.0195 26.6918C65.0195 28.2808 66.3077 29.5691 67.8968 29.5691Z" fill="#E6D0BE"/>
<path d="M75.7845 43.0261C77.3736 43.0261 78.6618 41.7379 78.6618 40.1488C78.6618 38.5597 77.3736 37.2715 75.7845 37.2715C74.1954 37.2715 72.9072 38.5597 72.9072 40.1488C72.9072 41.7379 74.1954 43.0261 75.7845 43.0261Z" fill="#E6D0BE"/>
<path d="M60.0039 43.2468C61.593 43.2468 62.8812 41.9586 62.8812 40.3695C62.8812 38.7804 61.593 37.4922 60.0039 37.4922C58.4148 37.4922 57.1266 38.7804 57.1266 40.3695C57.1266 41.9586 58.4148 43.2468 60.0039 43.2468Z" fill="#E6D0BE"/>
<path d="M59.9904 40.5131C59.967 40.5131 59.9437 40.507 59.9227 40.4949L52.0295 35.9377C51.9876 35.9136 51.9618 35.8689 51.9618 35.8205V26.7062C51.9618 26.6578 51.9876 26.6131 52.0295 26.5889L59.9227 22.0317C59.9646 22.0077 60.0162 22.0077 60.0581 22.0317L67.9514 26.5889C67.9933 26.6131 68.0191 26.6578 68.0191 26.7062V35.8205C68.0191 35.8689 67.9933 35.9136 67.9514 35.9377L60.0581 40.4949C60.0372 40.507 60.0138 40.5131 59.9904 40.5131ZM52.2326 35.7423L59.9904 40.2213L67.7483 35.7423V26.7843L59.9904 22.3052L52.2326 26.7843V35.7423Z" fill="#E6D0BE"/>
<path d="M60.0064 22.249C59.9316 22.249 59.871 22.1885 59.871 22.1136V12.9992C59.871 12.9509 59.8967 12.9061 59.9387 12.882L67.832 8.32467C67.8739 8.30063 67.9254 8.30063 67.9674 8.32467L75.8606 12.882C75.9254 12.9194 75.9475 13.0022 75.9101 13.0669C75.8726 13.1318 75.7901 13.1537 75.7252 13.1165L67.8996 8.59825L60.1417 13.0774V22.1136C60.1417 22.1885 60.0811 22.249 60.0064 22.249Z" fill="#E6D0BE"/>
<path d="M60.0975 49.7294C60.0227 49.7294 59.9621 49.6688 59.9621 49.594V40.5577L52.2041 36.0787L44.3786 40.5969C44.3138 40.6341 44.2311 40.612 44.1937 40.5473C44.1563 40.4825 44.1785 40.3997 44.2432 40.3623L52.1364 35.8051C52.1784 35.7811 52.2299 35.7811 52.2718 35.8051L60.1651 40.3623C60.2071 40.3865 60.2328 40.4312 60.2328 40.4796V49.5939C60.2329 49.6688 60.1723 49.7294 60.0975 49.7294Z" fill="#E6D0BE"/>
<path d="M75.7823 40.5132C75.7589 40.5132 75.7355 40.5071 75.7146 40.4951L67.8214 35.9379C67.7794 35.9137 67.7537 35.869 67.7537 35.8206V26.7063C67.7537 26.6579 67.7794 26.6132 67.8214 26.589L75.7146 22.0319C75.7791 21.9945 75.8621 22.0165 75.8995 22.0814C75.9369 22.1462 75.9147 22.229 75.85 22.2664L68.0245 26.7844V35.7425L75.7823 40.2215L83.6078 35.7034C83.6724 35.6658 83.7553 35.6882 83.7928 35.7529C83.8301 35.8177 83.808 35.9005 83.7432 35.9379L75.85 40.4951C75.829 40.5071 75.8057 40.5132 75.7823 40.5132Z" fill="#E6D0BE"/>
<path d="M209.465 91.115H137.739C137.664 91.115 137.604 91.0545 137.604 90.9796V40.7565C137.604 40.6817 137.664 40.6211 137.739 40.6211H209.465C209.54 40.6211 209.601 40.6817 209.601 40.7565V90.9796C209.601 91.0545 209.54 91.115 209.465 91.115ZM137.875 90.8442H209.33V40.8919H137.875V90.8442Z" fill="#475DB4"/>
<path d="M244.901 6.69998C244.901 7.26994 244.438 7.73205 243.867 7.73205C243.296 7.73205 242.834 7.27 242.834 6.69998C242.834 6.13001 243.296 5.66797 243.867 5.66797C244.438 5.66797 244.901 6.13001 244.901 6.69998Z" fill="white"/>
<path d="M248.241 6.69998C248.241 7.26994 247.779 7.73205 247.208 7.73205C246.637 7.73205 246.174 7.27 246.174 6.69998C246.174 6.13001 246.637 5.66797 247.208 5.66797C247.779 5.66797 248.241 6.13001 248.241 6.69998Z" fill="white"/>
<path d="M251.581 6.69998C251.581 7.26994 251.119 7.73205 250.548 7.73205C249.977 7.73205 249.514 7.27 249.514 6.69998C249.514 6.13001 249.977 5.66797 250.548 5.66797C251.119 5.66797 251.581 6.13001 251.581 6.69998Z" fill="white"/>
<path d="M233.063 45.9688H211.165V47.2538H233.063V45.9688Z" fill="#E6D0BE"/>
<path d="M229.363 49.0059H211.165V50.291H229.363V49.0059Z" fill="#E6D0BE"/>
<path d="M232.575 51.918H211.442V53.2031H232.575V51.918Z" fill="#E6D0BE"/>
<path d="M189.3 28.6602H175.013V29.6256H189.3V28.6602Z" fill="#E6D0BE"/>
<path d="M182.164 31.0918H175.013V32.0572H182.164V31.0918Z" fill="#E6D0BE"/>
<path d="M212.156 90.9922C210.67 91.0331 209.237 90.7337 207.828 90.4392C207.405 90.3506 206.967 90.2591 206.535 90.1785C206.473 90.167 206.433 90.1074 206.444 90.0456C206.456 89.9836 206.516 89.9424 206.577 89.9544C207.011 90.0353 207.45 90.1271 207.875 90.216C210.735 90.8138 213.692 91.4321 216.988 89.1049C220.283 86.7774 220.69 83.7835 221.083 80.8881C221.482 77.9445 221.895 74.9006 225.272 72.5161C228.648 70.131 231.655 70.7597 234.563 71.3678C237.423 71.9656 240.38 72.5836 243.676 70.2564C246.686 68.1305 247.286 65.4795 247.677 62.7223C247.686 62.66 247.743 62.6174 247.806 62.6253C247.868 62.6342 247.912 62.6919 247.903 62.7543C247.505 65.5629 246.892 68.2643 243.808 70.4426C240.431 72.8275 237.424 72.1989 234.516 71.591C231.656 70.9931 228.699 70.375 225.403 72.7023C222.108 75.0296 221.701 78.0235 221.309 80.9189C220.909 83.8626 220.496 86.9065 217.12 89.2911C215.379 90.5202 213.737 90.9488 212.156 90.9922Z" fill="#EFBC73"/>
<path d="M213.39 91.5441C211.5 91.596 209.641 91.0112 207.817 90.4374C207.381 90.3002 206.93 90.1583 206.487 90.0278C206.427 90.01 206.392 89.9466 206.41 89.8862C206.428 89.8258 206.491 89.7912 206.551 89.809C206.997 89.9401 207.449 90.0824 207.886 90.2199C211.02 91.206 214.26 92.2255 217.55 89.9021C220.84 87.5786 220.963 84.1837 221.082 80.9004C221.202 77.5618 221.327 74.1095 224.709 71.7209C228.091 69.3321 231.387 70.3691 234.574 71.3716C237.708 72.3577 240.948 73.3769 244.238 71.0536C247.453 68.783 247.575 65.5433 247.692 62.4103C247.694 62.3473 247.749 62.299 247.81 62.3005C247.873 62.303 247.922 62.3558 247.92 62.4187C247.8 65.6072 247.677 68.9043 244.37 71.2398C240.988 73.6287 237.692 72.5917 234.505 71.5891C231.371 70.6031 228.131 69.5837 224.841 71.9071C221.551 74.2306 221.428 77.6255 221.309 80.9087C221.189 84.2473 221.064 87.6997 217.682 90.0882C216.235 91.1101 214.804 91.5052 213.39 91.5441Z" fill="#EFBC73"/>
<path d="M207.396 93.1726C207.386 93.1728 207.377 93.1719 207.367 93.1696C207.305 93.1552 207.267 93.0939 207.282 93.0326C207.491 92.1396 207.617 91.2108 207.739 90.3125C208.139 87.3688 208.552 84.3248 211.928 81.9401C215.305 79.5552 218.312 80.1837 221.22 80.7918C224.08 81.3898 227.037 82.008 230.333 79.6805C233.628 77.3531 234.035 74.3592 234.427 71.4639C234.827 68.5202 235.24 65.4762 238.616 63.0916C241.696 60.9168 244.425 61.2366 247.181 61.7932C247.242 61.8057 247.282 61.8658 247.27 61.9276C247.257 61.9894 247.197 62.0296 247.136 62.0168C244.43 61.4702 241.753 61.1556 238.748 63.2778C235.453 65.6052 235.046 68.5991 234.653 71.4946C234.254 74.4383 233.841 77.4821 230.464 79.8667C227.088 82.2515 224.081 81.6228 221.173 81.0149C218.313 80.4171 215.355 79.799 212.06 82.1263C208.764 84.4539 208.358 87.4478 207.965 90.3432C207.842 91.2467 207.716 92.1811 207.504 93.0847C207.492 93.1361 207.446 93.1712 207.396 93.1726Z" fill="#EFBC73"/>
<path d="M207.605 93.7497C207.598 93.7499 207.592 93.7495 207.585 93.7486C207.523 93.7398 207.48 93.6819 207.489 93.6196C207.644 92.5387 207.681 91.3984 207.718 90.2956C207.829 86.9429 207.944 83.476 211.326 81.0872C214.708 78.6981 218.014 79.7496 221.211 80.7662C224.354 81.766 227.605 82.7998 230.895 80.4763C234.185 78.153 234.297 74.7438 234.406 71.4469C234.517 68.0942 234.632 64.6274 238.014 62.2388C241.207 59.9833 244.396 60.9667 246.957 61.757C247.018 61.7756 247.051 61.8394 247.033 61.8996C247.014 61.9597 246.951 61.9935 246.89 61.9749C243.693 60.9887 241.019 60.3958 238.146 62.425C234.856 64.7484 234.743 68.1575 234.634 71.4545C234.523 74.8071 234.409 78.2739 231.026 80.6625C227.644 83.0516 224.338 82.0002 221.142 80.9835C217.998 79.9838 214.747 78.9503 211.457 81.2733C208.168 83.5968 208.055 87.0061 207.946 90.3032C207.909 91.4121 207.871 92.5587 207.714 93.6519C207.706 93.7077 207.659 93.7482 207.605 93.7497Z" fill="#EFBC73"/>
<path d="M230.081 79.603C230.045 79.604 230.008 79.5872 229.985 79.5549L227.864 76.5518C227.828 76.5003 227.84 76.4291 227.891 76.3929C227.943 76.3563 228.014 76.3687 228.05 76.4202L230.171 79.4233C230.208 79.4748 230.195 79.5459 230.144 79.5822C230.125 79.5957 230.103 79.6024 230.081 79.603Z" fill="#EFBC73"/>
<path d="M227.623 76.1237C227.586 76.1247 227.549 76.1079 227.527 76.0756L225.369 73.0205C225.333 72.969 225.345 72.8979 225.396 72.8616C225.448 72.825 225.519 72.8374 225.555 72.8889L227.713 75.944C227.749 75.9954 227.737 76.0666 227.685 76.1029C227.666 76.1164 227.645 76.1231 227.623 76.1237Z" fill="#EFBC73"/>
<path d="M229.046 80.3335C229.01 80.3345 228.973 80.3177 228.95 80.2854L226.829 77.2822C226.793 77.2308 226.805 77.1596 226.856 77.1233C226.908 77.0868 226.979 77.0991 227.015 77.1506L229.136 80.1537C229.173 80.2052 229.16 80.2764 229.109 80.3126C229.09 80.3262 229.068 80.3329 229.046 80.3335Z" fill="#EFBC73"/>
<path d="M226.588 76.8543C226.551 76.8553 226.515 76.8385 226.492 76.8061L224.334 73.751C224.298 73.6996 224.31 73.6284 224.361 73.5922C224.413 73.5554 224.484 73.568 224.52 73.6194L226.678 76.6745C226.714 76.726 226.702 76.7971 226.651 76.8334C226.632 76.8469 226.61 76.8537 226.588 76.8543Z" fill="#EFBC73"/>
<path d="M227.843 80.8271C227.806 80.8282 227.769 80.8114 227.747 80.779L225.794 78.0147C225.758 77.9632 225.77 77.8921 225.822 77.8558C225.873 77.8191 225.944 77.8316 225.981 77.8831L227.933 80.6474C227.969 80.6989 227.957 80.77 227.905 80.8063C227.886 80.8198 227.865 80.8266 227.843 80.8271Z" fill="#EFBC73"/>
<path d="M225.553 77.5841C225.516 77.5851 225.48 77.5683 225.457 77.536L223.468 74.7198C223.432 74.6683 223.444 74.5972 223.495 74.5609C223.547 74.5241 223.618 74.5368 223.654 74.5882L225.643 77.4043C225.679 77.4558 225.667 77.527 225.616 77.5632C225.597 77.5768 225.575 77.5835 225.553 77.5841Z" fill="#EFBC73"/>
<path d="M226.527 81.1596C226.49 81.1606 226.453 81.1438 226.43 81.1114L224.759 78.7451C224.723 78.6937 224.735 78.6225 224.787 78.5863C224.838 78.5496 224.909 78.5621 224.946 78.6135L226.617 80.9798C226.653 81.0313 226.641 81.1024 226.589 81.1387C226.57 81.1522 226.549 81.159 226.527 81.1596Z" fill="#EFBC73"/>
<path d="M224.518 78.3155C224.482 78.3165 224.445 78.2997 224.422 78.2673L222.77 75.9288C222.734 75.8773 222.746 75.8062 222.798 75.7699C222.849 75.7331 222.92 75.7457 222.957 75.7972L224.608 78.1357C224.645 78.1872 224.632 78.2583 224.581 78.2946C224.562 78.3081 224.54 78.3149 224.518 78.3155Z" fill="#EFBC73"/>
<path d="M225.042 81.2532C225.005 81.2542 224.969 81.2374 224.946 81.205L223.724 79.4756C223.688 79.4241 223.7 79.353 223.752 79.3167C223.803 79.2801 223.874 79.2925 223.911 79.344L225.132 81.0734C225.168 81.1249 225.156 81.196 225.105 81.2323C225.086 81.2459 225.064 81.2526 225.042 81.2532Z" fill="#EFBC73"/>
<path d="M223.483 79.0457C223.446 79.0467 223.41 79.0299 223.387 78.9976L222.185 77.2959C222.149 77.2445 222.161 77.1733 222.213 77.1371C222.264 77.1003 222.335 77.113 222.371 77.1643L223.573 78.866C223.609 78.9175 223.597 78.9886 223.546 79.0249C223.527 79.0384 223.505 79.0451 223.483 79.0457Z" fill="#EFBC73"/>
<path d="M223.445 81.1874C223.408 81.1884 223.371 81.1716 223.349 81.1392L222.689 80.2059C222.653 80.1545 222.665 80.0833 222.717 80.047C222.768 80.0107 222.839 80.023 222.876 80.0743L223.535 81.0076C223.571 81.0591 223.559 81.1302 223.507 81.1665C223.488 81.18 223.467 81.1868 223.445 81.1874Z" fill="#EFBC73"/>
<path d="M222.448 79.777C222.412 79.778 222.375 79.7612 222.352 79.7289L221.712 78.8232C221.676 78.7718 221.688 78.7006 221.74 78.6644C221.791 78.6278 221.862 78.6402 221.899 78.6916L222.538 79.5973C222.575 79.6487 222.562 79.7199 222.511 79.7562C222.492 79.7696 222.47 79.7764 222.448 79.777Z" fill="#EFBC73"/>
<path d="M228.621 75.3395C228.585 75.3405 228.548 75.3237 228.525 75.2914L226.404 72.2881C226.368 72.2366 226.38 72.1655 226.431 72.1292C226.483 72.0926 226.554 72.105 226.59 72.1565L228.711 75.1597C228.748 75.2112 228.735 75.2824 228.684 75.3186C228.665 75.3322 228.643 75.3389 228.621 75.3395Z" fill="#EFBC73"/>
<path d="M231.116 78.8717C231.079 78.8728 231.043 78.8559 231.02 78.8236L228.862 75.7686C228.826 75.7171 228.838 75.6459 228.89 75.6097C228.941 75.5731 229.012 75.5855 229.049 75.6369L231.206 78.692C231.242 78.7435 231.23 78.8146 231.179 78.8509C231.16 78.8644 231.138 78.8711 231.116 78.8717Z" fill="#EFBC73"/>
<path d="M229.656 74.6084C229.619 74.6094 229.583 74.5926 229.56 74.5602L227.608 71.7959C227.571 71.7444 227.584 71.6733 227.635 71.637C227.686 71.6004 227.758 71.6128 227.794 71.6643L229.746 74.4286C229.783 74.4801 229.77 74.5512 229.719 74.5875C229.7 74.601 229.678 74.6078 229.656 74.6084Z" fill="#EFBC73"/>
<path d="M231.983 77.9025C231.946 77.9035 231.909 77.8866 231.886 77.8543L229.897 75.0381C229.861 74.9866 229.873 74.9155 229.925 74.8792C229.976 74.8426 230.047 74.855 230.083 74.9065L232.072 77.7227C232.109 77.7741 232.097 77.8453 232.045 77.8816C232.026 77.8951 232.004 77.9019 231.983 77.9025Z" fill="#EFBC73"/>
<path d="M230.691 73.8783C230.654 73.8793 230.618 73.8625 230.595 73.8302L228.924 71.4639C228.887 71.4124 228.9 71.3413 228.951 71.305C229.002 71.2684 229.073 71.2808 229.11 71.3323L230.781 73.6986C230.817 73.75 230.805 73.8212 230.754 73.8575C230.735 73.871 230.713 73.8777 230.691 73.8783Z" fill="#EFBC73"/>
<path d="M232.68 76.6943C232.643 76.6953 232.607 76.6785 232.584 76.6462L230.932 74.3077C230.896 74.2562 230.908 74.185 230.959 74.1488C231.011 74.112 231.082 74.1247 231.118 74.1761L232.77 76.5146C232.806 76.5661 232.794 76.6372 232.743 76.6735C232.724 76.687 232.702 76.6937 232.68 76.6943Z" fill="#EFBC73"/>
<path d="M231.726 73.1478C231.689 73.1488 231.653 73.132 231.63 73.0995L230.408 71.3702C230.372 71.3187 230.384 71.2476 230.436 71.2113C230.487 71.1746 230.558 71.1871 230.595 71.2386L231.816 72.968C231.852 73.0195 231.84 73.0906 231.789 73.1269C231.77 73.1405 231.748 73.1472 231.726 73.1478Z" fill="#EFBC73"/>
<path d="M233.265 75.327C233.228 75.328 233.192 75.3112 233.169 75.2789L231.967 73.5772C231.931 73.5257 231.943 73.4546 231.994 73.4183C232.046 73.3816 232.117 73.3941 232.153 73.4456L233.355 75.1473C233.391 75.1987 233.379 75.2699 233.328 75.3062C233.309 75.3197 233.287 75.3264 233.265 75.327Z" fill="#EFBC73"/>
<path d="M232.761 72.4158C232.724 72.4168 232.688 72.4 232.665 72.3677L232.006 71.4344C231.969 71.383 231.981 71.3118 232.033 71.2755C232.084 71.2393 232.156 71.2514 232.192 71.3028L232.851 72.2361C232.887 72.2876 232.875 72.3587 232.824 72.395C232.805 72.4084 232.783 72.4152 232.761 72.4158Z" fill="#EFBC73"/>
<path d="M233.738 73.8005C233.701 73.8015 233.664 73.7847 233.641 73.7522L233.002 72.8466C232.966 72.7952 232.978 72.7241 233.029 72.6878C233.081 72.6512 233.152 72.6635 233.188 72.7152L233.828 73.6208C233.864 73.6722 233.852 73.7433 233.8 73.7796C233.781 73.7932 233.76 73.7999 233.738 73.8005Z" fill="#EFBC73"/>
<path d="M216.707 89.0485C216.67 89.0495 216.633 89.0327 216.611 89.0004L214.49 85.9971C214.453 85.9456 214.466 85.8745 214.517 85.8382C214.568 85.8016 214.639 85.814 214.676 85.8655L216.797 88.8687C216.833 88.9202 216.821 88.9913 216.769 89.0276C216.75 89.0412 216.729 89.0479 216.707 89.0485Z" fill="#EFBC73"/>
<path d="M214.249 85.569C214.212 85.57 214.175 85.5532 214.152 85.5209L211.995 82.4658C211.958 82.4144 211.97 82.3432 212.022 82.3069C212.073 82.2703 212.144 82.2827 212.181 82.3342L214.338 85.3893C214.375 85.4407 214.363 85.5119 214.311 85.5482C214.292 85.5616 214.27 85.5684 214.249 85.569Z" fill="#EFBC73"/>
<path d="M215.672 89.7807C215.635 89.7818 215.599 89.7649 215.576 89.7326L213.455 86.7295C213.418 86.678 213.431 86.6069 213.482 86.5706C213.533 86.534 213.605 86.5464 213.641 86.5979L215.762 89.601C215.798 89.6525 215.786 89.7236 215.735 89.7599C215.715 89.7734 215.694 89.7801 215.672 89.7807Z" fill="#EFBC73"/>
<path d="M213.214 86.2995C213.177 86.3005 213.14 86.2837 213.117 86.2514L210.96 83.1963C210.923 83.1448 210.936 83.0737 210.987 83.0374C211.038 83.0008 211.11 83.0132 211.146 83.0647L213.304 86.1197C213.34 86.1712 213.328 86.2424 213.276 86.2786C213.257 86.2922 213.235 86.2989 213.214 86.2995Z" fill="#EFBC73"/>
<path d="M214.468 90.2724C214.432 90.2735 214.395 90.2566 214.372 90.2243L212.42 87.46C212.383 87.4085 212.396 87.3373 212.447 87.3011C212.498 87.2645 212.57 87.2769 212.606 87.3283L214.558 90.0927C214.595 90.1441 214.582 90.2153 214.531 90.2516C214.512 90.2651 214.49 90.2718 214.468 90.2724Z" fill="#EFBC73"/>
<path d="M212.179 87.0293C212.142 87.0304 212.105 87.0135 212.082 86.9812L210.093 84.165C210.057 84.1136 210.069 84.0424 210.121 84.0061C210.172 83.9696 210.243 83.982 210.28 84.0334L212.269 86.8496C212.305 86.9011 212.293 86.9722 212.241 87.0085C212.222 87.022 212.201 87.0288 212.179 87.0293Z" fill="#EFBC73"/>
<path d="M213.152 90.6049C213.116 90.6059 213.079 90.5891 213.056 90.5568L211.385 88.1905C211.349 88.139 211.361 88.0679 211.412 88.0316C211.464 87.9948 211.535 88.0075 211.571 88.0589L213.242 90.4252C213.279 90.4766 213.266 90.5478 213.215 90.5841C213.196 90.5976 213.174 90.6043 213.152 90.6049Z" fill="#EFBC73"/>
<path d="M211.144 87.7607C211.107 87.7617 211.07 87.7449 211.047 87.7126L209.396 85.374C209.359 85.3226 209.372 85.2514 209.423 85.2151C209.475 85.1785 209.546 85.1909 209.582 85.2424L211.234 87.581C211.27 87.6324 211.258 87.7036 211.206 87.7399C211.187 87.7534 211.166 87.7601 211.144 87.7607Z" fill="#EFBC73"/>
<path d="M211.668 90.6984C211.631 90.6995 211.594 90.6827 211.571 90.6503L210.35 88.9209C210.314 88.8695 210.326 88.7983 210.377 88.762C210.429 88.7254 210.5 88.7378 210.536 88.7893L211.758 90.5187C211.794 90.5702 211.782 90.6413 211.73 90.6776C211.711 90.6911 211.689 90.6979 211.668 90.6984Z" fill="#EFBC73"/>
<path d="M210.109 88.493C210.072 88.494 210.035 88.4772 210.013 88.4448L208.811 86.7432C208.775 86.6917 208.787 86.6205 208.838 86.5843C208.89 86.5477 208.961 86.5601 208.997 86.6116L210.199 88.3132C210.235 88.3647 210.223 88.4358 210.172 88.4721C210.152 88.4856 210.131 88.4924 210.109 88.493Z" fill="#EFBC73"/>
<path d="M210.071 90.6346C210.034 90.6356 209.997 90.6188 209.974 90.5865L209.315 89.6532C209.279 89.6018 209.291 89.5306 209.342 89.4943C209.394 89.458 209.465 89.4701 209.501 89.5216L210.16 90.4549C210.197 90.5064 210.185 90.5775 210.133 90.6138C210.114 90.6272 210.092 90.634 210.071 90.6346Z" fill="#EFBC73"/>
<path d="M209.074 89.2223C209.037 89.2233 209.001 89.2065 208.978 89.1742L208.338 88.2686C208.302 88.2171 208.314 88.1459 208.365 88.1097C208.417 88.0731 208.488 88.0855 208.524 88.1369L209.164 89.0426C209.2 89.0941 209.188 89.1652 209.137 89.2015C209.118 89.215 209.096 89.2217 209.074 89.2223Z" fill="#EFBC73"/>
<path d="M215.247 84.7846C215.21 84.7857 215.174 84.7689 215.151 84.7365L213.03 81.7334C212.993 81.6819 213.006 81.6108 213.057 81.5745C213.108 81.5379 213.179 81.5503 213.216 81.6018L215.337 84.6049C215.373 84.6564 215.361 84.7275 215.31 84.7638C215.29 84.7773 215.269 84.7841 215.247 84.7846Z" fill="#EFBC73"/>
<path d="M217.742 88.319C217.705 88.32 217.668 88.3032 217.646 88.2709L215.488 85.2158C215.452 85.1644 215.464 85.0932 215.515 85.057C215.567 85.0203 215.638 85.0328 215.674 85.0842L217.832 88.1393C217.868 88.1908 217.856 88.2619 217.804 88.2982C217.785 88.3117 217.764 88.3184 217.742 88.319Z" fill="#EFBC73"/>
<path d="M216.282 84.0556C216.245 84.0566 216.208 84.0398 216.185 84.0075L214.233 81.2431C214.197 81.1917 214.209 81.1205 214.26 81.0842C214.312 81.0477 214.383 81.0602 214.419 81.1115L216.372 83.8758C216.408 83.9273 216.396 83.9985 216.344 84.0347C216.325 84.0483 216.304 84.055 216.282 84.0556Z" fill="#EFBC73"/>
<path d="M218.608 87.3477C218.571 87.3487 218.535 87.3319 218.512 87.2996L216.523 84.4834C216.486 84.4319 216.499 84.3608 216.55 84.3245C216.602 84.2879 216.673 84.3003 216.709 84.3518L218.698 87.168C218.734 87.2195 218.722 87.2906 218.671 87.3269C218.652 87.3404 218.63 87.3471 218.608 87.3477Z" fill="#EFBC73"/>
<path d="M217.317 83.3237C217.28 83.3247 217.243 83.3079 217.22 83.2756L215.549 80.9093C215.513 80.8578 215.525 80.7866 215.577 80.7504C215.628 80.7136 215.699 80.7262 215.735 80.7776L217.407 83.1439C217.443 83.1954 217.431 83.2666 217.379 83.3028C217.36 83.3163 217.338 83.3231 217.317 83.3237Z" fill="#EFBC73"/>
<path d="M219.306 86.1397C219.269 86.1407 219.232 86.1239 219.209 86.0916L217.558 83.753C217.521 83.7015 217.534 83.6304 217.585 83.5941C217.637 83.5574 217.708 83.5699 217.744 83.6214L219.396 85.9599C219.432 86.0114 219.42 86.0826 219.368 86.1188C219.349 86.1324 219.327 86.1391 219.306 86.1397Z" fill="#EFBC73"/>
<path d="M218.352 82.593C218.315 82.594 218.278 82.5772 218.255 82.5447L217.034 80.8154C216.998 80.764 217.01 80.6928 217.061 80.6565C217.113 80.62 217.184 80.6323 217.22 80.6838L218.442 82.4132C218.478 82.4647 218.466 82.5359 218.414 82.5721C218.395 82.5857 218.373 82.5924 218.352 82.593Z" fill="#EFBC73"/>
<path d="M219.891 84.7723C219.854 84.7733 219.817 84.7565 219.794 84.7242L218.593 83.0225C218.556 82.971 218.569 82.8999 218.62 82.8636C218.671 82.827 218.742 82.8394 218.779 82.8909L219.981 84.5925C220.017 84.644 220.005 84.7152 219.953 84.7514C219.934 84.765 219.912 84.7717 219.891 84.7723Z" fill="#EFBC73"/>
<path d="M219.387 81.8611C219.35 81.8622 219.313 81.8453 219.29 81.813L218.631 80.8798C218.595 80.8283 218.607 80.7571 218.658 80.7209C218.71 80.6846 218.781 80.6967 218.817 80.7481L219.476 81.6814C219.513 81.7329 219.501 81.804 219.449 81.8403C219.43 81.8537 219.408 81.8605 219.387 81.8611Z" fill="#EFBC73"/>
<path d="M220.363 83.2457C220.327 83.2467 220.29 83.2299 220.267 83.1976L219.628 82.292C219.591 82.2405 219.603 82.1694 219.655 82.1331C219.706 82.0965 219.777 82.109 219.814 82.1604L220.453 83.066C220.49 83.1175 220.477 83.1886 220.426 83.2249C220.407 83.2384 220.385 83.2451 220.363 83.2457Z" fill="#EFBC73"/>
<path d="M243.535 70.101C243.499 70.102 243.462 70.0852 243.439 70.0529L241.318 67.0498C241.282 66.9983 241.294 66.9272 241.345 66.8909C241.397 66.8543 241.468 66.8668 241.504 66.9182L243.625 69.9213C243.662 69.9728 243.649 70.0439 243.598 70.0802C243.579 70.0937 243.557 70.1004 243.535 70.101Z" fill="#EFBC73"/>
<path d="M241.077 66.6218C241.04 66.6228 241.004 66.606 240.981 66.5736L238.823 63.5185C238.787 63.4671 238.799 63.3959 238.851 63.3596C238.902 63.3231 238.973 63.3356 239.01 63.3869L241.167 66.442C241.204 66.4935 241.191 66.5646 241.14 66.6009C241.121 66.6145 241.099 66.6212 241.077 66.6218Z" fill="#EFBC73"/>
<path d="M242.501 70.8315C242.464 70.8325 242.427 70.8157 242.404 70.7834L240.283 67.7803C240.247 67.7288 240.259 67.6577 240.311 67.6214C240.362 67.5848 240.433 67.5972 240.469 67.6487L242.59 70.6518C242.627 70.7033 242.615 70.7744 242.563 70.8107C242.544 70.8242 242.522 70.8309 242.501 70.8315Z" fill="#EFBC73"/>
<path d="M240.042 67.3522C240.005 67.3532 239.969 67.3364 239.946 67.3041L237.788 64.2491C237.752 64.1976 237.764 64.1264 237.816 64.0902C237.867 64.0535 237.938 64.066 237.974 64.1174L240.132 67.1725C240.168 67.224 240.156 67.2951 240.105 67.3314C240.086 67.3449 240.064 67.3516 240.042 67.3522Z" fill="#EFBC73"/>
<path d="M241.297 71.3251C241.26 71.3261 241.223 71.3093 241.201 71.277L239.248 68.5127C239.212 68.4612 239.224 68.3901 239.276 68.3538C239.327 68.3172 239.398 68.3296 239.435 68.3811L241.387 71.1454C241.423 71.1969 241.411 71.268 241.359 71.3043C241.34 71.3178 241.319 71.3245 241.297 71.3251Z" fill="#EFBC73"/>
<path d="M239.007 68.0821C238.97 68.0831 238.934 68.0663 238.911 68.034L236.922 65.2178C236.886 65.1663 236.898 65.0952 236.949 65.0589C237.001 65.0223 237.072 65.0347 237.108 65.0862L239.097 67.9024C239.134 67.9538 239.121 68.025 239.07 68.0613C239.051 68.0748 239.029 68.0815 239.007 68.0821Z" fill="#EFBC73"/>
<path d="M239.981 71.6577C239.944 71.6587 239.907 71.6419 239.885 71.6095L238.213 69.2432C238.177 69.1918 238.189 69.1206 238.241 69.0843C238.292 69.0476 238.363 69.0602 238.4 69.1116L240.071 71.4779C240.107 71.5294 240.095 71.6005 240.043 71.6368C240.024 71.6503 240.003 71.6571 239.981 71.6577Z" fill="#EFBC73"/>
<path d="M237.972 68.8136C237.936 68.8146 237.899 68.7978 237.876 68.7655L236.224 66.4268C236.188 66.3754 236.2 66.3042 236.252 66.2679C236.303 66.2312 236.374 66.2437 236.411 66.2953L238.062 68.634C238.099 68.6853 238.086 68.7565 238.035 68.7928C238.016 68.8062 237.994 68.813 237.972 68.8136Z" fill="#EFBC73"/>
<path d="M238.496 71.7512C238.459 71.7522 238.423 71.7354 238.4 71.7031L237.178 69.9737C237.142 69.9222 237.154 69.851 237.206 69.8148C237.257 69.7782 237.328 69.7905 237.365 69.8421L238.586 71.5715C238.622 71.6229 238.61 71.6941 238.559 71.7304C238.54 71.7439 238.518 71.7506 238.496 71.7512Z" fill="#EFBC73"/>
<path d="M236.937 69.544C236.901 69.545 236.864 69.5282 236.841 69.4957L235.639 67.7939C235.603 67.7425 235.615 67.6714 235.667 67.6351C235.718 67.5984 235.789 67.6109 235.825 67.6625L237.027 69.3643C237.064 69.4156 237.051 69.4868 237 69.5231C236.981 69.5366 236.959 69.5434 236.937 69.544Z" fill="#EFBC73"/>
<path d="M236.899 71.6857C236.862 71.6867 236.825 71.6699 236.803 71.6375L236.143 70.7041C236.107 70.6527 236.119 70.5815 236.171 70.5453C236.222 70.5085 236.293 70.5211 236.33 70.5727L236.989 71.506C237.025 71.5574 237.013 71.6286 236.962 71.6648C236.942 71.6784 236.921 71.6851 236.899 71.6857Z" fill="#EFBC73"/>
<path d="M235.903 70.275C235.866 70.276 235.829 70.2592 235.806 70.2268L235.167 69.3213C235.13 69.2698 235.142 69.1986 235.194 69.1624C235.245 69.1258 235.316 69.1383 235.353 69.1897L235.992 70.0952C236.029 70.1467 236.016 70.2178 235.965 70.2541C235.946 70.2677 235.924 70.2744 235.903 70.275Z" fill="#EFBC73"/>
<path d="M242.075 65.8374C242.039 65.8384 242.002 65.8216 241.979 65.7893L239.858 62.7862C239.822 62.7347 239.834 62.6636 239.885 62.6273C239.937 62.5905 240.008 62.6032 240.044 62.6546L242.165 65.6577C242.202 65.7092 242.189 65.7803 242.138 65.8166C242.119 65.8301 242.097 65.8368 242.075 65.8374Z" fill="#EFBC73"/>
<path d="M244.57 69.3698C244.534 69.3708 244.497 69.354 244.474 69.3217L242.316 66.2666C242.28 66.2152 242.292 66.144 242.344 66.1077C242.395 66.0711 242.466 66.0835 242.503 66.135L244.66 69.1901C244.697 69.2416 244.684 69.3127 244.633 69.349C244.614 69.3625 244.592 69.3692 244.57 69.3698Z" fill="#EFBC73"/>
<path d="M243.11 65.1066C243.074 65.1076 243.037 65.0908 243.014 65.0583L241.062 62.294C241.025 62.2425 241.038 62.1714 241.089 62.1351C241.14 62.0985 241.212 62.1108 241.248 62.1625L243.2 64.9268C243.237 64.9783 243.224 65.0494 243.173 65.0857C243.154 65.0993 243.132 65.106 243.11 65.1066Z" fill="#EFBC73"/>
<path d="M245.437 68.4007C245.4 68.4017 245.363 68.3849 245.34 68.3524L243.351 65.536C243.315 65.4847 243.327 65.4135 243.379 65.3772C243.43 65.3407 243.501 65.353 243.538 65.4046L245.526 68.2209C245.563 68.2723 245.551 68.3434 245.499 68.3797C245.48 68.3933 245.458 68.4001 245.437 68.4007Z" fill="#EFBC73"/>
<path d="M244.145 64.3764C244.108 64.3774 244.072 64.3606 244.049 64.3283L242.378 61.962C242.341 61.9105 242.354 61.8393 242.405 61.8031C242.456 61.7663 242.528 61.779 242.564 61.8303L244.235 64.1966C244.271 64.2481 244.259 64.3193 244.208 64.3555C244.189 64.3691 244.167 64.3758 244.145 64.3764Z" fill="#EFBC73"/>
<path d="M246.134 67.1924C246.097 67.1934 246.061 67.1766 246.038 67.1443L244.386 64.8057C244.35 64.7543 244.362 64.6831 244.414 64.6468C244.465 64.6101 244.536 64.6226 244.572 64.6741L246.224 67.0127C246.26 67.0642 246.248 67.1353 246.197 67.1716C246.178 67.1851 246.156 67.1918 246.134 67.1924Z" fill="#EFBC73"/>
<path d="M245.18 63.6457C245.143 63.6467 245.107 63.6299 245.084 63.5976L243.862 61.8682C243.826 61.8167 243.838 61.7456 243.89 61.7093C243.941 61.6727 244.012 61.685 244.049 61.7367L245.27 63.466C245.306 63.5175 245.294 63.5886 245.243 63.6249C245.224 63.6384 245.202 63.6451 245.18 63.6457Z" fill="#EFBC73"/>
<path d="M246.719 65.825C246.682 65.826 246.646 65.8092 246.623 65.7769L245.421 64.0752C245.385 64.0237 245.397 63.9526 245.448 63.9163C245.5 63.8797 245.571 63.8921 245.607 63.9436L246.809 65.6453C246.846 65.6967 246.833 65.7679 246.782 65.8041C246.763 65.8177 246.741 65.8244 246.719 65.825Z" fill="#EFBC73"/>
<path d="M246.215 62.9142C246.178 62.9152 246.142 62.8984 246.119 62.8659L245.46 61.9325C245.423 61.8812 245.435 61.81 245.487 61.7737C245.538 61.7371 245.609 61.7496 245.646 61.8011L246.305 62.7345C246.341 62.7859 246.329 62.857 246.278 62.8933C246.258 62.9069 246.237 62.9136 246.215 62.9142Z" fill="#EFBC73"/>
<path d="M247.192 64.2966C247.155 64.2976 247.119 64.2808 247.096 64.2483L246.456 63.3427C246.42 63.2913 246.432 63.2202 246.483 63.1839C246.535 63.1473 246.606 63.1597 246.642 63.2113L247.282 64.1169C247.318 64.1683 247.306 64.2394 247.255 64.2757C247.236 64.2893 247.214 64.296 247.192 64.2966Z" fill="#EFBC73"/>
<path d="M94.8567 92.1965L85.4322 74.3167V60.8906H76.3571V74.3167L66.9326 92.1965C65.8231 94.3014 67.21 96.9327 69.4291 96.9327H92.3602C94.5793 96.9327 95.9662 94.3014 94.8567 92.1965Z" fill="#E6D0BE"/>
<path d="M92.3599 97.0859H69.4289C68.3891 97.0859 67.4658 96.5439 66.8958 95.5992C66.2612 94.5473 66.2238 93.2169 66.7981 92.1272L76.2051 74.2807V60.7402H85.5837V74.2807L94.9907 92.1272C95.565 93.2169 95.5277 94.5473 94.893 95.5992C94.323 96.5439 93.3997 97.0859 92.3599 97.0859ZM76.5085 61.0438V74.3556L67.0667 92.2686C66.5415 93.2649 66.5757 94.4808 67.1556 95.4424C67.6694 96.2939 68.498 96.7824 69.4289 96.7824H92.3599C93.2908 96.7824 94.1193 96.2939 94.6331 95.4424C95.2132 94.481 95.2472 93.2649 94.7221 92.2686L85.2802 74.3556V61.0438H76.5085Z" fill="white"/>
<path d="M86.3569 82.903C86.3023 82.903 86.2496 82.8737 86.2225 82.822L83.5704 77.7908C83.5313 77.7168 83.5597 77.625 83.6339 77.5859C83.7082 77.5469 83.7998 77.5752 83.8389 77.6493L86.491 82.6804C86.5301 82.7546 86.5017 82.8464 86.4275 82.8855C86.4049 82.8974 86.3808 82.903 86.3569 82.903Z" fill="white"/>
<path d="M80.8105 62.8106C84.4466 62.8106 87.3941 61.7923 87.3941 60.5362C87.3941 59.28 84.4466 58.2617 80.8105 58.2617C77.1745 58.2617 74.2269 59.28 74.2269 60.5362C74.2269 61.7923 77.1745 62.8106 80.8105 62.8106Z" fill="#E6D0BE"/>
<path d="M80.8106 62.9619C77.0337 62.9619 74.0752 61.8962 74.0752 60.5356C74.0752 59.1751 77.0337 58.1094 80.8106 58.1094C84.5874 58.1094 87.5459 59.1751 87.5459 60.5356C87.5459 61.8962 84.5874 62.9619 80.8106 62.9619ZM80.8106 58.4128C76.9632 58.4128 74.3787 59.5104 74.3787 60.5356C74.3787 61.5608 76.9632 62.6583 80.8106 62.6583C84.6579 62.6583 87.2424 61.5608 87.2424 60.5356C87.2424 59.5104 84.6579 58.4128 80.8106 58.4128Z" fill="white"/>
<path d="M87.29 84.9609H74.4989L70.0638 93.3747H91.7251L87.29 84.9609Z" fill="#475DB4"/>
<path d="M78.1775 89.3458C77.6614 89.3458 77.2415 88.8925 77.2415 88.3351C77.2415 87.7777 77.6614 87.3242 78.1775 87.3242C78.6936 87.3242 79.1135 87.7777 79.1135 88.3351C79.1135 88.8925 78.6936 89.3458 78.1775 89.3458ZM78.1775 87.6277C77.8287 87.6277 77.545 87.945 77.545 88.335C77.545 88.7249 77.8287 89.0422 78.1775 89.0422C78.5262 89.0422 78.81 88.7249 78.81 88.335C78.81 87.945 78.5262 87.6277 78.1775 87.6277Z" fill="white"/>
<path d="M83.4713 91.7384C82.5072 91.7384 81.7229 90.8859 81.7229 89.838C81.7229 88.7901 82.5072 87.9375 83.4713 87.9375C84.4353 87.9375 85.2195 88.7901 85.2195 89.838C85.2195 90.8859 84.4353 91.7384 83.4713 91.7384ZM83.4713 88.241C82.6746 88.241 82.0264 88.9574 82.0264 89.838C82.0264 90.7186 82.6746 91.435 83.4713 91.435C84.2679 91.435 84.916 90.7186 84.916 89.838C84.916 88.9574 84.2679 88.241 83.4713 88.241Z" fill="white"/>
<path d="M79.55 82.167C78.8331 82.167 78.2499 81.5346 78.2499 80.7573C78.2499 79.98 78.8331 79.3477 79.55 79.3477C80.2669 79.3477 80.8503 79.98 80.8503 80.7573C80.8503 81.5346 80.2669 82.167 79.55 82.167ZM79.55 79.6512C79.0005 79.6512 78.5534 80.1474 78.5534 80.7573C78.5534 81.3673 79.0005 81.8635 79.55 81.8635C80.0996 81.8635 80.5467 81.3673 80.5467 80.7573C80.5467 80.1474 80.0996 79.6512 79.55 79.6512Z" fill="white"/>
<path d="M126.038 47.627C126.038 47.627 121.664 57.3585 118.712 69.1674C115.76 80.9764 110.511 110.608 110.511 110.608H118.603C118.603 110.608 134.567 92.348 135.988 67.3086L140.909 47.5176L126.038 47.627Z" fill="black"/>
<path d="M132.599 71.0258C132.599 71.0258 140.909 83.0536 141.565 109.952H150.859C150.859 109.952 157.638 94.8625 153.811 79.0078C149.984 63.153 143.752 46.0957 143.752 46.0957H133.801L132.599 71.0258Z" fill="black"/>
<path d="M117.582 57.6916C116.301 68.2667 112.961 78.8662 113.138 88.9808L127.852 89.3224L129.074 67.5202L135.575 68.5587L136.059 89.3223L157.304 89.2732L147.629 46.0201L163.966 62.3463L173.175 53.2106C173.175 53.2106 150.31 24.8777 136.824 22.8251C118.863 20.0913 111.689 32.77 108.838 42.2524C106.357 50.5022 112.855 54.9377 117.582 57.6916Z" fill="white"/>
<path d="M127.132 50.477C127.104 50.477 127.077 50.471 127.051 50.4582C126.959 50.4134 126.921 50.3027 126.966 50.2108L127.741 48.623L115.391 42.24C115.3 42.193 115.264 42.0813 115.311 41.9906C115.358 41.9 115.47 41.8645 115.56 41.9112L128.072 48.3773C128.161 48.4235 128.197 48.5325 128.153 48.6229L127.298 50.3731C127.266 50.4389 127.2 50.477 127.132 50.477Z" fill="#475DB4"/>
<path d="M119.861 44.5265C119.831 44.5265 119.801 44.5194 119.773 44.5042C119.683 44.4558 119.65 44.3434 119.698 44.2536L124.678 35.0271C124.726 34.9372 124.838 34.9031 124.929 34.9521C125.018 35.0005 125.052 35.1129 125.003 35.2027L120.024 44.4292C119.99 44.4912 119.927 44.5265 119.861 44.5265Z" fill="#475DB4"/>
<path d="M147.629 46.2067C147.619 46.2067 147.609 46.206 147.599 46.2044C147.498 46.1881 147.43 46.0933 147.446 45.9923L148.939 36.7045C148.956 36.6035 149.051 36.5347 149.151 36.5513C149.252 36.5676 149.321 36.6625 149.305 36.7634L147.811 46.0512C147.797 46.1421 147.718 46.2067 147.629 46.2067Z" fill="#475DB4"/>
<path d="M137.985 41.1834C137.952 41.1834 137.92 41.1751 137.89 41.1574C137.802 41.1052 137.774 40.9917 137.826 40.9039L142.53 32.9866L140.016 30.7149C139.975 30.678 139.953 30.6249 139.955 30.5702C139.957 30.5152 139.984 30.4641 140.027 30.4307L143.318 27.909C142.897 27.2807 141.225 24.7938 140.818 24.3531C140.749 24.2782 140.754 24.161 140.829 24.0917C140.904 24.0229 141.021 24.0274 141.09 24.1024C141.574 24.6261 143.635 27.7164 143.722 27.8478C143.776 27.9289 143.758 28.0381 143.681 28.0973L140.429 30.5894L142.891 32.8137C142.956 32.8728 142.971 32.9698 142.926 33.0455L138.144 41.093C138.109 41.1512 138.048 41.1834 137.985 41.1834Z" fill="#475DB4"/>
<path d="M130.619 40.0349C130.536 40.0349 130.461 39.9794 130.44 39.8958L128.116 30.8278C128.094 30.7425 128.136 30.6536 128.215 30.6153L131.204 29.1737L128.785 25.8672C128.727 25.7884 128.74 25.6787 128.815 25.616C128.936 25.5147 131.784 23.1292 132.395 22.7628C132.483 22.71 132.596 22.7387 132.648 22.8262C132.701 22.9139 132.673 23.0275 132.585 23.0801C132.071 23.3883 129.766 25.304 129.186 25.7886L131.633 29.1345C131.666 29.179 131.677 29.2353 131.664 29.2886C131.65 29.3419 131.614 29.3865 131.565 29.4104L128.512 30.8827L130.798 39.8039C130.824 39.9029 130.764 40.0037 130.665 40.029C130.649 40.033 130.634 40.0349 130.619 40.0349Z" fill="#475DB4"/>
<path d="M140.343 23.9216L135.575 68.5628L129.074 67.5226L133.062 22.3613C136.446 22.4893 139.885 22.595 140.343 23.9216Z" fill="#475DB4"/>
<path d="M140.222 23.7156C139.169 26.2129 135.736 26.4795 134.309 24.1748L133.119 22.2517L136.121 13.1738L141.934 14.2193L140.222 23.7156Z" fill="white"/>
<path d="M140.58 8.83924C140.834 8.85193 143.266 9.00973 144.472 10.867C145.369 12.2489 145.267 13.8379 144.692 16.4769C144.016 19.5848 143.006 21.755 141.99 22.1953C139.502 23.2735 136.654 19.782 135.45 16.8035C134.58 14.6537 135.089 12.1248 136.605 10.3486C138.117 8.57733 140.417 8.83109 140.58 8.83924Z" fill="white"/>
<path d="M133.106 10.6694C133.106 9.91472 133.587 9.27393 134.257 9.03126C134.254 8.99647 134.252 8.96143 134.252 8.9258C134.252 8.32484 134.696 7.8289 135.274 7.74471C135.296 6.84738 136.029 6.12634 136.931 6.12634C137.2 6.12634 137.452 6.19154 137.677 6.30473C137.901 5.92408 138.315 5.66797 138.789 5.66797C139.288 5.66797 139.72 5.95156 139.935 6.3659C140.163 6.16238 140.463 6.0376 140.793 6.0376C141.1 6.0376 141.381 6.14483 141.602 6.32305C141.819 6.21474 142.063 6.15222 142.322 6.15222C143.105 6.15222 143.757 6.70941 143.904 7.44868C143.996 7.43238 144.091 7.4223 144.187 7.4223C145.079 7.4223 145.801 8.14485 145.801 9.03622C145.801 9.23494 145.764 9.42451 145.698 9.60038C146.085 9.83876 146.344 10.2654 146.344 10.7534C146.344 11.5016 145.737 12.108 144.989 12.108C144.972 12.108 144.954 12.1061 144.937 12.1053C144.806 12.5887 144.646 12.9324 144.614 13.0371C144.522 12.9059 143.331 11.7995 142.118 11.234C141.904 11.6998 141.434 12.024 140.888 12.024C140.409 12.024 139.989 11.7747 139.748 11.3993C139.269 11.9136 138.981 12.7628 138.625 13.636C138.335 13.4748 137.702 13.1843 136.978 13.3366C135.859 13.5721 135.315 15.7985 134.783 17.2623C134.184 15.0928 133.885 13.4429 133.887 12.1222C133.417 11.81 133.106 11.2762 133.106 10.6694Z" fill="#373E44"/>
<path d="M140.471 22.5209C140.459 22.5209 140.446 22.5197 140.433 22.5168C138.987 22.2079 137.371 20.7314 136.112 18.5671C136.061 18.4788 136.09 18.3654 136.179 18.3142C136.267 18.2628 136.38 18.2927 136.432 18.3811C137.64 20.4566 139.164 21.8675 140.51 22.1552C140.61 22.1765 140.674 22.2747 140.652 22.3746C140.634 22.4615 140.557 22.5209 140.471 22.5209Z" fill="#363E44"/>
<path d="M139.952 14.3965C139.952 14.3965 140.103 15.3599 140.729 16.1822C140.861 16.3549 142.004 14.9606 141.799 14.8546C140.898 14.3904 139.952 14.3965 139.952 14.3965Z" fill="white"/>
<path d="M143.635 17.527C143.635 17.527 143.414 16.1164 142.397 15.252C142.208 15.0915 142.005 14.9613 141.8 14.8555C141.253 15.0736 140.834 15.5621 140.727 16.1786C140.859 16.3526 141.012 16.5206 141.19 16.6716C142.207 17.5361 143.635 17.527 143.635 17.527Z" fill="#363E44"/>
<path d="M144.252 17.4258C144.22 17.5774 144.196 17.8035 144.267 18.0521C144.353 18.352 144.515 18.4628 144.485 18.6396C144.464 18.7582 144.356 18.916 143.936 19.0593L144.252 17.4258Z" fill="white"/>
<path d="M143.936 19.2438C143.859 19.2438 143.787 19.1954 143.76 19.1184C143.728 19.0218 143.779 18.9166 143.876 18.8837C144.249 18.7565 144.297 18.6404 144.302 18.6076C144.308 18.5758 144.289 18.5388 144.24 18.449C144.192 18.3626 144.133 18.2548 144.089 18.1026C144.025 17.878 144.019 17.6373 144.071 17.3875C144.092 17.2876 144.19 17.2231 144.29 17.2443C144.39 17.265 144.454 17.3632 144.433 17.4631C144.393 17.6536 144.397 17.8346 144.445 18.0008C144.477 18.1128 144.521 18.193 144.564 18.2705C144.628 18.3872 144.695 18.5077 144.667 18.6707C144.625 18.9099 144.406 19.094 143.995 19.2339C143.976 19.2408 143.956 19.2438 143.936 19.2438Z" fill="#363E44"/>
<path d="M137.664 16.0835C138.558 15.8105 139.021 14.7319 138.698 13.6743C138.375 12.6167 137.389 11.9807 136.495 12.2537C135.601 12.5267 135.138 13.6054 135.461 14.663C135.784 15.7205 136.771 16.3566 137.664 16.0835Z" fill="white"/>
<path d="M136.333 14.7963C136.265 14.7963 136.2 14.7591 136.167 14.6946C136.132 14.6243 136.102 14.5502 136.079 14.4742C135.987 14.1726 136 13.857 136.117 13.5856C136.238 13.3033 136.454 13.1023 136.727 13.019C136.866 12.9766 137.01 12.9673 137.155 12.9921C137.256 13.0091 137.324 13.1046 137.307 13.2053C137.29 13.3059 137.196 13.3727 137.094 13.357C137.005 13.3417 136.918 13.3475 136.835 13.3727C136.668 13.4237 136.534 13.5511 136.457 13.7315C136.375 13.9225 136.366 14.148 136.433 14.366C136.45 14.4221 136.472 14.4764 136.498 14.528C136.544 14.6192 136.507 14.7305 136.416 14.7763C136.389 14.79 136.361 14.7963 136.333 14.7963Z" fill="#363E44"/>
<path d="M142.302 20.0674C142.04 20.0674 141.789 19.9494 141.635 19.7379C141.364 19.3667 141.547 18.9342 141.555 18.916C141.596 18.8224 141.705 18.7792 141.799 18.8202C141.892 18.861 141.935 18.9702 141.894 19.0637C141.894 19.0656 141.789 19.3213 141.934 19.5196C142.051 19.6796 142.273 19.7405 142.475 19.6669C142.571 19.6328 142.677 19.682 142.712 19.7779C142.747 19.874 142.697 19.98 142.601 20.0149C142.503 20.0504 142.402 20.0674 142.302 20.0674Z" fill="#363E44"/>
<path d="M170.328 98.1501L171.108 106.172L185.628 104.761L184.849 96.7393L170.328 98.1501Z" fill="#EFBC73"/>
<path d="M158.522 105.751L160.413 110.185L175.547 103.732C176.772 103.21 177.341 101.794 176.819 100.569C176.297 99.3446 174.881 98.7751 173.656 99.2973L158.522 105.751Z" fill="#FFD092"/>
<path d="M174.803 102.348C175.307 102.229 175.619 101.724 175.5 101.22C175.381 100.716 174.876 100.404 174.372 100.523C173.868 100.642 173.556 101.147 173.675 101.651C173.794 102.155 174.299 102.467 174.803 102.348Z" fill="#F7F1EB"/>
<path d="M137.15 114.79L143.41 96.2617L162.682 111.232L163.734 114.79H137.15Z" fill="#E0AA63"/>
<path d="M152.102 55.9219C148.954 58.6918 147.557 61.5077 146.886 63.3744C143.889 71.7102 147.32 86.3691 156.574 90.017C158.934 98.2147 161.294 106.413 163.654 114.61C159.515 112.837 145.652 106.28 138.874 94.0707C135.521 88.0297 131.298 75.2636 136.638 61.884C139.744 54.1028 145.35 49.4849 148.376 47.3516C149.618 50.2083 150.86 53.0651 152.102 55.9219Z" fill="#EFBC73"/>
<path d="M166.273 91.2559C166.299 91.3319 166.326 91.4068 166.35 91.4837C167.883 96.3991 165.141 101.626 160.226 103.159C155.31 104.692 150.083 101.95 148.55 97.0348C148.526 96.9578 148.506 96.8805 148.484 96.8033L166.273 91.2559Z" fill="#FFD092"/>
<path d="M161.184 91.8998L161.472 92.8086L192.041 83.1424L191.754 82.2336L161.184 91.8998Z" fill="#EFBC73"/>
<path d="M160.901 88.7325L161.838 91.6934L191.158 82.422L190.222 79.4612L160.901 88.7325Z" fill="#FFD092"/>
<path d="M162.396 114.796C162.372 114.796 162.347 114.791 162.323 114.781C157.029 112.513 144.006 105.962 137.455 94.1615C136.209 91.9163 133.98 87.1894 133.055 80.7567C132.106 74.1479 132.831 67.7755 135.209 61.8163C138.099 54.5776 143.223 49.8731 147.012 47.2015C147.058 47.1695 147.115 47.1601 147.169 47.1746C147.222 47.1895 147.266 47.2279 147.288 47.279L151.015 55.8493C151.047 55.923 151.028 56.0089 150.967 56.062C148.529 58.2071 146.791 60.6889 145.802 63.4381C144.329 67.5371 144.425 73.2696 146.055 78.3988C147.874 84.1262 151.187 88.1916 155.384 89.8461C155.438 89.8671 155.478 89.9118 155.494 89.9671L162.574 114.56C162.594 114.629 162.572 114.703 162.519 114.75C162.484 114.78 162.441 114.796 162.396 114.796ZM147.04 47.6354C143.311 50.2998 138.362 54.9162 135.553 61.9536C129.36 77.4675 136.32 91.3554 137.779 93.982C144.131 105.424 156.642 111.898 162.11 114.286L155.164 90.1564C150.902 88.4394 147.544 84.3077 145.702 78.5107C144.05 73.308 143.954 67.4845 145.454 63.313C146.45 60.5424 148.189 58.04 150.622 55.8735L147.04 47.6354Z" fill="#363E44"/>
<path d="M152.867 46.044L155.866 55.5273L164.071 52.9328L161.072 43.4494L152.867 46.044Z" fill="#E0AA63"/>
<path d="M146.01 44.7318L151.108 60.8555L158.07 58.6543L152.971 42.5307L146.01 44.7318Z" fill="#FFD092"/>
<path d="M158.566 53.6341C160.317 51.8838 160.317 49.0459 158.566 47.2955C156.816 45.5452 153.978 45.5452 152.228 47.2955C150.477 49.0459 150.477 51.8838 152.228 53.6341C153.978 55.3845 156.816 55.3845 158.566 53.6341Z" fill="#EFBC73"/>
<path d="M155.492 52.6872C156.717 52.6398 157.673 51.6078 157.625 50.382C157.578 49.1562 156.546 48.2009 155.32 48.2483C154.094 48.2956 153.139 49.3277 153.186 50.5534C153.234 51.7792 154.266 52.7345 155.492 52.6872Z" fill="#F7F1EB"/>
<path d="M152.97 24.3119L154.899 30.4102L162.048 28.1494L160.12 22.0511L152.97 24.3119Z" fill="#EFBC73"/>
<path d="M154.46 30.1578L155.059 32.0527L162.895 29.5749L162.296 27.68L154.46 30.1578Z" fill="white"/>
<path d="M154.385 31.5292L166.451 69.6875L175.177 66.9282L163.112 28.7698L154.385 31.5292Z" fill="#FFD092"/>
<path d="M165.194 69.8782C165.115 69.8782 165.042 69.8278 165.017 69.749L152.953 31.5916C152.922 31.4941 152.976 31.3902 153.074 31.3595L161.8 28.6003C161.847 28.5857 161.897 28.59 161.941 28.6124C161.984 28.6352 162.017 28.674 162.032 28.7208L174.096 66.8784C174.111 66.9252 174.107 66.976 174.084 67.0195C174.061 67.063 174.022 67.0959 173.976 67.1106L165.249 69.8694C165.231 69.8755 165.212 69.8782 165.194 69.8782ZM153.362 31.6564L165.314 69.4609L173.688 66.8134L161.735 29.0087L153.362 31.6564Z" fill="#363E44"/>
<path d="M154.469 38.579L155.469 41.7422L168.258 37.6982L167.258 34.5351L154.469 38.579Z" fill="white"/>
<path d="M164.414 39.1053C164.335 39.1053 164.263 39.0549 164.238 38.9761L163.238 35.8133C163.207 35.7157 163.261 35.6119 163.358 35.5811C163.455 35.5498 163.56 35.6042 163.59 35.7016L164.59 38.8645C164.621 38.962 164.567 39.066 164.47 39.0966C164.451 39.1025 164.433 39.1053 164.414 39.1053Z" fill="#363E44"/>
<path d="M159.35 40.707C159.272 40.707 159.199 40.6566 159.174 40.5778L158.174 37.4148C158.143 37.3172 158.197 37.2134 158.294 37.1826C158.391 37.1515 158.496 37.2057 158.527 37.3031L159.527 40.4662C159.557 40.5638 159.503 40.6676 159.406 40.6984C159.387 40.7042 159.369 40.707 159.35 40.707Z" fill="#363E44"/>
<path d="M151.018 23.6604L151.383 24.8145L161.597 21.5845L161.232 20.4305L151.018 23.6604Z" fill="white"/>
<path d="M172.791 65.9719L177.192 74.7422L179.275 73.6967L174.874 64.9264L172.791 65.9719Z" fill="#E0AA63"/>
<path d="M176.117 73.7309L176.85 75.1914L179.84 73.6907L179.107 72.2302L176.117 73.7309Z" fill="#EFBC73"/>
<path d="M168.982 67.2122L171.94 76.5684L174.163 75.8656L171.204 66.5094L168.982 67.2122Z" fill="#E0AA63"/>
<path d="M171.072 75.3677L171.577 76.9629L174.686 75.9796L174.182 74.3844L171.072 75.3677Z" fill="#EFBC73"/>
<path d="M165.31 67.9447L166.259 77.7109L168.579 77.4855L167.63 67.7193L165.31 67.9447Z" fill="#E0AA63"/>
<path d="M165.706 76.2419L165.875 77.9766L169.008 77.6722L168.839 75.9375L165.706 76.2419Z" fill="#EFBC73"/>
<path d="M162.653 73.0514L162.712 73.2388L180.735 67.5406C180.071 65.4421 178.412 63.8081 176.304 63.177L173.748 62.4121L165.022 65.1711L163.584 67.182C162.367 68.8831 162.023 71.0574 162.653 73.0514Z" fill="#EFBC73"/>
<path d="M127.132 50.293C129.163 50.9448 130.731 51.4436 131.077 51.5668C132.792 52.1781 143.468 55.9416 143.024 57.4094C142.763 58.2716 139.586 57.1256 138.987 56.9056C139.383 57.3216 142.101 59.5826 141.746 60.2545C141.136 61.4103 137.972 58.7883 137.923 58.7889C138.368 59.1706 140.917 60.9214 140.684 61.4418C140.186 62.5555 137.481 60.9446 136.861 60.6652C136.888 60.7791 139.131 62.0675 138.826 62.8195C138.584 63.4164 135.134 62.3628 134.32 62.1457C132.795 61.6037 128.664 60.6594 125.69 59.9304C124.602 59.6638 123.581 59.3515 122.634 59.0143L127.132 50.293Z" fill="white"/>
<path d="M139.031 57.0364C138.99 57.0364 138.948 57.0224 138.913 56.9939C138.626 56.756 138.32 56.5362 138.004 56.341C137.436 55.9899 136.822 55.7082 136.18 55.504C136.082 55.4731 136.028 55.3691 136.059 55.2717C136.09 55.1743 136.194 55.1203 136.292 55.1514C136.963 55.365 137.605 55.6592 138.199 56.0262C138.529 56.2305 138.849 56.4602 139.149 56.7087C139.228 56.7739 139.239 56.8905 139.174 56.9693C139.137 57.0136 139.085 57.0364 139.031 57.0364Z" fill="#363E44"/>
<path d="M137.973 58.9434C137.938 58.9434 137.903 58.9335 137.871 58.9126C137.806 58.8696 137.739 58.8267 137.67 58.7842C137.102 58.4328 136.488 58.1513 135.846 57.9474C135.748 57.9165 135.694 57.8125 135.725 57.7151C135.756 57.6175 135.861 57.5637 135.958 57.5947C136.629 57.8078 137.27 58.1019 137.865 58.4694C137.937 58.514 138.007 58.5588 138.075 58.6038C138.16 58.6602 138.184 58.7749 138.128 58.8602C138.092 58.9141 138.033 58.9434 137.973 58.9434Z" fill="#363E44"/>
<path d="M136.826 60.8183C136.798 60.8183 136.77 60.812 136.743 60.7985C136.353 60.6012 135.943 60.4339 135.524 60.3008C135.427 60.2699 135.373 60.1659 135.404 60.0685C135.435 59.9711 135.539 59.9173 135.636 59.9482C136.074 60.0871 136.502 60.262 136.91 60.4681C137.001 60.5142 137.038 60.6255 136.992 60.7168C136.959 60.7813 136.894 60.8183 136.826 60.8183Z" fill="#363E44"/>
<path d="M207.619 31.0241H207.501C206.366 31.0241 205.445 30.1036 205.445 28.9681V9.19141H209.675V28.9681C209.675 30.1036 208.754 31.0241 207.619 31.0241Z" fill="#E6D0BE"/>
<path d="M208.313 31.1581H208.196C206.987 31.1581 206.004 30.1751 206.004 28.9668V9.19009C206.004 9.11526 206.065 9.05469 206.14 9.05469H210.369C210.444 9.05469 210.505 9.11526 210.505 9.19009V28.9668C210.505 30.1751 209.522 31.1581 208.313 31.1581ZM206.275 9.32543V28.9668C206.275 30.0258 207.137 30.8874 208.196 30.8874H208.313C209.372 30.8874 210.234 30.0259 210.234 28.9668V9.32543H206.275Z" fill="white"/>
<path d="M208.294 30.1369H208.215C207.45 30.1369 206.83 29.5168 206.83 28.7517V15.4277H209.679V28.7517C209.679 29.5167 209.059 30.1369 208.294 30.1369Z" fill="#EFBC73"/>
<path d="M208.731 29.5355C208.699 29.5355 208.668 29.5243 208.642 29.5019C208.586 29.4525 208.58 29.3669 208.629 29.3107C208.822 29.0919 208.946 28.8161 208.988 28.5133C208.998 28.4391 209.067 28.3868 209.141 28.398C209.215 28.4083 209.267 28.4768 209.256 28.5509C209.206 28.9062 209.06 29.2307 208.833 29.4895C208.806 29.5199 208.769 29.5355 208.731 29.5355Z" fill="white"/>
<path d="M209.139 28.1638C209.064 28.1638 209.004 28.1032 209.004 28.0284V25.8542C209.004 25.7793 209.064 25.7188 209.139 25.7188C209.214 25.7188 209.275 25.7793 209.275 25.8542V28.0284C209.275 28.1032 209.214 28.1638 209.139 28.1638Z" fill="white"/>
<path d="M209.139 24.5467C209.064 24.5467 209.004 24.4862 209.004 24.4113V21.7311C209.004 21.6563 209.064 21.5957 209.139 21.5957C209.214 21.5957 209.275 21.6563 209.275 21.7311V24.4113C209.275 24.4862 209.214 24.5467 209.139 24.5467Z" fill="white"/>
<path d="M211.274 7.47461H205.184V10.6029H211.274V7.47461Z" fill="#373E44"/>
<path d="M205.912 10.1012H205.902C205.797 10.1012 205.713 10.0168 205.713 9.91267V8.24127C205.713 8.13716 205.797 8.05273 205.902 8.05273H205.912C206.016 8.05273 206.101 8.13716 206.101 8.24127V9.91267C206.101 10.0168 206.016 10.1012 205.912 10.1012Z" fill="#EFBC73"/>
<path d="M207.07 10.1012H207.059C206.955 10.1012 206.871 10.0168 206.871 9.91267V8.24127C206.871 8.13716 206.955 8.05273 207.059 8.05273H207.07C207.174 8.05273 207.258 8.13716 207.258 8.24127V9.91267C207.258 10.0168 207.174 10.1012 207.07 10.1012Z" fill="#EFBC73"/>
<path d="M208.227 10.1012H208.216C208.112 10.1012 208.028 10.0168 208.028 9.91267V8.24127C208.028 8.13716 208.112 8.05273 208.216 8.05273H208.227C208.331 8.05273 208.416 8.13716 208.416 8.24127V9.91267C208.416 10.0168 208.331 10.1012 208.227 10.1012Z" fill="#EFBC73"/>
<path d="M209.385 10.1012H209.374C209.27 10.1012 209.185 10.0168 209.185 9.91267V8.24127C209.185 8.13716 209.27 8.05273 209.374 8.05273H209.385C209.489 8.05273 209.573 8.13716 209.573 8.24127V9.91267C209.573 10.0168 209.489 10.1012 209.385 10.1012Z" fill="#EFBC73"/>
<path d="M210.542 10.1012H210.531C210.427 10.1012 210.343 10.0168 210.343 9.91267V8.24127C210.343 8.13716 210.427 8.05273 210.531 8.05273H210.542C210.646 8.05273 210.731 8.13716 210.731 8.24127V9.91267C210.731 10.0168 210.646 10.1012 210.542 10.1012Z" fill="#EFBC73"/>
<path d="M215.335 31.0241H215.218C214.082 31.0241 213.162 30.1036 213.162 28.9681V9.19141H217.391V28.9681C217.391 30.1036 216.471 31.0241 215.335 31.0241Z" fill="#E6D0BE"/>
<path d="M216.03 31.1581H215.912C214.704 31.1581 213.721 30.1751 213.721 28.9668V9.19009C213.721 9.11526 213.781 9.05469 213.856 9.05469H218.086C218.16 9.05469 218.221 9.11526 218.221 9.19009V28.9668C218.221 30.1751 217.238 31.1581 216.03 31.1581ZM213.991 9.32543V28.9668C213.991 30.0258 214.853 30.8874 215.912 30.8874H216.03C217.089 30.8874 217.95 30.0259 217.95 28.9668V9.32543H213.991Z" fill="white"/>
<path d="M216.01 30.1375H215.931C215.166 30.1375 214.546 29.5174 214.546 28.7523V17.1543H217.396V28.7523C217.396 29.5173 216.776 30.1375 216.01 30.1375Z" fill="#EFBC73"/>
<path d="M216.447 29.5355C216.415 29.5355 216.384 29.5243 216.358 29.5018C216.302 29.4525 216.296 29.3669 216.346 29.3107C216.538 29.0919 216.662 28.8161 216.704 28.5133C216.714 28.4391 216.782 28.3868 216.857 28.398C216.931 28.4083 216.983 28.4768 216.972 28.5509C216.923 28.9062 216.776 29.2307 216.549 29.4895C216.522 29.5199 216.485 29.5355 216.447 29.5355Z" fill="white"/>
<path d="M216.855 28.1638C216.781 28.1638 216.72 28.1032 216.72 28.0284V25.8542C216.72 25.7793 216.781 25.7188 216.855 25.7188C216.93 25.7188 216.991 25.7793 216.991 25.8542V28.0284C216.991 28.1032 216.93 28.1638 216.855 28.1638Z" fill="white"/>
<path d="M216.855 24.5467C216.781 24.5467 216.72 24.4862 216.72 24.4113V21.7311C216.72 21.6563 216.781 21.5957 216.855 21.5957C216.93 21.5957 216.991 21.6563 216.991 21.7311V24.4113C216.991 24.4862 216.93 24.5467 216.855 24.5467Z" fill="white"/>
<path d="M218.99 7.47461H212.901V10.6029H218.99V7.47461Z" fill="#373E44"/>
<path d="M213.628 10.1012H213.618C213.514 10.1012 213.429 10.0168 213.429 9.91267V8.24127C213.429 8.13716 213.514 8.05273 213.618 8.05273H213.628C213.733 8.05273 213.817 8.13716 213.817 8.24127V9.91267C213.817 10.0168 213.733 10.1012 213.628 10.1012Z" fill="#EFBC73"/>
<path d="M214.786 10.1012H214.775C214.671 10.1012 214.587 10.0168 214.587 9.91267V8.24127C214.587 8.13716 214.671 8.05273 214.775 8.05273H214.786C214.89 8.05273 214.975 8.13716 214.975 8.24127V9.91267C214.975 10.0168 214.89 10.1012 214.786 10.1012Z" fill="#EFBC73"/>
<path d="M215.944 10.1012H215.933C215.829 10.1012 215.744 10.0168 215.744 9.91267V8.24127C215.744 8.13716 215.829 8.05273 215.933 8.05273H215.944C216.048 8.05273 216.132 8.13716 216.132 8.24127V9.91267C216.132 10.0168 216.048 10.1012 215.944 10.1012Z" fill="#EFBC73"/>
<path d="M217.101 10.1012H217.09C216.986 10.1012 216.902 10.0168 216.902 9.91267V8.24127C216.902 8.13716 216.986 8.05273 217.09 8.05273H217.101C217.205 8.05273 217.29 8.13716 217.29 8.24127V9.91267C217.29 10.0168 217.205 10.1012 217.101 10.1012Z" fill="#EFBC73"/>
<path d="M218.258 10.1012H218.248C218.144 10.1012 218.059 10.0168 218.059 9.91267V8.24127C218.059 8.13716 218.144 8.05273 218.248 8.05273H218.258C218.362 8.05273 218.447 8.13716 218.447 8.24127V9.91267C218.447 10.0168 218.362 10.1012 218.258 10.1012Z" fill="#EFBC73"/>
<path d="M223.052 31.0241H222.934C221.798 31.0241 220.878 30.1036 220.878 28.9681V9.19141H225.108V28.9681C225.108 30.1036 224.187 31.0241 223.052 31.0241Z" fill="#E6D0BE"/>
<path d="M223.746 31.1581H223.628C222.42 31.1581 221.437 30.1751 221.437 28.9668V9.19009C221.437 9.11526 221.498 9.05469 221.572 9.05469H225.802C225.877 9.05469 225.938 9.11526 225.938 9.19009V28.9668C225.938 30.1751 224.954 31.1581 223.746 31.1581ZM221.708 9.32543V28.9668C221.708 30.0258 222.569 30.8874 223.628 30.8874H223.746C224.805 30.8874 225.667 30.0259 225.667 28.9668V9.32543H221.708Z" fill="white"/>
<path d="M223.727 30.1362H223.648C222.883 30.1362 222.263 29.5161 222.263 28.751V13.7012H225.112V28.751C225.112 29.516 224.492 30.1362 223.727 30.1362Z" fill="#EFBC73"/>
<path d="M224.164 29.5355C224.132 29.5355 224.1 29.5243 224.075 29.5019C224.018 29.4525 224.013 29.3669 224.062 29.3107C224.254 29.0918 224.378 28.8161 224.421 28.5133C224.431 28.4391 224.499 28.3868 224.574 28.398C224.648 28.4083 224.699 28.4768 224.689 28.5509C224.639 28.906 224.493 29.2306 224.266 29.4895C224.239 29.5199 224.201 29.5355 224.164 29.5355Z" fill="white"/>
<path d="M224.572 28.1638C224.497 28.1638 224.436 28.1032 224.436 28.0284V25.8542C224.436 25.7793 224.497 25.7188 224.572 25.7188C224.646 25.7188 224.707 25.7793 224.707 25.8542V28.0284C224.707 28.1032 224.647 28.1638 224.572 28.1638Z" fill="white"/>
<path d="M224.572 24.5467C224.497 24.5467 224.436 24.4862 224.436 24.4113V21.7311C224.436 21.6563 224.497 21.5957 224.572 21.5957C224.646 21.5957 224.707 21.6563 224.707 21.7311V24.4113C224.707 24.4862 224.647 24.5467 224.572 24.5467Z" fill="white"/>
<path d="M226.707 7.47461H220.617V10.6029H226.707V7.47461Z" fill="#373E44"/>
<path d="M221.345 10.1012H221.334C221.23 10.1012 221.146 10.0168 221.146 9.91267V8.24127C221.146 8.13716 221.23 8.05273 221.334 8.05273H221.345C221.449 8.05273 221.533 8.13716 221.533 8.24127V9.91267C221.533 10.0168 221.449 10.1012 221.345 10.1012Z" fill="#EFBC73"/>
<path d="M222.503 10.1012H222.492C222.388 10.1012 222.303 10.0168 222.303 9.91267V8.24127C222.303 8.13716 222.388 8.05273 222.492 8.05273H222.503C222.607 8.05273 222.691 8.13716 222.691 8.24127V9.91267C222.691 10.0168 222.607 10.1012 222.503 10.1012Z" fill="#EFBC73"/>
<path d="M223.66 10.1012H223.649C223.545 10.1012 223.461 10.0168 223.461 9.91267V8.24127C223.461 8.13716 223.545 8.05273 223.649 8.05273H223.66C223.764 8.05273 223.848 8.13716 223.848 8.24127V9.91267C223.848 10.0168 223.764 10.1012 223.66 10.1012Z" fill="#EFBC73"/>
<path d="M224.817 10.1012H224.807C224.702 10.1012 224.618 10.0168 224.618 9.91267V8.24127C224.618 8.13716 224.702 8.05273 224.807 8.05273H224.817C224.921 8.05273 225.006 8.13716 225.006 8.24127V9.91267C225.006 10.0168 224.921 10.1012 224.817 10.1012Z" fill="#EFBC73"/>
<path d="M225.975 10.1012H225.964C225.86 10.1012 225.776 10.0168 225.776 9.91267V8.24127C225.776 8.13716 225.86 8.05273 225.964 8.05273H225.975C226.079 8.05273 226.163 8.13716 226.163 8.24127V9.91267C226.163 10.0168 226.079 10.1012 225.975 10.1012Z" fill="#EFBC73"/>
<path d="M227.321 32.7427H204.736C204.661 32.7427 204.6 32.6821 204.6 32.6073V19.8268C204.6 19.752 204.661 19.6914 204.736 19.6914H227.321C227.396 19.6914 227.456 19.752 227.456 19.8268V32.6073C227.456 32.6821 227.396 32.7427 227.321 32.7427ZM204.871 32.4719H227.186V19.9622H204.871V32.4719Z" fill="white"/>
<path d="M104.105 26.6276H75.9921C75.9173 26.6276 75.8567 26.567 75.8567 26.4921V5.29361C75.8567 5.21877 75.9173 5.1582 75.9921 5.1582C76.0669 5.1582 76.1275 5.21877 76.1275 5.29361V26.3568H104.105C104.18 26.3568 104.241 26.4174 104.241 26.4922C104.241 26.567 104.18 26.6276 104.105 26.6276Z" fill="white"/>
<path d="M96.7193 12.3296C96.6732 12.3296 96.6283 12.306 96.6029 12.2636C96.5646 12.1995 96.5855 12.1163 96.6497 12.078L100.487 9.78489C100.551 9.74639 100.634 9.76742 100.672 9.83168C100.711 9.89582 100.69 9.97895 100.626 10.0173L96.7886 12.3104C96.7669 12.3234 96.7429 12.3296 96.7193 12.3296Z" fill="white"/>
<path d="M94.2898 11.7162C94.2457 11.7162 94.2026 11.6948 94.1765 11.6552L88.9779 3.74096C88.9369 3.67855 88.9543 3.59462 89.0168 3.55348C89.0793 3.51246 89.1632 3.5298 89.2043 3.59234L94.4028 11.5065C94.4439 11.5689 94.4265 11.6529 94.364 11.694C94.3412 11.7091 94.3153 11.7162 94.2898 11.7162Z" fill="white"/>
<path d="M82.7882 6.57835C82.7477 6.57835 82.7076 6.56021 82.6809 6.52572C82.6352 6.4665 82.6462 6.38146 82.7053 6.33583L86.744 3.21576C86.8031 3.17013 86.8882 3.18083 86.934 3.24011C86.9797 3.29932 86.9688 3.38437 86.9096 3.42999L82.8709 6.55007C82.8462 6.56913 82.8171 6.57835 82.7882 6.57835Z" fill="white"/>
<path d="M81.4784 9.28704C80.4854 9.28704 79.6776 8.47916 79.6776 7.4862C79.6776 6.49324 80.4854 5.68555 81.4784 5.68555C82.4713 5.68555 83.2792 6.4933 83.2792 7.4862C83.2792 8.47922 82.4713 9.28704 81.4784 9.28704ZM81.4784 5.95635C80.6348 5.95635 79.9484 6.64272 79.9484 7.48626C79.9484 8.32992 80.6348 9.01629 81.4784 9.01629C82.322 9.01629 83.0084 8.32992 83.0084 7.48626C83.0084 6.64266 82.322 5.95635 81.4784 5.95635Z" fill="white"/>
<path d="M88.1926 4.10539C87.1997 4.10539 86.3918 3.29752 86.3918 2.30456C86.3918 1.31159 87.1997 0.503906 88.1926 0.503906C89.1856 0.503906 89.9934 1.31159 89.9934 2.30456C89.9934 3.29752 89.1856 4.10539 88.1926 4.10539ZM88.1926 0.774652C87.349 0.774652 86.6627 1.46102 86.6627 2.30456C86.6627 3.14822 87.349 3.83459 88.1926 3.83459C89.0362 3.83459 89.7226 3.14822 89.7226 2.30456C89.7226 1.46102 89.0362 0.774652 88.1926 0.774652Z" fill="white"/>
<path d="M95.2523 14.7909C94.2594 14.7909 93.4515 13.9831 93.4515 12.9901C93.4515 11.9971 94.2594 11.1895 95.2523 11.1895C96.2453 11.1895 97.0531 11.9971 97.0531 12.9901C97.0531 13.9831 96.2452 14.7909 95.2523 14.7909ZM95.2523 11.4602C94.4087 11.4602 93.7223 12.1466 93.7223 12.9901C93.7223 13.8338 94.4087 14.5201 95.2523 14.5201C96.0959 14.5201 96.7823 13.8338 96.7823 12.9901C96.7823 12.1466 96.0959 11.4602 95.2523 11.4602Z" fill="white"/>
<path d="M102.02 10.9062C101.027 10.9062 100.219 10.0984 100.219 9.1054C100.219 8.11244 101.027 7.30469 102.02 7.30469C103.013 7.30469 103.821 8.11244 103.821 9.1054C103.821 10.0984 103.013 10.9062 102.02 10.9062ZM102.02 7.5755C101.176 7.5755 100.49 8.26186 100.49 9.1054C100.49 9.94906 101.176 10.6354 102.02 10.6354C102.864 10.6354 103.55 9.94906 103.55 9.1054C103.55 8.26186 102.864 7.5755 102.02 7.5755Z" fill="white"/>
<path d="M83.6519 11.7969H79.5103V23.1532H83.6519V11.7969Z" fill="white"/>
<path d="M90.4869 9.5332H86.3452V23.152H90.4869V9.5332Z" fill="white"/>
<path d="M97.3219 15.8125H93.1802V23.1514H97.3219V15.8125Z" fill="white"/>
<path d="M104.157 13.7051H100.015V23.1513H104.157V13.7051Z" fill="white"/>
</g>
<defs>
<clipPath id="clip0_535_9219">
<rect y="0.5" width="310" height="103.333" rx="6.2" fill="white"/>
</clipPath>
</defs>
</svg>
