<svg width="231" height="322" viewBox="0 0 231 322" fill="none" xmlns="http://www.w3.org/2000/svg">
<rect x="0.81543" y="0.314453" width="230" height="321.37" rx="18.9041" fill="#EAEEFF"/>
<path d="M62.6743 61.918V61.8171C62.9767 61.8171 65.7997 61.3634 65.7997 56.2719V28.2434C65.7997 23.1519 62.9767 22.6982 62.6743 22.6982V22.5974H77.0918V22.6982C76.7893 22.6982 73.9663 23.1519 73.9663 28.2434V56.2719C73.9663 61.3634 76.7893 61.8171 77.0918 61.8171V61.918H62.6743ZM82.2979 61.918V61.8171C82.6004 61.8171 85.4234 61.3634 85.4234 56.2719V28.2434C85.4234 23.1519 82.6004 22.6982 82.2979 22.6982V22.5974H91.6744L113.452 49.0632V28.2434C113.452 23.1519 110.629 22.6982 110.326 22.6982V22.5974H117.989V22.6982C117.686 22.6982 114.863 23.1519 114.863 28.2434V62.2204L86.8349 28.2434V56.2719C86.8349 61.3634 89.6579 61.8171 89.9604 61.8171V61.918H82.2979ZM126.307 23.9081C120.611 23.9081 120.057 29.9574 120.057 30.5623H119.956V22.5974H152.32V30.5623H152.219C152.219 29.9574 151.664 23.9081 145.968 23.9081H140.221V56.2719C140.221 61.3634 143.044 61.8171 143.346 61.8171V61.918H128.929V61.8171C129.231 61.8171 132.054 61.3634 132.054 56.2719V23.9081H126.307ZM154.316 72.5043C157.643 72.5043 158.046 66.6062 158.046 62.0692V28.2434C158.046 23.1519 155.223 22.6982 154.921 22.6982V22.5974H169.338V22.6982C169.036 22.6982 166.213 23.1519 166.213 28.2434V61.9684C166.213 68.7739 161.474 72.6051 154.316 72.6051V72.5043Z" fill="#475DB4"/>
<path d="M60.2555 91.6445V91.613C60.3501 91.613 61.2323 91.4712 61.2323 89.8801V81.1212C61.2323 79.5301 60.3501 79.3884 60.2555 79.3884V79.3569H63.1857L69.9912 87.6274V81.1212C69.9912 79.5301 69.109 79.3884 69.0145 79.3884V79.3569H71.409V79.3884C71.3145 79.3884 70.4323 79.5301 70.4323 81.1212V91.7391L61.6734 81.1212V89.8801C61.6734 91.4712 62.5556 91.613 62.6501 91.613V91.6445H60.2555ZM73.0752 80.8062C73.0752 79.2151 72.193 79.0733 72.0984 79.0733V79.0418H75.5957V84.0514C75.9738 83.1692 76.8245 82.2555 78.5573 82.2555C79.345 82.2555 80.0539 82.4918 80.5738 82.9486C81.0779 83.4055 81.393 84.0829 81.393 84.9808V89.8801C81.393 91.4712 82.2752 91.613 82.3697 91.613V91.6445H77.8957V91.613C77.9902 91.613 78.8724 91.4712 78.8724 89.8801V85.1856C78.8724 84.7918 78.8409 84.2719 78.6361 83.8466C78.4313 83.437 78.069 83.1377 77.5176 83.1377C76.3991 83.1377 75.5957 84.2562 75.5957 85.8V89.8801C75.5957 91.4712 76.4779 91.613 76.5724 91.613V91.6445H72.0984V91.613C72.193 91.613 73.0752 91.4712 73.0752 89.8801V80.8062ZM86.7222 82.9171C84.9578 82.9171 83.8551 84.3822 83.7133 85.2959H83.666C83.8078 83.6418 85.1468 82.2555 87.6201 82.2555C88.4708 82.2555 89.6838 82.3815 90.503 83.0747C91.0071 83.5158 91.3537 84.1774 91.3537 85.1856V89.8801C91.3537 91.4712 92.2359 91.613 92.3304 91.613V91.6445H88.8331V90.211C88.392 90.9514 87.4626 91.7391 85.7927 91.7391C84.2804 91.7391 83.1304 91.0144 83.1304 89.4706C83.1304 87.4226 85.1468 86.0521 88.8331 85.9575V85.2486C88.8331 84.3507 88.6126 83.7521 88.2188 83.3897C87.8564 83.0589 87.3366 82.9171 86.7222 82.9171ZM85.6509 89.4706C85.6509 90.2267 86.0763 90.9986 86.9427 90.9986C87.9982 90.9986 88.7386 89.9274 88.8331 89.6123V86.3356C86.4071 86.3671 85.6509 88.3206 85.6509 89.4706ZM85.966 80.4596V80.4123L86.8009 79.2466H86.8482C87.4941 80.1445 88.6441 81.3733 89.4003 81.6726L89.353 81.7199C88.4235 81.5938 86.7694 81.074 85.966 80.4596ZM96.8055 91.6445V91.613C96.9 91.613 97.7822 91.4712 97.7822 89.8801V80.8062C97.7822 79.2151 96.9 79.0733 96.8055 79.0733V79.0418H100.303V89.8801C100.303 91.4712 101.185 91.613 101.279 91.613V91.6445H96.8055ZM100.303 86.6664L102.618 83.5788C103.28 82.7123 102.713 82.4288 102.697 82.4288V82.413H106.147V82.4288C105.942 82.4288 104.525 82.8226 103.674 83.6575L101.059 86.2884H102.319C103.611 86.2884 104.162 86.6507 104.603 87.9582L105.202 89.6911C105.627 90.9514 106.132 91.3767 106.888 91.0144L106.919 91.0459C106.116 91.5815 105.454 91.8021 104.477 91.8021C103.611 91.8021 103.028 91.5343 102.729 90.6206L101.91 88.163C101.547 87.0918 101.216 86.6664 100.618 86.6664H100.303ZM108.09 80.8062C108.09 79.2151 107.207 79.0733 107.113 79.0733V79.0418H110.61V84.0514C110.988 83.1692 111.839 82.2555 113.572 82.2555C114.359 82.2555 115.068 82.4918 115.588 82.9486C116.092 83.4055 116.407 84.0829 116.407 84.9808V89.8801C116.407 91.4712 117.29 91.613 117.384 91.613V91.6445H112.91V91.613C113.005 91.613 113.887 91.4712 113.887 89.8801V85.1856C113.887 84.7918 113.855 84.2719 113.651 83.8466C113.446 83.437 113.083 83.1377 112.532 83.1377C111.414 83.1377 110.61 84.2562 110.61 85.8V89.8801C110.61 91.4712 111.492 91.613 111.587 91.613V91.6445H107.113V91.613C107.207 91.613 108.09 91.4712 108.09 89.8801V80.8062ZM122.713 91.8336C119.657 91.8336 118.145 89.6596 118.145 87.0445C118.145 84.4295 119.657 82.2555 122.713 82.2555C125.77 82.2555 127.282 84.4295 127.282 87.0445C127.282 89.6596 125.77 91.8336 122.713 91.8336ZM120.728 87.0445C120.728 89.376 121.264 91.4555 122.713 91.4555C124.163 91.4555 124.714 89.376 124.714 87.0445C124.714 84.713 124.163 82.6336 122.713 82.6336C121.264 82.6336 120.728 84.713 120.728 87.0445ZM131.629 82.9171C129.864 82.9171 128.762 84.3822 128.62 85.2959H128.573C128.714 83.6418 130.053 82.2555 132.527 82.2555C133.377 82.2555 134.59 82.3815 135.41 83.0747C135.914 83.5158 136.26 84.1774 136.26 85.1856V89.8801C136.26 91.4712 137.142 91.613 137.237 91.613V91.6445H133.74V90.211C133.299 90.9514 132.369 91.7391 130.699 91.7391C129.187 91.7391 128.037 91.0144 128.037 89.4706C128.037 87.4226 130.053 86.0521 133.74 85.9575V85.2486C133.74 84.3507 133.519 83.7521 133.125 83.3897C132.763 83.0589 132.243 82.9171 131.629 82.9171ZM130.557 89.4706C130.557 90.2267 130.983 90.9986 131.849 90.9986C132.905 90.9986 133.645 89.9274 133.74 89.6123V86.3356C131.314 86.3671 130.557 88.3206 130.557 89.4706ZM142.689 80.8062C142.689 79.2151 141.807 79.0733 141.712 79.0733V79.0418H145.209V84.0514C145.587 83.1692 146.438 82.2555 148.171 82.2555C148.959 82.2555 149.667 82.4918 150.187 82.9486C150.691 83.4055 151.007 84.0829 151.007 84.9808V89.8801C151.007 91.4712 151.889 91.613 151.983 91.613V91.6445H147.509V91.613C147.604 91.613 148.486 91.4712 148.486 89.8801V85.1856C148.486 84.7918 148.454 84.2719 148.25 83.8466C148.045 83.437 147.683 83.1377 147.131 83.1377C146.013 83.1377 145.209 84.2562 145.209 85.8V89.8801C145.209 91.4712 146.091 91.613 146.186 91.613V91.6445H141.712V91.613C141.807 91.613 142.689 91.4712 142.689 89.8801V80.8062ZM157.312 91.8336C154.256 91.8336 152.744 89.6596 152.744 87.0445C152.744 84.4295 154.256 82.2555 157.312 82.2555C160.369 82.2555 161.881 84.4295 161.881 87.0445C161.881 89.6596 160.369 91.8336 157.312 91.8336ZM155.328 87.0445C155.328 89.376 155.863 91.4555 157.312 91.4555C158.762 91.4555 159.313 89.376 159.313 87.0445C159.313 84.713 158.762 82.6336 157.312 82.6336C155.863 82.6336 155.328 84.713 155.328 87.0445ZM156.367 93.5349C156.367 92.9993 156.777 92.5897 157.312 92.5897C157.848 92.5897 158.258 92.9993 158.258 93.5349C158.258 94.0706 157.848 94.4801 157.312 94.4801C156.777 94.4801 156.367 94.0706 156.367 93.5349ZM167.714 91.8336C164.657 91.8336 163.082 89.8171 163.082 87.0445C163.082 84.4295 164.815 82.2555 168.029 82.2555C169.384 82.2555 170.423 82.7281 170.88 82.7281V85.2486H170.833C170.77 84.8075 170.644 83.9726 170.14 83.3582C169.809 82.9486 169.289 82.6336 168.501 82.6336C166.264 82.6336 165.666 84.713 165.666 87.0445C165.666 89.376 166.579 91.1404 168.675 91.1404C169.888 91.1404 170.628 90.4945 171.069 89.7541L171.116 89.7856C171.022 90.0849 170.329 91.8336 167.714 91.8336Z" fill="#475DB4"/>
<g clip-path="url(#clip0_569_4396)">
<path d="M115.815 306.72C170.627 306.72 215.062 262.286 215.062 207.473C215.062 152.661 170.627 108.227 115.815 108.227C61.0026 108.227 16.5684 152.661 16.5684 207.473C16.5684 262.286 61.0026 306.72 115.815 306.72Z" fill="#475DB4"/>
<path d="M53.4541 134.067C53.9038 131.296 52.0223 128.685 49.2516 128.236C46.4809 127.786 43.8703 129.668 43.4206 132.438C42.971 135.209 44.8525 137.82 47.6232 138.269C50.3939 138.719 53.0045 136.837 53.4541 134.067Z" fill="#E6D0BE"/>
<path d="M34.3626 162.202C37.1695 162.202 39.4449 159.926 39.4449 157.119C39.4449 154.313 37.1695 152.037 34.3626 152.037C31.5557 152.037 29.2803 154.313 29.2803 157.119C29.2803 159.926 31.5557 162.202 34.3626 162.202Z" fill="#E6D0BE"/>
<path d="M62.3587 162.391C65.1656 162.391 67.441 160.116 67.441 157.309C67.441 154.502 65.1656 152.227 62.3587 152.227C59.5518 152.227 57.2764 154.502 57.2764 157.309C57.2764 160.116 59.5518 162.391 62.3587 162.391Z" fill="#E6D0BE"/>
<path d="M76.2913 186.161C79.0982 186.161 81.3736 183.885 81.3736 181.078C81.3736 178.272 79.0982 175.996 76.2913 175.996C73.4844 175.996 71.209 178.272 71.209 181.078C71.209 183.885 73.4844 186.161 76.2913 186.161Z" fill="#E6D0BE"/>
<path d="M48.4173 186.549C51.2242 186.549 53.4996 184.274 53.4996 181.467C53.4996 178.66 51.2242 176.385 48.4173 176.385C45.6104 176.385 43.335 178.66 43.335 181.467C43.335 184.274 45.6104 186.549 48.4173 186.549Z" fill="#E6D0BE"/>
<path d="M48.3932 181.723C48.3519 181.723 48.3107 181.712 48.2737 181.691L34.3315 173.642C34.2574 173.599 34.2119 173.52 34.2119 173.434V157.335C34.2119 157.25 34.2574 157.171 34.3315 157.128L48.2737 149.079C48.3477 149.036 48.4388 149.036 48.5128 149.079L62.4551 157.128C62.5292 157.171 62.5747 157.25 62.5747 157.335V173.434C62.5747 173.52 62.5292 173.599 62.4551 173.642L48.5128 181.691C48.4759 181.712 48.4346 181.723 48.3932 181.723ZM34.6903 173.296L48.3932 181.208L62.0964 173.296V157.473L48.3932 149.562L34.6903 157.473V173.296Z" fill="#E6D0BE"/>
<path d="M48.4218 149.461C48.2897 149.461 48.1826 149.354 48.1826 149.222V133.123C48.1826 133.037 48.2281 132.958 48.3022 132.916L62.2445 124.866C62.3185 124.823 62.4096 124.823 62.4836 124.866L76.4258 132.916C76.5403 132.982 76.5794 133.128 76.5133 133.242C76.4471 133.357 76.3013 133.396 76.1866 133.33L62.3639 125.349L48.6608 133.261V149.222C48.6608 149.354 48.5539 149.461 48.4218 149.461Z" fill="#E6D0BE"/>
<path d="M48.5827 198.002C48.4506 198.002 48.3435 197.895 48.3435 197.763V181.802L34.6403 173.89L20.8177 181.871C20.7032 181.937 20.557 181.898 20.491 181.783C20.4251 181.669 20.4642 181.522 20.5786 181.456L34.5207 173.407C34.5948 173.364 34.6858 173.364 34.7599 173.407L48.7022 181.456C48.7762 181.499 48.8217 181.578 48.8217 181.664V197.763C48.8218 197.895 48.7148 198.002 48.5827 198.002Z" fill="#E6D0BE"/>
<path d="M76.2878 181.723C76.2464 181.723 76.2052 181.713 76.1682 181.691L62.226 173.642C62.1519 173.599 62.1064 173.52 62.1064 173.435V157.336C62.1064 157.25 62.1519 157.171 62.226 157.129L76.1682 149.079C76.2822 149.013 76.4288 149.052 76.4949 149.167C76.5609 149.281 76.5217 149.427 76.4074 149.493L62.5848 157.474V173.297L76.2878 181.208L90.1103 173.228C90.2244 173.161 90.3709 173.201 90.4371 173.315C90.503 173.43 90.4639 173.576 90.3495 173.642L76.4074 181.691C76.3703 181.713 76.3292 181.723 76.2878 181.723Z" fill="#E6D0BE"/>
<path d="M206.316 268.282H79.622C79.4899 268.282 79.3828 268.175 79.3828 268.042V179.331C79.3828 179.199 79.4899 179.092 79.622 179.092H206.316C206.448 179.092 206.555 179.199 206.555 179.331V268.042C206.555 268.175 206.447 268.282 206.316 268.282ZM79.8612 267.803H206.076V179.57H79.8612V267.803Z" fill="#475DB4"/>
<path d="M206.947 171.42H79.2891V179.638H206.947V171.42Z" fill="#475DB4"/>
<path d="M86.4538 175.45C86.4538 176.457 85.6363 177.273 84.6278 177.273C83.6193 177.273 82.8018 176.457 82.8018 175.45C82.8018 174.443 83.6193 173.627 84.6278 173.627C85.6363 173.627 86.4538 174.443 86.4538 175.45Z" fill="white"/>
<path d="M92.3532 175.45C92.3532 176.457 91.5357 177.273 90.5272 177.273C89.5187 177.273 88.7012 176.457 88.7012 175.45C88.7012 174.443 89.5187 173.627 90.5272 173.627C91.5357 173.627 92.3532 174.443 92.3532 175.45Z" fill="white"/>
<path d="M98.2527 175.45C98.2527 176.457 97.4351 177.273 96.4266 177.273C95.4181 177.273 94.6006 176.457 94.6006 175.45C94.6006 174.443 95.4181 173.627 96.4266 173.627C97.4351 173.627 98.2527 174.443 98.2527 175.45Z" fill="white"/>
<path d="M204.422 235.443H169.913V237.468H204.422V235.443Z" fill="#E6D0BE"/>
<path d="M198.591 240.229H169.913V242.254H198.591V240.229Z" fill="#E6D0BE"/>
<path d="M203.652 244.82H170.35V246.846H203.652V244.82Z" fill="#E6D0BE"/>
<path d="M131.107 185.49H101.139V187.515H131.107V185.49Z" fill="#E6D0BE"/>
<path d="M116.14 190.59H101.139V192.615H116.14V190.59Z" fill="#E6D0BE"/>
<path d="M122.831 248.569C119.712 248.569 116.726 247.858 113.788 247.16C112.905 246.949 111.992 246.732 111.092 246.538C110.963 246.511 110.881 246.383 110.909 246.254C110.937 246.125 111.064 246.042 111.193 246.071C112.098 246.266 113.014 246.483 113.899 246.694C119.862 248.113 126.027 249.58 133.072 244.89C140.116 240.2 141.14 233.945 142.131 227.897C143.138 221.748 144.18 215.389 151.397 210.584C158.615 205.777 164.884 207.269 170.946 208.711C176.909 210.13 183.074 211.596 190.119 206.907C196.553 202.622 197.964 197.098 198.943 191.34C198.965 191.209 199.087 191.123 199.218 191.144C199.349 191.166 199.436 191.289 199.414 191.42C198.418 197.286 196.977 202.915 190.384 207.305C183.166 212.111 176.898 210.619 170.835 209.177C164.873 207.758 158.707 206.292 151.663 210.982C144.618 215.672 143.594 221.926 142.603 227.974C141.596 234.124 140.554 240.483 133.337 245.288C129.616 247.765 126.148 248.569 122.831 248.569Z" fill="#475DB4"/>
<path d="M125.388 249.795C121.421 249.795 117.557 248.462 113.766 247.154C112.86 246.841 111.922 246.517 111 246.218C110.875 246.177 110.806 246.042 110.847 245.917C110.888 245.791 111.022 245.722 111.148 245.763C112.074 246.064 113.014 246.388 113.922 246.701C120.437 248.95 127.173 251.274 134.205 246.592C141.237 241.91 141.69 234.799 142.129 227.921C142.574 220.927 143.035 213.696 150.265 208.882C157.494 204.068 164.345 206.433 170.969 208.719C177.483 210.967 184.22 213.291 191.252 208.609C198.124 204.033 198.566 197.247 198.993 190.685C199.001 190.553 199.119 190.455 199.247 190.461C199.379 190.47 199.478 190.584 199.47 190.715C199.036 197.394 198.586 204.301 191.518 209.007C184.288 213.821 177.438 211.457 170.813 209.171C164.298 206.923 157.562 204.598 150.53 209.28C143.498 213.962 143.044 221.074 142.606 227.952C142.16 234.945 141.699 242.177 134.47 246.99C131.377 249.049 128.353 249.795 125.388 249.795Z" fill="#475DB4"/>
<path d="M112.725 252.866C112.705 252.866 112.684 252.863 112.664 252.858C112.536 252.824 112.46 252.694 112.493 252.566C112.984 250.705 113.302 248.765 113.609 246.889C114.617 240.739 115.658 234.38 122.876 229.575C130.094 224.768 136.363 226.26 142.425 227.703C148.388 229.121 154.554 230.588 161.598 225.898C168.642 221.208 169.666 214.953 170.657 208.905C171.665 202.756 172.706 196.397 179.924 191.591C186.505 187.209 192.209 188.036 197.956 189.363C198.085 189.392 198.165 189.521 198.135 189.649C198.106 189.778 197.977 189.859 197.848 189.829C192.207 188.527 186.612 187.713 180.189 191.989C173.145 196.68 172.12 202.934 171.129 208.982C170.122 215.132 169.08 221.49 161.863 226.296C154.645 231.102 148.376 229.61 142.314 228.168C136.351 226.749 130.186 225.283 123.141 229.973C116.097 234.663 115.072 240.917 114.081 246.966C113.772 248.853 113.452 250.805 112.956 252.688C112.927 252.795 112.831 252.866 112.725 252.866Z" fill="#475DB4"/>
<path d="M113.13 254.087C113.117 254.087 113.103 254.086 113.089 254.084C112.959 254.062 112.872 253.938 112.894 253.808C113.281 251.55 113.426 249.161 113.566 246.851C113.992 239.827 114.433 232.565 121.663 227.75C128.893 222.936 135.763 225.331 142.408 227.647C148.942 229.925 155.699 232.28 162.731 227.598C169.763 222.916 170.196 215.774 170.614 208.867C171.04 201.844 171.481 194.581 178.71 189.767C185.536 185.222 192.164 187.468 197.491 189.273C197.616 189.315 197.683 189.451 197.64 189.576C197.598 189.701 197.463 189.768 197.337 189.726C190.69 187.474 185.117 186.076 178.975 190.165C171.944 194.847 171.511 201.989 171.092 208.896C170.666 215.92 170.226 223.182 162.996 227.996C155.766 232.81 148.895 230.415 142.251 228.099C135.717 225.822 128.96 223.467 121.928 228.148C114.896 232.831 114.462 239.973 114.044 246.88C113.903 249.203 113.757 251.605 113.365 253.888C113.346 254.005 113.244 254.087 113.13 254.087Z" fill="#475DB4"/>
<path d="M161.074 225.722C160.997 225.722 160.921 225.685 160.875 225.616L156.601 219.196C156.527 219.086 156.557 218.938 156.667 218.865C156.777 218.791 156.926 218.821 156.999 218.931L161.273 225.35C161.346 225.46 161.317 225.609 161.206 225.682C161.166 225.709 161.12 225.722 161.074 225.722Z" fill="#475DB4"/>
<path d="M156.121 218.282C156.043 218.282 155.967 218.245 155.921 218.176L151.573 211.645C151.5 211.535 151.53 211.387 151.64 211.314C151.75 211.24 151.898 211.27 151.971 211.38L156.319 217.911C156.393 218.021 156.363 218.169 156.253 218.242C156.212 218.269 156.166 218.282 156.121 218.282Z" fill="#475DB4"/>
<path d="M158.862 227.195C158.785 227.195 158.709 227.157 158.663 227.088L154.389 220.669C154.316 220.559 154.345 220.41 154.455 220.337C154.565 220.264 154.714 220.294 154.787 220.404L159.061 226.823C159.134 226.933 159.105 227.082 158.995 227.155C158.954 227.182 158.908 227.195 158.862 227.195Z" fill="#475DB4"/>
<path d="M153.909 219.753C153.831 219.753 153.756 219.716 153.709 219.647L149.361 213.116C149.288 213.006 149.318 212.858 149.428 212.785C149.538 212.711 149.686 212.741 149.76 212.851L154.108 219.381C154.181 219.491 154.151 219.64 154.041 219.713C154 219.74 153.954 219.753 153.909 219.753Z" fill="#475DB4"/>
<path d="M156.31 228.157C156.233 228.157 156.157 228.12 156.111 228.051L152.177 222.142C152.104 222.032 152.133 221.883 152.243 221.81C152.353 221.736 152.502 221.766 152.575 221.876L156.509 227.785C156.582 227.895 156.553 228.044 156.443 228.117C156.402 228.144 156.356 228.157 156.31 228.157Z" fill="#475DB4"/>
<path d="M151.697 221.227C151.619 221.227 151.544 221.19 151.497 221.12L147.489 215.101C147.416 214.991 147.446 214.842 147.556 214.769C147.666 214.695 147.814 214.726 147.888 214.835L151.896 220.855C151.969 220.965 151.939 221.114 151.829 221.187C151.788 221.214 151.742 221.227 151.697 221.227Z" fill="#475DB4"/>
<path d="M153.531 228.779C153.454 228.779 153.378 228.741 153.332 228.672L149.964 223.614C149.891 223.504 149.92 223.356 150.031 223.283C150.14 223.209 150.289 223.239 150.362 223.349L153.73 228.407C153.803 228.517 153.773 228.666 153.663 228.739C153.623 228.766 153.577 228.779 153.531 228.779Z" fill="#475DB4"/>
<path d="M149.485 222.7C149.407 222.7 149.331 222.663 149.285 222.594L145.957 217.595C145.884 217.485 145.914 217.336 146.024 217.263C146.134 217.189 146.282 217.22 146.355 217.33L149.683 222.328C149.757 222.438 149.727 222.587 149.617 222.66C149.576 222.687 149.53 222.7 149.485 222.7Z" fill="#475DB4"/>
<path d="M150.413 228.89C150.335 228.89 150.26 228.853 150.213 228.784L147.752 225.087C147.679 224.977 147.709 224.828 147.819 224.755C147.928 224.681 148.077 224.712 148.15 224.822L150.612 228.518C150.685 228.628 150.655 228.777 150.545 228.85C150.504 228.877 150.458 228.89 150.413 228.89Z" fill="#475DB4"/>
<path d="M147.272 224.173C147.194 224.173 147.118 224.135 147.072 224.066L144.65 220.429C144.577 220.319 144.607 220.17 144.717 220.097C144.827 220.023 144.975 220.054 145.049 220.164L147.47 223.801C147.544 223.911 147.514 224.059 147.404 224.133C147.363 224.16 147.317 224.173 147.272 224.173Z" fill="#475DB4"/>
<path d="M147.068 228.663C146.99 228.663 146.915 228.625 146.868 228.556L145.54 226.561C145.467 226.451 145.497 226.303 145.607 226.23C145.717 226.156 145.865 226.186 145.938 226.296L147.267 228.291C147.34 228.401 147.31 228.549 147.2 228.623C147.159 228.65 147.113 228.663 147.068 228.663Z" fill="#475DB4"/>
<path d="M145.06 225.647C144.982 225.647 144.906 225.609 144.86 225.54L143.571 223.604C143.498 223.494 143.528 223.346 143.638 223.273C143.748 223.199 143.896 223.229 143.97 223.339L145.258 225.275C145.332 225.385 145.302 225.534 145.192 225.607C145.151 225.634 145.105 225.647 145.06 225.647Z" fill="#475DB4"/>
<path d="M158.26 216.699C158.182 216.699 158.106 216.662 158.06 216.592L153.786 210.173C153.713 210.063 153.743 209.914 153.853 209.841C153.963 209.767 154.111 209.798 154.184 209.908L158.459 216.327C158.532 216.437 158.502 216.586 158.392 216.659C158.351 216.686 158.305 216.699 158.26 216.699Z" fill="#475DB4"/>
<path d="M163.287 224.249C163.209 224.249 163.133 224.212 163.087 224.143L158.739 217.612C158.666 217.502 158.696 217.354 158.806 217.281C158.916 217.207 159.064 217.237 159.138 217.347L163.485 223.877C163.559 223.987 163.529 224.136 163.419 224.209C163.378 224.236 163.332 224.249 163.287 224.249Z" fill="#475DB4"/>
<path d="M160.472 215.225C160.394 215.225 160.318 215.188 160.272 215.119L156.338 209.21C156.265 209.1 156.295 208.951 156.405 208.878C156.514 208.805 156.663 208.835 156.736 208.945L160.671 214.854C160.744 214.964 160.714 215.112 160.604 215.185C160.563 215.212 160.517 215.225 160.472 215.225Z" fill="#475DB4"/>
<path d="M165.159 222.266C165.081 222.266 165.006 222.229 164.959 222.159L160.951 216.14C160.878 216.03 160.908 215.881 161.018 215.808C161.128 215.734 161.276 215.764 161.349 215.874L165.358 221.894C165.431 222.004 165.401 222.153 165.291 222.226C165.25 222.253 165.204 222.266 165.159 222.266Z" fill="#475DB4"/>
<path d="M162.683 213.751C162.606 213.751 162.53 213.714 162.484 213.645L159.116 208.587C159.043 208.477 159.073 208.328 159.183 208.255C159.293 208.182 159.441 208.212 159.514 208.322L162.882 213.38C162.955 213.49 162.926 213.638 162.816 213.711C162.775 213.739 162.729 213.751 162.683 213.751Z" fill="#475DB4"/>
<path d="M166.692 219.772C166.614 219.772 166.538 219.735 166.492 219.666L163.164 214.667C163.091 214.557 163.121 214.409 163.231 214.335C163.34 214.261 163.489 214.292 163.562 214.402L166.891 219.401C166.964 219.511 166.934 219.659 166.824 219.732C166.783 219.759 166.737 219.772 166.692 219.772Z" fill="#475DB4"/>
<path d="M164.895 212.279C164.818 212.279 164.742 212.242 164.696 212.172L162.234 208.476C162.161 208.366 162.191 208.217 162.301 208.144C162.411 208.07 162.559 208.1 162.633 208.21L165.094 211.907C165.167 212.017 165.137 212.166 165.027 212.239C164.987 212.266 164.941 212.279 164.895 212.279Z" fill="#475DB4"/>
<path d="M167.997 216.936C167.92 216.936 167.844 216.899 167.798 216.83L165.376 213.192C165.303 213.082 165.333 212.934 165.443 212.861C165.553 212.787 165.701 212.817 165.774 212.927L168.196 216.565C168.269 216.675 168.239 216.823 168.129 216.896C168.089 216.924 168.043 216.936 167.997 216.936Z" fill="#475DB4"/>
<path d="M167.108 210.805C167.03 210.805 166.955 210.768 166.909 210.699L165.58 208.704C165.507 208.594 165.537 208.445 165.647 208.372C165.756 208.299 165.905 208.329 165.978 208.439L167.307 210.433C167.38 210.543 167.35 210.692 167.24 210.765C167.199 210.792 167.153 210.805 167.108 210.805Z" fill="#475DB4"/>
<path d="M169.076 213.762C168.999 213.762 168.923 213.725 168.877 213.655L167.588 211.72C167.515 211.61 167.545 211.461 167.655 211.388C167.764 211.314 167.913 211.344 167.986 211.455L169.275 213.391C169.348 213.5 169.318 213.649 169.208 213.722C169.168 213.749 169.122 213.762 169.076 213.762Z" fill="#475DB4"/>
<path d="M132.486 244.756C132.409 244.756 132.333 244.718 132.287 244.649L128.013 238.229C127.94 238.119 127.969 237.971 128.079 237.898C128.189 237.824 128.338 237.854 128.411 237.964L132.685 244.384C132.758 244.494 132.729 244.642 132.619 244.715C132.578 244.743 132.532 244.756 132.486 244.756Z" fill="#475DB4"/>
<path d="M127.533 237.315C127.455 237.315 127.379 237.278 127.333 237.209L122.985 230.679C122.912 230.569 122.942 230.42 123.052 230.347C123.162 230.273 123.31 230.303 123.384 230.413L127.732 236.944C127.805 237.054 127.775 237.202 127.665 237.275C127.624 237.303 127.578 237.315 127.533 237.315Z" fill="#475DB4"/>
<path d="M130.274 246.228C130.197 246.228 130.121 246.191 130.075 246.121L125.801 239.702C125.728 239.592 125.757 239.444 125.867 239.371C125.977 239.297 126.126 239.327 126.199 239.437L130.473 245.856C130.546 245.966 130.517 246.115 130.407 246.188C130.366 246.215 130.32 246.228 130.274 246.228Z" fill="#475DB4"/>
<path d="M125.321 238.788C125.244 238.788 125.168 238.751 125.122 238.682L120.774 232.151C120.7 232.041 120.73 231.893 120.84 231.82C120.95 231.746 121.098 231.776 121.172 231.886L125.52 238.416C125.593 238.526 125.563 238.675 125.453 238.748C125.412 238.775 125.366 238.788 125.321 238.788Z" fill="#475DB4"/>
<path d="M127.723 247.19C127.645 247.19 127.569 247.153 127.523 247.084L123.589 241.175C123.516 241.065 123.546 240.916 123.656 240.843C123.765 240.769 123.914 240.799 123.987 240.91L127.921 246.818C127.995 246.928 127.965 247.077 127.855 247.15C127.814 247.177 127.768 247.19 127.723 247.19Z" fill="#475DB4"/>
<path d="M123.109 240.26C123.032 240.26 122.956 240.223 122.91 240.154L118.901 234.134C118.828 234.024 118.858 233.875 118.968 233.802C119.078 233.728 119.226 233.758 119.3 233.869L123.308 239.888C123.381 239.998 123.351 240.147 123.241 240.22C123.201 240.247 123.154 240.26 123.109 240.26Z" fill="#475DB4"/>
<path d="M124.943 247.812C124.866 247.812 124.79 247.775 124.744 247.706L121.376 242.648C121.303 242.537 121.333 242.389 121.443 242.316C121.553 242.242 121.701 242.272 121.774 242.382L125.142 247.44C125.215 247.55 125.186 247.699 125.075 247.772C125.035 247.799 124.989 247.812 124.943 247.812Z" fill="#475DB4"/>
<path d="M120.897 241.733C120.819 241.733 120.744 241.696 120.698 241.627L117.369 236.628C117.296 236.518 117.326 236.369 117.436 236.296C117.546 236.223 117.694 236.253 117.767 236.363L121.096 241.361C121.169 241.471 121.139 241.62 121.029 241.693C120.988 241.72 120.942 241.733 120.897 241.733Z" fill="#475DB4"/>
<path d="M121.825 247.925C121.748 247.925 121.672 247.888 121.626 247.819L119.164 244.122C119.091 244.012 119.121 243.864 119.231 243.79C119.34 243.717 119.489 243.747 119.562 243.857L122.024 247.554C122.097 247.664 122.067 247.812 121.957 247.885C121.916 247.912 121.87 247.925 121.825 247.925Z" fill="#475DB4"/>
<path d="M118.684 243.208C118.606 243.208 118.53 243.17 118.484 243.101L116.063 239.464C115.989 239.354 116.019 239.205 116.129 239.132C116.239 239.058 116.387 239.089 116.461 239.199L118.883 242.836C118.956 242.946 118.926 243.094 118.816 243.168C118.775 243.195 118.729 243.208 118.684 243.208Z" fill="#475DB4"/>
<path d="M118.48 247.696C118.403 247.696 118.327 247.659 118.281 247.589L116.952 245.594C116.879 245.484 116.909 245.336 117.019 245.263C117.129 245.19 117.277 245.219 117.35 245.329L118.679 247.324C118.752 247.434 118.722 247.583 118.612 247.656C118.571 247.683 118.525 247.696 118.48 247.696Z" fill="#475DB4"/>
<path d="M116.472 244.68C116.394 244.68 116.318 244.643 116.272 244.573L114.983 242.638C114.91 242.528 114.94 242.379 115.05 242.306C115.16 242.232 115.308 242.262 115.382 242.372L116.671 244.308C116.744 244.418 116.714 244.567 116.604 244.64C116.563 244.667 116.517 244.68 116.472 244.68Z" fill="#475DB4"/>
<path d="M129.671 235.732C129.594 235.732 129.518 235.694 129.472 235.625L125.197 229.206C125.124 229.096 125.154 228.948 125.264 228.874C125.374 228.801 125.522 228.831 125.596 228.941L129.87 235.36C129.943 235.47 129.913 235.619 129.803 235.692C129.762 235.719 129.716 235.732 129.671 235.732Z" fill="#475DB4"/>
<path d="M134.699 243.282C134.622 243.282 134.546 243.245 134.5 243.176L130.151 236.646C130.078 236.535 130.108 236.387 130.218 236.314C130.328 236.24 130.476 236.27 130.55 236.38L134.898 242.911C134.971 243.021 134.941 243.169 134.831 243.242C134.79 243.269 134.744 243.282 134.699 243.282Z" fill="#475DB4"/>
<path d="M131.883 234.258C131.805 234.258 131.729 234.221 131.683 234.152L127.749 228.243C127.676 228.133 127.706 227.985 127.816 227.911C127.925 227.838 128.074 227.868 128.147 227.978L132.082 233.887C132.155 233.997 132.125 234.145 132.015 234.218C131.974 234.246 131.928 234.258 131.883 234.258Z" fill="#475DB4"/>
<path d="M136.571 241.299C136.494 241.299 136.418 241.262 136.372 241.193L132.363 235.173C132.29 235.063 132.32 234.914 132.43 234.841C132.54 234.767 132.688 234.798 132.762 234.908L136.77 240.927C136.843 241.037 136.813 241.186 136.703 241.259C136.662 241.286 136.617 241.299 136.571 241.299Z" fill="#475DB4"/>
<path d="M134.095 232.787C134.018 232.787 133.942 232.749 133.896 232.68L130.528 227.622C130.455 227.512 130.485 227.364 130.595 227.291C130.705 227.216 130.853 227.247 130.927 227.357L134.294 232.415C134.367 232.525 134.338 232.674 134.228 232.747C134.187 232.774 134.141 232.787 134.095 232.787Z" fill="#475DB4"/>
<path d="M138.104 238.806C138.027 238.806 137.951 238.768 137.905 238.699L134.576 233.7C134.503 233.59 134.533 233.442 134.643 233.369C134.753 233.295 134.901 233.325 134.974 233.435L138.303 238.434C138.376 238.544 138.346 238.692 138.236 238.765C138.195 238.793 138.149 238.806 138.104 238.806Z" fill="#475DB4"/>
<path d="M136.307 231.312C136.23 231.312 136.154 231.275 136.108 231.205L133.647 227.509C133.573 227.399 133.603 227.25 133.713 227.177C133.823 227.103 133.971 227.133 134.045 227.244L136.506 230.94C136.579 231.05 136.549 231.199 136.439 231.272C136.399 231.299 136.353 231.312 136.307 231.312Z" fill="#475DB4"/>
<path d="M139.409 235.971C139.332 235.971 139.256 235.934 139.21 235.865L136.788 232.228C136.715 232.118 136.745 231.969 136.855 231.896C136.965 231.822 137.113 231.852 137.186 231.962L139.608 235.6C139.681 235.71 139.651 235.858 139.542 235.931C139.501 235.959 139.455 235.971 139.409 235.971Z" fill="#475DB4"/>
<path d="M138.52 229.838C138.443 229.838 138.367 229.801 138.321 229.732L136.992 227.737C136.919 227.627 136.949 227.478 137.059 227.405C137.169 227.332 137.317 227.362 137.39 227.472L138.719 229.467C138.792 229.577 138.762 229.725 138.652 229.798C138.612 229.825 138.566 229.838 138.52 229.838Z" fill="#475DB4"/>
<path d="M140.488 232.797C140.411 232.797 140.335 232.76 140.289 232.691L139 230.755C138.927 230.645 138.957 230.496 139.067 230.423C139.177 230.349 139.325 230.38 139.398 230.49L140.687 232.425C140.76 232.535 140.731 232.684 140.621 232.757C140.58 232.784 140.534 232.797 140.488 232.797Z" fill="#475DB4"/>
<path d="M189.832 206.572C189.755 206.572 189.679 206.534 189.633 206.465L185.358 200.046C185.285 199.936 185.315 199.787 185.425 199.714C185.535 199.64 185.683 199.671 185.757 199.781L190.031 206.2C190.104 206.31 190.074 206.458 189.964 206.532C189.924 206.559 189.878 206.572 189.832 206.572Z" fill="#475DB4"/>
<path d="M184.878 199.134C184.801 199.134 184.725 199.097 184.679 199.027L180.331 192.497C180.258 192.387 180.288 192.238 180.398 192.165C180.508 192.092 180.656 192.122 180.729 192.232L185.077 198.762C185.15 198.872 185.121 199.021 185.011 199.094C184.97 199.121 184.924 199.134 184.878 199.134Z" fill="#475DB4"/>
<path d="M187.62 208.046C187.543 208.046 187.467 208.009 187.421 207.94L183.147 201.52C183.073 201.41 183.103 201.262 183.213 201.189C183.323 201.115 183.471 201.145 183.545 201.255L187.819 207.675C187.892 207.785 187.862 207.933 187.752 208.006C187.712 208.033 187.666 208.046 187.62 208.046Z" fill="#475DB4"/>
<path d="M182.666 200.605C182.589 200.605 182.513 200.567 182.467 200.498L178.119 193.968C178.046 193.858 178.076 193.709 178.186 193.636C178.296 193.562 178.444 193.593 178.517 193.703L182.865 200.233C182.939 200.343 182.909 200.491 182.799 200.565C182.758 200.592 182.712 200.605 182.666 200.605Z" fill="#475DB4"/>
<path d="M185.068 209.008C184.991 209.008 184.915 208.971 184.869 208.902L180.935 202.993C180.861 202.883 180.891 202.735 181.001 202.662C181.111 202.588 181.259 202.618 181.333 202.728L185.267 208.637C185.34 208.747 185.311 208.895 185.201 208.968C185.16 208.996 185.114 209.008 185.068 209.008Z" fill="#475DB4"/>
<path d="M180.455 202.078C180.377 202.078 180.301 202.041 180.255 201.972L176.247 195.952C176.174 195.842 176.204 195.694 176.314 195.621C176.424 195.547 176.572 195.577 176.645 195.687L180.653 201.707C180.727 201.817 180.697 201.965 180.587 202.038C180.546 202.066 180.5 202.078 180.455 202.078Z" fill="#475DB4"/>
<path d="M182.289 209.63C182.212 209.63 182.136 209.593 182.09 209.524L178.722 204.466C178.649 204.356 178.678 204.207 178.788 204.134C178.898 204.06 179.047 204.091 179.12 204.201L182.488 209.259C182.561 209.369 182.531 209.517 182.421 209.59C182.38 209.618 182.334 209.63 182.289 209.63Z" fill="#475DB4"/>
<path d="M178.243 203.552C178.165 203.552 178.089 203.514 178.043 203.445L174.715 198.446C174.642 198.336 174.672 198.188 174.781 198.115C174.891 198.041 175.04 198.071 175.113 198.181L178.441 203.18C178.515 203.29 178.485 203.439 178.375 203.512C178.334 203.539 178.288 203.552 178.243 203.552Z" fill="#475DB4"/>
<path d="M179.17 209.742C179.093 209.742 179.017 209.704 178.971 209.635L176.51 205.938C176.437 205.828 176.466 205.68 176.576 205.607C176.686 205.533 176.835 205.563 176.908 205.673L179.369 209.37C179.443 209.48 179.413 209.628 179.303 209.702C179.262 209.729 179.216 209.742 179.17 209.742Z" fill="#475DB4"/>
<path d="M176.029 205.023C175.952 205.023 175.876 204.985 175.83 204.916L173.408 201.278C173.335 201.168 173.365 201.02 173.475 200.947C173.585 200.873 173.733 200.903 173.806 201.013L176.228 204.651C176.302 204.761 176.272 204.909 176.162 204.982C176.121 205.01 176.075 205.023 176.029 205.023Z" fill="#475DB4"/>
<path d="M175.825 209.513C175.748 209.513 175.672 209.476 175.626 209.406L174.298 207.411C174.225 207.301 174.255 207.153 174.364 207.08C174.474 207.006 174.623 207.036 174.696 207.146L176.024 209.141C176.098 209.251 176.068 209.4 175.958 209.473C175.917 209.5 175.871 209.513 175.825 209.513Z" fill="#475DB4"/>
<path d="M173.817 206.496C173.74 206.496 173.664 206.459 173.618 206.39L172.329 204.454C172.256 204.344 172.286 204.196 172.396 204.122C172.506 204.049 172.654 204.079 172.727 204.189L174.016 206.124C174.089 206.234 174.06 206.383 173.95 206.456C173.909 206.483 173.863 206.496 173.817 206.496Z" fill="#475DB4"/>
<path d="M187.017 197.548C186.939 197.548 186.863 197.511 186.817 197.442L182.543 191.023C182.47 190.912 182.5 190.764 182.61 190.691C182.719 190.617 182.868 190.647 182.941 190.757L187.215 197.177C187.289 197.287 187.259 197.435 187.149 197.508C187.108 197.536 187.062 197.548 187.017 197.548Z" fill="#475DB4"/>
<path d="M192.044 205.101C191.967 205.101 191.891 205.063 191.845 204.994L187.497 198.464C187.424 198.354 187.454 198.205 187.564 198.132C187.674 198.058 187.822 198.089 187.895 198.199L192.243 204.729C192.317 204.839 192.287 204.988 192.177 205.061C192.136 205.088 192.09 205.101 192.044 205.101Z" fill="#475DB4"/>
<path d="M189.229 196.075C189.152 196.075 189.076 196.038 189.03 195.969L185.096 190.06C185.023 189.95 185.052 189.801 185.162 189.728C185.272 189.654 185.421 189.684 185.494 189.795L189.428 195.703C189.501 195.814 189.472 195.962 189.362 196.035C189.321 196.062 189.275 196.075 189.229 196.075Z" fill="#475DB4"/>
<path d="M193.916 203.116C193.839 203.116 193.763 203.078 193.717 203.009L189.709 196.989C189.636 196.879 189.666 196.731 189.776 196.658C189.885 196.584 190.034 196.614 190.107 196.724L194.115 202.744C194.189 202.854 194.159 203.002 194.049 203.076C194.008 203.103 193.962 203.116 193.916 203.116Z" fill="#475DB4"/>
<path d="M191.441 194.603C191.364 194.603 191.288 194.566 191.242 194.497L187.874 189.439C187.801 189.328 187.831 189.18 187.941 189.107C188.05 189.033 188.199 189.063 188.272 189.173L191.64 194.231C191.713 194.341 191.684 194.49 191.574 194.563C191.533 194.59 191.487 194.603 191.441 194.603Z" fill="#475DB4"/>
<path d="M195.45 200.624C195.372 200.624 195.296 200.587 195.25 200.517L191.922 195.519C191.849 195.409 191.879 195.26 191.989 195.187C192.098 195.113 192.247 195.143 192.32 195.253L195.649 200.252C195.722 200.362 195.692 200.511 195.582 200.584C195.541 200.611 195.495 200.624 195.45 200.624Z" fill="#475DB4"/>
<path d="M193.653 193.13C193.576 193.13 193.5 193.093 193.454 193.024L190.992 189.327C190.919 189.217 190.949 189.069 191.059 188.996C191.169 188.922 191.317 188.952 191.39 189.062L193.852 192.759C193.925 192.869 193.895 193.017 193.785 193.09C193.744 193.117 193.698 193.13 193.653 193.13Z" fill="#475DB4"/>
<path d="M196.755 197.788C196.678 197.788 196.602 197.75 196.556 197.681L194.134 194.044C194.061 193.934 194.09 193.785 194.2 193.712C194.31 193.639 194.459 193.669 194.532 193.779L196.954 197.416C197.027 197.526 196.998 197.675 196.887 197.748C196.847 197.775 196.801 197.788 196.755 197.788Z" fill="#475DB4"/>
<path d="M195.866 191.657C195.788 191.657 195.712 191.62 195.666 191.551L194.338 189.555C194.265 189.446 194.295 189.297 194.405 189.224C194.514 189.15 194.663 189.18 194.736 189.291L196.064 191.286C196.138 191.396 196.108 191.544 195.998 191.617C195.957 191.645 195.911 191.657 195.866 191.657Z" fill="#475DB4"/>
<path d="M197.834 194.614C197.757 194.614 197.681 194.576 197.635 194.507L196.346 192.571C196.273 192.461 196.302 192.313 196.412 192.24C196.522 192.166 196.671 192.196 196.744 192.306L198.033 194.242C198.106 194.352 198.076 194.5 197.966 194.573C197.925 194.601 197.879 194.614 197.834 194.614Z" fill="#475DB4"/>
<path d="M183.664 295.704L168.812 267.527V246.369H154.51V267.527L139.658 295.704C137.91 299.021 140.096 303.168 143.593 303.168H179.73C183.227 303.168 185.412 299.021 183.664 295.704Z" fill="#E6D0BE"/>
<path d="M179.729 303.408H143.592C141.954 303.408 140.498 302.554 139.6 301.065C138.6 299.408 138.541 297.311 139.446 295.594L154.271 267.469V246.131H169.051V267.469L183.875 295.594C184.78 297.311 184.721 299.408 183.721 301.065C182.823 302.554 181.368 303.408 179.729 303.408ZM154.749 246.609V267.587L139.869 295.816C139.042 297.387 139.096 299.303 140.01 300.818C140.819 302.16 142.125 302.93 143.592 302.93H179.729C181.196 302.93 182.502 302.16 183.312 300.818C184.226 299.303 184.279 297.387 183.452 295.816L168.572 267.587V246.609H154.749Z" fill="white"/>
<path d="M170.268 281.059C170.183 281.059 170.099 281.013 170.057 280.932L165.877 273.003C165.816 272.886 165.86 272.742 165.977 272.68C166.094 272.618 166.239 272.663 166.3 272.78L170.48 280.708C170.541 280.825 170.497 280.97 170.38 281.032C170.344 281.05 170.306 281.059 170.268 281.059Z" fill="white"/>
<path d="M161.528 249.395C167.258 249.395 171.904 247.79 171.904 245.811C171.904 243.831 167.258 242.227 161.528 242.227C155.798 242.227 151.153 243.831 151.153 245.811C151.153 247.79 155.798 249.395 161.528 249.395Z" fill="#E6D0BE"/>
<path d="M161.528 249.633C155.576 249.633 150.914 247.954 150.914 245.81C150.914 243.666 155.576 241.986 161.528 241.986C167.48 241.986 172.143 243.666 172.143 245.81C172.143 247.954 167.48 249.633 161.528 249.633ZM161.528 242.465C155.465 242.465 151.392 244.194 151.392 245.81C151.392 247.425 155.465 249.155 161.528 249.155C167.591 249.155 171.664 247.425 171.664 245.81C171.664 244.194 167.591 242.465 161.528 242.465Z" fill="white"/>
<path d="M171.739 284.301H151.581L144.592 297.56H178.728L171.739 284.301Z" fill="#475DB4"/>
<path d="M157.378 291.211C156.565 291.211 155.903 290.497 155.903 289.618C155.903 288.74 156.565 288.025 157.378 288.025C158.192 288.025 158.854 288.74 158.854 289.618C158.854 290.497 158.192 291.211 157.378 291.211ZM157.378 288.504C156.829 288.504 156.382 289.004 156.382 289.618C156.382 290.233 156.829 290.733 157.378 290.733C157.928 290.733 158.375 290.233 158.375 289.618C158.375 289.004 157.928 288.504 157.378 288.504Z" fill="white"/>
<path d="M165.721 294.982C164.202 294.982 162.966 293.639 162.966 291.987C162.966 290.336 164.202 288.992 165.721 288.992C167.24 288.992 168.476 290.336 168.476 291.987C168.476 293.639 167.24 294.982 165.721 294.982ZM165.721 289.471C164.466 289.471 163.444 290.599 163.444 291.987C163.444 293.375 164.466 294.504 165.721 294.504C166.976 294.504 167.998 293.375 167.998 291.987C167.998 290.599 166.976 289.471 165.721 289.471Z" fill="white"/>
<path d="M159.541 279.898C158.411 279.898 157.492 278.902 157.492 277.677C157.492 276.452 158.411 275.455 159.541 275.455C160.671 275.455 161.59 276.452 161.59 277.677C161.59 278.902 160.671 279.898 159.541 279.898ZM159.541 275.933C158.675 275.933 157.971 276.715 157.971 277.677C157.971 278.638 158.675 279.42 159.541 279.42C160.407 279.42 161.112 278.638 161.112 277.677C161.112 276.715 160.407 275.933 159.541 275.933Z" fill="white"/>
<path d="M27.5004 300.126L18.3467 299.988L21.074 288.186L30.4023 289.74L27.5004 300.126Z" fill="black"/>
<path d="M40.29 306.204H16.5859L18.7686 297.143H28.0549L34.7702 299.191C38.0613 300.082 40.3204 302.953 40.29 306.204Z" fill="#475DB4"/>
<path d="M70.2269 301.892L61.0732 301.754L61.3559 288.186L70.6842 289.74L70.2269 301.892Z" fill="#E2A18D"/>
<path d="M82.833 306.204H59.1289L61.1702 297.143H70.5979L77.3131 299.191C80.6043 300.082 82.8634 302.953 82.833 306.204Z" fill="white"/>
<path d="M39.5894 210.593C39.5894 210.593 33.9359 223.172 30.1198 238.436C26.3037 253.701 19.5195 292.003 19.5195 292.003H29.9785C29.9785 292.003 50.6139 268.4 52.4512 236.033L58.8114 210.451L39.5894 210.593Z" fill="black"/>
<path d="M48.0703 240.838C48.0703 240.838 58.8119 256.385 59.66 291.154H71.6737C71.6737 291.154 80.4366 271.65 75.4898 251.156C70.5429 230.662 62.4867 208.613 62.4867 208.613H49.625L48.0703 240.838Z" fill="black"/>
<path d="M29.5168 299.634C29.4657 299.634 29.4147 299.615 29.3758 299.576C29.2979 299.498 29.2979 299.372 29.3758 299.294L30.8597 297.81C30.9375 297.732 31.0638 297.732 31.1415 297.81C31.2194 297.888 31.2194 298.014 31.1415 298.092L29.6576 299.576C29.6189 299.615 29.5678 299.634 29.5168 299.634Z" fill="#363E44"/>
<path d="M31.2033 300.14C31.1522 300.14 31.1012 300.121 31.0623 300.082C30.9844 300.004 30.9844 299.878 31.0623 299.8L32.5462 298.316C32.624 298.238 32.7503 298.238 32.8281 298.316C32.9059 298.394 32.9059 298.52 32.8281 298.598L31.3442 300.082C31.3054 300.121 31.2543 300.14 31.2033 300.14Z" fill="#363E44"/>
<path d="M72.0656 299.785C72.0145 299.785 71.9635 299.765 71.9246 299.726C71.8467 299.649 71.8467 299.523 71.9246 299.445L73.4085 297.961C73.4863 297.883 73.6126 297.883 73.6904 297.961C73.7682 298.039 73.7682 298.165 73.6904 298.242L72.2065 299.726C72.1677 299.765 72.1166 299.785 72.0656 299.785Z" fill="#363E44"/>
<path d="M73.7521 300.291C73.7011 300.291 73.65 300.271 73.6111 300.232C73.5333 300.154 73.5333 300.028 73.6111 299.951L75.095 298.467C75.1728 298.389 75.2991 298.389 75.3769 298.467C75.4548 298.544 75.4548 298.671 75.3769 298.748L73.893 300.232C73.8542 300.271 73.8032 300.291 73.7521 300.291Z" fill="#363E44"/>
<path d="M28.6597 223.602C27.0032 237.272 22.687 250.973 22.9159 264.047L41.9352 264.489L43.5147 236.307L51.9181 237.649L52.5432 264.488L80.0047 264.425L67.4983 208.516L88.6164 229.619L100.52 217.81C100.52 217.81 70.9643 181.187 53.5318 178.533C30.315 175 21.043 191.388 17.357 203.645C14.1503 214.309 22.5496 220.043 28.6597 223.602Z" fill="white"/>
<path d="M41.0042 214.277C40.9691 214.277 40.9334 214.269 40.8995 214.252C40.7809 214.194 40.7316 214.051 40.7896 213.933L41.792 211.88L25.8277 203.629C25.7103 203.569 25.6643 203.424 25.725 203.307C25.7856 203.19 25.9299 203.144 26.0472 203.204L42.2192 211.563C42.3347 211.622 42.3814 211.763 42.3244 211.88L41.2193 214.142C41.1779 214.227 41.0928 214.277 41.0042 214.277Z" fill="#475DB4"/>
<path d="M31.6061 206.587C31.5678 206.587 31.5289 206.577 31.4927 206.558C31.3765 206.495 31.3332 206.35 31.396 206.234L37.8328 194.308C37.8954 194.191 38.0402 194.147 38.1568 194.211C38.273 194.273 38.3164 194.419 38.2536 194.535L31.8167 206.461C31.7736 206.541 31.6913 206.587 31.6061 206.587Z" fill="#475DB4"/>
<path d="M67.4983 208.759C67.4856 208.759 67.4729 208.758 67.46 208.756C67.3295 208.735 67.2408 208.613 67.2619 208.482L69.1923 196.477C69.2133 196.346 69.3369 196.257 69.4663 196.279C69.5968 196.3 69.6855 196.422 69.6645 196.553L67.734 208.558C67.7152 208.676 67.6136 208.759 67.4983 208.759Z" fill="#475DB4"/>
<path d="M55.0319 202.265C54.9903 202.265 54.9483 202.255 54.91 202.232C54.7964 202.164 54.7592 202.018 54.8265 201.904L60.9077 191.67L57.6575 188.734C57.6049 188.686 57.5761 188.617 57.579 188.547C57.5818 188.475 57.6162 188.409 57.6724 188.366L61.9259 185.107C61.3821 184.294 59.2203 181.08 58.6949 180.51C58.6053 180.413 58.6114 180.262 58.7085 180.172C58.8058 180.083 58.9572 180.089 59.0464 180.186C59.6711 180.863 62.3353 184.858 62.4483 185.028C62.5182 185.132 62.4948 185.274 62.3949 185.35L58.1914 188.571L61.3738 191.447C61.4583 191.523 61.4773 191.648 61.4191 191.746L55.2379 202.148C55.1931 202.224 55.1136 202.265 55.0319 202.265Z" fill="#475DB4"/>
<path d="M45.5109 200.78C45.4043 200.78 45.3071 200.709 45.2794 200.6L42.2761 188.879C42.2478 188.769 42.3013 188.654 42.4038 188.604L46.2669 186.741L43.1399 182.467C43.0655 182.365 43.0827 182.223 43.1792 182.142C43.3356 182.011 47.0165 178.928 47.8064 178.454C47.9199 178.386 48.0664 178.423 48.1344 178.536C48.2024 178.649 48.1656 178.796 48.0523 178.864C47.3879 179.263 44.4087 181.739 43.6582 182.365L46.8225 186.69C46.8644 186.748 46.8786 186.821 46.8615 186.889C46.8442 186.958 46.7973 187.016 46.7334 187.047L42.788 188.95L45.7427 200.482C45.7755 200.61 45.6984 200.74 45.5703 200.773C45.5505 200.778 45.5306 200.78 45.5109 200.78Z" fill="#475DB4"/>
<path d="M58.0806 179.952L51.9181 237.656L43.5146 236.312L48.6688 177.936C53.0436 178.101 57.4886 178.238 58.0806 179.952Z" fill="#475DB4"/>
<path d="M57.9247 179.687C56.5631 182.915 52.1251 183.26 50.2815 180.281L48.7432 177.795L52.6232 166.061L60.1367 167.412L57.9247 179.687Z" fill="white"/>
<path d="M58.3869 160.457C58.7155 160.474 61.8601 160.678 63.4183 163.079C64.5777 164.865 64.4455 166.919 63.703 170.33C62.8287 174.347 61.5238 177.153 60.2101 177.722C56.9934 179.115 53.313 174.602 51.756 170.752C50.6321 167.973 51.2892 164.704 53.2491 162.409C55.2035 160.119 58.1771 160.447 58.3869 160.457Z" fill="white"/>
<path d="M48.7266 162.822C48.7266 161.847 49.3474 161.019 50.2147 160.705C50.2107 160.66 50.2079 160.615 50.2079 160.569C50.2079 159.792 50.7817 159.151 51.5283 159.042C51.5569 157.882 52.504 156.95 53.6707 156.95C54.0176 156.95 54.3442 157.034 54.6344 157.181C54.9248 156.688 55.459 156.357 56.0717 156.357C56.7168 156.357 57.2754 156.724 57.5535 157.26C57.8486 156.997 58.2366 156.835 58.663 156.835C59.0591 156.835 59.4224 156.974 59.7087 157.204C59.9891 157.064 60.3042 156.983 60.6388 156.983C61.6506 156.983 62.4935 157.704 62.6841 158.659C62.8032 158.638 62.9251 158.625 63.0501 158.625C64.2023 158.625 65.1362 159.559 65.1362 160.711C65.1362 160.968 65.0876 161.213 65.0025 161.441C65.503 161.749 65.8379 162.3 65.8379 162.931C65.8379 163.898 65.0539 164.682 64.0869 164.682C64.0639 164.682 64.0415 164.679 64.0187 164.678C63.8493 165.303 63.6428 165.748 63.6015 165.883C63.4826 165.713 61.9433 164.283 60.3752 163.552C60.0983 164.154 59.4913 164.573 58.7851 164.573C58.1659 164.573 57.6229 164.251 57.3116 163.766C56.6922 164.431 56.32 165.528 55.8606 166.657C55.4851 166.449 54.6676 166.073 53.7319 166.27C52.2847 166.574 51.5817 169.452 50.8935 171.344C50.1193 168.54 49.7333 166.407 49.7355 164.7C49.1277 164.297 48.7266 163.607 48.7266 162.822Z" fill="#373E44"/>
<path d="M58.2468 178.14C58.2302 178.14 58.2135 178.138 58.1966 178.135C56.3275 177.735 54.2397 175.827 52.6116 173.029C52.5451 172.915 52.5838 172.769 52.6981 172.702C52.812 172.636 52.9585 172.675 53.025 172.789C54.5864 175.472 56.557 177.296 58.2965 177.667C58.4257 177.695 58.508 177.822 58.4804 177.951C58.4564 178.063 58.3571 178.14 58.2468 178.14Z" fill="#363E44"/>
<path d="M57.5752 167.641C57.5752 167.641 57.7704 168.886 58.58 169.949C58.7501 170.172 60.2282 168.37 59.9624 168.233C58.7983 167.633 57.5752 167.641 57.5752 167.641Z" fill="white"/>
<path d="M62.3358 171.686C62.3358 171.686 62.0501 169.862 60.7354 168.745C60.4916 168.538 60.2293 168.369 59.9641 168.232C59.2576 168.514 58.715 169.146 58.5771 169.943C58.7481 170.168 58.9459 170.385 59.1757 170.58C60.4902 171.697 62.3358 171.686 62.3358 171.686Z" fill="#363E44"/>
<path d="M63.1337 171.555C63.0926 171.751 63.061 172.043 63.1532 172.364C63.2643 172.752 63.4734 172.895 63.4341 173.124C63.4076 173.277 63.2676 173.481 62.7246 173.666L63.1337 171.555Z" fill="white"/>
<path d="M62.7246 173.906C62.625 173.906 62.5321 173.844 62.4981 173.744C62.4557 173.619 62.5225 173.483 62.6475 173.441C63.1298 173.276 63.1912 173.126 63.1984 173.084C63.2054 173.043 63.1819 172.995 63.1179 172.879C63.0562 172.767 62.9795 172.628 62.9231 172.431C62.8398 172.141 62.8319 171.83 62.8995 171.507C62.9264 171.378 63.0533 171.294 63.1825 171.322C63.3118 171.348 63.3946 171.475 63.3677 171.604C63.3162 171.851 63.3213 172.085 63.383 172.299C63.4245 172.444 63.4816 172.548 63.5368 172.648C63.62 172.799 63.706 172.955 63.6697 173.165C63.6162 173.475 63.3323 173.713 62.8016 173.893C62.7762 173.902 62.7502 173.906 62.7246 173.906Z" fill="#363E44"/>
<path d="M54.6187 169.819C55.7742 169.466 56.3724 168.072 55.9549 166.705C55.5374 165.338 54.2622 164.516 53.1068 164.869C51.9513 165.222 51.3531 166.616 51.7706 167.983C52.1881 169.35 53.4633 170.172 54.6187 169.819Z" fill="white"/>
<path d="M52.8974 168.154C52.81 168.154 52.7258 168.106 52.6838 168.023C52.638 167.932 52.5995 167.836 52.5695 167.738C52.4504 167.348 52.4676 166.94 52.6182 166.589C52.7747 166.225 53.0549 165.965 53.4075 165.857C53.5866 165.802 53.773 165.79 53.9611 165.822C54.0913 165.844 54.1791 165.968 54.157 166.098C54.1352 166.228 54.0129 166.314 53.8815 166.294C53.7669 166.274 53.6547 166.282 53.5472 166.314C53.3316 166.38 53.1579 166.545 53.0578 166.778C52.9519 167.025 52.9409 167.316 53.027 167.598C53.0491 167.671 53.0772 167.741 53.1108 167.808C53.1703 167.925 53.1229 168.069 53.005 168.129C52.9704 168.146 52.9336 168.154 52.8974 168.154Z" fill="#363E44"/>
<path d="M60.6143 174.97C60.2759 174.97 59.9514 174.818 59.7515 174.544C59.401 174.064 59.6382 173.505 59.6485 173.482C59.7012 173.361 59.842 173.305 59.9632 173.358C60.0843 173.411 60.1396 173.552 60.0869 173.673C60.0859 173.675 59.9504 174.006 60.1377 174.262C60.289 174.469 60.5769 174.548 60.8372 174.452C60.9618 174.408 61.0986 174.472 61.1435 174.596C61.1886 174.72 61.1244 174.857 61.0003 174.902C60.8736 174.948 60.7429 174.97 60.6143 174.97Z" fill="#363E44"/>
<path d="M96.8393 275.9L97.8467 286.27L116.616 284.446L115.609 274.077L96.8393 275.9Z" fill="#EFBC73"/>
<path d="M81.5781 285.723L84.0224 291.455L103.586 283.113C105.169 282.439 105.905 280.608 105.23 279.025C104.555 277.442 102.724 276.706 101.141 277.381L81.5781 285.723Z" fill="#FFD092"/>
<path d="M102.623 281.325C103.275 281.171 103.678 280.518 103.525 279.867C103.371 279.215 102.718 278.812 102.066 278.966C101.415 279.119 101.011 279.772 101.165 280.424C101.319 281.075 101.972 281.479 102.623 281.325Z" fill="#F7F1EB"/>
<path d="M53.9531 297.409L62.0451 273.459L86.9554 292.81L88.3159 297.409H53.9531Z" fill="#E0AA63"/>
<path d="M73.2805 221.314C69.2104 224.895 67.4048 228.535 66.5372 230.948C62.6632 241.723 67.0991 260.671 79.0603 265.386C82.1109 275.983 85.1613 286.579 88.2119 297.176C82.8627 294.884 64.9428 286.408 56.1815 270.626C51.8466 262.817 46.3881 246.316 53.2916 229.021C57.3063 218.963 64.5524 212.994 68.4638 210.236C70.0695 213.929 71.675 217.622 73.2805 221.314Z" fill="#EFBC73"/>
<path d="M91.597 266.988C91.6304 267.087 91.6661 267.183 91.6972 267.283C93.6785 273.636 90.1342 280.393 83.7805 282.375C77.4269 284.356 70.67 280.812 68.6886 274.458C68.6575 274.359 68.6318 274.259 68.6035 274.159L91.597 266.988Z" fill="#FFD092"/>
<path d="M85.0192 267.821L85.3906 268.996L124.905 256.501L124.534 255.327L85.0192 267.821Z" fill="#EFBC73"/>
<path d="M84.6541 263.726L85.8643 267.553L123.765 255.569L122.554 251.741L84.6541 263.726Z" fill="#FFD092"/>
<path d="M86.5868 297.415C86.5548 297.415 86.5229 297.409 86.4925 297.396C79.6482 294.463 62.8148 285.995 54.3472 270.743C52.7361 267.84 49.8549 261.73 48.6603 253.415C47.4331 244.873 48.3697 236.636 51.4445 228.933C55.1795 219.576 61.8025 213.495 66.7011 210.041C66.7599 210 66.8343 209.988 66.9034 210.007C66.9726 210.026 67.0295 210.075 67.0581 210.142L71.8747 221.22C71.9162 221.315 71.8913 221.426 71.8134 221.495C68.661 224.267 66.4148 227.475 65.1372 231.029C63.2323 236.327 63.3574 243.737 65.4635 250.367C67.8151 257.771 72.098 263.026 77.523 265.164C77.5921 265.192 77.6446 265.249 77.6651 265.321L86.8166 297.11C86.8421 297.199 86.8143 297.295 86.745 297.356C86.7005 297.395 86.644 297.415 86.5868 297.415ZM66.737 210.602C61.9171 214.046 55.5197 220.014 51.8887 229.11C43.8841 249.164 52.8808 267.115 54.7656 270.51C62.9763 285.301 79.1487 293.669 86.2169 296.756L77.238 265.565C71.7288 263.346 67.3881 258.005 65.0078 250.512C62.8714 243.787 62.7486 236.259 64.6873 230.867C65.9749 227.286 68.2218 224.051 71.3671 221.251L66.737 210.602Z" fill="#363E44"/>
<path d="M74.2694 208.548L78.1455 220.807L88.752 217.453L84.8758 205.195L74.2694 208.548Z" fill="#E0AA63"/>
<path d="M65.4059 206.854L71.9961 227.695L80.9942 224.85L74.404 204.008L65.4059 206.854Z" fill="#FFD092"/>
<path d="M81.6357 218.36C83.8983 216.098 83.8983 212.43 81.6357 210.167C79.3732 207.904 75.7049 207.904 73.4424 210.167C71.1799 212.43 71.1798 216.098 73.4424 218.36C75.7049 220.623 79.3732 220.623 81.6357 218.36Z" fill="#EFBC73"/>
<path d="M77.6618 217.135C79.2463 217.074 80.4811 215.74 80.4199 214.155C80.3587 212.571 79.0246 211.336 77.4402 211.397C75.8557 211.458 74.6209 212.792 74.6821 214.377C74.7433 215.961 76.0774 217.196 77.6618 217.135Z" fill="#F7F1EB"/>
<path d="M74.403 180.453L76.8955 188.336L86.1373 185.414L83.6448 177.531L74.403 180.453Z" fill="#EFBC73"/>
<path d="M76.328 188.013L77.1025 190.463L87.2317 187.26L86.4572 184.811L76.328 188.013Z" fill="white"/>
<path d="M76.2317 189.785L91.8281 239.109L103.108 235.543L87.5117 186.219L76.2317 189.785Z" fill="#FFD092"/>
<path d="M90.2037 239.354C90.1023 239.354 90.008 239.288 89.9757 239.187L74.3813 189.864C74.3415 189.738 74.4113 189.604 74.5373 189.564L85.817 185.997C85.8774 185.978 85.9431 185.984 85.9992 186.013C86.0555 186.042 86.098 186.093 86.1171 186.153L101.711 235.476C101.73 235.537 101.725 235.602 101.696 235.658C101.666 235.715 101.616 235.757 101.556 235.776L90.2758 239.342C90.2518 239.35 90.2276 239.354 90.2037 239.354ZM74.9095 189.948L90.3597 238.814L101.183 235.392L85.7332 186.525L74.9095 189.948Z" fill="#363E44"/>
<path d="M76.3399 198.903L77.6328 202.992L94.1641 197.765L92.8712 193.676L76.3399 198.903Z" fill="white"/>
<path d="M89.1949 199.582C89.0935 199.582 88.9992 199.517 88.9669 199.416L87.6743 195.327C87.6344 195.201 87.7043 195.067 87.8303 195.027C87.9557 194.987 88.0905 195.057 88.1304 195.183L89.423 199.271C89.4629 199.397 89.393 199.532 89.267 199.571C89.2431 199.579 89.2189 199.582 89.1949 199.582Z" fill="#363E44"/>
<path d="M82.6491 201.651C82.5477 201.651 82.4534 201.586 82.4211 201.484L81.1284 197.395C81.0885 197.269 81.1584 197.135 81.2844 197.095C81.4097 197.055 81.5446 197.125 81.5845 197.251L82.8772 201.34C82.9171 201.466 82.8472 201.6 82.7212 201.64C82.6973 201.647 82.673 201.651 82.6491 201.651Z" fill="#363E44"/>
<path d="M71.8789 179.612L72.3506 181.104L85.5543 176.928L85.0826 175.437L71.8789 179.612Z" fill="white"/>
<path d="M100.023 234.306L105.712 245.643L108.405 244.291L102.716 232.955L100.023 234.306Z" fill="#E0AA63"/>
<path d="M104.322 244.337L105.27 246.225L109.135 244.285L108.188 242.397L104.322 244.337Z" fill="#EFBC73"/>
<path d="M95.0987 235.908L98.9229 248.002L101.796 247.094L97.9717 235L95.0987 235.908Z" fill="#E0AA63"/>
<path d="M97.8021 246.45L98.4541 248.512L102.474 247.241L101.822 245.179L97.8021 246.45Z" fill="#EFBC73"/>
<path d="M90.3536 236.854L91.5801 249.479L94.579 249.187L93.3525 236.563L90.3536 236.854Z" fill="#E0AA63"/>
<path d="M90.8652 247.58L91.083 249.822L95.1328 249.429L94.915 247.187L90.8652 247.58Z" fill="#EFBC73"/>
<path d="M86.9193 243.46L86.9959 243.702L110.292 236.336C109.435 233.624 107.29 231.512 104.564 230.696L101.261 229.707L89.9811 233.273L88.1224 235.873C86.5501 238.071 86.1043 240.882 86.9193 243.46Z" fill="#EFBC73"/>
<path d="M116.8 306.033H53.584V297.211H116.922L116.8 306.033Z" fill="#EFBC73"/>
<path d="M41.0033 214.039C43.6295 214.882 45.6558 215.526 46.1029 215.686C48.3203 216.476 62.1203 221.34 61.546 223.238C61.2086 224.352 57.1018 222.871 56.3281 222.587C56.8398 223.124 60.3535 226.047 59.8945 226.915C59.105 228.409 55.0159 225.02 54.9523 225.021C55.5273 225.514 58.8226 227.777 58.5214 228.45C57.877 229.89 54.3811 227.808 53.5796 227.446C53.6144 227.594 56.5143 229.259 56.1196 230.231C55.8063 231.003 51.3468 229.641 50.2951 229.36C48.3244 228.66 42.9839 227.439 39.1393 226.497C37.7331 226.152 36.4143 225.748 35.1895 225.312L41.0033 214.039Z" fill="white"/>
<path d="M56.3852 222.755C56.3315 222.755 56.2775 222.737 56.2328 222.7C55.8614 222.392 55.4659 222.108 55.0573 221.856C54.3234 221.402 53.5299 221.038 52.699 220.774C52.5732 220.734 52.5035 220.599 52.5435 220.474C52.5836 220.348 52.7182 220.278 52.8438 220.318C53.7121 220.594 54.5415 220.974 55.3087 221.449C55.7359 221.713 56.1494 222.01 56.5377 222.331C56.6394 222.415 56.6537 222.566 56.5694 222.668C56.5223 222.725 56.454 222.755 56.3852 222.755Z" fill="#363E44"/>
<path d="M55.0162 225.219C54.9711 225.219 54.9252 225.207 54.8846 225.18C54.8003 225.124 54.7135 225.069 54.6246 225.014C53.8897 224.559 53.0962 224.196 52.2664 223.932C52.1405 223.892 52.0709 223.758 52.1109 223.632C52.151 223.506 52.2855 223.436 52.4112 223.476C53.2784 223.752 54.1077 224.132 54.8761 224.607C54.9692 224.664 55.0599 224.722 55.1482 224.781C55.2583 224.853 55.2886 225.002 55.216 225.112C55.17 225.182 55.0939 225.219 55.0162 225.219Z" fill="#363E44"/>
<path d="M53.5346 227.642C53.4984 227.642 53.4615 227.634 53.427 227.616C52.9228 227.361 52.3926 227.145 51.8514 226.973C51.7255 226.933 51.6559 226.799 51.6959 226.673C51.7359 226.547 51.8712 226.477 51.9962 226.517C52.5617 226.697 53.1158 226.923 53.6428 227.189C53.7606 227.249 53.8079 227.393 53.7484 227.511C53.7061 227.594 53.6219 227.642 53.5346 227.642Z" fill="#363E44"/>
<path d="M158.166 160.06H157.959C155.953 160.06 154.327 158.434 154.327 156.429V121.496H161.798V156.429C161.798 158.434 160.172 160.06 158.166 160.06Z" fill="#E6D0BE"/>
<path d="M159.394 160.3H159.186C157.052 160.3 155.315 158.564 155.315 156.429V121.497C155.315 121.365 155.423 121.258 155.555 121.258H163.026C163.158 121.258 163.265 121.365 163.265 121.497V156.429C163.265 158.564 161.528 160.3 159.394 160.3ZM155.794 121.736V156.429C155.794 158.3 157.316 159.822 159.186 159.822H159.394C161.265 159.822 162.786 158.3 162.786 156.429V121.736H155.794Z" fill="white"/>
<path d="M159.359 158.495H159.219C157.868 158.495 156.772 157.4 156.772 156.048V132.514H161.806V156.048C161.806 157.4 160.71 158.495 159.359 158.495Z" fill="#EFBC73"/>
<path d="M160.132 157.434C160.075 157.434 160.019 157.414 159.974 157.374C159.875 157.287 159.865 157.136 159.952 157.037C160.291 156.65 160.51 156.163 160.585 155.628C160.603 155.497 160.724 155.405 160.855 155.425C160.986 155.443 161.077 155.564 161.059 155.695C160.971 156.322 160.713 156.895 160.311 157.352C160.264 157.406 160.198 157.434 160.132 157.434Z" fill="white"/>
<path d="M160.851 155.008C160.719 155.008 160.612 154.901 160.612 154.769V150.929C160.612 150.796 160.719 150.689 160.851 150.689C160.984 150.689 161.091 150.796 161.091 150.929V154.769C161.091 154.901 160.984 155.008 160.851 155.008Z" fill="white"/>
<path d="M160.852 148.619C160.72 148.619 160.613 148.512 160.613 148.38V143.645C160.613 143.513 160.72 143.406 160.852 143.406C160.985 143.406 161.092 143.513 161.092 143.645V148.38C161.092 148.512 160.985 148.619 160.852 148.619Z" fill="white"/>
<path d="M164.623 118.465H153.866V123.99H164.623V118.465Z" fill="#373E44"/>
<path d="M155.152 123.105H155.133C154.949 123.105 154.8 122.956 154.8 122.772V119.819C154.8 119.635 154.949 119.486 155.133 119.486H155.152C155.336 119.486 155.485 119.635 155.485 119.819V122.772C155.485 122.956 155.336 123.105 155.152 123.105Z" fill="#EFBC73"/>
<path d="M157.197 123.105H157.178C156.994 123.105 156.845 122.956 156.845 122.772V119.819C156.845 119.635 156.994 119.486 157.178 119.486H157.197C157.381 119.486 157.53 119.635 157.53 119.819V122.772C157.53 122.956 157.381 123.105 157.197 123.105Z" fill="#EFBC73"/>
<path d="M159.242 123.105H159.223C159.039 123.105 158.89 122.956 158.89 122.772V119.819C158.89 119.635 159.039 119.486 159.223 119.486H159.242C159.426 119.486 159.575 119.635 159.575 119.819V122.772C159.575 122.956 159.426 123.105 159.242 123.105Z" fill="#EFBC73"/>
<path d="M161.286 123.105H161.267C161.083 123.105 160.934 122.956 160.934 122.772V119.819C160.934 119.635 161.083 119.486 161.267 119.486H161.286C161.469 119.486 161.619 119.635 161.619 119.819V122.772C161.619 122.956 161.47 123.105 161.286 123.105Z" fill="#EFBC73"/>
<path d="M163.331 123.105H163.312C163.128 123.105 162.979 122.956 162.979 122.772V119.819C162.979 119.635 163.128 119.486 163.312 119.486H163.331C163.514 119.486 163.664 119.635 163.664 119.819V122.772C163.663 122.956 163.514 123.105 163.331 123.105Z" fill="#EFBC73"/>
<path d="M171.796 160.06H171.589C169.583 160.06 167.957 158.434 167.957 156.429V121.496H175.428V156.429C175.428 158.434 173.802 160.06 171.796 160.06Z" fill="#E6D0BE"/>
<path d="M173.024 160.3H172.816C170.682 160.3 168.945 158.564 168.945 156.429V121.497C168.945 121.365 169.052 121.258 169.184 121.258H176.655C176.788 121.258 176.895 121.365 176.895 121.497V156.429C176.895 158.564 175.158 160.3 173.024 160.3ZM169.424 121.736V156.429C169.424 158.3 170.946 159.822 172.816 159.822H173.024C174.894 159.822 176.416 158.3 176.416 156.429V121.736H169.424Z" fill="white"/>
<path d="M172.989 158.495H172.849C171.498 158.495 170.402 157.4 170.402 156.049V135.562H175.436V156.049C175.436 157.4 174.34 158.495 172.989 158.495Z" fill="#EFBC73"/>
<path d="M173.76 157.434C173.704 157.434 173.648 157.414 173.603 157.374C173.504 157.287 173.494 157.136 173.581 157.037C173.92 156.65 174.139 156.163 174.214 155.628C174.233 155.497 174.352 155.405 174.484 155.425C174.615 155.443 174.706 155.564 174.688 155.695C174.6 156.322 174.342 156.895 173.94 157.352C173.893 157.406 173.827 157.434 173.76 157.434Z" fill="white"/>
<path d="M174.481 155.008C174.349 155.008 174.242 154.901 174.242 154.769V150.929C174.242 150.796 174.349 150.689 174.481 150.689C174.613 150.689 174.721 150.796 174.721 150.929V154.769C174.721 154.901 174.613 155.008 174.481 155.008Z" fill="white"/>
<path d="M174.481 148.619C174.349 148.619 174.242 148.512 174.242 148.38V143.645C174.242 143.513 174.349 143.406 174.481 143.406C174.613 143.406 174.721 143.513 174.721 143.645V148.38C174.721 148.512 174.613 148.619 174.481 148.619Z" fill="white"/>
<path d="M178.253 118.465H167.496V123.99H178.253V118.465Z" fill="#373E44"/>
<path d="M168.782 123.105H168.763C168.579 123.105 168.43 122.956 168.43 122.772V119.819C168.43 119.635 168.579 119.486 168.763 119.486H168.782C168.966 119.486 169.115 119.635 169.115 119.819V122.772C169.115 122.956 168.966 123.105 168.782 123.105Z" fill="#EFBC73"/>
<path d="M170.827 123.105H170.808C170.624 123.105 170.475 122.956 170.475 122.772V119.819C170.475 119.635 170.624 119.486 170.808 119.486H170.827C171.011 119.486 171.16 119.635 171.16 119.819V122.772C171.16 122.956 171.011 123.105 170.827 123.105Z" fill="#EFBC73"/>
<path d="M172.872 123.105H172.853C172.669 123.105 172.52 122.956 172.52 122.772V119.819C172.52 119.635 172.669 119.486 172.853 119.486H172.872C173.055 119.486 173.205 119.635 173.205 119.819V122.772C173.204 122.956 173.055 123.105 172.872 123.105Z" fill="#EFBC73"/>
<path d="M174.915 123.105H174.896C174.713 123.105 174.563 122.956 174.563 122.772V119.819C174.563 119.635 174.713 119.486 174.896 119.486H174.915C175.099 119.486 175.249 119.635 175.249 119.819V122.772C175.249 122.956 175.099 123.105 174.915 123.105Z" fill="#EFBC73"/>
<path d="M176.96 123.105H176.941C176.758 123.105 176.608 122.956 176.608 122.772V119.819C176.608 119.635 176.758 119.486 176.941 119.486H176.96C177.144 119.486 177.293 119.635 177.293 119.819V122.772C177.293 122.956 177.144 123.105 176.96 123.105Z" fill="#EFBC73"/>
<path d="M185.426 160.06H185.219C183.213 160.06 181.587 158.434 181.587 156.429V121.496H189.058V156.429C189.058 158.434 187.432 160.06 185.426 160.06Z" fill="#E6D0BE"/>
<path d="M186.654 160.3H186.446C184.312 160.3 182.575 158.564 182.575 156.429V121.497C182.575 121.365 182.682 121.258 182.814 121.258H190.285C190.418 121.258 190.525 121.365 190.525 121.497V156.429C190.525 158.564 188.788 160.3 186.654 160.3ZM183.054 121.736V156.429C183.054 158.3 184.575 159.822 186.446 159.822H186.654C188.524 159.822 190.046 158.3 190.046 156.429V121.736H183.054Z" fill="white"/>
<path d="M186.619 158.493H186.479C185.128 158.493 184.032 157.398 184.032 156.046V129.463H189.066V156.046C189.065 157.397 187.97 158.493 186.619 158.493Z" fill="#EFBC73"/>
<path d="M187.391 157.434C187.335 157.434 187.279 157.414 187.234 157.374C187.134 157.287 187.125 157.136 187.212 157.037C187.551 156.65 187.77 156.163 187.845 155.628C187.863 155.497 187.984 155.405 188.115 155.425C188.246 155.443 188.337 155.564 188.319 155.695C188.231 156.322 187.973 156.895 187.571 157.352C187.524 157.406 187.458 157.434 187.391 157.434Z" fill="white"/>
<path d="M188.111 155.008C187.979 155.008 187.872 154.901 187.872 154.769V150.929C187.872 150.796 187.979 150.689 188.111 150.689C188.243 150.689 188.35 150.796 188.35 150.929V154.769C188.35 154.901 188.243 155.008 188.111 155.008Z" fill="white"/>
<path d="M188.111 148.619C187.979 148.619 187.872 148.512 187.872 148.38V143.645C187.872 143.513 187.979 143.406 188.111 143.406C188.243 143.406 188.35 143.513 188.35 143.645V148.38C188.35 148.512 188.243 148.619 188.111 148.619Z" fill="white"/>
<path d="M191.884 118.465H181.127V123.99H191.884V118.465Z" fill="#373E44"/>
<path d="M182.413 123.105H182.394C182.21 123.105 182.061 122.956 182.061 122.772V119.819C182.061 119.635 182.21 119.486 182.394 119.486H182.413C182.596 119.486 182.746 119.635 182.746 119.819V122.772C182.746 122.956 182.597 123.105 182.413 123.105Z" fill="#EFBC73"/>
<path d="M184.457 123.105H184.438C184.255 123.105 184.105 122.956 184.105 122.772V119.819C184.105 119.635 184.255 119.486 184.438 119.486H184.457C184.641 119.486 184.791 119.635 184.791 119.819V122.772C184.79 122.956 184.641 123.105 184.457 123.105Z" fill="#EFBC73"/>
<path d="M186.501 123.105H186.482C186.299 123.105 186.149 122.956 186.149 122.772V119.819C186.149 119.635 186.299 119.486 186.482 119.486H186.501C186.685 119.486 186.834 119.635 186.834 119.819V122.772C186.834 122.956 186.685 123.105 186.501 123.105Z" fill="#EFBC73"/>
<path d="M188.546 123.105H188.527C188.343 123.105 188.194 122.956 188.194 122.772V119.819C188.194 119.635 188.343 119.486 188.527 119.486H188.546C188.73 119.486 188.879 119.635 188.879 119.819V122.772C188.879 122.956 188.73 123.105 188.546 123.105Z" fill="#EFBC73"/>
<path d="M190.591 123.105H190.572C190.388 123.105 190.239 122.956 190.239 122.772V119.819C190.239 119.635 190.388 119.486 190.572 119.486H190.591C190.775 119.486 190.924 119.635 190.924 119.819V122.772C190.924 122.956 190.775 123.105 190.591 123.105Z" fill="#EFBC73"/>
<path d="M192.968 163.094H153.074C152.942 163.094 152.835 162.987 152.835 162.855V140.28C152.835 140.148 152.942 140.041 153.074 140.041H192.968C193.1 140.041 193.207 140.148 193.207 140.28V162.855C193.207 162.987 193.1 163.094 192.968 163.094ZM153.313 162.616H192.729V140.519H153.313V162.616Z" fill="white"/>
<path d="M126.316 157.196H76.6581C76.526 157.196 76.4189 157.089 76.4189 156.957V119.513C76.4189 119.38 76.526 119.273 76.6581 119.273C76.7902 119.273 76.8973 119.38 76.8973 119.513V156.718H126.316C126.448 156.718 126.555 156.825 126.555 156.957C126.555 157.089 126.448 157.196 126.316 157.196Z" fill="white"/>
<path d="M113.27 131.937C113.188 131.937 113.109 131.895 113.064 131.82C112.996 131.707 113.033 131.56 113.147 131.493L119.924 127.442C120.038 127.374 120.184 127.411 120.252 127.525C120.32 127.638 120.283 127.785 120.169 127.853L113.392 131.903C113.354 131.926 113.311 131.937 113.27 131.937Z" fill="white"/>
<path d="M108.979 130.854C108.901 130.854 108.824 130.816 108.778 130.746L99.596 116.767C99.5234 116.657 99.5541 116.508 99.6646 116.436C99.7749 116.363 99.9231 116.394 99.9958 116.504L109.178 130.484C109.251 130.594 109.22 130.742 109.11 130.815C109.069 130.841 109.024 130.854 108.979 130.854Z" fill="white"/>
<path d="M88.6631 121.78C88.5916 121.78 88.5208 121.748 88.4737 121.687C88.393 121.583 88.4123 121.433 88.5168 121.352L95.6505 115.841C95.7549 115.76 95.9051 115.779 95.986 115.884C96.0667 115.989 96.0475 116.139 95.9429 116.219L88.8092 121.73C88.7656 121.764 88.7143 121.78 88.6631 121.78Z" fill="white"/>
<path d="M86.3488 126.565C84.5948 126.565 83.168 125.138 83.168 123.384C83.168 121.63 84.5948 120.203 86.3488 120.203C88.1027 120.203 89.5296 121.63 89.5296 123.384C89.5296 125.138 88.1027 126.565 86.3488 126.565ZM86.3488 120.681C84.8587 120.681 83.6463 121.894 83.6463 123.384C83.6463 124.874 84.8587 126.086 86.3488 126.086C87.8389 126.086 89.0512 124.874 89.0512 123.384C89.0512 121.894 87.8389 120.681 86.3488 120.681Z" fill="white"/>
<path d="M98.2081 117.412C96.4542 117.412 95.0273 115.985 95.0273 114.231C95.0273 112.477 96.4542 111.051 98.2081 111.051C99.9621 111.051 101.389 112.477 101.389 114.231C101.389 115.985 99.9621 117.412 98.2081 117.412ZM98.2081 111.529C96.7181 111.529 95.5057 112.741 95.5057 114.231C95.5057 115.722 96.7181 116.934 98.2081 116.934C99.6982 116.934 100.911 115.722 100.911 114.231C100.911 112.741 99.6982 111.529 98.2081 111.529Z" fill="white"/>
<path d="M110.678 136.287C108.924 136.287 107.497 134.86 107.497 133.106C107.497 131.352 108.924 129.926 110.678 129.926C112.432 129.926 113.859 131.352 113.859 133.106C113.859 134.86 112.432 136.287 110.678 136.287ZM110.678 130.404C109.188 130.404 107.975 131.616 107.975 133.106C107.975 134.597 109.188 135.809 110.678 135.809C112.168 135.809 113.38 134.597 113.38 133.106C113.38 131.616 112.168 130.404 110.678 130.404Z" fill="white"/>
<path d="M122.632 129.426C120.878 129.426 119.451 127.999 119.451 126.245C119.451 124.491 120.878 123.064 122.632 123.064C124.386 123.064 125.813 124.491 125.813 126.245C125.813 127.999 124.386 129.426 122.632 129.426ZM122.632 123.543C121.142 123.543 119.93 124.755 119.93 126.245C119.93 127.735 121.142 128.948 122.632 128.948C124.122 128.948 125.334 127.735 125.334 126.245C125.334 124.755 124.122 123.543 122.632 123.543Z" fill="white"/>
<path d="M90.1887 130.996H82.873V151.055H90.1887V130.996Z" fill="white"/>
<path d="M102.261 127H94.9453V151.056H102.261V127Z" fill="white"/>
<path d="M114.334 138.094H107.019V151.057H114.334V138.094Z" fill="white"/>
<path d="M126.406 134.371H119.091V151.056H126.406V134.371Z" fill="white"/>
</g>
<defs>
<clipPath id="clip0_569_4396">
<rect x="16.5684" y="105.863" width="198.493" height="203.219" rx="15.7534" fill="white"/>
</clipPath>
</defs>
</svg>
