<svg width="231" height="322" viewBox="0 0 231 322" fill="none" xmlns="http://www.w3.org/2000/svg">
<rect x="0.554688" y="0.314453" width="230" height="321.37" rx="18.9041" fill="#E1E7FF"/>
<path d="M81.6892 22.5974V30.5623H81.5884C81.5884 29.9574 81.0339 23.9081 75.3374 23.9081H66.6667V41.0982H74.8333C79.2695 41.0982 79.7232 36.6621 79.7232 36.2084H79.7736V47.2988H79.7232C79.7232 46.8451 79.2695 42.4089 74.8333 42.4089H66.6667V60.6073H76.3456C82.0421 60.6073 82.5966 54.558 82.5966 53.953H82.6974V61.918H55.3747V61.8171C55.6771 61.8171 58.5002 61.3634 58.5002 56.2719V28.2434C58.5002 23.1519 55.6771 22.6982 55.3747 22.6982V22.5974H81.6892ZM88.2903 61.918V61.8171C88.5928 61.8171 91.4158 61.3634 91.4158 56.2719V28.2434C91.4158 23.1519 88.5928 22.6982 88.2903 22.6982V22.5974H97.6667L119.444 49.0632V28.2434C119.444 23.1519 116.621 22.6982 116.319 22.6982V22.5974H123.981V22.6982C123.679 22.6982 120.856 23.1519 120.856 28.2434V62.2204L92.8273 28.2434V56.2719C92.8273 61.3634 95.6503 61.8171 95.9528 61.8171V61.918H88.2903ZM156.295 22.5974V30.5623H156.195C156.195 29.9574 155.64 23.9081 149.944 23.9081H140.265V42.6106H149.44C153.876 42.6106 154.329 38.1744 154.329 37.7207H154.38V48.8111H154.329C154.329 48.3574 153.876 43.9212 149.44 43.9212H140.265V56.2719C140.265 61.3634 143.088 61.8171 143.39 61.8171V61.918H128.973V61.8171C129.275 61.8171 132.098 61.3634 132.098 56.2719V28.2434C132.098 23.1519 129.275 22.6982 128.973 22.6982V22.5974H156.295ZM161.096 72.5043C164.423 72.5043 164.826 66.6062 164.826 62.0692V28.2434C164.826 23.1519 162.003 22.6982 161.701 22.6982V22.5974H176.118V22.6982C175.816 22.6982 172.993 23.1519 172.993 28.2434V61.9684C172.993 68.7739 168.254 72.6051 161.096 72.6051V72.5043Z" fill="#1D42C6"/>
<path d="M64.4958 91.6445V91.613C64.5903 91.613 65.4725 91.4712 65.4725 89.8801V81.1212C65.4725 79.5301 64.5903 79.3884 64.4958 79.3884V79.3569H67.4259L74.2314 87.6274V81.1212C74.2314 79.5301 73.3492 79.3884 73.2547 79.3884V79.3569H75.6492V79.3884C75.5547 79.3884 74.6725 79.5301 74.6725 81.1212V91.7391L65.9136 81.1212V89.8801C65.9136 91.4712 66.7958 91.613 66.8903 91.613V91.6445H64.4958ZM80.2987 94.6849C81.1336 94.6849 81.6692 94.3541 82.0158 93.8815C82.5514 93.1411 82.646 92.0541 82.646 91.2664V90.3843C82.1576 91.2822 81.1651 91.8336 80.0939 91.8336C77.6679 91.8336 76.1555 89.9747 76.1555 87.3596C76.1555 84.4295 77.6679 82.2555 80.346 82.2555C81.6062 82.2555 82.2364 82.7753 82.646 83.3425V82.413H86.1432V82.4445C86.0487 82.4445 85.1665 82.5863 85.1665 84.1774V91.0144C85.1665 92.3534 84.6624 93.2829 83.9535 93.913C82.9925 94.7795 81.6377 95.063 80.6768 95.063C79.1014 95.063 78.0775 94.5117 77.4946 94.5117V92.0856H77.5418C77.6836 92.9048 78.0617 93.4877 78.5028 93.8973C79.1329 94.4801 79.8891 94.6849 80.2987 94.6849ZM78.6603 87.2021C78.6603 89.376 79.4323 91.1404 80.8028 91.1404C81.6062 91.1404 82.1891 90.6678 82.646 89.5808V84.1774C82.2364 83.311 81.6535 83.1062 81.1966 83.1062C79.7473 83.1062 78.6603 84.713 78.6603 87.2021ZM90.5924 91.8021C89.8048 91.8021 89.0959 91.5658 88.576 91.1089C88.0719 90.6521 87.7568 89.9747 87.7568 89.0767V84.1774C87.7568 82.5863 86.8746 82.4445 86.7801 82.4445V82.413H90.2774V88.8719C90.2774 89.2658 90.3089 89.7856 90.5137 90.211C90.7185 90.6206 91.0808 90.9199 91.6322 90.9199C92.7507 90.9199 93.5541 89.8014 93.5541 88.2575V84.1774C93.5541 82.5863 92.6719 82.4445 92.5774 82.4445V82.413H96.0746V83.0432C96.3267 82.8384 96.4055 82.6178 96.4212 82.413C96.4212 82.2397 96.3582 81.8301 95.7281 81.6726V81.6569L97.0356 80.7432C97.2246 80.8849 97.4925 81.3733 97.4609 81.7986C97.4137 82.5548 96.6103 83.0589 96.0746 83.2952V89.8801C96.0746 91.4712 96.9568 91.613 97.0514 91.613V91.6445H93.5541V90.0062C93.176 90.8884 92.3253 91.8021 90.5924 91.8021ZM102.908 91.8336C99.8519 91.8336 98.3396 89.6596 98.3396 87.0445C98.3396 84.4295 99.8519 82.2555 102.908 82.2555C104.074 82.2555 105.019 82.5706 105.744 83.1062C105.854 82.9486 105.885 82.7753 105.87 82.6336C105.854 82.4603 105.759 82.0664 105.114 81.9562V81.9404L106.342 80.9164C106.547 81.0425 106.846 81.5151 106.862 81.9404C106.878 82.5233 106.421 82.9959 105.98 83.311C106.972 84.1932 107.477 85.548 107.477 87.0445C107.477 89.6596 105.964 91.8336 102.908 91.8336ZM100.923 87.0445C100.923 89.376 101.459 91.4555 102.908 91.4555C104.357 91.4555 104.909 89.376 104.909 87.0445C104.909 84.713 104.357 82.6336 102.908 82.6336C101.459 82.6336 100.923 84.713 100.923 87.0445ZM101.238 80.4596V80.4123L102.073 79.2466H102.12C102.766 80.1445 103.916 81.3733 104.672 81.6726L104.625 81.7199C103.696 81.5938 102.042 81.074 101.238 80.4596ZM109.396 84.1774C109.396 82.5863 108.514 82.4445 108.419 82.4445V82.413H111.916V89.8801C111.916 91.4712 112.799 91.613 112.893 91.613V91.6445H108.419V91.613C108.514 91.613 109.396 91.4712 109.396 89.8801V84.1774ZM109.238 80.176C109.238 79.4356 109.853 78.8212 110.593 78.8212C111.334 78.8212 111.948 79.4356 111.948 80.176C111.948 80.9164 111.334 81.5308 110.593 81.5308C109.853 81.5308 109.238 80.9164 109.238 80.176ZM122.186 91.8336C119.13 91.8336 117.554 89.8171 117.554 87.0445C117.554 84.4295 119.287 82.2555 122.501 82.2555C123.856 82.2555 124.896 82.7281 125.352 82.7281V85.2486H125.305C125.242 84.8075 125.116 83.9726 124.612 83.3582C124.281 82.9486 123.761 82.6336 122.974 82.6336C120.737 82.6336 120.138 84.713 120.138 87.0445C120.138 89.376 121.052 91.1404 123.147 91.1404C124.36 91.1404 125.1 90.4945 125.541 89.7541L125.589 89.7856C125.494 90.0849 124.801 91.8336 122.186 91.8336ZM127.068 80.8062C127.068 79.2151 126.186 79.0733 126.091 79.0733V79.0418H129.588V84.0514C129.967 83.1692 130.817 82.2555 132.55 82.2555C133.338 82.2555 134.047 82.4918 134.567 82.9486C135.071 83.4055 135.386 84.0829 135.386 84.9808V89.8801C135.386 91.4712 136.268 91.613 136.362 91.613V91.6445H131.888V91.613C131.983 91.613 132.865 91.4712 132.865 89.8801V85.1856C132.865 84.7918 132.834 84.2719 132.629 83.8466C132.424 83.437 132.062 83.1377 131.51 83.1377C130.392 83.1377 129.588 84.2562 129.588 85.8V89.8801C129.588 91.4712 130.471 91.613 130.565 91.613V91.6445H126.091V91.613C126.186 91.613 127.068 91.4712 127.068 89.8801V80.8062ZM141.692 91.8336C138.635 91.8336 137.123 89.6596 137.123 87.0445C137.123 84.4295 138.635 82.2555 141.692 82.2555C144.748 82.2555 146.26 84.4295 146.26 87.0445C146.26 89.6596 144.748 91.8336 141.692 91.8336ZM139.707 87.0445C139.707 89.376 140.242 91.4555 141.692 91.4555C143.141 91.4555 143.692 89.376 143.692 87.0445C143.692 84.713 143.141 82.6336 141.692 82.6336C140.242 82.6336 139.707 84.713 139.707 87.0445ZM150.8 87.3596C150.8 84.4295 152.312 82.2555 154.99 82.2555C156.25 82.2555 156.881 82.7753 157.29 83.3425V81.011H155.085V80.5699H157.29C157.196 79.1993 156.408 79.0733 156.313 79.0733V79.0418H159.811V80.5699H160.126V81.011H159.811V89.8801C159.811 91.4712 160.693 91.613 160.787 91.613V91.6445H157.29V90.3843C156.802 91.2822 155.809 91.8336 154.738 91.8336C152.312 91.8336 150.8 89.9747 150.8 87.3596ZM153.305 87.2021C153.305 89.376 154.076 91.1404 155.447 91.1404C156.25 91.1404 156.833 90.6678 157.29 89.5808V84.1774C156.881 83.311 156.298 83.1062 155.841 83.1062C154.392 83.1062 153.305 84.713 153.305 87.2021ZM162.779 84.1774C162.779 82.5863 161.897 82.4445 161.802 82.4445V82.413H165.3V89.8801C165.3 91.4712 166.182 91.613 166.276 91.613V91.6445H161.802V91.613C161.897 91.613 162.779 91.4712 162.779 89.8801V84.1774ZM162.622 80.176C162.622 79.4356 163.236 78.8212 163.976 78.8212C164.717 78.8212 165.331 79.4356 165.331 80.176C165.331 80.9164 164.717 81.5308 163.976 81.5308C163.236 81.5308 162.622 80.9164 162.622 80.176Z" fill="#1D42C6"/>
<g clip-path="url(#clip0_569_4969)">
<path d="M115.948 306.721C170.543 306.721 214.801 262.463 214.801 207.868C214.801 153.274 170.543 109.016 115.948 109.016C61.3536 109.016 17.0957 153.274 17.0957 207.868C17.0957 262.463 61.3536 306.721 115.948 306.721Z" fill="#1D42C6"/>
<path d="M209.604 225.592H112.949C112.889 225.592 112.841 225.543 112.841 225.484V130.833C112.841 130.773 112.889 130.725 112.949 130.725H209.604C209.663 130.725 209.712 130.773 209.712 130.833V225.484C209.712 225.543 209.663 225.592 209.604 225.592ZM113.057 225.376H209.496V130.941H113.057V225.376Z" fill="white"/>
<path d="M209.604 225.481H139.96V197.04C139.96 197.04 140.492 194.706 141.078 191.731C132.366 189.97 124.74 187.063 120.682 183.152C120.682 183.152 128.415 144.327 167.712 144.383C207.009 144.439 214.418 168.12 213.914 185.537C213.697 193.026 212.024 210.29 209.604 225.481Z" fill="#A6BAFF"/>
<path d="M117.07 169.955C117.07 169.955 104.683 191.277 118.572 200.059C127.019 205.401 134.928 200.621 139.961 197.039C145.089 193.39 147.888 188.612 147.888 188.612L117.07 169.955Z" fill="#A6BAFF"/>
<path d="M170.253 225.978L154.888 225.726C153.852 209.235 150.749 195.391 149.592 178.464C148.797 166.831 156.847 153.537 160.977 147.18C163.955 145.982 166.797 144.671 169.982 144.818C173.62 144.986 177.095 146.318 180.031 147.863C176.663 155.995 174.505 163.179 172.522 171.96C168.186 191.153 168.96 210.931 170.253 225.978Z" fill="#9B9AB0"/>
<path d="M126.961 185.593H161.276L143.939 145.127H109.624L126.961 185.593Z" fill="#5D5D5D"/>
<path d="M130.845 163.062C130.569 161.003 125.941 160.726 121.451 160.804C118.154 160.862 114.405 161.174 114.405 163.859C114.405 166.979 119.05 166.975 122.073 166.715C126.559 166.33 131.115 165.076 130.845 163.062Z" fill="white"/>
<path d="M132.333 167.755C132.031 165.581 126.985 165.289 122.088 165.371C118.493 165.432 114.405 165.762 114.405 168.596C114.405 171.89 119.47 171.886 122.766 171.612C127.658 171.205 132.627 169.881 132.333 167.755Z" fill="white"/>
<path d="M132.507 173.392C132.336 171.129 127.897 170.635 123.576 170.533C120.403 170.459 116.783 170.645 116.66 173.58C116.516 176.991 120.983 177.179 123.902 177.021C128.234 176.786 132.674 175.604 132.507 173.392Z" fill="white"/>
<path d="M131.395 178.115C131.265 176.241 127.782 175.84 124.39 175.764C121.9 175.709 119.058 175.87 118.956 178.3C118.837 181.126 122.343 181.274 124.635 181.137C128.035 180.934 131.522 179.947 131.395 178.115Z" fill="white"/>
<path d="M123.796 181.261C121.735 181.261 120.299 180.875 119.519 180.108C119.043 179.64 118.817 179.031 118.848 178.296C118.873 177.709 119.057 177.215 119.396 176.825C117.44 176.311 116.483 175.218 116.552 173.575C116.587 172.749 116.899 172.079 117.482 171.581C117.08 171.498 116.714 171.395 116.389 171.272C116.333 171.25 116.305 171.188 116.326 171.132C116.348 171.076 116.41 171.048 116.466 171.07C116.84 171.211 117.273 171.327 117.754 171.413L118.004 171.458L117.798 171.607C117.141 172.083 116.804 172.73 116.768 173.584C116.702 175.158 117.663 176.193 119.626 176.66L119.818 176.706L119.676 176.843C119.29 177.217 119.09 177.695 119.064 178.305C119.036 178.976 119.24 179.531 119.671 179.954C120.542 180.81 122.311 181.165 124.928 181.009C124.988 181.006 125.038 181.051 125.042 181.11C125.046 181.17 125 181.221 124.941 181.225C124.54 181.249 124.158 181.261 123.796 181.261Z" fill="#363E44"/>
<path d="M116.115 166.345C116.058 166.345 116.01 166.3 116.007 166.243C116.004 166.183 116.05 166.132 116.109 166.129L125.641 165.635C125.7 165.632 125.752 165.678 125.755 165.737C125.758 165.797 125.712 165.848 125.653 165.851L116.121 166.345C116.119 166.345 116.117 166.345 116.115 166.345Z" fill="#363E44"/>
<path d="M117.467 171.596C117.411 171.596 117.363 171.552 117.36 171.495C117.356 171.435 117.401 171.384 117.46 171.38L126.725 170.785C126.786 170.782 126.836 170.827 126.84 170.886C126.844 170.946 126.799 170.997 126.739 171.001L117.474 171.596C117.472 171.596 117.47 171.596 117.467 171.596Z" fill="#363E44"/>
<path d="M119.496 176.848C119.438 176.848 119.39 176.803 119.388 176.745C119.385 176.685 119.431 176.635 119.491 176.632L128.946 176.195C129.005 176.193 129.056 176.239 129.059 176.298C129.062 176.358 129.016 176.408 128.956 176.411L119.501 176.848C119.499 176.848 119.497 176.848 119.496 176.848Z" fill="#363E44"/>
<path d="M178.089 197.078C172.239 186.423 169.408 180.47 162.606 169.613C159.985 165.43 156.011 162.2 155.827 157.457C155.745 155.353 156.038 153.188 157.587 153.285C160.005 153.435 159.647 160.022 161.621 160.09C163.605 160.159 166.412 153.716 163.917 152.031C162.354 150.975 160.462 154.285 158.581 152.539C157.461 151.498 159.264 149.434 160.651 148.33C161.092 147.98 162.94 146.51 165.392 147.072C167.987 147.666 168.783 150.022 168.884 150.263C169.624 148.945 171.207 148.245 172.266 148.495C173.68 148.831 174.824 150.918 173.922 153.05C174.08 152.808 175.984 151.074 177.001 151.501C178.363 152.074 178.507 153.665 177.483 156.484C178.495 155.109 180.097 154.542 180.69 154.765C182.353 155.389 183.462 156.49 181.989 163.98C185.713 168.681 195.489 184.277 195.489 184.277C195.489 184.277 195.172 192.655 178.089 197.078Z" fill="white"/>
<path d="M176.956 164.003C176.794 164.003 176.634 163.972 176.477 163.906C174.944 163.256 176.169 159.429 176.675 158.032C175.849 158.851 173.808 160.598 172.094 159.842C171.729 159.682 171.487 159.405 171.373 159.019C171.039 157.885 171.898 156.042 172.514 154.93C171.442 156.039 169.45 157.817 168.267 157.121C166.627 156.154 168.437 151.251 168.515 151.043C168.536 150.987 168.598 150.959 168.654 150.979C168.71 151 168.738 151.063 168.717 151.118C168.699 151.168 166.891 156.059 168.377 156.934C168.531 157.025 168.703 157.065 168.888 157.065C170.488 157.066 173.052 154.019 173.081 153.985C173.117 153.941 173.182 153.933 173.228 153.967C173.274 154.002 173.285 154.066 173.254 154.114C173.232 154.146 171.116 157.381 171.581 158.958C171.677 159.284 171.873 159.509 172.181 159.645C174.197 160.533 176.858 157.53 176.885 157.499C176.92 157.46 176.978 157.451 177.023 157.479C177.068 157.506 177.086 157.562 177.066 157.611C177.044 157.665 174.914 163.008 176.562 163.707C178.218 164.409 180.573 160.276 180.597 160.234C180.626 160.182 180.692 160.163 180.744 160.193C180.796 160.222 180.814 160.288 180.785 160.34C180.693 160.503 178.699 164.002 176.956 164.003Z" fill="#363E44"/>
<path d="M199.854 209.485L209.963 202.156L186.662 167.48L164.007 181.658L177.325 203.724C181.378 212.271 192.196 215.037 199.854 209.485Z" fill="#A6BAFF"/>
<path d="M201.744 190.032C201.709 190.032 201.675 190.015 201.654 189.984L186.632 167.63L185.122 168.613C185.072 168.646 185.005 168.631 184.973 168.581C184.94 168.531 184.954 168.465 185.004 168.432L186.604 167.391C186.654 167.358 186.719 167.372 186.753 167.421L201.834 189.864C201.867 189.913 201.854 189.98 201.805 190.014C201.786 190.026 201.765 190.032 201.744 190.032Z" fill="#363E44"/>
<path d="M194.203 178.81C194.201 178.81 194.199 178.81 194.196 178.81C194.137 178.806 194.091 178.755 194.095 178.696C194.454 172.499 195.949 166.235 197.186 163.759C197.213 163.706 197.278 163.684 197.331 163.711C197.385 163.737 197.406 163.802 197.38 163.856C196.178 166.259 194.663 172.62 194.311 178.708C194.307 178.766 194.26 178.81 194.203 178.81Z" fill="#363E44"/>
<path d="M185.063 253.067C198.692 253.067 209.74 242.018 209.74 228.389C209.74 214.76 198.692 203.711 185.063 203.711C171.433 203.711 160.385 214.76 160.385 228.389C160.385 242.018 171.433 253.067 185.063 253.067Z" fill="#FF9D1B"/>
<path d="M169.99 253.216C169.971 253.216 169.951 253.211 169.934 253.2C165.761 250.65 162.27 247.061 159.838 242.82C157.332 238.448 156.007 233.458 156.007 228.389C156.007 224.32 156.831 220.384 158.458 216.69C160.029 213.123 162.268 209.95 165.115 207.262C165.158 207.221 165.226 207.223 165.267 207.266C165.308 207.31 165.306 207.378 165.263 207.419C159.433 212.925 156.223 220.372 156.223 228.389C156.223 238.52 161.391 247.727 170.046 253.016C170.097 253.047 170.113 253.113 170.082 253.164C170.062 253.198 170.026 253.216 169.99 253.216Z" fill="#363E44"/>
<path d="M208.591 244.683C208.57 244.683 208.549 244.677 208.531 244.664C208.481 244.631 208.468 244.564 208.502 244.514C211.724 239.745 213.427 234.169 213.427 228.389C213.427 219.496 209.416 211.235 202.423 205.724C202.376 205.687 202.368 205.619 202.405 205.572C202.442 205.526 202.51 205.518 202.557 205.554C209.602 211.107 213.643 219.43 213.643 228.389C213.643 234.212 211.927 239.83 208.681 244.635C208.66 244.666 208.626 244.683 208.591 244.683Z" fill="#363E44"/>
<path d="M199.715 243.043C207.808 234.95 207.808 221.828 199.715 213.734C191.621 205.641 178.499 205.641 170.406 213.734C162.313 221.828 162.313 234.95 170.406 243.043C178.499 251.136 191.621 251.136 199.715 243.043Z" fill="#CB7300"/>
<path d="M185.063 251.151C172.512 251.151 162.301 240.94 162.301 228.389C162.301 215.838 172.512 205.627 185.063 205.627C197.614 205.627 207.825 215.838 207.825 228.389C207.825 240.94 197.614 251.151 185.063 251.151ZM185.063 205.843C172.631 205.843 162.517 215.957 162.517 228.389C162.517 240.821 172.631 250.935 185.063 250.935C197.495 250.935 207.609 240.821 207.609 228.389C207.609 215.957 197.495 205.843 185.063 205.843Z" fill="#FF9D1B"/>
<path d="M176.244 205.258C175.631 205.258 175.023 205.114 174.46 204.829C173.519 204.352 172.819 203.536 172.491 202.532C172.163 201.528 172.245 200.457 172.722 199.515C173.2 198.573 174.016 197.874 175.019 197.546C176.023 197.217 177.095 197.299 178.036 197.777C178.978 198.254 179.678 199.07 180.006 200.074C180.334 201.078 180.252 202.149 179.774 203.091C179.297 204.033 178.481 204.732 177.477 205.06C177.073 205.193 176.658 205.258 176.244 205.258ZM176.252 197.564C175.861 197.564 175.469 197.626 175.086 197.751C174.138 198.061 173.367 198.723 172.915 199.613C172.464 200.503 172.386 201.516 172.696 202.465C173.007 203.414 173.668 204.185 174.558 204.636C175.448 205.088 176.461 205.165 177.41 204.855C178.359 204.545 179.13 203.884 179.582 202.993C180.033 202.103 180.111 201.09 179.8 200.141C179.49 199.192 178.829 198.421 177.938 197.97C177.407 197.7 176.831 197.564 176.252 197.564Z" fill="#FF9D1B"/>
<path d="M174.518 199.269C174.015 199.269 173.515 199.15 173.053 198.916C172.281 198.524 171.706 197.855 171.437 197.031C171.167 196.207 171.235 195.328 171.627 194.555C172.019 193.781 172.688 193.207 173.512 192.938C174.336 192.668 175.215 192.736 175.988 193.128C176.761 193.52 177.336 194.189 177.605 195.013C178.161 196.714 177.23 198.55 175.53 199.106C175.198 199.215 174.857 199.269 174.518 199.269ZM174.524 192.992C174.207 192.992 173.889 193.042 173.579 193.143C172.81 193.395 172.185 193.931 171.82 194.652C171.454 195.374 171.391 196.195 171.642 196.964C171.894 197.733 172.43 198.358 173.151 198.724C173.873 199.089 174.693 199.152 175.463 198.901C177.05 198.382 177.919 196.668 177.4 195.08C177.148 194.311 176.612 193.686 175.891 193.321C175.46 193.102 174.994 192.992 174.524 192.992Z" fill="#FF9D1B"/>
<path d="M173.016 194.677C172.513 194.677 172.014 194.558 171.552 194.324C170.779 193.932 170.205 193.263 169.936 192.439C169.379 190.738 170.31 188.902 172.011 188.346C172.835 188.077 173.714 188.144 174.487 188.536C175.26 188.928 175.834 189.598 176.104 190.421C176.66 192.122 175.729 193.958 174.028 194.514C173.697 194.623 173.356 194.677 173.016 194.677ZM173.023 188.4C172.706 188.4 172.388 188.45 172.078 188.551C170.491 189.071 169.622 190.785 170.141 192.372C170.66 193.959 172.374 194.828 173.961 194.309C175.549 193.79 176.417 192.076 175.898 190.488C175.647 189.72 175.111 189.095 174.389 188.729C173.958 188.51 173.492 188.4 173.023 188.4Z" fill="#FF9D1B"/>
<path d="M171.514 190.087C171.011 190.087 170.511 189.969 170.05 189.734C169.277 189.343 168.702 188.673 168.433 187.849C168.164 187.025 168.231 186.146 168.623 185.373C169.015 184.6 169.684 184.026 170.508 183.756C171.332 183.487 172.211 183.554 172.984 183.946C173.757 184.338 174.332 185.008 174.601 185.831C174.871 186.655 174.803 187.535 174.411 188.308C174.019 189.081 173.35 189.655 172.526 189.924C172.194 190.033 171.853 190.087 171.514 190.087ZM171.52 183.81C171.203 183.81 170.885 183.86 170.575 183.962C168.988 184.481 168.119 186.195 168.638 187.782C168.89 188.551 169.426 189.176 170.147 189.542C170.869 189.908 171.69 189.971 172.459 189.719C174.046 189.2 174.915 187.486 174.396 185.899C174.144 185.13 173.609 184.505 172.887 184.139C172.456 183.92 171.99 183.81 171.52 183.81Z" fill="#FF9D1B"/>
<path d="M170.011 185.495C169.508 185.495 169.009 185.377 168.547 185.143C167.774 184.751 167.2 184.081 166.931 183.257C166.374 181.557 167.305 179.721 169.006 179.164C169.83 178.895 170.709 178.962 171.482 179.354C172.255 179.746 172.829 180.416 173.099 181.24C173.655 182.94 172.724 184.776 171.023 185.333C170.692 185.441 170.351 185.495 170.011 185.495ZM170.013 179.219C169.701 179.219 169.385 179.268 169.073 179.37C167.486 179.889 166.617 181.603 167.136 183.19C167.388 183.959 167.923 184.584 168.645 184.95C169.367 185.316 170.187 185.379 170.956 185.127C172.544 184.608 173.413 182.894 172.894 181.307C172.476 180.031 171.287 179.219 170.013 179.219Z" fill="#FF9D1B"/>
<path d="M168.51 180.902C168.007 180.902 167.507 180.784 167.046 180.55C166.273 180.158 165.699 179.488 165.429 178.664C165.16 177.84 165.227 176.961 165.619 176.188C166.011 175.415 166.68 174.841 167.504 174.571C169.205 174.015 171.041 174.946 171.597 176.647C172.154 178.347 171.222 180.183 169.522 180.74C169.19 180.848 168.849 180.902 168.51 180.902ZM168.511 174.626C168.199 174.626 167.883 174.675 167.571 174.777C166.803 175.028 166.178 175.564 165.812 176.286C165.446 177.007 165.383 177.828 165.634 178.597C165.886 179.366 166.422 179.991 167.143 180.357C167.865 180.723 168.686 180.786 169.455 180.534C171.042 180.015 171.911 178.301 171.392 176.714C170.975 175.438 169.786 174.626 168.511 174.626Z" fill="#FF9D1B"/>
<path d="M167.013 176.31C165.647 176.31 164.374 175.44 163.927 174.074C163.37 172.373 164.301 170.537 166.002 169.981C166.826 169.711 167.705 169.779 168.478 170.171C169.251 170.563 169.825 171.232 170.095 172.056C170.364 172.88 170.297 173.759 169.905 174.532C169.513 175.305 168.844 175.88 168.02 176.149C167.686 176.258 167.347 176.31 167.013 176.31ZM167.014 170.034C166.697 170.034 166.379 170.085 166.069 170.186C164.482 170.705 163.613 172.419 164.132 174.006C164.651 175.594 166.365 176.463 167.952 175.944C168.721 175.692 169.346 175.156 169.712 174.434C170.078 173.713 170.141 172.892 169.89 172.123C169.638 171.354 169.102 170.729 168.38 170.363C167.95 170.145 167.483 170.034 167.014 170.034Z" fill="#FF9D1B"/>
<path d="M165.506 171.72C165.003 171.72 164.504 171.601 164.042 171.367C163.269 170.975 162.695 170.306 162.425 169.482C162.156 168.658 162.223 167.779 162.615 167.006C163.007 166.233 163.677 165.658 164.5 165.389C165.324 165.119 166.204 165.187 166.977 165.579C167.75 165.971 168.324 166.641 168.593 167.464C169.15 169.165 168.219 171.001 166.518 171.557C166.186 171.666 165.845 171.72 165.506 171.72ZM165.512 165.443C165.196 165.443 164.877 165.493 164.568 165.595C163.799 165.846 163.174 166.382 162.808 167.104C162.442 167.825 162.379 168.646 162.63 169.415C162.882 170.184 163.418 170.809 164.139 171.175C164.861 171.541 165.682 171.604 166.451 171.352C168.038 170.833 168.907 169.119 168.388 167.532C168.137 166.763 167.601 166.138 166.879 165.772C166.448 165.553 165.982 165.443 165.512 165.443Z" fill="#FF9D1B"/>
<path d="M164.004 167.128C163.501 167.128 163.001 167.01 162.539 166.776C161.766 166.384 161.192 165.714 160.923 164.89C160.367 163.19 161.297 161.354 162.998 160.797C163.822 160.528 164.701 160.595 165.474 160.987C166.247 161.379 166.822 162.049 167.091 162.873C167.647 164.573 166.716 166.409 165.016 166.965C164.684 167.074 164.343 167.128 164.004 167.128ZM164.01 160.851C163.693 160.851 163.375 160.901 163.065 161.003C161.478 161.522 160.609 163.236 161.128 164.823C161.38 165.592 161.916 166.217 162.637 166.583C163.359 166.949 164.18 167.012 164.949 166.76C166.536 166.241 167.405 164.527 166.886 162.94C166.634 162.171 166.098 161.546 165.377 161.18C164.946 160.961 164.479 160.851 164.01 160.851Z" fill="#FF9D1B"/>
<path d="M162.502 162.536C161.999 162.536 161.499 162.418 161.038 162.184C160.265 161.792 159.69 161.122 159.421 160.298C158.865 158.598 159.796 156.762 161.496 156.205C162.32 155.936 163.199 156.003 163.972 156.395C164.745 156.787 165.32 157.457 165.589 158.281C166.145 159.981 165.214 161.817 163.514 162.374C163.182 162.482 162.841 162.536 162.502 162.536ZM162.508 156.259C162.191 156.259 161.873 156.309 161.563 156.411C159.976 156.93 159.107 158.644 159.626 160.231C160.146 161.819 161.859 162.687 163.447 162.168C165.034 161.649 165.903 159.935 165.384 158.348C165.132 157.579 164.596 156.954 163.875 156.588C163.444 156.37 162.978 156.259 162.508 156.259Z" fill="#FF9D1B"/>
<path d="M161 157.944C160.497 157.944 159.998 157.826 159.536 157.592C158.763 157.2 158.189 156.53 157.919 155.707C157.65 154.883 157.717 154.003 158.109 153.23C158.501 152.457 159.171 151.883 159.995 151.614C160.818 151.344 161.698 151.412 162.471 151.804C163.244 152.195 163.818 152.865 164.087 153.689C164.357 154.513 164.29 155.392 163.898 156.165C163.505 156.938 162.836 157.512 162.012 157.782C161.68 157.89 161.339 157.944 161 157.944ZM161.006 151.667C160.69 151.667 160.371 151.718 160.062 151.819C158.474 152.338 157.605 154.052 158.125 155.64C158.376 156.408 158.912 157.033 159.634 157.399C160.355 157.765 161.176 157.828 161.945 157.577C162.714 157.325 163.339 156.789 163.705 156.068C164.071 155.346 164.134 154.525 163.882 153.756C163.631 152.987 163.095 152.362 162.373 151.996C161.942 151.778 161.476 151.667 161.006 151.667Z" fill="#FF9D1B"/>
<path d="M160.651 148.331C159.264 149.434 157.684 151.3 158.581 152.539C159.843 154.281 162.468 151.168 163.917 152.031C163.625 150.411 162.846 148.834 162.223 147.379C161.424 147.718 160.867 148.159 160.651 148.331Z" fill="white"/>
<path d="M151.713 125.019C146.692 125.902 148.185 121.627 148.185 121.627C144.866 117.474 146.518 113.31 152.84 112.669C158.088 112.138 158.86 112.517 166.394 114.186C169.829 115.557 171.298 116.89 171.999 121.725C172.001 123.024 172.55 133.896 171.445 134.574C164.45 132.425 152.284 124.919 151.713 125.019Z" fill="black"/>
<path d="M175.28 143.701L171.017 128.965L160.124 136.9L162.049 144.975L175.28 143.701Z" fill="white"/>
<path d="M151.713 125.021C151.713 125.021 153.27 140.851 159.686 141.343C163.567 141.641 167.124 136.667 167.987 134.544C168.85 132.421 167.987 128.951 167.987 128.951C167.987 128.951 166.684 130.188 165.636 129.371C164.589 128.554 165.799 123.417 161.193 123.627C156.588 123.837 156.088 125.81 151.713 125.021Z" fill="white"/>
<path d="M165.77 127.473C165.77 127.473 165.024 134.375 158.061 135.438C154.512 135.98 153.858 134.72 153.858 134.72C153.858 134.72 153.767 143.782 157.751 144.041C161.734 144.3 168.039 140.937 168.56 138.402C169.081 135.867 165.77 127.473 165.77 127.473Z" fill="black"/>
<path d="M166.403 126.492C165.909 128.053 166.387 130.895 167.927 131.395C169.467 131.896 171.486 129.865 171.98 128.304C172.474 126.744 171.626 125.073 170.085 124.572C168.545 124.072 166.896 124.931 166.403 126.492Z" fill="white"/>
<path d="M152.051 130.303C152.064 130.331 152.054 130.361 152.067 130.39C152.067 130.391 152.068 130.392 152.069 130.393C152.124 130.831 152.18 131.294 152.155 131.734C152.144 131.93 152.062 132.065 152.03 132.248C152.008 132.382 151.986 132.511 151.959 132.642C150.669 131.981 149.894 130.841 149.894 130.841C149.894 130.841 150.853 130.376 152.051 130.303Z" fill="#A6BAFF"/>
<path d="M153.471 130.437C155.11 130.873 156.188 132.289 156.363 132.531C156.353 132.553 156.343 132.575 156.333 132.597C156.025 132.737 154.426 133.404 152.813 132.975C152.511 132.894 152.229 132.779 151.967 132.645C151.915 132.537 151.867 132.426 151.829 132.308C151.608 131.612 151.712 130.889 152.053 130.305C152.502 130.28 152.985 130.308 153.471 130.437Z" fill="#363E44"/>
<path d="M160.708 130.582C160.875 131.076 160.91 131.48 160.767 131.959C159.578 132.268 158.515 132.103 158.515 132.103C158.515 132.103 159.011 130.548 160.236 129.512C160.473 129.812 160.59 130.231 160.708 130.582Z" fill="#A6BAFF"/>
<path d="M160.793 131.953C160.193 131.315 159.966 130.381 160.238 129.515C160.377 129.4 160.522 129.289 160.679 129.19C162.253 128.195 164.214 128.502 164.214 128.502C164.214 128.502 163.624 130.421 162.05 131.416C161.643 131.673 161.21 131.842 160.793 131.953Z" fill="#363E44"/>
<path d="M170.427 128.553C170.417 128.553 170.406 128.552 170.396 128.548C170.339 128.531 170.307 128.47 170.324 128.413C170.351 128.324 170.371 128.231 170.384 128.137C170.481 127.384 170.057 126.703 169.438 126.621C169.289 126.601 169.14 126.617 168.994 126.668C168.938 126.688 168.877 126.658 168.857 126.602C168.837 126.546 168.867 126.484 168.923 126.464C169.101 126.402 169.284 126.382 169.466 126.407C170.203 126.505 170.711 127.293 170.598 128.165C170.584 128.271 170.562 128.376 170.531 128.477C170.516 128.523 170.473 128.553 170.427 128.553Z" fill="#363E44"/>
<path d="M157.064 134.684C157.04 134.684 157.017 134.676 156.996 134.66C156.767 134.475 156.637 134.269 156.609 134.047C156.578 133.803 156.678 133.627 156.794 133.423C156.872 133.286 156.96 133.13 157.022 132.925C157.101 132.664 157.121 132.378 157.081 132.077C157.073 132.018 157.115 131.964 157.174 131.956C157.233 131.948 157.287 131.99 157.295 132.049C157.339 132.381 157.317 132.697 157.229 132.988C157.159 133.216 157.065 133.383 156.982 133.53C156.877 133.714 156.802 133.847 156.824 134.02C156.844 134.184 156.948 134.343 157.132 134.492C157.179 134.529 157.186 134.597 157.148 134.644C157.127 134.67 157.096 134.684 157.064 134.684Z" fill="#363E44"/>
<path d="M158.911 136.632C158.768 136.632 158.615 136.607 158.452 136.555C158.396 136.537 158.364 136.477 158.382 136.42C158.4 136.363 158.46 136.331 158.518 136.349C158.846 136.453 159.122 136.435 159.338 136.297C159.744 136.038 159.825 135.432 159.826 135.426C159.834 135.367 159.889 135.326 159.947 135.333C160.006 135.34 160.048 135.394 160.04 135.453C160.037 135.482 159.946 136.164 159.455 136.479C159.295 136.581 159.113 136.632 158.911 136.632Z" fill="#363E44"/>
<path d="M180.03 147.86L169.955 145.488L160.976 147.178L161.502 144.382L177.586 141.354L180.03 147.86Z" fill="#0038FF"/>
<path d="M94.0051 131.794H93.8982C94.4813 130.7 94.813 129.453 94.813 128.127C94.813 123.818 91.3197 120.325 87.0106 120.325C86.6262 120.325 86.2487 120.354 85.8793 120.408C85.9049 120.173 85.9191 119.934 85.9191 119.692C85.9191 116.091 82.9997 113.171 79.3982 113.171C77.5045 113.171 75.8002 113.979 74.6088 115.268C73.6951 112.771 71.2973 110.988 68.4832 110.988C65.9916 110.988 63.8272 112.386 62.7295 114.44C61.6238 113.643 60.2673 113.171 58.7999 113.171C55.0853 113.171 52.0738 116.183 52.0738 119.897C52.0738 120.048 52.0806 120.198 52.0904 120.347C51.9073 120.334 51.7233 120.325 51.537 120.325C47.2279 120.325 43.7347 123.818 43.7347 128.127C43.7347 129.455 44.0675 130.705 44.6529 131.8C41.0987 131.94 38.2598 134.864 38.2598 138.452C38.2598 141.305 40.0546 143.738 42.5764 144.686C43.4209 149.195 47.376 152.61 52.1309 152.61C55.8096 152.61 59.0105 150.566 60.6624 147.553C61.7456 148.492 63.1577 149.061 64.7036 149.061C67.3296 149.061 69.5713 147.421 70.4642 145.11H94.0051C97.6823 145.11 100.663 142.129 100.663 138.452C100.663 134.775 97.6822 131.794 94.0051 131.794Z" fill="#9B9AB0"/>
<path d="M70.0327 133.739H60.6507C60.591 133.739 60.5427 133.691 60.5427 133.631C60.5427 133.572 60.591 133.523 60.6507 133.523H70.0327C71.9297 133.523 73.4729 131.98 73.4729 130.083C73.4729 128.278 72.0039 126.809 70.1983 126.809H59.3666C57.442 126.809 55.876 125.243 55.876 123.318C55.876 121.393 57.4418 119.828 59.3666 119.828H62.8149C64.9058 119.828 66.8455 118.611 67.7567 116.73L68.3414 115.522C68.3675 115.468 68.432 115.446 68.4857 115.472C68.5394 115.498 68.5619 115.562 68.5359 115.616L67.9512 116.824C67.0042 118.78 64.988 120.044 62.8149 120.044H59.3666C57.561 120.044 56.092 121.513 56.092 123.318C56.092 125.124 57.561 126.593 59.3666 126.593H70.1983C72.1229 126.593 73.6889 128.159 73.6889 130.083C73.6889 132.099 72.0487 133.739 70.0327 133.739Z" fill="#363E44"/>
<path d="M50.9928 149.898C50.9331 149.898 50.8848 149.849 50.8848 149.79V147.268C50.8848 145.346 52.4482 143.783 54.3698 143.783H59.9267C61.7292 143.783 63.1956 142.316 63.1956 140.514C63.1956 138.711 61.7292 137.245 59.9267 137.245H54.3698C52.4521 137.245 50.8914 135.688 50.8848 133.772V133.76C50.8912 131.844 52.4521 130.287 54.3698 130.287H67.0652C67.1249 130.287 67.1732 130.336 67.1732 130.395C67.1732 130.455 67.1249 130.503 67.0652 130.503H54.3697C52.5691 130.503 51.104 131.966 51.1007 133.766C51.104 135.566 52.5691 137.029 54.3697 137.029H59.9266C61.8481 137.029 63.4115 138.592 63.4115 140.514C63.4115 142.436 61.8481 143.999 59.9266 143.999H54.3697C52.5671 143.999 51.1007 145.465 51.1007 147.268V149.79C51.1008 149.849 51.0524 149.898 50.9928 149.898Z" fill="#363E44"/>
<path d="M56.35 140.75H47.4351C44.8614 140.75 42.7676 138.656 42.7676 136.082H42.9836C42.9836 138.537 44.9805 140.533 47.4351 140.533H56.35C56.4097 140.533 56.458 140.582 56.458 140.641C56.458 140.701 56.4096 140.75 56.35 140.75Z" fill="#363E44"/>
<path d="M52.5316 127.185H52.0756C49.9419 127.185 48.2061 125.449 48.2061 123.315C48.2061 123.255 48.2543 123.207 48.3141 123.207C48.3738 123.207 48.4221 123.255 48.4221 123.315C48.4221 125.33 50.0611 126.969 52.0756 126.969H52.5316C52.5913 126.969 52.6396 127.017 52.6396 127.077C52.6396 127.136 52.5912 127.185 52.5316 127.185Z" fill="#363E44"/>
<path d="M75.032 122.853H64.7828C64.7231 122.853 64.6748 122.805 64.6748 122.745C64.6748 122.686 64.7231 122.637 64.7828 122.637H75.032C77.0043 122.637 78.8129 121.56 79.7523 119.826L81.1625 117.223C81.1908 117.17 81.2564 117.151 81.309 117.179C81.3614 117.208 81.3809 117.273 81.3524 117.326L79.9422 119.929C78.9652 121.733 77.0837 122.853 75.032 122.853Z" fill="#363E44"/>
<path d="M94.2514 140.2H78.4456C76.6049 140.2 75.1074 138.702 75.1074 136.862C75.1074 135.021 76.6049 133.523 78.4456 133.523H86.0058C87.7273 133.523 89.1279 132.123 89.1279 130.401V130.262C89.1279 128.54 87.7273 127.14 86.0058 127.14H77.3813C77.3215 127.14 77.2732 127.091 77.2732 127.032C77.2732 126.972 77.3215 126.924 77.3813 126.924H86.0058C87.8465 126.924 89.344 128.421 89.344 130.262V130.401C89.344 132.242 87.8465 133.739 86.0058 133.739H78.4456C76.7241 133.739 75.3235 135.14 75.3235 136.862C75.3235 138.583 76.7241 139.984 78.4456 139.984H94.2514C94.3111 139.984 94.3594 140.032 94.3594 140.092C94.3594 140.152 94.3111 140.2 94.2514 140.2Z" fill="#363E44"/>
<path d="M65.441 145.024C65.428 145.024 65.4146 145.022 65.4017 145.017C65.3461 144.995 65.3187 144.932 65.3405 144.877L66.5279 141.842C67.3809 139.662 69.4444 138.254 71.7851 138.254H73.0195C73.0793 138.254 73.1276 138.302 73.1276 138.362C73.1276 138.422 73.0793 138.47 73.0195 138.47H71.7851C69.534 138.47 67.5495 139.825 66.7292 141.921L65.5417 144.956C65.5249 144.998 65.4842 145.024 65.441 145.024Z" fill="#363E44"/>
<path d="M84.4201 130.503H78.3502C78.2905 130.503 78.2422 130.455 78.2422 130.395C78.2422 130.336 78.2905 130.287 78.3502 130.287H84.4201C84.4799 130.287 84.5281 130.336 84.5281 130.395C84.5281 130.455 84.4799 130.503 84.4201 130.503Z" fill="#363E44"/>
<path d="M94.2516 136.646H82.1119C82.0522 136.646 82.0039 136.597 82.0039 136.538C82.0039 136.478 82.0522 136.43 82.1119 136.43H94.2516C94.3113 136.43 94.3596 136.478 94.3596 136.538C94.3596 136.597 94.3113 136.646 94.2516 136.646Z" fill="#363E44"/>
<path d="M77.6699 133.487H81.3282V136.608H77.6699V139.104H89.2632V130.107H77.6699V133.487Z" fill="#FF9D1B"/>
<path d="M80.4961 140.671H83.2627V143.137H80.4961V145.109H89.2633V138H80.4961V140.671Z" fill="#FF9D1B"/>
<path d="M72.1758 177.818C72.1758 187.241 79.8147 194.88 89.2378 194.88C98.6609 194.88 106.3 187.241 106.3 177.818C106.3 168.395 98.6609 160.756 89.2378 160.756C79.8147 160.756 72.1758 168.395 72.1758 177.818ZM94.233 184.889C94.233 187.648 91.9966 189.884 89.2377 189.884C86.4788 189.884 84.2423 187.648 84.2423 184.889C84.2423 182.13 86.4788 179.894 89.2377 179.894C91.9966 179.894 94.233 182.13 94.233 184.889Z" fill="#FF9D1B"/>
<path d="M86.3252 129.944V169.889H92.1505V129.944C92.1505 128.335 90.8465 127.031 89.2378 127.031C87.6292 127.031 86.3252 128.335 86.3252 129.944Z" fill="#FF9D1B"/>
<path d="M89.2381 192.14C81.3403 192.14 74.915 185.715 74.915 177.817C74.915 169.919 81.3404 163.494 89.2381 163.494C97.1359 163.494 103.561 169.919 103.561 177.817C103.561 185.715 97.1357 192.14 89.2381 192.14ZM89.2381 163.71C81.4595 163.71 75.1311 170.039 75.1311 177.817C75.1311 185.596 81.4595 191.924 89.2381 191.924C97.0167 191.924 103.345 185.596 103.345 177.817C103.345 170.039 97.0167 163.71 89.2381 163.71Z" fill="#1D42C6"/>
<path d="M128.408 255.212L57.3842 261.829L25.6211 181.902H45.9896L69.6502 241.44L121.46 237.727L128.408 255.212Z" fill="#F7F1EB"/>
<path d="M137.353 255.303L133.68 273.549L166.321 282.623C166.321 282.623 163.248 255.331 137.353 255.303Z" fill="#F7F1EB"/>
<path d="M145.47 267.195L158.492 274.671L165.738 267.893L154.096 257.545L145.47 267.195Z" fill="#E2A18D"/>
<path d="M150.8 286.877L192.809 277.538C192.809 277.538 180.226 266.17 162.109 263.672L152.035 271.873C152.035 271.873 150.752 279.669 150.8 286.877Z" fill="white"/>
<path d="M163.905 271.364C163.888 271.364 163.871 271.36 163.855 271.352C163.802 271.324 163.782 271.259 163.809 271.206L166.987 265.068C167.015 265.015 167.08 264.994 167.133 265.022C167.186 265.049 167.207 265.115 167.179 265.168L164.001 271.305C163.982 271.342 163.944 271.364 163.905 271.364Z" fill="#363E44"/>
<path d="M167.839 272.204C167.823 272.204 167.806 272.2 167.79 272.192C167.737 272.164 167.716 272.099 167.744 272.046L170.922 265.908C170.949 265.855 171.014 265.834 171.067 265.862C171.12 265.889 171.141 265.954 171.114 266.007L167.935 272.145C167.916 272.182 167.878 272.204 167.839 272.204Z" fill="#363E44"/>
<path d="M102.664 239.215L147.106 270.231L157.447 257.564L130.292 229.504C130.292 229.504 121.733 221.557 114.074 227.834C106.415 234.111 102.664 239.215 102.664 239.215Z" fill="#C46F00"/>
<path d="M146.811 222.259C146.437 220.117 145.692 218.121 144.655 216.327C141.377 210.654 135.152 207.025 128.284 207.359C102.088 208.636 79.3912 222.468 59.3193 245.718C59.3193 245.718 61.1982 252.163 74.0763 257.517C83.0678 261.255 118.858 231.114 125.336 226.42L135.157 256.997C135.249 256.964 154.119 262.53 153.824 261.756C153.629 261.244 149.553 237.979 146.811 222.259Z" fill="#C46F00"/>
<path d="M105.771 241.547C105.739 241.547 105.706 241.532 105.685 241.505C105.649 241.457 105.658 241.389 105.706 241.353L131.377 221.79C131.425 221.754 131.492 221.763 131.528 221.81C131.565 221.858 131.555 221.925 131.508 221.961L105.837 241.525C105.817 241.54 105.794 241.547 105.771 241.547Z" fill="#363E44"/>
<path d="M151.137 251.151C151.109 251.151 151.08 251.14 151.059 251.118L129.189 228.464C129.148 228.421 129.149 228.353 129.192 228.312C129.235 228.27 129.304 228.271 129.345 228.314L151.215 250.968C151.256 251.011 151.255 251.079 151.212 251.121C151.191 251.141 151.164 251.151 151.137 251.151Z" fill="#363E44"/>
<path d="M55.1946 185.766C53.2728 187.848 45.9669 184.838 45.9669 184.838L40.7001 177.966C39.8767 174.066 42.3714 170.236 46.272 169.413C50.1727 168.59 54.0022 171.084 54.8255 174.985C54.8255 174.985 57.152 183.645 55.1946 185.766Z" fill="#E2A18D"/>
<path d="M44.4516 195.742L56.7191 199.423L52.7803 192.848L49.2409 176.08L40.6826 177.887L44.4516 195.742Z" fill="#E2A18D"/>
<path d="M54.4053 177.012C54.4053 177.012 56.8244 178.669 56.8347 179.239C56.8469 179.92 54.7244 180.785 54.7244 180.785C54.7244 180.785 54.459 177.006 54.4053 177.012Z" fill="#E2A18D"/>
<path d="M51.4402 186.615C51.4352 186.615 51.4299 186.615 51.4247 186.614C48.836 186.24 45.9801 185.071 45.9517 185.059C45.8965 185.037 45.8702 184.974 45.8929 184.918C45.9157 184.863 45.9789 184.837 46.034 184.86C46.0623 184.871 48.8942 186.03 51.4556 186.4C51.5147 186.409 51.5556 186.463 51.5471 186.522C51.5393 186.576 51.4931 186.615 51.4402 186.615Z" fill="#363E44"/>
<path d="M54.3415 182.717C53.9314 182.717 53.5977 182.383 53.5977 181.973C53.5977 181.673 53.7759 181.404 54.0519 181.288C54.107 181.265 54.1704 181.29 54.1936 181.345C54.2168 181.4 54.1911 181.464 54.1362 181.487C53.9404 181.57 53.8138 181.761 53.8138 181.973C53.8138 182.264 54.0505 182.501 54.3416 182.501C54.4475 182.501 54.5495 182.47 54.6367 182.411C54.6863 182.378 54.7533 182.391 54.7868 182.44C54.8201 182.489 54.8071 182.557 54.7576 182.59C54.6344 182.673 54.4906 182.717 54.3415 182.717Z" fill="#363E44"/>
<path d="M51.1386 178.099C50.4169 178.099 49.7032 177.986 49.0103 177.761C48.9536 177.743 48.9225 177.682 48.9408 177.625C48.9593 177.568 49.0203 177.537 49.0769 177.556C49.901 177.823 50.7562 177.928 51.6172 177.866C52.4027 177.81 53.1662 177.617 53.8864 177.293C53.9412 177.268 54.0049 177.293 54.0293 177.347C54.0538 177.401 54.0295 177.465 53.9752 177.49C53.2317 177.825 52.4436 178.024 51.6325 178.082C51.4677 178.093 51.3029 178.099 51.1386 178.099Z" fill="#363E44"/>
<path d="M38.8656 181.088C37.442 178.48 36.6299 174.824 38.1461 171.825C40.1008 167.959 43.3143 166.702 47.1538 166.678C53.109 166.641 56.1454 172.581 56.1454 172.581C56.1454 172.581 50.6505 173.84 48.8113 174.315C46.2254 174.983 49.898 182.389 44.8614 180.274C44.3071 180.042 43.3491 183.881 41.9484 183.881C41.4274 183.88 39.2849 181.856 38.8656 181.088Z" fill="#363E44"/>
<path d="M47.3514 178.488C48.1465 179.597 47.8927 181.14 46.7845 181.935C45.6762 182.73 44.1333 182.476 43.3382 181.368C42.5432 180.259 42.433 178.466 43.5412 177.671C44.6495 176.876 46.5563 177.38 47.3514 178.488Z" fill="#E2A18D"/>
<path d="M45.2983 181.509C44.7758 181.509 44.2771 181.26 43.9636 180.822C43.4391 180.091 43.3721 178.905 44.1147 178.372C44.6904 177.959 45.4992 178.085 46.0456 178.392C46.0975 178.421 46.116 178.487 46.0869 178.539C46.0575 178.591 45.9918 178.609 45.9397 178.58C45.3643 178.256 44.6654 178.243 44.2406 178.548C43.6015 179.007 43.6742 180.048 44.1391 180.696C44.4744 181.164 45.0535 181.384 45.6147 181.257C45.6729 181.244 45.7308 181.281 45.7439 181.339C45.757 181.397 45.7205 181.455 45.6624 181.468C45.5412 181.495 45.419 181.509 45.2983 181.509Z" fill="#363E44"/>
<path d="M56.5991 257.685L87.127 220.627L55.8892 192.15L43.2155 190.262L40.3406 196.903C40.3406 196.903 33.8328 218.374 56.5991 257.685Z" fill="#9B9AB0"/>
<path d="M131.915 236.937H55.1261L50.9854 227.264H131.915V236.937Z" fill="#F7F1EB"/>
<path d="M123.863 224.931C122.29 224.069 116.323 219.437 113.133 220.919C109.919 222.413 108.242 225.939 107.828 229.446C107.837 229.457 107.846 229.47 107.855 229.481C108.16 230.411 108.76 231.755 110.025 232.775C111.466 233.936 112.39 233.562 114.102 234.553C116.992 236.225 117.166 239.016 118.296 238.667C119.072 238.428 119.041 236.798 118.625 235.317C118.198 233.797 117.278 232.992 117.464 232.811C117.667 232.613 118.495 233.551 119.631 234.623C120.159 235.121 120.764 237.376 121.872 237.206C122.756 237.069 122.717 234.569 121.534 232.731C120.696 231.431 119.255 230.997 119.389 230.749C119.49 230.562 120.342 230.842 121.005 231.301C122.099 232.058 122.742 234.359 123.759 234.182C124.756 234.008 124.683 231.825 123.702 230.066C122.875 228.583 121.244 228.176 121.409 227.866C121.525 227.649 122.292 227.68 123.809 228.219C125.075 228.668 127.246 230.354 127.915 229.107C128.477 228.058 126.239 226.234 123.863 224.931Z" fill="#E2A18D"/>
<path d="M80.7789 221.079C76.9028 221.898 73.9444 225.134 73.6459 229.067C73.4502 231.645 74.415 234.435 78.2528 236.48C87.5972 241.458 111.015 229.916 111.015 229.916L114.861 220.637C103.658 218.823 91.4482 218.826 80.7789 221.079Z" fill="#E2A18D"/>
<path d="M62.0352 203.022L68.1527 218.874C68.1527 218.874 87.5682 218.615 99.5886 217.857L96.187 239.592C96.187 239.592 64.5887 246.65 54.8388 243.106C46.0381 239.906 41.9345 215.084 46.0381 203.022C46.8504 200.634 62.0352 203.022 62.0352 203.022Z" fill="#9B9AB0"/>
<path d="M68.1532 218.982C68.1086 218.982 68.0685 218.954 68.0524 218.912L61.935 203.061C61.9135 203.005 61.9413 202.943 61.9968 202.921C62.0526 202.9 62.115 202.927 62.1365 202.983L68.2269 218.765C69.0548 218.753 76.5464 218.644 84.7903 218.39C84.7914 218.39 84.7926 218.39 84.7937 218.39C84.8518 218.39 84.8996 218.436 84.9016 218.495C84.9034 218.555 84.8565 218.604 84.7969 218.606C76.0961 218.874 68.2331 218.981 68.1546 218.982C68.1542 218.982 68.1537 218.982 68.1532 218.982Z" fill="#363E44"/>
<path d="M62.9252 244.209C59.3573 244.209 56.6372 243.874 54.8018 243.207C51.368 241.959 48.3897 237.372 46.4152 230.293C44.6225 223.865 43.9287 216.208 44.5595 209.81C44.5653 209.751 44.6176 209.707 44.6776 209.714C44.737 209.719 44.7804 209.772 44.7745 209.832C44.1463 216.204 44.8374 223.831 46.6232 230.235C48.5784 237.245 51.5092 241.78 54.8756 243.004C57.6391 244.009 62.4513 244.249 69.1791 243.72C69.2377 243.715 69.2905 243.759 69.2953 243.819C69.2999 243.878 69.2555 243.93 69.196 243.935C66.8788 244.118 64.7864 244.209 62.9252 244.209Z" fill="#363E44"/>
<path d="M146.042 286.275L126.703 251.604L57.9157 260.913L25.6212 181.902L17.2881 181.998L53.7749 271.265L122.562 261.956L136.127 286.275H146.042Z" fill="#E6D0BE"/>
<path d="M29.3195 181.091C28.7282 181.091 28.3224 180.938 28.113 180.636C28.0082 180.485 27.9551 180.299 27.9551 180.082C27.9551 179.992 27.9646 179.894 27.9833 179.792C27.994 179.733 28.0506 179.694 28.1089 179.705C28.1677 179.716 28.2065 179.772 28.1958 179.831C28.1795 179.92 28.1711 180.005 28.1711 180.082C28.1711 180.254 28.2113 180.399 28.2905 180.513C28.457 180.753 28.8032 180.875 29.3194 180.875L29.3772 180.874C29.3777 180.874 29.3783 180.874 29.379 180.874C29.4379 180.874 29.4859 180.921 29.487 180.98C29.488 181.04 29.4405 181.089 29.3808 181.09L29.3195 181.091ZM30.66 180.908C30.6109 180.908 30.5664 180.875 30.5549 180.825C30.5413 180.767 30.5774 180.709 30.6356 180.695C31.0092 180.608 31.4253 180.489 31.872 180.34C31.9283 180.322 31.9898 180.352 32.0087 180.409C32.0275 180.465 31.9969 180.527 31.9402 180.545C31.4871 180.696 31.0647 180.817 30.6845 180.906C30.6763 180.908 30.6681 180.908 30.66 180.908ZM33.1239 180.105C33.0811 180.105 33.0403 180.079 33.0235 180.037C33.0015 179.981 33.0287 179.919 33.0842 179.897C33.4636 179.747 33.8645 179.578 34.2759 179.396C34.331 179.372 34.3946 179.397 34.4184 179.452C34.4425 179.506 34.4178 179.57 34.3632 179.594C33.9492 179.777 33.5456 179.946 33.1636 180.098C33.1506 180.103 33.1372 180.105 33.1239 180.105ZM35.4976 179.061C35.4573 179.061 35.4185 179.038 35.4 178.999C35.3743 178.946 35.3971 178.881 35.4509 178.855C35.8264 178.676 36.2169 178.483 36.6116 178.283C36.6648 178.256 36.7297 178.277 36.7569 178.33C36.7839 178.383 36.7627 178.448 36.7094 178.475C36.3132 178.677 35.9211 178.87 35.5442 179.05C35.529 179.058 35.5133 179.061 35.4976 179.061ZM28.5847 178.729C28.5661 178.729 28.5474 178.724 28.5303 178.714C28.4787 178.684 28.4614 178.618 28.4916 178.567C28.6851 178.236 28.9326 177.872 29.2273 177.484C29.2633 177.436 29.331 177.427 29.3787 177.463C29.4261 177.499 29.4353 177.567 29.3992 177.615C29.1097 177.995 28.867 178.352 28.6779 178.676C28.658 178.71 28.6218 178.729 28.5847 178.729ZM37.8103 177.887C37.7718 177.887 37.7344 177.866 37.7149 177.83C37.6867 177.777 37.7066 177.712 37.7592 177.684C38.1317 177.485 38.514 177.276 38.8955 177.063C38.9474 177.034 39.0134 177.053 39.0425 177.105C39.0716 177.157 39.0529 177.222 39.0008 177.252C38.6182 177.465 38.2347 177.675 37.8611 177.874C37.845 177.883 37.8275 177.887 37.8103 177.887ZM30.1346 176.654C30.1094 176.654 30.0841 176.645 30.0637 176.627C30.0187 176.588 30.0139 176.52 30.0531 176.475C30.3204 176.168 30.6156 175.844 30.9306 175.513C30.9721 175.47 31.0404 175.469 31.0834 175.51C31.1266 175.551 31.1283 175.619 31.0871 175.662C30.7744 175.991 30.4813 176.312 30.216 176.617C30.1947 176.641 30.1646 176.654 30.1346 176.654ZM40.0755 176.624C40.0382 176.624 40.0019 176.604 39.9819 176.57C39.952 176.518 39.9696 176.452 40.0212 176.422C40.3882 176.21 40.7635 175.988 41.1369 175.764C41.1881 175.734 41.2543 175.75 41.2851 175.801C41.3158 175.852 41.2992 175.919 41.248 175.949C40.8737 176.174 40.4974 176.396 40.1295 176.609C40.1126 176.619 40.0939 176.624 40.0755 176.624ZM42.2999 175.29C42.2637 175.29 42.2283 175.272 42.2078 175.239C42.1765 175.188 42.192 175.121 42.2428 175.09C42.6047 174.866 42.9739 174.634 43.3398 174.401C43.3899 174.369 43.4567 174.384 43.489 174.434C43.521 174.484 43.5062 174.551 43.4558 174.583C43.0892 174.817 42.7193 175.049 42.3565 175.274C42.3389 175.285 42.3193 175.29 42.2999 175.29ZM31.9191 174.772C31.8911 174.772 31.8633 174.761 31.8421 174.74C31.8002 174.697 31.8008 174.629 31.8434 174.587C32.1397 174.295 32.4556 173.993 32.7822 173.688C32.826 173.648 32.8943 173.65 32.935 173.693C32.9757 173.737 32.9732 173.805 32.9297 173.846C32.6043 174.15 32.2898 174.451 31.9949 174.741C31.9739 174.762 31.9465 174.772 31.9191 174.772ZM44.487 173.896C44.4518 173.896 44.4172 173.879 44.3966 173.847C44.3639 173.797 44.3778 173.73 44.4277 173.698C44.7848 173.464 45.1479 173.223 45.5068 172.981C45.5563 172.948 45.6234 172.961 45.6569 173.01C45.6901 173.06 45.6769 173.127 45.6276 173.16C45.2678 173.402 44.9041 173.644 44.5461 173.878C44.5279 173.89 44.5074 173.896 44.487 173.896ZM33.8141 173.001C33.7845 173.001 33.7549 172.989 33.7335 172.965C33.6938 172.92 33.6976 172.852 33.7421 172.812C34.0562 172.532 34.385 172.244 34.7195 171.957C34.7648 171.918 34.8329 171.923 34.8719 171.968C34.9106 172.014 34.9056 172.082 34.8603 172.121C34.527 172.407 34.1992 172.694 33.886 172.974C33.8655 172.992 33.8397 173.001 33.8141 173.001ZM46.6388 172.448C46.6045 172.448 46.5707 172.432 46.5498 172.402C46.5158 172.353 46.5283 172.285 46.5773 172.251L46.7401 172.139C47.0428 171.929 47.3425 171.719 47.6391 171.509C47.6878 171.474 47.7553 171.486 47.7897 171.535C47.8242 171.583 47.8126 171.651 47.764 171.685C47.4668 171.896 47.1664 172.106 46.8631 172.316L46.7 172.429C46.6814 172.442 46.66 172.448 46.6388 172.448ZM35.7809 171.31C35.7498 171.31 35.7191 171.297 35.6977 171.271C35.6595 171.225 35.6659 171.157 35.7118 171.119C36.0405 170.846 36.3787 170.57 36.7174 170.297C36.7639 170.26 36.8321 170.267 36.8693 170.314C36.9067 170.36 36.8994 170.428 36.8529 170.466C36.5151 170.737 36.1777 171.013 35.8499 171.285C35.8296 171.302 35.8052 171.31 35.7809 171.31ZM48.7555 170.949C48.722 170.949 48.6892 170.934 48.668 170.905C48.6329 170.857 48.6436 170.789 48.6919 170.754C49.0418 170.5 49.3928 170.241 49.7353 169.986C49.7833 169.95 49.8508 169.96 49.8865 170.008C49.9221 170.056 49.9123 170.124 49.8644 170.159C49.5213 170.415 49.1695 170.674 48.8188 170.929C48.7997 170.943 48.7775 170.949 48.7555 170.949ZM37.8017 169.684C37.7695 169.684 37.7377 169.669 37.7164 169.642C37.6797 169.595 37.688 169.527 37.7351 169.491C38.072 169.227 38.418 168.961 38.7637 168.698C38.8111 168.662 38.879 168.671 38.915 168.719C38.9512 168.766 38.9419 168.834 38.8944 168.87C38.5496 169.132 38.2043 169.398 37.8681 169.661C37.8483 169.676 37.8249 169.684 37.8017 169.684ZM50.8346 169.399C50.8021 169.399 50.77 169.384 50.7487 169.356C50.7124 169.309 50.7214 169.241 50.7688 169.205C51.1135 168.941 51.4577 168.673 51.7918 168.41C51.8388 168.373 51.9066 168.381 51.9435 168.428C51.9804 168.475 51.9723 168.543 51.9255 168.58C51.5907 168.844 51.2458 169.112 50.9003 169.376C50.8806 169.391 50.8575 169.399 50.8346 169.399ZM39.8667 168.114C39.8335 168.114 39.801 168.099 39.7797 168.071C39.7442 168.023 39.7543 167.955 39.8023 167.919C40.1481 167.664 40.501 167.406 40.8508 167.154C40.8992 167.119 40.9668 167.13 41.0016 167.178C41.0364 167.227 41.0256 167.294 40.9771 167.329C40.6279 167.581 40.2758 167.838 39.9306 168.093C39.9116 168.107 39.8889 168.114 39.8667 168.114ZM52.8715 167.793C52.84 167.793 52.8088 167.779 52.7875 167.753C52.7499 167.706 52.757 167.639 52.8033 167.601C53.14 167.327 53.4762 167.05 53.8025 166.776C53.8485 166.738 53.9165 166.744 53.9548 166.79C53.993 166.836 53.9871 166.904 53.9414 166.942C53.6141 167.217 53.2771 167.495 52.9397 167.769C52.9196 167.785 52.8954 167.793 52.8715 167.793ZM41.9708 166.598C41.9369 166.598 41.9033 166.582 41.8823 166.552C41.848 166.503 41.8598 166.435 41.9086 166.401C42.0995 166.267 42.2915 166.133 42.4848 165.999C42.6485 165.886 42.8118 165.773 42.975 165.661C43.0245 165.628 43.0913 165.64 43.1252 165.689C43.1588 165.739 43.1463 165.806 43.0972 165.84C42.9342 165.951 42.7712 166.064 42.6079 166.177C42.415 166.31 42.2233 166.444 42.0329 166.578C42.0139 166.591 41.9922 166.598 41.9708 166.598ZM54.8583 166.125C54.8281 166.125 54.7981 166.113 54.7767 166.088C54.7376 166.043 54.7423 165.975 54.7874 165.936C55.1196 165.647 55.4457 165.358 55.7566 165.077C55.8009 165.037 55.8689 165.04 55.9092 165.085C55.9492 165.129 55.9458 165.197 55.9016 165.237C55.5896 165.519 55.2624 165.809 54.9292 166.099C54.9087 166.117 54.8834 166.125 54.8583 166.125ZM44.1103 165.132C44.0754 165.132 44.0412 165.115 44.0203 165.084C43.9872 165.034 44.0006 164.967 44.0503 164.934C44.4102 164.694 44.775 164.454 45.1343 164.22C45.1844 164.188 45.2512 164.202 45.2838 164.252C45.3163 164.302 45.3021 164.369 45.252 164.401C44.8935 164.634 44.5295 164.874 44.1701 165.114C44.1518 165.126 44.1309 165.132 44.1103 165.132ZM56.7811 164.385C56.7525 164.385 56.7239 164.373 56.7027 164.351C56.6616 164.308 56.6634 164.239 56.7068 164.198C57.0286 163.893 57.3407 163.59 57.634 163.296C57.6763 163.253 57.7448 163.253 57.7868 163.296C57.8291 163.338 57.8291 163.406 57.787 163.448C57.4922 163.744 57.1788 164.049 56.8553 164.355C56.8345 164.375 56.8078 164.385 56.7811 164.385ZM46.2853 163.719C46.2494 163.719 46.2144 163.701 46.1938 163.669C46.1619 163.618 46.177 163.552 46.2275 163.52C46.5935 163.288 46.9642 163.057 47.3296 162.833C47.3801 162.802 47.447 162.818 47.4781 162.869C47.5093 162.92 47.4934 162.986 47.4425 163.018C47.0781 163.241 46.708 163.471 46.3429 163.702C46.3249 163.714 46.305 163.719 46.2853 163.719ZM58.6111 162.547C58.5847 162.547 58.5584 162.537 58.5375 162.518C58.4939 162.477 58.4913 162.409 58.5319 162.365C58.8412 162.032 59.1296 161.707 59.3889 161.399C59.4273 161.353 59.4955 161.347 59.5411 161.386C59.5868 161.424 59.5926 161.492 59.5543 161.538C59.2926 161.849 59.002 162.177 58.6902 162.512C58.6689 162.535 58.64 162.547 58.6111 162.547ZM48.4963 162.363C48.4593 162.363 48.4234 162.344 48.4032 162.31C48.3729 162.259 48.3897 162.193 48.441 162.162C48.8167 161.939 49.1939 161.719 49.5627 161.508C49.6142 161.478 49.6804 161.496 49.71 161.548C49.7397 161.6 49.7218 161.666 49.6701 161.695C49.3024 161.906 48.9259 162.126 48.5515 162.348C48.5341 162.358 48.5151 162.363 48.4963 162.363ZM50.7467 161.074C50.7087 161.074 50.6718 161.054 50.652 161.018C50.6232 160.966 50.6422 160.9 50.6946 160.871C51.0792 160.659 51.4639 160.452 51.8378 160.255C51.8905 160.227 51.9559 160.247 51.9838 160.3C52.0116 160.353 51.9913 160.418 51.9385 160.446C51.5659 160.643 51.1823 160.849 50.7988 161.061C50.7824 161.07 50.7645 161.074 50.7467 161.074ZM60.2703 160.555C60.2486 160.555 60.2266 160.549 60.2076 160.535C60.159 160.5 60.1478 160.433 60.1826 160.384C60.4663 159.988 60.693 159.622 60.8562 159.298C60.883 159.244 60.9476 159.223 61.0013 159.25C61.0546 159.277 61.0761 159.341 61.0493 159.395C60.8809 159.73 60.6484 160.105 60.358 160.51C60.3372 160.539 60.3039 160.555 60.2703 160.555ZM53.042 159.866C53.0023 159.866 52.9641 159.844 52.9453 159.806C52.9186 159.753 52.9402 159.688 52.9936 159.661C53.3924 159.462 53.786 159.272 54.1634 159.095C54.2177 159.07 54.2819 159.093 54.3071 159.147C54.3322 159.201 54.309 159.266 54.255 159.291C53.8792 159.466 53.4874 159.656 53.0903 159.855C53.0746 159.862 53.0582 159.866 53.042 159.866ZM55.3921 158.77C55.3502 158.77 55.3103 158.746 55.2928 158.705C55.2692 158.65 55.2947 158.586 55.3494 158.563C55.7678 158.383 56.1736 158.219 56.5556 158.074C56.6115 158.053 56.674 158.081 56.695 158.137C56.716 158.193 56.688 158.255 56.6322 158.276C56.253 158.42 55.8501 158.583 55.4346 158.761C55.4208 158.767 55.4063 158.77 55.3921 158.77ZM61.2782 158.219C61.2238 158.219 61.177 158.178 61.1709 158.123C61.1573 158 61.1192 157.892 61.0574 157.803C60.9289 157.617 60.6913 157.502 60.3515 157.459C60.2923 157.452 60.2503 157.398 60.2577 157.339C60.265 157.28 60.3192 157.237 60.3783 157.245C60.7818 157.295 61.07 157.442 61.2351 157.68C61.3174 157.799 61.3681 157.94 61.3858 158.099C61.3924 158.158 61.3496 158.212 61.2903 158.218C61.2862 158.219 61.2821 158.219 61.2782 158.219ZM57.8196 157.86C57.7734 157.86 57.7307 157.83 57.7164 157.783C57.6989 157.726 57.7308 157.666 57.7879 157.648C58.2516 157.506 58.6783 157.398 59.0562 157.327C59.1156 157.316 59.1713 157.355 59.1823 157.414C59.1932 157.472 59.1545 157.529 59.0959 157.54C58.7258 157.609 58.3072 157.715 57.8514 157.855C57.8409 157.858 57.8301 157.86 57.8196 157.86Z" fill="#EFBC73"/>
<path d="M30.2958 174.885C30.1472 174.885 30.0014 174.883 29.8581 174.881C29.7985 174.881 29.7508 174.831 29.7517 174.772C29.7526 174.713 29.8008 174.665 29.8597 174.665C29.8603 174.665 29.8608 174.665 29.8614 174.665C30.2688 174.671 30.7025 174.669 31.1537 174.658C31.1546 174.658 31.1555 174.658 31.1564 174.658C31.2147 174.658 31.2628 174.704 31.2643 174.763C31.2658 174.823 31.2185 174.872 31.1589 174.874C30.8635 174.881 30.573 174.885 30.2958 174.885ZM28.5646 174.829C28.5621 174.829 28.5595 174.829 28.5569 174.829C28.0806 174.795 27.6439 174.746 27.259 174.682C27.2001 174.673 27.1603 174.617 27.17 174.558C27.1796 174.499 27.2348 174.459 27.294 174.469C27.6723 174.532 28.1023 174.58 28.5721 174.613C28.6316 174.617 28.6764 174.669 28.6722 174.728C28.6682 174.785 28.6209 174.829 28.5646 174.829ZM32.4518 174.822C32.3949 174.822 32.3472 174.777 32.3441 174.719C32.3409 174.66 32.3865 174.609 32.446 174.606C32.8623 174.583 33.2966 174.554 33.737 174.519C33.7981 174.514 33.8485 174.559 33.8533 174.618C33.8579 174.678 33.8136 174.729 33.7541 174.734C33.3118 174.769 32.8757 174.799 32.4578 174.821C32.4558 174.822 32.4538 174.822 32.4518 174.822ZM35.0368 174.619C34.9819 174.619 34.9351 174.577 34.9294 174.521C34.9235 174.462 34.9668 174.409 35.0262 174.403C35.4464 174.361 35.8793 174.314 36.3133 174.262C36.371 174.256 36.4262 174.298 36.4332 174.357C36.4402 174.416 36.3979 174.47 36.3385 174.477C35.9035 174.529 35.4691 174.576 35.0477 174.618C35.0441 174.619 35.0405 174.619 35.0368 174.619ZM26.0231 174.363C26.0099 174.363 25.9965 174.361 25.9835 174.356C25.403 174.127 25.0677 173.823 24.9868 173.453C24.9743 173.395 24.9678 173.335 24.9678 173.275C24.9678 173.066 25.0449 172.842 25.1969 172.61C25.2297 172.561 25.2967 172.547 25.3465 172.579C25.3965 172.612 25.4104 172.679 25.3777 172.729C25.2491 172.925 25.1838 173.109 25.1838 173.275C25.1838 173.32 25.1886 173.364 25.1979 173.407C25.2625 173.703 25.5533 173.954 26.0626 174.155C26.1181 174.176 26.1455 174.239 26.1235 174.295C26.1068 174.337 26.0661 174.363 26.0231 174.363ZM37.6121 174.315C37.5588 174.315 37.5125 174.276 37.5051 174.221C37.4972 174.162 37.5387 174.108 37.5977 174.1C38.0175 174.043 38.4489 173.982 38.8797 173.917C38.9404 173.908 38.9936 173.949 39.0026 174.008C39.0115 174.067 38.9707 174.122 38.9117 174.131C38.4799 174.195 38.0475 174.257 37.6265 174.314C37.6217 174.315 37.6168 174.315 37.6121 174.315ZM40.1765 173.93C40.1244 173.93 40.0787 173.893 40.0701 173.84C40.0604 173.781 40.1002 173.725 40.1591 173.716C40.5794 173.647 41.0088 173.573 41.4356 173.497C41.4943 173.487 41.5505 173.526 41.5608 173.585C41.5713 173.643 41.532 173.699 41.4733 173.71C41.0457 173.786 40.6154 173.86 40.194 173.929C40.1882 173.93 40.1822 173.93 40.1765 173.93ZM42.7295 173.476C42.6786 173.476 42.6334 173.44 42.6235 173.388C42.6123 173.33 42.6508 173.273 42.7094 173.262C43.1285 173.182 43.556 173.097 43.9802 173.011C44.039 172.999 44.0957 173.037 44.1076 173.095C44.1195 173.154 44.0819 173.211 44.0233 173.223C43.5983 173.309 43.17 173.394 42.75 173.474C42.743 173.476 42.7363 173.476 42.7295 173.476ZM45.2703 172.959C45.2205 172.959 45.1758 172.924 45.1647 172.873C45.1522 172.815 45.1893 172.758 45.2476 172.745L45.4465 172.702C45.8044 172.624 46.1598 172.544 46.5122 172.464C46.5698 172.45 46.6282 172.487 46.6415 172.545C46.6548 172.603 46.6185 172.661 46.5602 172.674C46.2072 172.755 45.8512 172.835 45.4925 172.913L45.2931 172.956C45.2855 172.958 45.2779 172.959 45.2703 172.959ZM47.7985 172.38C47.7498 172.38 47.7056 172.347 47.6937 172.298C47.6796 172.24 47.7153 172.181 47.7733 172.167C48.1947 172.065 48.6178 171.961 49.0308 171.855C49.0885 171.84 49.1474 171.876 49.1622 171.933C49.177 171.991 49.142 172.05 49.0842 172.065C48.6704 172.17 48.2464 172.275 47.8239 172.377C47.8156 172.379 47.8071 172.38 47.7985 172.38ZM26.2026 171.87C26.1699 171.87 26.1376 171.855 26.1164 171.827C26.0803 171.78 26.0897 171.712 26.1372 171.676C26.4425 171.444 26.8105 171.203 27.2311 170.957C27.2828 170.927 27.3488 170.944 27.3788 170.996C27.4088 171.047 27.3916 171.113 27.34 171.144C26.927 171.385 26.5663 171.622 26.2678 171.848C26.2483 171.863 26.2253 171.87 26.2026 171.87ZM50.3123 171.74C50.2647 171.74 50.221 171.708 50.2081 171.66C50.1925 171.602 50.2268 171.543 50.2843 171.528C50.7044 171.415 51.1244 171.299 51.5333 171.183C51.5903 171.167 51.6504 171.2 51.6667 171.257C51.6829 171.315 51.6496 171.375 51.5922 171.391C51.1826 171.507 50.7614 171.623 50.3405 171.736C50.3311 171.739 50.3216 171.74 50.3123 171.74ZM52.808 171.032C52.7614 171.032 52.7185 171.002 52.7045 170.955C52.6874 170.898 52.7199 170.838 52.777 170.821C53.196 170.695 53.6125 170.567 54.015 170.44C54.0725 170.422 54.1326 170.453 54.1506 170.51C54.1687 170.567 54.1371 170.628 54.0803 170.646C53.6768 170.773 53.259 170.902 52.8391 171.028C52.8286 171.031 52.8181 171.032 52.808 171.032ZM28.4281 170.545C28.3884 170.545 28.3502 170.523 28.3314 170.485C28.3047 170.431 28.3264 170.366 28.3798 170.34C28.745 170.158 29.1414 169.972 29.5579 169.786C29.6127 169.762 29.6763 169.787 29.7005 169.841C29.7247 169.896 29.7002 169.96 29.6456 169.984C29.2321 170.168 28.8385 170.353 28.4761 170.533C28.4607 170.541 28.4443 170.545 28.4281 170.545ZM55.2807 170.249C55.2355 170.249 55.1934 170.22 55.1783 170.175C55.1593 170.119 55.1897 170.057 55.2463 170.038C55.6618 169.899 56.0734 169.756 56.4698 169.614C56.5255 169.594 56.5877 169.623 56.6079 169.679C56.628 169.736 56.5988 169.798 56.5426 169.818C56.145 169.96 55.7319 170.103 55.3151 170.243C55.3037 170.247 55.2921 170.249 55.2807 170.249ZM30.7959 169.487C30.7532 169.487 30.7128 169.461 30.6957 169.419C30.6733 169.364 30.6999 169.301 30.7553 169.279C31.1414 169.122 31.5489 168.963 31.9662 168.806C32.022 168.785 32.0843 168.813 32.1054 168.869C32.1262 168.925 32.098 168.987 32.0422 169.008C31.6265 169.165 31.2208 169.323 30.8365 169.479C30.8231 169.484 30.8095 169.487 30.7959 169.487ZM57.7223 169.373C57.679 169.373 57.638 169.346 57.6214 169.303C57.6 169.248 57.6279 169.185 57.6835 169.164C58.0994 169.004 58.5036 168.842 58.8849 168.683C58.9402 168.661 59.0032 168.686 59.0262 168.741C59.0492 168.797 59.0232 168.86 58.9681 168.883C58.585 169.043 58.1789 169.205 57.761 169.366C57.7483 169.371 57.7351 169.373 57.7223 169.373ZM33.2234 168.573C33.1788 168.573 33.1371 168.545 33.1216 168.5C33.1018 168.444 33.1314 168.382 33.1877 168.363C33.5868 168.223 34.0006 168.082 34.4177 167.945C34.4745 167.926 34.5355 167.957 34.5542 168.013C34.5729 168.07 34.5421 168.131 34.4854 168.15C34.0696 168.287 33.6571 168.427 33.2592 168.567C33.2474 168.571 33.2353 168.573 33.2234 168.573ZM60.1153 168.372C60.0743 168.372 60.0352 168.349 60.0171 168.309C59.9921 168.255 60.0159 168.191 60.07 168.166C60.4838 167.976 60.8743 167.785 61.2309 167.599C61.2838 167.572 61.3491 167.593 61.3766 167.645C61.4042 167.698 61.3836 167.764 61.3307 167.791C60.971 167.978 60.5772 168.17 60.1603 168.362C60.1456 168.369 60.1304 168.372 60.1153 168.372ZM35.6868 167.76C35.6406 167.76 35.5981 167.73 35.5836 167.684C35.5659 167.627 35.5977 167.566 35.6547 167.549C36.0615 167.422 36.4797 167.296 36.8977 167.173C36.9555 167.156 37.0151 167.189 37.0318 167.246C37.0487 167.303 37.0158 167.363 36.9587 167.38C36.5418 167.503 36.1245 167.629 35.7187 167.755C35.7082 167.758 35.6973 167.76 35.6868 167.76ZM62.4092 167.164C62.3731 167.164 62.3379 167.146 62.3174 167.114C62.2858 167.063 62.3013 166.996 62.3518 166.965C62.7652 166.707 63.1144 166.456 63.3894 166.218C63.4346 166.179 63.5026 166.184 63.5419 166.229C63.5809 166.274 63.5759 166.342 63.5307 166.381C63.247 166.626 62.8889 166.884 62.466 167.148C62.4484 167.159 62.4287 167.164 62.4092 167.164ZM38.1752 167.028C38.1278 167.028 38.0845 166.996 38.0712 166.948C38.0552 166.891 38.0887 166.831 38.1462 166.815C38.558 166.701 38.9796 166.586 39.3993 166.475C39.4566 166.46 39.5162 166.494 39.5314 166.552C39.5467 166.61 39.5122 166.669 39.4546 166.684C39.0358 166.795 38.6152 166.909 38.2043 167.023C38.1946 167.026 38.1848 167.028 38.1752 167.028ZM40.6829 166.365C40.6346 166.365 40.5905 166.332 40.5782 166.283C40.5636 166.225 40.5988 166.166 40.6567 166.152C41.0726 166.048 41.4968 165.944 41.9181 165.844C41.9766 165.83 42.0344 165.866 42.0481 165.924C42.062 165.982 42.0261 166.041 41.9681 166.054C41.5476 166.154 41.1242 166.258 40.7094 166.361C40.7004 166.364 40.6916 166.365 40.6829 166.365ZM43.2066 165.765C43.1572 165.765 43.1126 165.731 43.1013 165.681C43.0882 165.623 43.1248 165.565 43.183 165.552C43.4059 165.502 43.6297 165.452 43.8545 165.403C44.054 165.36 44.2527 165.317 44.451 165.275C44.51 165.262 44.5668 165.3 44.5791 165.358C44.5914 165.416 44.5542 165.474 44.4959 165.486C44.298 165.528 44.0995 165.571 43.9004 165.614C43.676 165.663 43.4526 165.713 43.2303 165.763C43.2224 165.765 43.2144 165.765 43.2066 165.765ZM64.2339 165.393C64.2238 165.393 64.2135 165.392 64.2034 165.389C64.1461 165.372 64.1135 165.312 64.1303 165.254C64.1522 165.181 64.1632 165.109 64.1631 165.041C64.1631 164.996 64.1583 164.952 64.149 164.909C64.1016 164.691 63.929 164.495 63.6363 164.328C63.5845 164.298 63.5665 164.232 63.5963 164.18C63.6258 164.128 63.692 164.11 63.7437 164.14C64.0916 164.34 64.2991 164.583 64.3602 164.863C64.3728 164.921 64.3791 164.981 64.3791 165.041C64.3792 165.129 64.3653 165.222 64.3375 165.316C64.3236 165.363 64.2806 165.393 64.2339 165.393ZM45.7424 165.227C45.692 165.227 45.6468 165.191 45.6366 165.14C45.625 165.081 45.6629 165.025 45.7213 165.013C46.1468 164.928 46.5756 164.845 46.9957 164.766C47.0545 164.755 47.1107 164.794 47.1218 164.853C47.1328 164.911 47.0941 164.968 47.0354 164.979C46.6162 165.057 46.1883 165.14 45.7637 165.225C45.7566 165.226 45.7494 165.227 45.7424 165.227ZM48.2915 164.751C48.24 164.751 48.1944 164.713 48.1852 164.661C48.1749 164.602 48.2143 164.546 48.2732 164.536C48.7021 164.462 49.1327 164.39 49.5534 164.322C49.6125 164.313 49.6679 164.353 49.6771 164.412C49.6865 164.471 49.6464 164.526 49.5875 164.536C49.1678 164.603 48.738 164.675 48.3101 164.749C48.3038 164.75 48.2976 164.751 48.2915 164.751ZM50.852 164.341C50.7991 164.341 50.753 164.302 50.7452 164.249C50.7366 164.19 50.7775 164.135 50.8366 164.126C51.2692 164.063 51.7019 164.004 52.1227 163.949C52.181 163.941 52.236 163.983 52.2437 164.042C52.2514 164.101 52.2097 164.156 52.1506 164.163C51.7307 164.218 51.2991 164.277 50.8676 164.34C50.8623 164.341 50.8572 164.341 50.852 164.341ZM53.4237 164.008C53.3694 164.008 53.3226 163.967 53.3164 163.912C53.3098 163.853 53.3524 163.799 53.4117 163.792C53.8486 163.743 54.2831 163.698 54.7033 163.659C54.7642 163.653 54.8155 163.697 54.8211 163.756C54.8266 163.816 54.783 163.868 54.7236 163.874C54.3047 163.913 53.8714 163.958 53.436 164.007C53.4318 164.008 53.4277 164.008 53.4237 164.008ZM62.469 163.923C62.4616 163.923 62.454 163.922 62.4465 163.92C62.0787 163.843 61.6514 163.781 61.1764 163.736C61.117 163.73 61.0735 163.678 61.079 163.618C61.0846 163.559 61.1354 163.515 61.1967 163.521C61.6799 163.566 62.1154 163.63 62.4912 163.709C62.5495 163.721 62.5869 163.779 62.5746 163.837C62.5638 163.888 62.519 163.923 62.469 163.923ZM56.0055 163.767C55.9493 163.767 55.9019 163.724 55.8979 163.667C55.8936 163.607 55.9383 163.556 55.9979 163.551C56.4422 163.519 56.8785 163.494 57.295 163.474C57.3531 163.472 57.4052 163.518 57.4079 163.577C57.4106 163.637 57.3646 163.688 57.305 163.69C56.8904 163.709 56.4559 163.735 56.0134 163.767C56.0107 163.767 56.0082 163.767 56.0055 163.767ZM59.8924 163.66C59.8912 163.66 59.8901 163.66 59.8892 163.66C59.4841 163.648 59.0499 163.645 58.5975 163.651C58.597 163.651 58.5964 163.651 58.596 163.651C58.537 163.651 58.4888 163.603 58.4879 163.544C58.4871 163.485 58.5349 163.436 58.5945 163.435C59.0497 163.429 59.4873 163.432 59.8954 163.444C59.9552 163.445 60.002 163.495 60.0003 163.555C59.9985 163.613 59.9505 163.66 59.8924 163.66Z" fill="#EFBC73"/>
</g>
<defs>
<clipPath id="clip0_569_4969">
<rect x="16.3076" y="105.863" width="198.493" height="203.219" rx="15.7534" fill="white"/>
</clipPath>
</defs>
</svg>
