<svg width="310" height="104" viewBox="0 0 310 104" fill="none" xmlns="http://www.w3.org/2000/svg">
<g clip-path="url(#clip0_535_9470)">
<rect y="0.333984" width="310" height="103.333" rx="6.2" fill="#FFCD61"/>
<path d="M155.129 168.251C219.404 168.251 271.508 116.146 271.508 51.8714C271.508 -12.4031 219.404 -64.5078 155.129 -64.5078C90.8547 -64.5078 38.75 -12.4031 38.75 51.8714C38.75 116.146 90.8547 168.251 155.129 168.251Z" fill="#E8606B"/>
<g clip-path="url(#clip1_535_9470)">
<path d="M154.225 124.65C193.146 124.65 224.697 93.0981 224.697 54.1773C224.697 15.2566 193.146 -16.2949 154.225 -16.2949C115.304 -16.2949 83.7527 15.2566 83.7527 54.1773C83.7527 93.0981 115.304 124.65 154.225 124.65Z" fill="#E8606B"/>
<path d="M194.417 115.892C194.502 115.884 194.569 115.812 194.569 115.724C194.612 97.49 200.081 81.7782 204.66 71.8086C209.624 61.0028 214.643 54.4262 214.693 54.361C214.75 54.2866 214.737 54.18 214.662 54.1229C214.588 54.066 214.481 54.0799 214.424 54.154C214.374 54.2193 209.336 60.8198 204.356 71.6577C199.76 81.66 194.273 97.4242 194.229 115.723C194.229 115.817 194.305 115.893 194.399 115.893C194.405 115.893 194.411 115.893 194.417 115.892Z" fill="#E6D0BE"/>
<path d="M211.508 58.7487C211.508 58.7487 210.161 52.8678 219.962 46.25C219.962 46.25 219.967 57.8889 211.508 58.7487Z" fill="#E6D0BE"/>
<path d="M208.705 62.172C208.834 62.2442 210.477 56.4956 204.685 49.9902C204.685 49.9902 203.916 59.479 208.705 62.172Z" fill="#E6D0BE"/>
<path d="M205.502 67.5705C205.502 67.5705 205.448 62.4075 197.556 57.1406C197.556 57.1406 201.012 67.6322 205.502 67.5705Z" fill="#E6D0BE"/>
<path d="M202.627 74.2453C202.774 74.2346 200.971 68.5341 192.551 66.3066C192.551 66.3066 197.147 74.6436 202.627 74.2453Z" fill="#E6D0BE"/>
<path d="M200.548 79.3921C200.548 79.3921 197.737 75.7225 189.248 76.1476C189.248 76.1476 197.361 81.8244 200.548 79.3921Z" fill="#E6D0BE"/>
<path d="M198.188 86.5866C198.188 86.5866 194.707 84.5521 187.994 87.6978C187.994 87.6978 196.417 89.6026 198.188 86.5866Z" fill="#E6D0BE"/>
<path d="M209.548 62.9712C209.437 62.9029 213.177 59.1455 220.718 60.8166C220.718 60.8166 213.704 65.515 209.548 62.9712Z" fill="#E6D0BE"/>
<path d="M206.923 68.4156C206.923 68.4156 211.457 65.9453 219.904 70.2681C219.904 70.2681 209.059 72.3661 206.923 68.4156Z" fill="#E6D0BE"/>
<path d="M204.04 75.4621C203.977 75.3285 209.834 74.1235 215.884 80.389C215.884 80.389 206.364 80.4412 204.04 75.4621Z" fill="#E6D0BE"/>
<path d="M201.853 80.3145C201.853 80.3145 206.427 80.9797 210.195 88.5984C210.195 88.5984 201.283 84.2834 201.853 80.3145Z" fill="#E6D0BE"/>
<path d="M199.416 87.1895C199.416 87.1895 202.889 89.2367 203.416 96.6314C203.416 96.6314 197.646 90.2057 199.416 87.1895Z" fill="#E6D0BE"/>
<path d="M91.0977 96.0566L196.44 96.0566V16.2116L91.0977 16.2116L91.0977 96.0566Z" fill="#D3BBA3"/>
<path d="M193.135 86.3478V19.5156L94.4027 19.5156L94.4027 86.3478L193.135 86.3478Z" fill="#F2E6DC"/>
<path d="M141.786 90.8091C141.786 91.9042 142.674 92.792 143.769 92.792C144.864 92.792 145.752 91.9042 145.752 90.8091C145.752 89.714 144.864 88.8262 143.769 88.8262C142.674 88.8262 141.786 89.714 141.786 90.8091Z" fill="#F7F1EB"/>
<path d="M91.0977 98.2207C91.0977 102.791 94.8024 106.496 99.3724 106.496H209.791C214.361 106.496 218.065 102.791 218.065 98.2207H91.0977Z" fill="#E6D0BE"/>
<path d="M118.826 105.714C115.166 105.714 112.189 102.737 112.189 99.077C112.189 99.0345 112.223 99 112.266 99C112.308 99 112.343 99.0345 112.343 99.077C112.343 102.652 115.251 105.56 118.826 105.56C118.868 105.56 118.903 105.594 118.903 105.637C118.903 105.679 118.868 105.714 118.826 105.714Z" fill="#F2E6DC"/>
<path d="M173.334 103.768H160.955C158.974 103.768 157.362 102.156 157.362 100.175C157.362 100.132 157.396 100.098 157.439 100.098H176.85C176.893 100.098 176.927 100.132 176.927 100.175C176.927 102.156 175.315 103.768 173.334 103.768ZM157.517 100.252C157.558 102.113 159.085 103.614 160.955 103.614H173.334C175.205 103.614 176.731 102.113 176.772 100.252H157.517Z" fill="#F2E6DC"/>
<path d="M138.316 51.4531H163.166C168.952 61.6111 172.005 73.4283 171.449 86.1484H130.033C129.477 73.4241 132.532 61.6083 138.316 51.4531Z" fill="#E8606B"/>
<path d="M134.152 30.9286C120.161 33.9458 113.914 36.9064 114.246 41.1968C114.589 45.6214 123.842 46.7428 136.229 43.8985C137.999 43.4923 136.344 30.4558 134.152 30.9286Z" fill="white"/>
<path d="M168.377 29.5076C168.377 29.5076 164.485 28.7078 159.764 28.0949C156.999 27.736 151.23 35.0128 151.23 35.0128C151.23 35.0128 144.938 27.7428 141.872 28.2024C137.157 28.9091 133.242 29.8307 133.242 29.8307L136.603 54.6671H164.575L168.377 29.5076Z" fill="#FFCD61"/>
<path d="M137.058 48.3831C139.874 48.3831 142.156 46.1007 142.156 43.2853C142.156 40.4699 139.874 38.1875 137.058 38.1875C134.243 38.1875 131.961 40.4699 131.961 43.2853C131.961 46.1007 134.243 48.3831 137.058 48.3831Z" fill="#FFCD61"/>
<path d="M154.255 47.2322C152.656 47.2322 151.172 46.5104 150.183 45.2518C150.157 45.2183 150.163 45.1699 150.196 45.1436C150.23 45.1173 150.278 45.1232 150.304 45.1566C151.264 46.3779 152.704 47.0783 154.255 47.0783C157.023 47.0783 159.276 44.8259 159.276 42.0575C159.276 42.015 159.31 41.9805 159.353 41.9805C159.395 41.9805 159.43 42.015 159.43 42.0575C159.43 44.9108 157.108 47.2322 154.255 47.2322Z" fill="#363E44"/>
<path d="M125.589 36.5732C125.589 36.5729 122.903 20.8141 122.378 18.3132C122.323 18.0513 122.229 17.5886 121.947 17.0431C120.903 15.022 118.967 15.1034 116.9 13.4791C114.554 11.636 114.277 9.27016 113.531 9.42505C113.012 9.5328 112.866 10.4546 113.276 12.2909C113.276 12.2911 113.275 12.2912 113.275 12.291C112.803 10.9317 112.083 9.1162 111.332 9.37915C110.482 9.72912 111.078 11.9616 111.505 13.2945C110.988 11.6812 110.231 10.9777 109.849 11.2286C109.248 11.6236 109.357 12.9678 110.122 15.0735L110.122 15.0736C109.188 13.7672 108.766 13.5895 108.483 13.8936C107.965 14.4488 108.627 16.1682 109.445 17.5985C110.365 19.2088 111.638 20.1381 112.455 20.7051C112.455 20.7052 112.455 20.7055 112.455 20.7058C113.203 28.8772 113.65 34.1347 114.144 40.7448C114.397 44.1461 124.721 43.3162 125.589 36.5732Z" fill="white"/>
<path d="M118.449 15.4105C118.064 12.4839 118.546 11.3468 119.011 11.3007C119.795 11.223 121.146 13.5872 122.246 17.7936C121.129 17.2245 119.566 15.9795 118.449 15.4105Z" fill="white"/>
<path d="M117.184 20.2396C117.145 20.2396 117.112 20.2113 117.107 20.1725C117.041 19.6631 116.837 18.911 116.242 18.2212C115.399 17.2449 114.288 17.0154 113.85 16.9621C113.808 16.957 113.778 16.9186 113.783 16.8763C113.788 16.8341 113.827 16.804 113.869 16.8092C114.325 16.8647 115.48 17.1036 116.358 18.1206C116.979 18.8393 117.191 19.6223 117.26 20.1526C117.265 20.1948 117.236 20.2334 117.194 20.239C117.19 20.2394 117.187 20.2396 117.184 20.2396Z" fill="#363E44"/>
<path d="M120.937 16.0049C120.92 16.0049 120.902 15.9993 120.888 15.9878C120.394 15.5878 119.807 15.3105 119.185 15.017C118.889 14.8773 118.584 14.7329 118.268 14.5671C118.231 14.5473 118.216 14.5007 118.236 14.463C118.256 14.4254 118.303 14.411 118.34 14.4308C118.652 14.595 118.957 14.7387 119.251 14.8777C119.881 15.1753 120.477 15.4563 120.985 15.8679C121.018 15.8947 121.023 15.9432 120.997 15.9762C120.981 15.9952 120.959 16.0049 120.937 16.0049Z" fill="#363E44"/>
<path d="M114.918 14.4944C114.9 14.4944 114.882 14.4883 114.868 14.476C114.591 14.2398 114.335 13.9769 114.107 13.6947C113.775 13.285 113.5 12.8313 113.288 12.3462C113.27 12.3072 113.288 12.2618 113.327 12.2448C113.366 12.2277 113.412 12.2455 113.429 12.2844C113.635 12.757 113.904 13.1988 114.226 13.5979C114.448 13.8727 114.698 14.1287 114.968 14.3589C115 14.3864 115.004 14.4351 114.976 14.4675C114.961 14.4853 114.939 14.4944 114.918 14.4944Z" fill="#363E44"/>
<path d="M113.088 15.2854C113.07 15.2854 113.052 15.2794 113.038 15.267C112.761 15.0307 112.505 14.7678 112.277 14.4857C111.946 14.0761 111.67 13.6225 111.457 13.1372C111.44 13.0983 111.458 13.0528 111.497 13.0358C111.536 13.0187 111.582 13.0365 111.599 13.0755C111.806 13.5481 112.074 13.99 112.396 14.3889C112.618 14.6637 112.868 14.9197 113.138 15.1499C113.17 15.1775 113.174 15.2261 113.146 15.2585C113.131 15.2763 113.109 15.2854 113.088 15.2854Z" fill="#363E44"/>
<path d="M111.713 17.2835C111.695 17.2835 111.678 17.2775 111.663 17.2651C111.386 17.0286 111.13 16.7657 110.902 16.4837C110.571 16.0741 110.295 15.6205 110.083 15.1353C110.066 15.0963 110.084 15.0509 110.123 15.0338C110.162 15.0167 110.207 15.0345 110.224 15.0735C110.431 15.5462 110.699 15.988 111.022 16.3869C111.244 16.6615 111.493 16.9176 111.763 17.1479C111.796 17.1755 111.799 17.2242 111.772 17.2565C111.757 17.2742 111.735 17.2835 111.713 17.2835Z" fill="#363E44"/>
<path opacity="0.5" d="M138.789 33.607C139.424 35.9715 138.036 40.2617 137.058 42.2377C134.924 46.5524 133.216 49.0975 127.51 45.239C126.511 40.2748 126.103 38.1893 125.136 33.2999C125.827 31.2446 126.511 26.0273 131.961 26.0273C134.978 26.0272 137.58 29.1046 138.789 33.607Z" fill="#FFCD61"/>
<path d="M132.156 47.2129C130.89 47.2129 129.372 46.5903 127.467 45.3017L127.441 45.2841L127.434 45.2531C126.607 41.1399 126.196 39.0583 125.515 35.6097L125.057 33.2937L125.063 33.2743C125.15 33.018 125.234 32.7181 125.332 32.3708C126.007 29.9691 127.137 25.9492 131.961 25.9492C133.444 25.9492 134.879 26.6849 136.11 28.0767C137.306 29.4283 138.258 31.3334 138.863 33.586C139.478 35.8746 138.191 40.1212 137.128 42.2707C135.96 44.6317 134.847 46.6246 133.047 47.1004C132.764 47.1752 132.468 47.2129 132.156 47.2129ZM127.579 45.1918C129.901 46.7573 131.626 47.3166 133.007 46.9515C134.745 46.4923 135.839 44.529 136.989 42.2024C138.042 40.0739 139.318 35.8762 138.714 33.6259C138.116 31.3961 137.175 29.5126 135.995 28.1788C134.793 26.8209 133.398 26.1033 131.961 26.1033C127.254 26.1033 126.143 30.0528 125.48 32.4126C125.388 32.739 125.301 33.0477 125.216 33.3039L125.666 35.5799C126.345 39.0196 126.756 41.0991 127.579 45.1918Z" fill="#FFCD61"/>
<path d="M136.077 32.424C135.935 32.424 135.694 32.293 135.254 32.0539C134.672 31.7369 133.791 31.2578 132.432 30.6804C131.075 30.1041 130.022 29.7612 129.253 29.5109C128.317 29.2059 127.929 29.0796 127.957 28.8399C127.965 28.7711 128.011 28.7068 128.094 28.6487C128.518 28.352 130.085 28.1493 131.573 28.507C134.178 29.1331 135.941 31.2938 136.203 32.0481C136.255 32.196 136.255 32.2994 136.204 32.3644C136.172 32.4045 136.132 32.424 136.077 32.424ZM128.11 28.8576C128.096 28.9722 128.655 29.1539 129.301 29.3644C130.072 29.6157 131.129 29.9597 132.492 30.5386C133.858 31.1189 134.743 31.6002 135.328 31.9186C135.7 32.121 136.023 32.2962 136.085 32.2677C136.089 32.2609 136.098 32.2098 136.055 32.0901C135.792 31.3588 134.063 29.2639 131.537 28.6568C130.09 28.3091 128.583 28.4945 128.182 28.775C128.118 28.8194 128.11 28.8494 128.11 28.8576Z" fill="#FFCD61"/>
<path d="M128.145 35.0491C128.079 35.0491 128.028 35.0276 127.989 34.9831C127.944 34.9309 127.927 34.8535 127.94 34.7529C128.007 34.2394 128.911 32.9448 130.178 32.0854C132.395 30.5807 135.179 30.7322 135.914 31.0459C136.058 31.1075 136.134 31.1769 136.148 31.2584C136.179 31.4394 135.934 31.5244 135.279 31.7514C134.652 31.9689 133.705 32.2973 132.363 32.9136C131.023 33.5288 130.061 34.0763 129.358 34.4762C128.712 34.8441 128.351 35.0491 128.145 35.0491ZM134.438 30.993C133.27 30.993 131.65 31.2725 130.264 32.2129C129.033 33.0486 128.156 34.2872 128.093 34.7727C128.083 34.8495 128.1 34.8756 128.105 34.8819C128.181 34.9687 128.691 34.6786 129.282 34.3423C129.987 33.9412 130.953 33.3916 132.299 32.7737C133.648 32.1543 134.599 31.8243 135.229 31.6059C135.629 31.4671 135.975 31.3472 135.996 31.2815C135.994 31.2737 135.962 31.2329 135.845 31.1841C135.59 31.0781 135.082 30.993 134.438 30.993Z" fill="#FFCD61"/>
<path d="M148.905 57.325C150.034 57.0034 151.069 57.4784 151.118 57.2699C151.155 57.1134 150.531 56.8455 149.924 56.7748C148.924 56.658 147.402 57.6473 146.914 57.0363C146.437 56.4377 147.576 55.2294 149.017 54.7185C150.232 54.2876 151.404 54.9264 151.466 54.6675C151.51 54.4853 151.016 54.2004 149.886 53.7471C148.942 53.3686 146.863 53.1054 147.112 52.0589C147.321 51.1788 149.507 51.2613 151.508 51.7097C152.834 52.0068 154.141 52.4627 154.906 52.6948C154.774 52.2915 154.544 51.6796 154.154 50.9894C153.458 49.7582 153.047 49.4073 153.374 48.8571C153.71 48.2901 154.722 48.7906 155.686 49.6373C156.836 50.6473 157.255 51.826 157.62 52.4394C160.201 51.4194 165.737 49.3788 168.318 48.3588C168.12 48.2176 166.847 46.578 165.967 45.46L168.039 31.7441C170.35 33.8987 183.71 47.477 182.9 50.9658C182.016 54.7802 163.436 61.2215 158.292 62.3306C157.652 62.7075 156.635 63.1731 155.406 63.1202C154.005 63.0599 153.669 62.3835 152.201 62.0896C149.722 61.5936 148.22 63.0982 147.754 62.333C147.435 61.8078 148.272 60.8933 149.253 60.2577C150.26 59.6052 151.186 59.6071 151.171 59.4111C151.156 59.196 150.215 59.3158 149.032 59.3573C148.482 59.3767 147.005 60.3593 146.462 59.7061C146.03 59.1855 147.31 57.7794 148.905 57.325Z" fill="white"/>
<path d="M157.262 53.8849C157.247 53.8849 157.232 53.8806 157.219 53.8716C156.47 53.3608 155.421 52.9628 154.863 52.771C154.823 52.7572 154.801 52.7134 154.815 52.6731C154.829 52.6329 154.872 52.6114 154.913 52.6253C155.479 52.8196 156.542 53.2234 157.306 53.7443C157.341 53.7683 157.35 53.8162 157.326 53.8514C157.311 53.8732 157.287 53.8849 157.262 53.8849Z" fill="#363E44"/>
<path opacity="0.5" d="M164.723 31.1072C166.809 29.4403 170.477 28.9186 172.65 29.4041C177.394 30.4643 181.16 35.2867 179.088 43.8237C174.784 45.3621 172.625 46.6888 168.32 48.2274C167.327 47.9546 162.532 45.1636 161.618 40.2846C161.488 39.5902 160.752 34.2811 164.723 31.1072Z" fill="#FFCD61"/>
<path d="M168.324 48.3082L168.3 48.3018C167.734 48.1464 166.258 47.3201 164.887 46.0398C163.632 44.8685 162.034 42.9218 161.543 40.299C161.498 40.0594 160.491 34.3918 164.675 31.0472C166.791 29.3557 170.471 28.8385 172.666 29.3292C174.979 29.846 176.936 31.2287 178.176 33.2227C179.853 35.9196 180.195 39.5917 179.163 43.8421L179.153 43.8824L179.114 43.8964C176.965 44.6647 175.323 45.3924 173.735 46.0962C172.145 46.8011 170.501 47.53 168.346 48.3001L168.324 48.3082ZM170.875 29.3053C168.83 29.3053 166.355 29.9019 164.771 31.1676C160.659 34.455 161.65 40.0347 161.694 40.2706C162.572 44.9578 167.168 47.8098 168.318 48.1467C170.456 47.3815 172.091 46.6565 173.673 45.9553C175.254 45.2547 176.887 44.5304 179.023 43.7654C180.033 39.5731 179.695 35.9566 178.045 33.304C176.827 31.3454 174.905 29.9872 172.633 29.4795C172.117 29.3641 171.517 29.3053 170.875 29.3053Z" fill="#FFCD61"/>
<path d="M174.926 34.7325C174.784 34.7325 174.543 34.6015 174.103 34.3624C173.521 34.0454 172.64 33.5663 171.281 32.9889C169.924 32.4126 168.871 32.0697 168.102 31.8194C167.166 31.5144 166.778 31.3882 166.806 31.1484C166.814 31.0797 166.86 31.0154 166.943 30.9573C167.367 30.6607 168.933 30.4579 170.422 30.8156C173.027 31.4416 174.79 33.6025 175.052 34.3567C175.104 34.5045 175.104 34.608 175.053 34.673C175.021 34.713 174.981 34.7325 174.926 34.7325ZM166.959 31.1661C166.945 31.2807 167.504 31.4624 168.15 31.6729C168.921 31.9242 169.978 32.2681 171.341 32.8471C172.707 33.4274 173.592 33.9086 174.177 34.2271C174.549 34.4295 174.872 34.6047 174.934 34.5762C174.938 34.5694 174.947 34.5182 174.904 34.3986C174.641 33.6673 172.912 31.5724 170.386 30.9653C168.939 30.6176 167.432 30.803 167.031 31.0835C166.968 31.1279 166.96 31.1579 166.959 31.1661Z" fill="#FFCD61"/>
<path d="M172.16 39.9495C171.988 39.9495 171.809 39.663 171.408 39.0188C170.97 38.3133 170.306 37.2472 169.182 35.778C168.061 34.3116 167.126 33.2876 166.443 32.5399C165.619 31.6375 165.278 31.2641 165.447 31.0329C165.495 30.9676 165.58 30.9288 165.701 30.9175C166.343 30.8569 168.166 31.602 169.561 32.907C172.005 35.1929 172.589 38.625 172.41 39.6054C172.376 39.7911 172.316 39.8992 172.227 39.9358C172.204 39.9448 172.182 39.9495 172.16 39.9495ZM165.788 31.0675C165.762 31.0675 165.738 31.0686 165.715 31.0708C165.642 31.0776 165.591 31.0964 165.572 31.1238C165.477 31.2532 165.93 31.7493 166.557 32.436C167.241 33.1858 168.179 34.2127 169.305 35.6843C170.433 37.1595 171.099 38.2294 171.539 38.9374C171.823 39.3935 172.093 39.825 172.168 39.7931C172.189 39.7848 172.23 39.7301 172.258 39.5775C172.433 38.6207 171.857 35.2649 169.456 33.0193C168.142 31.7903 166.458 31.0675 165.788 31.0675Z" fill="#FFCD61"/>
<path d="M163.602 21.7242C163.665 18.8091 161.353 16.3946 158.438 16.3313C155.523 16.268 153.109 18.5799 153.045 21.4951C152.982 24.4102 155.294 26.8247 158.209 26.888C161.124 26.9513 163.539 24.6394 163.602 21.7242Z" fill="#84524D"/>
<path d="M159.02 27.4453C156.067 27.4453 153.664 25.0425 153.664 22.0889C153.664 19.1353 156.067 16.7324 159.02 16.7324C161.974 16.7324 164.377 19.1353 164.377 22.0889C164.377 25.0425 161.974 27.4453 159.02 27.4453ZM159.02 16.8865C156.152 16.8865 153.818 19.2203 153.818 22.0889C153.818 24.9575 156.152 27.2913 159.02 27.2913C161.889 27.2913 164.223 24.9576 164.223 22.0889C164.223 19.2203 161.889 16.8865 159.02 16.8865Z" fill="#84524D"/>
<path d="M150.529 31.768C152.63 31.839 154.391 30.1934 154.462 28.0925L154.807 17.8802L147.199 17.623L146.854 27.8354C146.783 29.9364 148.428 31.6971 150.529 31.768Z" fill="white"/>
<path d="M150.347 5.94064C152.114 4.97382 153.845 5.26272 154.922 5.81602C157.981 7.38867 159.507 11.5937 158.404 16.5607C153.408 16.232 148.413 15.9033 143.417 15.5745C142.981 12.3388 142.951 9.02463 144.777 7.08853C147.135 4.58726 150.011 5.92647 150.347 5.94064Z" fill="#84524D"/>
<path d="M144.316 14.999C144.052 19.1274 146.687 22.6558 150.2 22.8799C153.714 23.104 156.776 19.939 157.039 15.8106C157.302 11.6822 154.64 8.4787 151.127 8.25457C147.613 8.03045 144.579 10.8705 144.316 14.999Z" fill="white"/>
<path d="M156.064 14.4513C155.195 15.592 155.279 17.1156 156.249 17.8544C157.22 18.5933 158.711 18.2675 159.579 17.127C160.447 15.9863 160.364 14.4627 159.393 13.7239C158.422 12.985 156.932 13.3107 156.064 14.4513Z" fill="white"/>
<path d="M145.535 13.7804C146.251 15.0221 145.975 16.5227 144.918 17.1323C143.861 17.7418 142.424 17.2293 141.708 15.9876C140.992 14.7459 141.268 13.2453 142.325 12.6357C143.381 12.0262 144.819 12.5387 145.535 13.7804Z" fill="white"/>
<path d="M150.554 22.9675C150.435 22.9675 150.315 22.9637 150.196 22.956C148.857 22.8706 147.605 22.3119 146.573 21.3401C146.542 21.311 146.541 21.2622 146.57 21.2312C146.599 21.2003 146.648 21.1988 146.679 21.228C147.684 22.1748 148.903 22.7192 150.205 22.8023C151.535 22.8871 152.834 22.4862 153.966 21.6433C154 21.6178 154.048 21.625 154.073 21.6591C154.099 21.6932 154.092 21.7414 154.058 21.7668C152.998 22.556 151.793 22.9675 150.554 22.9675Z" fill="#363E44"/>
<path d="M144.417 17.083C144.38 17.083 144.347 17.0564 144.341 17.0188C144.261 16.5415 144.22 16.0505 144.22 15.5594C144.22 15.5169 144.255 15.4824 144.297 15.4824C144.34 15.4824 144.374 15.5169 144.374 15.5595C144.374 16.0421 144.414 16.5245 144.493 16.9932C144.5 17.0352 144.472 17.0749 144.43 17.0819C144.426 17.0827 144.421 17.083 144.417 17.083Z" fill="#363E44"/>
<path d="M156.693 17.8333C156.686 17.8333 156.679 17.8322 156.671 17.83C156.631 17.8179 156.607 17.775 156.62 17.7342C156.776 17.2089 156.884 16.6613 156.938 16.1066C156.942 16.0644 156.979 16.0333 157.022 16.0375C157.065 16.0416 157.095 16.0793 157.091 16.1217C157.036 16.6861 156.927 17.2434 156.767 17.7783C156.757 17.8117 156.727 17.8333 156.693 17.8333Z" fill="#363E44"/>
<path d="M150.205 17.8252C150.188 17.8252 150.171 17.8198 150.157 17.8086C149.936 17.6337 149.823 17.4523 149.822 17.2695C149.821 17.1084 149.902 16.9981 149.989 16.8812C150.065 16.7775 150.144 16.6703 150.18 16.5095C150.212 16.3635 150.201 16.206 150.145 16.0409C150.132 16.0005 150.154 15.9569 150.194 15.9435C150.235 15.9299 150.278 15.9518 150.291 15.9921C150.356 16.1838 150.369 16.3692 150.33 16.5427C150.288 16.7355 150.195 16.8615 150.113 16.9728C150.036 17.0766 149.975 17.1585 149.976 17.2684C149.977 17.4022 150.07 17.5432 150.253 17.6876C150.286 17.714 150.292 17.7624 150.265 17.7958C150.25 17.8152 150.228 17.8252 150.205 17.8252Z" fill="#363E44"/>
<path d="M151.201 19.2902C151.137 19.2902 151.081 19.2871 151.034 19.2827C150.992 19.2789 150.961 19.2414 150.964 19.199C150.968 19.1567 151.005 19.1254 151.048 19.1293C151.261 19.1488 151.68 19.143 152.088 18.8865C152.301 18.7524 152.484 18.5654 152.617 18.3457C152.64 18.3093 152.687 18.2978 152.723 18.3197C152.76 18.3417 152.771 18.3891 152.749 18.4254C152.604 18.6655 152.404 18.8701 152.17 19.0169C151.813 19.2408 151.451 19.2902 151.201 19.2902Z" fill="#363E44"/>
<path d="M148.042 17.3942C147.32 17.3942 146.51 17.1672 145.75 16.7498C144.954 16.3133 144.305 15.7199 143.923 15.0788C143.532 14.4248 143.464 13.7975 143.73 13.3123C144.272 12.3248 146.059 12.2603 147.714 13.1683C149.369 14.0763 150.275 15.6184 149.734 16.6059C149.467 17.0911 148.902 17.3706 148.14 17.3928C148.108 17.3938 148.075 17.3942 148.042 17.3942ZM145.418 12.6765C144.702 12.6765 144.124 12.9144 143.865 13.3863C143.626 13.8217 143.694 14.3947 144.055 14.9998C144.424 15.6177 145.052 16.1913 145.824 16.6147C146.596 17.0382 147.414 17.2598 148.136 17.2388C148.84 17.2182 149.36 16.9671 149.599 16.5317C150.1 15.6187 149.221 14.1704 147.64 13.3033C146.877 12.8844 146.087 12.6765 145.418 12.6765Z" fill="#40484C"/>
<path d="M153.336 17.6766C153.074 17.6766 152.821 17.653 152.584 17.6053C151.837 17.4552 151.327 17.0845 151.146 16.5614C150.965 16.0383 151.138 15.4314 151.633 14.8524C152.118 14.2849 152.857 13.809 153.715 13.5128C155.499 12.8964 157.25 13.2608 157.618 14.3254C157.799 14.8485 157.626 15.4554 157.131 16.0344C156.646 16.6019 155.907 17.0777 155.049 17.374C154.47 17.5742 153.882 17.6766 153.336 17.6766ZM155.434 13.3639C154.916 13.3639 154.343 13.4588 153.765 13.6583C152.933 13.9458 152.217 14.4054 151.75 14.9525C151.292 15.4881 151.129 16.0417 151.292 16.511C151.454 16.9804 151.924 17.3153 152.614 17.4543C153.32 17.5961 154.167 17.5159 154.999 17.2284C155.831 16.9409 156.547 16.4813 157.014 15.9342C157.472 15.3986 157.635 14.845 157.473 14.3757C157.248 13.7251 156.445 13.3639 155.434 13.3639Z" fill="#40484C"/>
<path d="M151.085 16.1033C151.083 16.1033 151.081 16.1032 151.078 16.103L149.811 15.9956C149.769 15.992 149.737 15.9547 149.741 15.9123C149.745 15.8699 149.781 15.8385 149.824 15.8421L151.092 15.9495C151.134 15.9531 151.165 15.9904 151.162 16.0328C151.158 16.0729 151.125 16.1033 151.085 16.1033Z" fill="#FFCD61"/>
<path d="M155.326 14.6278C155.326 14.6279 155.326 14.628 155.326 14.6282L155.31 14.625C155.298 14.6588 155.271 14.7008 155.235 14.6966C155.187 14.7447 155.16 14.8267 155.126 14.8794C155.064 14.9742 154.921 14.8733 154.982 14.7786C155.024 14.7148 154.776 14.8226 154.669 14.8538C154.327 14.9533 153.982 15.0373 153.634 15.1107C153.471 15.1449 153.308 15.1803 153.145 15.2088C153.014 15.2317 152.579 15.3295 152.547 15.3068C152.082 15.6658 151.812 16.0194 151.812 16.0194C151.812 16.0194 152.408 16.3465 153.205 16.4565C153.208 16.446 153.212 16.4356 153.214 16.4249C153.242 16.319 155.125 16.039 155.168 16.1251C155.991 15.6933 156.5 15.0287 156.5 15.0287C156.5 15.0287 156.011 14.7601 155.326 14.6278Z" fill="#FFCD61"/>
<path d="M153.965 14.6212C153.397 14.7413 152.913 15.0256 152.548 15.3068C152.561 15.6563 152.697 16.0022 152.962 16.2714C153.03 16.3408 153.103 16.4014 153.181 16.4542C153.54 16.506 153.941 16.5144 154.347 16.4285C154.641 16.3664 154.911 16.2593 155.155 16.1325C155.489 15.6944 155.542 15.1101 155.31 14.6257C154.908 14.5496 154.44 14.5207 153.965 14.6212Z" fill="#363E44"/>
<path d="M146.266 13.9922C146.266 13.9922 146.266 13.9924 146.266 13.9926L146.283 13.9922C146.289 14.0275 146.308 14.0734 146.345 14.0754C146.384 14.1308 146.397 14.2162 146.422 14.2738C146.466 14.3776 146.624 14.302 146.58 14.1984C146.55 14.1287 146.776 14.2765 146.877 14.3251C147.197 14.4803 147.523 14.6208 147.854 14.7514C148.009 14.8124 148.163 14.8745 148.32 14.93C148.445 14.9745 148.857 15.1437 148.893 15.1266C149.291 15.5584 149.498 15.9522 149.498 15.9522C149.498 15.9522 148.855 16.175 148.051 16.15C148.05 16.1391 148.048 16.1283 148.048 16.1172C148.038 16.0083 146.229 15.4172 146.172 15.4949C145.433 14.9314 145.042 14.1911 145.042 14.1911C145.042 14.1911 145.569 14.0081 146.266 13.9922Z" fill="#FFCD61"/>
<path d="M147.61 14.2115C148.15 14.425 148.58 14.7863 148.892 15.1245C148.821 15.4669 148.628 15.7852 148.323 16.0064C148.244 16.0633 148.161 16.1108 148.076 16.1499C147.714 16.1409 147.317 16.0821 146.931 15.9294C146.651 15.819 146.403 15.6682 146.184 15.5025C145.928 15.0147 145.974 14.4299 146.283 13.991C146.692 13.9832 147.158 14.033 147.61 14.2115Z" fill="#363E44"/>
<path d="M141.872 28.23C147.702 26.9356 153.677 26.9931 159.764 28.1101L159.348 39.9115H138.407L141.872 28.23Z" fill="white"/>
<path d="M185.81 15.1202L197.102 27.8561L202.621 22.6768L190.734 10.7051L185.81 15.1202Z" fill="#2D353A"/>
<path d="M193.766 19.5329L210.348 25.9875L201.445 11.4572L186.065 5.01562L193.766 19.5329Z" fill="#40484C"/>
<path d="M202.535 31.7444C202.515 31.7444 202.495 31.7369 202.48 31.7219C202.45 31.6919 202.45 31.6431 202.48 31.613L207.78 26.3009L204.892 21.7728C204.869 21.7369 204.879 21.6893 204.915 21.6664C204.951 21.6435 204.999 21.6541 205.022 21.6899L207.943 26.2701C207.963 26.3005 207.958 26.3404 207.933 26.3659L202.589 31.7217C202.574 31.7368 202.554 31.7444 202.535 31.7444Z" fill="#E8606B"/>
<path d="M197.866 33.8994L203.77 30.4609L200.349 36.2638L197.866 33.8994Z" fill="#E8606B"/>
<path d="M117.845 105.063H136.394C135.191 105.063 134.216 103.156 134.216 100.804C134.216 98.4517 135.191 96.5449 136.394 96.5449H117.845C116.642 96.5449 115.667 98.4518 115.667 100.804C115.667 103.156 116.642 105.063 117.845 105.063Z" fill="#F7F1EB"/>
<path d="M87.6273 105.234H125.461C123.007 105.234 121.018 103.251 121.018 100.804C121.018 98.3567 123.068 96.4378 125.522 96.4378L87.6273 96.373C85.1734 96.373 83.1842 98.3567 83.1842 100.804C83.1842 103.251 85.1734 105.234 87.6273 105.234Z" fill="#D87355"/>
<path d="M136.78 105.139H125.461C122.927 105.139 120.941 103.234 120.941 100.803C120.941 98.3715 122.927 96.4668 125.461 96.4668H136.78C136.823 96.4668 136.857 96.5013 136.857 96.5438C136.857 96.5863 136.823 96.6208 136.78 96.6208H125.461C123.013 96.6208 121.095 98.4579 121.095 100.803C121.095 103.148 123.013 104.985 125.461 104.985H136.78C136.823 104.985 136.857 105.02 136.857 105.062C136.857 105.105 136.823 105.139 136.78 105.139Z" fill="#84524D"/>
<path d="M134.448 102.256H124.536C124.493 102.256 124.459 102.221 124.459 102.179C124.459 102.136 124.493 102.102 124.536 102.102H134.448C134.49 102.102 134.525 102.136 134.525 102.179C134.525 102.221 134.49 102.256 134.448 102.256Z" fill="#E6D0BE"/>
<path d="M134.276 101.226H122.644C122.601 101.226 122.567 101.192 122.567 101.149C122.567 101.107 122.601 101.072 122.644 101.072H134.276C134.318 101.072 134.353 101.107 134.353 101.149C134.353 101.192 134.318 101.226 134.276 101.226Z" fill="#E6D0BE"/>
<path d="M134.448 98.9978H123.676C123.633 98.9978 123.599 98.9633 123.599 98.9208C123.599 98.8783 123.633 98.8438 123.676 98.8438H134.448C134.49 98.8438 134.525 98.8783 134.525 98.9208C134.525 98.9633 134.49 98.9978 134.448 98.9978Z" fill="#E6D0BE"/>
<path d="M86.5795 103.354H96.8287V98.4185H86.5795V103.354Z" fill="#B77250"/>
<path d="M98.6177 103.354H116.923V98.4185H98.6177V103.354Z" fill="#B77250"/>
<path d="M99.8308 69.1167C98.4913 69.1168 97.4605 68.6812 97.2568 67.9188C97.2458 67.8776 97.2702 67.8354 97.3113 67.8245C97.352 67.8136 97.3947 67.8379 97.4056 67.879C97.6768 68.8942 99.5986 69.2655 101.69 68.7068C102.711 68.4339 103.618 67.9811 104.243 67.4319C104.853 66.8954 105.118 66.3346 104.99 65.8527C104.979 65.8116 105.003 65.7694 105.044 65.7585C105.085 65.7475 105.128 65.7719 105.139 65.813C105.283 66.3544 105.001 66.9704 104.344 67.5477C103.702 68.1122 102.773 68.5768 101.729 68.8557C101.066 69.0327 100.419 69.1167 99.8308 69.1167Z" fill="#E64A67"/>
<path d="M98.3846 70.263C97.8741 70.263 97.4596 70.113 97.2102 69.7983C97.1837 69.7649 97.1893 69.7165 97.2227 69.6901C97.2559 69.6637 97.3043 69.6692 97.3308 69.7026C97.9837 70.526 99.9121 70.088 101.63 68.7264C103.347 67.3647 104.214 65.5871 103.561 64.7636C103.535 64.7302 103.54 64.6818 103.574 64.6554C103.607 64.6289 103.655 64.6346 103.682 64.6678C104.387 65.5579 103.51 67.4326 101.725 68.847C100.572 69.7614 99.3178 70.263 98.3846 70.263Z" fill="#E64A67"/>
<path d="M101.382 68.9492C101.17 68.9492 100.936 68.865 100.696 68.6997C100.343 68.4552 100.017 68.0595 99.7797 67.5855C99.6077 67.2417 99.4947 66.8807 99.4535 66.5412C99.4483 66.499 99.4783 66.4606 99.5205 66.4554C99.563 66.4502 99.6012 66.4804 99.6063 66.5226C99.6455 66.8447 99.7531 67.1884 99.9175 67.5166C100.143 67.9679 100.451 68.343 100.784 68.573C101.103 68.7936 101.404 68.8521 101.632 68.7381C101.86 68.6241 101.994 68.3478 102.008 67.9601C102.024 67.5557 101.908 67.0845 101.682 66.6333C101.51 66.2903 101.289 65.9885 101.043 65.7605C101.012 65.7316 101.01 65.6829 101.039 65.6517C101.068 65.6204 101.117 65.6186 101.148 65.6475C101.408 65.888 101.64 66.2051 101.82 66.5644C102.057 67.0385 102.179 67.5363 102.162 67.966C102.145 68.4124 101.982 68.7356 101.701 68.8759C101.603 68.9249 101.496 68.9492 101.382 68.9492Z" fill="#E64A67"/>
<path d="M97.5096 69.4769C97.5674 69.6934 97.4388 69.9158 97.2223 69.9737C97.0058 70.0315 96.7834 69.9029 96.7255 69.6864C96.6677 69.4699 96.7963 69.2475 97.0128 69.1896C97.2293 69.1318 97.4517 69.2604 97.5096 69.4769Z" fill="#E64A67"/>
<path d="M97.6804 67.8734C97.7382 68.0899 97.6096 68.3123 97.3931 68.3702C97.1766 68.428 96.9541 68.2994 96.8963 68.0829C96.8385 67.8664 96.9671 67.644 97.1836 67.5861C97.4001 67.5283 97.6225 67.6569 97.6804 67.8734Z" fill="#E64A67"/>
<path d="M99.8899 66.3441C99.9478 66.5606 99.8192 66.783 99.6027 66.8409C99.3862 66.8987 99.1637 66.7701 99.1059 66.5536C99.048 66.3371 99.1767 66.1147 99.3932 66.0568C99.6097 65.999 99.8321 66.1276 99.8899 66.3441Z" fill="#E64A67"/>
<path d="M101.482 65.6195C101.539 65.836 101.411 66.0584 101.194 66.1163C100.978 66.1741 100.755 66.0455 100.698 65.829C100.64 65.6125 100.768 65.39 100.985 65.3322C101.201 65.2744 101.424 65.403 101.482 65.6195Z" fill="#E64A67"/>
<path d="M103.923 64.5336C103.981 64.7501 103.852 64.9725 103.636 65.0303C103.419 65.0882 103.197 64.9596 103.139 64.7431C103.081 64.5266 103.21 64.3041 103.426 64.2463C103.643 64.1884 103.865 64.317 103.923 64.5336Z" fill="#E64A67"/>
<path d="M105.414 65.5804C105.472 65.7969 105.344 66.0194 105.127 66.0772C104.911 66.135 104.688 66.0064 104.63 65.7899C104.573 65.5734 104.701 65.351 104.918 65.2931C105.134 65.2353 105.357 65.3639 105.414 65.5804Z" fill="#E64A67"/>
<path d="M105.927 82.7468C105.89 82.7468 105.857 82.7196 105.851 82.6816C105.413 79.8497 104.732 77.0389 103.827 74.3274C103.205 72.4619 102.465 70.6117 101.63 68.8285C101.612 68.79 101.628 68.7442 101.667 68.7261C101.706 68.708 101.751 68.7247 101.769 68.7631C102.607 70.5517 103.349 72.4074 103.973 74.2786C104.881 76.9983 105.564 79.8175 106.003 82.658C106.01 82.7 105.981 82.7394 105.939 82.7459C105.935 82.7465 105.931 82.7468 105.927 82.7468Z" fill="#E64A67"/>
<path d="M106.712 63.9741C106.452 63.9741 106.187 63.9629 105.917 63.9399C103.315 63.7175 101.29 62.4705 101.402 61.1603C101.405 61.1179 101.442 61.0865 101.485 61.0901C101.527 61.0937 101.559 61.131 101.555 61.1735C101.45 62.3991 103.413 63.5713 105.93 63.7865C108.448 64.0016 110.581 63.1796 110.685 61.954C110.689 61.9116 110.727 61.88 110.769 61.8838C110.811 61.8874 110.842 61.9247 110.839 61.9671C110.738 63.1414 108.954 63.9741 106.712 63.9741Z" fill="#E64A67"/>
<path d="M103.235 64.3995C102.98 64.3995 102.734 64.3843 102.5 64.3534C101.486 64.2197 100.814 63.808 100.608 63.1943C100.594 63.154 100.616 63.1103 100.656 63.0968C100.696 63.0832 100.74 63.1049 100.754 63.1453C100.94 63.7003 101.567 64.0751 102.52 64.2007C103.492 64.3288 104.679 64.1806 105.863 63.7832C108.288 62.9688 109.943 61.3575 109.551 60.1914C109.538 60.151 109.559 60.1074 109.6 60.0939C109.64 60.0803 109.684 60.102 109.697 60.1424C110.116 61.389 108.418 63.0878 105.912 63.9293C104.99 64.2386 104.065 64.3995 103.235 64.3995Z" fill="#E64A67"/>
<path d="M105.788 63.956C105.099 63.9561 104.441 63.0143 104.296 61.7897C104.244 61.3467 104.263 60.9082 104.351 60.5216C104.361 60.4801 104.402 60.4543 104.444 60.4637C104.485 60.4732 104.511 60.5145 104.501 60.556C104.417 60.9256 104.399 61.346 104.449 61.7716C104.59 62.9641 105.222 63.8732 105.858 63.7979C106.157 63.7625 106.416 63.51 106.588 63.0868C106.765 62.6483 106.825 62.0843 106.755 61.4988C106.703 61.0539 106.58 60.6346 106.399 60.2863C106.38 60.2486 106.395 60.2021 106.432 60.1825C106.47 60.1629 106.517 60.1777 106.536 60.2155C106.725 60.5801 106.854 61.0175 106.908 61.4807C106.981 62.0914 106.918 62.6823 106.731 63.1445C106.537 63.6222 106.234 63.9084 105.876 63.9508C105.847 63.9543 105.817 63.956 105.788 63.956Z" fill="#E64A67"/>
<path d="M101.05 62.9658C101.028 63.2257 100.799 63.4184 100.539 63.3962C100.279 63.374 100.087 63.1453 100.109 62.8853C100.131 62.6254 100.36 62.4327 100.62 62.4549C100.88 62.4771 101.072 62.7059 101.05 62.9658Z" fill="#E64A67"/>
<path d="M101.871 61.2763C101.849 61.5362 101.62 61.7289 101.361 61.7067C101.101 61.6845 100.908 61.4558 100.93 61.1959C100.952 60.9359 101.181 60.7432 101.441 60.7654C101.701 60.7876 101.894 61.0163 101.871 61.2763Z" fill="#E64A67"/>
<path d="M104.895 60.4756C104.872 60.7355 104.644 60.9282 104.384 60.9059C104.124 60.8838 103.931 60.655 103.953 60.3951C103.976 60.1351 104.204 59.9424 104.464 59.9646C104.724 59.9869 104.917 60.2156 104.895 60.4756Z" fill="#E64A67"/>
<path d="M106.924 60.3114C106.901 60.5714 106.673 60.7641 106.413 60.7419C106.153 60.7196 105.96 60.491 105.982 60.231C106.004 59.9711 106.233 59.7784 106.493 59.8006C106.753 59.8227 106.946 60.0515 106.924 60.3114Z" fill="#E64A67"/>
<path d="M110.026 60.0869C110.004 60.3468 109.776 60.5395 109.516 60.5173C109.256 60.4951 109.063 60.2664 109.085 60.0064C109.107 59.7465 109.336 59.5538 109.596 59.576C109.856 59.5982 110.049 59.827 110.026 60.0869Z" fill="#E64A67"/>
<path d="M111.245 61.8232C111.223 62.0831 110.994 62.2758 110.734 62.2536C110.474 62.2314 110.282 62.0027 110.304 61.7427C110.326 61.4828 110.555 61.2901 110.815 61.3123C111.075 61.3345 111.267 61.5632 111.245 61.8232Z" fill="#E64A67"/>
<path d="M105.053 80.8149C105.048 80.8149 105.044 80.8145 105.039 80.8135C104.997 80.8053 104.97 80.7649 104.978 80.7231C105.617 77.4487 105.982 74.1014 106.063 70.7738C106.119 68.4844 106.04 66.166 105.83 63.883C105.826 63.8406 105.857 63.8031 105.9 63.7992C105.943 63.7952 105.98 63.8265 105.984 63.8688C106.194 66.1579 106.273 68.4823 106.217 70.7775C106.136 74.1138 105.77 77.4698 105.129 80.7526C105.122 80.7894 105.09 80.8149 105.053 80.8149Z" fill="#E64A67"/>
<path d="M113.734 71.4278C112.884 71.4278 111.93 71.2486 110.983 70.9068C109.802 70.48 108.773 69.85 108.085 69.1327C107.384 68.4015 107.12 67.6635 107.34 67.0548C107.354 67.0147 107.398 66.9941 107.438 67.0085C107.478 67.023 107.499 67.0671 107.484 67.1071C107.285 67.6578 107.538 68.3394 108.196 69.0261C108.868 69.7266 109.876 70.3431 111.036 70.7619C112.195 71.1808 113.365 71.351 114.329 71.2414C115.274 71.1339 115.904 70.7712 116.103 70.2205C116.117 70.1804 116.161 70.1598 116.201 70.1742C116.241 70.1887 116.262 70.2328 116.248 70.2728C116.028 70.8815 115.353 71.2799 114.346 71.3944C114.15 71.4167 113.945 71.4278 113.734 71.4278Z" fill="#E64A67"/>
<path d="M114.95 72.8883C114.639 72.8883 114.291 72.8302 113.914 72.7132C112.955 72.4158 111.918 71.7718 110.993 70.8996C110.068 70.0274 109.364 69.03 109.01 68.0909C108.65 67.1335 108.696 66.3469 109.14 65.8757C109.169 65.8448 109.218 65.8434 109.249 65.8725C109.28 65.9017 109.281 65.9505 109.252 65.9814C108.851 66.4074 108.816 67.1373 109.154 68.0367C109.5 68.9542 110.19 69.9312 111.099 70.7875C112.007 71.6439 113.023 72.2756 113.959 72.5661C114.877 72.8508 115.604 72.773 116.005 72.3469C116.034 72.316 116.083 72.3146 116.114 72.3437C116.145 72.3729 116.146 72.4217 116.117 72.4526C115.845 72.7418 115.445 72.8883 114.95 72.8883Z" fill="#E64A67"/>
<path d="M111.455 71.0512C111.293 71.0512 111.145 71.012 111.016 70.9329C110.709 70.7447 110.554 70.3577 110.578 69.843C110.602 69.345 110.792 68.782 111.113 68.2575C111.356 67.86 111.656 67.5165 111.981 67.2643C112.014 67.2381 112.062 67.2443 112.089 67.2778C112.115 67.3113 112.109 67.3597 112.075 67.3858C111.765 67.6267 111.478 67.9559 111.244 68.3379C110.936 68.8406 110.754 69.3777 110.732 69.8503C110.71 70.3062 110.84 70.644 111.097 70.8015C111.354 70.9589 111.713 70.9209 112.11 70.6946C112.521 70.4599 112.916 70.0538 113.224 69.5511C113.448 69.1856 113.608 68.7963 113.686 68.4252C113.694 68.3835 113.736 68.357 113.777 68.3657C113.819 68.3744 113.845 68.4153 113.837 68.4568C113.755 68.845 113.589 69.2512 113.356 69.6316C113.035 70.156 112.619 70.581 112.186 70.8283C111.927 70.9765 111.678 71.0512 111.455 71.0512Z" fill="#E64A67"/>
<path d="M115.811 72.0581C115.723 72.3035 115.85 72.5742 116.095 72.6629C116.341 72.7515 116.611 72.6244 116.7 72.379C116.789 72.1337 116.662 71.8629 116.416 71.7743C116.171 71.6857 115.9 71.8128 115.811 72.0581Z" fill="#E64A67"/>
<path d="M115.773 70.1812C115.684 70.4265 115.811 70.6973 116.057 70.7859C116.302 70.8746 116.573 70.7475 116.662 70.5021C116.75 70.2567 116.623 69.986 116.378 69.8973C116.132 69.8088 115.862 69.9358 115.773 70.1812Z" fill="#E64A67"/>
<path d="M113.362 68.189C113.274 68.4344 113.401 68.7051 113.646 68.7938C113.892 68.8824 114.162 68.7553 114.251 68.5099C114.34 68.2645 114.212 67.9938 113.967 67.9052C113.722 67.8165 113.451 67.9436 113.362 68.189Z" fill="#E64A67"/>
<path d="M111.588 67.191C111.5 67.4363 111.627 67.7071 111.872 67.7957C112.118 67.8844 112.388 67.7573 112.477 67.5119C112.566 67.2665 112.439 66.9958 112.193 66.9071C111.948 66.8185 111.677 66.9456 111.588 67.191Z" fill="#E64A67"/>
<path d="M108.864 65.687C108.776 65.9324 108.903 66.2031 109.148 66.2918C109.394 66.3804 109.664 66.2533 109.753 66.0079C109.842 65.7626 109.715 65.4918 109.469 65.4032C109.224 65.3146 108.953 65.4417 108.864 65.687Z" fill="#E64A67"/>
<path d="M107.031 66.7534C106.942 66.9988 107.069 67.2695 107.315 67.3582C107.56 67.4468 107.831 67.3197 107.919 67.0744C108.008 66.829 107.881 66.5583 107.636 66.4696C107.39 66.381 107.119 66.508 107.031 66.7534Z" fill="#E64A67"/>
<path d="M104.736 86.6002C104.73 86.6002 104.724 86.5995 104.717 86.5979C104.676 86.5878 104.651 86.5462 104.661 86.5049C105.453 83.2549 106.526 80.0538 107.848 76.9903C108.759 74.8825 109.803 72.8045 110.953 70.8139C110.974 70.777 111.021 70.7645 111.058 70.7857C111.095 70.807 111.108 70.8541 111.086 70.8909C109.94 72.8763 108.898 74.949 107.99 77.0513C106.67 80.1069 105.601 83.2998 104.811 86.5412C104.802 86.5765 104.77 86.6002 104.736 86.6002Z" fill="#E64A67"/>
<path d="M110.929 97.2225C113.424 94.5943 115.112 89.9623 115.112 86.6566C115.112 83.1165 113.176 80.5687 110.385 79.4436V75.998H103.527V79.4436C100.736 80.5687 98.7999 83.1166 98.7999 86.6566C98.7999 89.9622 100.488 94.5942 102.983 97.2225H110.929Z" fill="#EFBC73"/>
</g>
<path d="M72.7095 64.2331H69.4659V63.307C69.0656 63.2303 68.668 63.124 68.2819 62.9904L67.8193 63.7919L65.0101 62.1701L65.4738 61.3668C65.1658 61.0996 64.8749 60.8088 64.608 60.5009L63.8046 60.9647L62.1827 58.1555L62.9843 57.6928C62.8507 57.307 62.7443 56.9093 62.6676 56.509H61.7416V53.2652H62.6676C62.7443 52.8649 62.8507 52.4672 62.9843 52.0814L62.1827 51.6187L63.8046 48.8095L64.608 49.2733C64.875 48.9655 65.1658 48.6747 65.4738 48.4075L65.0101 47.6042L67.8193 45.9823L68.2819 46.7839C68.668 46.6502 69.0656 46.544 69.4659 46.4672V45.541H72.7095V46.4671C73.1098 46.5438 73.5074 46.6502 73.8934 46.7837L74.3561 45.9823L77.1653 47.6041L76.7016 48.4074C77.0094 48.6744 77.3002 48.9652 77.5674 49.2733L78.3707 48.8095L79.9926 51.6187L79.1911 52.0814C79.3248 52.4677 79.4312 52.8654 79.5077 53.2652H80.4337V56.509H79.5077C79.4312 56.9088 79.3248 57.3065 79.1911 57.6928L79.9926 58.1555L78.3707 60.9647L77.5674 60.5009C77.3002 60.809 77.0094 61.0998 76.7016 61.3668L77.1653 62.1701L74.3561 63.7919L73.8934 62.9904C73.5074 63.124 73.1098 63.2303 72.7095 63.307V64.2331ZM69.6199 64.0791H72.5555V63.179L72.6186 63.1675C73.0532 63.0877 73.4851 62.9722 73.9024 62.8241L73.9628 62.8027L74.4125 63.5816L76.9548 62.1138L76.5041 61.3331L76.5528 61.2915C76.8888 61.0046 77.2048 60.6885 77.4919 60.3524L77.5336 60.3037L78.3142 60.7544L79.782 58.2121L79.0032 57.7624L79.0246 57.702C79.1728 57.2842 79.2883 56.8522 79.368 56.4182L79.3795 56.3551H80.2796V53.4193H79.3795L79.368 53.3562C79.2883 52.9221 79.1728 52.4902 79.0246 52.0724L79.0032 52.012L79.782 51.5623L78.3142 49.02L77.5336 49.4707L77.4919 49.422C77.2047 49.0857 76.8887 48.7697 76.5528 48.4828L76.5041 48.4412L76.9548 47.6606L74.4125 46.1927L73.9628 46.9716L73.9024 46.9502C73.485 46.8022 73.0532 46.6867 72.6186 46.6069L72.5555 46.5953V45.6951H69.6199V46.5952L69.5568 46.6067C69.1223 46.6865 68.6904 46.802 68.2729 46.9501L68.2126 46.9715L67.7629 46.1926L65.2206 47.6604L65.6713 48.4411L65.6226 48.4827C65.2864 48.7699 64.9704 49.0858 64.6835 49.4218L64.6419 49.4706L63.8611 49.0199L62.3933 51.5622L63.1722 52.0119L63.1508 52.0723C63.0028 52.4895 62.8872 52.9215 62.8074 53.3561L62.7958 53.4192H61.8957V56.3548H62.7958L62.8074 56.4179C62.8872 56.8525 63.0028 57.2845 63.1508 57.7018L63.1722 57.7621L62.3933 58.2119L63.8611 60.7542L64.6419 60.3034L64.6835 60.3521C64.9704 60.6881 65.2864 61.0041 65.6226 61.2913L65.6713 61.3329L65.2206 62.1135L67.7629 63.5814L68.2126 62.8025L68.2729 62.8239C68.6904 62.9719 69.1223 63.0874 69.5568 63.1672L69.6199 63.1788V64.0791ZM71.1025 61.6414C69.3126 61.6414 67.5967 60.9589 66.3063 59.6684C64.4275 57.7896 63.8373 55.0089 64.7661 52.4113C65.4098 50.6108 66.8118 49.209 68.6123 48.5652C71.21 47.6366 73.9906 48.2269 75.8693 50.1057C77.748 51.9845 78.3381 54.7652 77.4093 57.3626C76.7656 59.1632 75.3637 60.565 73.5631 61.2087C72.7498 61.4995 71.9184 61.6414 71.1025 61.6414ZM71.0723 48.2869C70.2738 48.2869 69.4603 48.4258 68.6641 48.7103C66.9071 49.3385 65.5392 50.7064 64.9111 52.4632C64.0026 55.0041 64.5789 57.7232 66.4152 59.5594C68.2514 61.3957 70.9705 61.9721 73.5112 61.0637C75.2682 60.4356 76.636 59.0677 77.2643 57.3108C78.1728 54.77 77.5964 52.0509 75.7604 50.2147C74.4994 48.9538 72.8222 48.2869 71.0723 48.2869Z" fill="white"/>
<path opacity="0.5" d="M55.0251 26.6319L55.225 8.95898L84.719 9.11512L84.7343 23.5571L86.891 26.9528L80.8751 26.846L55.0251 26.6319Z" fill="white"/>
<path d="M88.8641 26.0564C88.8634 26.0564 88.8628 26.0564 88.8621 26.0563L81.9648 25.8489L56.1164 25.6348C56.0983 25.6346 56.081 25.6273 56.0685 25.6144C56.0558 25.6015 56.0489 25.5841 56.0491 25.5662L56.249 7.89328C56.2494 7.85609 56.2796 7.82617 56.3168 7.82617C56.317 7.82617 56.3172 7.82617 56.3172 7.82617L85.8112 7.98237C85.8485 7.98258 85.8787 8.01297 85.8787 8.05029L85.8576 22.7035L88.9135 25.9419C88.9323 25.9618 88.9373 25.9912 88.9261 26.0162C88.9151 26.0408 88.8907 26.0564 88.8641 26.0564ZM56.1855 25.4997L81.9673 25.7133L88.7021 25.9158L85.7403 22.7771C85.7284 22.7645 85.7219 22.7478 85.7219 22.7304L85.7429 8.11774L56.3839 7.96229L56.1855 25.4997Z" fill="#8B865C"/>
<path d="M78.5831 13.0438C78.5829 13.0438 78.5827 13.0438 78.5826 13.0438L60.9203 12.8974C60.8828 12.8971 60.8527 12.8665 60.853 12.829C60.8534 12.7918 60.8836 12.7617 60.9209 12.7617C60.9211 12.7617 60.9213 12.7617 60.9214 12.7617L78.5837 12.9081C78.6212 12.9084 78.6513 12.939 78.651 12.9765C78.6506 13.0137 78.6204 13.0438 78.5831 13.0438Z" fill="#8B865C"/>
<path d="M81.3894 13.0667C81.3892 13.0667 81.389 13.0667 81.3889 13.0667L80.2885 13.0576C80.251 13.0572 80.2209 13.0266 80.2212 12.9892C80.2215 12.9519 80.2518 12.9219 80.289 12.9219C80.2893 12.9219 80.2895 12.9219 80.2896 12.9219L81.39 12.931C81.4275 12.9313 81.4576 12.9619 81.4573 12.9994C81.457 13.0367 81.4266 13.0667 81.3894 13.0667Z" fill="#8B865C"/>
<path d="M65.6999 16.2343C65.6997 16.2343 65.6995 16.2343 65.6994 16.2343L60.873 16.1943C60.8355 16.194 60.8053 16.1634 60.8057 16.1259C60.806 16.0887 60.8363 16.0586 60.8735 16.0586C60.8737 16.0586 60.8739 16.0586 60.8741 16.0586L65.7004 16.0986C65.738 16.0988 65.7681 16.1295 65.7678 16.167C65.7674 16.2042 65.7372 16.2343 65.6999 16.2343Z" fill="#8B865C"/>
<path d="M81.3421 16.3631C81.3419 16.3631 81.3417 16.3631 81.3416 16.3631L71.1072 16.2783C71.0697 16.278 71.0396 16.2473 71.0399 16.2099C71.0403 16.1726 71.0705 16.1426 71.1078 16.1426C71.108 16.1426 71.1082 16.1426 71.1083 16.1426L81.3427 16.2274C81.3802 16.2277 81.4103 16.2583 81.41 16.2958C81.4096 16.333 81.3794 16.3631 81.3421 16.3631Z" fill="#8B865C"/>
<path d="M74.3576 19.6033C74.3574 19.6033 74.3571 19.6033 74.357 19.6033L60.8259 19.4912C60.7883 19.4908 60.7582 19.4602 60.7585 19.4228C60.7589 19.3855 60.7891 19.3555 60.8264 19.3555C60.8266 19.3555 60.8268 19.3555 60.8269 19.3555L74.3581 19.4676C74.3956 19.4679 74.4257 19.4985 74.4254 19.536C74.4251 19.5732 74.3948 19.6033 74.3576 19.6033Z" fill="#8B865C"/>
<path d="M81.2949 19.661C81.2947 19.661 81.2945 19.661 81.2944 19.661L77.9999 19.6338C77.9624 19.6334 77.9323 19.6028 77.9326 19.5654C77.933 19.5281 77.9632 19.498 78.0005 19.498C78.0007 19.498 78.0009 19.498 78.001 19.498L81.2955 19.5253C81.333 19.5257 81.3631 19.5563 81.3628 19.5937C81.3624 19.631 81.3322 19.661 81.2949 19.661Z" fill="#8B865C"/>
<path d="M249.227 38.5023C256.824 30.905 256.824 18.5872 249.227 10.9898C241.63 3.39248 229.312 3.39248 221.715 10.9898C214.117 18.5872 214.117 30.905 221.715 38.5023C229.312 46.0997 241.63 46.0997 249.227 38.5023Z" fill="#E6D0BE"/>
<path d="M238.293 44.2655C238.254 44.2655 238.216 44.2654 238.177 44.2652C232.963 44.2351 228.073 42.1765 224.407 38.4684C220.742 34.7603 218.74 29.8467 218.77 24.6327C218.8 19.4187 220.858 14.5285 224.566 10.8628C228.247 7.22441 233.116 5.22461 238.287 5.22461C238.325 5.22461 238.363 5.22474 238.402 5.22494C243.616 5.25493 248.506 7.31361 252.172 11.0217C255.838 14.7298 257.84 19.6434 257.81 24.8574C257.78 30.0714 255.721 34.9616 252.013 38.6273C248.333 42.2657 243.464 44.2655 238.293 44.2655ZM238.288 5.35653C227.648 5.35653 218.963 13.9799 218.901 24.6335C218.872 29.8122 220.86 34.6927 224.501 38.3757C228.142 42.0588 232.999 44.1035 238.178 44.1333C238.215 44.1335 238.254 44.1337 238.292 44.1337C248.932 44.1347 257.617 35.5103 257.678 24.8568C257.708 19.678 255.719 14.7975 252.078 11.1145C248.437 7.43142 243.58 5.38666 238.401 5.35686C238.364 5.3566 238.325 5.35653 238.288 5.35653Z" fill="white"/>
<path d="M238.324 15.3747C232.922 15.3747 227.613 14.4652 222.97 12.7447L223.016 12.6211C227.644 14.3363 232.938 15.2429 238.324 15.2429C243.669 15.2429 248.927 14.3493 253.53 12.6588L253.575 12.7826C248.958 14.4784 243.684 15.3747 238.324 15.3747Z" fill="white"/>
<path d="M222.838 36.6013L222.792 36.4779C227.479 34.7137 232.85 33.7812 238.324 33.7812C243.768 33.7812 249.114 34.7043 253.784 36.4505L253.737 36.574C249.083 34.8332 243.753 33.913 238.324 33.913C232.866 33.9132 227.511 34.8427 222.838 36.6013Z" fill="white"/>
<path d="M238.29 44.2674C235.566 44.2674 233.009 42.2311 231.089 38.5337C229.176 34.85 228.123 29.9538 228.123 24.747C228.123 19.5401 229.177 14.6439 231.089 10.9602C233.009 7.26282 235.566 5.22656 238.29 5.22656C241.014 5.22656 243.571 7.26282 245.49 10.9602C247.403 14.6439 248.456 19.5402 248.456 24.747C248.456 29.9538 247.403 34.85 245.49 38.5337C243.571 42.2311 241.014 44.2674 238.29 44.2674ZM238.29 5.35835C232.757 5.35835 228.255 14.0561 228.255 24.747C228.255 35.4379 232.757 44.1355 238.29 44.1355C243.823 44.1355 248.324 35.4378 248.324 24.747C248.324 14.0561 243.823 5.35835 238.29 5.35835Z" fill="white"/>
<path d="M238.356 5.33398H238.224V44.1757H238.356V5.33398Z" fill="white"/>
<path d="M218.826 24.4072L218.825 24.5391L257.751 24.8427L257.752 24.7108L218.826 24.4072Z" fill="white"/>
</g>
<defs>
<clipPath id="clip0_535_9470">
<rect y="0.333984" width="310" height="103.333" rx="6.2" fill="white"/>
</clipPath>
<clipPath id="clip1_535_9470">
<rect x="83.1833" y="-12.3242" width="143.375" height="146.789" rx="11.379" fill="white"/>
</clipPath>
</defs>
</svg>
