<svg width="231" height="322" viewBox="0 0 231 322" fill="none" xmlns="http://www.w3.org/2000/svg">
<rect x="0.18457" y="0.314453" width="230" height="321.37" rx="18.9041" fill="#FFDCEB"/>
<path d="M81.7129 22.5974V30.5623H81.6121C81.6121 29.9574 81.0576 23.9081 75.3611 23.9081H66.6905V41.0982H74.857C79.2932 41.0982 79.7469 36.6621 79.7469 36.2084H79.7973V47.2988H79.7469C79.7469 46.8451 79.2932 42.4089 74.857 42.4089H66.6905V60.6073H76.3694C82.0658 60.6073 82.6203 54.558 82.6203 53.953H82.7211V61.918H55.3984V61.8171C55.7009 61.8171 58.5239 61.3634 58.5239 56.2719V28.2434C58.5239 23.1519 55.7009 22.6982 55.3984 22.6982V22.5974H81.7129ZM88.314 61.918V61.8171C88.6165 61.8171 91.4395 61.3634 91.4395 56.2719V28.2434C91.4395 23.1519 88.6165 22.6982 88.314 22.6982V22.5974H97.6905L119.468 49.0632V28.2434C119.468 23.1519 116.645 22.6982 116.343 22.6982V22.5974H124.005V22.6982C123.703 22.6982 120.88 23.1519 120.88 28.2434V62.2204L92.851 28.2434V56.2719C92.851 61.3634 95.674 61.8171 95.9765 61.8171V61.918H88.314ZM132.324 23.9081C126.627 23.9081 126.073 29.9574 126.073 30.5623H125.972V22.5974H158.336V30.5623H158.235C158.235 29.9574 157.68 23.9081 151.984 23.9081H146.237V56.2719C146.237 61.3634 149.06 61.8171 149.362 61.8171V61.918H134.945V61.8171C135.247 61.8171 138.07 61.3634 138.07 56.2719V23.9081H132.324ZM160.332 72.5043C163.659 72.5043 164.062 66.6062 164.062 62.0692V28.2434C164.062 23.1519 161.239 22.6982 160.937 22.6982V22.5974H175.354V22.6982C175.052 22.6982 172.229 23.1519 172.229 28.2434V61.9684C172.229 68.7739 167.49 72.6051 160.332 72.6051V72.5043Z" fill="#B5346D"/>
<path d="M55.6257 91.6445V91.613C55.7202 91.613 56.6024 91.4712 56.6024 89.8801V81.1212C56.6024 79.5301 55.7202 79.3884 55.6257 79.3884V79.3569H58.5558L65.3613 87.6274V81.1212C65.3613 79.5301 64.4791 79.3884 64.3846 79.3884V79.3569H66.7791V79.3884C66.6846 79.3884 65.8024 79.5301 65.8024 81.1212V91.7391L57.0435 81.1212V89.8801C57.0435 91.4712 57.9257 91.613 58.0202 91.613V91.6445H55.6257ZM68.4453 80.8062C68.4453 79.2151 67.5631 79.0733 67.4686 79.0733V79.0418H70.9658V84.0514C71.3439 83.1692 72.1946 82.2555 73.9275 82.2555C74.7151 82.2555 75.424 82.4918 75.9439 82.9486C76.448 83.4055 76.7631 84.0829 76.7631 84.9808V89.8801C76.7631 91.4712 77.6453 91.613 77.7398 91.613V91.6445H73.2658V91.613C73.3603 91.613 74.2425 91.4712 74.2425 89.8801V85.1856C74.2425 84.7918 74.211 84.2719 74.0062 83.8466C73.8014 83.437 73.4391 83.1377 72.8877 83.1377C71.7692 83.1377 70.9658 84.2562 70.9658 85.8V89.8801C70.9658 91.4712 71.848 91.613 71.9425 91.613V91.6445H67.4686V91.613C67.5631 91.613 68.4453 91.4712 68.4453 89.8801V80.8062ZM82.0923 82.9171C80.3279 82.9171 79.2252 84.3822 79.0834 85.2959H79.0361C79.1779 83.6418 80.517 82.2555 82.9902 82.2555C83.8409 82.2555 85.0539 82.3815 85.8731 83.0747C86.3772 83.5158 86.7238 84.1774 86.7238 85.1856V89.8801C86.7238 91.4712 87.606 91.613 87.7005 91.613V91.6445H84.2033V90.211C83.7622 90.9514 82.8327 91.7391 81.1628 91.7391C79.6505 91.7391 78.5005 91.0144 78.5005 89.4706C78.5005 87.4226 80.517 86.0521 84.2033 85.9575V85.2486C84.2033 84.3507 83.9827 83.7521 83.5889 83.3897C83.2265 83.0589 82.7067 82.9171 82.0923 82.9171ZM81.0211 89.4706C81.0211 90.2267 81.4464 90.9986 82.3128 90.9986C83.3683 90.9986 84.1087 89.9274 84.2033 89.6123V86.3356C81.7772 86.3671 81.0211 88.3206 81.0211 89.4706ZM81.3361 80.4596V80.4123L82.1711 79.2466H82.2183C82.8642 80.1445 84.0142 81.3733 84.7704 81.6726L84.7231 81.7199C83.7937 81.5938 82.1396 81.074 81.3361 80.4596ZM92.2386 87.3596C92.2386 84.4295 93.7509 82.2555 96.429 82.2555C97.6893 82.2555 98.3194 82.7753 98.729 83.3425V81.011H96.5235V80.5699H98.729C98.6345 79.1993 97.8468 79.0733 97.7523 79.0733V79.0418H101.25V80.5699H101.565V81.011H101.25V89.8801C101.25 91.4712 102.132 91.613 102.226 91.613V91.6445H98.729V90.3843C98.2407 91.2822 97.2482 91.8336 96.177 91.8336C93.7509 91.8336 92.2386 89.9747 92.2386 87.3596ZM94.7434 87.2021C94.7434 89.376 95.5153 91.1404 96.8859 91.1404C97.6893 91.1404 98.2722 90.6678 98.729 89.5808V84.1774C98.3194 83.311 97.7366 83.1062 97.2797 83.1062C95.8304 83.1062 94.7434 84.713 94.7434 87.2021ZM104.218 84.1774C104.218 82.5863 103.336 82.4445 103.241 82.4445V82.413H106.739V89.8801C106.739 91.4712 107.621 91.613 107.715 91.613V91.6445H103.241V91.613C103.336 91.613 104.218 91.4712 104.218 89.8801V84.1774ZM104.06 80.176C104.06 79.4356 104.675 78.8212 105.415 78.8212C106.156 78.8212 106.77 79.4356 106.77 80.176C106.77 80.9164 106.156 81.5308 105.415 81.5308C104.675 81.5308 104.06 80.9164 104.06 80.176ZM113.224 91.8336C110.167 91.8336 108.592 89.8171 108.592 87.2021C108.592 84.4295 110.482 82.2555 113.491 82.2555C115.965 82.2555 116.941 83.5473 116.941 84.9651C116.941 87.1233 114.121 87.7692 111.191 87.7849C111.333 89.6754 112.137 91.1404 114.121 91.1404C115.398 91.1404 116.138 90.4 116.579 89.7541L116.626 89.7856C116.532 90.0849 115.839 91.8336 113.224 91.8336ZM110.829 81.7671L110.861 81.7829C111.774 81.7671 112.908 81.263 113.46 80.9007H113.491C114.043 81.263 115.177 81.7671 116.091 81.7829L116.122 81.7671C115.287 81.389 113.932 80.2075 113.491 79.4829H113.46C113.019 80.2075 111.664 81.389 110.829 81.7671ZM111.176 87.4069C113.964 87.3911 115.051 86.1781 115.051 84.5555C115.051 83.563 114.515 82.6336 113.539 82.6336C111.932 82.6336 111.191 84.713 111.176 87.4069ZM114.153 79.4199V79.3726L114.988 78.2069H115.035C115.681 79.1048 116.831 80.3336 117.587 80.6329L117.54 80.6801C116.611 80.5541 114.956 80.0343 114.153 79.4199ZM121.321 91.8021C120.534 91.8021 119.825 91.5658 119.305 91.1089C118.801 90.6521 118.486 89.9747 118.486 89.0767V84.1774C118.486 82.5863 117.603 82.4445 117.509 82.4445V82.413H121.006V88.8719C121.006 89.2658 121.038 89.7856 121.243 90.211C121.447 90.6206 121.81 90.9199 122.361 90.9199C123.48 90.9199 124.283 89.8014 124.283 88.2575V84.1774C124.283 82.5863 123.401 82.4445 123.306 82.4445V82.413H126.803V89.8801C126.803 91.4712 127.686 91.613 127.78 91.613V91.6445H124.283V90.0062C123.905 90.8884 123.054 91.8021 121.321 91.8021ZM133.367 80.8062C133.367 79.2151 132.484 79.0733 132.39 79.0733V79.0418H135.887V84.0514C136.265 83.1692 137.116 82.2555 138.849 82.2555C139.636 82.2555 140.345 82.4918 140.865 82.9486C141.369 83.4055 141.684 84.0829 141.684 84.9808V89.8801C141.684 91.4712 142.567 91.613 142.661 91.613V91.6445H138.187V91.613C138.282 91.613 139.164 91.4712 139.164 89.8801V85.1856C139.164 84.7918 139.132 84.2719 138.928 83.8466C138.723 83.437 138.36 83.1377 137.809 83.1377C136.691 83.1377 135.887 84.2562 135.887 85.8V89.8801C135.887 91.4712 136.769 91.613 136.864 91.613V91.6445H132.39V91.613C132.484 91.613 133.367 91.4712 133.367 89.8801V80.8062ZM147.014 82.9171C145.249 82.9171 144.147 84.3822 144.005 85.2959H143.957C144.099 83.6418 145.438 82.2555 147.912 82.2555C148.762 82.2555 149.975 82.3815 150.794 83.0747C151.299 83.5158 151.645 84.1774 151.645 85.1856V89.8801C151.645 91.4712 152.527 91.613 152.622 91.613V91.6445H149.125V90.211C148.684 90.9514 147.754 91.7391 146.084 91.7391C144.572 91.7391 143.422 91.0144 143.422 89.4706C143.422 87.4226 145.438 86.0521 149.125 85.9575V85.2486C149.125 84.3507 148.904 83.7521 148.51 83.3897C148.148 83.0589 147.628 82.9171 147.014 82.9171ZM145.942 89.4706C145.942 90.2267 146.368 90.9986 147.234 90.9986C148.29 90.9986 149.03 89.9274 149.125 89.6123V86.3356C146.699 86.3671 145.942 88.3206 145.942 89.4706ZM146.257 80.4596V80.4123L147.092 79.2466H147.14C147.786 80.1445 148.936 81.3733 149.692 81.6726L149.644 81.7199C148.715 81.5938 147.061 81.074 146.257 80.4596ZM154.478 84.1774C154.478 82.5863 153.596 82.4445 153.501 82.4445V82.413H156.999V84.0514C157.377 83.1692 158.228 82.2555 159.96 82.2555C160.748 82.2555 161.457 82.4918 161.977 82.9486C162.481 83.4055 162.796 84.0829 162.796 84.9808V89.8801C162.796 91.4712 163.678 91.613 163.773 91.613V91.6445H159.299V91.613C159.393 91.613 160.275 91.4712 160.275 89.8801V85.1856C160.275 84.7918 160.244 84.2719 160.039 83.8466C159.834 83.437 159.472 83.1377 158.921 83.1377C157.802 83.1377 156.999 84.2562 156.999 85.8V89.8801C156.999 91.4712 157.881 91.613 157.975 91.613V91.6445H153.501V91.613C153.596 91.613 154.478 91.4712 154.478 89.8801V84.1774ZM165.443 80.8062C165.443 79.2151 164.561 79.0733 164.466 79.0733V79.0418H167.963V84.0514C168.341 83.1692 169.192 82.2555 170.925 82.2555C171.713 82.2555 172.421 82.4918 172.941 82.9486C173.445 83.4055 173.761 84.0829 173.761 84.9808V89.8801C173.761 91.4712 174.643 91.613 174.737 91.613V91.6445H170.263V91.613C170.358 91.613 171.24 91.4712 171.24 89.8801V85.1856C171.24 84.7918 171.208 84.2719 171.004 83.8466C170.799 83.437 170.437 83.1377 169.885 83.1377C168.767 83.1377 167.963 84.2562 167.963 85.8V89.8801C167.963 91.4712 168.845 91.613 168.94 91.613V91.6445H164.466V91.613C164.561 91.613 165.443 91.4712 165.443 89.8801V80.8062Z" fill="#B5346D"/>
<g clip-path="url(#clip0_569_5302)">
<g clip-path="url(#clip1_569_5302)">
<path d="M213.643 207.079C213.643 212.117 213.267 217.067 212.538 221.9C212.54 221.903 212.538 221.905 212.538 221.907C212.538 221.912 212.535 221.924 212.533 221.941C212.376 222.991 212.2 224.037 212.007 225.075C208.85 242.254 201.249 257.876 190.442 270.71C188.718 272.76 186.91 274.74 185.021 276.643C169.721 292.093 149.36 302.519 126.629 305.229C122.748 305.694 118.797 305.932 114.79 305.932C60.1949 305.932 15.9375 261.675 15.9375 207.079C15.9375 152.484 60.1949 108.227 114.79 108.227C169.386 108.227 213.643 152.484 213.643 207.079Z" fill="#B5346D"/>
<path d="M181.888 213.661C181.806 213.661 181.725 213.654 181.644 213.639C181.14 213.548 180.721 213.18 180.463 212.604C180.211 212.042 180.142 211.345 180.27 210.642C180.398 209.938 180.707 209.31 181.14 208.872C181.584 208.424 182.106 208.227 182.61 208.319C183.634 208.505 184.251 209.849 183.985 211.316C183.857 212.02 183.548 212.648 183.114 213.086C182.742 213.462 182.314 213.661 181.888 213.661ZM182.368 208.513C182 208.513 181.625 208.69 181.294 209.024C180.891 209.431 180.603 210.019 180.483 210.68C180.363 211.341 180.426 211.993 180.66 212.516C180.888 213.025 181.251 213.348 181.683 213.427C182.114 213.505 182.568 213.33 182.961 212.934C183.364 212.527 183.652 211.939 183.772 211.278C184.017 209.928 183.479 208.696 182.572 208.532C182.504 208.519 182.436 208.513 182.368 208.513Z" fill="#363E44"/>
<path d="M182.793 210.631C183.513 206.647 184.283 204.389 186.318 202.991C189.053 201.111 192.511 202.289 192.87 202.418C193.1 202.499 196.43 203.468 197.507 206.788C198.57 210.067 197.86 213.794 195.51 216.273L196.752 223.786C197.15 226.198 195.518 228.476 193.106 228.875L192.56 228.965C190.148 229.364 187.87 227.732 187.471 225.32L186.641 220.301C185.09 220.426 183.806 220.183 183.193 219.488C182.095 218.244 181.946 215.321 182.793 210.631Z" fill="white"/>
<path d="M187.758 211.309C187.756 211.309 187.755 211.309 187.753 211.309L180.428 210.954C180.368 210.951 180.322 210.901 180.325 210.841C180.328 210.781 180.38 210.735 180.439 210.738L187.763 211.093C187.823 211.096 187.869 211.147 187.866 211.207C187.863 211.264 187.815 211.309 187.758 211.309Z" fill="#363E44"/>
<path d="M186.552 220.302C186.499 220.302 186.453 220.262 186.445 220.208L186.19 218.363C186.182 218.304 186.224 218.249 186.283 218.241C186.342 218.233 186.397 218.274 186.405 218.334L186.659 220.179C186.668 220.238 186.626 220.293 186.567 220.301C186.562 220.301 186.557 220.302 186.552 220.302Z" fill="#363E44"/>
<path d="M188.588 214.02C188.568 214.02 188.548 214.014 188.53 214.002C188.48 213.97 188.465 213.903 188.498 213.853C188.836 213.333 189.044 212.999 189.195 212.755C189.271 212.634 189.332 212.534 189.39 212.444C189.422 212.394 189.489 212.379 189.539 212.412C189.59 212.444 189.604 212.511 189.572 212.561C189.515 212.65 189.454 212.749 189.379 212.869C189.227 213.114 189.019 213.449 188.679 213.971C188.658 214.003 188.624 214.02 188.588 214.02Z" fill="#363E44"/>
<path d="M185.276 202.854C187.407 199.924 194.111 200.301 197.158 203.195C201.28 207.109 200.724 214.164 197.221 217.115C196.046 218.105 194.027 219.414 191.541 218.722C190.089 218.319 190.027 216.29 190.022 215.8C191.242 215.362 191.965 214.121 191.749 212.909C191.531 211.688 190.418 210.813 189.297 210.808C188.553 210.806 188.004 211.186 187.784 211.359C185.077 208.171 183.758 204.943 185.276 202.854Z" fill="#363E44"/>
<path d="M212.539 221.9C212.539 221.9 212.539 221.902 212.537 221.907C212.537 221.912 212.535 221.923 212.532 221.94C212.47 222.233 212.103 224.039 212.006 225.075C208.849 242.254 201.248 257.875 190.441 270.709L178.62 272.984L176.478 256.813L167.984 257.882L162.937 236.482C162.937 236.482 182.71 225.994 196.458 223.138C201.658 222.057 207.497 221.759 212.537 221.9H212.539Z" fill="#917AFF"/>
<path d="M197.158 203.195C197.158 203.195 195.964 214.172 190.022 215.8L186.553 229.266C186.553 229.266 187.411 229.43 188.813 229.54C189.518 226.598 190.546 222.651 190.546 222.651V229.627C193.33 229.691 197.188 229.415 200.865 227.924C201.085 226.015 201.201 223.801 200.95 221.823C200.549 218.677 202.492 222.569 203.394 226.671C206.991 224.521 210.09 220.891 211.353 214.849L197.158 203.195Z" fill="#363E44"/>
<path d="M143.533 163.436H55.5684V238.063H143.533V163.436Z" fill="#FFDCEB"/>
<path d="M71.2178 238.064C71.2178 238.064 83.0023 202.019 87.0956 184.855C87.0956 184.855 104.032 178.812 122.297 182.702C122.297 182.702 128.252 214.054 125.135 238.064H103.509L106.255 197.086L98.0356 238.064H71.2178Z" fill="#363E44"/>
<path d="M105.745 128.303H99.583V140.908H105.745V128.303Z" fill="white"/>
<path d="M105.741 131.271C108.561 128.451 108.561 123.878 105.741 121.057C102.92 118.237 98.3474 118.237 95.5269 121.057C92.7064 123.878 92.7064 128.451 95.527 131.271C98.3475 134.092 102.92 134.092 105.741 131.271Z" fill="#363E44"/>
<path d="M108.985 132.754C107.818 134.325 102.579 132.792 102.579 132.792L98.4592 128.458C97.6083 125.839 99.0416 123.026 101.66 122.175C104.279 121.324 107.092 122.757 107.943 125.376C107.943 125.376 110.174 131.154 108.985 132.754Z" fill="white"/>
<path d="M107.803 126.799C107.803 126.799 109.586 127.76 109.634 128.151C109.692 128.618 108.298 129.367 108.298 129.367C108.298 129.367 107.839 126.791 107.803 126.799Z" fill="white"/>
<path d="M106.778 133.651C104.908 133.651 102.684 133.007 102.576 132.975C102.519 132.959 102.486 132.899 102.502 132.841C102.519 132.784 102.579 132.751 102.636 132.768C102.667 132.777 105.682 133.65 107.601 133.383C107.66 133.375 107.714 133.416 107.722 133.475C107.731 133.535 107.689 133.589 107.63 133.597C107.362 133.635 107.074 133.651 106.778 133.651Z" fill="#363E44"/>
<path d="M102.88 127.808C102.88 127.808 103.598 127.058 104.647 126.717C104.87 126.644 105.029 128.567 104.784 128.534C103.709 128.393 102.88 127.808 102.88 127.808Z" fill="white"/>
<mask id="mask0_569_5302" style="mask-type:luminance" maskUnits="userSpaceOnUse" x="102" y="126" width="7" height="3">
<path d="M102.88 127.805C102.88 127.805 103.936 126.701 105.357 126.564C106.779 126.426 108.027 127.306 108.027 127.306C108.027 127.306 106.971 128.41 105.55 128.548C104.128 128.686 102.88 127.805 102.88 127.805Z" fill="white"/>
</mask>
<g mask="url(#mask0_569_5302)">
<path d="M104.676 126.655C105.144 125.736 106.269 125.37 107.188 125.839C108.107 126.307 108.472 127.432 108.004 128.351C107.536 129.27 106.411 129.635 105.492 129.167C104.573 128.699 104.207 127.574 104.676 126.655Z" fill="#363E44"/>
</g>
<path d="M106.953 130.786C106.879 130.786 106.803 130.777 106.729 130.757C106.41 130.671 106.163 130.406 106.098 130.08C106.086 130.022 106.124 129.965 106.183 129.953C106.242 129.942 106.298 129.98 106.31 130.038C106.359 130.284 106.545 130.484 106.785 130.548C107.034 130.615 107.302 130.528 107.466 130.327C107.504 130.281 107.572 130.274 107.618 130.311C107.664 130.349 107.671 130.417 107.633 130.463C107.464 130.671 107.212 130.786 106.953 130.786Z" fill="#363E44"/>
<path d="M97.7101 130.078C97.7101 130.078 99.0248 128.98 101.106 130.075L101.938 129.192C101.938 129.192 99.2554 122.93 107.152 123.169C107.152 123.169 102.966 118.538 98.8812 122.065C94.7967 125.592 97.7101 130.078 97.7101 130.078Z" fill="#363E44"/>
<path d="M98.0182 131.231C98.5958 132.068 99.6538 132.339 100.381 131.837C101.109 131.334 101.23 130.249 100.653 129.412C100.075 128.576 99.0169 128.305 98.2895 128.807C97.5619 129.309 97.4405 130.395 98.0182 131.231Z" fill="white"/>
<path d="M98.3626 130.347C98.3064 130.347 98.259 130.304 98.255 130.247C98.2282 129.873 98.3805 129.533 98.6624 129.339C99.1274 129.018 99.8008 129.186 100.164 129.712C100.198 129.762 100.186 129.829 100.137 129.863C100.088 129.897 100.02 129.884 99.9865 129.835C99.6907 129.407 99.1516 129.263 98.7851 129.517C98.5668 129.667 98.4491 129.935 98.4703 130.231C98.4746 130.291 98.4298 130.343 98.3703 130.347C98.3678 130.347 98.3652 130.347 98.3626 130.347Z" fill="#363E44"/>
<path d="M100.248 134.49C99.5757 134.49 98.9493 134.061 98.7305 133.388C98.4588 132.552 98.9181 131.651 99.7542 131.379C100.59 131.107 101.492 131.567 101.763 132.403C102.035 133.239 101.576 134.14 100.739 134.412C100.576 134.464 100.411 134.49 100.248 134.49ZM98.936 133.321C99.1708 134.044 99.9497 134.441 100.673 134.206C101.395 133.971 101.792 133.192 101.558 132.469C101.323 131.747 100.543 131.35 99.8207 131.584C99.0981 131.819 98.7011 132.598 98.936 133.321Z" fill="#4424DD"/>
<path d="M102.328 122.408C102.328 122.408 99.7604 110.081 95.9252 111.327C92.0901 112.572 99.5398 123.621 102.328 122.408Z" fill="#363E44"/>
<path d="M99.8131 123.539C99.8131 123.539 94.3112 109.025 89.6463 111.281C84.9814 113.538 96.4774 125.553 99.8131 123.539Z" fill="#363E44"/>
<path d="M98.7336 123.519C98.7336 123.519 86.3665 110.323 82.5953 114.719C78.8241 119.114 96.2216 127.091 98.7336 123.519Z" fill="#363E44"/>
<path d="M96.5194 125.274C96.5194 125.274 85.4571 116.674 82.9224 120.605C80.3878 124.537 94.8953 128.394 96.5194 125.274Z" fill="#363E44"/>
<path d="M89.502 125.924C86.953 125.924 84.5235 125.447 83.4606 124.419C82.921 123.897 82.7494 123.272 82.9508 122.561C83.1322 121.92 83.5545 121.429 84.2058 121.102C87.7603 119.318 97.0664 122.828 97.4608 122.979L97.5448 123.011L97.5285 123.099C97.3721 123.944 96.424 124.666 94.7873 125.19C93.2848 125.67 91.3616 125.924 89.502 125.924ZM86.9081 120.819C85.886 120.819 84.9796 120.956 84.3027 121.296C83.7078 121.594 83.323 122.04 83.1587 122.62C82.9807 123.248 83.1328 123.801 83.6109 124.264C85.3991 125.993 91.2148 126.105 94.7216 124.984C96.1957 124.513 97.104 123.863 97.2962 123.148C96.5238 122.862 90.8561 120.819 86.9081 120.819Z" fill="#363E44"/>
<path d="M97.6282 122.725C96.8996 122.725 95.9919 122.281 94.963 121.414C92.1031 119.004 89.0613 113.916 89.5883 111.414C89.743 110.679 90.1809 110.201 90.8901 109.993C91.5293 109.806 92.1693 109.902 92.7926 110.28C96.1952 112.339 98.1749 122.087 98.2575 122.501L98.2751 122.589L98.1915 122.622C98.0183 122.691 97.83 122.725 97.6282 122.725ZM91.5216 110.117C91.3312 110.117 91.1409 110.145 90.9508 110.201C90.324 110.384 89.9367 110.808 89.7997 111.458C89.2871 113.892 92.2868 118.876 95.1022 121.249C96.2856 122.246 97.319 122.669 98.0266 122.451C97.8136 121.437 95.8311 112.372 92.6807 110.465C92.2984 110.233 91.9103 110.117 91.5216 110.117Z" fill="#363E44"/>
<path d="M101.018 120.895C101.018 120.895 99.053 115.125 101.927 115.33C104.801 115.534 101.018 120.895 101.018 120.895Z" fill="#363E44"/>
<path d="M94.5877 125.242C94.5877 125.242 86.7534 123.497 87.6334 127.56C88.5133 131.624 94.5877 125.242 94.5877 125.242Z" fill="#363E44"/>
<path d="M84.7246 182.049L81.2256 200.802C81.2256 200.802 100.291 199.126 105.951 182.647L84.7246 182.049Z" fill="white"/>
<path d="M102.973 181.337C103.19 182.561 112.533 196.468 126.545 198.212L122.649 179.463L102.973 181.337Z" fill="white"/>
<path d="M81.6956 139.769L75.1953 185.779C75.1953 185.779 104.93 190.445 127.907 183.282L126.165 148.065C125.885 145.216 123.727 142.912 120.903 142.444C114.21 141.337 99.1216 139.033 81.6956 139.769Z" fill="#4424DD"/>
<path d="M154.076 150.311L146.092 145.358C144.653 144.465 142.814 144.628 141.522 145.721C133.074 152.873 122.883 143.123 122.883 143.123L117.918 144.409L124.803 168.51C145.242 178.674 153.469 163.316 156.048 155.846C156.765 153.768 155.944 151.47 154.076 150.311Z" fill="#4424DD"/>
<path d="M81.0163 181.336C81.0163 181.336 57.8985 187.572 61.2887 166.736C63.8763 150.832 72.9985 144.337 77.1592 141.221C79.2944 139.622 81.6955 139.769 81.6955 139.769L81.0163 181.336Z" fill="#4424DD"/>
<path d="M79.9774 163.396C79.971 163.396 79.9646 163.395 79.9581 163.394C79.8994 163.384 79.8604 163.327 79.8708 163.269L81.8361 152.323C81.8467 152.265 81.903 152.226 81.9616 152.236C82.0203 152.247 82.0593 152.303 82.0488 152.362L80.0836 163.307C80.0742 163.359 80.0286 163.396 79.9774 163.396Z" fill="#363E44"/>
<path d="M126.037 168.014C125.986 168.014 125.941 167.978 125.931 167.927L124.757 161.969C124.745 161.91 124.783 161.853 124.842 161.842C124.901 161.83 124.957 161.868 124.969 161.927L126.143 167.885C126.154 167.944 126.116 168.001 126.058 168.012C126.051 168.013 126.044 168.014 126.037 168.014Z" fill="#363E44"/>
<path d="M168.422 133.377C168.246 132.934 167.723 132.947 166.179 133.95C167.876 132.023 168.555 130.635 168.079 129.962C167.777 129.535 166.675 129.968 165.449 131.473C166.461 130.23 168.031 128.098 167.271 127.368C166.58 126.774 165.052 128.409 163.98 129.662L163.979 129.662C165.185 127.874 165.415 126.829 164.906 126.497C164.175 126.02 162.889 128.428 159.616 129.412C156.731 130.28 154.7 129.384 152.74 131.103C152.212 131.567 151.917 132.021 151.749 132.277C150.545 134.112 147.5 139.132 143.025 146.269C144.033 148.394 145.924 149.905 147.981 151.144C149.246 151.906 150.581 152.586 151.989 153.042C152.605 153.241 153.265 153.411 153.926 153.467C156.062 149.061 158.428 144.772 161.334 138.982C161.334 138.982 161.334 138.982 161.335 138.981C162.443 138.718 164.189 138.259 165.845 136.927C167.316 135.743 168.742 134.186 168.422 133.377Z" fill="white"/>
<path d="M157.155 130.826C158.79 127.865 158.752 126.45 158.275 126.206C157.471 125.795 155.041 127.752 152.106 131.779C153.537 131.639 155.725 130.965 157.155 130.826Z" fill="white"/>
<path d="M156.517 136.532C156.499 136.532 156.482 136.528 156.465 136.519C156.413 136.49 156.394 136.424 156.423 136.372C156.719 135.833 157.276 135.083 158.243 134.573C159.611 133.853 160.95 134.082 161.462 134.215C161.519 134.229 161.554 134.288 161.539 134.346C161.524 134.404 161.465 134.439 161.408 134.424C160.92 134.298 159.645 134.079 158.344 134.765C157.424 135.249 156.894 135.963 156.612 136.476C156.592 136.512 156.555 136.532 156.517 136.532Z" fill="#363E44"/>
<path d="M154.285 130.446C154.239 130.446 154.196 130.416 154.182 130.37C154.164 130.313 154.195 130.253 154.252 130.235C154.969 130.008 155.723 129.957 156.521 129.903C156.893 129.878 157.278 129.852 157.679 129.807C157.738 129.801 157.792 129.844 157.798 129.903C157.805 129.962 157.762 130.015 157.703 130.022C157.297 130.067 156.91 130.093 156.536 130.118C155.751 130.171 155.01 130.221 154.317 130.441C154.307 130.444 154.295 130.446 154.285 130.446Z" fill="#363E44"/>
<path d="M161.338 131.351C161.294 131.351 161.252 131.323 161.236 131.278C161.217 131.222 161.247 131.16 161.303 131.141C161.686 131.009 162.058 130.84 162.409 130.641C162.918 130.351 163.388 129.993 163.806 129.576C163.848 129.534 163.916 129.534 163.958 129.577C164.001 129.619 164.001 129.687 163.958 129.729C163.527 130.16 163.042 130.529 162.516 130.828C162.154 131.035 161.769 131.208 161.374 131.345C161.362 131.349 161.35 131.351 161.338 131.351Z" fill="#363E44"/>
<path d="M162.959 132.962C162.914 132.962 162.872 132.934 162.857 132.889C162.837 132.833 162.867 132.772 162.923 132.752C163.306 132.62 163.678 132.452 164.029 132.252C164.539 131.962 165.008 131.604 165.426 131.188C165.468 131.146 165.536 131.146 165.578 131.188C165.621 131.23 165.621 131.299 165.578 131.341C165.147 131.771 164.662 132.14 164.136 132.44C163.774 132.646 163.389 132.82 162.994 132.956C162.982 132.96 162.97 132.962 162.959 132.962Z" fill="#363E44"/>
<path d="M163.589 135.669C163.545 135.669 163.503 135.641 163.487 135.596C163.468 135.54 163.498 135.479 163.554 135.459C163.937 135.327 164.309 135.159 164.66 134.959C165.17 134.669 165.639 134.311 166.057 133.895C166.099 133.853 166.167 133.853 166.209 133.895C166.252 133.937 166.252 134.006 166.209 134.048C165.778 134.478 165.293 134.847 164.767 135.147C164.404 135.353 164.02 135.527 163.625 135.663C163.613 135.667 163.601 135.669 163.589 135.669Z" fill="#363E44"/>
<path d="M140.561 147.3L144.903 142.791L156.516 149.109L154.285 154.958C154.285 154.958 148.136 155.884 145.021 149.642C145.021 149.642 141.171 148.964 140.561 147.3Z" fill="white"/>
<path d="M90.2702 177.16C90.2582 177.16 90.2458 177.158 90.2338 177.154C90.1778 177.134 90.1484 177.072 90.1684 177.016L98.6121 153.309H117.143C117.203 153.309 117.251 153.357 117.251 153.417C117.251 153.476 117.203 153.525 117.143 153.525H98.7645L90.3719 177.088C90.3561 177.133 90.3146 177.16 90.2702 177.16Z" fill="#B5346D"/>
<path d="M109.613 178.196H91.1582L99.5764 154.561H118.031L109.613 178.196Z" fill="#B5346D"/>
<path d="M95.9277 140.907L99.2171 137.902L102.67 139.785L101.683 147.184L95.9277 140.907Z" fill="white"/>
<path d="M109.426 140.907L106.203 137.902L102.476 139.881L103.671 146.986L109.426 140.907Z" fill="white"/>
<path d="M103.882 169.255C103.829 167.133 89.2516 165.919 86.5312 165.763C85.903 165.728 82.7648 165.659 78.8937 165.559C78.8822 165.574 78.8705 165.59 78.8591 165.606C78.4363 166.173 78.0135 166.73 77.6632 167.347C76.3375 169.683 75.9945 172.285 75.7948 174.92C75.696 176.224 75.6311 177.556 75.6839 178.879C85.1329 179.056 95.7635 179.112 97.2066 179.193C98.5524 179.315 101.654 179.607 101.805 178.646C102.011 177.337 98.753 176.544 98.6665 176.392C99.6743 176.532 103.055 176.844 103.274 175.756C103.443 174.92 100.201 173.612 99.4013 173.251C99.4716 173.229 103.332 174.278 103.646 172.979C103.914 171.874 100.88 170.529 100.137 170.099C101.088 170.162 103.907 170.269 103.882 169.255Z" fill="white"/>
<path d="M100.176 170.108C100.161 170.108 100.147 170.105 100.133 170.099C99.6135 169.875 99.0743 169.686 98.5304 169.536C97.5532 169.268 96.5396 169.12 95.5178 169.097C95.4581 169.096 95.4109 169.046 95.4121 168.987C95.4135 168.928 95.4616 168.881 95.5202 168.881C95.5209 168.881 95.5218 168.881 95.5225 168.881C96.5621 168.904 97.5933 169.054 98.5876 169.328C99.1411 169.48 99.6897 169.673 100.218 169.9C100.273 169.924 100.298 169.987 100.275 170.042C100.257 170.083 100.217 170.108 100.176 170.108Z" fill="#363E44"/>
<path d="M99.4588 173.291C99.4484 173.291 99.4377 173.289 99.4271 173.286C99.3137 173.251 99.1977 173.217 99.0793 173.185C98.1021 172.916 97.0885 172.768 96.0666 172.745C96.007 172.744 95.9598 172.695 95.961 172.635C95.9624 172.576 96.0104 172.529 96.069 172.529C96.0698 172.529 96.0706 172.529 96.0714 172.529C97.111 172.552 98.1422 172.703 99.1366 172.976C99.257 173.01 99.375 173.044 99.4904 173.079C99.5473 173.097 99.5794 173.157 99.5619 173.214C99.5479 173.261 99.5051 173.291 99.4588 173.291Z" fill="#363E44"/>
<path d="M98.6023 176.467C98.5957 176.467 98.5892 176.466 98.5825 176.465C97.9312 176.344 97.2628 176.276 96.5959 176.261C96.5363 176.26 96.4891 176.21 96.4903 176.15C96.4917 176.091 96.536 176.044 96.6007 176.045C97.279 176.06 97.959 176.13 98.6216 176.252C98.6803 176.263 98.719 176.32 98.7082 176.378C98.6987 176.43 98.6532 176.467 98.6023 176.467Z" fill="#363E44"/>
<path d="M73.2793 164.146C73.4589 163.826 81.4228 165.205 81.4228 165.205C81.4228 165.205 79.0088 174.349 78.6868 179.855H71.8804C71.8804 179.855 69.328 173.622 73.7241 167.807C73.7241 167.807 72.3424 165.816 73.2793 164.146Z" fill="white"/>
<path d="M185.022 276.644C169.723 292.093 149.362 302.519 126.63 305.23C126.621 305.228 126.611 305.228 126.602 305.225C129.472 301.028 132.44 296.895 135.46 292.806C136.489 291.412 137.525 290.023 138.564 288.637C139.479 287.42 140.384 286.215 141.458 285.133C143.385 283.197 145.638 281.613 148.018 280.288C152.834 277.611 158.153 275.948 163.468 274.586C168.539 273.288 173.946 272.761 179.07 274.09C181.202 274.645 183.191 275.519 185.022 276.644Z" fill="white"/>
<path d="M151.946 221.695C153.765 217.975 155.153 215.967 157.546 215.158C160.762 214.07 163.839 216.194 164.156 216.421C164.359 216.565 167.368 218.448 167.501 222.017C167.634 225.541 165.895 229.012 162.89 230.796L162.017 238.538C161.737 241.024 159.495 242.812 157.01 242.531L156.447 242.468C153.961 242.188 152.174 239.946 152.454 237.46L153.037 232.289C151.475 231.979 150.279 231.381 149.869 230.526C149.135 228.995 149.803 226.077 151.946 221.695Z" fill="white"/>
<path d="M152.979 232.268C152.974 232.268 152.969 232.268 152.964 232.267C152.905 232.259 152.864 232.204 152.872 232.145L153.136 230.257C153.144 230.198 153.198 230.157 153.258 230.165C153.317 230.173 153.358 230.228 153.35 230.287L153.086 232.175C153.079 232.229 153.032 232.268 152.979 232.268Z" fill="#363E44"/>
<path d="M156.199 226.896C156.169 226.896 156.139 226.883 156.117 226.858C156.078 226.814 156.083 226.745 156.128 226.706C156.368 226.496 156.581 226.304 156.807 226.099C156.992 225.931 157.183 225.759 157.399 225.568C157.443 225.529 157.512 225.533 157.551 225.578C157.591 225.622 157.587 225.691 157.542 225.73C157.327 225.92 157.137 226.092 156.952 226.259C156.725 226.464 156.512 226.658 156.27 226.869C156.249 226.887 156.224 226.896 156.199 226.896Z" fill="#363E44"/>
<path d="M172.147 224.261C172.823 222.298 171.78 220.158 169.816 219.482C169.813 219.481 169.81 219.481 169.807 219.48C170.12 219.152 170.371 218.757 170.528 218.301C171.11 216.61 170.211 214.768 168.521 214.186C168.167 214.064 167.808 214.011 167.455 214.012C167.917 212.372 167.027 210.637 165.396 210.075C164.474 209.758 163.509 209.883 162.726 210.334C162.432 209.129 161.551 208.093 160.291 207.66C158.385 207.003 156.313 207.964 155.569 209.812C155.481 209.773 155.391 209.736 155.298 209.704C153.608 209.121 151.765 210.02 151.183 211.71C150.601 213.401 151.499 215.243 153.19 215.826C153.239 215.842 153.288 215.854 153.337 215.868C152.543 218.929 155.589 220.35 155.762 220.46C154.942 221.708 154.123 222.957 153.303 224.205C153.776 224.529 154.329 224.952 154.801 225.277C155.589 223.941 156.343 223.573 157.193 223.701C158.532 223.903 159.324 225.456 159.025 226.733C158.752 227.899 157.949 228.945 156.658 229.215C157.928 229.675 159.27 230.118 160.684 230.534C161.421 230.751 162.145 230.951 162.856 231.136C163.37 231.001 166.699 230.071 168.403 226.791C170.033 226.874 171.589 225.881 172.147 224.261Z" fill="black"/>
<path d="M195.911 275.964C179.944 279.517 170.488 281.769 166.977 282.505C166.609 282.582 165.961 282.721 165.101 282.667C161.915 282.465 160.927 279.932 157.673 278.191C153.981 276.215 150.784 277.193 150.562 276.147C150.408 275.42 151.51 274.711 154.101 274.202C154.102 274.202 154.102 274.202 154.101 274.202C152.088 274.362 149.348 274.46 149.263 273.347C149.233 272.057 152.439 271.564 154.393 271.36C152.028 271.606 150.696 271.03 150.803 270.398C150.972 269.402 152.761 268.784 155.899 268.58L155.9 268.58C153.693 268.115 153.227 267.674 153.458 267.138C153.88 266.16 156.463 266.04 158.762 266.284C161.352 266.56 163.264 267.671 164.453 268.401C164.454 268.401 164.454 268.401 164.454 268.401C175.379 264.753 182.621 262.407 191.384 259.281C193.177 258.641 195.912 275.964 195.911 275.964Z" fill="white"/>
<path d="M184.381 242.562C198.905 259.433 203.405 272.216 196.848 275.667C193.132 277.622 182.077 269.8 171.626 255.584C176.161 251.441 178.77 247.433 184.381 242.562Z" fill="white"/>
<path d="M130.573 244.34C112.434 248.197 98.1896 252.106 99.7452 257.926C103.038 270.245 116.722 263.913 128.886 263.805C129.343 258.81 130.149 250.396 130.573 244.34Z" fill="white"/>
<path d="M115.274 255.864C115.274 255.864 119.854 243.545 121.821 236.843C123.887 229.805 125.912 219.113 124.413 218.849C123.559 218.698 122.981 220.099 121.686 223.947C121.557 223.687 121.04 223.007 120.225 222.998C119.019 222.984 118.671 223.944 118.606 224.017C118.569 223.926 118.148 222.948 117.342 222.802C116.434 222.638 115.753 223.057 115.353 223.66C115.255 223.435 114.809 222.643 114.031 222.525C113.23 222.404 112.306 222.859 112.08 223.674C111.665 225.167 110.518 229.631 109.696 231.735C108.076 235.875 100.352 249.807 99.5928 256.409C105.203 255.137 115.274 255.864 115.274 255.864Z" fill="white"/>
<path d="M113.731 225.828C113.726 225.828 113.721 225.828 113.716 225.827L112.419 225.639C112.36 225.63 112.319 225.575 112.327 225.516C112.336 225.457 112.389 225.416 112.45 225.425L113.747 225.614C113.806 225.622 113.847 225.677 113.838 225.736C113.83 225.79 113.784 225.828 113.731 225.828Z" fill="#363E44"/>
<path d="M117.027 226.318C117.023 226.318 117.019 226.318 117.015 226.318L115.542 226.151C115.483 226.144 115.44 226.091 115.447 226.031C115.454 225.972 115.506 225.929 115.566 225.936L117.039 226.103C117.098 226.11 117.141 226.163 117.134 226.222C117.128 226.278 117.081 226.318 117.027 226.318Z" fill="#363E44"/>
<path d="M120.225 226.656C120.22 226.656 120.215 226.656 120.209 226.655C119.968 226.62 119.751 226.59 119.533 226.559C119.313 226.529 119.094 226.499 118.851 226.463C118.792 226.454 118.751 226.399 118.76 226.341C118.768 226.282 118.824 226.24 118.882 226.249C119.125 226.285 119.344 226.315 119.562 226.345C119.781 226.376 119.999 226.406 120.24 226.441C120.3 226.45 120.34 226.505 120.332 226.564C120.324 226.617 120.278 226.656 120.225 226.656Z" fill="#363E44"/>
<path d="M122.835 227.265C122.828 227.265 122.82 227.265 122.812 227.263L121.542 226.981C121.483 226.968 121.447 226.911 121.46 226.852C121.472 226.794 121.53 226.757 121.588 226.77L122.859 227.052C122.917 227.065 122.954 227.122 122.941 227.181C122.93 227.231 122.885 227.265 122.835 227.265Z" fill="#363E44"/>
<path d="M190.637 246.268C188.684 242.595 185.372 239.822 181.401 238.584C176.344 237.007 168.666 235.481 159.471 236.458C142.323 238.279 122.907 244.342 122.907 244.342V269.422L135.409 266.816L138.143 287.302L189.272 278.596L187.089 264.161L195.912 256.191L190.637 246.268Z" fill="#1A0094"/>
<path d="M98.0421 304.499H58.4658V289.576L98.0421 296.722V304.499Z" fill="#363E44"/>
<path d="M97.8899 297.592C99.4855 292.672 89.4968 285.025 75.5794 280.511C61.6621 275.997 49.0863 276.326 47.4907 281.246C45.8951 286.166 55.8838 293.813 69.8012 298.327C83.7185 302.841 96.2943 302.512 97.8899 297.592Z" fill="#363E44"/>
<path d="M111.055 268.757H59.5397C59.4799 268.757 59.4316 268.709 59.4316 268.649C59.4316 268.589 59.4799 268.541 59.5397 268.541H111.055C111.115 268.541 111.163 268.589 111.163 268.649C111.163 268.709 111.115 268.757 111.055 268.757Z" fill="#363E44"/>
<path d="M69.1605 218.134C68.0699 218.134 66.8581 217.219 66.2009 215.789C65.388 214.018 65.7279 212.118 66.9588 211.553C67.5618 211.276 68.2823 211.355 68.9869 211.777C69.6785 212.191 70.2745 212.887 70.6654 213.738C71.0561 214.589 71.196 215.495 71.0594 216.289C70.9201 217.098 70.5111 217.696 69.9077 217.973C69.6716 218.082 69.4193 218.134 69.1605 218.134ZM67.7133 211.607C67.4797 211.607 67.256 211.654 67.0489 211.75C65.9264 212.265 65.634 214.037 66.3974 215.699C67.1607 217.36 68.6947 218.293 69.8176 217.777C70.3542 217.531 70.7197 216.989 70.8464 216.253C70.9759 215.501 70.8418 214.64 70.469 213.828C70.0962 213.017 69.5306 212.354 68.876 211.963C68.482 211.727 68.0852 211.607 67.7133 211.607Z" fill="#363E44"/>
<path d="M67.4678 214.536C65.2432 209.681 63.5184 207.047 60.4595 205.926C56.3484 204.42 52.3139 207.059 51.8969 207.341C51.6307 207.52 47.6915 209.85 47.4032 214.446C47.1187 218.985 49.2477 223.516 53.0636 225.914L53.9378 235.923C54.2185 239.136 57.0508 241.514 60.2641 241.233L60.992 241.17C64.2053 240.889 66.5826 238.057 66.302 234.843L65.7181 228.157C67.7416 227.808 69.3027 227.077 69.8589 225.988C70.855 224.037 70.0877 220.254 67.4678 214.536Z" fill="white"/>
<path d="M61.3082 217C61.262 217 61.2193 216.97 61.205 216.923C61.1874 216.866 61.2194 216.806 61.2763 216.788L70.5217 213.935C70.5789 213.917 70.6394 213.949 70.6568 214.006C70.6744 214.063 70.6424 214.123 70.5855 214.141L61.3401 216.995C61.3294 216.998 61.3187 217 61.3082 217Z" fill="#363E44"/>
<path d="M65.7948 228.098C65.7406 228.098 65.6938 228.057 65.6877 228.002L65.4089 225.56C65.4021 225.5 65.4447 225.447 65.504 225.44C65.5632 225.433 65.6169 225.476 65.6236 225.535L65.9023 227.977C65.9092 228.037 65.8666 228.09 65.8072 228.097C65.803 228.097 65.7989 228.098 65.7948 228.098Z" fill="#363E44"/>
<path d="M61.1362 220.737C61.11 220.737 61.0839 220.727 61.0631 220.708C60.4577 220.153 60.0815 219.792 59.8068 219.528C59.6726 219.4 59.5621 219.294 59.4602 219.199C59.4166 219.158 59.4141 219.09 59.4547 219.046C59.4955 219.002 59.5638 219 59.6075 219.041C59.71 219.136 59.8213 219.243 59.9564 219.372C60.2303 219.635 60.6056 219.995 61.2092 220.549C61.2532 220.589 61.2561 220.658 61.2157 220.702C61.1945 220.725 61.1654 220.737 61.1362 220.737Z" fill="#363E44"/>
<path d="M61.7464 205.411C58.063 202.363 49.6181 205.041 46.6711 209.739C42.6859 216.092 45.7083 224.927 51.1516 227.552C52.9777 228.432 55.9876 229.443 58.9388 227.745C60.6621 226.753 60.0759 224.139 59.9224 223.512C58.2195 223.352 56.889 222.002 56.7678 220.382C56.6458 218.75 57.7822 217.267 59.2135 216.894C60.1629 216.647 60.9895 216.954 61.3271 217.103C63.7425 212.141 64.3711 207.582 61.7464 205.411Z" fill="#363E44"/>
<path d="M28.3213 264.897C41.5896 270.938 50.1125 275.12 53.0378 276.409C53.3441 276.544 53.8837 276.784 54.6428 276.893C57.4551 277.297 58.7724 275.246 61.9211 274.306C65.4938 273.24 68.1027 274.684 68.4846 273.803C68.7502 273.191 67.9179 272.366 65.7521 271.445C65.7519 271.445 65.752 271.445 65.7522 271.445C67.4771 271.953 69.8464 272.539 70.1214 271.575C70.3802 270.444 67.6767 269.425 66.0114 268.889C68.027 269.538 69.2907 269.273 69.3116 268.696C69.3443 267.789 67.8971 266.918 65.2003 266.166V266.166C67.206 266.159 67.6916 265.855 67.5871 265.341C67.3963 264.403 65.1676 263.826 63.1202 263.622C60.8152 263.392 58.9486 264.022 57.781 264.448C57.7807 264.448 57.7804 264.448 57.7801 264.448C48.9211 259.243 43.0364 255.856 35.9663 251.505C34.5198 250.615 28.3209 264.897 28.3213 264.897Z" fill="white"/>
<path d="M39.2746 240.09C27.146 247.85 22.5331 260.978 27.9906 264.715C31.0829 266.832 41.6279 260.943 52.2697 249.279C48.6688 245.124 43.7557 245.002 39.2746 240.09Z" fill="white"/>
<path d="M96.9956 272.736C82.4608 273.45 73.0214 274.177 69.8325 274.294C69.4986 274.306 68.9092 274.33 68.1635 274.151C65.4 273.486 64.9167 271.09 62.3264 269.051C59.3873 266.737 56.4366 267.116 56.4 266.155C56.3745 265.487 57.4477 265.027 59.7965 264.971C59.7967 264.971 59.7967 264.971 59.7965 264.971C58.0072 264.806 55.5901 264.475 55.6833 263.476C55.8518 262.328 58.7367 262.379 60.4803 262.497C58.3697 262.355 57.2894 261.641 57.4787 261.097C57.7766 260.24 59.4387 259.965 62.2208 260.262L62.221 260.262C60.3566 259.514 60.0146 259.052 60.2979 258.612C60.8152 257.809 63.098 258.097 65.0774 258.665C67.3059 259.303 68.8149 260.58 69.7475 261.408C69.7477 261.408 69.748 261.408 69.7485 261.408C79.877 259.841 86.5796 258.866 94.7343 257.432C96.4027 257.139 96.996 272.736 96.9956 272.736Z" fill="white"/>
<path d="M89.0946 248.139C99.7099 260.352 104.277 269.001 98.8495 272.22C95.355 274.293 87.3012 270.181 78.4072 261.009C81.7629 256.941 84.9295 252.973 89.0946 248.139Z" fill="white"/>
<path d="M90.0552 270.608C90.0371 270.608 90.0187 270.603 90.0018 270.594C86.4209 268.554 82.3845 265.266 78.3293 261.084C78.2877 261.041 78.2888 260.972 78.3317 260.931C78.3745 260.889 78.4428 260.89 78.4845 260.933C82.5257 265.101 86.5452 268.376 90.1089 270.406C90.1607 270.436 90.1789 270.502 90.1493 270.553C90.1292 270.588 90.0928 270.608 90.0552 270.608Z" fill="#363E44"/>
<path d="M27.1465 250.333C27.1465 250.333 36.9836 232.123 59.8951 233.509C78.8849 234.658 96.8475 252.972 96.8475 252.972L85.0259 268.182L80.8807 265.698L78.8848 281.374L30.3705 280.132L35.3251 258.423L27.1465 250.333Z" fill="#453D6E"/>
<path d="M64.4527 304.498H24.2287L17.1602 255.92H57.384L64.4527 304.498Z" fill="#B5346D"/>
<path d="M194.387 184.466C188.335 186.668 181.787 186.38 175.95 183.657C170.113 180.934 165.686 176.1 163.485 170.048C161.283 163.995 161.57 157.447 164.294 151.61C167.017 145.773 171.85 141.346 177.903 139.145C183.956 136.943 190.504 137.231 196.341 139.954C202.178 142.677 206.604 147.51 208.806 153.563C211.007 159.616 210.72 166.164 207.997 172.001C205.274 177.837 200.44 182.264 194.387 184.466ZM180.506 146.3C171.956 149.41 167.531 158.895 170.64 167.445C173.75 175.994 183.235 180.42 191.785 177.31C200.334 174.201 204.76 164.715 201.65 156.166C198.541 147.616 189.055 143.191 180.506 146.3Z" fill="#F2E6DC"/>
<path d="M194.062 183.572C188.248 185.687 181.959 185.411 176.352 182.795C170.746 180.18 166.494 175.537 164.379 169.723C162.264 163.909 162.54 157.62 165.156 152.013C167.772 146.407 172.414 142.155 178.228 140.04C184.042 137.925 190.332 138.201 195.938 140.817C201.544 143.433 205.797 148.076 207.911 153.889C210.026 159.703 209.75 165.993 207.134 171.599C204.518 177.206 199.876 181.458 194.062 183.572ZM180.18 145.407C171.138 148.696 166.457 158.728 169.746 167.771C173.035 176.814 183.067 181.495 192.11 178.206C201.153 174.917 205.834 164.884 202.544 155.841C199.256 146.799 189.223 142.118 180.18 145.407Z" fill="white"/>
<path d="M169.746 167.771C169.209 166.294 168.886 164.791 168.758 163.295L163.025 163.331C163.171 165.487 163.62 167.635 164.379 169.723C166.125 174.524 169.33 178.524 173.551 181.246L176.376 176.257C173.425 174.267 171.053 171.364 169.746 167.771Z" fill="white"/>
<path d="M187.676 144.424C194.214 145.01 200.157 149.275 202.545 155.84C204.369 160.857 203.74 166.178 201.275 170.484L206.008 173.722C206.416 173.038 206.793 172.33 207.134 171.598C209.75 165.992 210.026 159.702 207.911 153.888C205.797 148.075 201.545 143.432 195.938 140.816C193.311 139.59 190.533 138.878 187.725 138.686L187.676 144.424Z" fill="#4424DD"/>
<path d="M168.742 160.535C169.236 153.895 173.528 147.826 180.18 145.406C181.742 144.838 183.334 144.508 184.916 144.397L184.965 138.664C182.693 138.783 180.427 139.24 178.228 140.04C172.414 142.154 167.772 146.406 165.156 152.013C163.88 154.748 163.162 157.645 163.006 160.571L168.742 160.535Z" fill="white"/>
<path d="M199.72 172.766C197.791 175.163 195.207 177.08 192.11 178.206C187.592 179.85 182.826 179.503 178.778 177.617L175.954 182.604C176.086 182.669 176.219 182.733 176.352 182.796C181.959 185.411 188.248 185.687 194.062 183.573C198.235 182.055 201.805 179.435 204.454 176.005L199.72 172.766Z" fill="#917AFF"/>
<path d="M33.3451 137.815H25.1562L29.2507 119.277L33.3451 137.815Z" fill="#917AFF"/>
<path d="M41.5346 137.815H33.3457L37.4401 124.652L41.5346 137.815Z" fill="#B5346D"/>
<path d="M49.723 137.815H41.5342L45.6285 113.748L49.723 137.815Z" fill="#4424DD"/>
<path d="M57.9116 137.815H49.7227L53.8171 125.781L57.9116 137.815Z" fill="#FFFBF8"/>
<path d="M59.4479 140.058H22.8961C22.8364 140.058 22.7881 140.01 22.7881 139.95V124.653C22.7881 124.593 22.8364 124.545 22.8961 124.545C22.9559 124.545 23.0042 124.593 23.0042 124.653V139.842H59.4479C59.5076 139.842 59.5559 139.89 59.5559 139.95C59.5559 140.01 59.5076 140.058 59.4479 140.058Z" fill="#E6D0BE"/>
<path d="M29.9795 209.505C39.1433 209.362 46.529 201.893 46.529 192.695C46.529 192.427 46.5212 192.16 46.5086 191.895H29.9795V209.505Z" fill="white"/>
<path d="M28.3204 190.237H38.5935C38.3335 184.696 33.7598 180.283 28.1546 180.283C22.3825 180.283 17.7031 184.962 17.7031 190.735C17.7031 196.507 22.3824 201.186 28.1546 201.186C28.2103 201.186 28.265 201.183 28.3206 201.182V190.237H28.3204Z" fill="#4424DD"/>
</g>
</g>
<defs>
<clipPath id="clip0_569_5302">
<rect x="15.9385" y="105.863" width="198.493" height="203.219" rx="15.7534" fill="white"/>
</clipPath>
<clipPath id="clip1_569_5302">
<rect x="15.9385" y="105.863" width="198.493" height="203.219" rx="15.7534" fill="white"/>
</clipPath>
</defs>
</svg>
