<svg width="310" height="104" viewBox="0 0 310 104" fill="none" xmlns="http://www.w3.org/2000/svg">
<g clip-path="url(#clip0_535_11439)">
<rect y="0.167969" width="310" height="103.333" rx="6.2" fill="#4446A0"/>
<path d="M155.129 168.085C219.404 168.085 271.508 115.98 271.508 51.7053C271.508 -12.5691 219.404 -64.6738 155.129 -64.6738C90.8547 -64.6738 38.75 -12.5691 38.75 51.7053C38.75 115.98 90.8547 168.085 155.129 168.085Z" fill="#A64928"/>
<g clip-path="url(#clip1_535_11439)">
<path d="M153.888 134.242C193.308 134.242 225.264 102.286 225.264 62.8663C225.264 23.4464 193.308 -8.50977 153.888 -8.50977C114.468 -8.50977 82.5121 23.4464 82.5121 62.8663C82.5121 102.286 114.468 134.242 153.888 134.242Z" fill="#A64928"/>
<path d="M150.863 85.6262C150.787 85.6262 150.718 85.5754 150.697 85.4984L149.612 81.4351C149.588 81.3433 149.642 81.249 149.734 81.2245C149.825 81.2003 149.92 81.2544 149.944 81.3464L150.985 85.2435L159.15 83.0629C159.241 83.0389 159.336 83.0929 159.361 83.1848C159.385 83.2765 159.331 83.3708 159.239 83.3953L150.908 85.6203C150.893 85.6243 150.878 85.6262 150.863 85.6262Z" fill="#F8E69E"/>
<path d="M145.17 64.3113C145.094 64.3113 145.025 64.2605 145.004 64.1835L128.613 2.80832C128.589 2.71658 128.643 2.62227 128.735 2.59778L159.034 -5.49424C159.125 -5.51842 159.22 -5.46429 159.245 -5.3724L162.675 7.47273C162.7 7.56446 162.645 7.65877 162.554 7.68327C162.463 7.70753 162.368 7.65339 162.343 7.56142L158.957 -5.11755L128.99 2.8857L145.337 64.0948C145.361 64.1865 145.307 64.2809 145.215 64.3053C145.2 64.3093 145.185 64.3113 145.17 64.3113Z" fill="#F8E69E"/>
<path d="M156.318 0.12538L133.882 6.11719L137.95 21.3524L160.387 15.3606L156.318 0.12538Z" fill="#C35D2D"/>
<path d="M160.929 17.3891L138.492 23.3809L142.56 38.616L164.997 32.6242L160.929 17.3891Z" fill="#2F52B6"/>
<path d="M165.539 34.6527L143.102 40.6445L147.171 55.8797L169.607 49.8879L165.539 34.6527Z" fill="white"/>
<path d="M160.832 79.6978C160.826 79.6978 160.82 79.6976 160.814 79.6969L151.636 78.7521C151.59 78.7475 151.549 78.7249 151.52 78.6895C151.491 78.6542 151.477 78.6088 151.482 78.5634L152.141 72.1642C152.151 72.0697 152.234 72.0007 152.33 72.0107C152.424 72.0205 152.493 72.105 152.483 72.1994L151.842 78.4275L160.849 79.3547C160.944 79.3644 161.012 79.4489 161.003 79.5434C160.993 79.632 160.919 79.6978 160.832 79.6978Z" fill="#F8E69E"/>
<path d="M182.85 81.9649C182.844 81.9649 182.838 81.9646 182.832 81.9639L181.321 81.8084C181.227 81.7986 181.158 81.7141 181.168 81.6197C181.178 81.5252 181.26 81.4565 181.356 81.4662L182.696 81.6042L183.038 78.2872C183.047 78.1927 183.132 78.124 183.226 78.1337C183.321 78.1435 183.39 78.2279 183.38 78.3224L183.021 81.8105C183.012 81.899 182.937 81.9649 182.85 81.9649Z" fill="#F8E69E"/>
<path d="M153.356 62.2115C153.35 62.2115 153.344 62.2112 153.338 62.2105C153.244 62.2008 153.175 62.1163 153.185 62.0218L160.246 -6.57607C160.256 -6.67053 160.34 -6.73949 160.435 -6.72951L191.631 -3.51836C191.726 -3.50861 191.794 -3.42413 191.785 -3.32966L190.415 9.97905C190.405 10.0735 190.323 10.1437 190.226 10.1325C190.132 10.1227 190.063 10.0383 190.073 9.9438L191.425 -3.19385L160.571 -6.36974L153.527 62.0571C153.518 62.1456 153.443 62.2115 153.356 62.2115Z" fill="#F8E69E"/>
<path d="M187.094 0.768777L163.993 -1.60938L162.378 14.0769L185.479 16.455L187.094 0.768777Z" fill="#DA6623"/>
<path d="M185.264 18.5422L162.163 16.1641L160.548 31.8502L183.649 34.2284L185.264 18.5422Z" fill="#DA6623"/>
<path d="M183.435 36.3176L160.333 33.9395L158.719 49.6257L181.82 52.0039L183.435 36.3176Z" fill="#DA6623"/>
<path d="M198.73 -0.796875L149.758 69.3975L175.479 87.3416L224.45 17.1472L198.73 -0.796875Z" fill="white"/>
<path d="M214.35 31.796C214.316 31.796 214.282 31.786 214.252 31.7651C214.174 31.7106 214.155 31.6035 214.209 31.5256L224.211 17.1899L198.773 -0.557362L194.387 5.7288C194.333 5.80658 194.226 5.82584 194.148 5.77147C194.07 5.71703 194.051 5.60992 194.105 5.53199L198.589 -0.89513C198.643 -0.972902 198.75 -0.992248 198.828 -0.937799L224.549 17.0062C224.627 17.0607 224.645 17.1678 224.591 17.2457L214.492 31.7225C214.458 31.7703 214.405 31.796 214.35 31.796Z" fill="#F8E69E"/>
<path d="M218.5 18.5584L199.454 5.26953L190.431 18.2024L209.477 31.4912L218.5 18.5584Z" fill="#EEC107"/>
<path d="M208.276 33.2146L189.23 19.9258L180.206 32.8586L199.252 46.1474L208.276 33.2146Z" fill="#F2CD36"/>
<path d="M198.051 47.8689L179.005 34.5801L169.982 47.5129L189.028 60.8018L198.051 47.8689Z" fill="#FFD092"/>
<path d="M122.155 2.35732L126.153 10.8375L121.895 12.8462L117.896 4.36607L115.785 5.36198L115.008 14.7073L122.711 20.052L124.003 19.4425L133.885 40.4026L133.886 40.4023L141.529 57.1345C142.278 58.771 144.212 59.4901 145.849 58.7405C147.485 57.991 148.204 56.0567 147.455 54.4202L139.782 37.6212L139.782 37.621L139.763 37.5808L139.761 37.5768L129.9 16.6609L131.192 16.0514L131.969 6.70611L124.266 1.36133L122.155 2.35732Z" fill="#F8E69E"/>
<path d="M140.269 2.02488L138.647 2.38281L147.62 43.0608L149.242 42.7028L140.269 2.02488Z" fill="#363E44"/>
<path d="M145.295 19.9296L141.62 20.7402L142.431 24.415L146.105 23.6044L145.295 19.9296Z" fill="#363E44"/>
<path d="M139.047 -3.55859L137.411 -3.19773L137.242 -0.0715404L138.71 2.6938L140.346 2.33294L140.514 -0.793257L139.047 -3.55859Z" fill="#363E44"/>
<path d="M146.388 22.4531L141.693 23.4888L142.979 40.4837L148.961 56.4428L153.657 55.4071L152.37 38.4123L146.388 22.4531Z" fill="#F2CD36"/>
<path d="M150.945 54.4272C150.866 54.4272 150.795 54.3725 150.777 54.2924L146.324 34.1311C146.303 34.0383 146.362 33.9466 146.455 33.9261C146.548 33.9052 146.639 33.9642 146.66 34.0569L151.113 54.2181C151.134 54.3109 151.075 54.4027 150.982 54.4232C150.97 54.426 150.957 54.4272 150.945 54.4272Z" fill="#363E44"/>
<path d="M146.249 33.166C146.17 33.166 146.099 33.1113 146.081 33.0311L144.238 24.6878C144.218 24.595 144.276 24.5032 144.369 24.4827C144.463 24.4619 144.553 24.5208 144.574 24.6135L146.417 32.9568C146.437 33.0496 146.379 33.1414 146.286 33.1619C146.274 33.1648 146.261 33.166 146.249 33.166Z" fill="#363E44"/>
<path d="M191.613 60.0938H112.144V116.559H191.613V60.0938Z" fill="#E6D0BE"/>
<path d="M191.303 49.6328H111.358V68.1872H191.303V49.6328Z" fill="#F7F1EB"/>
<path d="M190.988 68.477H190.988L111.816 68.4007C111.721 68.4006 111.644 68.3235 111.644 68.2285C111.644 68.1336 111.721 68.0566 111.816 68.0566H111.816L190.988 68.133C191.083 68.1331 191.16 68.2102 191.16 68.3052C191.16 68.4001 191.083 68.477 190.988 68.477Z" fill="#D3BBA3"/>
<path d="M190.616 65.5747H190.616L111.444 65.4983C111.349 65.4982 111.272 65.4211 111.272 65.3261C111.272 65.2312 111.349 65.1543 111.444 65.1543H111.444L190.616 65.2307C190.711 65.2307 190.788 65.3078 190.788 65.4028C190.788 65.4978 190.711 65.5747 190.616 65.5747Z" fill="#D3BBA3"/>
<path d="M190.43 62.063H190.43L111.258 61.9866C111.163 61.9865 111.086 61.9094 111.086 61.8144C111.086 61.7195 111.163 61.6426 111.258 61.6426H111.258L190.43 61.7189C190.525 61.719 190.602 61.7961 190.602 61.8911C190.602 61.986 190.525 62.063 190.43 62.063Z" fill="#D3BBA3"/>
<path d="M190.988 58.5493H190.988L111.816 58.4729C111.721 58.4728 111.644 58.3958 111.644 58.3008C111.644 58.2058 111.721 58.1289 111.816 58.1289H111.816L190.988 58.2053C191.083 58.2054 191.16 58.2824 191.16 58.3774C191.16 58.4724 191.083 58.5493 190.988 58.5493Z" fill="#D3BBA3"/>
<path d="M191.359 55.6489H191.359L112.187 55.5725C112.092 55.5724 112.015 55.4954 112.016 55.4004C112.016 55.3054 112.093 55.2285 112.188 55.2285H112.188L191.36 55.3049C191.455 55.305 191.532 55.382 191.531 55.477C191.531 55.572 191.454 55.6489 191.359 55.6489Z" fill="#D3BBA3"/>
<path d="M114.901 45.4004H108.662V122.526H114.901V45.4004Z" fill="#D3BBA3"/>
<path d="M115.578 122.698H108.995V45.2285H115.578V122.698ZM109.339 122.354H115.234V45.5725H109.339V122.354Z" fill="#363E44"/>
<path d="M195.842 45.4004H189.603V122.526H195.842V45.4004Z" fill="#D3BBA3"/>
<path d="M196.519 122.886H189.936V45.416H196.519V122.886ZM190.28 122.542H196.175V45.76H190.28V122.542Z" fill="#363E44"/>
<path d="M198.472 43.7871H105.393V52.5848H198.472V43.7871Z" fill="#D3BBA3"/>
<path d="M199.401 52.954H105.978V44.1191H199.401V52.954ZM106.322 52.61H199.057V44.4631H106.322V52.61Z" fill="#363E44"/>
<path d="M173.287 91.1447H170.919C170.707 89.9899 170.404 88.867 170.02 87.7827L172.069 86.599L168.062 79.6559L166.008 80.8423C165.255 79.9595 164.433 79.1371 163.55 78.3831L164.736 76.3282L157.796 72.3196L156.613 74.3698C155.529 73.9852 154.406 73.6827 153.252 73.4705V71.1016H145.238V73.4705C144.084 73.6826 142.961 73.9852 141.878 74.3698L140.695 72.3196L133.754 76.3282L134.94 78.3831C134.058 79.1372 133.236 79.9595 132.482 80.8423L130.428 79.6559L126.421 86.599L128.47 87.7827C128.086 88.867 127.783 89.9899 127.571 91.1447H125.203V99.1619H127.571C127.783 100.317 128.086 101.44 128.47 102.524L126.421 103.708L130.428 110.651L132.482 109.464C133.236 110.347 134.058 111.169 134.94 111.923L133.754 113.978L140.694 117.987L141.878 115.937C142.961 116.321 144.084 116.624 145.238 116.836V119.205H153.252V116.836C154.406 116.624 155.529 116.321 156.613 115.937L157.796 117.987L164.736 113.978L163.55 111.923C164.433 111.169 165.255 110.347 166.008 109.464L168.062 110.651L172.069 103.708L170.02 102.524C170.404 101.44 170.707 100.317 170.919 99.1619H173.287L173.287 91.1447ZM162.349 95.5826C162.13 102.45 156.539 108.044 149.674 108.263C142.094 108.505 135.899 102.308 136.14 94.7241C136.36 87.8562 141.951 82.2626 148.816 82.0433C156.396 81.8012 162.592 87.9988 162.349 95.5826Z" fill="white"/>
<path d="M149.245 112.863C139.484 112.863 131.543 104.918 131.543 95.1531C131.543 90.8864 133.081 86.7646 135.874 83.547C138.639 80.3614 142.446 78.2638 146.594 77.6407C146.688 77.6262 146.776 77.6913 146.79 77.7852C146.804 77.8792 146.739 77.9667 146.645 77.9808C138.231 79.2449 131.887 86.6274 131.887 95.1532C131.887 104.729 139.673 112.519 149.245 112.519C157.154 112.519 164.063 107.177 166.048 99.5292C166.071 99.4372 166.166 99.382 166.257 99.406C166.349 99.4298 166.404 99.5237 166.381 99.6156C164.357 107.415 157.31 112.863 149.245 112.863Z" fill="#F2E6DC"/>
<path d="M222.365 59.686H221.24C221.139 59.1373 220.995 58.6037 220.812 58.0885L221.787 57.5261L219.882 54.2269L218.905 54.7906C218.547 54.3712 218.156 53.9804 217.737 53.6221L218.301 52.6457L215.001 50.7409L214.439 51.7151C213.924 51.5324 213.39 51.3886 212.841 51.2877V50.1621H209.032V51.2877C208.483 51.3885 207.949 51.5323 207.434 51.7151L206.872 50.7409L203.573 52.6457L204.136 53.6221C203.717 53.9805 203.326 54.3712 202.968 54.7906L201.991 54.2269L200.087 57.5261L201.061 58.0885C200.878 58.6037 200.734 59.1373 200.633 59.686H199.508V63.4956H200.633C200.734 64.0443 200.878 64.578 201.061 65.0932L200.087 65.6556L201.991 68.9548L202.968 68.3911C203.326 68.8105 203.717 69.2014 204.136 69.5596L203.573 70.536L206.872 72.4409L207.434 71.4667C207.949 71.6494 208.483 71.7931 209.032 71.894V73.0196H212.841V71.894C213.39 71.7932 213.924 71.6494 214.439 71.4667L215.001 72.4409L218.301 70.536L217.737 69.5596C218.156 69.2014 218.547 68.8105 218.905 68.3911L219.882 68.9548L221.787 65.6556L220.812 65.0932C220.995 64.578 221.139 64.0444 221.24 63.4956H222.365V59.686ZM216.398 63.8687C215.844 65.3339 214.679 66.499 213.214 67.0529C208.236 68.9348 203.592 64.2914 205.474 59.3129C206.028 57.8477 207.194 56.6826 208.659 56.1288C213.637 54.2469 218.281 58.8903 216.398 63.8687Z" fill="#E6D0BE"/>
<path d="M210.936 70.0962C206.247 70.0962 202.431 66.2806 202.431 61.5906C202.431 57.4149 205.54 53.799 209.663 53.1798C209.757 53.1651 209.844 53.2304 209.859 53.3243C209.873 53.4183 209.808 53.5058 209.714 53.5199C205.758 54.1141 202.775 57.5837 202.775 61.5906C202.775 66.0909 206.436 69.7522 210.936 69.7522C214.655 69.7522 217.904 67.2418 218.837 63.6473C218.861 63.5554 218.954 63.5003 219.046 63.5242C219.138 63.548 219.193 63.6419 219.17 63.7339C218.197 67.4799 214.812 70.0962 210.936 70.0962Z" fill="#F2E6DC"/>
</g>
<path d="M97.7664 100.358L100.099 110.192L107.604 110.19L105.788 100.355L97.7664 100.358Z" fill="white"/>
<path d="M74.7036 101.529L76.7746 110.874H83.3205V100.932L74.7036 101.529Z" fill="white"/>
<path d="M81.7814 50.7229C81.7814 50.7229 79.7317 63.974 96.0187 103.685H106.641C106.641 103.685 98.2386 55.1981 97.3409 49.082L81.7814 50.7229Z" fill="#4446A0"/>
<path d="M72.7579 52.6621C72.7579 52.6621 68.6398 73.5521 74.1755 103.685H84.0498C84.0498 103.685 85.8208 59.9716 88.3642 53.4079L72.7579 52.6621Z" fill="#4446A0"/>
<path d="M84.6811 90.0052C84.6769 90.0052 84.6727 90.005 84.6685 90.0048C84.5738 89.9979 84.5026 89.9156 84.5095 89.8208L86.4806 62.6451L89.8381 61.4918C89.9289 61.4609 90.0259 61.5088 90.0566 61.5987C90.0875 61.6885 90.0399 61.7863 89.95 61.8172L86.8071 62.8966L84.8524 89.8457C84.8459 89.9362 84.7705 90.0052 84.6811 90.0052Z" fill="#363E44"/>
<path d="M76.6471 21.8901C76.6471 21.8901 83.4121 19.0366 93.8352 21.9542L94.9629 55.1886L79.9712 55.3452L76.6471 21.8901Z" fill="#1F44DC"/>
<path d="M80.6669 20.9102C80.7726 20.902 80.6382 53.0838 80.6382 53.0838L72.7345 52.8405L70.6144 22.9624C70.6144 22.9624 74.3976 21.3963 80.6669 20.9102Z" fill="#1F44DC"/>
<path d="M75.6232 41.5028L70.3038 43.3833C68.3031 44.0906 66.1037 43.0715 65.35 41.0878C63.9686 37.4521 63.9739 33.4242 65.4208 29.8141C66.5081 27.1009 69.1797 23.5278 70.6841 22.9277L75.6232 41.5028Z" fill="#1F44DC"/>
<path d="M72.3712 33.9651C72.3636 33.9651 72.3559 33.9646 72.3482 33.9637C72.2541 33.9511 72.1879 33.8645 72.2005 33.7704L72.7167 29.9129C72.7292 29.8189 72.8151 29.7524 72.91 29.7653C73.0041 29.7778 73.0702 29.8644 73.0576 29.9586L72.5415 33.816C72.5299 33.9024 72.456 33.9651 72.3712 33.9651Z" fill="#363E44"/>
<path d="M89.5627 21.0215L94.8038 52.8715L97.9348 52.841L99.6322 23.2675C99.6322 23.2675 94.7149 21.4931 89.5627 21.0215Z" fill="#1F44DC"/>
<path d="M99.6326 23.2676L97.8247 34.9396L104.847 38.8569C107.573 40.3772 111.016 39.3044 112.395 36.5052L113.305 32.7496L99.6326 23.2676Z" fill="#1F44DC"/>
<path d="M106.138 29.8976C107.867 27.0673 109.536 23.5933 110.522 21.9722C112.554 18.6301 116.041 13.9917 116.684 14.4879C117.05 14.7705 116.705 15.5014 115.654 17.3939C115.803 17.3514 116.285 17.3341 116.582 17.6519C117.021 18.1222 116.738 18.5811 116.732 18.6332C116.781 18.6147 117.354 18.4339 117.701 18.699C118.092 18.9976 118.136 19.4129 118.041 19.7873C118.165 19.7452 118.719 19.6534 119.04 19.9247C119.456 20.2775 119.354 20.873 119.114 21.2545C118.674 21.9545 117.424 23.8372 116.891 24.9172C116.226 26.2608 114.041 31.3555 112.139 35.1783C110.721 38.028 103.569 34.1025 106.138 29.8976Z" fill="white"/>
<path d="M114.212 24.2606C114.2 24.2606 114.188 24.2594 114.176 24.2568C114.083 24.2371 114.024 24.1457 114.044 24.0528C114.214 23.2511 114.041 22.6014 113.902 22.0792C113.753 21.5195 113.624 21.0361 114.073 20.7123C114.315 20.5376 114.522 20.1979 114.672 19.7299C114.707 19.6187 114.634 19.55 114.61 19.5316C114.586 19.5128 114.5 19.4563 114.398 19.5186L112.229 20.845C112.148 20.8946 112.042 20.8691 111.992 20.788C111.943 20.707 111.968 20.6012 112.049 20.5516L114.219 19.2251C114.409 19.1084 114.647 19.1226 114.823 19.261C114.998 19.3984 115.067 19.6237 114.999 19.8348C114.824 20.381 114.58 20.77 114.274 20.9911C114.029 21.1684 114.088 21.4406 114.235 21.9905C114.375 22.5187 114.568 23.242 114.38 24.1242C114.363 24.2052 114.292 24.2606 114.212 24.2606Z" fill="#363E44"/>
<path d="M117.944 22.3668C117.913 22.3668 117.882 22.3583 117.853 22.3406C117.383 22.0466 117.137 21.5169 117.181 20.9921C116.87 21.3177 116.375 21.3927 115.98 21.1668C115.747 21.0339 115.582 20.8179 115.515 20.5585C115.448 20.2993 115.487 20.0302 115.626 19.8012L115.701 19.6782C115.487 19.7167 115.258 19.6716 115.07 19.5344C114.733 19.2874 114.634 18.827 114.842 18.4635L115.304 17.6551C115.351 17.5726 115.456 17.5438 115.539 17.5911C115.621 17.6382 115.65 17.7433 115.603 17.8258L115.141 18.6342C115.02 18.8455 115.077 19.1132 115.274 19.2569C115.482 19.4094 115.779 19.3663 115.936 19.1608L116.325 18.6501C116.38 18.5774 116.483 18.5606 116.558 18.6121C116.634 18.6636 116.656 18.7652 116.609 18.8434L115.92 19.9794C115.83 20.1285 115.804 20.3036 115.848 20.4723C115.892 20.6411 115.999 20.7817 116.151 20.8682C116.42 21.0218 116.759 20.9614 116.959 20.7246L117.602 19.9616C117.659 19.8945 117.757 19.8808 117.83 19.9299C117.902 19.9791 117.926 20.0755 117.885 20.1532L117.647 20.6016C117.378 21.1089 117.548 21.7446 118.035 22.0489C118.116 22.0992 118.14 22.2053 118.09 22.2859C118.058 22.3381 118.002 22.3668 117.944 22.3668Z" fill="#363E44"/>
<path d="M77.8499 55.7617H95.1025V34.822H77.8499V55.7617Z" fill="#4446A0"/>
<path d="M95.1024 34.8221C95.1024 34.4743 95.4502 21.813 95.4502 21.813L91.2762 21.1348L90.9979 35.3786L95.1024 34.8221Z" fill="#4446A0"/>
<path d="M77.8498 34.8222L76.4933 21.1697L80.6145 20.7812L81.7456 35.3092L77.8498 34.8222Z" fill="#4446A0"/>
<path d="M83.7355 37.5911C83.7164 37.5911 83.6969 37.5878 83.6777 37.581C83.5883 37.5492 83.5417 37.4508 83.5734 37.3614L88.0612 24.7617H97.9313C98.0264 24.7617 98.1033 24.8387 98.1033 24.9337C98.1033 25.0287 98.0264 25.1057 97.9313 25.1057H88.3037L83.8976 37.4768C83.8724 37.5471 83.8062 37.5911 83.7355 37.5911Z" fill="#363E44"/>
<path d="M93.9533 38.0245H84.2043L88.6513 25.5391H98.4002L93.9533 38.0245Z" fill="#363E44"/>
<path d="M69.111 35.6811C72.206 34.4181 79.3472 31.0829 80.0573 30.7851C81.3847 30.2284 88.5857 27.4256 89.1028 28.4209C89.3499 28.8964 87.987 29.4991 87.5204 29.6895C87.9731 29.7216 89.7248 29.6565 89.8541 30.2432C90.0059 30.9325 87.9304 31.3296 87.9019 31.3561C88.365 31.3421 90.207 31.2115 90.3211 31.6477C90.4693 32.215 88.7921 32.8504 88.2812 33.0175C88.3575 33.0696 90.0879 32.6911 90.2934 33.3601C90.4444 33.8512 88.9047 34.4318 88.2375 34.6856C87.0585 35.1812 73.6589 41.6863 71.0142 42.5772C69.9789 42.9259 68.2527 37.2626 69.111 35.6811Z" fill="white"/>
<path d="M69.07 35.7944C69.003 35.7944 68.9392 35.7548 68.9115 35.689C68.8746 35.6014 68.9157 35.5006 69.0033 35.4638C69.996 35.0458 74.0552 33.2827 75.6016 32.5893C75.6884 32.5504 75.7901 32.5893 75.8289 32.6759C75.8679 32.7625 75.829 32.8643 75.7423 32.9032C74.1943 33.5973 70.1306 35.3623 69.1367 35.7809C69.1151 35.79 69.0924 35.7944 69.07 35.7944Z" fill="#363E44"/>
<path d="M85.0724 30.4042C85.0073 30.4042 84.9451 30.367 84.916 30.3041C84.8762 30.2178 84.914 30.1156 85.0002 30.0759C85.5079 29.8421 86.0413 29.6715 86.5857 29.5692C86.8889 29.5122 87.1992 29.4758 87.5082 29.461C87.6029 29.4586 87.6837 29.5296 87.6882 29.6247C87.6927 29.7194 87.6195 29.8001 87.5246 29.8046C87.2314 29.8186 86.9369 29.8531 86.6492 29.9073C86.1326 30.0044 85.6262 30.1662 85.1443 30.3883C85.1209 30.399 85.0964 30.4042 85.0724 30.4042Z" fill="#363E44"/>
<path d="M86.1791 32.0095C86.1139 32.0095 86.0518 31.9724 86.0227 31.9095C85.9829 31.8232 86.0206 31.7211 86.1068 31.6813C86.6143 31.4475 87.1477 31.2769 87.6924 31.1746C87.7584 31.1622 87.8234 31.151 87.8876 31.1409C87.9813 31.1257 88.0693 31.1902 88.0842 31.2841C88.0988 31.378 88.0349 31.4659 87.9409 31.4807C87.8802 31.4903 87.8185 31.5009 87.7558 31.5127C87.2389 31.6097 86.7326 31.7716 86.2509 31.9937C86.2276 32.0045 86.2031 32.0095 86.1791 32.0095Z" fill="#363E44"/>
<path d="M87.2445 33.5545C87.1794 33.5545 87.1172 33.5174 87.0881 33.4545C87.0483 33.3682 87.0861 33.266 87.1723 33.2263C87.5035 33.0736 87.8483 32.947 88.1971 32.8501C88.2875 32.8247 88.3832 32.878 88.4089 32.9696C88.4343 33.0611 88.3807 33.156 88.2892 33.1814C87.9581 33.2736 87.6308 33.3937 87.3164 33.5387C87.293 33.5495 87.2685 33.5545 87.2445 33.5545Z" fill="#363E44"/>
<path d="M92.0524 47.7972L81.1162 47.6295V39.0509C81.1162 38.9559 81.1931 38.8789 81.2882 38.8789C81.3833 38.8789 81.4602 38.9559 81.4602 39.0509V47.2907L91.7058 47.4478L91.6587 41.0376C91.658 40.9426 91.7345 40.865 91.8294 40.8643C91.83 40.8643 91.8304 40.8643 91.8307 40.8643C91.9251 40.8643 92.002 40.9405 92.0027 41.0351L92.0524 47.7972Z" fill="#363E44"/>
<path d="M73.0082 53.1648C72.9136 53.1648 72.8367 53.0885 72.8362 52.9938C72.8357 52.8988 72.9122 52.8214 73.0072 52.8208L94.8029 52.6992C94.8032 52.6992 94.8036 52.6992 94.804 52.6992C94.8985 52.6992 94.9754 52.7756 94.976 52.8703C94.9764 52.9653 94.8999 53.0427 94.805 53.0432L73.0092 53.1648C73.0088 53.1648 73.0085 53.1648 73.0082 53.1648Z" fill="#363E44"/>
<path d="M87.9393 21.399H82.905L85.066 12.8256C85.0605 11.8448 85.2442 12.5199 86.2251 12.5144C87.2059 12.5089 89.7241 13.0114 89.7295 13.9922L87.9393 21.399Z" fill="white"/>
<path d="M90.5974 19.2629C89.4133 19.9931 86.5699 17.2473 86.5699 17.2473L84.7775 13.6576C84.9045 11.7046 86.5906 10.2244 88.5436 10.3513C90.4965 10.4783 91.9767 12.1645 91.8497 14.1174C91.8497 14.1174 91.8035 18.5191 90.5974 19.2629Z" fill="white"/>
<path d="M91.3829 15.0195C91.3829 15.0195 92.3071 16.1232 92.2365 16.3941C92.1523 16.7174 91.0344 16.8454 91.0344 16.8454C91.0344 16.8454 91.4091 15.0237 91.3829 15.0195Z" fill="white"/>
<path d="M88.4655 13.9921C88.4655 13.9921 89.038 13.8551 89.6423 14.015C89.7708 14.0491 89.2561 15.0137 89.1494 14.9231C88.6807 14.5251 88.4655 13.9921 88.4655 13.9921Z" fill="#1F44DC"/>
<mask id="mask0_535_11439" style="mask-type:luminance" maskUnits="userSpaceOnUse" x="88" y="13" width="4" height="3">
<path d="M88.4662 13.9921C88.4662 13.9921 89.3083 13.7907 90.0278 14.1616C90.7473 14.5325 91.0715 15.3354 91.0715 15.3354C91.0715 15.3354 90.2294 15.5369 89.5099 15.1659C88.7905 14.795 88.4662 13.9921 88.4662 13.9921Z" fill="white"/>
</mask>
<g mask="url(#mask0_535_11439)">
<path d="M89.6753 13.9952C90.1807 13.7014 90.8287 13.8727 91.1226 14.3781C91.4164 14.8835 91.245 15.5315 90.7397 15.8254C90.2343 16.1193 89.5863 15.9479 89.2925 15.4425C88.9986 14.9371 89.17 14.2891 89.6753 13.9952Z" fill="#363E44"/>
</g>
<path d="M84.5432 9.75078C84.5432 9.75078 82.6137 13.3782 84.994 15.0134L85.7314 14.5307L87.2033 15.3898L86.8169 13.4423C86.7476 12.7005 87.3742 12.0806 88.1152 12.158L91.35 12.4958L91.4288 10.7559C89.3843 9.246 87.1248 8.74395 84.5432 9.75078Z" fill="#363E44"/>
<path d="M88.1836 9.57589C87.8144 9.62893 87.472 9.3726 87.4189 9.00332C87.3658 8.63403 87.5944 8.09836 87.9637 8.04532C88.333 7.99219 88.7031 8.44182 88.7562 8.81111C88.8093 9.18039 88.5529 9.52276 88.1836 9.57589Z" fill="#363E44"/>
<path d="M88.6716 9.81104C88.3231 9.67796 88.1483 9.28754 88.2814 8.939C88.4145 8.59047 88.8745 8.23335 89.223 8.36636C89.5716 8.49944 89.6767 9.07224 89.5437 9.42077C89.4106 9.76939 89.0202 9.94412 88.6716 9.81104Z" fill="#363E44"/>
<path d="M89.7142 10.3237C89.2805 10.0638 89.1396 9.5014 89.3995 9.06768C89.6594 8.63397 90.3578 8.26609 90.7916 8.526C91.2253 8.78592 91.2301 9.57527 90.9702 10.009C90.7102 10.4428 90.1478 10.5837 89.7142 10.3237Z" fill="#363E44"/>
<path d="M87.112 9.5565C86.7446 9.62148 86.3941 9.37631 86.3292 9.00889C86.2642 8.64156 86.4754 8.09879 86.8428 8.03381C87.2101 7.96883 87.5946 8.40629 87.6596 8.77363C87.7245 9.14104 87.4793 9.49152 87.112 9.5565Z" fill="#363E44"/>
<path d="M90.5373 10.5669C90.39 10.1416 90.6153 9.67744 91.0405 9.53001C91.4658 9.38265 92.1526 9.53079 92.3 9.95608C92.4473 10.3814 91.9995 10.9227 91.5742 11.07C91.1488 11.2174 90.6847 10.9921 90.5373 10.5669Z" fill="#363E44"/>
<path d="M84.0906 13.6274C83.7867 14.2301 84.029 14.9651 84.6317 15.269C85.2345 15.5729 85.9695 15.3306 86.2734 14.7279C86.5773 14.1251 86.335 13.3901 85.7323 13.0862C85.1295 12.7823 84.3945 13.0246 84.0906 13.6274Z" fill="white"/>
<path d="M91.6276 16.7345L91.0582 19.655C90.9789 20.0616 90.577 20.3194 90.1741 20.2229C90.0728 20.1986 89.9634 20.1712 89.8475 20.1404C87.8416 19.608 86.2522 18.0771 85.6473 16.0917C85.4447 15.4266 85.6737 14.7055 86.2229 14.2792L86.4038 14.1387L86.9569 14.5006C86.9569 14.5006 87.2657 16.1404 87.8594 16.3076C88.4532 16.4749 89.6091 16.0774 91.6276 16.7345Z" fill="#363E44"/>
<path d="M90.1519 17.5747C90.0105 17.5747 89.8699 17.5303 89.7527 17.4427C89.5501 17.2919 89.4491 17.0331 89.4953 16.7833C89.5126 16.6899 89.6025 16.6281 89.6957 16.6455C89.7892 16.6628 89.8509 16.7526 89.8336 16.846C89.8111 16.9678 89.86 17.0937 89.9583 17.1669C90.0602 17.243 90.1989 17.2521 90.3115 17.1896C90.3943 17.1434 90.4992 17.1735 90.5453 17.2566C90.5913 17.3397 90.5612 17.4444 90.4781 17.4904C90.3762 17.5469 90.2638 17.5747 90.1519 17.5747Z" fill="white"/>
<path d="M87.2341 12.3564C87.1917 12.3564 87.1494 12.3409 87.1162 12.3096L85.8104 11.0805C85.7413 11.0154 85.7381 10.9065 85.803 10.8373C85.8684 10.7681 85.9771 10.7649 86.0463 10.83L87.352 12.0591C87.4212 12.1241 87.4244 12.233 87.3594 12.3022C87.3255 12.3383 87.2798 12.3564 87.2341 12.3564Z" fill="#84524D"/>
<path d="M92.8892 12.2431C92.8633 9.71722 91.0402 7.51985 88.7101 7.40721C86.1997 7.28583 83.9506 9.45083 83.6865 12.243C83.6652 12.4675 83.6588 12.6889 83.6638 12.9068L92.8892 12.2431Z" fill="#4446A0"/>
<path d="M88.6196 12.4461L95.7076 13.4443L95.9516 12.9519L92.2317 11.9805C90.7599 12.0611 89.4949 12.1993 88.6196 12.4461Z" fill="#4446A0"/>
</g>
<defs>
<clipPath id="clip0_535_11439">
<rect y="0.167969" width="310" height="103.333" rx="6.2" fill="white"/>
</clipPath>
<clipPath id="clip1_535_11439">
<rect x="83.0812" y="-12.4902" width="143.321" height="146.733" rx="11.3747" fill="white"/>
</clipPath>
</defs>
</svg>
