<svg width="240" height="331" viewBox="0 0 240 331" fill="none" xmlns="http://www.w3.org/2000/svg">
<g filter="url(#filter0_d_569_5665)">
<rect x="4.81641" y="2.31445" width="230" height="321.37" rx="18.9041" fill="#FFE7E1"/>
<path d="M90.1345 24.5974V32.5623H90.0336C90.0336 31.9574 89.4791 25.9081 83.7827 25.9081H75.112V43.0982H83.2786C87.7147 43.0982 88.1684 38.6621 88.1684 38.2084H88.2188V49.2988H88.1684C88.1684 48.8451 87.7147 44.4089 83.2786 44.4089H75.112V62.6073H84.7909C90.4873 62.6073 91.0419 56.558 91.0419 55.953H91.1427V63.918H63.8199V63.8171C64.1224 63.8171 66.9454 63.3634 66.9454 58.2719V30.2434C66.9454 25.1519 64.1224 24.6982 63.8199 24.6982V24.5974H90.1345ZM96.7355 34.5284C96.7355 27.6221 102.684 23.8916 110.347 23.8916C114.934 23.8916 117.707 24.5974 121.286 24.5974V32.8648H121.185C120.882 31.2517 120.328 29.1848 118.563 27.5717C117.001 26.2106 114.531 25.2023 110.447 25.2023C106.314 25.2023 102.482 26.8659 102.482 30.7475C102.482 34.2259 105.709 36.0911 108.532 37.7043L115.64 41.7371C121.336 44.9634 123.655 48.7443 123.655 53.0796C123.655 59.8347 118.059 64.2204 108.784 64.2204C105.557 64.2204 100.869 63.918 97.6429 63.918V53.4325H97.7438C97.9958 55.6506 98.4999 58.0703 100.264 59.9859C101.827 61.6999 104.448 62.9097 108.33 62.9097C114.984 62.9097 117.102 59.7843 117.102 56.558C117.102 53.9366 115.791 51.6681 110.901 48.8955L103.44 44.661C99.1553 42.2412 96.7355 39.2166 96.7355 34.5284ZM156.372 24.5974V32.5623H156.271C156.271 31.9574 155.716 25.9081 150.02 25.9081H140.341V44.6106H149.516C153.952 44.6106 154.406 40.1744 154.406 39.7207H154.456V50.8111H154.406C154.406 50.3574 153.952 45.9212 149.516 45.9212H140.341V58.2719C140.341 63.3634 143.164 63.8171 143.467 63.8171V63.918H129.049V63.8171C129.351 63.8171 132.174 63.3634 132.174 58.2719V30.2434C132.174 25.1519 129.351 24.6982 129.049 24.6982V24.5974H156.372ZM161.172 74.5043C164.499 74.5043 164.903 68.6062 164.903 64.0692V30.2434C164.903 25.1519 162.08 24.6982 161.777 24.6982V24.5974H176.195V24.6982C175.892 24.6982 173.069 25.1519 173.069 30.2434V63.9684C173.069 70.7739 168.331 74.6051 161.172 74.6051V74.5043Z" fill="#B8381A"/>
<path d="M53.7575 93.6445V93.613C53.852 93.613 54.7342 93.4712 54.7342 91.8801V83.1212C54.7342 81.5301 53.852 81.3884 53.7575 81.3884V81.3569H56.6876L63.4931 89.6274V83.1212C63.4931 81.5301 62.6109 81.3884 62.5164 81.3884V81.3569H64.9109V81.3884C64.8164 81.3884 63.9342 81.5301 63.9342 83.1212V93.7391L55.1753 83.1212V91.8801C55.1753 93.4712 56.0575 93.613 56.152 93.613V93.6445H53.7575ZM69.5604 96.6849C70.3953 96.6849 70.931 96.3541 71.2775 95.8815C71.8131 95.1411 71.9077 94.0541 71.9077 93.2664V92.3843C71.4193 93.2822 70.4268 93.8336 69.3556 93.8336C66.9296 93.8336 65.4173 91.9747 65.4173 89.3596C65.4173 86.4295 66.9296 84.2555 69.6077 84.2555C70.8679 84.2555 71.4981 84.7753 71.9077 85.3425V84.413H75.4049V84.4445C75.3104 84.4445 74.4282 84.5863 74.4282 86.1774V93.0144C74.4282 94.3534 73.9241 95.2829 73.2152 95.913C72.2542 96.7795 70.8995 97.063 69.9385 97.063C68.3631 97.063 67.3392 96.5117 66.7563 96.5117V94.0856H66.8036C66.9453 94.9048 67.3234 95.4877 67.7645 95.8973C68.3947 96.4801 69.1508 96.6849 69.5604 96.6849ZM67.9221 89.2021C67.9221 91.376 68.694 93.1404 70.0645 93.1404C70.8679 93.1404 71.4508 92.6678 71.9077 91.5808V86.1774C71.4981 85.311 70.9152 85.1062 70.4584 85.1062C69.009 85.1062 67.9221 86.713 67.9221 89.2021ZM79.8542 93.8021C79.0665 93.8021 78.3576 93.5658 77.8377 93.1089C77.3336 92.6521 77.0185 91.9747 77.0185 91.0767V86.1774C77.0185 84.5863 76.1364 84.4445 76.0418 84.4445V84.413H79.5391V90.8719C79.5391 91.2658 79.5706 91.7856 79.7754 92.211C79.9802 92.6206 80.3425 92.9199 80.8939 92.9199C82.0124 92.9199 82.8158 91.8014 82.8158 90.2575V86.1774C82.8158 84.5863 81.9336 84.4445 81.8391 84.4445V84.413H85.3364V85.0432C85.5884 84.8384 85.6672 84.6178 85.6829 84.413C85.6829 84.2397 85.6199 83.8301 84.9898 83.6726V83.6569L86.2973 82.7432C86.4864 82.8849 86.7542 83.3733 86.7227 83.7986C86.6754 84.5548 85.872 85.0589 85.3364 85.2952V91.8801C85.3364 93.4712 86.2186 93.613 86.3131 93.613V93.6445H82.8158V92.0062C82.4377 92.8884 81.587 93.8021 79.8542 93.8021ZM92.1698 93.8336C89.1136 93.8336 87.6013 91.6596 87.6013 89.0445C87.6013 86.4295 89.1136 84.2555 92.1698 84.2555C93.3355 84.2555 94.2807 84.5706 95.0054 85.1062C95.1157 84.9486 95.1472 84.7753 95.1314 84.6336C95.1157 84.4603 95.0212 84.0664 94.3753 83.9562V83.9404L95.604 82.9164C95.8088 83.0425 96.1081 83.5151 96.1239 83.9404C96.1396 84.5233 95.6828 84.9959 95.2417 85.311C96.2342 86.1932 96.7383 87.548 96.7383 89.0445C96.7383 91.6596 95.2259 93.8336 92.1698 93.8336ZM90.1849 89.0445C90.1849 91.376 90.7205 93.4555 92.1698 93.4555C93.6191 93.4555 94.1705 91.376 94.1705 89.0445C94.1705 86.713 93.6191 84.6336 92.1698 84.6336C90.7205 84.6336 90.1849 86.713 90.1849 89.0445ZM90.4999 82.4596V82.4123L91.3349 81.2466H91.3821C92.028 82.1445 93.178 83.3733 93.9342 83.6726L93.8869 83.7199C92.9575 83.5938 91.3033 83.074 90.4999 82.4596ZM98.6576 86.1774C98.6576 84.5863 97.7754 84.4445 97.6809 84.4445V84.413H101.178V91.8801C101.178 93.4712 102.06 93.613 102.155 93.613V93.6445H97.6809V93.613C97.7754 93.613 98.6576 93.4712 98.6576 91.8801V86.1774ZM98.5001 82.176C98.5001 81.4356 99.1145 80.8212 99.8549 80.8212C100.595 80.8212 101.21 81.4356 101.21 82.176C101.21 82.9164 100.595 83.5308 99.8549 83.5308C99.1145 83.5308 98.5001 82.9164 98.5001 82.176ZM110.755 93.8336C108.328 93.8336 106.816 91.9747 106.816 89.3596C106.816 86.4295 108.328 84.2555 111.007 84.2555C112.267 84.2555 112.897 84.7753 113.307 85.3425V84.413H116.804V84.4445C116.709 84.4445 115.827 84.5863 115.827 86.1774V95.0308C115.827 96.6219 116.709 96.7637 116.804 96.7637V96.7952H112.33V96.7637C112.424 96.7637 113.307 96.6219 113.307 95.0308V92.3843C112.818 93.2822 111.826 93.8336 110.755 93.8336ZM109.321 89.2021C109.321 91.376 110.093 93.1404 111.463 93.1404C112.267 93.1404 112.85 92.6678 113.307 91.5808V86.1774C112.897 85.311 112.314 85.1062 111.857 85.1062C110.408 85.1062 109.321 86.713 109.321 89.2021ZM121.253 93.8021C120.465 93.8021 119.757 93.5658 119.237 93.1089C118.733 92.6521 118.417 91.9747 118.417 91.0767V86.1774C118.417 84.5863 117.535 84.4445 117.441 84.4445V84.413H120.938V90.8719C120.938 91.2658 120.97 91.7856 121.174 92.211C121.379 92.6206 121.741 92.9199 122.293 92.9199C123.411 92.9199 124.215 91.8014 124.215 90.2575V86.1774C124.215 84.5863 123.333 84.4445 123.238 84.4445V84.413H126.735V91.8801C126.735 93.4712 127.617 93.613 127.712 93.613V93.6445H124.215V92.0062C123.837 92.8884 122.986 93.8021 121.253 93.8021ZM132.13 84.9171C130.366 84.9171 129.263 86.3822 129.122 87.2959H129.074C129.216 85.6418 130.555 84.2555 133.028 84.2555C133.879 84.2555 135.092 84.3815 135.911 85.0747C136.415 85.5158 136.762 86.1774 136.762 87.1856V91.8801C136.762 93.4712 137.644 93.613 137.739 93.613V93.6445H134.241V92.211C133.8 92.9514 132.871 93.7391 131.201 93.7391C129.689 93.7391 128.539 93.0144 128.539 91.4706C128.539 89.4226 130.555 88.0521 134.241 87.9575V87.2486C134.241 86.3507 134.021 85.7521 133.627 85.3897C133.265 85.0589 132.745 84.9171 132.13 84.9171ZM131.059 91.4706C131.059 92.2267 131.485 92.9986 132.351 92.9986C133.406 92.9986 134.147 91.9274 134.241 91.6123V88.3356C131.815 88.3671 131.059 90.3206 131.059 91.4706ZM139.595 86.1774C139.595 84.5863 138.713 84.4445 138.618 84.4445V84.413H142.116V86.0514C142.494 85.1692 143.344 84.2555 145.077 84.2555C145.865 84.2555 146.574 84.4918 147.094 84.9486C147.598 85.4055 147.913 86.0829 147.913 86.9808V91.8801C147.913 93.4712 148.795 93.613 148.89 93.613V93.6445H144.416V93.613C144.51 93.613 145.392 93.4712 145.392 91.8801V87.1856C145.392 86.7918 145.361 86.2719 145.156 85.8466C144.951 85.437 144.589 85.1377 144.037 85.1377C142.919 85.1377 142.116 86.2562 142.116 87.8V91.8801C142.116 93.4712 142.998 93.613 143.092 93.613V93.6445H138.618V93.613C138.713 93.613 139.595 93.4712 139.595 91.8801V86.1774ZM156.55 91.2185C156.55 92.148 156.676 92.9829 157.605 92.9829C158.298 92.9829 158.944 92.5575 159.259 92.2425H159.306C159.196 92.6048 158.046 93.7548 156.439 93.7548C155.069 93.7548 154.029 93.361 154.029 91.5021V84.7911H153.241V84.413H154.029V81.987H156.55V84.413H159.165V84.7911H156.55V91.2185ZM163.16 84.9171C161.396 84.9171 160.293 86.3822 160.151 87.2959H160.104C160.246 85.6418 161.585 84.2555 164.058 84.2555C164.909 84.2555 166.122 84.3815 166.941 85.0747C167.445 85.5158 167.792 86.1774 167.792 87.1856V91.8801C167.792 93.4712 168.674 93.613 168.769 93.613V93.6445H165.271V92.211C164.83 92.9514 163.901 93.7391 162.231 93.7391C160.719 93.7391 159.569 93.0144 159.569 91.4706C159.569 89.4226 161.585 88.0521 165.271 87.9575V87.2486C165.271 86.3507 165.051 85.7521 164.657 85.3897C164.295 85.0589 163.775 84.9171 163.16 84.9171ZM161.428 83.7671L161.459 83.7829C162.373 83.7671 163.507 83.263 164.058 82.9007H164.09C164.641 83.263 165.775 83.7671 166.689 83.7829L166.721 83.7671C165.886 83.389 164.531 82.2075 164.09 81.4829H164.058C163.617 82.2075 162.262 83.389 161.428 83.7671ZM162.089 91.4706C162.089 92.2267 162.515 92.9986 163.381 92.9986C164.436 92.9986 165.177 91.9274 165.271 91.6123V88.3356C162.845 88.3671 162.089 90.3206 162.089 91.4706ZM181.18 93.6445V93.613C181.274 93.613 182.156 93.4712 182.156 91.8801V87.1856C182.156 86.7918 182.125 86.2719 181.92 85.8466C181.715 85.437 181.353 85.1377 180.802 85.1377C179.683 85.1377 178.911 86.2562 178.911 87.8V91.8801C178.911 93.4712 179.793 93.613 179.888 93.613V93.6445H175.414V93.613C175.509 93.613 176.391 93.4712 176.391 91.8801V87.1856C176.391 86.7918 176.359 86.2719 176.154 85.8466C175.95 85.437 175.587 85.1377 175.036 85.1377C173.917 85.1377 173.145 86.2562 173.145 87.8V91.8801C173.145 93.4712 174.028 93.613 174.122 93.613V93.6445H169.648V93.613C169.743 93.613 170.625 93.4712 170.625 91.8801V86.1774C170.625 84.5863 169.743 84.4445 169.648 84.4445V84.413H173.145V86.0514C173.524 85.1692 174.343 84.2555 176.076 84.2555C176.863 84.2555 177.572 84.4918 178.092 84.9486C178.439 85.2637 178.706 85.7048 178.832 86.2404C179.305 85.1692 180.109 84.2555 181.841 84.2555C182.629 84.2555 183.338 84.4918 183.858 84.9486C184.362 85.4055 184.677 86.0829 184.677 86.9808V91.8801C184.677 93.4712 185.559 93.613 185.654 93.613V93.6445H181.18Z" fill="#B8381A"/>
<g clip-path="url(#clip0_569_5665)">
<path d="M120.346 308.453C174.866 308.453 219.064 264.255 219.064 209.734C219.064 155.213 174.866 111.016 120.346 111.016C65.8248 111.016 21.627 155.213 21.627 209.734C21.627 264.255 65.8248 308.453 120.346 308.453Z" fill="#B8381A"/>
<path d="M134.647 146.988C134.671 146.701 134.686 146.412 134.686 146.118C134.686 140.268 129.943 135.526 124.093 135.526C122.608 135.526 121.195 135.833 119.913 136.384C119.047 133.173 116.116 130.809 112.631 130.809C111.28 130.809 110.014 131.165 108.918 131.787C106.269 126.197 100.577 122.33 93.9804 122.33C86.7485 122.33 80.606 126.978 78.3668 133.449C77.8053 133.379 77.2346 133.338 76.654 133.338C69.1139 133.338 63.0012 139.449 62.998 146.988H134.647Z" fill="white"/>
<path d="M84.1426 141.715L72.8594 145.26L92.3181 207.2L103.601 203.656L84.1426 141.715Z" fill="#F7F1EB"/>
<path d="M74.3428 145.514L62.5273 144.979L59.5861 209.841L71.4016 210.377L74.3428 145.514Z" fill="#F7F1EB"/>
<path d="M59.3188 146.848L47.6914 144.682L35.7967 208.512L47.4241 210.678L59.3188 146.848Z" fill="#F7F1EB"/>
<path d="M37.9762 145.718L26.1797 144.871L21.5309 209.63L33.3274 210.476L37.9762 145.718Z" fill="#F7F1EB"/>
<path d="M66.4799 169.695L32.1523 158.805L30.5816 163.756L64.9092 174.646L66.4799 169.695Z" fill="#F7F1EB"/>
<path d="M89.5499 177.433L55.748 189.861L57.5406 194.737L91.3424 182.309L89.5499 177.433Z" fill="#F7F1EB"/>
<path d="M140.566 211.319H126.928V149.057L133.747 138.439L140.566 149.057V211.319Z" fill="#F7F1EB"/>
<path d="M160.189 211.319H146.551V149.057L153.37 138.439L160.189 149.057V211.319Z" fill="#F7F1EB"/>
<path d="M179.81 211.319H166.172V149.057L172.991 138.439L179.81 149.057V211.319Z" fill="#F7F1EB"/>
<path d="M199.433 211.319H185.795V149.057L192.614 138.439L199.433 149.057V211.319Z" fill="#F7F1EB"/>
<path d="M219.056 211.319H205.418V149.057L212.237 138.439L219.056 149.057V211.319Z" fill="#F7F1EB"/>
<path d="M211.697 160.471H131.156V166.178H211.697V160.471Z" fill="#F7F1EB"/>
<path d="M211.697 194.979H129.744V200.686H211.697V194.979Z" fill="#F7F1EB"/>
<path d="M67.83 250.643L36.249 246.018L35.5918 279.955L63.0827 280.853C63.0827 280.853 60.7091 271.682 50.9988 266.827L67.83 250.643Z" fill="#F9DD65"/>
<path d="M89.3596 209.485C89.3596 209.485 137.069 194.474 150.148 206.579C162.183 217.717 147.776 261.057 147.776 261.057L126.296 259.295L124.496 236.947C124.496 236.947 99.0491 245.382 92.8327 240.406C86.7603 235.545 89.3596 209.485 89.3596 209.485Z" fill="#8B865C"/>
<path d="M112.138 218.383C112.138 218.383 118.49 267.994 104.266 278.73C91.1779 288.609 51.0625 266.777 51.0625 266.777L57.4761 241.56L78.9034 248.119C78.9034 248.119 75.0941 221.583 81.0899 216.343C86.947 211.224 112.138 218.383 112.138 218.383Z" fill="#8B865C"/>
<path d="M113.538 240.058C113.479 240.058 113.431 240.01 113.43 239.951C113.399 237.497 113.317 234.943 113.188 232.36C113.185 232.3 113.23 232.249 113.29 232.246C113.349 232.242 113.4 232.289 113.403 232.349C113.533 234.935 113.615 237.492 113.646 239.948C113.646 240.008 113.599 240.057 113.539 240.058C113.539 240.058 113.538 240.058 113.538 240.058Z" fill="#9E9569"/>
<path d="M99.0513 260.596C99.0143 260.596 98.9782 260.577 98.9582 260.543C96.0741 255.632 90.8664 252.408 87.0056 250.569C82.8181 248.574 79.2711 247.733 79.2357 247.725C79.1776 247.711 79.1416 247.653 79.1552 247.595C79.1687 247.537 79.2267 247.501 79.2848 247.515C79.3204 247.523 82.89 248.369 87.0983 250.374C90.9864 252.226 96.2324 255.475 99.1442 260.434C99.1743 260.485 99.1571 260.551 99.1059 260.582C99.0886 260.592 99.0698 260.596 99.0513 260.596Z" fill="#9E9569"/>
<path d="M170.101 278.175H125.102L129.312 259.531L146.874 260.972L159.622 264.861C165.87 266.553 170.159 272.002 170.101 278.175Z" fill="#F9DD65"/>
<path d="M131.849 174.389C155.039 192.677 163.71 210.247 158.636 214.138C155.693 216.395 145.238 210.728 135.8 201.352C134.064 194.173 127.685 179.301 131.849 174.389Z" fill="white"/>
<path d="M94.266 178.831C101.023 171.984 113.648 165.848 127.549 171.154C141.874 176.622 152.426 188.743 152.426 188.743L136.704 202.449L129.24 222.995L74.0938 225.818C74.0938 225.818 83.3337 189.909 94.266 178.831Z" fill="#F9DD65"/>
<path d="M95.5908 189.406C94.9835 215.997 120.232 237.756 128.46 231.834C135.266 226.935 117.573 201.565 112.559 194.28C104.821 189.9 101.28 192.115 95.5908 189.406Z" fill="white"/>
<path d="M113.911 182.454L89.7598 190.486L95.231 206.937L119.382 198.904L113.911 182.454Z" fill="#F9DD65"/>
<path d="M95.1587 207.08L91.7477 196.823C91.7289 196.766 91.7595 196.705 91.8161 196.686C91.8725 196.667 91.9338 196.698 91.9526 196.755L95.2955 206.807L119.242 198.843L115.355 187.156C115.337 187.099 115.367 187.038 115.424 187.019C115.48 187 115.541 187.031 115.56 187.088L119.515 198.98L119.413 199.014L95.1587 207.08Z" fill="#363E44"/>
<path d="M146.381 203.824C146.381 203.824 146.381 203.824 146.381 203.823C157.477 193.38 165.15 185.758 167.611 183.498C167.869 183.261 168.322 182.841 169.036 182.476C171.684 181.121 173.681 182.68 177.115 182.526C181.012 182.351 183.107 180.046 183.782 180.778C184.252 181.287 183.706 182.379 181.873 184.02C181.873 184.02 181.873 184.02 181.873 184.02C183.41 182.934 185.557 181.551 186.155 182.402C186.793 183.421 184.461 185.342 182.993 186.435C184.769 185.112 186.11 184.94 186.325 185.497C186.664 186.375 185.525 187.721 183.109 189.378L183.109 189.378C185.097 188.7 185.68 188.832 185.75 189.371C185.878 190.355 183.866 191.68 181.908 192.579C179.704 193.591 177.644 193.611 176.344 193.592C176.344 193.592 176.343 193.592 176.343 193.593C169.33 201.713 164.831 206.944 159.3 213.617C158.168 214.983 156.11 215.085 154.847 213.841C151.432 210.476 149.569 208.521 146.381 203.824Z" fill="white"/>
<path d="M146.506 203.813C146.478 203.813 146.449 203.802 146.428 203.779C146.387 203.736 146.389 203.667 146.432 203.627C148.881 201.321 151.309 199.017 153.853 196.583C153.896 196.542 153.964 196.543 154.005 196.586C154.047 196.629 154.045 196.697 154.002 196.738C151.457 199.173 149.03 201.478 146.58 203.784C146.559 203.803 146.533 203.813 146.506 203.813Z" fill="#363E44"/>
<path d="M173.998 183.401C176.634 180.582 176.987 179.006 176.527 178.603C175.753 177.924 172.518 179.41 168.146 183.046C169.768 183.291 172.377 183.156 173.998 183.401Z" fill="white"/>
<path d="M169.791 203.263C169.76 203.263 169.73 203.249 169.709 203.225L159.321 191.085C159.283 191.042 159.287 190.976 159.329 190.937C159.686 190.6 168.077 182.697 168.376 182.474C172.957 178.679 176.01 177.856 177.002 178.726C177.525 179.185 177.729 179.661 175.868 181.927C176.565 181.997 177.598 181.975 178.429 181.761C179.547 181.473 180.637 180.96 181.597 180.508C182.937 179.878 183.995 179.379 184.559 179.77C184.773 179.917 184.898 180.143 184.923 180.422C184.963 180.885 184.733 181.458 184.293 182.025C185.108 181.596 186.518 181.007 187.028 181.732C187.231 182.056 187.275 182.425 187.161 182.831C186.986 183.456 186.462 184.065 185.946 184.494C186.27 184.429 186.559 184.442 186.801 184.536C187.091 184.648 187.307 184.87 187.426 185.178C187.805 186.16 186.384 187.411 185.034 188.542C185.508 188.539 186.319 188.603 186.557 189.044C186.693 189.296 186.706 189.589 186.597 189.915C186.286 190.843 184.99 191.946 183.296 192.724C181.114 193.725 179.264 194.204 177.653 194.193C174.752 197.553 169.921 203.169 169.873 203.225C169.852 203.249 169.823 203.263 169.791 203.263ZM159.552 191.023L169.791 202.989C170.444 202.23 174.832 197.13 177.522 194.015C177.537 193.998 177.557 193.986 177.579 193.98C177.588 193.978 177.598 193.977 177.606 193.977C179.202 194.001 181.032 193.525 183.206 192.527C184.823 191.785 186.104 190.707 186.393 189.846C186.482 189.58 186.473 189.344 186.367 189.146C186.162 188.766 185.208 188.733 184.732 188.769C184.687 188.772 184.643 188.747 184.624 188.706C184.604 188.662 184.616 188.61 184.653 188.579L184.682 188.554C185.968 187.481 187.568 186.145 187.225 185.256C187.128 185.006 186.955 184.826 186.723 184.737C186.351 184.593 185.833 184.678 185.226 184.983C185.173 185.009 185.108 184.988 185.081 184.935C185.055 184.881 185.076 184.817 185.129 184.79C185.72 184.493 186.709 183.646 186.954 182.772C187.05 182.427 187.015 182.117 186.848 181.851C186.381 181.187 184.669 182.01 183.829 182.538C183.789 182.564 183.734 182.56 183.699 182.527C183.677 182.507 183.664 182.479 183.663 182.449C183.663 182.42 183.674 182.391 183.695 182.37C184.366 181.709 184.754 180.97 184.708 180.441C184.689 180.224 184.598 180.058 184.437 179.947C183.975 179.628 182.916 180.126 181.689 180.703C180.72 181.16 179.621 181.677 178.483 181.97C177.543 182.212 176.352 182.216 175.644 182.117C175.605 182.112 175.572 182.086 175.558 182.049C175.544 182.013 175.551 181.972 175.576 181.941C177.587 179.526 177.234 179.216 176.86 178.888C176.218 178.326 173.647 178.387 168.509 182.644C168.275 182.818 162.592 188.159 159.552 191.023Z" fill="#F9DD65"/>
<path d="M170.959 182.166C170.903 182.166 170.855 182.122 170.852 182.065C170.848 182.005 170.894 181.954 170.953 181.95L171.129 181.94C172.392 181.864 174.507 181.737 175.897 181.929C175.956 181.937 175.998 181.991 175.989 182.05C175.981 182.109 175.927 182.15 175.868 182.142C174.498 181.954 172.397 182.08 171.141 182.155L170.966 182.166C170.964 182.166 170.962 182.166 170.959 182.166Z" fill="#F9DD65"/>
<path d="M178.51 185.14C178.455 185.14 178.408 185.097 178.403 185.041C178.398 184.982 178.442 184.929 178.501 184.924C178.907 184.89 179.368 184.85 179.861 184.682C180.803 184.358 182.523 183.401 183.853 182.264C183.899 182.226 183.967 182.231 184.005 182.276C184.044 182.321 184.039 182.389 183.994 182.428C182.643 183.583 180.892 184.556 179.931 184.886C179.413 185.063 178.917 185.105 178.519 185.139C178.516 185.14 178.513 185.14 178.51 185.14Z" fill="#F9DD65"/>
<path d="M179.854 187.373C179.798 187.373 179.751 187.331 179.746 187.275C179.741 187.215 179.785 187.163 179.845 187.158C180.25 187.123 181.19 186.899 181.672 186.722C182.616 186.375 183.98 185.53 185.184 184.765C185.234 184.733 185.301 184.748 185.333 184.798C185.365 184.848 185.35 184.915 185.299 184.947C184.086 185.718 182.711 186.57 181.747 186.924C181.251 187.107 180.283 187.337 179.863 187.373C179.86 187.373 179.857 187.373 179.854 187.373Z" fill="#F9DD65"/>
<path d="M179.793 190.545C179.738 190.545 179.691 190.502 179.686 190.446C179.681 190.387 179.725 190.335 179.784 190.329C180.246 190.29 180.705 190.208 181.15 190.085C181.933 189.868 184.41 188.721 184.83 188.47C184.881 188.44 184.948 188.457 184.978 188.508C185.009 188.559 184.992 188.625 184.941 188.656C184.503 188.916 182.025 190.066 181.208 190.293C180.75 190.419 180.277 190.504 179.802 190.545C179.799 190.545 179.796 190.545 179.793 190.545Z" fill="#F9DD65"/>
<path d="M125.554 215.736C131.724 220.484 146.81 230.945 148.241 232.025C150.918 234.044 165.002 245.249 163.605 247.457C162.938 248.512 160.127 246.475 159.197 245.76C159.663 246.708 161.848 250.157 160.819 251.105C159.61 252.219 156.377 248.508 156.29 248.482C156.861 249.397 159.284 252.951 158.54 253.692C157.572 254.655 154.327 252.025 153.392 251.193C153.376 251.408 155.679 255.079 155.062 255.644C154.378 256.27 151.293 253.89 149.983 253.061C147.604 251.269 137.982 244.803 133.159 241.884C121.832 235.029 118.801 231.93 113.907 227.652C111.991 225.978 121.365 215.863 125.554 215.736Z" fill="white"/>
<path d="M155.493 257.014C154.26 257.014 152.02 255.673 150.958 254.717C148.394 252.787 132.719 242.599 132.561 242.497C132.533 242.478 132.515 242.448 132.512 242.415C132.509 242.382 132.522 242.349 132.547 242.327L147.047 229.017C147.086 228.98 147.148 228.979 147.189 229.014C147.237 229.054 152.045 233.125 156.604 237.439C159.284 239.974 161.354 242.097 162.76 243.747C164.572 245.876 165.268 247.204 164.886 247.809C164.689 248.12 164.37 248.316 163.939 248.393C163.039 248.552 161.773 248.151 160.914 247.631C160.989 247.761 161.075 247.904 161.166 248.057C161.986 249.432 163.225 251.509 162.259 252.398C161.294 253.288 159.54 252.004 158.451 251.052C159.383 252.288 160.452 253.893 159.726 254.824C159.55 255.049 159.301 255.178 158.988 255.206C157.767 255.317 155.824 253.866 154.949 253.153C154.974 253.193 154.999 253.233 155.025 253.273C155.71 254.353 156.857 256.16 156.113 256.822C155.964 256.956 155.75 257.014 155.493 257.014ZM132.795 242.392C134.245 243.334 148.636 252.699 151.095 254.55C152.49 255.805 155.281 257.276 155.97 256.661C156.577 256.121 155.406 254.276 154.843 253.389C154.525 252.888 154.457 252.772 154.463 252.685C154.466 252.644 154.492 252.608 154.53 252.593C154.568 252.577 154.612 252.585 154.643 252.612C155.692 253.546 157.781 255.099 158.968 254.991C159.224 254.968 159.416 254.87 159.556 254.691C160.274 253.77 158.803 251.859 157.923 250.718C157.786 250.54 157.657 250.373 157.553 250.23C157.525 250.193 157.525 250.142 157.552 250.104C157.578 250.066 157.626 250.05 157.671 250.063C157.707 250.074 157.725 250.09 157.908 250.264C159.989 252.228 161.403 252.893 162.113 252.24C162.949 251.469 161.717 249.402 160.981 248.167C160.783 247.836 160.612 247.549 160.508 247.338C160.486 247.293 160.498 247.239 160.537 247.207C160.576 247.175 160.631 247.174 160.671 247.205C161.356 247.732 162.859 248.365 163.901 248.18C164.27 248.115 164.54 247.951 164.703 247.693C165.91 245.785 152.493 233.787 147.122 229.24L132.795 242.392Z" fill="#F9DD65"/>
<path d="M159.305 245.793C159.27 245.793 159.235 245.776 159.214 245.744C158.835 245.159 158.412 244.596 157.957 244.071C157.14 243.126 156.203 242.281 155.171 241.558C155.122 241.523 155.11 241.456 155.145 241.407C155.179 241.359 155.246 241.347 155.295 241.381C156.341 242.114 157.292 242.972 158.12 243.929C158.581 244.462 159.01 245.033 159.395 245.626C159.428 245.676 159.414 245.743 159.363 245.776C159.345 245.788 159.325 245.793 159.305 245.793Z" fill="#363E44"/>
<path d="M156.394 248.561C156.363 248.561 156.332 248.548 156.311 248.522C156.218 248.408 156.123 248.294 156.024 248.18C155.206 247.236 154.269 246.39 153.237 245.667C153.189 245.633 153.177 245.566 153.211 245.517C153.245 245.468 153.312 245.456 153.361 245.49C154.407 246.224 155.358 247.081 156.187 248.039C156.287 248.155 156.384 248.27 156.478 248.385C156.516 248.432 156.509 248.5 156.463 248.537C156.442 248.554 156.418 248.561 156.394 248.561Z" fill="#363E44"/>
<path d="M153.349 251.224C153.322 251.224 153.295 251.213 153.274 251.193C152.689 250.624 152.051 250.096 151.378 249.624C151.329 249.59 151.317 249.523 151.352 249.474C151.386 249.425 151.453 249.413 151.502 249.447C152.184 249.925 152.831 250.461 153.425 251.038C153.467 251.08 153.468 251.148 153.427 251.191C153.405 251.213 153.377 251.224 153.349 251.224Z" fill="#363E44"/>
<path d="M137.678 149.492C138.074 149.579 141.859 150.472 143.263 153.713C144.307 156.125 143.725 158.597 142.121 162.596C140.233 167.305 138.446 169.856 136.752 170.357C134.075 171.149 128.601 165.663 127.497 160.659C126.699 157.046 128.17 153.203 131.025 150.812C133.874 148.426 137.425 149.436 137.678 149.492Z" fill="white"/>
<path d="M124.739 178.109L123.982 177.751C121.705 176.675 120.731 173.955 121.808 171.678L127.299 160.06C128.376 157.783 131.095 156.809 133.372 157.886L134.129 158.243C136.406 159.32 137.38 162.039 136.304 164.317L130.812 175.934C129.736 178.212 127.017 179.185 124.739 178.109Z" fill="white"/>
<path d="M133.834 169.698C133.815 169.698 133.795 169.693 133.777 169.682C131.302 168.127 128.224 164.444 127.393 160.682C127.38 160.624 127.417 160.566 127.475 160.553C127.534 160.54 127.591 160.577 127.604 160.636C128.392 164.206 131.42 167.946 133.892 169.499C133.942 169.53 133.957 169.597 133.926 169.648C133.905 169.68 133.87 169.698 133.834 169.698Z" fill="#363E44"/>
<path d="M132.981 155.553C131.175 155.862 130.008 156.883 129.222 158.769C128.577 160.319 129.601 163.07 128.331 165.434C126.833 168.224 123.091 168.725 120.736 167.513C118.86 166.548 118.408 164.286 118.334 163.884C118.411 163.969 119.129 164.735 120.194 164.62C120.919 164.541 121.376 164.101 121.511 163.961C121.256 163.929 120.521 163.801 119.961 163.186C119.297 162.456 119.149 161.335 119.574 160.319C120.435 161.608 121.416 161.494 121.873 161.52C122.169 161.537 123.94 161.158 125.541 158.575C127.104 156.055 127.541 155.483 128.602 155.01C129.576 154.577 130.96 154.555 132.981 155.553Z" fill="#363E44"/>
<path d="M131.61 161.894C133.089 161.701 134.103 160.128 133.875 158.379C133.647 156.63 132.265 155.368 130.786 155.56C129.308 155.752 128.294 157.326 128.521 159.075C128.749 160.824 130.132 162.086 131.61 161.894Z" fill="white"/>
<path d="M129.913 159.337C129.867 159.337 129.824 159.307 129.81 159.261C129.776 159.151 129.751 159.037 129.736 158.922C129.677 158.467 129.771 158.019 130.003 157.66C130.238 157.295 130.585 157.066 130.98 157.015C131.181 156.989 131.381 157.01 131.576 157.077C131.632 157.097 131.662 157.159 131.642 157.215C131.622 157.271 131.561 157.301 131.505 157.281C131.342 157.225 131.175 157.207 131.008 157.229C130.677 157.272 130.384 157.466 130.184 157.777C129.98 158.093 129.897 158.49 129.95 158.894C129.963 158.997 129.986 159.099 130.016 159.197C130.033 159.254 130.002 159.314 129.945 159.332C129.934 159.335 129.923 159.337 129.913 159.337Z" fill="#363E44"/>
<path d="M134.572 158.105C134.572 158.105 136.014 158.137 137.346 158.892C137.629 159.053 135.81 161.018 135.613 160.737C134.751 159.502 134.572 158.105 134.572 158.105Z" fill="#F9DD65"/>
<path d="M138.166 159.478C137.909 159.246 137.63 159.055 137.347 158.895C136.462 159.174 135.826 159.887 135.613 160.735C135.81 161.016 136.041 161.289 136.315 161.535C137.788 162.862 139.909 162.909 139.909 162.909C139.909 162.909 139.64 160.805 138.166 159.478Z" fill="#373E44"/>
<path d="M137.411 166.459C136.996 166.459 136.61 166.236 136.429 165.874C136.16 165.337 136.493 164.817 136.507 164.795C136.54 164.745 136.607 164.731 136.657 164.764C136.707 164.796 136.721 164.863 136.688 164.913C136.685 164.917 136.408 165.351 136.622 165.777C136.791 166.115 137.186 166.301 137.581 166.228C137.64 166.218 137.696 166.256 137.707 166.315C137.717 166.373 137.678 166.429 137.62 166.44C137.55 166.453 137.48 166.459 137.411 166.459Z" fill="#363E44"/>
<path d="M140.268 165.614C140.216 165.614 140.17 165.576 140.162 165.523C140.152 165.465 140.192 165.409 140.251 165.4C140.734 165.321 141.026 165.176 141.094 164.98C141.131 164.877 141.101 164.783 141.042 164.612C140.995 164.479 140.937 164.313 140.912 164.093C140.875 163.769 140.923 163.435 141.054 163.1C141.076 163.044 141.139 163.017 141.194 163.039C141.25 163.06 141.277 163.123 141.255 163.179C141.137 163.48 141.094 163.78 141.126 164.069C141.148 164.265 141.2 164.411 141.245 164.541C141.307 164.719 141.361 164.872 141.298 165.052C141.199 165.334 140.868 165.518 140.285 165.613C140.279 165.614 140.274 165.614 140.268 165.614Z" fill="#363E44"/>
<path d="M144.606 156.09C143.921 151.288 140.395 147.699 136.382 147.365C131.612 146.969 126.984 151.243 126.627 157.129C129.344 157.008 132.085 156.87 134.852 156.713C138.14 156.527 141.392 156.319 144.606 156.09Z" fill="#F9DD65"/>
<path d="M118.67 157.548C118.614 157.548 118.566 157.504 118.563 157.447C118.559 157.387 118.604 157.336 118.664 157.332L135.3 156.299C135.361 156.296 135.411 156.341 135.414 156.4C135.418 156.459 135.373 156.511 135.313 156.514L118.677 157.548C118.675 157.548 118.673 157.548 118.67 157.548Z" fill="#F9DD65"/>
<path d="M139.26 154.856C140.745 154.752 142.231 154.649 143.716 154.546C145.095 154.117 145.867 153.568 145.77 152.531C145.692 151.704 144.512 151.302 143.793 151.369C141.301 151.601 139.388 154.615 139.26 154.856Z" fill="#363E44"/>
<path d="M182.733 238.245C183.156 242.646 183.298 247.887 182.733 253.745C181.757 263.854 179.032 272.081 176.533 277.924C182.32 278.751 188.106 279.578 193.893 280.404C192.014 275.865 190.182 270.356 188.933 263.975C186.408 251.073 187.314 239.97 188.623 232.355C186.66 234.319 184.696 236.282 182.733 238.245Z" fill="#E6D0BE"/>
<path d="M207.318 218.511C206.483 217.545 205.287 217.464 203.643 217.943C203.65 217.328 203.65 216.703 203.64 216.066C204.973 214.216 206.233 211.899 205.323 210.502C205.18 210.283 204.622 209.505 203.289 209.636C203.095 207.505 202.837 205.427 202.52 203.412C204.381 196.79 204.62 193.516 203.117 192.646C202.498 192.288 201.615 192.24 200.299 193.15C200.186 192.748 200.071 192.35 199.954 191.955C201.026 189.048 202.282 184.87 200.543 183.455C200.163 183.145 198.968 182.467 197.057 183.885C196.865 183.437 196.669 182.998 196.472 182.567C197.599 178.307 197.124 176.087 196.132 175.577C195.52 175.262 194.402 175.154 193.112 176.385C190.095 171.751 186.911 169.117 184.265 169.117C181.345 169.117 178.212 171.962 175.298 177.024C174.624 176.321 173.939 175.966 173.286 176.207C171.785 176.762 171.708 180.969 171.887 184.238C171.574 185.032 171.266 185.853 170.965 186.7C169.637 185.395 168.949 185.434 168.349 185.713C167.359 186.174 167.431 190.09 168.547 194.571C168.435 194.994 168.325 195.422 168.216 195.853C166.558 193.787 166.045 194.235 165.513 194.431C163.899 195.026 164.83 201.696 165.874 207.321C165.727 208.236 165.585 209.162 165.452 210.102C164.319 218.084 164.603 224.416 165.836 229.383C164.292 229.086 163.591 229.244 163.36 229.619C162.708 230.678 165.177 234.446 169.372 237.494C173.366 243.248 179.332 245.375 184.769 245.375C192.44 245.375 198.694 240.917 201.705 231.483C206.55 226.378 208.945 220.393 207.318 218.511Z" fill="#00AB4C"/>
<path d="M168.526 220.317C168.472 220.317 168.426 220.277 168.419 220.223C167.758 215.244 168.232 212.49 169.787 212.26C171.391 212.02 173.022 215.056 173.718 216.548C173.392 214.279 173.683 213.024 174.602 212.72C175.889 212.295 177.988 214.027 179.382 216.663C179.41 216.716 179.39 216.781 179.337 216.809C179.284 216.837 179.219 216.817 179.191 216.764C177.845 214.218 175.859 212.532 174.67 212.925C173.762 213.225 173.567 214.676 174.073 217.362C174.083 217.417 174.051 217.47 173.997 217.486C173.944 217.501 173.888 217.474 173.867 217.422C173.28 215.966 171.41 212.238 169.819 212.473C168.421 212.68 168 215.423 168.633 220.194C168.641 220.253 168.599 220.308 168.54 220.316C168.535 220.316 168.53 220.317 168.526 220.317Z" fill="#E6D0BE"/>
<path d="M196.536 234.183C196.531 234.183 196.526 234.183 196.521 234.183C196.462 234.175 196.421 234.12 196.429 234.061C196.961 230.049 196.611 227.744 195.443 227.571C194.11 227.37 192.542 230.508 192.048 231.733C192.028 231.784 191.971 231.811 191.918 231.796C191.865 231.78 191.832 231.727 191.842 231.672C192.261 229.449 192.096 228.197 191.35 227.951C190.371 227.627 188.671 229.076 187.559 231.179C187.531 231.232 187.466 231.252 187.413 231.224C187.36 231.196 187.34 231.131 187.368 231.078C188.547 228.849 190.326 227.385 191.418 227.746C192.186 228 192.441 229.029 192.19 230.882C192.803 229.59 194.142 227.16 195.475 227.357C196.797 227.553 197.201 229.881 196.642 234.09C196.635 234.144 196.589 234.183 196.536 234.183Z" fill="#E6D0BE"/>
<path d="M193.919 200.879C193.914 200.879 193.909 200.878 193.904 200.878C193.845 200.87 193.804 200.816 193.812 200.757C194.344 196.744 193.994 194.439 192.826 194.266C191.498 194.069 189.925 197.203 189.431 198.428C189.41 198.479 189.354 198.507 189.301 198.491C189.248 198.476 189.215 198.422 189.225 198.368C189.644 196.145 189.478 194.892 188.733 194.646C187.755 194.323 186.054 195.771 184.942 197.875C184.914 197.927 184.849 197.947 184.796 197.919C184.743 197.892 184.723 197.826 184.751 197.774C185.93 195.544 187.709 194.08 188.801 194.441C189.569 194.695 189.824 195.724 189.573 197.577C190.185 196.285 191.528 193.856 192.857 194.052C194.18 194.248 194.583 196.577 194.025 200.785C194.018 200.839 193.972 200.879 193.919 200.879Z" fill="#E6D0BE"/>
<path d="M203.756 282.479C204.014 281.864 204.184 281.201 204.237 280.499C204.504 276.987 201.874 273.923 198.361 273.656C196.021 273.478 193.88 274.589 192.633 276.388C191.731 273.331 189.019 270.999 185.652 270.743C184.619 270.665 183.618 270.791 182.686 271.084C181.757 270.143 180.501 269.518 179.079 269.41C178.162 269.34 177.282 269.497 176.487 269.825C175.989 266.88 173.541 264.539 170.43 264.303C166.765 264.024 163.568 266.769 163.289 270.434C163.288 270.45 163.288 270.465 163.287 270.481C162.568 270.175 161.788 269.978 160.965 269.915C157.297 269.636 154.055 272.1 153.25 275.576C152.999 275.518 152.744 275.472 152.479 275.452C149.654 275.238 147.19 277.353 146.976 280.178C146.914 280.991 147.05 281.771 147.336 282.479L203.756 282.479Z" fill="#716D4F"/>
<path d="M48.8249 232.608C48.817 232.608 48.809 232.608 48.8009 232.606C48.7429 232.593 48.7064 232.535 48.7194 232.477L53.7091 210.38L48.7217 194.35C48.7171 194.335 48.7157 194.319 48.7178 194.303L51.9296 170.394C51.9375 170.335 51.9919 170.294 52.0509 170.302C52.11 170.31 52.1514 170.364 52.1434 170.423L48.9349 194.308L53.9238 210.344C53.9294 210.362 53.9302 210.381 53.9261 210.4L48.93 232.524C48.9186 232.574 48.8742 232.608 48.8249 232.608Z" fill="#D3BBA3"/>
<path d="M53.7398 210.502C53.7243 210.502 53.7085 210.499 53.6935 210.492L38.7058 203.355C38.6724 203.339 38.6495 203.307 38.645 203.27L35.7986 180.143L22.6606 175.882C22.6039 175.864 22.5729 175.803 22.5912 175.746C22.6095 175.69 22.6702 175.659 22.7271 175.677L35.9306 179.959C35.9706 179.972 35.9994 180.007 36.0044 180.049L38.852 203.185L53.7862 210.297C53.84 210.322 53.8629 210.387 53.8373 210.441C53.8189 210.479 53.7802 210.502 53.7398 210.502Z" fill="#D3BBA3"/>
<path d="M52.5218 205.996C52.5023 205.996 52.4826 205.991 52.4648 205.98C52.4142 205.948 52.3989 205.882 52.4304 205.831L60.3715 193.095C60.3774 193.086 60.3847 193.077 60.3932 193.07L71.0693 183.999L69.7334 159.821C69.73 159.761 69.7757 159.711 69.835 159.707C69.8968 159.704 69.9454 159.75 69.9487 159.809L71.2875 184.04C71.2895 184.074 71.2755 184.107 71.2497 184.129L60.5456 193.223L52.6134 205.945C52.593 205.978 52.5579 205.996 52.5218 205.996Z" fill="#D3BBA3"/>
<path d="M21.4654 195.932C21.4289 195.932 21.3933 195.914 21.3731 195.88C21.3422 195.829 21.3584 195.763 21.4094 195.732L28.0706 191.688C28.0913 191.675 28.1162 191.67 28.1403 191.673L37.4183 192.862C37.4775 192.87 37.5193 192.924 37.5117 192.983C37.5041 193.042 37.4507 193.085 37.3909 193.076L28.1503 191.892L21.5214 195.916C21.5037 195.927 21.4845 195.932 21.4654 195.932Z" fill="#D3BBA3"/>
<path d="M24.7166 193.79C24.6759 193.79 24.6371 193.767 24.6188 193.728L22.9535 190.159C22.9284 190.105 22.9516 190.041 23.0056 190.016C23.0597 189.991 23.1239 190.014 23.149 190.068L24.8143 193.637C24.8394 193.691 24.8162 193.755 24.7622 193.78C24.7474 193.787 24.7318 193.79 24.7166 193.79Z" fill="#D3BBA3"/>
<path d="M31.8541 178.745C31.8523 178.745 31.8507 178.745 31.8488 178.745C31.7893 178.742 31.7433 178.691 31.7462 178.632L31.9841 173.636C31.9869 173.576 32.0404 173.532 32.0971 173.533C32.1566 173.536 32.2026 173.587 32.1997 173.646L31.9618 178.642C31.9591 178.7 31.9113 178.745 31.8541 178.745Z" fill="#D3BBA3"/>
<path d="M38.8911 203.228C38.8798 203.228 38.8683 203.226 38.857 203.222C38.8005 203.203 38.7699 203.142 38.7888 203.086L41.1677 195.949C41.1865 195.892 41.2473 195.862 41.3042 195.881C41.3606 195.899 41.3913 195.961 41.3724 196.017L38.9934 203.154C38.9783 203.199 38.9363 203.228 38.8911 203.228Z" fill="#D3BBA3"/>
<path d="M49.6556 187.468C49.6091 187.468 49.5662 187.438 49.5522 187.391L48.1249 182.633L46.4577 175.251C46.4447 175.193 46.4811 175.135 46.5392 175.122C46.5972 175.109 46.6551 175.145 46.6682 175.203L48.3335 182.578L49.7589 187.329C49.776 187.386 49.7436 187.446 49.6865 187.463C49.6762 187.466 49.6657 187.468 49.6556 187.468Z" fill="#D3BBA3"/>
<path d="M71.1795 184.156C71.1426 184.156 71.1068 184.137 71.0866 184.103L64.1948 172.487C64.1644 172.436 64.1813 172.37 64.2325 172.339C64.2837 172.309 64.3498 172.326 64.3804 172.377L71.2723 183.993C71.3026 184.044 71.2858 184.11 71.2345 184.141C71.2173 184.151 71.1983 184.156 71.1795 184.156Z" fill="#D3BBA3"/>
<path d="M67.855 195.616C67.8439 195.616 67.833 195.614 67.8225 195.611L60.4856 193.295C60.4287 193.277 60.3972 193.216 60.4152 193.159C60.433 193.103 60.4939 193.071 60.5505 193.089L67.869 195.4L77.3657 194.925C77.4241 194.92 77.4759 194.968 77.4789 195.027C77.4818 195.087 77.4361 195.137 77.3765 195.14L67.8605 195.616C67.8586 195.616 67.8568 195.616 67.855 195.616Z" fill="#D3BBA3"/>
<path d="M74.7553 199.898C74.7133 199.898 74.6732 199.873 74.6559 199.832L72.7526 195.312C72.7295 195.257 72.7553 195.194 72.8102 195.171C72.8645 195.148 72.9284 195.173 72.9515 195.228L74.8548 199.748C74.8779 199.803 74.8522 199.867 74.7972 199.89C74.7836 199.895 74.7694 199.898 74.7553 199.898Z" fill="#D3BBA3"/>
<path d="M70.9048 177.618C70.8683 177.618 70.8326 177.599 70.8124 177.566C70.7816 177.515 70.798 177.448 70.8492 177.418L74.9001 174.978L75.841 171.215C75.8554 171.157 75.9139 171.121 75.9717 171.136C76.0296 171.151 76.0648 171.209 76.0503 171.267L75.0987 175.074C75.0918 175.101 75.0741 175.125 75.0497 175.14L70.9606 177.602C70.943 177.613 70.9238 177.618 70.9048 177.618Z" fill="#D3BBA3"/>
<path d="M66.7177 176.713C66.7129 176.713 66.7082 176.713 66.7033 176.712L62.1308 176.105C62.0717 176.098 62.0301 176.043 62.0381 175.984C62.046 175.925 62.0994 175.884 62.1592 175.892L66.7318 176.498C66.7908 176.506 66.8325 176.56 66.8245 176.62C66.8174 176.674 66.771 176.713 66.7177 176.713Z" fill="#D3BBA3"/>
<path d="M69.9974 164.211C69.9769 164.211 69.9561 164.205 69.9376 164.193L65.6555 161.338C65.6059 161.305 65.5925 161.238 65.6256 161.189C65.6586 161.139 65.7254 161.126 65.7753 161.159L70.0574 164.014C70.107 164.047 70.1204 164.114 70.0873 164.163C70.0665 164.194 70.0322 164.211 69.9974 164.211Z" fill="#D3BBA3"/>
<path d="M41.6016 184.663C41.6016 184.663 44.1133 184.478 45.6707 182.811C47.2281 181.143 47.2414 178.625 47.2414 178.625C47.2414 178.625 44.7296 178.81 43.1722 180.477C41.6148 182.144 41.6016 184.663 41.6016 184.663Z" fill="#D3BBA3"/>
<path d="M80.7872 179.81C80.7872 179.81 80.4218 177.55 78.7891 176.272C77.1565 174.993 74.875 175.179 74.875 175.179C74.875 175.179 75.2405 177.439 76.8731 178.718C78.5057 179.997 80.7872 179.81 80.7872 179.81Z" fill="#D3BBA3"/>
<path d="M39.4421 225.849C37.0156 225.81 35.082 223.734 35.082 223.734C35.082 223.734 37.0824 221.723 39.5088 221.762C41.9353 221.802 43.8689 223.877 43.8689 223.877C43.8689 223.877 41.8685 225.889 39.4421 225.849Z" fill="#E6D0BE"/>
<path d="M40.4172 233.282C40.3914 233.282 40.3656 233.273 40.345 233.254C40.2576 233.176 38.2006 231.299 38.1178 228.855C38.0349 226.412 39.9598 224.4 40.0418 224.316C40.0824 224.274 40.1483 224.272 40.1915 224.311C40.279 224.389 42.3358 226.266 42.4186 228.71C42.5015 231.153 40.5767 233.165 40.4948 233.249C40.4734 233.271 40.4453 233.282 40.4172 233.282ZM40.1245 224.545C39.7729 224.939 38.2625 226.76 38.3333 228.848C38.4042 230.936 40.0345 232.65 40.4119 233.02C40.7635 232.625 42.2737 230.804 42.203 228.717C42.1321 226.627 40.5021 224.914 40.1245 224.545Z" fill="#E6D0BE"/>
<path d="M42.3047 227.335C42.2684 227.335 42.233 227.317 42.2127 227.284C42.1512 227.183 40.7119 224.8 41.326 222.434C41.94 220.068 44.3569 218.685 44.4595 218.627C44.5099 218.599 44.574 218.615 44.6044 218.665C44.6659 218.765 46.1053 221.149 45.4912 223.515C44.8771 225.881 42.4602 227.264 42.3576 227.321C42.3409 227.331 42.3226 227.335 42.3047 227.335ZM44.4737 218.87C44.0247 219.149 42.0596 220.466 41.5348 222.488C41.0096 224.512 42.0861 226.617 42.3434 227.078C42.7924 226.8 44.7575 225.482 45.2824 223.461C45.807 221.439 44.7306 219.332 44.4737 218.87Z" fill="#E6D0BE"/>
<path d="M48.9297 234.663C48.0072 234.663 46.1127 234.503 44.7255 233.32C42.8653 231.734 42.6772 228.956 42.6701 228.838C42.6667 228.781 42.7095 228.73 42.7671 228.725C42.8845 228.713 45.6572 228.46 47.5173 230.046C49.3775 231.632 49.5655 234.41 49.5727 234.527C49.5761 234.585 49.5333 234.635 49.4757 234.641C49.446 234.644 49.2442 234.663 48.9297 234.663ZM42.8952 228.932C42.9494 229.457 43.2759 231.8 44.8656 233.156C46.4551 234.511 48.8205 234.463 49.3479 234.434C49.2937 233.908 48.9672 231.565 47.3775 230.21C45.7878 228.854 43.4224 228.903 42.8952 228.932Z" fill="#D3BBA3"/>
<path d="M45.7995 229.863C43.3731 229.823 41.4395 227.748 41.4395 227.748C41.4395 227.748 43.4398 225.736 45.8663 225.776C48.2927 225.816 50.2263 227.891 50.2263 227.891C50.2263 227.891 48.2259 229.902 45.7995 229.863Z" fill="#E6D0BE"/>
<path d="M34.598 227.97C34.2528 225.568 35.9958 223.33 35.9958 223.33C35.9958 223.33 38.2986 224.987 38.6438 227.389C38.9891 229.791 37.246 232.029 37.246 232.029C37.246 232.029 34.9432 230.372 34.598 227.97Z" fill="#D3BBA3"/>
<path d="M47.5753 228.901C49.4943 227.416 52.3009 227.828 52.3009 227.828C52.3009 227.828 51.9963 230.648 50.0772 232.133C48.1582 233.619 45.3516 233.207 45.3516 233.207C45.3516 233.207 45.6562 230.387 47.5753 228.901Z" fill="#D3BBA3"/>
<path d="M55.9644 234.774C55.954 234.774 55.9437 234.773 55.9333 234.77C55.8206 234.736 53.1604 233.913 52.0453 231.738C50.9303 229.563 51.8154 226.922 51.8537 226.811C51.8726 226.756 51.9316 226.726 51.9867 226.743C52.0995 226.777 54.7596 227.599 55.8747 229.775C56.9898 231.95 56.1046 234.59 56.0663 234.702C56.051 234.746 56.0094 234.774 55.9644 234.774ZM52.2372 231.64C53.1911 233.5 55.395 234.356 55.894 234.53C56.0442 234.023 56.6354 231.732 55.6827 229.873C54.7288 228.013 52.5248 227.157 52.0258 226.983C51.8757 227.49 51.2845 229.78 52.2372 231.64Z" fill="#E6D0BE"/>
<path d="M50.4875 233.501C52.8469 232.934 55.2377 234.461 55.2377 234.461C55.2377 234.461 53.8029 236.908 51.4435 237.475C49.0841 238.043 46.6934 236.516 46.6934 236.516C46.6934 236.516 48.1281 234.069 50.4875 233.501Z" fill="#E6D0BE"/>
<path d="M41.6146 236.459C39.7213 234.941 39.4648 232.116 39.4648 232.116C39.4648 232.116 42.2781 231.752 44.1715 233.27C46.0649 234.788 46.3213 237.614 46.3213 237.614C46.3213 237.614 43.508 237.977 41.6146 236.459Z" fill="#D3BBA3"/>
<path d="M49.799 228.06C49.7898 228.06 49.7805 228.059 49.7714 228.056C49.6575 228.026 46.9704 227.297 45.7803 225.161C44.5902 223.026 45.383 220.357 45.4174 220.244C45.4342 220.189 45.4923 220.157 45.548 220.172C45.6619 220.202 48.3491 220.931 49.5391 223.066C50.7292 225.202 49.9364 227.871 49.902 227.984C49.8879 228.03 49.8454 228.06 49.799 228.06ZM45.9687 225.056C46.9867 226.883 49.2192 227.661 49.7239 227.817C49.8564 227.306 50.3677 224.996 49.3507 223.171C48.3336 221.347 46.1002 220.567 45.5955 220.41C45.4631 220.922 44.9517 223.232 45.9687 225.056Z" fill="#D3BBA3"/>
<path d="M58.1119 235.887C55.7699 236.522 53.3359 235.066 53.3359 235.066C53.3359 235.066 54.699 232.578 57.041 231.942C59.3829 231.306 61.8169 232.763 61.8169 232.763C61.8169 232.763 60.4538 235.251 58.1119 235.887Z" fill="#D3BBA3"/>
<path d="M58.1029 231.555C56.2096 230.037 55.9531 227.212 55.9531 227.212C55.9531 227.212 58.7664 226.848 60.6597 228.366C62.553 229.884 62.8095 232.709 62.8095 232.709C62.8095 232.709 59.9963 233.073 58.1029 231.555Z" fill="#E6D0BE"/>
<path d="M209.659 168.483L209.626 168.476C204.633 167.463 200.726 163.567 199.7 158.576L199.693 158.609C198.68 163.603 194.784 167.509 189.793 168.536L189.826 168.542C194.82 169.555 198.726 173.451 199.752 178.442L199.759 178.41C200.772 173.416 204.668 169.509 209.659 168.483Z" fill="white"/>
<path d="M191.946 180.107L191.93 180.103C189.484 179.607 187.57 177.699 187.067 175.254L187.064 175.27C186.568 177.716 184.66 179.63 182.215 180.132L182.231 180.136C184.677 180.632 186.591 182.54 187.093 184.985L187.097 184.969C187.593 182.523 189.501 180.609 191.946 180.107Z" fill="white"/>
<path d="M175.198 231.016L175.172 231.01C171.158 230.196 168.018 227.064 167.193 223.053L167.188 223.079C166.374 227.093 163.242 230.233 159.23 231.058L159.257 231.063C163.271 231.877 166.411 235.009 167.236 239.021L167.241 238.994C168.055 234.981 171.187 231.84 175.198 231.016Z" fill="white"/>
<path d="M166.48 162.479L166.459 162.475C163.295 161.833 160.819 159.364 160.169 156.201L160.164 156.222C159.523 159.387 157.054 161.862 153.891 162.513L153.911 162.517C157.076 163.159 159.552 165.628 160.202 168.791L160.206 168.77C160.848 165.605 163.317 163.129 166.48 162.479Z" fill="white"/>
<path d="M140.866 299.403C140.899 299.391 140.932 299.381 140.965 299.369C149.845 296.122 154.526 286.603 153.81 284.646C153.076 282.638 143.379 278.435 134.498 281.681C134.466 281.694 134.434 281.707 134.4 281.719L140.866 299.403Z" fill="#F9DD65"/>
<path d="M112.51 293.142C112.466 293.142 112.425 293.115 112.409 293.071C112.389 293.015 112.417 292.953 112.473 292.933L131.767 285.879L133.9 291.712L146.499 287.105C146.555 287.085 146.617 287.114 146.637 287.17C146.658 287.226 146.629 287.288 146.573 287.308L133.771 291.989L131.638 286.156L112.547 293.136C112.535 293.14 112.523 293.142 112.51 293.142Z" fill="#363E44"/>
<path d="M116.102 294.346C122.429 292.033 127.158 289.062 126.664 287.711C126.17 286.36 120.64 287.141 114.313 289.454C107.986 291.767 103.258 294.738 103.752 296.089C104.246 297.44 109.775 296.659 116.102 294.346Z" fill="#F9DD65"/>
</g>
</g>
<defs>
<filter id="filter0_d_569_5665" x="0.531475" y="0.171987" width="238.57" height="329.939" filterUnits="userSpaceOnUse" color-interpolation-filters="sRGB">
<feFlood flood-opacity="0" result="BackgroundImageFix"/>
<feColorMatrix in="SourceAlpha" type="matrix" values="0 0 0 0 0 0 0 0 0 0 0 0 0 0 0 0 0 0 127 0" result="hardAlpha"/>
<feOffset dy="2.14247"/>
<feGaussianBlur stdDeviation="2.14247"/>
<feComposite in2="hardAlpha" operator="out"/>
<feColorMatrix type="matrix" values="0 0 0 0 0 0 0 0 0 0 0 0 0 0 0 0 0 0 0.1 0"/>
<feBlend mode="normal" in2="BackgroundImageFix" result="effect1_dropShadow_569_5665"/>
<feBlend mode="normal" in="SourceGraphic" in2="effect1_dropShadow_569_5665" result="shape"/>
</filter>
<clipPath id="clip0_569_5665">
<rect x="20.5703" y="107.863" width="198.493" height="203.219" rx="15.7534" fill="white"/>
</clipPath>
</defs>
</svg>
