<svg width="310" height="104" viewBox="0 0 310 104" fill="none" xmlns="http://www.w3.org/2000/svg">
<g clip-path="url(#clip0_535_9653)">
<rect width="310" height="103.333" rx="6.2" fill="#F9DF51"/>
<path d="M155.129 167.917C219.404 167.917 271.508 115.812 271.508 51.5374C271.508 -12.7371 219.404 -64.8418 155.129 -64.8418C90.8547 -64.8418 38.75 -12.7371 38.75 51.5374C38.75 115.812 90.8547 167.917 155.129 167.917Z" fill="#7B2C12"/>
<g clip-path="url(#clip1_535_9653)">
<g clip-path="url(#clip2_535_9653)">
<path d="M155.129 132.369C194.549 132.369 226.505 100.413 226.505 60.9933C226.505 21.5734 194.549 -10.3828 155.129 -10.3828C115.709 -10.3828 83.7526 21.5734 83.7526 60.9933C83.7526 100.413 115.709 132.369 155.129 132.369Z" fill="#7B2C12"/>
<path d="M138.642 75.9551H128.464V86.1333H138.642V75.9551Z" fill="#FFD092"/>
<path d="M132.141 86.1309H121.963V96.3091H132.141V86.1309Z" fill="#D87355"/>
<path d="M145.142 86.1309H134.964V96.3091H145.142V86.1309Z" fill="#F3BD40"/>
<path d="M119.317 81.0436C119.317 81.0436 119.36 69.2773 123.359 69.2773C127.359 69.2773 127.788 80.5825 127.788 80.5825C127.788 80.5825 124.166 82.9877 119.317 81.0436Z" fill="black"/>
<path d="M124.852 72.7054C124.852 74.0246 124.184 75.094 123.359 75.094C122.535 75.094 121.866 74.0246 121.866 72.7054C121.866 71.3863 123.184 70.7812 123.184 70.7812C123.184 70.7812 124.852 71.3863 124.852 72.7054Z" fill="#DC8929"/>
<path d="M110.327 101.751C111.604 101.406 112.542 100.769 112.423 100.327C112.303 99.8848 111.172 99.8062 109.895 100.151C108.619 100.496 107.681 101.134 107.8 101.575C107.919 102.017 109.051 102.096 110.327 101.751Z" fill="#D87355"/>
<path d="M119.716 90.0884L116.732 93.7377C116.732 93.7377 116.564 97.1515 112.42 100.328L109.617 100.953L111.428 99.9091L114.881 93.1234L116.815 88.5352L119.716 90.0884Z" fill="#DC8929"/>
<path d="M106.127 95.1859C106.201 94.7343 105.204 94.1938 103.899 93.9787C102.594 93.7636 101.477 93.9553 101.402 94.4069C101.328 94.8585 102.325 95.399 103.629 95.6141C104.934 95.8293 106.052 95.6375 106.127 95.1859Z" fill="#D87355"/>
<path d="M117.006 88.8949L112.778 90.9794C112.778 90.9794 111.211 94.0166 106.123 95.1907L103.314 94.5976L105.394 94.3983L111.349 89.6537L115.01 86.2793L117.006 88.8949Z" fill="#DC8929"/>
<path d="M125.839 77.957C125.839 77.957 126.645 78.0722 126.806 78.6936C126.967 79.3152 127.335 83.597 127.335 83.597L126.092 88.9377L124.987 88.7305L126.161 83.4474L125.125 79.5454L125.839 77.957Z" fill="#DC8929"/>
<path d="M122.16 77.3301C122.16 77.3301 122.086 78.1406 121.474 78.3336C120.861 78.5266 116.604 79.1151 116.604 79.1151L111.207 78.1489L111.356 77.0347L116.693 77.9349L120.537 76.6992L122.16 77.3301Z" fill="#DC8929"/>
<path d="M119.992 76.2461L126.346 77.6721L123.629 83.2892C123.629 83.2892 127.604 86.1799 122.018 92.7708C122.018 92.7708 114.099 91.443 111.244 86.1799C111.244 86.1799 114.191 82.5525 120.452 82.4605L119.992 76.2461Z" fill="#DC8929"/>
<path d="M124.939 77.9758C124.858 78.3228 123.912 78.3985 122.827 78.1448C121.742 77.8912 120.928 77.4043 121.009 77.0573C121.09 76.7104 122.036 76.6346 123.121 76.8883C124.206 77.1419 125.02 77.6288 124.939 77.9758Z" fill="#DC8929"/>
<path d="M122.125 77.135L122.974 74.526L124.243 74.127L123.905 77.5165L122.125 77.135Z" fill="#DC8929"/>
<path d="M112.776 78.0086C112.947 77.5826 112.262 76.9078 111.247 76.5015C110.232 76.0952 109.271 76.1112 109.1 76.5372C108.93 76.9632 109.614 77.638 110.629 78.0443C111.645 78.4506 112.606 78.4346 112.776 78.0086Z" fill="#DC8929"/>
<path d="M123.126 90.7998C122.824 90.4539 123.248 89.591 124.072 88.8725C124.896 88.1541 125.809 87.852 126.111 88.1979C126.412 88.5438 125.988 89.4066 125.164 90.1251C124.34 90.8437 123.427 91.1457 123.126 90.7998Z" fill="#DC8929"/>
<path d="M187.491 98.5332L184.512 86.4648L178.991 87.8279L180.607 94.3749C181.36 97.4242 184.442 99.286 187.491 98.5332Z" fill="#D87355"/>
<path d="M180.883 95.4214C180.869 95.4214 180.855 95.4178 180.843 95.4102C180.806 95.3879 180.794 95.34 180.816 95.3031L181.618 93.9753C181.64 93.9383 181.688 93.9264 181.725 93.9488C181.762 93.9711 181.774 94.019 181.752 94.0559L180.95 95.3837C180.935 95.4081 180.909 95.4214 180.883 95.4214Z" fill="white"/>
<path d="M181.545 96.5425C181.531 96.5425 181.517 96.5389 181.505 96.5313C181.468 96.509 181.456 96.4611 181.478 96.4242L182.28 95.0964C182.302 95.0594 182.351 95.0475 182.387 95.0699C182.424 95.0922 182.436 95.1401 182.414 95.177L181.612 96.5047C181.597 96.5291 181.571 96.5425 181.545 96.5425Z" fill="white"/>
<path d="M166.799 95.5457L176.053 93.4409L174.391 85.8887L165.056 87.9433L166.799 95.5457Z" fill="white"/>
<path d="M175.14 89.8775C179.131 85.2626 180.703 80.0836 178.652 78.3099C176.601 76.5363 171.703 78.8396 167.713 83.4545C163.722 88.0694 162.149 93.2484 164.2 95.0221C166.251 96.7957 171.149 94.4924 175.14 89.8775Z" fill="white"/>
<path d="M174.644 92.6982C174.644 92.6982 183.747 83.6285 183.125 77.0649C182.66 72.1571 176.819 68.4648 176.819 68.4648L163.396 84.6152L174.644 92.6982Z" fill="white"/>
<path d="M172.901 95.8774L188.597 92.355L186.935 84.8027L171.111 88.2853L172.901 95.8774Z" fill="white"/>
<path d="M180.743 88.4324C183.745 83.1207 184.265 77.7332 181.904 76.3991C179.543 75.065 175.196 78.2894 172.194 83.6011C169.193 88.9128 168.673 94.3003 171.034 95.6344C173.394 96.9685 177.742 93.7441 180.743 88.4324Z" fill="white"/>
<path d="M170.134 94.8106C170.107 94.8106 170.081 94.7967 170.066 94.7719C168.984 92.9226 169.422 89.2505 171.183 85.4166C171.201 85.3774 171.248 85.3603 171.287 85.3782C171.326 85.3962 171.343 85.4426 171.325 85.4817C169.584 89.2707 169.143 92.8864 170.201 94.6932C170.223 94.7304 170.21 94.7781 170.173 94.7999C170.161 94.8071 170.147 94.8106 170.134 94.8106Z" fill="#363E44"/>
<path d="M171.254 85.5256C171.243 85.5256 171.232 85.5233 171.222 85.5184C171.183 85.5005 171.165 85.4542 171.183 85.415C171.467 84.7971 171.785 84.1767 172.127 83.571C173.584 80.9928 175.402 78.8205 177.244 77.4539C179.104 76.0741 180.773 75.6786 181.943 76.3401C183.699 77.3325 183.956 80.5484 182.597 84.5329C182.584 84.5737 182.539 84.5956 182.498 84.5816C182.458 84.5677 182.436 84.5234 182.45 84.4826C183.783 80.5724 183.554 77.4296 181.867 76.4757C180.753 75.8465 179.145 76.2384 177.337 77.5791C175.512 78.933 173.71 81.0881 172.263 83.6478C171.923 84.2497 171.607 84.8661 171.325 85.4801C171.312 85.5088 171.284 85.5256 171.254 85.5256Z" fill="#363E44"/>
<path d="M176.859 93.5938C176.838 93.5938 176.817 93.5856 176.802 93.5692C176.772 93.5379 176.774 93.4885 176.805 93.459C178.219 92.1293 179.558 90.3809 180.676 88.4027C181.407 87.1085 182.004 85.7896 182.45 84.4826C182.464 84.4418 182.508 84.4198 182.549 84.434C182.59 84.4479 182.611 84.4922 182.597 84.533C182.149 85.8492 181.548 87.177 180.812 88.4796C179.686 90.4712 178.337 92.2325 176.912 93.5728C176.897 93.5868 176.878 93.5938 176.859 93.5938Z" fill="#363E44"/>
<path d="M180.813 91.3173C180.813 91.3173 187.949 80.6305 186.045 74.3184C184.622 69.5987 178.166 67.1309 178.166 67.1309L169.612 86.2529L180.813 91.3173Z" fill="white"/>
<path d="M194.711 95.67L191.732 83.6016L186.211 84.9647L187.827 91.5116C188.58 94.561 191.662 96.4228 194.711 95.67Z" fill="#D87355"/>
<path d="M188.103 92.5562C188.089 92.5562 188.075 92.5526 188.063 92.5449C188.026 92.5226 188.014 92.4747 188.036 92.4378L188.838 91.1101C188.86 91.0731 188.908 91.0612 188.945 91.0836C188.982 91.1059 188.994 91.1538 188.972 91.1907L188.17 92.5184C188.155 92.5428 188.129 92.5562 188.103 92.5562Z" fill="white"/>
<path d="M188.765 93.6792C188.751 93.6792 188.737 93.6756 188.725 93.668C188.688 93.6457 188.676 93.5978 188.698 93.5609L189.5 92.2331C189.522 92.1962 189.57 92.1842 189.607 92.2066C189.644 92.2289 189.656 92.2768 189.634 92.3137L188.832 93.6415C188.817 93.6658 188.791 93.6792 188.765 93.6792Z" fill="white"/>
<path d="M151.195 79.0164C144.28 79.9731 140.48 80.6047 138.961 80.7959C138.802 80.8159 138.522 80.8525 138.158 80.7995C136.809 80.603 136.477 79.4911 135.154 78.6376C133.652 77.6692 132.258 77.9741 132.2 77.5215C132.16 77.2067 132.653 76.9436 133.773 76.8172C133.773 76.8172 133.773 76.8171 133.773 76.8171C132.911 76.8153 131.742 76.7618 131.745 76.2855C131.777 75.7357 133.158 75.6372 133.996 75.6184C132.981 75.6411 132.435 75.3497 132.503 75.0845C132.609 74.667 133.391 74.4662 134.733 74.4882C134.733 74.4882 134.733 74.4882 134.733 74.4882C133.811 74.2141 133.628 74.0102 133.745 73.7903C133.958 73.3888 135.061 73.4276 136.031 73.6114C137.122 73.8183 137.897 74.3574 138.378 74.7091C138.378 74.7092 138.378 74.7092 138.378 74.7092C143.152 73.537 148.659 72.8096 148.659 72.8096C149.758 71.8739 155.76 66.7051 156.25 66.7562C158.782 67.0208 159.761 71.9813 159.961 73.259C160.075 73.9862 151.195 79.0164 151.195 79.0164Z" fill="white"/>
<path d="M136.551 79.1367C134.818 79.4905 134.268 79.9853 134.333 80.258C134.442 80.7167 136.045 81.02 138.642 80.8219C138.101 80.3002 137.091 79.6584 136.551 79.1367Z" fill="white"/>
<path d="M137.329 80.5238C137.315 80.5238 137.3 80.52 137.288 80.5121C136.952 80.3024 136.675 80.0188 136.382 79.7185C136.246 79.5793 136.106 79.4352 135.952 79.2911C135.921 79.2616 135.919 79.2122 135.949 79.1809C135.978 79.1494 136.028 79.1479 136.059 79.1774C136.215 79.3239 136.357 79.4691 136.494 79.6095C136.78 79.9029 137.05 80.18 137.37 80.3797C137.407 80.4025 137.418 80.4507 137.395 80.4872C137.38 80.5108 137.355 80.5238 137.329 80.5238Z" fill="#363E44"/>
<path d="M155.916 64.3969L150.249 70.025L157.252 76.9472L158.17 76.0187C161.379 80.4029 166.532 81.8028 166.532 81.8028L178.166 67.1296C160.198 54.7774 157.286 62.6814 155.916 64.3969Z" fill="#D87355"/>
<path d="M155.085 95.6438C154.199 97.1736 153.555 97.5374 153.317 97.3892C152.917 97.1399 153.139 95.524 154.153 93.125C154.476 93.8034 154.763 94.9653 155.085 95.6438Z" fill="white"/>
<path d="M160.079 82.0966C156.972 88.3476 154.944 91.4515 154.28 92.8305C154.21 92.9749 154.086 93.2292 154.021 93.5911C153.778 94.9318 154.727 95.6004 155.115 97.1267C155.555 98.8586 154.822 100.083 155.233 100.282C155.519 100.42 155.925 100.036 156.401 99.0149C156.401 99.0148 156.401 99.0149 156.401 99.015C156.129 99.8326 155.807 100.958 156.26 101.107C156.791 101.251 157.324 99.974 157.608 99.1855C157.264 100.14 157.367 100.751 157.639 100.771C158.069 100.803 158.508 100.125 158.915 98.846C158.881 99.8075 159.016 100.046 159.262 100.005C159.71 99.9305 160.024 98.8727 160.159 97.8948C160.31 96.7941 160.045 95.8879 159.865 95.3205C159.865 95.3204 159.865 95.3202 159.865 95.3201C162.495 91.1676 166.985 84.0987 166.985 84.0987L168.023 75.9551H160.754C160.754 75.9551 160.079 82.0965 160.079 82.0966Z" fill="white"/>
<path d="M154.821 96.2062C154.791 96.2062 154.763 96.1893 154.75 96.1607C154.662 95.9693 154.57 95.7901 154.481 95.6168C154.29 95.2436 154.109 94.891 154.017 94.5062C154.007 94.4643 154.033 94.4222 154.075 94.4122C154.117 94.4025 154.159 94.4281 154.169 94.47C154.256 94.8366 154.433 95.181 154.62 95.5457C154.709 95.7204 154.802 95.9011 154.891 96.0956C154.909 96.1348 154.892 96.1811 154.853 96.199C154.843 96.2038 154.831 96.2062 154.821 96.2062Z" fill="#363E44"/>
<path d="M152.138 63.6121C154.761 65.0401 160.68 61.5828 160.68 61.5828L162.67 55.7161C164.303 50.9011 160.534 45.8618 155.466 46.2605C155.362 46.2687 155.258 46.279 155.154 46.2914C150.982 46.7902 148.004 50.5765 148.503 54.7483C148.503 54.7483 149.466 62.1576 152.138 63.6121Z" fill="white"/>
<path d="M162.106 65.7109L162.022 65.7667C160.642 66.68 158.778 66.245 157.946 64.8152L152.65 55.7216C151.863 54.3706 152.299 52.6387 153.631 51.8205C154.999 50.9805 156.789 51.4218 157.61 52.801L162.99 61.8389C163.776 63.1587 163.387 64.863 162.106 65.7109Z" fill="white"/>
<path d="M156.946 63.264C156.917 63.264 156.889 63.2473 156.876 63.219C156.858 63.1799 156.874 63.1335 156.913 63.1153C157.96 62.6278 158.693 62.1986 158.7 62.1944C158.737 62.1725 158.785 62.185 158.807 62.222C158.829 62.2593 158.816 62.307 158.779 62.3288C158.772 62.3332 158.033 62.7658 156.979 63.2567C156.969 63.2616 156.957 63.264 156.946 63.264Z" fill="#363E44"/>
<path d="M149.501 56.998C149.501 56.998 147.961 59.0528 148.113 59.5286C148.295 60.0964 150.298 60.2164 150.298 60.2164C150.298 60.2164 149.455 57.0081 149.501 56.998Z" fill="white"/>
<path d="M156.01 55.6253C156.01 55.6253 154.813 55.1551 153.458 55.3172C153.17 55.3517 153.99 57.594 154.248 57.4306C155.382 56.7123 156.01 55.6253 156.01 55.6253Z" fill="white"/>
<path d="M152.582 55.5173C152.873 55.4153 153.168 55.3529 153.455 55.3184C154.088 55.8528 154.365 56.6593 154.249 57.4298C153.99 57.5935 153.706 57.7383 153.396 57.8466C151.728 58.4301 149.968 57.7385 149.968 57.7385C149.968 57.7385 150.913 56.1008 152.582 55.5173Z" fill="black"/>
<path d="M151.945 61.2656C151.82 61.2656 151.694 61.2378 151.577 61.181C151.539 61.1622 151.522 61.1154 151.541 61.0768C151.56 61.038 151.607 61.0218 151.646 61.0406C151.887 61.158 152.176 61.1236 152.381 60.9529C152.578 60.7885 152.666 60.5197 152.606 60.2681C152.595 60.2263 152.621 60.1841 152.663 60.1741C152.704 60.164 152.747 60.1897 152.757 60.2316C152.832 60.5404 152.723 60.8706 152.48 61.0728C152.328 61.1999 152.138 61.2656 151.945 61.2656Z" fill="#363E44"/>
<path d="M161.037 55.9269C161.388 54.6553 160.79 53.3808 159.702 53.0802C158.613 52.7796 157.446 53.5667 157.095 54.8383C156.744 56.1098 157.342 57.3843 158.43 57.6849C159.518 57.9855 160.686 57.1984 161.037 55.9269Z" fill="white"/>
<path d="M159.982 55.9611C159.971 55.9611 159.959 55.9587 159.949 55.9535C159.91 55.9351 159.893 55.8885 159.912 55.8496C159.944 55.7803 159.972 55.7071 159.992 55.6322C160.074 55.3376 160.052 55.0341 159.932 54.7777C159.814 54.5255 159.613 54.3492 159.368 54.2815C159.245 54.2474 159.117 54.2426 158.988 54.2673C158.946 54.2748 158.905 54.2476 158.897 54.2053C158.889 54.163 158.917 54.1222 158.959 54.114C159.111 54.0849 159.263 54.0905 159.41 54.1311C159.699 54.2112 159.935 54.4173 160.073 54.7114C160.209 55.0015 160.234 55.3433 160.143 55.6737C160.12 55.7573 160.089 55.8389 160.052 55.9165C160.039 55.9446 160.011 55.9611 159.982 55.9611Z" fill="#363E44"/>
<path d="M164.781 46.8603C162.172 43.7405 158.151 43.8931 157.556 43.9255C154.542 42.8182 151.3 43.4489 149.075 45.5864C145.83 48.7025 146.527 53.31 146.59 53.6846C148.292 53.0976 150.705 52.6321 152.424 52.6988L153.507 49.5408L153.673 52.8513C155.032 53.1134 156.712 53.6831 157.469 54.3282C157.534 54.1994 158.152 53.3139 159.066 53.2479C160.173 53.168 161.234 54.1604 161.284 55.303C161.362 57.0563 161.369 58.3339 161.451 59.2971C167.139 56.6831 167.748 50.4076 164.781 46.8603Z" fill="black"/>
<path d="M171.32 47.2927C171.829 45.134 170.493 42.9708 168.334 42.461C166.175 41.9513 164.012 43.2881 163.502 45.4468C162.993 47.6055 164.329 49.7687 166.488 50.2784C168.647 50.7882 170.81 49.4514 171.32 47.2927Z" fill="black"/>
<path d="M167.411 51.4405C165.154 51.4405 163.317 49.6038 163.317 47.3462C163.317 45.0886 165.154 43.252 167.411 43.252C169.669 43.252 171.506 45.0886 171.506 47.3462C171.506 49.6038 169.669 51.4405 167.411 51.4405ZM167.411 43.4079C165.24 43.4079 163.473 45.1746 163.473 47.3461C163.473 49.5178 165.24 51.2845 167.411 51.2845C169.583 51.2845 171.35 49.5178 171.35 47.3461C171.35 45.1747 169.583 43.4079 167.411 43.4079Z" fill="black"/>
<path d="M168.542 50.5929C166.285 50.5929 164.448 48.7562 164.448 46.4986C164.448 44.241 166.285 42.4043 168.542 42.4043C170.8 42.4043 172.637 44.241 172.637 46.4986C172.637 48.7562 170.8 50.5929 168.542 50.5929ZM168.542 42.5602C166.371 42.5602 164.604 44.3269 164.604 46.4986C164.604 48.6701 166.371 50.4368 168.542 50.4368C170.714 50.4368 172.481 48.6701 172.481 46.4986C172.481 44.327 170.714 42.5602 168.542 42.5602Z" fill="black"/>
<path d="M156.106 45.5698C158.324 45.5698 160.122 43.7716 160.122 41.5534C160.122 39.3353 158.324 37.5371 156.106 37.5371C153.888 37.5371 152.09 39.3353 152.09 41.5534C152.09 43.7716 153.888 45.5698 156.106 45.5698Z" fill="black"/>
<path d="M155.258 45.6476C153.001 45.6476 151.164 43.8108 151.164 41.5532C151.164 39.2957 153.001 37.459 155.258 37.459C157.516 37.459 159.352 39.2957 159.352 41.5532C159.352 43.8108 157.516 45.6476 155.258 45.6476ZM155.258 37.6149C153.087 37.6149 151.32 39.3816 151.32 41.5532C151.32 43.7248 153.087 45.4915 155.258 45.4915C157.43 45.4915 159.196 43.7248 159.196 41.5532C159.196 39.3816 157.43 37.6149 155.258 37.6149Z" fill="black"/>
<path d="M180.157 12.3906H158.065V34.4829H180.157V12.3906Z" fill="#D87355"/>
<path d="M173.458 24.6674C173.322 25.8316 172.892 26.73 172.169 27.3624C171.446 27.9949 170.484 28.3111 169.285 28.3111C167.985 28.3111 166.943 27.845 166.159 26.9125C165.376 25.9803 164.984 24.733 164.984 23.1706V22.1122C164.984 21.0893 165.166 20.1896 165.532 19.4135C165.897 18.6374 166.415 18.0414 167.085 17.6256C167.756 17.2098 168.532 17.002 169.414 17.002C170.583 17.002 171.52 17.3283 172.226 17.9809C172.931 18.6336 173.342 19.537 173.458 20.691H171.999C171.873 19.8115 171.6 19.1745 171.179 18.7803C170.758 18.3859 170.17 18.1888 169.414 18.1888C168.486 18.1888 167.759 18.5318 167.233 19.2178C166.706 19.9039 166.443 20.8798 166.443 22.1457V23.2126C166.443 24.4081 166.692 25.359 167.191 26.065C167.69 26.7711 168.388 27.1242 169.285 27.1242C170.091 27.1242 170.71 26.9416 171.141 26.5761C171.572 26.2107 171.858 25.5745 171.999 24.6673L173.458 24.6674Z" fill="white"/>
<path d="M162.818 3.09961H140.725V25.1919H162.818V3.09961Z" fill="#E98029"/>
<path d="M148.022 18.87V7.86328H151.62C152.815 7.86328 153.713 8.11025 154.315 8.60411C154.918 9.09805 155.219 9.82874 155.219 10.7964C155.219 11.3105 155.072 11.7653 154.78 12.1609C154.488 12.5566 154.09 12.8627 153.586 13.0794C154.18 13.2457 154.65 13.5621 154.996 14.0281C155.341 14.4944 155.513 15.05 155.513 15.695C155.513 16.6829 155.193 17.459 154.553 18.0234C153.913 18.5879 153.009 18.87 151.839 18.87H148.022ZM149.473 12.5578H151.666C152.301 12.5578 152.808 12.3988 153.189 12.0806C153.569 11.7624 153.76 11.3306 153.76 10.7851C153.76 10.179 153.583 9.73833 153.23 9.46312C152.878 9.18799 152.341 9.05023 151.62 9.05023H149.473V12.5578ZM149.473 13.722V17.6831H151.87C152.545 17.6831 153.078 17.5081 153.469 17.1578C153.859 16.8076 154.054 16.3251 154.054 15.7101C154.054 14.3847 153.334 13.722 151.892 13.722H149.473Z" fill="white"/>
<path d="M145.787 13.3164H118.317V40.7863H145.787V13.3164Z" fill="white"/>
<path d="M134.947 29.3429H129.213L127.925 32.9242H126.064L131.29 19.2383H132.869L138.105 32.9242H136.253L134.947 29.3429ZM129.758 27.8672H134.411L132.08 21.466L129.758 27.8672Z" fill="#E6D0BE"/>
</g>
</g>
<path d="M86.4173 95.3655H79.3804L78.2268 66.5781H87.1471L86.4173 95.3655Z" fill="white"/>
<path d="M93.2633 99.8102H79.2363V93.3926H86.8457C90.3901 93.3926 93.2633 96.2659 93.2633 99.8102Z" fill="#F3BD40"/>
<path d="M86.7432 94.7472C86.7232 94.7472 86.7032 94.7396 86.688 94.7243C86.6575 94.6938 86.6575 94.6445 86.688 94.614L87.9257 93.3764C87.9562 93.3459 88.0055 93.3459 88.036 93.3764C88.0665 93.4069 88.0665 93.4562 88.036 93.4867L86.7983 94.7243C86.7831 94.7396 86.7632 94.7472 86.7432 94.7472Z" fill="#363E44"/>
<path d="M88.1502 95.1691C88.1302 95.1691 88.1102 95.1614 88.095 95.1462C88.0645 95.1157 88.0645 95.0664 88.095 95.0359L89.3327 93.7983C89.3632 93.7678 89.4125 93.7678 89.443 93.7983C89.4735 93.8288 89.4735 93.8781 89.443 93.9086L88.2053 95.1462C88.1901 95.1614 88.1701 95.1691 88.1502 95.1691Z" fill="#363E44"/>
<path d="M70.0239 95.4008L63.1105 94.0884L66.6467 81.1769L67.7626 65.6699L76.6751 67.2545L74.2987 82.1636L70.0239 95.4008Z" fill="white"/>
<path d="M74.3589 102.844L61.1838 98.0298L63.3864 92.002L70.5336 94.6135C73.8627 95.83 75.5753 99.5148 74.3589 102.844Z" fill="#F3BD40"/>
<path d="M69.9989 95.8567C69.9695 95.8567 69.9413 95.84 69.928 95.8116C69.9099 95.7725 69.9269 95.7261 69.9659 95.7079L71.5531 94.9702C71.5925 94.952 71.6387 94.969 71.6568 95.008C71.675 95.0471 71.658 95.0935 71.619 95.1117L70.0317 95.8494C70.021 95.8544 70.0099 95.8567 69.9989 95.8567Z" fill="#363E44"/>
<path d="M71.1754 96.7375C71.146 96.7375 71.1178 96.7208 71.1045 96.6924C71.0864 96.6533 71.1034 96.6069 71.1424 96.5887L72.7297 95.851C72.7689 95.8329 72.8152 95.8499 72.8334 95.8889C72.8515 95.928 72.8346 95.9744 72.7956 95.9925L71.2082 96.7302C71.1975 96.7352 71.1864 96.7375 71.1754 96.7375Z" fill="#363E44"/>
<path d="M90.7488 74.5504H77.9748L77.3012 67.5376L76.1099 74.5504H63.8535L67.7053 56.0352H86.9581L90.7488 74.5504Z" fill="#E98029"/>
<path d="M88.4557 40.2627C92.154 40.1398 102.856 40.3996 102.884 36.1761C102.907 32.6825 92.4772 32.8616 88.7942 32.7598C88.6814 35.2607 88.5685 37.7617 88.4557 40.2627Z" fill="white"/>
<path d="M63.7792 37.75C61.251 40.452 53.4999 47.8357 56.4665 50.8422C58.9203 53.3289 66.169 45.8269 68.8453 43.2947C67.1566 41.4465 65.4679 39.5982 63.7792 37.75Z" fill="white"/>
<path d="M59.7311 40.2626C59.7311 40.2626 65.881 32.017 77.7406 32.2939C86.4052 32.4963 91.8657 32.5034 91.8657 32.5034V42.4117L86.9577 44.4873V56.0389H67.7048V45.6653L66.1265 46.4814L59.7311 40.2626Z" fill="#F9DF51"/>
<path d="M88.4564 45.0368L73.2134 62.9005C72.7575 63.4347 71.9549 63.4983 71.4207 63.0424L70.7385 62.4602C70.6672 61.968 70.4193 61.5185 70.0409 61.1957L69.5321 60.7615C69.1966 60.4752 69.1566 59.9711 69.4429 59.6356L70.2167 58.7288C70.054 55.4139 71.1585 52.1613 73.3063 49.631L74.2473 48.5225C75.1099 47.5063 76.2975 46.8198 77.6087 46.5795L80.6743 46.0177C80.976 45.9624 81.2572 45.8268 81.4883 45.6251L84.0976 43.4051C85.2522 42.4227 86.9156 42.3177 88.1847 43.147C88.8263 43.5663 88.9539 44.4537 88.4564 45.0368Z" fill="#D87355"/>
<path d="M87.8003 47.5719C87.8027 46.418 86.8693 45.4806 85.7155 45.4782C84.5616 45.4758 83.6242 46.4092 83.6218 47.5631C83.6194 48.717 84.5528 49.6543 85.7067 49.6567C86.8605 49.6592 87.7979 48.7257 87.8003 47.5719Z" fill="#363E44"/>
<path d="M85.7253 49.047C86.5411 49.0367 87.1941 48.367 87.1838 47.5512C87.1736 46.7354 86.5039 46.0824 85.6881 46.0927C84.8723 46.103 84.2193 46.7727 84.2296 47.5885C84.2398 48.4043 84.9095 49.0573 85.7253 49.047Z" fill="#D3BBA3"/>
<path d="M76.9088 61.0859C77.7446 60.2904 77.7771 58.9679 76.9816 58.1322C76.186 57.2964 74.8635 57.2639 74.0278 58.0595C73.192 58.8551 73.1595 60.1775 73.9551 61.0132C74.7507 61.849 76.0731 61.8815 76.9088 61.0859Z" fill="#363E44"/>
<path d="M75.4658 61.0522C76.2817 61.0522 76.9431 60.3908 76.9431 59.5749C76.9431 58.7591 76.2817 58.0977 75.4658 58.0977C74.6499 58.0977 73.9885 58.7591 73.9885 59.5749C73.9885 60.3908 74.6499 61.0522 75.4658 61.0522Z" fill="#D3BBA3"/>
<path d="M71.9264 56.877L80.6244 46.6836L76.2424 47.6485C75.9475 47.7134 75.6771 47.8606 75.4625 48.0731C73.0747 50.4367 71.5126 53.4901 70.9965 56.7527L71.9264 56.877Z" fill="#363E44"/>
<path d="M85.9024 43.8791C86.6267 43.4794 87.1088 42.965 86.9791 42.73C86.8495 42.4951 86.1572 42.6286 85.4329 43.0283C84.7086 43.428 84.2266 43.9424 84.3562 44.1774C84.4858 44.4123 85.1781 44.2788 85.9024 43.8791Z" fill="#F9DF51"/>
<path d="M88.2551 43.9979L87.9439 44.3626C87.8602 44.4607 87.7097 44.4643 87.6214 44.3701L87.2895 44.0164C87.2139 43.936 87.2111 43.8116 87.2827 43.7278L87.5938 43.3631C87.6776 43.2649 87.8281 43.2613 87.9164 43.3554L88.2483 43.7092C88.3237 43.7896 88.3266 43.914 88.2551 43.9979Z" fill="#FFD092"/>
<path d="M59.2268 45.3496C62.0848 45.9714 68.8875 47.1027 69.5472 47.2395C70.7803 47.4953 77.3625 49.0402 77.2426 50.0141C77.1852 50.4795 75.9037 50.2391 75.4729 50.1453C75.7835 50.3927 77.0793 51.2134 76.8819 51.7005C76.6501 52.2729 74.9563 51.5313 74.9226 51.5364C75.2636 51.7556 76.6569 52.5737 76.5232 52.9447C76.3491 53.4274 74.8247 53.055 74.3734 52.9224C74.4026 52.9979 75.8382 53.5818 75.6552 54.1662C75.5208 54.5952 74.1227 54.2513 73.5158 54.104C72.4199 53.8775 59.5332 51.9332 57.1843 51.266C56.2648 51.0051 57.8244 46.0652 59.2268 45.3496Z" fill="white"/>
<path d="M65.4133 46.5602C65.4086 46.5602 65.404 46.5599 65.3992 46.5589C63.9363 46.2925 60.1329 45.5533 59.2111 45.3634C59.1688 45.3547 59.1417 45.3134 59.1504 45.2712C59.1591 45.229 59.1998 45.202 59.2426 45.2106C60.1638 45.4004 63.9651 46.1391 65.4272 46.4055C65.4696 46.4132 65.4977 46.4538 65.49 46.4962C65.483 46.5339 65.4502 46.5602 65.4133 46.5602Z" fill="#363E44"/>
<path d="M75.4977 50.182C75.4837 50.182 75.4695 50.1783 75.4568 50.1704C75.2353 50.0335 75.0028 49.911 74.7658 49.8064C74.3395 49.6181 73.8883 49.4822 73.4249 49.4028C73.3825 49.3955 73.3539 49.3552 73.3613 49.3127C73.3685 49.2704 73.408 49.2422 73.4513 49.2491C73.9273 49.3307 74.3908 49.4702 74.8289 49.6636C75.0723 49.7712 75.3113 49.897 75.5388 50.0377C75.5755 50.0604 75.5868 50.1084 75.5642 50.1451C75.5493 50.1689 75.5238 50.182 75.4977 50.182Z" fill="#363E44"/>
<path d="M74.9539 51.5886C74.9427 51.5886 74.9312 51.5862 74.9203 51.581C74.8711 51.5574 74.8207 51.5342 74.769 51.5114C74.3427 51.3231 73.8916 51.1874 73.4282 51.1079C73.3858 51.1006 73.3572 51.0603 73.3646 51.0179C73.3718 50.9754 73.4116 50.9471 73.4546 50.9542C73.9306 51.0358 74.394 51.1753 74.8321 51.3687C74.8852 51.3922 74.9372 51.416 74.9877 51.4402C75.0266 51.4588 75.043 51.5053 75.0245 51.5443C75.011 51.5723 74.983 51.5886 74.9539 51.5886Z" fill="#363E44"/>
<path d="M74.3464 52.9798C74.338 52.9798 74.3295 52.9784 74.3211 52.9756C74.0329 52.8767 73.7335 52.8003 73.4311 52.7485C73.3887 52.7412 73.3601 52.701 73.3675 52.6585C73.3747 52.616 73.4143 52.5878 73.4575 52.5948C73.768 52.648 74.0756 52.7265 74.3717 52.828C74.4125 52.842 74.4342 52.8863 74.4203 52.9271C74.409 52.9594 74.3788 52.9798 74.3464 52.9798Z" fill="#363E44"/>
<path d="M95.5244 35.4565C97.9693 28.1222 99.9861 23.0034 100.903 19.7029C101.315 18.2213 101.444 16.6596 102.568 15.6995C103.067 15.2738 103.653 14.9279 103.928 15.3252C104.358 15.9456 102.678 17.1288 103.042 17.6248C103.408 18.1231 105.419 17.3589 105.456 16.6315C105.486 16.0446 104.113 16.0943 104.303 15.4244C104.433 14.966 105.194 14.9924 105.731 15.1188C105.902 15.1589 106.618 15.3273 106.954 16.0356C107.309 16.7849 106.932 17.4922 106.893 17.5636C107.358 17.4902 107.789 17.6841 107.932 17.9914C108.122 18.4017 107.832 19.0845 107.137 19.275C107.227 19.2672 107.893 19.2157 108.054 19.5194C108.212 19.8173 107.875 20.4399 107.076 20.9252C107.608 20.9073 107.963 21.0732 108.023 21.2613C108.192 21.7886 107.542 22.5907 105.426 23.6756C104.995 25.4933 102.836 36.633 102.836 36.633C102.836 36.633 99.902 38.7813 95.5244 35.4565Z" fill="white"/>
<path d="M95.5246 35.5337C95.5165 35.5337 95.5081 35.5324 95.4999 35.5296C95.4591 35.5161 95.4369 35.4719 95.4506 35.431C95.703 34.6735 95.966 33.8951 96.2318 33.1172C96.2458 33.0764 96.2901 33.0548 96.3308 33.0686C96.3716 33.0826 96.3934 33.1269 96.3794 33.1677C96.1136 33.9452 95.851 34.7232 95.5985 35.4804C95.5876 35.513 95.5573 35.5337 95.5246 35.5337Z" fill="#363E44"/>
<path d="M106.572 22.3024C106.571 22.3024 106.57 22.3024 106.569 22.3023C105.778 22.2704 105.121 21.97 105.103 21.6325C105.091 21.3851 105.418 21.1237 105.902 20.9613C105.339 20.9002 104.945 20.7107 104.891 20.4526C104.823 20.1296 105.266 19.715 105.946 19.4281C105.35 19.4034 104.872 19.195 104.8 18.8964C104.705 18.5072 105.283 17.8959 106.262 17.6413C106.303 17.6302 106.346 17.6554 106.357 17.6971C106.368 17.7389 106.343 17.7815 106.301 17.7923C105.377 18.0324 104.885 18.5848 104.951 18.8597C105.013 19.1147 105.613 19.3407 106.376 19.2577C106.421 19.2528 106.462 19.2825 106.471 19.3267C106.48 19.3709 106.453 19.4141 106.41 19.427C105.456 19.7143 104.997 20.1969 105.044 20.4206C105.087 20.6278 105.613 20.8414 106.392 20.8254C106.435 20.8244 106.477 20.8584 106.481 20.9042C106.485 20.9502 106.454 20.9903 106.408 20.9978C105.654 21.1205 105.25 21.4462 105.259 21.6244C105.269 21.8206 105.775 22.1141 106.575 22.1464C106.618 22.1481 106.651 22.1844 106.65 22.2274C106.648 22.2695 106.613 22.3024 106.572 22.3024Z" fill="#363E44"/>
<path d="M102.908 23.2939C102.901 23.2939 102.894 23.2929 102.887 23.291C102.845 23.2796 102.821 23.2366 102.833 23.1951C102.905 22.9325 103.1 22.4327 103.588 22.0369C104.14 21.5897 104.74 21.5315 105.048 21.5332C105.091 21.5338 105.126 21.5691 105.125 21.6123C105.124 21.6553 105.086 21.6888 105.046 21.6893C104.815 21.6859 104.219 21.7262 103.686 22.1581C103.232 22.5265 103.051 22.992 102.983 23.2367C102.973 23.2712 102.942 23.2939 102.908 23.2939Z" fill="#363E44"/>
<path d="M121.008 21.2768L122.376 21.2305L120.22 17.9862L120.3 17.5443L122.385 13.0779L121.298 12.8798L117.726 16.9609C114.337 16.2778 108.162 15.0513 102.537 14.0306L105.501 9.46896L104.578 9.30078L98.8204 13.3746C96.3465 12.9524 94.1688 12.6153 92.6464 12.4441C91.5926 12.3256 88.6452 12.8659 88.5196 13.5971C88.3177 14.7712 90.881 15.4121 92.0505 15.7137C93.9107 16.1935 96.689 16.6754 99.7824 17.1261L111.745 27.8574L113.996 27.8189L105.912 17.9395C111 18.5613 115.919 19.054 118.361 19.289L121.008 21.2768Z" fill="#F3BD40"/>
<path d="M94.751 14.4599C94.7588 14.6547 94.6072 14.8189 94.4124 14.8267C94.2176 14.8345 94.0534 14.6829 94.0457 14.4881C94.038 14.2933 94.1895 14.1291 94.3843 14.1214C94.579 14.1135 94.7432 14.2652 94.751 14.4599Z" fill="#776E42"/>
<path d="M96.1743 14.6866C96.182 14.8814 96.0305 15.0456 95.8357 15.0534C95.6409 15.0611 95.4767 14.9095 95.4689 14.7147C95.4612 14.52 95.6128 14.3557 95.8075 14.3479C96.0024 14.3401 96.1666 14.4918 96.1743 14.6866Z" fill="#776E42"/>
<path d="M97.5978 14.9112C97.6056 15.106 97.4539 15.2702 97.2592 15.278C97.0644 15.2857 96.9002 15.1341 96.8924 14.9393C96.8846 14.7446 97.0362 14.5803 97.231 14.5725C97.4259 14.5648 97.5901 14.7164 97.5978 14.9112Z" fill="#776E42"/>
<path d="M99.0211 15.1377C99.0289 15.3325 98.8773 15.4967 98.6825 15.5045C98.4877 15.5123 98.3235 15.3607 98.3157 15.1659C98.3079 14.9711 98.4596 14.8069 98.6543 14.7991C98.8491 14.7913 99.0133 14.9429 99.0211 15.1377Z" fill="#776E42"/>
<path d="M100.444 15.3643C100.452 15.5591 100.3 15.7233 100.106 15.7311C99.9109 15.7388 99.7467 15.5873 99.7389 15.3925C99.7312 15.1977 99.8828 15.0335 100.078 15.0257C100.272 15.0179 100.437 15.1695 100.444 15.3643Z" fill="#776E42"/>
<path d="M101.868 15.5909C101.875 15.7857 101.724 15.9499 101.529 15.9577C101.334 15.9654 101.17 15.8138 101.162 15.619C101.155 15.4242 101.306 15.26 101.501 15.2522C101.696 15.2444 101.86 15.3961 101.868 15.5909Z" fill="#776E42"/>
<path d="M103.291 15.8174C103.299 16.0122 103.147 16.1764 102.953 16.1842C102.758 16.1919 102.594 16.0404 102.586 15.8456C102.578 15.6508 102.73 15.4866 102.924 15.4788C103.119 15.471 103.283 15.6226 103.291 15.8174Z" fill="#776E42"/>
<path d="M104.714 16.042C104.722 16.2368 104.571 16.401 104.376 16.4088C104.181 16.4165 104.017 16.265 104.009 16.0702C104.001 15.8754 104.153 15.7112 104.348 15.7034C104.543 15.6957 104.707 15.8473 104.714 16.042Z" fill="#776E42"/>
<path d="M106.138 16.2706C106.145 16.4654 105.994 16.6296 105.799 16.6373C105.604 16.6451 105.44 16.4935 105.432 16.2987C105.425 16.1039 105.576 15.9397 105.771 15.9319C105.966 15.9242 106.13 16.0758 106.138 16.2706Z" fill="#776E42"/>
<path d="M107.561 16.4952C107.569 16.6899 107.417 16.8541 107.222 16.8619C107.028 16.8697 106.863 16.7181 106.856 16.5233C106.848 16.3285 106.999 16.1643 107.194 16.1565C107.389 16.1487 107.553 16.3004 107.561 16.4952Z" fill="#776E42"/>
<path d="M108.984 16.7218C108.992 16.9166 108.841 17.0808 108.646 17.0885C108.451 17.0963 108.287 16.9447 108.279 16.7499C108.271 16.5551 108.423 16.3909 108.618 16.3831C108.812 16.3754 108.977 16.527 108.984 16.7218Z" fill="#776E42"/>
<path d="M110.408 16.9482C110.415 17.143 110.264 17.3072 110.069 17.315C109.874 17.3227 109.71 17.1712 109.702 16.9764C109.695 16.7816 109.846 16.6174 110.041 16.6097C110.236 16.6018 110.4 16.7534 110.408 16.9482Z" fill="#776E42"/>
<path d="M77.7224 26.5049C81.9025 26.5049 85.2912 23.3951 85.2912 19.5591C85.2912 15.723 81.9025 12.6133 77.7224 12.6133C73.5423 12.6133 70.1537 15.723 70.1537 19.5591C70.1537 23.3951 73.5423 26.5049 77.7224 26.5049Z" fill="#363E44"/>
<path d="M80.7238 25.5977H74.9512V34.406H80.7238V25.5977Z" fill="white"/>
<path d="M77.8377 29.3109C81.1795 29.3109 83.8885 26.1401 83.8885 22.2287C83.8885 18.3173 81.1795 15.1465 77.8377 15.1465C74.4959 15.1465 71.7869 18.3173 71.7869 22.2287C71.7869 26.1401 74.4959 29.3109 77.8377 29.3109Z" fill="white"/>
<path d="M80.1841 16.5509L81.0187 19.0784H83.8424C83.8342 15.761 81.1427 13.0742 77.8233 13.0742C74.5039 13.0742 71.8124 15.7611 71.8042 19.0784H79.441L80.1841 16.5509Z" fill="#363E44"/>
<path d="M72.4083 24.9291C73.2144 24.5613 73.4249 23.2922 72.8785 22.0945C72.332 20.8968 71.2355 20.224 70.4294 20.5918C69.6232 20.9596 69.4127 22.2287 69.9592 23.4265C70.5056 24.6242 71.6021 25.2969 72.4083 24.9291Z" fill="white"/>
<path d="M71.0187 23.7681C71.0008 23.7681 70.9827 23.762 70.9681 23.7495C70.7777 23.5871 70.6165 23.3686 70.5019 23.1175C70.3523 22.7896 70.2978 22.4408 70.3484 22.1355C70.4009 21.8188 70.5596 21.5853 70.7953 21.4777C70.9731 21.3966 71.1784 21.3955 71.389 21.4745C71.4293 21.4896 71.4497 21.5346 71.4346 21.575C71.4194 21.6154 71.3743 21.6355 71.3342 21.6206C71.1632 21.5563 70.9993 21.5561 70.86 21.6196C70.6731 21.7049 70.546 21.8972 70.5022 22.1609C70.4566 22.4359 70.5069 22.7527 70.6438 23.0527C70.7489 23.2831 70.896 23.4831 71.0692 23.6307C71.102 23.6586 71.1059 23.7078 71.0779 23.7406C71.0627 23.7588 71.0408 23.7681 71.0187 23.7681Z" fill="#363E44"/>
<path d="M77.8492 29.4895C76.8271 29.4895 75.8102 29.2015 74.9086 28.6565C74.8717 28.6343 74.8599 28.5863 74.8823 28.5494C74.9044 28.5126 74.9522 28.5006 74.9894 28.523C75.8791 29.0608 76.8413 29.3335 77.8492 29.3335C78.8517 29.3335 79.8091 29.0637 80.695 28.5314C80.732 28.5092 80.78 28.5212 80.802 28.5582C80.8242 28.5951 80.8122 28.6431 80.7753 28.6652C79.8649 29.2122 78.8803 29.4895 77.8492 29.4895Z" fill="#363E44"/>
<path d="M85.8243 23.4211C86.3707 22.2234 86.1602 20.9543 85.3541 20.5865C84.5479 20.2187 83.4514 20.8915 82.905 22.0892C82.3585 23.2869 82.569 24.556 83.3752 24.9238C84.1813 25.2916 85.2778 24.6188 85.8243 23.4211Z" fill="white"/>
<path d="M84.6802 23.768C84.6582 23.768 84.6363 23.7587 84.6208 23.7406C84.5929 23.7078 84.5967 23.6586 84.6295 23.6306C84.8028 23.4828 84.9499 23.283 85.0549 23.0527C85.3329 22.4436 85.2358 21.8008 84.8388 21.6196C84.6995 21.556 84.5356 21.5563 84.3646 21.6206C84.3241 21.6355 84.2793 21.6153 84.2641 21.5749C84.2491 21.5345 84.2694 21.4896 84.3098 21.4745C84.5204 21.3954 84.7258 21.3966 84.9035 21.4777C85.3789 21.6945 85.5105 22.4302 85.197 23.1174C85.0824 23.3684 84.9212 23.5869 84.7308 23.7494C84.7162 23.7619 84.6981 23.768 84.6802 23.768Z" fill="#363E44"/>
<path d="M83.4835 24.8969C83.4756 24.8969 83.4673 24.8957 83.4593 24.893C83.4184 24.8796 83.396 24.8356 83.4094 24.7946C83.6796 23.9696 83.8166 23.099 83.8166 22.207C83.8166 21.8268 83.7912 21.4452 83.741 21.0729C83.7353 21.0301 83.7653 20.9909 83.8079 20.9851C83.8516 20.9791 83.8899 21.0094 83.8956 21.052C83.9466 21.4313 83.9725 21.8199 83.9725 22.207C83.9725 23.1155 83.8329 24.0024 83.5576 24.8432C83.5469 24.876 83.5164 24.8969 83.4835 24.8969Z" fill="#363E44"/>
<path d="M72.1941 24.8668C72.1614 24.8668 72.1309 24.8461 72.1201 24.8133C71.847 23.9894 71.7086 23.1197 71.7086 22.2282C71.7086 21.7859 71.7434 21.3429 71.8121 20.9115C71.8188 20.869 71.8585 20.8397 71.9014 20.8467C71.9439 20.8535 71.9729 20.8935 71.9661 20.9361C71.8988 21.3593 71.8646 21.7941 71.8646 22.2282C71.8646 23.103 72.0004 23.9562 72.2682 24.7642C72.2818 24.8051 72.2597 24.8493 72.2187 24.8628C72.2105 24.8655 72.2022 24.8668 72.1941 24.8668Z" fill="#363E44"/>
<path d="M76.5463 22.6557C76.5463 22.6557 75.3032 23.3369 74.2264 22.9395C73.1498 22.542 72.6473 21.2164 72.6473 21.2164C72.6473 21.2164 73.0738 20.9831 73.6453 20.8696C74.0476 20.7897 74.5835 21.8275 74.5835 21.8275C74.5835 21.8275 75.826 21.4891 76.0845 21.8392C76.3992 22.2653 76.5463 22.6557 76.5463 22.6557Z" fill="#F9DF51"/>
<path d="M76.0173 22.0964C76.0489 22.0106 76.0712 21.9237 76.0847 21.8365C75.826 21.4845 75.4559 21.1129 74.9673 20.9325C74.5214 20.7679 74.0481 20.7894 73.6451 20.8697C73.5838 20.9596 73.5309 21.0572 73.4916 21.164C73.234 21.8615 73.5907 22.6356 74.2882 22.8931C74.9857 23.1506 75.7598 22.7939 76.0173 22.0964Z" fill="#363E44"/>
<path d="M77.9584 24.8508C77.9326 24.8508 77.9074 24.838 77.8925 24.8146C77.8693 24.7782 77.8801 24.73 77.9165 24.7069C78.1184 24.5785 78.2405 24.4301 78.2796 24.2657C78.3206 24.0929 78.2589 23.9527 78.1734 23.7587C78.1074 23.6089 78.0326 23.4392 77.9886 23.2139C77.9326 22.9268 77.9432 22.6225 78.02 22.3094C78.0304 22.2676 78.073 22.2421 78.1144 22.2522C78.1562 22.2625 78.1818 22.3048 78.1716 22.3466C78.1001 22.6376 78.0901 22.9194 78.1417 23.184C78.1823 23.3922 78.2534 23.5535 78.3161 23.6958C78.4065 23.9009 78.4845 24.078 78.4313 24.3019C78.3826 24.5072 78.2376 24.6877 78.0001 24.8387C77.9872 24.8468 77.9727 24.8508 77.9584 24.8508Z" fill="#363E44"/>
<path d="M77.2321 26.123C76.9942 26.123 76.7509 26.0483 76.5624 25.9014C76.3673 25.7494 76.2503 25.533 76.2414 25.3078C76.2397 25.2646 76.2731 25.2283 76.3162 25.2267C76.3601 25.2241 76.3956 25.2585 76.3973 25.3015C76.4044 25.4809 76.4996 25.6546 76.6583 25.7783C76.9532 26.0082 77.4236 26.0298 77.7067 25.8269C77.7419 25.8017 77.7905 25.8098 77.8156 25.8448C77.8407 25.8798 77.8327 25.9285 77.7977 25.9536C77.6393 26.0671 77.4378 26.123 77.2321 26.123Z" fill="#363E44"/>
<path d="M77.7779 36.3532C80.3602 36.3532 82.4536 35.3818 82.4536 34.1834C82.4536 32.9851 80.3602 32.0137 77.7779 32.0137C75.1956 32.0137 73.1023 32.9851 73.1023 34.1834C73.1023 35.3818 75.1956 36.3532 77.7779 36.3532Z" fill="white"/>
<path d="M78.9703 22.6315C78.9703 22.6315 80.2046 23.3289 81.2864 22.9455C82.3681 22.5621 82.8878 21.2431 82.8878 21.2431C82.8878 21.2431 82.5657 21.0611 82.1064 20.9342C81.6666 20.8127 80.9855 21.7991 80.9855 21.7991C80.9855 21.7991 79.8276 21.3584 79.5761 21.6521C79.1689 22.1275 78.9703 22.6315 78.9703 22.6315Z" fill="#F9DF51"/>
<path d="M82.185 21.1006C82.1647 21.0434 82.14 20.9894 82.1131 20.9368C81.6723 20.8141 81.104 20.7408 80.5718 20.9294C80.1579 21.0762 79.827 21.3598 79.5753 21.6541C79.5844 21.7695 79.6069 21.8856 79.6474 22C79.8958 22.7007 80.6651 23.0674 81.366 22.8191C82.0668 22.5707 82.4334 21.8013 82.185 21.1006Z" fill="#363E44"/>
<path d="M70.1343 16.4889C70.1253 16.4889 70.116 16.4873 70.1069 16.4839C70.0666 16.4688 70.0462 16.4238 70.0612 16.3835C70.896 14.1515 72.7041 12.6211 74.78 12.3897C76.1627 12.2354 77.315 12.699 78.0375 13.1151C78.0748 13.1366 78.0877 13.1843 78.0661 13.2216C78.0447 13.2589 77.9969 13.2719 77.9596 13.2502C77.2574 12.8458 76.139 12.3952 74.7972 12.5448C72.7802 12.7697 71.0214 14.2616 70.2073 16.4382C70.1956 16.4695 70.1659 16.4889 70.1343 16.4889Z" fill="#363E44"/>
<path d="M74.5441 15.1483C74.531 15.1483 74.5177 15.1451 74.5055 15.138C74.4681 15.1166 74.4551 15.069 74.4765 15.0316C74.8904 14.3078 75.6508 13.3265 76.9226 12.7615C78.8318 11.9138 81.165 12.3224 83.0119 13.8281C83.0453 13.8554 83.0503 13.9044 83.0231 13.9378C82.9959 13.9711 82.9469 13.9764 82.9134 13.9491C81.1122 12.4807 78.841 12.0803 76.986 12.9042C75.7527 13.4518 75.0142 14.4056 74.6119 15.1091C74.5975 15.1342 74.5711 15.1483 74.5441 15.1483Z" fill="#363E44"/>
<path d="M242.28 18.5312H188.583V72.2277H242.28V18.5312Z" fill="#EFA231"/>
<path d="M205.578 50.4497C205.578 50.4497 202.83 35.445 201.6 30.5405C200.309 25.3898 197.652 17.9731 196.62 18.3582C196.031 18.5774 196.185 19.6638 196.787 22.5404C196.611 22.4254 195.992 22.209 195.48 22.5018C194.722 22.9352 194.904 23.6438 194.89 23.7136C194.834 23.6698 194.164 23.2051 193.607 23.4093C192.98 23.6393 192.757 24.1604 192.728 24.6837C192.585 24.5793 191.903 24.2375 191.379 24.4605C190.697 24.7503 190.59 25.5637 190.748 26.1549C191.037 27.2395 191.9 30.1832 192.158 31.7983C192.665 34.9766 192.952 46.5052 194.9 50.9049C197.936 48.0537 205.578 50.4497 205.578 50.4497Z" fill="white"/>
<path d="M195.964 31.8802C195.962 31.8802 195.96 31.8801 195.957 31.8799C195.914 31.8759 195.883 31.838 195.887 31.7951C195.995 30.6129 196.502 29.8049 196.91 29.1557C197.311 28.5178 197.576 28.0964 197.254 27.6675C196.966 27.2849 196.816 26.7133 196.81 25.9688C196.807 25.7299 196.945 25.5281 197.169 25.4424C197.392 25.3572 197.638 25.4175 197.795 25.5962L200.074 28.1885C200.103 28.2208 200.099 28.2702 200.067 28.2985C200.035 28.3269 199.985 28.3238 199.957 28.2915L197.677 25.6992C197.539 25.5423 197.353 25.5389 197.225 25.5881C197.098 25.6366 196.964 25.7616 196.966 25.9672C196.972 26.6677 197.115 27.2233 197.378 27.5738C197.765 28.0885 197.446 28.5961 197.042 29.2388C196.643 29.8739 196.147 30.6643 196.042 31.8093C196.038 31.8499 196.004 31.8802 195.964 31.8802Z" fill="#363E44"/>
<path d="M191.886 27.9225C191.852 27.9225 191.82 27.8993 191.811 27.8643C191.8 27.8227 191.825 27.78 191.866 27.769C192.699 27.5496 193.226 26.715 193.065 25.869L192.937 25.1918C192.929 25.1527 192.952 25.1141 192.991 25.1026C193.029 25.0908 193.07 25.1102 193.085 25.1469L193.612 26.3948C193.805 26.8512 194.296 27.1045 194.779 26.9971C195.052 26.9368 195.282 26.7729 195.429 26.5357C195.576 26.2985 195.62 26.0189 195.552 25.7481L195.117 23.9981C195.107 23.9579 195.13 23.9168 195.17 23.9047C195.209 23.8924 195.252 23.9135 195.266 23.9525L195.565 24.7712C195.714 25.1793 196.169 25.3971 196.581 25.2556C196.969 25.1227 197.194 24.7209 197.105 24.321L196.831 23.087C196.822 23.0449 196.848 23.0033 196.89 22.9939C196.932 22.985 196.974 23.0112 196.983 23.0532L197.257 24.2872C197.363 24.7647 197.094 25.2444 196.632 25.4033C196.225 25.5428 195.782 25.3888 195.541 25.0549L195.704 25.7104C195.781 26.0223 195.731 26.3445 195.562 26.6178C195.393 26.891 195.127 27.0798 194.813 27.1494C194.255 27.2731 193.69 26.9812 193.468 26.4554L193.226 25.8812C193.377 26.7931 192.804 27.6831 191.906 27.9197C191.9 27.9216 191.893 27.9225 191.886 27.9225Z" fill="#363E44"/>
<path d="M203.292 33.4922L191.189 37.2019C191.189 37.2019 191.333 51.5461 194.544 55.0002C197.202 57.8587 215.467 54.5587 215.467 54.5587L216.434 38.9708L204.595 42.3212L203.292 33.4922Z" fill="#E98029"/>
<path d="M243.003 56.2907L249.184 66.9416L258.7 60.2661C262.727 57.9499 263.276 52.3624 259.782 49.302C254.936 45.058 249.495 40.4722 238.083 38.7695L238.863 49.5992L245.814 54.9998L243.003 56.2907Z" fill="#E98029"/>
<path d="M242.673 67.5522C242.673 67.5522 227.075 74.1967 211.416 67.1312L214.718 39.4902C214.718 39.4902 225.032 35.516 241.791 39.3885L242.673 67.5522Z" fill="#E98029"/>
<path d="M211.957 55.3884C211.953 55.3884 211.949 55.388 211.945 55.3873C211.902 55.3806 211.873 55.3405 211.88 55.298L213.373 45.9427C213.38 45.9002 213.42 45.8712 213.463 45.8779C213.505 45.8847 213.534 45.9247 213.527 45.9673L212.034 55.3226C212.028 55.361 211.995 55.3884 211.957 55.3884Z" fill="#363E44"/>
<path d="M236.128 38.7237C236.128 38.7237 228.247 42.8334 220.359 38.6699C220.359 38.6699 226.725 36.6395 236.128 38.7237Z" fill="white"/>
<path d="M235.231 34.4605C235.231 35.9737 234.004 37.2004 232.491 37.2004C230.978 37.2004 229.751 35.9737 229.751 34.4605L232.491 31.7207C234.004 31.7207 235.231 32.9474 235.231 34.4605Z" fill="#363E44"/>
<path d="M235.82 40.2288C236.881 39.1683 236.881 37.4489 235.82 36.3884C234.76 35.3279 233.04 35.3279 231.98 36.3884C230.919 37.4489 230.919 39.1683 231.98 40.2288C233.04 41.2893 234.76 41.2893 235.82 40.2288Z" fill="#363E44"/>
<path d="M233.901 44.4634C235.306 44.4634 236.444 43.3252 236.444 41.9212C236.444 40.5171 235.306 39.3789 233.901 39.3789C232.497 39.3789 231.359 40.5171 231.359 41.9212C231.359 43.3252 232.497 44.4634 233.901 44.4634Z" fill="#363E44"/>
<path d="M235.044 45.0164C235.044 46.2173 234.07 47.1908 232.869 47.1908C231.669 47.1908 230.695 46.2173 230.695 45.0164C230.695 43.8153 231.669 42.8418 232.869 42.8418C234.07 42.8418 235.044 43.8152 235.044 45.0164Z" fill="#363E44"/>
<path d="M231.85 45.7363C230.614 46.6305 228.916 48.115 227.536 50.3871C224.575 55.2618 225.196 60.2755 225.462 61.8739C227.162 61.7991 228.862 61.7244 230.561 61.6497C230.384 60.5309 230.269 59.1199 230.393 57.5032C230.594 54.894 231.338 52.8197 231.962 51.4516C231.711 52.7636 231.509 54.3095 231.458 56.0463C231.394 58.2311 231.587 60.1467 231.85 61.7057C232.616 61.6496 233.382 61.5937 234.148 61.5376C233.852 59.5881 233.614 57.4718 233.475 55.2059C233.28 52.0213 233.315 49.089 233.475 46.4648C232.933 46.2219 232.392 45.9792 231.85 45.7363Z" fill="#363E44"/>
<path d="M224.794 61.798C224.755 61.798 224.722 61.7694 224.716 61.7301C224.423 59.4743 224.315 55.0565 226.892 50.8133C227.998 48.9934 229.456 47.4211 231.228 46.1398C231.263 46.1145 231.311 46.1224 231.337 46.1574C231.362 46.1922 231.354 46.241 231.319 46.2663C229.565 47.5353 228.12 49.0924 227.026 50.8943C224.473 55.0968 224.58 59.4745 224.871 61.7099C224.877 61.7527 224.847 61.7918 224.804 61.7973C224.8 61.7978 224.797 61.798 224.794 61.798Z" fill="#363E44"/>
<path d="M245.124 43.2266C245.124 43.2266 232.33 45.4033 228.803 56.8009C228.803 56.8009 216.328 50.8542 208.545 49.8303L230.305 64.2357L245.124 43.2266Z" fill="#F2E6DC"/>
<path d="M211.941 72.2576L232.025 80.5983C232.201 81.4713 233.052 82.036 233.925 81.8596C234.798 81.6831 235.363 80.8324 235.186 79.9594L250.344 64.4957L245.707 41.5527L230.549 57.0164C230.725 57.8894 230.161 58.7401 229.288 58.9165C228.415 59.093 227.564 58.5283 227.388 57.6553L207.304 49.3146L211.941 72.2576Z" fill="#F3BD40"/>
<path d="M234.921 79.1054C234.884 79.1054 234.852 79.0799 234.844 79.0429L230.8 59.0329C230.792 58.9907 230.819 58.9495 230.861 58.9409C230.904 58.9327 230.944 58.9597 230.953 59.0019L234.997 79.0119C235.006 79.0541 234.979 79.0953 234.936 79.1039C234.931 79.105 234.926 79.1054 234.921 79.1054Z" fill="#776E42"/>
<path d="M231.952 79.7051C231.916 79.7051 231.883 79.6796 231.876 79.6426L227.831 59.6325C227.823 59.5903 227.85 59.5492 227.892 59.5406C227.935 59.5322 227.975 59.5594 227.984 59.6016L232.029 79.6116C232.037 79.6538 232.01 79.695 231.968 79.7036C231.962 79.7047 231.957 79.7051 231.952 79.7051Z" fill="#776E42"/>
<path d="M227.62 57.4583C227.599 57.4583 227.578 57.4496 227.562 57.4324C227.533 57.4004 227.536 57.3511 227.568 57.3223C227.579 57.3122 228.703 56.3243 230.258 56.7767C230.299 56.7887 230.323 56.832 230.311 56.8734C230.299 56.9147 230.256 56.9386 230.215 56.9265C228.745 56.499 227.683 57.4289 227.672 57.4385C227.657 57.4517 227.639 57.4583 227.62 57.4583Z" fill="#E6D0BE"/>
<path d="M242.28 56.3638L249.184 66.9413L260.744 57.3808L255.514 49.752L242.28 56.3638Z" fill="#E98029"/>
<path d="M248.112 53.3563C248.082 53.3563 248.054 53.34 248.041 53.3119C248.022 53.273 248.039 53.2265 248.078 53.208L255.481 49.6814C255.52 49.6629 255.567 49.6794 255.585 49.7183C255.603 49.7572 255.587 49.8038 255.548 49.8223L248.145 53.3488C248.134 53.3538 248.123 53.3563 248.112 53.3563Z" fill="#363E44"/>
<path d="M240.28 58.6357C240.654 58.3992 242.134 57.6691 244.057 56.7045C246.116 55.672 248.616 56.0648 250.234 57.7048C250.277 57.7492 250.321 57.7939 250.365 57.8389C252.851 60.3957 252.185 64.6238 249.032 66.2898C243.862 69.0219 238.869 71.5877 238.045 72.1084C237.155 72.714 235.11 74.1159 234.633 73.5058C233.984 72.6747 235.944 70.8631 235.945 70.7237C235.298 71.211 233.066 72.7356 232.493 72.063C232.053 71.5459 233.803 69.3823 234.22 68.8222C234.162 68.8344 231.881 71.0567 231.161 70.2746C230.547 69.6088 232.138 67.5002 232.489 66.913C231.851 67.3255 229.931 68.4899 229.557 67.7744C228.773 66.2769 238.447 59.7958 240.28 58.6357Z" fill="white"/>
<path d="M232.423 66.9367C232.407 66.9367 232.39 66.9314 232.376 66.9205C232.342 66.8941 232.335 66.8451 232.362 66.811C232.641 66.4485 232.949 66.1026 233.274 65.7832C233.86 65.2091 234.519 64.706 235.233 64.288C235.27 64.2663 235.318 64.2788 235.339 64.316C235.361 64.3532 235.349 64.4009 235.312 64.4227C234.609 64.8341 233.96 65.3294 233.384 65.8945C233.063 66.209 232.761 66.5494 232.485 66.9063C232.47 66.9263 232.447 66.9367 232.423 66.9367Z" fill="#363E44"/>
<path d="M234.153 68.8756C234.134 68.8756 234.114 68.8683 234.099 68.8539C234.068 68.824 234.067 68.7746 234.097 68.7436C234.164 68.6743 234.232 68.6048 234.303 68.5351C234.889 67.9608 235.548 67.4578 236.262 67.04C236.299 67.0183 236.347 67.0306 236.369 67.0679C236.39 67.1051 236.378 67.1529 236.341 67.1746C235.638 67.5859 234.989 68.0811 234.413 68.6464C234.343 68.715 234.275 68.7834 234.21 68.8515C234.194 68.8675 234.174 68.8756 234.153 68.8756Z" fill="#363E44"/>
<path d="M235.977 70.7536C235.955 70.7536 235.932 70.744 235.917 70.7253C235.889 70.6921 235.894 70.6429 235.927 70.6155C236.341 70.2743 236.787 69.963 237.252 69.6904C237.289 69.6686 237.337 69.681 237.359 69.7183C237.381 69.7555 237.368 69.8033 237.331 69.825C236.873 70.0935 236.434 70.3999 236.027 70.7359C236.012 70.7478 235.995 70.7536 235.977 70.7536Z" fill="#363E44"/>
<path d="M205.085 46.2821C205.046 46.2821 205.012 46.2533 205.007 46.2138L204.518 42.3299C204.512 42.2872 204.542 42.2482 204.585 42.2428C204.628 42.2374 204.667 42.2677 204.672 42.3104L205.162 46.1943C205.168 46.2371 205.137 46.2761 205.095 46.2814C205.091 46.2818 205.088 46.2821 205.085 46.2821Z" fill="#363E44"/>
<path d="M227.407 40.2989L228.302 40.1357C229.32 39.9501 229.995 38.9745 229.81 37.9565L228.899 32.9636C228.714 31.9457 227.738 31.2709 226.72 31.4565L225.824 31.6198C224.807 31.8053 224.132 32.781 224.317 33.7989L225.228 38.7918C225.413 39.8098 226.389 40.4845 227.407 40.2989Z" fill="white"/>
<path d="M229.382 26.0384C229.21 25.9137 227.542 24.7446 225.785 25.3245C224.478 25.7561 223.714 26.845 222.709 28.865C221.524 31.244 221.149 32.8314 221.543 33.6687C222.166 34.9915 226.218 35.2216 228.561 33.9105C230.251 32.9641 231.242 31.0505 231.183 29.1002C231.124 27.1554 229.492 26.1179 229.382 26.0384Z" fill="white"/>
<path d="M223.445 26.6641C223.438 26.6805 223.422 26.6872 223.415 26.7035C223.414 26.7042 223.414 26.7049 223.414 26.7056C223.251 26.8932 223.079 27.0907 222.884 27.2453C222.798 27.3138 222.71 27.3298 222.622 27.3851C222.557 27.4257 222.495 27.4648 222.429 27.5022C222.216 26.7064 222.399 25.9492 222.399 25.9492C222.399 25.9492 222.959 26.1829 223.445 26.6641Z" fill="white"/>
<path d="M224.15 29.3323C224.137 29.3366 224.124 29.3406 224.111 29.3445C223.931 29.2638 223.046 28.8337 222.615 27.9906C222.534 27.8325 222.475 27.67 222.431 27.509C222.456 27.4457 222.485 27.3831 222.52 27.3225C222.729 26.967 223.071 26.7402 223.446 26.666C223.627 26.847 223.799 27.0635 223.929 27.3179C224.367 28.1738 224.187 29.1601 224.15 29.3323Z" fill="#363E44"/>
<path d="M226.618 30.4487C226.474 30.7047 226.318 30.8715 226.063 30.9904C225.481 30.6012 225.146 30.0872 225.146 30.0872C225.146 30.0872 225.987 29.7148 226.887 29.8466C226.851 30.06 226.72 30.267 226.618 30.4487Z" fill="white"/>
<path d="M226.89 29.8477C226.99 29.8632 227.091 29.8847 227.191 29.914C228.207 30.2096 228.824 31.1579 228.824 31.1579C228.824 31.1579 227.794 31.6271 226.779 31.3315C226.516 31.2551 226.281 31.1351 226.076 30.9992C226.115 30.5037 226.421 30.0562 226.89 29.8477Z" fill="#363E44"/>
<path d="M233.871 29.9372C233.321 32.2926 232.006 34.1317 229.211 34.6717C228.194 33.5799 229.305 32.0099 229.249 31.2968C229.179 30.4093 230.282 28.9508 230.883 28.3649C228.385 27.1788 224.507 25.7938 224.481 25.6781C224.402 25.336 225.303 24.7166 226.828 24.2165C227.689 23.9343 229.01 23.5735 230.044 24.1283C231.885 25.1155 234.555 27.013 233.871 29.9372Z" fill="#363E44"/>
<path d="M228.523 31.7925C227.819 32.2735 227.577 33.1459 227.984 33.7409C228.391 34.336 229.291 34.4284 229.995 33.9473C230.699 33.4663 230.94 32.5939 230.534 31.9989C230.127 31.4038 229.227 31.3114 228.523 31.7925Z" fill="white"/>
<path d="M229.495 33.5745C229.465 33.5745 229.437 33.5576 229.424 33.5289C229.406 33.4897 229.423 33.4434 229.462 33.4255C229.506 33.4058 229.548 33.3818 229.589 33.354C229.911 33.1344 230.024 32.7387 229.842 32.4723C229.799 32.4085 229.741 32.3566 229.672 32.3181C229.634 32.2971 229.621 32.2497 229.642 32.212C229.663 32.1746 229.71 32.1607 229.748 32.1817C229.838 32.2321 229.914 32.3002 229.971 32.3842C230.201 32.7217 230.07 33.2146 229.677 33.4829C229.629 33.5156 229.578 33.544 229.527 33.5675C229.517 33.5724 229.506 33.5745 229.495 33.5745Z" fill="#363E44"/>
<path d="M223.282 30.5499C223.241 30.5499 223.207 30.5178 223.204 30.4764C223.194 30.3052 223.233 30.1683 223.318 30.0694C223.413 29.9605 223.533 29.935 223.66 29.9082C223.746 29.8899 223.844 29.8693 223.952 29.8195C224.089 29.7563 224.214 29.6593 224.323 29.5313C224.351 29.4985 224.401 29.4946 224.433 29.5226C224.466 29.5505 224.47 29.5998 224.442 29.6326C224.318 29.7778 224.175 29.8885 224.017 29.9612C223.893 30.0183 223.786 30.0409 223.692 30.0609C223.578 30.0849 223.496 30.1023 223.436 30.1715C223.378 30.2386 223.353 30.3382 223.36 30.4674C223.362 30.5105 223.33 30.5473 223.287 30.5498C223.285 30.5498 223.283 30.5499 223.282 30.5499Z" fill="#363E44"/>
<path d="M223.69 32.1574C223.632 32.1574 223.571 32.1517 223.508 32.1384C223.193 32.0719 223.015 31.858 222.953 31.7692C222.928 31.7339 222.936 31.6853 222.972 31.6605C223.007 31.636 223.056 31.6444 223.08 31.6797C223.132 31.7534 223.28 31.9308 223.54 31.9857C223.831 32.0474 224.058 31.9118 224.12 31.8687C224.156 31.8443 224.204 31.8534 224.229 31.8887C224.253 31.9242 224.244 31.9728 224.209 31.9972C224.147 32.0397 223.952 32.1574 223.69 32.1574Z" fill="#363E44"/>
<path d="M225.035 34.9016C224.867 34.9016 224.685 34.8953 224.49 34.8807C224.447 34.8775 224.415 34.8401 224.418 34.7972C224.421 34.7543 224.457 34.7208 224.501 34.7252C225.98 34.835 226.659 34.4575 226.665 34.4537C226.702 34.4324 226.75 34.4452 226.772 34.4823C226.793 34.5196 226.78 34.5672 226.743 34.5887C226.718 34.6031 226.188 34.9016 225.035 34.9016Z" fill="#363E44"/>
</g>
<defs>
<clipPath id="clip0_535_9653">
<rect width="310" height="103.333" rx="6.2" fill="white"/>
</clipPath>
<clipPath id="clip1_535_9653">
<rect x="83.1833" y="-12.6582" width="143.321" height="146.733" rx="11.3747" fill="white"/>
</clipPath>
<clipPath id="clip2_535_9653">
<rect x="83.1836" y="-12.6582" width="143.321" height="146.733" rx="11.3747" fill="white"/>
</clipPath>
</defs>
</svg>
