<svg width="231" height="322" viewBox="0 0 231 322" fill="none" xmlns="http://www.w3.org/2000/svg">
<rect x="0.445312" y="0.314453" width="230" height="321.37" rx="18.9041" fill="#F7FFE5"/>
<path d="M86.6495 22.5974V30.5623H86.5487C86.5487 29.9574 85.9941 23.9081 80.2977 23.9081H71.627V41.0982H79.7936C84.2298 41.0982 84.6835 36.6621 84.6835 36.2084H84.7339V47.2988H84.6835C84.6835 46.8451 84.2298 42.4089 79.7936 42.4089H71.627V60.6073H81.3059C87.0024 60.6073 87.5569 54.558 87.5569 53.953H87.6577V61.918H60.335V61.8171C60.6374 61.8171 63.4604 61.3634 63.4604 56.2719V28.2434C63.4604 23.1519 60.6374 22.6982 60.335 22.6982V22.5974H86.6495ZM93.2506 32.5284C93.2506 25.6221 99.1991 21.8916 106.862 21.8916C111.449 21.8916 114.222 22.5974 117.801 22.5974V30.8648H117.7C117.397 29.2517 116.843 27.1848 115.079 25.5717C113.516 24.2106 111.046 23.2023 106.962 23.2023C102.829 23.2023 98.9974 24.8659 98.9974 28.7475C98.9974 32.2259 102.224 34.0911 105.047 35.7043L112.155 39.7371C117.851 42.9634 120.17 46.7443 120.17 51.0796C120.17 57.8347 114.574 62.2204 105.299 62.2204C102.072 62.2204 97.3843 61.918 94.158 61.918V51.4325H94.2588C94.5108 53.6506 95.015 56.0703 96.7793 57.9859C98.3421 59.6999 100.963 60.9097 104.845 60.9097C111.499 60.9097 113.617 57.7843 113.617 54.558C113.617 51.9366 112.306 49.6681 107.416 46.8955L99.9552 42.661C95.6703 40.2412 93.2506 37.2166 93.2506 32.5284ZM127.907 23.9081C122.21 23.9081 121.656 29.9574 121.656 30.5623H121.555V22.5974H153.919V30.5623H153.818C153.818 29.9574 153.263 23.9081 147.567 23.9081H141.82V56.2719C141.82 61.3634 144.643 61.8171 144.945 61.8171V61.918H130.528V61.8171C130.83 61.8171 133.653 61.3634 133.653 56.2719V23.9081H127.907ZM155.915 72.5043C159.242 72.5043 159.645 66.6062 159.645 62.0692V28.2434C159.645 23.1519 156.822 22.6982 156.52 22.6982V22.5974H170.937V22.6982C170.635 22.6982 167.812 23.1519 167.812 28.2434V61.9684C167.812 68.7739 163.073 72.6051 155.915 72.6051V72.5043Z" fill="#51691C"/>
<path d="M55.3864 91.6445V91.613C55.4809 91.613 56.3631 91.4712 56.3631 89.8801V81.1212C56.3631 79.5301 55.4809 79.3884 55.3864 79.3884V79.3569H58.3165L65.122 87.6274V81.1212C65.122 79.5301 64.2398 79.3884 64.1453 79.3884V79.3569H66.5398V79.3884C66.4453 79.3884 65.5631 79.5301 65.5631 81.1212V91.7391L56.8042 81.1212V89.8801C56.8042 91.4712 57.6864 91.613 57.7809 91.613V91.6445H55.3864ZM71.1893 94.6849C72.0242 94.6849 72.5599 94.3541 72.9064 93.8815C73.4421 93.1411 73.5366 92.0541 73.5366 91.2664V90.3843C73.0482 91.2822 72.0558 91.8336 70.9845 91.8336C68.5585 91.8336 67.0462 89.9747 67.0462 87.3596C67.0462 84.4295 68.5585 82.2555 71.2366 82.2555C72.4968 82.2555 73.127 82.7753 73.5366 83.3425V82.413H77.0338V82.4445C76.9393 82.4445 76.0571 82.5863 76.0571 84.1774V91.0144C76.0571 92.3534 75.553 93.2829 74.8441 93.913C73.8832 94.7795 72.5284 95.063 71.5674 95.063C69.9921 95.063 68.9681 94.5117 68.3852 94.5117V92.0856H68.4325C68.5742 92.9048 68.9523 93.4877 69.3934 93.8973C70.0236 94.4801 70.7797 94.6849 71.1893 94.6849ZM69.551 87.2021C69.551 89.376 70.3229 91.1404 71.6934 91.1404C72.4968 91.1404 73.0797 90.6678 73.5366 89.5808V84.1774C73.127 83.311 72.5441 83.1062 72.0873 83.1062C70.6379 83.1062 69.551 84.713 69.551 87.2021ZM81.4831 91.8021C80.6954 91.8021 79.9865 91.5658 79.4666 91.1089C78.9625 90.6521 78.6475 89.9747 78.6475 89.0767V84.1774C78.6475 82.5863 77.7653 82.4445 77.6707 82.4445V82.413H81.168V88.8719C81.168 89.2658 81.1995 89.7856 81.4043 90.211C81.6091 90.6206 81.9714 90.9199 82.5228 90.9199C83.6413 90.9199 84.4447 89.8014 84.4447 88.2575V84.1774C84.4447 82.5863 83.5625 82.4445 83.468 82.4445V82.413H86.9653V83.0432C87.2173 82.8384 87.2961 82.6178 87.3118 82.413C87.3118 82.2397 87.2488 81.8301 86.6187 81.6726V81.6569L87.9262 80.7432C88.1153 80.8849 88.3831 81.3733 88.3516 81.7986C88.3043 82.5548 87.5009 83.0589 86.9653 83.2952V89.8801C86.9653 91.4712 87.8475 91.613 87.942 91.613V91.6445H84.4447V90.0062C84.0666 90.8884 83.216 91.8021 81.4831 91.8021ZM93.7987 91.8336C90.7425 91.8336 89.2302 89.6596 89.2302 87.0445C89.2302 84.4295 90.7425 82.2555 93.7987 82.2555C94.9644 82.2555 95.9096 82.5706 96.6343 83.1062C96.7446 82.9486 96.7761 82.7753 96.7603 82.6336C96.7446 82.4603 96.6501 82.0664 96.0042 81.9562V81.9404L97.2329 80.9164C97.4377 81.0425 97.737 81.5151 97.7528 81.9404C97.7686 82.5233 97.3117 82.9959 96.8706 83.311C97.8631 84.1932 98.3672 85.548 98.3672 87.0445C98.3672 89.6596 96.8549 91.8336 93.7987 91.8336ZM91.8138 87.0445C91.8138 89.376 92.3494 91.4555 93.7987 91.4555C95.248 91.4555 95.7994 89.376 95.7994 87.0445C95.7994 84.713 95.248 82.6336 93.7987 82.6336C92.3494 82.6336 91.8138 84.713 91.8138 87.0445ZM92.1288 80.4596V80.4123L92.9638 79.2466H93.011C93.6569 80.1445 94.8069 81.3733 95.5631 81.6726L95.5158 81.7199C94.5864 81.5938 92.9323 81.074 92.1288 80.4596ZM100.287 84.1774C100.287 82.5863 99.4043 82.4445 99.3098 82.4445V82.413H102.807V89.8801C102.807 91.4712 103.689 91.613 103.784 91.613V91.6445H99.3098V91.613C99.4043 91.613 100.287 91.4712 100.287 89.8801V84.1774ZM100.129 80.176C100.129 79.4356 100.743 78.8212 101.484 78.8212C102.224 78.8212 102.839 79.4356 102.839 80.176C102.839 80.9164 102.224 81.5308 101.484 81.5308C100.743 81.5308 100.129 80.9164 100.129 80.176ZM112.588 94.6849C113.423 94.6849 113.959 94.3541 114.305 93.8815C114.841 93.1411 114.935 92.0541 114.935 91.2664V90.3843C114.447 91.2822 113.455 91.8336 112.383 91.8336C109.957 91.8336 108.445 89.9747 108.445 87.3596C108.445 84.4295 109.957 82.2555 112.635 82.2555C113.896 82.2555 114.526 82.7753 114.935 83.3425V82.413H118.433V82.4445C118.338 82.4445 117.456 82.5863 117.456 84.1774V91.0144C117.456 92.3534 116.952 93.2829 116.243 93.913C115.282 94.7795 113.927 95.063 112.966 95.063C111.391 95.063 110.367 94.5117 109.784 94.5117V92.0856H109.831C109.973 92.9048 110.351 93.4877 110.792 93.8973C111.422 94.4801 112.179 94.6849 112.588 94.6849ZM110.95 87.2021C110.95 89.376 111.722 91.1404 113.092 91.1404C113.896 91.1404 114.479 90.6678 114.935 89.5808V84.1774C114.526 83.311 113.943 83.1062 113.486 83.1062C112.037 83.1062 110.95 84.713 110.95 87.2021ZM120.424 84.1774C120.424 82.5863 119.542 82.4445 119.448 82.4445V82.413H122.945V89.8801C122.945 91.4712 123.827 91.613 123.922 91.613V91.6445H119.448V91.613C119.542 91.613 120.424 91.4712 120.424 89.8801V84.1774ZM120.267 80.176C120.267 79.4356 120.881 78.8212 121.622 78.8212C122.362 78.8212 122.977 79.4356 122.977 80.176C122.977 80.9164 122.362 81.5308 121.622 81.5308C120.881 81.5308 120.267 80.9164 120.267 80.176ZM128.329 82.9171C126.564 82.9171 125.462 84.3822 125.32 85.2959H125.273C125.414 83.6418 126.753 82.2555 129.227 82.2555C130.077 82.2555 131.29 82.3815 132.11 83.0747C132.614 83.5158 132.96 84.1774 132.96 85.1856V89.8801C132.96 91.4712 133.842 91.613 133.937 91.613V91.6445H130.44V90.211C129.999 90.9514 129.069 91.7391 127.399 91.7391C125.887 91.7391 124.737 91.0144 124.737 89.4706C124.737 87.4226 126.753 86.0521 130.44 85.9575V85.2486C130.44 84.3507 130.219 83.7521 129.825 83.3897C129.463 83.0589 128.943 82.9171 128.329 82.9171ZM127.258 89.4706C127.258 90.2267 127.683 90.9986 128.549 90.9986C129.605 90.9986 130.345 89.9274 130.44 89.6123V86.3356C128.014 86.3671 127.258 88.3206 127.258 89.4706ZM127.478 81.6726C128.234 81.3733 129.384 80.1445 130.03 79.2466H130.077L130.912 80.4123V80.4596C130.109 81.074 128.455 81.5938 127.525 81.7199L127.478 81.6726ZM146.348 91.6445V91.613C146.443 91.613 147.325 91.4712 147.325 89.8801V85.1856C147.325 84.7918 147.293 84.2719 147.088 83.8466C146.884 83.437 146.521 83.1377 145.97 83.1377C144.852 83.1377 144.08 84.2562 144.08 85.8V89.8801C144.08 91.4712 144.962 91.613 145.056 91.613V91.6445H140.582V91.613C140.677 91.613 141.559 91.4712 141.559 89.8801V85.1856C141.559 84.7918 141.528 84.2719 141.323 83.8466C141.118 83.437 140.756 83.1377 140.204 83.1377C139.086 83.1377 138.314 84.2562 138.314 85.8V89.8801C138.314 91.4712 139.196 91.613 139.291 91.613V91.6445H134.817V91.613C134.911 91.613 135.793 91.4712 135.793 89.8801V84.1774C135.793 82.5863 134.911 82.4445 134.817 82.4445V82.413H138.314V84.0514C138.692 83.1692 139.511 82.2555 141.244 82.2555C142.032 82.2555 142.741 82.4918 143.26 82.9486C143.607 83.2637 143.875 83.7048 144.001 84.2404C144.473 83.1692 145.277 82.2555 147.01 82.2555C147.797 82.2555 148.506 82.4918 149.026 82.9486C149.53 83.4055 149.845 84.0829 149.845 84.9808V89.8801C149.845 91.4712 150.728 91.613 150.822 91.613V91.6445H146.348ZM156.281 80.8062C156.281 79.2151 155.398 79.0733 155.304 79.0733V79.0418H158.801V84.0514C159.179 83.1692 160.03 82.2555 161.763 82.2555C162.55 82.2555 163.259 82.4918 163.779 82.9486C164.283 83.4055 164.598 84.0829 164.598 84.9808V89.8801C164.598 91.4712 165.481 91.613 165.575 91.613V91.6445H161.101V91.613C161.196 91.613 162.078 91.4712 162.078 89.8801V85.1856C162.078 84.7918 162.046 84.2719 161.842 83.8466C161.637 83.437 161.274 83.1377 160.723 83.1377C159.605 83.1377 158.801 84.2562 158.801 85.8V89.8801C158.801 91.4712 159.683 91.613 159.778 91.613V91.6445H155.304V91.613C155.398 91.613 156.281 91.4712 156.281 89.8801V80.8062ZM170.904 91.8336C167.848 91.8336 166.336 89.6596 166.336 87.0445C166.336 84.4295 167.848 82.2555 170.904 82.2555C173.961 82.2555 175.473 84.4295 175.473 87.0445C175.473 89.6596 173.961 91.8336 170.904 91.8336ZM168.258 81.7671L168.289 81.7829C169.203 81.7671 170.337 81.263 170.889 80.9007H170.92C171.471 81.263 172.606 81.7671 173.519 81.7829L173.551 81.7671C172.716 81.389 171.361 80.2075 170.92 79.4829H170.889C170.447 80.2075 169.093 81.389 168.258 81.7671ZM168.919 87.0445C168.919 89.376 169.455 91.4555 170.904 91.4555C172.354 91.4555 172.905 89.376 172.905 87.0445C172.905 84.713 172.354 82.6336 170.904 82.6336C169.455 82.6336 168.919 84.713 168.919 87.0445ZM169.959 93.5349C169.959 92.9993 170.369 92.5897 170.904 92.5897C171.44 92.5897 171.85 92.9993 171.85 93.5349C171.85 94.0706 171.44 94.4801 170.904 94.4801C170.369 94.4801 169.959 94.0706 169.959 93.5349Z" fill="#51691C"/>
<g clip-path="url(#clip0_569_5967)">
<path d="M115.841 306.721C170.436 306.721 214.694 262.463 214.694 207.868C214.694 153.274 170.436 109.016 115.841 109.016C61.2462 109.016 16.9883 153.274 16.9883 207.868C16.9883 262.463 61.2462 306.721 115.841 306.721Z" fill="#51691C"/>
<path d="M143.684 234.07L148.714 200.887L159.298 233.856H181.246L163.225 170.787L131.837 176.257L124.1 229.89L143.684 234.07Z" fill="black"/>
<path d="M115.931 155.4C115.931 155.399 112.625 136 111.979 132.922C111.911 132.599 111.795 132.03 111.448 131.358C110.163 128.871 107.78 128.971 105.235 126.971C102.348 124.702 102.006 121.79 101.088 121.981C100.449 122.113 100.269 123.248 100.773 125.508C100.773 125.509 100.773 125.509 100.773 125.509C100.192 123.835 99.3054 121.6 98.3816 121.924C97.3349 122.355 98.0686 125.103 98.5936 126.744C97.9581 124.758 97.0259 123.892 96.5558 124.201C95.8159 124.687 95.9501 126.342 96.892 128.934L96.8918 128.934C95.7416 127.326 95.2228 127.107 94.8738 127.482C94.2368 128.165 95.0511 130.281 96.0579 132.042C97.1913 134.024 98.7579 135.168 99.763 135.866C99.7632 135.867 99.7634 135.867 99.7634 135.867C100.685 145.926 101.235 152.398 101.842 160.535C102.154 164.722 114.863 163.7 115.931 155.4Z" fill="#FFC3B1"/>
<path d="M107.141 129.349C106.668 125.746 107.26 124.346 107.834 124.289C108.798 124.194 110.461 127.104 111.816 132.282C110.44 131.582 108.517 130.049 107.141 129.349Z" fill="#FFC3B1"/>
<path d="M105.584 135.436C105.466 135.436 105.364 135.349 105.348 135.229C105.269 134.621 105.026 133.724 104.316 132.902C103.311 131.738 101.986 131.464 101.463 131.4C101.333 131.385 101.24 131.266 101.256 131.135C101.271 131.005 101.39 130.912 101.521 130.928C102.099 130.998 103.563 131.301 104.677 132.591C105.464 133.502 105.733 134.495 105.82 135.167C105.837 135.298 105.745 135.417 105.615 135.434C105.604 135.436 105.594 135.436 105.584 135.436Z" fill="black"/>
<path d="M110.205 130.224C110.153 130.224 110.1 130.207 110.055 130.171C109.461 129.689 108.745 129.352 107.988 128.994C107.623 128.822 107.244 128.643 106.854 128.437C106.737 128.376 106.693 128.232 106.754 128.116C106.815 127.999 106.959 127.954 107.076 128.016C107.457 128.217 107.83 128.393 108.192 128.563C108.975 128.933 109.716 129.283 110.355 129.8C110.457 129.883 110.473 130.033 110.39 130.136C110.343 130.194 110.275 130.224 110.205 130.224Z" fill="black"/>
<path d="M102.795 128.363C102.74 128.363 102.685 128.344 102.64 128.306C102.293 128.01 101.971 127.68 101.685 127.325C101.27 126.811 100.924 126.242 100.657 125.633C100.604 125.512 100.659 125.372 100.779 125.319C100.901 125.266 101.04 125.321 101.093 125.442C101.343 126.012 101.667 126.545 102.055 127.026C102.324 127.357 102.624 127.666 102.95 127.944C103.05 128.029 103.062 128.179 102.976 128.279C102.929 128.335 102.862 128.363 102.795 128.363Z" fill="black"/>
<path d="M100.543 129.338C100.488 129.338 100.433 129.319 100.389 129.281C100.041 128.984 99.7191 128.654 99.4329 128.3C99.0176 127.786 98.6717 127.216 98.4049 126.607C98.352 126.487 98.4069 126.346 98.5275 126.293C98.6484 126.241 98.7886 126.296 98.8413 126.416C99.091 126.986 99.4148 127.519 99.8035 128C100.071 128.332 100.372 128.641 100.698 128.918C100.798 129.003 100.81 129.154 100.724 129.254C100.677 129.309 100.61 129.338 100.543 129.338Z" fill="black"/>
<path d="M98.8496 131.799C98.795 131.799 98.7401 131.78 98.6952 131.742C98.3474 131.445 98.0258 131.115 97.7396 130.761C97.3243 130.247 96.9784 129.677 96.7115 129.068C96.6587 128.948 96.7136 128.807 96.8341 128.754C96.955 128.702 97.0951 128.757 97.148 128.877C97.3976 129.448 97.7215 129.98 98.1101 130.461C98.378 130.793 98.6787 131.101 99.0043 131.379C99.1044 131.464 99.1164 131.615 99.031 131.715C98.9839 131.77 98.9171 131.799 98.8496 131.799Z" fill="black"/>
<path d="M184.286 171.85C189.018 161.053 173.114 142.336 157.499 140.627C152.984 140.132 148.44 139.643 148.44 139.643C146.151 139.22 133.475 139.445 128.623 141.281C113.801 146.89 100.621 154.181 100.577 160.525C100.454 177.967 129.442 160.606 129.442 160.606L129.149 190.642L170.653 195.928L166.05 165.317C166.05 165.317 180.622 180.209 184.286 171.85Z" fill="black"/>
<path d="M155.99 141.422H144.008V179.472H155.99V141.422Z" fill="#F7F1EB"/>
<path d="M149.734 179.472L146.41 176.148L148.179 148.25L150.891 148.191L153.059 176.148L149.734 179.472Z" fill="black"/>
<path d="M149.587 150.452L154.061 143.992H145.113L149.587 150.452Z" fill="black"/>
<path d="M157.498 197.335C157.441 197.335 157.386 197.315 157.343 197.278C157.294 197.236 157.264 197.176 157.26 197.112L156.495 185.645C156.493 185.619 156.495 185.593 156.502 185.568L163.418 159.827L158.135 159.223C158.048 159.213 157.974 159.157 157.941 159.076C157.909 158.995 157.922 158.903 157.978 158.835L162.907 152.81L160.412 141.179C160.385 141.05 160.467 140.923 160.595 140.896C160.724 140.868 160.85 140.95 160.878 141.079L163.397 152.823C163.412 152.893 163.394 152.967 163.348 153.023L158.623 158.799L163.747 159.385C163.816 159.393 163.878 159.43 163.917 159.488C163.956 159.545 163.968 159.616 163.95 159.683L156.973 185.653L157.719 196.838L170.631 195.69C170.762 195.68 170.877 195.775 170.889 195.906C170.9 196.037 170.804 196.153 170.673 196.165L157.518 197.334C157.512 197.335 157.504 197.335 157.498 197.335Z" fill="white"/>
<path d="M142.523 139.398L149.449 136.775L157.499 140.627L153.055 147.2L149.517 144.638L146.364 147.585L142.523 139.398Z" fill="white"/>
<path d="M113.056 136.018L98.582 138.951L99.8634 145.275L114.338 142.342L113.056 136.018Z" fill="white"/>
<path d="M100.577 160.892L98.6113 144.433L114.948 140.625L117.817 161.305L100.577 160.892Z" fill="black"/>
<path d="M117.69 161.825C117.572 161.825 117.47 161.737 117.455 161.616L115.816 148.639C115.8 148.508 115.892 148.389 116.023 148.373C116.154 148.357 116.272 148.449 116.289 148.579L117.927 161.557C117.944 161.687 117.851 161.806 117.721 161.823C117.71 161.824 117.701 161.825 117.69 161.825Z" fill="white"/>
<path d="M156.126 179.473H144.008V184.136H156.126V179.473Z" fill="#84524D"/>
<path d="M143.679 196.604C143.674 196.604 143.67 196.604 143.665 196.604L128.291 195.704C128.159 195.696 128.059 195.584 128.067 195.452C128.074 195.321 128.184 195.219 128.319 195.228L143.441 196.113V189.655L135.383 158.81C135.363 158.736 135.381 158.657 135.429 158.599C135.478 158.54 135.552 158.508 135.629 158.512L141.04 158.867L136.547 153.827C136.496 153.77 136.475 153.691 136.492 153.616L139.65 139.592C139.679 139.464 139.806 139.383 139.934 139.412C140.063 139.441 140.143 139.568 140.114 139.697L136.984 153.601L141.783 158.984C141.847 159.056 141.862 159.16 141.819 159.246C141.777 159.333 141.687 159.387 141.59 159.38L135.927 159.009L143.909 189.564C143.915 189.584 143.917 189.604 143.917 189.625V196.366C143.917 196.431 143.89 196.494 143.842 196.539C143.798 196.581 143.739 196.604 143.679 196.604Z" fill="white"/>
<path d="M160.352 186.541L173.754 193.564C173.754 193.564 190.735 167.655 183.015 163.117C174.613 158.177 160.352 186.541 160.352 186.541Z" fill="black"/>
<path d="M153.054 132.223C155.867 130.792 157.086 127.52 157.288 124.114C157.438 121.574 156.127 119.848 154.21 119.864C152.891 117.699 147.941 117.275 145.857 118.838C142.027 121.711 142.257 129.971 146.541 132.419C149.37 134.035 152.799 132.353 153.054 132.223Z" fill="white"/>
<path d="M144.733 132.628C145.552 132.31 145.83 131.055 145.352 129.825C144.875 128.596 143.823 127.857 143.004 128.176C142.184 128.494 141.907 129.749 142.384 130.978C142.861 132.208 143.913 132.946 144.733 132.628Z" fill="#FFC3B1"/>
<path d="M157.011 131.665C157.602 130.486 157.443 129.211 156.657 128.817C155.871 128.422 154.755 129.059 154.164 130.238C153.573 131.417 153.731 132.692 154.517 133.086C155.303 133.48 156.42 132.844 157.011 131.665Z" fill="#FFC3B1"/>
<path d="M155.715 132.267C155.632 132.267 155.552 132.224 155.508 132.147C155.443 132.033 155.482 131.887 155.597 131.822C155.807 131.703 156.002 131.484 156.133 131.223C156.264 130.961 156.322 130.674 156.293 130.434C156.278 130.314 156.226 130.099 156.049 130.01C156.025 129.998 155.998 129.988 155.971 129.982C155.843 129.953 155.763 129.825 155.792 129.697C155.821 129.569 155.95 129.488 156.077 129.518C156.141 129.532 156.204 129.555 156.263 129.584C156.541 129.724 156.719 130.005 156.765 130.376C156.807 130.711 156.734 131.088 156.559 131.436C156.384 131.785 156.126 132.069 155.833 132.236C155.795 132.258 155.755 132.267 155.715 132.267Z" fill="black"/>
<path d="M143.68 131.7C143.633 131.7 143.585 131.686 143.543 131.657C143.266 131.463 143.036 131.156 142.895 130.792C142.586 129.996 142.792 129.199 143.364 128.976C143.426 128.953 143.49 128.936 143.555 128.928C143.685 128.911 143.805 129.003 143.822 129.133C143.84 129.264 143.748 129.383 143.617 129.4C143.59 129.404 143.563 129.411 143.537 129.421C143.225 129.542 143.134 130.091 143.339 130.62C143.445 130.892 143.619 131.128 143.817 131.267C143.925 131.343 143.951 131.491 143.875 131.599C143.829 131.665 143.755 131.7 143.68 131.7Z" fill="black"/>
<path d="M149.518 144.636H149.518L145.747 140.468L145.432 133.628L153.471 133.283L153.781 140.13L149.518 144.636Z" fill="#FFC3B1"/>
<path d="M155.378 128.569C155.232 131.678 153.395 136.523 149.41 136.335C145.424 136.147 144.051 131.151 144.198 128.042C144.277 126.363 144.665 123.555 145.878 122.797C146.911 122.151 148.766 123.901 150.186 123.968C151.729 124.041 153.163 122.388 154.121 123.25C155.078 124.113 155.452 127.014 155.378 128.569Z" fill="#FFC3B1"/>
<path d="M149.386 138.121C155.848 138.168 155.53 127.398 155.53 127.398L144.094 127.603C144.094 127.603 143.12 138.075 149.386 138.121Z" fill="white"/>
<path d="M144.168 128.196C144.171 131.785 146.482 130.007 149.537 130.005C152.592 130.002 155.446 131.864 155.443 128.275C155.44 124.686 153.078 124.72 150.024 124.723C146.969 124.726 144.165 124.606 144.168 128.196Z" fill="#FFC3B1"/>
<path d="M155.039 127.049C155.039 127.049 154.763 127.466 154.272 127.875C153.946 128.147 152.919 128.133 152.919 128.133C152.919 128.133 151.778 128.675 151.308 128.572C150.838 128.47 150.523 128.324 150.523 128.324C150.523 128.324 150.675 128.095 150.953 127.81C151.3 127.454 152.748 127.4 152.748 127.4C152.748 127.4 153.695 126.691 154.152 126.779C154.678 126.881 155.039 127.049 155.039 127.049Z" fill="white"/>
<path d="M152.534 126.816C151.845 127.01 151.304 127.45 150.957 127.805C151.008 128.087 151.128 128.351 151.307 128.572C151.777 128.674 152.403 128.732 153.026 128.556C153.528 128.415 153.95 128.143 154.277 127.869C154.36 127.49 154.309 127.11 154.153 126.78C153.696 126.691 153.115 126.652 152.534 126.816Z" fill="black"/>
<path d="M144.736 126.561C144.736 126.561 145.007 127.067 145.522 127.553C145.807 127.822 146.77 127.74 146.77 127.74C146.77 127.74 147.753 128.485 148.218 128.438C148.744 128.385 149.112 128.255 149.112 128.255C149.112 128.255 148.985 128.018 148.74 127.712C148.429 127.324 147.076 127.056 147.076 127.056C147.076 127.056 146.093 126.33 145.628 126.377C145.103 126.43 144.736 126.561 144.736 126.561Z" fill="white"/>
<path d="M148.743 127.716C148.432 127.328 147.929 126.828 147.251 126.566C146.686 126.347 146.1 126.333 145.636 126.379C145.481 126.7 145.424 127.071 145.5 127.447C145.508 127.485 145.518 127.521 145.528 127.558C145.813 127.825 146.17 128.086 146.598 128.252C147.164 128.471 147.749 128.485 148.214 128.439C148.452 128.25 148.635 127.999 148.743 127.716Z" fill="black"/>
<path d="M149.889 130.766C149.8 130.766 149.714 130.716 149.674 130.631C149.617 130.512 149.667 130.37 149.786 130.313C149.978 130.222 150.094 130.121 150.112 130.029C150.124 129.974 150.098 129.918 150.026 129.783C149.966 129.67 149.891 129.529 149.84 129.339C149.764 129.061 149.762 128.764 149.834 128.458C149.864 128.329 149.992 128.25 150.12 128.28C150.248 128.31 150.328 128.438 150.298 128.566C150.244 128.795 150.245 129.013 150.299 129.214C150.337 129.353 150.393 129.458 150.447 129.56C150.535 129.725 150.625 129.896 150.579 130.124C150.529 130.373 150.331 130.581 149.991 130.743C149.958 130.759 149.923 130.766 149.889 130.766Z" fill="black"/>
<path d="M149.513 132C149.157 132 148.789 131.815 148.562 131.517C148.414 131.324 148.33 131.092 148.326 130.864C148.324 130.732 148.429 130.623 148.56 130.621C148.686 130.62 148.8 130.723 148.803 130.855C148.805 130.982 148.854 131.115 148.94 131.228C149.085 131.417 149.329 131.534 149.544 131.523C149.672 131.512 149.788 131.615 149.796 131.747C149.804 131.878 149.704 131.991 149.572 131.998C149.552 132 149.533 132 149.513 132Z" fill="white"/>
<path d="M153.956 122.485C153.88 122.485 153.805 122.448 153.759 122.38C153.46 121.939 153.104 121.558 152.7 121.246C150.456 119.517 147.39 120.357 146.504 120.656C146.378 120.698 146.244 120.63 146.202 120.506C146.16 120.381 146.227 120.246 146.352 120.204C147.295 119.887 150.56 118.996 152.991 120.869C153.435 121.212 153.826 121.63 154.153 122.113C154.227 122.222 154.199 122.37 154.09 122.444C154.049 122.471 154.002 122.485 153.956 122.485Z" fill="#D3BBA3"/>
<path d="M145.276 122.807C145.193 122.807 145.114 122.764 145.069 122.688C145.003 122.574 145.042 122.428 145.156 122.362C146.105 121.811 149.444 120.101 152.57 121.268C153.143 121.482 153.678 121.783 154.159 122.163C154.263 122.245 154.28 122.395 154.199 122.498C154.117 122.601 153.967 122.619 153.864 122.537C153.422 122.188 152.93 121.911 152.404 121.714C149.473 120.621 146.298 122.249 145.395 122.774C145.357 122.796 145.316 122.807 145.276 122.807Z" fill="#D3BBA3"/>
<path d="M148.548 158.555L145.263 161.797C144.167 162.879 142.401 162.867 141.319 161.771C140.238 160.674 140.249 158.909 141.346 157.827L144.631 154.585C145.727 153.503 147.493 153.515 148.575 154.611L148.575 154.611C149.656 155.707 149.645 157.473 148.548 158.555Z" fill="#D87355"/>
<path d="M133.399 206.646C133.274 206.646 133.169 206.548 133.162 206.421L131.188 171.498C131.184 171.427 131.211 171.359 131.262 171.311L144.94 158.426C145.035 158.336 145.186 158.34 145.277 158.436C145.367 158.532 145.362 158.683 145.267 158.773L131.67 171.582L133.637 206.394C133.645 206.526 133.544 206.638 133.413 206.645C133.408 206.646 133.404 206.646 133.399 206.646Z" fill="#D87355"/>
<path d="M157.863 158.541L161.149 161.783C162.245 162.865 164.01 162.853 165.092 161.757C166.174 160.661 166.162 158.895 165.066 157.813L161.781 154.571C160.684 153.49 158.919 153.501 157.837 154.598L157.837 154.598C156.755 155.694 156.767 157.459 157.863 158.541Z" fill="#D87355"/>
<path d="M173.013 206.632C173.008 206.632 173.003 206.632 172.999 206.632C172.868 206.624 172.767 206.512 172.774 206.38L174.742 171.568L161.145 158.759C161.049 158.669 161.045 158.518 161.135 158.423C161.225 158.327 161.376 158.322 161.472 158.412L175.149 171.297C175.201 171.345 175.228 171.414 175.224 171.484L173.25 206.407C173.243 206.534 173.138 206.632 173.013 206.632Z" fill="#D87355"/>
<path d="M185.258 182.057H122.859V290.394H185.258V182.057Z" fill="#E6D0BE"/>
<path d="M187.717 179.576H119.668V187.707H187.717V179.576Z" fill="#D3BBA3"/>
<path d="M185.929 188.66H117.881C117.749 188.66 117.643 188.554 117.643 188.422V180.291C117.643 180.159 117.749 180.053 117.881 180.053H185.929C186.061 180.053 186.168 180.159 186.168 180.291V188.422C186.168 188.554 186.061 188.66 185.929 188.66ZM118.119 188.184H185.691V180.529H118.119V188.184Z" fill="black"/>
<path d="M122.672 219.647C122.54 219.647 122.434 219.541 122.434 219.409V188.443C122.434 188.312 122.54 188.205 122.672 188.205C122.803 188.205 122.91 188.312 122.91 188.443V219.409C122.91 219.541 122.803 219.647 122.672 219.647Z" fill="black"/>
<path d="M185.318 223.339C185.187 223.339 185.081 223.233 185.08 223.102L184.961 188.444C184.961 188.312 185.067 188.206 185.198 188.205C185.322 188.21 185.437 188.311 185.437 188.442L185.556 223.1C185.557 223.232 185.45 223.339 185.319 223.339C185.319 223.339 185.318 223.339 185.318 223.339Z" fill="black"/>
<path d="M51.6977 305.811H83.7021L80.7552 293.576H68.217L59.1503 296.342C54.7068 297.545 51.6566 301.421 51.6977 305.811Z" fill="#40484C"/>
<path d="M23.0746 305.811H55.0791L52.1322 293.576H39.594L30.5273 296.342C26.0838 297.545 23.0336 301.421 23.0746 305.811Z" fill="#40484C"/>
<path d="M35.4267 207.728C34.1058 211.2 33.2207 296.011 33.2207 296.011L52.9751 296.742C52.9751 296.742 52.4713 253.483 52.6547 235.915C55.0798 250.322 61.5505 291.984 62.7304 295.523C69.0225 295.326 75.9487 296.451 82.2409 296.255C75.5496 266.645 69.7129 225.198 64.7473 203.402C56.8821 204.844 43.2919 206.286 35.4267 207.728Z" fill="black"/>
<path d="M67.714 224.889C64.7528 224.889 62.3438 222.48 62.3438 219.519C62.3438 219.388 62.4504 219.281 62.582 219.281C62.7136 219.281 62.8202 219.388 62.8202 219.519C62.8202 222.218 65.0156 224.413 67.7141 224.413C67.8457 224.413 67.9523 224.52 67.9523 224.651C67.9522 224.783 67.8456 224.889 67.714 224.889Z" fill="white"/>
<path d="M67.8142 218.074L34.623 218.212L34.867 214.127L66.9711 214.32L67.8142 218.074Z" fill="#40484C"/>
<path d="M54.8844 219.027H50.2753C50.1437 219.027 50.0371 218.921 50.0371 218.789V213.691C50.0371 213.56 50.1437 213.453 50.2753 213.453H54.8844C55.0159 213.453 55.1226 213.56 55.1226 213.691V218.789C55.1226 218.92 55.0159 219.027 54.8844 219.027ZM50.5135 218.551H54.6462V213.93H50.5135V218.551Z" fill="#FFB244"/>
<path d="M103.067 185.2C104.259 184.538 106.172 183.35 105.802 182.534C105.444 181.846 103.721 182.655 102.479 183.306C102.478 183.306 102.478 183.306 102.479 183.305C103.995 182.275 104.506 181.522 104.21 181.099C103.783 180.492 102.007 181.987 99.1111 181.731C96.5586 181.505 95.238 180.156 93.1477 180.895C92.5835 181.094 92.2075 181.36 91.9937 181.509C90.0268 182.883 80.3048 190.547 79.6189 191.065C76.7393 193.238 88.1028 197.802 90.1768 196.131C94.9885 192.254 95.5832 191.523 97.4461 189.83C97.4463 189.83 97.4467 189.83 97.4469 189.83C98.4052 189.972 99.9293 190.161 101.658 189.632C103.193 189.162 104.811 188.382 104.814 187.642C104.815 187.237 104.397 187.082 102.862 187.386C104.81 186.401 105.785 185.519 105.621 184.837C105.517 184.404 104.51 184.399 103.067 185.2Z" fill="white"/>
<path d="M96.7216 182.07C98.9477 180.248 99.3645 179.119 99.0645 178.775C98.56 178.198 96.0225 178.975 92.4336 181.229C93.6072 181.57 95.5479 181.729 96.7216 182.07Z" fill="white"/>
<path d="M97.5767 181.576C97.5601 181.576 97.5431 181.574 97.5262 181.57C96.4891 181.346 95.2721 181.189 94.58 181.138C94.4488 181.128 94.3503 181.014 94.36 180.883C94.3697 180.752 94.4861 180.652 94.6151 180.663C95.3231 180.715 96.5674 180.876 97.6267 181.105C97.7554 181.132 97.8372 181.259 97.8093 181.388C97.7852 181.499 97.6865 181.576 97.5767 181.576Z" fill="black"/>
<path d="M100.294 183.97C100.146 183.97 100.008 183.963 99.883 183.957C99.7515 183.951 99.6503 183.839 99.6565 183.708C99.6628 183.576 99.7746 183.478 99.906 183.481C100.2 183.495 100.534 183.512 100.896 183.439C101.349 183.349 102.043 183.101 102.71 182.792C102.829 182.737 102.97 182.788 103.026 182.907C103.081 183.027 103.029 183.168 102.91 183.224C102.202 183.552 101.484 183.808 100.989 183.906C100.741 183.956 100.507 183.97 100.294 183.97Z" fill="black"/>
<path d="M100.754 185.742C100.718 185.742 100.684 185.741 100.655 185.74C100.523 185.734 100.422 185.622 100.428 185.491C100.434 185.359 100.548 185.26 100.677 185.264C100.941 185.277 101.643 185.212 102.029 185.126C102.326 185.06 102.705 184.934 103.185 184.742C103.308 184.693 103.446 184.752 103.495 184.874C103.544 184.996 103.485 185.135 103.363 185.184C102.858 185.386 102.455 185.52 102.132 185.591C101.766 185.673 101.117 185.742 100.754 185.742Z" fill="black"/>
<path d="M100.581 188.085C100.486 188.085 100.392 188.083 100.297 188.078C100.166 188.072 100.064 187.96 100.071 187.829C100.077 187.698 100.19 187.6 100.32 187.603C100.655 187.619 100.993 187.604 101.324 187.558C101.643 187.514 102.248 187.409 102.726 187.202C102.846 187.149 102.987 187.204 103.04 187.325C103.092 187.445 103.037 187.586 102.916 187.638C102.386 187.869 101.732 187.983 101.389 188.03C101.123 188.067 100.852 188.085 100.581 188.085Z" fill="black"/>
<path d="M26.7749 185.74C23.8783 190.775 12.744 206.979 18.8791 210.99C23.7608 214.181 33.7336 198.778 36.9341 193.966C33.5036 191.577 30.2055 188.129 26.7749 185.74Z" fill="white"/>
<path d="M18.2754 200.921C18.2754 200.921 26.1936 182.582 31.5459 177.992C35.7928 174.349 44.9461 172.914 53.5793 173.072C65.2677 173.286 70.583 178.208 70.583 178.208L80.31 189.917L89.9336 182.974L95.7925 191.386C95.7925 191.386 85.6162 202.632 81.0388 203.435C74.3998 204.6 65.9727 198.102 65.9727 198.102L67.9543 213.584C68.0618 214.425 67.4121 215.17 66.565 215.179L35.1376 215.505C33.9571 215.517 33.0611 214.445 33.2822 213.286L36.299 197.466L32.4746 201.868L18.2754 200.921Z" fill="black"/>
<path d="M65.0229 176.675C65.0098 176.675 64.9967 176.674 64.9834 176.672L58.1129 175.519C58.0362 175.506 57.9706 175.457 57.9372 175.387C57.9037 175.317 57.9067 175.235 57.9451 175.167L58.8836 173.513C58.9333 173.426 59.0333 173.379 59.1311 173.396L66.0644 174.587C66.1424 174.601 66.2088 174.652 66.2413 174.724C66.2737 174.797 66.2682 174.88 66.2265 174.948L65.2253 176.562C65.1813 176.633 65.1043 176.675 65.0229 176.675ZM58.5275 175.106L64.9047 176.175L65.6353 174.997L59.2153 173.894L58.5275 175.106Z" fill="white"/>
<path d="M36.546 177.237C36.4645 177.237 36.3875 177.195 36.3436 177.125L35.3424 175.51C35.3006 175.443 35.2952 175.359 35.3276 175.287C35.3601 175.215 35.4264 175.163 35.5044 175.15L42.4376 173.958C42.5358 173.942 42.6355 173.988 42.6851 174.076L43.6237 175.729C43.662 175.797 43.665 175.879 43.6315 175.949C43.5982 176.02 43.5326 176.069 43.4559 176.082L36.5853 177.234C36.5722 177.236 36.5591 177.237 36.546 177.237ZM35.9336 175.559L36.6642 176.738L43.0413 175.668L42.3535 174.456L35.9336 175.559Z" fill="white"/>
<path d="M90.7673 192.888C90.6942 192.888 90.6221 192.855 90.5754 192.792L85.6246 186.087C85.5466 185.981 85.569 185.832 85.6748 185.754C85.7806 185.675 85.9299 185.698 86.008 185.804L90.9587 192.509C91.0367 192.614 91.0143 192.764 90.9086 192.842C90.866 192.873 90.8163 192.888 90.7673 192.888Z" fill="white"/>
<path d="M39.3672 219.36L38.7468 219.065C37.75 218.592 37.3257 217.4 37.7992 216.403L54.7299 180.757C55.2034 179.76 56.3952 179.336 57.3921 179.809L58.0124 180.104C59.0093 180.577 59.4335 181.769 58.9601 182.766L42.0294 218.412C41.556 219.409 40.364 219.833 39.3672 219.36Z" fill="#84524D"/>
<path d="M57.0023 204.281L47.8096 204.164C46.9874 204.153 46.3295 203.478 46.34 202.656L46.3408 202.585C46.3513 201.763 47.0263 201.105 47.8485 201.115L57.0412 201.233C57.8634 201.243 58.5213 201.918 58.5108 202.74L58.51 202.811C58.4995 203.634 57.8245 204.292 57.0023 204.281Z" fill="#84524D"/>
<path d="M39.296 202.977C44.6649 204.335 42.2785 203.543 43.5181 203.844C45.8354 204.406 50.8072 205.468 50.757 207.103C50.7403 207.647 50.3531 208.162 49.7771 208.465C50.2349 208.992 50.338 209.731 50.0407 210.33C49.6502 211.117 48.7805 211.233 48.7165 211.24C49.1217 211.598 49.3197 212.124 49.209 212.604C49.0562 213.265 48.3343 213.759 47.5197 213.65C47.5702 213.795 47.7321 214.316 47.4887 214.86C47.219 215.462 46.5606 215.847 45.8215 215.831C43.7622 215.333 40.3609 215.014 36.3963 214.412C27.2184 213.018 35.746 204.64 39.296 202.977Z" fill="white"/>
<path d="M47.3087 207.281C47.2851 207.281 47.2611 207.277 47.2373 207.269C47.1118 207.23 47.0419 207.096 47.0813 206.971L47.3953 205.97C47.4346 205.844 47.5681 205.774 47.6938 205.814C47.8193 205.853 47.8892 205.987 47.8498 206.112L47.5358 207.113C47.5041 207.215 47.4101 207.281 47.3087 207.281Z" fill="black"/>
<path d="M46.5158 209.824C46.4921 209.824 46.4681 209.82 46.4444 209.813C46.3188 209.773 46.2489 209.64 46.2883 209.514L46.6023 208.513C46.6416 208.387 46.7754 208.317 46.9009 208.357C47.0264 208.396 47.0963 208.53 47.0569 208.655L46.743 209.657C46.7111 209.758 46.6171 209.824 46.5158 209.824Z" fill="black"/>
<path d="M45.7365 212.419C45.7128 212.419 45.6888 212.416 45.6652 212.408C45.5395 212.369 45.4696 212.235 45.5091 212.11L45.8229 211.108C45.8621 210.983 45.9959 210.913 46.1214 210.952C46.247 210.992 46.3168 211.125 46.2775 211.251L45.9637 212.252C45.9318 212.354 45.8378 212.419 45.7365 212.419Z" fill="black"/>
<path d="M44.9826 214.759C44.9589 214.759 44.9349 214.755 44.9111 214.748C44.7856 214.709 44.7157 214.575 44.7551 214.45L45.0691 213.448C45.1084 213.323 45.242 213.253 45.3677 213.292C45.4932 213.332 45.5631 213.465 45.5237 213.591L45.2098 214.592C45.1779 214.694 45.0839 214.759 44.9826 214.759Z" fill="black"/>
<path d="M32.6856 201.623L40.6631 203.282L37.4304 214.679L20.7164 212.005C18.6103 211.668 17.0611 209.854 17.0607 207.723L17.0605 207.327C17.0601 205.024 17.5142 202.743 18.3966 200.615L32.6856 201.623Z" fill="black"/>
<path d="M32.4593 213.959C32.4399 213.959 32.4203 213.957 32.4007 213.952C32.2732 213.92 32.1958 213.79 32.228 213.663L34.1677 205.983C34.2 205.855 34.3304 205.778 34.4569 205.81C34.5845 205.842 34.6618 205.971 34.6296 206.099L32.69 213.779C32.6627 213.887 32.5657 213.959 32.4593 213.959Z" fill="white"/>
<path d="M111.559 185.494C111.964 183.719 107.747 181.24 102.138 179.958C96.53 178.676 91.6544 179.077 91.2485 180.853C90.8427 182.629 95.0602 185.107 100.669 186.389C106.277 187.671 111.153 187.27 111.559 185.494Z" fill="#D67A00"/>
<path d="M112.302 182.302L91.9922 177.66L91.2351 180.973L111.545 185.615L112.302 182.302Z" fill="#D67A00"/>
<path d="M112.275 182.354C112.681 180.578 108.464 178.099 102.855 176.817C97.2468 175.536 92.3712 175.936 91.9653 177.712C91.5595 179.488 95.777 181.967 101.386 183.249C106.994 184.53 111.87 184.13 112.275 182.354Z" fill="#FFB244"/>
<path d="M108.621 184.52C106.858 184.52 104.761 184.274 102.529 183.764C96.7046 182.433 92.4883 179.875 92.9302 177.942C93.3724 176.009 98.2812 175.537 104.105 176.869C109.93 178.2 114.146 180.757 113.704 182.691C113.431 183.883 111.459 184.52 108.621 184.52ZM97.9879 176.583C95.3149 176.583 93.5971 177.163 93.3945 178.048C93.0652 179.489 96.6998 181.943 102.635 183.3C108.57 184.657 112.91 184.026 113.239 182.585C113.569 181.144 109.934 178.69 103.999 177.333C101.713 176.811 99.6628 176.583 97.9879 176.583Z" fill="white"/>
<path d="M45.6451 168.968C47.0844 170.315 52.0013 167.855 52.0013 167.855L55.307 162.819C55.6802 160.071 53.7544 157.54 51.0058 157.167C48.2572 156.794 45.7264 158.72 45.3534 161.468C45.3534 161.468 44.179 167.595 45.6451 168.968Z" fill="white"/>
<path d="M53.7141 174.808C51.0461 176.263 48.7138 176.098 46.6973 174.408L48.4053 161.826L55.3136 162.764L53.7141 174.808Z" fill="white"/>
<path d="M45.7467 162.855C45.7467 162.855 44.1522 164.128 44.1741 164.525C44.2002 164.997 45.7169 165.49 45.7169 165.49C45.7169 165.49 45.7091 162.854 45.7467 162.855Z" fill="white"/>
<path d="M47.3786 169.616C47.2545 169.616 47.1501 169.52 47.1412 169.394C47.132 169.263 47.2309 169.149 47.3621 169.14C49.5988 168.983 51.8195 167.676 51.8416 167.662C51.955 167.595 52.1009 167.632 52.1681 167.745C52.2354 167.858 52.1985 168.004 52.0855 168.072C51.9912 168.128 49.7476 169.45 47.3954 169.615C47.3899 169.616 47.3842 169.616 47.3786 169.616Z" fill="black"/>
<path d="M46.6446 166.61C46.5791 166.61 46.514 166.583 46.4669 166.531C46.3791 166.433 46.3877 166.282 46.4857 166.194C47.0624 165.679 47.4536 165.648 47.9731 165.771C48.1011 165.802 48.1803 165.93 48.15 166.058C48.1196 166.186 47.9906 166.264 47.8632 166.235C47.5158 166.152 47.279 166.124 46.8031 166.55C46.7577 166.59 46.7011 166.61 46.6446 166.61Z" fill="black"/>
<path d="M50.8067 162.972C50.8067 162.972 49.9603 162.357 48.8595 162.207C48.6253 162.176 48.8127 164.11 49.0494 164.034C50.0902 163.7 50.8067 162.972 50.8067 162.972Z" fill="white"/>
<path d="M48.1285 162.184C48.3791 162.164 48.6237 162.175 48.8572 162.206C49.2465 162.757 49.3001 163.449 49.0508 164.032C48.8136 164.108 48.56 164.164 48.2939 164.186C46.8601 164.304 45.6152 163.4 45.6152 163.4C45.6152 163.4 46.6947 162.303 48.1285 162.184Z" fill="black"/>
<path d="M52.2577 166.139C52.1465 166.139 52.0469 166.061 52.0243 165.947C51.9987 165.818 52.0824 165.693 52.2115 165.667C52.9547 165.52 53.5774 164.971 53.7977 164.271C53.9686 163.728 53.8377 163.032 53.3285 162.855C52.9541 162.725 52.4069 162.933 52.0827 163.33C51.9994 163.431 51.8495 163.446 51.7475 163.363C51.6457 163.28 51.6307 163.13 51.714 163.028C52.1639 162.478 52.9251 162.21 53.4849 162.405C54.2744 162.68 54.495 163.642 54.2522 164.414C53.9804 165.278 53.2158 165.953 52.3042 166.135C52.2888 166.137 52.2731 166.139 52.2577 166.139Z" fill="black"/>
<path d="M52.3677 164.981C52.2594 164.981 52.1613 164.907 52.1358 164.797C52.106 164.669 52.1859 164.541 52.314 164.511C52.4801 164.472 52.6159 164.346 52.6599 164.189C52.6863 164.094 52.6632 163.982 52.614 163.966C52.5803 163.955 52.4825 163.985 52.4214 164.065C52.3413 164.169 52.1918 164.189 52.0874 164.109C51.983 164.029 51.9633 163.879 52.0434 163.775C52.2176 163.548 52.517 163.437 52.756 163.511C53.0944 163.617 53.206 164.004 53.1186 164.317C53.0285 164.639 52.755 164.898 52.4217 164.975C52.4037 164.979 52.3854 164.981 52.3677 164.981Z" fill="black"/>
<path d="M45.3271 158.466L45.209 156.209C45.209 156.209 49.7384 157.905 51.115 158.599C52.46 159.277 56.2027 161.692 56.2027 161.692L55.2115 163.362L45.3271 158.466Z" fill="#D87355"/>
<path d="M58.5857 160.21L56.2038 161.691C56.2038 161.691 50.0396 157.546 45.2225 156.492L44.4244 152.963C44.3638 152.682 44.6417 152.414 44.9802 152.451C47.492 152.722 53.9197 154.721 58.8276 159.486C59.0446 159.697 58.8556 160.042 58.5857 160.21Z" fill="black"/>
<path d="M45.3345 158.463C45.3345 158.463 43.9399 158.526 43.501 158.544C42.8148 158.571 41.9151 158.759 41.7786 159.164C41.6775 159.464 41.4641 159.744 43.6325 160.286C46.9215 161.109 55.2377 163.36 55.2377 163.36C55.2377 163.36 51.3715 161.306 50.0492 160.652C48.8956 160.082 45.3345 158.463 45.3345 158.463Z" fill="black"/>
<path d="M51.0234 175.859L54.1126 171.713L56.3888 173.42L56.0636 177.241L51.0234 175.859Z" fill="black"/>
<path d="M50.6181 175.859L46.7972 172.119L44.6836 174.395L46.4721 177.403L50.6181 175.859Z" fill="black"/>
<path d="M214.315 246.046C210.457 242.803 207.347 240.214 206.013 239.162C205.481 238.743 204.546 237.998 203.113 237.396C197.806 235.164 194.181 238.727 187.526 238.663C185.963 238.648 175.957 234.022 174.403 236.256C173.636 237.357 174.781 239.336 178.557 242.237C178.558 242.237 178.557 242.238 178.557 242.238C175.434 240.363 171.089 238.006 170.058 239.735C168.974 241.794 171.824 244.128 174.675 245.944C171.425 243.873 170.513 244.627 170.178 245.734C169.651 247.476 172.045 249.911 176.948 252.759C176.949 252.76 176.949 252.76 176.948 252.76C173.013 251.739 171.906 252.078 171.849 253.128C171.745 255.047 175.82 257.313 179.73 258.764C184.132 260.397 188.112 260.137 190.618 259.913C190.619 259.913 190.619 259.914 190.62 259.914C200.029 269.287 207.265 276.545 214.315 283.709L214.315 246.046Z" fill="#D38C79"/>
<path d="M193.671 239.903C188.175 234.843 187.265 231.853 188.095 231.007C189.49 229.585 195.951 231.985 204.916 238.369C201.821 239.077 196.766 239.195 193.671 239.903Z" fill="#D38C79"/>
<path d="M197.639 249.033C194.918 249.033 192.136 244.076 191.673 238.387C191.662 238.256 191.76 238.141 191.891 238.13C192.023 238.118 192.137 238.217 192.147 238.348C192.625 244.209 195.434 248.557 197.64 248.557C197.65 248.557 197.66 248.556 197.67 248.557C197.8 248.557 197.906 248.661 197.908 248.791C197.91 248.923 197.805 249.031 197.674 249.033C197.662 249.033 197.65 249.033 197.639 249.033Z" fill="black"/>
<path d="M185.197 243.939C185.196 243.939 185.195 243.939 185.194 243.939C184.27 243.929 183.344 243.834 182.44 243.655C181.128 243.396 179.853 242.961 178.65 242.362C178.532 242.303 178.484 242.16 178.543 242.042C178.601 241.925 178.744 241.876 178.862 241.935C180.028 242.516 181.262 242.937 182.532 243.188C183.407 243.361 184.304 243.453 185.199 243.462C185.331 243.464 185.436 243.572 185.435 243.703C185.434 243.834 185.327 243.939 185.197 243.939Z" fill="black"/>
<path d="M182.927 248.448C182.926 248.448 182.926 248.448 182.925 248.448C182.001 248.439 181.074 248.344 180.17 248.165C178.859 247.906 177.584 247.471 176.38 246.871C176.262 246.813 176.214 246.67 176.273 246.552C176.332 246.434 176.474 246.386 176.592 246.445C177.758 247.026 178.993 247.447 180.263 247.698C181.138 247.871 182.035 247.963 182.93 247.972C183.061 247.974 183.167 248.081 183.166 248.213C183.164 248.343 183.058 248.448 182.927 248.448Z" fill="black"/>
<path d="M183.502 254.562C183.501 254.562 183.5 254.562 183.499 254.562C182.575 254.552 181.648 254.457 180.744 254.278C179.433 254.019 178.158 253.584 176.954 252.985C176.837 252.926 176.789 252.783 176.847 252.665C176.906 252.548 177.049 252.499 177.167 252.558C178.332 253.139 179.567 253.56 180.837 253.811C181.712 253.984 182.609 254.076 183.504 254.085C183.636 254.087 183.741 254.194 183.74 254.326C183.738 254.457 183.632 254.562 183.502 254.562Z" fill="black"/>
<path d="M212.917 303.733L214.2 275.925C209.412 266.861 204.95 258.473 203.449 255.857C203.112 255.269 202.521 254.23 201.417 253.137C197.324 249.087 192.727 250.796 186.481 248.502C179.393 245.899 178.16 240.087 176.486 241.043C175.321 241.708 174.403 244.375 176.826 248.475C176.826 248.475 176.826 248.476 176.825 248.475C174.627 245.572 171.473 241.764 169.872 242.984C168.099 244.491 171.279 249.4 173.347 252.275C170.843 248.795 168.47 247.693 167.747 248.596C166.609 250.016 167.922 253.168 171.41 257.639C171.411 257.639 171.41 257.639 171.41 257.639C168.139 255.225 166.986 255.126 166.541 256.08C165.729 257.821 168.666 261.443 171.753 264.247C175.228 267.404 179.019 268.647 181.428 269.373C181.428 269.373 181.429 269.374 181.429 269.375C187.882 284.415 191.621 293.197 196.386 304.711L212.917 303.733Z" fill="#FFC3B1"/>
<path d="M191.72 251.944C188.506 245.199 188.776 242.085 189.861 241.61C191.686 240.811 196.787 245.446 202.726 254.712C199.59 254.216 194.855 252.44 191.72 251.944Z" fill="#FFC3B1"/>
<path d="M198.113 251.48C198.084 251.48 198.055 251.475 198.027 251.464C196.53 250.889 194.902 250.681 193.179 250.461C192.357 250.356 191.507 250.247 190.618 250.094C190.488 250.072 190.401 249.949 190.423 249.819C190.446 249.689 190.568 249.602 190.698 249.625C191.577 249.776 192.422 249.884 193.239 249.989C194.992 250.212 196.647 250.424 198.198 251.019C198.321 251.067 198.382 251.204 198.335 251.327C198.298 251.422 198.208 251.48 198.113 251.48Z" fill="black"/>
<path d="M182.441 252.546C182.411 252.546 182.38 252.54 182.35 252.528C181.496 252.175 180.671 251.741 179.9 251.238C178.779 250.509 177.758 249.63 176.865 248.625C176.778 248.527 176.786 248.376 176.885 248.289C176.983 248.201 177.134 248.21 177.221 248.308C178.086 249.282 179.075 250.133 180.16 250.839C180.907 251.326 181.705 251.746 182.532 252.088C182.654 252.138 182.712 252.278 182.661 252.399C182.623 252.491 182.535 252.546 182.441 252.546Z" fill="black"/>
<path d="M178.654 255.884C178.624 255.884 178.593 255.878 178.563 255.866C177.709 255.513 176.885 255.079 176.113 254.576C174.992 253.847 173.971 252.968 173.078 251.963C172.99 251.864 172.999 251.714 173.098 251.626C173.196 251.539 173.346 251.548 173.434 251.646C174.299 252.619 175.288 253.471 176.372 254.177C177.12 254.664 177.918 255.084 178.745 255.426C178.867 255.476 178.924 255.615 178.874 255.737C178.836 255.829 178.747 255.884 178.654 255.884Z" fill="black"/>
<path d="M176.908 261.771C176.877 261.771 176.847 261.765 176.817 261.753C175.962 261.399 175.138 260.965 174.366 260.463C173.246 259.734 172.225 258.854 171.332 257.85C171.244 257.751 171.253 257.601 171.351 257.513C171.45 257.426 171.6 257.435 171.688 257.533C172.553 258.506 173.542 259.358 174.626 260.064C175.373 260.55 176.172 260.97 176.999 261.313C177.121 261.363 177.178 261.502 177.128 261.624C177.09 261.716 177.001 261.771 176.908 261.771Z" fill="black"/>
<path d="M214.385 306.449V269.183L212.365 264.621L185.195 283.706L195.026 306.449H214.385Z" fill="#776E42"/>
<path d="M182.928 231.153C182.821 231.153 182.723 231.08 182.697 230.972L180.482 221.922C180.45 221.794 180.528 221.665 180.656 221.634C180.784 221.603 180.913 221.681 180.944 221.809L183.159 230.858C183.191 230.986 183.113 231.115 182.985 231.146C182.966 231.151 182.947 231.153 182.928 231.153Z" fill="white"/>
<path d="M176.108 232.884C176.031 232.884 175.956 232.847 175.91 232.779L169.624 223.394C169.551 223.285 169.58 223.137 169.69 223.064C169.799 222.991 169.947 223.02 170.02 223.129L176.306 232.514C176.379 232.623 176.35 232.771 176.241 232.844C176.2 232.871 176.154 232.884 176.108 232.884Z" fill="white"/>
<path d="M170.236 236.927C170.187 236.927 170.137 236.912 170.094 236.88L163.42 231.914C163.315 231.835 163.293 231.686 163.371 231.58C163.45 231.475 163.599 231.453 163.705 231.531L170.379 236.498C170.484 236.577 170.506 236.726 170.427 236.831C170.381 236.894 170.309 236.927 170.236 236.927Z" fill="white"/>
<path d="M113.647 301.15C121.608 301.15 128.061 299.107 128.061 296.586C128.061 294.065 121.608 292.021 113.647 292.021C105.686 292.021 99.2324 294.065 99.2324 296.586C99.2324 299.107 105.686 301.15 113.647 301.15Z" fill="#D67A00"/>
<path d="M128.061 292.039H99.2324V296.742H128.061V292.039Z" fill="#D67A00"/>
<path d="M113.647 296.693C121.608 296.693 128.061 294.65 128.061 292.129C128.061 289.608 121.608 287.564 113.647 287.564C105.686 287.564 99.2324 289.608 99.2324 292.129C99.2324 294.65 105.686 296.693 113.647 296.693Z" fill="#FFB244"/>
<path d="M115.346 296.931C107.13 296.931 100.693 294.822 100.693 292.129C100.693 289.436 107.129 287.326 115.346 287.326C123.562 287.326 129.998 289.436 129.998 292.129C129.998 294.822 123.562 296.931 115.346 296.931ZM115.346 287.803C107.662 287.803 101.17 289.784 101.17 292.129C101.17 294.474 107.662 296.455 115.346 296.455C123.03 296.455 129.522 294.474 129.522 292.129C129.522 289.784 123.03 287.803 115.346 287.803Z" fill="white"/>
<path d="M114.684 293.72C122.645 293.72 129.098 291.677 129.098 289.156C129.098 286.635 122.645 284.592 114.684 284.592C106.723 284.592 100.27 286.635 100.27 289.156C100.27 291.677 106.723 293.72 114.684 293.72Z" fill="#D67A00"/>
<path d="M129.098 284.609H100.27V289.312H129.098V284.609Z" fill="#D67A00"/>
<path d="M114.684 289.263C122.645 289.263 129.098 287.22 129.098 284.699C129.098 282.178 122.645 280.135 114.684 280.135C106.723 280.135 100.27 282.178 100.27 284.699C100.27 287.22 106.723 289.263 114.684 289.263Z" fill="#FFB244"/>
<path d="M116.383 289.501C108.167 289.501 101.73 287.392 101.73 284.699C101.73 282.006 108.167 279.896 116.383 279.896C124.6 279.896 131.036 282.006 131.036 284.699C131.036 287.392 124.599 289.501 116.383 289.501ZM116.383 280.373C108.699 280.373 102.207 282.354 102.207 284.699C102.207 287.044 108.699 289.025 116.383 289.025C124.067 289.025 130.559 287.044 130.559 284.699C130.559 282.354 124.067 280.373 116.383 280.373Z" fill="white"/>
<path d="M117.516 286.293C125.477 286.293 131.93 284.249 131.93 281.728C131.93 279.208 125.477 277.164 117.516 277.164C109.555 277.164 103.102 279.208 103.102 281.728C103.102 284.249 109.555 286.293 117.516 286.293Z" fill="#D67A00"/>
<path d="M131.93 277.182H103.102V281.884H131.93V277.182Z" fill="#D67A00"/>
<path d="M117.516 281.836C125.477 281.836 131.93 279.792 131.93 277.271C131.93 274.751 125.477 272.707 117.516 272.707C109.555 272.707 103.102 274.751 103.102 277.271C103.102 279.792 109.555 281.836 117.516 281.836Z" fill="#FFB244"/>
<path d="M119.215 282.074C110.999 282.074 104.562 279.964 104.562 277.271C104.562 274.578 110.999 272.469 119.215 272.469C127.431 272.469 133.868 274.578 133.868 277.271C133.867 279.964 127.431 282.074 119.215 282.074ZM119.215 272.945C111.531 272.945 105.039 274.926 105.039 277.271C105.039 279.616 111.531 281.597 119.215 281.597C126.899 281.597 133.391 279.616 133.391 277.271C133.391 274.926 126.899 272.945 119.215 272.945Z" fill="white"/>
<path d="M141.59 304.154C149.551 304.154 156.004 302.11 156.004 299.59C156.004 297.069 149.551 295.025 141.59 295.025C133.629 295.025 127.176 297.069 127.176 299.59C127.176 302.11 133.629 304.154 141.59 304.154Z" fill="#D67A00"/>
<path d="M156.004 295.043H127.176V299.746H156.004V295.043Z" fill="#D67A00"/>
<path d="M141.59 299.697C149.551 299.697 156.004 297.653 156.004 295.133C156.004 292.612 149.551 290.568 141.59 290.568C133.629 290.568 127.176 292.612 127.176 295.133C127.176 297.653 133.629 299.697 141.59 299.697Z" fill="#FFB244"/>
<path d="M143.287 299.935C135.071 299.935 128.635 297.825 128.635 295.132C128.635 292.44 135.071 290.33 143.287 290.33C151.504 290.33 157.94 292.44 157.94 295.132C157.94 297.825 151.504 299.935 143.287 299.935ZM143.287 290.807C135.603 290.807 129.111 292.788 129.111 295.132C129.111 297.478 135.603 299.459 143.287 299.459C150.972 299.459 157.464 297.478 157.464 295.132C157.464 292.788 150.972 290.807 143.287 290.807Z" fill="white"/>
<path d="M144.557 297.397C152.711 297.397 159.32 295.304 159.32 292.722C159.32 290.14 152.711 288.047 144.557 288.047C136.403 288.047 129.793 290.14 129.793 292.722C129.793 295.304 136.403 297.397 144.557 297.397Z" fill="#D67A00"/>
<path d="M159.32 288.064H129.793V292.881H159.32V288.064Z" fill="#D67A00"/>
<path d="M144.557 292.83C152.711 292.83 159.32 290.737 159.32 288.155C159.32 285.573 152.711 283.48 144.557 283.48C136.403 283.48 129.793 285.573 129.793 288.155C129.793 290.737 136.403 292.83 144.557 292.83Z" fill="#FFB244"/>
<path d="M146.297 293.068C137.885 293.068 131.295 290.91 131.295 288.155C131.295 285.4 137.885 283.242 146.297 283.242C154.709 283.242 161.299 285.4 161.299 288.155C161.299 290.91 154.709 293.068 146.297 293.068ZM146.297 283.719C138.423 283.719 131.771 285.75 131.771 288.155C131.771 290.56 138.423 292.592 146.297 292.592C154.171 292.592 160.822 290.56 160.822 288.155C160.822 285.75 154.17 283.719 146.297 283.719Z" fill="white"/>
<path d="M141.514 289.787C149.668 289.787 156.277 287.694 156.277 285.112C156.277 282.53 149.668 280.438 141.514 280.438C133.36 280.438 126.75 282.53 126.75 285.112C126.75 287.694 133.36 289.787 141.514 289.787Z" fill="#D67A00"/>
<path d="M156.277 280.455H126.75V285.272H156.277V280.455Z" fill="#D67A00"/>
<path d="M141.514 285.221C149.668 285.221 156.277 283.128 156.277 280.546C156.277 277.964 149.668 275.871 141.514 275.871C133.36 275.871 126.75 277.964 126.75 280.546C126.75 283.128 133.36 285.221 141.514 285.221Z" fill="#FFB244"/>
<path d="M143.254 285.459C134.842 285.459 128.252 283.301 128.252 280.546C128.252 277.791 134.842 275.633 143.254 275.633C151.666 275.633 158.256 277.791 158.256 280.546C158.256 283.301 151.666 285.459 143.254 285.459ZM143.254 276.109C135.38 276.109 128.728 278.141 128.728 280.546C128.728 282.951 135.38 284.983 143.254 284.983C151.127 284.983 157.779 282.951 157.779 280.546C157.779 278.141 151.127 276.109 143.254 276.109Z" fill="white"/>
<path d="M146.295 283.022C154.449 283.022 161.059 280.929 161.059 278.347C161.059 275.765 154.449 273.672 146.295 273.672C138.141 273.672 131.531 275.765 131.531 278.347C131.531 280.929 138.141 283.022 146.295 283.022Z" fill="#D67A00"/>
<path d="M161.059 273.689H131.531V278.506H161.059V273.689Z" fill="#D67A00"/>
<path d="M146.295 278.455C154.449 278.455 161.059 276.362 161.059 273.78C161.059 271.198 154.449 269.105 146.295 269.105C138.141 269.105 131.531 271.198 131.531 273.78C131.531 276.362 138.141 278.455 146.295 278.455Z" fill="#FFB244"/>
<path d="M148.035 278.693C139.623 278.693 133.033 276.535 133.033 273.78C133.033 271.025 139.623 268.867 148.035 268.867C156.447 268.867 163.037 271.025 163.037 273.78C163.037 276.535 156.447 278.693 148.035 278.693ZM148.035 269.344C140.162 269.344 133.51 271.375 133.51 273.78C133.51 276.185 140.162 278.217 148.035 278.217C155.909 278.217 162.561 276.185 162.561 273.78C162.561 271.375 155.909 269.344 148.035 269.344Z" fill="white"/>
<path d="M114.448 279.683C122.408 279.683 128.862 277.64 128.862 275.119C128.862 272.598 122.408 270.555 114.448 270.555C106.487 270.555 100.033 272.598 100.033 275.119C100.033 277.64 106.487 279.683 114.448 279.683Z" fill="#D67A00"/>
<path d="M128.862 270.572H100.033V275.275H128.862V270.572Z" fill="#D67A00"/>
<path d="M114.448 275.226C122.408 275.226 128.862 273.183 128.862 270.662C128.862 268.141 122.408 266.098 114.448 266.098C106.487 266.098 100.033 268.141 100.033 270.662C100.033 273.183 106.487 275.226 114.448 275.226Z" fill="#FFB244"/>
<path d="M116.147 275.464C107.93 275.464 101.494 273.355 101.494 270.662C101.494 267.969 107.93 265.859 116.147 265.859C124.363 265.859 130.799 267.969 130.799 270.662C130.799 273.355 124.363 275.464 116.147 275.464ZM116.147 266.336C108.462 266.336 101.971 268.317 101.971 270.662C101.971 273.007 108.462 274.988 116.147 274.988C123.831 274.988 130.323 273.007 130.323 270.662C130.323 268.317 123.831 266.336 116.147 266.336Z" fill="white"/>
<path d="M117.549 272.088C125.51 272.088 131.963 270.044 131.963 267.523C131.963 265.002 125.51 262.959 117.549 262.959C109.588 262.959 103.135 265.002 103.135 267.523C103.135 270.044 109.588 272.088 117.549 272.088Z" fill="#D67A00"/>
<path d="M131.963 262.977H103.135V267.679H131.963V262.977Z" fill="#D67A00"/>
<path d="M117.549 267.631C125.51 267.631 131.963 265.587 131.963 263.066C131.963 260.545 125.51 258.502 117.549 258.502C109.588 258.502 103.135 260.545 103.135 263.066C103.135 265.587 109.588 267.631 117.549 267.631Z" fill="#FFB244"/>
<path d="M119.246 267.869C111.03 267.869 104.594 265.759 104.594 263.066C104.594 260.373 111.03 258.264 119.246 258.264C127.463 258.264 133.899 260.373 133.899 263.066C133.899 265.759 127.463 267.869 119.246 267.869ZM119.246 258.74C111.562 258.74 105.07 260.721 105.07 263.066C105.07 265.411 111.562 267.392 119.246 267.392C126.931 267.392 133.423 265.411 133.423 263.066C133.423 260.721 126.931 258.74 119.246 258.74Z" fill="white"/>
<path d="M122.221 265.482C130.182 265.482 136.635 263.439 136.635 260.918C136.635 258.397 130.182 256.354 122.221 256.354C114.26 256.354 107.807 258.397 107.807 260.918C107.807 263.439 114.26 265.482 122.221 265.482Z" fill="#D67A00"/>
<path d="M136.635 256.371H107.807V261.074H136.635V256.371Z" fill="#D67A00"/>
<path d="M122.221 261.025C130.182 261.025 136.635 258.982 136.635 256.461C136.635 253.94 130.182 251.896 122.221 251.896C114.26 251.896 107.807 253.94 107.807 256.461C107.807 258.982 114.26 261.025 122.221 261.025Z" fill="#FFB244"/>
<path d="M123.918 261.263C115.702 261.263 109.266 259.154 109.266 256.461C109.266 253.768 115.702 251.658 123.918 251.658C132.135 251.658 138.571 253.768 138.571 256.461C138.571 259.154 132.135 261.263 123.918 261.263ZM123.918 252.135C116.234 252.135 109.742 254.116 109.742 256.461C109.742 258.806 116.234 260.787 123.918 260.787C131.603 260.787 138.094 258.806 138.094 256.461C138.094 254.116 131.603 252.135 123.918 252.135Z" fill="white"/>
<path d="M117.789 259.486C125.75 259.486 132.204 257.443 132.204 254.922C132.204 252.401 125.75 250.357 117.789 250.357C109.829 250.357 103.375 252.401 103.375 254.922C103.375 257.443 109.829 259.486 117.789 259.486Z" fill="#D67A00"/>
<path d="M132.204 250.375H103.375V255.078H132.204V250.375Z" fill="#D67A00"/>
<path d="M117.789 255.029C125.75 255.029 132.204 252.985 132.204 250.465C132.204 247.944 125.75 245.9 117.789 245.9C109.829 245.9 103.375 247.944 103.375 250.465C103.375 252.985 109.829 255.029 117.789 255.029Z" fill="#FFB244"/>
<path d="M119.488 255.267C111.272 255.267 104.836 253.158 104.836 250.465C104.836 247.772 111.272 245.662 119.488 245.662C127.705 245.662 134.141 247.772 134.141 250.465C134.141 253.158 127.705 255.267 119.488 255.267ZM119.488 246.139C111.804 246.139 105.312 248.12 105.312 250.465C105.312 252.81 111.804 254.791 119.488 254.791C127.173 254.791 133.665 252.81 133.665 250.465C133.665 248.12 127.173 246.139 119.488 246.139Z" fill="white"/>
<path d="M156.518 278.205C158.309 276.431 155.219 270.408 149.616 264.753C144.013 259.097 138.02 255.951 136.229 257.725C134.438 259.499 137.528 265.522 143.131 271.177C148.734 276.833 154.728 279.979 156.518 278.205Z" fill="#D67A00"/>
<path d="M159.76 275.017L139.471 254.537L136.13 257.847L156.42 278.327L159.76 275.017Z" fill="#D67A00"/>
<path d="M159.684 275.066C161.475 273.292 158.385 267.269 152.782 261.614C147.179 255.959 141.186 252.812 139.395 254.586C137.604 256.361 140.694 262.383 146.297 268.039C151.9 273.694 157.894 276.841 159.684 275.066Z" fill="#FFB244"/>
<path d="M159.449 277.013C156.743 277.013 151.954 274.102 147.322 269.426C141.54 263.589 138.509 257.532 140.422 255.637C142.335 253.742 148.363 256.83 154.146 262.667C159.928 268.504 162.959 274.561 161.046 276.456C160.665 276.834 160.121 277.013 159.449 277.013ZM142.029 255.542C141.487 255.542 141.054 255.682 140.757 255.976C139.091 257.626 142.253 263.632 147.66 269.091C153.068 274.55 159.044 277.768 160.711 276.118C162.377 274.468 159.215 268.461 153.807 263.002C149.363 258.515 144.533 255.542 142.029 255.542Z" fill="white"/>
<path d="M115.832 253.802C123.793 253.802 130.247 251.759 130.247 249.238C130.247 246.717 123.793 244.674 115.832 244.674C107.871 244.674 101.418 246.717 101.418 249.238C101.418 251.759 107.871 253.802 115.832 253.802Z" fill="#D67A00"/>
<path d="M130.247 244.691H101.418V249.394H130.247V244.691Z" fill="#D67A00"/>
<path d="M115.832 249.345C123.793 249.345 130.247 247.302 130.247 244.781C130.247 242.26 123.793 240.217 115.832 240.217C107.871 240.217 101.418 242.26 101.418 244.781C101.418 247.302 107.871 249.345 115.832 249.345Z" fill="#FFB244"/>
<path d="M117.53 249.583C109.313 249.583 102.877 247.474 102.877 244.781C102.877 242.088 109.313 239.979 117.53 239.979C125.746 239.979 132.182 242.088 132.182 244.781C132.182 247.474 125.746 249.583 117.53 249.583ZM117.53 240.455C109.845 240.455 103.353 242.436 103.353 244.781C103.353 247.126 109.845 249.107 117.53 249.107C125.214 249.107 131.706 247.126 131.706 244.781C131.706 242.436 125.214 240.455 117.53 240.455Z" fill="white"/>
<path d="M120.502 247.197C128.463 247.197 134.917 245.153 134.917 242.633C134.917 240.112 128.463 238.068 120.502 238.068C112.541 238.068 106.088 240.112 106.088 242.633C106.088 245.153 112.541 247.197 120.502 247.197Z" fill="#D67A00"/>
<path d="M134.917 238.086H106.088V242.789H134.917V238.086Z" fill="#D67A00"/>
<path d="M120.502 242.74C128.463 242.74 134.917 240.696 134.917 238.176C134.917 235.655 128.463 233.611 120.502 233.611C112.541 233.611 106.088 235.655 106.088 238.176C106.088 240.696 112.541 242.74 120.502 242.74Z" fill="#FFB244"/>
<path d="M122.199 242.978C113.983 242.978 107.547 240.869 107.547 238.176C107.547 235.483 113.983 233.373 122.199 233.373C130.416 233.373 136.852 235.483 136.852 238.176C136.852 240.869 130.416 242.978 122.199 242.978ZM122.199 233.85C114.515 233.85 108.023 235.831 108.023 238.176C108.023 240.521 114.515 242.502 122.199 242.502C129.884 242.502 136.376 240.521 136.376 238.176C136.376 235.831 129.884 233.85 122.199 233.85Z" fill="white"/>
<path d="M116.073 241.203C124.033 241.203 130.487 239.159 130.487 236.639C130.487 234.118 124.033 232.074 116.073 232.074C108.112 232.074 101.658 234.118 101.658 236.639C101.658 239.159 108.112 241.203 116.073 241.203Z" fill="#D67A00"/>
<path d="M130.487 232.092H101.658V236.794H130.487V232.092Z" fill="#D67A00"/>
<path d="M116.073 236.746C124.033 236.746 130.487 234.702 130.487 232.181C130.487 229.661 124.033 227.617 116.073 227.617C108.112 227.617 101.658 229.661 101.658 232.181C101.658 234.702 108.112 236.746 116.073 236.746Z" fill="#FFB244"/>
<path d="M117.772 236.984C109.555 236.984 103.119 234.874 103.119 232.181C103.119 229.488 109.555 227.379 117.772 227.379C125.988 227.379 132.424 229.488 132.424 232.181C132.424 234.874 125.988 236.984 117.772 236.984ZM117.772 227.855C110.087 227.855 103.595 229.836 103.595 232.181C103.595 234.526 110.087 236.507 117.772 236.507C125.456 236.507 131.948 234.526 131.948 232.181C131.948 229.837 125.456 227.855 117.772 227.855Z" fill="white"/>
<path d="M78.7154 140.392C78.6147 140.392 78.5212 140.327 78.4888 140.226L75.4412 130.769C75.4217 130.709 75.4272 130.644 75.4559 130.587C75.4847 130.531 75.5348 130.489 75.5948 130.469L97.3191 123.469C97.4451 123.428 97.5786 123.497 97.6188 123.622L100.666 133.08C100.686 133.14 100.68 133.205 100.652 133.261C100.623 133.318 100.573 133.36 100.513 133.379L78.7885 140.38C78.7642 140.388 78.7396 140.392 78.7154 140.392ZM75.9675 130.85L78.8691 139.854L100.14 132.999L97.2385 123.995L75.9675 130.85Z" fill="#8B865C"/>
<path d="M75.6669 130.697L76.9425 128.654L92.3546 123.688L94.435 124.649L96.4528 125.847L97.4684 128.999L96.53 131.15L95.4021 133.145L79.9902 138.111L77.7618 137.198L75.744 135.999L74.7285 132.848L75.6669 130.697Z" fill="#D3BBA3"/>
<path d="M89.0467 132.433C89.8823 130.803 89.238 128.804 87.6075 127.968C85.977 127.132 83.9777 127.777 83.142 129.407C82.3064 131.038 82.9507 133.037 84.5812 133.873C86.2117 134.708 88.211 134.064 89.0467 132.433Z" fill="#E6D0BE"/>
<path d="M97.4688 128.998C95.7734 129.589 94.8494 131.426 95.4025 133.144L98.4847 132.151L97.4688 128.998Z" fill="#E6D0BE"/>
<path d="M96.4537 125.846L95.4377 122.693L92.3555 123.687C92.9097 125.404 94.7323 126.356 96.4537 125.846Z" fill="#E6D0BE"/>
<path d="M75.8153 135.971C75.7909 135.979 75.7682 135.99 75.7441 135.998L76.7601 139.151L79.9901 138.11C79.4277 136.367 77.5589 135.409 75.8153 135.971Z" fill="#E6D0BE"/>
<path d="M73.7129 129.693L74.7289 132.846C74.7533 132.839 74.778 132.834 74.8024 132.826C76.546 132.265 77.5041 130.396 76.9428 128.652L73.7129 129.693Z" fill="#E6D0BE"/>
<path d="M74.8073 138.387C74.7699 138.387 74.7327 138.379 74.6987 138.361C74.6424 138.332 74.5999 138.282 74.5806 138.222L71.533 128.765C71.5135 128.705 71.5189 128.639 71.5477 128.583C71.5765 128.527 71.6265 128.485 71.6866 128.465L93.4109 121.465C93.4713 121.445 93.5363 121.451 93.5926 121.479C93.6489 121.508 93.6914 121.558 93.7107 121.618L96.7582 131.075C96.7986 131.201 96.7298 131.335 96.6045 131.375L74.8804 138.376C74.8565 138.384 74.8319 138.387 74.8073 138.387ZM72.0595 128.846L74.961 137.85L96.2318 130.995L93.3304 121.991L72.0595 128.846Z" fill="white"/>
<path d="M76.912 154.112C81.4288 152.474 84.6699 149.987 84.1513 148.557C83.6327 147.127 79.5506 147.295 75.0338 148.933C70.5171 150.571 67.2759 153.058 67.7945 154.488C68.3132 155.918 72.3952 155.75 76.912 154.112Z" fill="#D67A00"/>
<path d="M83.216 145.977L66.8594 151.908L67.8269 154.576L84.1835 148.645L83.216 145.977Z" fill="#D67A00"/>
<path d="M75.996 151.583C80.5128 149.945 83.7539 147.458 83.2353 146.028C82.7167 144.597 78.6346 144.766 74.1178 146.403C69.601 148.041 66.3599 150.529 66.8785 151.959C67.3972 153.389 71.4792 153.221 75.996 151.583Z" fill="#FFB244"/>
<path d="M70.4637 152.819C68.8681 152.819 67.8882 152.431 67.6193 151.69C67.3259 150.881 67.9519 149.854 69.4295 148.72C70.8157 147.656 72.7944 146.629 75.0012 145.829C77.2081 145.029 79.3849 144.548 81.1306 144.476C82.9915 144.399 84.1303 144.787 84.4237 145.596C85.0623 147.357 81.1719 149.959 77.0417 151.456C74.8348 152.257 72.6581 152.737 70.9124 152.809C70.7578 152.815 70.6082 152.819 70.4637 152.819ZM81.5564 144.944C81.4252 144.944 81.2898 144.947 81.1503 144.952C79.4521 145.022 77.3259 145.493 75.1637 146.277C73.0016 147.061 71.0682 148.063 69.7197 149.098C68.4787 150.05 67.8609 150.958 68.0673 151.527C68.2736 152.096 69.3302 152.398 70.8928 152.333C72.5912 152.263 74.7173 151.792 76.8794 151.008C81.5671 149.309 84.3816 146.877 83.976 145.758C83.788 145.24 82.895 144.944 81.5564 144.944Z" fill="white"/>
<path d="M83.8373 132.285C84.4622 130.981 81.6318 128.325 77.5153 126.351C73.3989 124.378 69.5552 123.835 68.9303 125.138C68.3054 126.441 71.1359 129.098 75.2523 131.071C79.3688 133.045 83.2124 133.588 83.8373 132.285Z" fill="#D67A00"/>
<path d="M84.9636 129.928L70.0566 122.781L68.8909 125.213L83.7978 132.36L84.9636 129.928Z" fill="#D67A00"/>
<path d="M84.9428 129.98C85.5677 128.677 82.7372 126.02 78.6208 124.047C74.5043 122.073 70.6607 121.53 70.0358 122.833C69.4109 124.137 72.2413 126.793 76.3578 128.767C80.4742 130.74 84.3179 131.284 84.9428 129.98Z" fill="#FFB244"/>
<path d="M83.9833 131.338C82.1823 131.338 79.5377 130.552 77.1336 129.399C73.364 127.592 69.9267 124.76 70.6994 123.148C71.4726 121.536 75.8331 122.442 79.6023 124.249C83.3719 126.056 86.8092 128.889 86.0365 130.5C85.7565 131.084 85.0059 131.338 83.9833 131.338ZM72.7616 122.787C71.8877 122.787 71.3066 122.983 71.129 123.354C70.6425 124.368 73.0734 126.924 77.3394 128.97C81.6056 131.015 85.1202 131.309 85.6068 130.295C86.0933 129.28 83.6624 126.724 79.3964 124.679C76.6877 123.38 74.2818 122.787 72.7616 122.787Z" fill="white"/>
<path d="M82.7557 175.648C82.7132 175.648 82.6709 175.637 82.6339 175.615L74.0986 170.528C73.9857 170.46 73.9487 170.314 74.0161 170.201L85.7013 150.595C85.7686 150.482 85.9147 150.445 86.0279 150.512L94.5631 155.599C94.6174 155.631 94.6566 155.684 94.6721 155.745C94.6877 155.806 94.6781 155.871 94.6458 155.926L82.9603 175.532C82.928 175.586 82.8753 175.626 82.8142 175.641C82.7949 175.646 82.7752 175.648 82.7557 175.648ZM74.5471 170.24L82.673 175.083L94.1145 155.886L85.9885 151.043L74.5471 170.24Z" fill="#8B865C"/>
<path d="M94.4415 155.803L94.8331 158.179L86.5431 172.089L84.3463 172.741L82.0398 173.175L79.1953 171.479L78.4788 169.245L78.0078 167.002L86.2978 153.092L88.5742 152.306L90.8807 151.873L93.725 153.568L94.4415 155.803Z" fill="#D3BBA3"/>
<path d="M87.8427 165.549C89.5087 164.786 90.2411 162.818 89.4785 161.152C88.716 159.486 86.7472 158.753 85.0811 159.516C83.4151 160.278 82.6826 162.247 83.4452 163.913C84.2078 165.579 86.1766 166.312 87.8427 165.549Z" fill="#E6D0BE"/>
<path d="M79.1949 171.479C80.0774 169.916 79.5576 167.927 78.0075 167.002L76.3496 169.784L79.1949 171.479Z" fill="#E6D0BE"/>
<path d="M82.0391 173.174L84.8844 174.87L86.5423 172.088C84.9915 171.165 82.9944 171.654 82.0391 173.174Z" fill="#E6D0BE"/>
<path d="M90.8441 151.941C90.8573 151.919 90.8672 151.896 90.8798 151.874L88.0342 150.178L86.2969 153.093C87.8706 154.03 89.9062 153.515 90.8441 151.941Z" fill="#E6D0BE"/>
<path d="M96.5689 155.264L93.7234 153.568C93.7099 153.59 93.6943 153.61 93.6812 153.632C92.7433 155.205 93.2584 157.241 94.8315 158.179L96.5689 155.264Z" fill="#E6D0BE"/>
<path d="M87.0136 174.57C86.971 174.57 86.9287 174.559 86.8916 174.537L78.3564 169.45C78.2435 169.382 78.2065 169.236 78.2739 169.123L89.9592 149.517C90.0265 149.404 90.173 149.367 90.2856 149.434L98.8209 154.521C98.8752 154.553 98.9144 154.606 98.9299 154.667C98.9455 154.728 98.936 154.793 98.9037 154.848L87.2183 174.454C87.186 174.508 87.1334 174.547 87.0722 174.563C87.0528 174.568 87.0331 174.57 87.0136 174.57ZM78.805 169.162L86.9309 174.005L98.3723 154.808L90.2463 149.965L78.805 169.162Z" fill="white"/>
<path d="M191.683 144.432C200.056 144.432 206.844 137.644 206.844 129.271C206.844 120.897 200.056 114.109 191.683 114.109C183.309 114.109 176.521 120.897 176.521 129.271C176.521 137.644 183.309 144.432 191.683 144.432Z" fill="#F7F1EB"/>
<path d="M192.269 144.42C183.777 144.42 176.869 137.512 176.869 129.021C176.869 120.529 183.777 113.621 192.269 113.621C200.76 113.621 207.668 120.529 207.668 129.021C207.668 137.512 200.76 144.42 192.269 144.42ZM192.269 114.097C184.04 114.097 177.345 120.792 177.345 129.021C177.345 137.249 184.04 143.944 192.269 143.944C200.497 143.944 207.192 137.249 207.192 129.021C207.192 120.792 200.497 114.097 192.269 114.097Z" fill="black"/>
<path d="M189.074 125.997L182.775 125.449L182.494 128.683L188.792 129.231L189.074 125.997Z" fill="#D87355"/>
<path d="M185.91 127.675C183.082 127.429 180.585 129.575 180.333 132.469C180.081 135.362 182.17 137.908 184.998 138.154C187.827 138.4 190.324 136.254 190.576 133.36C190.828 130.467 188.739 127.922 185.91 127.675ZM185.019 136.865C182.914 136.682 181.36 134.788 181.547 132.635C181.735 130.482 183.593 128.885 185.697 129.068C187.802 129.252 189.356 131.146 189.169 133.299C188.982 135.452 187.123 137.049 185.019 136.865Z" fill="#D87355"/>
<path d="M185.698 138.346C186.218 137.913 186.288 137.142 185.856 136.622C185.423 136.103 184.651 136.032 184.132 136.465C183.613 136.897 183.542 137.669 183.975 138.189C184.407 138.708 185.179 138.779 185.698 138.346Z" fill="#D87355"/>
<path d="M185.612 137.455C185.576 137.868 185.212 138.173 184.8 138.137C184.387 138.101 184.082 137.738 184.118 137.325C184.154 136.913 184.518 136.608 184.93 136.643C185.342 136.68 185.648 137.043 185.612 137.455Z" fill="#F7F1EB"/>
<path d="M186.32 126.971C186.297 127.232 186.067 127.425 185.806 127.402C185.545 127.379 185.352 127.149 185.375 126.888C185.398 126.627 185.628 126.434 185.889 126.457C186.149 126.48 186.343 126.71 186.32 126.971Z" fill="white"/>
<path d="M185.74 128.409C185.647 128.401 185.579 128.319 185.587 128.227L185.706 126.855C185.714 126.762 185.796 126.694 185.888 126.702C185.981 126.71 186.049 126.791 186.041 126.884L185.922 128.256C185.914 128.349 185.832 128.417 185.74 128.409Z" fill="white"/>
<path d="M198.771 121.106L193.42 124.473L195.118 127.171L200.469 123.804L198.771 121.106Z" fill="#D87355"/>
<path d="M197.232 124.306C194.829 125.818 194.135 129.037 195.681 131.495C197.228 133.953 200.43 134.721 202.833 133.209C205.236 131.697 205.93 128.479 204.384 126.02C202.837 123.562 199.635 122.795 197.232 124.306ZM202.071 132.17C200.283 133.295 197.9 132.724 196.75 130.895C195.599 129.065 196.115 126.67 197.904 125.545C199.692 124.42 202.074 124.991 203.225 126.821C204.376 128.65 203.859 131.045 202.071 132.17Z" fill="#D87355"/>
<path d="M203.348 132.018C203.708 132.59 203.536 133.345 202.964 133.705C202.392 134.065 201.636 133.893 201.276 133.321C200.916 132.749 201.088 131.993 201.66 131.634C202.232 131.273 202.988 131.445 203.348 132.018Z" fill="#D87355"/>
<path d="M202.9 132.282C203.12 132.633 203.015 133.095 202.665 133.316C202.314 133.536 201.851 133.431 201.631 133.081C201.41 132.73 201.516 132.267 201.866 132.047C202.217 131.826 202.679 131.932 202.9 132.282Z" fill="#F7F1EB"/>
<path d="M197.132 123.497C197.271 123.719 197.204 124.012 196.983 124.151C196.761 124.291 196.468 124.224 196.329 124.002C196.189 123.781 196.256 123.488 196.478 123.348C196.699 123.209 196.992 123.275 197.132 123.497Z" fill="white"/>
<path d="M197.538 124.994C197.459 125.043 197.355 125.02 197.306 124.941L196.573 123.775C196.523 123.697 196.547 123.593 196.626 123.543C196.704 123.494 196.808 123.518 196.858 123.596L197.591 124.762C197.64 124.84 197.617 124.944 197.538 124.994Z" fill="white"/>
<path d="M185.825 125.047C185.739 125.047 185.652 125.033 185.567 125.002C185.374 124.933 185.219 124.793 185.131 124.608C185.043 124.422 185.033 124.213 185.102 124.02L185.568 122.714C185.637 122.52 185.778 122.365 185.963 122.278C186.148 122.19 186.357 122.179 186.551 122.248C186.95 122.391 187.159 122.832 187.016 123.231L186.549 124.537C186.437 124.851 186.141 125.047 185.825 125.047ZM186.293 122.68C186.173 122.68 186.06 122.754 186.017 122.874L185.551 124.18C185.524 124.254 185.528 124.333 185.562 124.404C185.595 124.474 185.654 124.528 185.727 124.554C185.879 124.608 186.047 124.528 186.101 124.377L186.567 123.071C186.622 122.919 186.542 122.751 186.391 122.697C186.358 122.685 186.325 122.68 186.293 122.68Z" fill="#D87355"/>
<path d="M187.096 122.209C187.011 122.209 186.924 122.194 186.839 122.164C186.645 122.095 186.49 121.955 186.403 121.769C186.315 121.584 186.304 121.375 186.373 121.182L186.84 119.875C186.983 119.476 187.423 119.268 187.822 119.41C188.016 119.479 188.171 119.619 188.258 119.805C188.346 119.991 188.357 120.199 188.287 120.393L187.821 121.699C187.709 122.013 187.412 122.209 187.096 122.209ZM187.564 119.842C187.444 119.842 187.331 119.916 187.288 120.036L186.822 121.342C186.796 121.415 186.8 121.495 186.833 121.565C186.866 121.636 186.925 121.689 186.999 121.715C187.15 121.77 187.318 121.69 187.372 121.538L187.839 120.232C187.865 120.159 187.861 120.079 187.828 120.009C187.794 119.938 187.735 119.885 187.662 119.859C187.63 119.847 187.597 119.842 187.564 119.842Z" fill="#D87355"/>
<path d="M186.343 123.172C186.308 123.172 186.272 123.164 186.238 123.147C186.12 123.089 186.072 122.946 186.13 122.828L186.876 121.316C186.934 121.198 187.077 121.15 187.195 121.208C187.313 121.266 187.362 121.409 187.303 121.527L186.557 123.039C186.516 123.123 186.431 123.172 186.343 123.172Z" fill="#D87355"/>
<path d="M185.831 126.24C185.702 126.24 185.596 126.137 185.593 126.007L185.559 124.284C185.556 124.152 185.661 124.044 185.792 124.041C185.929 124.042 186.032 124.143 186.035 124.274L186.07 125.997C186.072 126.129 185.968 126.238 185.836 126.24C185.834 126.24 185.833 126.24 185.831 126.24Z" fill="#D87355"/>
<path d="M189.198 119.874C188.803 119.874 188.467 119.571 188.433 119.171C188.415 118.966 188.478 118.767 188.611 118.61C188.743 118.453 188.929 118.357 189.133 118.339L190.515 118.222C190.939 118.185 191.31 118.5 191.346 118.922C191.364 119.127 191.301 119.326 191.168 119.483C191.036 119.64 190.85 119.736 190.646 119.753L189.264 119.871C189.241 119.873 189.22 119.874 189.198 119.874ZM188.907 119.13C188.921 119.291 189.063 119.412 189.223 119.396L190.605 119.279C190.683 119.272 190.754 119.236 190.804 119.176C190.854 119.116 190.878 119.041 190.872 118.963C190.858 118.802 190.717 118.683 190.556 118.696L189.174 118.814C189.096 118.821 189.025 118.857 188.975 118.917C188.925 118.977 188.901 119.052 188.907 119.13Z" fill="#D87355"/>
<path d="M192.304 119.852C192.124 119.852 191.95 119.789 191.81 119.671C191.653 119.539 191.557 119.354 191.54 119.149C191.523 118.944 191.586 118.745 191.718 118.588C191.85 118.431 192.036 118.335 192.241 118.318L193.623 118.2C193.828 118.183 194.026 118.246 194.183 118.378C194.34 118.511 194.436 118.696 194.454 118.901C194.49 119.323 194.176 119.696 193.753 119.732L192.371 119.849C192.349 119.851 192.327 119.852 192.304 119.852ZM193.688 118.674C193.68 118.674 193.672 118.674 193.663 118.675L192.281 118.793C192.203 118.799 192.133 118.836 192.082 118.895C192.032 118.955 192.008 119.031 192.015 119.108C192.021 119.186 192.058 119.257 192.117 119.307C192.177 119.358 192.253 119.383 192.33 119.375L193.713 119.257C193.873 119.243 193.993 119.102 193.979 118.941C193.972 118.863 193.936 118.793 193.876 118.742C193.823 118.698 193.757 118.674 193.688 118.674Z" fill="#D87355"/>
<path d="M192.322 119.309C192.319 119.309 192.317 119.309 192.314 119.309L190.629 119.258C190.498 119.254 190.395 119.144 190.399 119.013C190.403 118.881 190.51 118.773 190.644 118.782L192.329 118.833C192.46 118.837 192.564 118.947 192.56 119.078C192.556 119.207 192.45 119.309 192.322 119.309Z" fill="#D87355"/>
<path d="M187.633 120.064C187.544 120.064 187.459 120.015 187.418 119.929C187.361 119.811 187.411 119.669 187.53 119.612L189.083 118.865C189.202 118.809 189.344 118.858 189.401 118.977C189.458 119.095 189.408 119.238 189.289 119.295L187.736 120.041C187.703 120.057 187.667 120.064 187.633 120.064Z" fill="#D87355"/>
<path d="M195.767 122.149C195.491 122.149 195.224 122.001 195.086 121.741L194.435 120.516C194.237 120.142 194.379 119.676 194.753 119.477C194.935 119.381 195.143 119.361 195.339 119.421C195.535 119.481 195.696 119.614 195.793 119.795L196.444 121.02C196.643 121.394 196.5 121.861 196.126 122.06C196.011 122.121 195.888 122.149 195.767 122.149ZM195.114 119.863C195.067 119.863 195.02 119.875 194.977 119.898C194.835 119.974 194.781 120.151 194.856 120.293L195.507 121.518C195.583 121.66 195.76 121.715 195.902 121.639C196.045 121.563 196.099 121.386 196.023 121.244L195.372 120.019C195.336 119.95 195.274 119.899 195.2 119.876C195.171 119.868 195.143 119.863 195.114 119.863Z" fill="#D87355"/>
<path d="M196.372 123.254C196.277 123.254 196.187 123.196 196.151 123.102L195.536 121.532C195.488 121.41 195.548 121.271 195.671 121.224C195.794 121.175 195.932 121.236 195.98 121.358L196.594 122.928C196.642 123.051 196.582 123.189 196.459 123.237C196.431 123.248 196.401 123.254 196.372 123.254Z" fill="#D87355"/>
<path d="M195.134 120.372C195.078 120.372 195.022 120.352 194.977 120.313L193.681 119.177C193.582 119.09 193.572 118.94 193.659 118.841C193.745 118.742 193.896 118.732 193.995 118.819L195.291 119.955C195.39 120.041 195.4 120.192 195.313 120.291C195.266 120.344 195.2 120.372 195.134 120.372Z" fill="#D87355"/>
</g>
<defs>
<clipPath id="clip0_569_5967">
<rect x="16.1992" y="105.863" width="198.493" height="203.219" rx="15.7534" fill="white"/>
</clipPath>
</defs>
</svg>
