<svg width="310" height="105" viewBox="0 0 310 105" fill="none" xmlns="http://www.w3.org/2000/svg">
<g clip-path="url(#clip0_535_11598)">
<g clip-path="url(#clip1_535_11598)">
<rect y="0.667969" width="310" height="103.333" rx="6.2" fill="#A6BAFF"/>
<path d="M155.129 168.585C219.404 168.585 271.508 116.48 271.508 52.2053C271.508 -12.0691 219.404 -64.1738 155.129 -64.1738C90.8547 -64.1738 38.75 -12.0691 38.75 52.2053C38.75 116.48 90.8547 168.585 155.129 168.585Z" fill="#1D42C6"/>
<g clip-path="url(#clip2_535_11598)">
<path d="M155.386 123.994C194.806 123.994 226.762 92.0382 226.762 52.6183C226.762 13.1984 194.806 -18.7578 155.386 -18.7578C115.966 -18.7578 84.0101 13.1984 84.0101 52.6183C84.0101 92.0382 115.966 123.994 155.386 123.994Z" fill="#1D42C6"/>
<path d="M161.15 18.5303H161.073C161.494 17.7409 161.734 16.84 161.734 15.8829C161.734 12.7716 159.211 10.2493 156.1 10.2493C155.823 10.2493 155.55 10.2702 155.283 10.309C155.302 10.1392 155.312 9.96708 155.312 9.79242C155.312 7.19207 153.204 5.08401 150.604 5.08401C149.236 5.08401 148.006 5.66735 147.145 6.59812C146.486 4.79484 144.754 3.50781 142.722 3.50781C140.923 3.50781 139.361 4.51714 138.568 6.0002C137.77 5.42436 136.79 5.08401 135.731 5.08401C133.049 5.08401 130.874 7.25837 130.874 9.94055C130.874 10.0497 130.879 10.1576 130.886 10.2649C130.754 10.2556 130.621 10.2492 130.487 10.2492C127.375 10.2492 124.853 12.7715 124.853 15.8829C124.853 16.8419 125.093 17.7445 125.516 18.535C122.95 18.6357 120.9 20.7468 120.9 23.3378C120.9 25.3978 122.196 27.1544 124.017 27.8388C124.626 31.0951 127.482 33.5602 130.915 33.5602C133.572 33.5602 135.883 32.0848 137.075 29.9091C137.858 30.587 138.877 30.9981 139.993 30.9981C141.889 30.9981 143.508 29.814 144.153 28.1454H161.15C163.805 28.1454 165.958 25.993 165.958 23.3378C165.958 20.6827 163.805 18.5303 161.15 18.5303Z" fill="#9B9AB0"/>
<path d="M143.841 19.9341H137.067C137.024 19.9341 136.989 19.8992 136.989 19.8561C136.989 19.8131 137.024 19.7781 137.067 19.7781H143.841C145.211 19.7781 146.325 18.6639 146.325 17.2942C146.325 15.9905 145.264 14.9299 143.961 14.9299H136.14C134.75 14.9299 133.619 13.7992 133.619 12.4095C133.619 11.0198 134.75 9.88922 136.14 9.88922H138.629C140.139 9.88922 141.54 9.01117 142.198 7.6523L142.62 6.78034C142.639 6.74165 142.685 6.72534 142.724 6.74414C142.763 6.76294 142.779 6.80959 142.76 6.84836L142.338 7.72032C141.654 9.13263 140.199 10.0453 138.629 10.0453H136.14C134.836 10.0453 133.775 11.106 133.775 12.4096C133.775 13.7133 134.836 14.7739 136.14 14.7739H143.961C145.35 14.7739 146.481 15.9045 146.481 17.2942C146.481 18.7498 145.297 19.9341 143.841 19.9341Z" fill="#363E44"/>
<path d="M130.094 31.6011C130.051 31.6011 130.016 31.5662 130.016 31.5231V29.7021C130.016 28.3146 131.145 27.1858 132.532 27.1858H136.545C137.846 27.1858 138.905 26.1271 138.905 24.8256C138.905 23.5241 137.846 22.4653 136.545 22.4653H132.532C131.148 22.4653 130.021 21.3412 130.016 19.9577V19.9491C130.021 18.5656 131.148 17.4414 132.532 17.4414H141.699C141.742 17.4414 141.777 17.4764 141.777 17.5194C141.777 17.5625 141.742 17.5974 141.699 17.5974H132.532C131.232 17.5974 130.174 18.6539 130.172 19.9534C130.174 21.2529 131.232 22.3093 132.532 22.3093H136.544C137.932 22.3093 139.061 23.4382 139.061 24.8256C139.061 26.2131 137.932 27.3419 136.544 27.3419H132.532C131.231 27.3419 130.172 28.4006 130.172 29.7021V31.5231C130.172 31.5662 130.137 31.6011 130.094 31.6011Z" fill="#363E44"/>
<path d="M133.961 24.9971H127.524C125.666 24.9971 124.154 23.4852 124.154 21.627H124.31C124.31 23.3993 125.752 24.8411 127.524 24.8411H133.961C134.005 24.8411 134.039 24.876 134.039 24.9191C134.039 24.9621 134.004 24.9971 133.961 24.9971Z" fill="#363E44"/>
<path d="M131.205 15.2021H130.876C129.335 15.2021 128.082 13.9487 128.082 12.4081C128.082 12.365 128.117 12.3301 128.16 12.3301C128.203 12.3301 128.238 12.365 128.238 12.4081C128.238 13.8627 129.421 15.0461 130.876 15.0461H131.205C131.248 15.0461 131.283 15.0811 131.283 15.1241C131.283 15.1673 131.248 15.2021 131.205 15.2021Z" fill="#363E44"/>
<path d="M147.451 12.0754H140.05C140.007 12.0754 139.972 12.0404 139.972 11.9974C139.972 11.9543 140.007 11.9194 140.05 11.9194H147.451C148.875 11.9194 150.181 11.1415 150.859 9.88938L151.877 8.00966C151.897 7.97175 151.945 7.95763 151.983 7.97822C152.021 7.99874 152.035 8.04609 152.014 8.084L150.996 9.96372C150.29 11.2662 148.932 12.0754 147.451 12.0754Z" fill="#363E44"/>
<path d="M161.328 24.5996H149.916C148.587 24.5996 147.505 23.5183 147.505 22.1892C147.505 20.8601 148.587 19.7788 149.916 19.7788H155.375C156.618 19.7788 157.629 18.7675 157.629 17.5244V17.4241C157.629 16.181 156.618 15.1697 155.375 15.1697H149.147C149.104 15.1697 149.069 15.1347 149.069 15.0917C149.069 15.0486 149.104 15.0137 149.147 15.0137H155.375C156.704 15.0137 157.785 16.0949 157.785 17.4241V17.5244C157.785 18.8535 156.704 19.9348 155.375 19.9348H149.916C148.673 19.9348 147.662 20.9461 147.662 22.1892C147.662 23.4323 148.673 24.4436 149.916 24.4436H161.328C161.371 24.4436 161.406 24.4785 161.406 24.5216C161.406 24.5647 161.371 24.5996 161.328 24.5996Z" fill="#363E44"/>
<path d="M140.526 28.0819C140.516 28.0819 140.507 28.0802 140.497 28.0765C140.457 28.0608 140.438 28.0156 140.453 27.9755L141.311 25.7842C141.927 24.2103 143.416 23.1934 145.107 23.1934H145.998C146.041 23.1934 146.076 23.2283 146.076 23.2714C146.076 23.3144 146.041 23.3494 145.998 23.3494H145.107C143.481 23.3494 142.048 24.3274 141.456 25.8411L140.599 28.0323C140.586 28.0631 140.557 28.0819 140.526 28.0819Z" fill="#363E44"/>
<path d="M154.23 17.5974H149.847C149.804 17.5974 149.769 17.5625 149.769 17.5194C149.769 17.4764 149.804 17.4414 149.847 17.4414H154.23C154.273 17.4414 154.308 17.4764 154.308 17.5194C154.308 17.5625 154.273 17.5974 154.23 17.5974Z" fill="#363E44"/>
<path d="M161.328 22.033H152.563C152.52 22.033 152.485 21.998 152.485 21.955C152.485 21.9119 152.52 21.877 152.563 21.877H161.328C161.372 21.877 161.406 21.9119 161.406 21.955C161.406 21.998 161.372 22.033 161.328 22.033Z" fill="#363E44"/>
<path d="M152.218 19.1493H154.494V21.0906H152.218V22.6436H159.43V17.0469H152.218V19.1493Z" fill="#FF9D1B"/>
<path d="M153.976 23.6184H155.697V25.1524H153.976V26.3796H159.43V21.957H153.976V23.6184Z" fill="#FF9D1B"/>
<path d="M148.8 46.7251C148.8 52.587 153.552 57.3389 159.414 57.3389C165.276 57.3389 170.028 52.587 170.028 46.7251C170.028 40.8633 165.276 36.1113 159.414 36.1113C153.552 36.1113 148.8 40.8633 148.8 46.7251ZM162.521 51.124C162.521 52.8402 161.13 54.2314 159.414 54.2314C157.697 54.2314 156.306 52.8402 156.306 51.124C156.306 49.4078 157.697 48.0165 159.414 48.0165C161.13 48.0165 162.521 49.4078 162.521 51.124Z" fill="#FF9D1B"/>
<path d="M157.602 16.9447V41.7931H161.226V16.9447C161.226 15.944 160.414 15.1328 159.414 15.1328C158.413 15.1328 157.602 15.944 157.602 16.9447Z" fill="#FF9D1B"/>
<path d="M159.414 55.6344C154.501 55.6344 150.504 51.6374 150.504 46.7244C150.504 41.8115 154.501 37.8145 159.414 37.8145C164.327 37.8145 168.324 41.8115 168.324 46.7244C168.324 51.6374 164.327 55.6344 159.414 55.6344ZM159.414 37.9489C154.575 37.9489 150.638 41.8856 150.638 46.7245C150.638 51.5634 154.575 55.5001 159.414 55.5001C164.252 55.5001 168.189 51.5634 168.189 46.7245C168.189 41.8856 164.252 37.9489 159.414 37.9489Z" fill="#1D42C6"/>
</g>
</g>
<path d="M135.517 81.222L84.2346 85.9996L61.3003 28.2891H76.0073L93.0913 71.2781L130.5 68.5972L135.517 81.222Z" fill="#F7F1EB"/>
<path d="M141.975 81.2871L139.323 94.4614L162.892 101.013C162.892 101.013 160.673 81.3075 141.975 81.2871Z" fill="#F7F1EB"/>
<path d="M147.836 89.8721L157.238 95.27L162.471 90.3758L154.065 82.9043L147.836 89.8721Z" fill="#E2A18D"/>
<path d="M151.684 104.083L182.016 97.34C182.016 97.34 172.931 89.1316 159.85 87.3281L152.576 93.2495C152.576 93.2495 151.649 98.8789 151.684 104.083Z" fill="white"/>
<path d="M161.147 92.8808C161.135 92.8808 161.123 92.878 161.111 92.8721C161.073 92.8523 161.058 92.8053 161.078 92.767L163.373 88.3352C163.392 88.297 163.439 88.2818 163.478 88.3018C163.516 88.3216 163.531 88.3686 163.511 88.4069L161.216 92.8387C161.202 92.8655 161.175 92.8808 161.147 92.8808Z" fill="#363E44"/>
<path d="M163.988 93.4883C163.976 93.4883 163.964 93.4855 163.952 93.4795C163.914 93.4597 163.899 93.4127 163.919 93.3744L166.214 88.9426C166.233 88.9044 166.28 88.8892 166.319 88.9092C166.357 88.929 166.372 88.9761 166.352 89.0144L164.057 93.4462C164.043 93.4729 164.016 93.4883 163.988 93.4883Z" fill="#363E44"/>
<path d="M116.929 69.6716L149.018 92.0663L156.484 82.9205L136.877 62.6599C136.877 62.6599 130.697 56.9218 125.167 61.454C119.637 65.9861 116.929 69.6716 116.929 69.6716Z" fill="#C46F00"/>
<path d="M148.804 57.428C148.534 55.8812 147.996 54.4399 147.248 53.1446C144.881 49.049 140.386 46.428 135.427 46.6697C116.512 47.5914 100.124 57.5789 85.6315 74.3661C85.6315 74.3661 86.9881 79.0199 96.2866 82.8859C102.779 85.5851 128.621 63.8215 133.299 60.4326L140.389 82.51C140.456 82.4868 154.081 86.5053 153.868 85.9463C153.727 85.5767 150.784 68.7784 148.804 57.428Z" fill="#C46F00"/>
<path d="M119.172 71.3559C119.149 71.3559 119.126 71.3453 119.11 71.3252C119.084 71.291 119.091 71.2421 119.125 71.2159L137.661 57.0902C137.695 57.0641 137.744 57.0707 137.77 57.1049C137.796 57.1391 137.79 57.1881 137.755 57.2142L119.22 71.3399C119.205 71.3507 119.189 71.3559 119.172 71.3559Z" fill="#363E44"/>
<path d="M151.928 78.2905C151.907 78.2905 151.887 78.2826 151.871 78.2667L136.081 61.9095C136.051 61.8786 136.052 61.8292 136.083 61.7992C136.114 61.7693 136.163 61.7701 136.193 61.8012L151.984 78.1583C152.014 78.1893 152.013 78.2387 151.982 78.2686C151.967 78.2833 151.947 78.2905 151.928 78.2905Z" fill="#363E44"/>
<path d="M82.6521 31.0791C81.2645 32.5828 75.9893 30.4089 75.9893 30.4089L72.1864 25.4477C71.5919 22.6312 73.3932 19.8661 76.2096 19.2716C79.0261 18.6771 81.7912 20.4784 82.3856 23.2948C82.3856 23.2948 84.0654 29.5475 82.6521 31.0791Z" fill="#E2A18D"/>
<path d="M74.8957 38.2828L83.7534 40.9408L80.9093 36.193L78.3538 24.0859L72.1743 25.3903L74.8957 38.2828Z" fill="#E2A18D"/>
<path d="M82.0826 24.7598C82.0826 24.7598 83.8294 25.9565 83.8368 26.3682C83.8456 26.8596 82.3131 27.484 82.3131 27.484C82.3131 27.484 82.1214 24.7554 82.0826 24.7598Z" fill="#E2A18D"/>
<path d="M79.9411 31.6912C79.9374 31.6912 79.9336 31.691 79.9299 31.6904C78.0608 31.4206 75.9987 30.5766 75.9781 30.5681C75.9383 30.5517 75.9193 30.5061 75.9357 30.4663C75.9522 30.4265 75.9978 30.4075 76.0376 30.4238C76.058 30.4323 78.1027 31.269 79.9522 31.536C79.9949 31.5422 80.0244 31.5817 80.0183 31.6244C80.0126 31.6632 79.9793 31.6912 79.9411 31.6912Z" fill="#363E44"/>
<path d="M82.0367 28.876C81.7406 28.876 81.4996 28.635 81.4996 28.3389C81.4996 28.1225 81.6283 27.9283 81.8277 27.844C81.8674 27.8273 81.9131 27.8458 81.9299 27.8855C81.9467 27.9252 81.9281 27.9709 81.8885 27.9878C81.7471 28.0475 81.6557 28.1854 81.6557 28.339C81.6557 28.5491 81.8266 28.72 82.0368 28.72C82.1132 28.72 82.1869 28.6976 82.2499 28.655C82.2857 28.6309 82.3341 28.6403 82.3583 28.676C82.3823 28.7117 82.3729 28.7601 82.3372 28.7842C82.2482 28.8443 82.1444 28.876 82.0367 28.876Z" fill="#363E44"/>
<path d="M79.7229 25.5424C79.2018 25.5424 78.6865 25.4606 78.1862 25.2981C78.1452 25.2848 78.1228 25.2408 78.136 25.1999C78.1494 25.1589 78.1934 25.1365 78.2343 25.1498C78.8293 25.343 79.4468 25.4185 80.0685 25.374C80.6357 25.3336 81.1869 25.1943 81.7069 24.9601C81.7465 24.9423 81.7925 24.9599 81.8101 24.9991C81.8278 25.0384 81.8103 25.0846 81.771 25.1023C81.2342 25.3442 80.6651 25.4879 80.0796 25.5297C79.9605 25.5382 79.8416 25.5424 79.7229 25.5424Z" fill="#363E44"/>
<path d="M70.8622 27.704C69.8343 25.8207 69.2479 23.1806 70.3427 21.0153C71.754 18.2238 74.0743 17.3161 76.8466 17.299C81.1466 17.2724 83.339 21.5611 83.339 21.5611C83.339 21.5611 79.3714 22.4703 78.0434 22.8132C76.1763 23.2954 78.8281 28.6428 75.1914 27.1162C74.7912 26.9481 74.0995 29.7204 73.0881 29.72C72.712 29.72 71.1649 28.2585 70.8622 27.704Z" fill="#363E44"/>
<path d="M76.9897 25.8253C77.5638 26.6255 77.3805 27.7396 76.5804 28.3136C75.7802 28.8877 74.6661 28.7044 74.092 27.9042C73.518 27.1041 73.4384 25.8091 74.2386 25.235C75.0388 24.661 76.4156 25.0251 76.9897 25.8253Z" fill="#E2A18D"/>
<path d="M75.507 28.0052C75.1298 28.0052 74.7697 27.8254 74.5433 27.5097C74.1646 26.9818 74.1162 26.1254 74.6524 25.7407C75.0681 25.4426 75.6521 25.5329 76.0466 25.7546C76.0841 25.7757 76.0974 25.8232 76.0764 25.8608C76.0552 25.8984 76.0077 25.9116 75.9701 25.8906C75.5547 25.657 75.05 25.6474 74.7433 25.8675C74.2818 26.1986 74.3343 26.9507 74.67 27.4188C74.9121 27.7562 75.3303 27.9151 75.7355 27.8236C75.7775 27.8141 75.8193 27.8405 75.8288 27.8825C75.8382 27.9246 75.8119 27.9663 75.7699 27.9758C75.6824 27.9956 75.5941 28.0052 75.507 28.0052Z" fill="#363E44"/>
<path d="M83.6663 83.0087L105.709 56.2512L83.1537 35.6899L74.0028 34.3262L71.9269 39.1216C71.9269 39.1216 67.228 54.6243 83.6663 83.0087Z" fill="#9B9AB0"/>
<path d="M138.048 68.0296H82.6029L79.613 61.0449H138.048V68.0296Z" fill="#F7F1EB"/>
<path d="M132.234 59.3586C131.097 58.7355 126.789 55.3912 124.486 56.4617C122.165 57.5399 120.954 60.0858 120.656 62.6181C120.662 62.6264 120.669 62.6356 120.675 62.6439C120.895 63.3152 121.329 64.2858 122.241 65.0216C123.282 65.8604 123.949 65.5904 125.186 66.3056C127.273 67.5127 127.398 69.528 128.214 69.2766C128.774 69.104 128.752 67.9267 128.451 66.8576C128.143 65.76 127.479 65.1787 127.613 65.0481C127.76 64.9049 128.357 65.582 129.178 66.3562C129.559 66.7159 129.996 68.3444 130.796 68.2211C131.434 68.1227 131.406 66.3172 130.551 64.9902C129.947 64.0515 128.906 63.738 129.003 63.5588C129.076 63.4244 129.691 63.6265 130.17 63.9578C130.959 64.5044 131.424 66.1657 132.158 66.0378C132.878 65.9125 132.825 64.3361 132.117 63.0662C131.52 61.9954 130.343 61.701 130.462 61.4777C130.545 61.3206 131.099 61.3435 132.194 61.7322C133.108 62.0567 134.676 63.274 135.159 62.3733C135.565 61.6159 133.949 60.2989 132.234 59.3586Z" fill="#E2A18D"/>
<path d="M101.125 56.5771C98.3261 57.1683 96.19 59.5043 95.9745 62.3441C95.8332 64.2059 96.5298 66.2206 99.3009 67.6968C106.048 71.2911 122.957 62.9576 122.957 62.9576L125.733 56.2575C117.645 54.9477 108.829 54.9496 101.125 56.5771Z" fill="#E2A18D"/>
<path d="M87.591 43.5399L92.0081 54.9854C92.0081 54.9854 106.027 54.7983 114.706 54.2508L112.25 69.9447C112.25 69.9447 89.4347 75.0413 82.3949 72.4819C76.0404 70.1717 73.0774 52.2487 76.0404 43.5398C76.6269 41.8154 87.591 43.5399 87.591 43.5399Z" fill="#9B9AB0"/>
<path d="M92.0081 55.0644C91.9759 55.0644 91.947 55.0445 91.9354 55.0144L87.5183 43.569C87.5028 43.5288 87.5228 43.4836 87.5629 43.4681C87.6032 43.4527 87.6483 43.4726 87.6638 43.5128L92.0613 54.9076C92.6591 54.8993 98.0684 54.8205 104.021 54.6374C104.022 54.6374 104.022 54.6374 104.023 54.6374C104.065 54.6374 104.1 54.6707 104.101 54.7129C104.103 54.756 104.069 54.792 104.026 54.7933C97.7433 54.9867 92.0658 55.0637 92.0092 55.0644C92.0088 55.0644 92.0085 55.0644 92.0081 55.0644Z" fill="#363E44"/>
<path d="M88.2336 73.2785C85.6575 73.2785 83.6934 73.0369 82.3682 72.5552C79.8889 71.6539 77.7384 68.3423 76.3127 63.2306C75.0183 58.5893 74.5173 53.0606 74.9728 48.4415C74.977 48.3987 75.0148 48.3669 75.0581 48.3715C75.101 48.3757 75.1323 48.4139 75.128 48.4568C74.6744 53.0577 75.1734 58.5651 76.4629 63.1887C77.8747 68.2505 79.9908 71.5248 82.4215 72.4086C84.4168 73.134 87.8915 73.308 92.7493 72.9255C92.7916 72.9222 92.8297 72.9542 92.8331 72.9971C92.8365 73.04 92.8044 73.0776 92.7615 73.081C91.0884 73.2128 89.5775 73.2785 88.2336 73.2785Z" fill="#363E44"/>
<path d="M148.249 103.651L134.286 78.6167L84.6185 85.3384L61.3005 28.2891L55.2836 28.3579L81.6287 92.813L131.296 86.0914L141.09 103.651H148.249Z" fill="#E6D0BE"/>
<path d="M63.9703 27.7027C63.5433 27.7027 63.2503 27.5922 63.0992 27.3742C63.0235 27.2652 62.9851 27.1307 62.9851 26.9747C62.9851 26.909 62.992 26.8384 63.0055 26.7647C63.0132 26.7223 63.0541 26.6942 63.0962 26.702C63.1386 26.7097 63.1666 26.7503 63.1589 26.7928C63.1471 26.8572 63.1411 26.9184 63.1411 26.9747C63.1411 27.0983 63.1701 27.2029 63.2273 27.2853C63.3475 27.4588 63.5975 27.5467 63.9702 27.5467L64.0119 27.5463C64.0123 27.5463 64.0128 27.5463 64.0132 27.5463C64.0557 27.5463 64.0905 27.5804 64.0912 27.623C64.0919 27.6661 64.0576 27.7016 64.0146 27.7023L63.9703 27.7027ZM64.9382 27.571C64.9027 27.571 64.8706 27.5467 64.8623 27.5107C64.8525 27.4687 64.8786 27.4268 64.9205 27.4171C65.1904 27.3543 65.4908 27.2681 65.8133 27.1609C65.854 27.1473 65.8983 27.1695 65.912 27.2103C65.9256 27.2511 65.9035 27.2953 65.8625 27.3089C65.5354 27.4178 65.2304 27.5053 64.9559 27.5691C64.9499 27.5704 64.944 27.571 64.9382 27.571ZM66.7173 26.9911C66.6863 26.9911 66.6569 26.9723 66.6447 26.9418C66.6289 26.9017 66.6485 26.8564 66.6886 26.8405C66.9625 26.7321 67.252 26.6106 67.549 26.4793C67.5888 26.4619 67.6347 26.4797 67.6519 26.5191C67.6693 26.5585 67.6515 26.6045 67.6121 26.622C67.3131 26.7541 67.0217 26.8764 66.7459 26.9856C66.7365 26.9893 66.7269 26.9911 66.7173 26.9911ZM68.4311 26.2371C68.402 26.2371 68.374 26.2207 68.3607 26.1927C68.3421 26.1538 68.3586 26.1073 68.3974 26.0887C68.6685 25.9591 68.9505 25.82 69.2355 25.6752C69.2739 25.6556 69.3208 25.671 69.3404 25.7093C69.3599 25.7477 69.3446 25.7947 69.3061 25.8143C69.02 25.9597 68.7369 26.0994 68.4648 26.2295C68.4538 26.2346 68.4425 26.2371 68.4311 26.2371ZM63.4397 25.9976C63.4263 25.9976 63.4128 25.9941 63.4004 25.9869C63.3632 25.9651 63.3507 25.9174 63.3725 25.8802C63.5122 25.6413 63.6909 25.3783 63.9037 25.0984C63.9297 25.0641 63.9786 25.0574 64.013 25.0835C64.0472 25.1095 64.0539 25.1585 64.0278 25.1928C63.8188 25.4678 63.6436 25.7255 63.507 25.9589C63.4926 25.9838 63.4665 25.9976 63.4397 25.9976ZM70.101 25.3896C70.0732 25.3896 70.0462 25.3746 70.0322 25.3483C70.0118 25.3103 70.0261 25.2631 70.0641 25.2428C70.3331 25.099 70.6091 24.9482 70.8846 24.7944C70.922 24.7734 70.9697 24.7869 70.9907 24.8245C71.0118 24.8621 70.9983 24.9096 70.9606 24.9307C70.6844 25.0849 70.4074 25.2362 70.1377 25.3804C70.1261 25.3866 70.1134 25.3896 70.101 25.3896ZM64.5588 24.499C64.5406 24.499 64.5224 24.4927 64.5076 24.4798C64.4751 24.4516 64.4717 24.4023 64.5 24.3697C64.693 24.1481 64.9061 23.9146 65.1336 23.6756C65.1635 23.6443 65.2128 23.6433 65.2439 23.6729C65.2751 23.7026 65.2763 23.752 65.2466 23.7832C65.0208 24.0205 64.8091 24.2523 64.6176 24.4722C64.6022 24.4899 64.5805 24.499 64.5588 24.499ZM71.7366 24.4774C71.7097 24.4774 71.6835 24.4634 71.669 24.4385C71.6474 24.4012 71.6601 24.3534 71.6974 24.3318C71.9623 24.1782 72.2333 24.0184 72.5029 23.8567C72.5399 23.8345 72.5877 23.8465 72.61 23.8834C72.6321 23.9204 72.6202 23.9683 72.5832 23.9905C72.3129 24.1526 72.0412 24.3129 71.7756 24.4668C71.7634 24.4739 71.7499 24.4774 71.7366 24.4774ZM73.3427 23.5143C73.3165 23.5143 73.291 23.5012 73.2762 23.4773C73.2536 23.4407 73.2648 23.3926 73.3015 23.3699C73.5628 23.2081 73.8294 23.0407 74.0936 22.8724C74.1298 22.8491 74.178 22.8599 74.2013 22.8963C74.2244 22.9326 74.2137 22.9808 74.1773 23.004C73.9126 23.1728 73.6455 23.3405 73.3836 23.5027C73.3708 23.5105 73.3567 23.5143 73.3427 23.5143ZM65.8473 23.1403C65.8271 23.1403 65.807 23.1325 65.7917 23.1169C65.7614 23.0863 65.7619 23.0368 65.7926 23.0066C66.0066 22.7961 66.2347 22.5778 66.4705 22.3577C66.5021 22.3284 66.5514 22.33 66.5808 22.3615C66.6102 22.393 66.6084 22.4423 66.577 22.4718C66.342 22.6909 66.115 22.9083 65.902 23.1179C65.8869 23.1329 65.8671 23.1403 65.8473 23.1403ZM74.9219 22.5079C74.8965 22.5079 74.8715 22.4955 74.8566 22.4726C74.833 22.4366 74.8431 22.3882 74.8791 22.3646C75.1369 22.1956 75.3991 22.0215 75.6582 21.8471C75.694 21.823 75.7424 21.8325 75.7666 21.8682C75.7906 21.9039 75.7811 21.9525 75.7454 21.9765C75.4857 22.1513 75.223 22.3257 74.9646 22.4951C74.9514 22.5037 74.9366 22.5079 74.9219 22.5079ZM67.2156 21.8616C67.1942 21.8616 67.1728 21.8528 67.1574 21.8355C67.1287 21.8034 67.1315 21.7541 67.1636 21.7254C67.3904 21.5228 67.6278 21.3149 67.8693 21.1075C67.902 21.0795 67.9512 21.0832 67.9793 21.1158C68.0073 21.1485 68.0037 21.1977 67.971 21.2258C67.7303 21.4326 67.4937 21.6399 67.2675 21.8418C67.2527 21.855 67.2341 21.8616 67.2156 21.8616ZM76.4756 21.4625C76.4509 21.4625 76.4264 21.4507 76.4113 21.4288C76.3868 21.3933 76.3958 21.3448 76.4312 21.3203L76.5488 21.239C76.7673 21.0875 76.9837 20.9359 77.1978 20.7842C77.233 20.7593 77.2818 20.7677 77.3066 20.8028C77.3315 20.838 77.3231 20.8867 77.288 20.9115C77.0734 21.0635 76.8566 21.2155 76.6375 21.3672L76.5198 21.4486C76.5063 21.458 76.4909 21.4625 76.4756 21.4625ZM68.6357 20.6405C68.6132 20.6405 68.5911 20.6309 68.5756 20.6124C68.5481 20.5792 68.5527 20.53 68.5858 20.5025C68.8231 20.3056 69.0674 20.106 69.3119 19.9093C69.3455 19.8822 69.3947 19.8876 69.4216 19.9212C69.4486 19.9547 69.4433 20.0039 69.4097 20.0308C69.1658 20.2271 68.9222 20.4262 68.6855 20.6226C68.6709 20.6346 68.6532 20.6405 68.6357 20.6405ZM78.004 20.3802C77.9798 20.3802 77.9561 20.369 77.9408 20.348C77.9154 20.3132 77.9231 20.2644 77.958 20.239C78.2107 20.0555 78.4641 19.869 78.7114 19.6846C78.746 19.6588 78.7948 19.6659 78.8205 19.7005C78.8463 19.735 78.8392 19.7839 78.8046 19.8096C78.5569 19.9944 78.3029 20.1813 78.0497 20.3653C78.0359 20.3753 78.0198 20.3802 78.004 20.3802ZM70.0948 19.4663C70.0715 19.4663 70.0486 19.456 70.0332 19.4364C70.0067 19.4024 70.0127 19.3534 70.0467 19.3268C70.29 19.1367 70.5398 18.9443 70.7894 18.7547C70.8236 18.7287 70.8727 18.7354 70.8986 18.7696C70.9248 18.804 70.9181 18.8529 70.8837 18.8789C70.6348 19.0681 70.3855 19.2601 70.1428 19.4498C70.1285 19.4609 70.1116 19.4663 70.0948 19.4663ZM79.5051 19.2605C79.4816 19.2605 79.4585 19.25 79.4431 19.2299C79.4169 19.1958 79.4234 19.1468 79.4576 19.1206C79.7065 18.9299 79.9551 18.7368 80.1963 18.5467C80.2302 18.5201 80.2792 18.5259 80.3058 18.5597C80.3325 18.5936 80.3266 18.6426 80.2928 18.6692C80.0511 18.8597 79.802 19.0533 79.5526 19.2445C79.5384 19.2553 79.5217 19.2605 79.5051 19.2605ZM71.5858 18.3331C71.5619 18.3331 71.5384 18.3222 71.523 18.3015C71.4974 18.2669 71.5047 18.218 71.5393 18.1925C71.789 18.0078 72.0438 17.8218 72.2964 17.6397C72.3313 17.6145 72.3802 17.6225 72.4053 17.6574C72.4304 17.6924 72.4226 17.7411 72.3876 17.7663C72.1354 17.9481 71.8812 18.1336 71.632 18.3179C71.6183 18.3282 71.6019 18.3331 71.5858 18.3331ZM80.9759 18.101C80.9532 18.101 80.9306 18.0911 80.9153 18.0721C80.8881 18.0386 80.8932 17.9896 80.9266 17.9623C81.1697 17.765 81.4125 17.5647 81.6481 17.3672C81.6813 17.3395 81.7304 17.3439 81.758 17.3768C81.7856 17.4098 81.7814 17.459 81.7484 17.4867C81.5121 17.6849 81.2687 17.8857 81.0251 18.0835C81.0106 18.0953 80.9931 18.101 80.9759 18.101ZM73.1051 17.238C73.0806 17.238 73.0563 17.2264 73.0412 17.2048C73.0164 17.1696 73.025 17.1209 73.0601 17.0962C73.198 16.9993 73.3367 16.9026 73.4762 16.8059C73.5944 16.724 73.7123 16.6427 73.8301 16.562C73.8659 16.5375 73.9142 16.5468 73.9386 16.5822C73.9629 16.6178 73.9539 16.6663 73.9184 16.6907C73.8007 16.7712 73.683 16.8524 73.5651 16.9341C73.4258 17.0306 73.2874 17.1273 73.1499 17.2238C73.1362 17.2334 73.1205 17.238 73.1051 17.238ZM82.4104 16.8971C82.3886 16.8971 82.367 16.888 82.3515 16.8702C82.3233 16.8377 82.3267 16.7884 82.3592 16.7602C82.5991 16.5517 82.8345 16.3432 83.059 16.1401C83.091 16.1112 83.1402 16.1137 83.1693 16.1456C83.1981 16.1776 83.1956 16.2269 83.1637 16.2558C82.9384 16.4595 82.7022 16.6688 82.4617 16.8779C82.4468 16.8908 82.4286 16.8971 82.4104 16.8971ZM74.6499 16.1798C74.6247 16.1798 74.6 16.1676 74.5849 16.1451C74.561 16.1092 74.5707 16.0608 74.6065 16.0369C74.8665 15.8634 75.1298 15.6899 75.3893 15.5213C75.4255 15.4978 75.4737 15.5081 75.4972 15.5441C75.5207 15.5803 75.5104 15.6286 75.4743 15.652C75.2154 15.8204 74.9526 15.9935 74.693 16.1666C74.6799 16.1755 74.6647 16.1798 74.6499 16.1798ZM83.7988 15.6401C83.7781 15.6401 83.7575 15.6319 83.7421 15.6157C83.7125 15.5845 83.7138 15.5351 83.7451 15.5054C83.9775 15.2852 84.2028 15.066 84.4146 14.8539C84.4451 14.8234 84.4946 14.8233 84.5249 14.8538C84.5555 14.8842 84.5555 14.9336 84.5251 14.9641C84.3122 15.1773 84.0859 15.3976 83.8524 15.6187C83.8373 15.633 83.818 15.6401 83.7988 15.6401ZM76.2203 15.1595C76.1944 15.1595 76.1692 15.1466 76.1543 15.1231C76.1313 15.0867 76.1422 15.0386 76.1786 15.0155C76.4429 14.8485 76.7105 14.6818 76.9744 14.5201C77.0109 14.4976 77.0591 14.509 77.0816 14.5458C77.1042 14.5825 77.0926 14.6305 77.0559 14.6531C76.7928 14.8145 76.5256 14.9808 76.2619 15.1474C76.249 15.1556 76.2345 15.1595 76.2203 15.1595ZM85.1201 14.313C85.1011 14.313 85.0821 14.3061 85.067 14.2921C85.0355 14.2628 85.0336 14.2134 85.0629 14.1819C85.2863 13.9415 85.4945 13.7068 85.6817 13.4842C85.7095 13.4513 85.7587 13.447 85.7916 13.4748C85.8246 13.5025 85.8288 13.5517 85.8011 13.5847C85.6122 13.8092 85.4024 14.0459 85.1772 14.2881C85.1619 14.3046 85.141 14.313 85.1201 14.313ZM77.8167 14.1807C77.7901 14.1807 77.7642 14.167 77.7496 14.1424C77.7277 14.1054 77.7398 14.0576 77.7769 14.0356C78.0481 13.8746 78.3205 13.7156 78.5868 13.563C78.624 13.5415 78.6718 13.5545 78.6932 13.5919C78.7146 13.6292 78.7017 13.6769 78.6643 13.6983C78.3988 13.8505 78.127 14.0092 77.8566 14.1697C77.8441 14.1771 77.8303 14.1807 77.8167 14.1807ZM79.4417 13.2497C79.4142 13.2497 79.3876 13.2351 79.3733 13.2093C79.3525 13.1716 79.3662 13.1241 79.404 13.1034C79.6817 12.9503 79.9595 12.8005 80.2295 12.6583C80.2676 12.6382 80.3148 12.6528 80.3349 12.691C80.355 12.7291 80.3403 12.7762 80.3022 12.7963C80.0332 12.9382 79.7562 13.0874 79.4793 13.24C79.4674 13.2466 79.4545 13.2497 79.4417 13.2497ZM86.3181 12.8751C86.3025 12.8751 86.2866 12.8703 86.2728 12.8605C86.2378 12.8354 86.2297 12.7867 86.2548 12.7516C86.4597 12.4656 86.6233 12.2016 86.7412 11.9671C86.7605 11.9287 86.8072 11.9132 86.8459 11.9325C86.8844 11.9518 86.8999 11.9987 86.8806 12.0373C86.759 12.279 86.5912 12.55 86.3815 12.8425C86.3664 12.8637 86.3424 12.8751 86.3181 12.8751ZM81.099 12.3775C81.0703 12.3775 81.0427 12.3617 81.0291 12.3343C81.0099 12.2958 81.0255 12.249 81.064 12.2297C81.352 12.0859 81.6362 11.9483 81.9087 11.8209C81.9479 11.8025 81.9942 11.8195 82.0124 11.8585C82.0306 11.8975 82.0138 11.9439 81.9748 11.9621C81.7035 12.089 81.4206 12.226 81.1338 12.3692C81.1225 12.3749 81.1107 12.3775 81.099 12.3775ZM82.7958 11.5862C82.7656 11.5862 82.7368 11.5684 82.7241 11.5389C82.7071 11.4993 82.7255 11.4534 82.765 11.4365C83.0671 11.3069 83.3601 11.1882 83.636 11.0837C83.6763 11.0685 83.7215 11.0887 83.7366 11.129C83.7518 11.1694 83.7315 11.2144 83.6913 11.2296C83.4175 11.3333 83.1266 11.4511 82.8266 11.5798C82.8166 11.584 82.8061 11.5862 82.7958 11.5862ZM87.0459 11.1882C87.0066 11.1882 86.9728 11.1587 86.9684 11.1187C86.9586 11.0298 86.931 10.952 86.8864 10.8877C86.7937 10.7538 86.6221 10.6704 86.3767 10.6398C86.334 10.6345 86.3037 10.5955 86.309 10.5527C86.3143 10.51 86.3534 10.4795 86.3961 10.485C86.6874 10.5214 86.8956 10.627 87.0147 10.7989C87.0742 10.8848 87.1108 10.9866 87.1236 11.1016C87.1283 11.1444 87.0974 11.1829 87.0546 11.1877C87.0516 11.188 87.0487 11.1882 87.0459 11.1882ZM84.5486 10.9289C84.5153 10.9289 84.4844 10.9073 84.4741 10.8738C84.4614 10.8326 84.4845 10.789 84.5257 10.7763C84.8605 10.6733 85.1686 10.5953 85.4415 10.5445C85.4844 10.5364 85.5246 10.5645 85.5325 10.6069C85.5404 10.6492 85.5125 10.6899 85.4701 10.6979C85.203 10.7477 84.9007 10.8243 84.5716 10.9255C84.564 10.9278 84.5562 10.9289 84.5486 10.9289Z" fill="#EFBC73"/>
<path d="M64.6754 23.2226C64.5682 23.2226 64.4629 23.2218 64.3594 23.2203C64.3164 23.2197 64.282 23.1843 64.2826 23.1412C64.2832 23.0986 64.318 23.0643 64.3606 23.0643C64.361 23.0643 64.3614 23.0643 64.3618 23.0643C64.6559 23.0685 64.9691 23.0667 65.2949 23.0587C65.2955 23.0587 65.2962 23.0587 65.2968 23.0587C65.3389 23.0587 65.3737 23.0924 65.3748 23.1349C65.3758 23.1779 65.3417 23.2136 65.2986 23.2147C65.0853 23.22 64.8756 23.2226 64.6754 23.2226ZM63.4254 23.1824C63.4237 23.1824 63.4218 23.1824 63.4199 23.1822C63.076 23.1579 62.7607 23.1224 62.4827 23.0767C62.4402 23.0697 62.4114 23.0296 62.4185 22.9871C62.4254 22.9446 62.4653 22.9157 62.508 22.9228C62.7812 22.9678 63.0917 23.0027 63.4308 23.0266C63.4738 23.0296 63.5062 23.0669 63.5031 23.1099C63.5003 23.1511 63.4661 23.1824 63.4254 23.1824ZM66.2322 23.1771C66.1911 23.1771 66.1566 23.1449 66.1544 23.1033C66.1521 23.0604 66.185 23.0235 66.228 23.0212C66.5286 23.0047 66.8421 22.9837 67.1602 22.9586C67.2042 22.9552 67.2407 22.9873 67.2441 23.0302C67.2475 23.0731 67.2155 23.1107 67.1725 23.1141C66.8531 23.1394 66.5382 23.1605 66.2365 23.1771C66.2351 23.1771 66.2336 23.1771 66.2322 23.1771ZM68.0987 23.0306C68.059 23.0306 68.0252 23.0006 68.0211 22.9604C68.0168 22.9175 68.0481 22.8792 68.091 22.875C68.3944 22.8447 68.707 22.8105 69.0203 22.7734C69.062 22.7685 69.1018 22.799 69.1069 22.8418C69.112 22.8845 69.0814 22.9234 69.0386 22.9284C68.7244 22.9657 68.4108 22.9999 68.1065 23.0303C68.1039 23.0306 68.1013 23.0306 68.0987 23.0306ZM61.5903 22.8462C61.5808 22.8462 61.5711 22.8444 61.5618 22.8407C61.1427 22.6759 60.9005 22.4565 60.8421 22.1889C60.833 22.1472 60.8284 22.1041 60.8284 22.0607C60.8284 21.9097 60.8841 21.7481 60.9938 21.5806C61.0175 21.5446 61.0659 21.5345 61.1019 21.5581C61.1379 21.5817 61.148 21.6301 61.1243 21.6661C61.0315 21.8078 60.9844 21.9406 60.9844 22.0607C60.9844 22.0929 60.9878 22.1247 60.9945 22.1556C61.0412 22.3693 61.2512 22.551 61.6189 22.6955C61.659 22.7113 61.6787 22.7566 61.6629 22.7967C61.6508 22.8274 61.6214 22.8462 61.5903 22.8462ZM69.9581 22.8113C69.9197 22.8113 69.8862 22.7829 69.8809 22.7437C69.8752 22.7011 69.9051 22.6617 69.9477 22.656C70.2509 22.6151 70.5624 22.5706 70.8734 22.524C70.9172 22.5177 70.9557 22.547 70.9621 22.5896C70.9685 22.6322 70.9391 22.6719 70.8965 22.6783C70.5847 22.7251 70.2725 22.7695 69.9686 22.8106C69.9651 22.811 69.9615 22.8113 69.9581 22.8113ZM71.8098 22.5337C71.7722 22.5337 71.7392 22.5065 71.7329 22.4683C71.7259 22.4258 71.7547 22.3856 71.7972 22.3787C72.1006 22.3287 72.4107 22.2757 72.7188 22.2208C72.7613 22.2134 72.8018 22.2416 72.8093 22.284C72.8168 22.3264 72.7885 22.3669 72.7461 22.3744C72.4373 22.4294 72.1266 22.4826 71.8224 22.5326C71.8182 22.5333 71.8139 22.5337 71.8098 22.5337ZM73.6531 22.2057C73.6164 22.2057 73.5837 22.1797 73.5766 22.1423C73.5685 22.0999 73.5963 22.0591 73.6386 22.051C73.9412 21.9932 74.2499 21.9323 74.5562 21.8699C74.5987 21.8614 74.6396 21.8885 74.6482 21.9307C74.6568 21.9729 74.6296 22.0141 74.5873 22.0227C74.2805 22.0852 73.9712 22.1463 73.668 22.2042C73.6629 22.2053 73.658 22.2057 73.6531 22.2057ZM75.4877 21.8321C75.4517 21.8321 75.4194 21.8071 75.4115 21.7705C75.4024 21.7284 75.4292 21.6869 75.4713 21.6778L75.6149 21.6466C75.8734 21.5902 76.1299 21.5328 76.3844 21.4747C76.426 21.4651 76.4682 21.4913 76.4778 21.5334C76.4873 21.5753 76.4611 21.6172 76.4191 21.6268C76.1642 21.6851 75.9071 21.7425 75.6482 21.7991L75.5042 21.8303C75.4987 21.8315 75.4932 21.8321 75.4877 21.8321ZM77.3132 21.4145C77.278 21.4145 77.2461 21.3905 77.2375 21.3547C77.2273 21.3129 77.2531 21.2707 77.295 21.2606C77.5993 21.1871 77.9047 21.1114 78.2029 21.0354C78.2446 21.0247 78.2871 21.05 78.2978 21.0917C78.3085 21.1334 78.2832 21.1759 78.2415 21.1866C77.9427 21.2627 77.6365 21.3386 77.3315 21.4122C77.3255 21.4138 77.3194 21.4145 77.3132 21.4145ZM61.72 21.046C61.6963 21.046 61.673 21.0354 61.6577 21.0151C61.6317 20.9808 61.6385 20.9319 61.6727 20.9058C61.8932 20.7387 62.1589 20.5641 62.4626 20.3868C62.4999 20.3651 62.5476 20.3776 62.5692 20.4148C62.5909 20.452 62.5784 20.4997 62.5412 20.5215C62.243 20.6957 61.9826 20.8668 61.767 21.0302C61.753 21.0408 61.7364 21.046 61.72 21.046ZM79.1283 20.9521C79.0939 20.9521 79.0623 20.9291 79.053 20.8943C79.0418 20.8527 79.0665 20.8099 79.1081 20.7987C79.4114 20.7173 79.7146 20.6336 80.0099 20.5499C80.051 20.5382 80.0944 20.5622 80.1062 20.6037C80.1179 20.6451 80.0938 20.6883 80.0524 20.7C79.7566 20.7839 79.4525 20.8677 79.1486 20.9494C79.1418 20.9511 79.135 20.9521 79.1283 20.9521ZM80.9302 20.4411C80.8966 20.4411 80.8656 20.4193 80.8555 20.3854C80.8432 20.3442 80.8666 20.3007 80.9078 20.2883C81.2104 20.1977 81.5111 20.1052 81.8018 20.0133C81.8433 20.0002 81.8867 20.023 81.8997 20.0641C81.9127 20.1052 81.8899 20.149 81.8489 20.162C81.5575 20.2542 81.2559 20.347 80.9527 20.4378C80.9451 20.4401 80.9376 20.4411 80.9302 20.4411ZM63.3268 20.089C63.2982 20.089 63.2706 20.0732 63.257 20.0458C63.2378 20.0073 63.2534 19.9604 63.292 19.9412C63.5557 19.8097 63.8419 19.6753 64.1426 19.5416C64.1822 19.5241 64.2281 19.5418 64.2456 19.5812C64.2631 19.6206 64.2454 19.6667 64.206 19.6841C63.9074 19.8169 63.6232 19.9504 63.3616 20.0809C63.3504 20.0864 63.3385 20.089 63.3268 20.089ZM82.7156 19.8754C82.683 19.8754 82.6526 19.8548 82.6417 19.8222C82.628 19.7814 82.65 19.7372 82.6908 19.7235C82.9908 19.6227 83.288 19.5196 83.5743 19.4172C83.6144 19.4026 83.6594 19.4238 83.6739 19.4643C83.6885 19.5049 83.6674 19.5496 83.6268 19.5641C83.3397 19.6669 83.0415 19.7703 82.7405 19.8714C82.7322 19.8741 82.7239 19.8754 82.7156 19.8754ZM65.0365 19.3251C65.0057 19.3251 64.9765 19.3067 64.9642 19.2764C64.948 19.2365 64.9672 19.191 65.0072 19.1748C65.286 19.0617 65.5802 18.9469 65.8816 18.8337C65.9218 18.8186 65.9668 18.8389 65.982 18.8794C65.9971 18.9197 65.9767 18.9647 65.9364 18.9798C65.6362 19.0925 65.3433 19.2068 65.0658 19.3195C65.0562 19.3232 65.0463 19.3251 65.0365 19.3251ZM84.4786 19.2429C84.4473 19.2429 84.4177 19.2239 84.4057 19.1929C84.3903 19.1527 84.4104 19.1075 84.4506 19.0921C84.7509 18.9766 85.0427 18.8599 85.318 18.7451C85.358 18.7286 85.4034 18.7473 85.42 18.7871C85.4367 18.8269 85.4179 18.8725 85.3781 18.8891C85.1015 19.0045 84.8082 19.1217 84.5065 19.2377C84.4974 19.2413 84.4879 19.2429 84.4786 19.2429ZM66.7893 18.6652C66.7571 18.6652 66.727 18.6451 66.7158 18.613C66.7015 18.5724 66.7229 18.5279 66.7635 18.5136C67.0517 18.4125 67.3505 18.3109 67.6516 18.2117C67.6926 18.1982 67.7367 18.2204 67.7502 18.2614C67.7637 18.3023 67.7415 18.3464 67.7005 18.3599C67.4003 18.4588 67.1024 18.5601 66.8151 18.6609C66.8066 18.6638 66.7979 18.6652 66.7893 18.6652ZM86.2064 18.5202C86.1769 18.5202 86.1486 18.5034 86.1355 18.4747C86.1175 18.4356 86.1347 18.3893 86.1737 18.3713C86.4725 18.234 86.7545 18.0965 87.0119 17.9625C87.0502 17.9425 87.0973 17.9575 87.1172 17.9956C87.1371 18.0338 87.1222 18.081 87.084 18.1008C86.8243 18.236 86.54 18.3747 86.239 18.513C86.2284 18.5179 86.2174 18.5202 86.2064 18.5202ZM68.568 18.0784C68.5346 18.0784 68.5039 18.0569 68.4935 18.0235C68.4807 17.9824 68.5037 17.9387 68.5448 17.9259C68.8386 17.8345 69.1405 17.7432 69.4423 17.6545C69.4841 17.6423 69.527 17.666 69.5391 17.7073C69.5513 17.7486 69.5276 17.792 69.4863 17.8042C69.1853 17.8927 68.884 17.9838 68.591 18.0749C68.5834 18.0772 68.5756 18.0784 68.568 18.0784ZM87.8627 17.6483C87.8367 17.6483 87.8113 17.6353 87.7964 17.6116C87.7737 17.575 87.7848 17.527 87.8213 17.5041C88.1198 17.3181 88.3719 17.1366 88.5705 16.9648C88.6031 16.9367 88.6523 16.9401 88.6806 16.9728C88.7087 17.0054 88.7051 17.0546 88.6725 17.0829C88.4677 17.2599 88.2091 17.4462 87.9038 17.6366C87.8911 17.6445 87.8768 17.6483 87.8627 17.6483ZM70.3647 17.5495C70.3305 17.5495 70.2992 17.5269 70.2896 17.4924C70.2781 17.4509 70.3023 17.4079 70.3438 17.3963C70.6411 17.3134 70.9455 17.2308 71.2486 17.1508C71.2899 17.1398 71.333 17.1646 71.344 17.2063C71.355 17.2479 71.3301 17.2906 71.2885 17.3016C70.9861 17.3815 70.6824 17.4639 70.3857 17.5465C70.3787 17.5486 70.3716 17.5495 70.3647 17.5495ZM72.1754 17.0709C72.1405 17.0709 72.1087 17.0473 72.0998 17.0119C72.0893 16.9701 72.1147 16.9277 72.1565 16.9173C72.4567 16.8421 72.7631 16.7673 73.0672 16.6951C73.1095 16.6849 73.1512 16.7111 73.1611 16.753C73.1711 16.7949 73.1452 16.8369 73.1033 16.8469C72.7997 16.919 72.494 16.9935 72.1945 17.0686C72.188 17.0701 72.1817 17.0709 72.1754 17.0709ZM73.9976 16.6382C73.962 16.6382 73.9297 16.6136 73.9216 16.5773C73.9121 16.5353 73.9386 16.4935 73.9806 16.4841C74.1415 16.448 74.3031 16.4122 74.4654 16.3767C74.6095 16.3453 74.7529 16.3144 74.8961 16.2841C74.9388 16.275 74.9797 16.3021 74.9886 16.3441C74.9975 16.3863 74.9707 16.4277 74.9285 16.4367C74.7856 16.467 74.6423 16.4978 74.4986 16.5292C74.3365 16.5645 74.1752 16.6002 74.0147 16.6363C74.009 16.6376 74.0032 16.6382 73.9976 16.6382ZM89.1803 16.3694C89.1729 16.3694 89.1655 16.3684 89.1582 16.3662C89.1169 16.354 89.0933 16.3106 89.1055 16.2693C89.1212 16.2161 89.1292 16.1642 89.1291 16.115C89.1291 16.0828 89.1257 16.0508 89.119 16.0199C89.0847 15.8624 88.9601 15.7212 88.7487 15.6C88.7114 15.5786 88.6984 15.5309 88.7199 15.4936C88.7412 15.4561 88.789 15.4432 88.8263 15.4647C89.0775 15.6087 89.2273 15.7844 89.2715 15.9868C89.2805 16.0286 89.2851 16.0717 89.2851 16.1149C89.2852 16.179 89.2751 16.2459 89.2551 16.3135C89.245 16.3475 89.214 16.3694 89.1803 16.3694ZM75.8286 16.2494C75.7922 16.2494 75.7595 16.2238 75.7522 16.1866C75.7438 16.1444 75.7712 16.1033 75.8134 16.0948C76.1206 16.0334 76.4302 15.9736 76.7335 15.9169C76.776 15.9089 76.8165 15.9369 76.8246 15.9792C76.8325 16.0216 76.8045 16.0623 76.7622 16.0703C76.4595 16.1269 76.1505 16.1866 75.8439 16.2479C75.8388 16.249 75.8337 16.2494 75.8286 16.2494ZM77.6691 15.9054C77.6319 15.9054 77.599 15.8787 77.5924 15.8408C77.585 15.7983 77.6134 15.7579 77.6559 15.7506C77.9656 15.6968 78.2765 15.6449 78.5803 15.5962C78.6229 15.5895 78.663 15.6184 78.6696 15.661C78.6764 15.7035 78.6474 15.7435 78.6049 15.7503C78.3019 15.7988 77.9916 15.8507 77.6826 15.9043C77.678 15.905 77.6735 15.9054 77.6691 15.9054ZM79.5179 15.6098C79.4798 15.6098 79.4465 15.5819 79.4408 15.543C79.4346 15.5004 79.4642 15.4608 79.5068 15.4546C79.8192 15.4092 80.1316 15.3662 80.4354 15.3267C80.4775 15.3211 80.5172 15.3513 80.5228 15.394C80.5283 15.4368 80.4982 15.4758 80.4555 15.4814C80.1524 15.5207 79.8408 15.5637 79.5292 15.6089C79.5254 15.6095 79.5216 15.6098 79.5179 15.6098ZM81.3748 15.3692C81.3356 15.3692 81.3018 15.3398 81.2973 15.2999C81.2926 15.2571 81.3233 15.2185 81.3661 15.2137C81.6816 15.1781 81.9953 15.1456 82.2988 15.1172C82.3427 15.1132 82.3797 15.1446 82.3838 15.1875C82.3878 15.2304 82.3563 15.2684 82.3134 15.2725C82.0109 15.3008 81.698 15.3332 81.3837 15.3687C81.3806 15.3691 81.3777 15.3692 81.3748 15.3692ZM87.9059 15.3077C87.9006 15.3077 87.8951 15.3071 87.8897 15.3059C87.6241 15.2499 87.3156 15.2051 86.9726 15.1729C86.9297 15.1688 86.8983 15.1308 86.9023 15.0879C86.9063 15.045 86.943 15.0134 86.9873 15.0176C87.3361 15.0503 87.6506 15.096 87.922 15.1533C87.9641 15.1622 87.9911 15.2036 87.9822 15.2457C87.9744 15.2825 87.942 15.3077 87.9059 15.3077ZM83.239 15.1953C83.1984 15.1953 83.1642 15.164 83.1613 15.1229C83.1582 15.08 83.1905 15.0427 83.2335 15.0396C83.5543 15.0165 83.8694 14.9978 84.1701 14.984C84.212 14.9821 84.2496 15.0153 84.2516 15.0584C84.2535 15.1014 84.2203 15.1379 84.1772 15.1399C83.8779 15.1536 83.5642 15.1722 83.2447 15.1952C83.2427 15.1953 83.2409 15.1953 83.239 15.1953ZM86.0455 15.1178C86.0446 15.1178 86.0439 15.1178 86.0432 15.1177C85.7507 15.1091 85.4372 15.107 85.1105 15.1114C85.1101 15.1114 85.1097 15.1114 85.1094 15.1114C85.0668 15.1114 85.032 15.0772 85.0314 15.0344C85.0308 14.9913 85.0653 14.9559 85.1083 14.9554C85.4371 14.9509 85.753 14.953 86.0477 14.9618C86.0908 14.963 86.1246 14.999 86.1234 15.0421C86.1221 15.0844 86.0875 15.1178 86.0455 15.1178Z" fill="#EFBC73"/>
<path d="M251.731 86.2365H181.942C181.899 86.2365 181.864 86.2015 181.864 86.1585V17.8163C181.864 17.7732 181.899 17.7383 181.942 17.7383H251.731C251.775 17.7383 251.809 17.7732 251.809 17.8163V86.1585C251.809 86.2016 251.774 86.2365 251.731 86.2365ZM182.02 86.0805H251.653V17.8943H182.02V86.0805Z" fill="white"/>
<path d="M251.732 84.3492H201.446V63.8141C201.446 63.8141 201.83 62.1282 202.253 59.9808C195.963 58.7089 190.456 56.6098 187.526 53.786C187.526 53.786 193.11 25.7525 221.484 25.793C249.858 25.8337 255.208 42.9326 254.843 55.5084C254.687 60.9156 253.479 73.3807 251.732 84.3492Z" fill="#A6BAFF"/>
<path d="M184.918 44.2578C184.918 44.2578 175.975 59.6533 186.003 65.9944C192.102 69.8513 197.812 66.4002 201.447 63.8139C205.149 61.179 207.17 57.7291 207.17 57.7291L184.918 44.2578Z" fill="#A6BAFF"/>
<path d="M223.319 84.707L212.225 84.5249C211.477 72.6177 209.236 62.622 208.401 50.3997C207.827 42.0002 213.639 32.4016 216.621 27.8116C218.771 26.9463 220.823 25.9995 223.123 26.1059C225.75 26.2273 228.259 27.1891 230.379 28.3043C227.947 34.1758 226.389 39.3635 224.957 45.7036C221.826 59.5618 222.385 73.8425 223.319 84.707Z" fill="#9B9AB0"/>
<path d="M192.06 55.5481H216.837L204.319 26.3301H179.542L192.06 55.5481Z" fill="#5D5D5D"/>
<path d="M194.865 39.2792C194.666 37.792 191.324 37.5926 188.082 37.6489C185.701 37.6902 182.995 37.916 182.995 39.8542C182.995 42.1074 186.349 42.1045 188.531 41.9169C191.77 41.6386 195.06 40.7332 194.865 39.2792Z" fill="white"/>
<path d="M195.939 42.6693C195.721 41.0993 192.077 40.8887 188.542 40.9482C185.946 40.9918 182.995 41.2302 182.995 43.2763C182.995 45.6552 186.652 45.652 189.032 45.454C192.564 45.1601 196.152 44.2043 195.939 42.6693Z" fill="white"/>
<path d="M196.065 46.7384C195.941 45.1045 192.737 44.7477 189.616 44.6747C187.325 44.621 184.712 44.7555 184.623 46.8741C184.519 49.3371 187.745 49.4731 189.852 49.3587C192.98 49.1889 196.186 48.3358 196.065 46.7384Z" fill="white"/>
<path d="M195.262 50.1467C195.168 48.7935 192.653 48.504 190.204 48.4493C188.406 48.4092 186.354 48.5254 186.28 50.2804C186.195 52.3208 188.726 52.4274 190.38 52.3287C192.836 52.1822 195.354 51.4696 195.262 50.1467Z" fill="white"/>
<path d="M189.775 52.4183C188.287 52.4183 187.25 52.1394 186.687 51.5863C186.343 51.2483 186.18 50.808 186.202 50.2774C186.22 49.8538 186.353 49.4973 186.598 49.2156C185.185 48.844 184.495 48.055 184.544 46.869C184.57 46.2722 184.795 45.7886 185.216 45.429C184.926 45.3694 184.661 45.2945 184.427 45.2056C184.387 45.1903 184.366 45.1453 184.382 45.1051C184.397 45.0647 184.442 45.0445 184.482 45.0598C184.752 45.1621 185.065 45.2456 185.412 45.308L185.593 45.3403L185.444 45.4478C184.97 45.7916 184.726 46.2586 184.7 46.8754C184.653 48.0121 185.347 48.7593 186.764 49.0963L186.903 49.1292L186.8 49.2282C186.521 49.4986 186.377 49.844 186.358 50.2838C186.338 50.7684 186.485 51.1692 186.796 51.4749C187.426 52.093 188.703 52.3492 190.592 52.2365C190.636 52.2341 190.672 52.2667 190.675 52.3098C190.677 52.3528 190.644 52.3897 190.601 52.3923C190.312 52.4097 190.036 52.4183 189.775 52.4183Z" fill="#363E44"/>
<path d="M184.229 41.6496C184.188 41.6496 184.154 41.6174 184.151 41.5757C184.149 41.5326 184.182 41.496 184.225 41.4938L191.108 41.1368C191.15 41.1346 191.187 41.1676 191.19 41.2107C191.192 41.2538 191.159 41.2904 191.116 41.2926L184.233 41.6496C184.232 41.6496 184.231 41.6496 184.229 41.6496Z" fill="#363E44"/>
<path d="M185.205 45.441C185.165 45.441 185.13 45.4094 185.128 45.368C185.125 45.325 185.158 45.2879 185.201 45.2852L191.89 44.8556C191.934 44.8532 191.97 44.8855 191.973 44.9285C191.976 44.9714 191.943 45.0086 191.9 45.0113L185.211 45.4409C185.209 45.441 185.207 45.441 185.205 45.441Z" fill="#363E44"/>
<path d="M186.67 49.2331C186.628 49.2331 186.594 49.2004 186.592 49.1586C186.59 49.1156 186.623 49.0791 186.666 49.0771L193.493 48.7618C193.536 48.7597 193.573 48.7931 193.575 48.8362C193.577 48.8792 193.544 48.9156 193.501 48.9177L186.674 49.233C186.672 49.233 186.671 49.2331 186.67 49.2331Z" fill="#363E44"/>
<path d="M228.976 63.8388C224.752 56.1453 222.709 51.8472 217.797 44.0076C215.905 40.9874 213.035 38.6551 212.902 35.2302C212.843 33.7117 213.055 32.1484 214.173 32.2179C215.919 32.3266 215.661 37.0825 217.086 37.1318C218.518 37.1812 220.545 32.5296 218.744 31.3125C217.615 30.5499 216.249 32.9404 214.891 31.6792C214.082 30.9278 215.384 29.4376 216.386 28.6406C216.704 28.3876 218.038 27.3262 219.809 27.7321C221.682 28.1612 222.257 29.8619 222.33 30.0364C222.864 29.0844 224.008 28.5788 224.772 28.7599C225.793 29.0019 226.619 30.5094 225.967 32.0481C226.082 31.8737 227.456 30.6216 228.191 30.9301C229.175 31.3434 229.279 32.4922 228.539 34.5283C229.27 33.5349 230.426 33.1258 230.854 33.2868C232.055 33.7375 232.856 34.5323 231.792 39.9407C234.481 43.3345 241.54 54.5955 241.54 54.5955C241.54 54.5955 241.311 60.6447 228.976 63.8388Z" fill="white"/>
<path d="M228.158 39.9571C228.041 39.9571 227.926 39.9352 227.813 39.8874C226.706 39.4181 227.59 36.6543 227.956 35.6462C227.359 36.2374 225.885 37.4988 224.648 36.9532C224.385 36.8372 224.21 36.6372 224.128 36.3587C223.887 35.5398 224.507 34.209 224.951 33.4061C224.177 34.2073 222.739 35.4905 221.885 34.9879C220.7 34.2903 222.008 30.7499 222.064 30.5995C222.079 30.5592 222.124 30.5388 222.164 30.5537C222.204 30.5689 222.225 30.6138 222.21 30.6541C222.197 30.6898 220.891 34.2217 221.964 34.8534C222.075 34.9188 222.2 34.948 222.333 34.9481C223.489 34.9483 225.34 32.7486 225.36 32.7238C225.387 32.6921 225.433 32.6864 225.467 32.7112C225.5 32.7358 225.508 32.7822 225.485 32.8167C225.47 32.8402 223.942 35.1761 224.277 36.3146C224.347 36.5502 224.489 36.7124 224.711 36.8103C226.166 37.4519 228.088 35.2834 228.107 35.2614C228.132 35.2328 228.174 35.2264 228.207 35.2464C228.239 35.2663 228.252 35.3067 228.238 35.342C228.222 35.3809 226.684 39.2392 227.874 39.7436C229.07 40.2507 230.77 37.2659 230.787 37.2357C230.809 37.1982 230.856 37.1848 230.894 37.2061C230.931 37.2272 230.944 37.2748 230.923 37.3123C230.857 37.4299 229.417 39.9569 228.158 39.9571Z" fill="#363E44"/>
<path d="M244.692 72.7977L251.992 67.5057L235.167 42.4688L218.809 52.7058L228.425 68.6383C231.352 74.8091 239.163 76.8064 244.692 72.7977Z" fill="#A6BAFF"/>
<path d="M246.056 58.7515C246.031 58.7515 246.007 58.7394 245.992 58.717L235.145 42.576L234.054 43.286C234.018 43.3095 233.97 43.2992 233.947 43.2631C233.923 43.227 233.933 43.1787 233.969 43.1552L235.124 42.4033C235.16 42.38 235.208 42.3898 235.232 42.4251L246.121 58.6299C246.145 58.6656 246.136 58.7141 246.1 58.7382C246.086 58.7472 246.071 58.7515 246.056 58.7515Z" fill="#363E44"/>
<path d="M240.612 50.649C240.61 50.649 240.609 50.6489 240.607 50.6488C240.564 50.6463 240.531 50.6094 240.534 50.5665C240.793 46.0918 241.872 41.5689 242.766 39.7814C242.785 39.7429 242.832 39.7273 242.871 39.7465C242.909 39.7658 242.925 39.8127 242.906 39.8512C242.038 41.5862 240.944 46.1798 240.69 50.5755C240.687 50.617 240.653 50.649 240.612 50.649Z" fill="#363E44"/>
<path d="M233.259 99.4337C242.02 99.4337 249.122 92.3315 249.122 83.5704C249.122 74.8093 242.02 67.707 233.259 67.707C224.498 67.707 217.395 74.8093 217.395 83.5704C217.395 92.3315 224.498 99.4337 233.259 99.4337Z" fill="#FF9D1B"/>
<path d="M223.569 99.5298C223.557 99.5298 223.544 99.5266 223.533 99.5197C220.85 97.8804 218.606 95.5731 217.044 92.847C215.432 90.0367 214.581 86.8288 214.581 83.5702C214.581 80.9547 215.111 78.4247 216.156 76.0505C217.166 73.757 218.606 71.7179 220.435 69.9897C220.463 69.9633 220.507 69.9646 220.533 69.9924C220.56 70.0204 220.558 70.0642 220.531 70.0906C216.783 73.6303 214.719 78.4174 214.719 83.5702C214.719 90.0829 218.041 96.001 223.605 99.4011C223.638 99.4211 223.649 99.4638 223.628 99.4966C223.615 99.518 223.593 99.5298 223.569 99.5298Z" fill="#363E44"/>
<path d="M248.383 94.0441C248.369 94.0441 248.356 94.0402 248.344 94.0322C248.312 94.0108 248.304 93.9676 248.325 93.9358C250.397 90.8699 251.491 87.2856 251.491 83.5704C251.491 77.8539 248.913 72.5435 244.418 69.0009C244.388 68.9772 244.383 68.9336 244.406 68.9034C244.43 68.8733 244.474 68.8681 244.504 68.8918C249.033 72.4609 251.63 77.811 251.63 83.5704C251.63 87.3133 250.527 90.9246 248.44 94.0135C248.427 94.0334 248.405 94.0441 248.383 94.0441Z" fill="#363E44"/>
<path d="M242.677 92.9903C247.88 87.7878 247.88 79.3528 242.677 74.1503C237.475 68.9478 229.04 68.9478 223.837 74.1503C218.635 79.3528 218.635 87.7878 223.837 92.9903C229.04 98.1928 237.475 98.1928 242.677 92.9903Z" fill="#CB7300"/>
<path d="M227.645 69.7451C227.202 69.7451 226.763 69.641 226.357 69.4351C225.677 69.0903 225.172 68.5013 224.935 67.7766C224.698 67.0519 224.757 66.2783 225.102 65.5982C225.447 64.9182 226.036 64.4132 226.76 64.1761C227.485 63.939 228.259 63.9984 228.939 64.3432C229.619 64.688 230.124 65.277 230.361 66.0017C230.598 66.7264 230.538 67.5 230.194 68.18C229.849 68.8601 229.26 69.3651 228.535 69.6022C228.243 69.6976 227.943 69.7451 227.645 69.7451ZM227.65 64.1894C227.368 64.1894 227.085 64.2341 226.809 64.3245C226.124 64.5486 225.567 65.026 225.241 65.6689C224.915 66.3118 224.859 67.0431 225.083 67.7282C225.307 68.4133 225.784 68.9701 226.427 69.296C227.07 69.622 227.801 69.678 228.487 69.454C229.172 69.2299 229.728 68.7525 230.054 68.1095C230.38 67.4666 230.436 66.7354 230.212 66.0502C229.988 65.3652 229.511 64.8084 228.868 64.4824C228.484 64.2877 228.069 64.1894 227.65 64.1894Z" fill="#FF9D1B"/>
<path d="M226.398 65.4188C226.035 65.4188 225.674 65.3334 225.341 65.1644C224.783 64.8814 224.368 64.3979 224.174 63.8031C223.979 63.2083 224.028 62.5733 224.311 62.0151C224.594 61.4569 225.077 61.0423 225.672 60.8478C226.267 60.6532 226.902 60.7019 227.46 60.9849C228.018 61.2679 228.433 61.7514 228.627 62.3462C229.029 63.5741 228.357 64.8999 227.129 65.3015C226.889 65.3799 226.643 65.4188 226.398 65.4188ZM226.403 60.8866C226.174 60.8866 225.944 60.9229 225.721 60.9961C225.165 61.1777 224.714 61.5647 224.45 62.0857C224.186 62.6067 224.14 63.1994 224.322 63.7546C224.503 64.3098 224.89 64.7611 225.411 65.0253C225.933 65.2894 226.525 65.335 227.081 65.1533C228.227 64.7784 228.854 63.541 228.479 62.3947C228.298 61.8396 227.911 61.3883 227.39 61.1241C227.078 60.9664 226.742 60.8866 226.403 60.8866Z" fill="#FF9D1B"/>
<path d="M225.314 62.1043C224.95 62.1043 224.59 62.0189 224.256 61.8499C223.698 61.5669 223.284 61.0834 223.089 60.4886C222.687 59.2607 223.36 57.935 224.588 57.5333C225.182 57.3387 225.817 57.3874 226.376 57.6705C226.934 57.9536 227.348 58.437 227.543 59.0318C227.944 60.2597 227.272 61.5854 226.044 61.9871C225.805 62.0654 225.559 62.1043 225.314 62.1043ZM225.318 57.5721C225.089 57.5721 224.86 57.6084 224.636 57.6816C223.49 58.0565 222.862 59.294 223.237 60.4401C223.612 61.5863 224.849 62.2137 225.996 61.8388C227.142 61.4639 227.769 60.2264 227.395 59.0802C227.213 58.5251 226.826 58.0738 226.305 57.8096C225.994 57.6519 225.657 57.5721 225.318 57.5721Z" fill="#FF9D1B"/>
<path d="M224.229 58.7899C223.866 58.7899 223.505 58.7045 223.172 58.5355C222.614 58.2524 222.199 57.769 222.005 57.1742C221.81 56.5794 221.859 55.9444 222.142 55.3862C222.425 54.828 222.908 54.4134 223.503 54.2189C224.098 54.0243 224.733 54.073 225.291 54.356C225.849 54.639 226.264 55.1225 226.458 55.7173C226.653 56.3121 226.604 56.9471 226.321 57.5053C226.038 58.0635 225.555 58.478 224.96 58.6726C224.72 58.751 224.474 58.7899 224.229 58.7899ZM224.234 54.2576C224.005 54.2576 223.775 54.294 223.552 54.3672C222.405 54.7421 221.778 55.9795 222.153 57.1257C222.335 57.6809 222.721 58.1322 223.243 58.3964C223.764 58.6605 224.356 58.7061 224.912 58.5244C226.058 58.1495 226.685 56.9121 226.31 55.7658C226.129 55.2107 225.742 54.7594 225.221 54.4952C224.909 54.3375 224.573 54.2576 224.234 54.2576Z" fill="#FF9D1B"/>
<path d="M223.145 55.4735C222.781 55.4735 222.421 55.3881 222.087 55.219C221.529 54.936 221.115 54.4525 220.92 53.8577C220.518 52.6298 221.191 51.3041 222.419 50.9024C223.013 50.7079 223.648 50.7566 224.207 51.0396C224.765 51.3226 225.179 51.8061 225.374 52.4009C225.776 53.6288 225.103 54.9545 223.875 55.3562C223.636 55.4346 223.39 55.4735 223.145 55.4735ZM223.145 50.9421C222.921 50.9421 222.692 50.9771 222.467 51.0507C221.321 51.4256 220.694 52.6631 221.068 53.8093C221.25 54.3645 221.637 54.8157 222.158 55.0799C222.679 55.3441 223.272 55.3896 223.827 55.2079C224.973 54.833 225.601 53.5955 225.226 52.4494C224.924 51.5283 224.066 50.9421 223.145 50.9421Z" fill="#FF9D1B"/>
<path d="M222.06 52.1581C221.697 52.1581 221.336 52.0727 221.003 51.9036C220.445 51.6206 220.03 51.1372 219.836 50.5424C219.641 49.9476 219.69 49.3126 219.973 48.7544C220.256 48.1961 220.739 47.7816 221.334 47.5871C222.562 47.1853 223.888 47.8577 224.289 49.0855C224.691 50.3134 224.019 51.6391 222.791 52.0408C222.551 52.1193 222.305 52.1581 222.06 52.1581ZM222.061 47.6269C221.836 47.6269 221.608 47.6618 221.383 47.7354C220.827 47.917 220.376 48.304 220.112 48.825C219.848 49.346 219.802 49.9387 219.984 50.4939C220.166 51.0492 220.553 51.5004 221.074 51.7646C221.595 52.0287 222.187 52.0743 222.742 51.8926C223.889 51.5177 224.516 50.2802 224.141 49.134C223.84 48.213 222.981 47.6269 222.061 47.6269Z" fill="#FF9D1B"/>
<path d="M220.98 48.8416C219.994 48.8417 219.074 48.2137 218.751 47.2269C218.35 45.999 219.022 44.6732 220.25 44.2716C220.845 44.077 221.48 44.1257 222.038 44.4087C222.596 44.6917 223.01 45.1752 223.205 45.77C223.4 46.3648 223.351 46.9998 223.068 47.558C222.785 48.1162 222.301 48.5307 221.707 48.7253C221.466 48.8042 221.221 48.8416 220.98 48.8416ZM220.98 44.3104C220.752 44.3104 220.522 44.3466 220.298 44.4198C219.152 44.7947 218.525 46.0322 218.9 47.1783C219.275 48.3244 220.512 48.9517 221.658 48.5769C222.213 48.3953 222.665 48.0083 222.929 47.4873C223.193 46.9663 223.238 46.3736 223.057 45.8185C222.875 45.2633 222.488 44.812 221.967 44.5478C221.656 44.3902 221.319 44.3104 220.98 44.3104Z" fill="#FF9D1B"/>
<path d="M219.891 45.5282C219.528 45.5282 219.167 45.4428 218.834 45.2737C218.276 44.9907 217.861 44.5072 217.667 43.9124C217.472 43.3176 217.521 42.6827 217.804 42.1245C218.087 41.5662 218.57 41.1517 219.165 40.9572C219.76 40.7625 220.395 40.8113 220.953 41.0943C221.511 41.3773 221.926 41.8608 222.12 42.4556C222.522 43.6835 221.85 45.0092 220.622 45.4109C220.382 45.4893 220.136 45.5282 219.891 45.5282ZM219.896 40.996C219.667 40.996 219.437 41.0324 219.214 41.1055C218.658 41.2871 218.207 41.6741 217.943 42.1951C217.679 42.7161 217.633 43.3088 217.815 43.8641C217.996 44.4193 218.383 44.8705 218.904 45.1347C219.425 45.3989 220.018 45.4444 220.573 45.2627C221.72 44.8878 222.347 43.6503 221.972 42.5042C221.79 41.949 221.404 41.4978 220.882 41.2335C220.571 41.0757 220.235 40.996 219.896 40.996Z" fill="#FF9D1B"/>
<path d="M218.807 42.2118C218.443 42.2118 218.083 42.1264 217.749 41.9573C217.191 41.6743 216.777 41.1908 216.582 40.596C216.18 39.3681 216.853 38.0424 218.081 37.6408C218.675 37.4461 219.31 37.4949 219.869 37.7779C220.427 38.0609 220.841 38.5444 221.036 39.1392C221.438 40.3671 220.765 41.6928 219.537 42.0945C219.298 42.1729 219.052 42.2118 218.807 42.2118ZM218.811 37.6795C218.582 37.6795 218.353 37.7159 218.129 37.789C216.983 38.1639 216.356 39.4014 216.73 40.5476C216.912 41.1028 217.299 41.554 217.82 41.8182C218.341 42.0824 218.934 42.1279 219.489 41.9463C220.635 41.5714 221.262 40.3339 220.888 39.1877C220.706 38.6325 220.319 38.1813 219.798 37.9171C219.487 37.7593 219.15 37.6795 218.811 37.6795Z" fill="#FF9D1B"/>
<path d="M217.722 38.8973C217.359 38.8973 216.998 38.8119 216.665 38.6428C216.107 38.3598 215.692 37.8764 215.498 37.2815C215.096 36.0536 215.768 34.7279 216.996 34.3263C217.591 34.1317 218.226 34.1804 218.784 34.4635C219.342 34.7465 219.757 35.23 219.951 35.8248C220.353 37.0527 219.681 38.3784 218.453 38.7801C218.213 38.8584 217.967 38.8973 217.722 38.8973ZM217.727 34.3651C217.498 34.3651 217.268 34.4014 217.045 34.4746C215.899 34.8495 215.271 36.087 215.646 37.233C216.021 38.3792 217.258 39.0066 218.405 38.6317C219.551 38.2568 220.178 37.0193 219.803 35.8732C219.622 35.318 219.235 34.8668 218.714 34.6026C218.402 34.4448 218.066 34.3651 217.727 34.3651Z" fill="#FF9D1B"/>
<path d="M216.638 35.5809C216.274 35.5809 215.914 35.4955 215.58 35.3264C215.022 35.0434 214.608 34.5599 214.413 33.9651C214.219 33.3703 214.267 32.7354 214.55 32.1772C214.833 31.6189 215.317 31.2044 215.912 31.0099C216.506 30.8153 217.141 30.864 217.7 31.147C218.258 31.43 218.672 31.9135 218.867 32.5083C219.061 33.1031 219.013 33.7381 218.73 34.2963C218.447 34.8545 217.963 35.269 217.368 35.4636C217.129 35.5421 216.883 35.5809 216.638 35.5809ZM216.642 31.0487C216.414 31.0487 216.184 31.0851 215.96 31.1582C214.814 31.5331 214.187 32.7706 214.561 33.9168C214.743 34.472 215.13 34.9232 215.651 35.1874C216.172 35.4516 216.764 35.4971 217.32 35.3154C217.875 35.1338 218.326 34.7469 218.591 34.2258C218.855 33.7048 218.9 33.1121 218.719 32.5569C218.537 32.0017 218.15 31.5505 217.629 31.2862C217.318 31.1285 216.981 31.0487 216.642 31.0487Z" fill="#FF9D1B"/>
<path d="M216.386 28.6403C215.384 29.4373 214.243 30.7846 214.891 31.679C215.803 32.937 217.698 30.6893 218.744 31.3123C218.533 30.1425 217.971 29.0034 217.521 27.9531C216.944 28.1977 216.542 28.5161 216.386 28.6403Z" fill="white"/>
<path d="M209.932 11.8134C206.307 12.4509 207.385 9.36362 207.385 9.36362C204.988 6.36497 206.181 3.35836 210.746 2.89609C214.535 2.51245 215.092 2.78586 220.532 3.99138C223.013 4.98105 224.073 5.94334 224.58 9.43468C224.58 10.3729 224.977 18.2231 224.179 18.7121C219.129 17.1608 210.344 11.741 209.932 11.8134Z" fill="black"/>
<path d="M226.949 25.3004L223.871 14.6602L216.005 20.39L217.395 26.2199L226.949 25.3004Z" fill="white"/>
<path d="M209.932 11.8134C209.932 11.8134 211.057 23.2436 215.689 23.5988C218.491 23.8137 221.06 20.2227 221.683 18.6898C222.306 17.157 221.683 14.6513 221.683 14.6513C221.683 14.6513 220.742 15.5444 219.985 14.9546C219.229 14.3647 220.103 10.6557 216.777 10.8073C213.452 10.9587 213.091 12.3835 209.932 11.8134Z" fill="white"/>
<path d="M220.082 13.584C220.082 13.584 219.543 18.5678 214.516 19.3356C211.953 19.7269 211.48 18.8169 211.48 18.8169C211.48 18.8169 211.415 25.3603 214.292 25.5472C217.168 25.7339 221.72 23.3059 222.096 21.4754C222.472 19.6449 220.082 13.584 220.082 13.584Z" fill="black"/>
<path d="M220.538 12.8758C220.182 14.0028 220.527 16.0548 221.639 16.4161C222.751 16.7774 224.209 15.3113 224.566 14.1844C224.922 13.0575 224.31 11.851 223.198 11.4897C222.086 11.1282 220.895 11.7489 220.538 12.8758Z" fill="white"/>
<path d="M210.176 15.6289C210.185 15.6494 210.178 15.6712 210.187 15.6918C210.188 15.6926 210.188 15.6932 210.189 15.694C210.228 16.0104 210.269 16.3443 210.251 16.6626C210.243 16.8035 210.183 16.9017 210.161 17.0336C210.144 17.1304 210.129 17.223 210.109 17.3177C209.178 16.8406 208.618 16.0174 208.618 16.0174C208.618 16.0174 209.311 15.6821 210.176 15.6289Z" fill="#A6BAFF"/>
<path d="M211.201 15.7242C212.385 16.0392 213.163 17.0618 213.289 17.2364C213.282 17.2523 213.275 17.2681 213.268 17.2838C213.046 17.3846 211.891 17.8666 210.726 17.5567C210.508 17.4986 210.305 17.4151 210.115 17.3185C210.077 17.2407 210.043 17.1604 210.016 17.0753C209.856 16.5723 209.931 16.0509 210.177 15.6292C210.501 15.6108 210.85 15.6309 211.201 15.7242Z" fill="#363E44"/>
<path d="M216.427 15.8294C216.547 16.186 216.572 16.4781 216.469 16.8237C215.611 17.0471 214.843 16.9275 214.843 16.9275C214.843 16.9275 215.201 15.8047 216.086 15.0566C216.257 15.2736 216.342 15.5762 216.427 15.8294Z" fill="#A6BAFF"/>
<path d="M216.488 16.8193C216.054 16.3582 215.891 15.6841 216.087 15.059C216.187 14.9757 216.292 14.8958 216.406 14.8239C217.542 14.1056 218.958 14.3272 218.958 14.3272C218.958 14.3272 218.532 15.7133 217.395 16.4316C217.102 16.6172 216.789 16.7392 216.488 16.8193Z" fill="#363E44"/>
<path d="M223.444 14.3639C223.436 14.3639 223.429 14.3628 223.421 14.3604C223.38 14.3478 223.357 14.3041 223.369 14.2629C223.389 14.1984 223.404 14.1314 223.412 14.0637C223.483 13.5194 223.177 13.0281 222.729 12.9687C222.622 12.9544 222.514 12.9658 222.409 13.0027C222.369 13.0171 222.324 12.9955 222.31 12.9549C222.296 12.9143 222.317 12.8697 222.358 12.8554C222.486 12.8104 222.618 12.7964 222.75 12.814C223.282 12.8847 223.649 13.4543 223.567 14.0837C223.557 14.1601 223.541 14.2358 223.519 14.3086C223.508 14.3423 223.477 14.3639 223.444 14.3639Z" fill="#363E44"/>
<path d="M213.796 18.7906C213.779 18.7906 213.761 18.7849 213.747 18.7733C213.582 18.6399 213.488 18.4909 213.467 18.3304C213.445 18.1548 213.517 18.0276 213.601 17.8804C213.657 17.7813 213.72 17.6689 213.765 17.5205C213.823 17.3319 213.837 17.126 213.808 16.9087C213.802 16.8659 213.832 16.8267 213.875 16.821C213.918 16.8153 213.957 16.8453 213.963 16.888C213.995 17.1277 213.979 17.3557 213.915 17.5658C213.865 17.7307 213.796 17.8511 213.736 17.9573C213.661 18.0904 213.606 18.1867 213.622 18.3109C213.637 18.43 213.712 18.5447 213.845 18.6519C213.878 18.679 213.884 18.728 213.857 18.7616C213.841 18.7807 213.819 18.7906 213.796 18.7906Z" fill="#363E44"/>
<path d="M215.13 20.1967C215.027 20.1967 214.916 20.1781 214.798 20.141C214.757 20.1279 214.735 20.0842 214.748 20.0431C214.761 20.002 214.804 19.9793 214.846 19.9922C215.082 20.0672 215.282 20.0545 215.438 19.9548C215.731 19.7674 215.79 19.3303 215.79 19.326C215.796 19.2833 215.836 19.2532 215.877 19.2584C215.92 19.2638 215.95 19.3027 215.945 19.3454C215.943 19.3662 215.877 19.8583 215.522 20.0857C215.407 20.1596 215.276 20.1967 215.13 20.1967Z" fill="#363E44"/>
<path d="M230.379 28.3056L223.104 26.5927L216.62 27.8129L217 25.7939L228.614 23.6074L230.379 28.3056Z" fill="#0038FF"/>
</g>
<defs>
<clipPath id="clip0_535_11598">
<rect width="310" height="103.417" fill="white" transform="translate(0 0.667969)"/>
</clipPath>
<clipPath id="clip1_535_11598">
<rect y="0.667969" width="310" height="103.333" rx="6.2" fill="white"/>
</clipPath>
<clipPath id="clip2_535_11598">
<rect x="83.4417" y="-21.0332" width="143.321" height="146.733" rx="11.3747" fill="white"/>
</clipPath>
</defs>
</svg>
