<svg width="239" height="331" viewBox="0 0 239 331" fill="none" xmlns="http://www.w3.org/2000/svg">
<g filter="url(#filter0_d_569_7918)">
<rect x="4.55469" y="2.31445" width="230" height="321.37" rx="18.9041" fill="#FFECEE"/>
<path d="M70.2052 63.918V63.8171C70.5076 63.8171 73.3306 63.3634 73.3306 58.2719V30.2434C73.3306 25.1519 70.5076 24.6982 70.2052 24.6982V24.5974H84.6227V24.6982C84.3202 24.6982 81.4972 25.1519 81.4972 30.2434V58.2719C81.4972 63.3634 84.3202 63.8171 84.6227 63.8171V63.918H70.2052ZM89.8288 34.5284C89.8288 27.6221 95.7773 23.8916 103.44 23.8916C108.027 23.8916 110.8 24.5974 114.379 24.5974V32.8648H114.278C113.976 31.2517 113.421 29.1848 111.657 27.5717C110.094 26.2106 107.624 25.2023 103.541 25.2023C99.4069 25.2023 95.5757 26.8659 95.5757 30.7475C95.5757 34.2259 98.802 36.0911 101.625 37.7043L108.733 41.7371C114.429 44.9634 116.748 48.7443 116.748 53.0796C116.748 59.8347 111.153 64.2204 101.877 64.2204C98.6507 64.2204 93.9625 63.918 90.7362 63.918V53.4325H90.837C91.0891 55.6506 91.5932 58.0703 93.3576 59.9859C94.9203 61.6999 97.5417 62.9097 101.423 62.9097C108.078 62.9097 110.195 59.7843 110.195 56.558C110.195 53.9366 108.884 51.6681 103.994 48.8955L96.5335 44.661C92.2485 42.2412 89.8288 39.2166 89.8288 34.5284ZM149.465 24.5974V32.5623H149.364C149.364 31.9574 148.81 25.9081 143.113 25.9081H133.434V44.6106H142.609C147.045 44.6106 147.499 40.1744 147.499 39.7207H147.549V50.8111H147.499C147.499 50.3574 147.045 45.9212 142.609 45.9212H133.434V58.2719C133.434 63.3634 136.257 63.8171 136.56 63.8171V63.918H122.142V63.8171C122.445 63.8171 125.268 63.3634 125.268 58.2719V30.2434C125.268 25.1519 122.445 24.6982 122.142 24.6982V24.5974H149.465ZM154.265 74.5043C157.593 74.5043 157.996 68.6062 157.996 64.0692V30.2434C157.996 25.1519 155.173 24.6982 154.87 24.6982V24.5974H169.288V24.6982C168.985 24.6982 166.162 25.1519 166.162 30.2434V63.9684C166.162 70.7739 161.424 74.6051 154.265 74.6051V74.5043Z" fill="#E8606B"/>
<path d="M45.4958 93.6445V93.613C45.5903 93.613 46.4725 93.4712 46.4725 91.8801V83.1212C46.4725 81.5301 45.5903 81.3884 45.4958 81.3884V81.3569H48.4259L55.2314 89.6274V83.1212C55.2314 81.5301 54.3492 81.3884 54.2547 81.3884V81.3569H56.6492V81.3884C56.5547 81.3884 55.6725 81.5301 55.6725 83.1212V93.7391L46.9136 83.1212V91.8801C46.9136 93.4712 47.7958 93.613 47.8903 93.613V93.6445H45.4958ZM61.2987 96.6849C62.1336 96.6849 62.6692 96.3541 63.0158 95.8815C63.5514 95.1411 63.646 94.0541 63.646 93.2664V92.3843C63.1576 93.2822 62.1651 93.8336 61.0939 93.8336C58.6679 93.8336 57.1555 91.9747 57.1555 89.3596C57.1555 86.4295 58.6679 84.2555 61.346 84.2555C62.6062 84.2555 63.2364 84.7753 63.646 85.3425V84.413H67.1432V84.4445C67.0487 84.4445 66.1665 84.5863 66.1665 86.1774V93.0144C66.1665 94.3534 65.6624 95.2829 64.9535 95.913C63.9925 96.7795 62.6377 97.063 61.6768 97.063C60.1014 97.063 59.0775 96.5117 58.4946 96.5117V94.0856H58.5418C58.6836 94.9048 59.0617 95.4877 59.5028 95.8973C60.1329 96.4801 60.8891 96.6849 61.2987 96.6849ZM59.6603 89.2021C59.6603 91.376 60.4323 93.1404 61.8028 93.1404C62.6062 93.1404 63.1891 92.6678 63.646 91.5808V86.1774C63.2364 85.311 62.6535 85.1062 62.1966 85.1062C60.7473 85.1062 59.6603 86.713 59.6603 89.2021ZM71.5924 93.8021C70.8048 93.8021 70.0959 93.5658 69.576 93.1089C69.0719 92.6521 68.7568 91.9747 68.7568 91.0767V86.1774C68.7568 84.5863 67.8746 84.4445 67.7801 84.4445V84.413H71.2774V90.8719C71.2774 91.2658 71.3089 91.7856 71.5137 92.211C71.7185 92.6206 72.0808 92.9199 72.6322 92.9199C73.7507 92.9199 74.5541 91.8014 74.5541 90.2575V86.1774C74.5541 84.5863 73.6719 84.4445 73.5774 84.4445V84.413H77.0746V85.0432C77.3267 84.8384 77.4055 84.6178 77.4212 84.413C77.4212 84.2397 77.3582 83.8301 76.7281 83.6726V83.6569L78.0356 82.7432C78.2246 82.8849 78.4925 83.3733 78.4609 83.7986C78.4137 84.5548 77.6103 85.0589 77.0746 85.2952V91.8801C77.0746 93.4712 77.9568 93.613 78.0514 93.613V93.6445H74.5541V92.0062C74.176 92.8884 73.3253 93.8021 71.5924 93.8021ZM83.9081 93.8336C80.8519 93.8336 79.3396 91.6596 79.3396 89.0445C79.3396 86.4295 80.8519 84.2555 83.9081 84.2555C85.0738 84.2555 86.019 84.5706 86.7437 85.1062C86.854 84.9486 86.8855 84.7753 86.8697 84.6336C86.854 84.4603 86.7594 84.0664 86.1135 83.9562V83.9404L87.3423 82.9164C87.5471 83.0425 87.8464 83.5151 87.8622 83.9404C87.8779 84.5233 87.4211 84.9959 86.98 85.311C87.9724 86.1932 88.4766 87.548 88.4766 89.0445C88.4766 91.6596 86.9642 93.8336 83.9081 93.8336ZM81.9231 89.0445C81.9231 91.376 82.4587 93.4555 83.9081 93.4555C85.3574 93.4555 85.9088 91.376 85.9088 89.0445C85.9088 86.713 85.3574 84.6336 83.9081 84.6336C82.4587 84.6336 81.9231 86.713 81.9231 89.0445ZM82.2382 82.4596V82.4123L83.0731 81.2466H83.1204C83.7663 82.1445 84.9163 83.3733 85.6724 83.6726L85.6252 83.7199C84.6957 83.5938 83.0416 83.074 82.2382 82.4596ZM90.3959 86.1774C90.3959 84.5863 89.5137 84.4445 89.4192 84.4445V84.413H92.9164V91.8801C92.9164 93.4712 93.7986 93.613 93.8932 93.613V93.6445H89.4192V93.613C89.5137 93.613 90.3959 93.4712 90.3959 91.8801V86.1774ZM90.2384 82.176C90.2384 81.4356 90.8527 80.8212 91.5932 80.8212C92.3336 80.8212 92.9479 81.4356 92.9479 82.176C92.9479 82.9164 92.3336 83.5308 91.5932 83.5308C90.8527 83.5308 90.2384 82.9164 90.2384 82.176ZM99.6572 86.1774C99.6572 84.5863 98.775 84.4445 98.6805 84.4445V84.413H102.178V86.0514C102.556 85.1692 103.407 84.2555 105.139 84.2555C105.927 84.2555 106.636 84.4918 107.156 84.9486C107.66 85.4055 107.975 86.0829 107.975 86.9808V91.8801C107.975 93.4712 108.857 93.613 108.952 93.613V93.6445H104.478V93.613C104.572 93.613 105.454 93.4712 105.454 91.8801V87.1856C105.454 86.7918 105.423 86.2719 105.218 85.8466C105.013 85.437 104.651 85.1377 104.1 85.1377C102.981 85.1377 102.178 86.2562 102.178 87.8V91.8801C102.178 93.4712 103.06 93.613 103.154 93.613V93.6445H98.6805V93.613C98.775 93.613 99.6572 93.4712 99.6572 91.8801V86.1774ZM113.268 93.8021C112.481 93.8021 111.772 93.5658 111.252 93.1089C110.748 92.6521 110.433 91.9747 110.433 91.0767V86.1774C110.433 84.5863 109.55 84.4445 109.456 84.4445V84.413H112.953V90.8719C112.953 91.2658 112.985 91.7856 113.19 92.211C113.394 92.6206 113.757 92.9199 114.308 92.9199C115.426 92.9199 116.23 91.8014 116.23 90.2575V86.1774C116.23 84.5863 115.348 84.4445 115.253 84.4445V84.413H118.75V91.8801C118.75 93.4712 119.633 93.613 119.727 93.613V93.6445H116.23V92.0062C115.852 92.8884 115.001 93.8021 113.268 93.8021ZM124.999 93.8336C121.943 93.8336 120.431 91.6596 120.431 89.0445C120.431 86.4295 121.943 84.2555 124.999 84.2555C128.055 84.2555 129.568 86.4295 129.568 89.0445C129.568 91.6596 128.055 93.8336 124.999 93.8336ZM122.353 83.7671L122.384 83.7829C123.298 83.7671 124.432 83.263 124.984 82.9007H125.015C125.566 83.263 126.701 83.7671 127.614 83.7829L127.646 83.7671C126.811 83.389 125.456 82.2075 125.015 81.4829H124.984C124.542 82.2075 123.188 83.389 122.353 83.7671ZM123.014 89.0445C123.014 91.376 123.55 93.4555 124.999 93.4555C126.449 93.4555 127 91.376 127 89.0445C127 86.713 126.449 84.6336 124.999 84.6336C123.55 84.6336 123.014 86.713 123.014 89.0445ZM131.364 86.1774C131.364 84.5863 130.482 84.4445 130.387 84.4445V84.413H133.885V91.8801C133.885 93.4712 134.767 93.613 134.861 93.613V93.6445H130.387V93.613C130.482 93.613 131.364 93.4712 131.364 91.8801V86.1774ZM131.207 82.176C131.207 81.4356 131.821 80.8212 132.561 80.8212C133.302 80.8212 133.916 81.4356 133.916 82.176C133.916 82.9164 133.302 83.5308 132.561 83.5308C131.821 83.5308 131.207 82.9164 131.207 82.176ZM146.013 82.8062C146.013 81.2151 145.131 81.0733 145.036 81.0733V81.0418H148.534V91.8801C148.534 93.4712 149.416 93.613 149.51 93.613V93.6445H146.013V92.3843C145.525 93.2822 144.532 93.8336 143.461 93.8336C141.035 93.8336 139.523 91.9747 139.523 89.3596C139.523 86.4295 141.035 84.2555 143.713 84.2555C144.973 84.2555 145.603 84.7753 146.013 85.3425V82.8062ZM142.027 89.2021C142.027 91.376 142.799 93.1404 144.17 93.1404C144.973 93.1404 145.556 92.6678 146.013 91.5808V86.1774C145.603 85.311 145.021 85.1062 144.564 85.1062C143.114 85.1062 142.027 86.713 142.027 89.2021ZM153.96 93.8021C153.172 93.8021 152.463 93.5658 151.943 93.1089C151.439 92.6521 151.124 91.9747 151.124 91.0767V86.1774C151.124 84.5863 150.242 84.4445 150.147 84.4445V84.413H153.644V90.8719C153.644 91.2658 153.676 91.7856 153.881 92.211C154.086 92.6206 154.448 92.9199 154.999 92.9199C156.118 92.9199 156.921 91.8014 156.921 90.2575V86.1774C156.921 84.5863 156.039 84.4445 155.944 84.4445V84.413H159.442V85.0432C159.694 84.8384 159.773 84.6178 159.788 84.413C159.788 84.2397 159.725 83.8301 159.095 83.6726V83.6569L160.403 82.7432C160.592 82.8849 160.86 83.3733 160.828 83.7986C160.781 84.5548 159.977 85.0589 159.442 85.2952V91.8801C159.442 93.4712 160.324 93.613 160.418 93.613V93.6445H156.921V92.0062C156.543 92.8884 155.692 93.8021 153.96 93.8021ZM166.275 93.8336C163.219 93.8336 161.707 91.6596 161.707 89.0445C161.707 86.4295 163.219 84.2555 166.275 84.2555C167.441 84.2555 168.386 84.5706 169.111 85.1062C169.221 84.9486 169.253 84.7753 169.237 84.6336C169.221 84.4603 169.126 84.0664 168.481 83.9562V83.9404L169.709 82.9164C169.914 83.0425 170.213 83.5151 170.229 83.9404C170.245 84.5233 169.788 84.9959 169.347 85.311C170.34 86.1932 170.844 87.548 170.844 89.0445C170.844 91.6596 169.331 93.8336 166.275 93.8336ZM164.07 83.2788C164.463 81.9712 164.968 81.3253 165.487 81.3253C166.086 81.3253 167.173 82.2075 167.709 82.2075C168.008 82.2075 168.229 82.1288 168.481 81.3726H168.544C168.244 82.7274 167.803 83.263 167.283 83.263C166.527 83.263 165.676 82.4281 165.015 82.4281C164.716 82.4281 164.416 82.6644 164.117 83.2788H164.07ZM164.29 89.0445C164.29 91.376 164.826 93.4555 166.275 93.4555C167.724 93.4555 168.276 91.376 168.276 89.0445C168.276 86.713 167.724 84.6336 166.275 84.6336C164.826 84.6336 164.29 86.713 164.29 89.0445ZM172.763 86.1774C172.763 84.5863 171.881 84.4445 171.786 84.4445V84.413H175.284V86.0514C175.662 85.1692 176.512 84.2555 178.245 84.2555C179.033 84.2555 179.742 84.4918 180.262 84.9486C180.766 85.4055 181.081 86.0829 181.081 86.9808V91.8801C181.081 93.4712 181.963 93.613 182.057 93.613V93.6445H177.584V93.613C177.678 93.613 178.56 93.4712 178.56 91.8801V87.1856C178.56 86.7918 178.529 86.2719 178.324 85.8466C178.119 85.437 177.757 85.1377 177.205 85.1377C176.087 85.1377 175.284 86.2562 175.284 87.8V91.8801C175.284 93.4712 176.166 93.613 176.26 93.613V93.6445H171.786V93.613C171.881 93.613 172.763 93.4712 172.763 91.8801V86.1774ZM186.957 96.6849C187.792 96.6849 188.327 96.3541 188.674 95.8815C189.21 95.1411 189.304 94.0541 189.304 93.2664V92.3843C188.816 93.2822 187.823 93.8336 186.752 93.8336C184.326 93.8336 182.814 91.9747 182.814 89.3596C182.814 86.4295 184.326 84.2555 187.004 84.2555C188.264 84.2555 188.895 84.7753 189.304 85.3425V84.413H192.801V84.4445C192.707 84.4445 191.825 84.5863 191.825 86.1774V93.0144C191.825 94.3534 191.321 95.2829 190.612 95.913C189.651 96.7795 188.296 97.063 187.335 97.063C185.76 97.063 184.736 96.5117 184.153 96.5117V94.0856H184.2C184.342 94.9048 184.72 95.4877 185.161 95.8973C185.791 96.4801 186.547 96.6849 186.957 96.6849ZM185.319 89.2021C185.319 91.376 186.09 93.1404 187.461 93.1404C188.264 93.1404 188.847 92.6678 189.304 91.5808V86.1774C188.895 85.311 188.312 85.1062 187.855 85.1062C186.406 85.1062 185.319 86.713 185.319 89.2021Z" fill="#E8606B"/>
<g clip-path="url(#clip0_569_7918)">
<g clip-path="url(#clip1_569_7918)">
<path d="M118.661 308.226C172.544 308.226 216.225 264.545 216.225 210.662C216.225 156.779 172.544 113.098 118.661 113.098C64.7776 113.098 21.0967 156.779 21.0967 210.662C21.0967 264.545 64.7776 308.226 118.661 308.226Z" fill="#E8606B"/>
<path d="M174.304 296.101C174.422 296.089 174.514 295.989 174.514 295.868C174.574 270.624 182.145 248.872 188.485 235.07C195.358 220.11 202.306 211.005 202.375 210.915C202.454 210.812 202.435 210.665 202.332 210.586C202.229 210.507 202.082 210.526 202.003 210.629C201.933 210.719 194.958 219.857 188.064 234.861C181.701 248.709 174.104 270.533 174.044 295.867C174.044 295.997 174.149 296.103 174.278 296.103C174.287 296.103 174.296 296.102 174.304 296.101Z" fill="#E6D0BE"/>
<path d="M197.966 216.991C197.966 216.991 196.101 208.849 209.67 199.688C209.67 199.688 209.676 215.801 197.966 216.991Z" fill="#E6D0BE"/>
<path d="M194.085 221.73C194.263 221.83 196.538 213.872 188.52 204.865C188.52 204.865 187.454 218.002 194.085 221.73Z" fill="#E6D0BE"/>
<path d="M189.65 229.205C189.65 229.205 189.576 222.057 178.649 214.766C178.649 214.766 183.434 229.291 189.65 229.205Z" fill="#E6D0BE"/>
<path d="M185.67 238.446C185.873 238.431 183.377 230.539 171.72 227.455C171.72 227.455 178.083 238.997 185.67 238.446Z" fill="#E6D0BE"/>
<path d="M182.792 245.572C182.792 245.572 178.9 240.492 167.147 241.081C167.147 241.081 178.379 248.94 182.792 245.572Z" fill="#E6D0BE"/>
<path d="M179.524 255.533C179.524 255.533 174.705 252.716 165.411 257.071C165.411 257.071 177.073 259.708 179.524 255.533Z" fill="#E6D0BE"/>
<path d="M195.252 222.837C195.098 222.743 200.276 217.541 210.715 219.854C210.715 219.854 201.006 226.359 195.252 222.837Z" fill="#E6D0BE"/>
<path d="M191.617 230.375C191.617 230.375 197.894 226.955 209.588 232.94C209.588 232.94 194.574 235.844 191.617 230.375Z" fill="#E6D0BE"/>
<path d="M187.626 240.129C187.539 239.944 195.647 238.275 204.023 246.95C204.023 246.95 190.843 247.022 187.626 240.129Z" fill="#E6D0BE"/>
<path d="M184.598 246.848C184.598 246.848 190.931 247.769 196.147 258.316C196.147 258.316 183.809 252.342 184.598 246.848Z" fill="#E6D0BE"/>
<path d="M181.224 256.365C181.224 256.365 186.033 259.2 186.762 269.437C186.762 269.437 178.773 260.541 181.224 256.365Z" fill="#E6D0BE"/>
<path d="M201.279 176.973C213.567 164.686 213.567 144.764 201.279 132.476C188.992 120.189 169.07 120.189 156.783 132.476C144.495 144.764 144.495 164.686 156.783 176.973C169.07 189.26 188.992 189.26 201.279 176.973Z" fill="#E6D0BE"/>
<path d="M183.596 186.294C183.533 186.294 183.472 186.294 183.409 186.294C174.976 186.245 167.067 182.916 161.138 176.919C155.21 170.921 151.972 162.974 152.02 154.542C152.069 146.109 155.398 138.2 161.395 132.271C167.348 126.387 175.223 123.152 183.585 123.152C183.648 123.152 183.709 123.153 183.772 123.153C192.205 123.201 200.114 126.531 206.043 132.528C211.971 138.525 215.209 146.472 215.161 154.905C215.112 163.338 211.783 171.247 205.786 177.175C199.833 183.06 191.958 186.294 183.596 186.294ZM183.588 123.366C166.379 123.366 152.333 137.313 152.233 154.543C152.185 162.919 155.401 170.812 161.29 176.769C167.179 182.725 175.034 186.032 183.41 186.081C183.47 186.081 183.533 186.081 183.594 186.081C200.802 186.083 214.849 172.134 214.948 154.904C214.996 146.528 211.78 138.635 205.891 132.678C200.003 126.721 192.147 123.414 183.771 123.366C183.711 123.366 183.648 123.366 183.588 123.366Z" fill="white"/>
<path d="M183.645 139.569C174.909 139.569 166.322 138.098 158.812 135.315L158.887 135.115C166.372 137.889 174.934 139.356 183.645 139.356C192.289 139.356 200.793 137.91 208.238 135.176L208.311 135.376C200.844 138.119 192.314 139.569 183.645 139.569Z" fill="white"/>
<path d="M158.6 173.899L158.524 173.699C166.106 170.846 174.792 169.338 183.645 169.338C192.451 169.338 201.096 170.831 208.648 173.655L208.574 173.855C201.045 171.039 192.425 169.551 183.645 169.551C174.818 169.551 166.157 171.055 158.6 173.899Z" fill="white"/>
<path d="M183.59 186.296C179.185 186.296 175.049 183.003 171.944 177.023C168.851 171.065 167.147 163.146 167.147 154.725C167.147 146.304 168.851 138.385 171.944 132.427C175.049 126.448 179.185 123.154 183.59 123.154C187.995 123.154 192.131 126.448 195.236 132.427C198.329 138.385 200.032 146.304 200.032 154.725C200.032 163.146 198.329 171.065 195.236 177.023C192.131 183.003 187.995 186.296 183.59 186.296ZM183.59 123.367C174.641 123.367 167.361 137.434 167.361 154.725C167.361 172.016 174.641 186.083 183.59 186.083C192.539 186.083 199.819 172.016 199.819 154.725C199.819 137.435 192.539 123.367 183.59 123.367Z" fill="white"/>
<path d="M183.697 123.326H183.483V186.146H183.697V123.326Z" fill="white"/>
<path d="M152.11 154.175L152.108 154.389L215.065 154.88L215.066 154.666L152.11 154.175Z" fill="white"/>
<path d="M133.5 142.909H129.009V141.627C128.455 141.521 127.905 141.374 127.37 141.189L126.73 142.298L122.84 140.053L123.482 138.941C123.056 138.571 122.653 138.168 122.284 137.742L121.172 138.384L118.926 134.495L120.036 133.855C119.851 133.32 119.704 132.77 119.597 132.216H118.315V127.725H119.597C119.704 127.171 119.851 126.62 120.036 126.086L118.926 125.445L121.172 121.556L122.284 122.198C122.653 121.772 123.056 121.37 123.482 121L122.84 119.888L126.73 117.642L127.37 118.752C127.905 118.567 128.455 118.42 129.009 118.314V117.031H133.5V118.313C134.054 118.42 134.604 118.567 135.139 118.752L135.779 117.642L139.669 119.887L139.027 121C139.453 121.369 139.855 121.772 140.225 122.198L141.337 121.556L143.583 125.445L142.473 126.086C142.658 126.621 142.806 127.171 142.912 127.725H144.194V132.216H142.912C142.806 132.769 142.658 133.32 142.473 133.855L143.583 134.495L141.337 138.384L140.225 137.742C139.855 138.169 139.453 138.571 139.027 138.941L139.669 140.053L135.779 142.298L135.139 141.189C134.604 141.374 134.054 141.521 133.5 141.627V142.909ZM129.222 142.696H133.287V141.45L133.374 141.434C133.976 141.323 134.574 141.164 135.151 140.959L135.235 140.929L135.857 142.007L139.377 139.975L138.753 138.894L138.821 138.837C139.286 138.439 139.723 138.002 140.121 137.537L140.178 137.469L141.259 138.093L143.291 134.574L142.213 133.951L142.243 133.867C142.448 133.289 142.608 132.691 142.718 132.09L142.734 132.003H143.98V127.938H142.734L142.718 127.851C142.608 127.25 142.448 126.652 142.243 126.073L142.213 125.99L143.291 125.367L141.259 121.848L140.178 122.472L140.121 122.404C139.723 121.939 139.286 121.501 138.821 121.104L138.753 121.046L139.377 119.966L135.857 117.934L135.235 119.012L135.151 118.982C134.573 118.777 133.976 118.617 133.374 118.507L133.287 118.491V117.245H129.222V118.491L129.135 118.507C128.534 118.617 127.936 118.777 127.358 118.982L127.274 119.012L126.652 117.933L123.132 119.965L123.756 121.046L123.688 121.104C123.223 121.501 122.785 121.939 122.388 122.404L122.331 122.471L121.25 121.848L119.218 125.367L120.296 125.99L120.266 126.073C120.061 126.651 119.902 127.249 119.791 127.851L119.775 127.938H118.529V132.002H119.775L119.791 132.09C119.902 132.691 120.061 133.289 120.266 133.867L120.296 133.951L119.218 134.573L121.25 138.093L122.331 137.469L122.388 137.536C122.786 138.001 123.223 138.439 123.688 138.836L123.756 138.894L123.132 139.975L126.652 142.007L127.274 140.929L127.358 140.958C127.936 141.163 128.534 141.323 129.135 141.434L129.222 141.45V142.696ZM131.275 139.321C128.797 139.321 126.421 138.376 124.635 136.59C122.034 133.989 121.217 130.139 122.503 126.543C123.394 124.05 125.335 122.109 127.827 121.218C131.424 119.932 135.273 120.75 137.874 123.351C140.475 125.952 141.292 129.801 140.006 133.398C139.115 135.89 137.174 137.831 134.682 138.722C133.556 139.125 132.405 139.321 131.275 139.321ZM131.233 120.833C130.128 120.833 129.002 121.025 127.899 121.419C125.467 122.289 123.573 124.182 122.703 126.615C121.446 130.132 122.243 133.897 124.786 136.439C127.328 138.981 131.092 139.779 134.61 138.521C137.042 137.652 138.936 135.758 139.806 133.326C141.063 129.808 140.265 126.044 137.724 123.502C135.978 121.756 133.656 120.833 131.233 120.833Z" fill="white"/>
<path d="M31.2639 268.643H177.104V158.102H31.2639V268.643Z" fill="#D3BBA3"/>
<path d="M172.528 255.202L172.528 162.678L35.8399 162.678L35.8399 255.202L172.528 255.202Z" fill="#F2E6DC"/>
<path d="M101.438 261.378C101.438 262.894 102.668 264.123 104.184 264.123C105.7 264.123 106.929 262.894 106.929 261.378C106.929 259.862 105.7 258.633 104.184 258.633C102.668 258.633 101.438 259.862 101.438 261.378Z" fill="#F7F1EB"/>
<path d="M31.2646 271.639C31.2646 277.966 36.3936 283.095 42.7205 283.095H195.587C201.914 283.095 207.043 277.966 207.043 271.639H31.2646Z" fill="#E6D0BE"/>
<path d="M69.6523 282.016C64.5858 282.016 60.4639 277.894 60.4639 272.827C60.4639 272.768 60.5115 272.721 60.5705 272.721C60.6295 272.721 60.6771 272.768 60.6771 272.827C60.6771 277.776 64.7034 281.802 69.6523 281.802C69.7112 281.802 69.7589 281.85 69.7589 281.909C69.7589 281.968 69.7111 282.016 69.6523 282.016Z" fill="#F2E6DC"/>
<path d="M145.115 279.321H127.977C125.234 279.321 123.003 277.09 123.003 274.347C123.003 274.288 123.051 274.24 123.11 274.24H149.983C150.042 274.24 150.089 274.288 150.089 274.347C150.089 277.09 147.858 279.321 145.115 279.321ZM123.217 274.453C123.274 277.03 125.388 279.108 127.978 279.108H145.115C147.705 279.108 149.818 277.03 149.875 274.453H123.217Z" fill="#F2E6DC"/>
<path opacity="0.5" d="M44.5596 146.002L44.8737 118.23L91.2214 118.476L91.2454 141.17L94.6344 146.506L85.1809 146.339L44.5596 146.002Z" fill="white"/>
<path d="M97.7354 145.099C97.7343 145.099 97.7333 145.099 97.7322 145.099L86.8936 144.773L46.2747 144.436C46.2463 144.436 46.2192 144.424 46.1994 144.404C46.1795 144.384 46.1686 144.357 46.169 144.328L46.4831 116.557C46.4837 116.498 46.5313 116.451 46.5897 116.451C46.5899 116.451 46.5902 116.451 46.5902 116.451L92.9379 116.697C92.9967 116.697 93.0441 116.745 93.044 116.803L93.011 139.83L97.813 144.919C97.8426 144.95 97.8505 144.996 97.8328 145.036C97.8155 145.074 97.7772 145.099 97.7354 145.099ZM46.3833 144.224L86.8976 144.559L97.4809 144.878L92.8266 139.945C92.8079 139.926 92.7976 139.899 92.7976 139.872L92.8306 116.909L46.6951 116.665L46.3833 144.224Z" fill="#8B865C"/>
<path d="M81.5793 124.65C81.579 124.65 81.5787 124.65 81.5785 124.65L53.8236 124.42C53.7646 124.42 53.7172 124.372 53.7178 124.313C53.7183 124.254 53.7659 124.207 53.8244 124.207C53.8247 124.207 53.8251 124.207 53.8253 124.207L81.5802 124.437C81.6392 124.438 81.6865 124.486 81.686 124.545C81.6854 124.603 81.6379 124.65 81.5793 124.65Z" fill="#8B865C"/>
<path d="M85.9891 124.687C85.9888 124.687 85.9885 124.687 85.9883 124.687L84.2591 124.672C84.2001 124.672 84.1528 124.624 84.1533 124.565C84.1539 124.506 84.2014 124.459 84.26 124.459C84.2603 124.459 84.2606 124.459 84.2608 124.459L85.99 124.473C86.049 124.474 86.0963 124.522 86.0958 124.581C86.0952 124.639 86.0476 124.687 85.9891 124.687Z" fill="#8B865C"/>
<path d="M61.3345 129.665C61.3342 129.665 61.3339 129.665 61.3336 129.665L53.7493 129.602C53.6904 129.601 53.643 129.553 53.6436 129.494C53.6441 129.436 53.6916 129.389 53.7502 129.389C53.7505 129.389 53.7508 129.389 53.751 129.389L61.3354 129.451C61.3943 129.452 61.4417 129.5 61.4411 129.559C61.4406 129.617 61.393 129.665 61.3345 129.665Z" fill="#8B865C"/>
<path d="M85.9147 129.868C85.9144 129.868 85.9141 129.868 85.9139 129.868L69.8314 129.735C69.7724 129.734 69.7251 129.686 69.7256 129.627C69.7261 129.569 69.7737 129.521 69.8322 129.521C69.8325 129.521 69.8329 129.521 69.8331 129.521L85.9156 129.655C85.9746 129.655 86.0219 129.703 86.0214 129.762C86.0208 129.821 85.9733 129.868 85.9147 129.868Z" fill="#8B865C"/>
<path d="M74.9392 134.96C74.9389 134.96 74.9386 134.96 74.9383 134.96L53.6751 134.784C53.6162 134.783 53.5688 134.735 53.5693 134.676C53.5699 134.618 53.6174 134.57 53.676 134.57C53.6763 134.57 53.6766 134.57 53.6768 134.57L74.9401 134.746C74.999 134.747 75.0464 134.795 75.0458 134.854C75.0453 134.912 74.9977 134.96 74.9392 134.96Z" fill="#8B865C"/>
<path d="M85.8412 135.049C85.8409 135.049 85.8406 135.049 85.8404 135.049L80.6634 135.006C80.6044 135.006 80.5571 134.958 80.5576 134.899C80.5582 134.84 80.6057 134.793 80.6642 134.793C80.6646 134.793 80.6649 134.793 80.6651 134.793L85.8421 134.836C85.901 134.836 85.9484 134.884 85.9479 134.943C85.9473 135.002 85.8998 135.049 85.8412 135.049Z" fill="#8B865C"/>
<path d="M96.6357 206.895H131.038C139.048 220.958 143.276 237.318 142.506 254.928H85.1676C84.3977 237.312 88.6279 220.954 96.6357 206.895Z" fill="#E8606B"/>
<path d="M90.8704 178.478C71.5008 182.655 62.8526 186.754 63.3123 192.694C63.7864 198.82 76.5968 200.372 93.7465 196.434C96.1964 195.872 93.9054 177.824 90.8704 178.478Z" fill="white"/>
<path d="M138.253 176.513C138.253 176.513 132.865 175.405 126.328 174.557C122.5 174.06 114.514 184.134 114.514 184.134C114.514 184.134 105.803 174.069 101.559 174.706C95.0303 175.684 89.6104 176.96 89.6104 176.96L94.2641 211.344H132.99L138.253 176.513Z" fill="#FFCD61"/>
<path d="M94.8945 202.644C98.7923 202.644 101.952 199.485 101.952 195.587C101.952 191.689 98.7923 188.529 94.8945 188.529C90.9967 188.529 87.8369 191.689 87.8369 195.587C87.8369 199.485 90.9967 202.644 94.8945 202.644Z" fill="#FFCD61"/>
<path d="M118.702 201.05C116.488 201.05 114.434 200.051 113.065 198.308C113.028 198.262 113.036 198.195 113.083 198.158C113.129 198.122 113.196 198.13 113.232 198.177C114.561 199.867 116.554 200.837 118.702 200.837C122.534 200.837 125.653 197.719 125.653 193.886C125.653 193.827 125.7 193.779 125.759 193.779C125.818 193.779 125.866 193.827 125.866 193.886C125.866 197.836 122.652 201.05 118.702 201.05Z" fill="#363E44"/>
<path d="M79.0156 186.293C79.0157 186.293 75.2977 164.476 74.571 161.013C74.4949 160.651 74.3635 160.01 73.9735 159.255C72.5282 156.457 69.8486 156.57 66.9865 154.321C63.7389 151.769 63.355 148.494 62.3223 148.708C61.6039 148.858 61.401 150.134 61.9687 152.676C61.9687 152.676 61.9684 152.676 61.9683 152.676C61.315 150.794 60.3175 148.281 59.2786 148.645C58.1015 149.129 58.9266 152.22 59.5171 154.065C58.8023 151.832 57.754 150.858 57.2254 151.205C56.3933 151.752 56.5441 153.613 57.6034 156.528L57.6032 156.528C56.3094 154.72 55.7261 154.474 55.3336 154.895C54.6171 155.663 55.533 158.044 56.6653 160.024C57.9399 162.253 59.7018 163.54 60.8322 164.325C60.8325 164.325 60.8327 164.325 60.8327 164.326C61.8686 175.639 62.4873 182.917 63.1705 192.069C63.5218 196.777 77.814 195.628 79.0156 186.293Z" fill="white"/>
<path d="M69.1301 156.995C68.5978 152.943 69.2644 151.369 69.9092 151.305C70.9935 151.198 72.8639 154.471 74.3879 160.294C72.8407 159.506 70.6773 157.783 69.1301 156.995Z" fill="white"/>
<path d="M67.3796 163.68C67.3268 163.68 67.281 163.641 67.2741 163.587C67.1823 162.882 66.8998 161.84 66.0755 160.885C64.9085 159.534 63.3714 159.216 62.7646 159.142C62.7061 159.135 62.6646 159.082 62.6717 159.023C62.6787 158.965 62.7321 158.923 62.7904 158.93C63.4217 159.007 65.0213 159.338 66.2368 160.746C67.0958 161.741 67.39 162.825 67.4854 163.559C67.493 163.618 67.4518 163.671 67.3935 163.679C67.3888 163.679 67.3841 163.68 67.3796 163.68Z" fill="#363E44"/>
<path d="M72.575 157.819C72.5514 157.819 72.5278 157.811 72.508 157.795C71.8239 157.241 71.011 156.857 70.1505 156.451C69.7408 156.257 69.3174 156.058 68.8812 155.828C68.8292 155.801 68.809 155.736 68.8365 155.684C68.8638 155.632 68.9283 155.612 68.9806 155.639C69.4126 155.867 69.834 156.066 70.2416 156.258C71.1141 156.67 71.9382 157.059 72.6423 157.629C72.6881 157.666 72.6952 157.733 72.6581 157.779C72.637 157.805 72.6061 157.819 72.575 157.819Z" fill="#363E44"/>
<path d="M64.2416 155.725C64.2172 155.725 64.1924 155.717 64.1725 155.7C63.7889 155.373 63.4344 155.009 63.1186 154.618C62.6601 154.051 62.2786 153.423 61.9846 152.751C61.9609 152.697 61.9855 152.634 62.0395 152.611C62.0939 152.587 62.1565 152.612 62.1799 152.665C62.4663 153.32 62.8379 153.931 63.2843 154.484C63.5919 154.864 63.9373 155.219 64.3107 155.537C64.3556 155.576 64.3609 155.643 64.3226 155.688C64.3016 155.712 64.2716 155.725 64.2416 155.725Z" fill="#363E44"/>
<path d="M61.7085 156.823C61.6838 156.823 61.6593 156.814 61.6392 156.797C61.2556 156.47 60.9011 156.106 60.5855 155.715C60.1272 155.148 59.7456 154.52 59.4514 153.849C59.4277 153.795 59.4523 153.732 59.5063 153.708C59.5607 153.685 59.6233 153.709 59.6467 153.763C59.9333 154.418 60.3049 155.029 60.7512 155.581C61.0587 155.962 61.4039 156.316 61.7776 156.635C61.8224 156.673 61.8277 156.741 61.7894 156.785C61.7685 156.81 61.7385 156.823 61.7085 156.823Z" fill="#363E44"/>
<path d="M59.806 159.59C59.7815 159.59 59.7569 159.582 59.7368 159.565C59.353 159.237 58.9985 158.873 58.6831 158.483C58.2248 157.916 57.8432 157.288 57.549 156.616C57.5254 156.562 57.55 156.499 57.604 156.476C57.6583 156.452 57.7209 156.477 57.7444 156.531C58.031 157.185 58.4026 157.797 58.8488 158.349C59.156 158.729 59.5013 159.084 59.8752 159.403C59.92 159.441 59.9253 159.508 59.8871 159.553C59.8662 159.577 59.8361 159.59 59.806 159.59Z" fill="#363E44"/>
<path opacity="0.5" d="M97.2902 182.183C98.1693 185.456 96.2479 191.396 94.8948 194.132C91.9401 200.105 89.5746 203.629 81.6754 198.287C80.2931 191.414 79.7278 188.527 78.3896 181.758C79.3451 178.912 80.293 171.689 87.8372 171.689C92.0141 171.689 95.6165 175.95 97.2902 182.183Z" fill="#FFCD61"/>
<path d="M88.1074 201.022C86.3552 201.022 84.2534 200.16 81.6152 198.376L81.5791 198.352L81.5705 198.309C80.4251 192.614 79.8559 189.733 78.9128 184.958L78.2793 181.752L78.2883 181.725C78.4074 181.37 78.5242 180.955 78.6594 180.474C79.5944 177.149 81.1592 171.584 87.837 171.584C89.8904 171.584 91.877 172.602 93.5819 174.529C95.2377 176.401 96.5556 179.038 97.3929 182.157C98.2437 185.325 96.4622 191.204 94.9902 194.18C93.3734 197.449 91.8324 200.208 89.3405 200.866C88.9488 200.97 88.5387 201.022 88.1074 201.022ZM81.7709 198.224C84.9853 200.391 87.3739 201.166 89.2858 200.66C91.6911 200.025 93.2057 197.306 94.7989 194.085C96.2565 191.139 98.0233 185.327 97.1869 182.212C96.358 179.125 95.0562 176.517 93.4221 174.671C91.7587 172.791 89.8274 171.797 87.8369 171.797C81.3206 171.797 79.7832 177.265 78.8646 180.532C78.7376 180.984 78.6174 181.411 78.4994 181.766L79.122 184.917C80.0628 189.679 80.6314 192.558 81.7709 198.224Z" fill="#FFCD61"/>
<path d="M93.5363 180.55C93.339 180.55 93.0056 180.369 92.3972 180.038C91.5904 179.599 90.3712 178.935 88.4893 178.136C86.6108 177.338 85.1532 176.864 84.089 176.517C82.7923 176.095 82.2556 175.92 82.2939 175.588C82.3049 175.493 82.3688 175.404 82.4838 175.323C83.0713 174.913 85.2399 174.632 87.3001 175.127C90.9069 175.994 93.3474 178.985 93.7108 180.03C93.7821 180.234 93.7824 180.377 93.7118 180.467C93.6681 180.523 93.6123 180.55 93.5363 180.55ZM82.5057 175.613C82.4874 175.771 83.2602 176.023 84.155 176.314C85.2231 176.662 86.6857 177.138 88.5727 177.94C90.4642 178.743 91.6888 179.41 92.4992 179.85C93.0143 180.131 93.4607 180.373 93.5467 180.334C93.5528 180.324 93.5646 180.253 93.5051 180.088C93.1419 179.075 90.7479 176.175 87.2503 175.335C85.2473 174.853 83.1615 175.11 82.6059 175.498C82.518 175.56 82.5069 175.601 82.5057 175.613Z" fill="#FFCD61"/>
<path d="M82.5546 184.181C82.4621 184.181 82.3922 184.151 82.3383 184.09C82.2754 184.017 82.2526 183.91 82.2706 183.771C82.3625 183.06 83.6151 181.268 85.3684 180.078C88.4376 177.995 92.2929 178.204 93.3094 178.639C93.5087 178.724 93.6148 178.82 93.6339 178.933C93.6761 179.184 93.3372 179.301 92.431 179.616C91.5632 179.917 90.252 180.371 88.3937 181.225C86.5391 182.076 85.2068 182.834 84.2339 183.388C83.3387 183.897 82.8397 184.181 82.5546 184.181ZM91.2666 178.566C89.6488 178.566 87.4064 178.952 85.4881 180.254C83.7833 181.411 82.5691 183.126 82.4822 183.798C82.4684 183.905 82.4917 183.941 82.4991 183.949C82.6043 184.07 83.3103 183.668 84.1284 183.202C85.1046 182.647 86.4416 181.886 88.3047 181.031C90.1724 180.173 91.4894 179.716 92.361 179.414C92.9152 179.222 93.3939 179.056 93.4239 178.965C93.4209 178.954 93.3765 178.898 93.2138 178.83C92.8608 178.683 92.1585 178.566 91.2666 178.566Z" fill="#FFCD61"/>
<path d="M111.295 215.024C112.858 214.579 114.291 215.237 114.359 214.948C114.409 214.731 113.546 214.361 112.706 214.263C111.321 214.101 109.214 215.471 108.539 214.625C107.878 213.796 109.455 212.123 111.45 211.416C113.132 210.819 114.755 211.704 114.841 211.345C114.902 211.093 114.217 210.699 112.653 210.071C111.347 209.547 108.469 209.183 108.813 207.734C109.102 206.515 112.129 206.63 114.899 207.25C116.735 207.662 118.544 208.293 119.603 208.614C119.42 208.056 119.101 207.209 118.561 206.253C117.598 204.549 117.03 204.063 117.481 203.301C117.947 202.516 119.348 203.209 120.683 204.381C122.274 205.78 122.855 207.411 123.361 208.261C126.934 206.849 134.598 204.023 138.171 202.611C137.897 202.416 136.135 200.146 134.916 198.598L137.785 179.609C140.984 182.592 159.48 201.391 158.359 206.221C157.134 211.501 131.412 220.419 124.291 221.954C123.404 222.476 121.997 223.121 120.295 223.048C118.355 222.964 117.891 222.028 115.857 221.621C112.426 220.934 110.346 223.017 109.702 221.958C109.259 221.231 110.419 219.964 111.777 219.084C113.17 218.181 114.452 218.184 114.433 217.912C114.411 217.615 113.109 217.781 111.47 217.838C110.709 217.865 108.664 219.225 107.913 218.321C107.315 217.6 109.087 215.654 111.295 215.024Z" fill="white"/>
<path d="M122.864 210.259C122.844 210.259 122.823 210.254 122.804 210.241C121.768 209.534 120.316 208.983 119.543 208.717C119.487 208.698 119.457 208.638 119.477 208.582C119.496 208.526 119.555 208.496 119.612 208.516C120.395 208.785 121.867 209.344 122.925 210.065C122.973 210.098 122.986 210.164 122.953 210.213C122.932 210.243 122.898 210.259 122.864 210.259Z" fill="#363E44"/>
<path opacity="0.5" d="M133.195 178.725C136.082 176.417 141.161 175.695 144.169 176.367C150.737 177.835 155.951 184.511 153.082 196.33C147.123 198.46 144.134 200.297 138.175 202.427C136.8 202.049 130.161 198.185 128.896 191.431C128.716 190.469 127.698 183.119 133.195 178.725Z" fill="#FFCD61"/>
<path d="M138.179 202.54L138.147 202.531C137.363 202.316 135.32 201.172 133.421 199.399C131.684 197.778 129.471 195.082 128.791 191.451C128.729 191.12 127.335 183.273 133.128 178.643C136.058 176.301 141.152 175.585 144.191 176.264C147.393 176.98 150.102 178.894 151.819 181.655C154.141 185.388 154.614 190.472 153.185 196.356L153.172 196.412L153.118 196.432C150.142 197.495 147.869 198.503 145.671 199.477C143.47 200.453 141.194 201.462 138.211 202.528L138.179 202.54ZM141.711 176.231C138.88 176.231 135.453 177.057 133.261 178.81C127.567 183.361 128.94 191.085 129.001 191.412C130.216 197.901 136.58 201.85 138.171 202.316C141.131 201.257 143.395 200.253 145.585 199.282C147.773 198.312 150.035 197.309 152.992 196.25C154.39 190.446 153.922 185.44 151.638 181.767C149.951 179.056 147.29 177.175 144.145 176.472C143.43 176.313 142.6 176.231 141.711 176.231Z" fill="#FFCD61"/>
<path d="M147.321 183.745C147.123 183.745 146.79 183.564 146.181 183.233C145.375 182.794 144.155 182.131 142.274 181.331C140.395 180.533 138.938 180.059 137.873 179.712C136.576 179.29 136.04 179.115 136.078 178.783C136.089 178.688 136.153 178.599 136.268 178.519C136.856 178.108 139.024 177.827 141.084 178.322C144.691 179.189 147.132 182.181 147.495 183.225C147.566 183.43 147.567 183.573 147.496 183.663C147.452 183.718 147.397 183.745 147.321 183.745ZM136.29 178.808C136.272 178.966 137.044 179.218 137.939 179.509C139.007 179.857 140.47 180.333 142.357 181.135C144.248 181.938 145.473 182.605 146.283 183.045C146.799 183.326 147.245 183.568 147.331 183.529C147.337 183.519 147.349 183.449 147.289 183.283C146.926 182.271 144.532 179.37 141.035 178.53C139.032 178.048 136.946 178.305 136.39 178.693C136.302 178.755 136.291 178.796 136.29 178.808Z" fill="#FFCD61"/>
<path d="M143.49 190.966C143.251 190.966 143.004 190.569 142.449 189.678C141.842 188.701 140.923 187.225 139.367 185.191C137.814 183.161 136.52 181.743 135.575 180.708C134.434 179.459 133.962 178.942 134.196 178.622C134.262 178.531 134.38 178.477 134.547 178.462C135.437 178.378 137.959 179.409 139.891 181.216C143.276 184.381 144.084 189.132 143.835 190.49C143.788 190.747 143.705 190.896 143.582 190.947C143.551 190.959 143.521 190.966 143.49 190.966ZM134.667 178.669C134.632 178.669 134.598 178.671 134.567 178.674C134.466 178.683 134.396 178.709 134.368 178.747C134.237 178.927 134.864 179.613 135.732 180.564C136.68 181.602 137.978 183.024 139.537 185.061C141.099 187.103 142.021 188.585 142.63 189.565C143.023 190.196 143.397 190.794 143.501 190.75C143.529 190.738 143.587 190.662 143.626 190.451C143.868 189.126 143.07 184.48 139.746 181.372C137.926 179.67 135.596 178.669 134.667 178.669Z" fill="#FFCD61"/>
<path d="M131.644 165.738C131.731 161.702 128.531 158.36 124.495 158.272C120.459 158.184 117.116 161.385 117.029 165.421C116.941 169.457 120.142 172.8 124.178 172.887C128.213 172.975 131.556 169.774 131.644 165.738Z" fill="#84524D"/>
<path d="M125.3 173.657C121.211 173.657 117.885 170.331 117.885 166.242C117.885 162.153 121.211 158.826 125.3 158.826C129.389 158.826 132.716 162.153 132.716 166.242C132.716 170.331 129.389 173.657 125.3 173.657ZM125.3 159.04C121.329 159.04 118.098 162.27 118.098 166.242C118.098 170.213 121.329 173.444 125.3 173.444C129.272 173.444 132.503 170.213 132.503 166.242C132.503 162.27 129.272 159.04 125.3 159.04Z" fill="#84524D"/>
<path d="M113.545 179.641C116.453 179.74 118.891 177.461 118.989 174.553L119.467 160.415L108.934 160.059L108.456 174.197C108.358 177.106 110.636 179.543 113.545 179.641Z" fill="white"/>
<path d="M113.293 143.886C115.739 142.547 118.135 142.947 119.625 143.713C123.861 145.89 125.974 151.712 124.447 158.588C117.531 158.133 110.615 157.678 103.699 157.223C103.095 152.743 103.053 148.155 105.581 145.475C108.846 142.012 112.828 143.866 113.293 143.886Z" fill="#84524D"/>
<path d="M104.941 156.427C104.577 162.142 108.224 167.027 113.088 167.337C117.953 167.648 122.192 163.266 122.556 157.55C122.921 151.835 119.235 147.4 114.371 147.089C109.506 146.779 105.306 150.711 104.941 156.427Z" fill="white"/>
<path d="M121.206 155.668C120.004 157.247 120.119 159.357 121.463 160.38C122.807 161.403 124.871 160.952 126.073 159.373C127.275 157.793 127.16 155.684 125.816 154.661C124.472 153.638 122.408 154.089 121.206 155.668Z" fill="white"/>
<path d="M106.63 154.739C107.621 156.458 107.239 158.536 105.776 159.38C104.313 160.223 102.323 159.514 101.332 157.795C100.34 156.076 100.722 153.998 102.185 153.154C103.648 152.311 105.638 153.02 106.63 154.739Z" fill="white"/>
<path d="M113.579 167.461C113.414 167.461 113.249 167.455 113.083 167.445C111.23 167.327 109.496 166.553 108.068 165.208C108.025 165.167 108.023 165.1 108.063 165.057C108.104 165.014 108.171 165.012 108.214 165.052C109.605 166.363 111.294 167.117 113.097 167.232C114.937 167.349 116.735 166.794 118.302 165.627C118.35 165.592 118.416 165.602 118.452 165.649C118.487 165.697 118.477 165.763 118.43 165.798C116.963 166.891 115.295 167.461 113.579 167.461Z" fill="#363E44"/>
<path d="M105.083 159.314C105.032 159.314 104.986 159.277 104.978 159.225C104.866 158.564 104.81 157.884 104.811 157.204C104.811 157.145 104.858 157.098 104.917 157.098C104.976 157.098 105.024 157.145 105.024 157.204C105.023 157.873 105.079 158.54 105.188 159.189C105.198 159.247 105.159 159.302 105.101 159.312C105.095 159.313 105.089 159.314 105.083 159.314Z" fill="#363E44"/>
<path d="M122.078 160.35C122.068 160.35 122.058 160.348 122.048 160.345C121.991 160.329 121.959 160.269 121.976 160.213C122.193 159.485 122.342 158.727 122.417 157.96C122.423 157.901 122.474 157.858 122.533 157.864C122.592 157.87 122.635 157.922 122.629 157.98C122.553 158.762 122.402 159.533 122.18 160.274C122.167 160.32 122.124 160.35 122.078 160.35Z" fill="#363E44"/>
<path d="M113.096 160.341C113.072 160.341 113.049 160.334 113.03 160.318C112.723 160.076 112.567 159.825 112.565 159.572C112.564 159.349 112.677 159.196 112.796 159.034C112.902 158.891 113.012 158.742 113.061 158.52C113.106 158.318 113.09 158.099 113.013 157.871C112.995 157.815 113.025 157.755 113.081 157.736C113.137 157.717 113.197 157.748 113.216 157.803C113.304 158.069 113.322 158.325 113.269 158.566C113.21 158.832 113.081 159.007 112.968 159.161C112.862 159.305 112.778 159.418 112.779 159.57C112.78 159.756 112.909 159.951 113.162 160.151C113.208 160.187 113.216 160.254 113.179 160.301C113.158 160.327 113.127 160.341 113.096 160.341Z" fill="#363E44"/>
<path d="M114.474 162.369C114.386 162.369 114.308 162.364 114.243 162.358C114.185 162.353 114.142 162.301 114.147 162.243C114.152 162.184 114.203 162.141 114.263 162.146C114.558 162.173 115.137 162.165 115.702 161.81C115.998 161.624 116.251 161.365 116.435 161.061C116.466 161.011 116.531 160.995 116.582 161.025C116.632 161.056 116.648 161.121 116.618 161.172C116.417 161.504 116.139 161.787 115.816 161.99C115.322 162.3 114.82 162.369 114.474 162.369Z" fill="#363E44"/>
<path d="M110.1 159.744C109.101 159.744 107.98 159.429 106.927 158.852C105.825 158.247 104.927 157.426 104.397 156.538C103.857 155.633 103.763 154.764 104.131 154.093C104.881 152.726 107.355 152.636 109.647 153.893C111.938 155.15 113.192 157.285 112.443 158.652C112.074 159.324 111.291 159.711 110.237 159.742C110.192 159.743 110.146 159.744 110.1 159.744ZM106.467 153.212C105.476 153.212 104.677 153.542 104.318 154.195C103.988 154.798 104.081 155.591 104.581 156.429C105.091 157.284 105.961 158.078 107.03 158.665C108.098 159.251 109.232 159.558 110.231 159.529C111.206 159.5 111.925 159.152 112.256 158.55C112.949 157.286 111.733 155.281 109.544 154.08C108.487 153.5 107.394 153.212 106.467 153.212Z" fill="#40484C"/>
<path d="M117.43 160.135C117.067 160.135 116.718 160.102 116.389 160.036C115.356 159.828 114.649 159.315 114.398 158.591C114.148 157.867 114.388 157.026 115.073 156.225C115.744 155.439 116.768 154.78 117.955 154.37C120.425 153.517 122.849 154.021 123.359 155.495C123.609 156.219 123.37 157.06 122.685 157.861C122.013 158.647 120.989 159.306 119.802 159.716C119 159.993 118.186 160.135 117.43 160.135ZM120.335 154.164C119.617 154.164 118.825 154.295 118.025 154.572C116.873 154.97 115.882 155.606 115.235 156.363C114.601 157.105 114.376 157.871 114.6 158.521C114.824 159.171 115.475 159.635 116.431 159.827C117.408 160.023 118.58 159.912 119.732 159.514C120.884 159.116 121.875 158.48 122.522 157.723C123.156 156.981 123.382 156.215 123.157 155.565C122.846 154.664 121.734 154.164 120.335 154.164Z" fill="#40484C"/>
<path d="M114.314 157.958C114.311 157.958 114.307 157.958 114.304 157.957L112.55 157.809C112.491 157.804 112.448 157.752 112.453 157.693C112.458 157.635 112.508 157.591 112.568 157.596L114.322 157.745C114.381 157.75 114.425 157.801 114.42 157.86C114.415 157.916 114.368 157.958 114.314 157.958Z" fill="#FFCD61"/>
<path d="M120.185 155.914C120.184 155.914 120.185 155.914 120.184 155.915L120.162 155.91C120.146 155.957 120.108 156.015 120.058 156.009C119.992 156.076 119.954 156.189 119.907 156.262C119.822 156.394 119.624 156.254 119.709 156.123C119.766 156.034 119.423 156.184 119.275 156.227C118.801 156.365 118.324 156.481 117.841 156.583C117.617 156.63 117.391 156.679 117.165 156.718C116.983 156.75 116.381 156.885 116.337 156.854C115.693 157.351 115.319 157.841 115.319 157.841C115.319 157.841 116.145 158.293 117.248 158.446C117.252 158.431 117.257 158.417 117.261 158.402C117.299 158.255 119.906 157.868 119.965 157.987C121.105 157.389 121.81 156.469 121.81 156.469C121.81 156.469 121.132 156.097 120.185 155.914Z" fill="#FFCD61"/>
<path d="M118.301 155.904C117.514 156.07 116.844 156.464 116.339 156.853C116.357 157.337 116.546 157.816 116.912 158.188C117.006 158.284 117.108 158.368 117.215 158.441C117.712 158.513 118.267 158.525 118.829 158.406C119.236 158.32 119.61 158.172 119.948 157.996C120.41 157.39 120.483 156.581 120.162 155.91C119.606 155.805 118.959 155.765 118.301 155.904Z" fill="#363E44"/>
<path d="M107.641 155.033C107.641 155.033 107.641 155.034 107.641 155.034L107.665 155.033C107.673 155.082 107.7 155.146 107.75 155.148C107.805 155.225 107.822 155.343 107.857 155.423C107.918 155.567 108.137 155.462 108.076 155.319C108.034 155.222 108.347 155.427 108.486 155.494C108.93 155.709 109.381 155.903 109.84 156.084C110.053 156.169 110.267 156.255 110.484 156.331C110.658 156.393 111.229 156.627 111.277 156.604C111.829 157.201 112.116 157.747 112.116 157.747C112.116 157.747 111.226 158.055 110.113 158.021C110.111 158.005 110.109 157.991 110.107 157.975C110.094 157.824 107.589 157.006 107.511 157.114C106.487 156.333 105.946 155.309 105.946 155.309C105.946 155.309 106.676 155.055 107.641 155.033Z" fill="#FFCD61"/>
<path d="M109.501 155.338C110.249 155.633 110.843 156.133 111.276 156.602C111.177 157.076 110.911 157.516 110.488 157.822C110.379 157.901 110.264 157.967 110.147 158.021C109.645 158.009 109.096 157.927 108.561 157.716C108.174 157.563 107.83 157.354 107.527 157.125C107.172 156.449 107.236 155.64 107.664 155.032C108.23 155.022 108.875 155.09 109.501 155.338Z" fill="#363E44"/>
<path d="M101.558 174.743C109.629 172.951 117.901 173.031 126.328 174.577L125.753 190.916H96.7607L101.558 174.743Z" fill="white"/>
<path d="M162.388 156.591L178.022 174.223L185.662 167.053L169.205 150.479L162.388 156.591Z" fill="#2D353A"/>
<path d="M173.403 162.702L196.359 171.638L184.033 151.521L162.74 142.604L173.403 162.702Z" fill="#40484C"/>
<path d="M185.542 179.61C185.515 179.61 185.488 179.599 185.467 179.579C185.425 179.537 185.425 179.469 185.467 179.428L192.804 172.074L188.806 165.805C188.774 165.755 188.789 165.689 188.838 165.657C188.888 165.626 188.954 165.64 188.985 165.69L193.03 172.031C193.057 172.073 193.051 172.128 193.016 172.164L185.618 179.578C185.597 179.599 185.569 179.61 185.542 179.61Z" fill="#E8606B"/>
<path d="M179.079 182.594L187.252 177.834L182.516 185.868L179.079 182.594Z" fill="#E8606B"/>
<path d="M68.296 281.109H93.9756C92.3101 281.109 90.9599 278.47 90.9599 275.213C90.9599 271.956 92.3101 269.316 93.9756 269.316H68.296C66.6305 269.316 65.2803 271.956 65.2803 275.213C65.2803 278.469 66.6305 281.109 68.296 281.109Z" fill="#F7F1EB"/>
<path d="M26.4607 281.348H78.8396C75.4423 281.348 72.6883 278.602 72.6883 275.214C72.6883 271.826 75.5259 269.17 78.9231 269.17L26.4607 269.08C23.0635 269.08 20.3096 271.826 20.3096 275.214C20.3096 278.602 23.0635 281.348 26.4607 281.348Z" fill="#D87355"/>
<path d="M94.5097 281.217H78.8399C75.3308 281.217 72.582 278.58 72.582 275.214C72.582 271.848 75.3308 269.211 78.8399 269.211H94.5097C94.5686 269.211 94.6163 269.259 94.6163 269.318C94.6163 269.376 94.5686 269.424 94.5097 269.424H78.8399C75.4504 269.424 72.7953 271.967 72.7953 275.214C72.7953 278.461 75.4504 281.004 78.8399 281.004H94.5097C94.5686 281.004 94.6163 281.052 94.6163 281.111C94.6163 281.169 94.5686 281.217 94.5097 281.217Z" fill="#84524D"/>
<path d="M91.9955 279.598H78.2726C78.2137 279.598 78.166 279.55 78.166 279.491C78.166 279.433 78.2137 279.385 78.2726 279.385H91.9954C92.0544 279.385 92.102 279.433 92.102 279.491C92.102 279.55 92.0545 279.598 91.9955 279.598Z" fill="#E6D0BE"/>
<path d="M91.2805 277.223H77.5578C77.4988 277.223 77.4512 277.175 77.4512 277.116C77.4512 277.058 77.4988 277.01 77.5578 277.01H91.2804C91.3394 277.01 91.3871 277.058 91.3871 277.116C91.3871 277.175 91.3394 277.223 91.2805 277.223Z" fill="#E6D0BE"/>
<path d="M91.0432 275.799H74.9396C74.8807 275.799 74.833 275.751 74.833 275.693C74.833 275.634 74.8807 275.586 74.9396 275.586H91.0432C91.1021 275.586 91.1498 275.634 91.1498 275.693C91.1498 275.751 91.1021 275.799 91.0432 275.799Z" fill="#E6D0BE"/>
<path d="M91.2805 272.713H76.3674C76.3084 272.713 76.2607 272.665 76.2607 272.607C76.2607 272.548 76.3084 272.5 76.3674 272.5H91.2804C91.3394 272.5 91.387 272.548 91.387 272.607C91.387 272.665 91.3394 272.713 91.2805 272.713Z" fill="#E6D0BE"/>
<path d="M25.0108 278.742H39.2002V271.91H25.0108V278.742Z" fill="#B77250"/>
<path d="M41.6765 278.742H67.0186V271.91H41.6765V278.742Z" fill="#B77250"/>
<path d="M68.296 288.892H93.9756C92.3101 288.892 90.9599 287.202 90.9599 285.117C90.9599 283.032 92.3101 281.342 93.9756 281.342H68.296C66.6305 281.342 65.2803 283.032 65.2803 285.117C65.2803 287.202 66.6305 288.892 68.296 288.892Z" fill="#F7F1EB"/>
<path d="M26.4607 289.043H78.8396C75.4423 289.043 73.8787 287.285 73.8787 285.116C73.8787 282.948 75.4423 281.189 78.8396 281.189H26.4607C23.0636 281.189 21.5 282.948 21.5 285.116C21.5 287.285 23.0636 289.043 26.4607 289.043Z" fill="#EFBC73"/>
<path d="M94.5097 288.999H78.8399C75.6668 288.999 73.7725 287.548 73.7725 285.118C73.7725 282.687 75.6669 281.236 78.8399 281.236H94.5097C94.5687 281.236 94.6163 281.284 94.6163 281.343C94.6163 281.402 94.5687 281.45 94.5097 281.45H78.8399C75.755 281.45 73.9857 282.787 73.9857 285.118C73.9857 287.449 75.7551 288.786 78.8399 288.786H94.5097C94.5687 288.786 94.6163 288.834 94.6163 288.893C94.6163 288.952 94.5687 288.999 94.5097 288.999Z" fill="#84524D"/>
<path d="M91.9945 287.961H78.2717C78.2127 287.961 78.165 287.914 78.165 287.855C78.165 287.796 78.2127 287.748 78.2717 287.748H91.9944C92.0534 287.748 92.101 287.796 92.101 287.855C92.101 287.914 92.0535 287.961 91.9945 287.961Z" fill="#E6D0BE"/>
<path d="M91.2805 286.442H77.5578C77.4988 286.442 77.4512 286.394 77.4512 286.335C77.4512 286.276 77.4988 286.229 77.5578 286.229H91.2804C91.3394 286.229 91.3871 286.276 91.3871 286.335C91.3871 286.394 91.3394 286.442 91.2805 286.442Z" fill="#E6D0BE"/>
<path d="M91.0422 285.53H74.9387C74.8797 285.53 74.832 285.482 74.832 285.423C74.832 285.364 74.8797 285.316 74.9387 285.316H91.0422C91.1012 285.316 91.1488 285.364 91.1488 285.423C91.1488 285.482 91.1012 285.53 91.0422 285.53Z" fill="#E6D0BE"/>
<path d="M91.2805 283.553H76.3674C76.3084 283.553 76.2607 283.505 76.2607 283.446C76.2607 283.388 76.3084 283.34 76.3674 283.34H91.2804C91.3394 283.34 91.387 283.388 91.387 283.446C91.387 283.505 91.3394 283.553 91.2805 283.553Z" fill="#E6D0BE"/>
<path d="M49.5626 296.451H25.5098C27.0698 296.451 28.3344 298.924 28.3344 301.974C28.3344 305.024 27.0697 307.497 25.5098 307.497H49.5626C51.1226 307.497 52.3873 305.024 52.3873 301.974C52.3873 298.924 51.1226 296.451 49.5626 296.451Z" fill="#F7F1EB"/>
<path d="M88.747 296.23H39.6865C42.8685 296.23 45.4481 298.803 45.4481 301.976C45.4481 305.149 42.8686 307.721 39.6865 307.721H88.7471C91.929 307.721 94.5086 305.149 94.5086 301.976C94.5086 298.803 91.929 296.23 88.747 296.23Z" fill="#E64A67"/>
<path d="M39.687 307.605H25.0099C24.951 307.605 24.9033 307.557 24.9033 307.498C24.9033 307.439 24.951 307.392 25.0099 307.392H39.687C42.858 307.392 45.3419 305.012 45.3419 301.975C45.3419 298.938 42.858 296.559 39.687 296.559H25.0099C24.951 296.559 24.9033 296.511 24.9033 296.452C24.9033 296.393 24.951 296.346 25.0099 296.346H39.687C42.9775 296.346 45.5552 298.819 45.5552 301.975C45.5552 305.132 42.9776 307.605 39.687 307.605Z" fill="#84524D"/>
<path d="M40.2188 298.077H27.3654C27.3065 298.077 27.2588 298.029 27.2588 297.97C27.2588 297.911 27.3065 297.863 27.3654 297.863H40.2188C40.2778 297.863 40.3255 297.911 40.3255 297.97C40.3255 298.029 40.2777 298.077 40.2188 298.077Z" fill="#E6D0BE"/>
<path d="M40.8868 300.299H28.0334C27.9744 300.299 27.9268 300.251 27.9268 300.193C27.9268 300.134 27.9744 300.086 28.0334 300.086H40.8868C40.9458 300.086 40.9934 300.134 40.9934 300.193C40.9934 300.251 40.9458 300.299 40.8868 300.299Z" fill="#E6D0BE"/>
<path d="M43.3403 301.633H28.257C28.1981 301.633 28.1504 301.585 28.1504 301.527C28.1504 301.468 28.1981 301.42 28.257 301.42H43.3403C43.3993 301.42 43.447 301.468 43.447 301.527C43.447 301.585 43.3993 301.633 43.3403 301.633Z" fill="#E6D0BE"/>
<path d="M42.0018 304.526H28.0334C27.9744 304.526 27.9268 304.478 27.9268 304.419C27.9268 304.36 27.9744 304.312 28.0334 304.312H42.0018C42.0608 304.312 42.1084 304.36 42.1084 304.419C42.1084 304.478 42.0608 304.526 42.0018 304.526Z" fill="#E6D0BE"/>
<path d="M85.3451 298.668H72.0547V305.067H85.3451V298.668Z" fill="white"/>
<path d="M49.5626 289.166H25.5098C27.0698 289.166 28.3344 290.749 28.3344 292.702C28.3344 294.655 27.0697 296.238 25.5098 296.238H49.5626C51.1226 296.238 52.3873 294.655 52.3873 292.702C52.3873 290.749 51.1226 289.166 49.5626 289.166Z" fill="#F7F1EB"/>
<path d="M88.747 289.023H39.6865C42.8685 289.023 44.3331 290.67 44.3331 292.702C44.3331 294.733 42.8686 296.38 39.6865 296.38H88.7471C91.929 296.38 93.3935 294.733 93.3935 292.702C93.3935 290.67 91.929 289.023 88.747 289.023Z" fill="#F1B051"/>
<path d="M39.687 296.343H25.0099C24.951 296.343 24.9033 296.296 24.9033 296.237C24.9033 296.178 24.951 296.13 25.0099 296.13H39.687C42.5721 296.13 44.2269 294.88 44.2269 292.701C44.2269 290.522 42.5721 289.272 39.687 289.272H25.0099C24.951 289.272 24.9033 289.224 24.9033 289.165C24.9033 289.106 24.951 289.059 25.0099 289.059H39.687C42.6633 289.059 44.4401 290.42 44.4401 292.701C44.4401 294.982 42.6633 296.343 39.687 296.343Z" fill="#84524D"/>
<path d="M40.2188 290.243H27.3654C27.3065 290.243 27.2588 290.195 27.2588 290.136C27.2588 290.077 27.3065 290.029 27.3654 290.029H40.2188C40.2778 290.029 40.3255 290.077 40.3255 290.136C40.3255 290.195 40.2777 290.243 40.2188 290.243Z" fill="#E6D0BE"/>
<path d="M40.8868 291.668H28.0334C27.9744 291.668 27.9268 291.621 27.9268 291.562C27.9268 291.503 27.9744 291.455 28.0334 291.455H40.8868C40.9458 291.455 40.9934 291.503 40.9934 291.562C40.9934 291.621 40.9458 291.668 40.8868 291.668Z" fill="#E6D0BE"/>
<path d="M43.3403 292.522H28.257C28.1981 292.522 28.1504 292.474 28.1504 292.415C28.1504 292.356 28.1981 292.309 28.257 292.309H43.3403C43.3993 292.309 43.447 292.356 43.447 292.415C43.447 292.474 43.3993 292.522 43.3403 292.522Z" fill="#E6D0BE"/>
<path d="M42.0018 294.371H28.0334C27.9744 294.371 27.9268 294.324 27.9268 294.265C27.9268 294.206 27.9744 294.158 28.0334 294.158H42.0018C42.0608 294.158 42.1084 294.206 42.1084 294.265C42.1084 294.324 42.0608 294.371 42.0018 294.371Z" fill="#E6D0BE"/>
<path d="M43.3552 231.346C41.5009 231.346 40.0738 230.743 39.7917 229.688C39.7765 229.631 39.8103 229.572 39.8672 229.557C39.9235 229.542 39.9826 229.576 39.9977 229.633C40.3732 231.038 43.0338 231.552 45.9287 230.779C47.343 230.401 48.5982 229.774 49.4633 229.014C50.3085 228.271 50.6757 227.495 50.4976 226.827C50.4823 226.771 50.5161 226.712 50.5731 226.697C50.6295 226.682 50.6883 226.716 50.7036 226.772C50.9039 227.522 50.5135 228.375 49.604 229.174C48.7148 229.956 47.429 230.599 45.9836 230.985C45.066 231.23 44.1692 231.346 43.3552 231.346Z" fill="#E64A67"/>
<path d="M41.3531 232.931C40.6464 232.931 40.0725 232.723 39.7272 232.288C39.6906 232.242 39.6983 232.174 39.7445 232.138C39.7905 232.101 39.8575 232.109 39.8942 232.155C40.7981 233.295 43.4678 232.689 45.8457 230.804C48.2237 228.919 49.4233 226.458 48.5196 225.317C48.483 225.271 48.4907 225.204 48.5369 225.168C48.5831 225.131 48.65 225.139 48.6866 225.185C49.6633 226.417 48.4484 229.013 45.9782 230.971C44.3816 232.237 42.6451 232.931 41.3531 232.931Z" fill="#E64A67"/>
<path d="M45.5031 231.111C45.2096 231.111 44.8848 230.995 44.5537 230.766C44.0637 230.427 43.613 229.879 43.2845 229.223C43.0463 228.747 42.89 228.247 42.8328 227.777C42.8257 227.719 42.8673 227.666 42.9257 227.659C42.9845 227.651 43.0373 227.693 43.0444 227.752C43.0988 228.198 43.2477 228.673 43.4753 229.128C43.788 229.753 44.214 230.272 44.6749 230.59C45.117 230.896 45.5338 230.977 45.8493 230.819C46.1647 230.661 46.3496 230.279 46.3701 229.742C46.3914 229.182 46.2309 228.53 45.9182 227.905C45.6805 227.43 45.3746 227.012 45.0336 226.697C44.9904 226.657 44.9878 226.589 45.0279 226.546C45.0676 226.503 45.1352 226.5 45.1785 226.54C45.5381 226.873 45.8599 227.312 46.109 227.81C46.4375 228.466 46.606 229.155 46.5832 229.75C46.5597 230.368 46.3329 230.815 45.9448 231.01C45.8091 231.078 45.6606 231.111 45.5031 231.111Z" fill="#E64A67"/>
<path d="M40.1418 231.843C40.2218 232.142 40.0438 232.45 39.744 232.53C39.4443 232.611 39.1364 232.432 39.0563 232.133C38.9762 231.833 39.1543 231.525 39.454 231.445C39.7537 231.365 40.0616 231.543 40.1418 231.843Z" fill="#E64A67"/>
<path d="M40.3781 229.622C40.4582 229.922 40.2801 230.23 39.9804 230.31C39.6806 230.39 39.3727 230.212 39.2926 229.912C39.2125 229.612 39.3906 229.304 39.6903 229.224C39.9901 229.144 40.298 229.322 40.3781 229.622Z" fill="#E64A67"/>
<path d="M43.4367 227.505C43.5167 227.805 43.3387 228.112 43.039 228.193C42.7392 228.273 42.4313 228.095 42.3512 227.795C42.2711 227.495 42.4492 227.187 42.7489 227.107C43.0487 227.027 43.3566 227.205 43.4367 227.505Z" fill="#E64A67"/>
<path d="M45.6408 226.503C45.7209 226.803 45.5428 227.111 45.2431 227.191C44.9433 227.271 44.6354 227.093 44.5553 226.793C44.4752 226.493 44.6533 226.185 44.953 226.105C45.2528 226.025 45.5607 226.203 45.6408 226.503Z" fill="#E64A67"/>
<path d="M49.0207 224.999C49.1007 225.299 48.9227 225.607 48.6229 225.687C48.3232 225.767 48.0153 225.589 47.9352 225.289C47.8551 224.989 48.0332 224.681 48.3329 224.601C48.6326 224.521 48.9406 224.699 49.0207 224.999Z" fill="#E64A67"/>
<path d="M51.0851 226.448C51.1652 226.748 50.9871 227.056 50.6874 227.136C50.3877 227.216 50.0797 227.038 49.9996 226.738C49.9196 226.438 50.0976 226.131 50.3974 226.05C50.6971 225.97 51.0049 226.148 51.0851 226.448Z" fill="#E64A67"/>
<path d="M51.7945 250.216C51.7427 250.216 51.6973 250.178 51.6892 250.126C51.0826 246.205 50.1399 242.314 48.8873 238.56C48.0255 235.977 47.0019 233.416 45.8451 230.947C45.8201 230.894 45.8429 230.83 45.8963 230.805C45.95 230.78 46.0132 230.803 46.0381 230.856C47.1985 233.333 48.2252 235.902 49.0894 238.492C50.3459 242.257 51.2915 246.16 51.8999 250.093C51.9089 250.151 51.869 250.206 51.8109 250.215C51.8053 250.215 51.7999 250.216 51.7945 250.216Z" fill="#E64A67"/>
<path d="M52.8826 224.225C52.5233 224.225 52.1556 224.21 51.7819 224.178C48.1799 223.87 45.3755 222.144 45.5305 220.33C45.5356 220.271 45.5873 220.228 45.6458 220.233C45.7046 220.238 45.748 220.289 45.7429 220.348C45.598 222.045 48.3151 223.668 51.8 223.966C55.2859 224.264 58.2383 223.126 58.3833 221.429C58.3882 221.37 58.4409 221.326 58.4986 221.332C58.5573 221.337 58.6007 221.388 58.5957 221.447C58.4568 223.073 55.9869 224.225 52.8826 224.225Z" fill="#E64A67"/>
<path d="M48.0694 224.814C47.7159 224.814 47.375 224.793 47.0509 224.75C45.6469 224.565 44.7166 223.995 44.4314 223.146C44.4126 223.09 44.4427 223.029 44.4985 223.011C44.5543 222.992 44.6149 223.022 44.6336 223.078C44.8916 223.846 45.7601 224.365 47.0789 224.539C48.424 224.716 50.0679 224.511 51.7065 223.961C55.0644 222.833 57.3553 220.603 56.8132 218.988C56.7944 218.932 56.8246 218.872 56.8803 218.853C56.9362 218.834 56.9967 218.865 57.0154 218.92C57.595 220.646 55.2438 222.998 51.7745 224.163C50.4984 224.591 49.2173 224.814 48.0694 224.814Z" fill="#E64A67"/>
<path d="M51.6031 224.201C50.6494 224.201 49.7387 222.897 49.5381 221.202C49.4655 220.589 49.4919 219.982 49.6145 219.446C49.6275 219.389 49.6852 219.353 49.7421 219.366C49.7996 219.379 49.8354 219.437 49.8223 219.494C49.7052 220.006 49.6802 220.588 49.7499 221.177C49.9452 222.828 50.8204 224.086 51.7005 223.982C52.1149 223.933 52.4735 223.584 52.7105 222.998C52.9563 222.391 53.0387 221.61 52.9429 220.799C52.8699 220.183 52.6995 219.603 52.4499 219.121C52.4228 219.068 52.4432 219.004 52.4956 218.977C52.548 218.95 52.6123 218.97 52.6393 219.022C52.9006 219.527 53.0788 220.133 53.1547 220.774C53.2547 221.62 53.1672 222.438 52.9083 223.078C52.6408 223.739 52.2208 224.135 51.7256 224.194C51.6848 224.199 51.6438 224.201 51.6031 224.201Z" fill="#E64A67"/>
<path d="M45.0439 222.829C45.0131 223.189 44.6965 223.456 44.3366 223.425C43.9768 223.394 43.71 223.077 43.7407 222.717C43.7715 222.358 44.0881 222.091 44.4479 222.122C44.8078 222.152 45.0746 222.469 45.0439 222.829Z" fill="#E64A67"/>
<path d="M46.1806 220.491C46.1498 220.851 45.8332 221.118 45.4733 221.087C45.1135 221.056 44.8467 220.739 44.8774 220.38C44.9082 220.02 45.2248 219.753 45.5847 219.784C45.9446 219.814 46.2114 220.131 46.1806 220.491Z" fill="#E64A67"/>
<path d="M50.367 219.384C50.3362 219.743 50.0196 220.01 49.6598 219.979C49.2999 219.949 49.0331 219.632 49.0639 219.272C49.0947 218.912 49.4113 218.646 49.7712 218.676C50.131 218.707 50.3978 219.024 50.367 219.384Z" fill="#E64A67"/>
<path d="M53.1747 219.155C53.1439 219.515 52.8274 219.782 52.4675 219.751C52.1076 219.72 51.8408 219.404 51.8715 219.044C51.9024 218.684 52.2189 218.417 52.5788 218.448C52.9388 218.478 53.2056 218.795 53.1747 219.155Z" fill="#E64A67"/>
<path d="M57.4716 218.845C57.4408 219.204 57.1242 219.471 56.7644 219.44C56.4045 219.41 56.1377 219.093 56.1684 218.733C56.1992 218.373 56.5158 218.106 56.8757 218.137C57.2357 218.168 57.5024 218.485 57.4716 218.845Z" fill="#E64A67"/>
<path d="M59.1581 221.247C59.1274 221.607 58.8108 221.873 58.4509 221.843C58.091 221.812 57.8242 221.495 57.8549 221.135C57.8858 220.776 58.2023 220.509 58.5622 220.54C58.9222 220.57 59.189 220.887 59.1581 221.247Z" fill="#E64A67"/>
<path d="M50.5862 247.542C50.5794 247.542 50.5726 247.541 50.5657 247.54C50.5079 247.529 50.4702 247.473 50.4815 247.415C51.3666 242.882 51.8722 238.248 51.9842 233.641C52.0614 230.471 51.9527 227.262 51.6615 224.101C51.6561 224.042 51.6993 223.99 51.7579 223.985C51.8179 223.979 51.8685 224.023 51.8739 224.081C52.1659 227.25 52.2748 230.468 52.1975 233.646C52.0851 238.265 51.5782 242.911 50.6908 247.456C50.6809 247.507 50.6362 247.542 50.5862 247.542Z" fill="#E64A67"/>
<path d="M62.6038 234.546C61.4273 234.546 60.1056 234.298 58.7955 233.825C57.1601 233.234 55.7352 232.362 54.7833 231.369C53.813 230.357 53.4464 229.335 53.7509 228.492C53.771 228.437 53.8322 228.408 53.8873 228.428C53.9428 228.448 53.9714 228.509 53.9514 228.565C53.676 229.327 54.0261 230.271 54.9372 231.221C55.8668 232.191 57.2627 233.045 58.8679 233.625C60.473 234.204 62.0922 234.44 63.427 234.288C64.7353 234.14 65.6076 233.638 65.883 232.875C65.9031 232.82 65.9642 232.791 66.0195 232.811C66.075 232.831 66.1036 232.892 66.0836 232.947C65.7792 233.79 64.8443 234.342 63.4511 234.5C63.1794 234.531 62.896 234.546 62.6038 234.546Z" fill="#E64A67"/>
<path d="M64.288 236.566C63.8574 236.566 63.3751 236.486 62.8527 236.324C61.5261 235.912 60.09 235.02 58.8091 233.813C57.5281 232.605 56.5533 231.225 56.0641 229.924C55.5653 228.599 55.6292 227.51 56.2441 226.858C56.2845 226.815 56.3522 226.813 56.3948 226.853C56.4377 226.894 56.4397 226.961 56.3993 227.004C55.8433 227.594 55.7951 228.604 56.2638 229.849C56.7417 231.12 57.6976 232.472 58.9554 233.658C60.2131 234.843 61.6197 235.718 62.9159 236.12C64.1866 236.514 65.1925 236.407 65.7483 235.817C65.7886 235.774 65.8564 235.772 65.8989 235.812C65.9418 235.853 65.9438 235.92 65.9034 235.963C65.526 236.363 64.9721 236.566 64.288 236.566Z" fill="#E64A67"/>
<path d="M59.4484 234.025C59.2245 234.025 59.0194 233.971 58.8407 233.861C58.4156 233.601 58.2001 233.065 58.2339 232.352C58.2667 231.663 58.5296 230.883 58.9744 230.157C59.3116 229.607 59.727 229.131 60.1757 228.782C60.2225 228.746 60.2892 228.755 60.3253 228.801C60.3615 228.847 60.3531 228.914 60.3066 228.951C59.8779 229.284 59.4802 229.74 59.1562 230.269C58.7298 230.965 58.478 231.708 58.4468 232.362C58.4169 232.994 58.5962 233.461 58.9521 233.679C59.3079 233.897 59.806 233.845 60.3546 233.531C60.9234 233.206 61.4714 232.644 61.8979 231.948C62.2078 231.442 62.4288 230.903 62.5366 230.389C62.5486 230.332 62.6054 230.295 62.6628 230.307C62.7205 230.319 62.7574 230.376 62.7452 230.433C62.6324 230.971 62.4023 231.533 62.0796 232.06C61.6349 232.786 61.0599 233.374 60.4603 233.716C60.1014 233.922 59.7572 234.025 59.4484 234.025Z" fill="#E64A67"/>
<path d="M65.4795 235.42C65.3568 235.76 65.5327 236.135 65.8724 236.257C66.2122 236.38 66.5869 236.204 66.7097 235.865C66.8324 235.525 66.6565 235.15 66.3168 235.027C65.9771 234.905 65.6022 235.081 65.4795 235.42Z" fill="#E64A67"/>
<path d="M65.4258 232.819C65.3031 233.158 65.479 233.533 65.8187 233.656C66.1584 233.779 66.5332 233.603 66.656 233.263C66.7787 232.923 66.6028 232.548 66.2631 232.426C65.9233 232.303 65.5485 232.479 65.4258 232.819Z" fill="#E64A67"/>
<path d="M62.0889 230.061C61.9662 230.401 62.1421 230.775 62.4818 230.898C62.8215 231.021 63.1963 230.845 63.319 230.505C63.4418 230.166 63.2658 229.791 62.9261 229.668C62.5864 229.545 62.2116 229.721 62.0889 230.061Z" fill="#E64A67"/>
<path d="M59.6328 228.678C59.5101 229.018 59.686 229.393 60.0258 229.515C60.3655 229.638 60.7403 229.462 60.863 229.122C60.9857 228.783 60.8098 228.408 60.4702 228.285C60.1304 228.162 59.7556 228.338 59.6328 228.678Z" fill="#E64A67"/>
<path d="M55.8613 226.598C55.7386 226.938 55.9146 227.312 56.2543 227.435C56.594 227.558 56.9688 227.382 57.0915 227.042C57.2142 226.703 57.0383 226.328 56.6986 226.205C56.3589 226.082 55.9841 226.258 55.8613 226.598Z" fill="#E64A67"/>
<path d="M53.3233 228.075C53.2005 228.414 53.3765 228.789 53.7162 228.912C54.0559 229.035 54.4307 228.859 54.5534 228.519C54.6762 228.179 54.5002 227.804 54.1605 227.682C53.8208 227.559 53.4459 227.735 53.3233 228.075Z" fill="#E64A67"/>
<path d="M50.1458 255.551C50.1373 255.551 50.1289 255.55 50.1204 255.548C50.0632 255.534 50.0282 255.476 50.0421 255.419C51.139 250.92 52.6237 246.488 54.4551 242.247C55.7152 239.329 57.1613 236.452 58.7531 233.696C58.7825 233.645 58.8479 233.627 58.8987 233.657C58.9498 233.686 58.9673 233.752 58.9377 233.803C57.3501 236.551 55.9077 239.421 54.6509 242.331C52.8242 246.561 51.3433 250.982 50.2494 255.469C50.2374 255.518 50.1938 255.551 50.1458 255.551Z" fill="#E64A67"/>
<path d="M58.7204 270.257C62.1754 266.618 64.5119 260.206 64.5119 255.629C64.5119 250.728 61.8314 247.201 57.9678 245.643V240.873H48.4726V245.643C44.6092 247.201 41.9287 250.728 41.9287 255.629C41.9287 260.205 44.2651 266.618 47.7202 270.257H58.7204Z" fill="#EFBC73"/>
</g>
</g>
</g>
<defs>
<filter id="filter0_d_569_7918" x="0.269756" y="0.171987" width="238.57" height="329.939" filterUnits="userSpaceOnUse" color-interpolation-filters="sRGB">
<feFlood flood-opacity="0" result="BackgroundImageFix"/>
<feColorMatrix in="SourceAlpha" type="matrix" values="0 0 0 0 0 0 0 0 0 0 0 0 0 0 0 0 0 0 127 0" result="hardAlpha"/>
<feOffset dy="2.14247"/>
<feGaussianBlur stdDeviation="2.14247"/>
<feComposite in2="hardAlpha" operator="out"/>
<feColorMatrix type="matrix" values="0 0 0 0 0 0 0 0 0 0 0 0 0 0 0 0 0 0 0.1 0"/>
<feBlend mode="normal" in2="BackgroundImageFix" result="effect1_dropShadow_569_7918"/>
<feBlend mode="normal" in="SourceGraphic" in2="effect1_dropShadow_569_7918" result="shape"/>
</filter>
<clipPath id="clip0_569_7918">
<rect x="20.3076" y="107.863" width="198.493" height="203.219" rx="15.7534" fill="white"/>
</clipPath>
<clipPath id="clip1_569_7918">
<rect x="20.3076" y="107.863" width="198.493" height="203.219" rx="15.7534" fill="white"/>
</clipPath>
</defs>
</svg>
